<?xml version="1.0" encoding="UTF-8" standalone="no"?>
<!DOCTYPE svg PUBLIC "-//W3C//DTD SVG 1.1//EN"
 "http://www.w3.org/Graphics/SVG/1.1/DTD/svg11.dtd">
<!-- Generated by graphviz version 9.0.0 (20230911.1827)
 -->
<!-- Title: dependencies Pages: 1 -->
<svg width="575pt" height="1253pt"
 viewBox="0.00 0.00 827.29 1804.55" xmlns="http://www.w3.org/2000/svg" xmlns:xlink="http://www.w3.org/1999/xlink">
<g id="graph0" class="graph" transform="scale(0.694444 0.694444) rotate(0) translate(4 1800.55)">
<title>dependencies</title>
<polygon fill="white" stroke="none" points="-4,4 -4,-1800.55 823.29,-1800.55 823.29,4 -4,4"/>
<!-- collections -->
<g id="node1" class="node">
<title>collections</title>
<ellipse fill="none" stroke="black" cx="64.02" cy="-1678" rx="51.35" ry="18"/>
<text text-anchor="middle" x="64.02" y="-1672.2" font-family="Consolas" font-size="14.00">collections</text>
</g>
<!-- climate.ipcc -->
<g id="node2" class="node">
<title>climate.ipcc</title>
<ellipse fill="none" stroke="black" cx="587.82" cy="-1063" rx="56.71" ry="18"/>
<text text-anchor="middle" x="587.82" y="-1057.2" font-family="Consolas" font-size="14.00">climate.ipcc</text>
</g>
<!-- collections&#45;&gt;climate.ipcc -->
<g id="edge1" class="edge">
<title>collections&#45;&gt;climate.ipcc</title>
<path fill="none" stroke="black" d="M100.23,-1690.97C118.9,-1697.17 142.41,-1703.9 164.04,-1707 233.56,-1716.97 429.26,-1711.89 476.59,-1660 554.04,-1575.09 579.53,-1201.56 585.38,-1092.8"/>
<polygon fill="black" stroke="black" points="588.87,-1093.12 585.89,-1082.95 581.88,-1092.76 588.87,-1093.12"/>
</g>
<!-- climate.un -->
<g id="node5" class="node">
<title>climate.un</title>
<ellipse fill="none" stroke="black" cx="411.11" cy="-1328" rx="50.86" ry="18"/>
<text text-anchor="middle" x="411.11" y="-1322.2" font-family="Consolas" font-size="14.00">climate.un</text>
</g>
<!-- collections&#45;&gt;climate.un -->
<g id="edge42" class="edge">
<title>collections&#45;&gt;climate.un</title>
<path fill="none" stroke="black" d="M79.62,-1660.5C97.72,-1639.66 130.33,-1604.81 164.04,-1582 222.73,-1542.29 257.83,-1565.36 309.63,-1517 358.19,-1471.67 387.93,-1397.48 401.45,-1356.84"/>
<polygon fill="black" stroke="black" points="404.72,-1358.12 404.45,-1347.53 398.05,-1355.98 404.72,-1358.12"/>
</g>
<!-- climate.libs -->
<g id="node11" class="node">
<title>climate.libs</title>
<ellipse fill="none" stroke="black" cx="236.83" cy="-1128" rx="54.27" ry="18"/>
<text text-anchor="middle" x="236.83" y="-1122.2" font-family="Consolas" font-size="14.00">climate.libs</text>
</g>
<!-- collections&#45;&gt;climate.libs -->
<g id="edge61" class="edge">
<title>collections&#45;&gt;climate.libs</title>
<path fill="none" stroke="black" d="M84.7,-1661.36C99.44,-1647.63 118.61,-1626.76 128.04,-1604 166.35,-1511.52 103.82,-1234.96 164.04,-1155 168.04,-1149.68 173.22,-1145.42 178.96,-1141.99"/>
<polygon fill="black" stroke="black" points="180.29,-1145.24 187.68,-1137.65 177.17,-1138.97 180.29,-1145.24"/>
</g>
<!-- climate.amix -->
<g id="node23" class="node">
<title>climate.amix</title>
<ellipse fill="none" stroke="black" cx="759.17" cy="-499" rx="60.12" ry="18"/>
<text text-anchor="middle" x="759.17" y="-493.2" font-family="Consolas" font-size="14.00">climate.amix</text>
</g>
<!-- collections&#45;&gt;climate.amix -->
<g id="edge22" class="edge">
<title>collections&#45;&gt;climate.amix</title>
<path fill="none" stroke="black" d="M83.8,-1694.93C102.57,-1710.61 133.02,-1732.85 164.04,-1742 297.34,-1781.33 348.31,-1785.5 476.59,-1732 579.27,-1689.18 613.19,-1664.45 663.05,-1565 757.81,-1375.99 759.26,-680.54 758.42,-528.5"/>
<polygon fill="black" stroke="black" points="761.92,-528.85 758.35,-518.87 754.92,-528.89 761.92,-528.85"/>
</g>
<!-- climate.ipcc&#45;&gt;climate.amix -->
<g id="edge40" class="edge">
<title>climate.ipcc&#45;&gt;climate.amix</title>
<path fill="none" stroke="black" d="M594.26,-1044.87C618.77,-963.26 718.99,-629.48 749.39,-528.24"/>
<polygon fill="black" stroke="black" points="752.7,-529.38 752.23,-518.79 746,-527.36 752.7,-529.38"/>
</g>
<!-- pathlib -->
<g id="node3" class="node">
<title>pathlib</title>
<ellipse fill="none" stroke="black" cx="64.02" cy="-941" rx="36.23" ry="18"/>
<text text-anchor="middle" x="64.02" y="-935.2" font-family="Consolas" font-size="14.00">pathlib</text>
</g>
<!-- pathlib&#45;&gt;climate.ipcc -->
<g id="edge2" class="edge">
<title>pathlib&#45;&gt;climate.ipcc</title>
<path fill="none" stroke="black" d="M73.88,-923.27C95.22,-880.94 148.81,-776.83 164.04,-768 220.01,-735.54 255.76,-732.15 309.63,-768 344.12,-790.96 314.51,-826.64 345.63,-854 390.96,-893.86 428.02,-854.15 476.59,-890 527.18,-927.35 560.42,-995.47 576.18,-1034.16"/>
<polygon fill="black" stroke="black" points="572.86,-1035.27 579.78,-1043.29 579.37,-1032.7 572.86,-1035.27"/>
</g>
<!-- pathlib&#45;&gt;climate.un -->
<g id="edge44" class="edge">
<title>pathlib&#45;&gt;climate.un</title>
<path fill="none" stroke="black" d="M92.26,-952.5C112.11,-960.82 139.67,-972.27 164.04,-982 228.42,-1007.71 266.58,-983.65 309.63,-1038 382.87,-1130.49 273.74,-1207.45 345.63,-1301 349.14,-1305.57 353.57,-1309.38 358.46,-1312.55"/>
<polygon fill="black" stroke="black" points="356.51,-1315.47 366.97,-1317.16 359.85,-1309.32 356.51,-1315.47"/>
</g>
<!-- pathlib&#45;&gt;climate.libs -->
<g id="edge63" class="edge">
<title>pathlib&#45;&gt;climate.libs</title>
<path fill="none" stroke="black" d="M80.18,-957.6C110.09,-990.34 176.87,-1063.45 212.46,-1102.41"/>
<polygon fill="black" stroke="black" points="209.62,-1104.49 218.95,-1109.51 214.79,-1099.77 209.62,-1104.49"/>
</g>
<!-- pathlib&#45;&gt;climate.amix -->
<g id="edge24" class="edge">
<title>pathlib&#45;&gt;climate.amix</title>
<path fill="none" stroke="black" d="M75.64,-923.74C89.72,-900.07 114.39,-855.82 128.04,-815 156.13,-731 103.41,-683.57 164.04,-619 191.36,-589.9 473.38,-539.5 512.59,-532 572.37,-520.56 641.08,-511.69 690.59,-506.04"/>
<polygon fill="black" stroke="black" points="690.75,-509.54 700.3,-504.94 689.97,-502.58 690.75,-509.54"/>
</g>
<!-- amilib.xml_lib -->
<g id="node4" class="node">
<title>amilib.xml_lib</title>
<ellipse fill="none" stroke="black" cx="64.02" cy="-1767" rx="64.02" ry="18"/>
<text text-anchor="middle" x="64.02" y="-1761.2" font-family="Consolas" font-size="14.00">amilib.xml_lib</text>
</g>
<!-- amilib.xml_lib&#45;&gt;climate.ipcc -->
<g id="edge3" class="edge">
<title>amilib.xml_lib&#45;&gt;climate.ipcc</title>
<path fill="none" stroke="black" d="M120.89,-1775.56C209.47,-1785.66 381.79,-1790.65 476.59,-1696 563.23,-1609.5 582.33,-1205.96 586.02,-1092.66"/>
<polygon fill="black" stroke="black" points="589.51,-1093.07 586.32,-1082.97 582.51,-1092.86 589.51,-1093.07"/>
</g>
<!-- amilib.xml_lib&#45;&gt;climate.un -->
<g id="edge45" class="edge">
<title>amilib.xml_lib&#45;&gt;climate.un</title>
<path fill="none" stroke="black" d="M84.43,-1749.69C97.4,-1737.71 114.5,-1721.09 128.04,-1705 146.14,-1683.49 143.65,-1672.35 164.04,-1653 219.21,-1600.62 260.01,-1620.66 309.63,-1563 363.39,-1500.52 392.03,-1404.98 403.71,-1357.26"/>
<polygon fill="black" stroke="black" points="407.08,-1358.21 405.97,-1347.68 400.26,-1356.61 407.08,-1358.21"/>
</g>
<!-- amilib.xml_lib&#45;&gt;climate.libs -->
<g id="edge65" class="edge">
<title>amilib.xml_lib&#45;&gt;climate.libs</title>
<path fill="none" stroke="black" d="M89.43,-1750.16C103.36,-1739.09 119.67,-1723.28 128.04,-1705 179.04,-1593.64 91.07,-1253.37 164.04,-1155 168,-1149.66 173.15,-1145.37 178.88,-1141.93"/>
<polygon fill="black" stroke="black" points="180.21,-1145.18 187.59,-1137.58 177.08,-1138.92 180.21,-1145.18"/>
</g>
<!-- amilib.xml_lib&#45;&gt;climate.amix -->
<g id="edge25" class="edge">
<title>amilib.xml_lib&#45;&gt;climate.amix</title>
<path fill="none" stroke="black" d="M116.25,-1777.79C239.22,-1800.31 549.34,-1836.18 663.05,-1654 724.4,-1555.71 752.36,-699.13 757.34,-528.49"/>
<polygon fill="black" stroke="black" points="760.84,-528.81 757.63,-518.72 753.84,-528.61 760.84,-528.81"/>
</g>
<!-- climate.un&#45;&gt;climate.ipcc -->
<g id="edge4" class="edge">
<title>climate.un&#45;&gt;climate.ipcc</title>
<path fill="none" stroke="black" d="M452.42,-1317.03C461.25,-1313.12 469.94,-1307.91 476.59,-1301 508.2,-1268.18 494,-1246.6 512.59,-1205 530.7,-1164.46 555.08,-1119.28 570.88,-1090.99"/>
<polygon fill="black" stroke="black" points="573.89,-1092.78 575.74,-1082.35 567.79,-1089.35 573.89,-1092.78"/>
</g>
<!-- climate.un&#45;&gt;climate.amix -->
<g id="edge26" class="edge">
<title>climate.un&#45;&gt;climate.amix</title>
<path fill="none" stroke="black" d="M449.43,-1315.71C458.74,-1311.77 468.4,-1306.87 476.59,-1301 578.31,-1228.1 609.56,-1203.14 663.05,-1090 711.28,-987.99 746.13,-633.8 755.6,-528.65"/>
<polygon fill="black" stroke="black" points="759.07,-529.14 756.47,-518.87 752.09,-528.52 759.07,-529.14"/>
</g>
<!-- amilib.ami_html -->
<g id="node6" class="node">
<title>amilib.ami_html</title>
<ellipse fill="none" stroke="black" cx="236.83" cy="-884" rx="72.79" ry="18"/>
<text text-anchor="middle" x="236.83" y="-878.2" font-family="Consolas" font-size="14.00">amilib.ami_html</text>
</g>
<!-- amilib.ami_html&#45;&gt;climate.ipcc -->
<g id="edge5" class="edge">
<title>amilib.ami_html&#45;&gt;climate.ipcc</title>
<path fill="none" stroke="black" d="M309.35,-886.49C359.24,-891.02 425.72,-902.85 476.59,-933 518.9,-958.07 552.74,-1005.39 571.27,-1035.5"/>
<polygon fill="black" stroke="black" points="568.03,-1036.91 576.18,-1043.69 574.04,-1033.31 568.03,-1036.91"/>
</g>
<!-- amilib.ami_html&#45;&gt;climate.un -->
<g id="edge46" class="edge">
<title>amilib.ami_html&#45;&gt;climate.un</title>
<path fill="none" stroke="black" d="M286.91,-897.46C295.71,-901.99 303.9,-908.02 309.63,-916 409.81,-1055.63 243.86,-1162.51 345.63,-1301 349.04,-1305.65 353.41,-1309.5 358.26,-1312.69"/>
<polygon fill="black" stroke="black" points="356.29,-1315.6 366.74,-1317.33 359.65,-1309.46 356.29,-1315.6"/>
</g>
<!-- csv -->
<g id="node7" class="node">
<title>csv</title>
<ellipse fill="none" stroke="black" cx="64.02" cy="-1044" rx="27" ry="18"/>
<text text-anchor="middle" x="64.02" y="-1038.2" font-family="Consolas" font-size="14.00">csv</text>
</g>
<!-- csv&#45;&gt;climate.ipcc -->
<g id="edge6" class="edge">
<title>csv&#45;&gt;climate.ipcc</title>
<path fill="none" stroke="black" d="M80.71,-1029.55C95.22,-1015.29 116.25,-992.19 128.04,-968 160.93,-900.53 105.58,-850.08 164.04,-803 214.43,-762.41 259.67,-761.87 309.63,-803 373.96,-855.96 288.3,-926.52 345.63,-987 386.92,-1030.57 419.41,-1001.72 476.59,-1020 498.55,-1027.02 522.43,-1036.15 542.34,-1044.19"/>
<polygon fill="black" stroke="black" points="540.97,-1047.41 551.55,-1047.95 543.62,-1040.93 540.97,-1047.41"/>
</g>
<!-- csv&#45;&gt;climate.un -->
<g id="edge47" class="edge">
<title>csv&#45;&gt;climate.un</title>
<path fill="none" stroke="black" d="M91.25,-1041.6C141.49,-1038.57 251.5,-1039.84 309.63,-1101 371.85,-1166.47 289.1,-1230.55 345.63,-1301 349.24,-1305.5 353.73,-1309.26 358.65,-1312.4"/>
<polygon fill="black" stroke="black" points="356.73,-1315.34 367.2,-1316.99 360.04,-1309.17 356.73,-1315.34"/>
</g>
<!-- csv&#45;&gt;climate.libs -->
<g id="edge67" class="edge">
<title>csv&#45;&gt;climate.libs</title>
<path fill="none" stroke="black" d="M86.31,-1054.47C113.46,-1067.82 160.98,-1091.19 195.17,-1108.01"/>
<polygon fill="black" stroke="black" points="193.44,-1111.05 203.96,-1112.33 196.53,-1104.77 193.44,-1111.05"/>
</g>
<!-- test.resources -->
<g id="node8" class="node">
<title>test.resources</title>
<ellipse fill="none" stroke="black" cx="411.11" cy="-792" rx="65.48" ry="18"/>
<text text-anchor="middle" x="411.11" y="-786.2" font-family="Consolas" font-size="14.00">test.resources</text>
</g>
<!-- test.resources&#45;&gt;climate.ipcc -->
<g id="edge7" class="edge">
<title>test.resources&#45;&gt;climate.ipcc</title>
<path fill="none" stroke="black" d="M451.75,-806.41C460.71,-811.02 469.62,-816.83 476.59,-824 536.17,-885.3 567.53,-984.64 580.11,-1033.69"/>
<polygon fill="black" stroke="black" points="576.68,-1034.4 582.48,-1043.27 583.48,-1032.73 576.68,-1034.4"/>
</g>
<!-- re -->
<g id="node9" class="node">
<title>re</title>
<ellipse fill="none" stroke="black" cx="64.02" cy="-1577" rx="27" ry="18"/>
<text text-anchor="middle" x="64.02" y="-1571.2" font-family="Consolas" font-size="14.00">re</text>
</g>
<!-- re&#45;&gt;climate.ipcc -->
<g id="edge8" class="edge">
<title>re&#45;&gt;climate.ipcc</title>
<path fill="none" stroke="black" d="M91.27,-1575.5C165.44,-1569.72 377.56,-1542.37 476.59,-1416 555.46,-1315.36 578.33,-1157.65 584.6,-1092.59"/>
<polygon fill="black" stroke="black" points="588.07,-1092.98 585.48,-1082.71 581.1,-1092.36 588.07,-1092.98"/>
</g>
<!-- re&#45;&gt;climate.un -->
<g id="edge48" class="edge">
<title>re&#45;&gt;climate.un</title>
<path fill="none" stroke="black" d="M89.43,-1570.06C136.09,-1555.9 239.52,-1520.11 309.63,-1463 346.91,-1432.63 377.79,-1385.51 395.09,-1355.73"/>
<polygon fill="black" stroke="black" points="397.98,-1357.71 399.88,-1347.29 391.9,-1354.26 397.98,-1357.71"/>
</g>
<!-- re&#45;&gt;climate.libs -->
<g id="edge69" class="edge">
<title>re&#45;&gt;climate.libs</title>
<path fill="none" stroke="black" d="M73.43,-1559.7C87.09,-1530.84 113.98,-1470.72 128.04,-1417 157.79,-1303.29 90.7,-1246.85 164.04,-1155 168.24,-1149.73 173.59,-1145.49 179.47,-1142.08"/>
<polygon fill="black" stroke="black" points="180.92,-1145.27 188.38,-1137.75 177.86,-1138.97 180.92,-1145.27"/>
</g>
<!-- re&#45;&gt;climate.amix -->
<g id="edge27" class="edge">
<title>re&#45;&gt;climate.amix</title>
<path fill="none" stroke="black" d="M79.17,-1592.38C92.38,-1607.01 112.35,-1629.86 128.04,-1651 145.67,-1674.76 138.07,-1692.82 164.04,-1707 286.12,-1773.65 355.77,-1759.92 476.59,-1691 598.85,-1621.25 612.76,-1566.47 663.05,-1435 728.77,-1263.22 752.47,-669.33 757.23,-528.92"/>
<polygon fill="black" stroke="black" points="760.72,-529.09 757.55,-518.98 753.72,-528.86 760.72,-529.09"/>
</g>
<!-- amilib.util -->
<g id="node10" class="node">
<title>amilib.util</title>
<ellipse fill="none" stroke="black" cx="236.83" cy="-1680" rx="47.45" ry="18"/>
<text text-anchor="middle" x="236.83" y="-1674.2" font-family="Consolas" font-size="14.00">amilib.util</text>
</g>
<!-- amilib.util&#45;&gt;climate.ipcc -->
<g id="edge9" class="edge">
<title>amilib.util&#45;&gt;climate.ipcc</title>
<path fill="none" stroke="black" d="M283.22,-1675.6C344.81,-1668.68 450.2,-1653.17 476.59,-1626 551.94,-1548.43 578.77,-1197.36 585.18,-1092.6"/>
<polygon fill="black" stroke="black" points="588.66,-1093.05 585.76,-1082.86 581.67,-1092.63 588.66,-1093.05"/>
</g>
<!-- amilib.util&#45;&gt;climate.un -->
<g id="edge50" class="edge">
<title>amilib.util&#45;&gt;climate.un</title>
<path fill="none" stroke="black" d="M258.94,-1663.92C274.78,-1650.88 296,-1631.25 309.63,-1610 363.22,-1526.41 392.79,-1410.53 404.34,-1357.1"/>
<polygon fill="black" stroke="black" points="407.71,-1358.08 406.34,-1347.58 400.86,-1356.64 407.71,-1358.08"/>
</g>
<!-- amilib.util&#45;&gt;climate.amix -->
<g id="edge28" class="edge">
<title>amilib.util&#45;&gt;climate.amix</title>
<path fill="none" stroke="black" d="M279.05,-1688.62C330.54,-1696.9 418.89,-1702.65 476.59,-1660 668.19,-1518.38 742.68,-695.84 755.94,-528.65"/>
<polygon fill="black" stroke="black" points="759.41,-529.1 756.7,-518.86 752.44,-528.56 759.41,-529.1"/>
</g>
<!-- climate.libs&#45;&gt;climate.ipcc -->
<g id="edge10" class="edge">
<title>climate.libs&#45;&gt;climate.ipcc</title>
<path fill="none" stroke="black" d="M289.47,-1123.45C338.1,-1118.61 412.81,-1109.73 476.59,-1096 496.75,-1091.66 518.58,-1085.45 537.45,-1079.59"/>
<polygon fill="black" stroke="black" points="538.26,-1083.01 546.74,-1076.65 536.15,-1076.33 538.26,-1083.01"/>
</g>
<!-- climate.libs&#45;&gt;climate.un -->
<g id="edge51" class="edge">
<title>climate.libs&#45;&gt;climate.un</title>
<path fill="none" stroke="black" d="M283.31,-1137.59C293.13,-1141.55 302.64,-1147.14 309.63,-1155 354.02,-1204.96 302.16,-1250.23 345.63,-1301 349.43,-1305.44 354.08,-1309.16 359.12,-1312.28"/>
<polygon fill="black" stroke="black" points="357.38,-1315.32 367.86,-1316.87 360.63,-1309.12 357.38,-1315.32"/>
</g>
<!-- lxml.html -->
<g id="node12" class="node">
<title>lxml.html</title>
<ellipse fill="none" stroke="black" cx="64.02" cy="-1390" rx="45.98" ry="18"/>
<text text-anchor="middle" x="64.02" y="-1384.2" font-family="Consolas" font-size="14.00">lxml.html</text>
</g>
<!-- lxml.html&#45;&gt;climate.ipcc -->
<g id="edge11" class="edge">
<title>lxml.html&#45;&gt;climate.ipcc</title>
<path fill="none" stroke="black" d="M80.97,-1406.94C99.1,-1424.85 130.56,-1451.99 164.04,-1463 225.51,-1483.21 247.57,-1481.32 309.63,-1463 394.39,-1437.98 421.1,-1423.79 476.59,-1355 542.2,-1273.67 571.51,-1149.17 581.98,-1092.69"/>
<polygon fill="black" stroke="black" points="585.42,-1093.35 583.73,-1082.89 578.53,-1092.13 585.42,-1093.35"/>
</g>
<!-- lxml.html&#45;&gt;climate.un -->
<g id="edge52" class="edge">
<title>lxml.html&#45;&gt;climate.un</title>
<path fill="none" stroke="black" d="M110.35,-1390.86C159.99,-1390.8 241.58,-1387.72 309.63,-1371 330.88,-1365.78 353.39,-1356.53 371.7,-1347.95"/>
<polygon fill="black" stroke="black" points="373.1,-1351.15 380.59,-1343.66 370.06,-1344.85 373.1,-1351.15"/>
</g>
<!-- lxml.html&#45;&gt;climate.libs -->
<g id="edge62" class="edge">
<title>lxml.html&#45;&gt;climate.libs</title>
<path fill="none" stroke="black" d="M67.72,-1371.64C75.07,-1328.01 99.42,-1217.14 164.04,-1155 169.08,-1150.15 175.07,-1146.16 181.41,-1142.87"/>
<polygon fill="black" stroke="black" points="182.53,-1146.21 190.2,-1138.89 179.65,-1139.83 182.53,-1146.21"/>
</g>
<!-- lxml.etree -->
<g id="node13" class="node">
<title>lxml.etree</title>
<ellipse fill="none" stroke="black" cx="64.02" cy="-788" rx="48.91" ry="18"/>
<text text-anchor="middle" x="64.02" y="-782.2" font-family="Consolas" font-size="14.00">lxml.etree</text>
</g>
<!-- lxml.etree&#45;&gt;climate.ipcc -->
<g id="edge12" class="edge">
<title>lxml.etree&#45;&gt;climate.ipcc</title>
<path fill="none" stroke="black" d="M69.33,-769.68C79.03,-733.18 106.36,-652.06 164.04,-619 225.23,-583.93 427.78,-623.09 476.59,-674 575.32,-776.98 586.76,-961.63 587.28,-1033.37"/>
<polygon fill="black" stroke="black" points="583.78,-1033.13 587.28,-1043.13 590.78,-1033.13 583.78,-1033.13"/>
</g>
<!-- lxml.etree&#45;&gt;climate.un -->
<g id="edge55" class="edge">
<title>lxml.etree&#45;&gt;climate.un</title>
<path fill="none" stroke="black" d="M71.36,-806.08C83.78,-838.82 114.54,-907.89 164.04,-944 218.06,-983.41 265.84,-931.46 309.63,-982 403.05,-1089.84 260.04,-1186.84 345.63,-1301 349.09,-1305.62 353.48,-1309.45 358.35,-1312.63"/>
<polygon fill="black" stroke="black" points="356.39,-1315.54 366.84,-1317.25 359.74,-1309.4 356.39,-1315.54"/>
</g>
<!-- lxml.etree&#45;&gt;climate.libs -->
<g id="edge64" class="edge">
<title>lxml.etree&#45;&gt;climate.libs</title>
<path fill="none" stroke="black" d="M73.96,-805.8C101.92,-861.44 187.8,-1032.39 221.78,-1100.03"/>
<polygon fill="black" stroke="black" points="218.48,-1101.25 226.09,-1108.61 224.73,-1098.11 218.48,-1101.25"/>
</g>
<!-- lxml.etree&#45;&gt;climate.amix -->
<g id="edge34" class="edge">
<title>lxml.etree&#45;&gt;climate.amix</title>
<path fill="none" stroke="black" d="M70.59,-769.85C82.49,-733.68 113.48,-651.75 164.04,-601 228.62,-536.18 257,-526.76 345.63,-504 464.89,-473.37 610.02,-481.63 692.49,-490.35"/>
<polygon fill="black" stroke="black" points="691.87,-493.8 702.19,-491.42 692.64,-486.85 691.87,-493.8"/>
</g>
<!-- argparse -->
<g id="node14" class="node">
<title>argparse</title>
<ellipse fill="none" stroke="black" cx="236.83" cy="-830" rx="45.01" ry="18"/>
<text text-anchor="middle" x="236.83" y="-824.2" font-family="Consolas" font-size="14.00">argparse</text>
</g>
<!-- argparse&#45;&gt;climate.ipcc -->
<g id="edge13" class="edge">
<title>argparse&#45;&gt;climate.ipcc</title>
<path fill="none" stroke="black" d="M278.22,-837.52C289.82,-841.52 301.51,-847.64 309.63,-857 358.22,-913.06 292.1,-968.62 345.63,-1020 370.07,-1043.47 457.52,-1054.38 520.08,-1059.27"/>
<polygon fill="black" stroke="black" points="519.71,-1062.76 529.94,-1060.01 520.22,-1055.78 519.71,-1062.76"/>
</g>
<!-- argparse&#45;&gt;climate.un -->
<g id="edge56" class="edge">
<title>argparse&#45;&gt;climate.un</title>
<path fill="none" stroke="black" d="M279.02,-836.87C290.66,-840.84 302.17,-847.11 309.63,-857 369.22,-936.04 287.5,-1220.87 345.63,-1301 349.01,-1305.67 353.37,-1309.54 358.21,-1312.74"/>
<polygon fill="black" stroke="black" points="356.22,-1315.64 366.67,-1317.38 359.59,-1309.5 356.22,-1315.64"/>
</g>
<!-- argparse&#45;&gt;climate.amix -->
<g id="edge35" class="edge">
<title>argparse&#45;&gt;climate.amix</title>
<path fill="none" stroke="black" d="M261.88,-814.66C283.49,-801.08 316.26,-780.98 345.63,-765 483.52,-689.95 538.86,-706.04 663.05,-610 694.11,-585.98 722.36,-550.46 739.86,-526.11"/>
<polygon fill="black" stroke="black" points="742.69,-528.17 745.59,-517.98 736.97,-524.14 742.69,-528.17"/>
</g>
<!-- pandas -->
<g id="node15" class="node">
<title>pandas</title>
<ellipse fill="none" stroke="black" cx="64.02" cy="-1113" rx="39.16" ry="18"/>
<text text-anchor="middle" x="64.02" y="-1107.2" font-family="Consolas" font-size="14.00">pandas</text>
</g>
<!-- pandas&#45;&gt;climate.ipcc -->
<g id="edge14" class="edge">
<title>pandas&#45;&gt;climate.ipcc</title>
<path fill="none" stroke="black" d="M102.13,-1108.23C120.71,-1105.91 143.55,-1103.16 164.04,-1101 290.21,-1087.69 437.88,-1075.1 521.07,-1068.27"/>
<polygon fill="black" stroke="black" points="521.18,-1071.78 530.87,-1067.47 520.61,-1064.8 521.18,-1071.78"/>
</g>
<!-- pandas&#45;&gt;climate.libs -->
<g id="edge66" class="edge">
<title>pandas&#45;&gt;climate.libs</title>
<path fill="none" stroke="black" d="M102.93,-1116.33C123.37,-1118.12 149.13,-1120.39 172.52,-1122.44"/>
<polygon fill="black" stroke="black" points="172,-1125.91 182.27,-1123.3 172.61,-1118.93 172,-1125.91"/>
</g>
<!-- amilib.file_lib -->
<g id="node16" class="node">
<title>amilib.file_lib</title>
<ellipse fill="none" stroke="black" cx="64.02" cy="-536" rx="61.09" ry="18"/>
<text text-anchor="middle" x="64.02" y="-530.2" font-family="Consolas" font-size="14.00">amilib.file_lib</text>
</g>
<!-- amilib.file_lib&#45;&gt;climate.ipcc -->
<g id="edge15" class="edge">
<title>amilib.file_lib&#45;&gt;climate.ipcc</title>
<path fill="none" stroke="black" d="M120.97,-529.22C208.88,-521.92 379.34,-521.82 476.59,-614 538.41,-672.6 573.49,-942.66 583.68,-1033.27"/>
<polygon fill="black" stroke="black" points="580.18,-1033.53 584.76,-1043.08 587.14,-1032.76 580.18,-1033.53"/>
</g>
<!-- amilib.file_lib&#45;&gt;climate.un -->
<g id="edge57" class="edge">
<title>amilib.file_lib&#45;&gt;climate.un</title>
<path fill="none" stroke="black" d="M70.4,-554.31C81.59,-592.57 107.98,-683.85 128.04,-761 145.29,-827.35 115.25,-862.83 164.04,-911 211.25,-957.62 265.67,-894.3 309.63,-944 362.45,-1003.72 298.18,-1236.92 345.63,-1301 349.06,-1305.64 353.44,-1309.48 358.3,-1312.67"/>
<polygon fill="black" stroke="black" points="356.32,-1315.58 366.78,-1317.3 359.68,-1309.44 356.32,-1315.58"/>
</g>
<!-- amilib.file_lib&#45;&gt;climate.libs -->
<g id="edge68" class="edge">
<title>amilib.file_lib&#45;&gt;climate.libs</title>
<path fill="none" stroke="black" d="M70.66,-554.25C82.33,-592.39 109.58,-683.45 128.04,-761 147.23,-841.64 140.88,-864.41 164.04,-944 180.49,-1000.54 207.18,-1064.03 222.96,-1099.7"/>
<polygon fill="black" stroke="black" points="219.6,-1100.75 226.87,-1108.45 225.99,-1097.89 219.6,-1100.75"/>
</g>
<!-- amilib.file_lib&#45;&gt;climate.amix -->
<g id="edge37" class="edge">
<title>amilib.file_lib&#45;&gt;climate.amix</title>
<path fill="none" stroke="black" d="M105.79,-522.48C159.88,-505.33 258.66,-476.68 345.63,-466 485.65,-448.8 523.93,-442.55 663.05,-466 680,-468.86 697.95,-474.39 713.65,-480.11"/>
<polygon fill="black" stroke="black" points="712.11,-483.27 722.7,-483.54 714.59,-476.73 712.11,-483.27"/>
</g>
<!-- abc -->
<g id="node17" class="node">
<title>abc</title>
<ellipse fill="none" stroke="black" cx="411.11" cy="-1274" rx="27" ry="18"/>
<text text-anchor="middle" x="411.11" y="-1268.2" font-family="Consolas" font-size="14.00">abc</text>
</g>
<!-- abc&#45;&gt;climate.ipcc -->
<g id="edge16" class="edge">
<title>abc&#45;&gt;climate.ipcc</title>
<path fill="none" stroke="black" d="M436.79,-1267.73C449.73,-1263.5 465.21,-1256.85 476.59,-1247 502.84,-1224.26 549.37,-1136.96 572.68,-1091.26"/>
<polygon fill="black" stroke="black" points="575.73,-1092.98 577.13,-1082.48 569.49,-1089.81 575.73,-1092.98"/>
</g>
<!-- textwrap -->
<g id="node18" class="node">
<title>textwrap</title>
<ellipse fill="none" stroke="black" cx="236.83" cy="-700" rx="43.55" ry="18"/>
<text text-anchor="middle" x="236.83" y="-694.2" font-family="Consolas" font-size="14.00">textwrap</text>
</g>
<!-- textwrap&#45;&gt;climate.ipcc -->
<g id="edge17" class="edge">
<title>textwrap&#45;&gt;climate.ipcc</title>
<path fill="none" stroke="black" d="M273.61,-709.84C286.28,-714.78 299.82,-721.93 309.63,-732 338.81,-761.99 314.95,-790.54 345.63,-819 390.54,-860.66 429.47,-822.85 476.59,-862 532.25,-908.24 564.45,-990.2 578.44,-1033.8"/>
<polygon fill="black" stroke="black" points="575.09,-1034.81 581.38,-1043.33 581.77,-1032.74 575.09,-1034.81"/>
</g>
<!-- textwrap&#45;&gt;climate.un -->
<g id="edge58" class="edge">
<title>textwrap&#45;&gt;climate.un</title>
<path fill="none" stroke="black" d="M254.05,-716.94C271.26,-736.11 297.62,-769.1 309.63,-803 346.67,-907.59 280.87,-1210.9 345.63,-1301 348.99,-1305.68 353.33,-1309.56 358.17,-1312.77"/>
<polygon fill="black" stroke="black" points="356.17,-1315.66 366.62,-1317.41 359.54,-1309.53 356.17,-1315.66"/>
</g>
<!-- textwrap&#45;&gt;climate.amix -->
<g id="edge38" class="edge">
<title>textwrap&#45;&gt;climate.amix</title>
<path fill="none" stroke="black" d="M276.64,-692.21C353.34,-675.88 528.54,-633.96 663.05,-567 686.88,-555.14 711.26,-537.58 729.37,-523.28"/>
<polygon fill="black" stroke="black" points="731.46,-526.09 737.05,-517.1 727.07,-520.64 731.46,-526.09"/>
</g>
<!-- copy -->
<g id="node19" class="node">
<title>copy</title>
<ellipse fill="none" stroke="black" cx="411.11" cy="-1220" rx="28.92" ry="18"/>
<text text-anchor="middle" x="411.11" y="-1214.2" font-family="Consolas" font-size="14.00">copy</text>
</g>
<!-- copy&#45;&gt;climate.ipcc -->
<g id="edge18" class="edge">
<title>copy&#45;&gt;climate.ipcc</title>
<path fill="none" stroke="black" d="M437.73,-1212.41C450.18,-1207.97 464.94,-1201.53 476.59,-1193 515.67,-1164.38 549.84,-1119.21 569.41,-1090.35"/>
<polygon fill="black" stroke="black" points="572.24,-1092.41 574.86,-1082.14 566.41,-1088.53 572.24,-1092.41"/>
</g>
<!-- requests -->
<g id="node20" class="node">
<title>requests</title>
<ellipse fill="none" stroke="black" cx="411.11" cy="-1166" rx="44.03" ry="18"/>
<text text-anchor="middle" x="411.11" y="-1160.2" font-family="Consolas" font-size="14.00">requests</text>
</g>
<!-- requests&#45;&gt;climate.ipcc -->
<g id="edge19" class="edge">
<title>requests&#45;&gt;climate.ipcc</title>
<path fill="none" stroke="black" d="M441.03,-1152.5C452.28,-1147.03 465.18,-1140.48 476.59,-1134 503.02,-1118.99 531.88,-1100.32 553.43,-1085.89"/>
<polygon fill="black" stroke="black" points="555.19,-1088.92 561.53,-1080.43 551.28,-1083.12 555.19,-1088.92"/>
</g>
<!-- io -->
<g id="node21" class="node">
<title>io</title>
<ellipse fill="none" stroke="black" cx="411.11" cy="-960" rx="27" ry="18"/>
<text text-anchor="middle" x="411.11" y="-954.2" font-family="Consolas" font-size="14.00">io</text>
</g>
<!-- io&#45;&gt;climate.ipcc -->
<g id="edge20" class="edge">
<title>io&#45;&gt;climate.ipcc</title>
<path fill="none" stroke="black" d="M433.92,-970.08C446.56,-976.1 462.68,-984.1 476.59,-992 503.02,-1007.01 531.88,-1025.68 553.43,-1040.11"/>
<polygon fill="black" stroke="black" points="551.28,-1042.88 561.53,-1045.57 555.19,-1037.08 551.28,-1042.88"/>
</g>
<!-- logging -->
<g id="node22" class="node">
<title>logging</title>
<ellipse fill="none" stroke="black" cx="236.83" cy="-646" rx="38.67" ry="18"/>
<text text-anchor="middle" x="236.83" y="-640.2" font-family="Consolas" font-size="14.00">logging</text>
</g>
<!-- logging&#45;&gt;climate.ipcc -->
<g id="edge21" class="edge">
<title>logging&#45;&gt;climate.ipcc</title>
<path fill="none" stroke="black" d="M271.94,-653.95C323.59,-667.74 421.45,-700.94 476.59,-765 546.47,-846.18 573.76,-975.67 582.87,-1033.47"/>
<polygon fill="black" stroke="black" points="579.38,-1033.8 584.32,-1043.17 586.3,-1032.77 579.38,-1033.8"/>
</g>
<!-- logging&#45;&gt;climate.un -->
<g id="edge60" class="edge">
<title>logging&#45;&gt;climate.un</title>
<path fill="none" stroke="black" d="M274.28,-651.23C287.52,-655.05 301.26,-661.63 309.63,-673 392.45,-785.61 264.89,-1186.89 345.63,-1301 348.96,-1305.71 353.28,-1309.6 358.1,-1312.82"/>
<polygon fill="black" stroke="black" points="356.09,-1315.71 366.54,-1317.47 359.47,-1309.58 356.09,-1315.71"/>
</g>
<!-- logging&#45;&gt;climate.amix -->
<g id="edge41" class="edge">
<title>logging&#45;&gt;climate.amix</title>
<path fill="none" stroke="black" d="M271.69,-637.8C344.02,-620.1 518.75,-576.31 663.05,-532 678.24,-527.33 694.65,-521.82 709.48,-516.65"/>
<polygon fill="black" stroke="black" points="710.26,-520.08 718.54,-513.46 707.94,-513.48 710.26,-520.08"/>
</g>
<!-- pprint -->
<g id="node24" class="node">
<title>pprint</title>
<ellipse fill="none" stroke="black" cx="587.82" cy="-396" rx="32.33" ry="18"/>
<text text-anchor="middle" x="587.82" y="-390.2" font-family="Consolas" font-size="14.00">pprint</text>
</g>
<!-- pprint&#45;&gt;climate.amix -->
<g id="edge23" class="edge">
<title>pprint&#45;&gt;climate.amix</title>
<path fill="none" stroke="black" d="M615.66,-405.8C630.1,-411.51 647.98,-419.29 663.05,-428 686.66,-441.65 711.28,-460.16 729.56,-474.86"/>
<polygon fill="black" stroke="black" points="726.85,-477.17 736.81,-480.77 731.27,-471.74 726.85,-477.17"/>
</g>
<!-- traceback -->
<g id="node25" class="node">
<title>traceback</title>
<ellipse fill="none" stroke="black" cx="587.82" cy="-342" rx="48.42" ry="18"/>
<text text-anchor="middle" x="587.82" y="-336.2" font-family="Consolas" font-size="14.00">traceback</text>
</g>
<!-- traceback&#45;&gt;climate.amix -->
<g id="edge29" class="edge">
<title>traceback&#45;&gt;climate.amix</title>
<path fill="none" stroke="black" d="M629.14,-351.85C640.81,-355.93 653.07,-361.51 663.05,-369 699.5,-396.37 728.09,-441.58 744.06,-470.82"/>
<polygon fill="black" stroke="black" points="740.87,-472.28 748.65,-479.47 747.06,-469 740.87,-472.28"/>
</g>
<!-- amilib.wikimedia -->
<g id="node26" class="node">
<title>amilib.wikimedia</title>
<ellipse fill="none" stroke="black" cx="587.82" cy="-288" rx="75.23" ry="18"/>
<text text-anchor="middle" x="587.82" y="-282.2" font-family="Consolas" font-size="14.00">amilib.wikimedia</text>
</g>
<!-- amilib.wikimedia&#45;&gt;climate.amix -->
<g id="edge30" class="edge">
<title>amilib.wikimedia&#45;&gt;climate.amix</title>
<path fill="none" stroke="black" d="M640.71,-301.17C648.77,-304.76 656.56,-309.3 663.05,-315 711.1,-357.25 738.31,-429.66 750.43,-469.89"/>
<polygon fill="black" stroke="black" points="747.03,-470.72 753.17,-479.35 753.75,-468.77 747.03,-470.72"/>
</g>
<!-- ast -->
<g id="node27" class="node">
<title>ast</title>
<ellipse fill="none" stroke="black" cx="587.82" cy="-234" rx="27" ry="18"/>
<text text-anchor="middle" x="587.82" y="-228.2" font-family="Consolas" font-size="14.00">ast</text>
</g>
<!-- ast&#45;&gt;climate.amix -->
<g id="edge31" class="edge">
<title>ast&#45;&gt;climate.amix</title>
<path fill="none" stroke="black" d="M614.69,-237.92C630.43,-241.52 649.95,-248.31 663.05,-261 722.98,-319.07 746.15,-419.79 754.26,-469.5"/>
<polygon fill="black" stroke="black" points="750.77,-469.85 755.74,-479.21 757.69,-468.79 750.77,-469.85"/>
</g>
<!-- os -->
<g id="node28" class="node">
<title>os</title>
<ellipse fill="none" stroke="black" cx="587.82" cy="-180" rx="27" ry="18"/>
<text text-anchor="middle" x="587.82" y="-174.2" font-family="Consolas" font-size="14.00">os</text>
</g>
<!-- os&#45;&gt;climate.amix -->
<g id="edge32" class="edge">
<title>os&#45;&gt;climate.amix</title>
<path fill="none" stroke="black" d="M614.63,-183.55C630.54,-187.01 650.28,-193.79 663.05,-207 735.18,-281.62 752.61,-411.59 756.83,-469.59"/>
<polygon fill="black" stroke="black" points="753.32,-469.56 757.45,-479.32 760.3,-469.11 753.32,-469.56"/>
</g>
<!-- sys -->
<g id="node29" class="node">
<title>sys</title>
<ellipse fill="none" stroke="black" cx="587.82" cy="-126" rx="27" ry="18"/>
<text text-anchor="middle" x="587.82" y="-120.2" font-family="Consolas" font-size="14.00">sys</text>
</g>
<!-- sys&#45;&gt;climate.amix -->
<g id="edge33" class="edge">
<title>sys&#45;&gt;climate.amix</title>
<path fill="none" stroke="black" d="M614.84,-129.35C630.84,-132.73 650.59,-139.49 663.05,-153 747.38,-244.41 758.03,-403.66 758.63,-469.36"/>
<polygon fill="black" stroke="black" points="755.13,-469.34 758.64,-479.34 762.13,-469.34 755.13,-469.34"/>
</g>
<!-- enum -->
<g id="node30" class="node">
<title>enum</title>
<ellipse fill="none" stroke="black" cx="587.82" cy="-72" rx="32.82" ry="18"/>
<text text-anchor="middle" x="587.82" y="-66.2" font-family="Consolas" font-size="14.00">enum</text>
</g>
<!-- enum&#45;&gt;climate.amix -->
<g id="edge36" class="edge">
<title>enum&#45;&gt;climate.amix</title>
<path fill="none" stroke="black" d="M620.14,-76.36C635.11,-80.01 652.1,-86.71 663.05,-99 712.78,-154.82 744.81,-387.11 754.81,-469.7"/>
<polygon fill="black" stroke="black" points="751.32,-469.95 755.98,-479.47 758.27,-469.13 751.32,-469.95"/>
</g>
<!-- amilib.pdf_args -->
<g id="node31" class="node">
<title>amilib.pdf_args</title>
<ellipse fill="none" stroke="black" cx="587.82" cy="-18" rx="70.36" ry="18"/>
<text text-anchor="middle" x="587.82" y="-12.2" font-family="Consolas" font-size="14.00">amilib.pdf_args</text>
</g>
<!-- amilib.pdf_args&#45;&gt;climate.amix -->
<g id="edge39" class="edge">
<title>amilib.pdf_args&#45;&gt;climate.amix</title>
<path fill="none" stroke="black" d="M642.13,-29.77C650.02,-33.52 657.39,-38.47 663.05,-45 719.03,-109.57 747.57,-379.14 755.69,-469.4"/>
<polygon fill="black" stroke="black" points="752.19,-469.51 756.55,-479.17 759.16,-468.9 752.19,-469.51"/>
</g>
<!-- pyvis.network -->
<g id="node32" class="node">
<title>pyvis.network</title>
<ellipse fill="none" stroke="black" cx="236.83" cy="-1182" rx="63.53" ry="18"/>
<text text-anchor="middle" x="236.83" y="-1176.2" font-family="Consolas" font-size="14.00">pyvis.network</text>
</g>
<!-- pyvis.network&#45;&gt;climate.un -->
<g id="edge43" class="edge">
<title>pyvis.network&#45;&gt;climate.un</title>
<path fill="none" stroke="black" d="M285.95,-1193.68C294.62,-1197.47 302.99,-1202.45 309.63,-1209 340.88,-1239.84 314.95,-1269.59 345.63,-1301 349.87,-1305.34 354.91,-1309.02 360.28,-1312.12"/>
<polygon fill="black" stroke="black" points="358.34,-1315.06 368.85,-1316.43 361.49,-1308.81 358.34,-1315.06"/>
</g>
<!-- pyvis -->
<g id="node33" class="node">
<title>pyvis</title>
<ellipse fill="none" stroke="black" cx="236.83" cy="-1436" rx="30.38" ry="18"/>
<text text-anchor="middle" x="236.83" y="-1430.2" font-family="Consolas" font-size="14.00">pyvis</text>
</g>
<!-- pyvis&#45;&gt;climate.un -->
<g id="edge49" class="edge">
<title>pyvis&#45;&gt;climate.un</title>
<path fill="none" stroke="black" d="M263.12,-1426.39C277.2,-1420.63 294.82,-1412.74 309.63,-1404 335.48,-1388.73 362.49,-1367.99 381.99,-1352.03"/>
<polygon fill="black" stroke="black" points="384.03,-1354.89 389.49,-1345.81 379.56,-1349.5 384.03,-1354.89"/>
</g>
<!-- amilib.amidriver -->
<g id="node34" class="node">
<title>amilib.amidriver</title>
<ellipse fill="none" stroke="black" cx="236.83" cy="-1344" rx="72.79" ry="18"/>
<text text-anchor="middle" x="236.83" y="-1338.2" font-family="Consolas" font-size="14.00">amilib.amidriver</text>
</g>
<!-- amilib.amidriver&#45;&gt;climate.un -->
<g id="edge53" class="edge">
<title>amilib.amidriver&#45;&gt;climate.un</title>
<path fill="none" stroke="black" d="M305.43,-1337.72C320.15,-1336.35 335.64,-1334.92 350.05,-1333.58"/>
<polygon fill="black" stroke="black" points="350.2,-1337.08 359.84,-1332.67 349.56,-1330.11 350.2,-1337.08"/>
</g>
<!-- climate -->
<g id="node35" class="node">
<title>climate</title>
<ellipse fill="none" stroke="black" cx="236.83" cy="-1290" rx="38.67" ry="18"/>
<text text-anchor="middle" x="236.83" y="-1284.2" font-family="Consolas" font-size="14.00">climate</text>
</g>
<!-- climate&#45;&gt;climate.un -->
<g id="edge54" class="edge">
<title>climate&#45;&gt;climate.un</title>
<path fill="none" stroke="black" d="M272.28,-1297.6C296.27,-1302.89 328.75,-1310.06 356.16,-1316.1"/>
<polygon fill="black" stroke="black" points="355.16,-1319.46 365.68,-1318.2 356.67,-1312.63 355.16,-1319.46"/>
</g>
<!-- lxml -->
<g id="node36" class="node">
<title>lxml</title>
<ellipse fill="none" stroke="black" cx="236.83" cy="-1236" rx="27" ry="18"/>
<text text-anchor="middle" x="236.83" y="-1230.2" font-family="Consolas" font-size="14.00">lxml</text>
</g>
<!-- lxml&#45;&gt;climate.un -->
<g id="edge59" class="edge">
<title>lxml&#45;&gt;climate.un</title>
<path fill="none" stroke="black" d="M262.41,-1242.23C276.91,-1246.61 295.2,-1253.43 309.63,-1263 329.01,-1275.87 326.48,-1287.78 345.63,-1301 351,-1304.71 356.96,-1308.06 363.03,-1311.02"/>
<polygon fill="black" stroke="black" points="361.33,-1314.09 371.88,-1315.03 364.22,-1307.72 361.33,-1314.09"/>
</g>
</g>
</svg>
