<?xml version="1.0" encoding="UTF-8"?>
<svg height="778.357" width="2580.85" xmlns="http://www.w3.org/2000/svg">
 <g id="page" xmlns:svgx="http://www.xml-cml.org/schema/svgx">
  <g begin="text">
   <text y="81.36" x="70.86,76.679,82.56,86.459,90.359,95.88,100.499,104.339,109.859,115.799,118.258,124.078,130.018,132.478,138.055,143.633,146.093,151.133,153.833,159.048,164.928,168.887,174.407,176.866,182.444,188.022,191.022" svgx:width="0.53,0.54,0.35,0.35,0.5,0.42,0.35,0.5,0.54,0.23,0.53,0.54,0.23,0.51,0.51,0.23,0.46,0.25,0.47,0.54,0.35,0.5,0.23,0.51,0.51,0.27,0.51" style="fill:rgb(0,0,0);font-family:Calibri-Bold;font-size:10.98px;stroke:none;">Corrected Ch 15 Figure 15.5</text>
   <text y="81.36" x="196.6" svgx:width="0.23" style="fill:rgb(0,0,0);font-family:Calibri;font-size:10.98px;stroke:none;"> </text>
   <text y="309.36" x="522.358" svgx:width="0.23" style="fill:rgb(0,0,0);font-family:Calibri;font-size:10.98px;stroke:none;"> </text>
   <text y="328.915" x="70.86,76.679,82.56,86.459,90.359,95.88,100.499,104.339,109.86,115.799,118.258,124.078,130.018,132.478,138.055,143.633,146.093,151.133,153.833,159.048,164.928,168.887,174.408,176.867,182.445,188.023,191.023,196.601" svgx:width="0.53,0.54,0.35,0.35,0.5,0.42,0.35,0.5,0.54,0.23,0.53,0.54,0.23,0.51,0.51,0.23,0.46,0.25,0.47,0.54,0.35,0.5,0.23,0.51,0.51,0.27,0.51,0.23" style="fill:rgb(0,0,0);font-family:Calibri-Bold;font-size:10.98px;stroke:none;">Corrected Ch 15 Figure 15.3 </text>
   <text y="768.357" x="522.358" svgx:width="0.23" style="fill:rgb(0,0,0);font-family:Calibri;font-size:10.98px;stroke:none;"> </text>
  </g>
  <rect style="fill:pink;opacity:0.2;stroke:blue;stroke-width:0.3;" x="70.85" y="51.421" height="215.75" width="451.3" title="11"/>
  <text y="51.421" class="image" id="image.11.1" width="451" height="215" x="70.85" style="font-size:5.0px;">image.11.1.71_522.51_267</text>
  <rect style="fill:pink;opacity:0.2;stroke:blue;stroke-width:0.3;" x="70.85" y="289.911" height="436.25" width="451.3" title="11"/>
  <text y="289.911" class="image" id="image.11.2" width="451" height="436" x="70.85" style="font-size:5.0px;">image.11.2.71_522.290_726</text>
 </g>
</svg>
