<?xml version="1.0" encoding="UTF-8"?>
<svg height="782.8" width="534.46" xmlns="http://www.w3.org/2000/svg">
 <g id="page" xmlns:svgx="http://www.xml-cml.org/schema/svgx">
  <g begin="text">
   <text y="80.82" x="246.6,251.4,256.68,261.48,263.76,268.32,272.218,274.493,278.39,280.91,283.195,289.795,295.075,297.359,302.099,304.383,307.803,312.783,317.522,319.803,325.083,330.363,335.163,337.443,339.723,341.997,346.977,351.478,356.457,358.738,360.957,367.557,371.876,374.935,380.216,383.692,388.973,391.253,396.112,400.373,405.652,410.873,416.152,424.132" svgx:width="0.48,0.52,0.48,0.23,0.45,0.39,0.23,0.39,0.25,0.23,0.66,0.52,0.23,0.48,0.23,0.35,0.5,0.47,0.23,0.53,0.52,0.48,0.23,0.23,0.23,0.5,0.45,0.5,0.23,0.23,0.66,0.43,0.31,0.53,0.35,0.52,0.23,0.49,0.42,0.53,0.52,0.53,0.8,0.23" style="fill:rgb(0,0,0);font-family:Calibri;font-size:10.02px;stroke:none;">analysis. On a regional level Oxford Economi</text>
  </g>
  <g begin="text">
   <text y="80.82" x="426.42,430.679,434.579,436.859,439.859,444.959,449.999,455.099,460.139,463.195,465.475,469.375,474.655,479.935,487.015,490.915,493.435,495.719,499.079,504.36,509.099,512.459" svgx:width="0.42,0.39,0.23,0.3,0.51,0.51,0.51,0.51,0.3,0.23,0.39,0.52,0.53,0.71,0.39,0.25,0.23,0.34,0.52,0.48,0.34,0.23" style="fill:rgb(0,0,0);font-family:Calibri;font-size:10.02px;stroke:none;">cs (2017) shows, that </text>
  </g>
  <g begin="text">
   <text y="93.06" x="246.6,251.4,256.68,261.961,267.181,271.981,274.261,276.541,278.821,284.102,287.162,290.642,295.443,299.342,302.702,306.122,311.402,315.661,318.961,324.242,327.722,332.702,334.986,337.266,342.547,347.047,352.026,355.926,359.286,367.207,372.187,377.467,380.828,384.728,387.007,392.288,397.208,400.567,407.708,412.688,417.668,422.948,425.168,430.268,435.308,440.408,445.508,447.728,452.527,457.808,463.028,465.308,470.348,475.448,480.488,485.528,487.808,492.308,497.108,500.588,505.147" svgx:width="0.48,0.52,0.52,0.52,0.48,0.23,0.23,0.23,0.52,0.31,0.35,0.48,0.39,0.34,0.35,0.52,0.42,0.34,0.52,0.35,0.5,0.23,0.23,0.52,0.45,0.5,0.39,0.34,0.8,0.5,0.52,0.34,0.39,0.23,0.52,0.5,0.34,0.71,0.5,0.5,0.52,0.23,0.51,0.51,0.51,0.51,0.23,0.48,0.52,0.52,0.23,0.51,0.51,0.51,0.51,0.23,0.45,0.48,0.35,0.45,0.23" style="fill:rgb(0,0,0);font-family:Calibri;font-size:10.02px;stroke:none;">annual infrastructure investments between 2016 and 2040 vary </text>
   <text y="105.244" x="246.6,253.744,256.019,261.299,266.279,268.554,273.114,275.634,277.913,282.534,287.814,291.291,293.511,298.311,300.586,302.866,305.146,309.945,314.445,319.246,321.52,323.801,328.601,333.881,336.156,341.136,343.415,347.676,352.956,358.176,363.396,366.756,370.233,372.507,377.487,381.385,383.664,386.724,392.004,396.984,402.024,407.124,410.124,412.409,417.389,421.286,424.586,426.867,434.846,439.646,443.006,447.987,451.884,454.164,458.424,463.704,468.924,474.204,477.564,481.461,483.681,487.941,490.216,495.496,499.394,504.374,506.654,510.014,515.294" svgx:width="0.71,0.23,0.52,0.5,0.23,0.45,0.25,0.23,0.46,0.53,0.35,0.23,0.48,0.23,0.23,0.23,0.48,0.45,0.48,0.23,0.23,0.48,0.52,0.23,0.5,0.23,0.42,0.53,0.52,0.52,0.34,0.35,0.23,0.5,0.39,0.23,0.3,0.52,0.5,0.51,0.51,0.3,0.23,0.5,0.39,0.34,0.23,0.8,0.48,0.34,0.5,0.39,0.23,0.42,0.53,0.52,0.52,0.34,0.39,0.23,0.42,0.23,0.53,0.39,0.5,0.23,0.34,0.53,0.23" style="fill:rgb(0,0,0);font-family:Calibri;font-size:10.02px;stroke:none;">widely. For all available countries (n=50) estimates counts close to </text>
   <text y="117.489" x="246.6,251.7,254.22,259.32,261.6,264.961,268.44,270.72,273.0,275.28,277.56,282.84,288.121,290.405,296.765,301.384,307.504,309.784,314.343,317.822,320.878,325.918,328.438,330.718,332.998,338.218,342.476,344.756,350.036,355.317,357.537,362.818,367.498,369.778,374.878,377.398,382.438,387.538,392.578,394.863,398.223,401.703,403.982,406.263,408.542,410.823,416.102,421.383,423.602,430.022,434.641,440.824,443.044,447.603,451.078,454.134,459.174,461.454,464.51,469.79,473.27,475.55,480.831,486.11,488.391,493.67,498.47,500.99" svgx:width="0.51,0.25,0.51,0.23,0.34,0.35,0.23,0.23,0.23,0.23,0.53,0.52,0.23,0.64,0.46,0.62,0.23,0.45,0.35,0.31,0.51,0.25,0.23,0.23,0.52,0.42,0.23,0.52,0.52,0.23,0.52,0.47,0.23,0.51,0.25,0.51,0.51,0.51,0.23,0.34,0.35,0.23,0.23,0.23,0.23,0.53,0.52,0.23,0.64,0.46,0.62,0.23,0.45,0.35,0.31,0.51,0.23,0.31,0.53,0.35,0.23,0.53,0.52,0.23,0.52,0.48,0.25,0.23" style="fill:rgb(0,0,0);font-family:Calibri;font-size:10.02px;stroke:none;">0.4 trillion USD yr-1, including 0.217 trillion USD yr-1 for China. </text>
   <text y="129.673" x="246.59,252.05,256.849,260.75,265.73,271.01,273.294,278.514,283.794,286.074,290.873,295.373,300.173,302.453,304.673,309.473,314.753,317.033,322.014,324.293,329.573,334.313,337.67,342.469,344.749,347.805,353.086,356.506,358.786,364.006,366.286,371.566,376.546,378.826,384.646,387.702,391.189,393.463,397.664,402.464,407.744,409.963,414.224,419.503,424.724,430.003,433.364,436.841,439.115,444.095,447.993,450.513,452.797,455.072,460.353,464.853,469.832,473.73,477.09,485.011,489.991,495.27,498.63,502.528,504.812,507.087,512.367" svgx:width="0.54,0.48,0.39,0.5,0.52,0.23,0.53,0.52,0.23,0.48,0.45,0.48,0.23,0.23,0.48,0.52,0.23,0.5,0.23,0.52,0.48,0.34,0.48,0.23,0.31,0.53,0.35,0.23,0.52,0.23,0.52,0.5,0.23,0.58,0.31,0.35,0.23,0.42,0.48,0.52,0.23,0.42,0.53,0.52,0.52,0.34,0.35,0.23,0.5,0.39,0.25,0.23,0.23,0.52,0.45,0.5,0.39,0.34,0.8,0.5,0.52,0.34,0.39,0.23,0.23,0.52,0.23" style="fill:rgb(0,0,0);font-family:Calibri;font-size:10.02px;stroke:none;">Based on available data for nine African countries, investments in </text>
   <text y="141.857" x="246.59,250.07,254.87,257.15,259.435,261.714,263.999,269.278,272.338,275.818,280.619,284.519,287.878,291.359,296.639,300.899,304.199,309.48,312.959,317.939,320.219,323.699,328.499,333.72,338.459,343.439,345.724,348.784,352.264,357.543,365.464,367.744,372.844,375.359,380.399,382.684,387.963,390.248,392.527,394.812,397.091,402.372,407.651,409.936,416.359,420.919,427.099,429.379,433.939,437.391,440.387,445.487,447.767,450.047,455.266,457.551,462.17,467.09,472.371,477.351,482.031,486.831,489.111,491.391,494.751,500.031,502.315,507.416,509.875,514.976" svgx:width="0.35,0.48,0.23,0.23,0.23,0.23,0.52,0.31,0.35,0.48,0.39,0.34,0.35,0.52,0.42,0.34,0.52,0.35,0.5,0.23,0.35,0.48,0.52,0.47,0.5,0.23,0.31,0.35,0.53,0.8,0.23,0.51,0.25,0.51,0.23,0.52,0.23,0.23,0.23,0.23,0.53,0.52,0.23,0.64,0.46,0.62,0.23,0.45,0.35,0.31,0.51,0.23,0.23,0.52,0.23,0.46,0.5,0.52,0.5,0.47,0.48,0.23,0.23,0.34,0.53,0.23,0.51,0.25,0.51,0.23" style="fill:rgb(0,0,0);font-family:Calibri;font-size:10.02px;stroke:none;">rail infrastructure range from 0.1 billion USD yr-1 in Senegal to 1.6 </text>
   <text y="154.102" x="246.59,251.87,254.145,256.42,258.7,260.975,266.255,271.535,273.819,280.239,284.858,290.979,293.263,297.823,301.3,304.305,309.405,311.685,313.965,319.246,321.466,327.946,330.226,334.965,339.945,343.425,345.706,350.505,353.025,355.245,361.845,365.746,370.545,378.525,383.326,385.605,390.585,393.945,396.23,401.029,403.31,405.83,408.049,411.105,416.145,421.185,426.286,431.326,434.382,436.661,441.942,444.161,448.901,454.181,456.462,458.741,463.422,468.702,472.063,475.963,478.183,482.983,485.262,490.362,492.882,497.923" svgx:width="0.52,0.23,0.23,0.23,0.23,0.53,0.52,0.23,0.64,0.46,0.62,0.23,0.45,0.35,0.31,0.51,0.23,0.23,0.52,0.23,0.65,0.23,0.47,0.5,0.35,0.23,0.48,0.25,0.23,0.66,0.39,0.48,0.8,0.48,0.23,0.5,0.34,0.23,0.48,0.23,0.25,0.23,0.3,0.51,0.51,0.51,0.51,0.3,0.23,0.52,0.23,0.47,0.52,0.23,0.23,0.47,0.52,0.34,0.39,0.23,0.48,0.23,0.51,0.25,0.51,0.23" style="fill:rgb(0,0,0);font-family:Calibri;font-size:10.02px;stroke:none;">billion USD yr-1 in Nigeria. Osama et al. (2021) highlights a 4.7 </text>
   <text y="166.286" x="246.59,251.87,254.15,256.43,258.71,260.99,266.27,271.551,273.835,280.255,284.874,290.995,293.274,296.334,298.614,303.834,308.634,313.914,318.173,320.453,325.673,330.412,332.633,337.372,342.172,347.392,349.677,352.737,358.016,361.496,363.717,369.538,372.598,376.078,378.358,382.616,387.416,392.636,394.916,399.174,404.394,409.674,414.895,418.255,421.734,424.014,428.995,432.895,435.174,437.455,442.735,445.02,448.38,453.66,458.581,460.861,464.22,467.7,472.501,477.781,481.622,486.903,492.182,495.663,499.023" svgx:width="0.52,0.23,0.23,0.23,0.23,0.53,0.52,0.23,0.64,0.46,0.62,0.23,0.31,0.23,0.52,0.48,0.52,0.42,0.23,0.52,0.47,0.23,0.47,0.48,0.52,0.23,0.31,0.53,0.35,0.23,0.58,0.31,0.35,0.23,0.42,0.48,0.52,0.23,0.42,0.53,0.52,0.52,0.34,0.35,0.23,0.5,0.39,0.23,0.23,0.52,0.23,0.34,0.52,0.5,0.23,0.34,0.35,0.48,0.52,0.39,0.52,0.53,0.35,0.34,0.23" style="fill:rgb(0,0,0);font-family:Calibri;font-size:10.02px;stroke:none;">billion USD financing gap for African countries in the transport </text>
   <text y="178.531" x="246.59,250.49,255.47,259.73,263.09,268.37,271.85,274.365,276.65,279.165,284.384,286.669,290.867,295.668,299.028,301.312,306.532,308.816,314.636,322.617,327.597,331.077,333.356,337.617,342.351,344.636,350.096,353.572,358.373,362.333,364.607,366.828,369.107,372.584,377.564,382.845,388.124,390.399,393.876,398.856,402.754,405.033,408.51,413.311,415.585,417.866,420.145,422.42,427.64,432.14,437.12,441.018,444.379,452.358,457.338,462.618,465.978,469.875,472.155,477.435,480.495,482.715,487.755,490.275,495.375" svgx:width="0.39,0.5,0.42,0.34,0.53,0.35,0.25,0.23,0.25,0.52,0.23,0.42,0.48,0.34,0.23,0.52,0.23,0.58,0.8,0.5,0.35,0.23,0.42,0.48,0.23,0.54,0.35,0.48,0.4,0.23,0.23,0.23,0.35,0.5,0.52,0.52,0.23,0.35,0.5,0.39,0.23,0.35,0.48,0.23,0.23,0.23,0.23,0.52,0.45,0.5,0.39,0.34,0.8,0.5,0.52,0.34,0.39,0.23,0.53,0.31,0.23,0.51,0.25,0.51,0.23" style="fill:rgb(0,0,0);font-family:Calibri;font-size:10.02px;stroke:none;">sector. In Latin America Brazil requires rail investments of 8.3 </text>
   <text y="190.715" x="246.6,251.88,254.155,256.43,258.71,260.985,266.265,271.545,273.829,280.249,284.868,290.989,293.273,297.833,301.31,304.315,309.415,311.935,314.215,317.215,322.495,324.775,327.056,332.335,339.475,344.455,349.736,352.015,357.235,361.794,364.013,369.174,374.154,377.633,382.914,385.199,392.338,394.618,397.978,403.259,405.478,410.578,413.098,418.138,420.359,425.639,427.92,430.199,432.48,434.759,440.039,445.319,447.599,454.02,458.639,464.759,467.044,471.603,475.076,478.072,483.172,485.692,487.972,492.712,497.993,503.213" svgx:width="0.52,0.23,0.23,0.23,0.23,0.53,0.52,0.23,0.64,0.46,0.62,0.23,0.45,0.35,0.31,0.51,0.25,0.23,0.31,0.53,0.23,0.23,0.53,0.71,0.5,0.52,0.23,0.52,0.45,0.23,0.52,0.5,0.35,0.52,0.23,0.71,0.23,0.34,0.52,0.23,0.51,0.25,0.51,0.23,0.52,0.23,0.23,0.23,0.23,0.53,0.52,0.23,0.64,0.46,0.62,0.23,0.45,0.35,0.31,0.51,0.25,0.23,0.48,0.52,0.52,0.23" style="fill:rgb(0,0,0);font-family:Calibri;font-size:10.02px;stroke:none;">billion USD yr-1, followed by Peru with 2.3 billion USD yr-1, and </text>
   <text y="202.959" x="246.59,251.93,257.21,259.485,261.765,266.745,269.025,276.169,278.443,281.804,287.084,289.304,294.403,296.923,302.024,304.244,309.523,311.804,314.079,316.359,318.634,323.913,329.194,331.473,337.894,342.513,348.634,350.918,355.478,358.955,361.97,367.07,369.59,371.87,374.39,379.61,381.89,385.247,390.527,393.884,398.684,400.963,403.423,405.708,410.987,415.967,420.407,425.387,427.667,432.948,438.228,443.208,448.488,450.708,454.968,460.248,465.468,470.748,474.105,477.585,479.806,484.785,488.685" svgx:width="0.53,0.52,0.23,0.23,0.5,0.23,0.71,0.23,0.34,0.52,0.23,0.51,0.25,0.51,0.23,0.52,0.23,0.23,0.23,0.23,0.53,0.52,0.23,0.64,0.46,0.62,0.23,0.45,0.35,0.31,0.51,0.25,0.23,0.25,0.52,0.23,0.34,0.53,0.34,0.48,0.23,0.25,0.23,0.52,0.5,0.45,0.5,0.23,0.53,0.52,0.5,0.52,0.23,0.42,0.53,0.52,0.52,0.34,0.35,0.23,0.5,0.39,0.23" style="fill:rgb(0,0,0);font-family:Calibri;font-size:10.02px;stroke:none;">Chile with 2.1 billion USD yr-1. In total, developed countries </text>
   <text y="215.144" x="246.59,254.57,259.85,265.131,270.411,273.771,276.051,281.271,286.011,288.231,293.512,298.792,301.072,304.372,309.652,311.936,316.736,319.016,326.996,332.276,336.176,339.536,341.816,346.856,351.956,356.996,359.276,364.496,366.777,369.056,371.336,373.616,378.896,384.176,386.456,392.876,397.495,403.677,405.898,410.457,413.934,416.99,422.09,424.31,427.366,432.646,437.626,442.666,447.766,450.226,452.506,460.486,465.466,470.266,475.547,480.467,485.507,488.027,493.127,498.227,503.447,508.727" svgx:width="0.8,0.53,0.52,0.52,0.34,0.23,0.52,0.47,0.23,0.52,0.52,0.23,0.34,0.53,0.23,0.48,0.23,0.8,0.53,0.39,0.34,0.23,0.51,0.51,0.51,0.23,0.52,0.23,0.23,0.23,0.23,0.53,0.52,0.23,0.64,0.46,0.62,0.23,0.45,0.35,0.31,0.51,0.23,0.3,0.52,0.5,0.51,0.51,0.25,0.23,0.8,0.5,0.48,0.52,0.5,0.51,0.25,0.51,0.51,0.52,0.52,0.23" style="fill:rgb(0,0,0);font-family:Calibri;font-size:10.02px;stroke:none;">mounting up to almost 120 billion USD yr-1 (n=15, mean=7.97bn </text>
   <text y="227.388" x="246.59,253.01,257.629,263.811,266.031,270.59,274.075,277.131,282.171,285.231,287.511,290.567,295.847,299.267,301.547,305.027,309.826,312.106,314.386,316.666,318.946,324.226,327.282,330.762,335.561,339.459,342.82,346.297,351.576,355.837,359.137,364.357,367.834,372.814,375.093,378.153,380.434,385.714,390.514,395.733,399.994,402.269,407.489,412.228,414.513,419.792,424.712,429.692,434.973,438.87,441.391,443.67,448.59,452.488,455.847,458.122,466.102,470.902,474.262,479.242,483.14,485.36,488.42,493.7,497.177" svgx:width="0.64,0.46,0.62,0.23,0.45,0.35,0.31,0.51,0.3,0.23,0.31,0.53,0.35,0.23,0.35,0.48,0.23,0.23,0.23,0.23,0.52,0.31,0.35,0.48,0.39,0.34,0.35,0.52,0.42,0.34,0.52,0.35,0.5,0.23,0.31,0.23,0.52,0.48,0.52,0.42,0.23,0.52,0.47,0.23,0.52,0.5,0.5,0.52,0.39,0.25,0.23,0.49,0.39,0.34,0.23,0.8,0.48,0.34,0.5,0.39,0.23,0.31,0.53,0.35,0.23" style="fill:rgb(0,0,0);font-family:Calibri;font-size:10.02px;stroke:none;">USD yr-1) for rail infrastructure financing needs. Estimates for </text>
   <text y="239.573" x="246.59,251.389,255.889,260.69,262.965,265.245,270.045,275.325,277.6,282.58,284.864,290.144,295.124,299.624,304.604,306.884,312.164,317.443,319.724,325.003,329.684,331.963,336.224,341.443,346.724,352.003,355.364,358.841,361.115,366.035,369.933,372.217,377.017,382.298,387.577,391.475,393.694,398.975,404.194,406.479,409.838,415.118,417.403,422.202,424.423,432.402,437.682,441.58,444.94,447.22,452.32,457.36,459.64,464.92,467.195,469.475,471.75,474.03,479.31,484.53,486.81,493.23,497.85,503.97,506.25,510.81,514.287" svgx:width="0.48,0.45,0.48,0.23,0.23,0.48,0.52,0.23,0.5,0.23,0.52,0.5,0.45,0.5,0.23,0.53,0.52,0.23,0.52,0.47,0.23,0.42,0.53,0.52,0.52,0.34,0.35,0.23,0.5,0.39,0.23,0.48,0.52,0.52,0.39,0.23,0.52,0.52,0.23,0.34,0.53,0.23,0.48,0.23,0.8,0.53,0.39,0.34,0.23,0.51,0.51,0.23,0.52,0.23,0.23,0.23,0.23,0.53,0.52,0.23,0.64,0.46,0.62,0.23,0.45,0.35,0.31" style="fill:rgb(0,0,0);font-family:Calibri;font-size:10.02px;stroke:none;">available developing countries adds up to almost 50 billion USD yr-</text>
   <text y="251.757" x="246.59,251.69,253.97,256.966,262.246,267.226,272.266,277.365,279.83,282.11,290.09,295.07,299.87,305.091,310.071,315.171,317.691,322.731,327.831,333.111,338.331,340.611,347.03,351.59,357.77,359.989,364.488,367.972,371.028,376.128,378.648,380.928,385.908,390.168,394.427,396.708,399.228,401.507,406.848,412.128,414.409,419.628,424.369,426.648,431.449,436.729,441.95,444.229,448.43,454.612,459.953,463.792,466.848,469.128,472.128,478.788,483.049,486.109,491.388,494.868,500.149" svgx:width="0.51,0.23,0.3,0.52,0.5,0.51,0.51,0.25,0.23,0.8,0.5,0.48,0.52,0.5,0.51,0.25,0.51,0.51,0.52,0.52,0.23,0.64,0.46,0.62,0.23,0.45,0.35,0.31,0.51,0.25,0.23,0.5,0.43,0.42,0.23,0.25,0.23,0.53,0.52,0.23,0.52,0.48,0.23,0.48,0.52,0.52,0.23,0.42,0.62,0.53,0.39,0.3,0.23,0.3,0.66,0.43,0.31,0.53,0.35,0.52,0.23" style="fill:rgb(0,0,0);font-family:Calibri;font-size:10.02px;stroke:none;">1 (n=27, mean=1.78bn USD yr-1, excl. China and LDCs) (Oxford </text>
  </g>
  <g begin="text">
   <text y="263.94" x="246.6,251.52,255.778,260.998,266.278,271.558,279.538,281.818,286.077,289.977,292.201,297.301,302.341,307.381,312.482,315.538" svgx:width="0.49,0.42,0.53,0.52,0.53,0.8,0.23,0.42,0.39,0.23,0.51,0.51,0.51,0.51,0.3,0.25" style="fill:rgb(0,0,0);font-family:Calibri;font-size:10.02px;stroke:none;">Economics 2017).</text>
  </g>
  <g begin="text">
   <text y="263.94" x="318.0" svgx:width="0.23" style="fill:rgb(0,0,0);font-family:Calibri;font-size:10.02px;stroke:none;"> </text>
  </g>
  <path style="fill:rgb(0,0,0);stroke:none;stroke-width:1.0;" d="M70.860 770.580 L71.340 770.580 L71.340 771.060 L70.860 771.060 L70.860 770.580 "/>
  <path style="fill:rgb(0,0,0);stroke:none;stroke-width:1.0;" d="M70.860 770.580 L71.340 770.580 L71.340 771.060 L70.860 771.060 L70.860 770.580 "/>
  <path style="fill:rgb(0,0,0);stroke:none;stroke-width:1.0;" d="M71.340 770.580 L127.560 770.580 L127.560 771.060 L71.340 771.060 L71.340 770.580 "/>
  <path style="fill:rgb(0,0,0);stroke:none;stroke-width:1.0;" d="M127.560 770.580 L128.040 770.580 L128.040 771.060 L127.560 771.060 L127.560 770.580 "/>
  <path style="fill:rgb(0,0,0);stroke:none;stroke-width:1.0;" d="M128.040 770.580 L184.260 770.580 L184.260 771.060 L128.040 771.060 L128.040 770.580 "/>
  <path style="fill:rgb(0,0,0);stroke:none;stroke-width:1.0;" d="M184.260 770.580 L184.740 770.580 L184.740 771.060 L184.260 771.060 L184.260 770.580 "/>
  <path style="fill:rgb(0,0,0);stroke:none;stroke-width:1.0;" d="M184.740 770.580 L240.960 770.580 L240.960 771.060 L184.740 771.060 L184.740 770.580 "/>
  <path style="fill:rgb(0,0,0);stroke:none;stroke-width:1.0;" d="M240.960 770.580 L241.440 770.580 L241.440 771.060 L240.960 771.060 L240.960 770.580 "/>
  <path style="fill:rgb(0,0,0);stroke:none;stroke-width:1.0;" d="M523.980 770.580 L524.460 770.580 L524.460 771.060 L523.980 771.060 L523.980 770.580 "/>
  <path style="fill:rgb(0,0,0);stroke:none;stroke-width:1.0;" d="M523.980 770.580 L524.460 770.580 L524.460 771.060 L523.980 771.060 L523.980 770.580 "/>
  <g begin="text">
   <text y="276.66" x="76.5,81.841,87.121,91.921,97.201,100.558,105.538,108.958,111.242,116.282" svgx:width="0.53,0.52,0.48,0.52,0.34,0.5,0.35,0.23,0.51,0.51" style="fill:rgb(0,0,0);font-family:Calibri;font-size:10.02px;stroke:none;">Chapter 15</text>
  </g>
  <g begin="text">
   <text y="276.66" x="121.32" svgx:width="0.23" style="fill:rgb(0,0,0);font-family:Calibri;font-size:10.02px;stroke:none;"> </text>
  </g>
  <g begin="text">
   <text y="276.66" x="133.2,138.3" svgx:width="0.51,0.51" style="fill:rgb(0,0,0);font-family:Calibri;font-size:10.02px;stroke:none;">36</text>
  </g>
  <g begin="text">
   <text y="276.66" x="143.34" svgx:width="0.23" style="fill:rgb(0,0,0);font-family:Calibri;font-size:10.02px;stroke:none;"> </text>
  </g>
  <g begin="text">
   <text y="276.66" x="189.9" svgx:width="0.51" style="fill:rgb(0,0,0);font-family:Calibri;font-size:10.02px;stroke:none;">8</text>
  </g>
  <g begin="text">
   <text y="276.66" x="194.94" svgx:width="0.23" style="fill:rgb(0,0,0);font-family:Calibri;font-size:10.02px;stroke:none;"> </text>
  </g>
  <g begin="text">
   <text y="276.66" x="246.6,251.881,256.86,260.34,262.62,267.12,272.1,276.001,278.28,283.081,287.581,292.561,296.041,300.841,305.521,310.501,312.785,317.345,322.325,327.126,330.606,332.885,337.385,339.67,341.949,347.23,351.73,356.71,360.61,363.91,371.89,376.87,382.151,385.51,387.79,393.07,398.05,402.97,408.251,412.15,414.43,419.711,422.711,424.931,429.731,433.21,438.491,443.771,449.051,454.272,456.551,461.591,466.691" svgx:width="0.52,0.5,0.35,0.23,0.45,0.5,0.39,0.23,0.48,0.45,0.5,0.35,0.48,0.47,0.5,0.23,0.45,0.5,0.48,0.35,0.23,0.45,0.23,0.23,0.52,0.45,0.5,0.39,0.34,0.8,0.5,0.52,0.34,0.23,0.52,0.5,0.5,0.52,0.39,0.23,0.53,0.31,0.23,0.48,0.35,0.53,0.52,0.52,0.52,0.23,0.51,0.51,0.51" style="fill:rgb(0,0,0);font-family:Calibri;font-size:10.02px;stroke:none;">derives average yearly investment needs of around 278</text>
  </g>
  <g begin="text">
   <text y="276.66" x="471.72" svgx:width="0.23" style="fill:rgb(0,0,0);font-family:Calibri;font-size:10.02px;stroke:none;"> </text>
  </g>
  <g begin="text">
   <text y="276.66" x="474.0,479.281,481.555,483.83,486.11,488.385,493.665,498.945,501.229,507.649,512.209,518.389" svgx:width="0.52,0.23,0.23,0.23,0.23,0.53,0.52,0.23,0.64,0.46,0.62,0.23" style="fill:rgb(0,0,0);font-family:Calibri;font-size:10.02px;stroke:none;">billion USD </text>
  </g>
  <g begin="text">
   <text y="288.84" x="246.6,251.159,254.636,257.692,262.792,265.012,270.292,275.573,278.934,281.213,283.494,285.713,290.813,295.853,300.954,305.994,308.273,313.074,318.354,323.575,325.854,330.894,335.994,341.035,343.314,349.735,354.294,360.476,362.697,367.977,370.258,372.537,374.818,377.098,382.378,387.659,389.938,394.497,397.972,401.028,406.068,408.348,410.632,415.913,418.192,421.493,426.773,431.753,434.037,439.317,444.297,448.617,451.917,454.201,458.101,463.081,467.581,472.561,476.041,480.842,483.121" svgx:width="0.45,0.35,0.31,0.51,0.23,0.52,0.52,0.34,0.23,0.23,0.23,0.51,0.51,0.51,0.51,0.23,0.48,0.52,0.52,0.23,0.51,0.51,0.51,0.23,0.64,0.46,0.62,0.23,0.52,0.23,0.23,0.23,0.23,0.53,0.52,0.23,0.45,0.35,0.31,0.51,0.23,0.23,0.52,0.23,0.34,0.52,0.5,0.23,0.52,0.5,0.43,0.34,0.23,0.39,0.5,0.45,0.5,0.35,0.48,0.23,0.23" style="fill:rgb(0,0,0);font-family:Calibri;font-size:10.02px;stroke:none;">yr-1 until 2030 and 431 USD billion yr-1 in the next several </text>
   <text y="301.084" x="246.59,251.87,256.85,261.109,265.849,271.13,276.11,280.01,282.472" svgx:width="0.52,0.5,0.42,0.48,0.52,0.5,0.39,0.25,0.23" style="fill:rgb(0,0,0);font-family:Calibri;font-size:10.02px;stroke:none;">decades, </text>
   <text y="313.269" x="246.59" svgx:width="0.23" style="fill:rgb(0,0,0);font-family:Calibri;font-size:10.02px;stroke:none;"> </text>
   <text y="325.513" x="246.59,251.209,256.49,261.77,267.051,269.271,274.552,276.836,282.117,287.037,289.321,293.522,298.802,303.542,308.822,313.562,318.481,323.762,326.047,329.406,334.627,337.326,339.525" svgx:width="0.46,0.52,0.53,0.52,0.23,0.52,0.23,0.52,0.5,0.23,0.42,0.52,0.48,0.52,0.47,0.5,0.52,0.23,0.34,0.53,0.27,0.23,0.23" style="fill:rgb(0,0,0);font-family:Calibri;font-size:10.02px;stroke:none;">Should be changed to: </text>
   <text y="337.698" x="246.59,248.875,253.674,258.955,264.175,266.455,271.735,276.715,280.195,282.475,286.975,291.955,295.854,298.134,302.934,307.374,312.354,315.834,320.635,325.374,330.354,332.575,337.135,342.115,346.915,350.395,352.675,357.235,359.519,361.739,366.959,371.459,376.439,380.34,383.7,391.68,396.66,401.94,405.3,407.584,412.864,417.844,422.765,427.984,431.884,434.168,439.448,442.508,444.793,449.592,453.072,458.353,463.573,468.853,474.073,476.353,481.393,486.433,491.533" svgx:width="0.23,0.48,0.52,0.52,0.23,0.52,0.5,0.35,0.23,0.45,0.5,0.39,0.23,0.48,0.45,0.5,0.35,0.48,0.47,0.5,0.23,0.45,0.5,0.48,0.35,0.23,0.45,0.23,0.23,0.52,0.45,0.5,0.39,0.34,0.8,0.5,0.52,0.34,0.23,0.52,0.5,0.5,0.52,0.39,0.23,0.53,0.31,0.23,0.48,0.35,0.53,0.52,0.52,0.52,0.23,0.51,0.51,0.51,0.23" style="fill:rgb(0,0,0);font-family:Calibri;font-size:10.02px;stroke:none;"> and derives average yearly investment needs of around 278 </text>
   <text y="349.882" x="246.59,251.87,254.145,256.42,258.7,260.975,266.255,271.535,273.819,280.239,284.858,290.979,293.263,297.823,301.3,304.305,309.405,311.685,313.965,319.246,321.466,324.826,330.107,335.087,337.306,342.587,347.567,351.886,355.246,357.53,361.37,366.35,370.85,375.831,379.31,384.11,386.39,388.675,393.955,398.935,403.194,407.933,413.214,418.193,422.033,424.553,426.838,429.117,434.398,438.656,440.877,446.157,451.438,453.717,458.938,463.677,465.962,471.181,476.462,481.682,486.962,490.442,493.801,499.082,504.362,506.643,509.943,514.502" svgx:width="0.52,0.23,0.23,0.23,0.23,0.53,0.52,0.23,0.64,0.46,0.62,0.23,0.45,0.35,0.31,0.51,0.23,0.23,0.52,0.23,0.34,0.52,0.5,0.23,0.52,0.5,0.43,0.34,0.23,0.39,0.5,0.45,0.5,0.35,0.48,0.23,0.23,0.52,0.5,0.42,0.48,0.52,0.5,0.39,0.25,0.23,0.23,0.52,0.42,0.23,0.52,0.52,0.23,0.52,0.47,0.23,0.53,0.52,0.52,0.53,0.35,0.34,0.52,0.52,0.23,0.34,0.45,0.23" style="fill:rgb(0,0,0);font-family:Calibri;font-size:10.02px;stroke:none;">billion USD yr-1 in the next several decades, including opportunity </text>
  </g>
  <g begin="text">
   <text y="362.1" x="246.6,250.86,256.14,260.04,263.397" svgx:width="0.42,0.53,0.39,0.34,0.39" style="fill:rgb(0,0,0);font-family:Calibri;font-size:10.02px;stroke:none;">costs</text>
  </g>
  <g begin="text">
   <text y="362.1" x="267.3" svgx:width="0.23" style="fill:rgb(0,0,0);font-family:Calibri;font-size:10.02px;stroke:none;"> </text>
  </g>
  <path style="fill:rgb(0,0,0);stroke:none;stroke-width:1.0;" d="M71.340 477.120 L127.560 477.120 L127.560 574.740 L71.340 574.740 L71.340 477.120 M71.340 477.120 L127.560 477.120 L127.560 574.740 L71.340 574.740 L71.340 477.120 M128.040 477.120 L184.260 477.120 L184.260 574.740 L128.040 574.740 L128.040 477.120 M128.040 477.120 L184.260 477.120 L184.260 574.740 L128.040 574.740 L128.040 477.120 M184.740 477.120 L240.960 477.120 L240.960 574.740 L184.740 574.740 L184.740 477.120 M184.740 477.120 L240.960 477.120 L240.960 574.740 L184.740 574.740 L184.740 477.120 M70.860 574.800 L71.340 574.800 L71.340 575.280 L70.860 575.280 L70.860 574.800 "/>
  <path style="fill:rgb(0,0,0);stroke:none;stroke-width:1.0;" d="M71.340 574.800 L127.560 574.800 L127.560 575.280 L71.340 575.280 L71.340 574.800 "/>
  <path style="fill:rgb(0,0,0);stroke:none;stroke-width:1.0;" d="M127.560 574.800 L128.040 574.800 L128.040 575.280 L127.560 575.280 L127.560 574.800 "/>
  <path style="fill:rgb(0,0,0);stroke:none;stroke-width:1.0;" d="M128.040 574.800 L184.260 574.800 L184.260 575.280 L128.040 575.280 L128.040 574.800 "/>
  <path style="fill:rgb(0,0,0);stroke:none;stroke-width:1.0;" d="M184.260 574.800 L184.740 574.800 L184.740 575.280 L184.260 575.280 L184.260 574.800 "/>
  <path style="fill:rgb(0,0,0);stroke:none;stroke-width:1.0;" d="M184.740 574.800 L240.960 574.800 L240.960 575.280 L184.740 575.280 L184.740 574.800 "/>
  <path style="fill:rgb(0,0,0);stroke:none;stroke-width:1.0;" d="M240.960 574.800 L241.440 574.800 L241.440 575.280 L240.960 575.280 L240.960 574.800 "/>
  <path style="fill:rgb(0,0,0);stroke:none;stroke-width:1.0;" d="M523.980 574.800 L524.460 574.800 L524.460 575.280 L523.980 575.280 L523.980 574.800 "/>
  <path style="fill:rgb(0,0,0);stroke:none;stroke-width:1.0;" d="M70.860 477.120 L71.340 477.120 L71.340 574.800 L70.860 574.800 L70.860 477.120 "/>
  <path style="fill:rgb(0,0,0);stroke:none;stroke-width:1.0;" d="M127.560 477.120 L128.040 477.120 L128.040 574.800 L127.560 574.800 L127.560 477.120 "/>
  <path style="fill:rgb(0,0,0);stroke:none;stroke-width:1.0;" d="M184.260 477.120 L184.740 477.120 L184.740 574.800 L184.260 574.800 L184.260 477.120 "/>
  <path style="fill:rgb(0,0,0);stroke:none;stroke-width:1.0;" d="M240.960 477.120 L241.440 477.120 L241.440 574.800 L240.960 574.800 L240.960 477.120 "/>
  <path style="fill:rgb(0,0,0);stroke:none;stroke-width:1.0;" d="M523.980 477.120 L524.460 477.120 L524.460 574.800 L523.980 574.800 L523.980 477.120 "/>
  <g begin="text">
   <text y="374.82" x="76.5,81.841,87.121,91.921,97.201,100.558,105.538,108.958,111.242,116.282" svgx:width="0.53,0.52,0.48,0.52,0.34,0.5,0.35,0.23,0.51,0.51" style="fill:rgb(0,0,0);font-family:Calibri;font-size:10.02px;stroke:none;">Chapter 15</text>
  </g>
  <g begin="text">
   <text y="374.82" x="121.32" svgx:width="0.23" style="fill:rgb(0,0,0);font-family:Calibri;font-size:10.02px;stroke:none;"> </text>
  </g>
  <g begin="text">
   <text y="374.82" x="133.2,138.3" svgx:width="0.51,0.51" style="fill:rgb(0,0,0);font-family:Calibri;font-size:10.02px;stroke:none;">38</text>
  </g>
  <g begin="text">
   <text y="374.82" x="143.34" svgx:width="0.23" style="fill:rgb(0,0,0);font-family:Calibri;font-size:10.02px;stroke:none;"> </text>
  </g>
  <g begin="text">
   <text y="374.82" x="189.9" svgx:width="0.51" style="fill:rgb(0,0,0);font-family:Calibri;font-size:10.02px;stroke:none;">2</text>
  </g>
  <g begin="text">
   <text y="374.82" x="195.0" svgx:width="0.51" style="fill:rgb(0,0,0);font-family:Calibri;font-size:10.02px;stroke:none;">4</text>
  </g>
  <g begin="text">
   <text y="374.82" x="200.04" svgx:width="0.23" style="fill:rgb(0,0,0);font-family:Calibri;font-size:10.02px;stroke:none;"> </text>
  </g>
  <g begin="text">
   <text y="374.82" x="246.6,251.881,256.86,260.22,267.36,272.34,277.32,282.601,284.821,289.861,294.962,297.481,302.522,309.661,311.945,314.225,319.505,321.785,326.825,331.925,336.965,342.066,344.285,347.341,354.001,358.321,361.321,366.602,370.081,375.362,377.647,382.506,386.765,392.044,397.265,402.544,410.524,412.805,417.063,420.903,423.187,428.288,433.328,438.428,443.468,446.524,448.804,453.543,458.824,464.044,466.324,471.364,476.404,483.544,485.823,488.88,494.701,498.181,503.162,507.062,511.622,513.901" svgx:width="0.52,0.5,0.34,0.71,0.5,0.5,0.52,0.23,0.51,0.51,0.25,0.51,0.71,0.23,0.23,0.52,0.23,0.51,0.51,0.51,0.51,0.23,0.3,0.66,0.43,0.31,0.53,0.35,0.52,0.23,0.49,0.42,0.53,0.52,0.53,0.8,0.23,0.42,0.39,0.23,0.51,0.51,0.51,0.51,0.3,0.23,0.48,0.52,0.52,0.23,0.51,0.51,0.71,0.23,0.3,0.58,0.35,0.5,0.4,0.46,0.23,0.23" style="fill:rgb(0,0,0);font-family:Calibri;font-size:10.02px;stroke:none;">between 15.9% in 2035 (Oxford Economics 2017) and 32% (Arezki </text>
  </g>
  <g begin="text">
   <text y="387.0" x="246.6,251.58,254.94,257.224,262.024,264.304,266.824,269.104,274.144,279.244,284.284,289.384,292.44,294.9,297.121" svgx:width="0.5,0.34,0.23,0.48,0.23,0.25,0.23,0.51,0.51,0.51,0.51,0.3,0.25,0.23,0.23" style="fill:rgb(0,0,0);font-family:Calibri;font-size:10.02px;stroke:none;">et al. 2016). </text>
   <text y="399.244" x="246.6,251.219,256.5,261.78,267.061,269.281,274.562,276.846,282.127,287.047,289.331,293.531,298.811,303.551,308.831,313.571,318.491,323.771,326.056,329.415,334.636,337.335,339.536" svgx:width="0.46,0.52,0.53,0.52,0.23,0.52,0.23,0.52,0.5,0.23,0.42,0.52,0.48,0.52,0.47,0.5,0.52,0.23,0.34,0.53,0.27,0.23,0.23" style="fill:rgb(0,0,0);font-family:Calibri;font-size:10.02px;stroke:none;">Should be changed to: </text>
   <text y="411.429" x="246.6,251.881,256.861,260.22,267.36,272.34,277.32,282.601,284.821,289.861,294.962,302.101,304.385,307.385,314.046,318.365,321.425,326.705,330.185,335.465,337.685,342.545,346.804,352.085,357.365,362.585,370.565,372.845,377.103,381.003,383.283,388.383,393.423,398.523,403.563,406.619,408.899,413.639,418.86,424.14,426.42,431.461,436.561,443.701,445.981,448.982,454.804,458.283,463.263,467.223,471.783,474.064,476.283,481.263,484.624,486.904,491.703,493.984,496.504" svgx:width="0.52,0.5,0.34,0.71,0.5,0.5,0.52,0.23,0.51,0.51,0.71,0.23,0.3,0.66,0.43,0.31,0.53,0.35,0.52,0.23,0.49,0.42,0.53,0.52,0.53,0.8,0.23,0.42,0.39,0.23,0.51,0.51,0.51,0.51,0.3,0.23,0.48,0.52,0.52,0.23,0.51,0.51,0.71,0.23,0.3,0.58,0.35,0.5,0.4,0.46,0.23,0.23,0.5,0.34,0.23,0.48,0.23,0.25,0.23" style="fill:rgb(0,0,0);font-family:Calibri;font-size:10.02px;stroke:none;">between 19% (Oxford Economics 2017) and 32% (Arezki et al. </text>
   <text y="423.613" x="246.6,251.7,256.74,261.84,266.881,269.876" svgx:width="0.51,0.51,0.51,0.51,0.3,0.23" style="fill:rgb(0,0,0);font-family:Calibri;font-size:10.02px;stroke:none;">2016) </text>
  </g>
  <path style="fill:rgb(0,0,0);stroke:none;stroke-width:1.0;" d="M71.340 382.080 L127.560 382.080 L127.560 476.580 L71.340 476.580 L71.340 382.080 M71.340 382.080 L127.560 382.080 L127.560 476.580 L71.340 476.580 L71.340 382.080 M128.040 382.080 L184.260 382.080 L184.260 476.580 L128.040 476.580 L128.040 382.080 M128.040 382.080 L184.260 382.080 L184.260 476.580 L128.040 476.580 L128.040 382.080 M184.740 382.080 L240.960 382.080 L240.960 476.580 L184.740 476.580 L184.740 382.080 M184.740 382.080 L240.960 382.080 L240.960 476.580 L184.740 476.580 L184.740 382.080 M184.740 382.080 L240.960 382.080 L240.960 476.580 L184.740 476.580 L184.740 382.080 M70.860 476.640 L71.340 476.640 L71.340 477.120 L70.860 477.120 L70.860 476.640 "/>
  <path style="fill:rgb(0,0,0);stroke:none;stroke-width:1.0;" d="M71.340 476.640 L127.560 476.640 L127.560 477.120 L71.340 477.120 L71.340 476.640 "/>
  <path style="fill:rgb(0,0,0);stroke:none;stroke-width:1.0;" d="M127.560 476.640 L128.040 476.640 L128.040 477.120 L127.560 477.120 L127.560 476.640 "/>
  <path style="fill:rgb(0,0,0);stroke:none;stroke-width:1.0;" d="M128.040 476.640 L184.260 476.640 L184.260 477.120 L128.040 477.120 L128.040 476.640 "/>
  <path style="fill:rgb(0,0,0);stroke:none;stroke-width:1.0;" d="M184.260 476.640 L184.740 476.640 L184.740 477.120 L184.260 477.120 L184.260 476.640 "/>
  <path style="fill:rgb(0,0,0);stroke:none;stroke-width:1.0;" d="M184.740 476.640 L240.960 476.640 L240.960 477.120 L184.740 477.120 L184.740 476.640 "/>
  <path style="fill:rgb(0,0,0);stroke:none;stroke-width:1.0;" d="M240.960 476.640 L241.440 476.640 L241.440 477.120 L240.960 477.120 L240.960 476.640 "/>
  <path style="fill:rgb(0,0,0);stroke:none;stroke-width:1.0;" d="M523.980 476.640 L524.460 476.640 L524.460 477.120 L523.980 477.120 L523.980 476.640 "/>
  <path style="fill:rgb(0,0,0);stroke:none;stroke-width:1.0;" d="M70.860 382.080 L71.340 382.080 L71.340 476.640 L70.860 476.640 L70.860 382.080 "/>
  <path style="fill:rgb(0,0,0);stroke:none;stroke-width:1.0;" d="M127.560 382.080 L128.040 382.080 L128.040 476.640 L127.560 476.640 L127.560 382.080 "/>
  <path style="fill:rgb(0,0,0);stroke:none;stroke-width:1.0;" d="M184.260 382.080 L184.740 382.080 L184.740 476.640 L184.260 476.640 L184.260 382.080 "/>
  <path style="fill:rgb(0,0,0);stroke:none;stroke-width:1.0;" d="M240.960 382.080 L241.440 382.080 L241.440 476.640 L240.960 476.640 L240.960 382.080 "/>
  <path style="fill:rgb(0,0,0);stroke:none;stroke-width:1.0;" d="M523.980 382.080 L524.460 382.080 L524.460 476.640 L523.980 476.640 L523.980 382.080 "/>
  <g begin="text">
   <text y="469.8" x="76.5,81.841,87.121,91.921,97.201,100.558,105.538,108.958,111.242,116.282" svgx:width="0.53,0.52,0.48,0.52,0.34,0.5,0.35,0.23,0.51,0.51" style="fill:rgb(0,0,0);font-family:Calibri;font-size:10.02px;stroke:none;">Chapter 15</text>
  </g>
  <g begin="text">
   <text y="469.8" x="121.32" svgx:width="0.23" style="fill:rgb(0,0,0);font-family:Calibri;font-size:10.02px;stroke:none;"> </text>
  </g>
  <g begin="text">
   <text y="469.8" x="133.2,138.3" svgx:width="0.51,0.51" style="fill:rgb(0,0,0);font-family:Calibri;font-size:10.02px;stroke:none;">83</text>
  </g>
  <g begin="text">
   <text y="469.8" x="143.34" svgx:width="0.23" style="fill:rgb(0,0,0);font-family:Calibri;font-size:10.02px;stroke:none;"> </text>
  </g>
  <g begin="text">
   <text y="469.8" x="189.9" svgx:width="0.51" style="fill:rgb(0,0,0);font-family:Calibri;font-size:10.02px;stroke:none;">2</text>
  </g>
  <g begin="text">
   <text y="469.8" x="194.94" svgx:width="0.23" style="fill:rgb(0,0,0);font-family:Calibri;font-size:10.02px;stroke:none;"> </text>
  </g>
  <g begin="text">
   <text y="469.8" x="246.6,249.12,254.401,259.681,261.961,266.461,268.741,274.022,279.302,284.102,286.382,288.662,293.402,298.683,303.903,306.123,310.381,312.661,317.941,323.222,327.122,329.406,334.627,337.687,339.966,345.247,350.227,354.727,359.707,361.987,367.208,372.488,377.468,382.749,385.028,389.769,395.049,400.27,402.549,407.83,412.81,417.31,422.29,424.509,429.79,435.07,437.351,442.631,447.312,449.591,453.85,459.069,464.35,469.63,472.99,476.47,478.749,483.669,487.57" svgx:width="0.25,0.52,0.52,0.23,0.45,0.23,0.52,0.52,0.48,0.23,0.23,0.48,0.52,0.52,0.23,0.42,0.23,0.52,0.52,0.39,0.23,0.53,0.31,0.23,0.52,0.5,0.45,0.5,0.23,0.53,0.52,0.5,0.52,0.23,0.48,0.52,0.52,0.23,0.52,0.5,0.45,0.5,0.23,0.53,0.52,0.23,0.52,0.47,0.23,0.42,0.53,0.52,0.52,0.34,0.35,0.23,0.5,0.39,0.23" style="fill:rgb(0,0,0);font-family:Calibri;font-size:10.02px;stroke:none;">Individual and clubs of developed and developing countries </text>
  </g>
  <g begin="text">
   <text y="481.98" x="246.6,250.859,256.139,259.619,263.099,268.079,273.359,276.719,278.94,283.499,285.718,290.999,294.478,299.758,304.258,306.539,311.819,316.799,319.084,324.303,329.584,334.864,337.145,339.424,343.625,345.904,350.644,355.863,360.664,364.084,368.883,374.164,377.523,382.503,387.483,391.383,393.603,396.66,402.419,408.601,414.061,416.282,421.322,426.422,431.462,436.562,439.263,441.542,444.062,446.582,452.883,458.222,463.503,465.782,470.823,475.923,480.963,486.063,488.762" svgx:width="0.42,0.52,0.35,0.35,0.5,0.52,0.34,0.23,0.45,0.23,0.52,0.35,0.53,0.45,0.23,0.52,0.5,0.23,0.52,0.52,0.52,0.23,0.23,0.42,0.23,0.47,0.52,0.48,0.35,0.48,0.52,0.34,0.5,0.5,0.39,0.23,0.3,0.58,0.62,0.54,0.23,0.51,0.51,0.51,0.51,0.27,0.23,0.25,0.25,0.63,0.53,0.53,0.23,0.51,0.51,0.51,0.51,0.27,0.23" style="fill:rgb(0,0,0);font-family:Calibri;font-size:10.02px;stroke:none;">currently provide public guarantees (ADB 2015; IIGCC 2015; </text>
   <text y="494.224" x="246.6,251.76,256.74,260.22,265.2,267.48,270.961,275.76,278.04,284.222,289.503,293.402,295.682,300.301,305.041,310.321,313.681,318.961,322.861,325.141,330.181,335.281,340.321,345.421,348.061,350.341,356.642,362.941,369.242,371.762,374.041,379.141,384.182,389.282,394.321,397.021,399.306,404.465,406.985,413.167,419.408,421.627,426.727,431.768,436.868,441.908,444.607,446.892,452.713,458.954,463.573,465.793,470.894,475.934,480.974,486.074,488.773" svgx:width="0.52,0.5,0.35,0.5,0.23,0.35,0.48,0.23,0.62,0.53,0.39,0.23,0.46,0.48,0.52,0.34,0.53,0.39,0.23,0.51,0.51,0.51,0.51,0.27,0.23,0.63,0.63,0.63,0.25,0.23,0.51,0.51,0.51,0.51,0.27,0.23,0.52,0.25,0.62,0.63,0.23,0.51,0.51,0.51,0.51,0.27,0.23,0.58,0.63,0.46,0.23,0.51,0.51,0.51,0.51,0.27,0.23" style="fill:rgb(0,0,0);font-family:Calibri;font-size:10.02px;stroke:none;">Pereira Dos Santos 2018; GGGI 2019; PIDG 2019; AGF 2020; </text>
   <text y="506.409" x="246.6,252.9,257.7,261.18,266.461,271.261,275.52,279.421,281.7,286.68,290.04,292.324,297.124,299.404,301.924,304.144,309.244,314.284,319.384,324.424,327.48,330.0,332.281,335.337,338.393,343.373,345.653,348.114,353.394,358.675,360.955,365.455,367.735,373.015,378.296,383.096,385.376,387.661,392.46,397.681,402.961,405.181,409.44,411.721,417.001,422.282,426.121,428.401,433.681,436.741,439.021,444.302,449.282,453.781,458.761,461.042,466.261,471.542,476.523,481.803,484.024,488.823,494.104,499.385" svgx:width="0.63,0.48,0.35,0.52,0.48,0.42,0.4,0.23,0.5,0.34,0.23,0.48,0.23,0.25,0.23,0.51,0.51,0.51,0.51,0.3,0.25,0.23,0.31,0.31,0.5,0.23,0.25,0.52,0.52,0.23,0.45,0.23,0.52,0.52,0.48,0.23,0.23,0.48,0.52,0.52,0.23,0.42,0.23,0.52,0.52,0.39,0.23,0.53,0.31,0.23,0.52,0.5,0.45,0.5,0.23,0.53,0.52,0.5,0.52,0.23,0.48,0.52,0.52,0.23" style="fill:rgb(0,0,0);font-family:Calibri;font-size:10.02px;stroke:none;">Garbacz et al. 2021). --&gt; Individual and clubs of developed and </text>
   <text y="518.653" x="246.6,251.881,256.86,261.359,266.34,268.62,273.9,279.181,281.462,286.742,291.422,293.702,297.961,303.18,308.46,313.741,317.101,320.578,322.857,327.838,331.738,334.017,338.218,343.498,346.978,350.459,355.439,360.72,364.019,366.3,370.859,373.139,378.419,381.899,387.179,391.679,393.959,399.24,404.22,406.44,411.721,416.941,422.222,424.501,426.781,431.039,433.319,437.999,443.28,448.08,451.56,456.36,461.64,464.94,469.92,474.9,478.801,481.08,484.08,489.902,496.084,501.485" svgx:width="0.52,0.5,0.45,0.5,0.23,0.53,0.52,0.23,0.52,0.47,0.23,0.42,0.53,0.52,0.52,0.34,0.35,0.23,0.5,0.39,0.23,0.42,0.52,0.35,0.35,0.5,0.52,0.34,0.23,0.45,0.23,0.52,0.35,0.53,0.45,0.23,0.52,0.5,0.23,0.52,0.52,0.52,0.23,0.23,0.42,0.23,0.47,0.52,0.48,0.35,0.48,0.52,0.34,0.5,0.5,0.39,0.23,0.3,0.58,0.62,0.54,0.23" style="fill:rgb(0,0,0);font-family:Calibri;font-size:10.02px;stroke:none;">developing countries currently provide public guarantees (ADB </text>
   <text y="530.838" x="246.6,251.7,256.74,261.84,266.88,269.401,271.68,276.72,281.82,286.86,291.961,294.6,296.884,299.404,301.864,308.164,313.505,318.844,321.129,326.168,331.268,336.308,341.408,344.109,346.388,351.548,356.528,359.948,364.928,367.209,370.689,375.488,377.773,383.955,389.236,393.135,395.415,399.975,404.776,410.056,413.416,418.636,422.536,424.821,429.921,434.961,440.061,445.101,447.802,450.081,456.382,462.681,468.982,471.502,473.781,478.821,483.922,488.962,494.062,496.761" svgx:width="0.51,0.51,0.51,0.51,0.25,0.23,0.51,0.51,0.51,0.51,0.27,0.23,0.25,0.25,0.63,0.53,0.53,0.23,0.51,0.51,0.51,0.51,0.27,0.23,0.52,0.5,0.35,0.5,0.23,0.35,0.48,0.23,0.62,0.53,0.39,0.23,0.46,0.48,0.52,0.34,0.53,0.39,0.23,0.51,0.51,0.51,0.51,0.27,0.23,0.63,0.63,0.63,0.25,0.23,0.51,0.51,0.51,0.51,0.27,0.23" style="fill:rgb(0,0,0);font-family:Calibri;font-size:10.02px;stroke:none;">2015, 2018; IIGCC 2015; Pereira Dos Santos 2018; GGGI 2019; </text>
   <text y="543.082" x="246.6,252.9,257.7,261.18,266.461,271.261,275.52,279.421,281.7,286.68,290.04,292.324,297.124,299.404,301.924,304.144,309.244,314.284,319.384,324.424,327.48,330.0,332.221" svgx:width="0.63,0.48,0.35,0.52,0.48,0.42,0.4,0.23,0.5,0.34,0.23,0.48,0.23,0.25,0.23,0.51,0.51,0.51,0.51,0.3,0.25,0.23,0.23" style="fill:rgb(0,0,0);font-family:Calibri;font-size:10.02px;stroke:none;">Garbacz et al. 2021). </text>
  </g>
  <path style="fill:rgb(0,0,0);stroke:none;stroke-width:1.0;" d="M71.340 287.100 L127.560 287.100 L127.560 381.600 L71.340 381.600 L71.340 287.100 M71.340 287.100 L127.560 287.100 L127.560 381.600 L71.340 381.600 L71.340 287.100 M128.040 287.100 L184.260 287.100 L184.260 381.600 L128.040 381.600 L128.040 287.100 M128.040 287.100 L184.260 287.100 L184.260 381.600 L128.040 381.600 L128.040 287.100 M184.740 287.100 L240.960 287.100 L240.960 381.600 L184.740 381.600 L184.740 287.100 M184.740 287.100 L240.960 287.100 L240.960 381.600 L184.740 381.600 L184.740 287.100 M70.860 381.600 L71.340 381.600 L71.340 382.080 L70.860 382.080 L70.860 381.600 "/>
  <path style="fill:rgb(0,0,0);stroke:none;stroke-width:1.0;" d="M71.340 381.600 L127.560 381.600 L127.560 382.080 L71.340 382.080 L71.340 381.600 "/>
  <path style="fill:rgb(0,0,0);stroke:none;stroke-width:1.0;" d="M127.560 381.600 L128.040 381.600 L128.040 382.080 L127.560 382.080 L127.560 381.600 "/>
  <path style="fill:rgb(0,0,0);stroke:none;stroke-width:1.0;" d="M128.040 381.600 L184.260 381.600 L184.260 382.080 L128.040 382.080 L128.040 381.600 "/>
  <path style="fill:rgb(0,0,0);stroke:none;stroke-width:1.0;" d="M184.260 381.600 L184.740 381.600 L184.740 382.080 L184.260 382.080 L184.260 381.600 "/>
  <path style="fill:rgb(0,0,0);stroke:none;stroke-width:1.0;" d="M184.740 381.600 L240.960 381.600 L240.960 382.080 L184.740 382.080 L184.740 381.600 "/>
  <path style="fill:rgb(0,0,0);stroke:none;stroke-width:1.0;" d="M240.960 381.600 L241.440 381.600 L241.440 382.080 L240.960 382.080 L240.960 381.600 "/>
  <path style="fill:rgb(0,0,0);stroke:none;stroke-width:1.0;" d="M523.980 381.600 L524.460 381.600 L524.460 382.080 L523.980 382.080 L523.980 381.600 "/>
  <path style="fill:rgb(0,0,0);stroke:none;stroke-width:1.0;" d="M70.860 287.100 L71.340 287.100 L71.340 381.600 L70.860 381.600 L70.860 287.100 "/>
  <path style="fill:rgb(0,0,0);stroke:none;stroke-width:1.0;" d="M127.560 287.100 L128.040 287.100 L128.040 381.600 L127.560 381.600 L127.560 287.100 "/>
  <path style="fill:rgb(0,0,0);stroke:none;stroke-width:1.0;" d="M184.260 287.100 L184.740 287.100 L184.740 381.600 L184.260 381.600 L184.260 287.100 "/>
  <path style="fill:rgb(0,0,0);stroke:none;stroke-width:1.0;" d="M240.960 287.100 L241.440 287.100 L241.440 381.600 L240.960 381.600 L240.960 287.100 "/>
  <path style="fill:rgb(0,0,0);stroke:none;stroke-width:1.0;" d="M523.980 287.100 L524.460 287.100 L524.460 381.600 L523.980 381.600 L523.980 287.100 "/>
  <g begin="text">
   <text y="564.78" x="76.5,81.841,87.121,91.921,97.201,100.558,105.538,108.958,111.242,116.282" svgx:width="0.53,0.52,0.48,0.52,0.34,0.5,0.35,0.23,0.51,0.51" style="fill:rgb(0,0,0);font-family:Calibri;font-size:10.02px;stroke:none;">Chapter 15</text>
  </g>
  <g begin="text">
   <text y="564.78" x="121.32" svgx:width="0.23" style="fill:rgb(0,0,0);font-family:Calibri;font-size:10.02px;stroke:none;"> </text>
  </g>
  <g begin="text">
   <text y="564.78" x="133.2,138.3" svgx:width="0.51,0.51" style="fill:rgb(0,0,0);font-family:Calibri;font-size:10.02px;stroke:none;">84</text>
  </g>
  <g begin="text">
   <text y="564.78" x="143.34" svgx:width="0.23" style="fill:rgb(0,0,0);font-family:Calibri;font-size:10.02px;stroke:none;"> </text>
  </g>
  <g begin="text">
   <text y="564.78" x="189.9,195.0" svgx:width="0.51,0.51" style="fill:rgb(0,0,0);font-family:Calibri;font-size:10.02px;stroke:none;">42</text>
  </g>
  <g begin="text">
   <text y="564.78" x="200.04" svgx:width="0.23" style="fill:rgb(0,0,0);font-family:Calibri;font-size:10.02px;stroke:none;"> </text>
  </g>
  <g begin="text">
   <text y="564.78" x="246.6,250.8,256.98,262.32,266.22,268.5,273.299,276.779,281.759,284.039,286.319,291.299,296.099,299.999,303.355,305.635,307.855,310.135,314.694,319.674,321.954,326.514,328.798,332.155,337.435,339.655,344.935,349.735,354.235,359.215,361.499,366.239,370.499,373.856,376.137,380.637,385.617,387.896,392.157,396.896,402.177,404.456,407.813,412.612,414.892,417.177,425.096,429.896,433.376,437.935,442.915,446.272,450.172,452.692,454.972,460.313,462.593,467.873,473.153,476.993,479.277,484.497,487.553,489.838,494.037,500.217,505.558,509.458" svgx:width="0.42,0.62,0.53,0.39,0.23,0.48,0.35,0.5,0.23,0.23,0.5,0.48,0.39,0.34,0.23,0.23,0.23,0.46,0.5,0.23,0.45,0.23,0.34,0.53,0.23,0.52,0.48,0.45,0.5,0.23,0.48,0.42,0.34,0.23,0.45,0.5,0.23,0.42,0.48,0.52,0.23,0.34,0.48,0.23,0.23,0.8,0.48,0.35,0.46,0.5,0.34,0.39,0.25,0.23,0.53,0.23,0.52,0.52,0.39,0.23,0.53,0.31,0.23,0.42,0.62,0.53,0.39,0.23" style="fill:rgb(0,0,0);font-family:Calibri;font-size:10.02px;stroke:none;">LDCs are least likely to have active capital markets. Clubs of LDCs </text>
  </g>
  <g begin="text">
   <text y="577.02" x="246.6,251.4,254.881,259.86,262.14,267.421,272.22,275.7,279.0,284.28,289.26,292.74,295.021,300.301,304.982,307.201,314.341,316.621,319.981,325.262,327.547,333.306,339.128,344.887,347.172,355.692,361.874,367.274,371.175,373.454,375.735,381.015,383.3,388.099,392.78,397.519,400.999,405.979,410.659,415.459,418.82,421.099,426.299,431.579,433.859,438.658,443.879,449.159,452.639,457.92,462.659,466.918,472.198,477.178,481.078,483.297,486.297,492.119,495.179,501.298,506.759" svgx:width="0.48,0.35,0.5,0.23,0.52,0.48,0.35,0.34,0.52,0.5,0.35,0.23,0.52,0.47,0.23,0.71,0.23,0.34,0.52,0.23,0.58,0.58,0.58,0.23,0.86,0.62,0.54,0.39,0.23,0.23,0.52,0.23,0.48,0.47,0.47,0.35,0.5,0.47,0.48,0.34,0.23,0.53,0.52,0.23,0.48,0.52,0.52,0.35,0.53,0.48,0.42,0.52,0.5,0.39,0.23,0.3,0.58,0.31,0.62,0.54,0.23" style="fill:rgb(0,0,0);font-family:Calibri;font-size:10.02px;stroke:none;">are partnering with AAA MDBs in aggregation approaches (AfDB </text>
   <text y="589.204" x="246.6,251.7,256.74,261.84,266.881,269.58,271.864,278.164,283.505,288.064,290.348,295.388,300.489,305.529,310.629,315.909,318.965,321.425,323.644" svgx:width="0.51,0.51,0.51,0.51,0.27,0.23,0.63,0.53,0.46,0.23,0.51,0.51,0.51,0.51,0.52,0.3,0.25,0.23,0.23" style="fill:rgb(0,0,0);font-family:Calibri;font-size:10.02px;stroke:none;">2020; GCF 2020b). </text>
   <text y="601.449" x="246.6" svgx:width="0.23" style="fill:rgb(0,0,0);font-family:Calibri;font-size:10.02px;stroke:none;"> </text>
   <text y="613.633" x="246.6,249.656,252.712,257.692,259.972,264.172,270.352,275.692,279.59,281.874,285.772,290.993,296.272,301.552,306.772,310.249,313.609,318.589,323.869,326.149,331.369,335.929,338.149,343.429,348.709,356.689,361.429,366.648,368.929,372.289,377.088,380.565,382.846,387.645,392.926,395.205,400.185,405.466,408.826,411.1,414.461,416.735,421.715,425.613,427.833,432.633,436.11,441.09,443.369,445.644,450.624,455.424,459.322,462.682,464.966,467.241,469.522,474.082,479.062,481.336,485.896,488.117,491.476,496.756,499.04,504.32,509.121,513.621,518.6" svgx:width="0.31,0.31,0.5,0.23,0.42,0.62,0.53,0.39,0.23,0.39,0.52,0.52,0.52,0.53,0.35,0.34,0.5,0.52,0.23,0.52,0.45,0.23,0.52,0.52,0.8,0.48,0.52,0.23,0.34,0.48,0.35,0.23,0.48,0.52,0.23,0.5,0.52,0.34,0.23,0.34,0.23,0.5,0.39,0.23,0.48,0.35,0.5,0.23,0.23,0.5,0.48,0.39,0.34,0.23,0.23,0.23,0.46,0.5,0.23,0.45,0.23,0.34,0.53,0.23,0.52,0.48,0.45,0.5,0.23" style="fill:rgb(0,0,0);font-family:Calibri;font-size:10.02px;stroke:none;">--&gt; LDCs supported by humanitarian entities are least likely to have </text>
   <text y="625.878" x="246.6,251.4,255.658,259.018,261.298,265.798,270.778,273.058,277.316,282.056,287.336,289.616,292.976,297.776,300.057,302.276,310.256,315.057,318.537,323.097,328.077,331.436,335.336,337.621,340.677,343.198,348.477,353.938,359.278,361.498,366.598,371.639,376.739,381.779,384.478,386.763,389.283,395.402,400.021,405.361,407.581,412.681,417.721,422.762,427.862,430.561,432.846,438.125,442.926,448.205,450.49,455.47,458.769,461.054,465.853,468.134,470.653,472.938,477.978,483.018,488.118,493.218,498.439,501.495,504.015" svgx:width="0.48,0.42,0.34,0.23,0.45,0.5,0.23,0.42,0.48,0.52,0.23,0.34,0.48,0.23,0.23,0.8,0.48,0.35,0.46,0.5,0.34,0.39,0.23,0.3,0.25,0.53,0.54,0.53,0.23,0.51,0.51,0.51,0.51,0.27,0.23,0.25,0.62,0.46,0.53,0.23,0.51,0.51,0.51,0.51,0.27,0.23,0.53,0.48,0.53,0.23,0.5,0.34,0.23,0.48,0.23,0.25,0.23,0.51,0.51,0.51,0.51,0.52,0.3,0.25,0.23" style="fill:rgb(0,0,0);font-family:Calibri;font-size:10.02px;stroke:none;">active capital markets (ICRC 2020; IDFC 2020; Cao et al. 2021b). </text>
   <text y="638.062" x="246.6,251.94,254.22,259.501,264.781,268.681,270.966,276.245,279.305,281.585,285.725,291.907,297.247,301.147,303.367,308.167,311.647,316.627,318.911,324.192,328.992,332.472,335.772,341.052,346.032,349.512,351.792,357.072,361.753,363.972,371.112,373.392,376.753,382.033,384.318,390.077,395.899,401.659,403.939,412.459,418.641,424.041,427.942,430.221,432.501,437.782,440.061,444.862,449.542,454.281,457.761,462.741,467.422,472.221,475.582,477.862,483.082,488.362" svgx:width="0.53,0.23,0.52,0.52,0.39,0.23,0.53,0.31,0.23,0.42,0.62,0.53,0.39,0.23,0.48,0.35,0.5,0.23,0.52,0.48,0.35,0.34,0.52,0.5,0.35,0.23,0.52,0.47,0.23,0.71,0.23,0.34,0.52,0.23,0.58,0.58,0.58,0.23,0.86,0.62,0.54,0.39,0.23,0.23,0.52,0.23,0.48,0.47,0.47,0.35,0.5,0.47,0.48,0.34,0.23,0.53,0.52,0.23" style="fill:rgb(0,0,0);font-family:Calibri;font-size:10.02px;stroke:none;">Clubs of LDCs are partnering with AAA MDBs in aggregation </text>
  </g>
  <g begin="text">
   <text y="650.22" x="246.6,251.4,256.68,261.961,265.441,270.721,275.462,279.72,285.001,289.981,293.881,296.101,299.157,304.917,307.917,314.1,319.56,321.784,326.884,331.924,337.025,342.065,344.764,347.045,353.344" svgx:width="0.48,0.52,0.52,0.35,0.53,0.48,0.42,0.52,0.5,0.39,0.23,0.3,0.58,0.31,0.62,0.54,0.23,0.51,0.51,0.51,0.51,0.27,0.23,0.63,0.53" style="fill:rgb(0,0,0);font-family:Calibri;font-size:10.02px;stroke:none;">approaches (AfDB 2020; GC</text>
  </g>
  <g begin="text">
   <text y="650.22" x="358.68,363.24,365.46,370.56,375.6,380.7,385.74,391.021,394.077" svgx:width="0.46,0.23,0.51,0.51,0.51,0.51,0.52,0.3,0.25" style="fill:rgb(0,0,0);font-family:Calibri;font-size:10.02px;stroke:none;">F 2020b).</text>
  </g>
  <g begin="text">
   <text y="650.22" x="396.54" svgx:width="0.23" style="fill:rgb(0,0,0);font-family:Calibri;font-size:10.02px;stroke:none;"> </text>
  </g>
  <path style="fill:rgb(0,0,0);stroke:none;stroke-width:1.0;" d="M71.340 188.940 L127.560 188.940 L127.560 286.620 L71.340 286.620 L71.340 188.940 M71.340 188.940 L127.560 188.940 L127.560 286.620 L71.340 286.620 L71.340 188.940 M128.040 188.940 L184.260 188.940 L184.260 286.620 L128.040 286.620 L128.040 188.940 M128.040 188.940 L184.260 188.940 L184.260 286.620 L128.040 286.620 L128.040 188.940 M184.740 188.940 L240.960 188.940 L240.960 286.620 L184.740 286.620 L184.740 188.940 M184.740 188.940 L240.960 188.940 L240.960 286.620 L184.740 286.620 L184.740 188.940 M70.860 286.620 L71.340 286.620 L71.340 287.100 L70.860 287.100 L70.860 286.620 "/>
  <path style="fill:rgb(0,0,0);stroke:none;stroke-width:1.0;" d="M71.340 286.620 L127.560 286.620 L127.560 287.100 L71.340 287.100 L71.340 286.620 "/>
  <path style="fill:rgb(0,0,0);stroke:none;stroke-width:1.0;" d="M127.560 286.620 L128.040 286.620 L128.040 287.100 L127.560 287.100 L127.560 286.620 "/>
  <path style="fill:rgb(0,0,0);stroke:none;stroke-width:1.0;" d="M128.040 286.620 L184.260 286.620 L184.260 287.100 L128.040 287.100 L128.040 286.620 "/>
  <path style="fill:rgb(0,0,0);stroke:none;stroke-width:1.0;" d="M184.260 286.620 L184.740 286.620 L184.740 287.100 L184.260 287.100 L184.260 286.620 "/>
  <path style="fill:rgb(0,0,0);stroke:none;stroke-width:1.0;" d="M184.740 286.620 L240.960 286.620 L240.960 287.100 L184.740 287.100 L184.740 286.620 "/>
  <path style="fill:rgb(0,0,0);stroke:none;stroke-width:1.0;" d="M240.960 286.620 L241.440 286.620 L241.440 287.100 L240.960 287.100 L240.960 286.620 "/>
  <path style="fill:rgb(0,0,0);stroke:none;stroke-width:1.0;" d="M523.980 286.620 L524.460 286.620 L524.460 287.100 L523.980 287.100 L523.980 286.620 "/>
  <path style="fill:rgb(0,0,0);stroke:none;stroke-width:1.0;" d="M70.860 188.940 L71.340 188.940 L71.340 286.620 L70.860 286.620 L70.860 188.940 "/>
  <path style="fill:rgb(0,0,0);stroke:none;stroke-width:1.0;" d="M127.560 188.940 L128.040 188.940 L128.040 286.620 L127.560 286.620 L127.560 188.940 "/>
  <path style="fill:rgb(0,0,0);stroke:none;stroke-width:1.0;" d="M184.260 188.940 L184.740 188.940 L184.740 286.620 L184.260 286.620 L184.260 188.940 "/>
  <path style="fill:rgb(0,0,0);stroke:none;stroke-width:1.0;" d="M240.960 188.940 L241.440 188.940 L241.440 286.620 L240.960 286.620 L240.960 188.940 "/>
  <path style="fill:rgb(0,0,0);stroke:none;stroke-width:1.0;" d="M523.980 188.940 L524.460 188.940 L524.460 286.620 L523.980 286.620 L523.980 188.940 "/>
  <g begin="text">
   <text y="662.94" x="76.5,81.841,87.121,91.921,97.201,100.558,105.538,108.958,111.242,116.282" svgx:width="0.53,0.52,0.48,0.52,0.34,0.5,0.35,0.23,0.51,0.51" style="fill:rgb(0,0,0);font-family:Calibri;font-size:10.02px;stroke:none;">Chapter 15</text>
  </g>
  <g begin="text">
   <text y="662.94" x="121.32" svgx:width="0.23" style="fill:rgb(0,0,0);font-family:Calibri;font-size:10.02px;stroke:none;"> </text>
  </g>
  <g begin="text">
   <text y="662.94" x="133.2,138.3" svgx:width="0.51,0.51" style="fill:rgb(0,0,0);font-family:Calibri;font-size:10.02px;stroke:none;">85</text>
  </g>
  <g begin="text">
   <text y="662.94" x="143.34" svgx:width="0.23" style="fill:rgb(0,0,0);font-family:Calibri;font-size:10.02px;stroke:none;"> </text>
  </g>
  <g begin="text">
   <text y="662.94" x="189.9,195.0" svgx:width="0.51,0.51" style="fill:rgb(0,0,0);font-family:Calibri;font-size:10.02px;stroke:none;">12</text>
  </g>
  <g begin="text">
   <text y="662.94" x="200.04" svgx:width="0.23" style="fill:rgb(0,0,0);font-family:Calibri;font-size:10.02px;stroke:none;"> </text>
  </g>
  <g begin="text">
   <text y="662.94" x="246.6,248.88,251.936,254.22,256.5,261.3,265.559,270.059,272.343,277.623,280.683,282.968,287.767,290.047,295.267,297.552,302.351,307.571,312.851,315.131,320.411,325.331,330.612,333.971,336.251,339.612,343.092,347.831,353.112,357.011,362.292,367.032,370.512,375.492,380.773,384.972,389.531,391.816,394.816,403.395,408.675,413.175,418.455,420.739,425.78,430.88,435.92,441.02,443.72,445.941,454.52,459.08,463.82,469.101,474.382,479.181,486.261,488.542,492.022,497.002" svgx:width="0.23,0.3,0.23,0.23,0.48,0.42,0.46,0.23,0.53,0.31,0.23,0.48,0.23,0.52,0.23,0.48,0.52,0.52,0.23,0.52,0.5,0.52,0.34,0.23,0.34,0.35,0.48,0.52,0.39,0.52,0.48,0.35,0.5,0.52,0.42,0.45,0.23,0.3,0.86,0.53,0.45,0.53,0.23,0.51,0.51,0.51,0.51,0.27,0.23,0.86,0.46,0.48,0.52,0.52,0.48,0.71,0.23,0.35,0.5,0.23" style="fill:rgb(0,0,0);font-family:Calibri;font-size:10.02px;stroke:none;">i) lack of aid and debt transparency (Moyo 2009; Mkandawire </text>
  </g>
  <g begin="text">
   <text y="675.18" x="246.6,251.7,256.74,261.84,266.88,269.58,271.864,277.024,285.962,290.762,295.381,297.601,302.701,307.741,312.841,317.881,320.937,323.217,325.497,327.777,330.833,333.113,341.094,343.373,348.654,350.933,356.154,360.893,363.964,366.964,372.244,376.142,380.039,382.314,384.594,386.874,389.934,395.214,400.195,402.469,406.367,408.651,412.549,417.529,421.789,425.089,430.369,433.846,436.13,440.93,446.21,451.43,453.714,455.989,458.263,460.544,462.818,467.079,469.353,472.713,474.998,478.058,480.332,485.553,490.352,495.633,499.892,504.812" svgx:width="0.51,0.51,0.51,0.51,0.27,0.23,0.52,0.89,0.49,0.46,0.23,0.51,0.51,0.51,0.51,0.3,0.23,0.23,0.23,0.3,0.23,0.8,0.23,0.52,0.23,0.52,0.47,0.31,0.31,0.53,0.39,0.39,0.23,0.23,0.23,0.31,0.52,0.5,0.23,0.39,0.23,0.39,0.5,0.42,0.34,0.53,0.35,0.23,0.48,0.52,0.52,0.23,0.23,0.23,0.23,0.23,0.42,0.23,0.34,0.23,0.31,0.23,0.52,0.48,0.52,0.42,0.5,0.23" style="fill:rgb(0,0,0);font-family:Calibri;font-size:10.02px;stroke:none;">2010; PWYF 2020) ii) mining-fossil fuels sector and illicit finance </text>
   <text y="687.364" x="246.6,249.656,254.816,257.096,261.897,267.177,271.737,273.957,279.057,284.097,289.197,294.237,296.938,299.157,303.717,308.518,312.776,318.057,321.956,324.236,328.976,334.257,339.477,341.757,350.638,355.437,358.917,364.138,369.118,372.598,374.877,379.977,385.017,390.117,395.158,397.857,400.142,406.381,411.121,416.402,418.682,423.902,429.182,431.467,436.507,441.607,446.647,451.748,456.968,460.024,462.244,465.301,467.58,469.861,472.14,474.421,477.477,479.756,481.977,486.776,491.035,495.595,497.875,503.095,506.155" svgx:width="0.3,0.52,0.23,0.48,0.52,0.46,0.23,0.51,0.51,0.51,0.51,0.27,0.23,0.46,0.48,0.42,0.52,0.39,0.23,0.48,0.52,0.52,0.23,0.89,0.48,0.35,0.52,0.5,0.35,0.23,0.51,0.51,0.51,0.51,0.27,0.23,0.62,0.48,0.52,0.23,0.53,0.52,0.23,0.51,0.51,0.51,0.51,0.52,0.3,0.23,0.3,0.23,0.23,0.23,0.23,0.3,0.23,0.23,0.48,0.42,0.46,0.23,0.53,0.31,0.23" style="fill:rgb(0,0,0);font-family:Calibri;font-size:10.02px;stroke:none;">(Plank 1993; Sachs and Warner 2001; Hanlon 2017b) ) iii) lack of </text>
   <text y="699.609" x="246.6,251.881,256.86,261.359,266.34,268.62,273.9,279.181,284.161,289.441,291.661,295.919,301.139,306.359,311.64,315.001,318.48,323.04,325.259,329.518,334.797,342.777,350.757,353.037,356.397,364.317,369.297,374.578,377.937,380.218,383.577,388.797,391.077,396.358,398.639,403.623,408.844,413.583,418.563,422.463,424.687,427.744,434.223,439.504,444.305,452.285,457.505,459.784,464.584,469.804,475.085,477.304,483.724,489.005,493.804,501.784,507.065" svgx:width="0.52,0.5,0.45,0.5,0.23,0.53,0.52,0.5,0.52,0.23,0.42,0.53,0.52,0.52,0.34,0.35,0.45,0.23,0.42,0.53,0.8,0.8,0.23,0.34,0.8,0.5,0.52,0.34,0.23,0.34,0.53,0.23,0.52,0.23,0.5,0.52,0.47,0.5,0.39,0.23,0.3,0.65,0.52,0.48,0.8,0.53,0.23,0.48,0.52,0.52,0.23,0.65,0.52,0.48,0.8,0.53,0.23" style="fill:rgb(0,0,0);font-family:Calibri;font-size:10.02px;stroke:none;">developed country commitment to pledges (Nhamo and Nhamo </text>
   <text y="711.793" x="246.6,251.7,256.74,261.84,266.88,269.937,272.216,274.496,278.996,282.052,284.272,289.553,294.833,298.313,303.233,307.913,313.194,315.474,320.274,323.634,328.614,333.894,336.114,341.394,343.675,348.474,353.033,358.013,361.493,365.393,367.614,372.413,376.313,378.597,381.658,383.937,389.218,394.017,399.238,403.496,405.777,410.576,412.857,415.136,417.416,422.696,425.996,430.976,434.456,442.437,447.417,452.697,454.978,459.777,463.257,465.538,470.518,474.418,476.697,478.978,484.258" svgx:width="0.51,0.51,0.51,0.51,0.3,0.23,0.23,0.45,0.3,0.23,0.52,0.52,0.35,0.5,0.47,0.52,0.23,0.48,0.34,0.5,0.52,0.23,0.52,0.23,0.48,0.45,0.5,0.35,0.39,0.23,0.48,0.39,0.23,0.31,0.23,0.52,0.48,0.52,0.42,0.23,0.48,0.23,0.23,0.23,0.52,0.34,0.5,0.35,0.8,0.5,0.52,0.23,0.48,0.35,0.23,0.5,0.39,0.23,0.23,0.52,0.23" style="fill:rgb(0,0,0);font-family:Calibri;font-size:10.02px;stroke:none;">2016) iv) unregulated players as financial intermediaries in </text>
   <text y="724.038" x="246.6,251.881,254.16,259.14,264.421,269.701,274.621,279.901,282.181,285.241,287.521,292.801,297.541,302.821,307.022,312.002,314.281,317.337,322.498,327.477,330.957,335.937,338.217,341.698,346.497,348.777,353.817,358.857,363.897,368.997,371.698,373.917,380.1,385.379,390.66,395.459,397.68,402.96,406.86,412.14,417.421,419.706,424.445,429.726,435.006,437.291,443.471,448.271,455.411,459.971,464.951,468.851,471.13,476.17,481.21,486.31,491.411,494.051,496.33,501.191,505.991,511.211" svgx:width="0.52,0.23,0.5,0.52,0.52,0.5,0.52,0.23,0.31,0.23,0.52,0.48,0.52,0.42,0.5,0.23,0.3,0.52,0.5,0.35,0.5,0.23,0.35,0.48,0.23,0.51,0.51,0.51,0.51,0.27,0.23,0.62,0.53,0.52,0.48,0.23,0.52,0.39,0.53,0.52,0.23,0.48,0.52,0.52,0.23,0.62,0.48,0.71,0.46,0.5,0.39,0.23,0.51,0.51,0.51,0.51,0.27,0.23,0.49,0.48,0.52,0.23" style="fill:rgb(0,0,0);font-family:Calibri;font-size:10.02px;stroke:none;">blended finance (Pereira 2017; Donaldson and Hawkes 2018; Tan </text>
   <text y="736.222" x="246.6,251.7,256.74,261.84,266.88,269.937,272.216,276.716,279.772,282.052,289.192,294.112,298.912,303.472,305.692,310.492,314.751,319.009,324.229,329.509,334.79,338.091,342.89,348.171,350.45,352.73,355.01,358.37,362.929,365.15,368.629,373.609,376.67,378.949,383.929,388.188,391.547,396.527,401.808,404.087,406.308,411.588,413.873,417.773,423.052,426.052,429.413,431.692,436.312,442.494,448.734,451.019,456.299,461.099,464.4,469.199" svgx:width="0.51,0.51,0.51,0.51,0.3,0.23,0.45,0.3,0.23,0.71,0.5,0.48,0.46,0.23,0.48,0.42,0.42,0.53,0.52,0.52,0.34,0.48,0.52,0.23,0.23,0.23,0.34,0.45,0.23,0.35,0.5,0.31,0.23,0.5,0.42,0.34,0.5,0.52,0.23,0.23,0.52,0.23,0.39,0.53,0.31,0.34,0.23,0.46,0.62,0.63,0.23,0.52,0.48,0.34,0.48,0.23" style="fill:rgb(0,0,0);font-family:Calibri;font-size:10.02px;stroke:none;">2019) v) weak accountability reflected in soft SDG data </text>
   <text y="748.406" x="246.6,254.58,259.56,264.36,268.258,273.538,277.015,281.995,289.975,294.954,300.235,303.595,305.815,310.615,315.895,321.175,323.459,327.958,330.239,333.239,335.518,340.739,346.018,349.495,354.776,359.756,364.975,367.195,372.476,375.535,377.82,381.297,386.277,390.174,395.455,400.734,406.014,409.912,412.186,417.467,419.741,422.022,424.296,427.596,432.156,434.441,436.715,441.996,444.275,452.255,457.476,462.755,465.036,467.31,469.591,473.488,475.768,481.049,485.788" svgx:width="0.8,0.5,0.48,0.39,0.52,0.35,0.5,0.8,0.5,0.52,0.34,0.23,0.48,0.52,0.52,0.23,0.45,0.23,0.3,0.23,0.52,0.52,0.35,0.52,0.5,0.52,0.23,0.53,0.31,0.23,0.35,0.5,0.39,0.52,0.53,0.52,0.39,0.23,0.52,0.23,0.23,0.23,0.34,0.45,0.23,0.23,0.52,0.23,0.8,0.53,0.52,0.23,0.23,0.23,0.39,0.23,0.52,0.47,0.23" style="fill:rgb(0,0,0);font-family:Calibri;font-size:10.02px;stroke:none;">measurement and vi) burden of responsibility in mobilising </text>
   <text y="760.651" x="246.6,250.077,255.057,258.955,264.235,269.515,272.992,277.252,282.232,286.13,288.409,291.47,296.75,300.227,302.507,307.607,312.406,315.883,318.158,322.056,324.34,329.14,334.419,339.7,341.919,346.539,352.72,359.022,361.243,364.542,369.823,372.102,376.363,381.582,386.863,392.142,395.502,398.979,401.254,406.233,410.131,412.416,419.555,421.836,425.135,430.416,432.695,437.976,440.25,444.148,447.508,452.788,456.265,458.546,462.805,467.605,469.885,472.16,476.66,478.944,482.784,488.065,491.124,494.485" svgx:width="0.35,0.5,0.39,0.53,0.52,0.35,0.42,0.5,0.39,0.23,0.31,0.53,0.35,0.23,0.52,0.48,0.35,0.23,0.39,0.23,0.48,0.52,0.52,0.23,0.46,0.62,0.63,0.23,0.34,0.53,0.23,0.42,0.53,0.52,0.52,0.34,0.35,0.23,0.5,0.39,0.23,0.71,0.23,0.34,0.52,0.23,0.52,0.23,0.39,0.34,0.53,0.35,0.23,0.42,0.48,0.23,0.23,0.45,0.23,0.39,0.53,0.31,0.34,0.23" style="fill:rgb(0,0,0);font-family:Calibri;font-size:10.02px;stroke:none;">resources for Paris and SDG to countries with historically soft </text>
  </g>
  <g begin="text">
   <text y="772.8" x="246.6,248.88,254.16,258.06,261.42,263.7,267.06,272.34,275.7,277.981,283.26,288.541,293.341,295.621,297.845,302.104,306.844,312.125,316.925,321.184,323.464,326.764,331.323,333.603,336.604,342.843,345.124,349.382,353.942,358.922,361.203,363.422,368.522,373.562,378.663,383.703,386.402,388.683,394.865,400.085,405.366,410.166,412.446,417.666,419.946,424.686,429.967,435.248,437.467,446.405,451.144,455.703,457.923,463.023,468.063,473.163,478.203,480.904" svgx:width="0.23,0.52,0.39,0.34,0.23,0.34,0.52,0.34,0.23,0.53,0.52,0.48,0.23,0.23,0.42,0.48,0.52,0.48,0.42,0.23,0.34,0.45,0.23,0.3,0.62,0.23,0.42,0.46,0.5,0.23,0.23,0.51,0.51,0.51,0.51,0.27,0.23,0.62,0.53,0.52,0.48,0.23,0.52,0.23,0.48,0.52,0.52,0.23,0.89,0.48,0.45,0.23,0.51,0.51,0.51,0.51,0.27,0.23" style="fill:rgb(0,0,0);font-family:Calibri;font-size:10.02px;stroke:none;">institutional capacity (Hickel 2015; Donald and Way 2016; </text>
  </g>
  <path style="fill:rgb(0,0,0);stroke:none;stroke-width:1.0;" d="M70.860 188.460 L71.340 188.460 L71.340 188.940 L70.860 188.940 L70.860 188.460 "/>
  <path style="fill:rgb(0,0,0);stroke:none;stroke-width:1.0;" d="M71.340 188.460 L127.560 188.460 L127.560 188.940 L71.340 188.940 L71.340 188.460 "/>
  <path style="fill:rgb(0,0,0);stroke:none;stroke-width:1.0;" d="M127.560 188.460 L128.040 188.460 L128.040 188.940 L127.560 188.940 L127.560 188.460 "/>
  <path style="fill:rgb(0,0,0);stroke:none;stroke-width:1.0;" d="M128.040 188.460 L184.260 188.460 L184.260 188.940 L128.040 188.940 L128.040 188.460 "/>
  <path style="fill:rgb(0,0,0);stroke:none;stroke-width:1.0;" d="M184.260 188.460 L184.740 188.460 L184.740 188.940 L184.260 188.940 L184.260 188.460 "/>
  <path style="fill:rgb(0,0,0);stroke:none;stroke-width:1.0;" d="M184.740 188.460 L240.960 188.460 L240.960 188.940 L184.740 188.940 L184.740 188.460 "/>
  <path style="fill:rgb(0,0,0);stroke:none;stroke-width:1.0;" d="M240.960 188.460 L241.440 188.460 L241.440 188.940 L240.960 188.940 L240.960 188.460 "/>
  <path style="fill:rgb(0,0,0);stroke:none;stroke-width:1.0;" d="M523.980 188.460 L524.460 188.460 L524.460 188.940 L523.980 188.940 L523.980 188.460 "/>
  <path style="fill:rgb(0,0,0);stroke:none;stroke-width:1.0;" d="M70.860 65.880 L71.340 65.880 L71.340 66.360 L70.860 66.360 L70.860 65.880 "/>
  <path style="fill:rgb(0,0,0);stroke:none;stroke-width:1.0;" d="M70.860 65.880 L71.340 65.880 L71.340 66.360 L70.860 66.360 L70.860 65.880 "/>
  <path style="fill:rgb(0,0,0);stroke:none;stroke-width:1.0;" d="M71.340 65.880 L127.560 65.880 L127.560 66.360 L71.340 66.360 L71.340 65.880 "/>
  <path style="fill:rgb(0,0,0);stroke:none;stroke-width:1.0;" d="M127.560 65.880 L128.040 65.880 L128.040 66.360 L127.560 66.360 L127.560 65.880 "/>
  <path style="fill:rgb(0,0,0);stroke:none;stroke-width:1.0;" d="M128.040 65.880 L184.260 65.880 L184.260 66.360 L128.040 66.360 L128.040 65.880 "/>
  <path style="fill:rgb(0,0,0);stroke:none;stroke-width:1.0;" d="M184.260 65.880 L184.740 65.880 L184.740 66.360 L184.260 66.360 L184.260 65.880 "/>
  <path style="fill:rgb(0,0,0);stroke:none;stroke-width:1.0;" d="M184.740 65.880 L240.960 65.880 L240.960 66.360 L184.740 66.360 L184.740 65.880 "/>
  <path style="fill:rgb(0,0,0);stroke:none;stroke-width:1.0;" d="M240.960 65.880 L241.440 65.880 L241.440 66.360 L240.960 66.360 L240.960 65.880 "/>
  <path style="fill:rgb(0,0,0);stroke:none;stroke-width:1.0;" d="M523.980 65.880 L524.460 65.880 L524.460 66.360 L523.980 66.360 L523.980 65.880 "/>
  <path style="fill:rgb(0,0,0);stroke:none;stroke-width:1.0;" d="M523.980 65.880 L524.460 65.880 L524.460 66.360 L523.980 66.360 L523.980 65.880 "/>
 </g>
</svg>
