<?xml version="1.0" encoding="UTF-8"?>
<svg height="781.06" width="534.46" xmlns="http://www.w3.org/2000/svg">
 <g id="page" xmlns:svgx="http://www.xml-cml.org/schema/svgx">
  <g begin="text">
   <text y="80.82" x="76.5,81.841,87.121,91.921,97.201,100.558,105.538,108.958,111.242,116.282" svgx:width="0.53,0.52,0.48,0.52,0.34,0.5,0.35,0.23,0.51,0.51" style="fill:rgb(0,0,0);font-family:Calibri;font-size:10.02px;stroke:none;">Chapter 15</text>
  </g>
  <g begin="text">
   <text y="80.82" x="121.32" svgx:width="0.23" style="fill:rgb(0,0,0);font-family:Calibri;font-size:10.02px;stroke:none;"> </text>
  </g>
  <g begin="text">
   <text y="80.82" x="133.2,138.3" svgx:width="0.51,0.51" style="fill:rgb(0,0,0);font-family:Calibri;font-size:10.02px;stroke:none;">34</text>
  </g>
  <g begin="text">
   <text y="80.82" x="143.34" svgx:width="0.23" style="fill:rgb(0,0,0);font-family:Calibri;font-size:10.02px;stroke:none;"> </text>
  </g>
  <g begin="text">
   <text y="80.82" x="189.9,195.0" svgx:width="0.51,0.51" style="fill:rgb(0,0,0);font-family:Calibri;font-size:10.02px;stroke:none;">35</text>
  </g>
  <g begin="text">
   <text y="80.82" x="200.04" svgx:width="0.23" style="fill:rgb(0,0,0);font-family:Calibri;font-size:10.02px;stroke:none;"> </text>
  </g>
  <g begin="text">
   <text y="80.82" x="246.6,251.881,256.86,261.119,264.599,269.579,274.379,278.279,283.259,285.479,288.539,292.019,297.299,305.279,307.5,312.6,315.12,320.22,322.505,325.864,329.344,331.625,333.904,336.185,338.464,343.744,349.024,351.304,357.665,362.284,368.404,370.689,375.969,381.25,384.609,386.889,389.17,391.389,396.489,401.529,406.629,411.669,413.954,418.513" svgx:width="0.52,0.5,0.42,0.35,0.5,0.48,0.39,0.5,0.23,0.31,0.35,0.53,0.8,0.23,0.51,0.25,0.51,0.23,0.34,0.35,0.23,0.23,0.23,0.23,0.53,0.52,0.23,0.64,0.46,0.62,0.23,0.52,0.52,0.34,0.23,0.23,0.23,0.51,0.51,0.51,0.51,0.23,0.45,0.35" style="fill:rgb(0,0,0);font-family:Calibri;font-size:10.02px;stroke:none;">decrease from 5.0 trillion USD until 2030 yr</text>
  </g>
  <g begin="text">
   <text y="80.82" x="421.98" svgx:width="0.31" style="fill:rgb(0,0,0);font-family:Calibri;font-size:10.02px;stroke:none;">-</text>
  </g>
  <g begin="text">
   <text y="80.82" x="424.98,430.08,432.36,435.72,441.0,443.22,448.321,450.84,455.88,458.164,461.524,465.004,467.284,469.564,471.845,474.124,479.405,484.685,486.97,493.389,498.009,504.129,506.413,510.973" svgx:width="0.51,0.23,0.34,0.53,0.23,0.51,0.25,0.51,0.23,0.34,0.35,0.23,0.23,0.23,0.23,0.53,0.52,0.23,0.64,0.46,0.62,0.23,0.45,0.35" style="fill:rgb(0,0,0);font-family:Calibri;font-size:10.02px;stroke:none;">1 to 3.8 trillion USD yr</text>
  </g>
  <g begin="text">
   <text y="80.82" x="514.44" svgx:width="0.31" style="fill:rgb(0,0,0);font-family:Calibri;font-size:10.02px;stroke:none;">-</text>
  </g>
  <g begin="text">
   <text y="93.06" x="246.6,251.7,253.98,257.04,262.32,265.8,268.02,273.12,278.16,283.26,288.36,291.359,296.46,301.5,306.54,311.58" svgx:width="0.51,0.23,0.31,0.53,0.35,0.23,0.51,0.51,0.51,0.51,0.31,0.51,0.51,0.51,0.51,0.23" style="fill:rgb(0,0,0);font-family:Calibri;font-size:10.02px;stroke:none;">1 for 2030-2050 </text>
   <text y="105.244" x="246.6" svgx:width="0.23" style="fill:rgb(0,0,0);font-family:Calibri;font-size:10.02px;stroke:none;"> </text>
   <text y="117.489" x="246.6,249.656,252.712,257.692,259.972,265.252,270.232,274.491,277.971,282.951,287.75,291.65,296.57,298.85,301.91,305.33,310.61,318.59,320.87,325.97,328.491,333.531,335.81,339.17,342.651,344.93,347.21,349.49,351.77,357.05,362.331,364.555,370.975,375.594,381.777,386.816,391.856,396.956,402.056,404.281,409.561,414.842,418.202,420.481,422.762,424.981,430.081,435.121,440.222,445.322,447.541,452.1,455.577,458.633,463.673,465.953,469.314,474.593,476.814,481.914,484.374,489.473,491.757,495.117,498.594,500.868,503.149,505.424,507.704,512.984,518.264" svgx:width="0.31,0.31,0.5,0.23,0.52,0.5,0.42,0.35,0.5,0.48,0.39,0.5,0.23,0.31,0.35,0.53,0.8,0.23,0.51,0.25,0.51,0.23,0.34,0.35,0.23,0.23,0.23,0.23,0.53,0.52,0.23,0.64,0.46,0.62,0.51,0.51,0.51,0.51,0.23,0.52,0.52,0.34,0.23,0.23,0.23,0.51,0.51,0.51,0.51,0.23,0.45,0.35,0.31,0.51,0.23,0.34,0.53,0.23,0.51,0.25,0.51,0.23,0.34,0.35,0.23,0.23,0.23,0.23,0.53,0.52,0.23" style="fill:rgb(0,0,0);font-family:Calibri;font-size:10.02px;stroke:none;">--&gt; decrease from 5.0 trillion USD2015 until 2030 yr-1 to 3.8 trillion </text>
   <text y="129.673" x="246.59,253.01,257.629,263.811,268.851,273.892,278.992,284.092,286.316,290.875,294.345,297.401,302.441,304.721,307.721,313.002,316.481,318.761,323.861,328.901,334.001,339.105,342.101,347.201,352.241,357.281,362.321" svgx:width="0.64,0.46,0.62,0.51,0.51,0.51,0.51,0.23,0.45,0.35,0.31,0.51,0.23,0.31,0.53,0.35,0.23,0.51,0.51,0.51,0.51,0.31,0.51,0.51,0.51,0.51,0.23" style="fill:rgb(0,0,0);font-family:Calibri;font-size:10.02px;stroke:none;">USD2015 yr-1 for 2030-2050 </text>
  </g>
  <path style="fill:rgb(0,0,0);stroke:none;stroke-width:1.0;" d="M71.340 676.080 L127.560 676.080 L127.560 770.580 L71.340 770.580 L71.340 676.080 M71.340 676.080 L127.560 676.080 L127.560 770.580 L71.340 770.580 L71.340 676.080 M128.040 676.080 L184.260 676.080 L184.260 770.580 L128.040 770.580 L128.040 676.080 M128.040 676.080 L184.260 676.080 L184.260 770.580 L128.040 770.580 L128.040 676.080 M184.740 676.080 L240.960 676.080 L240.960 770.580 L184.740 770.580 L184.740 676.080 M184.740 676.080 L240.960 676.080 L240.960 770.580 L184.740 770.580 L184.740 676.080 M70.860 770.580 L71.340 770.580 L71.340 771.060 L70.860 771.060 L70.860 770.580 "/>
  <path style="fill:rgb(0,0,0);stroke:none;stroke-width:1.0;" d="M70.860 770.580 L71.340 770.580 L71.340 771.060 L70.860 771.060 L70.860 770.580 "/>
  <path style="fill:rgb(0,0,0);stroke:none;stroke-width:1.0;" d="M71.340 770.580 L127.560 770.580 L127.560 771.060 L71.340 771.060 L71.340 770.580 "/>
  <path style="fill:rgb(0,0,0);stroke:none;stroke-width:1.0;" d="M127.560 770.580 L128.040 770.580 L128.040 771.060 L127.560 771.060 L127.560 770.580 "/>
  <path style="fill:rgb(0,0,0);stroke:none;stroke-width:1.0;" d="M128.040 770.580 L184.260 770.580 L184.260 771.060 L128.040 771.060 L128.040 770.580 "/>
  <path style="fill:rgb(0,0,0);stroke:none;stroke-width:1.0;" d="M184.260 770.580 L184.740 770.580 L184.740 771.060 L184.260 771.060 L184.260 770.580 "/>
  <path style="fill:rgb(0,0,0);stroke:none;stroke-width:1.0;" d="M184.740 770.580 L240.960 770.580 L240.960 771.060 L184.740 771.060 L184.740 770.580 "/>
  <path style="fill:rgb(0,0,0);stroke:none;stroke-width:1.0;" d="M240.960 770.580 L241.440 770.580 L241.440 771.060 L240.960 771.060 L240.960 770.580 "/>
  <path style="fill:rgb(0,0,0);stroke:none;stroke-width:1.0;" d="M523.980 770.580 L524.460 770.580 L524.460 771.060 L523.980 771.060 L523.980 770.580 "/>
  <path style="fill:rgb(0,0,0);stroke:none;stroke-width:1.0;" d="M523.980 770.580 L524.460 770.580 L524.460 771.060 L523.980 771.060 L523.980 770.580 "/>
  <path style="fill:rgb(0,0,0);stroke:none;stroke-width:1.0;" d="M70.860 676.080 L71.340 676.080 L71.340 770.580 L70.860 770.580 L70.860 676.080 "/>
  <path style="fill:rgb(0,0,0);stroke:none;stroke-width:1.0;" d="M127.560 676.080 L128.040 676.080 L128.040 770.580 L127.560 770.580 L127.560 676.080 "/>
  <path style="fill:rgb(0,0,0);stroke:none;stroke-width:1.0;" d="M184.260 676.080 L184.740 676.080 L184.740 770.580 L184.260 770.580 L184.260 676.080 "/>
  <path style="fill:rgb(0,0,0);stroke:none;stroke-width:1.0;" d="M240.960 676.080 L241.440 676.080 L241.440 770.580 L240.960 770.580 L240.960 676.080 "/>
  <path style="fill:rgb(0,0,0);stroke:none;stroke-width:1.0;" d="M523.980 676.080 L524.460 676.080 L524.460 770.580 L523.980 770.580 L523.980 676.080 "/>
  <g begin="text">
   <text y="175.86" x="76.5,81.841,87.121,91.921,97.201,100.558,105.538,108.958,111.242,116.282" svgx:width="0.53,0.52,0.48,0.52,0.34,0.5,0.35,0.23,0.51,0.51" style="fill:rgb(0,0,0);font-family:Calibri;font-size:10.02px;stroke:none;">Chapter 15</text>
  </g>
  <g begin="text">
   <text y="175.86" x="121.32" svgx:width="0.23" style="fill:rgb(0,0,0);font-family:Calibri;font-size:10.02px;stroke:none;"> </text>
  </g>
  <g begin="text">
   <text y="175.86" x="133.2,138.3" svgx:width="0.51,0.51" style="fill:rgb(0,0,0);font-family:Calibri;font-size:10.02px;stroke:none;">34</text>
  </g>
  <g begin="text">
   <text y="175.86" x="143.34" svgx:width="0.23" style="fill:rgb(0,0,0);font-family:Calibri;font-size:10.02px;stroke:none;"> </text>
  </g>
  <g begin="text">
   <text y="175.86" x="189.9,195.0" svgx:width="0.51,0.51" style="fill:rgb(0,0,0);font-family:Calibri;font-size:10.02px;stroke:none;">37</text>
  </g>
  <g begin="text">
   <text y="175.86" x="200.04" svgx:width="0.23" style="fill:rgb(0,0,0);font-family:Calibri;font-size:10.02px;stroke:none;"> </text>
  </g>
  <g begin="text">
   <text y="175.86" x="246.6,250.077,255.057,263.037,267.837,270.112,275.392,277.676,280.736,283.011,287.811,291.171,293.451,298.251,301.551,303.771,308.871,311.391,316.491,318.775,322.135,325.612,327.892,330.167,332.441,334.722,340.001,345.282,347.562,353.922,358.541,364.662,366.946,371.505" svgx:width="0.35,0.5,0.8,0.48,0.23,0.52,0.23,0.31,0.23,0.48,0.34,0.23,0.48,0.34,0.23,0.51,0.25,0.51,0.23,0.34,0.35,0.23,0.23,0.23,0.23,0.53,0.52,0.23,0.64,0.46,0.62,0.23,0.45,0.35" style="fill:rgb(0,0,0);font-family:Calibri;font-size:10.02px;stroke:none;">remain flat at 2.2 trillion USD yr</text>
  </g>
  <g begin="text">
   <text y="175.86" x="375.0" svgx:width="0.31" style="fill:rgb(0,0,0);font-family:Calibri;font-size:10.02px;stroke:none;">-</text>
  </g>
  <g begin="text">
   <text y="175.86" x="378.06,383.1,385.38,388.74,394.021,397.501,402.721,408.002,412.682,417.963,420.242,423.542,428.822,433.802,436.082,440.34,445.62,453.6,455.82,461.101,465.84,468.061,471.42,476.701,480.122,485.102,490.082" svgx:width="0.51,0.23,0.34,0.52,0.35,0.53,0.52,0.47,0.52,0.23,0.34,0.52,0.5,0.23,0.42,0.53,0.8,0.23,0.52,0.47,0.23,0.34,0.52,0.35,0.5,0.5,0.23" style="fill:rgb(0,0,0);font-family:Calibri;font-size:10.02px;stroke:none;">1 through the coming three </text>
  </g>
  <g begin="text">
   <text y="188.04" x="246.6,251.881,256.86,261.119,265.859,271.14,276.12,279.957" svgx:width="0.52,0.5,0.42,0.48,0.52,0.5,0.39,0.23" style="fill:rgb(0,0,0);font-family:Calibri;font-size:10.02px;stroke:none;">decades </text>
   <text y="200.224" x="246.6" svgx:width="0.23" style="fill:rgb(0,0,0);font-family:Calibri;font-size:10.02px;stroke:none;"> </text>
   <text y="212.469" x="246.6,249.656,252.712,257.692,259.972,263.453,268.433,276.413,281.212,283.493,288.773,291.058,294.117,296.397,301.197,304.558,306.777,311.578,314.937,317.217,322.317,324.777,329.877,332.162,335.521,339.001,341.281,343.562,345.841,348.122,353.401,358.682,360.961,367.322,371.941,378.123,383.164,388.264,393.304,398.404,400.623,405.183,408.664,411.72,416.76,419.039,422.4,427.619,431.1,436.38,441.66,446.4,451.619,453.904,457.264,462.544,467.464,469.743,474.002,479.281,487.202,489.482,494.762,499.502" svgx:width="0.31,0.31,0.5,0.23,0.35,0.5,0.8,0.48,0.23,0.52,0.23,0.31,0.23,0.48,0.34,0.23,0.48,0.34,0.23,0.51,0.25,0.51,0.23,0.34,0.35,0.23,0.23,0.23,0.23,0.53,0.52,0.23,0.64,0.46,0.62,0.51,0.51,0.51,0.51,0.23,0.45,0.35,0.31,0.51,0.23,0.34,0.52,0.35,0.53,0.52,0.47,0.52,0.23,0.34,0.52,0.5,0.23,0.42,0.53,0.8,0.23,0.52,0.47,0.23" style="fill:rgb(0,0,0);font-family:Calibri;font-size:10.02px;stroke:none;">--&gt; remain flat at 2.2 trillion USD2015 yr-1 through the coming </text>
   <text y="224.653" x="246.6,249.96,255.24,258.72,263.7,268.68,270.965,276.184,281.164,285.425,290.165,295.445,300.424,304.255" svgx:width="0.34,0.52,0.35,0.5,0.5,0.23,0.52,0.5,0.42,0.48,0.52,0.5,0.39,0.23" style="fill:rgb(0,0,0);font-family:Calibri;font-size:10.02px;stroke:none;">three decades </text>
  </g>
  <path style="fill:rgb(0,0,0);stroke:none;stroke-width:1.0;" d="M71.340 581.040 L127.560 581.040 L127.560 675.540 L71.340 675.540 L71.340 581.040 M71.340 581.040 L127.560 581.040 L127.560 675.540 L71.340 675.540 L71.340 581.040 M128.040 581.040 L184.260 581.040 L184.260 675.540 L128.040 675.540 L128.040 581.040 M128.040 581.040 L184.260 581.040 L184.260 675.540 L128.040 675.540 L128.040 581.040 M184.740 581.040 L240.960 581.040 L240.960 675.540 L184.740 675.540 L184.740 581.040 M184.740 581.040 L240.960 581.040 L240.960 675.540 L184.740 675.540 L184.740 581.040 M70.860 675.600 L71.340 675.600 L71.340 676.080 L70.860 676.080 L70.860 675.600 "/>
  <path style="fill:rgb(0,0,0);stroke:none;stroke-width:1.0;" d="M71.340 675.600 L127.560 675.600 L127.560 676.080 L71.340 676.080 L71.340 675.600 "/>
  <path style="fill:rgb(0,0,0);stroke:none;stroke-width:1.0;" d="M127.560 675.600 L128.040 675.600 L128.040 676.080 L127.560 676.080 L127.560 675.600 "/>
  <path style="fill:rgb(0,0,0);stroke:none;stroke-width:1.0;" d="M128.040 675.600 L184.260 675.600 L184.260 676.080 L128.040 676.080 L128.040 675.600 "/>
  <path style="fill:rgb(0,0,0);stroke:none;stroke-width:1.0;" d="M184.260 675.600 L184.740 675.600 L184.740 676.080 L184.260 676.080 L184.260 675.600 "/>
  <path style="fill:rgb(0,0,0);stroke:none;stroke-width:1.0;" d="M184.740 675.600 L240.960 675.600 L240.960 676.080 L184.740 676.080 L184.740 675.600 "/>
  <path style="fill:rgb(0,0,0);stroke:none;stroke-width:1.0;" d="M240.960 675.600 L241.440 675.600 L241.440 676.080 L240.960 676.080 L240.960 675.600 "/>
  <path style="fill:rgb(0,0,0);stroke:none;stroke-width:1.0;" d="M523.980 675.600 L524.460 675.600 L524.460 676.080 L523.980 676.080 L523.980 675.600 "/>
  <path style="fill:rgb(0,0,0);stroke:none;stroke-width:1.0;" d="M70.860 581.040 L71.340 581.040 L71.340 675.600 L70.860 675.600 L70.860 581.040 "/>
  <path style="fill:rgb(0,0,0);stroke:none;stroke-width:1.0;" d="M127.560 581.040 L128.040 581.040 L128.040 675.600 L127.560 675.600 L127.560 581.040 "/>
  <path style="fill:rgb(0,0,0);stroke:none;stroke-width:1.0;" d="M184.260 581.040 L184.740 581.040 L184.740 675.600 L184.260 675.600 L184.260 581.040 "/>
  <path style="fill:rgb(0,0,0);stroke:none;stroke-width:1.0;" d="M240.960 581.040 L241.440 581.040 L241.440 675.600 L240.960 675.600 L240.960 581.040 "/>
  <path style="fill:rgb(0,0,0);stroke:none;stroke-width:1.0;" d="M523.980 581.040 L524.460 581.040 L524.460 675.600 L523.980 675.600 L523.980 581.040 "/>
  <g begin="text">
   <text y="270.84" x="76.5,81.841,87.121,91.921,97.201,100.558,105.538,108.958,111.242,116.282" svgx:width="0.53,0.52,0.48,0.52,0.34,0.5,0.35,0.23,0.51,0.51" style="fill:rgb(0,0,0);font-family:Calibri;font-size:10.02px;stroke:none;">Chapter 15</text>
  </g>
  <g begin="text">
   <text y="270.84" x="121.32" svgx:width="0.23" style="fill:rgb(0,0,0);font-family:Calibri;font-size:10.02px;stroke:none;"> </text>
  </g>
  <g begin="text">
   <text y="270.84" x="133.2,138.3" svgx:width="0.51,0.51" style="fill:rgb(0,0,0);font-family:Calibri;font-size:10.02px;stroke:none;">35</text>
  </g>
  <g begin="text">
   <text y="270.84" x="143.34" svgx:width="0.23" style="fill:rgb(0,0,0);font-family:Calibri;font-size:10.02px;stroke:none;"> </text>
  </g>
  <g begin="text">
   <text y="270.84" x="189.9,195.0" svgx:width="0.51,0.51" style="fill:rgb(0,0,0);font-family:Calibri;font-size:10.02px;stroke:none;">45</text>
  </g>
  <g begin="text">
   <text y="270.84" x="200.04" svgx:width="0.23" style="fill:rgb(0,0,0);font-family:Calibri;font-size:10.02px;stroke:none;"> </text>
  </g>
  <g begin="text">
   <text y="270.84" x="246.6,249.12,254.04,259.8,262.08,264.36,269.64,274.921,277.2,281.4,286.2,289.557,294.537,298.437,300.717,305.517,307.737,311.094,316.374,319.731,324.531,326.811,329.091,334.371,337.427,339.707,344.506,347.986,353.206,358.486,363.706,368.926,371.206,376.306,378.826,383.866,386.151,390.95,396.171,401.45,403.671,408.77,411.29,416.39,418.675,422.031,425.511,427.791,430.011,432.291,434.571,439.852,445.132,447.412,453.832,458.452,464.572,466.857,471.416" svgx:width="0.25,0.49,0.58,0.23,0.23,0.52,0.52,0.23,0.42,0.48,0.34,0.5,0.39,0.23,0.48,0.23,0.34,0.53,0.34,0.48,0.23,0.23,0.53,0.31,0.23,0.48,0.35,0.53,0.52,0.52,0.52,0.23,0.51,0.25,0.51,0.23,0.48,0.52,0.52,0.23,0.51,0.25,0.51,0.23,0.34,0.35,0.23,0.23,0.23,0.23,0.53,0.52,0.23,0.64,0.46,0.62,0.23,0.45,0.35" style="fill:rgb(0,0,0);font-family:Calibri;font-size:10.02px;stroke:none;">IEA indicates a total of around 0.6 and 0.8 trillion USD yr</text>
  </g>
  <g begin="text">
   <text y="270.84" x="474.9" svgx:width="0.31" style="fill:rgb(0,0,0);font-family:Calibri;font-size:10.02px;stroke:none;">-</text>
  </g>
  <g begin="text">
   <text y="270.84" x="477.9,483.0" svgx:width="0.51,0.23" style="fill:rgb(0,0,0);font-family:Calibri;font-size:10.02px;stroke:none;">1 </text>
  </g>
  <g begin="text">
   <text y="270.84" x="485.28,488.276,493.556,497.035" svgx:width="0.31,0.53,0.35,0.23" style="fill:rgb(0,0,0);font-family:Calibri;font-size:10.02px;stroke:none;">for </text>
  </g>
  <g begin="text">
   <text y="283.02" x="246.6,249.96,253.44,258.24,263.521,267.422,272.702,277.983,281.462,284.822,287.042,292.022,297.302,302.282,305.702,310.441,315.001,317.22,322.2,325.26,328.32,330.6,334.858,337.139,342.119,347.338,351.597,356.097,358.376,360.657,365.876,368.161,371.52,376.801,381.781,384.0,388.62,394.74,399.359,401.644,406.383,411.664,416.944,419.229,421.689,426.548,432.37,434.649,438.549,442.808,447.728,453.008,457.808,461.288,463.568,468.848,471.127,474.187,479.468,482.948,485.167,488.528,493.808,498.788" svgx:width="0.34,0.35,0.48,0.52,0.39,0.52,0.53,0.35,0.34,0.23,0.5,0.52,0.5,0.35,0.47,0.45,0.23,0.5,0.31,0.31,0.23,0.42,0.23,0.5,0.52,0.42,0.45,0.23,0.23,0.52,0.23,0.34,0.52,0.5,0.23,0.46,0.62,0.46,0.23,0.48,0.52,0.52,0.23,0.25,0.49,0.58,0.23,0.39,0.42,0.5,0.52,0.48,0.35,0.23,0.53,0.23,0.31,0.53,0.35,0.23,0.34,0.52,0.5,0.23" style="fill:rgb(0,0,0);font-family:Calibri;font-size:10.02px;stroke:none;">transport energy efficiency in the SDS and IEA scenario for the </text>
   <text y="295.264" x="246.6,251.7,256.74,261.84,266.941,269.937,275.037,280.077,285.177,290.217,292.497,297.777,302.757,306.177,308.457,313.737,319.018" svgx:width="0.51,0.51,0.51,0.51,0.31,0.51,0.51,0.51,0.51,0.23,0.52,0.5,0.35,0.23,0.53,0.52,0.23" style="fill:rgb(0,0,0);font-family:Calibri;font-size:10.02px;stroke:none;">2026-2030 period </text>
   <text y="307.449" x="246.6,248.885" svgx:width="0.23,0.23" style="fill:rgb(0,0,0);font-family:Calibri;font-size:10.02px;stroke:none;"> </text>
   <text y="319.693" x="246.6,249.656,252.712,257.692,259.972,262.492,267.413,273.172,275.457,277.736,283.017,288.297,290.518,294.776,299.577,302.936,307.856,311.756,314.041,318.84,321.125,324.484,329.764,333.125,337.924,340.205,342.484,347.705,350.765,353.044,357.844,361.324,366.544,371.825,377.105,382.326,384.605,389.706,392.165,397.266,399.545,404.286,409.566,414.847,417.066,422.166,424.626,429.726,432.011,435.371,438.851,441.13,443.411,445.69,447.971,453.25,458.531,460.81,467.23,471.79,477.973,483.013,488.113,493.153,498.253,500.538,505.097,508.563,511.559,516.659" svgx:width="0.31,0.31,0.5,0.23,0.25,0.49,0.58,0.23,0.23,0.52,0.52,0.23,0.42,0.48,0.34,0.5,0.39,0.23,0.48,0.23,0.34,0.53,0.34,0.48,0.23,0.23,0.53,0.31,0.23,0.48,0.35,0.53,0.52,0.52,0.52,0.23,0.51,0.25,0.51,0.23,0.48,0.52,0.52,0.23,0.51,0.25,0.51,0.23,0.34,0.35,0.23,0.23,0.23,0.23,0.53,0.52,0.23,0.64,0.46,0.62,0.51,0.51,0.51,0.51,0.23,0.45,0.35,0.31,0.51,0.23" style="fill:rgb(0,0,0);font-family:Calibri;font-size:10.02px;stroke:none;">--&gt; IEA indicates a total of around 0.6 and 0.7 trillion USD2015 yr-1 </text>
   <text y="331.878" x="246.6,249.656,254.937,258.417,260.701,264.058,267.538,272.337,277.617,281.517,286.737,292.018,295.498,298.854,301.134,306.054,311.334,316.314,319.794,324.474,329.034,331.318,336.298,339.354,342.41,344.69,348.95,351.23,356.15,361.43,365.63,370.19,372.474,374.754,380.034,382.254,385.61,390.89,395.87,398.09,402.711,408.83,413.45,415.73,420.47,425.69,430.97,433.25,435.77,440.63,446.45,448.734,452.574,456.835,461.815,467.094,471.894,475.374,477.654,482.935,485.155,488.211,493.492,496.972,499.256,502.613,507.894,512.874" svgx:width="0.31,0.53,0.35,0.23,0.34,0.35,0.48,0.52,0.39,0.52,0.53,0.35,0.34,0.23,0.5,0.52,0.5,0.35,0.47,0.45,0.23,0.5,0.31,0.31,0.23,0.42,0.23,0.5,0.52,0.42,0.45,0.23,0.23,0.52,0.23,0.34,0.52,0.5,0.23,0.46,0.62,0.46,0.23,0.48,0.52,0.52,0.23,0.25,0.49,0.58,0.23,0.39,0.42,0.5,0.52,0.48,0.35,0.23,0.53,0.23,0.31,0.53,0.35,0.23,0.34,0.52,0.5,0.23" style="fill:rgb(0,0,0);font-family:Calibri;font-size:10.02px;stroke:none;">for transport energy efficiency in the SDS and IEA scenario for the </text>
   <text y="344.122" x="246.6,251.7,256.74,261.84,266.941,269.937,275.037,280.077,285.177,290.217,292.497,297.777,302.757,306.177,308.456,313.737,319.018" svgx:width="0.51,0.51,0.51,0.51,0.31,0.51,0.51,0.51,0.51,0.23,0.52,0.5,0.35,0.23,0.53,0.52,0.23" style="fill:rgb(0,0,0);font-family:Calibri;font-size:10.02px;stroke:none;">2026-2030 period </text>
  </g>
  <path style="fill:rgb(0,0,0);stroke:none;stroke-width:1.0;" d="M71.340 486.060 L127.560 486.060 L127.560 580.560 L71.340 580.560 L71.340 486.060 M71.340 486.060 L127.560 486.060 L127.560 580.560 L71.340 580.560 L71.340 486.060 M128.040 486.060 L184.260 486.060 L184.260 580.560 L128.040 580.560 L128.040 486.060 M128.040 486.060 L184.260 486.060 L184.260 580.560 L128.040 580.560 L128.040 486.060 M184.740 486.060 L240.960 486.060 L240.960 580.560 L184.740 580.560 L184.740 486.060 M184.740 486.060 L240.960 486.060 L240.960 580.560 L184.740 580.560 L184.740 486.060 M70.860 580.560 L71.340 580.560 L71.340 581.040 L70.860 581.040 L70.860 580.560 "/>
  <path style="fill:rgb(0,0,0);stroke:none;stroke-width:1.0;" d="M71.340 580.560 L127.560 580.560 L127.560 581.040 L71.340 581.040 L71.340 580.560 "/>
  <path style="fill:rgb(0,0,0);stroke:none;stroke-width:1.0;" d="M127.560 580.560 L128.040 580.560 L128.040 581.040 L127.560 581.040 L127.560 580.560 "/>
  <path style="fill:rgb(0,0,0);stroke:none;stroke-width:1.0;" d="M128.040 580.560 L184.260 580.560 L184.260 581.040 L128.040 581.040 L128.040 580.560 "/>
  <path style="fill:rgb(0,0,0);stroke:none;stroke-width:1.0;" d="M184.260 580.560 L184.740 580.560 L184.740 581.040 L184.260 581.040 L184.260 580.560 "/>
  <path style="fill:rgb(0,0,0);stroke:none;stroke-width:1.0;" d="M184.740 580.560 L240.960 580.560 L240.960 581.040 L184.740 581.040 L184.740 580.560 "/>
  <path style="fill:rgb(0,0,0);stroke:none;stroke-width:1.0;" d="M240.960 580.560 L241.440 580.560 L241.440 581.040 L240.960 581.040 L240.960 580.560 "/>
  <path style="fill:rgb(0,0,0);stroke:none;stroke-width:1.0;" d="M523.980 580.560 L524.460 580.560 L524.460 581.040 L523.980 581.040 L523.980 580.560 "/>
  <path style="fill:rgb(0,0,0);stroke:none;stroke-width:1.0;" d="M70.860 486.060 L71.340 486.060 L71.340 580.560 L70.860 580.560 L70.860 486.060 "/>
  <path style="fill:rgb(0,0,0);stroke:none;stroke-width:1.0;" d="M127.560 486.060 L128.040 486.060 L128.040 580.560 L127.560 580.560 L127.560 486.060 "/>
  <path style="fill:rgb(0,0,0);stroke:none;stroke-width:1.0;" d="M184.260 486.060 L184.740 486.060 L184.740 580.560 L184.260 580.560 L184.260 486.060 "/>
  <path style="fill:rgb(0,0,0);stroke:none;stroke-width:1.0;" d="M240.960 486.060 L241.440 486.060 L241.440 580.560 L240.960 580.560 L240.960 486.060 "/>
  <path style="fill:rgb(0,0,0);stroke:none;stroke-width:1.0;" d="M523.980 486.060 L524.460 486.060 L524.460 580.560 L523.980 580.560 L523.980 486.060 "/>
  <g begin="text">
   <text y="365.82" x="76.5,81.841,87.121,91.921,97.201,100.558,105.538,108.958,111.242,116.282" svgx:width="0.53,0.52,0.48,0.52,0.34,0.5,0.35,0.23,0.51,0.51" style="fill:rgb(0,0,0);font-family:Calibri;font-size:10.02px;stroke:none;">Chapter 15</text>
  </g>
  <g begin="text">
   <text y="365.82" x="121.32" svgx:width="0.23" style="fill:rgb(0,0,0);font-family:Calibri;font-size:10.02px;stroke:none;"> </text>
  </g>
  <g begin="text">
   <text y="365.82" x="133.2,138.3" svgx:width="0.51,0.51" style="fill:rgb(0,0,0);font-family:Calibri;font-size:10.02px;stroke:none;">35</text>
  </g>
  <g begin="text">
   <text y="365.82" x="143.34" svgx:width="0.23" style="fill:rgb(0,0,0);font-family:Calibri;font-size:10.02px;stroke:none;"> </text>
  </g>
  <g begin="text">
   <text y="365.82" x="189.9,195.0" svgx:width="0.51,0.51" style="fill:rgb(0,0,0);font-family:Calibri;font-size:10.02px;stroke:none;">15</text>
  </g>
  <g begin="text">
   <text y="365.82" x="200.04" svgx:width="0.23" style="fill:rgb(0,0,0);font-family:Calibri;font-size:10.02px;stroke:none;"> </text>
  </g>
  <g begin="text">
   <text y="365.82" x="246.6,251.219,256.499,259.979,262.263,265.623,270.904,275.823,278.103,283.203,285.663" svgx:width="0.46,0.53,0.35,0.23,0.34,0.52,0.5,0.23,0.51,0.25,0.51" style="fill:rgb(0,0,0);font-family:Calibri;font-size:10.02px;stroke:none;">For the 1.5</text>
  </g>
  <g begin="text">
   <text y="365.82" x="290.76" svgx:width="0.31" style="fill:rgb(0,0,0);font-family:Calibri;font-size:10.02px;stroke:none;">-</text>
  </g>
  <g begin="text">
   <text y="365.82" x="293.82,298.44,300.66,305.4,309.9,314.88,318.361,323.161,327.901,332.881,335.161,339.721" svgx:width="0.46,0.23,0.48,0.45,0.5,0.35,0.48,0.47,0.5,0.23,0.45,0.35" style="fill:rgb(0,0,0);font-family:Calibri;font-size:10.02px;stroke:none;">S average yr</text>
  </g>
  <g begin="text">
   <text y="365.82" x="343.2" svgx:width="0.31" style="fill:rgb(0,0,0);font-family:Calibri;font-size:10.02px;stroke:none;">-</text>
  </g>
  <g begin="text">
   <text y="365.82" x="346.2,351.3,353.52,358.8,363.72,368.7,373.98,377.88,380.16,385.38,390.661,394.022,396.301,398.582,400.861,405.901,411.001,416.041,421.142,423.361,427.62,432.899,440.879,445.859,448.14,450.419,455.7,457.919,462.72,466.079,468.299,473.399,478.439,483.479,485.76,491.04,493.32,495.6,497.88,500.16,505.44" svgx:width="0.51,0.23,0.52,0.5,0.5,0.52,0.39,0.23,0.52,0.52,0.34,0.23,0.23,0.23,0.51,0.51,0.51,0.51,0.23,0.42,0.53,0.8,0.5,0.23,0.23,0.52,0.23,0.48,0.34,0.23,0.51,0.51,0.51,0.23,0.52,0.23,0.23,0.23,0.23,0.53,0.52" style="fill:rgb(0,0,0);font-family:Calibri;font-size:10.02px;stroke:none;">1 needs until 2050 come in at 963 billion</text>
  </g>
  <g begin="text">
   <text y="365.82" x="510.72" svgx:width="0.23" style="fill:rgb(0,0,0);font-family:Calibri;font-size:10.02px;stroke:none;"> </text>
  </g>
  <g begin="text">
   <text y="378.06" x="246.6,253.023,257.643,263.824,266.109,269.109,274.389,277.869,280.149,285.369,290.65,292.93,295.21,300.491,302.77,307.99,312.729,316.629,319.149,321.369,326.469,331.51,336.61,338.894,344.175,346.455,348.735,351.015,353.295,358.576,363.856,366.076,372.496,377.116,383.298,385.582,388.582,393.862,397.342,399.626,404.907,409.887,414.627,417.987,420.272,425.491,430.772,438.752,444.032,447.933,450.453,452.732,457.473,462.753,467.974,470.253,475.293,480.394,485.434,487.713,492.994,495.273,497.554,499.833,502.114,507.394,512.674" svgx:width="0.64,0.46,0.62,0.23,0.31,0.53,0.35,0.23,0.52,0.52,0.23,0.23,0.52,0.23,0.52,0.47,0.39,0.25,0.23,0.51,0.51,0.51,0.23,0.52,0.23,0.23,0.23,0.23,0.53,0.52,0.23,0.64,0.46,0.62,0.23,0.31,0.53,0.35,0.23,0.52,0.5,0.48,0.34,0.23,0.52,0.52,0.8,0.52,0.39,0.25,0.23,0.48,0.52,0.52,0.23,0.51,0.51,0.51,0.23,0.52,0.23,0.23,0.23,0.23,0.53,0.52,0.23" style="fill:rgb(0,0,0);font-family:Calibri;font-size:10.02px;stroke:none;">USD for buildings, 102 billion USD for heat pumps, and 354 billion </text>
   <text y="390.244" x="246.61,253.033,257.653,263.833,266.113,269.113,274.393,277.873,280.153,282.438,287.718,292.937,298.218,302.118,305.418,308.898,313.458,315.973,318.253,324.014,329.293,334.574,336.853,341.413,343.634,348.913,353.594,355.878,359.238,364.458,369.438,371.718,375.198,380.178,382.462,387.263,390.622,392.902,397.402,402.382,404.661,408.561,413.842,418.641,422.062,427.042,429.322,434.602,437.662,439.942,443.242,448.522,453.502,457.403,462.383,464.662,468.863,473.662,477.023,481.943,486.682,491.963,495.443,497.727,502.707,506.607" svgx:width="0.64,0.46,0.62,0.23,0.31,0.53,0.35,0.23,0.23,0.52,0.52,0.52,0.39,0.34,0.35,0.45,0.25,0.23,0.58,0.52,0.52,0.23,0.45,0.23,0.52,0.47,0.23,0.34,0.52,0.5,0.23,0.35,0.5,0.23,0.48,0.34,0.23,0.45,0.5,0.23,0.39,0.52,0.48,0.35,0.5,0.23,0.53,0.31,0.23,0.34,0.52,0.5,0.39,0.5,0.23,0.42,0.48,0.34,0.5,0.47,0.53,0.35,0.23,0.5,0.39,0.23" style="fill:rgb(0,0,0);font-family:Calibri;font-size:10.02px;stroke:none;">USD for industry. Applying the relative share of these categories </text>
   <text y="402.489" x="246.61,251.891,257.171,259.451,264.731,266.951,271.69,276.971,281.952,285.432,287.651,291.012,296.291,299.651,304.451,306.671,308.955,314.236,319.216,324.196,329.476,333.376,335.597,340.877,346.098,349.457,351.738,354.017,356.297,361.397,366.437,371.537,376.638,379.098,381.377,386.178,389.658,394.937,400.158,405.438,410.659,412.938,418.038,420.498,425.598,427.819,431.178,434.658,436.939,439.219,441.499,443.779,449.054,454.335,456.614,463.034,467.653,473.836,476.055,480.614,484.094,487.09,492.19,494.47,496.75,502.031" svgx:width="0.53,0.52,0.23,0.52,0.23,0.47,0.52,0.5,0.35,0.23,0.34,0.53,0.34,0.48,0.23,0.23,0.52,0.5,0.5,0.52,0.39,0.23,0.52,0.52,0.34,0.23,0.23,0.23,0.51,0.51,0.51,0.51,0.25,0.23,0.48,0.35,0.53,0.52,0.52,0.52,0.23,0.51,0.25,0.51,0.23,0.34,0.35,0.23,0.23,0.23,0.23,0.53,0.52,0.23,0.64,0.46,0.62,0.23,0.45,0.35,0.31,0.51,0.23,0.23,0.52,0.23" style="fill:rgb(0,0,0);font-family:Calibri;font-size:10.02px;stroke:none;">on higher total needs until 2030, around 1.8 trillion USD yr-1 in </text>
   <text y="414.673" x="246.61,251.891,257.171,259.451,261.731,267.012,269.292,274.512,279.251,283.151,285.436,290.235,295.456,300.736,302.956,307.997,310.517,315.617,317.896,321.256,324.736,327.017,329.296,331.577,333.856,339.137,344.417,346.702,353.122,357.682,363.864,366.084,370.644,374.115,377.171,382.271,384.55,386.831,392.05,394.335,396.614,401.895,407.114,412.395,416.295,419.654,423.075,427.634,429.919,434.719,438.198,443.178,445.399,450.679,455.659,460.639,465.92,470.84,476.12,478.4,480.62,485.901,488.185,491.545,496.826,501.745" svgx:width="0.52,0.52,0.23,0.23,0.52,0.23,0.52,0.47,0.39,0.23,0.48,0.52,0.52,0.23,0.51,0.25,0.51,0.23,0.34,0.35,0.23,0.23,0.23,0.23,0.53,0.52,0.23,0.64,0.46,0.62,0.23,0.45,0.35,0.31,0.51,0.23,0.23,0.52,0.23,0.23,0.52,0.52,0.52,0.39,0.34,0.35,0.45,0.23,0.48,0.35,0.5,0.23,0.52,0.5,0.5,0.52,0.5,0.52,0.23,0.23,0.52,0.23,0.34,0.52,0.5,0.23" style="fill:rgb(0,0,0);font-family:Calibri;font-size:10.02px;stroke:none;">buildings and 1.7 trillion USD yr-1 in industry are needed in the </text>
   <text y="426.857" x="246.61,251.71,254.225,259.325,262.382,266.942,269.221,274.022,279.241,284.522,286.801,291.662,296.522,301.141,303.42,307.261,311.52,316.5,321.78,326.58,330.06,332.34,337.562" svgx:width="0.51,0.25,0.51,0.31,0.46,0.23,0.48,0.52,0.52,0.23,0.49,0.49,0.46,0.23,0.39,0.42,0.5,0.52,0.48,0.35,0.23,0.53,0.23" style="fill:rgb(0,0,0);font-family:Calibri;font-size:10.02px;stroke:none;">1.5-S and TES scenario </text>
   <text y="439.102" x="246.6" svgx:width="0.23" style="fill:rgb(0,0,0);font-family:Calibri;font-size:10.02px;stroke:none;"> </text>
   <text y="451.286" x="246.6,249.656,252.712,257.692,259.972,264.592,269.872,273.352,275.637,278.937,284.217,289.197,291.416,296.517,299.032,304.145,307.141,311.76,314.04,318.84,323.34,328.32,331.8,336.6,341.339,346.259,348.538,353.098,356.58,359.576,364.676,366.895,372.176,377.156,382.136,387.416,391.317,393.536,398.817,404.097,407.457,409.738,412.017,414.242,419.342,424.382,429.482,434.582,436.807,441.065,446.345,454.325,459.305,461.584,463.865,469.085,471.365,476.164,479.525,481.744,486.845,491.885,496.985" svgx:width="0.31,0.31,0.5,0.23,0.46,0.53,0.35,0.23,0.34,0.52,0.5,0.23,0.51,0.25,0.51,0.31,0.46,0.23,0.48,0.45,0.5,0.35,0.48,0.47,0.5,0.23,0.45,0.35,0.31,0.51,0.23,0.52,0.5,0.5,0.52,0.39,0.23,0.52,0.52,0.34,0.23,0.23,0.23,0.51,0.51,0.51,0.51,0.23,0.42,0.53,0.8,0.5,0.23,0.23,0.52,0.23,0.48,0.34,0.23,0.51,0.51,0.51,0.23" style="fill:rgb(0,0,0);font-family:Calibri;font-size:10.02px;stroke:none;">--&gt; For the 1.5-S average yr-1 needs until 2050 come in at 963 </text>
   <text y="463.531" x="246.6,251.881,254.155,256.43,258.71,260.985,266.265,271.545,273.844,280.264,284.884,291.007,296.107,301.147,306.187,311.287,313.572,316.632,321.9,325.38,327.601,332.881,338.162,340.441,342.722,348.002,350.283,355.502,360.242,364.142,366.602,368.881,373.981,379.021,384.122,386.342,391.623,393.903,396.183,398.462,400.743,406.022,411.303,413.582,420.002,424.562,430.745,435.785,440.885,445.925,451.025,453.305,456.365,461.644,465.125,467.345,472.625,477.605,482.405,485.705,487.985,493.265,498.546,506.466,511.746,515.646,518.166" svgx:width="0.52,0.23,0.23,0.23,0.23,0.53,0.52,0.23,0.64,0.46,0.62,0.51,0.51,0.51,0.51,0.23,0.31,0.53,0.35,0.23,0.52,0.52,0.23,0.23,0.52,0.23,0.52,0.47,0.39,0.25,0.23,0.51,0.51,0.51,0.23,0.52,0.23,0.23,0.23,0.23,0.53,0.52,0.23,0.64,0.46,0.62,0.51,0.51,0.51,0.51,0.23,0.31,0.53,0.35,0.23,0.52,0.5,0.48,0.34,0.23,0.52,0.52,0.8,0.52,0.39,0.25,0.23" style="fill:rgb(0,0,0);font-family:Calibri;font-size:10.02px;stroke:none;">billion USD2015 for buildings, 102 billion USD2015 for heat pumps, </text>
   <text y="475.715" x="246.6,251.4,256.68,261.961,264.185,269.285,274.325,279.426,281.645,286.926,289.205,291.486,293.765,296.045,301.325,306.606,308.886,315.306,319.925,326.046,331.146,336.186,341.286,346.326,348.611,351.671,356.95,360.43,362.715,364.934,370.215,375.495,380.776,384.676,388.035,391.455,396.014,398.534,400.755,406.576,411.857,417.137,419.358,423.917,426.136,431.417,436.156,438.436,441.737,447.017,451.998,454.278,457.758,462.738,465.018,469.818,473.177,475.458,479.958,484.938,487.157,491.058,496.339,501.139,504.619,509.599" svgx:width="0.48,0.52,0.52,0.23,0.51,0.51,0.51,0.23,0.52,0.23,0.23,0.23,0.23,0.53,0.52,0.23,0.64,0.46,0.62,0.51,0.51,0.51,0.51,0.23,0.31,0.53,0.35,0.23,0.23,0.52,0.52,0.52,0.39,0.34,0.35,0.45,0.25,0.23,0.58,0.52,0.52,0.23,0.45,0.23,0.52,0.47,0.23,0.34,0.52,0.5,0.23,0.35,0.5,0.23,0.48,0.34,0.23,0.45,0.5,0.23,0.39,0.52,0.48,0.35,0.5,0.23" style="fill:rgb(0,0,0);font-family:Calibri;font-size:10.02px;stroke:none;">and 354 billion USD2015 for industry. Applying the relative share </text>
   <text y="487.959" x="246.6,251.881,254.937,257.221,260.578,265.858,270.838,274.738,279.718,281.938,286.198,290.998,294.354,299.274,303.954,309.234,312.714,314.994,319.974,323.874,326.154,331.434,336.714,338.999,344.278,346.498,351.238,356.518,361.498,364.918,367.198,370.555,375.835,379.192,383.991,386.271,388.555,393.775,398.755,403.735,409.015,412.915,415.135,420.415,425.635,428.992,431.272,433.552,435.832,440.932,445.972,451.072,456.112,458.632,460.912,465.711,469.191,474.472,479.692,484.912,490.192,492.472,497.572,500.032,505.132" svgx:width="0.53,0.31,0.23,0.34,0.52,0.5,0.39,0.5,0.23,0.42,0.48,0.34,0.5,0.47,0.53,0.35,0.23,0.5,0.39,0.23,0.53,0.52,0.23,0.52,0.23,0.47,0.52,0.5,0.35,0.23,0.34,0.53,0.34,0.48,0.23,0.23,0.52,0.5,0.5,0.52,0.39,0.23,0.52,0.52,0.34,0.23,0.23,0.23,0.51,0.51,0.51,0.51,0.25,0.23,0.48,0.35,0.53,0.52,0.52,0.52,0.23,0.51,0.25,0.51,0.23" style="fill:rgb(0,0,0);font-family:Calibri;font-size:10.02px;stroke:none;">of these categories on higher total needs until 2030, around 1.8 </text>
   <text y="500.144" x="246.6,249.96,253.44,255.72,258.0,260.28,262.56,267.84,273.121,275.405,281.825,286.445,292.627,297.667,302.707,307.747,312.847,315.132,319.691,323.163,326.159,331.259,333.539,335.819,341.039,343.323,348.542,353.823,356.103,358.383,363.664,365.944,371.225,375.964,379.864,382.149,386.888,392.169,397.449,399.669,404.769,407.289,412.329,414.613,417.973,421.453,423.734,426.013,428.294,430.573,435.853,441.133,443.413,449.834,454.453,460.573,465.673,470.713,475.813,480.854,483.073,487.632,491.098,494.154,499.254,501.534,503.814,509.035" svgx:width="0.34,0.35,0.23,0.23,0.23,0.23,0.53,0.52,0.23,0.64,0.46,0.62,0.51,0.51,0.51,0.51,0.23,0.45,0.35,0.31,0.51,0.23,0.23,0.52,0.23,0.52,0.52,0.23,0.23,0.52,0.23,0.52,0.47,0.39,0.23,0.48,0.52,0.52,0.23,0.51,0.25,0.51,0.23,0.34,0.35,0.23,0.23,0.23,0.23,0.53,0.52,0.23,0.64,0.46,0.62,0.51,0.51,0.51,0.51,0.23,0.45,0.35,0.31,0.51,0.23,0.23,0.52,0.23" style="fill:rgb(0,0,0);font-family:Calibri;font-size:10.02px;stroke:none;">trillion USD2015 yr-1 in buildings and 1.7 trillion USD2015 yr-1 in </text>
  </g>
  <g begin="text">
   <text y="512.34" x="246.6,248.88,254.16,259.441,264.721,268.621,271.981,275.402,279.961,282.24,287.04,290.52,295.5,297.72,303.001,307.92,312.9,318.181,323.161,328.441,330.721,332.941,338.222,340.507,343.866,349.087,354.067,356.346,361.446,363.906" svgx:width="0.23,0.52,0.52,0.52,0.39,0.34,0.35,0.45,0.23,0.48,0.35,0.5,0.23,0.52,0.5,0.5,0.52,0.5,0.52,0.23,0.23,0.52,0.23,0.34,0.52,0.5,0.23,0.51,0.25,0.51" style="fill:rgb(0,0,0);font-family:Calibri;font-size:10.02px;stroke:none;">industry are needed in the 1.5</text>
  </g>
  <g begin="text">
   <text y="512.34" x="368.94" svgx:width="0.31" style="fill:rgb(0,0,0);font-family:Calibri;font-size:10.02px;stroke:none;">-</text>
  </g>
  <g begin="text">
   <text y="512.34" x="372.0,376.619,378.899,383.699,388.919,394.199,396.479,401.279,406.199,410.818,413.098,416.938,421.196,426.116,431.397,436.196,439.676,441.957" svgx:width="0.46,0.23,0.48,0.52,0.52,0.23,0.49,0.49,0.46,0.23,0.39,0.42,0.5,0.52,0.48,0.35,0.23,0.53" style="fill:rgb(0,0,0);font-family:Calibri;font-size:10.02px;stroke:none;">S and TES scenario</text>
  </g>
  <g begin="text">
   <text y="512.34" x="447.24" svgx:width="0.23" style="fill:rgb(0,0,0);font-family:Calibri;font-size:10.02px;stroke:none;"> </text>
  </g>
  <path style="fill:rgb(0,0,0);stroke:none;stroke-width:1.0;" d="M70.860 485.580 L71.340 485.580 L71.340 486.060 L70.860 486.060 L70.860 485.580 "/>
  <path style="fill:rgb(0,0,0);stroke:none;stroke-width:1.0;" d="M71.340 485.580 L127.560 485.580 L127.560 486.060 L71.340 486.060 L71.340 485.580 "/>
  <path style="fill:rgb(0,0,0);stroke:none;stroke-width:1.0;" d="M127.560 485.580 L128.040 485.580 L128.040 486.060 L127.560 486.060 L127.560 485.580 "/>
  <path style="fill:rgb(0,0,0);stroke:none;stroke-width:1.0;" d="M128.040 485.580 L184.260 485.580 L184.260 486.060 L128.040 486.060 L128.040 485.580 "/>
  <path style="fill:rgb(0,0,0);stroke:none;stroke-width:1.0;" d="M184.260 485.580 L184.740 485.580 L184.740 486.060 L184.260 486.060 L184.260 485.580 "/>
  <path style="fill:rgb(0,0,0);stroke:none;stroke-width:1.0;" d="M184.740 485.580 L240.960 485.580 L240.960 486.060 L184.740 486.060 L184.740 485.580 "/>
  <path style="fill:rgb(0,0,0);stroke:none;stroke-width:1.0;" d="M240.960 485.580 L241.440 485.580 L241.440 486.060 L240.960 486.060 L240.960 485.580 "/>
  <path style="fill:rgb(0,0,0);stroke:none;stroke-width:1.0;" d="M523.980 485.580 L524.460 485.580 L524.460 486.060 L523.980 486.060 L523.980 485.580 "/>
  <g begin="text">
   <text y="525.0" x="76.5,81.841,87.121,91.921,97.201,100.558,105.538,108.958,111.242,116.282" svgx:width="0.53,0.52,0.48,0.52,0.34,0.5,0.35,0.23,0.51,0.51" style="fill:rgb(0,0,0);font-family:Calibri;font-size:10.02px;stroke:none;">Chapter 15</text>
  </g>
  <g begin="text">
   <text y="525.0" x="121.32" svgx:width="0.23" style="fill:rgb(0,0,0);font-family:Calibri;font-size:10.02px;stroke:none;"> </text>
  </g>
  <g begin="text">
   <text y="525.0" x="133.2,138.3" svgx:width="0.51,0.51" style="fill:rgb(0,0,0);font-family:Calibri;font-size:10.02px;stroke:none;">35</text>
  </g>
  <g begin="text">
   <text y="525.0" x="143.34" svgx:width="0.23" style="fill:rgb(0,0,0);font-family:Calibri;font-size:10.02px;stroke:none;"> </text>
  </g>
  <g begin="text">
   <text y="525.0" x="189.9,195.0" svgx:width="0.51,0.51" style="fill:rgb(0,0,0);font-family:Calibri;font-size:10.02px;stroke:none;">20</text>
  </g>
  <g begin="text">
   <text y="525.0" x="200.04" svgx:width="0.23" style="fill:rgb(0,0,0);font-family:Calibri;font-size:10.02px;stroke:none;"> </text>
  </g>
  <g begin="text">
   <text y="525.0" x="246.6,248.875,253.854,258.354,263.335,265.61,267.894,272.694,276.054,278.338,283.438" svgx:width="0.23,0.5,0.45,0.5,0.23,0.23,0.48,0.34,0.23,0.51,0.25" style="fill:rgb(0,0,0);font-family:Calibri;font-size:10.02px;stroke:none;">level at 0.</text>
  </g>
  <g begin="text">
   <text y="525.0" x="285.96,291.0,293.28,298.08,303.3,308.58,310.86,315.96,318.42,323.52,325.74,331.021,333.301,335.581,337.862,340.141,345.421,350.701,352.981,359.402,363.962,370.144,372.429,376.988" svgx:width="0.51,0.23,0.48,0.52,0.52,0.23,0.51,0.25,0.51,0.23,0.52,0.23,0.23,0.23,0.23,0.53,0.52,0.23,0.64,0.46,0.62,0.23,0.45,0.35" style="fill:rgb(0,0,0);font-family:Calibri;font-size:10.02px;stroke:none;">6 and 0.8 billion USD yr</text>
  </g>
  <g begin="text">
   <text y="525.0" x="380.46" svgx:width="0.31" style="fill:rgb(0,0,0);font-family:Calibri;font-size:10.02px;stroke:none;">-</text>
  </g>
  <g begin="text">
   <text y="525.0" x="383.46,388.56,390.84,396.06,401.341,403.62,408.42,412.921,417.901,421.321,426.121,430.861,435.841,438.061,443.34,448.32,451.681,458.821,463.801,468.781,474.002,476.281,481.321,486.422,491.462" svgx:width="0.51,0.23,0.53,0.52,0.23,0.48,0.45,0.5,0.35,0.48,0.47,0.5,0.23,0.52,0.5,0.34,0.71,0.5,0.5,0.52,0.23,0.51,0.51,0.51,0.51" style="fill:rgb(0,0,0);font-family:Calibri;font-size:10.02px;stroke:none;">1 on average between 2026</text>
  </g>
  <g begin="text">
   <text y="525.0" x="496.56" svgx:width="0.31" style="fill:rgb(0,0,0);font-family:Calibri;font-size:10.02px;stroke:none;">-</text>
  </g>
  <g begin="text">
   <text y="537.24" x="246.6,251.7,256.74,261.84,266.941,269.215,272.271,277.191,279.476,281.755,286.735,291.235,296.215,298.496,300.775,305.516,308.875,311.16,315.959,319.439,324.72,329.939,335.22,340.5,342.721,347.821,350.341,355.381,357.666,362.405,367.686,372.966,375.187,380.287,382.807,387.847,390.126,393.486,396.967,399.247,401.526,403.807,406.086,411.367,416.647,418.932,425.352,429.971,436.153,441.193,446.233,451.334,456.434,458.653,463.212,466.669,469.725,474.765,476.99,482.269,487.549" svgx:width="0.51,0.51,0.51,0.51,0.23,0.31,0.5,0.23,0.23,0.5,0.45,0.5,0.23,0.23,0.48,0.34,0.23,0.48,0.35,0.53,0.52,0.52,0.52,0.23,0.51,0.25,0.51,0.23,0.48,0.52,0.52,0.23,0.51,0.25,0.51,0.23,0.34,0.35,0.23,0.23,0.23,0.23,0.53,0.52,0.23,0.64,0.46,0.62,0.51,0.51,0.51,0.51,0.23,0.45,0.35,0.31,0.51,0.23,0.53,0.52,0.23" style="fill:rgb(0,0,0);font-family:Calibri;font-size:10.02px;stroke:none;">2030 -&gt; level at around 0.6 and 0.8 trillion USD2015 yr-1 on </text>
   <text y="549.424" x="246.59,251.39,255.89,260.869,264.349,269.149,273.889,278.869,281.154,286.373,291.353,294.714,301.853,306.774,311.754,317.034,319.318,324.358,329.458,334.498,339.586,342.642,347.682,352.722,357.822,362.862" svgx:width="0.48,0.45,0.5,0.35,0.48,0.47,0.5,0.23,0.52,0.5,0.34,0.71,0.5,0.5,0.52,0.23,0.51,0.51,0.51,0.51,0.31,0.51,0.51,0.51,0.51,0.23" style="fill:rgb(0,0,0);font-family:Calibri;font-size:10.02px;stroke:none;">average between 2026-2030 </text>
  </g>
  <path style="fill:rgb(0,0,0);stroke:none;stroke-width:1.0;" d="M71.340 231.900 L127.560 231.900 L127.560 326.400 L71.340 326.400 L71.340 231.900 M71.340 231.900 L127.560 231.900 L127.560 326.400 L71.340 326.400 L71.340 231.900 M128.040 231.900 L184.260 231.900 L184.260 326.400 L128.040 326.400 L128.040 231.900 M128.040 231.900 L184.260 231.900 L184.260 326.400 L128.040 326.400 L128.040 231.900 M184.740 231.900 L240.960 231.900 L240.960 326.400 L184.740 326.400 L184.740 231.900 M184.740 231.900 L240.960 231.900 L240.960 326.400 L184.740 326.400 L184.740 231.900 M70.860 326.400 L71.340 326.400 L71.340 326.880 L70.860 326.880 L70.860 326.400 "/>
  <path style="fill:rgb(0,0,0);stroke:none;stroke-width:1.0;" d="M71.340 326.400 L127.560 326.400 L127.560 326.880 L71.340 326.880 L71.340 326.400 "/>
  <path style="fill:rgb(0,0,0);stroke:none;stroke-width:1.0;" d="M127.560 326.400 L128.040 326.400 L128.040 326.880 L127.560 326.880 L127.560 326.400 "/>
  <path style="fill:rgb(0,0,0);stroke:none;stroke-width:1.0;" d="M128.040 326.400 L184.260 326.400 L184.260 326.880 L128.040 326.880 L128.040 326.400 "/>
  <path style="fill:rgb(0,0,0);stroke:none;stroke-width:1.0;" d="M184.260 326.400 L184.740 326.400 L184.740 326.880 L184.260 326.880 L184.260 326.400 "/>
  <path style="fill:rgb(0,0,0);stroke:none;stroke-width:1.0;" d="M184.740 326.400 L240.960 326.400 L240.960 326.880 L184.740 326.880 L184.740 326.400 "/>
  <path style="fill:rgb(0,0,0);stroke:none;stroke-width:1.0;" d="M240.960 326.400 L241.440 326.400 L241.440 326.880 L240.960 326.880 L240.960 326.400 "/>
  <path style="fill:rgb(0,0,0);stroke:none;stroke-width:1.0;" d="M523.980 326.400 L524.460 326.400 L524.460 326.880 L523.980 326.880 L523.980 326.400 "/>
  <path style="fill:rgb(0,0,0);stroke:none;stroke-width:1.0;" d="M70.860 231.900 L71.340 231.900 L71.340 326.400 L70.860 326.400 L70.860 231.900 "/>
  <path style="fill:rgb(0,0,0);stroke:none;stroke-width:1.0;" d="M127.560 231.900 L128.040 231.900 L128.040 326.400 L127.560 326.400 L127.560 231.900 "/>
  <path style="fill:rgb(0,0,0);stroke:none;stroke-width:1.0;" d="M184.260 231.900 L184.740 231.900 L184.740 326.400 L184.260 326.400 L184.260 231.900 "/>
  <path style="fill:rgb(0,0,0);stroke:none;stroke-width:1.0;" d="M240.960 231.900 L241.440 231.900 L241.440 326.400 L240.960 326.400 L240.960 231.900 "/>
  <path style="fill:rgb(0,0,0);stroke:none;stroke-width:1.0;" d="M523.980 231.900 L524.460 231.900 L524.460 326.400 L523.980 326.400 L523.980 231.900 "/>
  <g begin="text">
   <text y="620.04" x="76.5,81.841,87.121,91.921,97.201,100.558,105.538,108.958,111.242,116.282" svgx:width="0.53,0.52,0.48,0.52,0.34,0.5,0.35,0.23,0.51,0.51" style="fill:rgb(0,0,0);font-family:Calibri;font-size:10.02px;stroke:none;">Chapter 15</text>
  </g>
  <g begin="text">
   <text y="620.04" x="121.32" svgx:width="0.23" style="fill:rgb(0,0,0);font-family:Calibri;font-size:10.02px;stroke:none;"> </text>
  </g>
  <g begin="text">
   <text y="620.04" x="133.2,138.3" svgx:width="0.51,0.51" style="fill:rgb(0,0,0);font-family:Calibri;font-size:10.02px;stroke:none;">35</text>
  </g>
  <g begin="text">
   <text y="620.04" x="143.34" svgx:width="0.23" style="fill:rgb(0,0,0);font-family:Calibri;font-size:10.02px;stroke:none;"> </text>
  </g>
  <g begin="text">
   <text y="620.04" x="189.9,195.0" svgx:width="0.51,0.51" style="fill:rgb(0,0,0);font-family:Calibri;font-size:10.02px;stroke:none;">43</text>
  </g>
  <g begin="text">
   <text y="620.04" x="200.04" svgx:width="0.23" style="fill:rgb(0,0,0);font-family:Calibri;font-size:10.02px;stroke:none;"> </text>
  </g>
  <g begin="text">
   <text y="620.04" x="246.6,251.219,256.499,259.979,262.263,265.623,270.904,275.823,278.103,283.203,285.663" svgx:width="0.46,0.53,0.35,0.23,0.34,0.52,0.5,0.23,0.51,0.25,0.51" style="fill:rgb(0,0,0);font-family:Calibri;font-size:10.02px;stroke:none;">For the 1.5</text>
  </g>
  <g begin="text">
   <text y="620.04" x="290.76" svgx:width="0.31" style="fill:rgb(0,0,0);font-family:Calibri;font-size:10.02px;stroke:none;">-</text>
  </g>
  <g begin="text">
   <text y="620.04" x="293.82,298.439,300.719,304.559,308.818,313.798,319.078,323.878,327.358,329.639,334.918,337.378,339.663,342.183,347.582,352.502,358.922,364.682,366.962,369.242,374.523,379.804,382.083,386.342,391.081,394.441,399.421,403.322,405.601,410.402,414.902,419.882,423.301,428.101,432.84,437.82,440.1,442.38,447.661,452.161,457.141,461.042,464.401,472.381,477.361,482.582,485.941,488.221,493.502,498.482,503.401,508.682,512.582" svgx:width="0.46,0.23,0.39,0.42,0.5,0.52,0.48,0.35,0.23,0.53,0.25,0.23,0.25,0.54,0.49,0.65,0.58,0.23,0.23,0.52,0.52,0.23,0.42,0.48,0.34,0.5,0.39,0.23,0.48,0.45,0.5,0.35,0.48,0.47,0.5,0.23,0.23,0.52,0.45,0.5,0.39,0.34,0.8,0.5,0.52,0.34,0.23,0.52,0.5,0.5,0.52,0.39,0.23" style="fill:rgb(0,0,0);font-family:Calibri;font-size:10.02px;stroke:none;">S scenario, IRENA indicates average investment needs </text>
  </g>
  <g begin="text">
   <text y="632.22" x="246.6,251.881,254.94,257.224,262.324,264.784,269.884,272.164,275.524,279.004,281.284,283.564,285.844,288.124,293.404,298.685,300.969,307.329,311.948,318.131,320.35,324.909,328.383,331.439,336.479,338.759,341.815,347.096,350.576,352.862,357.842,360.123,365.042,369.301,372.662,376.142,378.421,382.68,384.959,389.459,394.439,399.72,401.939,406.198,408.477,413.457,415.742,418.021,423.302,426.302,429.782,434.581,438.481,441.842,445.322,450.602,454.861,458.16,463.441,466.921,471.901,474.421,476.64,481.74,484.2,489.301,491.58,494.941,498.421,500.7,502.981,505.26,507.541,512.82,518.101" svgx:width="0.53,0.31,0.23,0.51,0.25,0.51,0.23,0.34,0.35,0.23,0.23,0.23,0.23,0.53,0.52,0.23,0.64,0.46,0.62,0.23,0.45,0.35,0.31,0.51,0.23,0.31,0.53,0.35,0.23,0.5,0.23,0.5,0.42,0.34,0.35,0.23,0.42,0.23,0.45,0.5,0.52,0.23,0.42,0.23,0.5,0.23,0.23,0.52,0.31,0.35,0.48,0.39,0.34,0.35,0.52,0.42,0.34,0.52,0.35,0.5,0.25,0.23,0.51,0.25,0.51,0.23,0.34,0.35,0.23,0.23,0.23,0.23,0.53,0.52,0.23" style="fill:rgb(0,0,0);font-family:Calibri;font-size:10.02px;stroke:none;">of 0.2 trillion USD yr-1 for electric vehicle infrastructure, 0.2 trillion </text>
   <text y="644.464" x="246.6,253.02,257.639,263.821,266.041,270.6,274.085,277.141,282.181,284.461,287.521,292.801,296.281,298.561,301.921,305.341,310.141,315.421,319.321,324.602,329.882,333.362,336.722,339.006,343.926,349.207,354.187,357.667,362.347,366.906,369.191,374.171,377.231,380.29,382.51,386.769,389.049,394.029,399.31,403.509,408.068,410.353,415.092,420.313,425.593,427.878,432.978,435.439,440.539,442.824,446.183,449.663,451.944,454.223,456.504,458.784,464.063,469.344,471.623,477.984,482.603,488.785,491.006,495.565,499.024,502.08,507.12" svgx:width="0.64,0.46,0.62,0.23,0.45,0.35,0.31,0.51,0.23,0.31,0.53,0.35,0.23,0.34,0.35,0.48,0.52,0.39,0.52,0.53,0.35,0.34,0.23,0.5,0.52,0.5,0.35,0.47,0.45,0.23,0.5,0.31,0.31,0.23,0.42,0.23,0.5,0.52,0.42,0.45,0.23,0.48,0.52,0.52,0.23,0.51,0.25,0.51,0.23,0.34,0.35,0.23,0.23,0.23,0.23,0.53,0.52,0.23,0.64,0.46,0.62,0.23,0.45,0.35,0.31,0.51,0.23" style="fill:rgb(0,0,0);font-family:Calibri;font-size:10.02px;stroke:none;">USD yr-1 for transport energy efficiency and 0.3 trillion USD yr-1 </text>
   <text y="656.649" x="246.6,249.66,254.94,258.42,260.704,265.564,271.265,273.545,278.825,283.565,286.925,290.285,295.265,298.745,301.026,305.945,309.845,312.125,315.181,317.701,323.101,328.021,334.441,340.263,342.483,347.583,352.624,357.724,362.763,368.043,371.099,373.319,376.375,381.175,385.675,390.655,394.135,398.935,403.674,408.594,410.874,416.094,421.315,424.674,426.954,429.234,431.514,436.614,441.654,446.754,451.794,454.851,457.321" svgx:width="0.31,0.53,0.35,0.23,0.49,0.57,0.23,0.52,0.48,0.34,0.34,0.5,0.35,0.23,0.5,0.39,0.23,0.3,0.25,0.54,0.49,0.65,0.58,0.23,0.51,0.51,0.51,0.51,0.52,0.3,0.23,0.3,0.48,0.45,0.5,0.35,0.48,0.47,0.5,0.23,0.52,0.52,0.34,0.23,0.23,0.23,0.51,0.51,0.51,0.51,0.3,0.25,0.23" style="fill:rgb(0,0,0);font-family:Calibri;font-size:10.02px;stroke:none;">for EV batteries (IRENA 2020d) (average until 2030). </text>
   <text y="668.833" x="246.6" svgx:width="0.23" style="fill:rgb(0,0,0);font-family:Calibri;font-size:10.02px;stroke:none;"> </text>
   <text y="681.078" x="246.6,249.656,252.712,257.692,262.311,267.591,271.071,273.355,276.715,281.996,286.915,289.195,294.295,296.755,301.855,304.856,309.475,311.755,315.655,319.913,324.833,330.114,334.913,338.393,340.674,345.953,348.473,350.758,353.218,358.679,363.538,370.018,375.84,378.119,380.34,385.62,390.901,393.18,397.439,402.178,405.538,410.518,414.419,416.698,421.439,425.939,430.919,434.399,439.198,443.938,448.918,451.197,453.478,458.758,463.258,468.238,472.139,475.439,483.419,488.399,493.679,497.039" svgx:width="0.31,0.31,0.5,0.46,0.53,0.35,0.23,0.34,0.52,0.5,0.23,0.51,0.25,0.51,0.31,0.46,0.23,0.39,0.42,0.5,0.52,0.48,0.35,0.23,0.53,0.25,0.23,0.25,0.54,0.49,0.65,0.58,0.23,0.23,0.52,0.52,0.23,0.42,0.48,0.34,0.5,0.39,0.23,0.48,0.45,0.5,0.35,0.48,0.47,0.5,0.23,0.23,0.52,0.45,0.5,0.39,0.34,0.8,0.5,0.52,0.34,0.23" style="fill:rgb(0,0,0);font-family:Calibri;font-size:10.02px;stroke:none;">--&gt;For the 1.5-S scenario, IRENA indicates average investment </text>
   <text y="693.262" x="246.6,251.88,256.86,261.84,267.121,271.021,273.305,278.585,281.585,283.869,288.969,291.429,296.53,298.814,302.174,305.654,307.874,310.154,312.434,314.714,319.994,325.275,327.559,333.979,338.598,344.718,349.818,354.836,359.936,364.976,367.196,371.755,375.237,378.293,383.393,385.673,388.673,393.953,397.433,399.718,404.698,406.977,411.957,416.218,419.577,423.057,425.278,429.538,431.818,436.318,441.298,446.578,448.858,453.118,455.398,460.319" svgx:width="0.52,0.5,0.5,0.52,0.39,0.23,0.53,0.31,0.23,0.51,0.25,0.51,0.23,0.34,0.35,0.23,0.23,0.23,0.23,0.53,0.52,0.23,0.64,0.46,0.62,0.51,0.51,0.51,0.51,0.23,0.45,0.35,0.31,0.51,0.23,0.31,0.53,0.35,0.23,0.5,0.23,0.5,0.42,0.34,0.35,0.23,0.42,0.23,0.45,0.5,0.52,0.23,0.42,0.23,0.5,0.23" style="fill:rgb(0,0,0);font-family:Calibri;font-size:10.02px;stroke:none;">needs of 0.2 trillion USD2015 yr-1 for electric vehicle </text>
   <text y="705.506" x="246.59,248.869,254.15,257.21,260.69,265.49,269.39,272.75,276.23,281.511,285.769,289.069,294.349,297.829,302.809,305.269,307.49,312.59,315.109,320.209,322.493,325.853,329.333,331.614,333.893,336.174,338.453,343.733,349.013,351.293,357.654,362.273,368.393,370.678,375.237,378.714,381.77,386.81,389.089,392.149,397.43,400.91,403.194,406.554,410.034,414.775,420.054,423.954,429.174,434.455,437.935,441.295,443.579,448.559,453.839,458.819,462.239,466.979,471.539,473.759,478.739,481.799,484.86,487.079,491.34,493.624,498.604,503.884,508.084,512.644" svgx:width="0.23,0.52,0.31,0.35,0.48,0.39,0.34,0.35,0.52,0.42,0.34,0.52,0.35,0.5,0.25,0.23,0.51,0.25,0.51,0.23,0.34,0.35,0.23,0.23,0.23,0.23,0.53,0.52,0.23,0.64,0.46,0.62,0.23,0.45,0.35,0.31,0.51,0.23,0.31,0.53,0.35,0.23,0.34,0.35,0.48,0.52,0.39,0.52,0.53,0.35,0.34,0.23,0.5,0.52,0.5,0.35,0.47,0.45,0.23,0.5,0.31,0.31,0.23,0.42,0.23,0.5,0.52,0.42,0.45,0.23" style="fill:rgb(0,0,0);font-family:Calibri;font-size:10.02px;stroke:none;">infrastructure, 0.2 trillion USD yr-1 for transport energy efficiency </text>
   <text y="717.691" x="246.59,251.39,256.67,261.951,264.175,269.275,271.795,276.835,279.115,282.475,285.956,288.235,290.515,292.795,295.075,300.355,305.636,307.86,314.28,318.899,325.082,330.121,335.161,340.261,345.361,347.585,352.145,355.608,358.664,363.704,365.983,368.983,374.264,377.744,380.023,384.944,390.585,392.87,398.149,402.89,406.25,409.609,414.589,418.069,420.35,425.33,429.229,431.509,434.569,437.089,442.49,447.41,453.831,459.65,461.871,466.97,472.01,477.11,482.15,487.431,490.427" svgx:width="0.48,0.52,0.52,0.23,0.51,0.25,0.51,0.23,0.34,0.35,0.23,0.23,0.23,0.23,0.53,0.52,0.23,0.64,0.46,0.62,0.51,0.51,0.51,0.51,0.23,0.45,0.35,0.31,0.51,0.23,0.31,0.53,0.35,0.23,0.49,0.57,0.23,0.52,0.48,0.34,0.34,0.5,0.35,0.23,0.5,0.39,0.23,0.3,0.25,0.54,0.49,0.65,0.58,0.23,0.51,0.51,0.51,0.51,0.52,0.3,0.23" style="fill:rgb(0,0,0);font-family:Calibri;font-size:10.02px;stroke:none;">and 0.3 trillion USD2015 yr-1 for EV batteries (IRENA 2020d) </text>
  </g>
  <g begin="text">
   <text y="729.9" x="246.6,249.656,254.456,258.956,263.936,267.417,272.216,276.956,281.937,284.156,289.437,294.656,298.016,300.296,302.576,304.856,309.957,314.997,320.097,325.137,328.193" svgx:width="0.3,0.48,0.45,0.5,0.35,0.48,0.47,0.5,0.23,0.52,0.52,0.34,0.23,0.23,0.23,0.51,0.51,0.51,0.51,0.3,0.25" style="fill:rgb(0,0,0);font-family:Calibri;font-size:10.02px;stroke:none;">(average until 2030).</text>
  </g>
  <g begin="text">
   <text y="729.9" x="330.66" svgx:width="0.23" style="fill:rgb(0,0,0);font-family:Calibri;font-size:10.02px;stroke:none;"> </text>
  </g>
  <path style="fill:rgb(0,0,0);stroke:none;stroke-width:1.0;" d="M70.860 231.420 L71.340 231.420 L71.340 231.900 L70.860 231.900 L70.860 231.420 "/>
  <path style="fill:rgb(0,0,0);stroke:none;stroke-width:1.0;" d="M71.340 231.420 L127.560 231.420 L127.560 231.900 L71.340 231.900 L71.340 231.420 "/>
  <path style="fill:rgb(0,0,0);stroke:none;stroke-width:1.0;" d="M127.560 231.420 L128.040 231.420 L128.040 231.900 L127.560 231.900 L127.560 231.420 "/>
  <path style="fill:rgb(0,0,0);stroke:none;stroke-width:1.0;" d="M128.040 231.420 L184.260 231.420 L184.260 231.900 L128.040 231.900 L128.040 231.420 "/>
  <path style="fill:rgb(0,0,0);stroke:none;stroke-width:1.0;" d="M184.260 231.420 L184.740 231.420 L184.740 231.900 L184.260 231.900 L184.260 231.420 "/>
  <path style="fill:rgb(0,0,0);stroke:none;stroke-width:1.0;" d="M184.740 231.420 L240.960 231.420 L240.960 231.900 L184.740 231.900 L184.740 231.420 "/>
  <path style="fill:rgb(0,0,0);stroke:none;stroke-width:1.0;" d="M240.960 231.420 L241.440 231.420 L241.440 231.900 L240.960 231.900 L240.960 231.420 "/>
  <path style="fill:rgb(0,0,0);stroke:none;stroke-width:1.0;" d="M523.980 231.420 L524.460 231.420 L524.460 231.900 L523.980 231.900 L523.980 231.420 "/>
  <path style="fill:rgb(0,0,0);stroke:none;stroke-width:1.0;" d="M70.860 108.780 L71.340 108.780 L71.340 109.260 L70.860 109.260 L70.860 108.780 "/>
  <path style="fill:rgb(0,0,0);stroke:none;stroke-width:1.0;" d="M70.860 108.780 L71.340 108.780 L71.340 109.260 L70.860 109.260 L70.860 108.780 "/>
  <path style="fill:rgb(0,0,0);stroke:none;stroke-width:1.0;" d="M71.340 108.780 L127.560 108.780 L127.560 109.260 L71.340 109.260 L71.340 108.780 "/>
  <path style="fill:rgb(0,0,0);stroke:none;stroke-width:1.0;" d="M127.560 108.780 L128.040 108.780 L128.040 109.260 L127.560 109.260 L127.560 108.780 "/>
  <path style="fill:rgb(0,0,0);stroke:none;stroke-width:1.0;" d="M128.040 108.780 L184.260 108.780 L184.260 109.260 L128.040 109.260 L128.040 108.780 "/>
  <path style="fill:rgb(0,0,0);stroke:none;stroke-width:1.0;" d="M184.260 108.780 L184.740 108.780 L184.740 109.260 L184.260 109.260 L184.260 108.780 "/>
  <path style="fill:rgb(0,0,0);stroke:none;stroke-width:1.0;" d="M184.740 108.780 L240.960 108.780 L240.960 109.260 L184.740 109.260 L184.740 108.780 "/>
  <path style="fill:rgb(0,0,0);stroke:none;stroke-width:1.0;" d="M240.960 108.780 L241.440 108.780 L241.440 109.260 L240.960 109.260 L240.960 108.780 "/>
  <path style="fill:rgb(0,0,0);stroke:none;stroke-width:1.0;" d="M523.980 108.780 L524.460 108.780 L524.460 109.260 L523.980 109.260 L523.980 108.780 "/>
  <path style="fill:rgb(0,0,0);stroke:none;stroke-width:1.0;" d="M523.980 108.780 L524.460 108.780 L524.460 109.260 L523.980 109.260 L523.980 108.780 "/>
 </g>
</svg>
