<?xml version="1.0" encoding="UTF-8"?>
<svg height="434.32" width="2580.85" xmlns="http://www.w3.org/2000/svg">
 <g id="page" xmlns:svgx="http://www.xml-cml.org/schema/svgx">
  <g begin="text">
   <text y="81.36" x="70.86,76.68,82.56,86.46,90.36,95.88,100.501,104.34,109.861,115.801,118.261,123.721,129.181,135.061,137.761,143.281,145.74,151.32,156.9,159.841,165.475" svgx:width="0.53,0.54,0.35,0.35,0.5,0.42,0.35,0.5,0.54,0.23,0.5,0.49,0.54,0.25,0.5,0.23,0.51,0.51,0.27,0.51,0.23" style="fill:rgb(0,0,0);font-family:Calibri-Bold;font-size:10.98px;stroke:none;">Corrected Table 15.4 </text>
   <text y="335.404" x="522.358" svgx:width="0.23" style="fill:rgb(0,0,0);font-family:Calibri;font-size:10.98px;stroke:none;"> </text>
   <text y="354.96" x="70.86,76.68,82.56,86.46,90.36,95.88,100.5,104.34,109.861,115.801,118.261,122.101,127.561,133.446,136.146,141.666,144.125,149.705,155.285,158.225,163.861" svgx:width="0.53,0.54,0.35,0.35,0.5,0.42,0.35,0.5,0.54,0.23,0.35,0.49,0.54,0.25,0.5,0.23,0.51,0.51,0.27,0.51,0.23" style="fill:rgb(0,0,0);font-family:Calibri-Bold;font-size:10.98px;stroke:none;">Corrected table 15.3 </text>
   <text y="424.32" x="476.34" svgx:width="0.23" style="fill:rgb(0,0,0);font-family:Calibri;font-size:10.98px;stroke:none;"> </text>
  </g>
  <rect style="fill:pink;opacity:0.2;stroke:blue;stroke-width:0.3;" x="70.85" y="51.421" height="242.05" width="451.3" title="12"/>
  <text y="51.421" class="image" id="image.12.1" width="451" height="242" x="70.85" style="font-size:5.0px;">image.12.1.71_522.51_293</text>
  <rect style="fill:pink;opacity:0.2;stroke:blue;stroke-width:0.3;" x="70.85" y="315.962" height="66.4" width="405.5" title="12"/>
  <text y="315.962" class="image" id="image.12.2" width="405" height="66" x="70.85" style="font-size:5.0px;">image.12.2.71_476.316_382</text>
 </g>
</svg>
