<?xml version="1.0" encoding="UTF-8"?>
<svg height="781.06" width="534.46" xmlns="http://www.w3.org/2000/svg">
 <g id="page" xmlns:svgx="http://www.xml-cml.org/schema/svgx">
  <g begin="text">
   <text y="80.82" x="76.5,81.841,87.121,91.921,97.201,100.558,105.538,108.958,111.242,116.282" svgx:width="0.53,0.52,0.48,0.52,0.34,0.5,0.35,0.23,0.51,0.51" style="fill:rgb(0,0,0);font-family:Calibri;font-size:10.02px;stroke:none;">Chapter 15</text>
  </g>
  <g begin="text">
   <text y="80.82" x="121.32" svgx:width="0.23" style="fill:rgb(0,0,0);font-family:Calibri;font-size:10.02px;stroke:none;"> </text>
  </g>
  <g begin="text">
   <text y="80.82" x="133.2,138.3" svgx:width="0.51,0.51" style="fill:rgb(0,0,0);font-family:Calibri;font-size:10.02px;stroke:none;">35</text>
  </g>
  <g begin="text">
   <text y="80.82" x="143.34" svgx:width="0.23" style="fill:rgb(0,0,0);font-family:Calibri;font-size:10.02px;stroke:none;"> </text>
  </g>
  <g begin="text">
   <text y="80.82" x="189.9,195.0" svgx:width="0.51,0.51" style="fill:rgb(0,0,0);font-family:Calibri;font-size:10.02px;stroke:none;">17</text>
  </g>
  <g begin="text">
   <text y="80.82" x="200.04" svgx:width="0.23" style="fill:rgb(0,0,0);font-family:Calibri;font-size:10.02px;stroke:none;"> </text>
  </g>
  <g begin="text">
   <text y="80.82" x="246.6,251.881,254.16,258.9,264.18,269.16,272.64,274.86,278.22,283.501,286.86,291.66,293.94,296.16,301.44,306.36,311.34,316.621,320.522,322.801,328.022,333.302,336.663,338.942,341.223,343.502,348.543,353.643,358.683,363.783,366.244,368.523,373.324,376.803,382.083,387.364,392.584" svgx:width="0.52,0.23,0.47,0.52,0.5,0.35,0.23,0.34,0.53,0.34,0.48,0.23,0.23,0.52,0.5,0.5,0.52,0.39,0.23,0.52,0.52,0.34,0.23,0.23,0.23,0.51,0.51,0.51,0.51,0.25,0.23,0.48,0.35,0.53,0.52,0.52,0.52" style="fill:rgb(0,0,0);font-family:Calibri;font-size:10.02px;stroke:none;">higher total needs until 2030, around</text>
  </g>
  <g begin="text">
   <text y="80.82" x="397.86" svgx:width="0.23" style="fill:rgb(0,0,0);font-family:Calibri;font-size:10.02px;stroke:none;"> </text>
  </g>
  <g begin="text">
   <text y="80.82" x="400.08,405.18,407.7,412.8,415.02,418.381,421.86,424.14,426.421,428.7,430.98,436.26,441.541,443.825,450.245,454.864,460.984,463.264,467.823" svgx:width="0.51,0.25,0.51,0.23,0.34,0.35,0.23,0.23,0.23,0.23,0.53,0.52,0.23,0.64,0.46,0.62,0.23,0.45,0.35" style="fill:rgb(0,0,0);font-family:Calibri;font-size:10.02px;stroke:none;">1.8 trillion USD yr</text>
  </g>
  <g begin="text">
   <text y="80.82" x="471.3" svgx:width="0.31" style="fill:rgb(0,0,0);font-family:Calibri;font-size:10.02px;stroke:none;">-</text>
  </g>
  <g begin="text">
   <text y="80.82" x="474.3,479.4,481.68,483.9,489.181" svgx:width="0.51,0.23,0.23,0.52,0.23" style="fill:rgb(0,0,0);font-family:Calibri;font-size:10.02px;stroke:none;">1 in </text>
  </g>
  <g begin="text">
   <text y="93.06" x="246.6,251.881,257.161,259.441,261.721,267.002,269.282,274.502,279.241,283.141,285.425,290.225,295.445,300.726,302.946,307.987,310.507,315.607,317.886,321.246,324.726,327.006,329.286,331.567,333.846,339.127,344.407,346.692,353.112,357.672,363.854,366.074,370.634,374.105,377.161,382.261,384.54,386.821,392.04,394.325,396.604,401.885,407.104,412.385,416.285,419.644,423.065,427.624,429.909,434.708,438.188,443.168,445.389,450.669,455.649,460.629,465.91,470.83,476.11,478.39,480.61,485.891,488.175,491.535,496.815,501.735" svgx:width="0.52,0.52,0.23,0.23,0.52,0.23,0.52,0.47,0.39,0.23,0.48,0.52,0.52,0.23,0.51,0.25,0.51,0.23,0.34,0.35,0.23,0.23,0.23,0.23,0.53,0.52,0.23,0.64,0.46,0.62,0.23,0.45,0.35,0.31,0.51,0.23,0.23,0.52,0.23,0.23,0.52,0.52,0.52,0.39,0.34,0.35,0.45,0.23,0.48,0.35,0.5,0.23,0.52,0.5,0.5,0.52,0.5,0.52,0.23,0.23,0.52,0.23,0.34,0.52,0.5,0.23" style="fill:rgb(0,0,0);font-family:Calibri;font-size:10.02px;stroke:none;">buildings and 1.7 trillion USD yr-1 in industry are needed in the </text>
   <text y="105.244" x="246.6,251.7,254.215,259.315,262.371,266.932,269.211,274.012,279.231,284.512,286.791,291.652,296.512,301.131,303.41,307.251,311.51,316.49,321.77,326.57,330.05,332.33,337.61,340.13,342.351,346.971,352.252,355.732,358.016,361.316,366.536,371.516,373.796,378.657,383.576,388.137,390.416,393.773,399.053,402.41,407.21,409.49,411.71,416.57,421.49,423.775,425.994,431.275,435.775,440.755,444.654,448.011,455.991,460.971,466.251,469.608,471.829,477.108,482.088,487.008,492.288,496.188,498.468,503.748,508.969,512.325,514.605,516.885" svgx:width="0.51,0.25,0.51,0.31,0.46,0.23,0.48,0.52,0.52,0.23,0.49,0.49,0.46,0.23,0.39,0.42,0.5,0.52,0.48,0.35,0.23,0.53,0.25,0.23,0.46,0.53,0.35,0.23,0.34,0.52,0.5,0.23,0.49,0.49,0.46,0.23,0.34,0.53,0.34,0.48,0.23,0.23,0.49,0.49,0.23,0.23,0.52,0.45,0.5,0.39,0.34,0.8,0.5,0.52,0.34,0.23,0.52,0.5,0.5,0.52,0.39,0.23,0.52,0.52,0.34,0.23,0.23,0.23" style="fill:rgb(0,0,0);font-family:Calibri;font-size:10.02px;stroke:none;">1.5-S and TES scenario. For the TES total EE investment needs until </text>
   <text y="117.489" x="246.59,251.69,256.73,261.83,266.93,269.15,273.95,277.431,282.411,284.69,288.59,291.947,296.746,300.103,305.023,310.303,312.583,317.382,320.739,322.958,328.059,333.099,335.383,338.74,342.22,344.5,346.78,349.061,351.34,356.621,361.9,364.12,370.54,375.161,381.34,383.625,386.981,390.401,395.201,400.481,404.381,406.661,411.461,414.818,417.098,422.318,427.058,429.338,431.618,436.898,440.255,445.475,447.76,452.559,457.779,460.063,464.623,469.603,474.403,477.883,480.103,484.663" svgx:width="0.51,0.51,0.51,0.51,0.23,0.48,0.35,0.5,0.23,0.39,0.34,0.48,0.34,0.5,0.52,0.23,0.48,0.34,0.23,0.51,0.51,0.23,0.34,0.35,0.23,0.23,0.23,0.23,0.53,0.52,0.23,0.64,0.46,0.62,0.23,0.34,0.35,0.48,0.52,0.39,0.23,0.48,0.34,0.23,0.52,0.47,0.23,0.23,0.52,0.34,0.53,0.23,0.48,0.52,0.23,0.45,0.5,0.48,0.35,0.23,0.45,0.23" style="fill:rgb(0,0,0);font-family:Calibri;font-size:10.02px;stroke:none;">2030 are stated at 29 trillion USD translating into an yearly </text>
   <text y="129.673" x="246.59,251.39,255.89,260.87,264.35,269.15,273.889,278.869,281.149,286.43,289.43,291.709,296.509,299.99,305.209,310.49,315.77,320.99,323.27,328.37,330.83,335.93,338.21,341.571,345.051,347.33,349.611,351.89,354.171,359.45,364.671,366.95,373.37,377.989,384.109,386.389,390.948,394.425,397.421,402.521,405.036,407.261" svgx:width="0.48,0.45,0.5,0.35,0.48,0.47,0.5,0.23,0.53,0.31,0.23,0.48,0.35,0.53,0.52,0.52,0.52,0.23,0.51,0.25,0.51,0.23,0.34,0.35,0.23,0.23,0.23,0.23,0.53,0.52,0.23,0.64,0.46,0.62,0.23,0.45,0.35,0.31,0.51,0.25,0.23,0.23" style="fill:rgb(0,0,0);font-family:Calibri;font-size:10.02px;stroke:none;">average of around 1.8 trillion USD yr-1. </text>
   <text y="141.857" x="246.58" svgx:width="0.23" style="fill:rgb(0,0,0);font-family:Calibri;font-size:10.02px;stroke:none;"> </text>
   <text y="154.102" x="246.58,249.636,252.692,257.672,259.952,265.232,267.512,272.251,277.471,282.452,285.932,288.211,291.571,296.851,300.211,305.012,307.231,309.516,314.796,319.776,324.756,330.037,333.936,336.157,341.437,346.658,350.017,352.297,354.578,356.857,361.957,366.997,372.098,377.198,379.658,381.937,386.738,390.218,395.497,400.718,405.998,411.219,413.503,418.603,421.063,426.163,428.383,431.744,435.223,437.503,439.784,442.063,444.344,449.623,454.904,457.183,463.603,468.222,474.405,479.445,484.485,489.524,494.624,496.909,501.468,504.946,507.942,513.042" svgx:width="0.31,0.31,0.5,0.23,0.52,0.23,0.47,0.52,0.5,0.35,0.23,0.34,0.53,0.34,0.48,0.23,0.23,0.52,0.5,0.5,0.52,0.39,0.23,0.52,0.52,0.34,0.23,0.23,0.23,0.51,0.51,0.51,0.51,0.25,0.23,0.48,0.35,0.53,0.52,0.52,0.52,0.23,0.51,0.25,0.51,0.23,0.34,0.35,0.23,0.23,0.23,0.23,0.53,0.52,0.23,0.64,0.46,0.62,0.51,0.51,0.51,0.51,0.23,0.45,0.35,0.31,0.51,0.23" style="fill:rgb(0,0,0);font-family:Calibri;font-size:10.02px;stroke:none;">--&gt; higher total needs until 2030, around 1.8 trillion USD2015 yr-1 </text>
   <text y="166.286" x="246.58,248.859,254.14,256.42,261.7,266.981,269.261,271.541,276.821,279.041,284.321,289.061,292.961,295.245,299.986,305.205,310.485,312.765,315.046,320.326,325.547,330.827,334.727,338.088,341.568,346.068,348.347,353.148,356.628,361.608,363.827,369.108,374.087,379.067,384.348,389.269,394.549,396.829,399.109,404.39,406.599,409.959,415.24,420.22,422.444,427.544,430.059,435.156,438.212,442.833,445.288,447.571,452.19,457.47,460.95,463.174,466.534,471.814,476.794,479.014,483.874,488.794,493.414" svgx:width="0.23,0.52,0.23,0.52,0.52,0.23,0.23,0.52,0.23,0.52,0.47,0.39,0.23,0.48,0.52,0.52,0.23,0.23,0.52,0.52,0.52,0.39,0.34,0.35,0.45,0.23,0.48,0.35,0.5,0.23,0.52,0.5,0.5,0.52,0.5,0.52,0.23,0.23,0.52,0.23,0.34,0.52,0.5,0.23,0.51,0.25,0.51,0.31,0.46,0.25,0.23,0.46,0.53,0.35,0.23,0.34,0.52,0.5,0.23,0.49,0.49,0.46,0.23" style="fill:rgb(0,0,0);font-family:Calibri;font-size:10.02px;stroke:none;">in buildings and industry are needed in the 1.5-S. For the TES </text>
   <text y="178.531" x="246.57,250.829,256.11,264.09,269.37,271.645,276.444,279.805,282.08,286.58,291.56,293.78,298.7,303.56,305.78,308.055,313.335,317.835,322.815,326.713,330.072,338.052,343.032,348.313,351.673,353.952,359.233,364.152,369.132,374.412,378.31,380.589,385.81,391.089,394.449,396.729,399.004,401.288,406.328,411.429,416.469,421.568,423.788,428.588,432.065,437.045,439.329,443.227,446.587,451.387,454.747,459.727,464.947,467.227,472.027,475.387,477.607,482.647,487.747,490.031,493.391,496.868,499.143,501.423,503.698,505.978,511.258,516.538" svgx:width="0.42,0.52,0.8,0.52,0.23,0.48,0.34,0.23,0.45,0.5,0.23,0.49,0.49,0.23,0.23,0.52,0.45,0.5,0.39,0.34,0.8,0.5,0.52,0.34,0.23,0.52,0.5,0.5,0.52,0.39,0.23,0.52,0.52,0.34,0.23,0.23,0.23,0.51,0.51,0.51,0.51,0.23,0.48,0.35,0.5,0.23,0.39,0.34,0.48,0.34,0.5,0.52,0.23,0.48,0.34,0.23,0.51,0.51,0.23,0.34,0.35,0.23,0.23,0.23,0.23,0.53,0.52,0.23" style="fill:rgb(0,0,0);font-family:Calibri;font-size:10.02px;stroke:none;">cumulative EE investment needs until 2030 are stated at 29 trillion </text>
   <text y="190.715" x="246.57,252.99,257.61,263.79,268.83,273.869,278.97,284.07,286.29,289.647,293.127,297.926,303.207,307.047,309.327,314.127,317.483,319.763,325.043,329.783,332.063,334.343,339.563,342.919,348.2,350.484,355.224,360.504,362.784,367.284,372.264,377.063,380.544,382.824,387.384,389.664,394.463,398.963,403.943,407.423,412.223,416.962,421.882,424.102,429.383,432.439,434.719,439.518,442.998,448.279,453.498,458.779,464.058,466.278,471.378,473.898,478.938,481.222,484.522,488.002,490.283,492.562,494.842,497.122,502.403,507.683" svgx:width="0.64,0.46,0.62,0.51,0.51,0.51,0.51,0.23,0.34,0.35,0.48,0.52,0.39,0.23,0.48,0.34,0.23,0.52,0.47,0.23,0.23,0.52,0.34,0.53,0.23,0.48,0.52,0.23,0.45,0.5,0.48,0.35,0.23,0.45,0.23,0.48,0.45,0.5,0.35,0.48,0.47,0.5,0.23,0.53,0.31,0.23,0.48,0.35,0.53,0.52,0.52,0.52,0.23,0.51,0.25,0.51,0.23,0.34,0.35,0.23,0.23,0.23,0.23,0.53,0.52,0.23" style="fill:rgb(0,0,0);font-family:Calibri;font-size:10.02px;stroke:none;">USD2015 translating into an yearly average of around 1.7 trillion </text>
  </g>
  <g begin="text">
   <text y="202.92" x="246.6,253.02,257.639,263.821,268.861,273.902,279.002,284.102,286.326,290.885" svgx:width="0.64,0.46,0.62,0.51,0.51,0.51,0.51,0.23,0.45,0.35" style="fill:rgb(0,0,0);font-family:Calibri;font-size:10.02px;stroke:none;">USD2015 yr</text>
  </g>
  <g begin="text">
   <text y="202.92" x="294.36" svgx:width="0.31" style="fill:rgb(0,0,0);font-family:Calibri;font-size:10.02px;stroke:none;">-</text>
  </g>
  <g begin="text">
   <text y="202.92" x="297.42,302.46,304.98,307.2,312.18,316.5,320.759,323.039,328.32,333.6,335.88,341.1,345.84,348.12,351.48,354.96,359.7,364.92,368.821,374.101,379.382,382.862,386.221,391.021,394.382,396.661,401.942,407.222" svgx:width="0.51,0.25,0.23,0.5,0.43,0.42,0.23,0.52,0.52,0.23,0.52,0.47,0.23,0.34,0.35,0.48,0.52,0.39,0.52,0.53,0.35,0.34,0.48,0.34,0.23,0.53,0.52,0.25" style="fill:rgb(0,0,0);font-family:Calibri;font-size:10.02px;stroke:none;">1, excluding transportation.</text>
  </g>
  <g begin="text">
   <text y="202.92" x="409.68" svgx:width="0.23" style="fill:rgb(0,0,0);font-family:Calibri;font-size:10.02px;stroke:none;"> </text>
  </g>
  <path style="fill:rgb(0,0,0);stroke:none;stroke-width:1.0;" d="M70.860 770.580 L71.340 770.580 L71.340 771.060 L70.860 771.060 L70.860 770.580 "/>
  <path style="fill:rgb(0,0,0);stroke:none;stroke-width:1.0;" d="M70.860 770.580 L71.340 770.580 L71.340 771.060 L70.860 771.060 L70.860 770.580 "/>
  <path style="fill:rgb(0,0,0);stroke:none;stroke-width:1.0;" d="M71.340 770.580 L127.560 770.580 L127.560 771.060 L71.340 771.060 L71.340 770.580 "/>
  <path style="fill:rgb(0,0,0);stroke:none;stroke-width:1.0;" d="M127.560 770.580 L128.040 770.580 L128.040 771.060 L127.560 771.060 L127.560 770.580 "/>
  <path style="fill:rgb(0,0,0);stroke:none;stroke-width:1.0;" d="M128.040 770.580 L184.260 770.580 L184.260 771.060 L128.040 771.060 L128.040 770.580 "/>
  <path style="fill:rgb(0,0,0);stroke:none;stroke-width:1.0;" d="M184.260 770.580 L184.740 770.580 L184.740 771.060 L184.260 771.060 L184.260 770.580 "/>
  <path style="fill:rgb(0,0,0);stroke:none;stroke-width:1.0;" d="M184.740 770.580 L240.960 770.580 L240.960 771.060 L184.740 771.060 L184.740 770.580 "/>
  <path style="fill:rgb(0,0,0);stroke:none;stroke-width:1.0;" d="M240.960 770.580 L241.440 770.580 L241.440 771.060 L240.960 771.060 L240.960 770.580 "/>
  <path style="fill:rgb(0,0,0);stroke:none;stroke-width:1.0;" d="M523.980 770.580 L524.460 770.580 L524.460 771.060 L523.980 771.060 L523.980 770.580 "/>
  <path style="fill:rgb(0,0,0);stroke:none;stroke-width:1.0;" d="M523.980 770.580 L524.460 770.580 L524.460 771.060 L523.980 771.060 L523.980 770.580 "/>
  <g begin="text">
   <text y="215.58" x="76.5,81.841,87.121,91.921,97.201,100.558,105.538,108.958,111.242,116.282" svgx:width="0.53,0.52,0.48,0.52,0.34,0.5,0.35,0.23,0.51,0.51" style="fill:rgb(0,0,0);font-family:Calibri;font-size:10.02px;stroke:none;">Chapter 15</text>
  </g>
  <g begin="text">
   <text y="215.58" x="121.32" svgx:width="0.23" style="fill:rgb(0,0,0);font-family:Calibri;font-size:10.02px;stroke:none;"> </text>
  </g>
  <g begin="text">
   <text y="215.58" x="133.2,138.3" svgx:width="0.51,0.51" style="fill:rgb(0,0,0);font-family:Calibri;font-size:10.02px;stroke:none;">35</text>
  </g>
  <g begin="text">
   <text y="215.58" x="143.34" svgx:width="0.23" style="fill:rgb(0,0,0);font-family:Calibri;font-size:10.02px;stroke:none;"> </text>
  </g>
  <g begin="text">
   <text y="215.58" x="189.9,195.0" svgx:width="0.51,0.51" style="fill:rgb(0,0,0);font-family:Calibri;font-size:10.02px;stroke:none;">24</text>
  </g>
  <g begin="text">
   <text y="215.58" x="200.04" svgx:width="0.23" style="fill:rgb(0,0,0);font-family:Calibri;font-size:10.02px;stroke:none;"> </text>
  </g>
  <g begin="text">
   <text y="215.58" x="246.6,251.46,256.74,261.72,264.0,268.8,272.698,276.596,281.576,285.474,289.371,297.352,302.332,307.552,310.911,313.196,317.456,322.736,330.716,335.995,339.472,341.753,345.651,350.63,354.528,356.813,360.29,365.509,370.31,375.589,378.109,380.394,383.871,388.67,390.951,393.225,395.505,400.245,405.525,410.745" svgx:width="0.49,0.52,0.5,0.23,0.48,0.39,0.39,0.5,0.39,0.39,0.8,0.5,0.52,0.34,0.23,0.42,0.53,0.8,0.52,0.35,0.23,0.39,0.5,0.39,0.23,0.35,0.53,0.48,0.52,0.25,0.23,0.35,0.48,0.23,0.23,0.23,0.48,0.52,0.52,0.23" style="fill:rgb(0,0,0);font-family:Calibri;font-size:10.02px;stroke:none;">The assessment comprises road, rail and </text>
  </g>
  <g begin="text">
   <text y="215.58" x="413.04,417.84,420.12,423.6,428.88,434.16,437.64,440.997,444.897,448.737,454.017,459.297,462.777,466.134,470.034" svgx:width="0.48,0.23,0.35,0.52,0.53,0.35,0.34,0.39,0.39,0.52,0.53,0.35,0.34,0.39,0.23" style="fill:rgb(0,0,0);font-family:Calibri;font-size:10.02px;stroke:none;">airports/ports </text>
  </g>
  <g begin="text">
   <text y="227.82" x="246.6,248.88,254.16,257.22,260.7,265.5,269.401,272.76,276.24,281.521,285.779,289.079,294.359,297.839,302.819,305.039,312.179,314.459,317.819,323.1,325.379,330.659,335.939,338.219,342.719,345.003,348.483,353.283,355.563,357.843,360.128,362.407,367.688,370.748,374.228,379.027,382.927,386.288,389.768,395.048,399.249,402.608,407.889,411.369,416.349,418.568,423.789,428.769,431.048,436.329,441.068,443.289,447.547,452.828,458.108,462.009,464.289,469.569,474.549,478.029,482.949,488.229,490.514,492.793,498.074,500.354,505.574,510.854,514.334" svgx:width="0.23,0.52,0.31,0.35,0.48,0.39,0.34,0.35,0.52,0.42,0.34,0.52,0.35,0.5,0.23,0.71,0.23,0.34,0.52,0.23,0.53,0.52,0.23,0.45,0.23,0.35,0.48,0.23,0.23,0.23,0.23,0.52,0.31,0.35,0.48,0.39,0.34,0.35,0.52,0.42,0.34,0.52,0.35,0.5,0.23,0.52,0.5,0.23,0.52,0.47,0.23,0.42,0.53,0.52,0.39,0.23,0.52,0.5,0.35,0.5,0.52,0.23,0.23,0.52,0.23,0.53,0.52,0.35,0.23" style="fill:rgb(0,0,0);font-family:Calibri;font-size:10.02px;stroke:none;">infrastructure with only rail infrastructure being considered in our </text>
   <text y="240.004" x="246.6,251.4,256.68,261.48,263.76,268.32,272.22,274.5,278.401,280.68,285.48,293.461,298.741,303.961,309.241,312.598,314.878,320.158,324.838,327.118,330.474,335.755,337.975,343.075,345.595,350.635,352.919,356.276,359.756,362.036,364.316,366.597,368.876,374.157,379.437,381.717,388.138,392.757,398.877,401.161,406.442,411.662,413.942,418.742,423.243,428.223,431.703,436.502,441.243,446.223,448.442,453.723,459.002,462.359,464.639,466.919,469.139,474.239,479.28,484.32,489.419,491.939,494.223,500.824,506.103,508.388,513.127" svgx:width="0.48,0.52,0.48,0.23,0.45,0.39,0.23,0.39,0.23,0.48,0.8,0.53,0.52,0.52,0.34,0.23,0.52,0.47,0.23,0.34,0.53,0.23,0.51,0.25,0.51,0.23,0.34,0.35,0.23,0.23,0.23,0.23,0.53,0.52,0.23,0.64,0.46,0.62,0.23,0.53,0.52,0.23,0.48,0.45,0.5,0.35,0.48,0.47,0.5,0.23,0.52,0.52,0.34,0.23,0.23,0.23,0.51,0.51,0.51,0.51,0.25,0.23,0.66,0.52,0.23,0.48,0.23" style="fill:rgb(0,0,0);font-family:Calibri;font-size:10.02px;stroke:none;">analysis amounting to 0.4 trillion USD on average until 2030. On a </text>
   <text y="252.249" x="246.6,250.08,255.06,259.799,262.079,267.359,272.64,277.441,279.72,282.005,284.284,289.264,293.764,298.744,301.025,303.544,305.764,308.82,315.48,319.8,322.86,328.14,331.561,336.841,339.126,343.985,348.244,353.464,358.745,363.964,371.944,374.225,378.483,382.383,384.667,389.768,394.808,399.908,404.948,408.004,410.289,414.188,419.409,424.628,431.768,435.668,438.188,440.473,443.833,449.113,453.914,457.213,459.498,464.297,469.518,474.798,480.079,484.818,487.099" svgx:width="0.35,0.5,0.47,0.23,0.53,0.52,0.48,0.23,0.23,0.23,0.5,0.45,0.5,0.23,0.25,0.23,0.3,0.66,0.43,0.31,0.53,0.35,0.52,0.23,0.49,0.42,0.53,0.52,0.53,0.8,0.23,0.42,0.39,0.23,0.51,0.51,0.51,0.51,0.3,0.23,0.39,0.52,0.53,0.71,0.39,0.25,0.23,0.34,0.52,0.48,0.34,0.23,0.48,0.52,0.52,0.52,0.48,0.23,0.23" style="fill:rgb(0,0,0);font-family:Calibri;font-size:10.02px;stroke:none;">regional level, (Oxford Economics 2017) shows, that annual </text>
   <text y="264.433" x="246.6,248.88,254.16,257.22,260.7,265.5,269.401,272.76,276.24,281.521,285.779,289.079,294.359,297.839,302.819,305.099,307.319,312.6,317.099,322.08,325.979,329.339,337.319,342.299,347.58,350.939,354.839,357.124,362.404,367.324,370.685,377.824,382.805,387.785,393.065,395.345,400.385,405.425,410.525,415.626,417.846,422.646,427.866,433.146,435.431,440.471,445.571,450.611,455.712,457.996,462.496,467.296,470.715,475.275,477.559,484.698,486.919,492.199,497.18,499.46,504.019,506.539" svgx:width="0.23,0.52,0.31,0.35,0.48,0.39,0.34,0.35,0.52,0.42,0.34,0.52,0.35,0.5,0.23,0.23,0.52,0.45,0.5,0.39,0.34,0.8,0.5,0.52,0.34,0.39,0.23,0.52,0.5,0.34,0.71,0.5,0.5,0.52,0.23,0.51,0.51,0.51,0.51,0.23,0.48,0.52,0.52,0.23,0.51,0.51,0.51,0.51,0.23,0.45,0.48,0.35,0.45,0.23,0.71,0.23,0.52,0.5,0.23,0.45,0.25,0.23" style="fill:rgb(0,0,0);font-family:Calibri;font-size:10.02px;stroke:none;">infrastructure investments between 2016 and 2040 vary widely. </text>
   <text y="276.678" x="246.6,251.22,256.501,259.981,262.265,267.065,269.345,271.625,273.904,278.704,283.204,288.004,290.284,292.564,297.363,302.643,304.863,309.843,312.123,316.383,321.664,326.884,332.164,335.521,339.001,341.281,346.261,350.161,352.445,355.445,360.725,365.645,370.745,375.785,378.845,381.13,386.11,390.009,393.366,395.647,403.626,408.426,411.783,416.764,420.663,422.883,427.143,432.424,437.644,442.924,446.281,450.18,452.46,456.72,459.0,464.28,468.18,473.16,475.38,478.736,483.956,486.24,491.34,493.861,498.901" svgx:width="0.46,0.53,0.35,0.23,0.48,0.23,0.23,0.23,0.48,0.45,0.48,0.23,0.23,0.48,0.52,0.23,0.5,0.23,0.42,0.53,0.52,0.52,0.34,0.35,0.23,0.5,0.39,0.23,0.3,0.52,0.5,0.51,0.51,0.3,0.23,0.5,0.39,0.34,0.23,0.8,0.48,0.34,0.5,0.39,0.23,0.42,0.53,0.52,0.52,0.34,0.39,0.23,0.42,0.23,0.53,0.39,0.5,0.23,0.34,0.53,0.23,0.51,0.25,0.51,0.23" style="fill:rgb(0,0,0);font-family:Calibri;font-size:10.02px;stroke:none;">For all available countries (n=50) estimates counts close to 0.4 </text>
   <text y="288.862" x="246.6,249.96,253.437,255.717,257.992,260.272,262.547,267.826,273.107,275.386,281.807,286.426,292.607,295.067,297.351,299.626,304.846,309.106,311.38,316.661,321.94,324.221,329.44,334.181,336.4,341.5,344.02,349.06,351.345,354.705,358.182,360.456,362.737,365.011,367.292,372.571,377.852,380.131,386.551,391.111,397.292,399.571,402.631,407.912,411.389,413.608,418.948,424.168,426.449,431.728,436.528,439.048,441.332,446.792,451.592,455.49,460.47,465.689,467.974,473.253,478.474,480.753,485.493,489.993,494.793,497.074,499.348,504.148,509.428,511.703,516.683" svgx:width="0.34,0.35,0.23,0.23,0.23,0.23,0.53,0.52,0.23,0.64,0.46,0.62,0.25,0.23,0.23,0.52,0.42,0.23,0.52,0.52,0.23,0.52,0.47,0.23,0.51,0.25,0.51,0.23,0.34,0.35,0.23,0.23,0.23,0.23,0.53,0.52,0.23,0.64,0.46,0.62,0.23,0.31,0.53,0.35,0.23,0.53,0.52,0.23,0.52,0.48,0.25,0.23,0.54,0.48,0.39,0.5,0.52,0.23,0.53,0.52,0.23,0.48,0.45,0.48,0.23,0.23,0.48,0.52,0.23,0.5,0.23" style="fill:rgb(0,0,0);font-family:Calibri;font-size:10.02px;stroke:none;">trillion USD, including 0.2 trillion USD for China. Based on available </text>
   <text y="301.106" x="246.6,251.881,256.68,260.037,264.836,267.116,270.116,275.396,278.876,281.156,286.196,288.476,294.296,297.352,300.832,303.112,307.312,312.112,317.392,319.672,323.872,329.153,334.433,339.653,343.009,346.489,348.769,353.749,357.649,360.169,362.453,364.673,369.953,374.453,379.433,383.333,386.69,394.671,399.65,404.93,408.287,412.188,414.467,416.748,422.027,424.248,427.728,432.527,434.807,437.087,439.367,441.647,446.927,449.983,453.463,458.262,462.162,465.519,468.999,474.279,478.539,481.84,487.119,490.599,495.579" svgx:width="0.52,0.48,0.34,0.48,0.23,0.31,0.53,0.35,0.23,0.51,0.23,0.58,0.31,0.35,0.23,0.42,0.48,0.52,0.23,0.42,0.53,0.52,0.52,0.34,0.35,0.23,0.5,0.39,0.25,0.23,0.23,0.52,0.45,0.5,0.39,0.34,0.8,0.5,0.52,0.34,0.39,0.23,0.23,0.52,0.23,0.35,0.48,0.23,0.23,0.23,0.23,0.52,0.31,0.35,0.48,0.39,0.34,0.35,0.52,0.42,0.34,0.52,0.35,0.5,0.23" style="fill:rgb(0,0,0);font-family:Calibri;font-size:10.02px;stroke:none;">data for 9 African countries, investments in rail infrastructure </text>
   <text y="313.291" x="246.6,250.08,254.88,260.16,264.9,269.88,272.1,275.16,278.64,283.921,291.9,294.18,299.28,301.74,306.78,309.065,314.345,316.626,318.905,321.185,323.465,328.745,334.025,336.305,342.726,347.285,353.467,355.747,358.027,363.308,365.528,370.148,375.128,380.408,385.328,390.067,394.867,397.147,399.427,402.782,408.061,410.286,415.386,417.906,422.946,425.165,430.446,432.72,435.001,437.276,439.55,444.831,450.11,452.391,458.811,463.431,469.55,471.831,474.105,479.386,481.605,488.085,490.365,495.105,500.085,503.562,505.842,510.642,513.162" svgx:width="0.35,0.48,0.52,0.47,0.5,0.23,0.31,0.35,0.53,0.8,0.23,0.51,0.25,0.51,0.23,0.52,0.23,0.23,0.23,0.23,0.53,0.52,0.23,0.64,0.46,0.62,0.23,0.23,0.52,0.23,0.46,0.5,0.52,0.5,0.47,0.48,0.23,0.23,0.34,0.53,0.23,0.51,0.25,0.51,0.23,0.52,0.23,0.23,0.23,0.23,0.53,0.52,0.23,0.64,0.46,0.62,0.23,0.23,0.52,0.23,0.65,0.23,0.47,0.5,0.35,0.23,0.48,0.25,0.23" style="fill:rgb(0,0,0);font-family:Calibri;font-size:10.02px;stroke:none;">range from 0.1 billion USD in Senegal to 1.6 billion USD in Nigeria. </text>
   <text y="325.535" x="246.6,249.656,256.316,260.216,265.016,272.996,277.796,280.016,284.996,288.356,290.636,295.436,297.716,300.236,302.456,307.497,312.597,317.636,322.736,325.792,328.012,333.293,335.574,340.253,345.533,347.813,350.094,354.833,360.114,363.473,367.313,369.598,374.397,376.682,381.782,384.242,389.342,391.561,396.842,399.121,401.401,403.681,405.961,411.242,416.522,418.807,425.166,429.786,435.968,438.247,441.308,443.528,448.809,453.608,458.829,463.087,465.367,470.647,475.327,477.607,482.287,487.088,492.368,494.653,497.712,502.993,506.473" svgx:width="0.3,0.66,0.39,0.48,0.8,0.48,0.23,0.5,0.34,0.23,0.48,0.23,0.25,0.23,0.51,0.51,0.51,0.51,0.3,0.23,0.52,0.23,0.47,0.52,0.23,0.23,0.47,0.52,0.34,0.39,0.23,0.48,0.23,0.51,0.25,0.51,0.23,0.52,0.23,0.23,0.23,0.23,0.53,0.52,0.23,0.64,0.46,0.62,0.23,0.31,0.23,0.52,0.48,0.52,0.42,0.23,0.52,0.47,0.23,0.47,0.48,0.52,0.23,0.31,0.53,0.35,0.23" style="fill:rgb(0,0,0);font-family:Calibri;font-size:10.02px;stroke:none;">(Osama et al. 2021) highlights a 4.7 billion USD financing gap for </text>
   <text y="337.719" x="246.6,252.42,255.476,258.956,261.236,265.496,270.295,275.515,277.799,282.059,287.279,292.559,297.779,301.136,304.616,306.896,311.876,315.776,318.056,320.336,325.616,327.9,331.257,336.538,341.457,343.737,347.094,350.575,355.374,360.654,364.494,369.774,375.054,378.534,381.891,384.171,388.071,393.051,397.251,400.607,405.888,409.368,411.888,414.173,416.693,421.912,424.132,428.332,433.131,436.488,438.768,444.048,446.328,452.148,460.128,465.108,468.588,470.868,475.068,479.868,482.147,485.447,490.727,495.707" svgx:width="0.58,0.31,0.35,0.23,0.42,0.48,0.52,0.23,0.42,0.53,0.52,0.52,0.34,0.35,0.23,0.5,0.39,0.23,0.23,0.52,0.23,0.34,0.52,0.5,0.23,0.34,0.35,0.48,0.52,0.39,0.52,0.53,0.35,0.34,0.23,0.39,0.5,0.42,0.34,0.53,0.35,0.25,0.23,0.25,0.52,0.23,0.42,0.48,0.34,0.23,0.52,0.23,0.58,0.8,0.5,0.35,0.23,0.42,0.48,0.23,0.34,0.52,0.5,0.23" style="fill:rgb(0,0,0);font-family:Calibri;font-size:10.02px;stroke:none;">African countries in the transport sector. In Latin America the </text>
   <text y="349.904" x="246.6,250.077,255.057,260.337,265.617,269.094,272.454,274.738,277.013,282.293,287.213,292.493,295.853,298.128,301.188,303.462,308.442,312.34,314.62,320.08,323.556,328.357,332.317,334.592,336.872,339.152,343.951,347.849,350.129,353.189,356.666,361.885,367.165,370.525,374.002,379.283,384.502,389.783,394.762,398.239,400.519,405.799,408.799,411.079,414.556,419.476,424.756,430.036,432.316,435.793,440.773,446.053,448.337,451.814,456.614,458.894,461.169,463.453,465.728,471.008,475.509,480.428,484.326,487.686,495.666,500.646,505.926,509.286,513.184" svgx:width="0.35,0.5,0.52,0.53,0.35,0.34,0.23,0.23,0.52,0.5,0.52,0.34,0.23,0.31,0.23,0.5,0.39,0.23,0.54,0.35,0.48,0.4,0.23,0.23,0.23,0.48,0.39,0.23,0.31,0.35,0.53,0.52,0.34,0.35,0.52,0.52,0.52,0.5,0.35,0.23,0.53,0.31,0.23,0.35,0.5,0.52,0.52,0.23,0.35,0.5,0.52,0.23,0.35,0.48,0.23,0.23,0.23,0.23,0.52,0.45,0.5,0.39,0.34,0.8,0.5,0.52,0.34,0.39,0.23" style="fill:rgb(0,0,0);font-family:Calibri;font-size:10.02px;stroke:none;">report identifies Brazil as frontrunner of required rail investments </text>
   <text y="362.148" x="246.6,253.744,256.019,259.38,264.659,266.939,272.039,274.499,279.599,281.883,287.163,289.437,291.718,293.993,296.273,301.553,306.773,309.053,315.472,320.093,326.213,328.733,331.012,334.073,339.353,341.628,343.924,349.204,356.348,361.328,366.548,368.828,374.108,378.608,380.888,386.048,391.028,394.505,399.785,402.069,409.213,411.488,414.788,420.068,422.348,427.388,429.908,435.008,437.292,442.572,444.846,447.127,449.402,451.682,456.962,462.242,464.522,470.881,475.502,481.682,484.202,486.421,491.281,496.561,499.92,504.721,506.996,509.276,513.835,516.356" svgx:width="0.71,0.23,0.34,0.52,0.23,0.51,0.25,0.51,0.23,0.52,0.23,0.23,0.23,0.23,0.53,0.52,0.23,0.64,0.46,0.62,0.25,0.23,0.31,0.53,0.23,0.23,0.53,0.71,0.5,0.52,0.23,0.52,0.45,0.23,0.52,0.5,0.35,0.52,0.23,0.71,0.23,0.34,0.52,0.23,0.51,0.25,0.51,0.23,0.52,0.23,0.23,0.23,0.23,0.53,0.52,0.23,0.64,0.46,0.62,0.25,0.23,0.49,0.53,0.34,0.48,0.23,0.23,0.45,0.25,0.23" style="fill:rgb(0,0,0);font-family:Calibri;font-size:10.02px;stroke:none;">with 8.3 billion USD, followed by Peru with 2.3 billion USD. Totally, </text>
   <text y="374.333" x="246.6,251.881,256.86,261.36,266.34,268.62,273.9,279.181,284.161,289.441,291.661,295.919,301.139,306.359,311.64,315.001,318.48,320.76,325.74,329.64,331.924,339.904,345.184,350.464,355.685,359.044,361.324,366.544,371.284,373.568,378.788,384.068,386.348,389.709,394.928,397.213,402.253,407.353,412.393,414.672,419.953,422.234,424.513,426.794,429.073,434.354,439.634,441.919,448.339,452.899,459.081,461.361,465.92,469.385,472.381,477.481,479.7,482.756,487.977,492.957,498.057,503.157,505.617" svgx:width="0.52,0.5,0.45,0.5,0.23,0.53,0.52,0.5,0.52,0.23,0.42,0.53,0.52,0.52,0.34,0.35,0.23,0.5,0.39,0.23,0.8,0.53,0.52,0.52,0.34,0.23,0.52,0.47,0.23,0.52,0.52,0.23,0.34,0.53,0.23,0.51,0.51,0.51,0.23,0.52,0.23,0.23,0.23,0.23,0.53,0.52,0.23,0.64,0.46,0.62,0.23,0.45,0.35,0.31,0.51,0.23,0.3,0.52,0.5,0.51,0.51,0.25,0.23" style="fill:rgb(0,0,0);font-family:Calibri;font-size:10.02px;stroke:none;">developed countries mounting up to 117 billion USD yr-1 (n=14, </text>
   <text y="386.577" x="246.6,254.58,259.56,264.36,269.641,274.621,279.721,282.181,287.281,292.321,297.602,302.882,305.102,311.523,316.142,322.324,325.324,327.609,330.669,335.948,339.428,341.708,345.188,349.988,352.268,354.548,356.828,359.108,364.328,367.388,370.868,375.669,379.568,382.928,386.408,391.689,395.947,399.248,404.528,408.008,412.988,415.273,418.273,423.492,428.773,434.053,436.334,441.553,446.293,448.572,453.853,458.772,463.752,469.033,472.933,475.393" svgx:width="0.8,0.5,0.48,0.52,0.5,0.51,0.25,0.51,0.51,0.52,0.52,0.23,0.64,0.46,0.62,0.3,0.23,0.31,0.53,0.35,0.23,0.35,0.48,0.23,0.23,0.23,0.23,0.52,0.31,0.35,0.48,0.39,0.34,0.35,0.52,0.42,0.34,0.52,0.35,0.5,0.23,0.31,0.52,0.52,0.52,0.23,0.52,0.47,0.23,0.52,0.5,0.5,0.52,0.39,0.25,0.23" style="fill:rgb(0,0,0);font-family:Calibri;font-size:10.02px;stroke:none;">mean=8.35bn USD) for rail infrastructure funding needs, </text>
   <text y="398.761" x="246.6,250.5,255.78,260.039,264.297,269.277,274.197,279.478,284.458,289.677,291.962,297.181,301.74,303.961,309.241,314.221,318.721,323.701,325.981,331.261,336.542,338.821,344.102,348.781,351.066,355.324,360.544,365.825,371.106,374.465,377.945,380.226,385.206,389.105,391.385,394.441,399.421,403.682,407.94,410.221,412.741,415.02,419.16,425.343,430.682,434.582,437.638,439.923,447.062,449.343,452.702,457.923,460.202,465.242,470.343,472.563,477.844,480.123,482.404,484.683,486.964,492.243,497.524,499.803,506.223,510.842,517.025" svgx:width="0.39,0.52,0.42,0.42,0.5,0.5,0.52,0.5,0.52,0.23,0.52,0.45,0.23,0.52,0.5,0.45,0.5,0.23,0.53,0.52,0.23,0.52,0.47,0.23,0.42,0.53,0.52,0.52,0.34,0.35,0.23,0.5,0.39,0.23,0.3,0.5,0.43,0.42,0.23,0.25,0.23,0.42,0.62,0.53,0.39,0.3,0.23,0.71,0.23,0.34,0.52,0.23,0.51,0.51,0.23,0.52,0.23,0.23,0.23,0.23,0.53,0.52,0.23,0.64,0.46,0.62,0.23" style="fill:rgb(0,0,0);font-family:Calibri;font-size:10.02px;stroke:none;">succeeded by developing countries (excl. LDCs) with 26 billion USD </text>
   <text y="411.006" x="246.6,251.159,254.636,257.692,262.792,265.012,268.068,273.348,278.268,283.368,288.408,290.928,293.208,301.188,306.108,310.908,316.189,321.169,326.269,328.729,333.829,338.869,344.15,349.43,351.71,358.071,362.632,368.814,371.334,373.613,378.593,382.854,387.112,389.393,394.674,399.954,402.234,407.454,412.194,414.478,419.758,425.038,427.318,432.598,437.398,440.454,442.914,445.136" svgx:width="0.45,0.35,0.31,0.51,0.23,0.3,0.52,0.5,0.51,0.51,0.25,0.23,0.8,0.5,0.48,0.52,0.5,0.51,0.25,0.51,0.51,0.52,0.52,0.23,0.64,0.46,0.62,0.25,0.23,0.5,0.43,0.42,0.23,0.52,0.52,0.23,0.52,0.47,0.23,0.53,0.52,0.23,0.52,0.48,0.3,0.25,0.23,0.23" style="fill:rgb(0,0,0);font-family:Calibri;font-size:10.02px;stroke:none;">yr-1 (n=28, mean=0.93bn USD, excluding China). </text>
   <text y="423.19" x="246.6" svgx:width="0.23" style="fill:rgb(0,0,0);font-family:Calibri;font-size:10.02px;stroke:none;"> </text>
   <text y="435.435" x="246.6,249.656,252.712,257.692,259.972,264.831,270.111,275.091,277.375,282.175,286.073,289.97,294.95,298.848,302.746,310.726,315.706,320.986,324.346,326.626,330.826,336.105,344.085,349.366,352.843,355.117,359.015,363.996,367.894,370.173,373.65,378.931,383.73,389.011,391.531,393.81,397.23,402.031,404.305,406.58,408.865,413.664,418.945,424.164,426.449,431.248,433.529,437.006,442.285,447.566,451.043,454.402,458.3,462.14,467.42,472.7,476.177,479.537,483.377" svgx:width="0.31,0.31,0.5,0.23,0.49,0.52,0.5,0.23,0.48,0.39,0.39,0.5,0.39,0.39,0.8,0.5,0.52,0.34,0.23,0.42,0.53,0.8,0.52,0.35,0.23,0.39,0.5,0.39,0.23,0.35,0.53,0.48,0.52,0.25,0.23,0.35,0.48,0.23,0.23,0.23,0.48,0.52,0.52,0.23,0.48,0.23,0.35,0.52,0.53,0.35,0.34,0.39,0.39,0.52,0.53,0.35,0.34,0.39,0.23" style="fill:rgb(0,0,0);font-family:Calibri;font-size:10.02px;stroke:none;">--&gt; The assessment comprises road, rail and airports/ports </text>
   <text y="447.619" x="246.6,248.88,254.16,257.22,260.7,265.5,269.4,272.76,276.24,281.521,285.779,289.079,294.359,297.839,302.819,305.04,312.179,314.459,317.819,323.1,325.379,330.659,335.939,338.22,342.719,345.003,348.483,353.283,355.563,357.843,360.128,362.407,367.688,370.748,374.228,379.027,382.927,386.288,389.768,395.048,399.249,402.608,407.889,411.369,416.349,418.568,423.789,428.769,431.048,436.329,441.068,443.289,447.547,452.827,458.107,462.007,464.286,469.567,474.547,478.027,482.947,488.227,490.512,492.791,498.072,500.351,503.652,508.933,511.213,515.113" svgx:width="0.23,0.52,0.31,0.35,0.48,0.39,0.34,0.35,0.52,0.42,0.34,0.52,0.35,0.5,0.23,0.71,0.23,0.34,0.52,0.23,0.53,0.52,0.23,0.45,0.23,0.35,0.48,0.23,0.23,0.23,0.23,0.52,0.31,0.35,0.48,0.39,0.34,0.35,0.52,0.42,0.34,0.52,0.35,0.5,0.23,0.52,0.5,0.23,0.52,0.47,0.23,0.42,0.53,0.52,0.39,0.23,0.52,0.5,0.35,0.5,0.52,0.23,0.23,0.52,0.23,0.34,0.52,0.23,0.39,0.23" style="fill:rgb(0,0,0);font-family:Calibri;font-size:10.02px;stroke:none;">infrastructure with only rail infrastructure being considered in this </text>
   <text y="459.803" x="246.6,251.4,256.68,261.48,263.76,268.32,272.218,274.493,278.39,280.91,283.195,289.795,295.075,297.359,302.099,304.383,307.803,312.783,317.522,319.803,325.082,330.363,335.163,337.443,339.723,341.997,346.977,351.478,356.458,358.733,360.953,367.552,371.871,374.931,380.21,383.687,388.968,391.247,396.107,400.368,405.647,410.868,416.147,424.127,426.408,430.667,434.565,436.849,439.849,444.95,449.99,455.089,460.129,463.189,465.473,469.371,474.651,479.931,487.011,490.909,493.429,495.709,499.069,504.349,509.089,512.449" svgx:width="0.48,0.52,0.48,0.23,0.45,0.39,0.23,0.39,0.25,0.23,0.66,0.52,0.23,0.48,0.23,0.35,0.5,0.47,0.23,0.53,0.52,0.48,0.23,0.23,0.23,0.5,0.45,0.5,0.23,0.23,0.66,0.43,0.31,0.53,0.35,0.52,0.23,0.49,0.42,0.53,0.52,0.53,0.8,0.23,0.42,0.39,0.23,0.3,0.51,0.51,0.51,0.51,0.3,0.23,0.39,0.52,0.53,0.71,0.39,0.25,0.23,0.34,0.52,0.48,0.34,0.23" style="fill:rgb(0,0,0);font-family:Calibri;font-size:10.02px;stroke:none;">analysis. On a regional level Oxford Economics (2017) shows, that </text>
   <text y="472.048" x="246.6,251.4,256.68,261.961,267.181,271.982,274.261,276.541,278.821,284.102,287.162,290.642,295.442,299.342,302.702,306.122,311.402,315.661,318.961,324.242,327.722,332.702,334.986,337.266,342.547,347.046,352.026,355.926,359.286,367.207,372.187,377.467,380.828,384.728,387.007,389.288,394.568,396.853,400.317,405.116,407.397,409.676,411.897,417.177,422.158,425.458,432.598,437.578,442.558,447.839,450.123,455.163,460.263,465.302,470.403,472.687,477.427,482.647,487.928,490.212,495.252,500.352,505.393,510.493" svgx:width="0.48,0.52,0.52,0.52,0.48,0.23,0.23,0.23,0.52,0.31,0.35,0.48,0.39,0.34,0.35,0.52,0.42,0.34,0.52,0.35,0.5,0.23,0.23,0.52,0.45,0.5,0.39,0.34,0.8,0.5,0.52,0.34,0.39,0.23,0.23,0.52,0.23,0.35,0.48,0.23,0.23,0.23,0.52,0.5,0.34,0.71,0.5,0.5,0.52,0.23,0.51,0.51,0.51,0.51,0.23,0.48,0.52,0.52,0.23,0.51,0.51,0.51,0.51,0.23" style="fill:rgb(0,0,0);font-family:Calibri;font-size:10.02px;stroke:none;">annual infrastructure investments in rail between 2016 and 2040 </text>
   <text y="484.232" x="246.6,251.1,255.9,259.376,263.936,266.22,273.364,275.639,280.918,285.898,288.179,292.739,295.259,297.478,302.099,307.319,310.796,313.076,317.876,320.151,322.431,324.711,329.51,334.01,338.811,341.085,343.366,348.166,353.446,355.721,360.701,362.985,367.184,372.464,377.745,383.024,386.385,389.862,392.136,397.116,401.014,403.293,406.293,411.573,416.553,421.593,426.633,429.693,431.978,436.958,440.855,444.215,446.496,454.476,459.275,462.635,467.615,471.513,473.732,477.992,483.212,488.492,493.772,497.132,501.029" svgx:width="0.45,0.48,0.35,0.45,0.23,0.71,0.23,0.52,0.5,0.23,0.45,0.25,0.23,0.46,0.53,0.35,0.23,0.48,0.23,0.23,0.23,0.48,0.45,0.48,0.23,0.23,0.48,0.52,0.23,0.5,0.23,0.42,0.53,0.52,0.52,0.34,0.35,0.23,0.5,0.39,0.23,0.3,0.52,0.5,0.51,0.51,0.3,0.23,0.5,0.39,0.34,0.23,0.8,0.48,0.34,0.5,0.39,0.23,0.42,0.53,0.52,0.52,0.34,0.39,0.23" style="fill:rgb(0,0,0);font-family:Calibri;font-size:10.02px;stroke:none;">vary widely. For all available countries (n=50) estimates counts </text>
   <text y="496.476" x="246.6,250.858,253.139,258.419,262.319,267.299,269.579,272.94,278.219,280.439,285.54,288.06,293.1,295.384,298.744,302.224,304.504,306.784,309.065,311.344,316.625,321.905,324.185,330.606,335.225,341.345,346.445,351.485,356.585,361.625,363.845,368.404,371.88,374.936,380.036,382.496,384.776,387.056,392.337,396.595,398.815,404.095,409.376,411.656,416.876,421.615,423.835,428.935,433.975,439.075,441.36,446.64,448.921,451.2,453.48,455.76,461.04,466.321,468.6,474.961,479.52,485.702,490.742,495.842,500.883,505.983" svgx:width="0.42,0.23,0.53,0.39,0.5,0.23,0.34,0.53,0.23,0.51,0.25,0.51,0.23,0.34,0.35,0.23,0.23,0.23,0.23,0.53,0.52,0.23,0.64,0.46,0.62,0.51,0.51,0.51,0.51,0.23,0.45,0.35,0.31,0.51,0.25,0.23,0.23,0.52,0.42,0.23,0.52,0.52,0.23,0.52,0.47,0.23,0.51,0.51,0.51,0.23,0.52,0.23,0.23,0.23,0.23,0.53,0.52,0.23,0.64,0.46,0.62,0.51,0.51,0.51,0.51,0.23" style="fill:rgb(0,0,0);font-family:Calibri;font-size:10.02px;stroke:none;">close to 0.4 trillion USD2015 yr-1, including 217 billion USD2015 </text>
   <text y="508.661" x="246.6,251.159,254.636,257.692,262.792,265.072,268.072,273.352,276.832,279.112,284.452,289.732,291.952,297.232,302.032,304.551,306.771,312.231,317.031,320.931,325.911,331.191,333.475,338.695,343.975,346.255,351.054,355.554,360.354,362.635,364.854,369.654,374.933,377.214,382.194,384.473,389.753,394.493,397.85,402.65,404.929,407.985,413.266,416.686,418.965,424.185,426.465,431.746,436.726,439.005,444.825,447.881,451.361,453.641,457.842,462.641,467.921,470.141,474.402,479.682,484.903,490.182,493.539,497.019,499.299,504.279,508.179,510.699" svgx:width="0.45,0.35,0.31,0.51,0.23,0.31,0.53,0.35,0.23,0.53,0.52,0.23,0.52,0.48,0.25,0.23,0.54,0.48,0.39,0.5,0.52,0.23,0.53,0.52,0.23,0.48,0.45,0.48,0.23,0.23,0.48,0.52,0.23,0.5,0.23,0.52,0.48,0.34,0.48,0.23,0.31,0.53,0.35,0.23,0.52,0.23,0.52,0.5,0.23,0.58,0.31,0.35,0.23,0.42,0.48,0.52,0.23,0.42,0.53,0.52,0.52,0.34,0.35,0.23,0.5,0.39,0.25,0.23" style="fill:rgb(0,0,0);font-family:Calibri;font-size:10.02px;stroke:none;">yr-1 for China. Based on available data for nine African countries, </text>
   <text y="520.905" x="246.59,248.864,254.145,258.645,263.625,267.523,270.882,278.862,283.843,289.123,292.482,296.38,298.66,300.934,306.155,308.434,311.911,316.712,318.986,321.267,323.546,325.821,331.101,334.162,337.638,342.438,346.336,349.696,353.172,358.452,362.652,365.988,371.269,374.749,379.729,382.008,385.488,390.289,395.508,400.248,405.228,407.507,410.567,414.047,419.328,427.248,429.527,434.627,437.147,442.187,444.472,449.752,452.033,454.313,456.592,458.873,464.152,469.433,471.712,478.133,482.692,488.875,493.915,499.015,504.055,509.155" svgx:width="0.23,0.52,0.45,0.5,0.39,0.34,0.8,0.5,0.52,0.34,0.39,0.23,0.23,0.52,0.23,0.35,0.48,0.23,0.23,0.23,0.23,0.52,0.31,0.35,0.48,0.39,0.34,0.35,0.52,0.42,0.34,0.52,0.35,0.5,0.23,0.35,0.48,0.52,0.47,0.5,0.23,0.31,0.35,0.53,0.8,0.23,0.51,0.25,0.51,0.23,0.52,0.23,0.23,0.23,0.23,0.53,0.52,0.23,0.64,0.46,0.62,0.51,0.51,0.51,0.51,0.23" style="fill:rgb(0,0,0);font-family:Calibri;font-size:10.02px;stroke:none;">investments in rail infrastructure range from 0.1 billion USD2015 </text>
   <text y="533.089" x="246.59,251.149,254.626,257.682,262.782,265.062,267.342,272.562,274.846,279.466,284.385,289.666,294.646,299.326,304.126,306.406,308.686,312.047,317.326,319.611,324.711,327.171,332.271,334.491,339.772,342.052,344.332,346.613,348.892,354.173,359.453,361.674,368.093,372.713,378.895,383.935,388.975,394.075,399.175,401.396,405.955,409.425,412.481,417.521,419.801,422.081,427.361,429.645,436.125,438.4,443.08,448.06,451.537,453.811,458.612,461.132,463.412,470.072,473.97,478.71,486.69,491.49,493.774,498.754,502.114,504.393,509.194,511.469,513.989" svgx:width="0.45,0.35,0.31,0.51,0.23,0.23,0.52,0.23,0.46,0.5,0.52,0.5,0.47,0.48,0.23,0.23,0.34,0.53,0.23,0.51,0.25,0.51,0.23,0.52,0.23,0.23,0.23,0.23,0.53,0.52,0.23,0.64,0.46,0.62,0.51,0.51,0.51,0.51,0.23,0.45,0.35,0.31,0.51,0.23,0.23,0.52,0.23,0.65,0.23,0.47,0.5,0.35,0.23,0.48,0.25,0.23,0.66,0.39,0.48,0.8,0.48,0.23,0.5,0.34,0.23,0.48,0.23,0.25,0.23" style="fill:rgb(0,0,0);font-family:Calibri;font-size:10.02px;stroke:none;">yr-1 in Senegal to 1.6 billion USD2015 yr-1 in Nigeria. Osama et al. </text>
   <text y="545.334" x="246.58,249.636,254.676,259.776,264.816,269.917,272.973,275.197,280.478,282.758,287.438,292.719,294.999,297.279,302.019,307.239,310.599,314.5,316.779,321.579,323.859,328.959,331.419,336.519,338.739,344.019,346.299,348.578,350.859,353.139,358.419,363.7,365.98,372.4,377.019,383.202,385.482,388.542,390.762,396.042,400.842,406.062,410.321,412.601,417.882,422.562,424.787,429.526,434.326,439.606,441.831,444.891,450.17,453.65,455.875,461.696,464.756,468.236,470.516,474.774,479.574,484.794" svgx:width="0.3,0.51,0.51,0.51,0.51,0.3,0.23,0.52,0.23,0.47,0.52,0.23,0.23,0.47,0.52,0.34,0.39,0.23,0.48,0.23,0.51,0.25,0.51,0.23,0.52,0.23,0.23,0.23,0.23,0.53,0.52,0.23,0.64,0.46,0.62,0.23,0.31,0.23,0.52,0.48,0.52,0.42,0.23,0.52,0.47,0.23,0.47,0.48,0.52,0.23,0.31,0.53,0.35,0.23,0.58,0.31,0.35,0.23,0.42,0.48,0.52,0.23" style="fill:rgb(0,0,0);font-family:Calibri;font-size:10.02px;stroke:none;">(2021) highlights a 4.7 billion USD financing gap for African </text>
   <text y="557.518" x="246.58,250.84,256.12,261.34,266.62,269.981,273.461,275.74,280.72,284.621,286.9,289.185,294.465,296.749,300.049,305.269,310.249,312.529,315.889,319.369,324.169,329.449,333.349,338.63,343.909,347.33,350.69,352.969,356.869,361.849,366.048,369.409,374.689,378.169,380.684,382.968,385.483,390.764,393.043,397.242,402.041,405.401,407.621,412.902,415.121,420.882,428.862,433.842,437.322,439.606,443.866,448.666,451.186,453.466,458.926,462.407,467.146,471.106,473.391,475.67,477.955,481.435,486.415,491.695,496.975,499.259,502.739,507.719,511.619" svgx:width="0.42,0.53,0.52,0.52,0.34,0.35,0.23,0.5,0.39,0.23,0.23,0.52,0.23,0.34,0.52,0.5,0.23,0.34,0.35,0.48,0.52,0.39,0.52,0.53,0.35,0.34,0.23,0.39,0.5,0.42,0.34,0.53,0.35,0.25,0.23,0.25,0.52,0.23,0.42,0.48,0.34,0.23,0.52,0.23,0.58,0.8,0.5,0.35,0.23,0.42,0.48,0.25,0.23,0.54,0.35,0.48,0.4,0.23,0.23,0.23,0.35,0.5,0.52,0.52,0.23,0.35,0.5,0.39,0.23" style="fill:rgb(0,0,0);font-family:Calibri;font-size:10.02px;stroke:none;">countries in the transport sector. In Latin America, Brazil requires </text>
   <text y="569.763" x="246.58,250.057,254.856,257.137,259.412,261.696,263.971,269.251,273.751,278.731,282.629,285.988,293.968,298.948,304.229,307.589,311.486,313.771,319.05,322.111,324.39,329.495,331.955,337.056,339.335,344.616,346.895,349.176,351.455,353.736,359.015,364.296,366.515,372.935,377.554,383.737,388.777,393.817,398.917,404.017,406.242,410.801,414.275,417.331,422.371,424.891,427.11,430.17,435.451,437.73,440.011,445.291,452.431,457.411,462.691,464.971,470.191,474.75,477.03,482.19,487.11,490.59,495.871,498.15,502.95,508.17,513.451" svgx:width="0.35,0.48,0.23,0.23,0.23,0.23,0.52,0.45,0.5,0.39,0.34,0.8,0.5,0.52,0.34,0.39,0.23,0.53,0.31,0.23,0.51,0.25,0.51,0.23,0.52,0.23,0.23,0.23,0.23,0.53,0.52,0.23,0.64,0.46,0.62,0.51,0.51,0.51,0.51,0.23,0.45,0.35,0.31,0.51,0.25,0.23,0.31,0.53,0.23,0.23,0.53,0.71,0.5,0.52,0.23,0.52,0.45,0.23,0.52,0.5,0.35,0.52,0.23,0.48,0.52,0.52,0.23" style="fill:rgb(0,0,0);font-family:Calibri;font-size:10.02px;stroke:none;">rail investments of 8.3 billion USD2015 yr-1, followed by Peru and </text>
   <text y="581.947" x="246.57,251.91,257.19,259.47,261.75,266.73,269.01,276.15,278.43,281.79,287.071,289.295,294.395,296.915,302.016,304.24,309.04,314.32,319.601,321.825,326.925,329.445,334.485,336.765,342.045,344.325,346.604,348.885,351.165,356.445,361.726,363.95,370.37,374.989,381.171,386.212,391.252,396.352,401.452,403.676,408.236,411.689,414.746,419.846,422.306,424.525,427.045,432.326,434.605,437.966,443.245,446.605,451.406,453.626,456.145,458.43,463.71,468.69,473.189,478.17,480.45,485.67,490.951,495.931,501.211" svgx:width="0.53,0.52,0.23,0.23,0.5,0.23,0.71,0.23,0.34,0.52,0.23,0.51,0.25,0.51,0.23,0.48,0.52,0.52,0.23,0.51,0.25,0.51,0.23,0.52,0.23,0.23,0.23,0.23,0.53,0.52,0.23,0.64,0.46,0.62,0.51,0.51,0.51,0.51,0.23,0.45,0.35,0.31,0.51,0.25,0.23,0.25,0.52,0.23,0.34,0.53,0.34,0.48,0.23,0.25,0.23,0.52,0.5,0.45,0.5,0.23,0.53,0.52,0.5,0.52,0.23" style="fill:rgb(0,0,0);font-family:Calibri;font-size:10.02px;stroke:none;">Chile with 2.3 and 2.1 billion USD2015 yr-1. In total, developed </text>
   <text y="594.131" x="246.57,250.829,256.11,261.329,266.61,269.97,273.446,275.727,280.707,284.605,286.884,294.865,300.145,305.365,310.645,314.004,316.285,321.564,326.245,328.524,333.745,339.024,341.309,344.669,349.948,352.168,356.968,359.249,367.229,372.508,376.406,379.766,382.045,387.145,392.185,397.285,399.505,404.785,407.06,409.34,411.615,413.896,419.175,424.456,426.735,433.155,437.715,443.895,446.115,450.675,454.152,457.23,462.331,464.555,467.611,472.892,477.811,482.912,488.012,490.472" svgx:width="0.42,0.53,0.52,0.52,0.34,0.35,0.23,0.5,0.39,0.23,0.8,0.53,0.52,0.52,0.34,0.23,0.52,0.47,0.23,0.52,0.52,0.23,0.34,0.53,0.23,0.48,0.23,0.8,0.53,0.39,0.34,0.23,0.51,0.51,0.51,0.23,0.52,0.23,0.23,0.23,0.23,0.53,0.52,0.23,0.64,0.46,0.62,0.23,0.45,0.35,0.31,0.51,0.23,0.3,0.52,0.5,0.51,0.51,0.25,0.23" style="fill:rgb(0,0,0);font-family:Calibri;font-size:10.02px;stroke:none;">countries mounting up to almost 120 billion USD yr-1 (n=15, </text>
   <text y="606.376" x="246.58,254.56,259.54,264.34,269.621,274.601,279.701,282.161,287.261,292.361,294.581,299.861,305.081,307.305,313.725,318.344,324.526,326.751,331.31,334.776,337.832,342.872,345.928,348.213,351.273,356.552,359.973,362.253,365.733,370.533,372.813,375.097,377.377,379.661,384.941,388.001,391.482,396.282,400.181,403.542,407.022,412.302,416.562,419.862,425.082,428.562,433.542,435.827,438.106,443.387,447.887,452.867,456.766,460.127,468.107,473.087,478.367,481.727,483.947,489.227,494.207,499.187,504.468,508.367,510.883" svgx:width="0.8,0.5,0.48,0.52,0.5,0.51,0.25,0.51,0.51,0.23,0.52,0.52,0.23,0.64,0.46,0.62,0.23,0.45,0.35,0.31,0.51,0.3,0.23,0.31,0.53,0.35,0.23,0.35,0.48,0.23,0.23,0.23,0.23,0.52,0.31,0.35,0.48,0.39,0.34,0.35,0.52,0.42,0.34,0.52,0.35,0.5,0.23,0.23,0.52,0.45,0.5,0.39,0.34,0.8,0.5,0.52,0.34,0.23,0.52,0.5,0.5,0.52,0.39,0.25,0.23" style="fill:rgb(0,0,0);font-family:Calibri;font-size:10.02px;stroke:none;">mean=7.97 bn USD yr-1) for rail infrastructure investment needs. </text>
   <text y="618.56" x="246.57,251.49,255.387,258.748,261.023,269.003,273.803,277.163,282.143,286.041,288.32,291.38,296.661,300.138,302.417,307.158,311.658,316.457,318.738,321.012,325.828,331.109,333.389,338.369,340.649,345.929,350.909,355.409,360.389,362.67,367.949,373.23,375.51,380.791,385.471,387.756,392.014,397.235,402.515,407.796,411.155,414.635,416.915,421.895,425.796,428.015,432.816,438.096,443.377,447.276,449.496,454.776,460.057,462.276,465.636,470.917,473.196,477.997,480.276,488.196,493.477,497.376,500.736,503.021,508.121,513.161" svgx:width="0.49,0.39,0.34,0.23,0.8,0.48,0.34,0.5,0.39,0.23,0.31,0.53,0.35,0.23,0.48,0.45,0.48,0.23,0.23,0.48,0.52,0.23,0.5,0.23,0.52,0.5,0.45,0.5,0.23,0.53,0.52,0.23,0.52,0.47,0.23,0.42,0.53,0.52,0.52,0.34,0.35,0.23,0.5,0.39,0.23,0.48,0.52,0.52,0.39,0.23,0.52,0.52,0.23,0.34,0.53,0.23,0.48,0.23,0.8,0.53,0.39,0.34,0.23,0.51,0.51,0.23" style="fill:rgb(0,0,0);font-family:Calibri;font-size:10.02px;stroke:none;">Estimates for available developing countries adds up to almost 50 </text>
   <text y="630.805" x="246.57,251.849,254.13,256.404,258.685,260.96,266.24,271.52,273.804,280.224,284.843,290.963,293.248,297.808,301.285,304.285,309.385,311.67,314.666,319.946,324.926,329.966,335.067,337.526,339.811,347.791,352.771,357.57,362.791,367.771,372.871,375.39,380.43,385.53,390.811,396.031,398.316,404.736,409.295,415.474,417.695,422.194,425.667,428.723,433.824,436.344,438.623,443.603,447.864,452.122,454.403,456.923,459.202,464.543,469.823,472.104,477.323,482.064,484.343,489.144,494.425,499.645" svgx:width="0.52,0.23,0.23,0.23,0.23,0.53,0.52,0.23,0.64,0.46,0.62,0.23,0.45,0.35,0.31,0.51,0.23,0.3,0.52,0.5,0.51,0.51,0.25,0.23,0.8,0.5,0.48,0.52,0.5,0.51,0.25,0.51,0.51,0.52,0.52,0.23,0.64,0.46,0.62,0.23,0.45,0.35,0.31,0.51,0.25,0.23,0.5,0.43,0.42,0.23,0.25,0.23,0.53,0.52,0.23,0.52,0.48,0.23,0.48,0.52,0.52,0.23" style="fill:rgb(0,0,0);font-family:Calibri;font-size:10.02px;stroke:none;">billion USD yr-1 (n=27, mean=1.78bn USD yr-1, excl. China and </text>
   <text y="642.989" x="246.56,250.76,256.943,262.283,266.183,269.239,271.699,273.979,278.779,283.999,289.279,291.559,296.359,300.859,305.659,307.879,310.159,314.959,320.24,322.52,327.5,329.78,335.06,339.86,343.22,347.96,350.24,353.3,358.58,362.06,364.34,368.179,373.16,377.66,382.64,387.921,390.205,394.405,400.587,405.927,409.827,412.047,415.103,423.083,428.003,432.803,438.084,443.064,448.164,450.624,455.724,460.824,463.045,468.325,473.545,475.829,482.249,486.809,492.992,495.271,499.83,503.302,506.298,511.398,514.394" svgx:width="0.42,0.62,0.53,0.39,0.3,0.25,0.23,0.48,0.52,0.52,0.23,0.48,0.45,0.48,0.23,0.23,0.48,0.52,0.23,0.5,0.23,0.52,0.48,0.34,0.48,0.23,0.31,0.53,0.35,0.23,0.39,0.5,0.45,0.5,0.52,0.23,0.42,0.62,0.53,0.39,0.23,0.3,0.8,0.5,0.48,0.52,0.5,0.51,0.25,0.51,0.51,0.23,0.52,0.52,0.23,0.64,0.46,0.62,0.23,0.45,0.35,0.31,0.51,0.3,0.23" style="fill:rgb(0,0,0);font-family:Calibri;font-size:10.02px;stroke:none;">LDCs), and available data for seven LDCs (mean=0.34 bn USD yr-1) </text>
  </g>
  <g begin="text">
   <text y="655.08" x="246.6,250.5,255.78,261.06,268.2,272.1,274.384,279.665,284.465,287.825,292.565,294.849,299.589,304.329,309.61,313.51,315.79,318.85,324.131,327.61,329.894,333.794,339.074,343.994,348.253,350.533,353.593,355.873,360.132,362.351,366.609,371.889,377.109,382.39,385.751,389.231,391.51,396.49,400.39,402.674,405.674,412.335,416.654,419.654,424.935,428.415,433.695,435.975,440.836,445.094,450.375,455.595,460.875,468.854,471.134,475.393,479.232,481.517,486.617,491.657,496.757,501.797,504.853" svgx:width="0.39,0.52,0.53,0.71,0.39,0.23,0.52,0.48,0.34,0.48,0.23,0.47,0.48,0.52,0.39,0.23,0.31,0.53,0.35,0.23,0.39,0.52,0.5,0.42,0.23,0.31,0.23,0.42,0.23,0.42,0.53,0.52,0.52,0.34,0.35,0.23,0.5,0.39,0.23,0.3,0.66,0.43,0.31,0.53,0.35,0.52,0.23,0.49,0.42,0.53,0.52,0.53,0.8,0.23,0.42,0.39,0.23,0.51,0.51,0.51,0.51,0.3,0.25" style="fill:rgb(0,0,0);font-family:Calibri;font-size:10.02px;stroke:none;">shows data gaps for specific countries (Oxford Economics 2017).</text>
  </g>
  <g begin="text">
   <text y="655.08" x="507.3" svgx:width="0.23" style="fill:rgb(0,0,0);font-family:Calibri;font-size:10.02px;stroke:none;"> </text>
  </g>
  <path style="fill:rgb(0,0,0);stroke:none;stroke-width:1.0;" d="M70.860 635.820 L71.340 635.820 L71.340 636.300 L70.860 636.300 L70.860 635.820 "/>
  <path style="fill:rgb(0,0,0);stroke:none;stroke-width:1.0;" d="M71.340 635.820 L127.560 635.820 L127.560 636.300 L71.340 636.300 L71.340 635.820 "/>
  <path style="fill:rgb(0,0,0);stroke:none;stroke-width:1.0;" d="M127.560 635.820 L128.040 635.820 L128.040 636.300 L127.560 636.300 L127.560 635.820 "/>
  <path style="fill:rgb(0,0,0);stroke:none;stroke-width:1.0;" d="M128.040 635.820 L184.260 635.820 L184.260 636.300 L128.040 636.300 L128.040 635.820 "/>
  <path style="fill:rgb(0,0,0);stroke:none;stroke-width:1.0;" d="M184.260 635.820 L184.740 635.820 L184.740 636.300 L184.260 636.300 L184.260 635.820 "/>
  <path style="fill:rgb(0,0,0);stroke:none;stroke-width:1.0;" d="M184.740 635.820 L240.960 635.820 L240.960 636.300 L184.740 636.300 L184.740 635.820 "/>
  <path style="fill:rgb(0,0,0);stroke:none;stroke-width:1.0;" d="M240.960 635.820 L241.440 635.820 L241.440 636.300 L240.960 636.300 L240.960 635.820 "/>
  <path style="fill:rgb(0,0,0);stroke:none;stroke-width:1.0;" d="M523.980 635.820 L524.460 635.820 L524.460 636.300 L523.980 636.300 L523.980 635.820 "/>
  <g begin="text">
   <text y="667.74" x="76.5,81.841,87.121,91.921,97.201,100.558,105.538,108.958,111.242,116.282" svgx:width="0.53,0.52,0.48,0.52,0.34,0.5,0.35,0.23,0.51,0.51" style="fill:rgb(0,0,0);font-family:Calibri;font-size:10.02px;stroke:none;">Chapter 15</text>
  </g>
  <g begin="text">
   <text y="667.74" x="121.32" svgx:width="0.23" style="fill:rgb(0,0,0);font-family:Calibri;font-size:10.02px;stroke:none;"> </text>
  </g>
  <g begin="text">
   <text y="667.74" x="133.2,138.3" svgx:width="0.51,0.51" style="fill:rgb(0,0,0);font-family:Calibri;font-size:10.02px;stroke:none;">36</text>
  </g>
  <g begin="text">
   <text y="667.74" x="143.34" svgx:width="0.23" style="fill:rgb(0,0,0);font-family:Calibri;font-size:10.02px;stroke:none;"> </text>
  </g>
  <g begin="text">
   <text y="667.74" x="189.9" svgx:width="0.51" style="fill:rgb(0,0,0);font-family:Calibri;font-size:10.02px;stroke:none;">8</text>
  </g>
  <g begin="text">
   <text y="667.74" x="194.94" svgx:width="0.23" style="fill:rgb(0,0,0);font-family:Calibri;font-size:10.02px;stroke:none;"> </text>
  </g>
  <g begin="text">
   <text y="667.74" x="246.6,251.881,256.86,260.34,262.62,267.12,272.1,276.001,278.28,283.081,287.581,292.561,296.041,300.841,305.521,310.501,312.785,317.345,322.325,327.126,330.606,332.885,337.385,339.67,341.949,347.23,351.73,356.71,360.61,363.91,371.89,376.87,382.151,385.51,387.79,393.07,398.05,402.97,408.251,412.15,414.43,419.711,422.711,424.931,429.731,433.21,438.491,443.771,449.051,454.272" svgx:width="0.52,0.5,0.35,0.23,0.45,0.5,0.39,0.23,0.48,0.45,0.5,0.35,0.48,0.47,0.5,0.23,0.45,0.5,0.48,0.35,0.23,0.45,0.23,0.23,0.52,0.45,0.5,0.39,0.34,0.8,0.5,0.52,0.34,0.23,0.52,0.5,0.5,0.52,0.39,0.23,0.53,0.31,0.23,0.48,0.35,0.53,0.52,0.52,0.52,0.23" style="fill:rgb(0,0,0);font-family:Calibri;font-size:10.02px;stroke:none;">derives average yearly investment needs of around </text>
  </g>
  <g begin="text">
   <text y="667.74" x="456.54,461.58,466.68,471.72,474.0,479.28,481.555,483.829,486.11,488.384,493.665,498.945,501.229,507.649,512.209,518.388" svgx:width="0.51,0.51,0.51,0.23,0.52,0.23,0.23,0.23,0.23,0.53,0.52,0.23,0.64,0.46,0.62,0.23" style="fill:rgb(0,0,0);font-family:Calibri;font-size:10.02px;stroke:none;">278 billion USD </text>
  </g>
  <g begin="text">
   <text y="679.98" x="246.6,251.159,254.636,257.692,262.792,265.012,270.292,275.573,278.934,281.213,283.494,285.713,290.813,295.853,300.954,305.994,308.273,313.074,318.354,323.575,325.854,330.894,335.994,341.035,343.314,349.735,354.294,360.476,362.697,367.977,370.258,372.537,374.818,377.098,382.378,387.659,389.938,394.497,397.972,401.028,406.068,408.348,410.632,415.913,418.192,421.493,426.773,431.753,434.037,439.317,444.297,448.617,451.917,454.201,458.101,463.081,467.581,472.561,476.041,480.842,483.121" svgx:width="0.45,0.35,0.31,0.51,0.23,0.52,0.52,0.34,0.23,0.23,0.23,0.51,0.51,0.51,0.51,0.23,0.48,0.52,0.52,0.23,0.51,0.51,0.51,0.23,0.64,0.46,0.62,0.23,0.52,0.23,0.23,0.23,0.23,0.53,0.52,0.23,0.45,0.35,0.31,0.51,0.23,0.23,0.52,0.23,0.34,0.52,0.5,0.23,0.52,0.5,0.43,0.34,0.23,0.39,0.5,0.45,0.5,0.35,0.48,0.23,0.23" style="fill:rgb(0,0,0);font-family:Calibri;font-size:10.02px;stroke:none;">yr-1 until 2030 and 431 USD billion yr-1 in the next several </text>
   <text y="692.164" x="246.59,251.87,256.85,261.109,265.849,271.13,276.11,280.01,282.472" svgx:width="0.52,0.5,0.42,0.48,0.52,0.5,0.39,0.25,0.23" style="fill:rgb(0,0,0);font-family:Calibri;font-size:10.02px;stroke:none;">decades, </text>
   <text y="704.409" x="246.59" svgx:width="0.23" style="fill:rgb(0,0,0);font-family:Calibri;font-size:10.02px;stroke:none;"> </text>
   <text y="716.593" x="246.59,249.646,254.626,256.911,262.19,267.17,270.65,272.935,277.435,282.414,286.314,288.599,293.398,297.898,302.878,306.358,311.158,315.898,320.878,323.098,327.659,332.639,337.438,340.918,343.203,347.763,350.042,352.263,357.542,362.042,367.022,370.923,374.283,382.263,387.243,392.523,395.883,398.168,403.447,408.427,413.348,418.627,422.528,424.748,430.028,433.088,435.368,440.168,443.648,448.928,454.148,459.428,464.685,466.91,472.01,477.05,482.15,484.37,489.65,491.925,494.199,496.48,498.754,504.035,509.314" svgx:width="0.31,0.5,0.23,0.52,0.5,0.35,0.23,0.45,0.5,0.39,0.23,0.48,0.45,0.5,0.35,0.48,0.47,0.5,0.23,0.45,0.5,0.48,0.35,0.23,0.45,0.23,0.23,0.52,0.45,0.5,0.39,0.34,0.8,0.5,0.52,0.34,0.23,0.52,0.5,0.5,0.52,0.39,0.23,0.53,0.31,0.23,0.48,0.35,0.53,0.52,0.52,0.52,0.23,0.51,0.51,0.51,0.23,0.52,0.23,0.23,0.23,0.23,0.53,0.52,0.23" style="fill:rgb(0,0,0);font-family:Calibri;font-size:10.02px;stroke:none;">-&gt; derives average yearly investment needs of around 278 billion </text>
   <text y="728.838" x="246.59,253.01,257.629,263.811,268.851,273.891,278.992,284.092,286.316,290.875,294.345,297.401,302.441,304.662,309.942,315.223,318.584,320.863,323.144,325.423,330.463,335.564,340.604,345.704,347.983,351.463,353.744,357.644,359.923,365.144,369.883,372.168,375.527,380.808,383.027,388.067,393.168,398.268,400.547,406.908,411.527,417.647,422.687,427.788,432.828,437.928,440.207,445.488,447.768,450.048,452.328,454.608,459.888,465.168,467.381,471.94,475.417,478.473,483.513,485.792,491.073,495.573,500.553,504.033" svgx:width="0.64,0.46,0.62,0.51,0.51,0.51,0.51,0.23,0.45,0.35,0.31,0.51,0.23,0.52,0.52,0.34,0.23,0.23,0.23,0.51,0.51,0.51,0.51,0.23,0.35,0.23,0.39,0.23,0.52,0.47,0.23,0.34,0.53,0.23,0.51,0.51,0.51,0.23,0.64,0.46,0.62,0.51,0.51,0.51,0.51,0.23,0.52,0.23,0.23,0.23,0.23,0.53,0.52,0.23,0.45,0.35,0.31,0.51,0.23,0.53,0.45,0.5,0.35,0.23" style="fill:rgb(0,0,0);font-family:Calibri;font-size:10.02px;stroke:none;">USD2015 yr-1 until 2030 rising to 431 USD2015 billion yr-1 over </text>
   <text y="741.022" x="246.57,249.93,255.21,260.19,262.47,267.69,272.67,276.99,280.35,282.63,286.53,291.51,296.01,300.99,304.471,309.27,311.551,313.83,319.111,324.091,328.349,333.089,338.369,343.349,347.249,349.709,351.993,354.273,359.553,363.753,366.033,371.314,376.595,378.874,384.155,388.834,391.118,396.398,401.618,406.899,412.18,415.659,419.019,424.24,429.52,431.801,435.16,439.72,441.94,446.198,451.479,455.379,458.738,462.571" svgx:width="0.34,0.52,0.5,0.23,0.52,0.5,0.43,0.34,0.23,0.39,0.5,0.45,0.5,0.35,0.48,0.23,0.23,0.52,0.5,0.42,0.48,0.52,0.5,0.39,0.25,0.23,0.23,0.52,0.42,0.23,0.52,0.52,0.23,0.52,0.47,0.23,0.53,0.52,0.52,0.53,0.35,0.34,0.52,0.52,0.23,0.34,0.45,0.23,0.42,0.53,0.39,0.34,0.39,0.23" style="fill:rgb(0,0,0);font-family:Calibri;font-size:10.02px;stroke:none;">the next several decades, including opportunity costs </text>
  </g>
  <path style="fill:rgb(0,0,0);stroke:none;stroke-width:1.0;" d="M71.340 89.160 L127.560 89.160 L127.560 183.660 L71.340 183.660 L71.340 89.160 M71.340 89.160 L127.560 89.160 L127.560 183.660 L71.340 183.660 L71.340 89.160 M128.040 89.160 L184.260 89.160 L184.260 183.660 L128.040 183.660 L128.040 89.160 M128.040 89.160 L184.260 89.160 L184.260 183.660 L128.040 183.660 L128.040 89.160 M184.740 89.160 L240.960 89.160 L240.960 183.660 L184.740 183.660 L184.740 89.160 M184.740 89.160 L240.960 89.160 L240.960 183.660 L184.740 183.660 L184.740 89.160 M70.860 183.660 L71.340 183.660 L71.340 184.140 L70.860 184.140 L70.860 183.660 "/>
  <path style="fill:rgb(0,0,0);stroke:none;stroke-width:1.0;" d="M71.340 183.660 L127.560 183.660 L127.560 184.140 L71.340 184.140 L71.340 183.660 "/>
  <path style="fill:rgb(0,0,0);stroke:none;stroke-width:1.0;" d="M127.560 183.660 L128.040 183.660 L128.040 184.140 L127.560 184.140 L127.560 183.660 "/>
  <path style="fill:rgb(0,0,0);stroke:none;stroke-width:1.0;" d="M128.040 183.660 L184.260 183.660 L184.260 184.140 L128.040 184.140 L128.040 183.660 "/>
  <path style="fill:rgb(0,0,0);stroke:none;stroke-width:1.0;" d="M184.260 183.660 L184.740 183.660 L184.740 184.140 L184.260 184.140 L184.260 183.660 "/>
  <path style="fill:rgb(0,0,0);stroke:none;stroke-width:1.0;" d="M184.740 183.660 L240.960 183.660 L240.960 184.140 L184.740 184.140 L184.740 183.660 "/>
  <path style="fill:rgb(0,0,0);stroke:none;stroke-width:1.0;" d="M240.960 183.660 L241.440 183.660 L241.440 184.140 L240.960 184.140 L240.960 183.660 "/>
  <path style="fill:rgb(0,0,0);stroke:none;stroke-width:1.0;" d="M523.980 183.660 L524.460 183.660 L524.460 184.140 L523.980 184.140 L523.980 183.660 "/>
  <path style="fill:rgb(0,0,0);stroke:none;stroke-width:1.0;" d="M70.860 89.100 L71.340 89.100 L71.340 183.660 L70.860 183.660 L70.860 89.100 "/>
  <path style="fill:rgb(0,0,0);stroke:none;stroke-width:1.0;" d="M70.860 88.620 L71.340 88.620 L71.340 89.100 L70.860 89.100 L70.860 88.620 "/>
  <path style="fill:rgb(0,0,0);stroke:none;stroke-width:1.0;" d="M70.860 88.620 L71.340 88.620 L71.340 89.100 L70.860 89.100 L70.860 88.620 "/>
  <path style="fill:rgb(0,0,0);stroke:none;stroke-width:1.0;" d="M71.340 88.620 L127.560 88.620 L127.560 89.100 L71.340 89.100 L71.340 88.620 "/>
  <path style="fill:rgb(0,0,0);stroke:none;stroke-width:1.0;" d="M127.560 89.100 L128.040 89.100 L128.040 183.660 L127.560 183.660 L127.560 89.100 "/>
  <path style="fill:rgb(0,0,0);stroke:none;stroke-width:1.0;" d="M127.560 88.620 L128.040 88.620 L128.040 89.100 L127.560 89.100 L127.560 88.620 "/>
  <path style="fill:rgb(0,0,0);stroke:none;stroke-width:1.0;" d="M128.040 88.620 L184.260 88.620 L184.260 89.100 L128.040 89.100 L128.040 88.620 "/>
  <path style="fill:rgb(0,0,0);stroke:none;stroke-width:1.0;" d="M184.260 89.100 L184.740 89.100 L184.740 183.660 L184.260 183.660 L184.260 89.100 "/>
  <path style="fill:rgb(0,0,0);stroke:none;stroke-width:1.0;" d="M184.260 88.620 L184.740 88.620 L184.740 89.100 L184.260 89.100 L184.260 88.620 "/>
  <path style="fill:rgb(0,0,0);stroke:none;stroke-width:1.0;" d="M184.740 88.620 L240.960 88.620 L240.960 89.100 L184.740 89.100 L184.740 88.620 "/>
  <path style="fill:rgb(0,0,0);stroke:none;stroke-width:1.0;" d="M240.960 89.100 L241.440 89.100 L241.440 183.660 L240.960 183.660 L240.960 89.100 "/>
  <path style="fill:rgb(0,0,0);stroke:none;stroke-width:1.0;" d="M240.960 88.620 L241.440 88.620 L241.440 89.100 L240.960 89.100 L240.960 88.620 "/>
  <path style="fill:rgb(0,0,0);stroke:none;stroke-width:1.0;" d="M523.980 89.100 L524.460 89.100 L524.460 183.660 L523.980 183.660 L523.980 89.100 "/>
  <path style="fill:rgb(0,0,0);stroke:none;stroke-width:1.0;" d="M523.980 88.620 L524.460 88.620 L524.460 89.100 L523.980 89.100 L523.980 88.620 "/>
  <path style="fill:rgb(0,0,0);stroke:none;stroke-width:1.0;" d="M523.980 88.620 L524.460 88.620 L524.460 89.100 L523.980 89.100 L523.980 88.620 "/>
 </g>
</svg>
