<?xml version="1.0" encoding="UTF-8"?>
<svg height="781.06" width="534.46" xmlns="http://www.w3.org/2000/svg">
 <g id="page" xmlns:svgx="http://www.xml-cml.org/schema/svgx">
  <g begin="text">
   <text y="80.82" x="76.5,81.841,87.121,91.921,97.201,100.558,105.538,108.958,111.242,116.282" svgx:width="0.53,0.52,0.48,0.52,0.34,0.5,0.35,0.23,0.51,0.51" style="fill:rgb(0,0,0);font-family:Calibri;font-size:10.02px;stroke:none;">Chapter 15</text>
  </g>
  <g begin="text">
   <text y="80.82" x="121.32" svgx:width="0.23" style="fill:rgb(0,0,0);font-family:Calibri;font-size:10.02px;stroke:none;"> </text>
  </g>
  <g begin="text">
   <text y="80.82" x="133.2,138.3" svgx:width="0.51,0.51" style="fill:rgb(0,0,0);font-family:Calibri;font-size:10.02px;stroke:none;">23</text>
  </g>
  <g begin="text">
   <text y="80.82" x="143.34" svgx:width="0.23" style="fill:rgb(0,0,0);font-family:Calibri;font-size:10.02px;stroke:none;"> </text>
  </g>
  <g begin="text">
   <text y="80.82" x="189.9,194.519,196.799,201.538,206.819,210.299,215.279,217.503,222.543,227.643,230.163" svgx:width="0.46,0.23,0.47,0.52,0.35,0.5,0.23,0.51,0.51,0.25,0.51" style="fill:rgb(0,0,0);font-family:Calibri;font-size:10.02px;stroke:none;">Figure 15.3</text>
  </g>
  <g begin="text">
   <text y="80.82" x="235.2" svgx:width="0.23" style="fill:rgb(0,0,0);font-family:Calibri;font-size:10.02px;stroke:none;"> </text>
  </g>
  <g begin="text">
   <text y="80.82" x="246.6" svgx:width="0.23" style="fill:rgb(0,0,0);font-family:Calibri;font-size:10.02px;stroke:none;"> </text>
  </g>
  <g begin="text">
   <text y="80.82" x="248.88,253.14,257.939,263.159,266.515,268.795,274.075,279.355,281.639,286.859,289.915,292.194,295.251,297.531,302.21,307.431,310.911,315.891,318.175,323.275,328.375,330.835,335.935,338.219,343.139,348.419,350.699,354.056" svgx:width="0.42,0.48,0.52,0.34,0.23,0.53,0.52,0.23,0.53,0.31,0.23,0.31,0.23,0.47,0.52,0.35,0.5,0.23,0.51,0.51,0.25,0.51,0.23,0.5,0.52,0.23,0.34,0.39" style="fill:rgb(0,0,0);font-family:Calibri;font-size:10.02px;stroke:none;">caption of figure 15.3 edits</text>
  </g>
  <g begin="text">
   <text y="80.82" x="357.96,360.66,362.94,366.36,371.34,379.321,384.6,389.1,394.08,396.36,399.72,405.001,409.981,412.265,416.225,421.325,425.345,427.565,429.845,435.126,437.411,440.77,446.051,450.972,453.251,455.532,460.512,465.251,470.231,475.452,480.732,483.017,487.756,493.037,498.317,500.777,503.062,507.861,513.082,518.362" svgx:width="0.27,0.23,0.35,0.5,0.8,0.53,0.45,0.5,0.23,0.34,0.52,0.5,0.23,0.4,0.51,0.4,0.23,0.23,0.52,0.23,0.34,0.52,0.5,0.23,0.23,0.5,0.47,0.5,0.52,0.52,0.23,0.48,0.52,0.52,0.25,0.23,0.48,0.52,0.52,0.23" style="fill:rgb(0,0,0);font-family:Calibri;font-size:10.02px;stroke:none;">: remove the "0" in the legend and, and </text>
  </g>
  <g begin="text">
   <text y="93.06" x="246.6,250.08,255.06,260.34,262.62,267.421,271.679,276.659,278.944,281.223,284.523,286.807,293.947,296.227,299.587,304.867,307.087,311.287,316.568,321.847,324.132,327.611,332.531,337.271,339.551,344.831,350.112,354.911,357.192,359.471,367.391,372.192,377.472,382.753,385.032,390.253,394.992,399.192,401.472,403.692,408.973,411.258,414.595,419.816,424.796,427.015,430.075,432.36,437.099,442.38,445.86,450.84,453.12,455.4,460.321,465.06,470.04,475.26,480.541,483.056,485.336,487.56,491.46,496.44,501.42" svgx:width="0.35,0.5,0.52,0.23,0.48,0.42,0.5,0.23,0.23,0.34,0.23,0.71,0.23,0.34,0.52,0.23,0.42,0.52,0.53,0.23,0.35,0.5,0.47,0.23,0.53,0.52,0.48,0.23,0.23,0.8,0.48,0.52,0.52,0.23,0.52,0.47,0.42,0.23,0.23,0.52,0.23,0.34,0.52,0.5,0.23,0.31,0.23,0.47,0.52,0.35,0.5,0.23,0.23,0.5,0.47,0.5,0.52,0.52,0.25,0.23,0.23,0.39,0.5,0.5,0.23" style="fill:rgb(0,0,0);font-family:Calibri;font-size:10.02px;stroke:none;">replace it with “no regional mapping” in the figure legend. see </text>
   <text y="105.244" x="246.6,251.58,256.86,262.14,264.425,269.644,272.704,274.989,280.268,285.489,289.748,292.033,295.033,300.313,303.793,306.013,309.492,314.472,318.972,321.252,325.152,330.132,335.411,337.691,342.192,347.172,350.652,354.551,356.836,362.115,367.396,369.656" svgx:width="0.5,0.52,0.52,0.23,0.53,0.31,0.23,0.52,0.53,0.42,0.23,0.31,0.53,0.35,0.23,0.35,0.5,0.45,0.23,0.39,0.5,0.52,0.23,0.45,0.5,0.35,0.39,0.23,0.53,0.52,0.23,0.23" style="fill:rgb(0,0,0);font-family:Calibri;font-size:10.02px;stroke:none;">end of doc for revised version </text>
  </g>
  <path style="fill:rgb(0,0,0);stroke:none;stroke-width:1.0;" d="M71.340 676.080 L127.560 676.080 L127.560 770.580 L71.340 770.580 L71.340 676.080 M71.340 676.080 L127.560 676.080 L127.560 770.580 L71.340 770.580 L71.340 676.080 M128.040 676.080 L184.260 676.080 L184.260 770.580 L128.040 770.580 L128.040 676.080 M128.040 676.080 L184.260 676.080 L184.260 770.580 L128.040 770.580 L128.040 676.080 M184.740 676.080 L240.960 676.080 L240.960 770.580 L184.740 770.580 L184.740 676.080 M184.740 676.080 L240.960 676.080 L240.960 770.580 L184.740 770.580 L184.740 676.080 M70.860 770.580 L71.340 770.580 L71.340 771.060 L70.860 771.060 L70.860 770.580 "/>
  <path style="fill:rgb(0,0,0);stroke:none;stroke-width:1.0;" d="M70.860 770.580 L71.340 770.580 L71.340 771.060 L70.860 771.060 L70.860 770.580 "/>
  <path style="fill:rgb(0,0,0);stroke:none;stroke-width:1.0;" d="M71.340 770.580 L127.560 770.580 L127.560 771.060 L71.340 771.060 L71.340 770.580 "/>
  <path style="fill:rgb(0,0,0);stroke:none;stroke-width:1.0;" d="M127.560 770.580 L128.040 770.580 L128.040 771.060 L127.560 771.060 L127.560 770.580 "/>
  <path style="fill:rgb(0,0,0);stroke:none;stroke-width:1.0;" d="M128.040 770.580 L184.260 770.580 L184.260 771.060 L128.040 771.060 L128.040 770.580 "/>
  <path style="fill:rgb(0,0,0);stroke:none;stroke-width:1.0;" d="M184.260 770.580 L184.740 770.580 L184.740 771.060 L184.260 771.060 L184.260 770.580 "/>
  <path style="fill:rgb(0,0,0);stroke:none;stroke-width:1.0;" d="M184.740 770.580 L240.960 770.580 L240.960 771.060 L184.740 771.060 L184.740 770.580 "/>
  <path style="fill:rgb(0,0,0);stroke:none;stroke-width:1.0;" d="M240.960 770.580 L241.440 770.580 L241.440 771.060 L240.960 771.060 L240.960 770.580 "/>
  <path style="fill:rgb(0,0,0);stroke:none;stroke-width:1.0;" d="M523.980 770.580 L524.460 770.580 L524.460 771.060 L523.980 771.060 L523.980 770.580 "/>
  <path style="fill:rgb(0,0,0);stroke:none;stroke-width:1.0;" d="M523.980 770.580 L524.460 770.580 L524.460 771.060 L523.980 771.060 L523.980 770.580 "/>
  <path style="fill:rgb(0,0,0);stroke:none;stroke-width:1.0;" d="M70.860 676.080 L71.340 676.080 L71.340 770.580 L70.860 770.580 L70.860 676.080 "/>
  <path style="fill:rgb(0,0,0);stroke:none;stroke-width:1.0;" d="M127.560 676.080 L128.040 676.080 L128.040 770.580 L127.560 770.580 L127.560 676.080 "/>
  <path style="fill:rgb(0,0,0);stroke:none;stroke-width:1.0;" d="M184.260 676.080 L184.740 676.080 L184.740 770.580 L184.260 770.580 L184.260 676.080 "/>
  <path style="fill:rgb(0,0,0);stroke:none;stroke-width:1.0;" d="M240.960 676.080 L241.440 676.080 L241.440 770.580 L240.960 770.580 L240.960 676.080 "/>
  <path style="fill:rgb(0,0,0);stroke:none;stroke-width:1.0;" d="M523.980 676.080 L524.460 676.080 L524.460 770.580 L523.980 770.580 L523.980 676.080 "/>
  <g begin="text">
   <text y="175.86" x="76.5,81.841,87.121,91.921,97.201,100.558,105.538,108.958,111.242,116.282" svgx:width="0.53,0.52,0.48,0.52,0.34,0.5,0.35,0.23,0.51,0.51" style="fill:rgb(0,0,0);font-family:Calibri;font-size:10.02px;stroke:none;">Chapter 15</text>
  </g>
  <g begin="text">
   <text y="175.86" x="121.32" svgx:width="0.23" style="fill:rgb(0,0,0);font-family:Calibri;font-size:10.02px;stroke:none;"> </text>
  </g>
  <g begin="text">
   <text y="175.86" x="133.2,138.3" svgx:width="0.51,0.51" style="fill:rgb(0,0,0);font-family:Calibri;font-size:10.02px;stroke:none;">36</text>
  </g>
  <g begin="text">
   <text y="175.86" x="143.34" svgx:width="0.23" style="fill:rgb(0,0,0);font-family:Calibri;font-size:10.02px;stroke:none;"> </text>
  </g>
  <g begin="text">
   <text y="175.86" x="189.9" svgx:width="0.51" style="fill:rgb(0,0,0);font-family:Calibri;font-size:10.02px;stroke:none;">8</text>
  </g>
  <g begin="text">
   <text y="175.86" x="194.94" svgx:width="0.23" style="fill:rgb(0,0,0);font-family:Calibri;font-size:10.02px;stroke:none;"> </text>
  </g>
  <g begin="text">
   <text y="175.86" x="246.6,249.66,253.92,257.401,262.68,266.58" svgx:width="0.31,0.42,0.35,0.53,0.39,0.39" style="fill:rgb(0,0,0);font-family:Calibri;font-size:10.02px;stroke:none;">[cross</text>
  </g>
  <g begin="text">
   <text y="175.86" x="270.48" svgx:width="0.31" style="fill:rgb(0,0,0);font-family:Calibri;font-size:10.02px;stroke:none;">-</text>
  </g>
  <g begin="text">
   <text y="175.86" x="273.54,277.02,282.0,285.06,290.04,293.52,298.5,303.779,307.98,312.96,316.02" svgx:width="0.35,0.5,0.31,0.5,0.35,0.5,0.52,0.42,0.5,0.31,0.23" style="fill:rgb(0,0,0);font-family:Calibri;font-size:10.02px;stroke:none;">reference] </text>
  </g>
  <g begin="text">
   <text y="175.86" x="318.3" svgx:width="0.31" style="fill:rgb(0,0,0);font-family:Calibri;font-size:10.02px;stroke:none;">-</text>
  </g>
  <g begin="text">
   <text y="175.86" x="321.36,326.34,328.624,332.104,337.084,345.064,350.345,354.845" svgx:width="0.5,0.23,0.35,0.5,0.8,0.53,0.45,0.5" style="fill:rgb(0,0,0);font-family:Calibri;font-size:10.02px;stroke:none;">&gt; remove</text>
  </g>
  <g begin="text">
   <text y="175.86" x="359.82" svgx:width="0.23" style="fill:rgb(0,0,0);font-family:Calibri;font-size:10.02px;stroke:none;"> </text>
  </g>
  <path style="fill:rgb(0,0,0);stroke:none;stroke-width:1.0;" d="M71.340 581.040 L127.560 581.040 L127.560 675.540 L71.340 675.540 L71.340 581.040 M71.340 581.040 L127.560 581.040 L127.560 675.540 L71.340 675.540 L71.340 581.040 M128.040 581.040 L184.260 581.040 L184.260 675.540 L128.040 675.540 L128.040 581.040 M128.040 581.040 L184.260 581.040 L184.260 675.540 L128.040 675.540 L128.040 581.040 M184.740 581.040 L240.960 581.040 L240.960 675.540 L184.740 675.540 L184.740 581.040 M184.740 581.040 L240.960 581.040 L240.960 675.540 L184.740 675.540 L184.740 581.040 M70.860 675.600 L71.340 675.600 L71.340 676.080 L70.860 676.080 L70.860 675.600 "/>
  <path style="fill:rgb(0,0,0);stroke:none;stroke-width:1.0;" d="M71.340 675.600 L127.560 675.600 L127.560 676.080 L71.340 676.080 L71.340 675.600 "/>
  <path style="fill:rgb(0,0,0);stroke:none;stroke-width:1.0;" d="M127.560 675.600 L128.040 675.600 L128.040 676.080 L127.560 676.080 L127.560 675.600 "/>
  <path style="fill:rgb(0,0,0);stroke:none;stroke-width:1.0;" d="M128.040 675.600 L184.260 675.600 L184.260 676.080 L128.040 676.080 L128.040 675.600 "/>
  <path style="fill:rgb(0,0,0);stroke:none;stroke-width:1.0;" d="M184.260 675.600 L184.740 675.600 L184.740 676.080 L184.260 676.080 L184.260 675.600 "/>
  <path style="fill:rgb(0,0,0);stroke:none;stroke-width:1.0;" d="M184.740 675.600 L240.960 675.600 L240.960 676.080 L184.740 676.080 L184.740 675.600 "/>
  <path style="fill:rgb(0,0,0);stroke:none;stroke-width:1.0;" d="M240.960 675.600 L241.440 675.600 L241.440 676.080 L240.960 676.080 L240.960 675.600 "/>
  <path style="fill:rgb(0,0,0);stroke:none;stroke-width:1.0;" d="M523.980 675.600 L524.460 675.600 L524.460 676.080 L523.980 676.080 L523.980 675.600 "/>
  <path style="fill:rgb(0,0,0);stroke:none;stroke-width:1.0;" d="M70.860 581.040 L71.340 581.040 L71.340 675.600 L70.860 675.600 L70.860 581.040 "/>
  <path style="fill:rgb(0,0,0);stroke:none;stroke-width:1.0;" d="M127.560 581.040 L128.040 581.040 L128.040 675.600 L127.560 675.600 L127.560 581.040 "/>
  <path style="fill:rgb(0,0,0);stroke:none;stroke-width:1.0;" d="M184.260 581.040 L184.740 581.040 L184.740 675.600 L184.260 675.600 L184.260 581.040 "/>
  <path style="fill:rgb(0,0,0);stroke:none;stroke-width:1.0;" d="M240.960 581.040 L241.440 581.040 L241.440 675.600 L240.960 675.600 L240.960 581.040 "/>
  <path style="fill:rgb(0,0,0);stroke:none;stroke-width:1.0;" d="M523.980 581.040 L524.460 581.040 L524.460 675.600 L523.980 675.600 L523.980 581.040 "/>
  <g begin="text">
   <text y="270.84" x="76.5,81.841,87.121,91.921,97.201,100.558,105.538,108.958,111.242,116.282" svgx:width="0.53,0.52,0.48,0.52,0.34,0.5,0.35,0.23,0.51,0.51" style="fill:rgb(0,0,0);font-family:Calibri;font-size:10.02px;stroke:none;">Chapter 15</text>
  </g>
  <g begin="text">
   <text y="270.84" x="121.32" svgx:width="0.23" style="fill:rgb(0,0,0);font-family:Calibri;font-size:10.02px;stroke:none;"> </text>
  </g>
  <g begin="text">
   <text y="270.84" x="133.2,138.3" svgx:width="0.51,0.51" style="fill:rgb(0,0,0);font-family:Calibri;font-size:10.02px;stroke:none;">36</text>
  </g>
  <g begin="text">
   <text y="270.84" x="143.34" svgx:width="0.23" style="fill:rgb(0,0,0);font-family:Calibri;font-size:10.02px;stroke:none;"> </text>
  </g>
  <g begin="text">
   <text y="270.84" x="189.9,194.76,199.56,204.84,207.12,212.1,214.38,219.42,224.52,227.04" svgx:width="0.49,0.48,0.52,0.23,0.5,0.23,0.51,0.51,0.25,0.51" style="fill:rgb(0,0,0);font-family:Calibri;font-size:10.02px;stroke:none;">Table 15.4</text>
  </g>
  <g begin="text">
   <text y="270.84" x="232.08" svgx:width="0.23" style="fill:rgb(0,0,0);font-family:Calibri;font-size:10.02px;stroke:none;"> </text>
  </g>
  <g begin="text">
   <text y="270.84" x="246.6,248.88" svgx:width="0.23,0.23" style="fill:rgb(0,0,0);font-family:Calibri;font-size:10.02px;stroke:none;"> </text>
  </g>
  <g begin="text">
   <text y="270.84" x="251.16,255.06,260.04,265.02,267.304,272.284,277.505,282.784,285.069,290.348,293.348,295.633,300.912,306.133,310.393,312.673,315.733,321.013,324.493,326.773,330.253,335.233,339.733,342.017,345.917,350.897,356.178,358.462,362.902,367.882,371.362,375.262,377.546,382.826,388.106" svgx:width="0.39,0.5,0.5,0.23,0.5,0.52,0.52,0.23,0.53,0.31,0.23,0.52,0.53,0.42,0.23,0.31,0.53,0.35,0.23,0.35,0.5,0.45,0.23,0.39,0.5,0.52,0.23,0.45,0.5,0.35,0.39,0.23,0.53,0.52,0.23" style="fill:rgb(0,0,0);font-family:Calibri;font-size:10.02px;stroke:none;">see end of doc for revised version </text>
  </g>
  <g begin="text">
   <text y="270.84" x="390.36" svgx:width="0.23" style="fill:rgb(0,0,0);font-family:Calibri;font-size:10.02px;stroke:none;"> </text>
  </g>
  <path style="fill:rgb(0,0,0);stroke:none;stroke-width:1.0;" d="M71.340 486.060 L127.560 486.060 L127.560 580.560 L71.340 580.560 L71.340 486.060 M71.340 486.060 L127.560 486.060 L127.560 580.560 L71.340 580.560 L71.340 486.060 M128.040 486.060 L184.260 486.060 L184.260 580.560 L128.040 580.560 L128.040 486.060 M128.040 486.060 L184.260 486.060 L184.260 580.560 L128.040 580.560 L128.040 486.060 M184.740 486.060 L240.960 486.060 L240.960 580.560 L184.740 580.560 L184.740 486.060 M184.740 486.060 L240.960 486.060 L240.960 580.560 L184.740 580.560 L184.740 486.060 M70.860 580.560 L71.340 580.560 L71.340 581.040 L70.860 581.040 L70.860 580.560 "/>
  <path style="fill:rgb(0,0,0);stroke:none;stroke-width:1.0;" d="M71.340 580.560 L127.560 580.560 L127.560 581.040 L71.340 581.040 L71.340 580.560 "/>
  <path style="fill:rgb(0,0,0);stroke:none;stroke-width:1.0;" d="M127.560 580.560 L128.040 580.560 L128.040 581.040 L127.560 581.040 L127.560 580.560 "/>
  <path style="fill:rgb(0,0,0);stroke:none;stroke-width:1.0;" d="M128.040 580.560 L184.260 580.560 L184.260 581.040 L128.040 581.040 L128.040 580.560 "/>
  <path style="fill:rgb(0,0,0);stroke:none;stroke-width:1.0;" d="M184.260 580.560 L184.740 580.560 L184.740 581.040 L184.260 581.040 L184.260 580.560 "/>
  <path style="fill:rgb(0,0,0);stroke:none;stroke-width:1.0;" d="M184.740 580.560 L240.960 580.560 L240.960 581.040 L184.740 581.040 L184.740 580.560 "/>
  <path style="fill:rgb(0,0,0);stroke:none;stroke-width:1.0;" d="M240.960 580.560 L241.440 580.560 L241.440 581.040 L240.960 581.040 L240.960 580.560 "/>
  <path style="fill:rgb(0,0,0);stroke:none;stroke-width:1.0;" d="M523.980 580.560 L524.460 580.560 L524.460 581.040 L523.980 581.040 L523.980 580.560 "/>
  <path style="fill:rgb(0,0,0);stroke:none;stroke-width:1.0;" d="M70.860 486.060 L71.340 486.060 L71.340 580.560 L70.860 580.560 L70.860 486.060 "/>
  <path style="fill:rgb(0,0,0);stroke:none;stroke-width:1.0;" d="M127.560 486.060 L128.040 486.060 L128.040 580.560 L127.560 580.560 L127.560 486.060 "/>
  <path style="fill:rgb(0,0,0);stroke:none;stroke-width:1.0;" d="M184.260 486.060 L184.740 486.060 L184.740 580.560 L184.260 580.560 L184.260 486.060 "/>
  <path style="fill:rgb(0,0,0);stroke:none;stroke-width:1.0;" d="M240.960 486.060 L241.440 486.060 L241.440 580.560 L240.960 580.560 L240.960 486.060 "/>
  <path style="fill:rgb(0,0,0);stroke:none;stroke-width:1.0;" d="M523.980 486.060 L524.460 486.060 L524.460 580.560 L523.980 580.560 L523.980 486.060 "/>
  <g begin="text">
   <text y="365.82" x="76.5,81.841,87.121,91.921,97.201,100.558,105.538,108.958,111.242,116.282" svgx:width="0.53,0.52,0.48,0.52,0.34,0.5,0.35,0.23,0.51,0.51" style="fill:rgb(0,0,0);font-family:Calibri;font-size:10.02px;stroke:none;">Chapter 15</text>
  </g>
  <g begin="text">
   <text y="365.82" x="121.32" svgx:width="0.23" style="fill:rgb(0,0,0);font-family:Calibri;font-size:10.02px;stroke:none;"> </text>
  </g>
  <g begin="text">
   <text y="365.82" x="133.2,138.3" svgx:width="0.51,0.51" style="fill:rgb(0,0,0);font-family:Calibri;font-size:10.02px;stroke:none;">36</text>
  </g>
  <g begin="text">
   <text y="365.82" x="143.34" svgx:width="0.23" style="fill:rgb(0,0,0);font-family:Calibri;font-size:10.02px;stroke:none;"> </text>
  </g>
  <g begin="text">
   <text y="365.82" x="189.9,194.76,199.56,204.84,207.12,212.1,214.38,219.42,224.52,227.04" svgx:width="0.49,0.48,0.52,0.23,0.5,0.23,0.51,0.51,0.25,0.51" style="fill:rgb(0,0,0);font-family:Calibri;font-size:10.02px;stroke:none;">Table 15.4</text>
  </g>
  <g begin="text">
   <text y="365.82" x="232.08" svgx:width="0.23" style="fill:rgb(0,0,0);font-family:Calibri;font-size:10.02px;stroke:none;"> </text>
  </g>
  <g begin="text">
   <text y="365.82" x="246.6,251.219,256.499,259.979,262.263,268.023,272.642,279.302,283.502,289.862,292.562" svgx:width="0.46,0.53,0.35,0.23,0.58,0.46,0.66,0.42,0.64,0.27,0.23" style="fill:rgb(0,0,0);font-family:Calibri;font-size:10.02px;stroke:none;">For AFOLU: </text>
  </g>
  <g begin="text">
   <text y="365.82" x="294.78" svgx:width="0.23" style="fill:rgb(0,0,0);font-family:Calibri;font-size:10.02px;stroke:none;"> </text>
  </g>
  <g begin="text">
   <text y="378.06" x="246.6" svgx:width="0.23" style="fill:rgb(0,0,0);font-family:Calibri;font-size:10.02px;stroke:none;"> </text>
   <text y="390.244" x="246.6,251.94,257.22,262.02,267.3,270.66,275.64,279.06,281.344,286.384,288.664,293.465,298.745,303.545,305.765,310.324,314.224,316.505,320.404,322.924,325.204,329.823,334.743,339.001,342.361,344.642,349.921,355.142,357.421,362.521,364.981,370.081,372.782,375.061,379.921,385.142,390.122,392.401,397.02,402.241,407.52,412.801,415.08,419.821,425.04,430.321,432.6,436.801,441.6,446.821,452.101,454.322,459.602,463.503,468.483,470.762,476.102,481.383,486.122,488.403,490.682,494.043,496.322,501.603,506.883" svgx:width="0.53,0.52,0.48,0.52,0.34,0.5,0.35,0.23,0.51,0.23,0.48,0.52,0.48,0.23,0.45,0.39,0.23,0.39,0.25,0.23,0.46,0.5,0.42,0.34,0.23,0.53,0.52,0.23,0.51,0.25,0.51,0.27,0.23,0.49,0.52,0.5,0.23,0.46,0.53,0.53,0.52,0.23,0.48,0.52,0.52,0.23,0.42,0.48,0.52,0.52,0.23,0.52,0.39,0.5,0.23,0.53,0.53,0.48,0.23,0.23,0.34,0.23,0.53,0.52,0.23" style="fill:rgb(0,0,0);font-family:Calibri;font-size:10.02px;stroke:none;">Chapter 7 analysis, Section 7.4; The Food and Land use Coalition </text>
   <text y="402.489" x="246.6,249.656,254.275,259.556,264.296,268.856,274.137,279.417,283.917,287.817,292.377,297.597,302.156,304.376,309.356,312.716,315.0,319.8,322.081,324.601,326.88,331.92,337.02,342.06,347.161,350.161,352.381" svgx:width="0.3,0.46,0.52,0.48,0.46,0.52,0.53,0.45,0.39,0.46,0.53,0.45,0.23,0.5,0.34,0.23,0.48,0.23,0.25,0.23,0.51,0.51,0.51,0.51,0.3,0.23,0.23" style="fill:rgb(0,0,0);font-family:Calibri;font-size:10.02px;stroke:none;">(Shakhovskoy et al. 2019) </text>
   <text y="414.673" x="246.6" svgx:width="0.23" style="fill:rgb(0,0,0);font-family:Calibri;font-size:10.02px;stroke:none;"> </text>
   <text y="426.857" x="246.6,249.656,254.636,256.921,262.26,267.541,272.341,277.561,280.922,285.901,289.381,291.661,296.701,298.986,303.725,309.006,313.805,316.086,320.645,324.546,326.825,330.725,333.245,335.529,340.09,345.07,349.328,352.689,354.968,360.189,365.469,367.754,372.854,375.315,380.415,383.116,385.395,390.196,395.476,400.456,402.677,407.296,412.575,417.796,423.076,425.361,430.16,435.381,440.661,442.946,447.145,451.886,457.166,462.447,464.666,469.947,473.847,478.766,481.051,486.391,491.671,496.471,498.751,501.031,504.39,506.671,511.951,517.231" svgx:width="0.31,0.5,0.23,0.53,0.52,0.48,0.52,0.34,0.5,0.35,0.23,0.51,0.23,0.48,0.52,0.48,0.23,0.45,0.39,0.23,0.39,0.25,0.23,0.46,0.5,0.42,0.34,0.23,0.53,0.52,0.23,0.51,0.25,0.51,0.27,0.23,0.49,0.52,0.5,0.23,0.46,0.53,0.53,0.52,0.23,0.48,0.52,0.52,0.23,0.42,0.48,0.52,0.52,0.23,0.52,0.39,0.5,0.23,0.53,0.53,0.48,0.23,0.23,0.34,0.23,0.53,0.52,0.23" style="fill:rgb(0,0,0);font-family:Calibri;font-size:10.02px;stroke:none;">-&gt; Chapter 7 analysis, Section 7.4; The Food and Land use Coalition </text>
   <text y="439.102" x="246.6,249.656,254.696,259.796,264.836,269.937,272.993,275.633,277.918,282.477,287.757,292.557,297.117,302.337,307.558,312.058,315.957,320.518,325.797,330.356,332.641,337.621,340.98,343.201,348.0,350.28,352.8,355.084,358.084,363.185,368.225,373.325,378.365,381.421,383.644" svgx:width="0.3,0.51,0.51,0.51,0.51,0.3,0.27,0.23,0.46,0.52,0.48,0.46,0.52,0.53,0.45,0.39,0.46,0.53,0.45,0.23,0.5,0.34,0.23,0.48,0.23,0.25,0.23,0.3,0.51,0.51,0.51,0.51,0.3,0.23,0.23" style="fill:rgb(0,0,0);font-family:Calibri;font-size:10.02px;stroke:none;">(2019); Shakhovskoy et al. (2019) </text>
  </g>
  <path style="fill:rgb(0,0,0);stroke:none;stroke-width:1.0;" d="M71.340 391.080 L127.560 391.080 L127.560 485.580 L71.340 485.580 L71.340 391.080 M71.340 391.080 L127.560 391.080 L127.560 485.580 L71.340 485.580 L71.340 391.080 M128.040 391.080 L184.260 391.080 L184.260 485.580 L128.040 485.580 L128.040 391.080 M128.040 391.080 L184.260 391.080 L184.260 485.580 L128.040 485.580 L128.040 391.080 M184.740 391.080 L240.960 391.080 L240.960 485.580 L184.740 485.580 L184.740 391.080 M184.740 391.080 L240.960 391.080 L240.960 485.580 L184.740 485.580 L184.740 391.080 M70.860 485.580 L71.340 485.580 L71.340 486.060 L70.860 486.060 L70.860 485.580 "/>
  <path style="fill:rgb(0,0,0);stroke:none;stroke-width:1.0;" d="M71.340 485.580 L127.560 485.580 L127.560 486.060 L71.340 486.060 L71.340 485.580 "/>
  <path style="fill:rgb(0,0,0);stroke:none;stroke-width:1.0;" d="M127.560 485.580 L128.040 485.580 L128.040 486.060 L127.560 486.060 L127.560 485.580 "/>
  <path style="fill:rgb(0,0,0);stroke:none;stroke-width:1.0;" d="M128.040 485.580 L184.260 485.580 L184.260 486.060 L128.040 486.060 L128.040 485.580 "/>
  <path style="fill:rgb(0,0,0);stroke:none;stroke-width:1.0;" d="M184.260 485.580 L184.740 485.580 L184.740 486.060 L184.260 486.060 L184.260 485.580 "/>
  <path style="fill:rgb(0,0,0);stroke:none;stroke-width:1.0;" d="M184.740 485.580 L240.960 485.580 L240.960 486.060 L184.740 486.060 L184.740 485.580 "/>
  <path style="fill:rgb(0,0,0);stroke:none;stroke-width:1.0;" d="M240.960 485.580 L241.440 485.580 L241.440 486.060 L240.960 486.060 L240.960 485.580 "/>
  <path style="fill:rgb(0,0,0);stroke:none;stroke-width:1.0;" d="M523.980 485.580 L524.460 485.580 L524.460 486.060 L523.980 486.060 L523.980 485.580 "/>
  <path style="fill:rgb(0,0,0);stroke:none;stroke-width:1.0;" d="M70.860 391.080 L71.340 391.080 L71.340 485.580 L70.860 485.580 L70.860 391.080 "/>
  <path style="fill:rgb(0,0,0);stroke:none;stroke-width:1.0;" d="M127.560 391.080 L128.040 391.080 L128.040 485.580 L127.560 485.580 L127.560 391.080 "/>
  <path style="fill:rgb(0,0,0);stroke:none;stroke-width:1.0;" d="M184.260 391.080 L184.740 391.080 L184.740 485.580 L184.260 485.580 L184.260 391.080 "/>
  <path style="fill:rgb(0,0,0);stroke:none;stroke-width:1.0;" d="M240.960 391.080 L241.440 391.080 L241.440 485.580 L240.960 485.580 L240.960 391.080 "/>
  <path style="fill:rgb(0,0,0);stroke:none;stroke-width:1.0;" d="M523.980 391.080 L524.460 391.080 L524.460 485.580 L523.980 485.580 L523.980 391.080 "/>
  <g begin="text">
   <text y="460.86" x="76.5,81.841,87.121,91.921,97.201,100.558,105.538,108.958,111.242,116.282" svgx:width="0.53,0.52,0.48,0.52,0.34,0.5,0.35,0.23,0.51,0.51" style="fill:rgb(0,0,0);font-family:Calibri;font-size:10.02px;stroke:none;">Chapter 15</text>
  </g>
  <g begin="text">
   <text y="460.86" x="121.32" svgx:width="0.23" style="fill:rgb(0,0,0);font-family:Calibri;font-size:10.02px;stroke:none;"> </text>
  </g>
  <g begin="text">
   <text y="460.86" x="133.2,138.3" svgx:width="0.51,0.51" style="fill:rgb(0,0,0);font-family:Calibri;font-size:10.02px;stroke:none;">36</text>
  </g>
  <g begin="text">
   <text y="460.86" x="143.34" svgx:width="0.23" style="fill:rgb(0,0,0);font-family:Calibri;font-size:10.02px;stroke:none;"> </text>
  </g>
  <g begin="text">
   <text y="460.86" x="189.9,194.76,199.56,204.841,207.121,212.101,214.381,219.421,224.521,227.041,232.141" svgx:width="0.49,0.48,0.52,0.23,0.5,0.23,0.51,0.51,0.25,0.51,0.23" style="fill:rgb(0,0,0);font-family:Calibri;font-size:10.02px;stroke:none;">Table 15.4 </text>
  </g>
  <g begin="text">
   <text y="473.04" x="189.9,196.38,201.66,205.017,209.94" svgx:width="0.65,0.53,0.34,0.5,0.23" style="fill:rgb(0,0,0);font-family:Calibri;font-size:10.02px;stroke:none;">Note </text>
  </g>
  <g begin="text">
   <text y="460.86" x="246.6,253.08,258.36,261.717,266.697,269.337,271.617,276.477,281.757,285.114,289.913,292.194,294.474,297.954,302.754,307.973,312.714,317.694,319.973,325.074,327.534,332.634,334.918,338.275,341.755,344.034,346.315,348.595,350.875" svgx:width="0.65,0.53,0.34,0.5,0.27,0.23,0.49,0.53,0.34,0.48,0.23,0.23,0.35,0.48,0.52,0.47,0.5,0.23,0.51,0.25,0.51,0.23,0.34,0.35,0.23,0.23,0.23,0.23,0.53" style="fill:rgb(0,0,0);font-family:Calibri;font-size:10.02px;stroke:none;">Note: Total range 2.4 trillio</text>
  </g>
  <g begin="text">
   <text y="460.86" x="356.16,361.441,363.72,367.02,372.3,374.58,379.68,382.14,387.24,389.525,392.884,396.364,398.644,400.924,403.204,405.484,410.764,416.044,418.324,424.684,429.303,435.485,437.705,442.264" svgx:width="0.52,0.23,0.34,0.53,0.23,0.51,0.25,0.51,0.23,0.34,0.35,0.23,0.23,0.23,0.23,0.53,0.52,0.23,0.64,0.46,0.62,0.23,0.45,0.35" style="fill:rgb(0,0,0);font-family:Calibri;font-size:10.02px;stroke:none;">n to 4,8 trillion USD yr</text>
  </g>
  <g begin="text">
   <text y="460.86" x="445.74" svgx:width="0.31" style="fill:rgb(0,0,0);font-family:Calibri;font-size:10.02px;stroke:none;">-</text>
  </g>
  <g begin="text">
   <text y="460.86" x="448.8,453.9,456.415,458.64" svgx:width="0.51,0.25,0.23,0.23" style="fill:rgb(0,0,0);font-family:Calibri;font-size:10.02px;stroke:none;">1. </text>
  </g>
  <g begin="text">
   <text y="460.86" x="460.92" svgx:width="0.31" style="fill:rgb(0,0,0);font-family:Calibri;font-size:10.02px;stroke:none;">-</text>
  </g>
  <g begin="text">
   <text y="460.86" x="463.98,468.96,471.245,477.664,482.884,486.24,491.22,493.92,496.204,501.064,506.345,509.701,514.501,516.781" svgx:width="0.5,0.23,0.65,0.53,0.34,0.5,0.27,0.23,0.49,0.53,0.34,0.48,0.23,0.23" style="fill:rgb(0,0,0);font-family:Calibri;font-size:10.02px;stroke:none;">&gt; Note: Total </text>
  </g>
  <g begin="text">
   <text y="473.04" x="246.6,250.08,254.881,260.16,264.901,269.88,272.101,277.201,279.721,284.761,287.041,290.4,293.877,296.158,298.432,300.713,302.988,308.267,313.548,315.827,319.188,324.467,326.7,331.8,334.32,339.36,341.64,344.999,348.476,350.757,353.031,355.312,357.587,362.866,368.147,370.426,376.847,381.407,387.586,389.811,394.37,397.847,400.918,406.018,408.533,410.758" svgx:width="0.35,0.48,0.52,0.47,0.5,0.23,0.51,0.25,0.51,0.23,0.34,0.35,0.23,0.23,0.23,0.23,0.53,0.52,0.23,0.34,0.53,0.23,0.51,0.25,0.51,0.23,0.34,0.35,0.23,0.23,0.23,0.23,0.53,0.52,0.23,0.64,0.46,0.62,0.23,0.45,0.35,0.31,0.51,0.25,0.23,0.23" style="fill:rgb(0,0,0);font-family:Calibri;font-size:10.02px;stroke:none;">range 2.3 trillion to 4.5 trillion USD yr-1. </text>
  </g>
  <path style="fill:rgb(0,0,0);stroke:none;stroke-width:1.0;" d="M71.340 296.040 L127.560 296.040 L127.560 390.540 L71.340 390.540 L71.340 296.040 M71.340 296.040 L127.560 296.040 L127.560 390.540 L71.340 390.540 L71.340 296.040 M128.040 296.040 L184.260 296.040 L184.260 390.540 L128.040 390.540 L128.040 296.040 M128.040 296.040 L184.260 296.040 L184.260 390.540 L128.040 390.540 L128.040 296.040 M184.740 296.040 L240.960 296.040 L240.960 390.540 L184.740 390.540 L184.740 296.040 M70.860 390.600 L71.340 390.600 L71.340 391.080 L70.860 391.080 L70.860 390.600 "/>
  <path style="fill:rgb(0,0,0);stroke:none;stroke-width:1.0;" d="M71.340 390.600 L127.560 390.600 L127.560 391.080 L71.340 391.080 L71.340 390.600 "/>
  <path style="fill:rgb(0,0,0);stroke:none;stroke-width:1.0;" d="M127.560 390.600 L128.040 390.600 L128.040 391.080 L127.560 391.080 L127.560 390.600 "/>
  <path style="fill:rgb(0,0,0);stroke:none;stroke-width:1.0;" d="M128.040 390.600 L184.260 390.600 L184.260 391.080 L128.040 391.080 L128.040 390.600 "/>
  <path style="fill:rgb(0,0,0);stroke:none;stroke-width:1.0;" d="M184.260 390.600 L184.740 390.600 L184.740 391.080 L184.260 391.080 L184.260 390.600 "/>
  <path style="fill:rgb(0,0,0);stroke:none;stroke-width:1.0;" d="M184.740 390.600 L240.960 390.600 L240.960 391.080 L184.740 391.080 L184.740 390.600 "/>
  <path style="fill:rgb(0,0,0);stroke:none;stroke-width:1.0;" d="M240.960 390.600 L241.440 390.600 L241.440 391.080 L240.960 391.080 L240.960 390.600 "/>
  <path style="fill:rgb(0,0,0);stroke:none;stroke-width:1.0;" d="M523.980 390.600 L524.460 390.600 L524.460 391.080 L523.980 391.080 L523.980 390.600 "/>
  <path style="fill:rgb(0,0,0);stroke:none;stroke-width:1.0;" d="M70.860 296.040 L71.340 296.040 L71.340 390.600 L70.860 390.600 L70.860 296.040 "/>
  <path style="fill:rgb(0,0,0);stroke:none;stroke-width:1.0;" d="M127.560 296.040 L128.040 296.040 L128.040 390.600 L127.560 390.600 L127.560 296.040 "/>
  <path style="fill:rgb(0,0,0);stroke:none;stroke-width:1.0;" d="M184.260 296.040 L184.740 296.040 L184.740 390.600 L184.260 390.600 L184.260 296.040 "/>
  <path style="fill:rgb(0,0,0);stroke:none;stroke-width:1.0;" d="M240.960 296.040 L241.440 296.040 L241.440 390.600 L240.960 390.600 L240.960 296.040 "/>
  <path style="fill:rgb(0,0,0);stroke:none;stroke-width:1.0;" d="M523.980 296.040 L524.460 296.040 L524.460 390.600 L523.980 390.600 L523.980 296.040 "/>
  <g begin="text">
   <text y="555.84" x="76.5,81.841,87.121,91.921,97.201,100.558,105.538,108.958,111.242,116.282" svgx:width="0.53,0.52,0.48,0.52,0.34,0.5,0.35,0.23,0.51,0.51" style="fill:rgb(0,0,0);font-family:Calibri;font-size:10.02px;stroke:none;">Chapter 15</text>
  </g>
  <g begin="text">
   <text y="555.84" x="121.32" svgx:width="0.23" style="fill:rgb(0,0,0);font-family:Calibri;font-size:10.02px;stroke:none;"> </text>
  </g>
  <g begin="text">
   <text y="555.84" x="133.2,138.3" svgx:width="0.51,0.51" style="fill:rgb(0,0,0);font-family:Calibri;font-size:10.02px;stroke:none;">39</text>
  </g>
  <g begin="text">
   <text y="555.84" x="143.34" svgx:width="0.23" style="fill:rgb(0,0,0);font-family:Calibri;font-size:10.02px;stroke:none;"> </text>
  </g>
  <g begin="text">
   <text y="555.84" x="189.9,195.0" svgx:width="0.51,0.51" style="fill:rgb(0,0,0);font-family:Calibri;font-size:10.02px;stroke:none;">15</text>
  </g>
  <g begin="text">
   <text y="555.84" x="200.04" svgx:width="0.23" style="fill:rgb(0,0,0);font-family:Calibri;font-size:10.02px;stroke:none;"> </text>
  </g>
  <g begin="text">
   <text y="555.84" x="246.6,250.859,256.14,259.617,263.094,268.074,273.353,276.654,278.933,283.194,285.469,287.749,295.729,300.529,303.829,308.809,311.089,314.149,316.423,321.704,326.503,331.724,335.983,340.963,343.248,346.308,348.582,353.863,361.002,364.843" svgx:width="0.42,0.52,0.35,0.35,0.5,0.52,0.34,0.23,0.42,0.23,0.23,0.8,0.48,0.34,0.5,0.23,0.31,0.23,0.52,0.48,0.52,0.42,0.5,0.23,0.31,0.23,0.53,0.71,0.39,0.23" style="fill:rgb(0,0,0);font-family:Calibri;font-size:10.02px;stroke:none;">current climate finance flows </text>
  </g>
  <g begin="text">
   <text y="555.84" x="367.14" svgx:width="0.31" style="fill:rgb(0,0,0);font-family:Calibri;font-size:10.02px;stroke:none;">-</text>
  </g>
  <g begin="text">
   <text y="555.84" x="370.2,375.18" svgx:width="0.5,0.23" style="fill:rgb(0,0,0);font-family:Calibri;font-size:10.02px;stroke:none;">&gt; </text>
  </g>
  <g begin="text">
   <text y="555.84" x="377.46,380.94,385.92,390.18,395.1,400.381" svgx:width="0.35,0.5,0.42,0.5,0.52,0.34" style="fill:rgb(0,0,0);font-family:Calibri;font-size:10.02px;stroke:none;">recent</text>
  </g>
  <g begin="text">
   <text y="555.84" x="403.74" svgx:width="0.23" style="fill:rgb(0,0,0);font-family:Calibri;font-size:10.02px;stroke:none;"> </text>
  </g>
  <g begin="text">
   <text y="555.84" x="405.96,410.219,412.5,414.775,422.754,427.555,430.915,435.895,438.179,441.239,443.514,448.793,453.534,458.813,463.074,467.994,470.278,473.337,475.618,480.837,487.982" svgx:width="0.42,0.23,0.23,0.8,0.48,0.34,0.5,0.23,0.31,0.23,0.52,0.48,0.52,0.42,0.5,0.23,0.31,0.23,0.53,0.71,0.39" style="fill:rgb(0,0,0);font-family:Calibri;font-size:10.02px;stroke:none;">climate finance flows</text>
  </g>
  <g begin="text">
   <text y="555.84" x="491.88" svgx:width="0.23" style="fill:rgb(0,0,0);font-family:Calibri;font-size:10.02px;stroke:none;"> </text>
  </g>
  <path style="fill:rgb(0,0,0);stroke:none;stroke-width:1.0;" d="M71.340 201.060 L127.560 201.060 L127.560 295.560 L71.340 295.560 L71.340 201.060 M71.340 201.060 L127.560 201.060 L127.560 295.560 L71.340 295.560 L71.340 201.060 M128.040 201.060 L184.260 201.060 L184.260 295.560 L128.040 295.560 L128.040 201.060 M128.040 201.060 L184.260 201.060 L184.260 295.560 L128.040 295.560 L128.040 201.060 M184.740 201.060 L240.960 201.060 L240.960 295.560 L184.740 295.560 L184.740 201.060 M184.740 201.060 L240.960 201.060 L240.960 295.560 L184.740 295.560 L184.740 201.060 M70.860 295.560 L71.340 295.560 L71.340 296.040 L70.860 296.040 L70.860 295.560 "/>
  <path style="fill:rgb(0,0,0);stroke:none;stroke-width:1.0;" d="M71.340 295.560 L127.560 295.560 L127.560 296.040 L71.340 296.040 L71.340 295.560 "/>
  <path style="fill:rgb(0,0,0);stroke:none;stroke-width:1.0;" d="M127.560 295.560 L128.040 295.560 L128.040 296.040 L127.560 296.040 L127.560 295.560 "/>
  <path style="fill:rgb(0,0,0);stroke:none;stroke-width:1.0;" d="M128.040 295.560 L184.260 295.560 L184.260 296.040 L128.040 296.040 L128.040 295.560 "/>
  <path style="fill:rgb(0,0,0);stroke:none;stroke-width:1.0;" d="M184.260 295.560 L184.740 295.560 L184.740 296.040 L184.260 296.040 L184.260 295.560 "/>
  <path style="fill:rgb(0,0,0);stroke:none;stroke-width:1.0;" d="M184.740 295.560 L240.960 295.560 L240.960 296.040 L184.740 296.040 L184.740 295.560 "/>
  <path style="fill:rgb(0,0,0);stroke:none;stroke-width:1.0;" d="M240.960 295.560 L241.440 295.560 L241.440 296.040 L240.960 296.040 L240.960 295.560 "/>
  <path style="fill:rgb(0,0,0);stroke:none;stroke-width:1.0;" d="M523.980 295.560 L524.460 295.560 L524.460 296.040 L523.980 296.040 L523.980 295.560 "/>
  <path style="fill:rgb(0,0,0);stroke:none;stroke-width:1.0;" d="M70.860 201.060 L71.340 201.060 L71.340 295.560 L70.860 295.560 L70.860 201.060 "/>
  <path style="fill:rgb(0,0,0);stroke:none;stroke-width:1.0;" d="M127.560 201.060 L128.040 201.060 L128.040 295.560 L127.560 295.560 L127.560 201.060 "/>
  <path style="fill:rgb(0,0,0);stroke:none;stroke-width:1.0;" d="M184.260 201.060 L184.740 201.060 L184.740 295.560 L184.260 295.560 L184.260 201.060 "/>
  <path style="fill:rgb(0,0,0);stroke:none;stroke-width:1.0;" d="M240.960 201.060 L241.440 201.060 L241.440 295.560 L240.960 295.560 L240.960 201.060 "/>
  <path style="fill:rgb(0,0,0);stroke:none;stroke-width:1.0;" d="M523.980 201.060 L524.460 201.060 L524.460 295.560 L523.980 295.560 L523.980 201.060 "/>
  <g begin="text">
   <text y="650.82" x="76.5,81.841,87.121,91.921,97.201,100.558,105.538,108.958,111.242,116.282" svgx:width="0.53,0.52,0.48,0.52,0.34,0.5,0.35,0.23,0.51,0.51" style="fill:rgb(0,0,0);font-family:Calibri;font-size:10.02px;stroke:none;">Chapter 15</text>
  </g>
  <g begin="text">
   <text y="650.82" x="121.32" svgx:width="0.23" style="fill:rgb(0,0,0);font-family:Calibri;font-size:10.02px;stroke:none;"> </text>
  </g>
  <g begin="text">
   <text y="650.82" x="133.2,138.3" svgx:width="0.51,0.51" style="fill:rgb(0,0,0);font-family:Calibri;font-size:10.02px;stroke:none;">42</text>
  </g>
  <g begin="text">
   <text y="650.82" x="143.34" svgx:width="0.23" style="fill:rgb(0,0,0);font-family:Calibri;font-size:10.02px;stroke:none;"> </text>
  </g>
  <g begin="text">
   <text y="650.82" x="189.9,195.0" svgx:width="0.51,0.51" style="fill:rgb(0,0,0);font-family:Calibri;font-size:10.02px;stroke:none;">11</text>
  </g>
  <g begin="text">
   <text y="650.82" x="200.04" svgx:width="0.23" style="fill:rgb(0,0,0);font-family:Calibri;font-size:10.02px;stroke:none;"> </text>
  </g>
  <g begin="text">
   <text y="650.82" x="246.6,251.52,255.42,258.776,261.056,269.036,273.835,277.192,282.172,287.452,289.736,297.716,299.996,303.352,305.572,310.312,315.112,318.468,320.748,326.029,331.249,333.533,336.59,338.87,344.15,348.949,354.169,358.429,360.709,365.929,370.669,372.953,378.233,383.213,388.133,393.413,397.313,399.597,404.397,408.297,410.517,415.797,420.777,424.197,428.457,433.437,438.717,442.074,446.814,451.554,456.534,458.814,464.034,467.09,469.37,473.57,478.851,482.27,485.75,490.73,496.01,499.367" svgx:width="0.49,0.39,0.34,0.23,0.8,0.48,0.34,0.5,0.52,0.23,0.8,0.23,0.34,0.23,0.47,0.48,0.34,0.23,0.53,0.52,0.23,0.31,0.23,0.52,0.48,0.52,0.42,0.23,0.52,0.47,0.23,0.52,0.5,0.5,0.52,0.39,0.23,0.48,0.39,0.23,0.52,0.5,0.35,0.42,0.5,0.52,0.34,0.48,0.47,0.5,0.23,0.53,0.31,0.23,0.42,0.52,0.35,0.35,0.5,0.52,0.34,0.23" style="fill:rgb(0,0,0);font-family:Calibri;font-size:10.02px;stroke:none;">Estimated mitigation financing needs as percentage of current </text>
  </g>
  <g begin="text">
   <text y="663.06" x="246.6,252.903,259.083,264.243,266.52,269.576,275.936,280.555,286.675,291.775,296.815,301.915,306.954,310.011,312.295,316.554,321.834,329.814,334.794,338.634,340.918,343.198,348.478,350.758,355.557,358.858,361.138,365.878,369.358,374.638,379.918,385.199,390.419,392.699,397.799,400.798,405.898,413.038,415.318,418.378,423.657,427.078,429.358,434.638,439.618,444.118,449.098,451.378,456.658,461.939,466.919,472.139,474.419,478.677,483.897,489.177,494.458,497.818,501.298,503.578,508.558,512.458,514.978" svgx:width="0.63,0.62,0.52,0.23,0.3,0.64,0.46,0.62,0.51,0.51,0.51,0.51,0.3,0.23,0.42,0.53,0.8,0.5,0.39,0.23,0.23,0.52,0.23,0.48,0.34,0.23,0.48,0.35,0.53,0.52,0.52,0.52,0.23,0.51,0.31,0.51,0.71,0.23,0.31,0.53,0.35,0.23,0.52,0.5,0.45,0.5,0.23,0.53,0.52,0.5,0.52,0.23,0.42,0.53,0.52,0.52,0.34,0.35,0.23,0.5,0.39,0.25,0.23" style="fill:rgb(0,0,0);font-family:Calibri;font-size:10.02px;stroke:none;">GDP (USD2015) comes in at around 2-4% for developed countries, </text>
   <text y="675.244" x="246.6,251.4,256.68,261.961,264.185,268.985,272.465,277.745,283.026,288.246,293.527,295.751,300.851,303.844,308.944,314.045,321.184,323.468,326.529,331.808,335.228,337.512,342.793,347.773,352.273,357.253,359.533,364.754,370.034,372.315,377.595,382.276,384.555,388.814,394.033,399.314,404.594,407.955,411.434,413.715,418.694,422.594,424.815,427.871,431.771,436.751,441.73,444.015,448.634,450.915,455.594,460.875,464.355,469.335,471.555,476.655,481.755,484.215,489.315,492.372,494.592,497.648,502.929,505.149,509.889,515.169" svgx:width="0.48,0.52,0.52,0.23,0.48,0.35,0.53,0.52,0.52,0.52,0.23,0.51,0.31,0.51,0.51,0.71,0.23,0.31,0.53,0.35,0.23,0.52,0.5,0.45,0.5,0.23,0.53,0.52,0.23,0.52,0.47,0.23,0.42,0.53,0.52,0.52,0.34,0.35,0.23,0.5,0.39,0.23,0.3,0.39,0.5,0.5,0.23,0.46,0.23,0.47,0.52,0.35,0.5,0.23,0.51,0.51,0.25,0.51,0.3,0.23,0.3,0.52,0.23,0.47,0.52,0.23" style="fill:rgb(0,0,0);font-family:Calibri;font-size:10.02px;stroke:none;">and around 5-10% for developing countries (see Figure 15.4) (high </text>
   <text y="687.489" x="246.6,250.86,256.14,261.42,264.476,266.756,272.036,276.956,282.236,286.436,291.415,294.476,296.996,299.28,304.621,306.841,309.121,317.101,321.9,325.257,330.237,332.517,335.573,337.853,343.133,347.932,353.152,357.412,362.392,364.672,367.672,369.952,375.233,382.373,386.273,388.557,393.837,398.636,403.136,408.117,410.397,413.754,419.034,421.314,423.594,428.814,433.074,436.554,441.534,446.334,450.234,455.214,457.494,462.714,467.275,469.554,472.554,477.354,481.614,484.971,490.191,493.671,495.951,501.058,504.114,509.154" svgx:width="0.42,0.53,0.52,0.31,0.23,0.52,0.5,0.52,0.42,0.5,0.3,0.25,0.23,0.53,0.23,0.23,0.8,0.48,0.34,0.5,0.23,0.31,0.23,0.52,0.48,0.52,0.42,0.5,0.23,0.31,0.23,0.53,0.71,0.39,0.23,0.52,0.48,0.45,0.5,0.23,0.34,0.53,0.23,0.23,0.52,0.42,0.35,0.5,0.48,0.39,0.5,0.23,0.52,0.45,0.23,0.31,0.48,0.42,0.34,0.53,0.35,0.23,0.51,0.31,0.51,0.23" style="fill:rgb(0,0,0);font-family:Calibri;font-size:10.02px;stroke:none;">confidence). Climate finance flows have to increase by factor 4-8 </text>
   <text y="699.673" x="246.59,248.87,254.15,256.43,261.71,266.69,271.19,276.17,278.451,283.73,289.011,291.291,296.511,301.25,303.474,307.674,312.954,318.235,323.516,326.875,330.355,332.636,337.616,341.515,343.795,348.535,353.816,359.097,361.316,366.349,369.405,374.505,376.785,379.065,384.346,386.566,391.847,396.827,401.327,406.307,408.587,413.867,419.147,424.067,429.348,431.627,435.886,441.105,446.386,451.666,455.026,458.506,460.786,465.766,469.666,472.12" svgx:width="0.23,0.52,0.23,0.52,0.5,0.45,0.5,0.23,0.53,0.52,0.23,0.52,0.47,0.23,0.42,0.53,0.52,0.52,0.34,0.35,0.23,0.5,0.39,0.23,0.48,0.52,0.52,0.23,0.51,0.31,0.51,0.23,0.23,0.52,0.23,0.52,0.5,0.45,0.5,0.23,0.53,0.52,0.5,0.52,0.23,0.42,0.53,0.52,0.52,0.34,0.35,0.23,0.5,0.39,0.25,0.23" style="fill:rgb(0,0,0);font-family:Calibri;font-size:10.02px;stroke:none;">in developing countries and 2-5 in developed countries. </text>
   <text y="711.857" x="246.58" svgx:width="0.23" style="fill:rgb(0,0,0);font-family:Calibri;font-size:10.02px;stroke:none;"> </text>
   <text y="724.102" x="246.58,249.636,254.616,256.901,261.82,265.718,269.078,271.358,279.335,284.135,287.492,292.472,297.691,299.976,307.895,310.176,313.533,315.812,320.553,325.352,328.709,330.989,336.27,341.551,343.83,346.886,349.107,354.386,359.186,364.405,368.605,370.885,376.166,380.905,383.125,388.405,393.385,398.365,403.645,407.545,409.825,414.624,418.464,420.749,425.968,430.949,434.428,438.688,443.668,448.949,452.306,457.045,461.786,466.765,469.045,474.265,477.322,479.555,487.535,492.515,497.315,502.595" svgx:width="0.31,0.5,0.23,0.49,0.39,0.34,0.23,0.8,0.48,0.34,0.5,0.52,0.23,0.8,0.23,0.34,0.23,0.47,0.48,0.34,0.23,0.53,0.52,0.23,0.31,0.23,0.52,0.48,0.52,0.42,0.23,0.52,0.47,0.23,0.52,0.5,0.5,0.52,0.39,0.23,0.48,0.39,0.23,0.52,0.5,0.35,0.42,0.5,0.52,0.34,0.48,0.47,0.5,0.23,0.53,0.31,0.23,0.8,0.5,0.48,0.52,0.23" style="fill:rgb(0,0,0);font-family:Calibri;font-size:10.02px;stroke:none;">-&gt; Estimated mitigation financing needs as percentage of mean </text>
   <text y="736.286" x="246.58,251.68,256.72,261.82,266.921,269.917,275.017,280.057,285.157,290.197,292.477,298.776,304.898,310.059,312.338,314.619,319.898,322.178,328.599,333.158,339.337,344.377,349.477,354.517,359.616,361.84,366.04,371.321,379.301,384.281,388.182,390.461,392.741,398.021,400.301,405.1,408.457,410.677,415.477,418.957,424.177,429.457,434.737,439.957,442.242,447.341,450.337,455.437,462.577,464.857,467.913,473.193,476.673" svgx:width="0.51,0.51,0.51,0.51,0.31,0.51,0.51,0.51,0.51,0.23,0.63,0.62,0.52,0.23,0.23,0.52,0.23,0.64,0.46,0.62,0.51,0.51,0.51,0.51,0.23,0.42,0.53,0.8,0.5,0.39,0.23,0.23,0.52,0.23,0.48,0.34,0.23,0.48,0.35,0.53,0.52,0.52,0.52,0.23,0.51,0.31,0.51,0.71,0.23,0.31,0.53,0.35,0.23" style="fill:rgb(0,0,0);font-family:Calibri;font-size:10.02px;stroke:none;">2017-2020 GDP in USD2015 comes in at around 2-4% for </text>
   <text y="748.531" x="246.58,251.861,256.84,261.339,266.32,268.6,273.88,279.161,284.141,289.421,291.641,295.899,301.119,306.339,311.62,314.98,318.46,320.74,325.72,329.62,332.145,334.424,339.164,344.444,349.725,352.009,356.809,360.289,365.509,370.79,376.07,381.29,383.574,388.664,391.66,396.76,403.904,406.189,409.249,414.529,418.009,420.229,425.449,430.429,434.929,439.909,442.193,447.473,452.753,455.033,460.314,465.054,467.273,471.534,476.814,482.034,487.315,490.674,494.154,496.439,501.419,505.318" svgx:width="0.52,0.5,0.45,0.5,0.23,0.53,0.52,0.5,0.52,0.23,0.42,0.53,0.52,0.52,0.34,0.35,0.23,0.5,0.39,0.25,0.23,0.48,0.52,0.52,0.23,0.48,0.35,0.53,0.52,0.52,0.52,0.23,0.51,0.31,0.51,0.71,0.23,0.31,0.53,0.35,0.23,0.52,0.5,0.45,0.5,0.23,0.53,0.52,0.23,0.52,0.47,0.23,0.42,0.53,0.52,0.52,0.34,0.35,0.23,0.5,0.39,0.23" style="fill:rgb(0,0,0);font-family:Calibri;font-size:10.02px;stroke:none;">developed countries, and around 4-9% for developing countries </text>
  </g>
  <g begin="text">
   <text y="760.68" x="246.6,249.656,253.556,258.536,263.516,265.8,270.42,272.7,277.38,282.661,286.141,291.121,293.341,298.442,303.542,306.003,311.103,314.159,316.379,319.435,324.716,326.936,331.676,336.956,339.177,343.435,348.716,353.935,356.995,359.275,364.495,369.475,374.756,379.014,383.934,386.99,389.51,391.795,397.135,399.414,401.695,409.675,414.474,417.835,422.815,425.034,428.094,430.375,435.655,440.456,445.737,449.937,454.917,457.196,460.257,462.537,467.817,474.957,478.857,481.136,486.357,491.156,495.657,500.637,502.917,506.276,511.557" svgx:width="0.3,0.39,0.5,0.5,0.23,0.46,0.23,0.47,0.52,0.35,0.5,0.23,0.51,0.51,0.25,0.51,0.3,0.23,0.3,0.52,0.23,0.47,0.52,0.23,0.42,0.53,0.52,0.31,0.23,0.52,0.5,0.52,0.42,0.5,0.3,0.25,0.23,0.53,0.23,0.23,0.8,0.48,0.34,0.5,0.23,0.31,0.23,0.52,0.48,0.52,0.42,0.5,0.23,0.31,0.23,0.53,0.71,0.39,0.23,0.52,0.48,0.45,0.5,0.23,0.34,0.53,0.23" style="fill:rgb(0,0,0);font-family:Calibri;font-size:10.02px;stroke:none;">(see Figure 15.4) (high confidence). Climate finance flows have to </text>
  </g>
  <path style="fill:rgb(0,0,0);stroke:none;stroke-width:1.0;" d="M70.860 200.580 L71.340 200.580 L71.340 201.060 L70.860 201.060 L70.860 200.580 "/>
  <path style="fill:rgb(0,0,0);stroke:none;stroke-width:1.0;" d="M71.340 200.580 L127.560 200.580 L127.560 201.060 L71.340 201.060 L71.340 200.580 "/>
  <path style="fill:rgb(0,0,0);stroke:none;stroke-width:1.0;" d="M127.560 200.580 L128.040 200.580 L128.040 201.060 L127.560 201.060 L127.560 200.580 "/>
  <path style="fill:rgb(0,0,0);stroke:none;stroke-width:1.0;" d="M128.040 200.580 L184.260 200.580 L184.260 201.060 L128.040 201.060 L128.040 200.580 "/>
  <path style="fill:rgb(0,0,0);stroke:none;stroke-width:1.0;" d="M184.260 200.580 L184.740 200.580 L184.740 201.060 L184.260 201.060 L184.260 200.580 "/>
  <path style="fill:rgb(0,0,0);stroke:none;stroke-width:1.0;" d="M184.740 200.580 L240.960 200.580 L240.960 201.060 L184.740 201.060 L184.740 200.580 "/>
  <path style="fill:rgb(0,0,0);stroke:none;stroke-width:1.0;" d="M240.960 200.580 L241.440 200.580 L241.440 201.060 L240.960 201.060 L240.960 200.580 "/>
  <path style="fill:rgb(0,0,0);stroke:none;stroke-width:1.0;" d="M523.980 200.580 L524.460 200.580 L524.460 201.060 L523.980 201.060 L523.980 200.580 "/>
  <path style="fill:rgb(0,0,0);stroke:none;stroke-width:1.0;" d="M70.860 78.000 L71.340 78.000 L71.340 78.480 L70.860 78.480 L70.860 78.000 "/>
  <path style="fill:rgb(0,0,0);stroke:none;stroke-width:1.0;" d="M70.860 78.000 L71.340 78.000 L71.340 78.480 L70.860 78.480 L70.860 78.000 "/>
  <path style="fill:rgb(0,0,0);stroke:none;stroke-width:1.0;" d="M71.340 78.000 L127.560 78.000 L127.560 78.480 L71.340 78.480 L71.340 78.000 "/>
  <path style="fill:rgb(0,0,0);stroke:none;stroke-width:1.0;" d="M127.560 78.000 L128.040 78.000 L128.040 78.480 L127.560 78.480 L127.560 78.000 "/>
  <path style="fill:rgb(0,0,0);stroke:none;stroke-width:1.0;" d="M128.040 78.000 L184.260 78.000 L184.260 78.480 L128.040 78.480 L128.040 78.000 "/>
  <path style="fill:rgb(0,0,0);stroke:none;stroke-width:1.0;" d="M184.260 78.000 L184.740 78.000 L184.740 78.480 L184.260 78.480 L184.260 78.000 "/>
  <path style="fill:rgb(0,0,0);stroke:none;stroke-width:1.0;" d="M184.740 78.000 L240.960 78.000 L240.960 78.480 L184.740 78.480 L184.740 78.000 "/>
  <path style="fill:rgb(0,0,0);stroke:none;stroke-width:1.0;" d="M240.960 78.000 L241.440 78.000 L241.440 78.480 L240.960 78.480 L240.960 78.000 "/>
  <path style="fill:rgb(0,0,0);stroke:none;stroke-width:1.0;" d="M523.980 78.000 L524.460 78.000 L524.460 78.480 L523.980 78.480 L523.980 78.000 "/>
  <path style="fill:rgb(0,0,0);stroke:none;stroke-width:1.0;" d="M523.980 78.000 L524.460 78.000 L524.460 78.480 L523.980 78.480 L523.980 78.000 "/>
 </g>
</svg>
