<?xml version="1.0" encoding="UTF-8"?>
<svg height="813.28" width="536.201" xmlns="http://www.w3.org/2000/svg">
 <g id="page" xmlns:svgx="http://www.xml-cml.org/schema/svgx">
  <g begin="text">
   <text y="45.72" x="72.024,78.162,81.231,86.751,91.587,94.7,97.46,105.376,110.896,116.416,121.218,124.928,130.448,138.971,143.872,149.392,152.517,155.277,163.082,166.195,170.39,173.504,177.103,180.216,185.736,191.135,194.137,197.251,202.771,208.291" svgx:width="0.56,0.28,0.5,0.44,0.28,0.25,0.72,0.5,0.5,0.44,0.33,0.5,0.78,0.44,0.5,0.28,0.25,0.72,0.28,0.39,0.28,0.33,0.28,0.5,0.5,0.28,0.28,0.5,0.5,0.25" style="fill:rgb(0,0,0);font-family:TimesNewRomanPSMT;font-size:11.04px;stroke:none;">Final Government Distribution </text>
  </g>
  <g begin="text">
   <text y="45.72" x="211.01" svgx:width="0.25" style="fill:rgb(0,0,0);font-family:TimesNewRomanPSMT;font-size:11.04px;stroke:none;"> </text>
  </g>
  <g begin="text">
   <text y="45.72" x="273.41,280.729,286.249,291.151,296.671,299.796,304.598,308.307,311.067,316.587" svgx:width="0.67,0.5,0.44,0.5,0.28,0.44,0.33,0.25,0.5,0.5" style="fill:rgb(0,0,0);font-family:TimesNewRomanPSMT;font-size:11.04px;stroke:none;">Chapter 15</text>
  </g>
  <g begin="text">
   <text y="45.72" x="322.03" svgx:width="0.25" style="fill:rgb(0,0,0);font-family:TimesNewRomanPSMT;font-size:11.04px;stroke:none;"> </text>
  </g>
  <g begin="text">
   <text y="45.72" x="443.38,446.979,453.117,460.415,467.734,470.494,478.41,485.73,491.25,494.01,504.431,512.402,516.078,519.689" svgx:width="0.33,0.56,0.67,0.67,0.25,0.72,0.67,0.5,0.25,0.94,0.72,0.33,0.33,0.33" style="fill:rgb(0,0,0);font-family:TimesNewRomanPSMT;font-size:11.04px;stroke:none;">IPCC AR6 WGIII</text>
  </g>
  <g begin="text">
   <text y="45.72" x="523.44" svgx:width="0.25" style="fill:rgb(0,0,0);font-family:TimesNewRomanPSMT;font-size:11.04px;stroke:none;"> </text>
  </g>
  <g begin="text">
   <text y="59.52" x="72.024" svgx:width="0.23" style="fill:rgb(0,0,0);font-family:Calibri;font-size:11.04px;stroke:none;"> </text>
  </g>
  <g begin="text">
   <text y="803.28" x="72.024,79.94,85.46,88.22,96.135,101.655,105.365" svgx:width="0.72,0.5,0.25,0.72,0.5,0.33,0.25" style="fill:rgb(0,0,0);font-family:TimesNewRomanPS-BoldMT;font-size:11.04px;stroke:none;">Do Not </text>
  </g>
  <g begin="text">
   <text y="803.28" x="108.14,116.056,119.169,122.768,127.67,130.43,133.09,141.724,147.862,153.382,157.058,161.883,164.643,170.163,175.064,177.824,185.795,188.765,192.96,196.67,201.572,204.696,210.834,216.818,220.527" svgx:width="0.72,0.28,0.33,0.44,0.25,0.25,0.78,0.56,0.5,0.33,0.44,0.25,0.5,0.44,0.25,0.72,0.28,0.39,0.33,0.44,0.28,0.56,0.56,0.33,0.44" style="fill:rgb(0,0,0);font-family:TimesNewRomanPS-BoldMT;font-size:11.04px;stroke:none;">Cite, Quote or Distribute</text>
  </g>
  <g begin="text">
   <text y="803.28" x="225.41" svgx:width="0.25" style="fill:rgb(0,0,0);font-family:TimesNewRomanPS-BoldMT;font-size:11.04px;stroke:none;"> </text>
  </g>
  <g begin="text">
   <text y="803.28" x="294.07,299.59" svgx:width="0.5,0.5" style="fill:rgb(0,0,0);font-family:TimesNewRomanPSMT;font-size:11.04px;stroke:none;">15</text>
  </g>
  <g begin="text">
   <text y="803.28" x="305.11" svgx:width="0.33" style="fill:rgb(0,0,0);font-family:TimesNewRomanPSMT;font-size:11.04px;stroke:none;">-</text>
  </g>
  <g begin="text">
   <text y="803.28" x="308.71,314.23,319.75" svgx:width="0.5,0.5,0.5" style="fill:rgb(0,0,0);font-family:TimesNewRomanPSMT;font-size:11.04px;stroke:none;">157</text>
  </g>
  <g begin="text">
   <text y="803.28" x="325.27" svgx:width="0.25" style="fill:rgb(0,0,0);font-family:TimesNewRomanPSMT;font-size:11.04px;stroke:none;"> </text>
  </g>
  <g begin="text">
   <text y="803.28" x="328.03" svgx:width="0.25" style="fill:rgb(0,0,0);font-family:TimesNewRomanPSMT;font-size:11.04px;stroke:none;"> </text>
  </g>
  <g begin="text">
   <text y="803.28" x="450.1,456.845,462.365,465.435,470.259,473.372,476.132,481.652,486.554,491.975,496.876,501.204,504.207" svgx:width="0.61,0.5,0.28,0.44,0.28,0.25,0.5,0.44,0.5,0.44,0.39,0.28,0.25" style="fill:rgb(0,0,0);font-family:TimesNewRomanPSMT;font-size:11.04px;stroke:none;">Total pages: </text>
  </g>
  <g begin="text">
   <text y="803.28" x="506.98,512.5,518.02" svgx:width="0.5,0.5,0.5" style="fill:rgb(0,0,0);font-family:TimesNewRomanPSMT;font-size:11.04px;stroke:none;">157</text>
  </g>
  <g begin="text">
   <text y="803.28" x="523.44" svgx:width="0.25" style="fill:rgb(0,0,0);font-family:TimesNewRomanPSMT;font-size:11.04px;stroke:none;"> </text>
  </g>
  <g begin="text">
   <text y="82.34" x="72.024,78.769,84.289,89.191,94.711,100.231,102.991,105.751,107.175,115.091,117.851,120.611,123.37100000000001,124.795,134.61,137.37,140.13,141.587,149.503,155.023,159.924,165.444,168.204,170.964,172.411,177.312,182.832,188.352,191.112,192.437,199.183,201.943,204.703,206.105,214.02,218.922,224.442,229.962,232.722,235.482,236.929,242.449,247.969,253.489,259.009,262.122,264.882,266.306,274.222,279.123,284.643,289.567,292.327,293.751,301.071,306.469,309.583,314.981,319.883,323.615,327.909,330.669,332.126,337.646,340.649,343.763,349.161,352.274,355.034,356.459,361.36,369.894,373.008,377.203,381.497,384.633,390.153,395.551,399.846,402.606,404.063,407.176,410.775,415.677,421.197,424.211,429.731,435.13,437.89,439.314,443.608,448.543,454.063,458.965,467.499,472.401,476.728,479.488,480.912,486.432,490.031,495.551,504.185,509.583,512.697" svgx:width="0.61,0.5,0.44,0.5,0.5,0.25,0.25,0.55,0.72,0.25,0.25,0.25,0.55,0.89,0.25,0.25,0.55,0.72,0.5,0.44,0.5,0.25,0.25,0.55,0.44,0.5,0.5,0.25,0.55,0.61,0.25,0.25,0.55,0.72,0.44,0.5,0.5,0.25,0.25,0.55,0.5,0.5,0.5,0.5,0.28,0.25,0.55,0.72,0.44,0.5,0.44,0.25,0.55,0.67,0.5,0.28,0.5,0.44,0.33,0.39,0.25,0.55,0.5,0.28,0.28,0.5,0.28,0.25,0.55,0.44,0.78,0.28,0.39,0.39,0.28,0.5,0.5,0.39,0.25,0.55,0.28,0.33,0.44,0.5,0.28,0.5,0.5,0.25,0.55,0.39,0.44,0.5,0.44,0.78,0.44,0.39,0.25,0.55,0.5,0.33,0.5,0.78,0.5,0.28,0.44" style="fill:rgb(0,0,0);font-family:TimesNewRomanPSMT;font-size:11.04px;stroke:none;">Zhang, H., M. Duan, and Z. Deng, 2019: Have China’s pilot emissions trading schemes promote</text>
  </g>
  <g begin="text">
   <text y="82.34" x="518.04,523.44" svgx:width="0.5,0.25" style="fill:rgb(0,0,0);font-family:TimesNewRomanPSMT;font-size:11.04px;stroke:none;">d </text>
  </g>
  <g begin="text">
   <text y="82.34" x="48.36" svgx:width="0.51" style="fill:rgb(0,0,0);font-family:Calibri;font-size:11.04px;stroke:none;">1</text>
  </g>
  <g begin="text">
   <text y="82.34" x="54.024" svgx:width="0.23" style="fill:rgb(0,0,0);font-family:Calibri;font-size:11.04px;stroke:none;"> </text>
  </g>
  <g begin="text">
   <text y="96.02" x="96.024,100.926,105.85,109.559,115.079,120.478,125.998,129.221,134.123,142.657,145.77,150.065,154.293,157.406,162.926,168.446,171.67,175.269,180.171,185.691,191.211,196.024,199.138,202.141,207.661,213.181,217.376" svgx:width="0.44,0.44,0.33,0.5,0.5,0.5,0.25,0.44,0.78,0.28,0.39,0.39,0.28,0.5,0.5,0.25,0.33,0.44,0.5,0.5,0.44,0.28,0.28,0.5,0.5,0.39,0.44" style="fill:rgb(0,0,0);font-family:TimesNewRomanPSMT;font-size:11.04px;stroke:none;">carbon emission reductions?</text>
  </g>
  <g begin="text">
   <text y="96.02" x="222.41" svgx:width="0.5" style="fill:rgb(0,0,0);font-family:TimesNewRomanPSMT;font-size:11.04px;stroke:none;">–</text>
  </g>
  <g begin="text">
   <text y="96.02" x="227.93" svgx:width="0.25" style="fill:rgb(0,0,0);font-family:TimesNewRomanPSMT;font-size:11.04px;stroke:none;"> </text>
  </g>
  <g begin="text">
   <text y="96.02" x="231.17,234.283,239.803,244.705,247.951,252.853,258.273,261.386,266.906,271.808,277.229,282.131,287.054,290.278,293.877,297.587,303.107,311.74,314.853,317.967,323.487,329.007,334.527,338.722,341.835,345.434,348.547,353.449,356.573,359.797,363.992,369.512" svgx:width="0.28,0.5,0.44,0.25,0.44,0.5,0.28,0.5,0.44,0.5,0.44,0.44,0.25,0.33,0.33,0.5,0.78,0.25,0.28,0.5,0.5,0.5,0.39,0.28,0.33,0.28,0.44,0.28,0.25,0.39,0.5,0.5" style="fill:rgb(0,0,0);font-family:TimesNewRomanPSMT;font-size:11.04px;stroke:none;">the evidence from industrial sub</text>
  </g>
  <g begin="text">
   <text y="96.02" x="375.19" svgx:width="0.33" style="fill:rgb(0,0,0);font-family:TimesNewRomanPSMT;font-size:11.04px;stroke:none;">-</text>
  </g>
  <g begin="text">
   <text y="96.02" x="378.79,383.085,388.019,392.822,395.935,401.455,405.054,409.349,412.605,417.507,420.632,423.855,426.969,432.367,437.269,440.515,446.035,449.744,455.264,460.663,463.776,469.296,474.098,477.212,482.113,485.238,488.351,491.464,496.366,501.886,506.7,509.813,512.573" svgx:width="0.39,0.44,0.44,0.28,0.5,0.33,0.39,0.25,0.44,0.28,0.25,0.28,0.5,0.44,0.25,0.5,0.33,0.5,0.5,0.28,0.5,0.44,0.28,0.44,0.28,0.25,0.28,0.44,0.5,0.44,0.28,0.25,0.25" style="fill:rgb(0,0,0);font-family:TimesNewRomanPSMT;font-size:11.04px;stroke:none;">sectors at the provincial level. </text>
  </g>
  <g begin="text">
   <text y="96.02" x="516.0,520.802,523.441" svgx:width="0.44,0.25,0.25" style="fill:rgb(0,0,0);font-family:TimesNewRomanPS-ItalicMT;font-size:11.04px;stroke:none;">J. </text>
  </g>
  <g begin="text">
   <text y="96.02" x="48.36" svgx:width="0.51" style="fill:rgb(0,0,0);font-family:Calibri;font-size:11.04px;stroke:none;">2</text>
  </g>
  <g begin="text">
   <text y="96.02" x="54.024" svgx:width="0.23" style="fill:rgb(0,0,0);font-family:Calibri;font-size:11.04px;stroke:none;"> </text>
  </g>
  <g begin="text">
   <text y="109.7" x="96.024,103.343,106.457,111.359,116.879,122.399,125.159,127.919,134.531,138.826,144.346,149.866" svgx:width="0.67,0.28,0.44,0.5,0.5,0.25,0.25,0.61,0.39,0.5,0.5,0.25" style="fill:rgb(0,0,0);font-family:TimesNewRomanPS-ItalicMT;font-size:11.04px;stroke:none;">Clean. Prod.</text>
  </g>
  <g begin="text">
   <text y="109.7" x="152.66,155.42" svgx:width="0.25,0.25" style="fill:rgb(0,0,0);font-family:TimesNewRomanPSMT;font-size:11.04px;stroke:none;">, </text>
  </g>
  <g begin="text">
   <text y="109.7" x="158.18,163.7,169.099" svgx:width="0.5,0.5,0.5" style="fill:rgb(0,0,0);font-family:TimesNewRomanPS-BoldMT;font-size:11.04px;stroke:none;">234</text>
  </g>
  <g begin="text">
   <text y="109.7" x="174.65,177.41,180.17,185.69,191.21" svgx:width="0.25,0.25,0.5,0.5,0.5" style="fill:rgb(0,0,0);font-family:TimesNewRomanPSMT;font-size:11.04px;stroke:none;">, 912</text>
  </g>
  <g begin="text">
   <text y="109.7" x="196.73" svgx:width="0.5" style="fill:rgb(0,0,0);font-family:TimesNewRomanPSMT;font-size:11.04px;stroke:none;">–</text>
  </g>
  <g begin="text">
   <text y="109.7" x="202.13,207.65,213.17,218.569,221.329,224.089,229.609,235.129,238.131,241.245,246.765,252.285,255.045,260.565,266.085,271.483,277.003,280.006,283.119,285.879,288.882,293.784,296.908,301.711,307.231,310.94,316.46,319.22,324.619,330.139,335.659,341.057,343.817,349.337,354.857,357.617,363.137,368.657,374.177" svgx:width="0.5,0.5,0.5,0.25,0.25,0.5,0.5,0.28,0.28,0.5,0.5,0.25,0.5,0.5,0.5,0.5,0.28,0.28,0.25,0.28,0.44,0.28,0.44,0.5,0.33,0.5,0.25,0.5,0.5,0.5,0.5,0.25,0.5,0.5,0.25,0.5,0.5,0.5,0.25" style="fill:rgb(0,0,0);font-family:TimesNewRomanPSMT;font-size:11.04px;stroke:none;">924, doi:10.1016/j.jclepro.2019.06.247.</text>
  </g>
  <g begin="text">
   <text y="109.7" x="376.87" svgx:width="0.25" style="fill:rgb(0,0,0);font-family:TimesNewRomanPSMT;font-size:11.04px;stroke:none;"> </text>
  </g>
  <g begin="text">
   <text y="109.7" x="48.36" svgx:width="0.51" style="fill:rgb(0,0,0);font-family:Calibri;font-size:11.04px;stroke:none;">3</text>
  </g>
  <g begin="text">
   <text y="109.7" x="54.024" svgx:width="0.23" style="fill:rgb(0,0,0);font-family:Calibri;font-size:11.04px;stroke:none;"> </text>
  </g>
  <g begin="text">
   <text y="131.3" x="72.024,78.769,84.289,89.191,94.711,100.231,102.991,105.972,116.294,119.054,121.814,124.806,129.708,135.228,140.748,143.751,151.667,154.427,157.297,163.435,168.337,173.857,176.617,179.609,185.129,190.527,196.047,201.567,204.681,207.673,213.667,216.78,222.3,227.82,233.34,236.332,241.852,247.251,250.243,253.356,258.755,263.656,266.659,272.179,276.982,285.615,290.517,296.037,301.457,304.449,309.848,313.557,316.549,321.451,324.465,327.467,336.101,341.003,344.016,348.918,351.921,355.52,358.633,364.153,368.956,374.476,379.378,384.301,387.172,390.881,396.401,400.0,402.992,408.512,413.414,418.934,423.747,426.861,432.259,437.779,440.892,446.412,451.932,454.924,459.727,465.247,470.767,476.287,479.289,482.999,486.002,490.904,495.231" svgx:width="0.61,0.5,0.44,0.5,0.5,0.25,0.25,0.94,0.25,0.25,0.25,0.44,0.5,0.5,0.25,0.72,0.25,0.25,0.56,0.44,0.5,0.25,0.25,0.5,0.5,0.5,0.5,0.28,0.25,0.56,0.28,0.5,0.5,0.5,0.25,0.5,0.5,0.25,0.28,0.5,0.44,0.25,0.5,0.44,0.78,0.44,0.5,0.5,0.25,0.5,0.33,0.25,0.44,0.28,0.28,0.78,0.44,0.28,0.44,0.25,0.33,0.28,0.5,0.44,0.5,0.44,0.44,0.25,0.33,0.5,0.33,0.25,0.5,0.44,0.5,0.44,0.28,0.5,0.5,0.28,0.5,0.5,0.25,0.44,0.5,0.5,0.5,0.28,0.33,0.28,0.44,0.39,0.25" style="fill:rgb(0,0,0);font-family:TimesNewRomanPSMT;font-size:11.04px;stroke:none;">Zhang, W., and X. Pan, 2016: Study on the demand of climate finance for developing countries </text>
  </g>
  <g begin="text">
   <text y="131.3" x="498.58,503.979,508.88,513.208,518.11,523.409" svgx:width="0.5,0.44,0.39,0.44,0.5,0.25" style="fill:rgb(0,0,0);font-family:TimesNewRomanPSMT;font-size:11.04px;stroke:none;">based </text>
  </g>
  <g begin="text">
   <text y="131.3" x="48.36" svgx:width="0.51" style="fill:rgb(0,0,0);font-family:Calibri;font-size:11.04px;stroke:none;">4</text>
  </g>
  <g begin="text">
   <text y="131.3" x="54.024" svgx:width="0.23" style="fill:rgb(0,0,0);font-family:Calibri;font-size:11.04px;stroke:none;"> </text>
  </g>
  <g begin="text">
   <text y="144.98" x="96.024,101.544,107.064,109.824,114.119,119.639,125.059,133.692,136.695,139.809,142.812,147.713,153.233,155.993,159.614,167.53,175.446,182.765,185.525" svgx:width="0.5,0.5,0.25,0.39,0.5,0.5,0.78,0.28,0.28,0.28,0.44,0.5,0.25,0.33,0.72,0.72,0.67,0.25,0.25" style="fill:rgb(0,0,0);font-family:TimesNewRomanPSMT;font-size:11.04px;stroke:none;">on submitted INDC. </text>
  </g>
  <g begin="text">
   <text y="144.98" x="188.33,195.075,200.595,205.497,208.257,211.017,218.326,221.439,224.552,232.468,235.228,237.988,245.307,250.827,256.347,261.746,267.266,270.026,272.786,279.531,284.433,288.728" svgx:width="0.61,0.5,0.44,0.25,0.25,0.67,0.28,0.28,0.72,0.25,0.25,0.67,0.5,0.5,0.5,0.5,0.25,0.25,0.61,0.44,0.39,0.25" style="fill:rgb(0,0,0);font-family:TimesNewRomanPS-ItalicMT;font-size:11.04px;stroke:none;">Adv. Clim. Chang. Res.</text>
  </g>
  <g begin="text">
   <text y="144.98" x="291.55,294.19" svgx:width="0.25,0.25" style="fill:rgb(0,0,0);font-family:TimesNewRomanPSMT;font-size:11.04px;stroke:none;">, </text>
  </g>
  <g begin="text">
   <text y="144.98" x="296.95" svgx:width="0.5" style="fill:rgb(0,0,0);font-family:TimesNewRomanPS-BoldMT;font-size:11.04px;stroke:none;">7</text>
  </g>
  <g begin="text">
   <text y="144.98" x="302.47,306.19" svgx:width="0.33,0.5" style="fill:rgb(0,0,0);font-family:TimesNewRomanPSMT;font-size:11.04px;stroke:none;">(1</text>
  </g>
  <g begin="text">
   <text y="144.98" x="311.59" svgx:width="0.5" style="fill:rgb(0,0,0);font-family:TimesNewRomanPSMT;font-size:11.04px;stroke:none;">–</text>
  </g>
  <g begin="text">
   <text y="144.98" x="317.11,322.63,326.339,329.099,331.859,337.258" svgx:width="0.5,0.33,0.25,0.25,0.5,0.5" style="fill:rgb(0,0,0);font-family:TimesNewRomanPSMT;font-size:11.04px;stroke:none;">2), 99</text>
  </g>
  <g begin="text">
   <text y="144.98" x="342.79" svgx:width="0.5" style="fill:rgb(0,0,0);font-family:TimesNewRomanPSMT;font-size:11.04px;stroke:none;">–</text>
  </g>
  <g begin="text">
   <text y="144.98" x="348.31,353.83,359.35,364.87,367.63,370.39,375.91,381.309,384.422,387.425,392.945,398.465,401.225,406.745,412.265,417.785,423.183,426.296,429.299,432.059,436.961,441.885,446.687,450.397,455.299,457.959,463.479,468.999,474.519,480.039,482.799,488.319,493.839,496.599,502.119,507.518,513.038" svgx:width="0.5,0.5,0.5,0.25,0.25,0.5,0.5,0.28,0.28,0.5,0.5,0.25,0.5,0.5,0.5,0.5,0.28,0.28,0.25,0.44,0.44,0.44,0.33,0.44,0.25,0.5,0.5,0.5,0.5,0.25,0.5,0.5,0.25,0.5,0.5,0.5,0.25" style="fill:rgb(0,0,0);font-family:TimesNewRomanPSMT;font-size:11.04px;stroke:none;">104, doi:10.1016/j.accre.2016.05.002.</text>
  </g>
  <g begin="text">
   <text y="144.98" x="515.76" svgx:width="0.25" style="fill:rgb(0,0,0);font-family:TimesNewRomanPSMT;font-size:11.04px;stroke:none;"> </text>
  </g>
  <g begin="text">
   <text y="144.98" x="48.36" svgx:width="0.51" style="fill:rgb(0,0,0);font-family:Calibri;font-size:11.04px;stroke:none;">5</text>
  </g>
  <g begin="text">
   <text y="144.98" x="54.024" svgx:width="0.23" style="fill:rgb(0,0,0);font-family:Calibri;font-size:11.04px;stroke:none;"> </text>
  </g>
  <g begin="text">
   <text y="166.58" x="72.024,78.769,84.289,89.191,94.711,100.231,102.991,105.751,108.489,116.405,119.165,121.925,124.685,127.434,132.954,138.474,143.872,149.392,152.506,155.266,158.015,165.93,170.733,175.634,180.558,183.561,188.463,192.084,196.986,200.11,203.113,208.633,214.153,216.91299999999998,219.662,227.578,232.479,237.403,242.206,246.5,250.839,253.599,256.227,259.34,264.86,267.62,270.369,277.688,280.691,285.593,290.517,296.037,298.79699999999997,301.546,308.865,314.264,319.784,325.304,328.417,333.937,339.457,342.217,344.845,355.266,358.28,361.393,364.507,367.267,370.016,377.214,382.116,387.636,393.156,396.169,399.879,404.781,407.541,410.19,415.092,417.852,420.623,428.539,433.341,438.243,441.974" svgx:width="0.61,0.5,0.44,0.5,0.5,0.25,0.25,0.55,0.72,0.25,0.25,0.25,0.55,0.5,0.5,0.5,0.5,0.28,0.25,0.55,0.72,0.44,0.44,0.44,0.28,0.44,0.33,0.44,0.28,0.28,0.5,0.5,0.25,0.55,0.72,0.44,0.44,0.44,0.39,0.39,0.25,0.55,0.28,0.5,0.25,0.55,0.67,0.28,0.44,0.44,0.5,0.25,0.55,0.67,0.5,0.5,0.5,0.28,0.5,0.5,0.25,0.55,0.94,0.28,0.28,0.28,0.25,0.55,0.67,0.44,0.5,0.5,0.28,0.33,0.44,0.25,0.55,0.44,0.25,0.55,0.72,0.44,0.44,0.33,0.28" style="fill:rgb(0,0,0);font-family:TimesNewRomanPSMT;font-size:11.04px;stroke:none;">Zhang, Y., 2021: Accelerating Access to Clean Cooking Will Require a Heart</text>
  </g>
  <g begin="text">
   <text y="166.58" x="445.42" svgx:width="0.33" style="fill:rgb(0,0,0);font-family:TimesNewRomanPSMT;font-size:11.04px;stroke:none;">-</text>
  </g>
  <g begin="text">
   <text y="166.58" x="449.02,456.936,461.837,466.761" svgx:width="0.72,0.44,0.44,0.5" style="fill:rgb(0,0,0);font-family:TimesNewRomanPSMT;font-size:11.04px;stroke:none;">Head</text>
  </g>
  <g begin="text">
   <text y="166.58" x="472.3" svgx:width="0.33" style="fill:rgb(0,0,0);font-family:TimesNewRomanPSMT;font-size:11.04px;stroke:none;">-</text>
  </g>
  <g begin="text">
   <text y="166.58" x="475.9,480.802,486.322" svgx:width="0.44,0.5,0.5" style="fill:rgb(0,0,0);font-family:TimesNewRomanPSMT;font-size:11.04px;stroke:none;">and</text>
  </g>
  <g begin="text">
   <text y="166.58" x="491.86" svgx:width="0.33" style="fill:rgb(0,0,0);font-family:TimesNewRomanPSMT;font-size:11.04px;stroke:none;">-</text>
  </g>
  <g begin="text">
   <text y="166.58" x="495.46,503.376,508.277,513.797,519.218,523.413" svgx:width="0.72,0.44,0.5,0.5,0.39,0.25" style="fill:rgb(0,0,0);font-family:TimesNewRomanPSMT;font-size:11.04px;stroke:none;">Hands </text>
  </g>
  <g begin="text">
   <text y="166.58" x="48.36" svgx:width="0.51" style="fill:rgb(0,0,0);font-family:Calibri;font-size:11.04px;stroke:none;">6</text>
  </g>
  <g begin="text">
   <text y="166.58" x="54.024" svgx:width="0.23" style="fill:rgb(0,0,0);font-family:Calibri;font-size:11.04px;stroke:none;"> </text>
  </g>
  <g begin="text">
   <text y="180.26" x="96.024,103.94,109.46,114.98,118.689,124.209,129.111,133.924,139.444,142.204" svgx:width="0.72,0.5,0.5,0.33,0.5,0.44,0.44,0.5,0.25,0.25" style="fill:rgb(0,0,0);font-family:TimesNewRomanPSMT;font-size:11.04px;stroke:none;">Approach. </text>
  </g>
  <g begin="text">
   <text y="180.26" x="144.98,152.896,157.797,162.721,167.524,170.637,176.157,181.677,189.593,194.395,199.915" svgx:width="0.72,0.44,0.44,0.44,0.28,0.5,0.5,0.72,0.44,0.5,0.28" style="fill:rgb(0,0,0);font-family:TimesNewRomanPS-ItalicMT;font-size:11.04px;stroke:none;">Development</text>
  </g>
  <g begin="text">
   <text y="180.26" x="203.09,205.85,208.61,211.37,214.009,219.529,225.049,228.162,231.165,236.685,242.205,244.965,250.485,256.005,261.525,266.923,270.037,274.331,279.752,285.272,290.792,296.312" svgx:width="0.25,0.25,0.25,0.25,0.5,0.5,0.28,0.28,0.5,0.5,0.25,0.5,0.5,0.5,0.5,0.28,0.39,0.5,0.5,0.5,0.5,0.5" style="fill:rgb(0,0,0);font-family:TimesNewRomanPSMT;font-size:11.04px;stroke:none;">, , doi:10.1057/s41301</text>
  </g>
  <g begin="text">
   <text y="180.26" x="301.87" svgx:width="0.33" style="fill:rgb(0,0,0);font-family:TimesNewRomanPSMT;font-size:11.04px;stroke:none;">-</text>
  </g>
  <g begin="text">
   <text y="180.26" x="305.47,310.99,316.51" svgx:width="0.5,0.5,0.5" style="fill:rgb(0,0,0);font-family:TimesNewRomanPSMT;font-size:11.04px;stroke:none;">021</text>
  </g>
  <g begin="text">
   <text y="180.26" x="322.03" svgx:width="0.33" style="fill:rgb(0,0,0);font-family:TimesNewRomanPSMT;font-size:11.04px;stroke:none;">-</text>
  </g>
  <g begin="text">
   <text y="180.26" x="325.63,331.15,336.549,342.069,347.589" svgx:width="0.5,0.5,0.5,0.5,0.5" style="fill:rgb(0,0,0);font-family:TimesNewRomanPSMT;font-size:11.04px;stroke:none;">00297</text>
  </g>
  <g begin="text">
   <text y="180.26" x="353.11" svgx:width="0.33" style="fill:rgb(0,0,0);font-family:TimesNewRomanPSMT;font-size:11.04px;stroke:none;">-</text>
  </g>
  <g begin="text">
   <text y="180.26" x="356.71,362.23" svgx:width="0.5,0.25" style="fill:rgb(0,0,0);font-family:TimesNewRomanPSMT;font-size:11.04px;stroke:none;">x.</text>
  </g>
  <g begin="text">
   <text y="180.26" x="364.99" svgx:width="0.25" style="fill:rgb(0,0,0);font-family:TimesNewRomanPSMT;font-size:11.04px;stroke:none;"> </text>
  </g>
  <g begin="text">
   <text y="180.26" x="48.36" svgx:width="0.51" style="fill:rgb(0,0,0);font-family:Calibri;font-size:11.04px;stroke:none;">7</text>
  </g>
  <g begin="text">
   <text y="180.26" x="54.024" svgx:width="0.23" style="fill:rgb(0,0,0);font-family:Calibri;font-size:11.04px;stroke:none;"> </text>
  </g>
  <g begin="text">
   <text y="201.86" x="72.024,78.769,84.289,89.809,93.486,98.299,102.009,107.529,111.823,114.583,117.476" svgx:width="0.61,0.5,0.5,0.33,0.44,0.33,0.5,0.39,0.25,0.25,0.67" style="fill:rgb(0,0,0);font-family:TimesNewRomanPSMT;font-size:11.04px;stroke:none;">Zografos, C</text>
  </g>
  <g begin="text">
   <text y="201.86" x="124.82,127.58,130.34,133.21,138.112,143.632,149.152,152.045,158.183,160.943,163.791,171.111,176.631,182.151,187.671,190.674,196.194,200.488,203.248,206.141,211.661,217.181,222.701,228.221,231.334,234.204,242.12,245.719,250.621,255.545,261.065,263.935,270.073,274.975,279.777,283.487,286.49,290.199,293.202,298.104,303.028,305.898,312.644,318.164,323.684,328.585,332.88,335.64,338.532,344.052,347.762,350.632,361.054,366.475,371.995,374.865,379.767,382.659,390.575,394.285,399.186,404.11,409.63,412.501,420.416,425.318,433.134,436.005,443.92,448.822,453.746,456.859,459.73,467.049,471.951,477.471,482.991,488.511,491.635,494.506,498.105,503.625,509.145,514.665,518.264,523.066" svgx:width="0.25,0.25,0.25,0.44,0.5,0.5,0.25,0.56,0.25,0.25,0.67,0.5,0.5,0.5,0.28,0.5,0.39,0.25,0.25,0.5,0.5,0.5,0.5,0.28,0.25,0.72,0.33,0.44,0.44,0.5,0.25,0.56,0.44,0.44,0.33,0.28,0.33,0.28,0.44,0.44,0.25,0.61,0.5,0.5,0.44,0.39,0.25,0.25,0.5,0.33,0.25,0.94,0.5,0.5,0.25,0.44,0.25,0.72,0.33,0.44,0.44,0.5,0.25,0.72,0.44,0.72,0.25,0.72,0.44,0.44,0.28,0.25,0.67,0.44,0.5,0.5,0.5,0.28,0.25,0.33,0.5,0.5,0.5,0.33,0.44,0.25" style="fill:rgb(0,0,0);font-family:TimesNewRomanPSMT;font-size:11.04px;stroke:none;">., and P. Robbins, 2020: Green Sacrifice Zones, or Why a Green New Deal Cannot Ignore </text>
  </g>
  <g begin="text">
   <text y="201.86" x="48.36" svgx:width="0.51" style="fill:rgb(0,0,0);font-family:Calibri;font-size:11.04px;stroke:none;">8</text>
  </g>
  <g begin="text">
   <text y="201.86" x="54.024" svgx:width="0.23" style="fill:rgb(0,0,0);font-family:Calibri;font-size:11.04px;stroke:none;"> </text>
  </g>
  <g begin="text">
   <text y="215.54" x="96.024,99.137,104.657,109.559,112.319,119.683,125.203,129.376,132.489,135.249,141.387,146.764,149.877,153.476,156.589,160.884,163.644,169.065,172.774,175.534,179.829,185.249,189.544,192.679,195.439,202.041,205.75,210.652,216.073,220.368,223.503,226.506,229.619,235.139,240.538,244.832,247.592" svgx:width="0.28,0.5,0.44,0.25,0.67,0.5,0.39,0.28,0.25,0.56,0.5,0.28,0.33,0.28,0.39,0.25,0.5,0.33,0.25,0.39,0.5,0.39,0.28,0.25,0.61,0.33,0.44,0.5,0.39,0.28,0.28,0.28,0.5,0.5,0.39,0.25,0.25" style="fill:rgb(0,0,0);font-family:TimesNewRomanPSMT;font-size:11.04px;stroke:none;">the Cost Shifts of Just Transitions. </text>
  </g>
  <g begin="text">
   <text y="215.54" x="250.49,258.406,263.926,268.827,271.587,278.333,283.72,288.015,291.15" svgx:width="0.72,0.5,0.44,0.25,0.61,0.5,0.39,0.28,0.5" style="fill:rgb(0,0,0);font-family:TimesNewRomanPS-ItalicMT;font-size:11.04px;stroke:none;">One Earth</text>
  </g>
  <g begin="text">
   <text y="215.54" x="296.71,299.47" svgx:width="0.25,0.25" style="fill:rgb(0,0,0);font-family:TimesNewRomanPSMT;font-size:11.04px;stroke:none;">, </text>
  </g>
  <g begin="text">
   <text y="215.54" x="302.11" svgx:width="0.5" style="fill:rgb(0,0,0);font-family:TimesNewRomanPS-BoldMT;font-size:11.04px;stroke:none;">3</text>
  </g>
  <g begin="text">
   <text y="215.54" x="307.63,311.339,316.738,320.447,323.207,325.967,331.487,336.886" svgx:width="0.33,0.5,0.33,0.25,0.25,0.5,0.5,0.5" style="fill:rgb(0,0,0);font-family:TimesNewRomanPSMT;font-size:11.04px;stroke:none;">(5), 543</text>
  </g>
  <g begin="text">
   <text y="215.54" x="342.43" svgx:width="0.5" style="fill:rgb(0,0,0);font-family:TimesNewRomanPSMT;font-size:11.04px;stroke:none;">–</text>
  </g>
  <g begin="text">
   <text y="215.54" x="347.95,353.47,358.99,364.51,367.27,370.03,375.55,380.949,384.062,387.065,392.585,398.105,400.865,406.385,411.905,417.425,422.823,425.936,428.939,431.699,437.219,442.739,447.542,452.444,457.257,460.966,463.726,469.246,474.766,480.286,485.806,488.566,493.965,499.485,502.245,507.765,513.285,518.805" svgx:width="0.5,0.5,0.5,0.25,0.25,0.5,0.5,0.28,0.28,0.5,0.5,0.25,0.5,0.5,0.5,0.5,0.28,0.28,0.25,0.5,0.5,0.44,0.44,0.44,0.33,0.25,0.5,0.5,0.5,0.5,0.25,0.5,0.5,0.25,0.5,0.5,0.5,0.25" style="fill:rgb(0,0,0);font-family:TimesNewRomanPSMT;font-size:11.04px;stroke:none;">546, doi:10.1016/j.oneear.2020.10.012.</text>
  </g>
  <g begin="text">
   <text y="215.54" x="521.52" svgx:width="0.25" style="fill:rgb(0,0,0);font-family:TimesNewRomanPSMT;font-size:11.04px;stroke:none;"> </text>
  </g>
  <g begin="text">
   <text y="215.54" x="48.36" svgx:width="0.51" style="fill:rgb(0,0,0);font-family:Calibri;font-size:11.04px;stroke:none;">9</text>
  </g>
  <g begin="text">
   <text y="215.54" x="54.024" svgx:width="0.23" style="fill:rgb(0,0,0);font-family:Calibri;font-size:11.04px;stroke:none;"> </text>
  </g>
  <g begin="text">
   <text y="237.17" x="72.024" svgx:width="0.25" style="fill:rgb(0,0,0);font-family:TimesNewRomanPSMT;font-size:11.04px;stroke:none;"> </text>
  </g>
  <g begin="text">
   <text y="237.17" x="42.72,48.36" svgx:width="0.51,0.51" style="fill:rgb(0,0,0);font-family:Calibri;font-size:11.04px;stroke:none;">10</text>
  </g>
  <g begin="text">
   <text y="237.17" x="54.024" svgx:width="0.23" style="fill:rgb(0,0,0);font-family:Calibri;font-size:11.04px;stroke:none;"> </text>
  </g>
  <g begin="text">
   <text y="602.109" transform="matrix(0.70711,-0.70711,0.70711,0.70711,-395.12956,250.29085)" rotateDegrees="-45" matrix="[29.803345,29.803345,-29.803345,29.803345,104.563255,239.8115]" x="104.563" svgx:width="0.67" style="fill:rgb(0,0,0);font-family:Arial;font-size:42.15px;stroke:none;">A</text>
   <text y="582.23" transform="matrix(0.70711,-0.70711,0.70711,0.70711,-375.25056,258.525)" rotateDegrees="-45" matrix="[29.803345,29.803345,-29.803345,29.803345,124.442085,259.6903]" x="124.442" svgx:width="0.72" style="fill:rgb(0,0,0);font-family:Arial;font-size:42.15px;stroke:none;">C</text>
   <text y="560.712" transform="matrix(0.70711,-0.70711,0.70711,0.70711,-353.73256,267.43805)" rotateDegrees="-45" matrix="[29.803345,29.803345,-29.803345,29.803345,145.9601,281.20834]" x="145.96" svgx:width="0.72" style="fill:rgb(0,0,0);font-family:Arial;font-size:42.15px;stroke:none;">C</text>
   <text y="539.194" transform="matrix(0.70711,-0.70711,0.70711,0.70711,-332.21456,276.3511)" rotateDegrees="-45" matrix="[29.803345,29.803345,-29.803345,29.803345,167.47812,302.72635]" x="167.478" svgx:width="0.67" style="fill:rgb(0,0,0);font-family:Arial;font-size:42.15px;stroke:none;">E</text>
   <text y="519.315" transform="matrix(0.70711,-0.70711,0.70711,0.70711,-312.33556,284.58525)" rotateDegrees="-45" matrix="[29.803345,29.803345,-29.803345,29.803345,187.35693,322.60516]" x="187.357" svgx:width="0.67" style="fill:rgb(0,0,0);font-family:Arial;font-size:42.15px;stroke:none;">P</text>
   <text y="499.436" transform="matrix(0.70711,-0.70711,0.70711,0.70711,-292.45656,292.8194)" rotateDegrees="-45" matrix="[29.803345,29.803345,-29.803345,29.803345,207.23578,342.484]" x="207.236" svgx:width="0.61" style="fill:rgb(0,0,0);font-family:Arial;font-size:42.15px;stroke:none;">T</text>
   <text y="481.226" transform="matrix(0.70711,-0.70711,0.70711,0.70711,-274.24656,300.36223)" rotateDegrees="-45" matrix="[29.803345,29.803345,-29.803345,29.803345,225.44562,360.69385]" x="225.446" svgx:width="0.67" style="fill:rgb(0,0,0);font-family:Arial;font-size:42.15px;stroke:none;">E</text>
   <text y="461.347" transform="matrix(0.70711,-0.70711,0.70711,0.70711,-254.36786,308.59567)" rotateDegrees="-45" matrix="[29.803345,29.803345,-29.803345,29.803345,245.32443,380.57266]" x="245.324" svgx:width="0.72" style="fill:rgb(0,0,0);font-family:Arial;font-size:42.15px;stroke:none;">D</text>
   <text y="439.829" transform="matrix(0.70711,-0.70711,0.70711,0.70711,-232.84986,317.50872)" rotateDegrees="-45" matrix="[29.803345,29.803345,-29.803345,29.803345,266.84247,402.0907]" x="266.842" svgx:width="0.28" style="fill:rgb(0,0,0);font-family:Arial;font-size:42.15px;stroke:none;"> </text>
   <text y="431.54" transform="matrix(0.70711,-0.70711,0.70711,0.70711,-224.56056,320.94284)" rotateDegrees="-45" matrix="[29.803345,29.803345,-29.803345,29.803345,275.13153,410.37976]" x="275.132" svgx:width="0.67" style="fill:rgb(0,0,0);font-family:Arial;font-size:42.15px;stroke:none;">V</text>
   <text y="411.661" transform="matrix(0.70711,-0.70711,0.70711,0.70711,-204.68186,329.17629)" rotateDegrees="-45" matrix="[29.803345,29.803345,-29.803345,29.803345,295.0103,430.25858]" x="295.01" svgx:width="0.67" style="fill:rgb(0,0,0);font-family:Arial;font-size:42.15px;stroke:none;">E</text>
   <text y="391.783" transform="matrix(0.70711,-0.70711,0.70711,0.70711,-184.80356,337.41073)" rotateDegrees="-45" matrix="[29.803345,29.803345,-29.803345,29.803345,314.88916,450.1374]" x="314.889" svgx:width="0.72" style="fill:rgb(0,0,0);font-family:Arial;font-size:42.15px;stroke:none;">R</text>
   <text y="370.265" transform="matrix(0.70711,-0.70711,0.70711,0.70711,-163.28556,346.32378)" rotateDegrees="-45" matrix="[29.803345,29.803345,-29.803345,29.803345,336.40717,471.65543]" x="336.407" svgx:width="0.67" style="fill:rgb(0,0,0);font-family:Arial;font-size:42.15px;stroke:none;">S</text>
   <text y="350.386" transform="matrix(0.70711,-0.70711,0.70711,0.70711,-143.40656,354.55793)" rotateDegrees="-45" matrix="[29.803345,29.803345,-29.803345,29.803345,356.286,491.53424]" x="356.286" svgx:width="0.28" style="fill:rgb(0,0,0);font-family:Arial;font-size:42.15px;stroke:none;">I</text>
   <text y="342.1" transform="matrix(0.70711,-0.70711,0.70711,0.70711,-135.12086,357.9894)" rotateDegrees="-45" matrix="[29.803345,29.803345,-29.803345,29.803345,364.57135,499.81958]" x="364.571" svgx:width="0.78" style="fill:rgb(0,0,0);font-family:Arial;font-size:42.15px;stroke:none;">O</text>
   <text y="318.913" transform="matrix(0.70711,-0.70711,0.70711,0.70711,-111.93386,367.59377)" rotateDegrees="-45" matrix="[29.803345,29.803345,-29.803345,29.803345,387.7583,523.0066]" x="387.758" svgx:width="0.72" style="fill:rgb(0,0,0);font-family:Arial;font-size:42.15px;stroke:none;">N</text>
   <text y="297.395" transform="matrix(0.70711,-0.70711,0.70711,0.70711,-90.41586,376.50681)" rotateDegrees="-45" matrix="[29.803345,29.803345,-29.803345,29.803345,409.27637,544.5246]" x="409.276" svgx:width="0.28" style="fill:rgb(0,0,0);font-family:Arial;font-size:42.15px;stroke:none;"> </text>
   <text y="637.872" transform="matrix(0.70711,-0.70711,0.70711,0.70711,-409.94279,286.05456)" rotateDegrees="-45" matrix="[29.803345,29.803345,-29.803345,29.803345,140.32727,204.04747]" x="140.327" svgx:width="0.67" style="fill:rgb(0,0,0);font-family:Arial;font-size:42.15px;stroke:none;">S</text>
   <text y="617.994" transform="matrix(0.70711,-0.70711,0.70711,0.70711,-390.0645,294.289)" rotateDegrees="-45" matrix="[29.803345,29.803345,-29.803345,29.803345,160.2061,223.9263]" x="160.206" svgx:width="0.72" style="fill:rgb(0,0,0);font-family:Arial;font-size:42.15px;stroke:none;">U</text>
   <text y="596.476" transform="matrix(0.70711,-0.70711,0.70711,0.70711,-368.5465,303.20205)" rotateDegrees="-45" matrix="[29.803345,29.803345,-29.803345,29.803345,181.72412,245.4443]" x="181.724" svgx:width="0.67" style="fill:rgb(0,0,0);font-family:Arial;font-size:42.15px;stroke:none;">B</text>
   <text y="576.597" transform="matrix(0.70711,-0.70711,0.70711,0.70711,-348.6675,311.4362)" rotateDegrees="-45" matrix="[29.803345,29.803345,-29.803345,29.803345,201.60294,265.32315]" x="201.603" svgx:width="0.5" style="fill:rgb(0,0,0);font-family:Arial;font-size:42.15px;stroke:none;">J</text>
   <text y="561.695" transform="matrix(0.70711,-0.70711,0.70711,0.70711,-333.7655,317.60881)" rotateDegrees="-45" matrix="[29.803345,29.803345,-29.803345,29.803345,216.50462,280.22482]" x="216.505" svgx:width="0.67" style="fill:rgb(0,0,0);font-family:Arial;font-size:42.15px;stroke:none;">E</text>
   <text y="541.816" transform="matrix(0.70711,-0.70711,0.70711,0.70711,-313.88679,325.84225)" rotateDegrees="-45" matrix="[29.803345,29.803345,-29.803345,29.803345,236.38344,300.10364]" x="236.383" svgx:width="0.72" style="fill:rgb(0,0,0);font-family:Arial;font-size:42.15px;stroke:none;">C</text>
   <text y="520.298" transform="matrix(0.70711,-0.70711,0.70711,0.70711,-292.36879,334.7553)" rotateDegrees="-45" matrix="[29.803345,29.803345,-29.803345,29.803345,257.90146,321.62164]" x="257.901" svgx:width="0.61" style="fill:rgb(0,0,0);font-family:Arial;font-size:42.15px;stroke:none;">T</text>
   <text y="502.089" transform="matrix(0.70711,-0.70711,0.70711,0.70711,-274.1595,342.29842)" rotateDegrees="-45" matrix="[29.803345,29.803345,-29.803345,29.803345,276.1113,339.83148]" x="276.111" svgx:width="0.28" style="fill:rgb(0,0,0);font-family:Arial;font-size:42.15px;stroke:none;"> </text>
   <text y="493.803" transform="matrix(0.70711,-0.70711,0.70711,0.70711,-265.8735,345.7306)" rotateDegrees="-45" matrix="[29.803345,29.803345,-29.803345,29.803345,284.39664,348.11682]" x="284.397" svgx:width="0.61" style="fill:rgb(0,0,0);font-family:Arial;font-size:42.15px;stroke:none;">T</text>
   <text y="475.593" transform="matrix(0.70711,-0.70711,0.70711,0.70711,-247.66379,353.27272)" rotateDegrees="-45" matrix="[29.803345,29.803345,-29.803345,29.803345,302.60648,366.32666]" x="302.606" svgx:width="0.78" style="fill:rgb(0,0,0);font-family:Arial;font-size:42.15px;stroke:none;">O</text>
   <text y="452.406" transform="matrix(0.70711,-0.70711,0.70711,0.70711,-224.47679,362.87709)" rotateDegrees="-45" matrix="[29.803345,29.803345,-29.803345,29.803345,325.79346,389.51367]" x="325.793" svgx:width="0.28" style="fill:rgb(0,0,0);font-family:Arial;font-size:42.15px;stroke:none;"> </text>
   <text y="444.136" transform="matrix(0.70711,-0.70711,0.70711,0.70711,-216.2065,366.30334)" rotateDegrees="-45" matrix="[29.803345,29.803345,-29.803345,29.803345,334.0639,397.78412]" x="334.064" svgx:width="0.61" style="fill:rgb(0,0,0);font-family:Arial;font-size:42.15px;stroke:none;">F</text>
   <text y="425.926" transform="matrix(0.70711,-0.70711,0.70711,0.70711,-197.9965,373.84617)" rotateDegrees="-45" matrix="[29.803345,29.803345,-29.803345,29.803345,352.27374,415.99396]" x="352.274" svgx:width="0.28" style="fill:rgb(0,0,0);font-family:Arial;font-size:42.15px;stroke:none;">I</text>
   <text y="417.641" transform="matrix(0.70711,-0.70711,0.70711,0.70711,-189.7115,377.27793)" rotateDegrees="-45" matrix="[29.803345,29.803345,-29.803345,29.803345,360.55908,424.2793]" x="360.559" svgx:width="0.72" style="fill:rgb(0,0,0);font-family:Arial;font-size:42.15px;stroke:none;">N</text>
   <text y="396.123" transform="matrix(0.70711,-0.70711,0.70711,0.70711,-168.1935,386.19098)" rotateDegrees="-45" matrix="[29.803345,29.803345,-29.803345,29.803345,382.0771,445.7973]" x="382.077" svgx:width="0.67" style="fill:rgb(0,0,0);font-family:Arial;font-size:42.15px;stroke:none;">A</text>
   <text y="376.244" transform="matrix(0.70711,-0.70711,0.70711,0.70711,-148.3145,394.42513)" rotateDegrees="-45" matrix="[29.803345,29.803345,-29.803345,29.803345,401.95593,465.67615]" x="401.956" svgx:width="0.56" style="fill:rgb(0,0,0);font-family:Arial;font-size:42.15px;stroke:none;">L</text>
   <text y="359.673" transform="matrix(0.70711,-0.70711,0.70711,0.70711,-131.7435,401.28906)" rotateDegrees="-45" matrix="[29.803345,29.803345,-29.803345,29.803345,418.5266,482.24677]" x="418.527" svgx:width="0.28" style="fill:rgb(0,0,0);font-family:Arial;font-size:42.15px;stroke:none;"> </text>
   <text y="351.394" transform="matrix(0.70711,-0.70711,0.70711,0.70711,-123.4645,404.71834)" rotateDegrees="-45" matrix="[29.803345,29.803345,-29.803345,29.803345,426.80573,490.52588]" x="426.806" svgx:width="0.67" style="fill:rgb(0,0,0);font-family:Arial;font-size:42.15px;stroke:none;">E</text>
   <text y="331.515" transform="matrix(0.70711,-0.70711,0.70711,0.70711,-103.5855,412.95249)" rotateDegrees="-45" matrix="[29.803345,29.803345,-29.803345,29.803345,446.68457,510.40472]" x="446.685" svgx:width="0.72" style="fill:rgb(0,0,0);font-family:Arial;font-size:42.15px;stroke:none;">D</text>
   <text y="309.997" transform="matrix(0.70711,-0.70711,0.70711,0.70711,-82.0675,421.86554)" rotateDegrees="-45" matrix="[29.803345,29.803345,-29.803345,29.803345,468.2025,531.9227]" x="468.203" svgx:width="0.28" style="fill:rgb(0,0,0);font-family:Arial;font-size:42.15px;stroke:none;">I</text>
   <text y="301.712" transform="matrix(0.70711,-0.70711,0.70711,0.70711,-73.7825,425.29729)" rotateDegrees="-45" matrix="[29.803345,29.803345,-29.803345,29.803345,476.48785,540.20807]" x="476.488" svgx:width="0.61" style="fill:rgb(0,0,0);font-family:Arial;font-size:42.15px;stroke:none;">T</text>
   <text y="283.502" transform="matrix(0.70711,-0.70711,0.70711,0.70711,-55.5725,432.84012)" rotateDegrees="-45" matrix="[29.803345,29.803345,-29.803345,29.803345,494.6977,558.4179]" x="494.698" svgx:width="0.67" style="fill:rgb(0,0,0);font-family:Arial;font-size:42.15px;stroke:none;">S</text>
  </g>
 </g>
</svg>
