<?xml version="1.0" encoding="UTF-8"?>
<svg height="783.94" width="534.46" xmlns="http://www.w3.org/2000/svg">
 <g id="page" xmlns:svgx="http://www.xml-cml.org/schema/svgx">
  <g begin="text">
   <text y="84.18" x="149.34,162.0,170.941,174.114,177.833,181.551,185.27,188.443,194.323,201.824,209.384,214.245,219.225,222.65,230.143,237.636,242.497,245.922,253.423,260.916,264.089,269.01,276.51,279.684,284.543,292.037,299.055,302.228,308.827,312.252,318.671,323.591,331.084,334.258,342.716,348.295,353.874,360.892,366.473,372.053,383.512,390.53,398.023,402.883,406.056,413.913,420.931,428.491,435.992,441.031,445.982" svgx:width="0.91,0.64,0.23,0.27,0.27,0.27,0.23,0.42,0.54,0.54,0.35,0.35,0.25,0.54,0.54,0.35,0.25,0.54,0.54,0.23,0.35,0.54,0.23,0.35,0.54,0.5,0.23,0.47,0.25,0.46,0.35,0.54,0.23,0.61,0.4,0.4,0.5,0.4,0.4,0.81,0.5,0.54,0.35,0.23,0.56,0.5,0.54,0.54,0.35,0.35,0.23" style="fill:rgb(0,0,0);font-family:Calibri-Bold;font-size:13.98px;stroke:none;">WG III contribution to the Sixth Assessment Report </text>
   <text y="99.36" x="205.44,210.54,213.48,218.28,222.42,225.12,231.6,235.38,238.08,243.12,249.6,253.86,258.12,261.06,266.7,272.76,279.18,285.6,291.54,294.24,298.38,304.86,307.56,313.981,320.041,322.741,325.741,335.521,341.941,344.881,350.941,360.721,366.781,373.201,377.341,383.401,389.82" svgx:width="0.42,0.25,0.4,0.35,0.23,0.54,0.32,0.23,0.42,0.54,0.35,0.35,0.25,0.47,0.5,0.54,0.54,0.49,0.23,0.35,0.54,0.23,0.54,0.5,0.23,0.25,0.81,0.54,0.25,0.5,0.81,0.5,0.54,0.35,0.5,0.54,0.23" style="fill:rgb(0,0,0);font-family:Calibri-Bold;font-size:12.0px;stroke:none;">List of corrigenda to be implemented </text>
   <text y="112.92" x="94.92,101.64,107.756,113.871,116.935,122.456,128.572,132.232,135.892,138.351,144.467,150.527,156.643,162.759,168.875,171.938,174.398,176.858,182.378,185.441,191.557,197.673,200.736,206.796,212.912,215.372,221.488,229.407,232.471,240.391,242.85,245.31,247.77,250.834,256.95,263.066,266.065,268.525,277.645,283.761,286.22,292.336,301.456,307.572,313.688,316.751,322.932,329.048,332.111,334.571,340.686,343.75,346.813,352.929,359.045,362.108,370.028,376.144,382.26,388.376,391.439,397.555,401.215,404.278,410.394,416.51,420.169,422.63,428.746,434.862,437.925,443.385,449.501,455.617,461.224,464.88,470.996,477.112,479.571,482.635,485.094,491.21,497.326,500.345" svgx:width="0.61,0.56,0.56,0.28,0.5,0.56,0.33,0.33,0.22,0.56,0.56,0.56,0.56,0.56,0.28,0.22,0.22,0.5,0.28,0.56,0.56,0.28,0.56,0.56,0.22,0.56,0.72,0.28,0.72,0.22,0.22,0.22,0.28,0.56,0.56,0.28,0.22,0.83,0.56,0.22,0.56,0.83,0.56,0.56,0.28,0.56,0.56,0.28,0.22,0.56,0.28,0.28,0.56,0.56,0.28,0.72,0.56,0.56,0.56,0.28,0.56,0.33,0.28,0.56,0.56,0.33,0.22,0.56,0.56,0.28,0.5,0.56,0.56,0.5,0.33,0.56,0.56,0.22,0.28,0.22,0.56,0.56,0.28,0.28" style="fill:rgb(255,0,0);font-family:ArialMT;font-size:10.98px;stroke:none;">The corrigenda listed below will be implemented in the Chapter during copy-editing. </text>
   <text y="125.525" x="297.666" svgx:width="0.28" style="fill:rgb(255,0,0);font-family:ArialMT;font-size:10.98px;stroke:none;"> </text>
   <text y="135.48" x="70.86" svgx:width="0.23" style="fill:rgb(255,0,0);font-family:Calibri;font-size:7.98px;stroke:none;"> </text>
   <text y="150.96" x="70.86,78.241,87.061,95.519,103.02,109.919,116.759,124.616,127.859,134.933,142.074" svgx:width="0.53,0.63,0.61,0.53,0.5,0.49,0.56,0.23,0.51,0.51,0.23" style="fill:rgb(192,0,0);font-family:Calibri-Bold;font-size:13.98px;stroke:none;">CHAPTER 15 </text>
   <text y="165.24" x="70.86" svgx:width="0.23" style="fill:rgb(0,0,0);font-family:Calibri;font-size:10.98px;stroke:none;"> </text>
  </g>
  <path style="fill:rgb(217,225,242);stroke:none;stroke-width:1.0;" d="M71.340 610.260 L127.560 610.260 L127.560 673.260 L71.340 673.260 L71.340 610.260 "/>
  <path style="fill:rgb(217,225,242);stroke:none;stroke-width:1.0;" d="M76.500 661.020 L122.400 661.020 L122.400 673.260 L76.500 673.260 L76.500 661.020 "/>
  <g begin="text">
   <text y="178.14" x="77.82,84.12,89.52,93.719,99.058,107.215,112.255,117.655,121.074" svgx:width="0.63,0.54,0.42,0.54,0.81,0.5,0.54,0.35,0.23" style="fill:rgb(0,0,0);font-family:Calibri-Bold;font-size:10.02px;stroke:none;">Document </text>
  </g>
  <path style="fill:rgb(217,225,242);stroke:none;stroke-width:1.0;" d="M71.340 610.260 L127.560 610.260 L127.560 673.260 L71.340 673.260 L71.340 610.260 M76.500 648.840 L122.400 648.840 L122.400 661.020 L76.500 661.020 L76.500 648.840 "/>
  <g begin="text">
   <text y="190.38" x="80.04,83.16,88.44,93.841,98.76,104.16,107.637,112.677,116.217,118.797" svgx:width="0.31,0.53,0.54,0.49,0.54,0.35,0.5,0.35,0.26,0.23" style="fill:rgb(0,0,0);font-family:Calibri-Bold;font-size:10.02px;stroke:none;">(Chapter, </text>
  </g>
  <path style="fill:rgb(217,225,242);stroke:none;stroke-width:1.0;" d="M76.500 636.600 L122.400 636.600 L122.400 648.840 L76.500 648.840 L76.500 636.600 "/>
  <g begin="text">
   <text y="202.56" x="84.9,90.96,96.361,101.762,106.742,111.361,113.941" svgx:width="0.61,0.54,0.54,0.5,0.46,0.26,0.23" style="fill:rgb(0,0,0);font-family:Calibri-Bold;font-size:10.02px;stroke:none;">Annex, </text>
  </g>
  <path style="fill:rgb(217,225,242);stroke:none;stroke-width:1.0;" d="M76.500 624.420 L122.400 624.420 L122.400 636.600 L76.500 636.600 L76.500 624.420 "/>
  <g begin="text">
   <text y="214.8" x="87.66,92.4,97.8,103.141,108.541,111.176" svgx:width="0.47,0.54,0.54,0.54,0.27,0.23" style="fill:rgb(0,0,0);font-family:Calibri-Bold;font-size:10.02px;stroke:none;">Supp. </text>
  </g>
  <path style="fill:rgb(217,225,242);stroke:none;stroke-width:1.0;" d="M76.500 612.240 L122.400 612.240 L122.400 624.420 L76.500 624.420 L76.500 612.240 "/>
  <g begin="text">
   <text y="226.98" x="80.1,88.857,93.778,97.255,102.295,105.835,108.295,113.215,115.675,118.801" svgx:width="0.87,0.49,0.35,0.5,0.35,0.25,0.49,0.25,0.31,0.23" style="fill:rgb(0,0,0);font-family:Calibri-Bold;font-size:10.02px;stroke:none;">Material) </text>
  </g>
  <path style="fill:rgb(217,225,242);stroke:none;stroke-width:1.0;" d="M128.040 610.260 L184.260 610.260 L184.260 673.260 L128.040 673.260 L128.040 610.260 "/>
  <path style="fill:rgb(217,225,242);stroke:none;stroke-width:1.0;" d="M133.200 661.020 L179.100 661.020 L179.100 673.260 L133.200 673.260 L133.200 661.020 "/>
  <g begin="text">
   <text y="178.14" x="146.1,151.44,156.359,161.099" svgx:width="0.53,0.49,0.47,0.5" style="fill:rgb(0,0,0);font-family:Calibri-Bold;font-size:10.02px;stroke:none;">Page</text>
  </g>
  <g begin="text">
   <text y="178.14" x="166.14" svgx:width="0.23" style="fill:rgb(0,0,0);font-family:Calibri-Bold;font-size:10.02px;stroke:none;"> </text>
  </g>
  <path style="fill:rgb(217,225,242);stroke:none;stroke-width:1.0;" d="M128.040 610.260 L184.260 610.260 L184.260 673.260 L128.040 673.260 L128.040 610.260 M128.040 610.260 L184.260 610.260 L184.260 673.260 L128.040 673.260 L128.040 610.260 M133.200 648.840 L179.100 648.840 L179.100 661.020 L133.200 661.020 L133.200 648.840 "/>
  <g begin="text">
   <text y="190.38" x="135.6,138.72,144.362,149.281,153.299,158.279,163.68,165.96,171.3,176.701" svgx:width="0.31,0.56,0.49,0.4,0.5,0.54,0.23,0.54,0.54,0.23" style="fill:rgb(0,0,0);font-family:Calibri-Bold;font-size:10.02px;stroke:none;">(Based on </text>
  </g>
  <path style="fill:rgb(217,225,242);stroke:none;stroke-width:1.0;" d="M133.200 636.600 L179.100 636.600 L179.100 648.840 L133.200 648.840 L133.200 636.600 "/>
  <g begin="text">
   <text y="202.56" x="138.84,142.317,147.717,152.757,155.042,158.163,160.622,166.022,170.942,173.402" svgx:width="0.35,0.54,0.5,0.23,0.32,0.25,0.54,0.49,0.25,0.23" style="fill:rgb(0,0,0);font-family:Calibri-Bold;font-size:10.02px;stroke:none;">the final </text>
  </g>
  <path style="fill:rgb(217,225,242);stroke:none;stroke-width:1.0;" d="M133.200 624.420 L179.100 624.420 L179.100 636.600 L133.200 636.600 L133.200 624.420 "/>
  <g begin="text">
   <text y="214.8" x="139.38,144.781,150.182,153.302,155.586,160.206,166.565,172.865" svgx:width="0.54,0.54,0.32,0.23,0.46,0.64,0.63,0.23" style="fill:rgb(0,0,0);font-family:Calibri-Bold;font-size:10.02px;stroke:none;">pdf FGD </text>
  </g>
  <path style="fill:rgb(217,225,242);stroke:none;stroke-width:1.0;" d="M133.200 612.240 L179.100 612.240 L179.100 624.420 L133.200 624.420 L133.200 612.240 "/>
  <g begin="text">
   <text y="226.98" x="139.32,144.059,149.1,152.639,156.659,159.124,164.463,169.863,172.917" svgx:width="0.47,0.5,0.35,0.4,0.25,0.54,0.54,0.31,0.23" style="fill:rgb(0,0,0);font-family:Calibri-Bold;font-size:10.02px;stroke:none;">version) </text>
  </g>
  <path style="fill:rgb(217,225,242);stroke:none;stroke-width:1.0;" d="M184.740 610.260 L240.960 610.260 L240.960 673.260 L184.740 673.260 L184.740 610.260 "/>
  <path style="fill:rgb(217,225,242);stroke:none;stroke-width:1.0;" d="M189.900 661.020 L235.800 661.020 L235.800 673.260 L189.900 673.260 L189.900 661.020 "/>
  <g begin="text">
   <text y="178.14" x="204.3,208.559,211.019,216.42" svgx:width="0.42,0.25,0.54,0.5" style="fill:rgb(0,0,0);font-family:Calibri-Bold;font-size:10.02px;stroke:none;">Line</text>
  </g>
  <g begin="text">
   <text y="178.14" x="221.4" svgx:width="0.23" style="fill:rgb(0,0,0);font-family:Calibri-Bold;font-size:10.02px;stroke:none;"> </text>
  </g>
  <path style="fill:rgb(217,225,242);stroke:none;stroke-width:1.0;" d="M184.740 610.260 L240.960 610.260 L240.960 673.260 L184.740 673.260 L184.740 610.260 M184.740 610.260 L240.960 610.260 L240.960 673.260 L184.740 673.260 L184.740 610.260 "/>
  <g begin="text">
   <text y="178.14" x="292.14,298.44,303.48,306.96,311.879,314.339,316.799,321.839,327.239,329.524,331.923,337.323,340.5,345.9,349.38,357.537,362.456,365.936,368.396,373.797,379.137,381.416,386.756,392.157,394.436,398.575,403.976,407.516,411.055,416.095,420.294,423.774,426.234,431.634,436.974,439.254,442.735,448.074,450.354,458.51,463.43,468.169" svgx:width="0.63,0.5,0.35,0.49,0.25,0.25,0.5,0.54,0.23,0.25,0.54,0.32,0.54,0.35,0.81,0.49,0.35,0.25,0.54,0.54,0.23,0.54,0.54,0.23,0.42,0.54,0.35,0.35,0.5,0.42,0.35,0.25,0.54,0.54,0.23,0.35,0.54,0.23,0.81,0.49,0.48,0.5" style="fill:rgb(0,0,0);font-family:Calibri-Bold;font-size:10.02px;stroke:none;">Detailed information on correction to make</text>
  </g>
  <g begin="text">
   <text y="178.14" x="473.22" svgx:width="0.23" style="fill:rgb(0,0,0);font-family:Calibri-Bold;font-size:10.02px;stroke:none;"> </text>
  </g>
  <path style="fill:rgb(0,0,0);stroke:none;stroke-width:1.0;" d="M70.860 673.260 L71.340 673.260 L71.340 673.740 L70.860 673.740 L70.860 673.260 "/>
  <path style="fill:rgb(0,0,0);stroke:none;stroke-width:1.0;" d="M70.860 673.260 L71.340 673.260 L71.340 673.740 L70.860 673.740 L70.860 673.260 "/>
  <path style="fill:rgb(0,0,0);stroke:none;stroke-width:1.0;" d="M71.340 673.260 L127.560 673.260 L127.560 673.740 L71.340 673.740 L71.340 673.260 "/>
  <path style="fill:rgb(0,0,0);stroke:none;stroke-width:1.0;" d="M127.560 673.260 L128.040 673.260 L128.040 673.740 L127.560 673.740 L127.560 673.260 "/>
  <path style="fill:rgb(0,0,0);stroke:none;stroke-width:1.0;" d="M128.040 673.260 L184.260 673.260 L184.260 673.740 L128.040 673.740 L128.040 673.260 "/>
  <path style="fill:rgb(0,0,0);stroke:none;stroke-width:1.0;" d="M184.260 673.260 L184.740 673.260 L184.740 673.740 L184.260 673.740 L184.260 673.260 "/>
  <path style="fill:rgb(0,0,0);stroke:none;stroke-width:1.0;" d="M184.740 673.260 L240.960 673.260 L240.960 673.740 L184.740 673.740 L184.740 673.260 "/>
  <path style="fill:rgb(0,0,0);stroke:none;stroke-width:1.0;" d="M240.960 673.260 L241.440 673.260 L241.440 673.740 L240.960 673.740 L240.960 673.260 "/>
  <path style="fill:rgb(0,0,0);stroke:none;stroke-width:1.0;" d="M523.980 673.260 L524.460 673.260 L524.460 673.740 L523.980 673.740 L523.980 673.260 "/>
  <path style="fill:rgb(0,0,0);stroke:none;stroke-width:1.0;" d="M523.980 673.260 L524.460 673.260 L524.460 673.740 L523.980 673.740 L523.980 673.260 "/>
  <path style="fill:rgb(0,0,0);stroke:none;stroke-width:1.0;" d="M70.860 610.260 L71.340 610.260 L71.340 673.260 L70.860 673.260 L70.860 610.260 "/>
  <path style="fill:rgb(0,0,0);stroke:none;stroke-width:1.0;" d="M127.560 610.260 L128.040 610.260 L128.040 673.260 L127.560 673.260 L127.560 610.260 "/>
  <path style="fill:rgb(0,0,0);stroke:none;stroke-width:1.0;" d="M184.260 610.260 L184.740 610.260 L184.740 673.260 L184.260 673.260 L184.260 610.260 "/>
  <path style="fill:rgb(0,0,0);stroke:none;stroke-width:1.0;" d="M240.960 610.260 L241.440 610.260 L241.440 673.260 L240.960 673.260 L240.960 610.260 "/>
  <path style="fill:rgb(0,0,0);stroke:none;stroke-width:1.0;" d="M523.980 610.260 L524.460 610.260 L524.460 673.260 L523.980 673.260 L523.980 610.260 "/>
  <g begin="text">
   <text y="241.62" x="76.5,81.841,87.121,91.921,97.201,100.558,105.538,108.958,111.242,116.282" svgx:width="0.53,0.52,0.48,0.52,0.34,0.5,0.35,0.23,0.51,0.51" style="fill:rgb(0,0,0);font-family:Calibri;font-size:10.02px;stroke:none;">Chapter 15</text>
  </g>
  <g begin="text">
   <text y="241.62" x="121.32" svgx:width="0.23" style="fill:rgb(0,0,0);font-family:Calibri;font-size:10.02px;stroke:none;"> </text>
  </g>
  <g begin="text">
   <text y="241.62" x="133.2,138.3" svgx:width="0.51,0.51" style="fill:rgb(0,0,0);font-family:Calibri;font-size:10.02px;stroke:none;">21</text>
  </g>
  <g begin="text">
   <text y="241.62" x="143.34" svgx:width="0.23" style="fill:rgb(0,0,0);font-family:Calibri;font-size:10.02px;stroke:none;"> </text>
  </g>
  <g begin="text">
   <text y="241.62" x="189.9,195.0" svgx:width="0.51,0.51" style="fill:rgb(0,0,0);font-family:Calibri;font-size:10.02px;stroke:none;">25</text>
  </g>
  <g begin="text">
   <text y="241.62" x="200.04" svgx:width="0.23" style="fill:rgb(0,0,0);font-family:Calibri;font-size:10.02px;stroke:none;"> </text>
  </g>
  <g begin="text">
   <text y="241.62" x="246.6,249.12,254.401,256.685,261.725,266.825,271.865,276.966,279.427,281.706,286.446,288.725,294.006,299.225,304.026,306.305,308.59,314.889,319.509,324.848,329.467,331.747,335.227,340.148,344.947,349.148,354.428,359.408,364.689,366.908,372.008,377.109,379.328,382.689,386.169,388.448,390.729,393.008,395.289,400.568,405.849,408.128,414.548,419.167,425.288,427.507,431.766,437.045,445.025,450.306,455.105,458.585,463.506,468.786,471.071,474.431,479.71,481.931,486.971,492.071,494.591,499.691" svgx:width="0.25,0.52,0.23,0.51,0.51,0.51,0.51,0.25,0.23,0.47,0.23,0.53,0.52,0.48,0.23,0.23,0.63,0.46,0.53,0.46,0.23,0.35,0.5,0.48,0.42,0.52,0.5,0.52,0.23,0.51,0.51,0.23,0.34,0.35,0.23,0.23,0.23,0.23,0.53,0.52,0.23,0.64,0.46,0.62,0.23,0.42,0.53,0.8,0.52,0.48,0.35,0.5,0.52,0.23,0.34,0.53,0.23,0.51,0.51,0.25,0.51,0.23" style="fill:rgb(0,0,0);font-family:Calibri;font-size:10.02px;stroke:none;">In 2019, global GFCF reached 23 trillion USD compared to 16.2 </text>
  </g>
  <g begin="text">
   <text y="253.86" x="246.6,249.96,253.44,255.72,258.0,260.28,262.56,267.84,273.121,275.405,281.825,286.444,292.627,294.911,297.191,302.411,304.631,309.731,314.771,319.871,324.911,327.431,329.711,334.511,336.731,341.831,346.931,354.011,356.291,358.571,363.791,368.049,371.529,376.509,381.31,385.21,390.19,392.469,395.469,400.088,402.368,407.048,412.329,415.809,420.789,423.008,428.108,433.208,435.668,440.769,443.764" svgx:width="0.34,0.35,0.23,0.23,0.23,0.23,0.53,0.52,0.23,0.64,0.46,0.62,0.23,0.23,0.52,0.23,0.51,0.51,0.51,0.51,0.25,0.23,0.48,0.23,0.51,0.51,0.71,0.23,0.23,0.52,0.42,0.35,0.5,0.48,0.39,0.5,0.23,0.3,0.46,0.23,0.47,0.52,0.35,0.5,0.23,0.51,0.51,0.25,0.51,0.3,0.23" style="fill:rgb(0,0,0);font-family:Calibri;font-size:10.02px;stroke:none;">trillion USD in 2010, a 42% increase (Figure 15.2) </text>
   <text y="266.044" x="246.6" svgx:width="0.23" style="fill:rgb(0,0,0);font-family:Calibri;font-size:10.02px;stroke:none;"> </text>
   <text y="278.289" x="246.6,251.219,256.5,261.78,267.061,269.281,274.562,276.846,282.127,287.047,289.331,293.532,298.812,303.552,308.832,313.572,318.492,323.772,326.057,329.416,334.637,337.336,339.536" svgx:width="0.46,0.52,0.53,0.52,0.23,0.52,0.23,0.52,0.5,0.23,0.42,0.52,0.48,0.52,0.47,0.5,0.52,0.23,0.34,0.53,0.27,0.23,0.23" style="fill:rgb(0,0,0);font-family:Calibri;font-size:10.02px;stroke:none;">Should be changed to: </text>
   <text y="290.473" x="246.6,249.12,254.401,256.685,261.725,266.825,271.865,276.966,279.427,281.706,286.446,288.725,294.006,299.225,304.026,306.305,308.59,314.889,319.509,324.848,329.467,331.747,335.227,340.148,344.947,349.148,354.428,359.408,364.689,366.908,371.709,375.189,380.468,385.749,391.029,396.25,398.529,403.569,408.669,410.949,414.31,417.79,420.069,422.35,424.629,426.91,432.189,437.47,439.749,446.169,450.729,456.912,461.952,467.052,472.092,477.192" svgx:width="0.25,0.52,0.23,0.51,0.51,0.51,0.51,0.25,0.23,0.47,0.23,0.53,0.52,0.48,0.23,0.23,0.63,0.46,0.53,0.46,0.23,0.35,0.5,0.48,0.42,0.52,0.5,0.52,0.23,0.48,0.35,0.53,0.52,0.52,0.52,0.23,0.51,0.51,0.23,0.34,0.35,0.23,0.23,0.23,0.23,0.53,0.52,0.23,0.64,0.46,0.62,0.51,0.51,0.51,0.51,0.23" style="fill:rgb(0,0,0);font-family:Calibri;font-size:10.02px;stroke:none;">In 2019, global GFCF reached around 20 trillion USD2015 </text>
   <text y="302.718" x="246.6,250.859,256.139,264.119,269.4,274.199,277.679,282.599,287.879,290.159,293.52,298.799,301.019,305.759,309.239,314.52,319.8,325.081,330.3,332.585,337.624,342.724,345.008,348.368,351.848,354.129,356.408,358.689,360.968,366.248,371.528,373.808,380.229,384.789,390.971,396.011,401.111,406.151,411.252,413.531,415.812,421.031,423.252,428.352,433.392,438.492,443.532,446.052,448.337,453.136,455.421,463.401,468.68,472.16,477.081,479.361,482.66,487.941,492.74,498.021,500.24,505.34,510.441,517.521" svgx:width="0.42,0.53,0.8,0.52,0.48,0.35,0.5,0.52,0.23,0.34,0.53,0.23,0.48,0.35,0.53,0.52,0.52,0.52,0.23,0.51,0.51,0.23,0.34,0.35,0.23,0.23,0.23,0.23,0.53,0.52,0.23,0.64,0.46,0.62,0.51,0.51,0.51,0.51,0.23,0.23,0.52,0.23,0.51,0.51,0.51,0.51,0.25,0.23,0.48,0.23,0.8,0.53,0.35,0.5,0.23,0.34,0.52,0.48,0.52,0.23,0.51,0.51,0.71,0.23" style="fill:rgb(0,0,0);font-family:Calibri;font-size:10.02px;stroke:none;">compared to around 14 trillion USD2015 in 2010, a more than 40% </text>
   <text y="314.902" x="246.6,248.88,254.16,258.419,261.9,266.88,271.679,275.579,280.559,282.783,285.839,290.459,292.738,297.418,302.699,306.119,311.099,313.379,318.48,323.58,326.04,331.14,334.196,336.657,338.881" svgx:width="0.23,0.52,0.42,0.35,0.5,0.48,0.39,0.5,0.23,0.3,0.46,0.23,0.47,0.52,0.35,0.5,0.23,0.51,0.51,0.25,0.51,0.3,0.25,0.23,0.23" style="fill:rgb(0,0,0);font-family:Calibri;font-size:10.02px;stroke:none;">increase (Figure 15.2). </text>
  </g>
  <path style="fill:rgb(0,0,0);stroke:none;stroke-width:1.0;" d="M71.340 515.280 L127.560 515.280 L127.560 609.780 L71.340 609.780 L71.340 515.280 M71.340 515.280 L127.560 515.280 L127.560 609.780 L71.340 609.780 L71.340 515.280 M128.040 515.280 L184.260 515.280 L184.260 609.780 L128.040 609.780 L128.040 515.280 M128.040 515.280 L184.260 515.280 L184.260 609.780 L128.040 609.780 L128.040 515.280 M184.740 515.280 L240.960 515.280 L240.960 609.780 L184.740 609.780 L184.740 515.280 M184.740 515.280 L240.960 515.280 L240.960 609.780 L184.740 609.780 L184.740 515.280 M70.860 609.780 L71.340 609.780 L71.340 610.260 L70.860 610.260 L70.860 609.780 "/>
  <path style="fill:rgb(0,0,0);stroke:none;stroke-width:1.0;" d="M71.340 609.780 L127.560 609.780 L127.560 610.260 L71.340 610.260 L71.340 609.780 "/>
  <path style="fill:rgb(0,0,0);stroke:none;stroke-width:1.0;" d="M127.560 609.780 L128.040 609.780 L128.040 610.260 L127.560 610.260 L127.560 609.780 "/>
  <path style="fill:rgb(0,0,0);stroke:none;stroke-width:1.0;" d="M128.040 609.780 L184.260 609.780 L184.260 610.260 L128.040 610.260 L128.040 609.780 "/>
  <path style="fill:rgb(0,0,0);stroke:none;stroke-width:1.0;" d="M184.260 609.780 L184.740 609.780 L184.740 610.260 L184.260 610.260 L184.260 609.780 "/>
  <path style="fill:rgb(0,0,0);stroke:none;stroke-width:1.0;" d="M184.740 609.780 L240.960 609.780 L240.960 610.260 L184.740 610.260 L184.740 609.780 "/>
  <path style="fill:rgb(0,0,0);stroke:none;stroke-width:1.0;" d="M240.960 609.780 L241.440 609.780 L241.440 610.260 L240.960 610.260 L240.960 609.780 "/>
  <path style="fill:rgb(0,0,0);stroke:none;stroke-width:1.0;" d="M523.980 609.780 L524.460 609.780 L524.460 610.260 L523.980 610.260 L523.980 609.780 "/>
  <path style="fill:rgb(0,0,0);stroke:none;stroke-width:1.0;" d="M70.860 515.280 L71.340 515.280 L71.340 609.780 L70.860 609.780 L70.860 515.280 "/>
  <path style="fill:rgb(0,0,0);stroke:none;stroke-width:1.0;" d="M127.560 515.280 L128.040 515.280 L128.040 609.780 L127.560 609.780 L127.560 515.280 "/>
  <path style="fill:rgb(0,0,0);stroke:none;stroke-width:1.0;" d="M184.260 515.280 L184.740 515.280 L184.740 609.780 L184.260 609.780 L184.260 515.280 "/>
  <path style="fill:rgb(0,0,0);stroke:none;stroke-width:1.0;" d="M240.960 515.280 L241.440 515.280 L241.440 609.780 L240.960 609.780 L240.960 515.280 "/>
  <path style="fill:rgb(0,0,0);stroke:none;stroke-width:1.0;" d="M523.980 515.280 L524.460 515.280 L524.460 609.780 L523.980 609.780 L523.980 515.280 "/>
  <g begin="text">
   <text y="336.66" x="76.5,81.841,87.121,91.921,97.201,100.558,105.538,108.958,111.242,116.282" svgx:width="0.53,0.52,0.48,0.52,0.34,0.5,0.35,0.23,0.51,0.51" style="fill:rgb(0,0,0);font-family:Calibri;font-size:10.02px;stroke:none;">Chapter 15</text>
  </g>
  <g begin="text">
   <text y="336.66" x="121.32" svgx:width="0.23" style="fill:rgb(0,0,0);font-family:Calibri;font-size:10.02px;stroke:none;"> </text>
  </g>
  <g begin="text">
   <text y="336.66" x="133.2,138.3" svgx:width="0.51,0.51" style="fill:rgb(0,0,0);font-family:Calibri;font-size:10.02px;stroke:none;">35</text>
  </g>
  <g begin="text">
   <text y="336.66" x="143.34" svgx:width="0.23" style="fill:rgb(0,0,0);font-family:Calibri;font-size:10.02px;stroke:none;"> </text>
  </g>
  <g begin="text">
   <text y="336.66" x="189.9,195.0" svgx:width="0.51,0.51" style="fill:rgb(0,0,0);font-family:Calibri;font-size:10.02px;stroke:none;">17</text>
  </g>
  <g begin="text">
   <text y="336.66" x="200.04" svgx:width="0.23" style="fill:rgb(0,0,0);font-family:Calibri;font-size:10.02px;stroke:none;"> </text>
  </g>
  <g begin="text">
   <text y="336.66" x="246.6,251.881,254.16,258.9,264.18,269.16,272.64,274.86,278.22,283.501,286.86,291.66,293.94,296.16,301.44,306.36,311.34,316.621,320.522,322.801,328.022,333.302,336.663,338.942,341.223,343.502,348.543,353.643,358.683,363.783,366.244,368.523,373.324,376.803,382.083,387.364,392.584,397.865,400.084,405.185,407.705,412.805,415.024,418.385,421.865,424.144,426.425,428.705,430.984,436.265,441.545,443.83,450.249,454.869,460.989,463.268,467.828" svgx:width="0.52,0.23,0.47,0.52,0.5,0.35,0.23,0.34,0.53,0.34,0.48,0.23,0.23,0.52,0.5,0.5,0.52,0.39,0.23,0.52,0.52,0.34,0.23,0.23,0.23,0.51,0.51,0.51,0.51,0.25,0.23,0.48,0.35,0.53,0.52,0.52,0.52,0.23,0.51,0.25,0.51,0.23,0.34,0.35,0.23,0.23,0.23,0.23,0.53,0.52,0.23,0.64,0.46,0.62,0.23,0.45,0.35" style="fill:rgb(0,0,0);font-family:Calibri;font-size:10.02px;stroke:none;">higher total needs until 2030, around 1.8 trillion USD yr</text>
  </g>
  <g begin="text">
   <text y="336.66" x="471.3" svgx:width="0.31" style="fill:rgb(0,0,0);font-family:Calibri;font-size:10.02px;stroke:none;">-</text>
  </g>
  <g begin="text">
   <text y="336.66" x="474.3,479.4,481.68,483.9,489.181" svgx:width="0.51,0.23,0.23,0.52,0.23" style="fill:rgb(0,0,0);font-family:Calibri;font-size:10.02px;stroke:none;">1 in </text>
  </g>
  <g begin="text">
   <text y="348.84" x="246.6,251.881,257.16,259.435,261.715,266.995,269.275,274.495,279.235,283.133,285.412,290.213,295.432,300.713,302.933,307.972,310.492,315.593,317.877,321.237,324.714,326.988,329.269,331.543,333.824,339.103,344.384,346.664,353.083,357.643,363.844,366.068,370.628,374.104,377.161,382.261,384.54,386.821,392.04,394.325,396.604,401.885,407.104,412.385,416.285,419.644,423.065,427.624,429.909,434.708,438.188,443.168,445.389,450.669,455.649,460.629,465.91,470.83,476.11,478.39,480.61,485.891,488.175,491.535,496.815,501.735" svgx:width="0.52,0.52,0.23,0.23,0.52,0.23,0.52,0.47,0.39,0.23,0.48,0.52,0.52,0.23,0.51,0.25,0.51,0.23,0.34,0.35,0.23,0.23,0.23,0.23,0.53,0.52,0.23,0.64,0.46,0.62,0.23,0.45,0.35,0.31,0.51,0.23,0.23,0.52,0.23,0.23,0.52,0.52,0.52,0.39,0.34,0.35,0.45,0.23,0.48,0.35,0.5,0.23,0.52,0.5,0.5,0.52,0.5,0.52,0.23,0.23,0.52,0.23,0.34,0.52,0.5,0.23" style="fill:rgb(0,0,0);font-family:Calibri;font-size:10.02px;stroke:none;">buildings and 1.7 trillion USD yr-1 in industry are needed in the </text>
   <text y="361.084" x="246.6,251.7,254.215,259.315,262.371,266.932,269.211,274.012,279.231,284.512,286.791,291.652,296.512,301.131,303.41,307.251,311.51,316.489,321.77,326.57,330.05,332.33,337.61,340.13,342.351" svgx:width="0.51,0.25,0.51,0.31,0.46,0.23,0.48,0.52,0.52,0.23,0.49,0.49,0.46,0.23,0.39,0.42,0.5,0.52,0.48,0.35,0.23,0.53,0.25,0.23,0.23" style="fill:rgb(0,0,0);font-family:Calibri;font-size:10.02px;stroke:none;">1.5-S and TES scenario. </text>
   <text y="373.269" x="246.59,251.209,256.49,261.77,267.051,269.271,274.552,276.836,282.117,287.037,289.321,293.522,298.802,303.542,308.822,313.562,318.481,323.762,326.047,329.406,334.627,337.326,339.525" svgx:width="0.46,0.52,0.53,0.52,0.23,0.52,0.23,0.52,0.5,0.23,0.42,0.52,0.48,0.52,0.47,0.5,0.52,0.23,0.34,0.53,0.27,0.23,0.23" style="fill:rgb(0,0,0);font-family:Calibri;font-size:10.02px;stroke:none;">Should be changed to: </text>
   <text y="385.513" x="246.59,251.87,254.15,258.889,264.17,269.15,272.63,274.85,278.21,283.491,286.85,291.65,293.93,296.15,301.43,306.35,311.33,316.611,320.51,322.79,328.01,333.291,336.652,338.931,341.212,343.491,348.531,353.632,358.672,363.772,366.233,368.512,373.313,376.792,382.072,387.353,392.573,397.854,400.073,405.174,407.694,412.794,415.013,418.374,421.854,424.133,426.414,428.693,430.973,436.254,441.534,443.819,450.238,454.858,460.978,463.257,467.816,471.288,474.284,479.385,481.664,483.885,489.165" svgx:width="0.52,0.23,0.47,0.52,0.5,0.35,0.23,0.34,0.53,0.34,0.48,0.23,0.23,0.52,0.5,0.5,0.52,0.39,0.23,0.52,0.52,0.34,0.23,0.23,0.23,0.51,0.51,0.51,0.51,0.25,0.23,0.48,0.35,0.53,0.52,0.52,0.52,0.23,0.51,0.25,0.51,0.23,0.34,0.35,0.23,0.23,0.23,0.23,0.53,0.52,0.23,0.64,0.46,0.62,0.23,0.45,0.35,0.31,0.51,0.23,0.23,0.52,0.23" style="fill:rgb(0,0,0);font-family:Calibri;font-size:10.02px;stroke:none;">higher total needs until 2030, around 1.8 trillion USD yr-1 in </text>
   <text y="397.698" x="246.58,251.86,257.141,259.421,261.701,266.982,269.262,274.482,279.221,283.121,285.405,290.205,295.425,300.706,302.99,305.21,310.49,315.771,321.052,324.951,328.311,331.731,336.29,338.575,343.374,346.854,351.774,354.058,359.339,364.259,369.239,374.519,379.499,384.78,387.059,389.28,394.56,396.84,400.201,405.42,410.401,412.68,417.781,420.241,425.257,428.313,432.933,435.448,437.671" svgx:width="0.52,0.52,0.23,0.23,0.52,0.23,0.52,0.47,0.39,0.23,0.48,0.52,0.52,0.23,0.23,0.52,0.52,0.52,0.39,0.34,0.35,0.45,0.23,0.48,0.35,0.5,0.23,0.52,0.5,0.5,0.52,0.5,0.52,0.23,0.23,0.52,0.23,0.34,0.52,0.5,0.23,0.51,0.25,0.51,0.31,0.46,0.25,0.23,0.23" style="fill:rgb(0,0,0);font-family:Calibri;font-size:10.02px;stroke:none;">buildings and industry are needed in the 1.5-S. </text>
  </g>
  <path style="fill:rgb(0,0,0);stroke:none;stroke-width:1.0;" d="M71.340 420.240 L127.560 420.240 L127.560 514.740 L71.340 514.740 L71.340 420.240 M71.340 420.240 L127.560 420.240 L127.560 514.740 L71.340 514.740 L71.340 420.240 M128.040 420.240 L184.260 420.240 L184.260 514.740 L128.040 514.740 L128.040 420.240 M128.040 420.240 L184.260 420.240 L184.260 514.740 L128.040 514.740 L128.040 420.240 M184.740 420.240 L240.960 420.240 L240.960 514.740 L184.740 514.740 L184.740 420.240 M184.740 420.240 L240.960 420.240 L240.960 514.740 L184.740 514.740 L184.740 420.240 M70.860 514.800 L71.340 514.800 L71.340 515.280 L70.860 515.280 L70.860 514.800 "/>
  <path style="fill:rgb(0,0,0);stroke:none;stroke-width:1.0;" d="M71.340 514.800 L127.560 514.800 L127.560 515.280 L71.340 515.280 L71.340 514.800 "/>
  <path style="fill:rgb(0,0,0);stroke:none;stroke-width:1.0;" d="M127.560 514.800 L128.040 514.800 L128.040 515.280 L127.560 515.280 L127.560 514.800 "/>
  <path style="fill:rgb(0,0,0);stroke:none;stroke-width:1.0;" d="M128.040 514.800 L184.260 514.800 L184.260 515.280 L128.040 515.280 L128.040 514.800 "/>
  <path style="fill:rgb(0,0,0);stroke:none;stroke-width:1.0;" d="M184.260 514.800 L184.740 514.800 L184.740 515.280 L184.260 515.280 L184.260 514.800 "/>
  <path style="fill:rgb(0,0,0);stroke:none;stroke-width:1.0;" d="M184.740 514.800 L240.960 514.800 L240.960 515.280 L184.740 515.280 L184.740 514.800 "/>
  <path style="fill:rgb(0,0,0);stroke:none;stroke-width:1.0;" d="M240.960 514.800 L241.440 514.800 L241.440 515.280 L240.960 515.280 L240.960 514.800 "/>
  <path style="fill:rgb(0,0,0);stroke:none;stroke-width:1.0;" d="M523.980 514.800 L524.460 514.800 L524.460 515.280 L523.980 515.280 L523.980 514.800 "/>
  <path style="fill:rgb(0,0,0);stroke:none;stroke-width:1.0;" d="M70.860 420.240 L71.340 420.240 L71.340 514.800 L70.860 514.800 L70.860 420.240 "/>
  <path style="fill:rgb(0,0,0);stroke:none;stroke-width:1.0;" d="M127.560 420.240 L128.040 420.240 L128.040 514.800 L127.560 514.800 L127.560 420.240 "/>
  <path style="fill:rgb(0,0,0);stroke:none;stroke-width:1.0;" d="M184.260 420.240 L184.740 420.240 L184.740 514.800 L184.260 514.800 L184.260 420.240 "/>
  <path style="fill:rgb(0,0,0);stroke:none;stroke-width:1.0;" d="M240.960 420.240 L241.440 420.240 L241.440 514.800 L240.960 514.800 L240.960 420.240 "/>
  <path style="fill:rgb(0,0,0);stroke:none;stroke-width:1.0;" d="M523.980 420.240 L524.460 420.240 L524.460 514.800 L523.980 514.800 L523.980 420.240 "/>
  <g begin="text">
   <text y="431.64" x="76.5,81.841,87.121,91.921,97.201,100.558,105.538,108.958,111.242,116.282" svgx:width="0.53,0.52,0.48,0.52,0.34,0.5,0.35,0.23,0.51,0.51" style="fill:rgb(0,0,0);font-family:Calibri;font-size:10.02px;stroke:none;">Chapter 15</text>
  </g>
  <g begin="text">
   <text y="431.64" x="121.32" svgx:width="0.23" style="fill:rgb(0,0,0);font-family:Calibri;font-size:10.02px;stroke:none;"> </text>
  </g>
  <g begin="text">
   <text y="431.64" x="133.2,138.3" svgx:width="0.51,0.51" style="fill:rgb(0,0,0);font-family:Calibri;font-size:10.02px;stroke:none;">35</text>
  </g>
  <g begin="text">
   <text y="431.64" x="143.34" svgx:width="0.23" style="fill:rgb(0,0,0);font-family:Calibri;font-size:10.02px;stroke:none;"> </text>
  </g>
  <g begin="text">
   <text y="431.64" x="189.9,195.0" svgx:width="0.51,0.51" style="fill:rgb(0,0,0);font-family:Calibri;font-size:10.02px;stroke:none;">19</text>
  </g>
  <g begin="text">
   <text y="431.64" x="200.04" svgx:width="0.23" style="fill:rgb(0,0,0);font-family:Calibri;font-size:10.02px;stroke:none;"> </text>
  </g>
  <g begin="text">
   <text y="431.64" x="246.6,251.219,256.499,259.979,262.263,265.623,270.904,275.823,278.103,282.963,287.823,292.443,294.722,298.082,303.362,306.662,311.462,313.742,316.027,320.946,325.806,328.091,330.37,335.651,340.151,345.131,349.03,352.39,360.37,365.29,370.57,373.93,376.215,381.495,386.415,391.395,396.676,400.575,402.796,408.076,413.357,416.717" svgx:width="0.46,0.53,0.35,0.23,0.34,0.52,0.5,0.23,0.49,0.49,0.46,0.23,0.34,0.53,0.34,0.48,0.23,0.23,0.49,0.49,0.23,0.23,0.52,0.45,0.5,0.39,0.34,0.8,0.5,0.52,0.34,0.23,0.52,0.5,0.5,0.52,0.39,0.23,0.52,0.52,0.34,0.23" style="fill:rgb(0,0,0);font-family:Calibri;font-size:10.02px;stroke:none;">For the TES total EE investment needs unti</text>
  </g>
  <g begin="text">
   <text y="431.64" x="418.98,421.26,423.484,428.584,433.624,438.724,443.824,446.048,450.848,454.328,459.309,461.588,465.488,468.845,473.644,477.001,481.921,487.201,489.481,494.28,497.637,499.856,504.957,509.997" svgx:width="0.23,0.23,0.51,0.51,0.51,0.51,0.23,0.48,0.35,0.5,0.23,0.39,0.34,0.48,0.34,0.5,0.52,0.23,0.48,0.34,0.23,0.51,0.51,0.23" style="fill:rgb(0,0,0);font-family:Calibri;font-size:10.02px;stroke:none;">l 2030 are stated at 29 </text>
  </g>
  <g begin="text">
   <text y="443.88" x="246.6,249.96,253.44,255.72,258.0,260.28,262.56,267.84,273.121,275.405,281.825,286.444,292.627,294.911,298.271,301.751,306.491,311.772,315.672,317.952,322.752,326.112,328.392,333.673,338.412,340.692,342.912,348.193,351.552,356.832,359.116,363.856,369.136,371.416,375.975,380.895,385.696,389.175,391.455,396.014,398.299,403.098,407.598,412.578,416.058,420.799,425.538,430.518,432.803,438.082,441.082,443.367,448.166,451.646,456.927,462.146,467.427,472.707,474.928,479.968,482.488,487.588,489.867,493.227,496.707,498.988,501.267,503.548,505.827,511.108,516.388" svgx:width="0.34,0.35,0.23,0.23,0.23,0.23,0.53,0.52,0.23,0.64,0.46,0.62,0.23,0.34,0.35,0.48,0.52,0.39,0.23,0.48,0.34,0.23,0.52,0.47,0.23,0.23,0.52,0.34,0.53,0.23,0.48,0.52,0.23,0.45,0.5,0.48,0.35,0.23,0.45,0.23,0.48,0.45,0.5,0.35,0.48,0.47,0.5,0.23,0.53,0.31,0.23,0.48,0.35,0.53,0.52,0.52,0.52,0.23,0.51,0.25,0.51,0.23,0.34,0.35,0.23,0.23,0.23,0.23,0.53,0.52,0.23" style="fill:rgb(0,0,0);font-family:Calibri;font-size:10.02px;stroke:none;">trillion USD translating into an yearly average of around 1.8 trillion </text>
   <text y="456.064" x="246.6,253.02,257.639,263.821,266.041,270.6,274.085,277.141,282.241,284.696,286.92" svgx:width="0.64,0.46,0.62,0.23,0.45,0.35,0.31,0.51,0.25,0.23,0.23" style="fill:rgb(0,0,0);font-family:Calibri;font-size:10.02px;stroke:none;">USD yr-1. </text>
   <text y="468.309" x="246.6" svgx:width="0.23" style="fill:rgb(0,0,0);font-family:Calibri;font-size:10.02px;stroke:none;"> </text>
   <text y="480.493" x="246.6,251.219,256.5,261.78,267.061,269.281,274.562,276.846,282.127,287.047,289.331,293.532,298.812,303.552,308.832,313.572,318.492,323.772,326.057,329.416,334.637,337.336,339.535" svgx:width="0.46,0.52,0.53,0.52,0.23,0.52,0.23,0.52,0.5,0.23,0.42,0.52,0.48,0.52,0.47,0.5,0.52,0.23,0.34,0.53,0.27,0.23,0.23" style="fill:rgb(0,0,0);font-family:Calibri;font-size:10.02px;stroke:none;">Should be changed to: </text>
   <text y="492.677" x="246.6,251.22,256.5,259.977,262.261,265.621,270.901,275.821,278.101,282.961,287.821,292.44,294.725,298.924,304.145,312.125,317.405,319.68,324.479,327.84,330.115,334.615,339.594,341.879,346.739,351.659,353.943,356.218,361.438,365.938,370.918,374.816,378.175,386.155,391.135,396.416,399.775,402.055,407.335,412.315,417.235,422.456,426.353,428.633,433.913,439.193,442.553,444.833,447.108,449.328,454.428,459.468,464.568,469.668,471.888,476.688,480.109,485.088,487.368,491.266,494.625,499.426,502.786,507.766,512.986" svgx:width="0.46,0.53,0.35,0.23,0.34,0.52,0.5,0.23,0.49,0.49,0.46,0.23,0.42,0.52,0.8,0.52,0.23,0.48,0.34,0.23,0.45,0.5,0.23,0.49,0.49,0.23,0.23,0.52,0.45,0.5,0.39,0.34,0.8,0.5,0.52,0.34,0.23,0.52,0.5,0.5,0.52,0.39,0.23,0.52,0.52,0.34,0.23,0.23,0.23,0.51,0.51,0.51,0.51,0.23,0.48,0.35,0.5,0.23,0.39,0.34,0.48,0.34,0.5,0.52,0.23" style="fill:rgb(0,0,0);font-family:Calibri;font-size:10.02px;stroke:none;">For the TES cumulative EE investment needs until 2030 are stated </text>
   <text y="504.922" x="246.6,251.4,254.756,257.036,262.076,267.176,269.456,272.812,276.292,278.572,280.852,283.132,285.411,290.692,295.972,298.256,304.616,309.236,315.416,317.696,321.053,324.533,329.273,334.553,338.453,340.733,345.532,348.889,351.169,356.389,361.129,363.413,365.634,370.913,374.27,379.55,381.83,386.57,391.85,394.07,398.63,403.61,408.41,411.89,414.17,418.731,421.01,425.751,430.25,435.231,438.71,443.51,448.251,453.23,455.51,460.791,463.847,466.066,470.866,474.347,479.627,484.856,490.136,495.417,497.636,502.736,505.256,510.296" svgx:width="0.48,0.34,0.23,0.51,0.51,0.23,0.34,0.35,0.23,0.23,0.23,0.23,0.53,0.52,0.23,0.64,0.46,0.62,0.23,0.34,0.35,0.48,0.52,0.39,0.23,0.48,0.34,0.23,0.52,0.47,0.23,0.23,0.52,0.34,0.53,0.23,0.48,0.52,0.23,0.45,0.5,0.48,0.35,0.23,0.45,0.23,0.48,0.45,0.5,0.35,0.48,0.47,0.5,0.23,0.53,0.31,0.23,0.48,0.35,0.53,0.52,0.52,0.52,0.23,0.51,0.25,0.51,0.23" style="fill:rgb(0,0,0);font-family:Calibri;font-size:10.02px;stroke:none;">at 29 trillion USD translating into an yearly average of around 1.7 </text>
  </g>
  <g begin="text">
   <text y="517.08" x="246.6,249.96,253.437,255.717,257.992,260.272,262.547,267.826,273.107,275.386,281.807,286.426,292.607,294.831,299.39" svgx:width="0.34,0.35,0.23,0.23,0.23,0.23,0.53,0.52,0.23,0.64,0.46,0.62,0.23,0.45,0.35" style="fill:rgb(0,0,0);font-family:Calibri;font-size:10.02px;stroke:none;">trillion USD yr</text>
  </g>
  <g begin="text">
   <text y="517.08" x="302.88" svgx:width="0.31" style="fill:rgb(0,0,0);font-family:Calibri;font-size:10.02px;stroke:none;">-</text>
  </g>
  <g begin="text">
   <text y="517.08" x="305.88,310.98,313.5,315.78,320.76,325.02,329.279,331.559,336.84,342.12,344.34,349.62,354.36,356.584,359.944,363.424,368.224,373.505,377.405,382.685,387.965,391.445,394.806,399.605,402.965,405.245,410.465" svgx:width="0.51,0.25,0.23,0.5,0.43,0.42,0.23,0.52,0.52,0.23,0.52,0.47,0.23,0.34,0.35,0.48,0.52,0.39,0.52,0.53,0.35,0.34,0.48,0.34,0.23,0.53,0.52" style="fill:rgb(0,0,0);font-family:Calibri;font-size:10.02px;stroke:none;">1, excluding transportation</text>
  </g>
  <g begin="text">
   <text y="517.08" x="415.68" svgx:width="0.23" style="fill:rgb(0,0,0);font-family:Calibri;font-size:10.02px;stroke:none;"> </text>
  </g>
  <path style="fill:rgb(0,0,0);stroke:none;stroke-width:1.0;" d="M71.340 322.080 L127.560 322.080 L127.560 419.760 L71.340 419.760 L71.340 322.080 M71.340 322.080 L127.560 322.080 L127.560 419.760 L71.340 419.760 L71.340 322.080 M128.040 322.080 L184.260 322.080 L184.260 419.760 L128.040 419.760 L128.040 322.080 M128.040 322.080 L184.260 322.080 L184.260 419.760 L128.040 419.760 L128.040 322.080 M184.740 322.080 L240.960 322.080 L240.960 419.760 L184.740 419.760 L184.740 322.080 M184.740 322.080 L240.960 322.080 L240.960 419.760 L184.740 419.760 L184.740 322.080 M70.860 419.760 L71.340 419.760 L71.340 420.240 L70.860 420.240 L70.860 419.760 "/>
  <path style="fill:rgb(0,0,0);stroke:none;stroke-width:1.0;" d="M71.340 419.760 L127.560 419.760 L127.560 420.240 L71.340 420.240 L71.340 419.760 "/>
  <path style="fill:rgb(0,0,0);stroke:none;stroke-width:1.0;" d="M127.560 419.760 L128.040 419.760 L128.040 420.240 L127.560 420.240 L127.560 419.760 "/>
  <path style="fill:rgb(0,0,0);stroke:none;stroke-width:1.0;" d="M128.040 419.760 L184.260 419.760 L184.260 420.240 L128.040 420.240 L128.040 419.760 "/>
  <path style="fill:rgb(0,0,0);stroke:none;stroke-width:1.0;" d="M184.260 419.760 L184.740 419.760 L184.740 420.240 L184.260 420.240 L184.260 419.760 "/>
  <path style="fill:rgb(0,0,0);stroke:none;stroke-width:1.0;" d="M184.740 419.760 L240.960 419.760 L240.960 420.240 L184.740 420.240 L184.740 419.760 "/>
  <path style="fill:rgb(0,0,0);stroke:none;stroke-width:1.0;" d="M240.960 419.760 L241.440 419.760 L241.440 420.240 L240.960 420.240 L240.960 419.760 "/>
  <path style="fill:rgb(0,0,0);stroke:none;stroke-width:1.0;" d="M523.980 419.760 L524.460 419.760 L524.460 420.240 L523.980 420.240 L523.980 419.760 "/>
  <path style="fill:rgb(0,0,0);stroke:none;stroke-width:1.0;" d="M70.860 322.080 L71.340 322.080 L71.340 419.760 L70.860 419.760 L70.860 322.080 "/>
  <path style="fill:rgb(0,0,0);stroke:none;stroke-width:1.0;" d="M127.560 322.080 L128.040 322.080 L128.040 419.760 L127.560 419.760 L127.560 322.080 "/>
  <path style="fill:rgb(0,0,0);stroke:none;stroke-width:1.0;" d="M184.260 322.080 L184.740 322.080 L184.740 419.760 L184.260 419.760 L184.260 322.080 "/>
  <path style="fill:rgb(0,0,0);stroke:none;stroke-width:1.0;" d="M240.960 322.080 L241.440 322.080 L241.440 419.760 L240.960 419.760 L240.960 322.080 "/>
  <path style="fill:rgb(0,0,0);stroke:none;stroke-width:1.0;" d="M523.980 322.080 L524.460 322.080 L524.460 419.760 L523.980 419.760 L523.980 322.080 "/>
  <g begin="text">
   <text y="529.8" x="76.5,81.841,87.121,91.921,97.201,100.558,105.538,108.958,111.242,116.282" svgx:width="0.53,0.52,0.48,0.52,0.34,0.5,0.35,0.23,0.51,0.51" style="fill:rgb(0,0,0);font-family:Calibri;font-size:10.02px;stroke:none;">Chapter 15</text>
  </g>
  <g begin="text">
   <text y="529.8" x="121.32" svgx:width="0.23" style="fill:rgb(0,0,0);font-family:Calibri;font-size:10.02px;stroke:none;"> </text>
  </g>
  <g begin="text">
   <text y="529.8" x="133.2,138.3" svgx:width="0.51,0.51" style="fill:rgb(0,0,0);font-family:Calibri;font-size:10.02px;stroke:none;">35</text>
  </g>
  <g begin="text">
   <text y="529.8" x="143.34" svgx:width="0.23" style="fill:rgb(0,0,0);font-family:Calibri;font-size:10.02px;stroke:none;"> </text>
  </g>
  <g begin="text">
   <text y="529.8" x="189.9,195.0" svgx:width="0.51,0.51" style="fill:rgb(0,0,0);font-family:Calibri;font-size:10.02px;stroke:none;">24</text>
  </g>
  <g begin="text">
   <text y="529.8" x="200.04" svgx:width="0.23" style="fill:rgb(0,0,0);font-family:Calibri;font-size:10.02px;stroke:none;"> </text>
  </g>
  <g begin="text">
   <text y="529.8" x="246.6,251.46,256.74,261.72,264.0,268.8,272.698,276.596,281.576,285.474,289.371,297.352,302.332,307.552,310.911,313.196,317.456,322.736,330.716,335.995,339.472,341.753,345.651,350.63,354.528,356.813,360.29,365.509,370.31,375.589,378.109,380.394,383.871,388.67,390.951,393.225,395.505,400.245,405.525,410.745,413.025,417.825,420.1,423.577,428.857,434.137,437.614,440.975,444.872,448.712,453.993,459.272,462.749,466.109,470.007" svgx:width="0.49,0.52,0.5,0.23,0.48,0.39,0.39,0.5,0.39,0.39,0.8,0.5,0.52,0.34,0.23,0.42,0.53,0.8,0.52,0.35,0.23,0.39,0.5,0.39,0.23,0.35,0.53,0.48,0.52,0.25,0.23,0.35,0.48,0.23,0.23,0.23,0.48,0.52,0.52,0.23,0.48,0.23,0.35,0.52,0.53,0.35,0.34,0.39,0.39,0.52,0.53,0.35,0.34,0.39,0.23" style="fill:rgb(0,0,0);font-family:Calibri;font-size:10.02px;stroke:none;">The assessment comprises road, rail and airports/ports </text>
  </g>
  <g begin="text">
   <text y="542.04" x="246.6,248.88,254.16,257.22,260.7,265.5,269.401,272.76,276.24,281.521,285.779,289.079,294.359,297.839,302.819,305.039,312.179,314.459,317.819,323.1,325.379,330.659,335.939,338.219,342.719,345.003,348.483,353.283,355.563,357.843,360.128,362.407,367.688,370.748,374.228,379.027,382.927,386.288,389.768,395.048,399.249,402.608,407.889,411.369,416.349,418.568,423.789,428.769,431.048,436.329,441.068,443.289,447.547,452.828,458.108,462.009,464.289,469.569,474.549,478.029,482.949,488.229,490.514,492.793,498.074,500.354,505.574,510.854,514.334" svgx:width="0.23,0.52,0.31,0.35,0.48,0.39,0.34,0.35,0.52,0.42,0.34,0.52,0.35,0.5,0.23,0.71,0.23,0.34,0.52,0.23,0.53,0.52,0.23,0.45,0.23,0.35,0.48,0.23,0.23,0.23,0.23,0.52,0.31,0.35,0.48,0.39,0.34,0.35,0.52,0.42,0.34,0.52,0.35,0.5,0.23,0.52,0.5,0.23,0.52,0.47,0.23,0.42,0.53,0.52,0.39,0.23,0.52,0.5,0.35,0.5,0.52,0.23,0.23,0.52,0.23,0.53,0.52,0.35,0.23" style="fill:rgb(0,0,0);font-family:Calibri;font-size:10.02px;stroke:none;">infrastructure with only rail infrastructure being considered in our </text>
   <text y="554.224" x="246.6,251.4,256.68,261.48,263.76,268.32,272.22,274.5,278.401,280.68,285.48,293.461,298.741,303.961,309.241,312.598,314.878,320.158,324.838,327.118,330.474,335.755,337.975,343.075,345.595,350.635,352.919,356.276,359.756,362.036,364.316,366.597,368.876,374.157,379.437,381.717,388.138,392.757,398.877,401.161,406.442,411.662,413.942,418.742,423.243,428.223,431.703,436.502,441.243,446.223,448.442,453.723,459.002,462.359,464.639,466.919,469.139,474.239,479.28,484.32,489.419,491.939,494.223,500.824,506.103,508.388,513.127" svgx:width="0.48,0.52,0.48,0.23,0.45,0.39,0.23,0.39,0.23,0.48,0.8,0.53,0.52,0.52,0.34,0.23,0.52,0.47,0.23,0.34,0.53,0.23,0.51,0.25,0.51,0.23,0.34,0.35,0.23,0.23,0.23,0.23,0.53,0.52,0.23,0.64,0.46,0.62,0.23,0.53,0.52,0.23,0.48,0.45,0.5,0.35,0.48,0.47,0.5,0.23,0.52,0.52,0.34,0.23,0.23,0.23,0.51,0.51,0.51,0.51,0.25,0.23,0.66,0.52,0.23,0.48,0.23" style="fill:rgb(0,0,0);font-family:Calibri;font-size:10.02px;stroke:none;">analysis amounting to 0.4 trillion USD on average until 2030. On a </text>
   <text y="566.409" x="246.6,250.08,255.06,259.799,262.079,267.359,272.64,277.441,279.72,282.005,284.284,289.264,293.764,298.744,301.025,303.544,305.764,308.82,315.48,319.8,322.86,328.14,331.561,336.841,339.126,343.985,348.244,353.464,358.745,363.964,371.944,374.225,378.483,382.383,384.667,389.768,394.808,399.908,404.948,408.004,410.289,414.188,419.409,424.628,431.768,435.668,438.188,440.473,443.833,449.113,453.914,457.213,459.498,464.297,469.518,474.798,480.079,484.818,487.099" svgx:width="0.35,0.5,0.47,0.23,0.53,0.52,0.48,0.23,0.23,0.23,0.5,0.45,0.5,0.23,0.25,0.23,0.3,0.66,0.43,0.31,0.53,0.35,0.52,0.23,0.49,0.42,0.53,0.52,0.53,0.8,0.23,0.42,0.39,0.23,0.51,0.51,0.51,0.51,0.3,0.23,0.39,0.52,0.53,0.71,0.39,0.25,0.23,0.34,0.52,0.48,0.34,0.23,0.48,0.52,0.52,0.52,0.48,0.23,0.23" style="fill:rgb(0,0,0);font-family:Calibri;font-size:10.02px;stroke:none;">regional level, (Oxford Economics 2017) shows, that annual </text>
   <text y="578.653" x="246.6,248.88,254.16,257.216,260.696,265.496,269.396,272.755,276.235,281.516,285.774,289.075,294.355,297.835,302.815,305.1,307.319,312.6,317.1,322.08,325.979,329.34,337.32,342.3,347.581,350.941,354.841,357.121,362.401,367.321,370.681,377.821,382.801,387.781,393.061,395.341,400.381,405.421,410.521,415.622,417.841,422.641,427.861,433.141,435.421,440.461,445.561,450.601,455.702,457.981,462.481,467.281,470.701,475.261,477.54,484.68,486.9,492.18,497.16,499.44,503.999,506.519" svgx:width="0.23,0.52,0.31,0.35,0.48,0.39,0.34,0.35,0.52,0.42,0.34,0.52,0.35,0.5,0.23,0.23,0.52,0.45,0.5,0.39,0.34,0.8,0.5,0.52,0.34,0.39,0.23,0.52,0.5,0.34,0.71,0.5,0.5,0.52,0.23,0.51,0.51,0.51,0.51,0.23,0.48,0.52,0.52,0.23,0.51,0.51,0.51,0.51,0.23,0.45,0.48,0.35,0.45,0.23,0.71,0.23,0.52,0.5,0.23,0.45,0.25,0.23" style="fill:rgb(0,0,0);font-family:Calibri;font-size:10.02px;stroke:none;">infrastructure investments between 2016 and 2040 vary widely. </text>
   <text y="590.837" x="246.6,251.22,256.501,259.981,262.265,267.065,269.345,271.625,273.904,278.704,283.204,288.004,290.284,292.564,297.363,302.643,304.863,309.843,312.123,316.383,321.664,326.884,332.164,335.521,339.001,341.281,346.261,350.161,352.445,355.445,360.725,365.645,370.745,375.785,378.845,381.13,386.11,390.009,393.366,395.647,403.626,408.426,411.783,416.764,420.663,422.883,427.143,432.424,437.644,442.924,446.281,450.18,452.46,456.72,459.0,464.28,468.18,473.16,475.38,478.736,483.956,486.24,491.34,493.861,498.901" svgx:width="0.46,0.53,0.35,0.23,0.48,0.23,0.23,0.23,0.48,0.45,0.48,0.23,0.23,0.48,0.52,0.23,0.5,0.23,0.42,0.53,0.52,0.52,0.34,0.35,0.23,0.5,0.39,0.23,0.3,0.52,0.5,0.51,0.51,0.3,0.23,0.5,0.39,0.34,0.23,0.8,0.48,0.34,0.5,0.39,0.23,0.42,0.53,0.52,0.52,0.34,0.39,0.23,0.42,0.23,0.53,0.39,0.5,0.23,0.34,0.53,0.23,0.51,0.25,0.51,0.23" style="fill:rgb(0,0,0);font-family:Calibri;font-size:10.02px;stroke:none;">For all available countries (n=50) estimates counts close to 0.4 </text>
   <text y="603.082" x="246.6,249.96,253.437,255.717,257.992,260.272,262.547,267.826,273.107,275.386,281.807,286.426,292.607,295.067,297.351,299.626,304.846,309.106,311.38,316.661,321.94,324.221,329.44,334.181,336.4,341.5,344.02,349.06,351.345,354.705,358.182,360.456,362.737,365.011,367.292,372.571,377.852,380.131,386.551,391.111,397.292,399.571,402.631,407.912,411.389,413.608,418.948,424.168,426.449,431.728,436.528,439.048,441.332,446.792,451.592,455.49,460.47,465.689,467.974,473.253,478.474,480.753,485.493,489.993,494.793,497.074,499.348,504.148,509.428,511.703,516.683" svgx:width="0.34,0.35,0.23,0.23,0.23,0.23,0.53,0.52,0.23,0.64,0.46,0.62,0.25,0.23,0.23,0.52,0.42,0.23,0.52,0.52,0.23,0.52,0.47,0.23,0.51,0.25,0.51,0.23,0.34,0.35,0.23,0.23,0.23,0.23,0.53,0.52,0.23,0.64,0.46,0.62,0.23,0.31,0.53,0.35,0.23,0.53,0.52,0.23,0.52,0.48,0.25,0.23,0.54,0.48,0.39,0.5,0.52,0.23,0.53,0.52,0.23,0.48,0.45,0.48,0.23,0.23,0.48,0.52,0.23,0.5,0.23" style="fill:rgb(0,0,0);font-family:Calibri;font-size:10.02px;stroke:none;">trillion USD, including 0.2 trillion USD for China. Based on available </text>
   <text y="615.266" x="246.6,251.881,256.68,260.037,264.836,267.116,270.116,275.396,278.876,281.156,286.196,288.476,294.296,297.352,300.832,303.112,307.312,312.112,317.392,319.672,323.872,329.153,334.433,339.653,343.009,346.489,348.769,353.749,357.649,360.169,362.453,364.673,369.953,374.453,379.433,383.333,386.69,394.671,399.65,404.93,408.287,412.188,414.467,416.748,422.027,424.248,427.728,432.527,434.807,437.087,439.367,441.647,446.927,449.983,453.463,458.262,462.162,465.519,468.999,474.279,478.539,481.84,487.119,490.599,495.597" svgx:width="0.52,0.48,0.34,0.48,0.23,0.31,0.53,0.35,0.23,0.51,0.23,0.58,0.31,0.35,0.23,0.42,0.48,0.52,0.23,0.42,0.53,0.52,0.52,0.34,0.35,0.23,0.5,0.39,0.25,0.23,0.23,0.52,0.45,0.5,0.39,0.34,0.8,0.5,0.52,0.34,0.39,0.23,0.23,0.52,0.23,0.35,0.48,0.23,0.23,0.23,0.23,0.52,0.31,0.35,0.48,0.39,0.34,0.35,0.52,0.42,0.34,0.52,0.35,0.5,0.23" style="fill:rgb(0,0,0);font-family:Calibri;font-size:10.02px;stroke:none;">data for 9 African countries, investments in rail infrastructure </text>
   <text y="627.511" x="246.6,250.08,254.88,260.16,264.9,269.88,272.1,275.16,278.64,283.921,291.9,294.18,299.28,301.74,306.78,309.065,314.345,316.626,318.905,321.185,323.465,328.745,334.025,336.305,342.726,347.285,353.467,355.747,358.027,363.308,365.528,370.148,375.128,380.408,385.328,390.067,394.867,397.147,399.427,402.788,408.067,410.288,415.388,417.908,422.948,425.167,430.448,432.727,435.007,437.288,439.567,444.848,450.128,452.413,458.833,463.452,469.572,471.852,474.131,479.412,481.632,488.112,490.391,495.131,500.111,503.591,505.87,510.671,513.191" svgx:width="0.35,0.48,0.52,0.47,0.5,0.23,0.31,0.35,0.53,0.8,0.23,0.51,0.25,0.51,0.23,0.52,0.23,0.23,0.23,0.23,0.53,0.52,0.23,0.64,0.46,0.62,0.23,0.23,0.52,0.23,0.46,0.5,0.52,0.5,0.47,0.48,0.23,0.23,0.34,0.53,0.23,0.51,0.25,0.51,0.23,0.52,0.23,0.23,0.23,0.23,0.53,0.52,0.23,0.64,0.46,0.62,0.23,0.23,0.52,0.23,0.65,0.23,0.47,0.5,0.35,0.23,0.48,0.25,0.23" style="fill:rgb(0,0,0);font-family:Calibri;font-size:10.02px;stroke:none;">range from 0.1 billion USD in Senegal to 1.6 billion USD in Nigeria. </text>
   <text y="639.695" x="246.6,249.656,256.316,260.216,265.016,272.996,277.796,280.016,284.996,288.356,290.636,295.436,297.716,300.236,302.456,307.497,312.597,317.636,322.736,325.792,328.012,333.293,335.574,340.253,345.533,347.813,350.094,354.833,360.114,363.473,367.313,369.598,374.397,376.682,381.782,384.242,389.342,391.561,396.842,399.121,401.401,403.681,405.961,411.242,416.522,418.807,425.166,429.786,435.968,438.247,441.308,443.528,448.809,453.608,458.829,463.087,465.367,470.647,475.327,477.607,482.287,487.088,492.368,494.653,497.712,502.993,506.473" svgx:width="0.3,0.66,0.39,0.48,0.8,0.48,0.23,0.5,0.34,0.23,0.48,0.23,0.25,0.23,0.51,0.51,0.51,0.51,0.3,0.23,0.52,0.23,0.47,0.52,0.23,0.23,0.47,0.52,0.34,0.39,0.23,0.48,0.23,0.51,0.25,0.51,0.23,0.52,0.23,0.23,0.23,0.23,0.53,0.52,0.23,0.64,0.46,0.62,0.23,0.31,0.23,0.52,0.48,0.52,0.42,0.23,0.52,0.47,0.23,0.47,0.48,0.52,0.23,0.31,0.53,0.35,0.23" style="fill:rgb(0,0,0);font-family:Calibri;font-size:10.02px;stroke:none;">(Osama et al. 2021) highlights a 4.7 billion USD financing gap for </text>
   <text y="651.939" x="246.6,252.42,255.476,258.956,261.236,265.496,270.295,275.515,277.799,282.059,287.279,292.559,297.779,301.136,304.616,306.896,311.876,315.776,318.056,320.336,325.616,327.9,331.257,336.538,341.457,343.737,347.094,350.575,355.374,360.654,364.494,369.774,375.054,378.534,381.891,384.171,388.071,393.051,397.251,400.607,405.888,409.368,411.888,414.173,416.693,421.912,424.132,428.332,433.131,436.488,438.768,444.048,446.328,452.148,460.128,465.108,468.588,470.868,475.068,479.868,482.147,485.447,490.727,495.707" svgx:width="0.58,0.31,0.35,0.23,0.42,0.48,0.52,0.23,0.42,0.53,0.52,0.52,0.34,0.35,0.23,0.5,0.39,0.23,0.23,0.52,0.23,0.34,0.52,0.5,0.23,0.34,0.35,0.48,0.52,0.39,0.52,0.53,0.35,0.34,0.23,0.39,0.5,0.42,0.34,0.53,0.35,0.25,0.23,0.25,0.52,0.23,0.42,0.48,0.34,0.23,0.52,0.23,0.58,0.8,0.5,0.35,0.23,0.42,0.48,0.23,0.34,0.52,0.5,0.23" style="fill:rgb(0,0,0);font-family:Calibri;font-size:10.02px;stroke:none;">African countries in the transport sector. In Latin America the </text>
   <text y="664.124" x="246.6,250.08,255.06,260.34,265.62,269.1,272.461,274.74,277.025,282.304,287.225,292.505,295.865,298.145,301.205,303.49,308.47,312.369,314.649,320.109,323.59,328.389,332.349,334.634,336.913,339.198,343.997,347.898,350.178,353.238,356.718,361.938,367.218,370.578,374.058,379.338,384.558,389.839,394.819,398.299,400.578,405.859,408.859,411.138,414.619,419.539,424.819,430.099,432.379,435.859,440.839,446.118,448.403,451.883,456.682,458.967,461.241,463.526,465.8,471.08,475.58,480.501,484.399,487.758,495.738,500.718,505.999,509.358,513.256" svgx:width="0.35,0.5,0.52,0.53,0.35,0.34,0.23,0.23,0.52,0.5,0.52,0.34,0.23,0.31,0.23,0.5,0.39,0.23,0.54,0.35,0.48,0.4,0.23,0.23,0.23,0.48,0.39,0.23,0.31,0.35,0.53,0.52,0.34,0.35,0.52,0.52,0.52,0.5,0.35,0.23,0.53,0.31,0.23,0.35,0.5,0.52,0.52,0.23,0.35,0.5,0.52,0.23,0.35,0.48,0.23,0.23,0.23,0.23,0.52,0.45,0.5,0.39,0.34,0.8,0.5,0.52,0.34,0.39,0.23" style="fill:rgb(0,0,0);font-family:Calibri;font-size:10.02px;stroke:none;">report identifies Brazil as frontrunner of required rail investments </text>
   <text y="676.368" x="246.6,253.744,256.019,259.38,264.659,266.939,272.039,274.499,279.599,281.883,287.163,289.437,291.718,293.993,296.273,301.553,306.773,309.053,315.472,320.093,326.213,328.733,331.012,334.073,339.353,341.628,343.908,349.188,356.332,361.312,366.531,368.816,374.095,378.595,380.88,386.04,391.021,394.498,399.779,402.058,409.202,411.483,414.782,420.062,422.347,427.387,429.907,435.007,437.286,442.567,444.841,447.116,449.396,451.671,456.952,462.231,464.516,470.875,475.496,481.675,484.195,486.415,491.275,496.556,499.915,504.715,506.996,509.27,513.83,516.35" svgx:width="0.71,0.23,0.34,0.52,0.23,0.51,0.25,0.51,0.23,0.52,0.23,0.23,0.23,0.23,0.53,0.52,0.23,0.64,0.46,0.62,0.25,0.23,0.31,0.53,0.23,0.23,0.53,0.71,0.5,0.52,0.23,0.52,0.45,0.23,0.52,0.5,0.35,0.52,0.23,0.71,0.23,0.34,0.52,0.23,0.51,0.25,0.51,0.23,0.52,0.23,0.23,0.23,0.23,0.53,0.52,0.23,0.64,0.46,0.62,0.25,0.23,0.49,0.53,0.34,0.48,0.23,0.23,0.45,0.25,0.23" style="fill:rgb(0,0,0);font-family:Calibri;font-size:10.02px;stroke:none;">with 8.3 billion USD, followed by Peru with 2.3 billion USD. Totally, </text>
   <text y="688.552" x="246.6,251.881,256.86,261.36,266.34,268.62,273.9,279.181,284.161,289.441,291.661,295.919,301.139,306.359,311.64,315.001,318.48,320.76,325.74,329.64,331.924,339.904,345.184,350.464,355.685,359.044,361.324,366.544,371.284,373.568,378.788,384.068,386.348,389.709,394.928,397.213,402.253,407.353,412.393,414.672,419.953,422.234,424.513,426.794,429.073,434.354,439.634,441.919,448.339,452.899,459.081,461.361,465.92,469.385,472.381,477.481,479.7,482.756,487.977,492.957,498.057,503.157,505.617" svgx:width="0.52,0.5,0.45,0.5,0.23,0.53,0.52,0.5,0.52,0.23,0.42,0.53,0.52,0.52,0.34,0.35,0.23,0.5,0.39,0.23,0.8,0.53,0.52,0.52,0.34,0.23,0.52,0.47,0.23,0.52,0.52,0.23,0.34,0.53,0.23,0.51,0.51,0.51,0.23,0.52,0.23,0.23,0.23,0.23,0.53,0.52,0.23,0.64,0.46,0.62,0.23,0.45,0.35,0.31,0.51,0.23,0.3,0.52,0.5,0.51,0.51,0.25,0.23" style="fill:rgb(0,0,0);font-family:Calibri;font-size:10.02px;stroke:none;">developed countries mounting up to 117 billion USD yr-1 (n=14, </text>
   <text y="700.737" x="246.6,254.58,259.56,264.36,269.641,274.621,279.721,282.181,287.281,292.321,297.602,302.882,305.102,311.523,316.142,322.324,325.324,327.609,330.669,335.948,339.428,341.708,345.188,349.988,352.268,354.548,356.828,359.108,364.328,367.388,370.868,375.669,379.568,382.928,386.408,391.689,395.947,399.248,404.528,408.008,412.988,415.273,418.273,423.492,428.773,434.053,436.334,441.553,446.293,448.572,453.853,458.773,463.752,469.033,472.933,475.393" svgx:width="0.8,0.5,0.48,0.52,0.5,0.51,0.25,0.51,0.51,0.52,0.52,0.23,0.64,0.46,0.62,0.3,0.23,0.31,0.53,0.35,0.23,0.35,0.48,0.23,0.23,0.23,0.23,0.52,0.31,0.35,0.48,0.39,0.34,0.35,0.52,0.42,0.34,0.52,0.35,0.5,0.23,0.31,0.52,0.52,0.52,0.23,0.52,0.47,0.23,0.52,0.5,0.5,0.52,0.39,0.25,0.23" style="fill:rgb(0,0,0);font-family:Calibri;font-size:10.02px;stroke:none;">mean=8.35bn USD) for rail infrastructure funding needs, </text>
   <text y="712.981" x="246.6,250.5,255.78,260.039,264.297,269.277,274.197,279.478,284.458,289.677,291.962,297.181,301.74,303.961,309.241,314.221,318.721,323.701,325.982,331.261,336.542,338.821,344.102,348.781,351.066,355.324,360.544,365.825,371.106,374.465,377.945,380.226,385.206,389.105,391.385,394.441,399.421,403.682,407.94,410.221,412.741,415.02,419.16,425.343,430.682,434.582,437.638,439.923,447.062,449.343,452.702,457.923,460.202,465.236,470.337,472.556,477.837,480.116,482.397,484.676,486.957,492.236,497.517,499.796,506.216,510.835,517.018" svgx:width="0.39,0.52,0.42,0.42,0.5,0.5,0.52,0.5,0.52,0.23,0.52,0.45,0.23,0.52,0.5,0.45,0.5,0.23,0.53,0.52,0.23,0.52,0.47,0.23,0.42,0.53,0.52,0.52,0.34,0.35,0.23,0.5,0.39,0.23,0.3,0.5,0.43,0.42,0.23,0.25,0.23,0.42,0.62,0.53,0.39,0.3,0.23,0.71,0.23,0.34,0.52,0.23,0.51,0.51,0.23,0.52,0.23,0.23,0.23,0.23,0.53,0.52,0.23,0.64,0.46,0.62,0.23" style="fill:rgb(0,0,0);font-family:Calibri;font-size:10.02px;stroke:none;">succeeded by developing countries (excl. LDCs) with 26 billion USD </text>
   <text y="725.166" x="246.6,251.159,254.636,257.692,262.792,265.012,268.068,273.348,278.268,283.368,288.408,290.928,293.208,301.188,306.108,310.908,316.189,321.169,326.269,328.729,333.829,338.869,344.15,349.43,351.71,358.071,362.631,368.813,371.333,373.618,378.598,382.857,387.116,389.395,394.676,399.956,402.237,407.456,412.196,414.475,419.756,425.036,427.317,432.597,437.398,440.454,442.914,445.136" svgx:width="0.45,0.35,0.31,0.51,0.23,0.3,0.52,0.5,0.51,0.51,0.25,0.23,0.8,0.5,0.48,0.52,0.5,0.51,0.25,0.51,0.51,0.52,0.52,0.23,0.64,0.46,0.62,0.25,0.23,0.5,0.43,0.42,0.23,0.52,0.52,0.23,0.52,0.47,0.23,0.53,0.52,0.23,0.52,0.48,0.3,0.25,0.23,0.23" style="fill:rgb(0,0,0);font-family:Calibri;font-size:10.02px;stroke:none;">yr-1 (n=28, mean=0.93bn USD, excluding China). </text>
   <text y="737.41" x="246.6" svgx:width="0.23" style="fill:rgb(0,0,0);font-family:Calibri;font-size:10.02px;stroke:none;"> </text>
   <text y="749.594" x="246.6,251.219,256.5,261.78,267.061,269.281,274.562,276.846,282.127,287.047,289.331,293.532,298.812,303.552,308.832,313.572,318.491,323.772,326.057,329.416,334.637,337.336,339.535" svgx:width="0.46,0.52,0.53,0.52,0.23,0.52,0.23,0.52,0.5,0.23,0.42,0.52,0.48,0.52,0.47,0.5,0.52,0.23,0.34,0.53,0.27,0.23,0.23" style="fill:rgb(0,0,0);font-family:Calibri;font-size:10.02px;stroke:none;">Should be changed to: </text>
   <text y="761.839" x="246.6,248.885,253.744,259.025,264.005,266.284,271.085,274.983,278.88,283.86,287.758,291.656,299.637,304.617,309.896,313.256,315.54,319.74,325.02,333.0,338.28,341.757,344.037,347.935,352.915,356.813,359.097,362.574,367.854,372.654,377.934,380.454,382.733,386.154,390.954,393.234,395.509,397.788,402.589,407.869,413.089,415.369,420.169,422.389,425.866,431.146,436.426,439.902,443.263,447.161,451.061,456.281,461.561,465.038,468.397,472.295" svgx:width="0.23,0.49,0.52,0.5,0.23,0.48,0.39,0.39,0.5,0.39,0.39,0.8,0.5,0.52,0.34,0.23,0.42,0.53,0.8,0.52,0.35,0.23,0.39,0.5,0.39,0.23,0.35,0.53,0.48,0.52,0.25,0.23,0.35,0.48,0.23,0.23,0.23,0.48,0.52,0.52,0.23,0.48,0.23,0.35,0.52,0.53,0.35,0.34,0.39,0.39,0.52,0.53,0.35,0.34,0.39,0.23" style="fill:rgb(0,0,0);font-family:Calibri;font-size:10.02px;stroke:none;"> The assessment comprises road, rail and airports/ports </text>
  </g>
  <g begin="text">
   <text y="773.94" x="246.6,248.88,254.16,257.22,260.7,265.5,269.401,272.76,276.24,281.521,285.779,289.079,294.359,297.839,302.819,305.039,312.179,314.459,317.819,323.1,325.379,330.659,335.939,338.219,342.719,345.003,348.483,353.283,355.563,357.843,360.128,362.407,367.688,370.748,374.228,379.027,382.927,386.288,389.768,395.048,399.249,402.608,407.889,411.369,416.349,418.568,423.789,428.769,431.048,436.329,441.068,443.289,447.547,452.828,458.108,462.009,464.289,469.569,474.549,478.029,482.949,488.229,490.514,492.793,498.074,500.354,503.654,508.935,511.215,515.115" svgx:width="0.23,0.52,0.31,0.35,0.48,0.39,0.34,0.35,0.52,0.42,0.34,0.52,0.35,0.5,0.23,0.71,0.23,0.34,0.52,0.23,0.53,0.52,0.23,0.45,0.23,0.35,0.48,0.23,0.23,0.23,0.23,0.52,0.31,0.35,0.48,0.39,0.34,0.35,0.52,0.42,0.34,0.52,0.35,0.5,0.23,0.52,0.5,0.23,0.52,0.47,0.23,0.42,0.53,0.52,0.39,0.23,0.52,0.5,0.35,0.5,0.52,0.23,0.23,0.52,0.23,0.34,0.52,0.23,0.39,0.23" style="fill:rgb(0,0,0);font-family:Calibri;font-size:10.02px;stroke:none;">infrastructure with only rail infrastructure being considered in this </text>
  </g>
  <path style="fill:rgb(0,0,0);stroke:none;stroke-width:1.0;" d="M70.860 321.600 L71.340 321.600 L71.340 322.080 L70.860 322.080 L70.860 321.600 "/>
  <path style="fill:rgb(0,0,0);stroke:none;stroke-width:1.0;" d="M71.340 321.600 L127.560 321.600 L127.560 322.080 L71.340 322.080 L71.340 321.600 "/>
  <path style="fill:rgb(0,0,0);stroke:none;stroke-width:1.0;" d="M127.560 321.600 L128.040 321.600 L128.040 322.080 L127.560 322.080 L127.560 321.600 "/>
  <path style="fill:rgb(0,0,0);stroke:none;stroke-width:1.0;" d="M128.040 321.600 L184.260 321.600 L184.260 322.080 L128.040 322.080 L128.040 321.600 "/>
  <path style="fill:rgb(0,0,0);stroke:none;stroke-width:1.0;" d="M184.260 321.600 L184.740 321.600 L184.740 322.080 L184.260 322.080 L184.260 321.600 "/>
  <path style="fill:rgb(0,0,0);stroke:none;stroke-width:1.0;" d="M184.740 321.600 L240.960 321.600 L240.960 322.080 L184.740 322.080 L184.740 321.600 "/>
  <path style="fill:rgb(0,0,0);stroke:none;stroke-width:1.0;" d="M240.960 321.600 L241.440 321.600 L241.440 322.080 L240.960 322.080 L240.960 321.600 "/>
  <path style="fill:rgb(0,0,0);stroke:none;stroke-width:1.0;" d="M523.980 321.600 L524.460 321.600 L524.460 322.080 L523.980 322.080 L523.980 321.600 "/>
  <path style="fill:rgb(0,0,0);stroke:none;stroke-width:1.0;" d="M70.860 64.740 L71.340 64.740 L71.340 65.220 L70.860 65.220 L70.860 64.740 "/>
  <path style="fill:rgb(0,0,0);stroke:none;stroke-width:1.0;" d="M70.860 64.740 L71.340 64.740 L71.340 65.220 L70.860 65.220 L70.860 64.740 "/>
  <path style="fill:rgb(0,0,0);stroke:none;stroke-width:1.0;" d="M71.340 64.740 L127.560 64.740 L127.560 65.220 L71.340 65.220 L71.340 64.740 "/>
  <path style="fill:rgb(0,0,0);stroke:none;stroke-width:1.0;" d="M127.560 64.740 L128.040 64.740 L128.040 65.220 L127.560 65.220 L127.560 64.740 "/>
  <path style="fill:rgb(0,0,0);stroke:none;stroke-width:1.0;" d="M128.040 64.740 L184.260 64.740 L184.260 65.220 L128.040 65.220 L128.040 64.740 "/>
  <path style="fill:rgb(0,0,0);stroke:none;stroke-width:1.0;" d="M184.260 64.740 L184.740 64.740 L184.740 65.220 L184.260 65.220 L184.260 64.740 "/>
  <path style="fill:rgb(0,0,0);stroke:none;stroke-width:1.0;" d="M184.740 64.740 L240.960 64.740 L240.960 65.220 L184.740 65.220 L184.740 64.740 "/>
  <path style="fill:rgb(0,0,0);stroke:none;stroke-width:1.0;" d="M240.960 64.740 L241.440 64.740 L241.440 65.220 L240.960 65.220 L240.960 64.740 "/>
  <path style="fill:rgb(0,0,0);stroke:none;stroke-width:1.0;" d="M523.980 64.740 L524.460 64.740 L524.460 65.220 L523.980 65.220 L523.980 64.740 "/>
  <path style="fill:rgb(0,0,0);stroke:none;stroke-width:1.0;" d="M523.980 64.740 L524.460 64.740 L524.460 65.220 L523.980 65.220 L523.980 64.740 "/>
 </g>
</svg>
