<?xml version="1.0" encoding="UTF-8"?>
<svg height="781.06" width="534.46" xmlns="http://www.w3.org/2000/svg">
 <g id="page" xmlns:svgx="http://www.xml-cml.org/schema/svgx">
  <g begin="text">
   <text y="80.82" x="246.6,248.88,254.16,258.42,261.901,266.881,271.68,275.58,280.56,282.784,288.064,292.624,294.848,297.904,302.704,306.904,310.261,315.542,319.022" svgx:width="0.23,0.52,0.42,0.35,0.5,0.48,0.39,0.5,0.23,0.52,0.45,0.23,0.31,0.48,0.42,0.34,0.53,0.35,0.23" style="fill:rgb(0,0,0);font-family:Calibri;font-size:10.02px;stroke:none;">increase by factor </text>
  </g>
  <g begin="text">
   <text y="80.82" x="321.3" svgx:width="0.51" style="fill:rgb(0,0,0);font-family:Calibri;font-size:10.02px;stroke:none;">4</text>
  </g>
  <g begin="text">
   <text y="80.82" x="326.4" svgx:width="0.31" style="fill:rgb(0,0,0);font-family:Calibri;font-size:10.02px;stroke:none;">-</text>
  </g>
  <g begin="text">
   <text y="80.82" x="329.4,334.5" svgx:width="0.51,0.23" style="fill:rgb(0,0,0);font-family:Calibri;font-size:10.02px;stroke:none;">7 </text>
  </g>
  <g begin="text">
   <text y="80.82" x="336.78,339.06,344.34,346.56,351.84,356.82,361.32,366.24,368.52,373.8,379.08,381.36,386.641,391.38,393.604,397.863,403.143,408.363,413.643,417.003,420.483,422.703,427.683,431.583,433.863,438.663,443.944,449.164" svgx:width="0.23,0.52,0.23,0.52,0.5,0.45,0.5,0.23,0.53,0.52,0.23,0.52,0.47,0.23,0.42,0.53,0.52,0.52,0.34,0.35,0.23,0.5,0.39,0.23,0.48,0.52,0.52,0.23" style="fill:rgb(0,0,0);font-family:Calibri;font-size:10.02px;stroke:none;">in developing countries and </text>
  </g>
  <g begin="text">
   <text y="80.82" x="451.44" svgx:width="0.51" style="fill:rgb(0,0,0);font-family:Calibri;font-size:10.02px;stroke:none;">3</text>
  </g>
  <g begin="text">
   <text y="80.82" x="456.54" svgx:width="0.31" style="fill:rgb(0,0,0);font-family:Calibri;font-size:10.02px;stroke:none;">-</text>
  </g>
  <g begin="text">
   <text y="80.82" x="459.54" svgx:width="0.51" style="fill:rgb(0,0,0);font-family:Calibri;font-size:10.02px;stroke:none;">5</text>
  </g>
  <g begin="text">
   <text y="80.82" x="464.64" svgx:width="0.23" style="fill:rgb(0,0,0);font-family:Calibri;font-size:10.02px;stroke:none;"> </text>
  </g>
  <g begin="text">
   <text y="80.82" x="466.92,469.195,474.475" svgx:width="0.23,0.52,0.23" style="fill:rgb(0,0,0);font-family:Calibri;font-size:10.02px;stroke:none;">in </text>
  </g>
  <g begin="text">
   <text y="93.06" x="246.6,251.881,256.86,261.36,266.34,268.625,273.904,279.185,284.165,289.445,291.669,295.928,301.149,306.369,311.649,315.01,318.49,320.769,325.749,329.65,332.165" svgx:width="0.52,0.5,0.45,0.5,0.23,0.53,0.52,0.5,0.52,0.23,0.42,0.53,0.52,0.52,0.34,0.35,0.23,0.5,0.39,0.25,0.23" style="fill:rgb(0,0,0);font-family:Calibri;font-size:10.02px;stroke:none;">developed countries. </text>
  </g>
  <path style="fill:rgb(0,0,0);stroke:none;stroke-width:1.0;" d="M70.860 770.580 L71.340 770.580 L71.340 771.060 L70.860 771.060 L70.860 770.580 "/>
  <path style="fill:rgb(0,0,0);stroke:none;stroke-width:1.0;" d="M70.860 770.580 L71.340 770.580 L71.340 771.060 L70.860 771.060 L70.860 770.580 "/>
  <path style="fill:rgb(0,0,0);stroke:none;stroke-width:1.0;" d="M71.340 770.580 L127.560 770.580 L127.560 771.060 L71.340 771.060 L71.340 770.580 "/>
  <path style="fill:rgb(0,0,0);stroke:none;stroke-width:1.0;" d="M127.560 770.580 L128.040 770.580 L128.040 771.060 L127.560 771.060 L127.560 770.580 "/>
  <path style="fill:rgb(0,0,0);stroke:none;stroke-width:1.0;" d="M128.040 770.580 L184.260 770.580 L184.260 771.060 L128.040 771.060 L128.040 770.580 "/>
  <path style="fill:rgb(0,0,0);stroke:none;stroke-width:1.0;" d="M184.260 770.580 L184.740 770.580 L184.740 771.060 L184.260 771.060 L184.260 770.580 "/>
  <path style="fill:rgb(0,0,0);stroke:none;stroke-width:1.0;" d="M184.740 770.580 L240.960 770.580 L240.960 771.060 L184.740 771.060 L184.740 770.580 "/>
  <path style="fill:rgb(0,0,0);stroke:none;stroke-width:1.0;" d="M240.960 770.580 L241.440 770.580 L241.440 771.060 L240.960 771.060 L240.960 770.580 "/>
  <path style="fill:rgb(0,0,0);stroke:none;stroke-width:1.0;" d="M523.980 770.580 L524.460 770.580 L524.460 771.060 L523.980 771.060 L523.980 770.580 "/>
  <path style="fill:rgb(0,0,0);stroke:none;stroke-width:1.0;" d="M523.980 770.580 L524.460 770.580 L524.460 771.060 L523.980 771.060 L523.980 770.580 "/>
  <path style="fill:rgb(0,0,0);stroke:none;stroke-width:1.0;" d="M70.860 676.080 L71.340 676.080 L71.340 770.580 L70.860 770.580 L70.860 676.080 "/>
  <path style="fill:rgb(0,0,0);stroke:none;stroke-width:1.0;" d="M127.560 676.080 L128.040 676.080 L128.040 770.580 L127.560 770.580 L127.560 676.080 "/>
  <path style="fill:rgb(0,0,0);stroke:none;stroke-width:1.0;" d="M184.260 676.080 L184.740 676.080 L184.740 770.580 L184.260 770.580 L184.260 676.080 "/>
  <path style="fill:rgb(0,0,0);stroke:none;stroke-width:1.0;" d="M240.960 676.080 L241.440 676.080 L241.440 770.580 L240.960 770.580 L240.960 676.080 "/>
  <path style="fill:rgb(0,0,0);stroke:none;stroke-width:1.0;" d="M523.980 676.080 L524.460 676.080 L524.460 770.580 L523.980 770.580 L523.980 676.080 "/>
  <g begin="text">
   <text y="175.86" x="76.5,81.841,87.121,91.921,97.201,100.558,105.538,108.958,111.242,116.282" svgx:width="0.53,0.52,0.48,0.52,0.34,0.5,0.35,0.23,0.51,0.51" style="fill:rgb(0,0,0);font-family:Calibri;font-size:10.02px;stroke:none;">Chapter 15</text>
  </g>
  <g begin="text">
   <text y="175.86" x="121.32" svgx:width="0.23" style="fill:rgb(0,0,0);font-family:Calibri;font-size:10.02px;stroke:none;"> </text>
  </g>
  <g begin="text">
   <text y="175.86" x="133.2,138.3" svgx:width="0.51,0.51" style="fill:rgb(0,0,0);font-family:Calibri;font-size:10.02px;stroke:none;">42</text>
  </g>
  <g begin="text">
   <text y="175.86" x="143.34" svgx:width="0.23" style="fill:rgb(0,0,0);font-family:Calibri;font-size:10.02px;stroke:none;"> </text>
  </g>
  <g begin="text">
   <text y="175.86" x="189.9,195.0" svgx:width="0.51,0.51" style="fill:rgb(0,0,0);font-family:Calibri;font-size:10.02px;stroke:none;">17</text>
  </g>
  <g begin="text">
   <text y="175.86" x="200.04" svgx:width="0.23" style="fill:rgb(0,0,0);font-family:Calibri;font-size:10.02px;stroke:none;"> </text>
  </g>
  <g begin="text">
   <text y="175.86" x="246.6,251.22,253.495,258.775,265.915,269.812,272.097,275.457,280.737,282.957,287.877,292.677,296.575,299.934,304.855,308.332,313.612,315.896,321.716,325.614,327.894,332.694,335.154,337.438,344.578,346.858,350.218,355.497,357.782" svgx:width="0.46,0.23,0.53,0.71,0.39,0.23,0.34,0.53,0.23,0.49,0.48,0.39,0.34,0.5,0.35,0.52,0.23,0.58,0.39,0.23,0.48,0.25,0.23,0.71,0.23,0.34,0.52,0.23,0.23" style="fill:rgb(0,0,0);font-family:Calibri;font-size:10.02px;stroke:none;">Flows to Eastern Asia, with i</text>
  </g>
  <g begin="text">
   <text y="175.86" x="360.06,363.36,367.257,369.537,374.336,378.836,383.817,387.294,392.094,396.833,401.814,404.094,407.154,409.428,414.709,421.789,425.687,427.966,433.247,436.307,438.587,443.627,448.727,453.767,456.046,461.327,463.602,465.882,468.157,470.431,475.712,480.931,483.216,489.635,494.256,500.376" svgx:width="0.34,0.39,0.23,0.48,0.45,0.5,0.35,0.48,0.47,0.5,0.23,0.31,0.23,0.53,0.71,0.39,0.23,0.53,0.31,0.23,0.51,0.51,0.51,0.23,0.52,0.23,0.23,0.23,0.23,0.53,0.52,0.23,0.64,0.46,0.62,0.23" style="fill:rgb(0,0,0);font-family:Calibri;font-size:10.02px;stroke:none;">ts average flows of 269 billion USD </text>
  </g>
  <g begin="text">
   <text y="188.04" x="246.6,251.881,256.861,259.141,264.421,269.101,271.38,276.661,281.942,289.921,292.201,297.482,302.222,305.522,310.502,315.781,318.066,323.285,327.845,330.13,335.409,340.69,342.969,348.25,353.049,355.27,358.329,366.25,371.53,375.01,379.99,382.275,385.632,390.912,395.652,400.932,403.212,408.252,413.352,420.491,422.712,427.992,431.048,433.333,436.689,441.97,445.327,450.126,452.407,454.686,462.666,464.947,468.304,470.583,475.263,480.063,483.363,485.642,490.923,496.202" svgx:width="0.52,0.5,0.23,0.52,0.47,0.23,0.52,0.53,0.8,0.23,0.52,0.48,0.34,0.5,0.52,0.23,0.52,0.45,0.23,0.53,0.52,0.23,0.52,0.48,0.23,0.3,0.8,0.53,0.35,0.5,0.23,0.34,0.52,0.48,0.52,0.23,0.51,0.51,0.71,0.23,0.53,0.31,0.23,0.34,0.53,0.34,0.48,0.23,0.23,0.8,0.23,0.34,0.23,0.47,0.48,0.34,0.23,0.53,0.52,0.23" style="fill:rgb(0,0,0);font-family:Calibri;font-size:10.02px;stroke:none;">being dominated by China (more than 95% of total mitigation </text>
   <text y="200.224" x="246.6,249.656,251.936,257.216,264.356,268.256,271.613,276.893,279.173,284.093,288.892,292.792,296.149,301.129,304.549,309.829,312.109,317.929,321.829,324.109,328.849,331.909,334.429,336.709,343.849,349.069,354.349,356.629,361.909,364.129,369.409,374.209,378.709,383.689,385.973,389.33,394.611,396.89,399.111,404.39,408.651,412.13,417.11,421.85,425.751,430.731,433.01,438.291,442.79,445.074,449.874,452.158,455.215,459.954,464.224,467.581,472.862,476.342,478.561,483.842,486.898,489.177,494.284,497.28,502.381,504.835" svgx:width="0.31,0.23,0.53,0.71,0.39,0.34,0.53,0.23,0.49,0.48,0.39,0.34,0.5,0.35,0.52,0.23,0.58,0.39,0.23,0.48,0.3,0.25,0.23,0.71,0.53,0.52,0.23,0.52,0.23,0.52,0.48,0.45,0.5,0.23,0.34,0.53,0.23,0.23,0.52,0.42,0.35,0.5,0.48,0.39,0.5,0.23,0.52,0.45,0.23,0.48,0.23,0.31,0.48,0.42,0.34,0.53,0.35,0.23,0.53,0.31,0.23,0.51,0.31,0.51,0.25,0.23" style="fill:rgb(0,0,0);font-family:Calibri;font-size:10.02px;stroke:none;">flowsto Eastern Asia), would have to increase by a factor of 2-4, </text>
   <text y="212.469" x="246.6" svgx:width="0.23" style="fill:rgb(0,0,0);font-family:Calibri;font-size:10.02px;stroke:none;"> </text>
   <text y="224.653" x="246.6,249.656,254.636,256.921,261.54,263.82,269.1,276.244,280.142,282.426,285.786,291.066,293.286,298.206,303.006,306.846,310.206,315.186,318.663,323.943,326.223,332.042,335.94,338.215,342.955,345.475,347.755,354.899,357.174,360.533,365.758,367.982,370.262,373.619,377.518,379.798,384.597,389.877,395.097,400.377,405.177,407.456,409.741,414.54,419.04,424.02,427.44,432.24,436.979,441.959,444.244,447.3,449.579,454.86,461.999,465.9,468.119,471.179,476.219,481.32,486.36,491.459,494.515,499.555,504.655,509.695,514.795,517.851" svgx:width="0.31,0.5,0.23,0.46,0.23,0.53,0.71,0.39,0.23,0.34,0.53,0.23,0.49,0.48,0.39,0.34,0.5,0.35,0.52,0.23,0.58,0.39,0.23,0.48,0.25,0.23,0.71,0.23,0.34,0.52,0.23,0.23,0.34,0.39,0.23,0.48,0.52,0.52,0.52,0.48,0.23,0.23,0.48,0.45,0.5,0.35,0.48,0.47,0.5,0.23,0.31,0.23,0.53,0.71,0.39,0.23,0.3,0.51,0.51,0.51,0.51,0.31,0.51,0.51,0.51,0.51,0.3,0.23" style="fill:rgb(0,0,0);font-family:Calibri;font-size:10.02px;stroke:none;">-&gt; Flows to Eastern Asia, with its annual average flows (2017-2020) </text>
   <text y="236.898" x="246.59,251.871,254.93,257.21,262.25,267.35,272.451,274.675,279.956,282.236,284.516,286.796,289.076,294.356,299.637,301.861,308.281,312.9,319.083,324.123,329.163,334.263,339.363,341.583,346.863,351.843,354.124,359.343,364.083,366.349,371.629,376.909,384.889,387.169,392.389,397.189,400.545,405.525,410.745,413.029,418.249,422.809,425.093,430.434,435.714,437.934,443.213,448.013,450.232,453.293,461.274,466.554,470.034,475.014,477.234,480.591,485.871,490.67,495.89,498.174,503.214,508.314,515.454" svgx:width="0.53,0.31,0.23,0.51,0.51,0.51,0.23,0.52,0.23,0.23,0.23,0.23,0.53,0.52,0.23,0.64,0.46,0.62,0.51,0.51,0.51,0.51,0.23,0.52,0.5,0.23,0.52,0.47,0.23,0.52,0.53,0.8,0.23,0.52,0.48,0.34,0.5,0.52,0.23,0.52,0.45,0.23,0.53,0.52,0.23,0.52,0.48,0.23,0.3,0.8,0.53,0.35,0.5,0.23,0.34,0.52,0.48,0.52,0.23,0.51,0.51,0.71,0.23" style="fill:rgb(0,0,0);font-family:Calibri;font-size:10.02px;stroke:none;">of 252 billion USD2015 being dominated by China (more than 95% </text>
   <text y="249.082" x="246.59,251.871,254.927,257.211,260.568,265.848,269.205,274.005,276.285,278.565,286.545,288.825,292.182,294.462,299.142,303.941,307.242,309.522,314.802,320.082,322.366,325.422,327.702,332.982,340.122,344.022,346.302,349.659,354.939,357.159,362.079,366.819,370.719,374.075,379.055,382.535,387.815,390.099,395.919,399.819,402.099,406.899,409.899,412.419,414.703,421.843,427.063,432.343,434.623,439.903,442.187,447.407,452.206,456.706,461.686,463.966,467.323,472.603,474.883,477.163,482.384,486.583,490.063,495.043,499.842,503.742,508.722" svgx:width="0.53,0.31,0.23,0.34,0.53,0.34,0.48,0.23,0.23,0.8,0.23,0.34,0.23,0.47,0.48,0.34,0.23,0.53,0.52,0.23,0.31,0.23,0.53,0.71,0.39,0.23,0.34,0.53,0.23,0.49,0.48,0.39,0.34,0.5,0.35,0.52,0.23,0.58,0.39,0.23,0.48,0.3,0.25,0.23,0.71,0.53,0.52,0.23,0.52,0.23,0.52,0.48,0.45,0.5,0.23,0.34,0.53,0.23,0.23,0.52,0.42,0.35,0.5,0.48,0.39,0.5,0.23" style="fill:rgb(0,0,0);font-family:Calibri;font-size:10.02px;stroke:none;">of total mitigation flows to Eastern Asia), would have to increase </text>
  </g>
  <g begin="text">
   <text y="261.3" x="246.6,251.881,256.44,258.724,263.464,265.748,268.804,273.544,277.804,281.161,286.441,289.921,292.206,297.487,300.487,302.771" svgx:width="0.52,0.45,0.23,0.48,0.23,0.31,0.48,0.42,0.34,0.53,0.35,0.23,0.53,0.31,0.23,0.51" style="fill:rgb(0,0,0);font-family:Calibri;font-size:10.02px;stroke:none;">by a factor of 2</text>
  </g>
  <g begin="text">
   <text y="261.3" x="307.8" svgx:width="0.31" style="fill:rgb(0,0,0);font-family:Calibri;font-size:10.02px;stroke:none;">-</text>
  </g>
  <g begin="text">
   <text y="261.3" x="310.86,315.96" svgx:width="0.51,0.25" style="fill:rgb(0,0,0);font-family:Calibri;font-size:10.02px;stroke:none;">4,</text>
  </g>
  <g begin="text">
   <text y="261.3" x="318.42" svgx:width="0.23" style="fill:rgb(0,0,0);font-family:Calibri;font-size:10.02px;stroke:none;"> </text>
  </g>
  <path style="fill:rgb(0,0,0);stroke:none;stroke-width:1.0;" d="M71.340 577.920 L127.560 577.920 L127.560 675.540 L71.340 675.540 L71.340 577.920 M71.340 577.920 L127.560 577.920 L127.560 675.540 L71.340 675.540 L71.340 577.920 M128.040 577.920 L184.260 577.920 L184.260 675.540 L128.040 675.540 L128.040 577.920 M128.040 577.920 L184.260 577.920 L184.260 675.540 L128.040 675.540 L128.040 577.920 M184.740 577.920 L240.960 577.920 L240.960 675.540 L184.740 675.540 L184.740 577.920 M184.740 577.920 L240.960 577.920 L240.960 675.540 L184.740 675.540 L184.740 577.920 M70.860 675.600 L71.340 675.600 L71.340 676.080 L70.860 676.080 L70.860 675.600 "/>
  <path style="fill:rgb(0,0,0);stroke:none;stroke-width:1.0;" d="M71.340 675.600 L127.560 675.600 L127.560 676.080 L71.340 676.080 L71.340 675.600 "/>
  <path style="fill:rgb(0,0,0);stroke:none;stroke-width:1.0;" d="M127.560 675.600 L128.040 675.600 L128.040 676.080 L127.560 676.080 L127.560 675.600 "/>
  <path style="fill:rgb(0,0,0);stroke:none;stroke-width:1.0;" d="M128.040 675.600 L184.260 675.600 L184.260 676.080 L128.040 676.080 L128.040 675.600 "/>
  <path style="fill:rgb(0,0,0);stroke:none;stroke-width:1.0;" d="M184.260 675.600 L184.740 675.600 L184.740 676.080 L184.260 676.080 L184.260 675.600 "/>
  <path style="fill:rgb(0,0,0);stroke:none;stroke-width:1.0;" d="M184.740 675.600 L240.960 675.600 L240.960 676.080 L184.740 676.080 L184.740 675.600 "/>
  <path style="fill:rgb(0,0,0);stroke:none;stroke-width:1.0;" d="M240.960 675.600 L241.440 675.600 L241.440 676.080 L240.960 676.080 L240.960 675.600 "/>
  <path style="fill:rgb(0,0,0);stroke:none;stroke-width:1.0;" d="M523.980 675.600 L524.460 675.600 L524.460 676.080 L523.980 676.080 L523.980 675.600 "/>
  <path style="fill:rgb(0,0,0);stroke:none;stroke-width:1.0;" d="M70.860 577.920 L71.340 577.920 L71.340 675.600 L70.860 675.600 L70.860 577.920 "/>
  <path style="fill:rgb(0,0,0);stroke:none;stroke-width:1.0;" d="M127.560 577.920 L128.040 577.920 L128.040 675.600 L127.560 675.600 L127.560 577.920 "/>
  <path style="fill:rgb(0,0,0);stroke:none;stroke-width:1.0;" d="M184.260 577.920 L184.740 577.920 L184.740 675.600 L184.260 675.600 L184.260 577.920 "/>
  <path style="fill:rgb(0,0,0);stroke:none;stroke-width:1.0;" d="M240.960 577.920 L241.440 577.920 L241.440 675.600 L240.960 675.600 L240.960 577.920 "/>
  <path style="fill:rgb(0,0,0);stroke:none;stroke-width:1.0;" d="M523.980 577.920 L524.460 577.920 L524.460 675.600 L523.980 675.600 L523.980 577.920 "/>
  <g begin="text">
   <text y="273.96" x="76.5,81.841,87.121,91.921,97.201,100.558,105.538,108.958,111.242,116.282" svgx:width="0.53,0.52,0.48,0.52,0.34,0.5,0.35,0.23,0.51,0.51" style="fill:rgb(0,0,0);font-family:Calibri;font-size:10.02px;stroke:none;">Chapter 15</text>
  </g>
  <g begin="text">
   <text y="273.96" x="121.32" svgx:width="0.23" style="fill:rgb(0,0,0);font-family:Calibri;font-size:10.02px;stroke:none;"> </text>
  </g>
  <g begin="text">
   <text y="273.96" x="133.2,138.3" svgx:width="0.51,0.51" style="fill:rgb(0,0,0);font-family:Calibri;font-size:10.02px;stroke:none;">42</text>
  </g>
  <g begin="text">
   <text y="273.96" x="143.34" svgx:width="0.23" style="fill:rgb(0,0,0);font-family:Calibri;font-size:10.02px;stroke:none;"> </text>
  </g>
  <g begin="text">
   <text y="273.96" x="189.9,195.0" svgx:width="0.51,0.51" style="fill:rgb(0,0,0);font-family:Calibri;font-size:10.02px;stroke:none;">33</text>
  </g>
  <g begin="text">
   <text y="273.96" x="200.04" svgx:width="0.23" style="fill:rgb(0,0,0);font-family:Calibri;font-size:10.02px;stroke:none;"> </text>
  </g>
  <g begin="text">
   <text y="273.96" x="246.6,253.08,258.36,261.717,266.517,271.797,274.017" svgx:width="0.65,0.53,0.34,0.48,0.52,0.23,0.45" style="fill:rgb(0,0,0);font-family:Calibri;font-size:10.02px;stroke:none;">Notably</text>
  </g>
  <g begin="text">
   <text y="273.96" x="278.58,281.1,283.32,287.58,289.861,292.14,300.12,304.92,308.276,313.256,315.536,318.592,320.872,326.152,330.892,336.172,340.432,345.412,347.632,350.688,352.968,358.249,365.389,369.289,371.569,374.925,380.206,382.49,388.31,391.366,394.846,397.066,401.326,406.126,411.346,413.626,417.886,423.106,428.386,433.666,437.022,440.502,442.782" svgx:width="0.25,0.23,0.42,0.23,0.23,0.8,0.48,0.34,0.5,0.23,0.31,0.23,0.52,0.48,0.52,0.42,0.5,0.23,0.31,0.23,0.53,0.71,0.39,0.23,0.34,0.53,0.23,0.58,0.31,0.35,0.23,0.42,0.48,0.52,0.23,0.42,0.53,0.52,0.52,0.34,0.35,0.23,0.5" style="fill:rgb(0,0,0);font-family:Calibri;font-size:10.02px;stroke:none;">, climate finance flows to African countrie</text>
  </g>
  <g begin="text">
   <text y="273.96" x="447.78,451.678,453.958,461.938,464.213,468.893,474.173,477.533,479.753,485.033,489.833,494.333,499.313" svgx:width="0.39,0.23,0.8,0.23,0.47,0.52,0.34,0.23,0.52,0.48,0.45,0.5,0.23" style="fill:rgb(0,0,0);font-family:Calibri;font-size:10.02px;stroke:none;">s might have </text>
  </g>
  <g begin="text">
   <text y="286.2" x="246.6,251.58,256.08,261.06,266.34,268.62,273.9,278.82,283.08,286.56,291.54,296.339,300.239,305.159,310.439,312.719,317.939,322.499,324.783,329.523,334.803,340.084,345.364,348.664,350.948,356.229,361.509,366.429,368.709,371.765,374.045,377.102,380.458,385.738,388.022,391.022,396.303,399.783,402.067,410.047,412.327,415.683,417.963,422.703,427.443,430.8,433.08,438.361,443.641,445.921,449.278,454.197,458.457,463.737,468.957,474.237,476.517,481.797,486.477,491.038" svgx:width="0.5,0.45,0.5,0.52,0.23,0.52,0.5,0.42,0.35,0.5,0.48,0.39,0.5,0.52,0.23,0.52,0.45,0.23,0.48,0.52,0.53,0.52,0.34,0.23,0.53,0.52,0.5,0.23,0.31,0.23,0.31,0.34,0.52,0.23,0.31,0.53,0.35,0.23,0.8,0.23,0.34,0.23,0.47,0.48,0.34,0.23,0.53,0.52,0.23,0.34,0.5,0.42,0.52,0.52,0.53,0.23,0.53,0.47,0.45,0.23" style="fill:rgb(0,0,0);font-family:Calibri;font-size:10.02px;stroke:none;">even decreased by about one fifth for mitigation technology </text>
   <text y="298.384" x="246.6,251.881,256.86,262.141,264.421,269.701,274.26,282.24,287.16,292.441,295.8,298.083,301.139,306.059,308.343,314.823,320.103,323.462,328.203,333.482,335.763,340.323,342.783,345.062,349.323,351.598,353.878,361.858,366.597,369.958,374.937,377.222,380.282,382.556,387.837,392.576,397.857,402.116,407.096,409.317,412.377,414.651,419.932,427.071,430.969,433.248,436.608,441.889,444.168,449.996,453.056,456.536,458.756,463.015,467.816,473.035,475.32,479.578,484.798,490.079,495.36,498.719,502.199,504.48,509.46,513.359" svgx:width="0.52,0.5,0.52,0.23,0.53,0.45,0.8,0.5,0.52,0.34,0.23,0.31,0.5,0.23,0.65,0.53,0.34,0.48,0.52,0.23,0.45,0.25,0.23,0.42,0.23,0.23,0.8,0.48,0.34,0.5,0.23,0.31,0.23,0.52,0.48,0.52,0.42,0.5,0.23,0.31,0.23,0.53,0.71,0.39,0.23,0.34,0.53,0.23,0.58,0.31,0.35,0.23,0.42,0.48,0.52,0.23,0.42,0.53,0.52,0.52,0.34,0.35,0.23,0.5,0.39,0.23" style="fill:rgb(0,0,0);font-family:Calibri;font-size:10.02px;stroke:none;">deployment -&gt; Notably, climate finance flows to African countries </text>
   <text y="310.629" x="246.6,254.58,256.859,261.599,266.879,270.239,272.459,277.739,282.539,287.039,292.019,294.303,299.283,303.723,308.703,313.983,316.263,321.544,326.463,330.722,334.202,339.182,343.982,347.882,352.862,358.083,360.362,363.362,368.643,372.123,374.402,382.382,384.663,388.022,390.303,395.042,399.842,403.203,405.482,410.763,416.043,418.264,421.563,426.543,430.802,436.082,441.303,446.582,448.863,454.142,458.823,463.382,465.661,470.942,475.862,481.082,483.362,488.641,493.2,501.18,506.161,511.442,514.735" svgx:width="0.8,0.23,0.47,0.52,0.34,0.23,0.52,0.48,0.45,0.5,0.23,0.5,0.45,0.5,0.52,0.23,0.52,0.5,0.42,0.35,0.5,0.48,0.39,0.5,0.52,0.23,0.31,0.53,0.35,0.23,0.8,0.23,0.34,0.23,0.47,0.48,0.34,0.23,0.53,0.52,0.23,0.34,0.5,0.42,0.52,0.52,0.53,0.23,0.53,0.47,0.45,0.23,0.52,0.5,0.52,0.23,0.53,0.45,0.8,0.5,0.52,0.34,0.23" style="fill:rgb(0,0,0);font-family:Calibri;font-size:10.02px;stroke:none;">might have even decreased for mitigation technology deployment </text>
  </g>
  <path style="fill:rgb(0,0,0);stroke:none;stroke-width:1.0;" d="M71.340 482.940 L127.560 482.940 L127.560 577.440 L71.340 577.440 L71.340 482.940 M71.340 482.940 L127.560 482.940 L127.560 577.440 L71.340 577.440 L71.340 482.940 M128.040 482.940 L184.260 482.940 L184.260 577.440 L128.040 577.440 L128.040 482.940 M128.040 482.940 L184.260 482.940 L184.260 577.440 L128.040 577.440 L128.040 482.940 M184.740 482.940 L240.960 482.940 L240.960 577.440 L184.740 577.440 L184.740 482.940 M184.740 482.940 L240.960 482.940 L240.960 577.440 L184.740 577.440 L184.740 482.940 M70.860 577.440 L71.340 577.440 L71.340 577.920 L70.860 577.920 L70.860 577.440 "/>
  <path style="fill:rgb(0,0,0);stroke:none;stroke-width:1.0;" d="M71.340 577.440 L127.560 577.440 L127.560 577.920 L71.340 577.920 L71.340 577.440 "/>
  <path style="fill:rgb(0,0,0);stroke:none;stroke-width:1.0;" d="M127.560 577.440 L128.040 577.440 L128.040 577.920 L127.560 577.920 L127.560 577.440 "/>
  <path style="fill:rgb(0,0,0);stroke:none;stroke-width:1.0;" d="M128.040 577.440 L184.260 577.440 L184.260 577.920 L128.040 577.920 L128.040 577.440 "/>
  <path style="fill:rgb(0,0,0);stroke:none;stroke-width:1.0;" d="M184.260 577.440 L184.740 577.440 L184.740 577.920 L184.260 577.920 L184.260 577.440 "/>
  <path style="fill:rgb(0,0,0);stroke:none;stroke-width:1.0;" d="M184.740 577.440 L240.960 577.440 L240.960 577.920 L184.740 577.920 L184.740 577.440 "/>
  <path style="fill:rgb(0,0,0);stroke:none;stroke-width:1.0;" d="M240.960 577.440 L241.440 577.440 L241.440 577.920 L240.960 577.920 L240.960 577.440 "/>
  <path style="fill:rgb(0,0,0);stroke:none;stroke-width:1.0;" d="M523.980 577.440 L524.460 577.440 L524.460 577.920 L523.980 577.920 L523.980 577.440 "/>
  <path style="fill:rgb(0,0,0);stroke:none;stroke-width:1.0;" d="M70.860 482.940 L71.340 482.940 L71.340 577.440 L70.860 577.440 L70.860 482.940 "/>
  <path style="fill:rgb(0,0,0);stroke:none;stroke-width:1.0;" d="M127.560 482.940 L128.040 482.940 L128.040 577.440 L127.560 577.440 L127.560 482.940 "/>
  <path style="fill:rgb(0,0,0);stroke:none;stroke-width:1.0;" d="M184.260 482.940 L184.740 482.940 L184.740 577.440 L184.260 577.440 L184.260 482.940 "/>
  <path style="fill:rgb(0,0,0);stroke:none;stroke-width:1.0;" d="M240.960 482.940 L241.440 482.940 L241.440 577.440 L240.960 577.440 L240.960 482.940 "/>
  <path style="fill:rgb(0,0,0);stroke:none;stroke-width:1.0;" d="M523.980 482.940 L524.460 482.940 L524.460 577.440 L523.980 577.440 L523.980 482.940 "/>
  <g begin="text">
   <text y="369.0" x="76.5,81.841,87.121,91.921,97.201,100.558,105.538,108.958,111.242,116.282" svgx:width="0.53,0.52,0.48,0.52,0.34,0.5,0.35,0.23,0.51,0.51" style="fill:rgb(0,0,0);font-family:Calibri;font-size:10.02px;stroke:none;">Chapter 15</text>
  </g>
  <g begin="text">
   <text y="369.0" x="121.32" svgx:width="0.23" style="fill:rgb(0,0,0);font-family:Calibri;font-size:10.02px;stroke:none;"> </text>
  </g>
  <g begin="text">
   <text y="369.0" x="133.2,138.3" svgx:width="0.51,0.51" style="fill:rgb(0,0,0);font-family:Calibri;font-size:10.02px;stroke:none;">26</text>
  </g>
  <g begin="text">
   <text y="369.0" x="143.34" svgx:width="0.23" style="fill:rgb(0,0,0);font-family:Calibri;font-size:10.02px;stroke:none;"> </text>
  </g>
  <g begin="text">
   <text y="369.0" x="189.9" svgx:width="0.51" style="fill:rgb(0,0,0);font-family:Calibri;font-size:10.02px;stroke:none;">8</text>
  </g>
  <g begin="text">
   <text y="369.0" x="194.94" svgx:width="0.23" style="fill:rgb(0,0,0);font-family:Calibri;font-size:10.02px;stroke:none;"> </text>
  </g>
  <g begin="text">
   <text y="369.0" x="246.6,248.88,254.16,256.44,261.48,266.58,271.62,276.72,279.0,284.04,289.08,294.18,299.28,301.5,304.5,311.16,316.08,321.36,327.543,329.762,334.862,339.902,345.002,350.043,355.323,358.379" svgx:width="0.23,0.52,0.23,0.51,0.51,0.51,0.51,0.23,0.51,0.51,0.51,0.51,0.23,0.3,0.66,0.49,0.53,0.62,0.23,0.51,0.51,0.51,0.51,0.52,0.3,0.25" style="fill:rgb(0,0,0);font-family:Calibri;font-size:10.02px;stroke:none;">in 2018 2018 (OECD 2020b).</text>
  </g>
  <g begin="text">
   <text y="369.0" x="360.84" svgx:width="0.23" style="fill:rgb(0,0,0);font-family:Calibri;font-size:10.02px;stroke:none;"> </text>
  </g>
  <g begin="text">
   <text y="381.18" x="246.6,249.656,252.712,257.692,259.972,262.252,267.533,269.817,274.857,279.958,284.998,290.098,292.318,295.374,301.975,306.834,312.174,318.356,320.641,325.68,330.72,335.82,340.92,346.141,349.197,351.717,353.944" svgx:width="0.31,0.31,0.5,0.23,0.23,0.52,0.23,0.51,0.51,0.51,0.51,0.23,0.3,0.66,0.49,0.53,0.62,0.23,0.51,0.51,0.51,0.51,0.52,0.3,0.25,0.23,0.23" style="fill:rgb(0,0,0);font-family:Calibri;font-size:10.02px;stroke:none;">--&gt; in 2018 (OECD 2020b). </text>
  </g>
  <path style="fill:rgb(0,0,0);stroke:none;stroke-width:1.0;" d="M71.340 387.900 L127.560 387.900 L127.560 482.400 L71.340 482.400 L71.340 387.900 M71.340 387.900 L127.560 387.900 L127.560 482.400 L71.340 482.400 L71.340 387.900 M128.040 387.900 L184.260 387.900 L184.260 482.400 L128.040 482.400 L128.040 387.900 M128.040 387.900 L184.260 387.900 L184.260 482.400 L128.040 482.400 L128.040 387.900 M184.740 387.900 L240.960 387.900 L240.960 482.400 L184.740 482.400 L184.740 387.900 M184.740 387.900 L240.960 387.900 L240.960 482.400 L184.740 482.400 L184.740 387.900 M70.860 482.460 L71.340 482.460 L71.340 482.940 L70.860 482.940 L70.860 482.460 "/>
  <path style="fill:rgb(0,0,0);stroke:none;stroke-width:1.0;" d="M71.340 482.460 L127.560 482.460 L127.560 482.940 L71.340 482.940 L71.340 482.460 "/>
  <path style="fill:rgb(0,0,0);stroke:none;stroke-width:1.0;" d="M127.560 482.460 L128.040 482.460 L128.040 482.940 L127.560 482.940 L127.560 482.460 "/>
  <path style="fill:rgb(0,0,0);stroke:none;stroke-width:1.0;" d="M128.040 482.460 L184.260 482.460 L184.260 482.940 L128.040 482.940 L128.040 482.460 "/>
  <path style="fill:rgb(0,0,0);stroke:none;stroke-width:1.0;" d="M184.260 482.460 L184.740 482.460 L184.740 482.940 L184.260 482.940 L184.260 482.460 "/>
  <path style="fill:rgb(0,0,0);stroke:none;stroke-width:1.0;" d="M184.740 482.460 L240.960 482.460 L240.960 482.940 L184.740 482.940 L184.740 482.460 "/>
  <path style="fill:rgb(0,0,0);stroke:none;stroke-width:1.0;" d="M240.960 482.460 L241.440 482.460 L241.440 482.940 L240.960 482.940 L240.960 482.460 "/>
  <path style="fill:rgb(0,0,0);stroke:none;stroke-width:1.0;" d="M523.980 482.460 L524.460 482.460 L524.460 482.940 L523.980 482.940 L523.980 482.460 "/>
  <path style="fill:rgb(0,0,0);stroke:none;stroke-width:1.0;" d="M70.860 387.900 L71.340 387.900 L71.340 482.460 L70.860 482.460 L70.860 387.900 "/>
  <path style="fill:rgb(0,0,0);stroke:none;stroke-width:1.0;" d="M127.560 387.900 L128.040 387.900 L128.040 482.460 L127.560 482.460 L127.560 387.900 "/>
  <path style="fill:rgb(0,0,0);stroke:none;stroke-width:1.0;" d="M184.260 387.900 L184.740 387.900 L184.740 482.460 L184.260 482.460 L184.260 387.900 "/>
  <path style="fill:rgb(0,0,0);stroke:none;stroke-width:1.0;" d="M240.960 387.900 L241.440 387.900 L241.440 482.460 L240.960 482.460 L240.960 387.900 "/>
  <path style="fill:rgb(0,0,0);stroke:none;stroke-width:1.0;" d="M523.980 387.900 L524.460 387.900 L524.460 482.460 L523.980 482.460 L523.980 387.900 "/>
  <g begin="text">
   <text y="463.98" x="76.5,81.841,87.121,91.921,97.201,100.558,105.538,108.958,111.242,116.282" svgx:width="0.53,0.52,0.48,0.52,0.34,0.5,0.35,0.23,0.51,0.51" style="fill:rgb(0,0,0);font-family:Calibri;font-size:10.02px;stroke:none;">Chapter 15</text>
  </g>
  <g begin="text">
   <text y="463.98" x="121.32" svgx:width="0.23" style="fill:rgb(0,0,0);font-family:Calibri;font-size:10.02px;stroke:none;"> </text>
  </g>
  <g begin="text">
   <text y="463.98" x="133.2,138.3" svgx:width="0.51,0.51" style="fill:rgb(0,0,0);font-family:Calibri;font-size:10.02px;stroke:none;">27</text>
  </g>
  <g begin="text">
   <text y="463.98" x="143.34" svgx:width="0.23" style="fill:rgb(0,0,0);font-family:Calibri;font-size:10.02px;stroke:none;"> </text>
  </g>
  <g begin="text">
   <text y="463.98" x="189.9,195.0" svgx:width="0.51,0.51" style="fill:rgb(0,0,0);font-family:Calibri;font-size:10.02px;stroke:none;">21</text>
  </g>
  <g begin="text">
   <text y="463.98" x="200.04" svgx:width="0.23" style="fill:rgb(0,0,0);font-family:Calibri;font-size:10.02px;stroke:none;"> </text>
  </g>
  <g begin="text">
   <text y="463.98" x="246.6,250.08,255.06,259.86,264.119,269.4,274.319,279.6,281.88,288.3,292.86,299.043,301.267,306.307,311.407,316.508,318.727,324.008,326.287,328.567,330.847,333.127,338.407" svgx:width="0.35,0.5,0.48,0.42,0.52,0.5,0.52,0.23,0.64,0.46,0.62,0.23,0.51,0.51,0.51,0.23,0.52,0.23,0.23,0.23,0.23,0.53,0.52" style="fill:rgb(0,0,0);font-family:Calibri;font-size:10.02px;stroke:none;">reached USD 687 billion</text>
  </g>
  <g begin="text">
   <text y="463.98" x="343.68" svgx:width="0.23" style="fill:rgb(0,0,0);font-family:Calibri;font-size:10.02px;stroke:none;"> </text>
  </g>
  <g begin="text">
   <text y="476.22" x="246.6" svgx:width="0.23" style="fill:rgb(0,0,0);font-family:Calibri;font-size:10.02px;stroke:none;"> </text>
   <text y="488.404" x="246.6,249.656,252.712,257.692,259.972,263.453,268.433,273.232,277.491,282.771,287.691,292.972,295.191,300.291,305.331,310.431,312.711,317.992,320.271,322.552,324.831,327.112,332.391,337.672,339.951,346.311,350.93,357.06" svgx:width="0.31,0.31,0.5,0.23,0.35,0.5,0.48,0.42,0.52,0.5,0.52,0.23,0.51,0.51,0.51,0.23,0.52,0.23,0.23,0.23,0.23,0.53,0.52,0.23,0.64,0.46,0.62,0.23" style="fill:rgb(0,0,0);font-family:Calibri;font-size:10.02px;stroke:none;">--&gt; reached 687 billion USD </text>
  </g>
  <path style="fill:rgb(0,0,0);stroke:none;stroke-width:1.0;" d="M71.340 292.920 L127.560 292.920 L127.560 387.420 L71.340 387.420 L71.340 292.920 M71.340 292.920 L127.560 292.920 L127.560 387.420 L71.340 387.420 L71.340 292.920 M128.040 292.920 L184.260 292.920 L184.260 387.420 L128.040 387.420 L128.040 292.920 M128.040 292.920 L184.260 292.920 L184.260 387.420 L128.040 387.420 L128.040 292.920 M184.740 292.920 L240.960 292.920 L240.960 387.420 L184.740 387.420 L184.740 292.920 M184.740 292.920 L240.960 292.920 L240.960 387.420 L184.740 387.420 L184.740 292.920 M70.860 387.420 L71.340 387.420 L71.340 387.900 L70.860 387.900 L70.860 387.420 "/>
  <path style="fill:rgb(0,0,0);stroke:none;stroke-width:1.0;" d="M71.340 387.420 L127.560 387.420 L127.560 387.900 L71.340 387.900 L71.340 387.420 "/>
  <path style="fill:rgb(0,0,0);stroke:none;stroke-width:1.0;" d="M127.560 387.420 L128.040 387.420 L128.040 387.900 L127.560 387.900 L127.560 387.420 "/>
  <path style="fill:rgb(0,0,0);stroke:none;stroke-width:1.0;" d="M128.040 387.420 L184.260 387.420 L184.260 387.900 L128.040 387.900 L128.040 387.420 "/>
  <path style="fill:rgb(0,0,0);stroke:none;stroke-width:1.0;" d="M184.260 387.420 L184.740 387.420 L184.740 387.900 L184.260 387.900 L184.260 387.420 "/>
  <path style="fill:rgb(0,0,0);stroke:none;stroke-width:1.0;" d="M184.740 387.420 L240.960 387.420 L240.960 387.900 L184.740 387.900 L184.740 387.420 "/>
  <path style="fill:rgb(0,0,0);stroke:none;stroke-width:1.0;" d="M240.960 387.420 L241.440 387.420 L241.440 387.900 L240.960 387.900 L240.960 387.420 "/>
  <path style="fill:rgb(0,0,0);stroke:none;stroke-width:1.0;" d="M523.980 387.420 L524.460 387.420 L524.460 387.900 L523.980 387.900 L523.980 387.420 "/>
  <path style="fill:rgb(0,0,0);stroke:none;stroke-width:1.0;" d="M70.860 292.920 L71.340 292.920 L71.340 387.420 L70.860 387.420 L70.860 292.920 "/>
  <path style="fill:rgb(0,0,0);stroke:none;stroke-width:1.0;" d="M127.560 292.920 L128.040 292.920 L128.040 387.420 L127.560 387.420 L127.560 292.920 "/>
  <path style="fill:rgb(0,0,0);stroke:none;stroke-width:1.0;" d="M184.260 292.920 L184.740 292.920 L184.740 387.420 L184.260 387.420 L184.260 292.920 "/>
  <path style="fill:rgb(0,0,0);stroke:none;stroke-width:1.0;" d="M240.960 292.920 L241.440 292.920 L241.440 387.420 L240.960 387.420 L240.960 292.920 "/>
  <path style="fill:rgb(0,0,0);stroke:none;stroke-width:1.0;" d="M523.980 292.920 L524.460 292.920 L524.460 387.420 L523.980 387.420 L523.980 292.920 "/>
  <g begin="text">
   <text y="558.96" x="76.5,81.841,87.121,91.921,97.201,100.558,105.538,108.958,111.242,116.282" svgx:width="0.53,0.52,0.48,0.52,0.34,0.5,0.35,0.23,0.51,0.51" style="fill:rgb(0,0,0);font-family:Calibri;font-size:10.02px;stroke:none;">Chapter 15</text>
  </g>
  <g begin="text">
   <text y="558.96" x="121.32" svgx:width="0.23" style="fill:rgb(0,0,0);font-family:Calibri;font-size:10.02px;stroke:none;"> </text>
  </g>
  <g begin="text">
   <text y="558.96" x="133.2,138.3" svgx:width="0.51,0.51" style="fill:rgb(0,0,0);font-family:Calibri;font-size:10.02px;stroke:none;">34</text>
  </g>
  <g begin="text">
   <text y="558.96" x="143.34" svgx:width="0.23" style="fill:rgb(0,0,0);font-family:Calibri;font-size:10.02px;stroke:none;"> </text>
  </g>
  <g begin="text">
   <text y="558.96" x="189.9,195.0" svgx:width="0.51,0.51" style="fill:rgb(0,0,0);font-family:Calibri;font-size:10.02px;stroke:none;">23</text>
  </g>
  <g begin="text">
   <text y="558.96" x="200.04" svgx:width="0.23" style="fill:rgb(0,0,0);font-family:Calibri;font-size:10.02px;stroke:none;"> </text>
  </g>
  <g begin="text">
   <text y="558.96" x="246.6,250.08,255.06,259.86,264.119,269.4,271.679,276.899,281.639,283.923,289.143,294.423,296.703,301.504,305.943,310.923,314.403,319.203,323.942,328.922,331.202,336.002,339.482,344.702,349.982,355.202,360.482,362.703,367.803,370.087,376.507,381.067,387.25,389.529,392.889,396.369,398.649,400.929,403.21,405.489,410.77,416.05,418.271,422.771" svgx:width="0.35,0.5,0.48,0.42,0.52,0.23,0.52,0.47,0.23,0.53,0.52,0.23,0.48,0.45,0.5,0.35,0.48,0.47,0.5,0.23,0.48,0.35,0.53,0.52,0.52,0.52,0.23,0.51,0.23,0.64,0.46,0.62,0.23,0.34,0.35,0.23,0.23,0.23,0.23,0.53,0.52,0.23,0.45,0.35" style="fill:rgb(0,0,0);font-family:Calibri;font-size:10.02px;stroke:none;">reaching on average around 1 USD trillion yr</text>
  </g>
  <g begin="text">
   <text y="558.96" x="426.24" svgx:width="0.31" style="fill:rgb(0,0,0);font-family:Calibri;font-size:10.02px;stroke:none;">-</text>
  </g>
  <g begin="text">
   <text y="558.96" x="429.3,434.4,436.68,439.736,444.536,449.036,454.016,457.496,462.236,466.975,471.955,474.175,479.395,484.676,488.035,490.315,492.595,494.875,499.915,505.015,510.055,515.155,518.211" svgx:width="0.51,0.23,0.3,0.48,0.45,0.5,0.35,0.48,0.47,0.5,0.23,0.52,0.52,0.34,0.23,0.23,0.23,0.51,0.51,0.51,0.51,0.3,0.23" style="fill:rgb(0,0,0);font-family:Calibri;font-size:10.02px;stroke:none;">1 (average until 2030) </text>
  </g>
  <g begin="text">
   <text y="571.2" x="246.6,249.66,254.94,258.421,260.7,265.68,267.965,272.945,277.204,280.565,284.045,286.324,290.585,292.869,296.169,300.729,302.942,307.623,312.603,317.882,322.862,326.339,331.14,334.499,336.774,342.055,347.334,349.554,354.354,358.252,360.536,367.617,372.596,374.871,377.152,379.431,384.232,388.129,390.409,395.149,398.626,400.901,406.181,410.079,412.359,417.099,422.379,427.599,429.879,433.776,437.137,442.417,445.894,450.694,455.434,460.353,462.873,465.158,467.433,472.653,476.912,480.389,485.309,490.11,494.008,496.288,501.568,506.308,508.588,511.947,517.168" svgx:width="0.31,0.53,0.35,0.23,0.5,0.23,0.5,0.42,0.34,0.35,0.23,0.42,0.23,0.34,0.45,0.23,0.47,0.5,0.52,0.5,0.35,0.48,0.34,0.23,0.53,0.52,0.23,0.48,0.39,0.23,0.71,0.5,0.23,0.23,0.23,0.48,0.39,0.23,0.47,0.35,0.23,0.52,0.39,0.23,0.48,0.52,0.52,0.23,0.39,0.34,0.53,0.35,0.48,0.47,0.5,0.25,0.23,0.23,0.52,0.42,0.35,0.5,0.48,0.39,0.23,0.52,0.47,0.23,0.34,0.53,0.23" style="fill:rgb(0,0,0);font-family:Calibri;font-size:10.02px;stroke:none;">for electricity generation as well as grids and storage, increasing to </text>
   <text y="583.384" x="246.6,251.4,256.68,261.96,266.46,271.44,273.724,278.764,281.044,287.464,292.024,298.204,300.483,303.844,307.264,309.539,311.819,314.094,316.374,321.654,326.933,329.218,333.778,337.255,340.317,345.417,347.637,350.693,355.493,359.993,364.973,368.393,373.193,377.932,382.912,385.133,390.413,395.694,399.053,401.333,403.613,405.833,410.933,415.973,421.073,426.113,429.113,431.393,433.673,438.954,441.238,444.598,449.819,454.799,457.078,462.178,464.638,469.738,472.023,475.863,480.121,485.101,490.322,495.121,498.601,500.882,506.161" svgx:width="0.48,0.52,0.53,0.45,0.5,0.23,0.51,0.23,0.64,0.46,0.62,0.23,0.34,0.35,0.23,0.23,0.23,0.23,0.53,0.52,0.23,0.45,0.35,0.31,0.51,0.23,0.3,0.48,0.45,0.5,0.35,0.48,0.47,0.5,0.23,0.52,0.52,0.34,0.23,0.23,0.23,0.51,0.51,0.51,0.51,0.3,0.23,0.23,0.52,0.23,0.34,0.52,0.5,0.23,0.51,0.25,0.51,0.23,0.39,0.42,0.5,0.52,0.48,0.35,0.23,0.53,0.23" style="fill:rgb(0,0,0);font-family:Calibri;font-size:10.02px;stroke:none;">above 2 USD trillion yr-1 (average until 2030) in the 1.5 scenario </text>
   <text y="595.629" x="246.6,249.66,252.18,257.581,262.501,268.921,274.741,277.021,282.061,287.101,292.201,297.241,300.237" svgx:width="0.3,0.25,0.54,0.49,0.65,0.58,0.23,0.51,0.51,0.51,0.51,0.3,0.23" style="fill:rgb(0,0,0);font-family:Calibri;font-size:10.02px;stroke:none;">(IRENA 2021) </text>
   <text y="607.813" x="246.6" svgx:width="0.23" style="fill:rgb(0,0,0);font-family:Calibri;font-size:10.02px;stroke:none;"> </text>
   <text y="620.057" x="246.6,249.656,252.712,257.692,259.972,263.453,268.433,273.232,277.491,282.771,284.992,290.272,295.012,297.231,302.512,307.731,310.016,314.815,319.315,324.295,327.775,332.576,337.315,342.295,344.58,349.379,352.859,358.079,363.36,368.58,373.861,376.146,381.186,383.465,389.886,394.445,400.627,405.667,410.768,415.808,420.908,423.187,426.547,429.968,432.248,434.527,436.808,439.087,444.368,449.648,451.933,456.492,459.956,463.012,468.112,470.332,473.388,478.188,482.688,487.668,491.088,495.889,500.628,505.608" svgx:width="0.31,0.31,0.5,0.23,0.35,0.5,0.48,0.42,0.52,0.23,0.52,0.47,0.23,0.53,0.52,0.23,0.48,0.45,0.5,0.35,0.48,0.47,0.5,0.23,0.48,0.35,0.53,0.52,0.52,0.52,0.23,0.51,0.23,0.64,0.46,0.62,0.51,0.51,0.51,0.51,0.23,0.34,0.35,0.23,0.23,0.23,0.23,0.53,0.52,0.23,0.45,0.35,0.31,0.51,0.23,0.3,0.48,0.45,0.5,0.35,0.48,0.47,0.5,0.23" style="fill:rgb(0,0,0);font-family:Calibri;font-size:10.02px;stroke:none;">--&gt; reaching on average around 1 USD2015 trillion yr-1 (average </text>
   <text y="632.242" x="246.59,251.871,257.15,260.51,262.79,265.065,267.349,272.388,277.489,282.529,287.629,290.629,292.908,295.968,301.249,304.726,306.945,311.925,314.206,319.186,323.445,326.806,330.283,332.557,336.818,339.092,342.452,346.952,349.237,353.976,358.897,364.116,369.096,372.573,377.374,380.733,383.008,388.289,393.568,395.853,400.652,404.55,406.835,413.979,418.958,421.238,423.459,425.738,430.538,434.436,436.715,441.456,444.933,447.207,452.488,456.385,458.633,463.433,468.713,473.933,476.217,480.117,483.418,488.698,492.178,496.978,501.718,506.698,509.158" svgx:width="0.52,0.52,0.34,0.23,0.23,0.23,0.51,0.51,0.51,0.51,0.3,0.23,0.31,0.53,0.35,0.23,0.5,0.23,0.5,0.42,0.34,0.35,0.23,0.42,0.23,0.34,0.45,0.23,0.47,0.5,0.52,0.5,0.35,0.48,0.34,0.23,0.53,0.52,0.23,0.48,0.39,0.23,0.71,0.5,0.23,0.23,0.23,0.48,0.39,0.23,0.47,0.35,0.23,0.52,0.39,0.23,0.48,0.52,0.52,0.23,0.39,0.34,0.53,0.35,0.48,0.47,0.5,0.25,0.23" style="fill:rgb(0,0,0);font-family:Calibri;font-size:10.02px;stroke:none;">until 2030) for electricity generation as well as grids and storage, </text>
   <text y="644.486" x="246.59,248.87,254.15,258.409,261.89,266.869,271.669,275.569,277.849,283.13,287.81,290.09,293.451,298.73,300.95,305.69,310.97,316.25,320.75,325.73,328.014,333.055,335.334,341.754,346.373,352.493,357.533,362.573,367.674,372.774,374.993,378.353,381.833,384.113,386.393,388.674,390.953,396.234,401.514,403.799,408.358,411.83,414.886,419.926,422.15,425.206,430.007,434.507,439.487,442.967,447.767,452.507,457.487,459.711,464.992,470.212,473.572,475.852,478.132,480.412,485.512,490.552,495.652,500.692,503.748,506.028,508.308,513.589" svgx:width="0.23,0.52,0.42,0.35,0.5,0.48,0.39,0.23,0.52,0.47,0.23,0.34,0.53,0.23,0.48,0.52,0.53,0.45,0.5,0.23,0.51,0.23,0.64,0.46,0.62,0.51,0.51,0.51,0.51,0.23,0.34,0.35,0.23,0.23,0.23,0.23,0.53,0.52,0.23,0.45,0.35,0.31,0.51,0.23,0.3,0.48,0.45,0.5,0.35,0.48,0.47,0.5,0.23,0.52,0.52,0.34,0.23,0.23,0.23,0.51,0.51,0.51,0.51,0.3,0.23,0.23,0.52,0.23" style="fill:rgb(0,0,0);font-family:Calibri;font-size:10.02px;stroke:none;">increasing to above 2 USD2015 trillion yr-1 (average until 2030) in </text>
  </g>
  <g begin="text">
   <text y="656.64" x="246.6,249.96,255.24,260.22,262.44,267.54,270.06,275.16,277.441,281.28,285.539,290.519,295.799,300.599,304.079,306.299,311.579,313.859,316.915,319.435,324.835,329.755,336.175,341.996,344.216,349.316,354.356,359.456,364.496" svgx:width="0.34,0.52,0.5,0.23,0.51,0.25,0.51,0.23,0.39,0.42,0.5,0.52,0.48,0.35,0.23,0.53,0.23,0.3,0.25,0.54,0.49,0.65,0.58,0.23,0.51,0.51,0.51,0.51,0.3" style="fill:rgb(0,0,0);font-family:Calibri;font-size:10.02px;stroke:none;">the 1.5 scenario (IRENA 2021)</text>
  </g>
  <g begin="text">
   <text y="656.64" x="367.5" svgx:width="0.23" style="fill:rgb(0,0,0);font-family:Calibri;font-size:10.02px;stroke:none;"> </text>
  </g>
  <path style="fill:rgb(0,0,0);stroke:none;stroke-width:1.0;" d="M70.860 292.440 L71.340 292.440 L71.340 292.920 L70.860 292.920 L70.860 292.440 "/>
  <path style="fill:rgb(0,0,0);stroke:none;stroke-width:1.0;" d="M71.340 292.440 L127.560 292.440 L127.560 292.920 L71.340 292.920 L71.340 292.440 "/>
  <path style="fill:rgb(0,0,0);stroke:none;stroke-width:1.0;" d="M127.560 292.440 L128.040 292.440 L128.040 292.920 L127.560 292.920 L127.560 292.440 "/>
  <path style="fill:rgb(0,0,0);stroke:none;stroke-width:1.0;" d="M128.040 292.440 L184.260 292.440 L184.260 292.920 L128.040 292.920 L128.040 292.440 "/>
  <path style="fill:rgb(0,0,0);stroke:none;stroke-width:1.0;" d="M184.260 292.440 L184.740 292.440 L184.740 292.920 L184.260 292.920 L184.260 292.440 "/>
  <path style="fill:rgb(0,0,0);stroke:none;stroke-width:1.0;" d="M184.740 292.440 L240.960 292.440 L240.960 292.920 L184.740 292.920 L184.740 292.440 "/>
  <path style="fill:rgb(0,0,0);stroke:none;stroke-width:1.0;" d="M240.960 292.440 L241.440 292.440 L241.440 292.920 L240.960 292.920 L240.960 292.440 "/>
  <path style="fill:rgb(0,0,0);stroke:none;stroke-width:1.0;" d="M523.980 292.440 L524.460 292.440 L524.460 292.920 L523.980 292.920 L523.980 292.440 "/>
  <g begin="text">
   <text y="669.36" x="76.5,81.841,87.121,91.921,97.201,100.558,105.538,108.958,111.242,116.282" svgx:width="0.53,0.52,0.48,0.52,0.34,0.5,0.35,0.23,0.51,0.51" style="fill:rgb(0,0,0);font-family:Calibri;font-size:10.02px;stroke:none;">Chapter 15</text>
  </g>
  <g begin="text">
   <text y="669.36" x="121.32" svgx:width="0.23" style="fill:rgb(0,0,0);font-family:Calibri;font-size:10.02px;stroke:none;"> </text>
  </g>
  <g begin="text">
   <text y="669.36" x="133.2,138.3" svgx:width="0.51,0.51" style="fill:rgb(0,0,0);font-family:Calibri;font-size:10.02px;stroke:none;">34</text>
  </g>
  <g begin="text">
   <text y="669.36" x="143.34" svgx:width="0.23" style="fill:rgb(0,0,0);font-family:Calibri;font-size:10.02px;stroke:none;"> </text>
  </g>
  <g begin="text">
   <text y="669.36" x="189.9,195.0" svgx:width="0.51,0.51" style="fill:rgb(0,0,0);font-family:Calibri;font-size:10.02px;stroke:none;">26</text>
  </g>
  <g begin="text">
   <text y="669.36" x="200.04" svgx:width="0.23" style="fill:rgb(0,0,0);font-family:Calibri;font-size:10.02px;stroke:none;"> </text>
  </g>
  <g begin="text">
   <text y="669.36" x="246.6,251.881,256.86,260.22,267.36,272.34,277.32,282.601,284.825,289.925,292.445,297.485,299.765,306.125,310.744,316.926,319.206,322.567,326.046,328.326,330.606,332.886,335.166,340.446,345.727,347.951,352.51" svgx:width="0.52,0.5,0.34,0.71,0.5,0.5,0.52,0.23,0.51,0.25,0.51,0.23,0.64,0.46,0.62,0.23,0.34,0.35,0.23,0.23,0.23,0.23,0.53,0.52,0.23,0.45,0.35" style="fill:rgb(0,0,0);font-family:Calibri;font-size:10.02px;stroke:none;">between 1.1 USD trillion yr</text>
  </g>
  <g begin="text">
   <text y="669.36" x="355.98" svgx:width="0.31" style="fill:rgb(0,0,0);font-family:Calibri;font-size:10.02px;stroke:none;">-</text>
  </g>
  <g begin="text">
   <text y="669.36" x="359.04,364.14,366.36,371.16,376.441,381.721,383.941,389.041,391.561,396.601,398.886,405.305,409.865,416.048,418.332,421.692,425.172,427.392,429.672,431.953,434.232,439.513,444.793,447.078,451.637" svgx:width="0.51,0.23,0.48,0.52,0.52,0.23,0.51,0.25,0.51,0.23,0.64,0.46,0.62,0.23,0.34,0.35,0.23,0.23,0.23,0.23,0.53,0.52,0.23,0.45,0.35" style="fill:rgb(0,0,0);font-family:Calibri;font-size:10.02px;stroke:none;">1 and 1.6 USD trillion yr</text>
  </g>
  <g begin="text">
   <text y="669.36" x="455.1" svgx:width="0.31" style="fill:rgb(0,0,0);font-family:Calibri;font-size:10.02px;stroke:none;">-</text>
  </g>
  <g begin="text">
   <text y="669.36" x="458.16,463.26,465.48,468.536,473.336,477.836,482.816,486.236,491.037,495.776,500.756" svgx:width="0.51,0.23,0.3,0.48,0.45,0.5,0.35,0.48,0.47,0.5,0.23" style="fill:rgb(0,0,0);font-family:Calibri;font-size:10.02px;stroke:none;">1 (average </text>
  </g>
  <g begin="text">
   <text y="681.54" x="246.6,251.881,257.161,260.521,262.801,265.081,267.365,272.405,277.506,282.546,287.646,290.638" svgx:width="0.52,0.52,0.34,0.23,0.23,0.23,0.51,0.51,0.51,0.51,0.3,0.23" style="fill:rgb(0,0,0);font-family:Calibri;font-size:10.02px;stroke:none;">until 2030) </text>
   <text y="693.784" x="246.6" svgx:width="0.23" style="fill:rgb(0,0,0);font-family:Calibri;font-size:10.02px;stroke:none;"> </text>
   <text y="705.969" x="246.6,249.656,252.712,257.692,259.972,265.252,270.232,273.592,280.732,285.712,290.692,295.912,298.192,302.993,306.412,311.692,316.972,322.253,327.473,329.753,334.853,337.313,342.413,344.698,351.057,355.677,361.797,366.836,371.936,376.976,382.076,384.356,387.717,391.197,393.476,395.757,398.036,400.317,405.596,410.877,413.156,417.716,421.198,424.194,429.295,431.579,436.379,441.599,446.88,449.16,453.96,457.44,462.66,467.941,473.16,478.441,480.66,485.76,488.28,493.381" svgx:width="0.31,0.31,0.5,0.23,0.52,0.5,0.34,0.71,0.5,0.5,0.52,0.23,0.48,0.35,0.53,0.52,0.52,0.52,0.23,0.51,0.25,0.51,0.23,0.64,0.46,0.62,0.51,0.51,0.51,0.51,0.23,0.34,0.35,0.23,0.23,0.23,0.23,0.53,0.52,0.23,0.45,0.35,0.31,0.51,0.23,0.48,0.52,0.52,0.23,0.48,0.35,0.53,0.52,0.52,0.52,0.23,0.51,0.25,0.51,0.23" style="fill:rgb(0,0,0);font-family:Calibri;font-size:10.02px;stroke:none;">--&gt; between around 1.0 USD2015 trillion yr-1 and around 1.6 </text>
   <text y="718.213" x="246.6,253.02,257.639,263.821,268.861,273.901,279.002,284.102,286.326,289.686,293.166,295.447,297.726,300.007,302.286,307.566,312.846,315.126,319.685,323.163,326.159,331.259,333.478,336.534,341.335,345.835,350.815,354.295,359.094,363.834,368.754,371.034,376.315,381.595,384.955,387.235,389.515,391.735,396.835,401.875,406.975,412.015,415.016" svgx:width="0.64,0.46,0.62,0.51,0.51,0.51,0.51,0.23,0.34,0.35,0.23,0.23,0.23,0.23,0.53,0.52,0.23,0.45,0.35,0.31,0.51,0.23,0.3,0.48,0.45,0.5,0.35,0.48,0.47,0.5,0.23,0.52,0.52,0.34,0.23,0.23,0.23,0.51,0.51,0.51,0.51,0.3,0.23" style="fill:rgb(0,0,0);font-family:Calibri;font-size:10.02px;stroke:none;">USD2015 trillion yr-1 (average until 2030) </text>
  </g>
  <path style="fill:rgb(0,0,0);stroke:none;stroke-width:1.0;" d="M71.340 87.540 L127.560 87.540 L127.560 182.040 L71.340 182.040 L71.340 87.540 M71.340 87.540 L127.560 87.540 L127.560 182.040 L71.340 182.040 L71.340 87.540 M128.040 87.540 L184.260 87.540 L184.260 182.040 L128.040 182.040 L128.040 87.540 M128.040 87.540 L184.260 87.540 L184.260 182.040 L128.040 182.040 L128.040 87.540 M184.740 87.540 L240.960 87.540 L240.960 182.040 L184.740 182.040 L184.740 87.540 M184.740 87.540 L240.960 87.540 L240.960 182.040 L184.740 182.040 L184.740 87.540 M70.860 182.100 L71.340 182.100 L71.340 182.580 L70.860 182.580 L70.860 182.100 "/>
  <path style="fill:rgb(0,0,0);stroke:none;stroke-width:1.0;" d="M71.340 182.100 L127.560 182.100 L127.560 182.580 L71.340 182.580 L71.340 182.100 "/>
  <path style="fill:rgb(0,0,0);stroke:none;stroke-width:1.0;" d="M127.560 182.100 L128.040 182.100 L128.040 182.580 L127.560 182.580 L127.560 182.100 "/>
  <path style="fill:rgb(0,0,0);stroke:none;stroke-width:1.0;" d="M128.040 182.100 L184.260 182.100 L184.260 182.580 L128.040 182.580 L128.040 182.100 "/>
  <path style="fill:rgb(0,0,0);stroke:none;stroke-width:1.0;" d="M184.260 182.100 L184.740 182.100 L184.740 182.580 L184.260 182.580 L184.260 182.100 "/>
  <path style="fill:rgb(0,0,0);stroke:none;stroke-width:1.0;" d="M184.740 182.100 L240.960 182.100 L240.960 182.580 L184.740 182.580 L184.740 182.100 "/>
  <path style="fill:rgb(0,0,0);stroke:none;stroke-width:1.0;" d="M240.960 182.100 L241.440 182.100 L241.440 182.580 L240.960 182.580 L240.960 182.100 "/>
  <path style="fill:rgb(0,0,0);stroke:none;stroke-width:1.0;" d="M523.980 182.100 L524.460 182.100 L524.460 182.580 L523.980 182.580 L523.980 182.100 "/>
  <path style="fill:rgb(0,0,0);stroke:none;stroke-width:1.0;" d="M70.860 87.540 L71.340 87.540 L71.340 182.100 L70.860 182.100 L70.860 87.540 "/>
  <path style="fill:rgb(0,0,0);stroke:none;stroke-width:1.0;" d="M70.860 87.060 L71.340 87.060 L71.340 87.540 L70.860 87.540 L70.860 87.060 "/>
  <path style="fill:rgb(0,0,0);stroke:none;stroke-width:1.0;" d="M70.860 87.060 L71.340 87.060 L71.340 87.540 L70.860 87.540 L70.860 87.060 "/>
  <path style="fill:rgb(0,0,0);stroke:none;stroke-width:1.0;" d="M71.340 87.060 L127.560 87.060 L127.560 87.540 L71.340 87.540 L71.340 87.060 "/>
  <path style="fill:rgb(0,0,0);stroke:none;stroke-width:1.0;" d="M127.560 87.540 L128.040 87.540 L128.040 182.100 L127.560 182.100 L127.560 87.540 "/>
  <path style="fill:rgb(0,0,0);stroke:none;stroke-width:1.0;" d="M127.560 87.060 L128.040 87.060 L128.040 87.540 L127.560 87.540 L127.560 87.060 "/>
  <path style="fill:rgb(0,0,0);stroke:none;stroke-width:1.0;" d="M128.040 87.060 L184.260 87.060 L184.260 87.540 L128.040 87.540 L128.040 87.060 "/>
  <path style="fill:rgb(0,0,0);stroke:none;stroke-width:1.0;" d="M184.260 87.540 L184.740 87.540 L184.740 182.100 L184.260 182.100 L184.260 87.540 "/>
  <path style="fill:rgb(0,0,0);stroke:none;stroke-width:1.0;" d="M184.260 87.060 L184.740 87.060 L184.740 87.540 L184.260 87.540 L184.260 87.060 "/>
  <path style="fill:rgb(0,0,0);stroke:none;stroke-width:1.0;" d="M184.740 87.060 L240.960 87.060 L240.960 87.540 L184.740 87.540 L184.740 87.060 "/>
  <path style="fill:rgb(0,0,0);stroke:none;stroke-width:1.0;" d="M240.960 87.540 L241.440 87.540 L241.440 182.100 L240.960 182.100 L240.960 87.540 "/>
  <path style="fill:rgb(0,0,0);stroke:none;stroke-width:1.0;" d="M240.960 87.060 L241.440 87.060 L241.440 87.540 L240.960 87.540 L240.960 87.060 "/>
  <path style="fill:rgb(0,0,0);stroke:none;stroke-width:1.0;" d="M523.980 87.540 L524.460 87.540 L524.460 182.100 L523.980 182.100 L523.980 87.540 "/>
  <path style="fill:rgb(0,0,0);stroke:none;stroke-width:1.0;" d="M523.980 87.060 L524.460 87.060 L524.460 87.540 L523.980 87.540 L523.980 87.060 "/>
  <path style="fill:rgb(0,0,0);stroke:none;stroke-width:1.0;" d="M523.980 87.060 L524.460 87.060 L524.460 87.540 L523.980 87.540 L523.980 87.060 "/>
 </g>
</svg>
