<?xml version="1.0" encoding="UTF-8"?>
<svg height="781.06" width="534.46" xmlns="http://www.w3.org/2000/svg">
 <g id="page" xmlns:svgx="http://www.xml-cml.org/schema/svgx">
  <g begin="text">
   <text y="80.82" x="76.5,81.841,87.121,91.921,97.201,100.558,105.538,108.958,111.242,116.282" svgx:width="0.53,0.52,0.48,0.52,0.34,0.5,0.35,0.23,0.51,0.51" style="fill:rgb(0,0,0);font-family:Calibri;font-size:10.02px;stroke:none;">Chapter 15</text>
  </g>
  <g begin="text">
   <text y="80.82" x="121.32" svgx:width="0.23" style="fill:rgb(0,0,0);font-family:Calibri;font-size:10.02px;stroke:none;"> </text>
  </g>
  <g begin="text">
   <text y="80.82" x="133.2,138.3" svgx:width="0.51,0.51" style="fill:rgb(0,0,0);font-family:Calibri;font-size:10.02px;stroke:none;">23</text>
  </g>
  <g begin="text">
   <text y="80.82" x="143.34" svgx:width="0.23" style="fill:rgb(0,0,0);font-family:Calibri;font-size:10.02px;stroke:none;"> </text>
  </g>
  <g begin="text">
   <text y="80.82" x="189.9,195.0" svgx:width="0.51,0.51" style="fill:rgb(0,0,0);font-family:Calibri;font-size:10.02px;stroke:none;">10</text>
  </g>
  <g begin="text">
   <text y="80.82" x="200.04" svgx:width="0.23" style="fill:rgb(0,0,0);font-family:Calibri;font-size:10.02px;stroke:none;"> </text>
  </g>
  <g begin="text">
   <text y="80.82" x="246.6,253.74,256.02,259.381,264.661,266.941,272.402,275.881,280.681,284.641,286.921,289.201,291.721,294.006,296.466,301.746,306.966,309.246,314.047,316.567,318.846,324.186,329.466,331.746,336.966,341.766,344.05,348.79,354.07,359.351,361.571,366.132,371.411,376.692,380.051,385.332,387.551,393.373,396.432,399.912,402.193,406.393,411.192,413.472,418.212,422.471,426.671,431.951,437.231,442.512,445.873,448.152,453.373,458.112,460.397,463.457" svgx:width="0.71,0.23,0.34,0.52,0.23,0.54,0.35,0.48,0.4,0.23,0.23,0.25,0.23,0.25,0.52,0.52,0.23,0.48,0.25,0.23,0.53,0.52,0.23,0.52,0.48,0.23,0.48,0.52,0.52,0.23,0.46,0.53,0.52,0.34,0.52,0.23,0.58,0.31,0.35,0.23,0.42,0.48,0.23,0.48,0.42,0.42,0.53,0.52,0.52,0.34,0.23,0.52,0.47,0.23,0.31,0.53" style="fill:rgb(0,0,0);font-family:Calibri;font-size:10.02px;stroke:none;">with Brazil, India, China and South Africa accounting fo</text>
  </g>
  <g begin="text">
   <text y="80.82" x="468.72,472.14,474.424,479.464,484.505,491.645,493.929,497.289,502.569" svgx:width="0.35,0.23,0.51,0.51,0.71,0.23,0.34,0.53,0.23" style="fill:rgb(0,0,0);font-family:Calibri;font-size:10.02px;stroke:none;">r 25% to </text>
  </g>
  <g begin="text">
   <text y="93.06" x="246.6,251.7,256.8,263.94,266.164,271.445,276.424,281.705,286.625,291.905,297.186,299.467,304.686,309.425,311.705,316.985,322.205,324.429" svgx:width="0.51,0.51,0.71,0.23,0.52,0.5,0.52,0.5,0.52,0.52,0.23,0.52,0.47,0.23,0.53,0.52,0.23,0.23" style="fill:rgb(0,0,0);font-family:Calibri;font-size:10.02px;stroke:none;">43% depending on </text>
   <text y="105.244" x="246.6" svgx:width="0.23" style="fill:rgb(0,0,0);font-family:Calibri;font-size:10.02px;stroke:none;"> </text>
   <text y="117.489" x="246.6,249.656,254.636,256.921,264.06,266.34,269.7,274.981,277.26,282.72,286.2,291.001,294.96,297.24,299.521,301.98,304.26,306.72,312.0,317.281,319.562,324.361,326.821,329.106,334.445,339.726,342.005,347.286,352.025,354.305,359.105,364.325,369.605,371.885,376.504,381.725,387.005,390.366,395.585,397.87,403.691,406.752,410.232,412.452,416.71,421.51,423.73,428.53,432.789,437.047,442.266,447.547,452.828,456.187,458.408,463.688,468.428,470.647,473.707,478.988,482.468,484.688,489.488,492.968,498.247,503.528,508.808,514.029" svgx:width="0.31,0.5,0.23,0.71,0.23,0.34,0.52,0.23,0.54,0.35,0.48,0.4,0.23,0.23,0.25,0.23,0.25,0.52,0.52,0.23,0.48,0.25,0.23,0.53,0.52,0.23,0.52,0.48,0.23,0.48,0.52,0.52,0.23,0.46,0.53,0.52,0.34,0.52,0.23,0.58,0.31,0.35,0.23,0.42,0.48,0.23,0.48,0.42,0.42,0.53,0.52,0.52,0.34,0.23,0.52,0.47,0.23,0.31,0.53,0.35,0.23,0.48,0.35,0.53,0.52,0.52,0.52,0.23" style="fill:rgb(0,0,0);font-family:Calibri;font-size:10.02px;stroke:none;">-&gt; with Brazil, India, China and South Africa accounting for around </text>
   <text y="129.673" x="246.6,251.881,257.16,262.141,265.197,270.478,275.698,280.498,283.979,287.338,292.318,295.798,298.078,301.438,306.658,308.942,316.922,322.202,325.682,330.663,332.942,336.302,341.583,346.322,351.603,353.882,358.623,360.902,364.203,369.483,371.764,375.244,380.524,382.809,388.089,393.009,398.29,403.27,408.489,413.77,416.049,421.27,426.009,428.294,433.573,438.774" svgx:width="0.53,0.52,0.5,0.31,0.52,0.52,0.48,0.35,0.34,0.5,0.35,0.23,0.34,0.53,0.23,0.8,0.53,0.35,0.5,0.23,0.34,0.52,0.48,0.52,0.23,0.48,0.23,0.34,0.52,0.23,0.35,0.52,0.23,0.52,0.5,0.52,0.5,0.52,0.52,0.23,0.52,0.47,0.23,0.53,0.52,0.23" style="fill:rgb(0,0,0);font-family:Calibri;font-size:10.02px;stroke:none;">one-quarter to more than a third depending on </text>
  </g>
  <path style="fill:rgb(0,0,0);stroke:none;stroke-width:1.0;" d="M71.340 676.080 L127.560 676.080 L127.560 770.580 L71.340 770.580 L71.340 676.080 M71.340 676.080 L127.560 676.080 L127.560 770.580 L71.340 770.580 L71.340 676.080 M128.040 676.080 L184.260 676.080 L184.260 770.580 L128.040 770.580 L128.040 676.080 M128.040 676.080 L184.260 676.080 L184.260 770.580 L128.040 770.580 L128.040 676.080 M184.740 676.080 L240.960 676.080 L240.960 770.580 L184.740 770.580 L184.740 676.080 M184.740 676.080 L240.960 676.080 L240.960 770.580 L184.740 770.580 L184.740 676.080 M70.860 770.580 L71.340 770.580 L71.340 771.060 L70.860 771.060 L70.860 770.580 "/>
  <path style="fill:rgb(0,0,0);stroke:none;stroke-width:1.0;" d="M70.860 770.580 L71.340 770.580 L71.340 771.060 L70.860 771.060 L70.860 770.580 "/>
  <path style="fill:rgb(0,0,0);stroke:none;stroke-width:1.0;" d="M71.340 770.580 L127.560 770.580 L127.560 771.060 L71.340 771.060 L71.340 770.580 "/>
  <path style="fill:rgb(0,0,0);stroke:none;stroke-width:1.0;" d="M127.560 770.580 L128.040 770.580 L128.040 771.060 L127.560 771.060 L127.560 770.580 "/>
  <path style="fill:rgb(0,0,0);stroke:none;stroke-width:1.0;" d="M128.040 770.580 L184.260 770.580 L184.260 771.060 L128.040 771.060 L128.040 770.580 "/>
  <path style="fill:rgb(0,0,0);stroke:none;stroke-width:1.0;" d="M184.260 770.580 L184.740 770.580 L184.740 771.060 L184.260 771.060 L184.260 770.580 "/>
  <path style="fill:rgb(0,0,0);stroke:none;stroke-width:1.0;" d="M184.740 770.580 L240.960 770.580 L240.960 771.060 L184.740 771.060 L184.740 770.580 "/>
  <path style="fill:rgb(0,0,0);stroke:none;stroke-width:1.0;" d="M240.960 770.580 L241.440 770.580 L241.440 771.060 L240.960 771.060 L240.960 770.580 "/>
  <path style="fill:rgb(0,0,0);stroke:none;stroke-width:1.0;" d="M523.980 770.580 L524.460 770.580 L524.460 771.060 L523.980 771.060 L523.980 770.580 "/>
  <path style="fill:rgb(0,0,0);stroke:none;stroke-width:1.0;" d="M523.980 770.580 L524.460 770.580 L524.460 771.060 L523.980 771.060 L523.980 770.580 "/>
  <path style="fill:rgb(0,0,0);stroke:none;stroke-width:1.0;" d="M70.860 676.080 L71.340 676.080 L71.340 770.580 L70.860 770.580 L70.860 676.080 "/>
  <path style="fill:rgb(0,0,0);stroke:none;stroke-width:1.0;" d="M127.560 676.080 L128.040 676.080 L128.040 770.580 L127.560 770.580 L127.560 676.080 "/>
  <path style="fill:rgb(0,0,0);stroke:none;stroke-width:1.0;" d="M184.260 676.080 L184.740 676.080 L184.740 770.580 L184.260 770.580 L184.260 676.080 "/>
  <path style="fill:rgb(0,0,0);stroke:none;stroke-width:1.0;" d="M240.960 676.080 L241.440 676.080 L241.440 770.580 L240.960 770.580 L240.960 676.080 "/>
  <path style="fill:rgb(0,0,0);stroke:none;stroke-width:1.0;" d="M523.980 676.080 L524.460 676.080 L524.460 770.580 L523.980 770.580 L523.980 676.080 "/>
  <g begin="text">
   <text y="175.86" x="76.5,81.841,87.121,91.921,97.201,100.558,105.538,108.958,111.242,116.282" svgx:width="0.53,0.52,0.48,0.52,0.34,0.5,0.35,0.23,0.51,0.51" style="fill:rgb(0,0,0);font-family:Calibri;font-size:10.02px;stroke:none;">Chapter 15</text>
  </g>
  <g begin="text">
   <text y="175.86" x="121.32" svgx:width="0.23" style="fill:rgb(0,0,0);font-family:Calibri;font-size:10.02px;stroke:none;"> </text>
  </g>
  <g begin="text">
   <text y="175.86" x="133.2,138.3" svgx:width="0.51,0.51" style="fill:rgb(0,0,0);font-family:Calibri;font-size:10.02px;stroke:none;">24</text>
  </g>
  <g begin="text">
   <text y="175.86" x="143.34" svgx:width="0.23" style="fill:rgb(0,0,0);font-family:Calibri;font-size:10.02px;stroke:none;"> </text>
  </g>
  <g begin="text">
   <text y="175.86" x="189.9,195.0" svgx:width="0.51,0.51" style="fill:rgb(0,0,0);font-family:Calibri;font-size:10.02px;stroke:none;">17</text>
  </g>
  <g begin="text">
   <text y="175.86" x="200.04" svgx:width="0.23" style="fill:rgb(0,0,0);font-family:Calibri;font-size:10.02px;stroke:none;"> </text>
  </g>
  <g begin="text">
   <text y="175.86" x="246.6,251.881,256.86,260.22,267.36,272.34,277.32,282.601,284.825,289.865,294.966,302.105,304.329,309.129,314.409,319.69,321.914,327.014,332.115,339.195,341.475,346.756,351.736,355.097,362.176,367.156,372.137,377.417,379.697,384.737,389.777,394.877,399.977,402.202,407.001,412.282,417.501,419.726,424.826,429.866,434.966" svgx:width="0.52,0.5,0.34,0.71,0.5,0.5,0.52,0.23,0.51,0.51,0.71,0.23,0.48,0.52,0.52,0.23,0.51,0.51,0.71,0.23,0.52,0.5,0.34,0.71,0.5,0.5,0.52,0.23,0.51,0.51,0.51,0.51,0.23,0.48,0.52,0.52,0.23,0.51,0.51,0.51,0.51" style="fill:rgb(0,0,0);font-family:Calibri;font-size:10.02px;stroke:none;">between 90% and 95% between 2017 and 2020</text>
  </g>
  <g begin="text">
   <text y="175.86" x="439.98" svgx:width="0.23" style="fill:rgb(0,0,0);font-family:Calibri;font-size:10.02px;stroke:none;"> </text>
  </g>
  <g begin="text">
   <text y="188.04" x="246.6" svgx:width="0.23" style="fill:rgb(0,0,0);font-family:Calibri;font-size:10.02px;stroke:none;"> </text>
   <text y="200.224" x="246.6,249.656,254.636,256.921,261.179,266.459,271.739,275.639,277.919,281.819,285.179,290.159,295.379,298.739,301.02,305.579,307.798,312.599,317.879,323.16,327.659,332.64,334.919,339.959,345.06,352.2,354.419,359.7,364.68,367.979,375.119,380.099,385.079,390.36,392.639,397.68,402.78,407.82,412.92,415.2,419.939,425.159,430.44,432.719,437.76,442.86,447.9,452.932" svgx:width="0.31,0.5,0.23,0.42,0.53,0.52,0.39,0.23,0.39,0.34,0.5,0.52,0.34,0.23,0.45,0.23,0.48,0.52,0.53,0.45,0.5,0.23,0.51,0.51,0.71,0.23,0.52,0.5,0.34,0.71,0.5,0.5,0.52,0.23,0.51,0.51,0.51,0.51,0.23,0.48,0.52,0.52,0.23,0.51,0.51,0.51,0.51,0.23" style="fill:rgb(0,0,0);font-family:Calibri;font-size:10.02px;stroke:none;">-&gt; consistently above 90% between 2017 and 2020 </text>
  </g>
  <path style="fill:rgb(0,0,0);stroke:none;stroke-width:1.0;" d="M71.340 581.040 L127.560 581.040 L127.560 675.540 L71.340 675.540 L71.340 581.040 M71.340 581.040 L127.560 581.040 L127.560 675.540 L71.340 675.540 L71.340 581.040 M128.040 581.040 L184.260 581.040 L184.260 675.540 L128.040 675.540 L128.040 581.040 M128.040 581.040 L184.260 581.040 L184.260 675.540 L128.040 675.540 L128.040 581.040 M184.740 581.040 L240.960 581.040 L240.960 675.540 L184.740 675.540 L184.740 581.040 M184.740 581.040 L240.960 581.040 L240.960 675.540 L184.740 675.540 L184.740 581.040 M70.860 675.600 L71.340 675.600 L71.340 676.080 L70.860 676.080 L70.860 675.600 "/>
  <path style="fill:rgb(0,0,0);stroke:none;stroke-width:1.0;" d="M71.340 675.600 L127.560 675.600 L127.560 676.080 L71.340 676.080 L71.340 675.600 "/>
  <path style="fill:rgb(0,0,0);stroke:none;stroke-width:1.0;" d="M127.560 675.600 L128.040 675.600 L128.040 676.080 L127.560 676.080 L127.560 675.600 "/>
  <path style="fill:rgb(0,0,0);stroke:none;stroke-width:1.0;" d="M128.040 675.600 L184.260 675.600 L184.260 676.080 L128.040 676.080 L128.040 675.600 "/>
  <path style="fill:rgb(0,0,0);stroke:none;stroke-width:1.0;" d="M184.260 675.600 L184.740 675.600 L184.740 676.080 L184.260 676.080 L184.260 675.600 "/>
  <path style="fill:rgb(0,0,0);stroke:none;stroke-width:1.0;" d="M184.740 675.600 L240.960 675.600 L240.960 676.080 L184.740 676.080 L184.740 675.600 "/>
  <path style="fill:rgb(0,0,0);stroke:none;stroke-width:1.0;" d="M240.960 675.600 L241.440 675.600 L241.440 676.080 L240.960 676.080 L240.960 675.600 "/>
  <path style="fill:rgb(0,0,0);stroke:none;stroke-width:1.0;" d="M523.980 675.600 L524.460 675.600 L524.460 676.080 L523.980 676.080 L523.980 675.600 "/>
  <path style="fill:rgb(0,0,0);stroke:none;stroke-width:1.0;" d="M70.860 581.040 L71.340 581.040 L71.340 675.600 L70.860 675.600 L70.860 581.040 "/>
  <path style="fill:rgb(0,0,0);stroke:none;stroke-width:1.0;" d="M127.560 581.040 L128.040 581.040 L128.040 675.600 L127.560 675.600 L127.560 581.040 "/>
  <path style="fill:rgb(0,0,0);stroke:none;stroke-width:1.0;" d="M184.260 581.040 L184.740 581.040 L184.740 675.600 L184.260 675.600 L184.260 581.040 "/>
  <path style="fill:rgb(0,0,0);stroke:none;stroke-width:1.0;" d="M240.960 581.040 L241.440 581.040 L241.440 675.600 L240.960 675.600 L240.960 581.040 "/>
  <path style="fill:rgb(0,0,0);stroke:none;stroke-width:1.0;" d="M523.980 581.040 L524.460 581.040 L524.460 675.600 L523.980 675.600 L523.980 581.040 "/>
  <g begin="text">
   <text y="270.84" x="76.5,81.841,87.121,91.921,97.201,100.558,105.538,108.958,111.242,116.282" svgx:width="0.53,0.52,0.48,0.52,0.34,0.5,0.35,0.23,0.51,0.51" style="fill:rgb(0,0,0);font-family:Calibri;font-size:10.02px;stroke:none;">Chapter 15</text>
  </g>
  <g begin="text">
   <text y="270.84" x="121.32" svgx:width="0.23" style="fill:rgb(0,0,0);font-family:Calibri;font-size:10.02px;stroke:none;"> </text>
  </g>
  <g begin="text">
   <text y="270.84" x="133.2" svgx:width="0.51" style="fill:rgb(0,0,0);font-family:Calibri;font-size:10.02px;stroke:none;">9</text>
  </g>
  <g begin="text">
   <text y="270.84" x="138.24" svgx:width="0.23" style="fill:rgb(0,0,0);font-family:Calibri;font-size:10.02px;stroke:none;"> </text>
  </g>
  <g begin="text">
   <text y="270.84" x="189.9,195.0" svgx:width="0.51,0.51" style="fill:rgb(0,0,0);font-family:Calibri;font-size:10.02px;stroke:none;">40</text>
  </g>
  <g begin="text">
   <text y="270.84" x="200.04" svgx:width="0.23" style="fill:rgb(0,0,0);font-family:Calibri;font-size:10.02px;stroke:none;"> </text>
  </g>
  <g begin="text">
   <text y="270.84" x="246.6,251.7,256.74,261.84,264.12,269.401,271.68,273.961,276.24,278.52,283.8,289.081,291.365,297.725,302.285,308.467,310.747,315.306" svgx:width="0.51,0.51,0.51,0.23,0.52,0.23,0.23,0.23,0.23,0.53,0.52,0.23,0.64,0.46,0.62,0.23,0.45,0.35" style="fill:rgb(0,0,0);font-family:Calibri;font-size:10.02px;stroke:none;">385 billion USD yr</text>
  </g>
  <g begin="text">
   <text y="270.84" x="318.78" svgx:width="0.31" style="fill:rgb(0,0,0);font-family:Calibri;font-size:10.02px;stroke:none;">-</text>
  </g>
  <g begin="text">
   <text y="270.84" x="321.78,326.88" svgx:width="0.51,0.23" style="fill:rgb(0,0,0);font-family:Calibri;font-size:10.02px;stroke:none;">1 </text>
  </g>
  <g begin="text">
   <text y="270.84" x="329.16" svgx:width="0.31" style="fill:rgb(0,0,0);font-family:Calibri;font-size:10.02px;stroke:none;">-</text>
  </g>
  <g begin="text">
   <text y="270.84" x="332.22,337.2,339.424,344.525,349.565,354.665,356.889,362.109,364.389,366.669,368.949,371.229,376.509,381.79,384.07,390.49,395.109,401.292,404.292,408.911,415.511,422.111,426.971,433.451,440.111,444.971,449.832,452.888,455.112,459.671" svgx:width="0.5,0.23,0.51,0.51,0.51,0.23,0.52,0.23,0.23,0.23,0.23,0.53,0.52,0.23,0.64,0.46,0.62,0.3,0.46,0.66,0.66,0.49,0.65,0.66,0.49,0.49,0.3,0.23,0.45,0.35" style="fill:rgb(0,0,0);font-family:Calibri;font-size:10.02px;stroke:none;">&gt; 385 billion USD(FOOTNOTE) yr</text>
  </g>
  <g begin="text">
   <text y="270.84" x="463.14" svgx:width="0.31" style="fill:rgb(0,0,0);font-family:Calibri;font-size:10.02px;stroke:none;">-</text>
  </g>
  <g begin="text">
   <text y="270.84" x="466.2,471.3,473.52,475.8" svgx:width="0.51,0.23,0.23,0.23" style="fill:rgb(0,0,0);font-family:Calibri;font-size:10.02px;stroke:none;">1 </text>
  </g>
  <g begin="text">
   <text y="283.02" x="246.6,251.22,257.82,264.48,269.339,275.759,282.418,287.278,292.201,294.841,297.121,299.405,301.925,307.145,309.429,312.789,318.07,323.051,325.27,329.529,334.809,339.55,344.83,348.19,353.17,356.651,359.111,361.39,367.75,372.369,378.551,380.771,386.051,391.332,393.612,396.972,400.872,403.157,407.956,411.436,416.357,418.636,423.917,427.757,432.737,438.017,440.302,445.101,449.001,451.286,454.766,459.685,464.966,470.245,473.725,477.086,482.066,487.285,489.57,491.85,497.13,499.41,502.769,507.99,512.97" svgx:width="0.46,0.66,0.66,0.49,0.65,0.66,0.49,0.49,0.27,0.23,0.23,0.25,0.52,0.23,0.34,0.52,0.5,0.23,0.42,0.52,0.48,0.52,0.34,0.5,0.35,0.25,0.23,0.64,0.46,0.62,0.23,0.52,0.52,0.23,0.34,0.39,0.23,0.48,0.35,0.5,0.23,0.52,0.39,0.5,0.52,0.23,0.48,0.39,0.23,0.35,0.5,0.52,0.53,0.35,0.34,0.5,0.52,0.23,0.23,0.52,0.23,0.34,0.52,0.5,0.23" style="fill:rgb(0,0,0);font-family:Calibri;font-size:10.02px;stroke:none;">FOOTNOTE: In the chapter, USD units are used as reported in the </text>
   <text y="295.264" x="246.6,251.881,255.359,257.64,262.38,264.659,269.94,274.739,277.019,279.303,283.203,288.484,293.764,297.184,301.442,306.362,310.262,312.547,314.826,320.107,322.386,327.126,332.047,337.327,342.307,345.787,350.588,352.867,355.387,357.672,362.291,367.511,375.491,380.471,382.756,390.736,396.015,401.296,406.276,409.635,414.435,417.856,422.415,424.634,429.915,435.195,439.995,445.215,448.575,450.856,454.215,456.496,461.476,465.376,467.655,472.936,477.735,482.175,487.156,489.436,494.716,499.696,504.676,509.896" svgx:width="0.53,0.35,0.23,0.47,0.23,0.52,0.48,0.23,0.23,0.39,0.53,0.52,0.35,0.42,0.5,0.39,0.23,0.23,0.52,0.23,0.47,0.5,0.52,0.5,0.35,0.48,0.23,0.25,0.23,0.46,0.53,0.8,0.5,0.23,0.8,0.53,0.52,0.5,0.34,0.48,0.35,0.45,0.23,0.52,0.52,0.48,0.52,0.34,0.23,0.34,0.23,0.5,0.39,0.23,0.52,0.48,0.45,0.5,0.23,0.52,0.5,0.5,0.52,0.23" style="fill:rgb(0,0,0);font-family:Calibri;font-size:10.02px;stroke:none;">original sources in general. Some monetary quantities have been </text>
   <text y="307.449" x="246.6,251.4,256.68,259.08,264.36,268.26,271.62,276.54,281.82,284.1,288.0,292.98,295.26,300.24,304.499,307.798,310.079,314.578,319.559,321.838,326.397,328.677,331.737,337.017,340.497,342.777,347.578,351.777,357.057,359.337,364.317,368.817,371.098,376.378,381.118,383.338,387.596,392.876,400.856,406.136,410.936,414.416,419.156,424.437,426.718,428.997,431.278,434.637,439.196,441.481,446.7,451.26,453.48,458.76,463.743,466.799,469.079,473.879,477.235,479.516,484.735,489.416,491.695,495.052,500.331,505.311" svgx:width="0.48,0.52,0.24,0.52,0.39,0.34,0.5,0.52,0.23,0.39,0.5,0.23,0.5,0.42,0.34,0.23,0.45,0.5,0.23,0.45,0.23,0.31,0.53,0.35,0.23,0.48,0.42,0.52,0.23,0.5,0.45,0.23,0.52,0.47,0.23,0.42,0.53,0.8,0.52,0.48,0.35,0.48,0.52,0.23,0.23,0.23,0.34,0.45,0.23,0.52,0.45,0.23,0.52,0.5,0.31,0.23,0.48,0.34,0.23,0.52,0.47,0.23,0.34,0.52,0.5,0.23" style="fill:rgb(0,0,0);font-family:Calibri;font-size:10.02px;stroke:none;">adjusted selectively for achieving comparability by deflating the </text>
   <text y="319.693" x="246.6,251.1,255.9,258.18,263.461,268.442,272.341,274.621,277.982,283.261,285.541,289.741,295.022,300.302,304.202,307.503,312.302,317.583,320.942,323.222,329.583,334.202,336.486,342.607,347.886,350.167,352.446,357.246,360.726,363.01,368.05,373.151,378.191,383.291,385.811,388.09,390.61,395.831,398.11,402.01,407.291,411.49,416.771,418.99,423.249,427.989,431.889,436.869,440.768,443.289,445.568,448.929,454.209,459.189,461.41,466.69,471.971,474.25,477.551,479.831,482.111,486.011" svgx:width="0.45,0.48,0.23,0.52,0.5,0.39,0.23,0.34,0.53,0.23,0.42,0.53,0.52,0.39,0.34,0.48,0.52,0.34,0.23,0.64,0.46,0.23,0.62,0.53,0.23,0.23,0.48,0.35,0.23,0.51,0.51,0.51,0.51,0.25,0.23,0.25,0.52,0.23,0.39,0.52,0.42,0.52,0.23,0.42,0.48,0.39,0.5,0.39,0.25,0.23,0.34,0.52,0.5,0.23,0.52,0.52,0.23,0.34,0.23,0.23,0.39,0.23" style="fill:rgb(0,0,0);font-family:Calibri;font-size:10.02px;stroke:none;">values to constant US Dollar 2015. In such cases, the unit is </text>
   <text y="331.878" x="246.6,251.58,255.899,261.179,263.454,265.734,269.994,272.274,275.634,277.908,282.469,284.753,289.733,294.052,299.332,302.809,307.729,311.627,315.524,320.504,325.785,328.064,332.865,336.763,339.042,345.462,350.022,356.203,361.243,366.283,371.383,376.482,378.964" svgx:width="0.5,0.43,0.52,0.23,0.23,0.42,0.23,0.34,0.23,0.45,0.23,0.5,0.43,0.52,0.35,0.5,0.39,0.39,0.5,0.52,0.23,0.48,0.39,0.23,0.64,0.46,0.62,0.51,0.51,0.51,0.51,0.25,0.23" style="fill:rgb(0,0,0);font-family:Calibri;font-size:10.02px;stroke:none;">explicitly expressed as USD2015. </text>
  </g>
  <path style="fill:rgb(0,0,0);stroke:none;stroke-width:1.0;" d="M71.340 486.060 L127.560 486.060 L127.560 580.560 L71.340 580.560 L71.340 486.060 M71.340 486.060 L127.560 486.060 L127.560 580.560 L71.340 580.560 L71.340 486.060 M128.040 486.060 L184.260 486.060 L184.260 580.560 L128.040 580.560 L128.040 486.060 M128.040 486.060 L184.260 486.060 L184.260 580.560 L128.040 580.560 L128.040 486.060 M184.740 486.060 L240.960 486.060 L240.960 580.560 L184.740 580.560 L184.740 486.060 M184.740 486.060 L240.960 486.060 L240.960 580.560 L184.740 580.560 L184.740 486.060 M70.860 580.560 L71.340 580.560 L71.340 581.040 L70.860 581.040 L70.860 580.560 "/>
  <path style="fill:rgb(0,0,0);stroke:none;stroke-width:1.0;" d="M71.340 580.560 L127.560 580.560 L127.560 581.040 L71.340 581.040 L71.340 580.560 "/>
  <path style="fill:rgb(0,0,0);stroke:none;stroke-width:1.0;" d="M127.560 580.560 L128.040 580.560 L128.040 581.040 L127.560 581.040 L127.560 580.560 "/>
  <path style="fill:rgb(0,0,0);stroke:none;stroke-width:1.0;" d="M128.040 580.560 L184.260 580.560 L184.260 581.040 L128.040 581.040 L128.040 580.560 "/>
  <path style="fill:rgb(0,0,0);stroke:none;stroke-width:1.0;" d="M184.260 580.560 L184.740 580.560 L184.740 581.040 L184.260 581.040 L184.260 580.560 "/>
  <path style="fill:rgb(0,0,0);stroke:none;stroke-width:1.0;" d="M184.740 580.560 L240.960 580.560 L240.960 581.040 L184.740 581.040 L184.740 580.560 "/>
  <path style="fill:rgb(0,0,0);stroke:none;stroke-width:1.0;" d="M240.960 580.560 L241.440 580.560 L241.440 581.040 L240.960 581.040 L240.960 580.560 "/>
  <path style="fill:rgb(0,0,0);stroke:none;stroke-width:1.0;" d="M523.980 580.560 L524.460 580.560 L524.460 581.040 L523.980 581.040 L523.980 580.560 "/>
  <path style="fill:rgb(0,0,0);stroke:none;stroke-width:1.0;" d="M70.860 486.060 L71.340 486.060 L71.340 580.560 L70.860 580.560 L70.860 486.060 "/>
  <path style="fill:rgb(0,0,0);stroke:none;stroke-width:1.0;" d="M127.560 486.060 L128.040 486.060 L128.040 580.560 L127.560 580.560 L127.560 486.060 "/>
  <path style="fill:rgb(0,0,0);stroke:none;stroke-width:1.0;" d="M184.260 486.060 L184.740 486.060 L184.740 580.560 L184.260 580.560 L184.260 486.060 "/>
  <path style="fill:rgb(0,0,0);stroke:none;stroke-width:1.0;" d="M240.960 486.060 L241.440 486.060 L241.440 580.560 L240.960 580.560 L240.960 486.060 "/>
  <path style="fill:rgb(0,0,0);stroke:none;stroke-width:1.0;" d="M523.980 486.060 L524.460 486.060 L524.460 580.560 L523.980 580.560 L523.980 486.060 "/>
  <g begin="text">
   <text y="365.82" x="76.5,81.841,87.121,91.921,97.201,100.558,105.538,108.958,111.242,116.282" svgx:width="0.53,0.52,0.48,0.52,0.34,0.5,0.35,0.23,0.51,0.51" style="fill:rgb(0,0,0);font-family:Calibri;font-size:10.02px;stroke:none;">Chapter 15</text>
  </g>
  <g begin="text">
   <text y="365.82" x="121.32" svgx:width="0.23" style="fill:rgb(0,0,0);font-family:Calibri;font-size:10.02px;stroke:none;"> </text>
  </g>
  <g begin="text">
   <text y="365.82" x="133.2,138.3" svgx:width="0.51,0.51" style="fill:rgb(0,0,0);font-family:Calibri;font-size:10.02px;stroke:none;">13</text>
  </g>
  <g begin="text">
   <text y="365.82" x="143.34" svgx:width="0.23" style="fill:rgb(0,0,0);font-family:Calibri;font-size:10.02px;stroke:none;"> </text>
  </g>
  <g begin="text">
   <text y="365.82" x="189.9,195.0" svgx:width="0.51,0.51" style="fill:rgb(0,0,0);font-family:Calibri;font-size:10.02px;stroke:none;">42</text>
  </g>
  <g begin="text">
   <text y="365.82" x="200.04" svgx:width="0.23" style="fill:rgb(0,0,0);font-family:Calibri;font-size:10.02px;stroke:none;"> </text>
  </g>
  <g begin="text">
   <text y="365.82" x="246.6,250.859,256.14,261.359,266.64,270.0,273.477,275.757,280.737,284.635,286.914,292.195,295.255,297.474,302.575,307.615,309.899,315.179,317.453,319.734,322.008,324.289,329.568,334.849,337.129,343.548,348.108,354.289" svgx:width="0.42,0.53,0.52,0.52,0.34,0.35,0.23,0.5,0.39,0.23,0.53,0.31,0.23,0.51,0.51,0.23,0.52,0.23,0.23,0.23,0.23,0.53,0.52,0.23,0.64,0.46,0.62,0.23" style="fill:rgb(0,0,0);font-family:Calibri;font-size:10.02px;stroke:none;">countries of 40 billion USD </text>
  </g>
  <g begin="text">
   <text y="365.82" x="356.58" svgx:width="0.31" style="fill:rgb(0,0,0);font-family:Calibri;font-size:10.02px;stroke:none;">-</text>
  </g>
  <g begin="text">
   <text y="365.82" x="359.64,364.62,366.844,371.104,376.384,381.604,386.884,390.244,393.721,395.995,400.975,404.873,407.153,412.432,415.492,417.717,422.817,427.857,430.137,435.416,437.697,439.971,442.252,444.526,449.807,455.086" svgx:width="0.5,0.23,0.42,0.53,0.52,0.52,0.34,0.35,0.23,0.5,0.39,0.23,0.53,0.31,0.23,0.51,0.51,0.23,0.52,0.23,0.23,0.23,0.23,0.53,0.52,0.23" style="fill:rgb(0,0,0);font-family:Calibri;font-size:10.02px;stroke:none;">&gt; countries of 40 billion </text>
  </g>
  <g begin="text">
   <text y="378.06" x="246.6,253.02,257.64,263.819,266.819,271.379,278.043,284.706,289.567,295.987,302.65,307.45,312.37,315.43,317.65,319.916,324.476,331.14,337.803,342.604,349.084,355.747,360.547,365.467,368.107,370.391,372.911,378.192,380.476,383.776,389.056,394.036,396.256,400.514,405.795,410.535,415.816,419.176,424.156,427.576,430.096,432.376,438.797,443.356,449.538,451.823,457.042,462.323,464.602,467.962,471.863,474.142,478.943,482.423,487.343,489.622,494.903,498.802,503.782,509.063" svgx:width="0.64,0.46,0.62,0.3,0.46,0.66,0.66,0.49,0.65,0.66,0.49,0.49,0.3,0.23,0.23,0.46,0.66,0.66,0.49,0.65,0.66,0.49,0.49,0.27,0.23,0.25,0.52,0.23,0.34,0.52,0.5,0.23,0.42,0.52,0.48,0.52,0.34,0.5,0.35,0.25,0.23,0.64,0.46,0.62,0.23,0.52,0.52,0.23,0.34,0.39,0.23,0.48,0.35,0.5,0.23,0.52,0.39,0.5,0.52,0.23" style="fill:rgb(0,0,0);font-family:Calibri;font-size:10.02px;stroke:none;">USD(FOOTNOTE) FOOTNOTE: In the chapter, USD units are used </text>
   <text y="390.244" x="246.6,251.4,255.3,257.58,261.06,266.04,271.319,276.6,280.08,283.44,288.419,293.64,295.919,298.204,303.484,305.704,309.064,314.344,319.324,321.604,326.884,330.364,332.649,337.388,339.609,344.888,349.689,351.968,354.253,358.153,363.373,368.653,372.133,376.393,381.373,385.273,387.557,389.837,395.057,397.337,402.077,406.997,412.278,417.258,420.677,425.478,427.758,430.273,432.557,437.177,442.457,450.437,455.417,457.701,465.681,470.962,476.241,481.161,484.522,489.321,492.801,497.362" svgx:width="0.48,0.39,0.23,0.35,0.5,0.52,0.53,0.35,0.34,0.5,0.52,0.23,0.23,0.52,0.23,0.34,0.52,0.5,0.23,0.53,0.35,0.23,0.47,0.23,0.52,0.48,0.23,0.23,0.39,0.53,0.52,0.35,0.42,0.5,0.39,0.23,0.23,0.52,0.23,0.47,0.5,0.52,0.5,0.35,0.48,0.23,0.25,0.23,0.46,0.53,0.8,0.5,0.23,0.8,0.53,0.52,0.5,0.34,0.48,0.35,0.45,0.23" style="fill:rgb(0,0,0);font-family:Calibri;font-size:10.02px;stroke:none;">as reported in the original sources in general. Some monetary </text>
   <text y="402.489" x="246.6,251.881,257.161,261.961,267.181,270.541,272.821,276.181,278.462,283.442,287.341,289.621,294.901,299.701,304.141,309.121,311.405,316.686,321.666,326.646,331.866,334.146,338.946,344.227,346.566,351.847,355.747,359.108,364.027,369.308,371.592,375.492,380.472,382.753,387.733,391.991,395.352,397.631,402.131,407.111,409.391,413.95,416.169,419.23,424.449,427.93,430.209,435.009,439.268,444.548,446.829,451.809,456.309,458.588,463.809,468.548" svgx:width="0.52,0.52,0.48,0.52,0.34,0.23,0.34,0.23,0.5,0.39,0.23,0.52,0.48,0.45,0.5,0.23,0.52,0.5,0.5,0.52,0.23,0.48,0.52,0.24,0.52,0.39,0.34,0.5,0.52,0.23,0.39,0.5,0.23,0.5,0.42,0.34,0.23,0.45,0.5,0.23,0.45,0.23,0.31,0.53,0.35,0.23,0.48,0.42,0.52,0.23,0.5,0.45,0.23,0.52,0.47,0.23" style="fill:rgb(0,0,0);font-family:Calibri;font-size:10.02px;stroke:none;">quantities have been adjusted selectively for achieving </text>
   <text y="414.673" x="246.6,250.859,256.139,264.119,269.4,274.199,277.679,282.419,287.7,289.981,292.26,294.54,297.9,302.46,304.679,309.959,314.519,316.743,322.024,327.004,330.064,332.343,337.144,340.497,342.777,347.997,352.738,355.017,358.317,363.537,368.517,370.802,375.302,380.102,382.381,387.662,392.642,396.541,398.826,402.183,407.463,409.684,413.943,419.224,424.444,428.344,431.701,436.5,441.781,445.137,447.422,453.782,458.402,460.681,466.862,472.142,474.423,476.702,481.502,484.922,487.201,492.301,497.342,502.442,507.542,510.002" svgx:width="0.42,0.53,0.8,0.52,0.48,0.35,0.48,0.52,0.23,0.23,0.23,0.34,0.45,0.23,0.52,0.45,0.23,0.52,0.5,0.31,0.23,0.48,0.34,0.23,0.52,0.47,0.23,0.34,0.52,0.5,0.23,0.45,0.48,0.23,0.52,0.5,0.39,0.23,0.34,0.53,0.23,0.42,0.53,0.52,0.39,0.34,0.48,0.52,0.34,0.23,0.64,0.46,0.23,0.62,0.53,0.23,0.23,0.48,0.35,0.23,0.51,0.51,0.51,0.51,0.25,0.23" style="fill:rgb(0,0,0);font-family:Calibri;font-size:10.02px;stroke:none;">comparability by deflating the values to constant US Dollar 2015. </text>
   <text y="426.857" x="246.6,249.12,254.4,256.684,260.582,265.802,270.062,275.341,277.562,281.822,286.622,290.52,295.5,299.397,301.917,304.138,307.437,312.718,317.698,319.977,325.198,330.477,332.758,336.118,338.402,340.677,344.574,346.859,351.839,356.157,361.438,363.713,365.933,370.192,372.473,375.833,378.107,382.667,384.947,389.928,394.246,399.526,403.003,407.983,411.881,415.778,420.698,425.919,428.198,432.999,436.896,439.176,445.596,450.156,456.336,461.376,466.476,471.517,476.616,479.104" svgx:width="0.25,0.52,0.23,0.39,0.52,0.42,0.52,0.23,0.42,0.48,0.39,0.5,0.39,0.25,0.23,0.34,0.52,0.5,0.23,0.52,0.52,0.23,0.34,0.23,0.23,0.39,0.23,0.5,0.43,0.52,0.23,0.23,0.42,0.23,0.34,0.23,0.45,0.23,0.5,0.43,0.52,0.35,0.5,0.39,0.39,0.5,0.52,0.23,0.48,0.39,0.23,0.64,0.46,0.62,0.51,0.51,0.51,0.51,0.25,0.23" style="fill:rgb(0,0,0);font-family:Calibri;font-size:10.02px;stroke:none;">In such cases, the unit is explicitly expressed as USD2015. </text>
  </g>
  <path style="fill:rgb(0,0,0);stroke:none;stroke-width:1.0;" d="M71.340 391.080 L127.560 391.080 L127.560 485.580 L71.340 485.580 L71.340 391.080 M71.340 391.080 L127.560 391.080 L127.560 485.580 L71.340 485.580 L71.340 391.080 M128.040 391.080 L184.260 391.080 L184.260 485.580 L128.040 485.580 L128.040 391.080 M128.040 391.080 L184.260 391.080 L184.260 485.580 L128.040 485.580 L128.040 391.080 M184.740 391.080 L240.960 391.080 L240.960 485.580 L184.740 485.580 L184.740 391.080 M184.740 391.080 L240.960 391.080 L240.960 485.580 L184.740 485.580 L184.740 391.080 M70.860 485.580 L71.340 485.580 L71.340 486.060 L70.860 486.060 L70.860 485.580 "/>
  <path style="fill:rgb(0,0,0);stroke:none;stroke-width:1.0;" d="M71.340 485.580 L127.560 485.580 L127.560 486.060 L71.340 486.060 L71.340 485.580 "/>
  <path style="fill:rgb(0,0,0);stroke:none;stroke-width:1.0;" d="M127.560 485.580 L128.040 485.580 L128.040 486.060 L127.560 486.060 L127.560 485.580 "/>
  <path style="fill:rgb(0,0,0);stroke:none;stroke-width:1.0;" d="M128.040 485.580 L184.260 485.580 L184.260 486.060 L128.040 486.060 L128.040 485.580 "/>
  <path style="fill:rgb(0,0,0);stroke:none;stroke-width:1.0;" d="M184.260 485.580 L184.740 485.580 L184.740 486.060 L184.260 486.060 L184.260 485.580 "/>
  <path style="fill:rgb(0,0,0);stroke:none;stroke-width:1.0;" d="M184.740 485.580 L240.960 485.580 L240.960 486.060 L184.740 486.060 L184.740 485.580 "/>
  <path style="fill:rgb(0,0,0);stroke:none;stroke-width:1.0;" d="M240.960 485.580 L241.440 485.580 L241.440 486.060 L240.960 486.060 L240.960 485.580 "/>
  <path style="fill:rgb(0,0,0);stroke:none;stroke-width:1.0;" d="M523.980 485.580 L524.460 485.580 L524.460 486.060 L523.980 486.060 L523.980 485.580 "/>
  <path style="fill:rgb(0,0,0);stroke:none;stroke-width:1.0;" d="M70.860 391.080 L71.340 391.080 L71.340 485.580 L70.860 485.580 L70.860 391.080 "/>
  <path style="fill:rgb(0,0,0);stroke:none;stroke-width:1.0;" d="M127.560 391.080 L128.040 391.080 L128.040 485.580 L127.560 485.580 L127.560 391.080 "/>
  <path style="fill:rgb(0,0,0);stroke:none;stroke-width:1.0;" d="M184.260 391.080 L184.740 391.080 L184.740 485.580 L184.260 485.580 L184.260 391.080 "/>
  <path style="fill:rgb(0,0,0);stroke:none;stroke-width:1.0;" d="M240.960 391.080 L241.440 391.080 L241.440 485.580 L240.960 485.580 L240.960 391.080 "/>
  <path style="fill:rgb(0,0,0);stroke:none;stroke-width:1.0;" d="M523.980 391.080 L524.460 391.080 L524.460 485.580 L523.980 485.580 L523.980 391.080 "/>
  <g begin="text">
   <text y="460.86" x="76.5,81.841,87.121,91.921,97.201,100.558,105.538,108.958,111.242,116.282" svgx:width="0.53,0.52,0.48,0.52,0.34,0.5,0.35,0.23,0.51,0.51" style="fill:rgb(0,0,0);font-family:Calibri;font-size:10.02px;stroke:none;">Chapter 15</text>
  </g>
  <g begin="text">
   <text y="460.86" x="121.32" svgx:width="0.23" style="fill:rgb(0,0,0);font-family:Calibri;font-size:10.02px;stroke:none;"> </text>
  </g>
  <g begin="text">
   <text y="460.86" x="133.2,138.3" svgx:width="0.51,0.51" style="fill:rgb(0,0,0);font-family:Calibri;font-size:10.02px;stroke:none;">21</text>
  </g>
  <g begin="text">
   <text y="460.86" x="143.34" svgx:width="0.23" style="fill:rgb(0,0,0);font-family:Calibri;font-size:10.02px;stroke:none;"> </text>
  </g>
  <g begin="text">
   <text y="460.86" x="189.9,195.0" svgx:width="0.51,0.51" style="fill:rgb(0,0,0);font-family:Calibri;font-size:10.02px;stroke:none;">16</text>
  </g>
  <g begin="text">
   <text y="460.86" x="200.04" svgx:width="0.23" style="fill:rgb(0,0,0);font-family:Calibri;font-size:10.02px;stroke:none;"> </text>
  </g>
  <g begin="text">
   <text y="460.86" x="246.6,251.7,256.8,259.02,262.38,265.86,268.14,270.42,272.7,274.98,280.26,285.541,287.821,294.241,298.86,304.98,310.081,315.121,320.221,325.321" svgx:width="0.51,0.51,0.23,0.34,0.35,0.23,0.23,0.23,0.23,0.53,0.52,0.23,0.64,0.46,0.62,0.51,0.51,0.51,0.51,0.23" style="fill:rgb(0,0,0);font-family:Calibri;font-size:10.02px;stroke:none;">70 trillion USD2015 </text>
  </g>
  <g begin="text">
   <text y="460.86" x="327.6" svgx:width="0.31" style="fill:rgb(0,0,0);font-family:Calibri;font-size:10.02px;stroke:none;">-</text>
  </g>
  <g begin="text">
   <text y="460.86" x="330.66,335.58,337.864,342.904,348.004,350.288,353.648,357.128,359.407,361.688,363.967,366.248,371.528,376.808,379.088,385.507,390.067,396.247,401.287,406.387,411.427,416.526,419.522,424.082,430.742,437.401,442.202,448.682,455.342,460.142,465.061,468.121" svgx:width="0.5,0.23,0.51,0.51,0.23,0.34,0.35,0.23,0.23,0.23,0.23,0.53,0.52,0.23,0.64,0.46,0.62,0.51,0.51,0.51,0.51,0.3,0.46,0.66,0.66,0.49,0.65,0.66,0.49,0.49,0.3,0.23" style="fill:rgb(0,0,0);font-family:Calibri;font-size:10.02px;stroke:none;">&gt; 70 trillion USD2015(FOOTNOTE) </text>
  </g>
  <g begin="text">
   <text y="473.04" x="246.6,251.219,257.819,264.479,269.339,275.759,282.419,287.279,292.199,294.899,297.359,302.64,304.86,308.22,313.501,318.48,320.7,324.958,330.239,334.979,340.26,343.621,348.601,352.081,354.601,356.82,363.181,367.8,373.982,376.203,381.483,386.764,389.043,392.403,396.304,398.583,403.384,406.863,411.784,414.063,419.344,423.184,428.163,433.444,435.724,440.523,444.424,446.703,450.183,455.103,460.384,465.663,469.143,472.504,477.484,482.703,484.988,487.267,492.548,494.828,498.188,503.408,508.388" svgx:width="0.46,0.66,0.66,0.49,0.65,0.66,0.49,0.49,0.27,0.25,0.52,0.23,0.34,0.52,0.5,0.23,0.42,0.52,0.48,0.52,0.34,0.5,0.35,0.25,0.23,0.64,0.46,0.62,0.23,0.52,0.52,0.23,0.34,0.39,0.23,0.48,0.35,0.5,0.23,0.52,0.39,0.5,0.52,0.23,0.48,0.39,0.23,0.35,0.5,0.52,0.53,0.35,0.34,0.5,0.52,0.23,0.23,0.52,0.23,0.34,0.52,0.5,0.23" style="fill:rgb(0,0,0);font-family:Calibri;font-size:10.02px;stroke:none;">FOOTNOTE:In the chapter, USD units are used as reported in the </text>
   <text y="485.224" x="246.6,251.881,255.357,257.638,262.378,264.653,269.933,274.733,277.008,279.292,283.19,288.47,293.75,297.17,301.43,306.35,310.248,312.527,314.808,320.097,322.381,327.122,332.042,337.321,342.301,345.782,350.582,352.866,355.381,357.661,362.281,367.501,375.481,380.461,382.741,390.722,396.001,401.282,406.262,409.621,414.422,417.842,422.402,424.621,429.902,435.181,439.982,445.202,448.562,450.842,454.202,456.482,461.462,465.363,467.642,472.923,477.722,482.162,487.142,489.422,494.702,499.682,504.662,509.882" svgx:width="0.53,0.35,0.23,0.47,0.23,0.52,0.48,0.23,0.23,0.39,0.53,0.52,0.35,0.42,0.5,0.39,0.23,0.23,0.52,0.23,0.47,0.5,0.52,0.5,0.35,0.48,0.23,0.25,0.23,0.46,0.53,0.8,0.5,0.23,0.8,0.53,0.52,0.5,0.34,0.48,0.35,0.45,0.23,0.52,0.52,0.48,0.52,0.34,0.23,0.34,0.23,0.5,0.39,0.23,0.52,0.48,0.45,0.5,0.23,0.52,0.5,0.5,0.52,0.23" style="fill:rgb(0,0,0);font-family:Calibri;font-size:10.02px;stroke:none;">original sources in general. Some monetary quantities have been </text>
   <text y="497.469" x="246.6,251.4,256.68,259.08,264.36,268.26,271.62,276.54,281.82,284.1,288.0,292.98,295.26,300.24,304.499,307.798,310.079,314.578,319.559,321.838,326.397,328.677,331.737,337.017,340.497,342.777,347.578,351.777,357.057,359.337,364.317,368.817,371.098,376.378,381.118,383.338,387.596,392.876,400.856,406.136,410.936,414.416,419.156,424.437,426.718,428.997,431.278,434.637,439.196,441.481,446.7,451.26,453.48,458.76,463.74,466.801,469.08,473.881,477.24,479.521,484.74,489.421,491.7,495.061,500.342,505.321" svgx:width="0.48,0.52,0.24,0.52,0.39,0.34,0.5,0.52,0.23,0.39,0.5,0.23,0.5,0.42,0.34,0.23,0.45,0.5,0.23,0.45,0.23,0.31,0.53,0.35,0.23,0.48,0.42,0.52,0.23,0.5,0.45,0.23,0.52,0.47,0.23,0.42,0.53,0.8,0.52,0.48,0.35,0.48,0.52,0.23,0.23,0.23,0.34,0.45,0.23,0.52,0.45,0.23,0.52,0.5,0.31,0.23,0.48,0.34,0.23,0.52,0.47,0.23,0.34,0.52,0.5,0.23" style="fill:rgb(0,0,0);font-family:Calibri;font-size:10.02px;stroke:none;">adjusted selectively for achieving comparability by deflating the </text>
   <text y="509.653" x="246.6,251.1,255.9,258.18,263.461,268.442,272.341,274.621,277.982,283.261,285.541,289.741,295.022,300.302,304.202,307.503,312.302,317.583,320.942,323.222,329.583,334.202,336.486,342.607,347.886,350.167,352.446,357.246,360.726,363.01,368.05,373.151,378.191,383.291,385.811,388.09,390.61,395.831,398.11,402.01,407.291,411.49,416.771,418.99,423.249,427.989,431.889,436.869,440.768,443.289,445.568,448.929,454.209,459.189,461.41,466.69,471.971,474.25,477.551,479.831,482.111,486.011" svgx:width="0.45,0.48,0.23,0.52,0.5,0.39,0.23,0.34,0.53,0.23,0.42,0.53,0.52,0.39,0.34,0.48,0.52,0.34,0.23,0.64,0.46,0.23,0.62,0.53,0.23,0.23,0.48,0.35,0.23,0.51,0.51,0.51,0.51,0.25,0.23,0.25,0.52,0.23,0.39,0.52,0.42,0.52,0.23,0.42,0.48,0.39,0.5,0.39,0.25,0.23,0.34,0.52,0.5,0.23,0.52,0.52,0.23,0.34,0.23,0.23,0.39,0.23" style="fill:rgb(0,0,0);font-family:Calibri;font-size:10.02px;stroke:none;">values to constant US Dollar 2015. In such cases, the unit is </text>
   <text y="521.898" x="246.6,251.58,255.899,261.179,263.454,265.734,269.994,272.274,275.634,277.908,282.469,284.753,289.733,294.052,299.332,302.809,307.729,311.627,315.524,320.504,325.785,328.064,332.865,336.763,339.042,345.462,350.022,356.203,361.243,366.283,371.383,376.482,378.964" svgx:width="0.5,0.43,0.52,0.23,0.23,0.42,0.23,0.34,0.23,0.45,0.23,0.5,0.43,0.52,0.35,0.5,0.39,0.39,0.5,0.52,0.23,0.48,0.39,0.23,0.64,0.46,0.62,0.51,0.51,0.51,0.51,0.25,0.23" style="fill:rgb(0,0,0);font-family:Calibri;font-size:10.02px;stroke:none;">explicitly expressed as USD2015. </text>
  </g>
  <path style="fill:rgb(0,0,0);stroke:none;stroke-width:1.0;" d="M71.340 296.040 L127.560 296.040 L127.560 390.540 L71.340 390.540 L71.340 296.040 M71.340 296.040 L127.560 296.040 L127.560 390.540 L71.340 390.540 L71.340 296.040 M128.040 296.040 L184.260 296.040 L184.260 390.540 L128.040 390.540 L128.040 296.040 M128.040 296.040 L184.260 296.040 L184.260 390.540 L128.040 390.540 L128.040 296.040 M184.740 296.040 L240.960 296.040 L240.960 390.540 L184.740 390.540 L184.740 296.040 M184.740 296.040 L240.960 296.040 L240.960 390.540 L184.740 390.540 L184.740 296.040 M70.860 390.600 L71.340 390.600 L71.340 391.080 L70.860 391.080 L70.860 390.600 "/>
  <path style="fill:rgb(0,0,0);stroke:none;stroke-width:1.0;" d="M71.340 390.600 L127.560 390.600 L127.560 391.080 L71.340 391.080 L71.340 390.600 "/>
  <path style="fill:rgb(0,0,0);stroke:none;stroke-width:1.0;" d="M127.560 390.600 L128.040 390.600 L128.040 391.080 L127.560 391.080 L127.560 390.600 "/>
  <path style="fill:rgb(0,0,0);stroke:none;stroke-width:1.0;" d="M128.040 390.600 L184.260 390.600 L184.260 391.080 L128.040 391.080 L128.040 390.600 "/>
  <path style="fill:rgb(0,0,0);stroke:none;stroke-width:1.0;" d="M184.260 390.600 L184.740 390.600 L184.740 391.080 L184.260 391.080 L184.260 390.600 "/>
  <path style="fill:rgb(0,0,0);stroke:none;stroke-width:1.0;" d="M184.740 390.600 L240.960 390.600 L240.960 391.080 L184.740 391.080 L184.740 390.600 "/>
  <path style="fill:rgb(0,0,0);stroke:none;stroke-width:1.0;" d="M240.960 390.600 L241.440 390.600 L241.440 391.080 L240.960 391.080 L240.960 390.600 "/>
  <path style="fill:rgb(0,0,0);stroke:none;stroke-width:1.0;" d="M523.980 390.600 L524.460 390.600 L524.460 391.080 L523.980 391.080 L523.980 390.600 "/>
  <path style="fill:rgb(0,0,0);stroke:none;stroke-width:1.0;" d="M70.860 296.040 L71.340 296.040 L71.340 390.600 L70.860 390.600 L70.860 296.040 "/>
  <path style="fill:rgb(0,0,0);stroke:none;stroke-width:1.0;" d="M127.560 296.040 L128.040 296.040 L128.040 390.600 L127.560 390.600 L127.560 296.040 "/>
  <path style="fill:rgb(0,0,0);stroke:none;stroke-width:1.0;" d="M184.260 296.040 L184.740 296.040 L184.740 390.600 L184.260 390.600 L184.260 296.040 "/>
  <path style="fill:rgb(0,0,0);stroke:none;stroke-width:1.0;" d="M240.960 296.040 L241.440 296.040 L241.440 390.600 L240.960 390.600 L240.960 296.040 "/>
  <path style="fill:rgb(0,0,0);stroke:none;stroke-width:1.0;" d="M523.980 296.040 L524.460 296.040 L524.460 390.600 L523.980 390.600 L523.980 296.040 "/>
  <g begin="text">
   <text y="555.84" x="76.5,81.841,87.121,91.921,97.201,100.558,105.538,108.958,111.242,116.282" svgx:width="0.53,0.52,0.48,0.52,0.34,0.5,0.35,0.23,0.51,0.51" style="fill:rgb(0,0,0);font-family:Calibri;font-size:10.02px;stroke:none;">Chapter 15</text>
  </g>
  <g begin="text">
   <text y="555.84" x="121.32" svgx:width="0.23" style="fill:rgb(0,0,0);font-family:Calibri;font-size:10.02px;stroke:none;"> </text>
  </g>
  <g begin="text">
   <text y="555.84" x="133.2,138.3" svgx:width="0.51,0.51" style="fill:rgb(0,0,0);font-family:Calibri;font-size:10.02px;stroke:none;">34</text>
  </g>
  <g begin="text">
   <text y="555.84" x="143.34" svgx:width="0.23" style="fill:rgb(0,0,0);font-family:Calibri;font-size:10.02px;stroke:none;"> </text>
  </g>
  <g begin="text">
   <text y="555.84" x="189.9" svgx:width="0.51" style="fill:rgb(0,0,0);font-family:Calibri;font-size:10.02px;stroke:none;">0</text>
  </g>
  <g begin="text">
   <text y="555.84" x="194.94" svgx:width="0.23" style="fill:rgb(0,0,0);font-family:Calibri;font-size:10.02px;stroke:none;"> </text>
  </g>
  <g begin="text">
   <text y="555.84" x="246.6,252.06,257.04,260.1,265.08,268.561,273.541,278.76,283.021,288.001,290.28,295.561,300.661,302.88,307.081,311.881,315.241,320.221,324.962,330.241,333.661,338.221,340.506,343.566,348.845,352.326,354.606,359.465,366.246,372.426,374.706,378.606,383.886" svgx:width="0.54,0.5,0.31,0.5,0.35,0.5,0.52,0.42,0.5,0.23,0.53,0.51,0.23,0.42,0.48,0.34,0.5,0.47,0.53,0.35,0.45,0.23,0.31,0.53,0.35,0.23,0.49,0.68,0.62,0.23,0.39,0.52,0.53" style="fill:rgb(0,0,0);font-family:Calibri;font-size:10.02px;stroke:none;">Reference C5 category for T&amp;D sho</text>
  </g>
  <g begin="text">
   <text y="555.84" x="389.16,396.304,401.524,403.808,409.088,414.008,418.268,423.008,428.288,432.186,437.166,439.45,441.725,445.085,447.369,449.644,453.541,455.826,461.105,465.003,469.923,475.203,477.487,480.487,485.767,489.244" svgx:width="0.71,0.52,0.23,0.52,0.5,0.42,0.48,0.52,0.39,0.5,0.23,0.23,0.34,0.23,0.23,0.39,0.23,0.52,0.39,0.5,0.52,0.23,0.31,0.53,0.35,0.23" style="fill:rgb(0,0,0);font-family:Calibri;font-size:10.02px;stroke:none;">wn because it is used for </text>
  </g>
  <g begin="text">
   <text y="568.02" x="246.6,250.859,255.659,257.939,262.197,267.478,269.758,274.498,277.858,280.138,285.418,290.699,292.979,298.259,301.259,303.539,305.819,311.1,315.358,318.838,323.818,331.798,336.778,342.059,345.358,350.159,352.438,354.718,359.998,364.918,369.898,375.179,379.078,381.358,384.418,389.699,393.179,395.398,400.017,402.298,407.037,412.318,415.798,420.718,422.937,428.037,430.557,432.842,435.116,438.172,443.152,445.377,448.437,453.838,458.697,467.277,473.878,479.519,484.439,487.499" svgx:width="0.42,0.48,0.23,0.42,0.52,0.23,0.48,0.34,0.23,0.53,0.52,0.23,0.53,0.31,0.23,0.23,0.52,0.42,0.35,0.5,0.8,0.5,0.52,0.34,0.48,0.23,0.23,0.52,0.5,0.5,0.52,0.39,0.23,0.31,0.53,0.35,0.23,0.46,0.23,0.47,0.52,0.35,0.5,0.23,0.51,0.25,0.23,0.23,0.31,0.5,0.23,0.3,0.54,0.49,0.86,0.66,0.57,0.49,0.3,0.23" style="fill:rgb(0,0,0);font-family:Calibri;font-size:10.02px;stroke:none;">calculation of incremental needs for Figure 4. -&gt; (REMOVE) </text>
   <text y="580.264" x="246.6,251.881,257.161,262.442,264.722,267.002,271.202,276.002,279.362,281.642,286.922,292.203,294.488,296.707,301.987,304.267,307.568,312.848,317.828,320.113,324.312,329.112,334.392,337.752,340.032,345.312,350.517" svgx:width="0.52,0.52,0.52,0.23,0.23,0.42,0.48,0.34,0.23,0.53,0.52,0.23,0.23,0.52,0.23,0.34,0.52,0.5,0.23,0.42,0.48,0.52,0.34,0.23,0.53,0.52,0.23" style="fill:rgb(0,0,0);font-family:Calibri;font-size:10.02px;stroke:none;">duplication in the caption </text>
  </g>
  <path style="fill:rgb(0,0,0);stroke:none;stroke-width:1.0;" d="M71.340 201.060 L127.560 201.060 L127.560 295.560 L71.340 295.560 L71.340 201.060 M71.340 201.060 L127.560 201.060 L127.560 295.560 L71.340 295.560 L71.340 201.060 M128.040 201.060 L184.260 201.060 L184.260 295.560 L128.040 295.560 L128.040 201.060 M128.040 201.060 L184.260 201.060 L184.260 295.560 L128.040 295.560 L128.040 201.060 M184.740 201.060 L240.960 201.060 L240.960 295.560 L184.740 295.560 L184.740 201.060 M184.740 201.060 L240.960 201.060 L240.960 295.560 L184.740 295.560 L184.740 201.060 M70.860 295.560 L71.340 295.560 L71.340 296.040 L70.860 296.040 L70.860 295.560 "/>
  <path style="fill:rgb(0,0,0);stroke:none;stroke-width:1.0;" d="M71.340 295.560 L127.560 295.560 L127.560 296.040 L71.340 296.040 L71.340 295.560 "/>
  <path style="fill:rgb(0,0,0);stroke:none;stroke-width:1.0;" d="M127.560 295.560 L128.040 295.560 L128.040 296.040 L127.560 296.040 L127.560 295.560 "/>
  <path style="fill:rgb(0,0,0);stroke:none;stroke-width:1.0;" d="M128.040 295.560 L184.260 295.560 L184.260 296.040 L128.040 296.040 L128.040 295.560 "/>
  <path style="fill:rgb(0,0,0);stroke:none;stroke-width:1.0;" d="M184.260 295.560 L184.740 295.560 L184.740 296.040 L184.260 296.040 L184.260 295.560 "/>
  <path style="fill:rgb(0,0,0);stroke:none;stroke-width:1.0;" d="M184.740 295.560 L240.960 295.560 L240.960 296.040 L184.740 296.040 L184.740 295.560 "/>
  <path style="fill:rgb(0,0,0);stroke:none;stroke-width:1.0;" d="M240.960 295.560 L241.440 295.560 L241.440 296.040 L240.960 296.040 L240.960 295.560 "/>
  <path style="fill:rgb(0,0,0);stroke:none;stroke-width:1.0;" d="M523.980 295.560 L524.460 295.560 L524.460 296.040 L523.980 296.040 L523.980 295.560 "/>
  <path style="fill:rgb(0,0,0);stroke:none;stroke-width:1.0;" d="M70.860 201.060 L71.340 201.060 L71.340 295.560 L70.860 295.560 L70.860 201.060 "/>
  <path style="fill:rgb(0,0,0);stroke:none;stroke-width:1.0;" d="M127.560 201.060 L128.040 201.060 L128.040 295.560 L127.560 295.560 L127.560 201.060 "/>
  <path style="fill:rgb(0,0,0);stroke:none;stroke-width:1.0;" d="M184.260 201.060 L184.740 201.060 L184.740 295.560 L184.260 295.560 L184.260 201.060 "/>
  <path style="fill:rgb(0,0,0);stroke:none;stroke-width:1.0;" d="M240.960 201.060 L241.440 201.060 L241.440 295.560 L240.960 295.560 L240.960 201.060 "/>
  <path style="fill:rgb(0,0,0);stroke:none;stroke-width:1.0;" d="M523.980 201.060 L524.460 201.060 L524.460 295.560 L523.980 295.560 L523.980 201.060 "/>
  <g begin="text">
   <text y="650.82" x="76.5,81.841,87.121,91.921,97.201,100.558,105.538,108.958,111.242,116.282" svgx:width="0.53,0.52,0.48,0.52,0.34,0.5,0.35,0.23,0.51,0.51" style="fill:rgb(0,0,0);font-family:Calibri;font-size:10.02px;stroke:none;">Chapter 15</text>
  </g>
  <g begin="text">
   <text y="650.82" x="121.32" svgx:width="0.23" style="fill:rgb(0,0,0);font-family:Calibri;font-size:10.02px;stroke:none;"> </text>
  </g>
  <g begin="text">
   <text y="650.82" x="133.2,138.3" svgx:width="0.51,0.51" style="fill:rgb(0,0,0);font-family:Calibri;font-size:10.02px;stroke:none;">40</text>
  </g>
  <g begin="text">
   <text y="650.82" x="143.34" svgx:width="0.23" style="fill:rgb(0,0,0);font-family:Calibri;font-size:10.02px;stroke:none;"> </text>
  </g>
  <g begin="text">
   <text y="650.82" x="189.9,195.0" svgx:width="0.51,0.51" style="fill:rgb(0,0,0);font-family:Calibri;font-size:10.02px;stroke:none;">27</text>
  </g>
  <g begin="text">
   <text y="650.82" x="200.04" svgx:width="0.23" style="fill:rgb(0,0,0);font-family:Calibri;font-size:10.02px;stroke:none;"> </text>
  </g>
  <g begin="text">
   <text y="650.82" x="246.6,251.4,256.68,261.96,265.437,270.717,275.036,277.316,285.296,290.096,293.456,298.435,300.716,305.216,307.435,312.536,315.056,320.096,325.196,327.475,330.836,334.313,336.588,338.868,341.143,343.417,348.698,353.977,356.262,362.682,367.242,373.422,375.702,380.262" svgx:width="0.48,0.52,0.52,0.35,0.53,0.43,0.23,0.8,0.48,0.34,0.5,0.23,0.45,0.23,0.51,0.25,0.51,0.51,0.23,0.34,0.35,0.23,0.23,0.23,0.23,0.53,0.52,0.23,0.64,0.46,0.62,0.23,0.45,0.35" style="fill:rgb(0,0,0);font-family:Calibri;font-size:10.02px;stroke:none;">approximately 1.61 trillion USD yr</text>
  </g>
  <g begin="text">
   <text y="650.82" x="383.76" svgx:width="0.31" style="fill:rgb(0,0,0);font-family:Calibri;font-size:10.02px;stroke:none;">-</text>
  </g>
  <g begin="text">
   <text y="650.82" x="386.76,391.86,394.14" svgx:width="0.51,0.23,0.23" style="fill:rgb(0,0,0);font-family:Calibri;font-size:10.02px;stroke:none;">1 </text>
  </g>
  <g begin="text">
   <text y="650.82" x="396.42" svgx:width="0.31" style="fill:rgb(0,0,0);font-family:Calibri;font-size:10.02px;stroke:none;">-</text>
  </g>
  <g begin="text">
   <text y="650.82" x="399.48,404.4,406.684,411.484,416.704,421.984,425.404,430.684,435.003,437.277,445.257,450.058,453.418,458.398,460.678,465.238,467.518,472.618,475.078,480.178,485.218,487.498,490.857,494.334,496.615,498.889,501.17,503.444,508.725,514.004" svgx:width="0.5,0.23,0.48,0.52,0.52,0.35,0.53,0.43,0.23,0.8,0.48,0.34,0.5,0.23,0.45,0.23,0.51,0.25,0.51,0.51,0.23,0.34,0.35,0.23,0.23,0.23,0.23,0.53,0.52,0.23" style="fill:rgb(0,0,0);font-family:Calibri;font-size:10.02px;stroke:none;">&gt; approximately 1.61 trillion </text>
  </g>
  <g begin="text">
   <text y="663.06" x="246.6,253.02,257.639,263.821,266.821,271.381,278.041,284.701,289.561,295.982,302.641,307.441,312.361,315.417,317.637,322.196,325.678,328.734,333.774,336.054,338.338,342.897,349.497,356.157,361.017,367.437,374.097,378.957,383.877,386.517,388.797,391.317,396.537,398.817,402.177,407.457,412.377,414.656,418.855,424.075,428.876,434.155,437.515,442.496,445.976,448.495,450.716,457.135,461.756,467.878,470.157,475.378,480.657,482.938,486.298,490.197,492.482,497.281,500.761,505.741" svgx:width="0.64,0.46,0.62,0.3,0.46,0.66,0.66,0.49,0.65,0.66,0.49,0.49,0.3,0.23,0.45,0.35,0.31,0.51,0.23,0.23,0.46,0.66,0.66,0.49,0.65,0.66,0.49,0.49,0.27,0.23,0.25,0.52,0.23,0.34,0.52,0.5,0.23,0.42,0.52,0.48,0.52,0.34,0.5,0.35,0.25,0.23,0.64,0.46,0.62,0.23,0.52,0.52,0.23,0.34,0.39,0.23,0.48,0.35,0.5,0.23" style="fill:rgb(0,0,0);font-family:Calibri;font-size:10.02px;stroke:none;">USD(FOOTNOTE) yr-1 FOOTNOTE: In the chapter, USD units are </text>
   <text y="675.244" x="246.59,251.871,255.77,260.75,266.031,268.31,273.111,277.011,279.29,282.77,287.691,292.971,298.251,301.731,305.031,310.011,315.291,317.571,319.855,325.135,327.355,330.715,335.995,340.975,343.26,348.539,352.019,354.24,358.979,361.264,366.543,371.344,373.629,375.908,379.808,385.088,390.368,393.848,398.048,403.028,406.928,409.213,411.492,416.773,418.992,423.733,428.712,433.993,438.973,442.453,447.253,449.533,452.048,454.268,458.889,464.168,472.148,477.128" svgx:width="0.52,0.39,0.5,0.52,0.23,0.48,0.39,0.23,0.35,0.5,0.52,0.53,0.35,0.34,0.5,0.52,0.23,0.23,0.52,0.23,0.34,0.52,0.5,0.23,0.53,0.35,0.23,0.47,0.23,0.52,0.48,0.23,0.23,0.39,0.53,0.52,0.35,0.42,0.5,0.39,0.23,0.23,0.52,0.23,0.47,0.5,0.52,0.5,0.35,0.48,0.23,0.25,0.23,0.46,0.53,0.8,0.5,0.23" style="fill:rgb(0,0,0);font-family:Calibri;font-size:10.02px;stroke:none;">used as reported in the original sources in general. Some </text>
   <text y="687.489" x="246.59,254.57,259.85,265.13,270.11,273.467,278.266,281.746,286.246,288.526,293.806,299.026,303.766,309.046,312.402,314.682,318.039,320.319,325.299,329.199,331.483,336.763,341.563,346.063,351.043,353.263,358.543,363.463,368.443,373.723,376.007,380.807,386.027,388.422,393.702,397.602,400.959,405.879,411.159,413.443,417.343,422.323,424.603,429.583,433.843,437.199,439.479,443.979,448.959,451.24,455.8,458.079,461.135,466.416,469.896,472.116,476.916,481.116,486.396,488.676,493.656,498.156,500.436,505.716,510.456" svgx:width="0.8,0.53,0.52,0.5,0.34,0.48,0.35,0.45,0.23,0.52,0.52,0.48,0.52,0.34,0.23,0.34,0.23,0.5,0.39,0.23,0.52,0.48,0.45,0.5,0.23,0.52,0.5,0.5,0.52,0.23,0.48,0.52,0.24,0.52,0.39,0.34,0.5,0.52,0.23,0.39,0.5,0.23,0.5,0.42,0.34,0.23,0.45,0.5,0.23,0.45,0.23,0.31,0.53,0.35,0.23,0.48,0.42,0.52,0.23,0.5,0.45,0.23,0.52,0.47,0.23" style="fill:rgb(0,0,0);font-family:Calibri;font-size:10.02px;stroke:none;">monetary quantities have been adjusted selectively for achieving </text>
   <text y="699.673" x="246.59,250.849,256.13,264.11,269.385,274.185,277.666,282.406,287.685,289.966,292.245,294.526,297.882,302.443,304.663,309.942,314.503,316.722,322.003,326.983,330.039,332.318,337.118,340.474,342.754,347.974,352.715,354.994,358.295,363.514,368.494,370.779,375.279,380.078,382.358,387.639,392.619,396.518,398.803,402.16,407.44,409.66,413.92,419.201,424.421,428.321,431.677,436.477,441.757,445.113,447.398,453.758,458.378,460.657,466.838,472.118,474.399,476.678,481.478,484.898,487.177,492.277,497.317,502.418,507.518,509.978" svgx:width="0.42,0.53,0.8,0.52,0.48,0.35,0.48,0.52,0.23,0.23,0.23,0.34,0.45,0.23,0.52,0.45,0.23,0.52,0.5,0.31,0.23,0.48,0.34,0.23,0.52,0.47,0.23,0.34,0.52,0.5,0.23,0.45,0.48,0.23,0.52,0.5,0.39,0.23,0.34,0.53,0.23,0.42,0.53,0.52,0.39,0.34,0.48,0.52,0.34,0.23,0.64,0.46,0.23,0.62,0.53,0.23,0.23,0.48,0.35,0.23,0.51,0.51,0.51,0.51,0.25,0.23" style="fill:rgb(0,0,0);font-family:Calibri;font-size:10.02px;stroke:none;">comparability by deflating the values to constant US Dollar 2015. </text>
   <text y="711.857" x="246.59,249.11,254.39,256.674,260.572,265.792,270.052,275.331,277.552,281.812,286.612,290.51,295.49,299.387,301.907,304.128,307.427,312.708,317.688,319.967,325.188,330.467,332.748,336.108,338.392,340.667,344.564,346.849,351.829,356.147,361.428,363.703,365.923,370.182,372.463,375.823,378.097,382.657,384.937,389.918,394.236,399.516,402.993,407.973,411.871,415.768,420.688,425.909,428.188,432.989,436.886,439.166,445.586,450.146,456.326,461.366,466.466,471.507,476.606,479.094" svgx:width="0.25,0.52,0.23,0.39,0.52,0.42,0.52,0.23,0.42,0.48,0.39,0.5,0.39,0.25,0.23,0.34,0.52,0.5,0.23,0.52,0.52,0.23,0.34,0.23,0.23,0.39,0.23,0.5,0.43,0.52,0.23,0.23,0.42,0.23,0.34,0.23,0.45,0.23,0.5,0.43,0.52,0.35,0.5,0.39,0.39,0.5,0.52,0.23,0.48,0.39,0.23,0.64,0.46,0.62,0.51,0.51,0.51,0.51,0.25,0.23" style="fill:rgb(0,0,0);font-family:Calibri;font-size:10.02px;stroke:none;">In such cases, the unit is explicitly expressed as USD2015. </text>
  </g>
  <path style="fill:rgb(0,0,0);stroke:none;stroke-width:1.0;" d="M71.340 106.080 L127.560 106.080 L127.560 200.580 L71.340 200.580 L71.340 106.080 M71.340 106.080 L127.560 106.080 L127.560 200.580 L71.340 200.580 L71.340 106.080 M128.040 106.080 L184.260 106.080 L184.260 200.580 L128.040 200.580 L128.040 106.080 M128.040 106.080 L184.260 106.080 L184.260 200.580 L128.040 200.580 L128.040 106.080 M184.740 106.080 L240.960 106.080 L240.960 200.580 L184.740 200.580 L184.740 106.080 M184.740 106.080 L240.960 106.080 L240.960 200.580 L184.740 200.580 L184.740 106.080 M70.860 200.580 L71.340 200.580 L71.340 201.060 L70.860 201.060 L70.860 200.580 "/>
  <path style="fill:rgb(0,0,0);stroke:none;stroke-width:1.0;" d="M71.340 200.580 L127.560 200.580 L127.560 201.060 L71.340 201.060 L71.340 200.580 "/>
  <path style="fill:rgb(0,0,0);stroke:none;stroke-width:1.0;" d="M127.560 200.580 L128.040 200.580 L128.040 201.060 L127.560 201.060 L127.560 200.580 "/>
  <path style="fill:rgb(0,0,0);stroke:none;stroke-width:1.0;" d="M128.040 200.580 L184.260 200.580 L184.260 201.060 L128.040 201.060 L128.040 200.580 "/>
  <path style="fill:rgb(0,0,0);stroke:none;stroke-width:1.0;" d="M184.260 200.580 L184.740 200.580 L184.740 201.060 L184.260 201.060 L184.260 200.580 "/>
  <path style="fill:rgb(0,0,0);stroke:none;stroke-width:1.0;" d="M184.740 200.580 L240.960 200.580 L240.960 201.060 L184.740 201.060 L184.740 200.580 "/>
  <path style="fill:rgb(0,0,0);stroke:none;stroke-width:1.0;" d="M240.960 200.580 L241.440 200.580 L241.440 201.060 L240.960 201.060 L240.960 200.580 "/>
  <path style="fill:rgb(0,0,0);stroke:none;stroke-width:1.0;" d="M523.980 200.580 L524.460 200.580 L524.460 201.060 L523.980 201.060 L523.980 200.580 "/>
  <path style="fill:rgb(0,0,0);stroke:none;stroke-width:1.0;" d="M70.860 106.020 L71.340 106.020 L71.340 200.580 L70.860 200.580 L70.860 106.020 "/>
  <path style="fill:rgb(0,0,0);stroke:none;stroke-width:1.0;" d="M70.860 105.540 L71.340 105.540 L71.340 106.020 L70.860 106.020 L70.860 105.540 "/>
  <path style="fill:rgb(0,0,0);stroke:none;stroke-width:1.0;" d="M70.860 105.540 L71.340 105.540 L71.340 106.020 L70.860 106.020 L70.860 105.540 "/>
  <path style="fill:rgb(0,0,0);stroke:none;stroke-width:1.0;" d="M71.340 105.540 L127.560 105.540 L127.560 106.020 L71.340 106.020 L71.340 105.540 "/>
  <path style="fill:rgb(0,0,0);stroke:none;stroke-width:1.0;" d="M127.560 106.020 L128.040 106.020 L128.040 200.580 L127.560 200.580 L127.560 106.020 "/>
  <path style="fill:rgb(0,0,0);stroke:none;stroke-width:1.0;" d="M127.560 105.540 L128.040 105.540 L128.040 106.020 L127.560 106.020 L127.560 105.540 "/>
  <path style="fill:rgb(0,0,0);stroke:none;stroke-width:1.0;" d="M128.040 105.540 L184.260 105.540 L184.260 106.020 L128.040 106.020 L128.040 105.540 "/>
  <path style="fill:rgb(0,0,0);stroke:none;stroke-width:1.0;" d="M184.260 106.020 L184.740 106.020 L184.740 200.580 L184.260 200.580 L184.260 106.020 "/>
  <path style="fill:rgb(0,0,0);stroke:none;stroke-width:1.0;" d="M184.260 105.540 L184.740 105.540 L184.740 106.020 L184.260 106.020 L184.260 105.540 "/>
  <path style="fill:rgb(0,0,0);stroke:none;stroke-width:1.0;" d="M184.740 105.540 L240.960 105.540 L240.960 106.020 L184.740 106.020 L184.740 105.540 "/>
  <path style="fill:rgb(0,0,0);stroke:none;stroke-width:1.0;" d="M240.960 106.020 L241.440 106.020 L241.440 200.580 L240.960 200.580 L240.960 106.020 "/>
  <path style="fill:rgb(0,0,0);stroke:none;stroke-width:1.0;" d="M240.960 105.540 L241.440 105.540 L241.440 106.020 L240.960 106.020 L240.960 105.540 "/>
  <path style="fill:rgb(0,0,0);stroke:none;stroke-width:1.0;" d="M523.980 106.020 L524.460 106.020 L524.460 200.580 L523.980 200.580 L523.980 106.020 "/>
  <path style="fill:rgb(0,0,0);stroke:none;stroke-width:1.0;" d="M523.980 105.540 L524.460 105.540 L524.460 106.020 L523.980 106.020 L523.980 105.540 "/>
  <path style="fill:rgb(0,0,0);stroke:none;stroke-width:1.0;" d="M523.980 105.540 L524.460 105.540 L524.460 106.020 L523.980 106.020 L523.980 105.540 "/>
 </g>
</svg>
