<?xml version="1.0" encoding="UTF-8"?>
<svg height="781.06" width="534.46" xmlns="http://www.w3.org/2000/svg">
 <g id="page" xmlns:svgx="http://www.xml-cml.org/schema/svgx">
  <g begin="text">
   <text y="80.82" x="76.5,81.841,87.121,91.921,97.201,100.558,105.538,108.958,111.242,116.282" svgx:width="0.53,0.52,0.48,0.52,0.34,0.5,0.35,0.23,0.51,0.51" style="fill:rgb(0,0,0);font-family:Calibri;font-size:10.02px;stroke:none;">Chapter 15</text>
  </g>
  <g begin="text">
   <text y="80.82" x="121.32" svgx:width="0.23" style="fill:rgb(0,0,0);font-family:Calibri;font-size:10.02px;stroke:none;"> </text>
  </g>
  <g begin="text">
   <text y="80.82" x="133.2,138.3" svgx:width="0.51,0.51" style="fill:rgb(0,0,0);font-family:Calibri;font-size:10.02px;stroke:none;">48</text>
  </g>
  <g begin="text">
   <text y="80.82" x="143.34" svgx:width="0.23" style="fill:rgb(0,0,0);font-family:Calibri;font-size:10.02px;stroke:none;"> </text>
  </g>
  <g begin="text">
   <text y="80.82" x="189.9,195.0" svgx:width="0.51,0.51" style="fill:rgb(0,0,0);font-family:Calibri;font-size:10.02px;stroke:none;">39</text>
  </g>
  <g begin="text">
   <text y="80.82" x="200.04" svgx:width="0.23" style="fill:rgb(0,0,0);font-family:Calibri;font-size:10.02px;stroke:none;"> </text>
  </g>
  <g begin="text">
   <text y="80.82" x="246.6,251.7,256.8,259.26,264.36,266.64,270.0,273.48,275.76,278.04,280.32,282.6,287.88,293.161,295.445,301.865,306.425,312.608,315.128" svgx:width="0.51,0.51,0.25,0.51,0.23,0.34,0.35,0.23,0.23,0.23,0.23,0.53,0.52,0.23,0.64,0.46,0.62,0.25,0.23" style="fill:rgb(0,0,0);font-family:Calibri;font-size:10.02px;stroke:none;">24.2 trillion USD, </text>
  </g>
  <g begin="text">
   <text y="80.82" x="317.4" svgx:width="0.31" style="fill:rgb(0,0,0);font-family:Calibri;font-size:10.02px;stroke:none;">-</text>
  </g>
  <g begin="text">
   <text y="80.82" x="320.46,325.44,327.664,332.704,337.805,340.325,345.425,347.649,351.009,354.489,356.769,359.049,361.33,363.669,368.949,374.229,376.509,382.929,387.489,393.671,396.671,401.29,407.89,414.55,419.35,425.83,432.491,437.35,442.21,445.266,447.726" svgx:width="0.5,0.23,0.51,0.51,0.25,0.51,0.23,0.34,0.35,0.23,0.23,0.23,0.23,0.53,0.52,0.23,0.64,0.46,0.62,0.3,0.46,0.66,0.66,0.49,0.65,0.66,0.49,0.49,0.3,0.25,0.23" style="fill:rgb(0,0,0);font-family:Calibri;font-size:10.02px;stroke:none;">&gt; 24.2 trillion USD(FOOTNOTE), </text>
  </g>
  <g begin="text">
   <text y="80.82" x="450.0,454.56,461.223,467.887,472.686,479.107,485.77,490.63,495.55,498.189,500.474,502.994,508.213" svgx:width="0.46,0.66,0.66,0.49,0.65,0.66,0.49,0.49,0.27,0.23,0.25,0.52,0.23" style="fill:rgb(0,0,0);font-family:Calibri;font-size:10.02px;stroke:none;">FOOTNOTE: In </text>
  </g>
  <g begin="text">
   <text y="93.06" x="246.6,249.96,255.24,260.22,262.44,266.698,271.979,276.719,282.0,285.359,290.339,293.819,296.339,298.559,304.919,309.539,315.721,317.941,323.222,328.503,330.782,334.143,338.043,340.322,345.123,348.603,353.522,355.802,361.083,364.922,369.902,375.183,377.462,382.263,386.163,388.442,391.922,396.842,402.122,407.402,410.882,414.243,419.223,424.443,426.723,429.002,434.283,436.562,439.923,445.142,450.122,452.407,457.681,461.158,463.433,468.173,470.454,475.673,480.473,482.753,484.973,488.871,494.15,499.43,502.907,507.166,512.146,516.044" svgx:width="0.34,0.52,0.5,0.23,0.42,0.52,0.48,0.52,0.34,0.5,0.35,0.25,0.23,0.64,0.46,0.62,0.23,0.52,0.52,0.23,0.34,0.39,0.23,0.48,0.35,0.5,0.23,0.52,0.39,0.5,0.52,0.23,0.48,0.39,0.23,0.35,0.5,0.52,0.53,0.35,0.34,0.5,0.52,0.23,0.23,0.52,0.23,0.34,0.52,0.5,0.23,0.53,0.35,0.23,0.47,0.23,0.52,0.48,0.23,0.23,0.39,0.53,0.52,0.35,0.42,0.5,0.39,0.23" style="fill:rgb(0,0,0);font-family:Calibri;font-size:10.02px;stroke:none;">the chapter, USD units are used as reported in the original sources </text>
   <text y="105.244" x="246.6,248.88,254.16,256.44,261.179,266.099,271.379,276.359,279.839,284.639,286.919,289.44,291.719,296.338,301.559,309.539,314.519,316.798,324.778,330.059,335.339,340.319,343.679,348.479,351.899,356.458,358.679,363.959,369.24,374.039,379.259,382.62,384.899,388.26,390.539,395.519,399.419,401.704,406.984,411.785,416.225,421.205,423.484,428.765,433.745,438.725,443.945,446.224,451.024,456.305,458.644,463.925,467.825,471.184,476.105,481.386" svgx:width="0.23,0.52,0.23,0.47,0.5,0.52,0.5,0.35,0.48,0.23,0.25,0.23,0.46,0.53,0.8,0.5,0.23,0.8,0.53,0.52,0.5,0.34,0.48,0.35,0.45,0.23,0.52,0.52,0.48,0.52,0.34,0.23,0.34,0.23,0.5,0.39,0.23,0.52,0.48,0.45,0.5,0.23,0.52,0.5,0.5,0.52,0.23,0.48,0.52,0.24,0.52,0.39,0.34,0.5,0.52,0.23" style="fill:rgb(0,0,0);font-family:Calibri;font-size:10.02px;stroke:none;">in general. Some monetary quantities have been adjusted </text>
   <text y="117.489" x="246.6,250.5,255.48,257.76,262.74,267.0,270.356,272.636,277.136,282.116,284.396,288.956,291.24,294.296,299.577,303.057,305.277,310.077,314.337,319.617,321.897,326.877,331.377,333.657,338.937,343.617,345.901,350.161,355.441,363.361,368.641,373.44,376.92,381.72,387.0,389.28,391.56,393.84,397.197,401.757,403.977,409.257,413.757,416.041,421.262,426.242,429.298,431.578,436.378,439.735,442.014,447.295,452.034,454.255,457.611,462.891,467.871,470.155,474.655,479.455,481.675,486.955,491.935,495.836,498.115,501.472,506.752" svgx:width="0.39,0.5,0.23,0.5,0.42,0.34,0.23,0.45,0.5,0.23,0.45,0.23,0.31,0.53,0.35,0.23,0.48,0.42,0.52,0.23,0.5,0.45,0.23,0.52,0.47,0.23,0.42,0.53,0.8,0.52,0.48,0.35,0.48,0.52,0.23,0.23,0.23,0.34,0.45,0.23,0.52,0.45,0.23,0.52,0.5,0.31,0.23,0.48,0.34,0.23,0.52,0.47,0.23,0.34,0.52,0.5,0.23,0.45,0.48,0.23,0.52,0.5,0.39,0.23,0.34,0.53,0.23" style="fill:rgb(0,0,0);font-family:Calibri;font-size:10.02px;stroke:none;">selectively for achieving comparability by deflating the values to </text>
   <text y="129.673" x="246.6,250.859,256.139,261.42,265.32,268.68,273.421,278.701,282.061,284.345,290.705,295.324,297.604,303.724,309.005,311.284,313.565,318.364,321.844,324.129,329.229,334.269,339.369,344.469,346.989,349.269,351.73,357.01,359.29,363.131,368.411,372.67,377.889,380.174,384.432,389.233,393.132,398.112,401.952,404.472,406.757,410.116,415.337,420.317,422.536,427.817,433.097,435.378,438.737,441.017,443.298,447.197,449.482,454.462,458.781,464.062,466.342,468.621,472.88,475.159,478.52,480.739,485.298" svgx:width="0.42,0.53,0.52,0.39,0.34,0.48,0.52,0.34,0.23,0.64,0.46,0.23,0.62,0.53,0.23,0.23,0.48,0.35,0.23,0.51,0.51,0.51,0.51,0.25,0.23,0.25,0.52,0.23,0.39,0.52,0.42,0.52,0.23,0.42,0.48,0.39,0.5,0.39,0.25,0.23,0.34,0.52,0.5,0.23,0.52,0.52,0.23,0.34,0.23,0.23,0.39,0.23,0.5,0.43,0.52,0.23,0.23,0.42,0.23,0.34,0.23,0.45,0.23" style="fill:rgb(0,0,0);font-family:Calibri;font-size:10.02px;stroke:none;">constant US Dollar 2015. In such cases, the unit is explicitly </text>
   <text y="141.857" x="246.6,251.58,255.9,261.18,264.66,269.64,273.54,277.441,282.421,287.701,289.986,294.785,298.685,300.97,307.329,311.948,318.131,323.17,328.27,333.31,338.41,340.858" svgx:width="0.5,0.43,0.52,0.35,0.5,0.39,0.39,0.5,0.52,0.23,0.48,0.39,0.23,0.64,0.46,0.62,0.51,0.51,0.51,0.51,0.25,0.23" style="fill:rgb(0,0,0);font-family:Calibri;font-size:10.02px;stroke:none;">expressed as USD2015. </text>
  </g>
  <path style="fill:rgb(0,0,0);stroke:none;stroke-width:1.0;" d="M71.340 676.080 L127.560 676.080 L127.560 770.580 L71.340 770.580 L71.340 676.080 M71.340 676.080 L127.560 676.080 L127.560 770.580 L71.340 770.580 L71.340 676.080 M128.040 676.080 L184.260 676.080 L184.260 770.580 L128.040 770.580 L128.040 676.080 M128.040 676.080 L184.260 676.080 L184.260 770.580 L128.040 770.580 L128.040 676.080 M184.740 676.080 L240.960 676.080 L240.960 770.580 L184.740 770.580 L184.740 676.080 M184.740 676.080 L240.960 676.080 L240.960 770.580 L184.740 770.580 L184.740 676.080 M70.860 770.580 L71.340 770.580 L71.340 771.060 L70.860 771.060 L70.860 770.580 "/>
  <path style="fill:rgb(0,0,0);stroke:none;stroke-width:1.0;" d="M70.860 770.580 L71.340 770.580 L71.340 771.060 L70.860 771.060 L70.860 770.580 "/>
  <path style="fill:rgb(0,0,0);stroke:none;stroke-width:1.0;" d="M71.340 770.580 L127.560 770.580 L127.560 771.060 L71.340 771.060 L71.340 770.580 "/>
  <path style="fill:rgb(0,0,0);stroke:none;stroke-width:1.0;" d="M127.560 770.580 L128.040 770.580 L128.040 771.060 L127.560 771.060 L127.560 770.580 "/>
  <path style="fill:rgb(0,0,0);stroke:none;stroke-width:1.0;" d="M128.040 770.580 L184.260 770.580 L184.260 771.060 L128.040 771.060 L128.040 770.580 "/>
  <path style="fill:rgb(0,0,0);stroke:none;stroke-width:1.0;" d="M184.260 770.580 L184.740 770.580 L184.740 771.060 L184.260 771.060 L184.260 770.580 "/>
  <path style="fill:rgb(0,0,0);stroke:none;stroke-width:1.0;" d="M184.740 770.580 L240.960 770.580 L240.960 771.060 L184.740 771.060 L184.740 770.580 "/>
  <path style="fill:rgb(0,0,0);stroke:none;stroke-width:1.0;" d="M240.960 770.580 L241.440 770.580 L241.440 771.060 L240.960 771.060 L240.960 770.580 "/>
  <path style="fill:rgb(0,0,0);stroke:none;stroke-width:1.0;" d="M523.980 770.580 L524.460 770.580 L524.460 771.060 L523.980 771.060 L523.980 770.580 "/>
  <path style="fill:rgb(0,0,0);stroke:none;stroke-width:1.0;" d="M523.980 770.580 L524.460 770.580 L524.460 771.060 L523.980 771.060 L523.980 770.580 "/>
  <path style="fill:rgb(0,0,0);stroke:none;stroke-width:1.0;" d="M70.860 676.080 L71.340 676.080 L71.340 770.580 L70.860 770.580 L70.860 676.080 "/>
  <path style="fill:rgb(0,0,0);stroke:none;stroke-width:1.0;" d="M127.560 676.080 L128.040 676.080 L128.040 770.580 L127.560 770.580 L127.560 676.080 "/>
  <path style="fill:rgb(0,0,0);stroke:none;stroke-width:1.0;" d="M184.260 676.080 L184.740 676.080 L184.740 770.580 L184.260 770.580 L184.260 676.080 "/>
  <path style="fill:rgb(0,0,0);stroke:none;stroke-width:1.0;" d="M240.960 676.080 L241.440 676.080 L241.440 770.580 L240.960 770.580 L240.960 676.080 "/>
  <path style="fill:rgb(0,0,0);stroke:none;stroke-width:1.0;" d="M523.980 676.080 L524.460 676.080 L524.460 770.580 L523.980 770.580 L523.980 676.080 "/>
  <g begin="text">
   <text y="175.86" x="76.5,81.841,87.121,91.921,97.201,100.558,105.538,108.958,111.242,116.282" svgx:width="0.53,0.52,0.48,0.52,0.34,0.5,0.35,0.23,0.51,0.51" style="fill:rgb(0,0,0);font-family:Calibri;font-size:10.02px;stroke:none;">Chapter 15</text>
  </g>
  <g begin="text">
   <text y="175.86" x="121.32" svgx:width="0.23" style="fill:rgb(0,0,0);font-family:Calibri;font-size:10.02px;stroke:none;"> </text>
  </g>
  <g begin="text">
   <text y="175.86" x="133.2" svgx:width="0.51" style="fill:rgb(0,0,0);font-family:Calibri;font-size:10.02px;stroke:none;">4</text>
  </g>
  <g begin="text">
   <text y="175.86" x="138.24" svgx:width="0.23" style="fill:rgb(0,0,0);font-family:Calibri;font-size:10.02px;stroke:none;"> </text>
  </g>
  <g begin="text">
   <text y="175.86" x="189.9" svgx:width="0.51" style="fill:rgb(0,0,0);font-family:Calibri;font-size:10.02px;stroke:none;">5</text>
  </g>
  <g begin="text">
   <text y="175.86" x="194.94" svgx:width="0.23" style="fill:rgb(0,0,0);font-family:Calibri;font-size:10.02px;stroke:none;"> </text>
  </g>
  <g begin="text">
   <text y="175.86" x="246.6,251.46,256.74,261.72,264.0,268.74,273.481,278.76,282.661,284.941,288.42,293.4,298.681,302.161,307.081,310.981" svgx:width="0.49,0.52,0.5,0.23,0.47,0.48,0.52,0.39,0.23,0.35,0.5,0.52,0.35,0.5,0.39,0.5" style="fill:rgb(0,0,0);font-family:Calibri;font-size:10.02px;stroke:none;">The gaps represe</text>
  </g>
  <g begin="text">
   <text y="175.86" x="315.96,321.241,324.6,326.88,331.68,333.96,341.94,346.74,349.08,354.36,357.84,360.124,364.324,369.605,374.406,376.685,378.966,383.946,389.226,393.966,398.885,401.165,404.225,409.506,412.986,415.265,420.486,425.405,429.905,434.885,437.165,442.445,447.726,450.007,455.287,460.027,462.246,466.504,471.784,477.004,482.285,485.586,489.065,491.345,496.326,500.226,502.746" svgx:width="0.52,0.34,0.23,0.48,0.23,0.8,0.48,0.24,0.53,0.35,0.23,0.42,0.52,0.48,0.23,0.23,0.5,0.52,0.47,0.5,0.23,0.31,0.53,0.35,0.23,0.52,0.5,0.45,0.5,0.23,0.53,0.52,0.23,0.52,0.47,0.23,0.42,0.53,0.52,0.52,0.34,0.35,0.23,0.5,0.39,0.25,0.23" style="fill:rgb(0,0,0);font-family:Calibri;font-size:10.02px;stroke:none;">nt a major challenge for developing countries, </text>
  </g>
  <g begin="text">
   <text y="188.04" x="246.6,251.58,255.48,260.76,265.74,269.999,272.279,277.079,279.359,281.639,286.198,288.483,292.682,297.662,302.463,306.302,309.662,311.946,318.129,323.109,327.609,332.589,334.868,340.149,345.429,350.349,355.63,357.909,363.19,368.469,373.75,379.03,382.39,385.87,388.151,393.13,397.03,399.315,402.371,406.511,412.694,418.033,421.874,424.93,427.449,429.733,436.814,442.094,447.074,450.554,455.535,457.815,460.875,463.154,468.435,475.575,479.475,481.694,486.975,491.774,496.274,501.254,503.539,506.898,512.179" svgx:width="0.5,0.39,0.52,0.5,0.42,0.23,0.48,0.23,0.23,0.45,0.23,0.42,0.5,0.48,0.39,0.34,0.23,0.62,0.5,0.45,0.5,0.23,0.53,0.52,0.5,0.52,0.23,0.53,0.53,0.52,0.52,0.34,0.35,0.23,0.5,0.39,0.23,0.3,0.42,0.62,0.53,0.39,0.3,0.25,0.23,0.71,0.52,0.5,0.35,0.5,0.23,0.31,0.23,0.53,0.71,0.39,0.23,0.52,0.48,0.45,0.5,0.23,0.34,0.53,0.23" style="fill:rgb(0,0,0);font-family:Calibri;font-size:10.02px;stroke:none;">especially Least Developed Countries (LDCs), where flows have to </text>
   <text y="200.224" x="246.6,248.88,254.16,258.42,261.901,266.881,271.68,275.58,280.56,282.784,288.064,292.624,294.848,297.904,302.704,306.904,310.261,315.542,319.023,321.302,326.402,328.622,331.978,337.259,339.483,344.583,347.04" svgx:width="0.23,0.52,0.42,0.35,0.5,0.48,0.39,0.5,0.23,0.52,0.45,0.23,0.31,0.48,0.42,0.34,0.53,0.35,0.23,0.51,0.23,0.34,0.53,0.23,0.51,0.25,0.23" style="fill:rgb(0,0,0);font-family:Calibri;font-size:10.02px;stroke:none;">increase by factor 4 to 8, </text>
   <text y="212.469" x="246.6" svgx:width="0.23" style="fill:rgb(0,0,0);font-family:Calibri;font-size:10.02px;stroke:none;"> </text>
   <text y="224.653" x="246.6,249.656,254.636,256.921,261.78,267.061,272.041,274.32,279.001,283.8,289.081,292.981,295.265,298.745,303.665,308.945,312.425,317.405,321.305,326.285,331.566,334.925,337.205,341.945,344.23,352.21,357.009,359.409,364.63,368.11,370.394,374.654,379.934,384.734,387.018,389.298,394.278,399.498,404.239,409.219,411.498,414.498,419.779,423.259,425.479,430.759,435.739,440.239,445.218,447.498,452.779,458.058,460.343,465.622,470.303,472.582,476.843,482.063,487.343,492.623,495.983,499.463,501.747,506.727,510.627,513.147" svgx:width="0.31,0.5,0.23,0.49,0.52,0.5,0.23,0.47,0.48,0.52,0.39,0.23,0.35,0.5,0.52,0.35,0.5,0.39,0.5,0.52,0.34,0.23,0.48,0.23,0.8,0.48,0.24,0.53,0.35,0.23,0.42,0.52,0.48,0.23,0.23,0.5,0.52,0.47,0.5,0.23,0.31,0.53,0.35,0.23,0.52,0.5,0.45,0.5,0.23,0.53,0.52,0.23,0.52,0.47,0.23,0.42,0.53,0.52,0.52,0.34,0.35,0.23,0.5,0.39,0.25,0.23" style="fill:rgb(0,0,0);font-family:Calibri;font-size:10.02px;stroke:none;">-&gt; The gaps represent a major challenge for developing countries, </text>
   <text y="236.898" x="246.6,251.58,255.48,260.76,265.74,269.999,272.279,277.079,279.359,281.639,286.198,288.483,292.682,297.662,302.463,306.302,309.662,311.946,318.129,323.109,327.609,332.589,334.868,340.149,345.429,350.349,355.63,357.909,363.19,368.469,373.75,379.03,382.39,385.87,388.151,393.13,397.03,399.315,402.371,406.511,412.694,418.033,421.874,424.93,427.449,429.733,436.814,442.094,447.074,450.554,455.517,457.802,460.858,463.137,468.418,475.558,479.458,481.677,486.958,491.757,496.257,501.237,503.518,506.875,512.155" svgx:width="0.5,0.39,0.52,0.5,0.42,0.23,0.48,0.23,0.23,0.45,0.23,0.42,0.5,0.48,0.39,0.34,0.23,0.62,0.5,0.45,0.5,0.23,0.53,0.52,0.5,0.52,0.23,0.53,0.53,0.52,0.52,0.34,0.35,0.23,0.5,0.39,0.23,0.3,0.42,0.62,0.53,0.39,0.3,0.25,0.23,0.71,0.52,0.5,0.35,0.5,0.23,0.31,0.23,0.53,0.71,0.39,0.23,0.52,0.48,0.45,0.5,0.23,0.34,0.53,0.23" style="fill:rgb(0,0,0);font-family:Calibri;font-size:10.02px;stroke:none;">especially Least Developed Countries (LDCs), where flows have to </text>
   <text y="249.082" x="246.6,248.88,254.16,258.42,261.901,266.881,271.68,275.58,280.56,282.784,288.064,292.624,294.848,297.904,302.704,306.904,310.261,315.542,319.023,321.302,326.402,328.622,331.978,337.259,339.483,344.583,347.04" svgx:width="0.23,0.52,0.42,0.35,0.5,0.48,0.39,0.5,0.23,0.52,0.45,0.23,0.31,0.48,0.42,0.34,0.53,0.35,0.23,0.51,0.23,0.34,0.53,0.23,0.51,0.25,0.23" style="fill:rgb(0,0,0);font-family:Calibri;font-size:10.02px;stroke:none;">increase by factor 4 to 7, </text>
  </g>
  <path style="fill:rgb(0,0,0);stroke:none;stroke-width:1.0;" d="M71.340 581.040 L127.560 581.040 L127.560 675.540 L71.340 675.540 L71.340 581.040 M71.340 581.040 L127.560 581.040 L127.560 675.540 L71.340 675.540 L71.340 581.040 M128.040 581.040 L184.260 581.040 L184.260 675.540 L128.040 675.540 L128.040 581.040 M128.040 581.040 L184.260 581.040 L184.260 675.540 L128.040 675.540 L128.040 581.040 M184.740 581.040 L240.960 581.040 L240.960 675.540 L184.740 675.540 L184.740 581.040 M184.740 581.040 L240.960 581.040 L240.960 675.540 L184.740 675.540 L184.740 581.040 M70.860 675.600 L71.340 675.600 L71.340 676.080 L70.860 676.080 L70.860 675.600 "/>
  <path style="fill:rgb(0,0,0);stroke:none;stroke-width:1.0;" d="M71.340 675.600 L127.560 675.600 L127.560 676.080 L71.340 676.080 L71.340 675.600 "/>
  <path style="fill:rgb(0,0,0);stroke:none;stroke-width:1.0;" d="M127.560 675.600 L128.040 675.600 L128.040 676.080 L127.560 676.080 L127.560 675.600 "/>
  <path style="fill:rgb(0,0,0);stroke:none;stroke-width:1.0;" d="M128.040 675.600 L184.260 675.600 L184.260 676.080 L128.040 676.080 L128.040 675.600 "/>
  <path style="fill:rgb(0,0,0);stroke:none;stroke-width:1.0;" d="M184.260 675.600 L184.740 675.600 L184.740 676.080 L184.260 676.080 L184.260 675.600 "/>
  <path style="fill:rgb(0,0,0);stroke:none;stroke-width:1.0;" d="M184.740 675.600 L240.960 675.600 L240.960 676.080 L184.740 676.080 L184.740 675.600 "/>
  <path style="fill:rgb(0,0,0);stroke:none;stroke-width:1.0;" d="M240.960 675.600 L241.440 675.600 L241.440 676.080 L240.960 676.080 L240.960 675.600 "/>
  <path style="fill:rgb(0,0,0);stroke:none;stroke-width:1.0;" d="M523.980 675.600 L524.460 675.600 L524.460 676.080 L523.980 676.080 L523.980 675.600 "/>
  <path style="fill:rgb(0,0,0);stroke:none;stroke-width:1.0;" d="M70.860 581.040 L71.340 581.040 L71.340 675.600 L70.860 675.600 L70.860 581.040 "/>
  <path style="fill:rgb(0,0,0);stroke:none;stroke-width:1.0;" d="M70.860 580.560 L71.340 580.560 L71.340 581.040 L70.860 581.040 L70.860 580.560 "/>
  <path style="fill:rgb(0,0,0);stroke:none;stroke-width:1.0;" d="M70.860 580.560 L71.340 580.560 L71.340 581.040 L70.860 581.040 L70.860 580.560 "/>
  <path style="fill:rgb(0,0,0);stroke:none;stroke-width:1.0;" d="M71.340 580.560 L127.560 580.560 L127.560 581.040 L71.340 581.040 L71.340 580.560 "/>
  <path style="fill:rgb(0,0,0);stroke:none;stroke-width:1.0;" d="M127.560 581.040 L128.040 581.040 L128.040 675.600 L127.560 675.600 L127.560 581.040 "/>
  <path style="fill:rgb(0,0,0);stroke:none;stroke-width:1.0;" d="M127.560 580.560 L128.040 580.560 L128.040 581.040 L127.560 581.040 L127.560 580.560 "/>
  <path style="fill:rgb(0,0,0);stroke:none;stroke-width:1.0;" d="M128.040 580.560 L184.260 580.560 L184.260 581.040 L128.040 581.040 L128.040 580.560 "/>
  <path style="fill:rgb(0,0,0);stroke:none;stroke-width:1.0;" d="M184.260 581.040 L184.740 581.040 L184.740 675.600 L184.260 675.600 L184.260 581.040 "/>
  <path style="fill:rgb(0,0,0);stroke:none;stroke-width:1.0;" d="M184.260 580.560 L184.740 580.560 L184.740 581.040 L184.260 581.040 L184.260 580.560 "/>
  <path style="fill:rgb(0,0,0);stroke:none;stroke-width:1.0;" d="M184.740 580.560 L240.960 580.560 L240.960 581.040 L184.740 581.040 L184.740 580.560 "/>
  <path style="fill:rgb(0,0,0);stroke:none;stroke-width:1.0;" d="M240.960 581.040 L241.440 581.040 L241.440 675.600 L240.960 675.600 L240.960 581.040 "/>
  <path style="fill:rgb(0,0,0);stroke:none;stroke-width:1.0;" d="M240.960 580.560 L241.440 580.560 L241.440 581.040 L240.960 581.040 L240.960 580.560 "/>
  <path style="fill:rgb(0,0,0);stroke:none;stroke-width:1.0;" d="M523.980 581.040 L524.460 581.040 L524.460 675.600 L523.980 675.600 L523.980 581.040 "/>
  <path style="fill:rgb(0,0,0);stroke:none;stroke-width:1.0;" d="M523.980 580.560 L524.460 580.560 L524.460 581.040 L523.980 581.040 L523.980 580.560 "/>
  <path style="fill:rgb(0,0,0);stroke:none;stroke-width:1.0;" d="M523.980 580.560 L524.460 580.560 L524.460 581.040 L523.980 581.040 L523.980 580.560 "/>
  <g begin="text">
   <text y="271.86" x="70.86" svgx:width="0.23" style="fill:rgb(0,0,0);font-family:Calibri;font-size:10.98px;stroke:none;"> </text>
   <text y="294.358" x="70.86" svgx:width="0.23" style="fill:rgb(0,0,0);font-family:Calibri-Bold;font-size:10.98px;stroke:none;"> </text>
   <text y="316.856" x="70.86" svgx:width="0.23" style="fill:rgb(0,0,0);font-family:Calibri-Bold;font-size:10.98px;stroke:none;"> </text>
   <text y="339.299" x="70.86" svgx:width="0.23" style="fill:rgb(0,0,0);font-family:Calibri-Bold;font-size:10.98px;stroke:none;"> </text>
   <text y="361.797" x="70.86" svgx:width="0.23" style="fill:rgb(0,0,0);font-family:Calibri-Bold;font-size:10.98px;stroke:none;"> </text>
   <text y="384.295" x="70.86" svgx:width="0.23" style="fill:rgb(0,0,0);font-family:Calibri-Bold;font-size:10.98px;stroke:none;"> </text>
   <text y="406.793" x="70.86" svgx:width="0.23" style="fill:rgb(0,0,0);font-family:Calibri-Bold;font-size:10.98px;stroke:none;"> </text>
   <text y="429.291" x="70.86" svgx:width="0.23" style="fill:rgb(0,0,0);font-family:Calibri-Bold;font-size:10.98px;stroke:none;"> </text>
   <text y="451.789" x="70.86" svgx:width="0.23" style="fill:rgb(0,0,0);font-family:Calibri-Bold;font-size:10.98px;stroke:none;"> </text>
   <text y="474.232" x="70.86" svgx:width="0.23" style="fill:rgb(0,0,0);font-family:Calibri-Bold;font-size:10.98px;stroke:none;"> </text>
   <text y="496.73" x="70.86" svgx:width="0.23" style="fill:rgb(0,0,0);font-family:Calibri-Bold;font-size:10.98px;stroke:none;"> </text>
   <text y="519.228" x="70.86" svgx:width="0.23" style="fill:rgb(0,0,0);font-family:Calibri-Bold;font-size:10.98px;stroke:none;"> </text>
   <text y="541.726" x="70.86" svgx:width="0.23" style="fill:rgb(0,0,0);font-family:Calibri-Bold;font-size:10.98px;stroke:none;"> </text>
   <text y="564.224" x="70.86" svgx:width="0.23" style="fill:rgb(0,0,0);font-family:Calibri-Bold;font-size:10.98px;stroke:none;"> </text>
   <text y="586.722" x="70.86" svgx:width="0.23" style="fill:rgb(0,0,0);font-family:Calibri-Bold;font-size:10.98px;stroke:none;"> </text>
   <text y="609.22" x="70.86" svgx:width="0.23" style="fill:rgb(0,0,0);font-family:Calibri-Bold;font-size:10.98px;stroke:none;"> </text>
   <text y="631.664" x="70.86" svgx:width="0.23" style="fill:rgb(0,0,0);font-family:Calibri-Bold;font-size:10.98px;stroke:none;"> </text>
   <text y="654.162" x="70.86" svgx:width="0.23" style="fill:rgb(0,0,0);font-family:Calibri-Bold;font-size:10.98px;stroke:none;"> </text>
   <text y="676.66" x="70.86" svgx:width="0.23" style="fill:rgb(0,0,0);font-family:Calibri-Bold;font-size:10.98px;stroke:none;"> </text>
   <text y="699.158" x="70.86" svgx:width="0.23" style="fill:rgb(0,0,0);font-family:Calibri-Bold;font-size:10.98px;stroke:none;"> </text>
   <text y="721.656" x="70.86" svgx:width="0.23" style="fill:rgb(0,0,0);font-family:Calibri-Bold;font-size:10.98px;stroke:none;"> </text>
   <text y="744.154" x="70.86" svgx:width="0.23" style="fill:rgb(0,0,0);font-family:Calibri-Bold;font-size:10.98px;stroke:none;"> </text>
   <text y="766.597" x="70.86" svgx:width="0.23" style="fill:rgb(0,0,0);font-family:Calibri-Bold;font-size:10.98px;stroke:none;"> </text>
  </g>
 </g>
</svg>
