<?xml version="1.0" encoding="UTF-8"?>
<svg height="781.06" width="534.46" xmlns="http://www.w3.org/2000/svg">
 <g id="page" xmlns:svgx="http://www.xml-cml.org/schema/svgx">
  <g begin="text">
   <text y="80.82" x="246.6,251.219,255.478,260.758,265.678,270.237,274.737,279.717,284.998,288.898,291.178,296.098,299.459,301.738,306.479,308.758,311.278,313.563,318.663,323.703,328.803,333.843,336.544,338.823,343.024,345.303,349.803,354.783,358.263,366.243,371.043,376.324,378.609,383.649,388.689,393.789,398.829,401.885" svgx:width="0.46,0.42,0.52,0.5,0.45,0.45,0.5,0.52,0.39,0.23,0.5,0.34,0.23,0.48,0.23,0.25,0.23,0.51,0.51,0.51,0.51,0.27,0.23,0.42,0.23,0.45,0.5,0.35,0.8,0.48,0.52,0.23,0.51,0.51,0.51,0.51,0.3,0.25" style="fill:rgb(0,0,0);font-family:Calibri;font-size:10.02px;stroke:none;">Scheyvens et al. 2016; Liverman 2018).</text>
  </g>
  <g begin="text">
   <text y="80.82" x="404.4" svgx:width="0.23" style="fill:rgb(0,0,0);font-family:Calibri;font-size:10.02px;stroke:none;"> </text>
  </g>
  <g begin="text">
   <text y="93.06" x="246.6" svgx:width="0.23" style="fill:rgb(0,0,0);font-family:Calibri;font-size:10.02px;stroke:none;"> </text>
   <text y="105.244" x="246.6,249.656,252.712,257.692,259.972,262.252,265.308,267.588,275.568,280.848,283.128,286.489,288.768,291.049,295.848,299.208,304.188,307.608,312.408,314.688,318.589,320.868,328.848,334.129,339.409,344.389,346.67,349.19,351.469,353.75,358.549,362.75,367.25,369.529,374.81,377.87,380.15,383.509,386.989,391.73,397.01,400.911,406.192,410.991,414.471,419.452,424.671,428.93,433.489,435.708,440.509,443.989,449.268,454.549,459.768,465.049,467.329,472.129,474.349,479.629,481.849,486.649,491.93,497.21,499.43,504.71,509.69,514.971,518.271" svgx:width="0.31,0.31,0.5,0.23,0.23,0.3,0.23,0.8,0.52,0.23,0.34,0.23,0.23,0.48,0.34,0.5,0.35,0.48,0.23,0.39,0.23,0.8,0.53,0.52,0.5,0.23,0.25,0.23,0.23,0.48,0.42,0.46,0.23,0.53,0.31,0.23,0.34,0.35,0.48,0.52,0.39,0.52,0.48,0.35,0.5,0.52,0.42,0.45,0.23,0.48,0.35,0.53,0.52,0.52,0.52,0.23,0.48,0.23,0.52,0.23,0.48,0.52,0.52,0.23,0.52,0.5,0.52,0.34,0.23" style="fill:rgb(0,0,0);font-family:Calibri;font-size:10.02px;stroke:none;">--&gt; i) multilaterals model, lack of transparency around aid and debt </text>
   <text y="117.489" x="246.6,249.656,258.236,262.796,267.536,272.816,278.097,282.897,290.037,292.317,295.797,300.777,302.997,308.097,313.137,318.237,323.277,325.977,328.257,332.457,337.437,342.421,344.646,349.746,354.786,359.826,364.926,367.626,369.906,375.005,383.943,388.803,393.422,395.642,400.742,405.782,410.822,415.922,418.621,420.846,426.306,429.786,434.586,439.867,442.146,447.427,454.567,456.847,461.887,466.987,472.027,477.127,479.766" svgx:width="0.3,0.86,0.46,0.48,0.52,0.52,0.48,0.71,0.23,0.35,0.5,0.23,0.51,0.51,0.51,0.51,0.27,0.23,0.42,0.5,0.5,0.23,0.51,0.51,0.51,0.51,0.27,0.23,0.52,0.89,0.49,0.46,0.23,0.51,0.51,0.51,0.51,0.27,0.23,0.54,0.35,0.48,0.52,0.23,0.53,0.71,0.23,0.51,0.51,0.51,0.51,0.27,0.23" style="fill:rgb(0,0,0);font-family:Calibri;font-size:10.02px;stroke:none;">(Mkandawire 2010; Lee 2017; PWYF 2019; Bradlow 2021; </text>
   <text y="129.673" x="246.61,252.91,255.19,259.99,265.27,268.33,273.13,277.81,283.091,287.891,290.171,295.151,298.451,300.731,305.532,307.751,310.271,312.556,317.656,322.696,327.796,332.836,335.892,338.177,340.456,342.736,345.792,348.076,350.356,352.637,354.916,357.197,361.455,363.736,367.035,369.315,372.375,374.655,379.936,384.737,389.956,394.215,399.194,401.414,404.47,409.63,411.911,416.71,421.991,426.492,428.771,433.872,438.912,444.012,449.051,451.751,453.972,458.591,463.391,467.59,472.871,476.77,479.055,483.794,489.075,494.355" svgx:width="0.63,0.23,0.48,0.52,0.31,0.48,0.47,0.52,0.48,0.23,0.5,0.34,0.23,0.48,0.23,0.25,0.23,0.51,0.51,0.51,0.51,0.3,0.23,0.23,0.23,0.3,0.23,0.23,0.23,0.23,0.23,0.42,0.23,0.34,0.23,0.31,0.23,0.52,0.48,0.52,0.42,0.5,0.23,0.3,0.52,0.23,0.48,0.52,0.46,0.23,0.51,0.51,0.51,0.51,0.27,0.23,0.46,0.48,0.42,0.52,0.39,0.23,0.48,0.52,0.52,0.23" style="fill:rgb(0,0,0);font-family:Calibri;font-size:10.02px;stroke:none;">Gianfagna et al. 2021) ii) illicit finance (Plank 1993; Sachs and </text>
   <text y="141.857" x="246.61,255.548,260.348,263.828,269.109,274.089,277.509,279.793,284.833,289.934,294.974,300.074,302.774,304.995,311.234,316.035,321.315,323.596,328.875,334.156,336.375,341.475,346.515,351.556,356.656,359.355,361.576,367.995,372.615,374.894,381.076,386.356,389.476,391.761,396.801,401.901,406.94,412.04,415.096,417.317,420.373,422.592,424.873,427.152,429.433,432.489,434.774,437.053,441.854,446.112,450.672,452.957,458.236,461.236,463.521,468.801,473.781,478.281,483.201,485.482,490.761,496.042,501.022,506.302" svgx:width="0.89,0.48,0.35,0.52,0.5,0.35,0.23,0.51,0.51,0.51,0.51,0.27,0.23,0.62,0.48,0.52,0.23,0.53,0.52,0.23,0.51,0.51,0.51,0.51,0.27,0.23,0.64,0.46,0.23,0.62,0.53,0.32,0.23,0.51,0.51,0.51,0.51,0.3,0.23,0.3,0.23,0.23,0.23,0.23,0.3,0.23,0.23,0.48,0.42,0.46,0.23,0.53,0.31,0.23,0.52,0.5,0.45,0.5,0.23,0.53,0.52,0.5,0.52,0.23" style="fill:rgb(0,0,0);font-family:Calibri;font-size:10.02px;stroke:none;">Warner 2001; Hanlon 2017; US DoJ 2019) ) iii) lack of developed </text>
   <text y="154.102" x="246.61,250.868,256.149,261.368,266.649,270.009,273.489,278.048,280.268,284.527,289.807,297.787,305.767,307.988,311.347,319.327,324.307,329.588,332.947,335.227,338.588,343.807,346.092,351.372,353.653,358.633,363.852,368.532,373.512,377.412,379.697,382.753,389.173,394.453,399.254,407.234,412.513,414.798,419.537,424.758,430.038,432.323,438.742,444.023,448.823,456.803,462.082,464.302,469.403,474.443,479.543,484.583,487.639,489.924,492.203,496.703,499.759" svgx:width="0.42,0.53,0.52,0.52,0.34,0.35,0.45,0.23,0.42,0.53,0.8,0.8,0.23,0.34,0.8,0.5,0.52,0.34,0.23,0.34,0.53,0.23,0.52,0.23,0.5,0.52,0.47,0.5,0.39,0.23,0.3,0.65,0.52,0.48,0.8,0.53,0.23,0.48,0.52,0.52,0.23,0.65,0.52,0.48,0.8,0.53,0.23,0.51,0.51,0.51,0.51,0.3,0.23,0.23,0.45,0.3,0.23" style="fill:rgb(0,0,0);font-family:Calibri;font-size:10.02px;stroke:none;">country commitment to pledges (Nhamo and Nhamo 2016) iv) </text>
   <text y="166.286" x="246.61,251.891,257.17,260.65,265.63,270.31,275.59,277.87,282.67,286.027,291.007,296.227,298.507,303.787,306.007,310.806,315.366,320.346,323.826,327.726,330.01,334.81,338.71,340.994,344.051,346.33,351.55,356.35,361.57,365.77,368.05,372.85,375.13,377.414,379.694,384.974,388.331,393.313,396.79,404.77,409.75,415.03,417.305,422.104,425.525,427.8,432.779,436.677,438.962,441.236,446.517,448.796,454.077,456.351,461.331,466.552,471.831,476.811,482.091,484.311,487.371,489.652,494.931,499.731,505.012,509.211,514.191" svgx:width="0.52,0.52,0.35,0.5,0.47,0.52,0.23,0.48,0.34,0.5,0.52,0.23,0.52,0.23,0.48,0.45,0.5,0.35,0.39,0.23,0.48,0.39,0.23,0.31,0.23,0.52,0.48,0.52,0.42,0.23,0.48,0.23,0.23,0.23,0.52,0.34,0.5,0.35,0.8,0.5,0.52,0.23,0.48,0.35,0.23,0.5,0.39,0.23,0.23,0.52,0.23,0.52,0.23,0.5,0.52,0.52,0.5,0.52,0.23,0.31,0.23,0.52,0.48,0.52,0.42,0.5,0.23" style="fill:rgb(0,0,0);font-family:Calibri;font-size:10.02px;stroke:none;">unregulated players as financial intermediaries in blended finance </text>
   <text y="178.531" x="246.61,249.666,254.826,259.806,263.286,268.266,270.546,274.026,278.826,281.106,286.146,291.246,296.286,301.386,304.086,306.31,312.493,317.772,323.053,327.853,330.134,335.414,339.314,344.534,349.815,352.096,356.835,362.116,367.335,369.615,375.855,380.656,387.795,392.355,397.335,401.236,403.455,408.555,413.595,418.695,423.736,426.435,428.659,434.481,437.842,441.201,444.681,446.961,452.181,456.921,461.901,464.18,468.921,474.201,479.482,481.701,486.562,491.842,496.582,501.502,506.782" svgx:width="0.3,0.52,0.5,0.35,0.5,0.23,0.35,0.48,0.23,0.51,0.51,0.51,0.51,0.27,0.23,0.62,0.53,0.52,0.48,0.23,0.52,0.39,0.53,0.52,0.23,0.48,0.52,0.52,0.23,0.62,0.48,0.71,0.46,0.5,0.39,0.23,0.51,0.51,0.51,0.51,0.27,0.23,0.58,0.34,0.34,0.35,0.23,0.52,0.47,0.5,0.23,0.48,0.52,0.52,0.23,0.49,0.52,0.47,0.5,0.52,0.23" style="fill:rgb(0,0,0);font-family:Calibri;font-size:10.02px;stroke:none;">(Pereira 2017; Donaldson and Hawkes 2018; Attridge and Engen </text>
   <text y="190.715" x="246.61,251.71,256.75,261.85,266.89,269.59,271.874,276.734,281.534,286.754,289.034,294.074,299.174,304.214,309.314,312.37,314.65,319.091,322.147,324.431,331.572,336.551,341.351,345.851,348.136,352.935,357.136,361.335,366.615,371.896,377.177,380.536,385.277,390.557,392.838,395.117,397.397,400.758,405.317,407.596,411.076,416.056,419.116,421.337,426.317,430.575,433.936,438.916,444.135,446.42,448.699,453.98,456.259,460.159,465.44,468.5,471.799,474.084,478.644,484.826,491.127,493.407,498.687,503.487,506.786,511.587" svgx:width="0.51,0.51,0.51,0.51,0.27,0.23,0.49,0.48,0.52,0.23,0.51,0.51,0.51,0.51,0.3,0.23,0.45,0.3,0.23,0.71,0.5,0.48,0.46,0.23,0.48,0.42,0.42,0.53,0.52,0.52,0.34,0.48,0.52,0.23,0.23,0.23,0.34,0.45,0.23,0.35,0.5,0.31,0.23,0.5,0.42,0.34,0.5,0.52,0.23,0.23,0.52,0.23,0.39,0.53,0.31,0.34,0.23,0.46,0.62,0.63,0.23,0.52,0.48,0.34,0.48,0.23" style="fill:rgb(0,0,0);font-family:Calibri;font-size:10.02px;stroke:none;">2019; Tan 2019) v) weak accountability reflected in soft SDG data </text>
   <text y="202.959" x="246.61,251.41,256.69,261.97,264.254,268.754,271.029,274.029,276.313,281.533,286.813,290.29,295.57,300.55,305.77,307.989,313.27,316.33,318.61,322.086,327.066,330.964,336.245,341.524,346.805,350.703,352.983,358.263,360.537,362.818,365.092,368.393,372.952,375.236,377.511,382.792,385.071,393.051,398.271,403.551,405.831,408.106,410.387,414.284,416.559,421.839,426.579,428.799,433.96,438.759,442.236,444.517,448.414,450.694,455.495,460.774,466.054,468.274,472.894,479.074,485.376" svgx:width="0.48,0.52,0.52,0.23,0.45,0.23,0.3,0.23,0.52,0.52,0.35,0.52,0.5,0.52,0.23,0.53,0.31,0.23,0.35,0.5,0.39,0.52,0.53,0.52,0.39,0.23,0.52,0.23,0.23,0.23,0.34,0.45,0.23,0.23,0.52,0.23,0.8,0.53,0.52,0.23,0.23,0.23,0.39,0.23,0.52,0.47,0.23,0.52,0.48,0.35,0.23,0.39,0.23,0.48,0.52,0.52,0.23,0.46,0.62,0.63,0.23" style="fill:rgb(0,0,0);font-family:Calibri;font-size:10.02px;stroke:none;">and vi) burden of responsibility in mobilising Paris and SDG </text>
   <text y="215.144" x="246.61,250.087,255.067,258.965,264.245,269.525,273.002,277.262,282.242,286.14,288.419,291.48,296.28,298.555,300.835,303.055,308.335,313.075,315.359,318.659,323.938,326.223,330.423,335.703,340.982,346.203,349.562,353.039,355.32,360.3,364.198,366.477,373.621,375.902,379.262,384.541,386.826,392.105,394.395,398.295,401.651,406.932,410.412,412.691,416.892,421.691,423.972,426.252,430.812,433.096,436.996,442.277,445.333,448.689,450.969,453.248,458.529,462.429,465.785,468.066,471.366,476.646,480.003,482.223,487.504,492.784,497.584,499.863" svgx:width="0.35,0.5,0.39,0.53,0.52,0.35,0.42,0.5,0.39,0.23,0.31,0.48,0.23,0.23,0.23,0.52,0.47,0.23,0.34,0.53,0.23,0.42,0.53,0.52,0.52,0.34,0.35,0.23,0.5,0.39,0.23,0.71,0.23,0.34,0.52,0.23,0.52,0.23,0.39,0.34,0.53,0.35,0.23,0.42,0.48,0.23,0.23,0.45,0.23,0.39,0.53,0.31,0.34,0.23,0.23,0.52,0.39,0.34,0.23,0.34,0.52,0.34,0.23,0.53,0.52,0.48,0.23,0.23" style="fill:rgb(0,0,0);font-family:Calibri;font-size:10.02px;stroke:none;">resources falling to countries with historically soft institutional </text>
   <text y="227.388" x="246.61,250.868,255.669,260.95,265.69,269.949,272.228,275.588,280.088,282.372,285.428,291.668,293.888,298.147,302.707,307.627,309.907,312.187,317.287,322.327,327.427,332.467,335.167,337.451,343.572,348.851,354.132,358.931,361.212,366.431,368.652,373.451,378.732,384.012,386.233,395.17,399.91,404.469,406.689,411.79,416.83,421.93,426.97,429.609,431.894,436.513,440.712,445.993,450.973,455.532,460.031,464.952,470.232,474.132,476.417,481.397,484.756,486.977,491.776,494.057,496.577" svgx:width="0.42,0.48,0.52,0.48,0.42,0.23,0.34,0.45,0.23,0.3,0.62,0.23,0.42,0.46,0.5,0.23,0.23,0.51,0.51,0.51,0.51,0.27,0.23,0.62,0.53,0.52,0.48,0.23,0.52,0.23,0.48,0.52,0.52,0.23,0.89,0.48,0.45,0.23,0.51,0.51,0.51,0.51,0.27,0.23,0.46,0.42,0.52,0.5,0.45,0.45,0.5,0.52,0.39,0.23,0.5,0.34,0.23,0.48,0.23,0.25,0.23" style="fill:rgb(0,0,0);font-family:Calibri;font-size:10.02px;stroke:none;">capacity (Hickel 2015; Donald and Way 2016; Scheyvens et al. </text>
  </g>
  <g begin="text">
   <text y="239.52" x="246.6,251.7,256.74,261.84,266.88,269.58,271.864,276.064,278.344,282.844,287.824,291.304,299.284,304.084,309.364,311.644,316.684,321.784,326.824,331.924,334.98,337.44" svgx:width="0.51,0.51,0.51,0.51,0.27,0.23,0.42,0.23,0.45,0.5,0.35,0.8,0.48,0.52,0.23,0.51,0.51,0.51,0.51,0.3,0.25,0.23" style="fill:rgb(0,0,0);font-family:Calibri;font-size:10.02px;stroke:none;">2016; Liverman 2018). </text>
  </g>
  <g begin="text">
   <text y="239.52" x="339.66" svgx:width="0.23" style="fill:rgb(0,0,0);font-family:Calibri;font-size:10.02px;stroke:none;"> </text>
  </g>
  <path style="fill:rgb(0,0,0);stroke:none;stroke-width:1.0;" d="M70.860 770.580 L71.340 770.580 L71.340 771.060 L70.860 771.060 L70.860 770.580 "/>
  <path style="fill:rgb(0,0,0);stroke:none;stroke-width:1.0;" d="M70.860 770.580 L71.340 770.580 L71.340 771.060 L70.860 771.060 L70.860 770.580 "/>
  <path style="fill:rgb(0,0,0);stroke:none;stroke-width:1.0;" d="M71.340 770.580 L127.560 770.580 L127.560 771.060 L71.340 771.060 L71.340 770.580 "/>
  <path style="fill:rgb(0,0,0);stroke:none;stroke-width:1.0;" d="M127.560 770.580 L128.040 770.580 L128.040 771.060 L127.560 771.060 L127.560 770.580 "/>
  <path style="fill:rgb(0,0,0);stroke:none;stroke-width:1.0;" d="M128.040 770.580 L184.260 770.580 L184.260 771.060 L128.040 771.060 L128.040 770.580 "/>
  <path style="fill:rgb(0,0,0);stroke:none;stroke-width:1.0;" d="M184.260 770.580 L184.740 770.580 L184.740 771.060 L184.260 771.060 L184.260 770.580 "/>
  <path style="fill:rgb(0,0,0);stroke:none;stroke-width:1.0;" d="M184.740 770.580 L240.960 770.580 L240.960 771.060 L184.740 771.060 L184.740 770.580 "/>
  <path style="fill:rgb(0,0,0);stroke:none;stroke-width:1.0;" d="M240.960 770.580 L241.440 770.580 L241.440 771.060 L240.960 771.060 L240.960 770.580 "/>
  <path style="fill:rgb(0,0,0);stroke:none;stroke-width:1.0;" d="M523.980 770.580 L524.460 770.580 L524.460 771.060 L523.980 771.060 L523.980 770.580 "/>
  <path style="fill:rgb(0,0,0);stroke:none;stroke-width:1.0;" d="M523.980 770.580 L524.460 770.580 L524.460 771.060 L523.980 771.060 L523.980 770.580 "/>
  <g begin="text">
   <text y="252.24" x="76.5,81.841,87.121,91.921,97.201,100.558,105.538,108.958,111.242,116.282" svgx:width="0.53,0.52,0.48,0.52,0.34,0.5,0.35,0.23,0.51,0.51" style="fill:rgb(0,0,0);font-family:Calibri;font-size:10.02px;stroke:none;">Chapter 15</text>
  </g>
  <g begin="text">
   <text y="252.24" x="121.32" svgx:width="0.23" style="fill:rgb(0,0,0);font-family:Calibri;font-size:10.02px;stroke:none;"> </text>
  </g>
  <g begin="text">
   <text y="252.24" x="133.2,138.3" svgx:width="0.51,0.51" style="fill:rgb(0,0,0);font-family:Calibri;font-size:10.02px;stroke:none;">33</text>
  </g>
  <g begin="text">
   <text y="252.24" x="143.34" svgx:width="0.23" style="fill:rgb(0,0,0);font-family:Calibri;font-size:10.02px;stroke:none;"> </text>
  </g>
  <g begin="text">
   <text y="252.24" x="189.9,195.0" svgx:width="0.51,0.51" style="fill:rgb(0,0,0);font-family:Calibri;font-size:10.02px;stroke:none;">16</text>
  </g>
  <g begin="text">
   <text y="252.24" x="200.04" svgx:width="0.23" style="fill:rgb(0,0,0);font-family:Calibri;font-size:10.02px;stroke:none;"> </text>
  </g>
  <g begin="text">
   <text y="252.24" x="246.6" svgx:width="0.23" style="fill:rgb(0,0,0);font-family:Calibri;font-size:10.02px;stroke:none;"> </text>
  </g>
  <g begin="text">
   <text y="264.42" x="246.6,252.061,257.041,262.321,264.601,269.402,273.601,278.581,280.861,285.721,290.521,295.801,298.081,303.061,305.285,310.385,315.486,317.945,323.046,325.317,328.373,330.598,333.658,338.278,341.638,346.918,350.398,355.138,359.878,364.798,367.858,370.143,372.422,376.322,381.302,386.282,388.561,393.481,398.762,403.982,406.262,411.542,414.601,416.822,422.042,427.322,431.582,433.862,436.922,442.202,445.682,447.962,451.443,456.423,460.923,463.202,467.103,472.083,477.302,479.523,484.023,489.003,492.483,496.384,498.663,503.944,509.223,511.508" svgx:width="0.54,0.5,0.52,0.23,0.48,0.42,0.5,0.23,0.49,0.48,0.52,0.23,0.5,0.23,0.51,0.51,0.25,0.51,0.23,0.31,0.23,0.3,0.46,0.34,0.53,0.35,0.48,0.47,0.5,0.3,0.23,0.23,0.39,0.5,0.5,0.23,0.5,0.52,0.52,0.23,0.53,0.31,0.23,0.52,0.53,0.42,0.23,0.31,0.53,0.35,0.23,0.35,0.5,0.45,0.23,0.39,0.5,0.52,0.23,0.45,0.5,0.35,0.39,0.23,0.53,0.52,0.23,0.23" style="fill:rgb(0,0,0);font-family:Calibri;font-size:10.02px;stroke:none;">Replace Table 15.3 - (Storage) see end of doc for revised version </text>
   <text y="276.664" x="246.6" svgx:width="0.23" style="fill:rgb(0,0,0);font-family:Calibri;font-size:10.02px;stroke:none;"> </text>
  </g>
  <path style="fill:rgb(0,0,0);stroke:none;stroke-width:1.0;" d="M71.340 504.660 L127.560 504.660 L127.560 599.160 L71.340 599.160 L71.340 504.660 M71.340 504.660 L127.560 504.660 L127.560 599.160 L71.340 599.160 L71.340 504.660 M128.040 504.660 L184.260 504.660 L184.260 599.160 L128.040 599.160 L128.040 504.660 M128.040 504.660 L184.260 504.660 L184.260 599.160 L128.040 599.160 L128.040 504.660 M184.740 504.660 L240.960 504.660 L240.960 599.160 L184.740 599.160 L184.740 504.660 M184.740 504.660 L240.960 504.660 L240.960 599.160 L184.740 599.160 L184.740 504.660 M70.860 599.220 L71.340 599.220 L71.340 599.700 L70.860 599.700 L70.860 599.220 "/>
  <path style="fill:rgb(0,0,0);stroke:none;stroke-width:1.0;" d="M71.340 599.220 L127.560 599.220 L127.560 599.700 L71.340 599.700 L71.340 599.220 "/>
  <path style="fill:rgb(0,0,0);stroke:none;stroke-width:1.0;" d="M127.560 599.220 L128.040 599.220 L128.040 599.700 L127.560 599.700 L127.560 599.220 "/>
  <path style="fill:rgb(0,0,0);stroke:none;stroke-width:1.0;" d="M128.040 599.220 L184.260 599.220 L184.260 599.700 L128.040 599.700 L128.040 599.220 "/>
  <path style="fill:rgb(0,0,0);stroke:none;stroke-width:1.0;" d="M184.260 599.220 L184.740 599.220 L184.740 599.700 L184.260 599.700 L184.260 599.220 "/>
  <path style="fill:rgb(0,0,0);stroke:none;stroke-width:1.0;" d="M184.740 599.220 L240.960 599.220 L240.960 599.700 L184.740 599.700 L184.740 599.220 "/>
  <path style="fill:rgb(0,0,0);stroke:none;stroke-width:1.0;" d="M240.960 599.220 L241.440 599.220 L241.440 599.700 L240.960 599.700 L240.960 599.220 "/>
  <path style="fill:rgb(0,0,0);stroke:none;stroke-width:1.0;" d="M523.980 599.220 L524.460 599.220 L524.460 599.700 L523.980 599.700 L523.980 599.220 "/>
  <path style="fill:rgb(0,0,0);stroke:none;stroke-width:1.0;" d="M70.860 504.660 L71.340 504.660 L71.340 599.220 L70.860 599.220 L70.860 504.660 "/>
  <path style="fill:rgb(0,0,0);stroke:none;stroke-width:1.0;" d="M127.560 504.660 L128.040 504.660 L128.040 599.220 L127.560 599.220 L127.560 504.660 "/>
  <path style="fill:rgb(0,0,0);stroke:none;stroke-width:1.0;" d="M184.260 504.660 L184.740 504.660 L184.740 599.220 L184.260 599.220 L184.260 504.660 "/>
  <path style="fill:rgb(0,0,0);stroke:none;stroke-width:1.0;" d="M240.960 504.660 L241.440 504.660 L241.440 599.220 L240.960 599.220 L240.960 504.660 "/>
  <path style="fill:rgb(0,0,0);stroke:none;stroke-width:1.0;" d="M523.980 504.660 L524.460 504.660 L524.460 599.220 L523.980 599.220 L523.980 504.660 "/>
  <g begin="text">
   <text y="347.22" x="76.5,81.841,87.121,91.921,97.201,100.558,105.538,108.958,111.242,116.282" svgx:width="0.53,0.52,0.48,0.52,0.34,0.5,0.35,0.23,0.51,0.51" style="fill:rgb(0,0,0);font-family:Calibri;font-size:10.02px;stroke:none;">Chapter 15</text>
  </g>
  <g begin="text">
   <text y="347.22" x="121.32" svgx:width="0.23" style="fill:rgb(0,0,0);font-family:Calibri;font-size:10.02px;stroke:none;"> </text>
  </g>
  <g begin="text">
   <text y="347.22" x="133.2" svgx:width="0.23" style="fill:rgb(0,0,0);font-family:Calibri;font-size:10.02px;stroke:none;"> </text>
  </g>
  <g begin="text">
   <text y="347.22" x="135.48" svgx:width="0.23" style="fill:rgb(0,0,0);font-family:Calibri;font-size:10.02px;stroke:none;"> </text>
  </g>
  <g begin="text">
   <text y="347.22" x="189.9,194.519,196.799,201.538,206.819,210.299,215.279,217.503,222.543,227.643,230.163" svgx:width="0.46,0.23,0.47,0.52,0.35,0.5,0.23,0.51,0.51,0.25,0.51" style="fill:rgb(0,0,0);font-family:Calibri;font-size:10.02px;stroke:none;">Figure 15.4</text>
  </g>
  <g begin="text">
   <text y="347.22" x="235.2" svgx:width="0.23" style="fill:rgb(0,0,0);font-family:Calibri;font-size:10.02px;stroke:none;"> </text>
  </g>
  <g begin="text">
   <text y="347.22" x="246.6,252.061,257.041,262.321,264.601,269.402,273.601,278.581,280.865,285.485,287.704,292.444,297.724,301.204,306.124,308.408,313.509,318.609,321.069,326.169,328.453,332.353,337.333,342.313,344.534,349.513,354.794,360.014,362.294,367.514,370.575,372.854,378.135,383.355,387.614,389.893,392.953,398.234,401.714,403.993,407.473,412.453,416.953,419.234,423.133,428.053,433.334,435.613,440.113,445.093,448.573,452.474,454.754,460.034,465.315" svgx:width="0.54,0.5,0.52,0.23,0.48,0.42,0.5,0.23,0.46,0.23,0.47,0.52,0.35,0.5,0.23,0.51,0.51,0.25,0.51,0.23,0.39,0.5,0.5,0.23,0.5,0.52,0.52,0.23,0.53,0.31,0.23,0.52,0.53,0.42,0.23,0.31,0.53,0.35,0.23,0.35,0.5,0.45,0.23,0.39,0.5,0.52,0.23,0.45,0.5,0.35,0.39,0.23,0.53,0.52,0.23" style="fill:rgb(0,0,0);font-family:Calibri;font-size:10.02px;stroke:none;">Replace Figure 15.4 see end of doc for revised version </text>
  </g>
  <g begin="text">
   <text y="347.22" x="467.52" svgx:width="0.23" style="fill:rgb(0,0,0);font-family:Calibri;font-size:10.02px;stroke:none;"> </text>
  </g>
  <path style="fill:rgb(0,0,0);stroke:none;stroke-width:1.0;" d="M71.340 409.680 L127.560 409.680 L127.560 504.180 L71.340 504.180 L71.340 409.680 M71.340 409.680 L127.560 409.680 L127.560 504.180 L71.340 504.180 L71.340 409.680 M128.040 409.680 L184.260 409.680 L184.260 504.180 L128.040 504.180 L128.040 409.680 M128.040 409.680 L184.260 409.680 L184.260 504.180 L128.040 504.180 L128.040 409.680 M184.740 409.680 L240.960 409.680 L240.960 504.180 L184.740 504.180 L184.740 409.680 M184.740 409.680 L240.960 409.680 L240.960 504.180 L184.740 504.180 L184.740 409.680 M70.860 504.180 L71.340 504.180 L71.340 504.660 L70.860 504.660 L70.860 504.180 "/>
  <path style="fill:rgb(0,0,0);stroke:none;stroke-width:1.0;" d="M71.340 504.180 L127.560 504.180 L127.560 504.660 L71.340 504.660 L71.340 504.180 "/>
  <path style="fill:rgb(0,0,0);stroke:none;stroke-width:1.0;" d="M127.560 504.180 L128.040 504.180 L128.040 504.660 L127.560 504.660 L127.560 504.180 "/>
  <path style="fill:rgb(0,0,0);stroke:none;stroke-width:1.0;" d="M128.040 504.180 L184.260 504.180 L184.260 504.660 L128.040 504.660 L128.040 504.180 "/>
  <path style="fill:rgb(0,0,0);stroke:none;stroke-width:1.0;" d="M184.260 504.180 L184.740 504.180 L184.740 504.660 L184.260 504.660 L184.260 504.180 "/>
  <path style="fill:rgb(0,0,0);stroke:none;stroke-width:1.0;" d="M184.740 504.180 L240.960 504.180 L240.960 504.660 L184.740 504.660 L184.740 504.180 "/>
  <path style="fill:rgb(0,0,0);stroke:none;stroke-width:1.0;" d="M240.960 504.180 L241.440 504.180 L241.440 504.660 L240.960 504.660 L240.960 504.180 "/>
  <path style="fill:rgb(0,0,0);stroke:none;stroke-width:1.0;" d="M523.980 504.180 L524.460 504.180 L524.460 504.660 L523.980 504.660 L523.980 504.180 "/>
  <path style="fill:rgb(0,0,0);stroke:none;stroke-width:1.0;" d="M70.860 409.680 L71.340 409.680 L71.340 504.180 L70.860 504.180 L70.860 409.680 "/>
  <path style="fill:rgb(0,0,0);stroke:none;stroke-width:1.0;" d="M127.560 409.680 L128.040 409.680 L128.040 504.180 L127.560 504.180 L127.560 409.680 "/>
  <path style="fill:rgb(0,0,0);stroke:none;stroke-width:1.0;" d="M184.260 409.680 L184.740 409.680 L184.740 504.180 L184.260 504.180 L184.260 409.680 "/>
  <path style="fill:rgb(0,0,0);stroke:none;stroke-width:1.0;" d="M240.960 409.680 L241.440 409.680 L241.440 504.180 L240.960 504.180 L240.960 409.680 "/>
  <path style="fill:rgb(0,0,0);stroke:none;stroke-width:1.0;" d="M523.980 409.680 L524.460 409.680 L524.460 504.180 L523.980 504.180 L523.980 409.680 "/>
  <g begin="text">
   <text y="442.2" x="76.5,81.841,87.121,91.921,97.201,100.558,105.538,108.958,111.242,116.282" svgx:width="0.53,0.52,0.48,0.52,0.34,0.5,0.35,0.23,0.51,0.51" style="fill:rgb(0,0,0);font-family:Calibri;font-size:10.02px;stroke:none;">Chapter 15</text>
  </g>
  <g begin="text">
   <text y="442.2" x="121.32" svgx:width="0.23" style="fill:rgb(0,0,0);font-family:Calibri;font-size:10.02px;stroke:none;"> </text>
  </g>
  <g begin="text">
   <text y="442.2" x="133.2,137.819,141.299,146.579,151.859,155.219,157.443,162.724,167.464,172.204" svgx:width="0.46,0.35,0.53,0.52,0.34,0.23,0.52,0.48,0.47,0.5" style="fill:rgb(0,0,0);font-family:Calibri;font-size:10.02px;stroke:none;">Front page</text>
  </g>
  <g begin="text">
   <text y="442.2" x="177.12" svgx:width="0.23" style="fill:rgb(0,0,0);font-family:Calibri;font-size:10.02px;stroke:none;"> </text>
  </g>
  <g begin="text">
   <text y="442.2" x="189.9,195.36,200.34,204.84,207.12,212.1,219.24" svgx:width="0.54,0.5,0.45,0.23,0.5,0.71,0.23" style="fill:rgb(0,0,0);font-family:Calibri;font-size:10.02px;stroke:none;">Review </text>
  </g>
  <g begin="text">
   <text y="454.44" x="189.9,194.82,200.1,202.38,205.737,211.017,214.497,218.337" svgx:width="0.49,0.52,0.23,0.34,0.53,0.35,0.39,0.23" style="fill:rgb(0,0,0);font-family:Calibri;font-size:10.02px;stroke:none;">Editors </text>
  </g>
  <g begin="text">
   <text y="442.2" x="246.6,252.06,257.04,265.02,270.3,274.8,279.78,282.065,285.244,290.224,295.025" svgx:width="0.54,0.5,0.8,0.53,0.45,0.5,0.23,0.32,0.5,0.48,0.52" style="fill:rgb(0,0,0);font-family:Calibri;font-size:10.02px;stroke:none;">Remove Jean</text>
  </g>
  <g begin="text">
   <text y="442.2" x="300.3" svgx:width="0.31" style="fill:rgb(0,0,0);font-family:Calibri;font-size:10.02px;stroke:none;">-</text>
  </g>
  <g begin="text">
   <text y="442.2" x="303.3,308.641,313.921,318.721,322.201,324.481,329.461,333.361,335.641,341.883,347.164,352.444,355.864,360.064,364.864,370.144,375.124,377.404,382.204,386.104,388.384,391.864,396.844,401.344,403.624,408.604,415.745,417.964,422.944,428.224,430.504,433.861,439.141" svgx:width="0.53,0.52,0.48,0.35,0.23,0.5,0.39,0.23,0.62,0.53,0.52,0.35,0.42,0.48,0.52,0.5,0.23,0.48,0.39,0.23,0.35,0.5,0.45,0.23,0.5,0.71,0.23,0.5,0.52,0.23,0.34,0.53,0.35" style="fill:rgb(0,0,0);font-family:Calibri;font-size:10.02px;stroke:none;">Charles Hourcade as review editor</text>
  </g>
  <g begin="text">
   <text y="442.2" x="442.62" svgx:width="0.23" style="fill:rgb(0,0,0);font-family:Calibri;font-size:10.02px;stroke:none;"> </text>
  </g>
  <path style="fill:rgb(0,0,0);stroke:none;stroke-width:1.0;" d="M71.340 314.700 L127.560 314.700 L127.560 409.200 L71.340 409.200 L71.340 314.700 M71.340 314.700 L127.560 314.700 L127.560 409.200 L71.340 409.200 L71.340 314.700 M128.040 314.700 L184.260 314.700 L184.260 409.200 L128.040 409.200 L128.040 314.700 M128.040 314.700 L184.260 314.700 L184.260 409.200 L128.040 409.200 L128.040 314.700 M184.740 314.700 L240.960 314.700 L240.960 409.200 L184.740 409.200 L184.740 314.700 M70.860 409.200 L71.340 409.200 L71.340 409.680 L70.860 409.680 L70.860 409.200 "/>
  <path style="fill:rgb(0,0,0);stroke:none;stroke-width:1.0;" d="M71.340 409.200 L127.560 409.200 L127.560 409.680 L71.340 409.680 L71.340 409.200 "/>
  <path style="fill:rgb(0,0,0);stroke:none;stroke-width:1.0;" d="M127.560 409.200 L128.040 409.200 L128.040 409.680 L127.560 409.680 L127.560 409.200 "/>
  <path style="fill:rgb(0,0,0);stroke:none;stroke-width:1.0;" d="M128.040 409.200 L184.260 409.200 L184.260 409.680 L128.040 409.680 L128.040 409.200 "/>
  <path style="fill:rgb(0,0,0);stroke:none;stroke-width:1.0;" d="M184.260 409.200 L184.740 409.200 L184.740 409.680 L184.260 409.680 L184.260 409.200 "/>
  <path style="fill:rgb(0,0,0);stroke:none;stroke-width:1.0;" d="M184.740 409.200 L240.960 409.200 L240.960 409.680 L184.740 409.680 L184.740 409.200 "/>
  <path style="fill:rgb(0,0,0);stroke:none;stroke-width:1.0;" d="M240.960 409.200 L241.440 409.200 L241.440 409.680 L240.960 409.680 L240.960 409.200 "/>
  <path style="fill:rgb(0,0,0);stroke:none;stroke-width:1.0;" d="M523.980 409.200 L524.460 409.200 L524.460 409.680 L523.980 409.680 L523.980 409.200 "/>
  <path style="fill:rgb(0,0,0);stroke:none;stroke-width:1.0;" d="M70.860 314.700 L71.340 314.700 L71.340 409.200 L70.860 409.200 L70.860 314.700 "/>
  <path style="fill:rgb(0,0,0);stroke:none;stroke-width:1.0;" d="M127.560 314.700 L128.040 314.700 L128.040 409.200 L127.560 409.200 L127.560 314.700 "/>
  <path style="fill:rgb(0,0,0);stroke:none;stroke-width:1.0;" d="M184.260 314.700 L184.740 314.700 L184.740 409.200 L184.260 409.200 L184.260 314.700 "/>
  <path style="fill:rgb(0,0,0);stroke:none;stroke-width:1.0;" d="M240.960 314.700 L241.440 314.700 L241.440 409.200 L240.960 409.200 L240.960 314.700 "/>
  <path style="fill:rgb(0,0,0);stroke:none;stroke-width:1.0;" d="M523.980 314.700 L524.460 314.700 L524.460 409.200 L523.980 409.200 L523.980 314.700 "/>
  <g begin="text">
   <text y="537.24" x="76.5,81.841,87.121,91.921,97.201,100.558,105.538,108.958,111.242,116.282" svgx:width="0.53,0.52,0.48,0.52,0.34,0.5,0.35,0.23,0.51,0.51" style="fill:rgb(0,0,0);font-family:Calibri;font-size:10.02px;stroke:none;">Chapter 15</text>
  </g>
  <g begin="text">
   <text y="537.24" x="121.32" svgx:width="0.23" style="fill:rgb(0,0,0);font-family:Calibri;font-size:10.02px;stroke:none;"> </text>
  </g>
  <g begin="text">
   <text y="537.24" x="133.2,138.3" svgx:width="0.51,0.51" style="fill:rgb(0,0,0);font-family:Calibri;font-size:10.02px;stroke:none;">21</text>
  </g>
  <g begin="text">
   <text y="537.24" x="143.34" svgx:width="0.23" style="fill:rgb(0,0,0);font-family:Calibri;font-size:10.02px;stroke:none;"> </text>
  </g>
  <g begin="text">
   <text y="537.24" x="189.9,195.0" svgx:width="0.51,0.51" style="fill:rgb(0,0,0);font-family:Calibri;font-size:10.02px;stroke:none;">16</text>
  </g>
  <g begin="text">
   <text y="537.24" x="200.04" svgx:width="0.23" style="fill:rgb(0,0,0);font-family:Calibri;font-size:10.02px;stroke:none;"> </text>
  </g>
  <g begin="text">
   <text y="537.24" x="246.6,251.4,253.68" svgx:width="0.48,0.23,0.8" style="fill:rgb(0,0,0);font-family:Calibri;font-size:10.02px;stroke:none;">alm</text>
  </g>
  <g begin="text">
   <text y="537.24" x="261.66,266.941,270.84,274.2,276.48,281.58,286.62,288.904,292.264,295.744,298.024,300.304,302.584,304.864,310.144,315.423,317.708,324.128,328.687,334.867,337.147,339.427,344.648,346.927,351.967,357.067,362.107,367.208,370.268,372.728" svgx:width="0.53,0.39,0.34,0.23,0.51,0.51,0.23,0.34,0.35,0.23,0.23,0.23,0.23,0.53,0.52,0.23,0.64,0.46,0.62,0.23,0.23,0.52,0.23,0.51,0.51,0.51,0.51,0.3,0.25,0.23" style="fill:rgb(0,0,0);font-family:Calibri;font-size:10.02px;stroke:none;">ost 80 trillion USD in 2019), </text>
  </g>
  <g begin="text">
   <text y="537.24" x="375.0" svgx:width="0.31" style="fill:rgb(0,0,0);font-family:Calibri;font-size:10.02px;stroke:none;">-</text>
  </g>
  <g begin="text">
   <text y="537.24" x="378.06,383.04,385.324,390.124,393.604,398.824,404.105,409.325,414.606,416.89,421.93,427.03,429.314,432.674,436.154,438.434,440.714,442.995,445.274,450.555,455.835,458.115,464.536,469.096,475.278,480.318,485.418,490.458,495.559,497.838,500.119,505.399" svgx:width="0.5,0.23,0.48,0.35,0.53,0.52,0.52,0.52,0.23,0.51,0.51,0.23,0.34,0.35,0.23,0.23,0.23,0.23,0.53,0.52,0.23,0.64,0.46,0.62,0.51,0.51,0.51,0.51,0.23,0.23,0.52,0.23" style="fill:rgb(0,0,0);font-family:Calibri;font-size:10.02px;stroke:none;">&gt; around 80 trillion USD2015 in </text>
  </g>
  <g begin="text">
   <text y="549.42" x="246.6,251.7,256.74,261.84,266.88,269.937,272.402" svgx:width="0.51,0.51,0.51,0.51,0.3,0.25,0.23" style="fill:rgb(0,0,0);font-family:Calibri;font-size:10.02px;stroke:none;">2019), </text>
  </g>
  <path style="fill:rgb(0,0,0);stroke:none;stroke-width:1.0;" d="M71.340 219.660 L127.560 219.660 L127.560 314.160 L71.340 314.160 L71.340 219.660 M71.340 219.660 L127.560 219.660 L127.560 314.160 L71.340 314.160 L71.340 219.660 M128.040 219.660 L184.260 219.660 L184.260 314.160 L128.040 314.160 L128.040 219.660 M128.040 219.660 L184.260 219.660 L184.260 314.160 L128.040 314.160 L128.040 219.660 M184.740 219.660 L240.960 219.660 L240.960 314.160 L184.740 314.160 L184.740 219.660 M184.740 219.660 L240.960 219.660 L240.960 314.160 L184.740 314.160 L184.740 219.660 M70.860 314.220 L71.340 314.220 L71.340 314.700 L70.860 314.700 L70.860 314.220 "/>
  <path style="fill:rgb(0,0,0);stroke:none;stroke-width:1.0;" d="M71.340 314.220 L127.560 314.220 L127.560 314.700 L71.340 314.700 L71.340 314.220 "/>
  <path style="fill:rgb(0,0,0);stroke:none;stroke-width:1.0;" d="M127.560 314.220 L128.040 314.220 L128.040 314.700 L127.560 314.700 L127.560 314.220 "/>
  <path style="fill:rgb(0,0,0);stroke:none;stroke-width:1.0;" d="M128.040 314.220 L184.260 314.220 L184.260 314.700 L128.040 314.700 L128.040 314.220 "/>
  <path style="fill:rgb(0,0,0);stroke:none;stroke-width:1.0;" d="M184.260 314.220 L184.740 314.220 L184.740 314.700 L184.260 314.700 L184.260 314.220 "/>
  <path style="fill:rgb(0,0,0);stroke:none;stroke-width:1.0;" d="M184.740 314.220 L240.960 314.220 L240.960 314.700 L184.740 314.700 L184.740 314.220 "/>
  <path style="fill:rgb(0,0,0);stroke:none;stroke-width:1.0;" d="M240.960 314.220 L241.440 314.220 L241.440 314.700 L240.960 314.700 L240.960 314.220 "/>
  <path style="fill:rgb(0,0,0);stroke:none;stroke-width:1.0;" d="M523.980 314.220 L524.460 314.220 L524.460 314.700 L523.980 314.700 L523.980 314.220 "/>
  <path style="fill:rgb(0,0,0);stroke:none;stroke-width:1.0;" d="M70.860 219.660 L71.340 219.660 L71.340 314.220 L70.860 314.220 L70.860 219.660 "/>
  <path style="fill:rgb(0,0,0);stroke:none;stroke-width:1.0;" d="M127.560 219.660 L128.040 219.660 L128.040 314.220 L127.560 314.220 L127.560 219.660 "/>
  <path style="fill:rgb(0,0,0);stroke:none;stroke-width:1.0;" d="M184.260 219.660 L184.740 219.660 L184.740 314.220 L184.260 314.220 L184.260 219.660 "/>
  <path style="fill:rgb(0,0,0);stroke:none;stroke-width:1.0;" d="M240.960 219.660 L241.440 219.660 L241.440 314.220 L240.960 314.220 L240.960 219.660 "/>
  <path style="fill:rgb(0,0,0);stroke:none;stroke-width:1.0;" d="M523.980 219.660 L524.460 219.660 L524.460 314.220 L523.980 314.220 L523.980 219.660 "/>
  <g begin="text">
   <text y="632.22" x="76.5,81.841,87.121,91.921,97.201,100.558,105.538,108.958,111.242,116.282" svgx:width="0.53,0.52,0.48,0.52,0.34,0.5,0.35,0.23,0.51,0.51" style="fill:rgb(0,0,0);font-family:Calibri;font-size:10.02px;stroke:none;">Chapter 15</text>
  </g>
  <g begin="text">
   <text y="632.22" x="121.32" svgx:width="0.23" style="fill:rgb(0,0,0);font-family:Calibri;font-size:10.02px;stroke:none;"> </text>
  </g>
  <g begin="text">
   <text y="632.22" x="133.2,138.3" svgx:width="0.51,0.51" style="fill:rgb(0,0,0);font-family:Calibri;font-size:10.02px;stroke:none;">21</text>
  </g>
  <g begin="text">
   <text y="632.22" x="143.34" svgx:width="0.23" style="fill:rgb(0,0,0);font-family:Calibri;font-size:10.02px;stroke:none;"> </text>
  </g>
  <g begin="text">
   <text y="632.22" x="189.9,195.0" svgx:width="0.51,0.51" style="fill:rgb(0,0,0);font-family:Calibri;font-size:10.02px;stroke:none;">25</text>
  </g>
  <g begin="text">
   <text y="632.22" x="200.04" svgx:width="0.23" style="fill:rgb(0,0,0);font-family:Calibri;font-size:10.02px;stroke:none;"> </text>
  </g>
  <g begin="text">
   <text y="632.22" x="246.6,249.12,254.401,256.685,261.725,266.825,271.865,276.966,279.427,281.706,286.446,288.725,294.006,299.225,304.026,306.305,308.59,314.889,319.509,324.848,329.467,331.747,335.227,340.148,344.947,349.148,354.428,359.408,364.689,366.908,372.008,377.109,379.328,382.689,386.169,388.448,390.729,393.008,395.289,400.568,405.849,408.128,414.548,419.167,425.288,427.507,431.766,437.045,445.025,450.306,455.105,458.585,463.506,468.786,471.071,474.431,479.71,481.931,486.971,492.071,494.591,499.691" svgx:width="0.25,0.52,0.23,0.51,0.51,0.51,0.51,0.25,0.23,0.47,0.23,0.53,0.52,0.48,0.23,0.23,0.63,0.46,0.53,0.46,0.23,0.35,0.5,0.48,0.42,0.52,0.5,0.52,0.23,0.51,0.51,0.23,0.34,0.35,0.23,0.23,0.23,0.23,0.53,0.52,0.23,0.64,0.46,0.62,0.23,0.42,0.53,0.8,0.52,0.48,0.35,0.5,0.52,0.23,0.34,0.53,0.23,0.51,0.51,0.25,0.51,0.23" style="fill:rgb(0,0,0);font-family:Calibri;font-size:10.02px;stroke:none;">In 2019, global GFCF reached 23 trillion USD compared to 16.2 </text>
  </g>
  <g begin="text">
   <text y="644.46" x="246.6,249.96,253.44,255.72,258.0,260.28,262.56,267.84,273.121,275.405,281.825,286.444,292.627,294.911,297.191,302.411,304.631,309.731,314.771,319.871,324.911,327.431,329.711,334.511,336.731,341.831,346.931,354.011,356.291,358.571,363.791,368.049,371.529,376.509,381.31,385.21,390.19,392.469,395.469,400.088,402.368,407.048,412.329,415.809,420.789,423.008,428.108,433.208,435.668,440.769,443.825,446.098,449.154,452.21,457.13,459.41,461.93,467.21,469.435,474.535,479.575,484.675,489.775,492.235" svgx:width="0.34,0.35,0.23,0.23,0.23,0.23,0.53,0.52,0.23,0.64,0.46,0.62,0.23,0.23,0.52,0.23,0.51,0.51,0.51,0.51,0.25,0.23,0.48,0.23,0.51,0.51,0.71,0.23,0.23,0.52,0.42,0.35,0.5,0.48,0.39,0.5,0.23,0.3,0.46,0.23,0.47,0.52,0.35,0.5,0.23,0.51,0.51,0.25,0.51,0.3,0.23,0.31,0.31,0.5,0.23,0.25,0.52,0.23,0.51,0.51,0.51,0.51,0.25,0.23" style="fill:rgb(0,0,0);font-family:Calibri;font-size:10.02px;stroke:none;">trillion USD in 2010, a 42% increase (Figure 15.2) --&gt; In 2019, </text>
   <text y="656.644" x="246.6,251.339,253.619,258.899,264.179,268.979,271.259,273.539,279.839,284.399,289.739,294.358,296.638,300.118,305.038,309.838,314.097,319.377,324.297,329.578,331.857,336.658,340.138,345.357,350.638,355.918,361.139,363.363,368.463,373.563,375.783,379.144,382.624,384.903,387.184,389.463,391.744,397.023,402.304,404.584,411.004,415.623,421.744,426.844,431.883,436.983,442.083,444.305,448.564,453.845,461.825,467.045,471.845,475.325,480.244,485.525,487.804,491.161,496.442" svgx:width="0.47,0.23,0.53,0.52,0.48,0.23,0.23,0.63,0.46,0.53,0.46,0.23,0.35,0.5,0.48,0.42,0.52,0.5,0.52,0.23,0.48,0.35,0.53,0.52,0.52,0.52,0.23,0.51,0.51,0.23,0.34,0.35,0.23,0.23,0.23,0.23,0.53,0.52,0.23,0.64,0.46,0.62,0.51,0.51,0.51,0.51,0.23,0.42,0.53,0.8,0.52,0.48,0.35,0.5,0.52,0.23,0.34,0.53,0.23" style="fill:rgb(0,0,0);font-family:Calibri;font-size:10.02px;stroke:none;">global GFCF reached around 20 trillion USD2015 compared to </text>
   <text y="668.829" x="246.6,251.4,254.88,260.161,265.441,270.721,275.942,278.223,283.263,288.363,290.643,294.004,297.484,299.763,302.044,304.323,306.604,311.883,317.164,319.448,325.868,330.428,336.611,341.651,346.751,351.791,356.891,359.176,361.455,366.676,368.955,374.055,379.095,384.196,389.225,391.745,394.029,398.769,401.053,409.033,414.313,417.793,422.773,424.993,428.353,433.633,438.434,443.653,445.938,450.978,456.078,463.217,465.502,467.781,473.002,477.261,480.742,485.722,490.522,494.423,499.403" svgx:width="0.48,0.35,0.53,0.52,0.52,0.52,0.23,0.51,0.51,0.23,0.34,0.35,0.23,0.23,0.23,0.23,0.53,0.52,0.23,0.64,0.46,0.62,0.51,0.51,0.51,0.51,0.23,0.23,0.52,0.23,0.51,0.51,0.51,0.51,0.25,0.23,0.48,0.23,0.8,0.53,0.35,0.5,0.23,0.34,0.52,0.48,0.52,0.23,0.51,0.51,0.71,0.23,0.23,0.52,0.42,0.35,0.5,0.48,0.39,0.5,0.23" style="fill:rgb(0,0,0);font-family:Calibri;font-size:10.02px;stroke:none;">around 16 trillion USD2015 in 2010, a more than 40% increase </text>
   <text y="681.073" x="246.6,249.656,254.275,256.555,261.235,266.516,269.996,274.976,277.26,282.3,287.4,289.915,294.956,298.016,300.531,302.762" svgx:width="0.3,0.46,0.23,0.47,0.52,0.35,0.5,0.23,0.51,0.51,0.25,0.51,0.3,0.25,0.23,0.23" style="fill:rgb(0,0,0);font-family:Calibri;font-size:10.02px;stroke:none;">(Figure 15.2). </text>
  </g>
  <path style="fill:rgb(0,0,0);stroke:none;stroke-width:1.0;" d="M71.340 124.680 L127.560 124.680 L127.560 219.180 L71.340 219.180 L71.340 124.680 M71.340 124.680 L127.560 124.680 L127.560 219.180 L71.340 219.180 L71.340 124.680 M128.040 124.680 L184.260 124.680 L184.260 219.180 L128.040 219.180 L128.040 124.680 M128.040 124.680 L184.260 124.680 L184.260 219.180 L128.040 219.180 L128.040 124.680 M184.740 124.680 L240.960 124.680 L240.960 219.180 L184.740 219.180 L184.740 124.680 M184.740 124.680 L240.960 124.680 L240.960 219.180 L184.740 219.180 L184.740 124.680 M70.860 219.180 L71.340 219.180 L71.340 219.660 L70.860 219.660 L70.860 219.180 "/>
  <path style="fill:rgb(0,0,0);stroke:none;stroke-width:1.0;" d="M71.340 219.180 L127.560 219.180 L127.560 219.660 L71.340 219.660 L71.340 219.180 "/>
  <path style="fill:rgb(0,0,0);stroke:none;stroke-width:1.0;" d="M127.560 219.180 L128.040 219.180 L128.040 219.660 L127.560 219.660 L127.560 219.180 "/>
  <path style="fill:rgb(0,0,0);stroke:none;stroke-width:1.0;" d="M128.040 219.180 L184.260 219.180 L184.260 219.660 L128.040 219.660 L128.040 219.180 "/>
  <path style="fill:rgb(0,0,0);stroke:none;stroke-width:1.0;" d="M184.260 219.180 L184.740 219.180 L184.740 219.660 L184.260 219.660 L184.260 219.180 "/>
  <path style="fill:rgb(0,0,0);stroke:none;stroke-width:1.0;" d="M184.740 219.180 L240.960 219.180 L240.960 219.660 L184.740 219.660 L184.740 219.180 "/>
  <path style="fill:rgb(0,0,0);stroke:none;stroke-width:1.0;" d="M240.960 219.180 L241.440 219.180 L241.440 219.660 L240.960 219.660 L240.960 219.180 "/>
  <path style="fill:rgb(0,0,0);stroke:none;stroke-width:1.0;" d="M523.980 219.180 L524.460 219.180 L524.460 219.660 L523.980 219.660 L523.980 219.180 "/>
  <path style="fill:rgb(0,0,0);stroke:none;stroke-width:1.0;" d="M70.860 124.680 L71.340 124.680 L71.340 219.180 L70.860 219.180 L70.860 124.680 "/>
  <path style="fill:rgb(0,0,0);stroke:none;stroke-width:1.0;" d="M70.860 124.200 L71.340 124.200 L71.340 124.680 L70.860 124.680 L70.860 124.200 "/>
  <path style="fill:rgb(0,0,0);stroke:none;stroke-width:1.0;" d="M70.860 124.200 L71.340 124.200 L71.340 124.680 L70.860 124.680 L70.860 124.200 "/>
  <path style="fill:rgb(0,0,0);stroke:none;stroke-width:1.0;" d="M71.340 124.200 L127.560 124.200 L127.560 124.680 L71.340 124.680 L71.340 124.200 "/>
  <path style="fill:rgb(0,0,0);stroke:none;stroke-width:1.0;" d="M127.560 124.680 L128.040 124.680 L128.040 219.180 L127.560 219.180 L127.560 124.680 "/>
  <path style="fill:rgb(0,0,0);stroke:none;stroke-width:1.0;" d="M127.560 124.200 L128.040 124.200 L128.040 124.680 L127.560 124.680 L127.560 124.200 "/>
  <path style="fill:rgb(0,0,0);stroke:none;stroke-width:1.0;" d="M128.040 124.200 L184.260 124.200 L184.260 124.680 L128.040 124.680 L128.040 124.200 "/>
  <path style="fill:rgb(0,0,0);stroke:none;stroke-width:1.0;" d="M184.260 124.680 L184.740 124.680 L184.740 219.180 L184.260 219.180 L184.260 124.680 "/>
  <path style="fill:rgb(0,0,0);stroke:none;stroke-width:1.0;" d="M184.260 124.200 L184.740 124.200 L184.740 124.680 L184.260 124.680 L184.260 124.200 "/>
  <path style="fill:rgb(0,0,0);stroke:none;stroke-width:1.0;" d="M184.740 124.200 L240.960 124.200 L240.960 124.680 L184.740 124.680 L184.740 124.200 "/>
  <path style="fill:rgb(0,0,0);stroke:none;stroke-width:1.0;" d="M240.960 124.680 L241.440 124.680 L241.440 219.180 L240.960 219.180 L240.960 124.680 "/>
  <path style="fill:rgb(0,0,0);stroke:none;stroke-width:1.0;" d="M240.960 124.200 L241.440 124.200 L241.440 124.680 L240.960 124.680 L240.960 124.200 "/>
  <path style="fill:rgb(0,0,0);stroke:none;stroke-width:1.0;" d="M523.980 124.680 L524.460 124.680 L524.460 219.180 L523.980 219.180 L523.980 124.680 "/>
  <path style="fill:rgb(0,0,0);stroke:none;stroke-width:1.0;" d="M523.980 124.200 L524.460 124.200 L524.460 124.680 L523.980 124.680 L523.980 124.200 "/>
  <path style="fill:rgb(0,0,0);stroke:none;stroke-width:1.0;" d="M523.980 124.200 L524.460 124.200 L524.460 124.680 L523.980 124.680 L523.980 124.200 "/>
 </g>
</svg>
