<?xml version="1.0" encoding="UTF-8"?>
<svg height="627.9044649949999" width="536.2" xmlns="http://www.w3.org/2000/svg">
 <g id="page" xmlns:svgx="http://www.xml-cml.org/schema/svgx">
  <g begin="text">
   <text y="98.9" x="161.42,172.943,181.817,189.845,198.719,204.033,211.119,218.206,222.132,230.16,238.188" svgx:width="0.72,0.56,0.5,0.56,0.33,0.44,0.44,0.25,0.5,0.5,0.33" style="fill:rgb(0,0,0);font-family:TimesNewRomanPS-BoldMT;font-size:15.96px;stroke:none;">Chapter 15:</text>
  </g>
  <g begin="text">
   <text y="98.9" x="243.65" svgx:width="0.28" style="fill:rgb(0,0,0);font-family:Arial-BoldMT;font-size:15.96px;stroke:none;"> </text>
  </g>
  <g begin="text">
   <text y="98.9" x="269.45,275.658,284.532,292.592,299.678,305.887,311.201,324.496,331.582,340.456,345.771,349.713,357.741,366.614,375.6,379.59,389.389,393.826,402.7,410.728,419.602,426.688" svgx:width="0.39,0.56,0.5,0.44,0.39,0.33,0.83,0.44,0.56,0.33,0.25,0.5,0.56,0.56,0.25,0.61,0.28,0.56,0.5,0.56,0.44,0.44" style="fill:rgb(0,0,0);font-family:TimesNewRomanPS-BoldMT;font-size:15.96px;stroke:none;">Investment and Finance</text>
  </g>
  <g begin="text">
   <text y="98.9" x="433.9" svgx:width="0.25" style="fill:rgb(0,0,0);font-family:TimesNewRomanPS-BoldMT;font-size:15.96px;stroke:none;"> </text>
  </g>
  <g begin="text">
   <text y="98.9" x="48.36" svgx:width="0.51" style="fill:rgb(0,0,0);font-family:Calibri;font-size:11.04px;stroke:none;">1</text>
  </g>
  <g begin="text">
   <text y="98.9" x="54.024" svgx:width="0.23" style="fill:rgb(0,0,0);font-family:Calibri;font-size:11.04px;stroke:none;"> </text>
  </g>
  <g begin="text">
   <text y="122.18" x="48.36" svgx:width="0.51" style="fill:rgb(0,0,0);font-family:Calibri;font-size:11.04px;stroke:none;">2</text>
  </g>
  <g begin="text">
   <text y="122.18" x="54.024" svgx:width="0.23" style="fill:rgb(0,0,0);font-family:Calibri;font-size:11.04px;stroke:none;"> </text>
  </g>
  <g begin="text">
   <text y="143.9" x="72.024,79.94,85.46,90.98,95.881,102.02,105.133,111.271,116.648,120.357,123.47,129.609,135.129,137.889,145.076,149.977,155.497,161.636,164.396,172.311,178.45,182.126,188.264,193.674,198.576" svgx:width="0.72,0.5,0.5,0.44,0.56,0.28,0.56,0.5,0.33,0.28,0.56,0.5,0.25,0.67,0.44,0.5,0.56,0.25,0.72,0.56,0.33,0.56,0.5,0.44,0.39" style="fill:rgb(0,0,0);font-family:TimesNewRomanPS-BoldMT;font-size:11.04px;stroke:none;">Coordinating Lead Authors</text>
  </g>
  <g begin="text">
   <text y="143.9" x="202.97" svgx:width="0.33" style="fill:rgb(0,0,0);font-family:TimesNewRomanPS-BoldMT;font-size:11.04px;stroke:none;">:</text>
  </g>
  <g begin="text">
   <text y="143.9" x="206.69" svgx:width="0.25" style="fill:rgb(0,0,0);font-family:TimesNewRomanPSMT;font-size:11.04px;stroke:none;"> </text>
  </g>
  <g begin="text">
   <text y="143.9" x="209.45,215.445,218.558,221.671,227.07,230.183,235.085,237.845,245.661,249.371,254.272,257.286,262.806,265.92,270.722,276.242,279.355,281.994,285.703,293.619,298.521,302.142,310.775,315.578,321.098,326.617,330.327,333.087" svgx:width="0.56,0.28,0.28,0.5,0.28,0.44,0.25,0.72,0.33,0.44,0.28,0.5,0.28,0.44,0.5,0.28,0.25,0.33,0.72,0.44,0.33,0.78,0.44,0.5,0.5,0.33,0.25,0.25" style="fill:rgb(0,0,0);font-family:TimesNewRomanPSMT;font-size:11.04px;stroke:none;">Silvia Kreibiehl (Germany), </text>
  </g>
  <g begin="text">
   <text y="143.9" x="335.95,342.695,347.465,352.366,355.126,363.097,368.617,374.137,379.657,382.417,386.579,392.099,397.619,403.139,405.899,409.609,416.807,421.709,427.229,432.749,438.169,441.283,444.396,449.298,451.958,457.478,461.188,463.948,471.863,477.262,480.971,485.873,490.687,494.396,497.156" svgx:width="0.61,0.44,0.44,0.25,0.72,0.5,0.5,0.5,0.25,0.39,0.5,0.5,0.5,0.25,0.33,0.67,0.44,0.5,0.5,0.5,0.28,0.28,0.44,0.25,0.5,0.33,0.25,0.72,0.5,0.33,0.44,0.44,0.33,0.25,0.25" style="fill:rgb(0,0,0);font-family:TimesNewRomanPSMT;font-size:11.04px;stroke:none;">Tae Yong Jung (Republic of Korea), </text>
  </g>
  <g begin="text">
   <text y="143.9" x="48.36" svgx:width="0.51" style="fill:rgb(0,0,0);font-family:Calibri;font-size:11.04px;stroke:none;">3</text>
  </g>
  <g begin="text">
   <text y="143.9" x="54.024" svgx:width="0.23" style="fill:rgb(0,0,0);font-family:Calibri;font-size:11.04px;stroke:none;"> </text>
  </g>
  <g begin="text">
   <text y="165.5" x="72.024,79.343,84.245,89.765,95.903,99.37,107.286,113.424,117.1,123.239,128.648,133.55" svgx:width="0.67,0.44,0.5,0.56,0.25,0.72,0.56,0.33,0.56,0.5,0.44,0.39" style="fill:rgb(0,0,0);font-family:TimesNewRomanPS-BoldMT;font-size:11.04px;stroke:none;">Lead Authors</text>
  </g>
  <g begin="text">
   <text y="165.5" x="137.9" svgx:width="0.33" style="fill:rgb(0,0,0);font-family:TimesNewRomanPS-BoldMT;font-size:11.04px;stroke:none;">:</text>
  </g>
  <g begin="text">
   <text y="165.5" x="141.5" svgx:width="0.25" style="fill:rgb(0,0,0);font-family:TimesNewRomanPSMT;font-size:11.04px;stroke:none;"> </text>
  </g>
  <g begin="text">
   <text y="165.5" x="144.98,151.118,154.099,159.001,162.732,167.535,173.055,178.575,182.041,189.361,194.163,197.276,200.279,203.393,207.687,210.712,216.232" svgx:width="0.56,0.28,0.44,0.33,0.44,0.5,0.5,0.25,0.67,0.44,0.28,0.28,0.28,0.39,0.28,0.5,0.5" style="fill:rgb(0,0,0);font-family:TimesNewRomanPSMT;font-size:11.04px;stroke:none;">Stefano Battiston</text>
  </g>
  <g begin="text">
   <text y="165.5" x="221.81" svgx:width="0.25" style="fill:rgb(0,0,0);font-family:TimesNewRomanPSMT;font-size:11.04px;stroke:none;"> </text>
  </g>
  <g begin="text">
   <text y="165.5" x="225.17,228.879,232.478,235.592,240.394,243.507,249.027,252.737,255.375,258.842,264.98,269.882,275.281,278.394,283.914" svgx:width="0.33,0.33,0.28,0.44,0.28,0.5,0.33,0.25,0.25,0.56,0.44,0.5,0.28,0.5,0.25" style="fill:rgb(0,0,0);font-family:TimesNewRomanPSMT;font-size:11.04px;stroke:none;">(Italy), Pablo </text>
  </g>
  <g begin="text">
   <text y="165.5" x="287.47,294.072,298.367,301.391,306.293,311.813,316.627,322.147" svgx:width="0.61,0.39,0.28,0.44,0.5,0.44,0.5,0.25" style="fill:rgb(0,0,0);font-family:TimesNewRomanPSMT;font-size:11.04px;stroke:none;">Esteban </text>
  </g>
  <g begin="text">
   <text y="165.5" x="325.63,332.949,337.851,341.583,346.981,351.883,354.897,359.799,362.813" svgx:width="0.67,0.44,0.33,0.5,0.44,0.28,0.44,0.28,0.25" style="fill:rgb(0,0,0);font-family:TimesNewRomanPSMT;font-size:11.04px;stroke:none;">Carvajal </text>
  </g>
  <g begin="text">
   <text y="165.5" x="366.31,370.019,376.765,381.534,387.054,391.956,397.476,402.897" svgx:width="0.33,0.61,0.44,0.5,0.44,0.5,0.5,0.33" style="fill:rgb(0,0,0);font-family:TimesNewRomanPSMT;font-size:11.04px;stroke:none;">(Ecuador</text>
  </g>
  <g begin="text">
   <text y="165.5" x="406.66,410.369,413.008" svgx:width="0.33,0.25,0.25" style="fill:rgb(0,0,0);font-family:TimesNewRomanPSMT;font-size:11.04px;stroke:none;">), </text>
  </g>
  <g begin="text">
   <text y="165.5" x="416.5,423.819,429.339,432.939" svgx:width="0.67,0.5,0.33,0.28" style="fill:rgb(0,0,0);font-family:TimesNewRomanPSMT;font-size:11.04px;stroke:none;">Chri</text>
  </g>
  <g begin="text">
   <text y="165.5" x="435.94,440.235,443.37,448.172,451.639,458.958,462.072,466.973,472.394,477.914,481.259,484.969,492.884,498.404,502.114,510.029,514.931,520.352" svgx:width="0.39,0.28,0.44,0.25,0.67,0.28,0.44,0.5,0.5,0.25,0.33,0.72,0.5,0.33,0.72,0.44,0.5,0.28" style="fill:rgb(0,0,0);font-family:TimesNewRomanPSMT;font-size:11.04px;stroke:none;">sta Clapp (Norway/</text>
  </g>
  <g begin="text">
   <text y="165.5" x="523.44" svgx:width="0.25" style="fill:rgb(0,0,0);font-family:TimesNewRomanPSMT;font-size:11.04px;stroke:none;"> </text>
  </g>
  <g begin="text">
   <text y="165.5" x="48.36" svgx:width="0.51" style="fill:rgb(0,0,0);font-family:Calibri;font-size:11.04px;stroke:none;">4</text>
  </g>
  <g begin="text">
   <text y="165.5" x="54.024" svgx:width="0.23" style="fill:rgb(0,0,0);font-family:Calibri;font-size:11.04px;stroke:none;"> </text>
  </g>
  <g begin="text">
   <text y="179.18" x="72.024,75.137,80.657,85.559" svgx:width="0.28,0.5,0.44,0.25" style="fill:rgb(0,0,0);font-family:TimesNewRomanPSMT;font-size:11.04px;stroke:none;">the </text>
  </g>
  <g begin="text">
   <text y="179.18" x="87.864,95.78,101.3,104.303,107.416,112.318,117.838,120.134,126.129,129.242,134.044,137.158,142.059,146.387,148.672,154.071,157.78,160.066,167.981,176.504,181.406,185.027,188.14,192.943" svgx:width="0.72,0.5,0.28,0.28,0.44,0.5,0.25,0.56,0.28,0.44,0.28,0.44,0.39,0.25,0.5,0.33,0.25,0.72,0.78,0.44,0.33,0.28,0.44,0.44" style="fill:rgb(0,0,0);font-family:TimesNewRomanPSMT;font-size:11.04px;stroke:none;">United States of America</text>
  </g>
  <g begin="text">
   <text y="179.18" x="197.93,201.639,204.399,206.685,214.6,217.714,223.112,228.014,233.534,235.83,243.746" svgx:width="0.33,0.25,0.25,0.72,0.28,0.5,0.44,0.5,0.25,0.72,0.44" style="fill:rgb(0,0,0);font-family:TimesNewRomanPSMT;font-size:11.04px;stroke:none;">), Dipak Da</text>
  </g>
  <g begin="text">
   <text y="179.18" x="248.69,252.985,258.505,263.925,269.445,272.558,277.46,279.635,283.345,286.944,292.464,297.984,301.097,305.899,309.609,312.369" svgx:width="0.39,0.5,0.5,0.5,0.28,0.44,0.25,0.33,0.33,0.5,0.5,0.28,0.44,0.33,0.25,0.25" style="fill:rgb(0,0,0);font-family:TimesNewRomanPSMT;font-size:11.04px;stroke:none;">sgupta (India), </text>
  </g>
  <g begin="text">
   <text y="179.18" x="314.59,322.506,328.026,333.546,339.066,342.179,347.699,353.097,356.211,361.113,363.409,371.324,376.844,382.364,387.266,389.441,393.151,399.896,402.866,411.499,417.019,421.821,427.341,435.257" svgx:width="0.72,0.5,0.5,0.5,0.28,0.5,0.5,0.28,0.44,0.25,0.72,0.5,0.5,0.44,0.25,0.33,0.61,0.28,0.78,0.5,0.44,0.5,0.72,0.44" style="fill:rgb(0,0,0);font-family:TimesNewRomanPSMT;font-size:11.04px;stroke:none;">Nokuthula Dube (Zimbabwe</text>
  </g>
  <g begin="text">
   <text y="179.18" x="440.26" svgx:width="0.28" style="fill:rgb(0,0,0);font-family:TimesNewRomanPSMT;font-size:11.04px;stroke:none;">/</text>
  </g>
  <g begin="text">
   <text y="179.18" x="443.38,451.296,456.816,459.819,462.932,467.834,473.354,475.65,483.455,486.568,492.088,497.608,503.128,508.527" svgx:width="0.72,0.5,0.28,0.28,0.44,0.5,0.25,0.72,0.28,0.5,0.5,0.5,0.5,0.78" style="fill:rgb(0,0,0);font-family:TimesNewRomanPSMT;font-size:11.04px;stroke:none;">United Kingdom</text>
  </g>
  <g begin="text">
   <text y="179.18" x="517.2,520.909,523.427" svgx:width="0.33,0.25,0.25" style="fill:rgb(0,0,0);font-family:TimesNewRomanPSMT;font-size:11.04px;stroke:none;">), </text>
  </g>
  <g begin="text">
   <text y="179.18" x="48.36" svgx:width="0.51" style="fill:rgb(0,0,0);font-family:Calibri;font-size:11.04px;stroke:none;">5</text>
  </g>
  <g begin="text">
   <text y="179.18" x="54.024" svgx:width="0.23" style="fill:rgb(0,0,0);font-family:Calibri;font-size:11.04px;stroke:none;"> </text>
  </g>
  <g begin="text">
   <text y="192.74" x="72.024,79.343,84.245,89.765,95.285,100.209,105.012,108.125,110.885,113.998,118.293,123.117,128.019,133.539,139.059,142.073,147.593,150.35299999999998,153.466,157.176,163.17,166.88,171.781,177.301,182.115,187.017" svgx:width="0.67,0.44,0.5,0.5,0.44,0.44,0.28,0.25,0.55,0.39,0.44,0.44,0.5,0.5,0.28,0.5,0.25,0.55,0.33,0.56,0.33,0.44,0.5,0.44,0.44,0.33" style="fill:rgb(0,0,0);font-family:TimesNewRomanPSMT;font-size:11.04px;stroke:none;">Raphaël Jachnik (France)</text>
  </g>
  <g begin="text">
   <text y="192.74" x="190.85,193.489,196.249,199.362,207.277,212.179,217.699,222.623,228.143,233.663,236.423,239.536,249.252,254.772,258.371,261.484,264.597,269.499,272.259,275.262,278.971,283.266,288.09,293.61,298.512,303.933,307.642,310.402,313.162,316.154,324.07,328.971,334.491,337.616,342.518,345.27799999999996,348.402,354.54,359.32,367.954,372.756,376.466,381.986,386.788,392.308,397.828,400.941,403.70099999999996,406.693,410.403,416.541,421.443,426.963,432.361,435.364,438.12399999999997,441.237,449.153,452.862,457.764,463.284,466.298,471.2" svgx:width="0.25,0.25,0.55,0.72,0.44,0.5,0.44,0.5,0.5,0.25,0.55,0.89,0.5,0.33,0.28,0.28,0.44,0.25,0.55,0.33,0.39,0.44,0.5,0.44,0.5,0.33,0.25,0.25,0.55,0.72,0.44,0.5,0.28,0.44,0.25,0.55,0.56,0.44,0.78,0.44,0.33,0.5,0.44,0.5,0.5,0.28,0.25,0.55,0.33,0.56,0.44,0.5,0.5,0.28,0.25,0.55,0.72,0.33,0.44,0.5,0.28,0.44,0.33" style="fill:rgb(0,0,0);font-family:TimesNewRomanPSMT;font-size:11.04px;stroke:none;">, Kanako Morita (Japan), Nahla Samargandi (Saudi Arabia)</text>
  </g>
  <g begin="text">
   <text y="192.74" x="475.18,477.94" svgx:width="0.25,0.25" style="fill:rgb(0,0,0);font-family:TimesNewRomanPSMT;font-size:11.04px;stroke:none;">, </text>
  </g>
  <g begin="text">
   <text y="192.74" x="483.7,493.515,498.449,502.048,505.162,509.964,518.597,523.4" svgx:width="0.89,0.44,0.33,0.28,0.44,0.78,0.44,0.25" style="fill:rgb(0,0,0);font-family:TimesNewRomanPSMT;font-size:11.04px;stroke:none;">Mariama </text>
  </g>
  <g begin="text">
   <text y="192.74" x="48.36" svgx:width="0.51" style="fill:rgb(0,0,0);font-family:Calibri;font-size:11.04px;stroke:none;">6</text>
  </g>
  <g begin="text">
   <text y="192.74" x="54.024" svgx:width="0.23" style="fill:rgb(0,0,0);font-family:Calibri;font-size:11.04px;stroke:none;"> </text>
  </g>
  <g begin="text">
   <text y="206.42" x="72.024,82.446,85.46,88.573,91.576,94.689,99.492,108.125,112.419,115.179,118.801,123.095,127.92,136.553,141.355,144.469,149.37,154.184" svgx:width="0.94,0.28,0.28,0.28,0.28,0.44,0.78,0.39,0.25,0.33,0.39,0.44,0.78,0.44,0.28,0.44,0.44,0.28" style="fill:rgb(0,0,0);font-family:TimesNewRomanPSMT;font-size:11.04px;stroke:none;">Williams (Jamaica/</text>
  </g>
  <g begin="text">
   <text y="206.42" x="157.34,160.46" svgx:width="0.28,0.5" style="fill:rgb(0,0,0);font-family:TimesNewRomanPSMT;font-size:11.04px;stroke:none;">th</text>
  </g>
  <g begin="text">
   <text y="206.42" x="165.86,170.78" svgx:width="0.44,0.25" style="fill:rgb(0,0,0);font-family:TimesNewRomanPSMT;font-size:11.04px;stroke:none;">e </text>
  </g>
  <g begin="text">
   <text y="206.42" x="173.57,181.486,187.006,190.009,193.011,197.913,203.433" svgx:width="0.72,0.5,0.28,0.28,0.44,0.5,0.25" style="fill:rgb(0,0,0);font-family:TimesNewRomanPSMT;font-size:11.04px;stroke:none;">United </text>
  </g>
  <g begin="text">
   <text y="206.42" x="206.21,212.348,215.417,220.253,223.366,228.169,232.463,235.223,240.743,244.475,247.235,255.04,263.673,268.476,272.185,275.298,280.101,285.003" svgx:width="0.56,0.28,0.44,0.28,0.44,0.39,0.25,0.5,0.33,0.25,0.72,0.78,0.44,0.33,0.28,0.44,0.44,0.33" style="fill:rgb(0,0,0);font-family:TimesNewRomanPSMT;font-size:11.04px;stroke:none;">States of America)</text>
  </g>
  <g begin="text">
   <text y="206.42" x="288.67" svgx:width="0.25" style="fill:rgb(0,0,0);font-family:TimesNewRomanPSMT;font-size:11.04px;stroke:none;"> </text>
  </g>
  <g begin="text">
   <text y="206.42" x="48.36" svgx:width="0.51" style="fill:rgb(0,0,0);font-family:Calibri;font-size:11.04px;stroke:none;">7</text>
  </g>
  <g begin="text">
   <text y="206.42" x="54.024" svgx:width="0.23" style="fill:rgb(0,0,0);font-family:Calibri;font-size:11.04px;stroke:none;"> </text>
  </g>
  <g begin="text">
   <text y="228.14" x="72.024,79.94,85.46,91.598,95.274,100.209,103.322,109.461,115.444,119.154,122.267,128.405,133.925,136.685,137.855,145.771,151.766,155.475,161.614,167.134,172.035" svgx:width="0.72,0.5,0.56,0.33,0.44,0.28,0.56,0.56,0.33,0.28,0.56,0.5,0.25,0.55,0.72,0.56,0.33,0.56,0.5,0.44,0.39" style="fill:rgb(0,0,0);font-family:TimesNewRomanPS-BoldMT;font-size:11.04px;stroke:none;">Contributing Authors</text>
  </g>
  <g begin="text">
   <text y="228.14" x="176.33" svgx:width="0.33" style="fill:rgb(0,0,0);font-family:TimesNewRomanPS-BoldMT;font-size:11.04px;stroke:none;">:</text>
  </g>
  <g begin="text">
   <text y="228.14" x="180.05" svgx:width="0.25" style="fill:rgb(0,0,0);font-family:TimesNewRomanPSMT;font-size:11.04px;stroke:none;"> </text>
  </g>
  <g begin="text">
   <text y="228.14" x="184.01,193.725,199.245,202.955,206.068,210.87,219.504,222.26399999999998,223.456,230.775,235.677,240.491,246.011,249.124,254.522,257.636,263.034,266.148,268.908,270.1,273.809,281.725,286.627,290.248,298.881,303.684,309.204,314.602,318.312,321.072" svgx:width="0.89,0.5,0.33,0.28,0.44,0.78,0.25,0.55,0.67,0.44,0.44,0.5,0.28,0.5,0.28,0.5,0.28,0.25,0.55,0.33,0.72,0.44,0.33,0.78,0.44,0.5,0.5,0.33,0.25,0.25" style="fill:rgb(0,0,0);font-family:TimesNewRomanPSMT;font-size:11.04px;stroke:none;">Myriam Bechtoldt (Germany), </text>
  </g>
  <g begin="text">
   <text y="228.14" x="325.15,332.469,337.989,341.699,344.702,348.996,352.132,357.53,363.05,368.57,371.33,372.523,379.842,384.744,388.365,391.478,395.077,399.979,408.623,411.383,412.454,416.164,424.079,428.981,432.602,441.236,446.137,451.657,457.078,460.787,463.547" svgx:width="0.67,0.5,0.33,0.28,0.39,0.28,0.5,0.5,0.5,0.25,0.55,0.67,0.44,0.33,0.28,0.33,0.44,0.78,0.25,0.55,0.33,0.72,0.44,0.33,0.78,0.44,0.5,0.5,0.33,0.25,0.25" style="fill:rgb(0,0,0);font-family:TimesNewRomanPSMT;font-size:11.04px;stroke:none;">Christoph Bertram (Germany), </text>
  </g>
  <g begin="text">
   <text y="228.14" x="467.62,474.365,477.335,480.448,483.451,488.353,491.113,492.316,499.636,504.538,507.662,512.464,517.984,523.383" svgx:width="0.61,0.28,0.28,0.28,0.44,0.25,0.55,0.67,0.44,0.28,0.44,0.5,0.5,0.25" style="fill:rgb(0,0,0);font-family:TimesNewRomanPSMT;font-size:11.04px;stroke:none;">Lilia Caiado </text>
  </g>
  <g begin="text">
   <text y="228.14" x="48.36" svgx:width="0.51" style="fill:rgb(0,0,0);font-family:Calibri;font-size:11.04px;stroke:none;">8</text>
  </g>
  <g begin="text">
   <text y="228.14" x="54.024" svgx:width="0.23" style="fill:rgb(0,0,0);font-family:Calibri;font-size:11.04px;stroke:none;"> </text>
  </g>
  <g begin="text">
   <text y="241.73" x="72.024,79.343,84.863,90.383,93.497,99.017,101.534,105.243,112.441,116.151,121.053,125.866,128.979,131.982,135.692,138.452" svgx:width="0.67,0.5,0.5,0.28,0.5,0.25,0.33,0.67,0.33,0.44,0.44,0.28,0.28,0.33,0.25,0.25" style="fill:rgb(0,0,0);font-family:TimesNewRomanPSMT;font-size:11.04px;stroke:none;">Couto (Brazil), </text>
  </g>
  <g begin="text">
   <text y="241.73" x="141.02,145.215,150.117,155.041" svgx:width="0.39,0.44,0.44,0.5" style="fill:rgb(0,0,0);font-family:TimesNewRomanPSMT;font-size:11.04px;stroke:none;">Jean</text>
  </g>
  <g begin="text">
   <text y="241.73" x="160.58" svgx:width="0.33" style="fill:rgb(0,0,0);font-family:TimesNewRomanPSMT;font-size:11.04px;stroke:none;">-</text>
  </g>
  <g begin="text">
   <text y="241.73" x="164.18,170.318,173.995,178.929,184.328,189.23,194.65,197.764,202.058,204.608,214.324,219.225,222.957,227.759,233.279,236.989,241.891,244.308,248.018" svgx:width="0.56,0.33,0.44,0.5,0.44,0.5,0.28,0.39,0.25,0.89,0.44,0.33,0.44,0.5,0.33,0.44,0.25,0.33,0.72" style="fill:rgb(0,0,0);font-family:TimesNewRomanPSMT;font-size:11.04px;stroke:none;">Francois Mercure (U</text>
  </g>
  <g begin="text">
   <text y="241.73" x="256.01,261.53,264.533,267.646,272.548,278.068" svgx:width="0.5,0.28,0.28,0.44,0.5,0.25" style="fill:rgb(0,0,0);font-family:TimesNewRomanPSMT;font-size:11.04px;stroke:none;">nited </text>
  </g>
  <g begin="text">
   <text y="241.73" x="280.61" svgx:width="0.72" style="fill:rgb(0,0,0);font-family:TimesNewRomanPSMT;font-size:11.04px;stroke:none;">K</text>
  </g>
  <g begin="text">
   <text y="241.73" x="288.43,291.543,297.063,302.583,308.103,313.502" svgx:width="0.28,0.5,0.5,0.5,0.5,0.78" style="fill:rgb(0,0,0);font-family:TimesNewRomanPSMT;font-size:11.04px;stroke:none;">ingdom</text>
  </g>
  <g begin="text">
   <text y="241.73" x="322.15" svgx:width="0.33" style="fill:rgb(0,0,0);font-family:TimesNewRomanPSMT;font-size:11.04px;stroke:none;">)</text>
  </g>
  <g begin="text">
   <text y="241.73" x="325.87,328.63,331.147,337.142,342.044,347.564,353.084,357.301,360.414,362.931,372.746,378.166,383.686,388.489,397.122,402.024,407.544,410.083,417.999,423.397,426.511,431.412,435.034,439.935,442.475,446.184,454.1,457.213,462.611,467.513,471.134,474.248,479.149,482.881" svgx:width="0.25,0.25,0.56,0.44,0.5,0.5,0.39,0.28,0.25,0.89,0.5,0.5,0.44,0.78,0.44,0.5,0.25,0.72,0.5,0.28,0.44,0.33,0.44,0.25,0.33,0.72,0.28,0.5,0.44,0.33,0.28,0.44,0.33,0.25" style="fill:rgb(0,0,0);font-family:TimesNewRomanPSMT;font-size:11.04px;stroke:none;">, Sanusi Mohamed Ohiare (Nigeria),</text>
  </g>
  <g begin="text">
   <text y="241.73" x="485.74" svgx:width="0.25" style="fill:rgb(0,0,0);font-family:TimesNewRomanPSMT;font-size:11.04px;stroke:none;"> </text>
  </g>
  <g begin="text">
   <text y="241.73" x="488.14,497.955,502.889,508.288,513.19,517.407,520.41,523.413" svgx:width="0.89,0.44,0.5,0.44,0.39,0.28,0.28,0.25" style="fill:rgb(0,0,0);font-family:TimesNewRomanPSMT;font-size:11.04px;stroke:none;">Mahesti </text>
  </g>
  <g begin="text">
   <text y="241.73" x="48.36" svgx:width="0.51" style="fill:rgb(0,0,0);font-family:Calibri;font-size:11.04px;stroke:none;">9</text>
  </g>
  <g begin="text">
   <text y="241.73" x="54.024" svgx:width="0.23" style="fill:rgb(0,0,0);font-family:Calibri;font-size:11.04px;stroke:none;"> </text>
  </g>
  <g begin="text">
   <text y="255.41" x="72.024,79.94,85.46,88.573,91.686,96.489,100.783,105.718,109.317,112.43,115.422" svgx:width="0.72,0.5,0.28,0.28,0.44,0.39,0.44,0.33,0.28,0.25,0.33" style="fill:rgb(0,0,0);font-family:TimesNewRomanPSMT;font-size:11.04px;stroke:none;">Okitasari (</text>
  </g>
  <g begin="text">
   <text y="255.41" x="119.06,123.355,128.289,133.688,138.59,144.11,147.234,150.833,156.353,161.873,167.393,172.792,177.694,182.021,185.024" svgx:width="0.39,0.44,0.5,0.44,0.5,0.28,0.33,0.5,0.5,0.5,0.5,0.44,0.39,0.28,0.44" style="fill:rgb(0,0,0);font-family:TimesNewRomanPSMT;font-size:11.04px;stroke:none;">Japan/Indonesia</text>
  </g>
  <g begin="text">
   <text y="255.41" x="190.01,193.609,196.369" svgx:width="0.33,0.25,0.25" style="fill:rgb(0,0,0);font-family:TimesNewRomanPSMT;font-size:11.04px;stroke:none;">), </text>
  </g>
  <g begin="text">
   <text y="255.41" x="199.37,206.115,211.017,219.529,222.642,228.162,232.457,237.878,242.779,245.782,251.92,254.99,260.51,265.941,271.461" svgx:width="0.61,0.44,0.78,0.28,0.5,0.39,0.5,0.44,0.25,0.56,0.28,0.5,0.5,0.5,0.25" style="fill:rgb(0,0,0);font-family:TimesNewRomanPSMT;font-size:11.04px;stroke:none;">Tamiksha Singh </text>
  </g>
  <g begin="text">
   <text y="255.41" x="274.49,278.199,281.798,287.318,292.838,295.841" svgx:width="0.33,0.33,0.5,0.5,0.28,0.44" style="fill:rgb(0,0,0);font-family:TimesNewRomanPSMT;font-size:11.04px;stroke:none;">(India</text>
  </g>
  <g begin="text">
   <text y="255.41" x="300.79,304.499,307.259" svgx:width="0.33,0.25,0.25" style="fill:rgb(0,0,0);font-family:TimesNewRomanPSMT;font-size:11.04px;stroke:none;">), </text>
  </g>
  <g begin="text">
   <text y="255.41" x="310.15,318.066,322.967,327.891,331.005,333.996,340.135,345.655,351.031,355.933,361.453,364.456" svgx:width="0.72,0.44,0.44,0.28,0.25,0.56,0.5,0.5,0.44,0.5,0.25,0.33" style="fill:rgb(0,0,0);font-family:TimesNewRomanPSMT;font-size:11.04px;stroke:none;">Kazi Sohag (</text>
  </g>
  <g begin="text">
   <text y="255.41" x="368.11,371.223,376.743,381.645" svgx:width="0.28,0.5,0.44,0.25" style="fill:rgb(0,0,0);font-family:TimesNewRomanPSMT;font-size:11.04px;stroke:none;">the </text>
  </g>
  <g begin="text">
   <text y="255.41" x="384.67,391.99,397.509,401.705,405.999,409.024,413.926,419.446,422.449,428.444,433.345,438.865,443.789,447.388,452.29,455.304,458.417,463.937" svgx:width="0.67,0.5,0.39,0.39,0.28,0.44,0.5,0.25,0.56,0.44,0.5,0.44,0.33,0.44,0.28,0.28,0.5,0.5" style="fill:rgb(0,0,0);font-family:TimesNewRomanPSMT;font-size:11.04px;stroke:none;">Russian Federation</text>
  </g>
  <g begin="text">
   <text y="255.41" x="469.54,473.139,475.899" svgx:width="0.33,0.25,0.25" style="fill:rgb(0,0,0);font-family:TimesNewRomanPSMT;font-size:11.04px;stroke:none;">), </text>
  </g>
  <g begin="text">
   <text y="255.41" x="478.9,488.715,494.235,499.655,504.557,513.091,517.993,523.413" svgx:width="0.89,0.5,0.5,0.44,0.78,0.44,0.5,0.25" style="fill:rgb(0,0,0);font-family:TimesNewRomanPSMT;font-size:11.04px;stroke:none;">Mohamed </text>
  </g>
  <g begin="text">
   <text y="255.41" x="42.72,48.36" svgx:width="0.51,0.51" style="fill:rgb(0,0,0);font-family:Calibri;font-size:11.04px;stroke:none;">10</text>
  </g>
  <g begin="text">
   <text y="255.41" x="54.024" svgx:width="0.23" style="fill:rgb(0,0,0);font-family:Calibri;font-size:11.04px;stroke:none;"> </text>
  </g>
  <g begin="text">
   <text y="269.09" x="72.024,79.94,85.46,90.98,96.5,101.401,104.161,110.3,115.82,121.34,126.86,132.258,137.16,139.92,143.541,153.356,158.18,161.293,164.296,168.006,170.766" svgx:width="0.72,0.5,0.5,0.5,0.44,0.25,0.56,0.5,0.5,0.5,0.5,0.44,0.25,0.33,0.89,0.44,0.28,0.28,0.33,0.25,0.25" style="fill:rgb(0,0,0);font-family:TimesNewRomanPSMT;font-size:11.04px;stroke:none;">Youba Sokona (Mali), </text>
  </g>
  <g begin="text">
   <text y="269.09" x="173.57,181.486,187.006,190.605,195.506,200.43,205.95,208.71,214.849,217.829,222.731,228.251,231.265,236.785,241.08,246.6,252.12,254.78" svgx:width="0.72,0.5,0.33,0.44,0.44,0.5,0.25,0.56,0.28,0.44,0.5,0.28,0.5,0.39,0.5,0.5,0.25,0.33" style="fill:rgb(0,0,0);font-family:TimesNewRomanPSMT;font-size:11.04px;stroke:none;">Doreen Stabinsky (</text>
  </g>
  <g begin="text">
   <text y="269.09" x="258.53,261.643,267.042,271.944" svgx:width="0.28,0.5,0.44,0.25" style="fill:rgb(0,0,0);font-family:TimesNewRomanPSMT;font-size:11.04px;stroke:none;">the </text>
  </g>
  <g begin="text">
   <text y="269.09" x="274.73" svgx:width="0.72" style="fill:rgb(0,0,0);font-family:TimesNewRomanPSMT;font-size:11.04px;stroke:none;">U</text>
  </g>
  <g begin="text">
   <text y="269.09" x="282.67,288.19,291.193,294.306,299.208,304.728" svgx:width="0.5,0.28,0.28,0.44,0.5,0.25" style="fill:rgb(0,0,0);font-family:TimesNewRomanPSMT;font-size:11.04px;stroke:none;">nited </text>
  </g>
  <g begin="text">
   <text y="269.09" x="307.39" svgx:width="0.56" style="fill:rgb(0,0,0);font-family:TimesNewRomanPSMT;font-size:11.04px;stroke:none;">S</text>
  </g>
  <g begin="text">
   <text y="269.09" x="313.51,316.623,321.525,324.539,329.441,333.768,336.528,341.927,345.636" svgx:width="0.28,0.44,0.28,0.44,0.39,0.25,0.5,0.33,0.25" style="fill:rgb(0,0,0);font-family:TimesNewRomanPSMT;font-size:11.04px;stroke:none;">tates of </text>
  </g>
  <g begin="text">
   <text y="269.09" x="348.43" svgx:width="0.72" style="fill:rgb(0,0,0);font-family:TimesNewRomanPSMT;font-size:11.04px;stroke:none;">A</text>
  </g>
  <g begin="text">
   <text y="269.09" x="356.35,364.873,369.775,373.396,376.509,381.411" svgx:width="0.78,0.44,0.33,0.28,0.44,0.44" style="fill:rgb(0,0,0);font-family:TimesNewRomanPSMT;font-size:11.04px;stroke:none;">merica</text>
  </g>
  <g begin="text">
   <text y="269.09" x="386.23" svgx:width="0.33" style="fill:rgb(0,0,0);font-family:TimesNewRomanPSMT;font-size:11.04px;stroke:none;">)</text>
  </g>
  <g begin="text">
   <text y="269.09" x="389.83" svgx:width="0.25" style="fill:rgb(0,0,0);font-family:TimesNewRomanPSMT;font-size:11.04px;stroke:none;"> </text>
  </g>
  <g begin="text">
   <text y="269.09" x="42.72,48.36" svgx:width="0.51,0.51" style="fill:rgb(0,0,0);font-family:Calibri;font-size:11.04px;stroke:none;">11</text>
  </g>
  <g begin="text">
   <text y="269.09" x="54.024" svgx:width="0.23" style="fill:rgb(0,0,0);font-family:Calibri;font-size:11.04px;stroke:none;"> </text>
  </g>
  <g begin="text">
   <text y="290.69" x="72.024,79.94,84.841,90.361,93.486,98.288,106.314,109.074,111.349,118.668,124.663,127.776,131.485,136.884,141.786" svgx:width="0.72,0.44,0.5,0.28,0.44,0.72,0.25,0.55,0.67,0.56,0.28,0.33,0.5,0.44,0.39" style="fill:rgb(0,0,0);font-family:TimesNewRomanPS-BoldMT;font-size:11.04px;stroke:none;">Review Editors</text>
  </g>
  <g begin="text">
   <text y="290.69" x="146.18" svgx:width="0.33" style="fill:rgb(0,0,0);font-family:TimesNewRomanPS-BoldMT;font-size:11.04px;stroke:none;">:</text>
  </g>
  <g begin="text">
   <text y="290.69" x="149.78" svgx:width="0.25" style="fill:rgb(0,0,0);font-family:TimesNewRomanPSMT;font-size:11.04px;stroke:none;"> </text>
  </g>
  <g begin="text">
   <text y="290.69" x="154.82,162.736,171.259,174.372,179.274,184.694,187.45399999999998,189.607,197.523,203.043,208.563,214.083,217.196,220.199,225.101,227.861,230.025,233.734,243.548,248.373,251.486,256.885,259.998,265.518,270.42,274.637,278.347,281.107,283.867,286.019,290.314,295.249,300.151" svgx:width="0.72,0.78,0.28,0.44,0.5,0.25,0.55,0.72,0.5,0.5,0.5,0.28,0.28,0.44,0.25,0.55,0.33,0.89,0.44,0.28,0.5,0.28,0.5,0.44,0.39,0.33,0.25,0.25,0.55,0.39,0.44,0.44,0.5" style="fill:rgb(0,0,0);font-family:TimesNewRomanPSMT;font-size:11.04px;stroke:none;">Amjad Abdulla (Maldives), Jean</text>
  </g>
  <g begin="text">
   <text y="290.69" x="305.83" svgx:width="0.33" style="fill:rgb(0,0,0);font-family:TimesNewRomanPSMT;font-size:11.04px;stroke:none;">-</text>
  </g>
  <g begin="text">
   <text y="290.69" x="309.31,316.629,322.149,327.051,330.783,333.786,338.687,343.015,345.775,348.049,355.965,361.485,366.884,370.593,375.396,380.297,385.817,390.741,393.501,395.654,399.363,405.502,409.079,413.98,419.5,424.424,429.227" svgx:width="0.67,0.5,0.44,0.33,0.28,0.44,0.39,0.25,0.55,0.72,0.5,0.5,0.33,0.44,0.44,0.5,0.44,0.25,0.55,0.33,0.56,0.33,0.44,0.5,0.44,0.44,0.33" style="fill:rgb(0,0,0);font-family:TimesNewRomanPSMT;font-size:11.04px;stroke:none;">Charles Hourcade (France)</text>
  </g>
  <g begin="text">
   <text y="290.69" x="433.06,435.82,438.58,440.854,450.569,455.471,459.092,462.206,467.107,469.867,472.031,476.326,481.846,486.074,490.976,493.736,496.021,502.767,508.287,513.663,518.565,523.378" svgx:width="0.25,0.25,0.55,0.89,0.44,0.33,0.28,0.44,0.25,0.55,0.39,0.5,0.39,0.44,0.25,0.55,0.61,0.5,0.5,0.44,0.44,0.25" style="fill:rgb(0,0,0);font-family:TimesNewRomanPSMT;font-size:11.04px;stroke:none;">, Maria Jose Lopez </text>
  </g>
  <g begin="text">
   <text y="290.69" x="42.72,48.36" svgx:width="0.51,0.51" style="fill:rgb(0,0,0);font-family:Calibri;font-size:11.04px;stroke:none;">12</text>
  </g>
  <g begin="text">
   <text y="290.69" x="54.024" svgx:width="0.23" style="fill:rgb(0,0,0);font-family:Calibri;font-size:11.04px;stroke:none;"> </text>
  </g>
  <g begin="text">
   <text y="304.37" x="72.024,75.733,81.872,87.392,92.293,95.296,100.816" svgx:width="0.33,0.56,0.5,0.44,0.28,0.5,0.33" style="fill:rgb(0,0,0);font-family:TimesNewRomanPSMT;font-size:11.04px;stroke:none;">(Spain)</text>
  </g>
  <g begin="text">
   <text y="304.37" x="104.42" svgx:width="0.25" style="fill:rgb(0,0,0);font-family:TimesNewRomanPSMT;font-size:11.04px;stroke:none;"> </text>
  </g>
  <g begin="text">
   <text y="304.37" x="42.72,48.36" svgx:width="0.51,0.51" style="fill:rgb(0,0,0);font-family:Calibri;font-size:11.04px;stroke:none;">13</text>
  </g>
  <g begin="text">
   <text y="304.37" x="54.024" svgx:width="0.23" style="fill:rgb(0,0,0);font-family:Calibri;font-size:11.04px;stroke:none;"> </text>
  </g>
  <g begin="text">
   <text y="325.97" x="72.024,79.94,86.078,91.598,97.703,101.412,106.314,111.238,113.998,115.422,121.56,126.341,129.454,134.356,140.373,144.082,147.085,151.38" svgx:width="0.72,0.56,0.5,0.56,0.33,0.44,0.44,0.25,0.55,0.56,0.44,0.28,0.44,0.56,0.33,0.28,0.39,0.33" style="fill:rgb(0,0,0);font-family:TimesNewRomanPS-BoldMT;font-size:11.04px;stroke:none;">Chapter Scientist</text>
  </g>
  <g begin="text">
   <text y="325.97" x="155.18" svgx:width="0.39" style="fill:rgb(0,0,0);font-family:TimesNewRomanPS-BoldMT;font-size:11.04px;stroke:none;">s</text>
  </g>
  <g begin="text">
   <text y="325.97" x="159.38" svgx:width="0.28" style="fill:rgb(0,0,0);font-family:TimesNewRomanPSMT;font-size:11.04px;stroke:none;">:</text>
  </g>
  <g begin="text">
   <text y="325.97" x="162.5" svgx:width="0.25" style="fill:rgb(0,0,0);font-family:TimesNewRomanPSMT;font-size:11.04px;stroke:none;"> </text>
  </g>
  <g begin="text">
   <text y="325.97" x="166.7,176.415,179.528,184.43,189.851,194.653,199.555,202.679" svgx:width="0.89,0.28,0.44,0.5,0.44,0.44,0.28,0.25" style="fill:rgb(0,0,0);font-family:TimesNewRomanPSMT;font-size:11.04px;stroke:none;">Michael </text>
  </g>
  <g begin="text">
   <text y="325.97" x="206.93,214.846,220.366,225.886,228.889,234.409,237.16899999999998,238.593,242.302,250.218,255.02,258.73,267.253,272.154,277.674,283.194,286.815" svgx:width="0.72,0.5,0.5,0.28,0.5,0.25,0.55,0.33,0.72,0.44,0.33,0.78,0.44,0.5,0.5,0.33,0.25" style="fill:rgb(0,0,0);font-family:TimesNewRomanPSMT;font-size:11.04px;stroke:none;">König (Germany),</text>
  </g>
  <g begin="text">
   <text y="325.97" x="289.63" svgx:width="0.25" style="fill:rgb(0,0,0);font-family:TimesNewRomanPSMT;font-size:11.04px;stroke:none;"> </text>
  </g>
  <g begin="text">
   <text y="325.97" x="293.83,298.125,303.645,309.165,314.585,322.501,328.021,333.541,336.301,337.725,347.54,353.06,358.58,364.1,366.86,368.195,371.905,379.224,384.126,389.646,395.166,400.587,403.7,406.703,411.605,414.365,415.811,421.331,425.04,427.8,429.225,437.03,442.55,446.259,451.161,455.974,459.684,462.444" svgx:width="0.39,0.5,0.5,0.5,0.72,0.5,0.5,0.25,0.55,0.89,0.5,0.5,0.5,0.25,0.55,0.33,0.67,0.44,0.5,0.5,0.5,0.28,0.28,0.44,0.25,0.55,0.5,0.33,0.25,0.55,0.72,0.5,0.33,0.44,0.44,0.33,0.25,0.25" style="fill:rgb(0,0,0);font-family:TimesNewRomanPSMT;font-size:11.04px;stroke:none;">Jongwoo Moon (Republic of Korea), </text>
  </g>
  <g begin="text">
   <text y="325.97" x="466.78,471.075,476.495,480.79,483.815,486.928,491.83,496.754" svgx:width="0.39,0.5,0.39,0.28,0.28,0.44,0.44,0.25" style="fill:rgb(0,0,0);font-family:TimesNewRomanPSMT;font-size:11.04px;stroke:none;">Justice </text>
  </g>
  <g begin="text">
   <text y="325.97" x="500.98,504.579,508.874,513.102,518.004,523.424" svgx:width="0.33,0.39,0.39,0.44,0.5,0.25" style="fill:rgb(0,0,0);font-family:TimesNewRomanPSMT;font-size:11.04px;stroke:none;">Issah </text>
  </g>
  <g begin="text">
   <text y="325.97" x="42.72,48.36" svgx:width="0.51,0.51" style="fill:rgb(0,0,0);font-family:Calibri;font-size:11.04px;stroke:none;">14</text>
  </g>
  <g begin="text">
   <text y="325.97" x="54.024" svgx:width="0.23" style="fill:rgb(0,0,0);font-family:Calibri;font-size:11.04px;stroke:none;"> </text>
  </g>
  <g begin="text">
   <text y="339.65" x="72.024,78.162,83.682,87.359,92.879,98.399,103.919" svgx:width="0.56,0.5,0.33,0.5,0.5,0.5,0.25" style="fill:rgb(0,0,0);font-family:TimesNewRomanPSMT;font-size:11.04px;stroke:none;">Surugu </text>
  </g>
  <g begin="text">
   <text y="339.65" x="106.58,116.395,121.915,126.143,131.045,136.565" svgx:width="0.89,0.5,0.39,0.44,0.5,0.25" style="fill:rgb(0,0,0);font-family:TimesNewRomanPSMT;font-size:11.04px;stroke:none;">Musah </text>
  </g>
  <g begin="text">
   <text y="339.65" x="139.34,143.049,150.965,156.485,161.288,166.808,171.709" svgx:width="0.33,0.72,0.5,0.44,0.5,0.44,0.33" style="fill:rgb(0,0,0);font-family:TimesNewRomanPSMT;font-size:11.04px;stroke:none;">(Ghana)</text>
  </g>
  <g begin="text">
   <text y="339.65" x="175.37" svgx:width="0.25" style="fill:rgb(0,0,0);font-family:TimesNewRomanPSMT;font-size:11.04px;stroke:none;"> </text>
  </g>
  <g begin="text">
   <text y="339.65" x="42.72,48.36" svgx:width="0.51,0.51" style="fill:rgb(0,0,0);font-family:Calibri;font-size:11.04px;stroke:none;">15</text>
  </g>
  <g begin="text">
   <text y="339.65" x="54.024" svgx:width="0.23" style="fill:rgb(0,0,0);font-family:Calibri;font-size:11.04px;stroke:none;"> </text>
  </g>
  <g begin="text">
   <text y="361.37" x="72.024,79.94,85.46,89.169,94.071,96.831,102.351,105.972,108.732,116.648,121.549,127.069,130.691" svgx:width="0.72,0.5,0.33,0.44,0.25,0.5,0.33,0.25,0.72,0.44,0.5,0.33,0.33" style="fill:rgb(0,0,0);font-family:TimesNewRomanPS-BoldMT;font-size:11.04px;stroke:none;">Date of Draft</text>
  </g>
  <g begin="text">
   <text y="361.37" x="134.42" svgx:width="0.33" style="fill:rgb(0,0,0);font-family:TimesNewRomanPS-BoldMT;font-size:11.04px;stroke:none;">:</text>
  </g>
  <g begin="text">
   <text y="361.37" x="138.14" svgx:width="0.25" style="fill:rgb(0,0,0);font-family:TimesNewRomanPSMT;font-size:11.04px;stroke:none;"> </text>
  </g>
  <g begin="text">
   <text y="361.37" x="140.9,146.299,151.819,154.932,160.452,165.85,168.964,174.484,179.882,185.402" svgx:width="0.5,0.5,0.28,0.5,0.5,0.28,0.5,0.5,0.5,0.5" style="fill:rgb(0,0,0);font-family:TimesNewRomanPSMT;font-size:11.04px;stroke:none;">28/11/2021</text>
  </g>
  <g begin="text">
   <text y="361.37" x="190.85" svgx:width="0.25" style="fill:rgb(0,0,0);font-family:TimesNewRomanPSMT;font-size:11.04px;stroke:none;"> </text>
  </g>
  <g begin="text">
   <text y="361.37" x="42.72,48.36" svgx:width="0.51,0.51" style="fill:rgb(0,0,0);font-family:Calibri;font-size:11.04px;stroke:none;">16</text>
  </g>
  <g begin="text">
   <text y="361.37" x="54.024" svgx:width="0.23" style="fill:rgb(0,0,0);font-family:Calibri;font-size:11.04px;stroke:none;"> </text>
  </g>
  <g begin="text">
   <text y="602.109" transform="matrix(0.70711,-0.70711,0.70711,0.70711,-395.12956,250.29085)" rotateDegrees="-45" matrix="[29.803345,29.803345,-29.803345,29.803345,104.563255,239.8115]" x="104.563" svgx:width="0.67" style="fill:rgb(0,0,0);font-family:Arial;font-size:42.15px;stroke:none;">A</text>
   <text y="582.23" transform="matrix(0.70711,-0.70711,0.70711,0.70711,-375.25056,258.525)" rotateDegrees="-45" matrix="[29.803345,29.803345,-29.803345,29.803345,124.442085,259.6903]" x="124.442" svgx:width="0.72" style="fill:rgb(0,0,0);font-family:Arial;font-size:42.15px;stroke:none;">C</text>
   <text y="560.712" transform="matrix(0.70711,-0.70711,0.70711,0.70711,-353.73256,267.43805)" rotateDegrees="-45" matrix="[29.803345,29.803345,-29.803345,29.803345,145.9601,281.20834]" x="145.96" svgx:width="0.72" style="fill:rgb(0,0,0);font-family:Arial;font-size:42.15px;stroke:none;">C</text>
   <text y="539.194" transform="matrix(0.70711,-0.70711,0.70711,0.70711,-332.21456,276.3511)" rotateDegrees="-45" matrix="[29.803345,29.803345,-29.803345,29.803345,167.47812,302.72635]" x="167.478" svgx:width="0.67" style="fill:rgb(0,0,0);font-family:Arial;font-size:42.15px;stroke:none;">E</text>
   <text y="519.315" transform="matrix(0.70711,-0.70711,0.70711,0.70711,-312.33556,284.58525)" rotateDegrees="-45" matrix="[29.803345,29.803345,-29.803345,29.803345,187.35693,322.60516]" x="187.357" svgx:width="0.67" style="fill:rgb(0,0,0);font-family:Arial;font-size:42.15px;stroke:none;">P</text>
   <text y="499.436" transform="matrix(0.70711,-0.70711,0.70711,0.70711,-292.45656,292.8194)" rotateDegrees="-45" matrix="[29.803345,29.803345,-29.803345,29.803345,207.23578,342.484]" x="207.236" svgx:width="0.61" style="fill:rgb(0,0,0);font-family:Arial;font-size:42.15px;stroke:none;">T</text>
   <text y="481.226" transform="matrix(0.70711,-0.70711,0.70711,0.70711,-274.24656,300.36223)" rotateDegrees="-45" matrix="[29.803345,29.803345,-29.803345,29.803345,225.44562,360.69385]" x="225.446" svgx:width="0.67" style="fill:rgb(0,0,0);font-family:Arial;font-size:42.15px;stroke:none;">E</text>
   <text y="461.347" transform="matrix(0.70711,-0.70711,0.70711,0.70711,-254.36786,308.59567)" rotateDegrees="-45" matrix="[29.803345,29.803345,-29.803345,29.803345,245.32443,380.57266]" x="245.324" svgx:width="0.72" style="fill:rgb(0,0,0);font-family:Arial;font-size:42.15px;stroke:none;">D</text>
   <text y="439.829" transform="matrix(0.70711,-0.70711,0.70711,0.70711,-232.84986,317.50872)" rotateDegrees="-45" matrix="[29.803345,29.803345,-29.803345,29.803345,266.84247,402.0907]" x="266.842" svgx:width="0.28" style="fill:rgb(0,0,0);font-family:Arial;font-size:42.15px;stroke:none;"> </text>
   <text y="431.544" transform="matrix(0.70711,-0.70711,0.70711,0.70711,-224.56456,320.94119)" rotateDegrees="-45" matrix="[29.803345,29.803345,-29.803345,29.803345,275.12778,410.37604]" x="275.128" svgx:width="0.67" style="fill:rgb(0,0,0);font-family:Arial;font-size:42.15px;stroke:none;">V</text>
   <text y="411.665" transform="matrix(0.70711,-0.70711,0.70711,0.70711,-204.68556,329.17534)" rotateDegrees="-45" matrix="[29.803345,29.803345,-29.803345,29.803345,295.0066,430.25485]" x="295.007" svgx:width="0.67" style="fill:rgb(0,0,0);font-family:Arial;font-size:42.15px;stroke:none;">E</text>
   <text y="391.786" transform="matrix(0.70711,-0.70711,0.70711,0.70711,-184.80686,337.40878)" rotateDegrees="-45" matrix="[29.803345,29.803345,-29.803345,29.803345,314.88544,450.13367]" x="314.885" svgx:width="0.72" style="fill:rgb(0,0,0);font-family:Arial;font-size:42.15px;stroke:none;">R</text>
   <text y="370.268" transform="matrix(0.70711,-0.70711,0.70711,0.70711,-163.28886,346.32183)" rotateDegrees="-45" matrix="[29.803345,29.803345,-29.803345,29.803345,336.40344,471.65167]" x="336.403" svgx:width="0.67" style="fill:rgb(0,0,0);font-family:Arial;font-size:42.15px;stroke:none;">S</text>
   <text y="350.389" transform="matrix(0.70711,-0.70711,0.70711,0.70711,-143.40986,354.55598)" rotateDegrees="-45" matrix="[29.803345,29.803345,-29.803345,29.803345,356.2823,491.53052]" x="356.282" svgx:width="0.28" style="fill:rgb(0,0,0);font-family:Arial;font-size:42.15px;stroke:none;">I</text>
   <text y="342.104" transform="matrix(0.70711,-0.70711,0.70711,0.70711,-135.12456,357.98845)" rotateDegrees="-45" matrix="[29.803345,29.803345,-29.803345,29.803345,364.56763,499.81586]" x="364.568" svgx:width="0.78" style="fill:rgb(0,0,0);font-family:Arial;font-size:42.15px;stroke:none;">O</text>
   <text y="318.917" transform="matrix(0.70711,-0.70711,0.70711,0.70711,-111.93756,367.59282)" rotateDegrees="-45" matrix="[29.803345,29.803345,-29.803345,29.803345,387.75458,523.0028]" x="387.755" svgx:width="0.72" style="fill:rgb(0,0,0);font-family:Arial;font-size:42.15px;stroke:none;">N</text>
   <text y="297.399" transform="matrix(0.70711,-0.70711,0.70711,0.70711,-90.41956,376.50586)" rotateDegrees="-45" matrix="[29.803345,29.803345,-29.803345,29.803345,409.27264,544.5209]" x="409.273" svgx:width="0.28" style="fill:rgb(0,0,0);font-family:Arial;font-size:42.15px;stroke:none;"> </text>
   <text y="637.872" transform="matrix(0.70711,-0.70711,0.70711,0.70711,-409.94279,286.05456)" rotateDegrees="-45" matrix="[29.803345,29.803345,-29.803345,29.803345,140.32727,204.04747]" x="140.327" svgx:width="0.67" style="fill:rgb(0,0,0);font-family:Arial;font-size:42.15px;stroke:none;">S</text>
   <text y="617.994" transform="matrix(0.70711,-0.70711,0.70711,0.70711,-390.0645,294.289)" rotateDegrees="-45" matrix="[29.803345,29.803345,-29.803345,29.803345,160.2061,223.9263]" x="160.206" svgx:width="0.72" style="fill:rgb(0,0,0);font-family:Arial;font-size:42.15px;stroke:none;">U</text>
   <text y="596.476" transform="matrix(0.70711,-0.70711,0.70711,0.70711,-368.5465,303.20205)" rotateDegrees="-45" matrix="[29.803345,29.803345,-29.803345,29.803345,181.72412,245.4443]" x="181.724" svgx:width="0.67" style="fill:rgb(0,0,0);font-family:Arial;font-size:42.15px;stroke:none;">B</text>
   <text y="576.597" transform="matrix(0.70711,-0.70711,0.70711,0.70711,-348.6675,311.4362)" rotateDegrees="-45" matrix="[29.803345,29.803345,-29.803345,29.803345,201.60294,265.32315]" x="201.603" svgx:width="0.5" style="fill:rgb(0,0,0);font-family:Arial;font-size:42.15px;stroke:none;">J</text>
   <text y="561.695" transform="matrix(0.70711,-0.70711,0.70711,0.70711,-333.7655,317.60881)" rotateDegrees="-45" matrix="[29.803345,29.803345,-29.803345,29.803345,216.50462,280.22482]" x="216.505" svgx:width="0.67" style="fill:rgb(0,0,0);font-family:Arial;font-size:42.15px;stroke:none;">E</text>
   <text y="541.816" transform="matrix(0.70711,-0.70711,0.70711,0.70711,-313.88679,325.84225)" rotateDegrees="-45" matrix="[29.803345,29.803345,-29.803345,29.803345,236.38344,300.10364]" x="236.383" svgx:width="0.72" style="fill:rgb(0,0,0);font-family:Arial;font-size:42.15px;stroke:none;">C</text>
   <text y="520.298" transform="matrix(0.70711,-0.70711,0.70711,0.70711,-292.36879,334.7553)" rotateDegrees="-45" matrix="[29.803345,29.803345,-29.803345,29.803345,257.90146,321.62164]" x="257.901" svgx:width="0.61" style="fill:rgb(0,0,0);font-family:Arial;font-size:42.15px;stroke:none;">T</text>
   <text y="502.089" transform="matrix(0.70711,-0.70711,0.70711,0.70711,-274.1595,342.29842)" rotateDegrees="-45" matrix="[29.803345,29.803345,-29.803345,29.803345,276.1113,339.83148]" x="276.111" svgx:width="0.28" style="fill:rgb(0,0,0);font-family:Arial;font-size:42.15px;stroke:none;"> </text>
   <text y="493.803" transform="matrix(0.70711,-0.70711,0.70711,0.70711,-265.8735,345.7306)" rotateDegrees="-45" matrix="[29.803345,29.803345,-29.803345,29.803345,284.3966,348.11682]" x="284.397" svgx:width="0.61" style="fill:rgb(0,0,0);font-family:Arial;font-size:42.15px;stroke:none;">T</text>
   <text y="475.593" transform="matrix(0.70711,-0.70711,0.70711,0.70711,-247.66379,353.27272)" rotateDegrees="-45" matrix="[29.803345,29.803345,-29.803345,29.803345,302.60648,366.32666]" x="302.606" svgx:width="0.78" style="fill:rgb(0,0,0);font-family:Arial;font-size:42.15px;stroke:none;">O</text>
   <text y="452.406" transform="matrix(0.70711,-0.70711,0.70711,0.70711,-224.47679,362.87709)" rotateDegrees="-45" matrix="[29.803345,29.803345,-29.803345,29.803345,325.79346,389.51367]" x="325.793" svgx:width="0.28" style="fill:rgb(0,0,0);font-family:Arial;font-size:42.15px;stroke:none;"> </text>
   <text y="444.136" transform="matrix(0.70711,-0.70711,0.70711,0.70711,-216.2065,366.30334)" rotateDegrees="-45" matrix="[29.803345,29.803345,-29.803345,29.803345,334.0639,397.78412]" x="334.064" svgx:width="0.61" style="fill:rgb(0,0,0);font-family:Arial;font-size:42.15px;stroke:none;">F</text>
   <text y="425.926" transform="matrix(0.70711,-0.70711,0.70711,0.70711,-197.9965,373.84617)" rotateDegrees="-45" matrix="[29.803345,29.803345,-29.803345,29.803345,352.27374,415.99396]" x="352.274" svgx:width="0.28" style="fill:rgb(0,0,0);font-family:Arial;font-size:42.15px;stroke:none;">I</text>
   <text y="417.641" transform="matrix(0.70711,-0.70711,0.70711,0.70711,-189.7115,377.27793)" rotateDegrees="-45" matrix="[29.803345,29.803345,-29.803345,29.803345,360.55908,424.2793]" x="360.559" svgx:width="0.72" style="fill:rgb(0,0,0);font-family:Arial;font-size:42.15px;stroke:none;">N</text>
   <text y="396.123" transform="matrix(0.70711,-0.70711,0.70711,0.70711,-168.1935,386.19098)" rotateDegrees="-45" matrix="[29.803345,29.803345,-29.803345,29.803345,382.0771,445.7973]" x="382.077" svgx:width="0.67" style="fill:rgb(0,0,0);font-family:Arial;font-size:42.15px;stroke:none;">A</text>
   <text y="376.244" transform="matrix(0.70711,-0.70711,0.70711,0.70711,-148.3145,394.42513)" rotateDegrees="-45" matrix="[29.803345,29.803345,-29.803345,29.803345,401.95593,465.67615]" x="401.956" svgx:width="0.56" style="fill:rgb(0,0,0);font-family:Arial;font-size:42.15px;stroke:none;">L</text>
   <text y="359.673" transform="matrix(0.70711,-0.70711,0.70711,0.70711,-131.7435,401.28906)" rotateDegrees="-45" matrix="[29.803345,29.803345,-29.803345,29.803345,418.5266,482.24677]" x="418.527" svgx:width="0.28" style="fill:rgb(0,0,0);font-family:Arial;font-size:42.15px;stroke:none;"> </text>
   <text y="351.388" transform="matrix(0.70711,-0.70711,0.70711,0.70711,-123.4585,404.72082)" rotateDegrees="-45" matrix="[29.803345,29.803345,-29.803345,29.803345,426.8119,490.5321]" x="426.812" svgx:width="0.67" style="fill:rgb(0,0,0);font-family:Arial;font-size:42.15px;stroke:none;">E</text>
   <text y="331.509" transform="matrix(0.70711,-0.70711,0.70711,0.70711,-103.5795,412.95497)" rotateDegrees="-45" matrix="[29.803345,29.803345,-29.803345,29.803345,446.69073,510.41095]" x="446.691" svgx:width="0.72" style="fill:rgb(0,0,0);font-family:Arial;font-size:42.15px;stroke:none;">D</text>
   <text y="309.991" transform="matrix(0.70711,-0.70711,0.70711,0.70711,-82.0615,421.86802)" rotateDegrees="-45" matrix="[29.803345,29.803345,-29.803345,29.803345,468.20874,531.92896]" x="468.209" svgx:width="0.28" style="fill:rgb(0,0,0);font-family:Arial;font-size:42.15px;stroke:none;">I</text>
   <text y="301.706" transform="matrix(0.70711,-0.70711,0.70711,0.70711,-73.7765,425.29978)" rotateDegrees="-45" matrix="[29.803345,29.803345,-29.803345,29.803345,476.49408,540.2143]" x="476.494" svgx:width="0.61" style="fill:rgb(0,0,0);font-family:Arial;font-size:42.15px;stroke:none;">T</text>
   <text y="283.496" transform="matrix(0.70711,-0.70711,0.70711,0.70711,-55.5665,432.84261)" rotateDegrees="-45" matrix="[29.803345,29.803345,-29.803345,29.803345,494.70392,558.42413]" x="494.704" svgx:width="0.67" style="fill:rgb(0,0,0);font-family:Arial;font-size:42.15px;stroke:none;">S</text>
  </g>
 </g>
</svg>
