<?xml version="1.0" encoding="UTF-8"?>
<svg height="781.06" width="534.46" xmlns="http://www.w3.org/2000/svg">
 <g id="page" xmlns:svgx="http://www.xml-cml.org/schema/svgx">
  <g begin="text">
   <text y="80.82" x="76.5,81.841,87.121,91.921,97.201,100.558,105.538,108.958,111.242,116.282" svgx:width="0.53,0.52,0.48,0.52,0.34,0.5,0.35,0.23,0.51,0.51" style="fill:rgb(0,0,0);font-family:Calibri;font-size:10.02px;stroke:none;">Chapter 15</text>
  </g>
  <g begin="text">
   <text y="80.82" x="121.32" svgx:width="0.23" style="fill:rgb(0,0,0);font-family:Calibri;font-size:10.02px;stroke:none;"> </text>
  </g>
  <g begin="text">
   <text y="80.82" x="133.2,138.3" svgx:width="0.51,0.51" style="fill:rgb(0,0,0);font-family:Calibri;font-size:10.02px;stroke:none;">38</text>
  </g>
  <g begin="text">
   <text y="80.82" x="143.34" svgx:width="0.23" style="fill:rgb(0,0,0);font-family:Calibri;font-size:10.02px;stroke:none;"> </text>
  </g>
  <g begin="text">
   <text y="80.82" x="189.9,195.0" svgx:width="0.51,0.51" style="fill:rgb(0,0,0);font-family:Calibri;font-size:10.02px;stroke:none;">24</text>
  </g>
  <g begin="text">
   <text y="80.82" x="200.04" svgx:width="0.23" style="fill:rgb(0,0,0);font-family:Calibri;font-size:10.02px;stroke:none;"> </text>
  </g>
  <g begin="text">
   <text y="80.82" x="246.6,251.881,256.86,260.22,267.36,272.34,277.32,282.601,284.821,289.861,294.962,297.481,302.522,309.661,311.945,314.225,319.505,321.785,326.825,331.925,336.965,342.066,344.285,347.341,354.001,358.321,361.321,366.602,370.081,375.362,377.647,382.506,386.765,392.044,397.265,402.544,410.524,412.805,417.063,420.903,423.187,428.288,433.328,438.428,443.468,446.524,448.804,453.543,458.824,464.044,466.324,471.364,476.404,483.544,485.823,488.88,494.701,498.181,503.162,507.062,511.622,513.901" svgx:width="0.52,0.5,0.34,0.71,0.5,0.5,0.52,0.23,0.51,0.51,0.25,0.51,0.71,0.23,0.23,0.52,0.23,0.51,0.51,0.51,0.51,0.23,0.3,0.66,0.43,0.31,0.53,0.35,0.52,0.23,0.49,0.42,0.53,0.52,0.53,0.8,0.23,0.42,0.39,0.23,0.51,0.51,0.51,0.51,0.3,0.23,0.48,0.52,0.52,0.23,0.51,0.51,0.71,0.23,0.3,0.58,0.35,0.5,0.4,0.46,0.23,0.23" style="fill:rgb(0,0,0);font-family:Calibri;font-size:10.02px;stroke:none;">between 15.9% in 2035 (Oxford Economics 2017) and 32% (Arezki </text>
  </g>
  <g begin="text">
   <text y="93.06" x="246.6,251.58,254.94,257.224,262.024,264.304,266.824,269.104,274.144,279.244,284.284,289.384,292.44,294.9,297.181,300.237,303.243,308.223,310.508,315.787,320.767,324.128,331.267,336.247,341.227,346.446,348.731,353.771,358.811,365.938,368.223,371.279,377.939,382.259,385.319,390.598,394.018,399.299,401.523,406.443,410.702,415.922,421.202,426.483,434.463,436.742,441.001,444.901,447.18,452.22,457.321,462.361,467.461,470.461,472.685,477.485,482.765,488.046,490.27,495.37,500.471,507.551" svgx:width="0.5,0.34,0.23,0.48,0.23,0.25,0.23,0.51,0.51,0.51,0.51,0.3,0.25,0.23,0.31,0.31,0.5,0.23,0.52,0.5,0.34,0.71,0.5,0.5,0.52,0.23,0.51,0.51,0.71,0.23,0.3,0.66,0.43,0.31,0.53,0.35,0.52,0.23,0.49,0.42,0.53,0.52,0.53,0.8,0.23,0.42,0.39,0.23,0.51,0.51,0.51,0.51,0.3,0.23,0.48,0.52,0.52,0.23,0.51,0.51,0.71,0.23" style="fill:rgb(0,0,0);font-family:Calibri;font-size:10.02px;stroke:none;">et al. 2016). --&gt; between 19% (Oxford Economics 2017) and 32% </text>
   <text y="105.244" x="246.6,249.66,255.48,258.96,263.94,267.9,272.46,274.739,276.964,281.944,285.304,287.584,292.384,294.664,297.179,299.403,304.443,309.544,314.584,319.684,322.682" svgx:width="0.3,0.58,0.35,0.5,0.4,0.46,0.23,0.23,0.5,0.34,0.23,0.48,0.23,0.25,0.23,0.51,0.51,0.51,0.51,0.3,0.23" style="fill:rgb(0,0,0);font-family:Calibri;font-size:10.02px;stroke:none;">(Arezki et al. 2016) </text>
  </g>
  <path style="fill:rgb(0,0,0);stroke:none;stroke-width:1.0;" d="M71.340 676.080 L127.560 676.080 L127.560 770.580 L71.340 770.580 L71.340 676.080 M71.340 676.080 L127.560 676.080 L127.560 770.580 L71.340 770.580 L71.340 676.080 M128.040 676.080 L184.260 676.080 L184.260 770.580 L128.040 770.580 L128.040 676.080 M128.040 676.080 L184.260 676.080 L184.260 770.580 L128.040 770.580 L128.040 676.080 M184.740 676.080 L240.960 676.080 L240.960 770.580 L184.740 770.580 L184.740 676.080 M184.740 676.080 L240.960 676.080 L240.960 770.580 L184.740 770.580 L184.740 676.080 M70.860 770.580 L71.340 770.580 L71.340 771.060 L70.860 771.060 L70.860 770.580 "/>
  <path style="fill:rgb(0,0,0);stroke:none;stroke-width:1.0;" d="M70.860 770.580 L71.340 770.580 L71.340 771.060 L70.860 771.060 L70.860 770.580 "/>
  <path style="fill:rgb(0,0,0);stroke:none;stroke-width:1.0;" d="M71.340 770.580 L127.560 770.580 L127.560 771.060 L71.340 771.060 L71.340 770.580 "/>
  <path style="fill:rgb(0,0,0);stroke:none;stroke-width:1.0;" d="M127.560 770.580 L128.040 770.580 L128.040 771.060 L127.560 771.060 L127.560 770.580 "/>
  <path style="fill:rgb(0,0,0);stroke:none;stroke-width:1.0;" d="M128.040 770.580 L184.260 770.580 L184.260 771.060 L128.040 771.060 L128.040 770.580 "/>
  <path style="fill:rgb(0,0,0);stroke:none;stroke-width:1.0;" d="M184.260 770.580 L184.740 770.580 L184.740 771.060 L184.260 771.060 L184.260 770.580 "/>
  <path style="fill:rgb(0,0,0);stroke:none;stroke-width:1.0;" d="M184.740 770.580 L240.960 770.580 L240.960 771.060 L184.740 771.060 L184.740 770.580 "/>
  <path style="fill:rgb(0,0,0);stroke:none;stroke-width:1.0;" d="M240.960 770.580 L241.440 770.580 L241.440 771.060 L240.960 771.060 L240.960 770.580 "/>
  <path style="fill:rgb(0,0,0);stroke:none;stroke-width:1.0;" d="M523.980 770.580 L524.460 770.580 L524.460 771.060 L523.980 771.060 L523.980 770.580 "/>
  <path style="fill:rgb(0,0,0);stroke:none;stroke-width:1.0;" d="M523.980 770.580 L524.460 770.580 L524.460 771.060 L523.980 771.060 L523.980 770.580 "/>
  <path style="fill:rgb(0,0,0);stroke:none;stroke-width:1.0;" d="M70.860 676.080 L71.340 676.080 L71.340 770.580 L70.860 770.580 L70.860 676.080 "/>
  <path style="fill:rgb(0,0,0);stroke:none;stroke-width:1.0;" d="M127.560 676.080 L128.040 676.080 L128.040 770.580 L127.560 770.580 L127.560 676.080 "/>
  <path style="fill:rgb(0,0,0);stroke:none;stroke-width:1.0;" d="M184.260 676.080 L184.740 676.080 L184.740 770.580 L184.260 770.580 L184.260 676.080 "/>
  <path style="fill:rgb(0,0,0);stroke:none;stroke-width:1.0;" d="M240.960 676.080 L241.440 676.080 L241.440 770.580 L240.960 770.580 L240.960 676.080 "/>
  <path style="fill:rgb(0,0,0);stroke:none;stroke-width:1.0;" d="M523.980 676.080 L524.460 676.080 L524.460 770.580 L523.980 770.580 L523.980 676.080 "/>
  <g begin="text">
   <text y="175.86" x="76.5,81.841,87.121,91.921,97.201,100.558,105.538,108.958,111.242,116.282" svgx:width="0.53,0.52,0.48,0.52,0.34,0.5,0.35,0.23,0.51,0.51" style="fill:rgb(0,0,0);font-family:Calibri;font-size:10.02px;stroke:none;">Chapter 15</text>
  </g>
  <g begin="text">
   <text y="175.86" x="121.32" svgx:width="0.23" style="fill:rgb(0,0,0);font-family:Calibri;font-size:10.02px;stroke:none;"> </text>
  </g>
  <g begin="text">
   <text y="175.86" x="133.2,138.3" svgx:width="0.51,0.51" style="fill:rgb(0,0,0);font-family:Calibri;font-size:10.02px;stroke:none;">80</text>
  </g>
  <g begin="text">
   <text y="175.86" x="143.34" svgx:width="0.23" style="fill:rgb(0,0,0);font-family:Calibri;font-size:10.02px;stroke:none;"> </text>
  </g>
  <g begin="text">
   <text y="175.86" x="189.9,195.0" svgx:width="0.51,0.51" style="fill:rgb(0,0,0);font-family:Calibri;font-size:10.02px;stroke:none;">36</text>
  </g>
  <g begin="text">
   <text y="175.86" x="200.04" svgx:width="0.23" style="fill:rgb(0,0,0);font-family:Calibri;font-size:10.02px;stroke:none;"> </text>
  </g>
  <g begin="text">
   <text y="175.86" x="246.6,252.42,254.7,258.06,263.34,268.62,273.84,278.58,283.8,286.08,291.841" svgx:width="0.58,0.23,0.34,0.52,0.53,0.52,0.47,0.52,0.23,0.58,0.58" style="fill:rgb(0,0,0);font-family:Calibri;font-size:10.02px;stroke:none;">Although AA</text>
  </g>
  <g begin="text">
   <text y="175.86" x="297.6" svgx:width="0.58" style="fill:rgb(0,0,0);font-family:Calibri;font-size:10.02px;stroke:none;">A</text>
  </g>
  <g begin="text">
   <text y="175.86" x="303.42" svgx:width="0.31" style="fill:rgb(0,0,0);font-family:Calibri;font-size:10.02px;stroke:none;">-</text>
  </g>
  <g begin="text">
   <text y="175.86" x="306.48,309.96,314.76,318.12,323.1,328.381,330.665,333.125,337.744,343.084,345.369,350.649,352.929,357.85,363.069,368.349,373.329,378.61,380.895,383.955,386.174,391.455,396.254,401.475,405.733,410.713,412.998,415.998,421.217,426.498,431.778,434.063,441.203,446.002,449.902,452.187,457.167,461.067,464.366,469.167,474.447,476.728,478.947,482.847,488.128,493.107,498.388,500.673,502.952,508.173" svgx:width="0.35,0.48,0.34,0.5,0.52,0.23,0.25,0.46,0.53,0.23,0.52,0.23,0.5,0.52,0.52,0.5,0.52,0.23,0.31,0.23,0.52,0.48,0.52,0.42,0.5,0.23,0.31,0.52,0.52,0.52,0.23,0.71,0.48,0.39,0.23,0.5,0.39,0.34,0.48,0.52,0.23,0.23,0.39,0.52,0.5,0.52,0.23,0.23,0.52,0.23" style="fill:rgb(0,0,0);font-family:Calibri;font-size:10.02px;stroke:none;">rated IFC blended finance fund was established in </text>
  </g>
  <g begin="text">
   <text y="188.04" x="246.6,251.7,256.74,261.84,266.88,269.401,271.68,273.961,277.32,279.605,282.965,288.185,293.465,298.025,300.304,305.525,310.804,313.089,316.986,321.966,326.466,331.446,336.727,339.006,344.286,347.287,349.566,351.841,355.202,359.099,361.379,366.299,368.579,373.319,378.599,381.959,384.244,386.518,391.798,395.695,399.055,401.33,404.63,409.91,413.27,415.55,420.83,426.05,430.85,433.13,435.41,437.69,442.97,447.47,452.45,456.347,459.708,464.988,468.465,472.362,474.642,476.916,482.197,484.416,489.517,494.557,499.657,504.757" svgx:width="0.51,0.51,0.51,0.51,0.25,0.23,0.23,0.34,0.23,0.34,0.53,0.53,0.46,0.23,0.53,0.52,0.23,0.39,0.5,0.45,0.5,0.52,0.23,0.53,0.31,0.23,0.23,0.34,0.39,0.23,0.5,0.23,0.47,0.52,0.34,0.23,0.23,0.52,0.39,0.34,0.23,0.34,0.52,0.34,0.23,0.53,0.52,0.48,0.23,0.23,0.23,0.52,0.45,0.5,0.39,0.34,0.53,0.35,0.39,0.23,0.23,0.52,0.23,0.51,0.51,0.51,0.51,0.23" style="fill:rgb(0,0,0);font-family:Calibri;font-size:10.02px;stroke:none;">2013, it took on seven of its eight institutional investors in 2017 </text>
   <text y="200.224" x="246.6,253.744,256.019,259.38,264.659,266.939,269.219,274.499,278.396,283.677,287.154,292.134,295.611,299.509,301.729,307.488,312.709,318.529,320.749,325.549,330.829,336.048,338.333,342.953,350.092,352.373,356.271,360.169,362.453,367.853,372.833,375.112,377.393,382.672,387.172,392.152,396.05,399.411,401.685,406.966,411.705,413.926,418.966,424.065,429.105,431.389,439.369,441.644,443.924,446.199,448.48,453.759,459.039,461.323,467.743,472.363,478.544,480.823,485.743,490.483,494.743,500.023,502.303,505.603,510.883" svgx:width="0.71,0.23,0.34,0.52,0.23,0.23,0.52,0.39,0.52,0.35,0.5,0.35,0.39,0.23,0.58,0.52,0.58,0.23,0.48,0.52,0.52,0.23,0.46,0.71,0.23,0.39,0.39,0.23,0.54,0.5,0.23,0.23,0.52,0.45,0.5,0.39,0.34,0.23,0.52,0.47,0.23,0.51,0.51,0.51,0.23,0.8,0.23,0.23,0.23,0.23,0.53,0.52,0.23,0.64,0.46,0.62,0.23,0.5,0.48,0.42,0.52,0.23,0.34,0.53,0.23" style="fill:rgb(0,0,0);font-family:Calibri;font-size:10.02px;stroke:none;">with insurers AXA and Swiss Re investing 500 million USD each to </text>
   <text y="212.469" x="246.6,251.881,255.359,257.64,262.921,267.66,269.884,273.244,278.525,283.506,285.725,288.785,294.066,299.286,304.567,306.791,310.151,315.431,317.711,322.811,325.036,330.316,332.597,334.876,337.156,339.436,344.716,349.996,352.276,358.696,363.256,369.438,371.718,375.198,379.998,382.278,386.179,391.159,396.439,398.72,401.78,405.26,410.539,418.459,420.683,425.663,427.943,432.682,437.963,441.324,443.543,448.283,450.562,455.843,461.123,465.924,468.203,470.483,472.703,477.924,482.424,487.404,491.303,494.663,499.944,503.424,507.323" svgx:width="0.52,0.35,0.23,0.52,0.47,0.23,0.34,0.52,0.5,0.23,0.31,0.52,0.52,0.52,0.23,0.34,0.53,0.23,0.51,0.23,0.52,0.23,0.23,0.23,0.23,0.53,0.52,0.23,0.64,0.46,0.62,0.23,0.35,0.48,0.23,0.39,0.5,0.52,0.23,0.31,0.35,0.53,0.8,0.23,0.5,0.23,0.47,0.52,0.34,0.23,0.47,0.23,0.53,0.52,0.48,0.23,0.23,0.23,0.52,0.45,0.5,0.39,0.34,0.53,0.35,0.39,0.23" style="fill:rgb(0,0,0);font-family:Calibri;font-size:10.02px;stroke:none;">bring the fund to 7 billion USD raised from eight global investors </text>
   <text y="224.653" x="246.6,249.656,255.478,258.838,262.201,265.681,267.961,273.181,277.921,282.9,285.12,289.92,295.201,300.421,302.641,308.941,314.221,319.501,324.481,327.841,331.201,333.425,338.525,343.566,348.666,353.705,356.761,359.225" svgx:width="0.3,0.58,0.34,0.34,0.35,0.23,0.52,0.47,0.5,0.23,0.48,0.52,0.52,0.23,0.63,0.53,0.52,0.5,0.34,0.34,0.23,0.51,0.51,0.51,0.51,0.3,0.25,0.23" style="fill:rgb(0,0,0);font-family:Calibri;font-size:10.02px;stroke:none;">(Attridge and Gouett 2021). </text>
   <text y="236.898" x="246.6" svgx:width="0.23" style="fill:rgb(0,0,0);font-family:Calibri;font-size:10.02px;stroke:none;"> </text>
   <text y="249.082" x="246.6,249.656,252.712,257.692,259.972,265.793,268.073,271.434,276.714,281.935,287.215,291.895,297.176,299.4,305.16,310.982,316.803,319.856,323.336,328.136,331.496,336.416,341.697,343.976,346.436,351.055,356.395,358.616,363.896,366.177,371.157,376.437,381.718,386.698,391.917,394.202,397.262,399.541,404.822,409.561,414.842,419.1,424.02,426.241,429.301,434.581,439.862,445.081,447.366,454.506,459.306,463.205,465.49,470.47,474.37,477.729,482.47,487.75,490.031,492.31,496.21,501.491,506.471,511.751" svgx:width="0.31,0.31,0.5,0.23,0.58,0.23,0.34,0.52,0.53,0.52,0.47,0.52,0.23,0.58,0.58,0.58,0.31,0.35,0.48,0.34,0.5,0.52,0.23,0.25,0.46,0.53,0.23,0.52,0.23,0.5,0.52,0.52,0.5,0.52,0.23,0.31,0.23,0.52,0.48,0.52,0.42,0.5,0.23,0.31,0.52,0.52,0.52,0.23,0.71,0.48,0.39,0.23,0.5,0.39,0.34,0.48,0.52,0.23,0.23,0.39,0.52,0.5,0.52,0.23" style="fill:rgb(0,0,0);font-family:Calibri;font-size:10.02px;stroke:none;">--&gt; Although AAA-rated IFC blended finance fund was established </text>
   <text y="261.326" x="246.6,248.88,254.16,256.44,261.48,266.58,271.62,276.72,279.235,281.52,289.5,294.78,298.678,301.977,304.262,306.537,311.816,316.316,321.297,325.195,328.554,333.834,337.311,341.209,343.488,345.888,351.169,353.443,358.724,363.643,368.923,371.208,373.482,378.763,380.982,386.082,391.122,396.222,401.262,403.542,410.686,412.961,416.321,421.601,423.821,426.096,431.376,435.274,440.554,444.031,449.011,452.488,456.385,458.665,464.425,469.645,475.464,477.685,482.425,487.705,492.984,495.205,499.825,506.964,509.245,513.143,517.04" svgx:width="0.23,0.52,0.23,0.51,0.51,0.51,0.51,0.25,0.23,0.8,0.53,0.39,0.34,0.23,0.23,0.52,0.45,0.5,0.39,0.34,0.53,0.35,0.39,0.23,0.24,0.53,0.23,0.52,0.5,0.52,0.23,0.23,0.52,0.23,0.51,0.51,0.51,0.51,0.23,0.71,0.23,0.34,0.52,0.23,0.23,0.52,0.39,0.52,0.35,0.5,0.35,0.39,0.23,0.58,0.52,0.58,0.23,0.48,0.52,0.52,0.23,0.46,0.71,0.23,0.39,0.39,0.23" style="fill:rgb(0,0,0);font-family:Calibri;font-size:10.02px;stroke:none;">in 2013, most investors joined in 2017 with insurers AXA and Swiss </text>
   <text y="273.511" x="246.6,252.061,257.041,259.325,261.605,266.885,271.385,276.365,280.265,283.625,285.905,291.125,295.864,298.144,303.184,308.284,313.384,315.664,323.644,325.924,328.204,330.484,332.764,338.044,343.325,345.61,351.969,356.588,362.709,364.988,369.968,374.768,378.968,384.249,386.528,389.888,395.168,397.388,402.668,406.148,408.428,413.648,418.388,420.667,423.968,429.249,434.228,436.513,439.572,444.793,450.073,455.294,457.573,460.934,466.213,468.434,473.534,475.753,481.034,483.313,485.594,487.874,490.154,495.434,500.714" svgx:width="0.54,0.5,0.23,0.23,0.52,0.45,0.5,0.39,0.34,0.23,0.52,0.47,0.23,0.51,0.51,0.51,0.23,0.8,0.23,0.23,0.23,0.23,0.53,0.52,0.23,0.64,0.46,0.62,0.23,0.5,0.48,0.42,0.52,0.23,0.34,0.53,0.23,0.52,0.35,0.23,0.52,0.47,0.23,0.34,0.52,0.5,0.23,0.31,0.52,0.52,0.52,0.23,0.34,0.53,0.23,0.51,0.23,0.52,0.23,0.23,0.23,0.23,0.53,0.52,0.23" style="fill:rgb(0,0,0);font-family:Calibri;font-size:10.02px;stroke:none;">Re investing 500 million USD each to bring the fund to 7 billion </text>
   <text y="285.755" x="246.6,253.02,257.64,263.82,266.1,269.577,274.377,276.652,280.55,285.53,290.75,293.03,296.09,299.567,304.787,312.767,315.047,320.026,322.307,327.046,332.327,335.627,337.911,342.651,344.931,350.211,355.431,360.231,362.505,364.726,367.006,372.286,376.786,381.766,385.663,389.044,394.325,397.804,401.704,403.984,407.04,412.862,416.161,419.521,424.441,427.922,430.201,435.482,440.221,445.201,447.486,452.225,457.506,462.786,465.071,471.371,476.591,481.81,486.79,490.151,493.511" svgx:width="0.64,0.46,0.62,0.23,0.35,0.48,0.23,0.39,0.5,0.52,0.23,0.31,0.35,0.53,0.8,0.23,0.5,0.23,0.47,0.52,0.34,0.23,0.47,0.23,0.53,0.52,0.48,0.23,0.23,0.23,0.52,0.45,0.5,0.39,0.34,0.53,0.35,0.39,0.23,0.3,0.58,0.34,0.34,0.5,0.35,0.23,0.52,0.47,0.5,0.23,0.48,0.52,0.52,0.23,0.63,0.53,0.52,0.5,0.34,0.34,0.23" style="fill:rgb(0,0,0);font-family:Calibri;font-size:10.02px;stroke:none;">USD raised from eight global investors (Atteridge and Gouett </text>
  </g>
  <g begin="text">
   <text y="297.9" x="246.6,251.7,256.74,261.84,266.88" svgx:width="0.51,0.51,0.51,0.51,0.3" style="fill:rgb(0,0,0);font-family:Calibri;font-size:10.02px;stroke:none;">2021)</text>
  </g>
  <g begin="text">
   <text y="297.9" x="269.88" svgx:width="0.23" style="fill:rgb(0,0,0);font-family:Calibri;font-size:10.02px;stroke:none;"> </text>
  </g>
  <path style="fill:rgb(0,0,0);stroke:none;stroke-width:1.0;" d="M70.860 675.600 L71.340 675.600 L71.340 676.080 L70.860 676.080 L70.860 675.600 "/>
  <path style="fill:rgb(0,0,0);stroke:none;stroke-width:1.0;" d="M71.340 675.600 L127.560 675.600 L127.560 676.080 L71.340 676.080 L71.340 675.600 "/>
  <path style="fill:rgb(0,0,0);stroke:none;stroke-width:1.0;" d="M127.560 675.600 L128.040 675.600 L128.040 676.080 L127.560 676.080 L127.560 675.600 "/>
  <path style="fill:rgb(0,0,0);stroke:none;stroke-width:1.0;" d="M128.040 675.600 L184.260 675.600 L184.260 676.080 L128.040 676.080 L128.040 675.600 "/>
  <path style="fill:rgb(0,0,0);stroke:none;stroke-width:1.0;" d="M184.260 675.600 L184.740 675.600 L184.740 676.080 L184.260 676.080 L184.260 675.600 "/>
  <path style="fill:rgb(0,0,0);stroke:none;stroke-width:1.0;" d="M184.740 675.600 L240.960 675.600 L240.960 676.080 L184.740 676.080 L184.740 675.600 "/>
  <path style="fill:rgb(0,0,0);stroke:none;stroke-width:1.0;" d="M240.960 675.600 L241.440 675.600 L241.440 676.080 L240.960 676.080 L240.960 675.600 "/>
  <path style="fill:rgb(0,0,0);stroke:none;stroke-width:1.0;" d="M523.980 675.600 L524.460 675.600 L524.460 676.080 L523.980 676.080 L523.980 675.600 "/>
  <g begin="text">
   <text y="310.62" x="76.5,81.841,87.121,91.921,97.201,100.558,105.538,108.958,111.242,116.282" svgx:width="0.53,0.52,0.48,0.52,0.34,0.5,0.35,0.23,0.51,0.51" style="fill:rgb(0,0,0);font-family:Calibri;font-size:10.02px;stroke:none;">Chapter 15</text>
  </g>
  <g begin="text">
   <text y="310.62" x="121.32" svgx:width="0.23" style="fill:rgb(0,0,0);font-family:Calibri;font-size:10.02px;stroke:none;"> </text>
  </g>
  <g begin="text">
   <text y="310.62" x="133.2" svgx:width="0.23" style="fill:rgb(0,0,0);font-family:Calibri;font-size:10.02px;stroke:none;"> </text>
  </g>
  <g begin="text">
   <text y="310.62" x="135.48" svgx:width="0.23" style="fill:rgb(0,0,0);font-family:Calibri;font-size:10.02px;stroke:none;"> </text>
  </g>
  <g begin="text">
   <text y="310.62" x="189.9,194.519,196.799,201.538,206.819,210.299,215.279,217.503,222.543,227.643,230.163,235.263" svgx:width="0.46,0.23,0.47,0.52,0.35,0.5,0.23,0.51,0.51,0.25,0.51,0.23" style="fill:rgb(0,0,0);font-family:Calibri;font-size:10.02px;stroke:none;">Figure 15.4 </text>
  </g>
  <g begin="text">
   <text y="322.8" x="189.9,194.16,198.959,204.239,207.595,209.875,215.095,220.321" svgx:width="0.42,0.48,0.52,0.34,0.23,0.53,0.52,0.23" style="fill:rgb(0,0,0);font-family:Calibri;font-size:10.02px;stroke:none;">caption </text>
  </g>
  <g begin="text">
   <text y="310.62" x="246.6,251.46,256.74,260.1,264.9,267.18,269.46,275.94,280.92,285.9,291.181,295.022,297.721,300.006,304.566,309.546,314.526,316.805,321.665,326.465,331.746,334.027,339.006,341.227,346.327,351.427,353.887,358.987,361.507,363.728,369.189,374.169,378.908,381.189,386.468,391.689,396.488,398.769,401.048,406.329,409.809,414.789,419.528,424.028,429.309,434.588,441.728,447.009,449.294,454.573,457.573,459.858,465.138,470.118,475.039,480.319,484.159,486.86,489.139,493.758,499.039,502.519" svgx:width="0.49,0.53,0.34,0.48,0.23,0.23,0.65,0.5,0.5,0.52,0.39,0.27,0.23,0.46,0.5,0.5,0.23,0.49,0.48,0.52,0.23,0.5,0.23,0.51,0.51,0.25,0.51,0.25,0.23,0.54,0.5,0.47,0.23,0.53,0.52,0.48,0.23,0.23,0.52,0.35,0.5,0.48,0.46,0.52,0.53,0.71,0.52,0.23,0.53,0.31,0.23,0.52,0.5,0.5,0.52,0.39,0.27,0.23,0.46,0.53,0.35,0.23" style="fill:rgb(0,0,0);font-family:Calibri;font-size:10.02px;stroke:none;">Total Needs: See Table 15.4. Regional breakdown of needs: For </text>
  </g>
  <g begin="text">
   <text y="322.8" x="246.6,251.52,253.8,258.78,263.04,266.397,269.876,272.156,276.416,278.696,281.996,286.556,288.776,294.056,298.855,302.755,307.675,312.954,315.239,320.52,325.739,328.019,330.539,336.299,344.879,347.159,352.379,357.659,361.015,366.235,371.515,374.872,377.152,380.208,385.488,388.968,391.188,397.669,402.949,408.243,411.239,416.699,418.973,424.194,432.173,436.974,440.872,444.77,447.049,450.526,455.506,460.786,465.766,472.911,477.71,482.991,485.21,490.19,492.475,495.534,503.515,508.495,513.294,518.515" svgx:width="0.49,0.23,0.5,0.42,0.34,0.35,0.23,0.42,0.23,0.34,0.45,0.23,0.52,0.48,0.39,0.5,0.52,0.23,0.53,0.52,0.23,0.25,0.58,0.86,0.23,0.53,0.52,0.34,0.52,0.52,0.34,0.23,0.31,0.53,0.35,0.23,0.65,0.53,0.52,0.31,0.54,0.23,0.53,0.8,0.48,0.39,0.39,0.23,0.35,0.5,0.52,0.5,0.71,0.48,0.52,0.23,0.5,0.23,0.3,0.8,0.5,0.48,0.52,0.23" style="fill:rgb(0,0,0);font-family:Calibri;font-size:10.02px;stroke:none;">Electricity based on IAM output for Non-Biomass renewable (mean </text>
   <text y="335.044" x="246.6,251.94,257.04,259.74,265.02,270.12,273.12,275.404,280.685,282.966,288.246,292.146,294.43,296.71,301.93,306.13,309.61,314.591,322.571,327.551,332.831,336.191,340.991,343.271,345.556,347.835,353.116,357.616,362.596,366.435,369.795,377.775,382.756,388.036,391.396,393.681,398.9,403.881,408.861,414.142,418.041,420.326,423.326,428.605,432.085,434.37,439.23,446.069,452.252,454.531,459.272,464.552,469.771,472.056,476.675,479.976,485.255,488.735,493.536,498.275,503.255" svgx:width="0.53,0.51,0.27,0.53,0.51,0.3,0.23,0.52,0.23,0.52,0.39,0.23,0.23,0.52,0.42,0.35,0.5,0.8,0.5,0.52,0.34,0.48,0.23,0.23,0.23,0.52,0.45,0.5,0.39,0.34,0.8,0.5,0.52,0.34,0.23,0.52,0.5,0.5,0.52,0.39,0.23,0.31,0.53,0.35,0.23,0.49,0.68,0.62,0.23,0.48,0.52,0.52,0.23,0.46,0.34,0.53,0.35,0.48,0.47,0.5,0.23" style="fill:rgb(0,0,0);font-family:Calibri;font-size:10.02px;stroke:none;">C1:C3) plus incremental investment needs for T&amp;D and Storage </text>
   <text y="347.229" x="246.6,249.656,257.636,262.616,267.416,272.696,274.976,280.256,285.356,287.997,293.336,298.436,300.716,302.997,307.916,311.816,315.716,318.001,325.98,330.96,335.76,341.041,343.32,348.661,353.7,356.4,361.681,366.721,369.777,372.061,375.117,379.017,383.997,388.917,391.202,396.061,400.862,406.142,408.422,413.402,415.622,420.723,425.763,428.283,433.383,435.903,438.122,443.222,448.323,450.783,455.883,458.403,460.923,463.202,468.182,472.443,476.701,481.681,486.902,490.261,492.546,497.886,502.986" svgx:width="0.3,0.8,0.5,0.48,0.52,0.23,0.53,0.51,0.27,0.53,0.51,0.23,0.23,0.5,0.39,0.39,0.23,0.8,0.5,0.48,0.52,0.23,0.53,0.51,0.27,0.53,0.51,0.3,0.23,0.3,0.39,0.5,0.5,0.23,0.49,0.48,0.52,0.23,0.5,0.23,0.51,0.51,0.25,0.51,0.25,0.23,0.51,0.51,0.25,0.51,0.25,0.25,0.23,0.5,0.43,0.42,0.5,0.52,0.34,0.23,0.53,0.51,0.23" style="fill:rgb(0,0,0);font-family:Calibri;font-size:10.02px;stroke:none;">(mean C1:C3 less mean C5:C7) (see Table 15.2, 15.3., except C6 </text>
   <text y="359.473" x="246.6,251.4,256.68,261.96,264.184,269.525,274.616,277.676,280.131,282.351" svgx:width="0.48,0.52,0.52,0.23,0.53,0.51,0.3,0.25,0.23,0.23" style="fill:rgb(0,0,0);font-family:Calibri;font-size:10.02px;stroke:none;">and C7). </text>
   <text y="371.658" x="246.59" svgx:width="0.23" style="fill:rgb(0,0,0);font-family:Calibri;font-size:10.02px;stroke:none;"> </text>
   <text y="383.842" x="246.59,249.646,252.702,257.682,259.962,264.822,270.102,273.463,278.262,280.542,282.826,288.107,293.087,298.008,303.288,307.188,309.888,312.168,316.787,321.767,326.688,328.967,333.827,338.628,343.908,346.189,351.169,353.388,358.488,363.589,366.048,371.149,373.669,375.948,381.409,386.33,391.069,393.35,398.629,403.91,408.71,410.989,413.21,418.49,421.971,426.891,431.69,436.251,441.531,446.812,453.952,459.171,461.456,466.735,469.795,472.016,477.296,482.276,487.197,492.478,496.378,499.078,501.357,505.918,511.198,514.678" svgx:width="0.31,0.31,0.5,0.23,0.49,0.53,0.34,0.48,0.23,0.23,0.52,0.5,0.5,0.52,0.39,0.27,0.23,0.46,0.5,0.5,0.23,0.49,0.48,0.52,0.23,0.5,0.23,0.51,0.51,0.25,0.51,0.25,0.23,0.54,0.5,0.47,0.23,0.53,0.52,0.48,0.23,0.23,0.52,0.35,0.5,0.48,0.46,0.52,0.53,0.71,0.52,0.23,0.53,0.31,0.23,0.52,0.5,0.5,0.52,0.39,0.27,0.23,0.46,0.53,0.35,0.23" style="fill:rgb(0,0,0);font-family:Calibri;font-size:10.02px;stroke:none;">--&gt; Total needs: See Table 15.4. Regional breakdown of needs: For </text>
   <text y="396.086" x="246.59,251.51,253.79,258.77,263.03,266.387,269.866,272.146,276.406,278.686,281.986,286.546,288.766,294.046,298.845,302.745,307.665,312.945,315.225,320.506,325.725,328.005,330.525,336.285,344.865,347.145,352.365,357.645,361.001,366.221,371.501,374.858,377.138,380.194,385.474,388.954,391.174,397.655,402.935,408.233,411.229,416.689,418.963,424.184,432.163,436.964,440.862,444.76,447.039,450.516,455.496,460.776,465.756,472.901,477.7,482.981,485.2,490.18,492.465,497.264,502.545,507.764" svgx:width="0.49,0.23,0.5,0.42,0.34,0.35,0.23,0.42,0.23,0.34,0.45,0.23,0.52,0.48,0.39,0.5,0.52,0.23,0.53,0.52,0.23,0.25,0.58,0.86,0.23,0.53,0.52,0.34,0.52,0.52,0.34,0.23,0.31,0.53,0.35,0.23,0.65,0.53,0.52,0.31,0.54,0.23,0.53,0.8,0.48,0.39,0.39,0.23,0.35,0.5,0.52,0.5,0.71,0.48,0.52,0.23,0.5,0.23,0.48,0.52,0.52,0.23" style="fill:rgb(0,0,0);font-family:Calibri;font-size:10.02px;stroke:none;">Electricity based on IAM output for Non-Biomass renewable and </text>
   <text y="408.271" x="246.59,251.209,254.569,259.849,263.329,268.129,272.868,277.788,280.068,283.124,291.104,296.084,300.824,306.044,308.328,313.668,318.768,321.408,326.748,331.788,334.844,337.129,342.409,344.689,349.969,353.809,356.094,358.373,363.593,367.852,371.332,376.312,384.293,389.273,394.553,397.913,402.714,404.993,407.278,409.557,414.838,419.338,424.258,428.157,431.517,439.498,444.477,449.757,453.117,455.402,460.682,465.662,470.583,475.864,479.763,482.048,485.048,490.327,493.807,496.092,500.952,507.791,513.974" svgx:width="0.46,0.34,0.53,0.35,0.48,0.47,0.5,0.23,0.3,0.8,0.5,0.48,0.52,0.23,0.53,0.51,0.27,0.53,0.51,0.3,0.23,0.52,0.23,0.52,0.39,0.23,0.23,0.52,0.42,0.35,0.5,0.8,0.5,0.52,0.34,0.48,0.23,0.23,0.23,0.52,0.45,0.5,0.39,0.34,0.8,0.5,0.52,0.34,0.23,0.52,0.5,0.5,0.52,0.39,0.23,0.31,0.53,0.35,0.23,0.49,0.68,0.62,0.23" style="fill:rgb(0,0,0);font-family:Calibri;font-size:10.02px;stroke:none;">Storage (mean C1:C3) plus incremental investment needs for T&amp;D </text>
  </g>
  <g begin="text">
   <text y="420.48" x="246.6,249.656,257.636,262.616,267.416,272.696,274.976,280.256,285.356,287.997,293.336,298.436,300.716,302.997,307.916,311.816,315.716,318.0,323.34,328.44,331.496,333.716,336.772,340.672,345.653,350.633,352.912,357.772,362.512,367.732,370.012,374.992,377.277,382.377,387.477,389.937,395.037,397.557,399.778,404.878,409.978,412.439,417.539,420.595" svgx:width="0.3,0.8,0.5,0.48,0.52,0.23,0.53,0.51,0.27,0.53,0.51,0.23,0.23,0.5,0.39,0.39,0.23,0.53,0.51,0.3,0.23,0.3,0.39,0.5,0.5,0.23,0.49,0.48,0.52,0.23,0.5,0.23,0.51,0.51,0.25,0.51,0.25,0.23,0.51,0.51,0.25,0.51,0.3,0.25" style="fill:rgb(0,0,0);font-family:Calibri;font-size:10.02px;stroke:none;">(mean C1:C3 less C5) (see Table 15.2, 15.3).</text>
  </g>
  <g begin="text">
   <text y="420.48" x="423.06" svgx:width="0.23" style="fill:rgb(0,0,0);font-family:Calibri;font-size:10.02px;stroke:none;"> </text>
  </g>
  <path style="fill:rgb(0,0,0);stroke:none;stroke-width:1.0;" d="M70.860 540.840 L71.340 540.840 L71.340 541.320 L70.860 541.320 L70.860 540.840 "/>
  <path style="fill:rgb(0,0,0);stroke:none;stroke-width:1.0;" d="M71.340 540.840 L127.560 540.840 L127.560 541.320 L71.340 541.320 L71.340 540.840 "/>
  <path style="fill:rgb(0,0,0);stroke:none;stroke-width:1.0;" d="M127.560 540.840 L128.040 540.840 L128.040 541.320 L127.560 541.320 L127.560 540.840 "/>
  <path style="fill:rgb(0,0,0);stroke:none;stroke-width:1.0;" d="M128.040 540.840 L184.260 540.840 L184.260 541.320 L128.040 541.320 L128.040 540.840 "/>
  <path style="fill:rgb(0,0,0);stroke:none;stroke-width:1.0;" d="M184.260 540.840 L184.740 540.840 L184.740 541.320 L184.260 541.320 L184.260 540.840 "/>
  <path style="fill:rgb(0,0,0);stroke:none;stroke-width:1.0;" d="M184.740 540.840 L240.960 540.840 L240.960 541.320 L184.740 541.320 L184.740 540.840 "/>
  <path style="fill:rgb(0,0,0);stroke:none;stroke-width:1.0;" d="M240.960 540.840 L241.440 540.840 L241.440 541.320 L240.960 541.320 L240.960 540.840 "/>
  <path style="fill:rgb(0,0,0);stroke:none;stroke-width:1.0;" d="M523.980 540.840 L524.460 540.840 L524.460 541.320 L523.980 541.320 L523.980 540.840 "/>
  <g begin="text">
   <text y="433.2" x="76.5,81.841,87.121,91.921,97.201,100.558,105.538,108.958,111.242,116.282" svgx:width="0.53,0.52,0.48,0.52,0.34,0.5,0.35,0.23,0.51,0.51" style="fill:rgb(0,0,0);font-family:Calibri;font-size:10.02px;stroke:none;">Chapter 15</text>
  </g>
  <g begin="text">
   <text y="433.2" x="121.32" svgx:width="0.23" style="fill:rgb(0,0,0);font-family:Calibri;font-size:10.02px;stroke:none;"> </text>
  </g>
  <g begin="text">
   <text y="433.2" x="133.2,138.3" svgx:width="0.51,0.51" style="fill:rgb(0,0,0);font-family:Calibri;font-size:10.02px;stroke:none;">23</text>
  </g>
  <g begin="text">
   <text y="433.2" x="143.34" svgx:width="0.23" style="fill:rgb(0,0,0);font-family:Calibri;font-size:10.02px;stroke:none;"> </text>
  </g>
  <g begin="text">
   <text y="433.2" x="189.9,194.76,199.56,204.84,207.12,212.1,214.38,219.42,224.52,227.04" svgx:width="0.49,0.48,0.52,0.23,0.5,0.23,0.51,0.51,0.25,0.51" style="fill:rgb(0,0,0);font-family:Calibri;font-size:10.02px;stroke:none;">Table 15.1</text>
  </g>
  <g begin="text">
   <text y="433.2" x="232.08" svgx:width="0.23" style="fill:rgb(0,0,0);font-family:Calibri;font-size:10.02px;stroke:none;"> </text>
  </g>
  <g begin="text">
   <text y="433.2" x="246.6,251.46,256.08,262.5,265.2,267.42,273.24,277.138,279.423,284.702,286.977,290.874,295.075,300.355,304.195,308.093,313.073,318.353,320.633,327.777,330.051,333.411,338.692,340.971,344.148,346.422,354.403,356.683,361.423,366.703,371.982,374.203,380.022,382.303,387.102,391.903,394.363,396.642,401.443,406.662,411.943,414.217,419.438,424.177,426.462,429.821,436.966,442.245,444.53,446.804,449.079,454.359,459.339,463.179,465.464,472.603,474.883,478.243,483.524,485.803,490.303,495.104,497.378,502.658,507.638,511.535" svgx:width="0.49,0.46,0.64,0.27,0.23,0.58,0.39,0.23,0.52,0.23,0.39,0.42,0.52,0.39,0.39,0.5,0.52,0.23,0.71,0.23,0.34,0.52,0.23,0.32,0.23,0.8,0.23,0.48,0.52,0.52,0.23,0.58,0.23,0.48,0.48,0.25,0.23,0.48,0.52,0.52,0.23,0.52,0.47,0.23,0.34,0.71,0.53,0.23,0.23,0.23,0.52,0.5,0.39,0.23,0.71,0.23,0.34,0.52,0.23,0.45,0.48,0.23,0.52,0.5,0.39,0.23" style="fill:rgb(0,0,0);font-family:Calibri;font-size:10.02px;stroke:none;">TSU: As discussed with Jim and Alaa, adding two lines with values </text>
  </g>
  <g begin="text">
   <text y="445.38" x="246.6,251.881,256.86,259.92,262.2,267.0,270.36,275.34,280.56,282.844,286.204,291.485,293.764,300.124,304.684,310.866,315.906,321.007,326.047,331.147,333.426,336.067,338.346,340.631,344.53,349.51,354.49,356.77,361.691,366.971,372.252,374.536,379.816,382.816,385.1,390.381,395.6,399.859,402.143,405.204,410.483,413.904,416.183,419.603,424.583,429.083,431.364,435.264,440.243,445.524,447.804,452.304,457.283,460.763,464.663,466.944,472.223,477.504,479.755" svgx:width="0.52,0.5,0.31,0.23,0.48,0.34,0.5,0.52,0.23,0.34,0.53,0.23,0.64,0.46,0.62,0.51,0.51,0.51,0.51,0.23,0.27,0.23,0.23,0.39,0.5,0.5,0.23,0.5,0.52,0.52,0.23,0.53,0.31,0.23,0.52,0.53,0.42,0.23,0.31,0.53,0.35,0.23,0.35,0.5,0.45,0.23,0.39,0.5,0.52,0.23,0.45,0.5,0.35,0.39,0.23,0.53,0.52,0.23,0.23" style="fill:rgb(0,0,0);font-family:Calibri;font-size:10.02px;stroke:none;">deflated to USD2015 : see end of doc for revised version </text>
  </g>
  <path style="fill:rgb(0,0,0);stroke:none;stroke-width:1.0;" d="M71.340 323.700 L127.560 323.700 L127.560 418.200 L71.340 418.200 L71.340 323.700 M71.340 323.700 L127.560 323.700 L127.560 418.200 L71.340 418.200 L71.340 323.700 M128.040 323.700 L184.260 323.700 L184.260 418.200 L128.040 418.200 L128.040 323.700 M128.040 323.700 L184.260 323.700 L184.260 418.200 L128.040 418.200 L128.040 323.700 M184.740 323.700 L240.960 323.700 L240.960 418.200 L184.740 418.200 L184.740 323.700 M184.740 323.700 L240.960 323.700 L240.960 418.200 L184.740 418.200 L184.740 323.700 M70.860 418.260 L71.340 418.260 L71.340 418.740 L70.860 418.740 L70.860 418.260 "/>
  <path style="fill:rgb(0,0,0);stroke:none;stroke-width:1.0;" d="M71.340 418.260 L127.560 418.260 L127.560 418.740 L71.340 418.740 L71.340 418.260 "/>
  <path style="fill:rgb(0,0,0);stroke:none;stroke-width:1.0;" d="M127.560 418.260 L128.040 418.260 L128.040 418.740 L127.560 418.740 L127.560 418.260 "/>
  <path style="fill:rgb(0,0,0);stroke:none;stroke-width:1.0;" d="M128.040 418.260 L184.260 418.260 L184.260 418.740 L128.040 418.740 L128.040 418.260 "/>
  <path style="fill:rgb(0,0,0);stroke:none;stroke-width:1.0;" d="M184.260 418.260 L184.740 418.260 L184.740 418.740 L184.260 418.740 L184.260 418.260 "/>
  <path style="fill:rgb(0,0,0);stroke:none;stroke-width:1.0;" d="M184.740 418.260 L240.960 418.260 L240.960 418.740 L184.740 418.740 L184.740 418.260 "/>
  <path style="fill:rgb(0,0,0);stroke:none;stroke-width:1.0;" d="M240.960 418.260 L241.440 418.260 L241.440 418.740 L240.960 418.740 L240.960 418.260 "/>
  <path style="fill:rgb(0,0,0);stroke:none;stroke-width:1.0;" d="M523.980 418.260 L524.460 418.260 L524.460 418.740 L523.980 418.740 L523.980 418.260 "/>
  <path style="fill:rgb(0,0,0);stroke:none;stroke-width:1.0;" d="M70.860 323.700 L71.340 323.700 L71.340 418.260 L70.860 418.260 L70.860 323.700 "/>
  <path style="fill:rgb(0,0,0);stroke:none;stroke-width:1.0;" d="M127.560 323.700 L128.040 323.700 L128.040 418.260 L127.560 418.260 L127.560 323.700 "/>
  <path style="fill:rgb(0,0,0);stroke:none;stroke-width:1.0;" d="M184.260 323.700 L184.740 323.700 L184.740 418.260 L184.260 418.260 L184.260 323.700 "/>
  <path style="fill:rgb(0,0,0);stroke:none;stroke-width:1.0;" d="M240.960 323.700 L241.440 323.700 L241.440 418.260 L240.960 418.260 L240.960 323.700 "/>
  <path style="fill:rgb(0,0,0);stroke:none;stroke-width:1.0;" d="M523.980 323.700 L524.460 323.700 L524.460 418.260 L523.980 418.260 L523.980 323.700 "/>
  <g begin="text">
   <text y="528.18" x="76.5,81.841,87.121,91.921,97.201,100.558,105.538,108.958,111.242,116.282" svgx:width="0.53,0.52,0.48,0.52,0.34,0.5,0.35,0.23,0.51,0.51" style="fill:rgb(0,0,0);font-family:Calibri;font-size:10.02px;stroke:none;">Chapter 15</text>
  </g>
  <g begin="text">
   <text y="528.18" x="121.32" svgx:width="0.23" style="fill:rgb(0,0,0);font-family:Calibri;font-size:10.02px;stroke:none;"> </text>
  </g>
  <g begin="text">
   <text y="528.18" x="133.2,138.3" svgx:width="0.51,0.51" style="fill:rgb(0,0,0);font-family:Calibri;font-size:10.02px;stroke:none;">23</text>
  </g>
  <g begin="text">
   <text y="528.18" x="143.34" svgx:width="0.23" style="fill:rgb(0,0,0);font-family:Calibri;font-size:10.02px;stroke:none;"> </text>
  </g>
  <g begin="text">
   <text y="528.18" x="189.9,194.76,199.56,204.841,207.121,212.101,214.381,219.421,224.521,227.041,232.141" svgx:width="0.49,0.48,0.52,0.23,0.5,0.23,0.51,0.51,0.25,0.51,0.23" style="fill:rgb(0,0,0);font-family:Calibri;font-size:10.02px;stroke:none;">Table 15.1 </text>
  </g>
  <g begin="text">
   <text y="540.36" x="189.9,196.38,201.66,205.017,209.94" svgx:width="0.65,0.53,0.34,0.5,0.23" style="fill:rgb(0,0,0);font-family:Calibri;font-size:10.02px;stroke:none;">Note </text>
  </g>
  <g begin="text">
   <text y="528.18" x="246.6,253.08,258.36,261.72,266.7,269.34,271.62,276.239,279.599,284.339,289.62,294.9,297.18,302.4,307.08,309.364,314.704,319.984,327.964,335.944,338.224,341.585,344.944,349.924,354.904,357.189,362.468,367.689,369.968,374.587,376.867,382.148,386.887,392.168,396.426,401.406,403.626,406.683,411.302,416.581,421.201,424.257,426.717,428.937,435.417,440.697,448.677,453.958,458.938,462.418,466.318,468.597,470.878,476.097,478.382,482.582,487.801,491.281,494.761,499.741,505.022,508.382" svgx:width="0.65,0.53,0.34,0.5,0.27,0.23,0.46,0.34,0.48,0.52,0.52,0.23,0.52,0.47,0.23,0.53,0.53,0.8,0.8,0.23,0.34,0.34,0.5,0.5,0.23,0.53,0.52,0.23,0.46,0.23,0.52,0.48,0.52,0.42,0.5,0.23,0.3,0.46,0.53,0.46,0.3,0.25,0.23,0.65,0.52,0.8,0.52,0.5,0.35,0.39,0.23,0.23,0.52,0.23,0.42,0.52,0.35,0.35,0.5,0.52,0.34,0.23" style="fill:rgb(0,0,0);font-family:Calibri;font-size:10.02px;stroke:none;">Note: Standing Committee on Finance (SCF). Numbers in current </text>
  </g>
  <g begin="text">
   <text y="540.36" x="246.6,251.881,254.16,256.44,258.72,261.0,266.28,271.561,273.845,280.265,284.884,291.067,293.527,295.811,301.993,306.913,309.973,312.253,317.054,320.413,325.393,330.674,332.958,336.318,341.538,343.818,350.239,354.798,360.98,366.02,371.12,376.161,381.261,383.54,385.821,391.101,393.386,395.66,398.96,403.761,406.035,408.316,412.561,415.081,417.361,423.663,425.938,430.438,435.418,440.698,442.978,446.338,451.618,456.538,458.823,463.322,468.122,471.599,473.88,478.679,482.039,484.319,489.599,494.879,498.776,501.056,503.336,508.616" svgx:width="0.52,0.23,0.23,0.23,0.23,0.53,0.52,0.23,0.64,0.46,0.62,0.25,0.23,0.62,0.5,0.31,0.23,0.48,0.34,0.5,0.52,0.23,0.34,0.53,0.23,0.64,0.46,0.62,0.51,0.51,0.51,0.51,0.23,0.23,0.52,0.23,0.23,0.34,0.48,0.23,0.23,0.42,0.25,0.23,0.63,0.23,0.45,0.5,0.52,0.23,0.34,0.52,0.5,0.23,0.45,0.48,0.35,0.23,0.48,0.34,0.23,0.53,0.52,0.39,0.23,0.23,0.52,0.23" style="fill:rgb(0,0,0);font-family:Calibri;font-size:10.02px;stroke:none;">billion USD. Deflated to USD2015 in italic. Given the variations in </text>
   <text y="552.604" x="246.6,251.881,257.16,265.14,270.421,275.401,278.88,282.78,285.065,288.545,293.465,298.745,304.025,307.446,310.805,315.785,321.066,323.345,328.566,333.125,335.345,340.626,342.905,345.965,349.026,354.006,357.485,362.465,367.686,371.047,373.326,378.306,383.587,386.946,389.226,392.587,394.866,399.846,403.747,406.199" svgx:width="0.52,0.52,0.8,0.52,0.5,0.35,0.39,0.23,0.35,0.5,0.52,0.53,0.35,0.34,0.5,0.52,0.23,0.52,0.45,0.23,0.52,0.23,0.31,0.31,0.5,0.35,0.5,0.52,0.34,0.23,0.5,0.52,0.34,0.23,0.34,0.23,0.5,0.39,0.25,0.23" style="fill:rgb(0,0,0);font-family:Calibri;font-size:10.02px;stroke:none;">numbers reported by different entities, </text>
  </g>
  <path style="fill:rgb(0,0,0);stroke:none;stroke-width:1.0;" d="M71.340 228.720 L127.560 228.720 L127.560 323.220 L71.340 323.220 L71.340 228.720 M71.340 228.720 L127.560 228.720 L127.560 323.220 L71.340 323.220 L71.340 228.720 M128.040 228.720 L184.260 228.720 L184.260 323.220 L128.040 323.220 L128.040 228.720 M128.040 228.720 L184.260 228.720 L184.260 323.220 L128.040 323.220 L128.040 228.720 M184.740 228.720 L240.960 228.720 L240.960 323.220 L184.740 323.220 L184.740 228.720 M70.860 323.220 L71.340 323.220 L71.340 323.700 L70.860 323.700 L70.860 323.220 "/>
  <path style="fill:rgb(0,0,0);stroke:none;stroke-width:1.0;" d="M71.340 323.220 L127.560 323.220 L127.560 323.700 L71.340 323.700 L71.340 323.220 "/>
  <path style="fill:rgb(0,0,0);stroke:none;stroke-width:1.0;" d="M127.560 323.220 L128.040 323.220 L128.040 323.700 L127.560 323.700 L127.560 323.220 "/>
  <path style="fill:rgb(0,0,0);stroke:none;stroke-width:1.0;" d="M128.040 323.220 L184.260 323.220 L184.260 323.700 L128.040 323.700 L128.040 323.220 "/>
  <path style="fill:rgb(0,0,0);stroke:none;stroke-width:1.0;" d="M184.260 323.220 L184.740 323.220 L184.740 323.700 L184.260 323.700 L184.260 323.220 "/>
  <path style="fill:rgb(0,0,0);stroke:none;stroke-width:1.0;" d="M184.740 323.220 L240.960 323.220 L240.960 323.700 L184.740 323.700 L184.740 323.220 "/>
  <path style="fill:rgb(0,0,0);stroke:none;stroke-width:1.0;" d="M240.960 323.220 L241.440 323.220 L241.440 323.700 L240.960 323.700 L240.960 323.220 "/>
  <path style="fill:rgb(0,0,0);stroke:none;stroke-width:1.0;" d="M523.980 323.220 L524.460 323.220 L524.460 323.700 L523.980 323.700 L523.980 323.220 "/>
  <path style="fill:rgb(0,0,0);stroke:none;stroke-width:1.0;" d="M70.860 228.720 L71.340 228.720 L71.340 323.220 L70.860 323.220 L70.860 228.720 "/>
  <path style="fill:rgb(0,0,0);stroke:none;stroke-width:1.0;" d="M127.560 228.720 L128.040 228.720 L128.040 323.220 L127.560 323.220 L127.560 228.720 "/>
  <path style="fill:rgb(0,0,0);stroke:none;stroke-width:1.0;" d="M184.260 228.720 L184.740 228.720 L184.740 323.220 L184.260 323.220 L184.260 228.720 "/>
  <path style="fill:rgb(0,0,0);stroke:none;stroke-width:1.0;" d="M240.960 228.720 L241.440 228.720 L241.440 323.220 L240.960 323.220 L240.960 228.720 "/>
  <path style="fill:rgb(0,0,0);stroke:none;stroke-width:1.0;" d="M523.980 228.720 L524.460 228.720 L524.460 323.220 L523.980 323.220 L523.980 228.720 "/>
  <g begin="text">
   <text y="623.16" x="76.5,81.841,87.121,91.921,97.201,100.558,105.538,108.958,111.242,116.282" svgx:width="0.53,0.52,0.48,0.52,0.34,0.5,0.35,0.23,0.51,0.51" style="fill:rgb(0,0,0);font-family:Calibri;font-size:10.02px;stroke:none;">Chapter 15</text>
  </g>
  <g begin="text">
   <text y="623.16" x="121.32" svgx:width="0.23" style="fill:rgb(0,0,0);font-family:Calibri;font-size:10.02px;stroke:none;"> </text>
  </g>
  <g begin="text">
   <text y="623.16" x="133.2,138.3" svgx:width="0.51,0.51" style="fill:rgb(0,0,0);font-family:Calibri;font-size:10.02px;stroke:none;">23</text>
  </g>
  <g begin="text">
   <text y="623.16" x="143.34" svgx:width="0.23" style="fill:rgb(0,0,0);font-family:Calibri;font-size:10.02px;stroke:none;"> </text>
  </g>
  <g begin="text">
   <text y="623.16" x="189.9,194.519,196.799,201.538,206.819,210.299,215.279,217.503,222.543,227.643,230.163" svgx:width="0.46,0.23,0.47,0.52,0.35,0.5,0.23,0.51,0.51,0.25,0.51" style="fill:rgb(0,0,0);font-family:Calibri;font-size:10.02px;stroke:none;">Figure 15.3</text>
  </g>
  <g begin="text">
   <text y="623.16" x="235.2" svgx:width="0.23" style="fill:rgb(0,0,0);font-family:Calibri;font-size:10.02px;stroke:none;"> </text>
  </g>
  <g begin="text">
   <text y="623.16" x="246.6,253.08,258.361,261.72,266.7,269.34,271.62,278.1,283.379,291.3,296.58,301.56,304.979,308.877,311.157,313.431,318.712,320.991,326.272,328.546,330.827,333.102,335.382,340.662,345.941,348.226,354.646,359.206,365.326,367.846" svgx:width="0.65,0.53,0.34,0.5,0.27,0.23,0.65,0.52,0.8,0.52,0.5,0.35,0.39,0.23,0.23,0.52,0.23,0.52,0.23,0.23,0.23,0.23,0.53,0.52,0.23,0.64,0.46,0.62,0.25,0.23" style="fill:rgb(0,0,0);font-family:Calibri;font-size:10.02px;stroke:none;">Note: Numbers in billion USD. </text>
  </g>
  <g begin="text">
   <text y="623.16" x="370.14" svgx:width="0.31" style="fill:rgb(0,0,0);font-family:Calibri;font-size:10.02px;stroke:none;">-</text>
  </g>
  <g begin="text">
   <text y="623.16" x="373.2,378.18,380.465,386.944,392.224,395.584,400.504,403.204,405.488,411.908,417.189,425.109,430.389,435.369,438.849,442.749,445.033,447.313,452.593,454.813,459.071,464.352,467.832,471.312,476.292,481.512,484.813,487.092,492.373,494.652,496.932,499.213,501.492,506.773,512.053" svgx:width="0.5,0.23,0.65,0.53,0.34,0.5,0.27,0.23,0.65,0.52,0.8,0.52,0.5,0.35,0.39,0.23,0.23,0.52,0.23,0.42,0.52,0.35,0.35,0.5,0.52,0.34,0.23,0.52,0.23,0.23,0.23,0.23,0.53,0.52,0.23" style="fill:rgb(0,0,0);font-family:Calibri;font-size:10.02px;stroke:none;">&gt; Note: Numbers in current billion </text>
  </g>
  <g begin="text">
   <text y="635.4" x="246.6,253.02,257.639,263.821,266.341,268.561,274.743,279.723,282.783,285.063,289.863,293.223,298.143,303.423,305.643,309.004,314.283,316.568,322.987,327.548,333.73,338.77,343.87,348.91,354.01,356.29,360.191,365.111,370.091,372.37,377.231,382.03,387.311,389.59,394.57,396.85,401.89,406.99,409.51,414.55,416.835,419.114,424.335,426.599,428.874,432.235,437.034,439.315,441.589,445.858,448.373,450.597" svgx:width="0.64,0.46,0.62,0.25,0.23,0.62,0.5,0.31,0.23,0.48,0.34,0.5,0.52,0.23,0.34,0.53,0.23,0.64,0.46,0.62,0.51,0.51,0.51,0.51,0.23,0.39,0.5,0.5,0.23,0.49,0.48,0.52,0.23,0.5,0.23,0.51,0.51,0.25,0.51,0.23,0.23,0.52,0.23,0.23,0.34,0.48,0.23,0.23,0.42,0.25,0.23,0.23" style="fill:rgb(0,0,0);font-family:Calibri;font-size:10.02px;stroke:none;">USD. Deflated to USD2015 see Table 15.1 in italic. </text>
  </g>
  <path style="fill:rgb(0,0,0);stroke:none;stroke-width:1.0;" d="M71.340 133.740 L127.560 133.740 L127.560 228.240 L71.340 228.240 L71.340 133.740 M71.340 133.740 L127.560 133.740 L127.560 228.240 L71.340 228.240 L71.340 133.740 M128.040 133.740 L184.260 133.740 L184.260 228.240 L128.040 228.240 L128.040 133.740 M128.040 133.740 L184.260 133.740 L184.260 228.240 L128.040 228.240 L128.040 133.740 M184.740 133.740 L240.960 133.740 L240.960 228.240 L184.740 228.240 L184.740 133.740 M184.740 133.740 L240.960 133.740 L240.960 228.240 L184.740 228.240 L184.740 133.740 M70.860 228.240 L71.340 228.240 L71.340 228.720 L70.860 228.720 L70.860 228.240 "/>
  <path style="fill:rgb(0,0,0);stroke:none;stroke-width:1.0;" d="M71.340 228.240 L127.560 228.240 L127.560 228.720 L71.340 228.720 L71.340 228.240 "/>
  <path style="fill:rgb(0,0,0);stroke:none;stroke-width:1.0;" d="M127.560 228.240 L128.040 228.240 L128.040 228.720 L127.560 228.720 L127.560 228.240 "/>
  <path style="fill:rgb(0,0,0);stroke:none;stroke-width:1.0;" d="M128.040 228.240 L184.260 228.240 L184.260 228.720 L128.040 228.720 L128.040 228.240 "/>
  <path style="fill:rgb(0,0,0);stroke:none;stroke-width:1.0;" d="M184.260 228.240 L184.740 228.240 L184.740 228.720 L184.260 228.720 L184.260 228.240 "/>
  <path style="fill:rgb(0,0,0);stroke:none;stroke-width:1.0;" d="M184.740 228.240 L240.960 228.240 L240.960 228.720 L184.740 228.720 L184.740 228.240 "/>
  <path style="fill:rgb(0,0,0);stroke:none;stroke-width:1.0;" d="M240.960 228.240 L241.440 228.240 L241.440 228.720 L240.960 228.720 L240.960 228.240 "/>
  <path style="fill:rgb(0,0,0);stroke:none;stroke-width:1.0;" d="M523.980 228.240 L524.460 228.240 L524.460 228.720 L523.980 228.720 L523.980 228.240 "/>
  <path style="fill:rgb(0,0,0);stroke:none;stroke-width:1.0;" d="M70.860 133.680 L71.340 133.680 L71.340 228.240 L70.860 228.240 L70.860 133.680 "/>
  <path style="fill:rgb(0,0,0);stroke:none;stroke-width:1.0;" d="M70.860 133.200 L71.340 133.200 L71.340 133.680 L70.860 133.680 L70.860 133.200 "/>
  <path style="fill:rgb(0,0,0);stroke:none;stroke-width:1.0;" d="M70.860 133.200 L71.340 133.200 L71.340 133.680 L70.860 133.680 L70.860 133.200 "/>
  <path style="fill:rgb(0,0,0);stroke:none;stroke-width:1.0;" d="M71.340 133.200 L127.560 133.200 L127.560 133.680 L71.340 133.680 L71.340 133.200 "/>
  <path style="fill:rgb(0,0,0);stroke:none;stroke-width:1.0;" d="M127.560 133.680 L128.040 133.680 L128.040 228.240 L127.560 228.240 L127.560 133.680 "/>
  <path style="fill:rgb(0,0,0);stroke:none;stroke-width:1.0;" d="M127.560 133.200 L128.040 133.200 L128.040 133.680 L127.560 133.680 L127.560 133.200 "/>
  <path style="fill:rgb(0,0,0);stroke:none;stroke-width:1.0;" d="M128.040 133.200 L184.260 133.200 L184.260 133.680 L128.040 133.680 L128.040 133.200 "/>
  <path style="fill:rgb(0,0,0);stroke:none;stroke-width:1.0;" d="M184.260 133.680 L184.740 133.680 L184.740 228.240 L184.260 228.240 L184.260 133.680 "/>
  <path style="fill:rgb(0,0,0);stroke:none;stroke-width:1.0;" d="M184.260 133.200 L184.740 133.200 L184.740 133.680 L184.260 133.680 L184.260 133.200 "/>
  <path style="fill:rgb(0,0,0);stroke:none;stroke-width:1.0;" d="M184.740 133.200 L240.960 133.200 L240.960 133.680 L184.740 133.680 L184.740 133.200 "/>
  <path style="fill:rgb(0,0,0);stroke:none;stroke-width:1.0;" d="M240.960 133.680 L241.440 133.680 L241.440 228.240 L240.960 228.240 L240.960 133.680 "/>
  <path style="fill:rgb(0,0,0);stroke:none;stroke-width:1.0;" d="M240.960 133.200 L241.440 133.200 L241.440 133.680 L240.960 133.680 L240.960 133.200 "/>
  <path style="fill:rgb(0,0,0);stroke:none;stroke-width:1.0;" d="M523.980 133.680 L524.460 133.680 L524.460 228.240 L523.980 228.240 L523.980 133.680 "/>
  <path style="fill:rgb(0,0,0);stroke:none;stroke-width:1.0;" d="M523.980 133.200 L524.460 133.200 L524.460 133.680 L523.980 133.680 L523.980 133.200 "/>
  <path style="fill:rgb(0,0,0);stroke:none;stroke-width:1.0;" d="M523.980 133.200 L524.460 133.200 L524.460 133.680 L523.980 133.680 L523.980 133.200 "/>
 </g>
</svg>
