<?xml version="1.0" encoding="UTF-8"?>
<svg height="813.88" width="536.18" xmlns="http://www.w3.org/2000/svg">
 <g id="page" xmlns:svgx="http://www.xml-cml.org/schema/svgx">
  <g begin="text">
   <text y="45.72" x="72.024,78.162,81.231,86.751,91.587,94.7,97.46,105.376,110.896,116.416,121.218,124.928,130.448,138.971,143.872,149.392,152.517,155.277,163.082,166.195,170.39,173.504,177.103,180.216,185.736,191.135,194.137,197.251,202.771" svgx:width="0.56,0.28,0.5,0.44,0.28,0.25,0.72,0.5,0.5,0.44,0.33,0.5,0.78,0.44,0.5,0.28,0.25,0.72,0.28,0.39,0.28,0.33,0.28,0.5,0.5,0.28,0.28,0.5,0.5" style="fill:rgb(0,0,0);font-family:TimesNewRomanPSMT;font-size:11.04px;stroke:none;">Final Government Distribution</text>
  </g>
  <g begin="text">
   <text y="45.72" x="208.37" svgx:width="0.25" style="fill:rgb(0,0,0);font-family:TimesNewRomanPSMT;font-size:11.04px;stroke:none;"> </text>
  </g>
  <g begin="text">
   <text y="45.72" x="211.01" svgx:width="0.25" style="fill:rgb(0,0,0);font-family:TimesNewRomanPSMT;font-size:11.04px;stroke:none;"> </text>
  </g>
  <g begin="text">
   <text y="45.72" x="276.17,283.49,289.009,293.911,299.431,302.556,307.358,311.067,313.827" svgx:width="0.67,0.5,0.44,0.5,0.28,0.44,0.33,0.25,0.5" style="fill:rgb(0,0,0);font-family:TimesNewRomanPSMT;font-size:11.04px;stroke:none;">Chapter 4</text>
  </g>
  <g begin="text">
   <text y="45.72" x="319.27" svgx:width="0.25" style="fill:rgb(0,0,0);font-family:TimesNewRomanPSMT;font-size:11.04px;stroke:none;"> </text>
  </g>
  <g begin="text">
   <text y="45.72" x="443.38,446.979,453.117,460.415,467.734" svgx:width="0.33,0.56,0.67,0.67,0.25" style="fill:rgb(0,0,0);font-family:TimesNewRomanPSMT;font-size:11.04px;stroke:none;">IPCC </text>
  </g>
  <g begin="text">
   <text y="45.72" x="470.5,478.416,485.735,491.255,494.015,504.437,512.408,516.084,519.694" svgx:width="0.72,0.67,0.5,0.25,0.94,0.72,0.33,0.33,0.33" style="fill:rgb(0,0,0);font-family:TimesNewRomanPSMT;font-size:11.04px;stroke:none;">AR6 WGIII</text>
  </g>
  <g begin="text">
   <text y="45.72" x="523.42" svgx:width="0.25" style="fill:rgb(0,0,0);font-family:TimesNewRomanPSMT;font-size:11.04px;stroke:none;"> </text>
  </g>
  <g begin="text">
   <text y="60.48" x="72.024" svgx:width="0.25" style="fill:rgb(0,0,0);font-family:TimesNewRomanPSMT;font-size:12.0px;stroke:none;"> </text>
  </g>
  <g begin="text">
   <text y="74.28" x="72.024" svgx:width="0.25" style="fill:rgb(0,0,0);font-family:TimesNewRomanPSMT;font-size:12.0px;stroke:none;"> </text>
  </g>
  <g begin="text">
   <text y="88.1" x="72.024" svgx:width="0.25" style="fill:rgb(0,0,0);font-family:TimesNewRomanPSMT;font-size:12.0px;stroke:none;"> </text>
  </g>
  <g begin="text">
   <text y="775.296" x="72.024,79.94,85.46,88.22,96.135,101.655,105.365,108.125,116.04,119.154,122.753,127.655,130.415,133.075,141.708,147.847,153.367,157.043,161.868,164.628,170.148,175.049,177.809,185.78,188.75,192.945,196.655,201.556,204.681,210.819,216.803,220.512" svgx:width="0.72,0.5,0.25,0.72,0.5,0.33,0.25,0.72,0.28,0.33,0.44,0.25,0.25,0.78,0.56,0.5,0.33,0.44,0.25,0.5,0.44,0.25,0.72,0.28,0.39,0.33,0.44,0.28,0.56,0.56,0.33,0.44" style="fill:rgb(0,0,0);font-family:TimesNewRomanPS-BoldMT;font-size:11.04px;stroke:none;">Do Not Cite, Quote or Distribute</text>
  </g>
  <g begin="text">
   <text y="775.296" x="225.41" svgx:width="0.25" style="fill:rgb(0,0,0);font-family:TimesNewRomanPS-BoldMT;font-size:11.04px;stroke:none;"> </text>
  </g>
  <g begin="text">
   <text y="775.296" x="287.57" svgx:width="0.5" style="fill:rgb(0,0,0);font-family:TimesNewRomanPSMT;font-size:11.04px;stroke:none;">4</text>
  </g>
  <g begin="text">
   <text y="775.296" x="293.09" svgx:width="0.33" style="fill:rgb(0,0,0);font-family:TimesNewRomanPSMT;font-size:11.04px;stroke:none;">-</text>
  </g>
  <g begin="text">
   <text y="775.296" x="296.69,302.21" svgx:width="0.5,0.5" style="fill:rgb(0,0,0);font-family:TimesNewRomanPSMT;font-size:11.04px;stroke:none;">72</text>
  </g>
  <g begin="text">
   <text y="775.296" x="307.73" svgx:width="0.25" style="fill:rgb(0,0,0);font-family:TimesNewRomanPSMT;font-size:11.04px;stroke:none;"> </text>
  </g>
  <g begin="text">
   <text y="775.296" x="310.49" svgx:width="0.25" style="fill:rgb(0,0,0);font-family:TimesNewRomanPSMT;font-size:11.04px;stroke:none;"> </text>
  </g>
  <g begin="text">
   <text y="775.296" x="450.1,456.845,462.365,465.435,470.259,473.372,476.132,481.652,486.554,491.975,496.876,501.204,504.207" svgx:width="0.61,0.5,0.28,0.44,0.28,0.25,0.5,0.44,0.5,0.44,0.39,0.28,0.25" style="fill:rgb(0,0,0);font-family:TimesNewRomanPSMT;font-size:11.04px;stroke:none;">Total pages: </text>
  </g>
  <g begin="text">
   <text y="775.296" x="506.98,512.5,518.02" svgx:width="0.5,0.5,0.5" style="fill:rgb(0,0,0);font-family:TimesNewRomanPSMT;font-size:11.04px;stroke:none;">156</text>
  </g>
  <g begin="text">
   <text y="775.296" x="523.42" svgx:width="0.25" style="fill:rgb(0,0,0);font-family:TimesNewRomanPSMT;font-size:9.96px;stroke:none;"> </text>
  </g>
  <g begin="text">
   <text y="790.056" x="72.024" svgx:width="0.25" style="fill:rgb(0,0,0);font-family:TimesNewRomanPSMT;font-size:12.0px;stroke:none;"> </text>
  </g>
  <g begin="text">
   <text y="803.88" x="72.024" svgx:width="0.25" style="fill:rgb(0,0,0);font-family:TimesNewRomanPSMT;font-size:12.0px;stroke:none;"> </text>
  </g>
  <g begin="text">
   <text y="101.06" x="72.024,77.544,83.064,85.824,86.895,90.008,95.528,100.43,103.19000000000001,104.272,109.074,113.369,117.708,123.106,131.739,137.138,140.251,143.365,148.763,154.283,157.04299999999998,158.114,163.634,167.343,170.10299999999998,171.174,176.076,178.83599999999998,179.808,184.709,187.834,192.636,197.538,201.269,204.029,205.1,208.81,213.612,216.725,221.528,224.641,227.644,233.164,238.684,242.978,248.399,251.512,257.032,259.792,260.863,266.383,271.186,274.299,282.215,287.116,292.04,297.56,300.32,301.391,306.79,312.188,317.09,320.214,322.974,324.045,328.34,333.164,336.277,339.28,342.394,347.914,353.434,356.194,357.143,362.045,367.565,373.085,375.84499999999997,376.927,382.447,387.845,390.959,394.072,398.874,404.394,407.154,408.225,413.745,416.748,421.65,427.17,432.59,435.704,441.224,446.744" svgx:width="0.5,0.5,0.25,0.55,0.28,0.5,0.44,0.25,0.55,0.44,0.39,0.39,0.5,0.78,0.5,0.28,0.28,0.5,0.5,0.25,0.55,0.5,0.33,0.25,0.55,0.44,0.25,0.55,0.44,0.28,0.44,0.44,0.33,0.25,0.55,0.33,0.44,0.28,0.44,0.28,0.28,0.5,0.5,0.39,0.5,0.28,0.5,0.25,0.55,0.5,0.44,0.28,0.72,0.44,0.44,0.5,0.25,0.55,0.5,0.5,0.44,0.28,0.25,0.55,0.39,0.44,0.28,0.28,0.28,0.5,0.5,0.25,0.55,0.44,0.5,0.5,0.25,0.55,0.5,0.5,0.28,0.28,0.44,0.5,0.25,0.55,0.5,0.28,0.44,0.5,0.5,0.28,0.5,0.5,0.25" style="fill:rgb(0,0,0);font-family:TimesNewRomanPSMT;font-size:11.04px;stroke:none;">on the assumption of a clear relationship between goal setting and policy planning </text>
  </g>
  <g begin="text">
   <text y="101.06" x="450.94,454.649,462.455,466.164,471.066,476.586,482.007,485.716,491.236,493.996,495.067,500.587,506.107" svgx:width="0.33,0.72,0.33,0.44,0.5,0.5,0.33,0.5,0.25,0.55,0.5,0.5,0.5" style="fill:rgb(0,0,0);font-family:TimesNewRomanPSMT;font-size:11.04px;stroke:none;">(Dreborg 199</text>
  </g>
  <g begin="text">
   <text y="101.06" x="511.66,517.06" svgx:width="0.5,0.33" style="fill:rgb(0,0,0);font-family:TimesNewRomanPSMT;font-size:11.04px;stroke:none;">6)</text>
  </g>
  <g begin="text">
   <text y="101.06" x="520.78,523.42" svgx:width="0.25,0.25" style="fill:rgb(0,0,0);font-family:TimesNewRomanPSMT;font-size:11.04px;stroke:none;">. </text>
  </g>
  <g begin="text">
   <text y="101.06" x="48.0" svgx:width="0.5" style="fill:rgb(0,0,0);font-family:TimesNewRomanPSMT;font-size:12.0px;stroke:none;">1</text>
  </g>
  <g begin="text">
   <text y="101.06" x="54.0" svgx:width="0.25" style="fill:rgb(0,0,0);font-family:TimesNewRomanPSMT;font-size:12.0px;stroke:none;"> </text>
  </g>
  <g begin="text">
   <text y="114.98" x="72.024,79.94,84.841,89.765,95.285,98.995,104.393,107.507,113.027,118.425,121.538,127.058,129.818,132.336,137.856,142.757,147.571" svgx:width="0.72,0.44,0.44,0.5,0.33,0.5,0.28,0.5,0.5,0.28,0.5,0.25,0.25,0.5,0.44,0.44,0.5" style="fill:rgb(0,0,0);font-family:TimesNewRomanPSMT;font-size:11.04px;stroke:none;">Accordingly, back</text>
  </g>
  <g begin="text">
   <text y="114.98" x="153.14" svgx:width="0.33" style="fill:rgb(0,0,0);font-family:TimesNewRomanPSMT;font-size:11.04px;stroke:none;">-</text>
  </g>
  <g begin="text">
   <text y="114.98" x="156.74,161.642,166.566,170.86,173.885,176.998,182.518,188.038,190.434,195.336,200.856,205.78,209.379,214.281,217.405,221.6,226.502,230.829,233.347,238.149,241.858,246.76,249.299,257.215,262.117,265.131,268.244,270.761,275.056,280.476,283.59,286.703,291.505,297.025,299.542,303.252,308.772,312.371,314.888,320.408,324.117,329.019,334.539,339.353,343.062,346.175,351.695,357.215,359.611,362.724,368.244,373.047,377.949,381.073,383.59,387.885,393.305,398.207,403.131,406.134,409.843,412.846,417.748,420.287,423.996,429.516,434.319,439.839,448.472,453.374,458.795,463.089,465.639,468.753,471.755,477.275,482.177,484.716,488.426,493.824" svgx:width="0.44,0.44,0.39,0.28,0.28,0.5,0.5,0.25,0.44,0.5,0.44,0.33,0.44,0.28,0.39,0.44,0.39,0.25,0.44,0.33,0.44,0.25,0.72,0.44,0.28,0.28,0.25,0.39,0.5,0.28,0.28,0.44,0.5,0.25,0.33,0.5,0.33,0.25,0.5,0.33,0.44,0.5,0.44,0.33,0.28,0.5,0.5,0.25,0.28,0.5,0.44,0.44,0.28,0.25,0.39,0.5,0.44,0.44,0.28,0.33,0.28,0.44,0.25,0.33,0.5,0.44,0.5,0.78,0.44,0.5,0.39,0.25,0.28,0.28,0.5,0.44,0.25,0.33,0.5,0.33" style="fill:rgb(0,0,0);font-family:TimesNewRomanPSMT;font-size:11.04px;stroke:none;">casting exercises are well suited for preparing local specific roadmaps like for</text>
  </g>
  <g begin="text">
   <text y="114.98" x="497.86" svgx:width="0.25" style="fill:rgb(0,0,0);font-family:TimesNewRomanPSMT;font-size:11.04px;stroke:none;"> </text>
  </g>
  <g begin="text">
   <text y="114.98" x="500.38,505.282,508.296,511.409,514.412,519.214,523.409" svgx:width="0.44,0.28,0.28,0.28,0.44,0.39,0.25" style="fill:rgb(0,0,0);font-family:TimesNewRomanPSMT;font-size:11.04px;stroke:none;">cities </text>
  </g>
  <g begin="text">
   <text y="114.98" x="48.0" svgx:width="0.5" style="fill:rgb(0,0,0);font-family:TimesNewRomanPSMT;font-size:12.0px;stroke:none;">2</text>
  </g>
  <g begin="text">
   <text y="114.98" x="54.0" svgx:width="0.25" style="fill:rgb(0,0,0);font-family:TimesNewRomanPSMT;font-size:12.0px;stroke:none;"> </text>
  </g>
  <g begin="text">
   <text y="128.9" x="72.024,75.733,83.649,89.169,97.692,100.805,103.565,108.368,111.481,114.241,119.143,122.157,124.917,127.677,133.197,138.717,144.237,149.757,152.517,155.155,160.675,166.195,171.715,177.114" svgx:width="0.33,0.72,0.5,0.78,0.28,0.25,0.44,0.28,0.25,0.44,0.28,0.25,0.25,0.5,0.5,0.5,0.5,0.25,0.25,0.5,0.5,0.5,0.5,0.33" style="fill:rgb(0,0,0);font-family:TimesNewRomanPSMT;font-size:11.04px;stroke:none;">(Gomi et al. 2011, 2010)</text>
  </g>
  <g begin="text">
   <text y="128.9" x="180.86" svgx:width="0.25" style="fill:rgb(0,0,0);font-family:TimesNewRomanPSMT;font-size:11.04px;stroke:none;">.</text>
  </g>
  <g begin="text">
   <text y="128.9" x="183.5" svgx:width="0.25" style="fill:rgb(0,0,0);font-family:TimesNewRomanPSMT;font-size:11.04px;stroke:none;"> </text>
  </g>
  <g begin="text">
   <text y="128.9" x="48.0" svgx:width="0.5" style="fill:rgb(0,0,0);font-family:TimesNewRomanPSMT;font-size:12.0px;stroke:none;">3</text>
  </g>
  <g begin="text">
   <text y="128.9" x="54.0" svgx:width="0.25" style="fill:rgb(0,0,0);font-family:TimesNewRomanPSMT;font-size:12.0px;stroke:none;"> </text>
  </g>
  <g begin="text">
   <text y="148.82" x="72.024" svgx:width="0.25" style="fill:rgb(0,0,0);font-family:TimesNewRomanPSMT;font-size:11.04px;stroke:none;"> </text>
  </g>
  <g begin="text">
   <text y="148.82" x="48.0" svgx:width="0.5" style="fill:rgb(0,0,0);font-family:TimesNewRomanPSMT;font-size:12.0px;stroke:none;">4</text>
  </g>
  <g begin="text">
   <text y="148.82" x="54.0" svgx:width="0.25" style="fill:rgb(0,0,0);font-family:TimesNewRomanPSMT;font-size:12.0px;stroke:none;"> </text>
  </g>
  <g begin="text">
   <text y="169.58" x="72.024,78.024,81.024,87.024,90.024" svgx:width="0.5,0.25,0.5,0.25,0.5" style="fill:rgb(0,0,0);font-family:TimesNewRomanPS-BoldMT;font-size:12.0px;stroke:none;">4.3.3</text>
  </g>
  <g begin="text">
   <text y="169.58" x="96.024" svgx:width="0.28" style="fill:rgb(0,0,0);font-family:Arial-BoldMT;font-size:12.0px;stroke:none;"> </text>
  </g>
  <g begin="text">
   <text y="169.58" x="108.02,116.048,122.048,128.048,138.116,144.716,148.052,153.38,158.048,161.048,167.048,170.996" svgx:width="0.67,0.5,0.5,0.83,0.56,0.28,0.44,0.39,0.25,0.5,0.33,0.25" style="fill:rgb(0,0,0);font-family:TimesNewRomanPS-BoldMT;font-size:12.0px;stroke:none;">Examples of </text>
  </g>
  <g begin="text">
   <text y="169.58" x="174.02,178.688,185.408,188.744,192.74,196.688,201.356,204.356,207.692,214.436" svgx:width="0.39,0.56,0.28,0.33,0.33,0.39,0.25,0.28,0.56,0.25" style="fill:rgb(0,0,0);font-family:TimesNewRomanPS-BoldMT;font-size:12.0px;stroke:none;">shifts in </text>
  </g>
  <g begin="text">
   <text y="169.58" x="217.49,224.198,229.358,235.358,240.638,243.974,249.974,256.706,266.774,272.054,278.762,282.758,285.758,292.43,298.43,302.426,309.098,317.762,323.762,329.762" svgx:width="0.56,0.44,0.5,0.44,0.28,0.5,0.56,0.83,0.44,0.56,0.33,0.25,0.56,0.5,0.33,0.56,0.72,0.5,0.5,0.39" style="fill:rgb(0,0,0);font-family:TimesNewRomanPS-BoldMT;font-size:12.0px;stroke:none;">development pathways</text>
  </g>
  <g begin="text">
   <text y="169.58" x="334.51" svgx:width="0.25" style="fill:rgb(0,0,0);font-family:TimesNewRomanPS-BoldMT;font-size:12.0px;stroke:none;"> </text>
  </g>
  <g begin="text">
   <text y="169.58" x="337.51,343.51,350.11,356.818,359.818,365.818,369.814" svgx:width="0.5,0.56,0.56,0.25,0.5,0.33,0.25" style="fill:rgb(0,0,0);font-family:TimesNewRomanPS-BoldMT;font-size:12.0px;stroke:none;">and of </text>
  </g>
  <g begin="text">
   <text y="169.58" x="372.79,377.458,384.178,390.886,397.594,403.594,408.874,412.87,416.206,422.902" svgx:width="0.39,0.56,0.56,0.56,0.5,0.44,0.33,0.28,0.56,0.5" style="fill:rgb(0,0,0);font-family:TimesNewRomanPS-BoldMT;font-size:12.0px;stroke:none;">supporting</text>
  </g>
  <g begin="text">
   <text y="169.58" x="428.95" svgx:width="0.25" style="fill:rgb(0,0,0);font-family:TimesNewRomanPS-BoldMT;font-size:12.0px;stroke:none;"> </text>
  </g>
  <g begin="text">
   <text y="169.58" x="431.83,438.538,444.538,447.874,451.246,456.526,459.862,465.19" svgx:width="0.56,0.5,0.28,0.28,0.44,0.28,0.44,0.39" style="fill:rgb(0,0,0);font-family:TimesNewRomanPS-BoldMT;font-size:12.0px;stroke:none;">policies</text>
  </g>
  <g begin="text">
   <text y="169.58" x="469.78" svgx:width="0.25" style="fill:rgb(0,0,0);font-family:TimesNewRomanPS-BoldMT;font-size:12.0px;stroke:none;"> </text>
  </g>
  <g begin="text">
   <text y="169.58" x="48.0" svgx:width="0.5" style="fill:rgb(0,0,0);font-family:TimesNewRomanPSMT;font-size:12.0px;stroke:none;">5</text>
  </g>
  <g begin="text">
   <text y="169.58" x="54.0" svgx:width="0.25" style="fill:rgb(0,0,0);font-family:TimesNewRomanPSMT;font-size:12.0px;stroke:none;"> </text>
  </g>
  <g begin="text">
   <text y="189.98" x="72.024,79.94,84.234,87.248,92.768,98.288,101.401,106.303,111.823,114.716,117.829,123.349,126.341,131.861,134.621,140.141,142.901,148.421,151.181,154.173" svgx:width="0.72,0.39,0.25,0.5,0.5,0.28,0.44,0.5,0.25,0.28,0.5,0.25,0.5,0.25,0.5,0.25,0.5,0.25,0.25,0.5" style="fill:rgb(0,0,0);font-family:TimesNewRomanPSMT;font-size:11.04px;stroke:none;">As noted in 4.3.1, p</text>
  </g>
  <g begin="text">
   <text y="189.98" x="159.74,165.139,168.141,171.255,176.157,181.677,184.679,189.482,195.002,200.522,204.231,209.751,214.554,219.455,224.975,229.899,234.194,237.086,240.2,245.72,250.522,253.635,256.627,259.74,265.139,270.041,273.165,278.685,284.084,288.985,291.988,296.89,299.893,305.413,309.012,314.532,319.434,324.954,329.877,333.587,336.457,340.167,345.069,350.589,356.009,360.911,363.914,369.434,373.143,376.135,379.138,384.658,388.953,391.978,395.687,401.086,409.719,414.621,420.041,423.154,427.449,430.342,435.243,440.763,446.283,449.286,452.399,457.798,460.911,463.914,467.027,471.83,474.943,478.056,483.455,488.357,492.684,495.676,503.592,509.112,514.632,517.635,523.033" svgx:width="0.5,0.28,0.28,0.44,0.5,0.25,0.44,0.5,0.5,0.33,0.5,0.44,0.44,0.5,0.44,0.39,0.25,0.28,0.5,0.44,0.28,0.25,0.28,0.5,0.44,0.28,0.5,0.5,0.44,0.25,0.44,0.25,0.5,0.33,0.5,0.44,0.5,0.44,0.33,0.25,0.33,0.44,0.5,0.5,0.44,0.25,0.5,0.33,0.25,0.28,0.5,0.39,0.28,0.33,0.5,0.78,0.44,0.5,0.28,0.39,0.25,0.44,0.5,0.5,0.25,0.28,0.5,0.28,0.28,0.28,0.44,0.28,0.28,0.5,0.44,0.39,0.25,0.72,0.5,0.5,0.28,0.5,0.25" style="fill:rgb(0,0,0);font-family:TimesNewRomanPSMT;font-size:11.04px;stroke:none;">olicy approaches that include a broader range of instruments and initiatives would </text>
  </g>
  <g begin="text">
   <text y="189.98" x="48.0" svgx:width="0.5" style="fill:rgb(0,0,0);font-family:TimesNewRomanPSMT;font-size:12.0px;stroke:none;">6</text>
  </g>
  <g begin="text">
   <text y="189.98" x="54.0" svgx:width="0.25" style="fill:rgb(0,0,0);font-family:TimesNewRomanPSMT;font-size:12.0px;stroke:none;"> </text>
  </g>
  <g begin="text">
   <text y="203.9" x="72.024,75.137,83.771,89.169,94.071,98.884,101.998,104.75800000000001,106.182,114.815,120.335,124.045,128.847,131.607,133.152,136.862,142.26,147.781,153.301,158.103,166.736,171.638,177.059,180.172,184.974,188.088,191.09,196.61,199.37,200.916,206.436,211.956,214.71599999999998,216.14,219.254,224.774,229.675,232.435,233.881,238.783,243.707,246.71,252.23,255.939,260.135,262.895,265.655,267.2,270.203,275.723,280.018,283.043,286.156,289.159,294.679,297.682,300.795,306.315,311.714,316.008,318.768,320.347,325.249,330.769,336.189,338.949,340.495,344.789,347.814,351.524,357.044,361.846,364.959,370.479,374.078,378.98,383.308,386.068,387.492,393.012,396.721,399.481,400.906,405.2,410.72,415.545,418.658,423.56,426.574,429.577,434.478,438.806,441.566,443.112,448.013,453.434,458.954,461.714,463.26,466.263,471.783,476.684,479.444,481.012,486.532,491.93,497.45,502.253,510.886,513.999,518.802,522.997" svgx:width="0.28,0.78,0.5,0.44,0.44,0.28,0.25,0.55,0.78,0.5,0.33,0.44,0.25,0.55,0.33,0.5,0.5,0.5,0.44,0.78,0.44,0.5,0.28,0.44,0.28,0.28,0.5,0.25,0.55,0.5,0.5,0.25,0.55,0.28,0.5,0.44,0.25,0.55,0.44,0.44,0.28,0.5,0.33,0.39,0.25,0.25,0.55,0.28,0.5,0.39,0.28,0.28,0.28,0.5,0.28,0.28,0.5,0.5,0.39,0.25,0.55,0.44,0.5,0.5,0.25,0.55,0.39,0.28,0.33,0.5,0.44,0.28,0.5,0.33,0.44,0.39,0.25,0.55,0.5,0.33,0.25,0.55,0.39,0.5,0.44,0.28,0.44,0.28,0.28,0.44,0.39,0.25,0.55,0.44,0.5,0.5,0.25,0.55,0.28,0.5,0.44,0.25,0.55,0.5,0.5,0.5,0.44,0.78,0.28,0.44,0.39,0.25" style="fill:rgb(0,0,0);font-family:TimesNewRomanPSMT;font-size:11.04px;stroke:none;">impact more fundamentally on the actors, institutions and structures of societies and the dynamics </text>
  </g>
  <g begin="text">
   <text y="203.9" x="48.0" svgx:width="0.5" style="fill:rgb(0,0,0);font-family:TimesNewRomanPSMT;font-size:12.0px;stroke:none;">7</text>
  </g>
  <g begin="text">
   <text y="203.9" x="54.0" svgx:width="0.25" style="fill:rgb(0,0,0);font-family:TimesNewRomanPSMT;font-size:12.0px;stroke:none;"> </text>
  </g>
  <g begin="text">
   <text y="217.82" x="72.024,76.926,85.57,91.09,96.61,102.009,104.294,107.297,112.817,117.619,126.252,129.012,131.298,136.1,139.213,147.736,150.85,156.37,161.768,164.053,167.167,172.565,174.851,179.653,182.766,185.88,190.682,194.281,196.566,199.68,205.2,210.002,212.287,217.807,223.327,228.847,233.65,237.359,240.362,245.882,248.995,254.515,259.914,262.199" svgx:width="0.44,0.78,0.5,0.5,0.5,0.25,0.28,0.5,0.44,0.78,0.25,0.25,0.44,0.28,0.78,0.28,0.5,0.5,0.25,0.28,0.5,0.25,0.44,0.28,0.28,0.44,0.33,0.25,0.28,0.5,0.44,0.25,0.5,0.5,0.5,0.44,0.33,0.28,0.5,0.28,0.5,0.5,0.25,0.5" style="fill:rgb(0,0,0);font-family:TimesNewRomanPSMT;font-size:11.04px;stroke:none;">among them, aiming to alter the underlying d</text>
  </g>
  <g begin="text">
   <text y="217.82" x="267.77,271.369,274.482,280.002,284.805,288.514,292.709,294.995,300.515,304.114,306.399,311.201,319.835,322.838,327.132,331.471,334.474,339.994,345.514,349.808,352.568,354.754,360.274,365.794,370.696,376.117,379.23,384.75,390.27,392.434,397.954,403.474,405.759,410.561,412.847,420.762,423.876,429.274,434.176,437.907,440.071,443.781,448.683,454.203,459.623,464.525,466.821,472.341,475.94,478.104,486.737,489.74,492.854,495.967,501.365,506.267,509.281,512.394,517.914,523.313" svgx:width="0.33,0.28,0.5,0.44,0.33,0.39,0.25,0.5,0.33,0.25,0.44,0.78,0.28,0.39,0.39,0.28,0.5,0.5,0.39,0.25,0.25,0.5,0.5,0.44,0.5,0.28,0.5,0.5,0.25,0.5,0.5,0.25,0.44,0.25,0.72,0.28,0.5,0.44,0.33,0.25,0.33,0.44,0.5,0.5,0.44,0.25,0.5,0.33,0.25,0.78,0.28,0.28,0.28,0.5,0.44,0.28,0.28,0.5,0.5,0.25" style="fill:rgb(0,0,0);font-family:TimesNewRomanPSMT;font-size:11.04px;stroke:none;">rivers of emissions, opening up a wider range of mitigation </text>
  </g>
  <g begin="text">
   <text y="217.82" x="48.0" svgx:width="0.5" style="fill:rgb(0,0,0);font-family:TimesNewRomanPSMT;font-size:12.0px;stroke:none;">8</text>
  </g>
  <g begin="text">
   <text y="217.82" x="54.0" svgx:width="0.25" style="fill:rgb(0,0,0);font-family:TimesNewRomanPSMT;font-size:12.0px;stroke:none;"> </text>
  </g>
  <g begin="text">
   <text y="231.62" x="72.024,77.544,83.064,88.584,94.104,97.703,100.816,106.336,111.735,114.848,117.851,120.964,125.866,130.083,132.722,137.624,143.144,148.564,151.203,156.723,162.243,165.246,170.148,175.668,178.682,181.795,186.597,189.71,192.227,195.341,200.861,203.378,206.491,212.011,216.913,219.452,224.972,228.682,234.08,238.982,243.906,248.101,252.396,255.056,260.455,264.164,266.803,271.605,276.507,282.027,285.041,289.943,295.463,298.587,303.986,309.505,312.023,316.317,321.837,326.772,329.775,334.677,337.801,342.603,345.717,348.234,353.754,358.656,364.176,368.989,372.102,377.622,383.021,391.654,396.556,401.977,405.09,407.728,413.127,418.647,423.549,426.563,430.857" svgx:width="0.5,0.5,0.5,0.5,0.33,0.28,0.5,0.5,0.28,0.28,0.28,0.44,0.39,0.25,0.44,0.5,0.5,0.25,0.5,0.5,0.28,0.44,0.5,0.28,0.28,0.44,0.28,0.25,0.28,0.5,0.25,0.28,0.5,0.44,0.25,0.5,0.33,0.5,0.44,0.44,0.39,0.39,0.25,0.5,0.33,0.25,0.44,0.44,0.5,0.28,0.44,0.5,0.28,0.5,0.5,0.25,0.39,0.5,0.44,0.28,0.44,0.28,0.44,0.28,0.25,0.5,0.44,0.5,0.44,0.28,0.5,0.5,0.78,0.44,0.5,0.28,0.25,0.5,0.5,0.44,0.28,0.39,0.25" style="fill:rgb(0,0,0);font-family:TimesNewRomanPSMT;font-size:11.04px;stroke:none;">opportunities and potential in the process of achieving societal development goals.</text>
  </g>
  <g begin="text">
   <text y="231.62" x="433.75" svgx:width="0.25" style="fill:rgb(0,0,0);font-family:TimesNewRomanPSMT;font-size:11.04px;stroke:none;"> </text>
  </g>
  <g begin="text">
   <text y="231.62" x="436.39,446.812,452.232,455.346,458.459,463.261,465.9,469.013,474.412,479.314,481.974,486.777,492.297,497.817,500.93,506.328,509.331,512.445,517.965,523.363" svgx:width="0.94,0.5,0.28,0.28,0.44,0.25,0.28,0.5,0.44,0.25,0.44,0.5,0.5,0.28,0.5,0.28,0.28,0.5,0.5,0.25" style="fill:rgb(0,0,0);font-family:TimesNewRomanPSMT;font-size:11.04px;stroke:none;">While the evolution </text>
  </g>
  <g begin="text">
   <text y="231.62" x="48.0" svgx:width="0.5" style="fill:rgb(0,0,0);font-family:TimesNewRomanPSMT;font-size:12.0px;stroke:none;">9</text>
  </g>
  <g begin="text">
   <text y="231.62" x="54.0" svgx:width="0.25" style="fill:rgb(0,0,0);font-family:TimesNewRomanPSMT;font-size:12.0px;stroke:none;"> </text>
  </g>
  <g begin="text">
   <text y="245.54" x="72.024,77.544,81.253,84.367,87.48,92.879,97.78,102.108,107.01,110.013,115.533,119.132,122.245,127.765,132.567,136.277,140.571,143.585,146.699,150.993,154.128,158.324,163.844,169.364,172.367,177.268,182.192,185.305,188.297,191.3,196.82,199.933,205.453,210.355,213.976,217.09,221.991,227.511,230.514,233.627,239.026,242.735,245.849,251.247,256.149,261.669,266.593,271.395,275.69,278.825,283.727,289.247,294.767,297.77,302.672,308.092,316.726,322.246,325.248,330.15,335.67,338.673,341.786,347.306,350.309,355.211,358.942,363.745,368.647,371.661,374.774,380.294,385.814,390.108,392.769,395.882,398.996,404.394,409.296,413.027,417.929,420.932,425.834,429.455,434.357,437.481,443.001,448.521,451.524,454.637,459.539,465.059" svgx:width="0.5,0.33,0.25,0.28,0.5,0.44,0.39,0.44,0.25,0.5,0.33,0.28,0.5,0.44,0.33,0.39,0.25,0.28,0.39,0.25,0.39,0.5,0.5,0.28,0.44,0.44,0.28,0.25,0.28,0.5,0.25,0.5,0.44,0.33,0.28,0.44,0.5,0.25,0.28,0.5,0.33,0.28,0.5,0.44,0.5,0.44,0.44,0.39,0.25,0.44,0.5,0.5,0.25,0.44,0.5,0.78,0.5,0.28,0.44,0.5,0.25,0.28,0.5,0.28,0.44,0.33,0.44,0.44,0.28,0.28,0.5,0.5,0.39,0.25,0.25,0.28,0.5,0.44,0.33,0.44,0.25,0.44,0.33,0.44,0.25,0.5,0.5,0.28,0.28,0.44,0.5,0.25" style="fill:rgb(0,0,0);font-family:TimesNewRomanPSMT;font-size:11.04px;stroke:none;">of these drivers is subject to varied influences and complex interactions, there are policy </text>
  </g>
  <g begin="text">
   <text y="245.54" x="468.46,477.093,481.896,486.797,491.125,496.524,500.233,505.135,509.463,512.454,517.974,523.373" svgx:width="0.78,0.44,0.44,0.39,0.5,0.33,0.44,0.39,0.25,0.5,0.5,0.25" style="fill:rgb(0,0,0);font-family:TimesNewRomanPSMT;font-size:11.04px;stroke:none;">measures by </text>
  </g>
  <g begin="text">
   <text y="245.54" x="42.0,48.0" svgx:width="0.5,0.5" style="fill:rgb(0,0,0);font-family:TimesNewRomanPSMT;font-size:12.0px;stroke:none;">10</text>
  </g>
  <g begin="text">
   <text y="245.54" x="54.0" svgx:width="0.25" style="fill:rgb(0,0,0);font-family:TimesNewRomanPSMT;font-size:12.0px;stroke:none;"> </text>
  </g>
  <g begin="text">
   <text y="259.46" x="72.024,79.94,85.46,88.573,93.475,98.995,101.998,107.518,112.419,117.233,120.346,124.541,127.655,133.175" svgx:width="0.72,0.5,0.28,0.44,0.5,0.25,0.5,0.44,0.44,0.28,0.39,0.28,0.5,0.5" style="fill:rgb(0,0,0);font-family:TimesNewRomanPSMT;font-size:11.04px;stroke:none;">which decision</text>
  </g>
  <g begin="text">
   <text y="259.46" x="138.74" svgx:width="0.33" style="fill:rgb(0,0,0);font-family:TimesNewRomanPSMT;font-size:11.04px;stroke:none;">-</text>
  </g>
  <g begin="text">
   <text y="259.46" x="142.34,150.863,155.765,161.285,166.098,169.808,174.102,177.116,185.639,188.752,194.151,199.671,202.784,205.776,208.889,214.288,217.997,221.11,226.509,231.411,236.931,241.855,246.756" svgx:width="0.78,0.44,0.5,0.44,0.33,0.39,0.25,0.78,0.28,0.5,0.5,0.28,0.25,0.28,0.5,0.33,0.28,0.5,0.44,0.5,0.44,0.44,0.25" style="fill:rgb(0,0,0);font-family:TimesNewRomanPSMT;font-size:11.04px;stroke:none;">makers might influence </text>
  </g>
  <g begin="text">
   <text y="259.46" x="249.77,252.883,258.403,263.206" svgx:width="0.28,0.5,0.44,0.78" style="fill:rgb(0,0,0);font-family:TimesNewRomanPSMT;font-size:11.04px;stroke:none;">them</text>
  </g>
  <g begin="text">
   <text y="259.46" x="271.85,274.61,277.602,284.347,289.249,294.769,297.761,302.663,305.665,311.185" svgx:width="0.25,0.25,0.61,0.44,0.5,0.28,0.44,0.25,0.5,0.25" style="fill:rgb(0,0,0);font-family:TimesNewRomanPSMT;font-size:11.04px;stroke:none;">. Table 4.</text>
  </g>
  <g begin="text">
   <text y="259.46" x="313.87,319.39" svgx:width="0.5,0.5" style="fill:rgb(0,0,0);font-family:TimesNewRomanPSMT;font-size:11.04px;stroke:none;">12</text>
  </g>
  <g begin="text">
   <text y="259.46" x="324.91" svgx:width="0.25" style="fill:rgb(0,0,0);font-family:TimesNewRomanPSMT;font-size:11.04px;stroke:none;"> </text>
  </g>
  <g begin="text">
   <text y="259.46" x="327.91,333.43,337.139,342.659,348.179,351.182,356.702,361.604,365.932,368.924,373.218,378.639,387.272,392.174,395.177,399.979,405.499,410.301,418.935,424.455,427.458,432.359,436.577,439.569,445.089,448.798,451.79,457.31,462.83,465.943,468.946,473.848,479.368,482.371,491.004,495.806,500.708,505.036,510.434,514.144,519.045,523.263" svgx:width="0.5,0.33,0.5,0.5,0.28,0.5,0.44,0.39,0.25,0.39,0.5,0.78,0.44,0.25,0.44,0.5,0.44,0.78,0.5,0.28,0.44,0.39,0.25,0.5,0.33,0.25,0.5,0.5,0.28,0.28,0.44,0.5,0.25,0.78,0.44,0.44,0.39,0.5,0.33,0.44,0.39,0.25" style="fill:rgb(0,0,0);font-family:TimesNewRomanPSMT;font-size:11.04px;stroke:none;">provides some examples of policy measures </text>
  </g>
  <g begin="text">
   <text y="259.46" x="42.0,48.0" svgx:width="0.5,0.5" style="fill:rgb(0,0,0);font-family:TimesNewRomanPSMT;font-size:12.0px;stroke:none;">11</text>
  </g>
  <g begin="text">
   <text y="259.46" x="54.0" svgx:width="0.25" style="fill:rgb(0,0,0);font-family:TimesNewRomanPSMT;font-size:12.0px;stroke:none;"> </text>
  </g>
  <g begin="text">
   <text y="273.41" x="72.024,75.137,80.657,85.46,88.573,91.333,96.235,101.159,106.679,109.317,114.219,117.84,121.549,126.451,131.265,134.378" svgx:width="0.28,0.5,0.44,0.28,0.25,0.44,0.44,0.5,0.25,0.44,0.33,0.33,0.44,0.44,0.28,0.25" style="fill:rgb(0,0,0);font-family:TimesNewRomanPSMT;font-size:11.04px;stroke:none;">that can affect </text>
  </g>
  <g begin="text">
   <text y="273.41" x="137.18,142.7,147.502" svgx:width="0.5,0.44,0.5" style="fill:rgb(0,0,0);font-family:TimesNewRomanPSMT;font-size:11.04px;stroke:none;">key</text>
  </g>
  <g begin="text">
   <text y="273.41" x="153.02" svgx:width="0.25" style="fill:rgb(0,0,0);font-family:TimesNewRomanPSMT;font-size:11.04px;stroke:none;"> </text>
  </g>
  <g begin="text">
   <text y="273.41" x="155.78,161.3,164.899,168.012,173.532,178.335,182.044" svgx:width="0.5,0.33,0.28,0.5,0.44,0.33,0.39" style="fill:rgb(0,0,0);font-family:TimesNewRomanPSMT;font-size:11.04px;stroke:none;">drivers</text>
  </g>
  <g begin="text">
   <text y="273.41" x="186.41" svgx:width="0.25" style="fill:rgb(0,0,0);font-family:TimesNewRomanPSMT;font-size:11.04px;stroke:none;"> </text>
  </g>
  <g begin="text">
   <text y="273.41" x="189.05,192.65" svgx:width="0.33,0.39" style="fill:rgb(0,0,0);font-family:TimesNewRomanPSMT;font-size:11.04px;stroke:none;">(s</text>
  </g>
  <g begin="text">
   <text y="273.41" x="196.97,202.49,208.01,215.926,221.446,224.206,227.319,232.839,235.478,238.591,244.111,248.913,251.673,255.383,260.903,268.818,271.578,276.977,281.879,286.803,292.201,295.314,300.834,306.354" svgx:width="0.5,0.5,0.72,0.5,0.25,0.28,0.5,0.25,0.28,0.5,0.44,0.25,0.33,0.5,0.72,0.25,0.5,0.44,0.44,0.5,0.28,0.5,0.5,0.39" style="fill:rgb(0,0,0);font-family:TimesNewRomanPSMT;font-size:11.04px;stroke:none;">hown in the row headings</text>
  </g>
  <g begin="text">
   <text y="273.41" x="310.61" svgx:width="0.33" style="fill:rgb(0,0,0);font-family:TimesNewRomanPSMT;font-size:11.04px;stroke:none;">)</text>
  </g>
  <g begin="text">
   <text y="273.41" x="314.23" svgx:width="0.25" style="fill:rgb(0,0,0);font-family:TimesNewRomanPSMT;font-size:11.04px;stroke:none;">.</text>
  </g>
  <g begin="text">
   <text y="273.41" x="316.99" svgx:width="0.25" style="fill:rgb(0,0,0);font-family:TimesNewRomanPSMT;font-size:11.04px;stroke:none;"> </text>
  </g>
  <g begin="text">
   <text y="273.41" x="42.0,48.0" svgx:width="0.5,0.5" style="fill:rgb(0,0,0);font-family:TimesNewRomanPSMT;font-size:12.0px;stroke:none;">12</text>
  </g>
  <g begin="text">
   <text y="273.41" x="54.0" svgx:width="0.25" style="fill:rgb(0,0,0);font-family:TimesNewRomanPSMT;font-size:12.0px;stroke:none;"> </text>
  </g>
  <g begin="text">
   <text y="293.33" x="72.024" svgx:width="0.25" style="fill:rgb(0,0,0);font-family:TimesNewRomanPSMT;font-size:11.04px;stroke:none;"> </text>
  </g>
  <g begin="text">
   <text y="293.33" x="42.0,48.0" svgx:width="0.5,0.5" style="fill:rgb(0,0,0);font-family:TimesNewRomanPSMT;font-size:12.0px;stroke:none;">13</text>
  </g>
  <g begin="text">
   <text y="293.33" x="54.0" svgx:width="0.25" style="fill:rgb(0,0,0);font-family:TimesNewRomanPSMT;font-size:12.0px;stroke:none;"> </text>
  </g>
  <g begin="text">
   <text y="602.109" transform="matrix(0.70711,-0.70711,0.70711,0.70711,-395.12956,250.29085)" rotateDegrees="-45" matrix="[29.803345,29.803345,-29.803345,29.803345,104.563255,239.8115]" x="104.563" svgx:width="0.67" style="fill:rgb(0,0,0);font-family:Arial;font-size:42.15px;stroke:none;">A</text>
   <text y="582.23" transform="matrix(0.70711,-0.70711,0.70711,0.70711,-375.25056,258.525)" rotateDegrees="-45" matrix="[29.803345,29.803345,-29.803345,29.803345,124.442085,259.6903]" x="124.442" svgx:width="0.72" style="fill:rgb(0,0,0);font-family:Arial;font-size:42.15px;stroke:none;">C</text>
   <text y="560.712" transform="matrix(0.70711,-0.70711,0.70711,0.70711,-353.73256,267.43805)" rotateDegrees="-45" matrix="[29.803345,29.803345,-29.803345,29.803345,145.9601,281.20834]" x="145.96" svgx:width="0.72" style="fill:rgb(0,0,0);font-family:Arial;font-size:42.15px;stroke:none;">C</text>
   <text y="539.194" transform="matrix(0.70711,-0.70711,0.70711,0.70711,-332.21456,276.3511)" rotateDegrees="-45" matrix="[29.803345,29.803345,-29.803345,29.803345,167.47812,302.72635]" x="167.478" svgx:width="0.67" style="fill:rgb(0,0,0);font-family:Arial;font-size:42.15px;stroke:none;">E</text>
   <text y="519.315" transform="matrix(0.70711,-0.70711,0.70711,0.70711,-312.33556,284.58525)" rotateDegrees="-45" matrix="[29.803345,29.803345,-29.803345,29.803345,187.35693,322.60516]" x="187.357" svgx:width="0.67" style="fill:rgb(0,0,0);font-family:Arial;font-size:42.15px;stroke:none;">P</text>
   <text y="499.436" transform="matrix(0.70711,-0.70711,0.70711,0.70711,-292.45656,292.8194)" rotateDegrees="-45" matrix="[29.803345,29.803345,-29.803345,29.803345,207.23578,342.484]" x="207.236" svgx:width="0.61" style="fill:rgb(0,0,0);font-family:Arial;font-size:42.15px;stroke:none;">T</text>
   <text y="481.226" transform="matrix(0.70711,-0.70711,0.70711,0.70711,-274.24656,300.36223)" rotateDegrees="-45" matrix="[29.803345,29.803345,-29.803345,29.803345,225.44562,360.69385]" x="225.446" svgx:width="0.67" style="fill:rgb(0,0,0);font-family:Arial;font-size:42.15px;stroke:none;">E</text>
   <text y="461.347" transform="matrix(0.70711,-0.70711,0.70711,0.70711,-254.36786,308.59567)" rotateDegrees="-45" matrix="[29.803345,29.803345,-29.803345,29.803345,245.32443,380.57266]" x="245.324" svgx:width="0.72" style="fill:rgb(0,0,0);font-family:Arial;font-size:42.15px;stroke:none;">D</text>
   <text y="439.829" transform="matrix(0.70711,-0.70711,0.70711,0.70711,-232.84986,317.50872)" rotateDegrees="-45" matrix="[29.803345,29.803345,-29.803345,29.803345,266.84247,402.0907]" x="266.842" svgx:width="0.28" style="fill:rgb(0,0,0);font-family:Arial;font-size:42.15px;stroke:none;"> </text>
   <text y="431.54" transform="matrix(0.70711,-0.70711,0.70711,0.70711,-224.56056,320.94284)" rotateDegrees="-45" matrix="[29.803345,29.803345,-29.803345,29.803345,275.13153,410.37976]" x="275.132" svgx:width="0.67" style="fill:rgb(0,0,0);font-family:Arial;font-size:42.15px;stroke:none;">V</text>
   <text y="411.661" transform="matrix(0.70711,-0.70711,0.70711,0.70711,-204.68186,329.17629)" rotateDegrees="-45" matrix="[29.803345,29.803345,-29.803345,29.803345,295.0103,430.25858]" x="295.01" svgx:width="0.67" style="fill:rgb(0,0,0);font-family:Arial;font-size:42.15px;stroke:none;">E</text>
   <text y="391.783" transform="matrix(0.70711,-0.70711,0.70711,0.70711,-184.80356,337.41073)" rotateDegrees="-45" matrix="[29.803345,29.803345,-29.803345,29.803345,314.88916,450.1374]" x="314.889" svgx:width="0.72" style="fill:rgb(0,0,0);font-family:Arial;font-size:42.15px;stroke:none;">R</text>
   <text y="370.265" transform="matrix(0.70711,-0.70711,0.70711,0.70711,-163.28556,346.32378)" rotateDegrees="-45" matrix="[29.803345,29.803345,-29.803345,29.803345,336.40717,471.65543]" x="336.407" svgx:width="0.67" style="fill:rgb(0,0,0);font-family:Arial;font-size:42.15px;stroke:none;">S</text>
   <text y="350.386" transform="matrix(0.70711,-0.70711,0.70711,0.70711,-143.40656,354.55793)" rotateDegrees="-45" matrix="[29.803345,29.803345,-29.803345,29.803345,356.286,491.53424]" x="356.286" svgx:width="0.28" style="fill:rgb(0,0,0);font-family:Arial;font-size:42.15px;stroke:none;">I</text>
   <text y="342.1" transform="matrix(0.70711,-0.70711,0.70711,0.70711,-135.12086,357.9894)" rotateDegrees="-45" matrix="[29.803345,29.803345,-29.803345,29.803345,364.57135,499.81958]" x="364.571" svgx:width="0.78" style="fill:rgb(0,0,0);font-family:Arial;font-size:42.15px;stroke:none;">O</text>
   <text y="318.913" transform="matrix(0.70711,-0.70711,0.70711,0.70711,-111.93386,367.59377)" rotateDegrees="-45" matrix="[29.803345,29.803345,-29.803345,29.803345,387.7583,523.0066]" x="387.758" svgx:width="0.72" style="fill:rgb(0,0,0);font-family:Arial;font-size:42.15px;stroke:none;">N</text>
   <text y="297.395" transform="matrix(0.70711,-0.70711,0.70711,0.70711,-90.41586,376.50681)" rotateDegrees="-45" matrix="[29.803345,29.803345,-29.803345,29.803345,409.27637,544.5246]" x="409.276" svgx:width="0.28" style="fill:rgb(0,0,0);font-family:Arial;font-size:42.15px;stroke:none;"> </text>
   <text y="637.872" transform="matrix(0.70711,-0.70711,0.70711,0.70711,-409.94279,286.05456)" rotateDegrees="-45" matrix="[29.803345,29.803345,-29.803345,29.803345,140.32727,204.04747]" x="140.327" svgx:width="0.67" style="fill:rgb(0,0,0);font-family:Arial;font-size:42.15px;stroke:none;">S</text>
   <text y="617.994" transform="matrix(0.70711,-0.70711,0.70711,0.70711,-390.0645,294.289)" rotateDegrees="-45" matrix="[29.803345,29.803345,-29.803345,29.803345,160.2061,223.9263]" x="160.206" svgx:width="0.72" style="fill:rgb(0,0,0);font-family:Arial;font-size:42.15px;stroke:none;">U</text>
   <text y="596.476" transform="matrix(0.70711,-0.70711,0.70711,0.70711,-368.5465,303.20205)" rotateDegrees="-45" matrix="[29.803345,29.803345,-29.803345,29.803345,181.72412,245.4443]" x="181.724" svgx:width="0.67" style="fill:rgb(0,0,0);font-family:Arial;font-size:42.15px;stroke:none;">B</text>
   <text y="576.597" transform="matrix(0.70711,-0.70711,0.70711,0.70711,-348.6675,311.4362)" rotateDegrees="-45" matrix="[29.803345,29.803345,-29.803345,29.803345,201.60294,265.32315]" x="201.603" svgx:width="0.5" style="fill:rgb(0,0,0);font-family:Arial;font-size:42.15px;stroke:none;">J</text>
   <text y="561.695" transform="matrix(0.70711,-0.70711,0.70711,0.70711,-333.7655,317.60881)" rotateDegrees="-45" matrix="[29.803345,29.803345,-29.803345,29.803345,216.50462,280.22482]" x="216.505" svgx:width="0.67" style="fill:rgb(0,0,0);font-family:Arial;font-size:42.15px;stroke:none;">E</text>
   <text y="541.816" transform="matrix(0.70711,-0.70711,0.70711,0.70711,-313.88679,325.84225)" rotateDegrees="-45" matrix="[29.803345,29.803345,-29.803345,29.803345,236.38344,300.10364]" x="236.383" svgx:width="0.72" style="fill:rgb(0,0,0);font-family:Arial;font-size:42.15px;stroke:none;">C</text>
   <text y="520.298" transform="matrix(0.70711,-0.70711,0.70711,0.70711,-292.36879,334.7553)" rotateDegrees="-45" matrix="[29.803345,29.803345,-29.803345,29.803345,257.90146,321.62164]" x="257.901" svgx:width="0.61" style="fill:rgb(0,0,0);font-family:Arial;font-size:42.15px;stroke:none;">T</text>
   <text y="502.089" transform="matrix(0.70711,-0.70711,0.70711,0.70711,-274.1595,342.29842)" rotateDegrees="-45" matrix="[29.803345,29.803345,-29.803345,29.803345,276.1113,339.83148]" x="276.111" svgx:width="0.28" style="fill:rgb(0,0,0);font-family:Arial;font-size:42.15px;stroke:none;"> </text>
   <text y="493.803" transform="matrix(0.70711,-0.70711,0.70711,0.70711,-265.8735,345.7306)" rotateDegrees="-45" matrix="[29.803345,29.803345,-29.803345,29.803345,284.39664,348.11682]" x="284.397" svgx:width="0.61" style="fill:rgb(0,0,0);font-family:Arial;font-size:42.15px;stroke:none;">T</text>
   <text y="475.593" transform="matrix(0.70711,-0.70711,0.70711,0.70711,-247.66379,353.27272)" rotateDegrees="-45" matrix="[29.803345,29.803345,-29.803345,29.803345,302.60648,366.32666]" x="302.606" svgx:width="0.78" style="fill:rgb(0,0,0);font-family:Arial;font-size:42.15px;stroke:none;">O</text>
   <text y="452.406" transform="matrix(0.70711,-0.70711,0.70711,0.70711,-224.47679,362.87709)" rotateDegrees="-45" matrix="[29.803345,29.803345,-29.803345,29.803345,325.79346,389.51367]" x="325.793" svgx:width="0.28" style="fill:rgb(0,0,0);font-family:Arial;font-size:42.15px;stroke:none;"> </text>
   <text y="444.136" transform="matrix(0.70711,-0.70711,0.70711,0.70711,-216.2065,366.30334)" rotateDegrees="-45" matrix="[29.803345,29.803345,-29.803345,29.803345,334.0639,397.78412]" x="334.064" svgx:width="0.61" style="fill:rgb(0,0,0);font-family:Arial;font-size:42.15px;stroke:none;">F</text>
   <text y="425.926" transform="matrix(0.70711,-0.70711,0.70711,0.70711,-197.9965,373.84617)" rotateDegrees="-45" matrix="[29.803345,29.803345,-29.803345,29.803345,352.27374,415.99396]" x="352.274" svgx:width="0.28" style="fill:rgb(0,0,0);font-family:Arial;font-size:42.15px;stroke:none;">I</text>
   <text y="417.641" transform="matrix(0.70711,-0.70711,0.70711,0.70711,-189.7115,377.27793)" rotateDegrees="-45" matrix="[29.803345,29.803345,-29.803345,29.803345,360.55908,424.2793]" x="360.559" svgx:width="0.72" style="fill:rgb(0,0,0);font-family:Arial;font-size:42.15px;stroke:none;">N</text>
   <text y="396.123" transform="matrix(0.70711,-0.70711,0.70711,0.70711,-168.1935,386.19098)" rotateDegrees="-45" matrix="[29.803345,29.803345,-29.803345,29.803345,382.0771,445.7973]" x="382.077" svgx:width="0.67" style="fill:rgb(0,0,0);font-family:Arial;font-size:42.15px;stroke:none;">A</text>
   <text y="376.244" transform="matrix(0.70711,-0.70711,0.70711,0.70711,-148.3145,394.42513)" rotateDegrees="-45" matrix="[29.803345,29.803345,-29.803345,29.803345,401.95593,465.67615]" x="401.956" svgx:width="0.56" style="fill:rgb(0,0,0);font-family:Arial;font-size:42.15px;stroke:none;">L</text>
   <text y="359.673" transform="matrix(0.70711,-0.70711,0.70711,0.70711,-131.7435,401.28906)" rotateDegrees="-45" matrix="[29.803345,29.803345,-29.803345,29.803345,418.5266,482.24677]" x="418.527" svgx:width="0.28" style="fill:rgb(0,0,0);font-family:Arial;font-size:42.15px;stroke:none;"> </text>
   <text y="351.394" transform="matrix(0.70711,-0.70711,0.70711,0.70711,-123.4645,404.71834)" rotateDegrees="-45" matrix="[29.803345,29.803345,-29.803345,29.803345,426.80573,490.52588]" x="426.806" svgx:width="0.67" style="fill:rgb(0,0,0);font-family:Arial;font-size:42.15px;stroke:none;">E</text>
   <text y="331.515" transform="matrix(0.70711,-0.70711,0.70711,0.70711,-103.5855,412.95249)" rotateDegrees="-45" matrix="[29.803345,29.803345,-29.803345,29.803345,446.68457,510.40472]" x="446.685" svgx:width="0.72" style="fill:rgb(0,0,0);font-family:Arial;font-size:42.15px;stroke:none;">D</text>
   <text y="309.997" transform="matrix(0.70711,-0.70711,0.70711,0.70711,-82.0675,421.86554)" rotateDegrees="-45" matrix="[29.803345,29.803345,-29.803345,29.803345,468.2025,531.9227]" x="468.203" svgx:width="0.28" style="fill:rgb(0,0,0);font-family:Arial;font-size:42.15px;stroke:none;">I</text>
   <text y="301.712" transform="matrix(0.70711,-0.70711,0.70711,0.70711,-73.7825,425.29729)" rotateDegrees="-45" matrix="[29.803345,29.803345,-29.803345,29.803345,476.48785,540.20807]" x="476.488" svgx:width="0.61" style="fill:rgb(0,0,0);font-family:Arial;font-size:42.15px;stroke:none;">T</text>
   <text y="283.502" transform="matrix(0.70711,-0.70711,0.70711,0.70711,-55.5725,432.84012)" rotateDegrees="-45" matrix="[29.803345,29.803345,-29.803345,29.803345,494.6977,558.4179]" x="494.698" svgx:width="0.67" style="fill:rgb(0,0,0);font-family:Arial;font-size:42.15px;stroke:none;">S</text>
  </g>
 </g>
</svg>
