<?xml version="1.0" encoding="UTF-8"?>
<svg height="813.88" width="2582.0" xmlns="http://www.w3.org/2000/svg">
 <g id="page" xmlns:svgx="http://www.xml-cml.org/schema/svgx">
  <g begin="text">
   <text y="45.72" x="72.024,78.162,81.231,86.751,91.587,94.7,97.46,105.376,110.896,116.416,121.218,124.928,130.448,138.971,143.872,149.392,152.517,155.277,163.082,166.195,170.39,173.504,177.103,180.216,185.736,191.135,194.137,197.251,202.771" svgx:width="0.56,0.28,0.5,0.44,0.28,0.25,0.72,0.5,0.5,0.44,0.33,0.5,0.78,0.44,0.5,0.28,0.25,0.72,0.28,0.39,0.28,0.33,0.28,0.5,0.5,0.28,0.28,0.5,0.5" style="fill:rgb(0,0,0);font-family:TimesNewRomanPSMT;font-size:11.04px;stroke:none;">Final Government Distribution</text>
  </g>
  <g begin="text">
   <text y="45.72" x="208.37" svgx:width="0.25" style="fill:rgb(0,0,0);font-family:TimesNewRomanPSMT;font-size:11.04px;stroke:none;"> </text>
  </g>
  <g begin="text">
   <text y="45.72" x="211.01" svgx:width="0.25" style="fill:rgb(0,0,0);font-family:TimesNewRomanPSMT;font-size:11.04px;stroke:none;"> </text>
  </g>
  <g begin="text">
   <text y="45.72" x="276.17,283.49,289.009,293.911,299.431,302.556,307.358,311.067,313.827" svgx:width="0.67,0.5,0.44,0.5,0.28,0.44,0.33,0.25,0.5" style="fill:rgb(0,0,0);font-family:TimesNewRomanPSMT;font-size:11.04px;stroke:none;">Chapter 4</text>
  </g>
  <g begin="text">
   <text y="45.72" x="319.27" svgx:width="0.25" style="fill:rgb(0,0,0);font-family:TimesNewRomanPSMT;font-size:11.04px;stroke:none;"> </text>
  </g>
  <g begin="text">
   <text y="45.72" x="443.38,446.979,453.117,460.415,467.734" svgx:width="0.33,0.56,0.67,0.67,0.25" style="fill:rgb(0,0,0);font-family:TimesNewRomanPSMT;font-size:11.04px;stroke:none;">IPCC </text>
  </g>
  <g begin="text">
   <text y="45.72" x="470.5,478.416,485.735,491.255,494.015,504.437,512.408,516.084,519.694" svgx:width="0.72,0.67,0.5,0.25,0.94,0.72,0.33,0.33,0.33" style="fill:rgb(0,0,0);font-family:TimesNewRomanPSMT;font-size:11.04px;stroke:none;">AR6 WGIII</text>
  </g>
  <g begin="text">
   <text y="45.72" x="523.42" svgx:width="0.25" style="fill:rgb(0,0,0);font-family:TimesNewRomanPSMT;font-size:11.04px;stroke:none;"> </text>
  </g>
  <g begin="text">
   <text y="60.48" x="72.024" svgx:width="0.25" style="fill:rgb(0,0,0);font-family:TimesNewRomanPSMT;font-size:12.0px;stroke:none;"> </text>
  </g>
  <g begin="text">
   <text y="74.28" x="72.024" svgx:width="0.25" style="fill:rgb(0,0,0);font-family:TimesNewRomanPSMT;font-size:12.0px;stroke:none;"> </text>
  </g>
  <g begin="text">
   <text y="88.1" x="72.024" svgx:width="0.25" style="fill:rgb(0,0,0);font-family:TimesNewRomanPSMT;font-size:12.0px;stroke:none;"> </text>
  </g>
  <g begin="text">
   <text y="775.296" x="72.024,79.94,85.46,88.22,96.135,101.655,105.365,108.125,116.04,119.154,122.753,127.655,130.415,133.075,141.708,147.847,153.367,157.043,161.868,164.628,170.148,175.049,177.809,185.78,188.75,192.945,196.655,201.556,204.681,210.819,216.803,220.512" svgx:width="0.72,0.5,0.25,0.72,0.5,0.33,0.25,0.72,0.28,0.33,0.44,0.25,0.25,0.78,0.56,0.5,0.33,0.44,0.25,0.5,0.44,0.25,0.72,0.28,0.39,0.33,0.44,0.28,0.56,0.56,0.33,0.44" style="fill:rgb(0,0,0);font-family:TimesNewRomanPS-BoldMT;font-size:11.04px;stroke:none;">Do Not Cite, Quote or Distribute</text>
  </g>
  <g begin="text">
   <text y="775.296" x="225.41" svgx:width="0.25" style="fill:rgb(0,0,0);font-family:TimesNewRomanPS-BoldMT;font-size:11.04px;stroke:none;"> </text>
  </g>
  <g begin="text">
   <text y="775.296" x="287.57" svgx:width="0.5" style="fill:rgb(0,0,0);font-family:TimesNewRomanPSMT;font-size:11.04px;stroke:none;">4</text>
  </g>
  <g begin="text">
   <text y="775.296" x="293.09" svgx:width="0.33" style="fill:rgb(0,0,0);font-family:TimesNewRomanPSMT;font-size:11.04px;stroke:none;">-</text>
  </g>
  <g begin="text">
   <text y="775.296" x="296.69,302.21" svgx:width="0.5,0.5" style="fill:rgb(0,0,0);font-family:TimesNewRomanPSMT;font-size:11.04px;stroke:none;">37</text>
  </g>
  <g begin="text">
   <text y="775.296" x="307.73" svgx:width="0.25" style="fill:rgb(0,0,0);font-family:TimesNewRomanPSMT;font-size:11.04px;stroke:none;"> </text>
  </g>
  <g begin="text">
   <text y="775.296" x="310.49" svgx:width="0.25" style="fill:rgb(0,0,0);font-family:TimesNewRomanPSMT;font-size:11.04px;stroke:none;"> </text>
  </g>
  <g begin="text">
   <text y="775.296" x="450.1,456.845,462.365,465.435,470.259,473.372,476.132,481.652,486.554,491.975,496.876,501.204,504.207" svgx:width="0.61,0.5,0.28,0.44,0.28,0.25,0.5,0.44,0.5,0.44,0.39,0.28,0.25" style="fill:rgb(0,0,0);font-family:TimesNewRomanPSMT;font-size:11.04px;stroke:none;">Total pages: </text>
  </g>
  <g begin="text">
   <text y="775.296" x="506.98,512.5,518.02" svgx:width="0.5,0.5,0.5" style="fill:rgb(0,0,0);font-family:TimesNewRomanPSMT;font-size:11.04px;stroke:none;">156</text>
  </g>
  <g begin="text">
   <text y="775.296" x="523.42" svgx:width="0.25" style="fill:rgb(0,0,0);font-family:TimesNewRomanPSMT;font-size:9.96px;stroke:none;"> </text>
  </g>
  <g begin="text">
   <text y="790.056" x="72.024" svgx:width="0.25" style="fill:rgb(0,0,0);font-family:TimesNewRomanPSMT;font-size:12.0px;stroke:none;"> </text>
  </g>
  <g begin="text">
   <text y="803.88" x="72.024" svgx:width="0.25" style="fill:rgb(0,0,0);font-family:TimesNewRomanPSMT;font-size:12.0px;stroke:none;"> </text>
  </g>
  <g begin="text">
   <text y="614.95" x="528.46" svgx:width="0.25" style="fill:rgb(0,0,0);font-family:TimesNewRomanPS-BoldMT;font-size:9.96px;stroke:none;"> </text>
  </g>
  <g begin="text">
   <text y="614.95" x="48.0" svgx:width="0.5" style="fill:rgb(0,0,0);font-family:TimesNewRomanPSMT;font-size:12.0px;stroke:none;">1</text>
  </g>
  <g begin="text">
   <text y="614.95" x="54.0" svgx:width="0.25" style="fill:rgb(0,0,0);font-family:TimesNewRomanPSMT;font-size:12.0px;stroke:none;"> </text>
  </g>
  <g begin="text">
   <text y="635.62" x="112.94,119.045,121.814,126.834,132.372,136.794,141.216" svgx:width="0.61,0.28,0.5,0.56,0.44,0.44,0.25" style="fill:rgb(0,0,0);font-family:TimesNewRomanPS-BoldMT;font-size:9.96px;stroke:none;">Figure </text>
  </g>
  <g begin="text">
   <text y="635.62" x="143.78" svgx:width="0.5" style="fill:rgb(0,0,0);font-family:TimesNewRomanPS-BoldMT;font-size:9.96px;stroke:none;">4</text>
  </g>
  <g begin="text">
   <text y="635.62" x="148.82" svgx:width="0.25" style="fill:rgb(0,0,0);font-family:TimesNewRomanPS-BoldMT;font-size:9.96px;stroke:none;">.</text>
  </g>
  <g begin="text">
   <text y="635.62" x="151.34" svgx:width="0.5" style="fill:rgb(0,0,0);font-family:TimesNewRomanPS-BoldMT;font-size:9.96px;stroke:none;">2</text>
  </g>
  <g begin="text">
   <text y="635.62" x="156.38" svgx:width="0.25" style="fill:rgb(0,0,0);font-family:TimesNewRomanPS-BoldMT;font-size:9.96px;stroke:none;"> </text>
  </g>
  <g begin="text">
   <text y="635.62" x="158.9,165.504,171.041,175.464,179.886,184.935,189.965,192.475,196.897,201.35,204.118,209.138,212.485,216.907,222.445,224.955,232.036" svgx:width="0.67,0.56,0.44,0.44,0.5,0.5,0.25,0.44,0.44,0.28,0.5,0.33,0.44,0.56,0.25,0.72,0.78" style="fill:rgb(0,0,0);font-family:TimesNewRomanPS-BoldMT;font-size:9.96px;stroke:none;">Energy related CO</text>
  </g>
  <g begin="text">
   <text y="636.1" x="239.93" svgx:width="0.5" style="fill:rgb(0,0,0);font-family:TimesNewRomanPS-BoldMT;font-size:6.48px;stroke:none;">2</text>
  </g>
  <g begin="text">
   <text y="635.62" x="243.17" svgx:width="0.25" style="fill:rgb(0,0,0);font-family:TimesNewRomanPS-BoldMT;font-size:9.96px;stroke:none;"> </text>
  </g>
  <g begin="text">
   <text y="635.62" x="245.69,250.112,258.519,261.287,265.122,268.967,271.735,276.755,282.293,284.783,290.321,295.341,298.687,304.225,311.416,316.436,321.466,325.31,327.82,331.167,336.197,338.707,347.093,349.732" svgx:width="0.44,0.83,0.28,0.39,0.39,0.28,0.5,0.56,0.25,0.56,0.5,0.33,0.56,0.72,0.5,0.5,0.39,0.25,0.33,0.5,0.25,0.83,0.28,0.56" style="fill:rgb(0,0,0);font-family:TimesNewRomanPS-BoldMT;font-size:9.96px;stroke:none;">emission pathways to mid</text>
  </g>
  <g begin="text">
   <text y="635.62" x="355.39" svgx:width="0.33" style="fill:rgb(0,0,0);font-family:TimesNewRomanPS-BoldMT;font-size:9.96px;stroke:none;">-</text>
  </g>
  <g begin="text">
   <text y="635.62" x="358.75,363.172,367.624,373.162,376.479,382.017,386.439,391.499,394.008,397.355,401.777,406.827,415.213,417.723,422.046,427.076,429.844,433.679,437.026,439.795,445.332,450.332,452.842,456.687,460.033,465.571,471.178,473.947,478.37,482.244" svgx:width="0.44,0.44,0.56,0.33,0.56,0.44,0.5,0.25,0.33,0.44,0.5,0.83,0.25,0.44,0.5,0.28,0.39,0.33,0.28,0.56,0.5,0.25,0.39,0.33,0.56,0.56,0.28,0.44,0.39,0.25" style="fill:rgb(0,0,0);font-family:TimesNewRomanPS-BoldMT;font-size:9.96px;stroke:none;">century from existing studies </text>
  </g>
  <g begin="text">
   <text y="635.62" x="484.9" svgx:width="0.25" style="fill:rgb(0,0,0);font-family:TimesNewRomanPS-BoldMT;font-size:9.96px;stroke:none;"> </text>
  </g>
  <g begin="text">
   <text y="635.62" x="48.0" svgx:width="0.5" style="fill:rgb(0,0,0);font-family:TimesNewRomanPSMT;font-size:12.0px;stroke:none;">2</text>
  </g>
  <g begin="text">
   <text y="635.62" x="54.0" svgx:width="0.25" style="fill:rgb(0,0,0);font-family:TimesNewRomanPSMT;font-size:12.0px;stroke:none;"> </text>
  </g>
  <g begin="text">
   <text y="648.22" x="147.98,153.518,158.528,163.557,166.904,171.326,175.778,178.288,183.318,186.665,189.175,191.814,196.844,201.266,203.796,208.826,211.595,215.429,218.198,223.218,226.564,229.333,233.756,238.178,240.947,243.476,248.506,252.928,255.697,260.12,262.888,265.309,272.5,275.856,280.279,284.731,289.761,294.79,299.82,304.85,308.695,313.117,315.647,322.838,327.26,331.135,333.625,337.001,341.921,346.951,351.373,356.423,359.192,364.212,367.449,372.479,374.988,382.18,386.512,389.281,393.703,396.223,401.253,404.6,407.109,414.301,421.492,427.029,433.633,440.346,446.949" svgx:width="0.56,0.5,0.5,0.33,0.44,0.44,0.25,0.5,0.33,0.25,0.28,0.5,0.44,0.25,0.5,0.28,0.39,0.28,0.5,0.33,0.28,0.44,0.44,0.28,0.25,0.5,0.44,0.28,0.44,0.28,0.25,0.72,0.33,0.44,0.44,0.5,0.5,0.5,0.5,0.39,0.44,0.25,0.72,0.44,0.39,0.25,0.33,0.5,0.5,0.44,0.5,0.28,0.5,0.33,0.5,0.25,0.72,0.44,0.28,0.44,0.25,0.5,0.33,0.25,0.72,0.72,0.56,0.67,0.67,0.67,0.25" style="fill:rgb(0,0,0);font-family:TimesNewRomanPSMT;font-size:9.96px;stroke:none;">Source of the historical data: Greenhouse Gas Inventory Data of UNFCCC </text>
  </g>
  <g begin="text">
   <text y="648.22" x="48.0" svgx:width="0.5" style="fill:rgb(0,0,0);font-family:TimesNewRomanPSMT;font-size:12.0px;stroke:none;">3</text>
  </g>
  <g begin="text">
   <text y="648.22" x="54.0" svgx:width="0.25" style="fill:rgb(0,0,0);font-family:TimesNewRomanPSMT;font-size:12.0px;stroke:none;"> </text>
  </g>
  <g begin="text">
   <text y="660.82" x="206.33" svgx:width="0.33" style="fill:rgb(0,0,0);font-family:TimesNewRomanPSMT;font-size:9.96px;stroke:none;">(</text>
  </g>
  <g begin="text">
   <text y="660.82" x="209.69,214.72,217.489,220.258,225.267,229.112,232.459,235.227,237.996,243.006,245.775,248.265,253.315,258.345,261.113,265.536,269.958,274.41,276.92,279.689,284.709,287.478,290.246,295.256,299.679,302.338,307.368,310.137,312.906,317.328,322.358,327.278,332.308,337.338,340.106,345.126,350.156,355.076,359.499,364.548,369.578,374.608,378.453,381.221" svgx:width="0.5,0.28,0.28,0.5,0.39,0.33,0.28,0.28,0.5,0.28,0.25,0.5,0.5,0.28,0.44,0.44,0.44,0.25,0.28,0.5,0.28,0.28,0.5,0.44,0.28,0.5,0.28,0.28,0.44,0.5,0.5,0.5,0.5,0.28,0.5,0.5,0.5,0.44,0.5,0.5,0.5,0.39,0.28,0.44" style="fill:rgb(46,116,181);font-family:TimesNewRomanPS-ItalicMT;font-size:9.96px;stroke:none;">https://di.unfccc.int/detailed_data_by_party</text>
  </g>
  <g begin="text">
   <text y="660.82" x="385.87" svgx:width="0.33" style="fill:rgb(0,0,0);font-family:TimesNewRomanPSMT;font-size:9.96px;stroke:none;">)</text>
  </g>
  <g begin="text">
   <text y="660.82" x="389.11" svgx:width="0.25" style="fill:rgb(0,0,0);font-family:TimesNewRomanPSMT;font-size:9.96px;stroke:none;"> </text>
  </g>
  <g begin="text">
   <text y="660.82" x="48.0" svgx:width="0.5" style="fill:rgb(0,0,0);font-family:TimesNewRomanPSMT;font-size:12.0px;stroke:none;">4</text>
  </g>
  <g begin="text">
   <text y="660.82" x="54.0" svgx:width="0.25" style="fill:rgb(0,0,0);font-family:TimesNewRomanPSMT;font-size:12.0px;stroke:none;"> </text>
  </g>
  <g begin="text">
   <text y="684.46" x="72.024,78.769,84.289,89.191,92.051,95.164,98.167,101.28,106.182,109.803,114.705,117.829,123.228,126.937,131.739,134.731,140.251,145.771,151.291,156.094" svgx:width="0.61,0.5,0.44,0.25,0.28,0.28,0.28,0.44,0.33,0.44,0.28,0.5,0.33,0.44,0.25,0.5,0.5,0.5,0.44,0.33" style="fill:rgb(0,0,0);font-family:TimesNewRomanPSMT;font-size:11.04px;stroke:none;">The literature under</text>
  </g>
  <g begin="text">
   <text y="684.46" x="159.86,162.863,165.976,171.496,176.299,180.593,183.486,186.599,191.997,196.899,199.902,205.422,208.425,212.134,215.733,220.635,224.256,229.158,234.678,239.602,244.404,248.699,251.591,254.705,260.225,265.745,271.265,276.067,280.969,286.489,289.381,294.901,300.421,303.292,306.405,311.803,316.705,319.708,324.003,329.423,332.537,336.136,339.249,342.119,345.829,349.538,354.937,363.46,366.452,371.353,376.873,381.212,388.532,391.523,395.818,400.642,405.544,411.064,415.878,419.587,422.7,428.099,432.294,437.196,440.199,443.798,446.911,452.431,457.83,460.943,465.845,470.658,473.771,476.774,482.294,485.286,490.088,494.383,498.722,504.12,512.754,517.655,523.076" svgx:width="0.28,0.28,0.5,0.44,0.39,0.25,0.28,0.5,0.44,0.25,0.5,0.28,0.33,0.33,0.44,0.33,0.44,0.5,0.44,0.44,0.39,0.25,0.28,0.5,0.5,0.5,0.44,0.44,0.5,0.25,0.5,0.5,0.25,0.28,0.5,0.44,0.25,0.39,0.5,0.28,0.33,0.28,0.25,0.33,0.33,0.5,0.78,0.25,0.44,0.5,0.4,0.67,0.25,0.39,0.44,0.44,0.5,0.44,0.33,0.28,0.5,0.39,0.44,0.25,0.33,0.28,0.5,0.5,0.28,0.44,0.44,0.28,0.28,0.5,0.25,0.44,0.39,0.39,0.5,0.78,0.44,0.5,0.25" style="fill:rgb(0,0,0);font-family:TimesNewRomanPSMT;font-size:11.04px;stroke:none;">lines the differences induced by the shift from “2°C scenarios” (typically assumed </text>
  </g>
  <g begin="text">
   <text y="684.46" x="48.0" svgx:width="0.5" style="fill:rgb(0,0,0);font-family:TimesNewRomanPSMT;font-size:12.0px;stroke:none;">5</text>
  </g>
  <g begin="text">
   <text y="684.46" x="54.0" svgx:width="0.25" style="fill:rgb(0,0,0);font-family:TimesNewRomanPSMT;font-size:12.0px;stroke:none;"> </text>
  </g>
  <g begin="text">
   <text y="698.38" x="72.024,75.137,80.657,84.002,87.005,95.639,101.037,104.15,109.67,112.894,121.527,124.53,127.644,130.646,136.166,141.068,144.082,147.195,152.715,158.235,161.459,164.572,170.092,173.316,178.836,184.356,189.755,195.275,198.62,203.522,207.253,212.773,218.172,223.692,229.212,232.557,238.077,243.475,252.705,255.928,259.638,264.54,267.554,272.455,275.469,278.582,284.102,289.004,292.25,295.363,300.883,304.228,309.627,315.147,320.667,326.187,329.896,333.12,336.233,341.753" svgx:width="0.28,0.5,0.25,0.28,0.78,0.5,0.28,0.5,0.25,0.78,0.28,0.28,0.28,0.5,0.44,0.28,0.28,0.5,0.5,0.25,0.28,0.5,0.25,0.5,0.5,0.5,0.5,0.25,0.44,0.33,0.5,0.5,0.5,0.5,0.25,0.5,0.5,0.83,0.25,0.33,0.44,0.28,0.44,0.28,0.28,0.5,0.44,0.25,0.28,0.5,0.25,0.5,0.5,0.5,0.5,0.33,0.25,0.28,0.5,0.25" style="fill:rgb(0,0,0);font-family:TimesNewRomanPSMT;font-size:11.04px;stroke:none;">to imply mitigation in 2050 around 80% relative to 1990) to </text>
  </g>
  <g begin="text">
   <text y="698.38" x="345.43" svgx:width="0.44" style="fill:rgb(0,0,0);font-family:TimesNewRomanPSMT;font-size:11.04px;stroke:none;">“</text>
  </g>
  <g begin="text">
   <text y="698.38" x="350.35,355.749,358.509,364.029,368.345,375.665,379.01,383.304,388.239,393.141,398.562,403.463,407.085,410.198,415.718" svgx:width="0.5,0.25,0.5,0.4,0.67,0.25,0.39,0.44,0.44,0.5,0.44,0.33,0.28,0.5,0.39" style="fill:rgb(0,0,0);font-family:TimesNewRomanPSMT;font-size:11.04px;stroke:none;">1.5°C scenarios</text>
  </g>
  <g begin="text">
   <text y="698.38" x="420.07" svgx:width="0.44" style="fill:rgb(0,0,0);font-family:TimesNewRomanPSMT;font-size:11.04px;stroke:none;">”</text>
  </g>
  <g begin="text">
   <text y="698.38" x="424.87" svgx:width="0.25" style="fill:rgb(0,0,0);font-family:TimesNewRomanPSMT;font-size:11.04px;stroke:none;"> </text>
  </g>
  <g begin="text">
   <text y="698.38" x="428.23,431.829,434.942,440.462,445.982,448.985,453.887,458.7,461.814,464.927,470.447,473.671,478.572,482.9,487.095,492.615,501.138,506.04,511.56,514.927,517.93,523.329" svgx:width="0.33,0.28,0.5,0.5,0.28,0.44,0.44,0.28,0.28,0.5,0.25,0.44,0.39,0.39,0.5,0.78,0.44,0.5,0.25,0.28,0.5,0.25" style="fill:rgb(0,0,0);font-family:TimesNewRomanPSMT;font-size:11.04px;stroke:none;">(typically assumed to </text>
  </g>
  <g begin="text">
   <text y="698.38" x="48.0" svgx:width="0.5" style="fill:rgb(0,0,0);font-family:TimesNewRomanPSMT;font-size:12.0px;stroke:none;">6</text>
  </g>
  <g begin="text">
   <text y="698.38" x="54.0" svgx:width="0.25" style="fill:rgb(0,0,0);font-family:TimesNewRomanPSMT;font-size:12.0px;stroke:none;"> </text>
  </g>
  <g begin="text">
   <text y="712.3" x="72.024,75.137,83.771,89.169,92.282,97.802" svgx:width="0.28,0.78,0.5,0.28,0.5,0.25" style="fill:rgb(0,0,0);font-family:TimesNewRomanPSMT;font-size:11.04px;stroke:none;">imply </text>
  </g>
  <g begin="text">
   <text y="712.3" x="100.94,106.46,111.262" svgx:width="0.5,0.44,0.28" style="fill:rgb(0,0,0);font-family:TimesNewRomanPSMT;font-size:11.04px;stroke:none;">net</text>
  </g>
  <g begin="text">
   <text y="712.3" x="114.38" svgx:width="0.25" style="fill:rgb(0,0,0);font-family:TimesNewRomanPSMT;font-size:11.04px;stroke:none;"> </text>
  </g>
  <g begin="text">
   <text y="712.3" x="117.5,122.402,127.215,130.925,136.445" svgx:width="0.44,0.44,0.33,0.5,0.25" style="fill:rgb(0,0,0);font-family:TimesNewRomanPSMT;font-size:11.04px;stroke:none;">zero </text>
  </g>
  <g begin="text">
   <text y="712.3" x="139.58,146.9" svgx:width="0.67,0.72" style="fill:rgb(0,0,0);font-family:TimesNewRomanPSMT;font-size:11.04px;stroke:none;">CO</text>
  </g>
  <g begin="text">
   <text y="713.26" x="154.82" svgx:width="0.5" style="fill:rgb(0,0,0);font-family:TimesNewRomanPSMT;font-size:6.96px;stroke:none;">2</text>
  </g>
  <g begin="text">
   <text y="712.3" x="158.3" svgx:width="0.25" style="fill:rgb(0,0,0);font-family:TimesNewRomanPSMT;font-size:11.04px;stroke:none;"> </text>
  </g>
  <g begin="text">
   <text y="712.3" x="161.42" svgx:width="0.25" style="fill:rgb(0,0,0);font-family:TimesNewRomanPSMT;font-size:11.04px;stroke:none;"> </text>
  </g>
  <g begin="text">
   <text y="712.3" x="164.54,170.06,173.769,176.883,184.798,192.714,200.63" svgx:width="0.5,0.33,0.25,0.72,0.72,0.72,0.25" style="fill:rgb(0,0,0);font-family:TimesNewRomanPSMT;font-size:11.04px;stroke:none;">or GHG </text>
  </g>
  <g begin="text">
   <text y="712.3" x="203.81,208.712,217.356,220.469,224.665,228.959,232.094,237.493,243.013" svgx:width="0.44,0.78,0.28,0.39,0.39,0.28,0.5,0.5,0.39" style="fill:rgb(0,0,0);font-family:TimesNewRomanPSMT;font-size:11.04px;stroke:none;">emissions</text>
  </g>
  <g begin="text">
   <text y="712.3" x="247.37" svgx:width="0.25" style="fill:rgb(0,0,0);font-family:TimesNewRomanPSMT;font-size:11.04px;stroke:none;"> </text>
  </g>
  <g begin="text">
   <text y="712.3" x="250.49,253.61" svgx:width="0.28,0.5" style="fill:rgb(0,0,0);font-family:TimesNewRomanPSMT;font-size:11.04px;stroke:none;">in</text>
  </g>
  <g begin="text">
   <text y="712.3" x="259.13" svgx:width="0.25" style="fill:rgb(0,0,0);font-family:TimesNewRomanPSMT;font-size:11.04px;stroke:none;"> </text>
  </g>
  <g begin="text">
   <text y="712.3" x="262.25,267.77" svgx:width="0.5,0.5" style="fill:rgb(0,0,0);font-family:TimesNewRomanPSMT;font-size:11.04px;stroke:none;">20</text>
  </g>
  <g begin="text">
   <text y="712.3" x="273.17" svgx:width="0.5" style="fill:rgb(0,0,0);font-family:TimesNewRomanPSMT;font-size:11.04px;stroke:none;">5</text>
  </g>
  <g begin="text">
   <text y="712.3" x="278.69,284.21" svgx:width="0.5,0.33" style="fill:rgb(0,0,0);font-family:TimesNewRomanPSMT;font-size:11.04px;stroke:none;">0)</text>
  </g>
  <g begin="text">
   <text y="712.3" x="287.93" svgx:width="0.25" style="fill:rgb(0,0,0);font-family:TimesNewRomanPSMT;font-size:11.04px;stroke:none;"> </text>
  </g>
  <g begin="text">
   <text y="712.3" x="290.93,294.639,301.959,307.479,312.878,315.991,321.511,324.271" svgx:width="0.33,0.67,0.5,0.5,0.25,0.5,0.25,0.5" style="fill:rgb(0,0,0);font-family:TimesNewRomanPSMT;font-size:11.04px;stroke:none;">(Box 4.2</text>
  </g>
  <g begin="text">
   <text y="712.3" x="329.83" svgx:width="0.33" style="fill:rgb(0,0,0);font-family:TimesNewRomanPSMT;font-size:11.04px;stroke:none;">)</text>
  </g>
  <g begin="text">
   <text y="712.3" x="333.55" svgx:width="0.25" style="fill:rgb(0,0,0);font-family:TimesNewRomanPSMT;font-size:11.04px;stroke:none;">.</text>
  </g>
  <g begin="text">
   <text y="712.3" x="336.31" svgx:width="0.25" style="fill:rgb(0,0,0);font-family:TimesNewRomanPSMT;font-size:11.04px;stroke:none;"> </text>
  </g>
  <g begin="text">
   <text y="712.3" x="339.43,345.568,351.088,354.765" svgx:width="0.56,0.5,0.33,0.25" style="fill:rgb(0,0,0);font-family:TimesNewRomanPSMT;font-size:11.04px;stroke:none;">For </text>
  </g>
  <g begin="text">
   <text y="712.3" x="357.91,362.105,367.007,372.527,377.451" svgx:width="0.39,0.44,0.5,0.44,0.5" style="fill:rgb(0,0,0);font-family:TimesNewRomanPSMT;font-size:11.04px;stroke:none;">Japan</text>
  </g>
  <g begin="text">
   <text y="712.3" x="382.99,385.75" svgx:width="0.25,0.25" style="fill:rgb(0,0,0);font-family:TimesNewRomanPSMT;font-size:11.04px;stroke:none;">, </text>
  </g>
  <g begin="text">
   <text y="712.3" x="388.87,396.786,401.08,406.501,409.614,413.324,418.844,421.835,426.737,429.862,432.853,437.755,440.879,443.639,446.753,450.462,455.982,461.381,466.901,472.421" svgx:width="0.72,0.39,0.5,0.28,0.33,0.5,0.25,0.44,0.28,0.25,0.44,0.28,0.25,0.25,0.33,0.5,0.5,0.5,0.5,0.33" style="fill:rgb(0,0,0);font-family:TimesNewRomanPSMT;font-size:11.04px;stroke:none;">Oshiro et al. (2018)</text>
  </g>
  <g begin="text">
   <text y="712.3" x="476.26" svgx:width="0.25" style="fill:rgb(0,0,0);font-family:TimesNewRomanPSMT;font-size:11.04px;stroke:none;"> </text>
  </g>
  <g begin="text">
   <text y="712.3" x="479.38,483.575,489.095,494.615,502.531,506.825,509.961,513.074,518.473,523.374" svgx:width="0.39,0.5,0.5,0.72,0.39,0.25,0.28,0.5,0.44,0.25" style="fill:rgb(0,0,0);font-family:TimesNewRomanPSMT;font-size:11.04px;stroke:none;">shows the </text>
  </g>
  <g begin="text">
   <text y="712.3" x="48.0" svgx:width="0.5" style="fill:rgb(0,0,0);font-family:TimesNewRomanPSMT;font-size:12.0px;stroke:none;">7</text>
  </g>
  <g begin="text">
   <text y="712.3" x="54.0" svgx:width="0.25" style="fill:rgb(0,0,0);font-family:TimesNewRomanPSMT;font-size:12.0px;stroke:none;"> </text>
  </g>
  <g begin="text">
   <text y="726.22" x="72.024,77.544,80.657" svgx:width="0.5,0.28,0.33" style="fill:rgb(0,0,0);font-family:TimesNewRomanPSMT;font-size:11.04px;stroke:none;">dif</text>
  </g>
  <g begin="text">
   <text y="726.22" x="84.264,87.973,92.875,96.496,101.398,106.918,111.732,116.633,119.393,120.243,125.763,130.566,133.679,141.595,146.497,151.42,156.819,159.57899999999998,160.407,163.52,168.919,173.82,177.309,180.422,189.056,194.454,197.568,200.681,205.483,210.385,213.399,216.512,222.032,227.552,231.747,235.335,240.855,244.454,248.042,252.944,255.70399999999998,256.554,262.074,266.391,273.71,276.46999999999997,277.298,281.494,286.395,291.319,296.839,301.642,305.351,308.354,313.753,316.513,317.341,321.05,326.57,331.969,341.198,344.665,348.374,353.276,358.796,364.316,369.129,372.132,375.245,380.765,386.285,389.873,395.272,398.981,401.741,402.569,409.889" svgx:width="0.33,0.44,0.33,0.44,0.5,0.44,0.44,0.25,0.55,0.5,0.44,0.28,0.72,0.44,0.44,0.5,0.25,0.55,0.28,0.5,0.44,0.25,0.28,0.78,0.5,0.28,0.28,0.44,0.44,0.28,0.28,0.5,0.5,0.39,0.25,0.5,0.33,0.25,0.44,0.25,0.55,0.5,0.4,0.67,0.25,0.55,0.39,0.44,0.44,0.5,0.44,0.33,0.28,0.5,0.25,0.55,0.33,0.5,0.5,0.83,0.25,0.33,0.44,0.5,0.5,0.44,0.28,0.28,0.5,0.5,0.25,0.5,0.33,0.25,0.55,0.67,0.72" style="fill:rgb(0,0,0);font-family:TimesNewRomanPSMT;font-size:11.04px;stroke:none;">ference between the implications of a 2°C scenario (80% reduction of CO</text>
  </g>
  <g begin="text">
   <text y="727.18" x="418.15" svgx:width="0.5" style="fill:rgb(0,0,0);font-family:TimesNewRomanPSMT;font-size:6.96px;stroke:none;">2</text>
  </g>
  <g begin="text">
   <text y="726.22" x="421.63" svgx:width="0.25" style="fill:rgb(0,0,0);font-family:TimesNewRomanPSMT;font-size:11.04px;stroke:none;"> </text>
  </g>
  <g begin="text">
   <text y="726.22" x="425.23,428.233,433.631,436.39099999999996,437.219,442.739,448.259,453.779,459.299,462.898,466.486,471.388,476.908,482.329,485.917,490.819,494.307,499.827,502.587,508.107,511.695,516.012,523.331" svgx:width="0.28,0.5,0.25,0.55,0.5,0.5,0.5,0.5,0.33,0.25,0.44,0.5,0.5,0.25,0.44,0.25,0.5,0.25,0.5,0.25,0.4,0.67,0.25" style="fill:rgb(0,0,0);font-family:TimesNewRomanPSMT;font-size:11.04px;stroke:none;">in 2050) and a 1.5 °C </text>
  </g>
  <g begin="text">
   <text y="726.22" x="48.0" svgx:width="0.5" style="fill:rgb(0,0,0);font-family:TimesNewRomanPSMT;font-size:12.0px;stroke:none;">8</text>
  </g>
  <g begin="text">
   <text y="726.22" x="54.0" svgx:width="0.25" style="fill:rgb(0,0,0);font-family:TimesNewRomanPSMT;font-size:12.0px;stroke:none;"> </text>
  </g>
  <g begin="text">
   <text y="740.14" x="72.024,76.319,81.253,86.155,91.675,96.489,100.198,103.201,108.721,111.117,114.826,120.225,125.126,128.251,130.536,135.438,140.251,143.961,149.481,151.876,159.196" svgx:width="0.39,0.44,0.44,0.5,0.44,0.33,0.28,0.5,0.25,0.33,0.5,0.44,0.28,0.25,0.44,0.44,0.33,0.5,0.25,0.67,0.72" style="fill:rgb(0,0,0);font-family:TimesNewRomanPSMT;font-size:11.04px;stroke:none;">scenario (net zero CO</text>
  </g>
  <g begin="text">
   <text y="741.1" x="167.18" svgx:width="0.5" style="fill:rgb(0,0,0);font-family:TimesNewRomanPSMT;font-size:6.96px;stroke:none;">2</text>
  </g>
  <g begin="text">
   <text y="740.14" x="170.66" svgx:width="0.25" style="fill:rgb(0,0,0);font-family:TimesNewRomanPSMT;font-size:11.04px;stroke:none;"> </text>
  </g>
  <g begin="text">
   <text y="740.14" x="173.06,177.862,186.496,189.609,193.804,198.099,201.234,206.754,212.274,214.559,217.673,223.193,225.588,230.987,236.507,242.027,247.547" svgx:width="0.44,0.78,0.28,0.39,0.39,0.28,0.5,0.5,0.25,0.28,0.5,0.25,0.5,0.5,0.5,0.5,0.33" style="fill:rgb(0,0,0);font-family:TimesNewRomanPSMT;font-size:11.04px;stroke:none;">emission in 2050)</text>
  </g>
  <g begin="text">
   <text y="740.14" x="251.33,253.969,256.364,260.659,266.179,271.599,277.119,282.021,286.238,289.352,292.465,297.864,303.384,305.779,308.892,314.291,319.193,322.317,324.602" svgx:width="0.25,0.25,0.39,0.5,0.5,0.5,0.44,0.39,0.28,0.28,0.5,0.5,0.25,0.28,0.5,0.44,0.28,0.25,0.33" style="fill:rgb(0,0,0);font-family:TimesNewRomanPSMT;font-size:11.04px;stroke:none;">, suggesting that f</text>
  </g>
  <g begin="text">
   <text y="740.14" x="328.39,333.91,337.619,339.905,344.807,347.224,352.744,357.547,360.66,363.056,367.858,372.76,376.491,381.89,384.286,391.605" svgx:width="0.5,0.33,0.25,0.44,0.25,0.5,0.44,0.28,0.25,0.44,0.44,0.33,0.5,0.25,0.67,0.72" style="fill:rgb(0,0,0);font-family:TimesNewRomanPSMT;font-size:11.04px;stroke:none;">or a net zero CO</text>
  </g>
  <g begin="text">
   <text y="741.1" x="399.55" svgx:width="0.5" style="fill:rgb(0,0,0);font-family:TimesNewRomanPSMT;font-size:6.96px;stroke:none;">2</text>
  </g>
  <g begin="text">
   <text y="740.14" x="403.03" svgx:width="0.25" style="fill:rgb(0,0,0);font-family:TimesNewRomanPSMT;font-size:11.04px;stroke:none;"> </text>
  </g>
  <g begin="text">
   <text y="740.14" x="405.43,410.332,418.866,421.979,426.274,430.502,433.505,439.025,444.545,446.94,451.235,456.17,460.972,466.492,471.394,475.015,478.128,483.648,486.408,488.804,496.124,502.869,510.167,517.365,523.359" svgx:width="0.44,0.78,0.28,0.39,0.39,0.28,0.5,0.5,0.25,0.39,0.44,0.44,0.5,0.44,0.33,0.28,0.5,0.25,0.25,0.67,0.61,0.67,0.67,0.56,0.25" style="fill:rgb(0,0,0);font-family:TimesNewRomanPSMT;font-size:11.04px;stroke:none;">emission scenario, BECCS </text>
  </g>
  <g begin="text">
   <text y="740.14" x="48.0" svgx:width="0.5" style="fill:rgb(0,0,0);font-family:TimesNewRomanPSMT;font-size:12.0px;stroke:none;">9</text>
  </g>
  <g begin="text">
   <text y="740.14" x="54.0" svgx:width="0.25" style="fill:rgb(0,0,0);font-family:TimesNewRomanPSMT;font-size:12.0px;stroke:none;"> </text>
  </g>
  <g begin="text">
   <text y="754.056" x="72.024,75.137,79.432,81.739,86.641,88.816,94.336,99.238,104.758,106.933,110.046,114.948,119.761,125.281,130.801,136.321,139.324,144.844,150.364" svgx:width="0.28,0.39,0.25,0.44,0.25,0.5,0.44,0.5,0.25,0.28,0.44,0.44,0.5,0.5,0.5,0.28,0.5,0.5,0.5" style="fill:rgb(0,0,0);font-family:TimesNewRomanPSMT;font-size:11.04px;stroke:none;">is a key technology</text>
  </g>
  <g begin="text">
   <text y="754.056" x="155.9,158.66,160.945,167.691,173.067,177.969,180.983,184.692,186.978,191.173,196.075,200.998,204.112,209.51,213.22,218.022,221.135,223.421,228.322,233.743,238.645,241.769,247.168,251.462,254.598,258.793,261.078,265.98,268.994,277.627,281.822,284.107,287.221,292.741,294.905,300.425,305.945,311.343,316.863,319.148,324.05,327.175,329.46,334.858,339.76,345.28,350.094,353.207,356.32,361.719,366.62" svgx:width="0.25,0.25,0.61,0.5,0.44,0.28,0.33,0.25,0.39,0.44,0.44,0.28,0.5,0.33,0.44,0.28,0.25,0.44,0.5,0.44,0.28,0.5,0.39,0.28,0.39,0.25,0.44,0.28,0.78,0.39,0.25,0.28,0.5,0.25,0.5,0.5,0.5,0.5,0.25,0.44,0.28,0.25,0.5,0.44,0.5,0.44,0.28,0.28,0.5,0.44,0.25" style="fill:rgb(0,0,0);font-family:TimesNewRomanPSMT;font-size:11.04px;stroke:none;">. Their sectoral analysis aims in 2050 at negative </text>
  </g>
  <g begin="text">
   <text y="754.056" x="369.07,376.39" svgx:width="0.67,0.72" style="fill:rgb(0,0,0);font-family:TimesNewRomanPSMT;font-size:11.04px;stroke:none;">CO</text>
  </g>
  <g begin="text">
   <text y="755.016" x="384.31" svgx:width="0.5" style="fill:rgb(0,0,0);font-family:TimesNewRomanPSMT;font-size:6.96px;stroke:none;">2</text>
  </g>
  <g begin="text">
   <text y="754.056" x="387.79" svgx:width="0.25" style="fill:rgb(0,0,0);font-family:TimesNewRomanPSMT;font-size:11.04px;stroke:none;"> </text>
  </g>
  <g begin="text">
   <text y="754.056" x="390.07,394.872,403.506,406.619,410.814,415.109,418.244,423.643,429.163" svgx:width="0.44,0.78,0.28,0.39,0.39,0.28,0.5,0.5,0.39" style="fill:rgb(0,0,0);font-family:TimesNewRomanPSMT;font-size:11.04px;stroke:none;">emissions</text>
  </g>
  <g begin="text">
   <text y="754.056" x="433.39" svgx:width="0.25" style="fill:rgb(0,0,0);font-family:TimesNewRomanPSMT;font-size:11.04px;stroke:none;"> </text>
  </g>
  <g begin="text">
   <text y="754.056" x="435.67,438.79" svgx:width="0.28,0.5" style="fill:rgb(0,0,0);font-family:TimesNewRomanPSMT;font-size:11.04px;stroke:none;">in</text>
  </g>
  <g begin="text">
   <text y="754.056" x="444.34" svgx:width="0.25" style="fill:rgb(0,0,0);font-family:TimesNewRomanPSMT;font-size:11.04px;stroke:none;"> </text>
  </g>
  <g begin="text">
   <text y="754.056" x="446.5,449.613,455.133,460.035" svgx:width="0.28,0.5,0.44,0.25" style="fill:rgb(0,0,0);font-family:TimesNewRomanPSMT;font-size:11.04px;stroke:none;">the </text>
  </g>
  <g begin="text">
   <text y="754.056" x="462.34,467.142,472.662,477.564,481.185,486.705,492.225,494.511,498.805,503.63,508.531,511.656,517.054" svgx:width="0.44,0.5,0.44,0.33,0.5,0.5,0.25,0.39,0.44,0.44,0.28,0.5,0.33" style="fill:rgb(0,0,0);font-family:TimesNewRomanPSMT;font-size:11.04px;stroke:none;">energy sector</text>
  </g>
  <g begin="text">
   <text y="754.056" x="520.78" svgx:width="0.25" style="fill:rgb(0,0,0);font-family:TimesNewRomanPSMT;font-size:11.04px;stroke:none;">,</text>
  </g>
  <g begin="text">
   <text y="754.056" x="523.42" svgx:width="0.25" style="fill:rgb(0,0,0);font-family:TimesNewRomanPSMT;font-size:11.04px;stroke:none;"> </text>
  </g>
  <g begin="text">
   <text y="754.056" x="42.0,48.0" svgx:width="0.5,0.5" style="fill:rgb(0,0,0);font-family:TimesNewRomanPSMT;font-size:12.0px;stroke:none;">10</text>
  </g>
  <g begin="text">
   <text y="754.056" x="54.0" svgx:width="0.25" style="fill:rgb(0,0,0);font-family:TimesNewRomanPSMT;font-size:12.0px;stroke:none;"> </text>
  </g>
  <rect style="fill:pink;opacity:0.2;stroke:blue;stroke-width:0.3;" x="72.0" y="48.84" height="524.2" width="456.44" title="38"/>
  <text y="48.84" class="image" id="image.38.1" width="456" height="524" x="72.0" style="font-size:5.0px;">image.38.1.72_528.49_573</text>
  <g begin="text">
   <text y="602.109" transform="matrix(0.70711,-0.70711,0.70711,0.70711,-395.12956,250.29085)" rotateDegrees="-45" matrix="[29.803345,29.803345,-29.803345,29.803345,104.563255,239.8115]" x="104.563" svgx:width="0.67" style="fill:rgb(0,0,0);font-family:Arial;font-size:42.15px;stroke:none;">A</text>
   <text y="582.23" transform="matrix(0.70711,-0.70711,0.70711,0.70711,-375.25056,258.525)" rotateDegrees="-45" matrix="[29.803345,29.803345,-29.803345,29.803345,124.442085,259.6903]" x="124.442" svgx:width="0.72" style="fill:rgb(0,0,0);font-family:Arial;font-size:42.15px;stroke:none;">C</text>
   <text y="560.712" transform="matrix(0.70711,-0.70711,0.70711,0.70711,-353.73256,267.43805)" rotateDegrees="-45" matrix="[29.803345,29.803345,-29.803345,29.803345,145.9601,281.20834]" x="145.96" svgx:width="0.72" style="fill:rgb(0,0,0);font-family:Arial;font-size:42.15px;stroke:none;">C</text>
   <text y="539.194" transform="matrix(0.70711,-0.70711,0.70711,0.70711,-332.21456,276.3511)" rotateDegrees="-45" matrix="[29.803345,29.803345,-29.803345,29.803345,167.47812,302.72635]" x="167.478" svgx:width="0.67" style="fill:rgb(0,0,0);font-family:Arial;font-size:42.15px;stroke:none;">E</text>
   <text y="519.315" transform="matrix(0.70711,-0.70711,0.70711,0.70711,-312.33556,284.58525)" rotateDegrees="-45" matrix="[29.803345,29.803345,-29.803345,29.803345,187.35693,322.60516]" x="187.357" svgx:width="0.67" style="fill:rgb(0,0,0);font-family:Arial;font-size:42.15px;stroke:none;">P</text>
   <text y="499.436" transform="matrix(0.70711,-0.70711,0.70711,0.70711,-292.45656,292.8194)" rotateDegrees="-45" matrix="[29.803345,29.803345,-29.803345,29.803345,207.23578,342.484]" x="207.236" svgx:width="0.61" style="fill:rgb(0,0,0);font-family:Arial;font-size:42.15px;stroke:none;">T</text>
   <text y="481.226" transform="matrix(0.70711,-0.70711,0.70711,0.70711,-274.24656,300.36223)" rotateDegrees="-45" matrix="[29.803345,29.803345,-29.803345,29.803345,225.44562,360.69385]" x="225.446" svgx:width="0.67" style="fill:rgb(0,0,0);font-family:Arial;font-size:42.15px;stroke:none;">E</text>
   <text y="461.347" transform="matrix(0.70711,-0.70711,0.70711,0.70711,-254.36786,308.59567)" rotateDegrees="-45" matrix="[29.803345,29.803345,-29.803345,29.803345,245.32443,380.57266]" x="245.324" svgx:width="0.72" style="fill:rgb(0,0,0);font-family:Arial;font-size:42.15px;stroke:none;">D</text>
   <text y="439.829" transform="matrix(0.70711,-0.70711,0.70711,0.70711,-232.84986,317.50872)" rotateDegrees="-45" matrix="[29.803345,29.803345,-29.803345,29.803345,266.84247,402.0907]" x="266.842" svgx:width="0.28" style="fill:rgb(0,0,0);font-family:Arial;font-size:42.15px;stroke:none;"> </text>
   <text y="431.54" transform="matrix(0.70711,-0.70711,0.70711,0.70711,-224.56056,320.94284)" rotateDegrees="-45" matrix="[29.803345,29.803345,-29.803345,29.803345,275.13153,410.37976]" x="275.132" svgx:width="0.67" style="fill:rgb(0,0,0);font-family:Arial;font-size:42.15px;stroke:none;">V</text>
   <text y="411.661" transform="matrix(0.70711,-0.70711,0.70711,0.70711,-204.68186,329.17629)" rotateDegrees="-45" matrix="[29.803345,29.803345,-29.803345,29.803345,295.0103,430.25858]" x="295.01" svgx:width="0.67" style="fill:rgb(0,0,0);font-family:Arial;font-size:42.15px;stroke:none;">E</text>
   <text y="391.783" transform="matrix(0.70711,-0.70711,0.70711,0.70711,-184.80356,337.41073)" rotateDegrees="-45" matrix="[29.803345,29.803345,-29.803345,29.803345,314.88916,450.1374]" x="314.889" svgx:width="0.72" style="fill:rgb(0,0,0);font-family:Arial;font-size:42.15px;stroke:none;">R</text>
   <text y="370.265" transform="matrix(0.70711,-0.70711,0.70711,0.70711,-163.28556,346.32378)" rotateDegrees="-45" matrix="[29.803345,29.803345,-29.803345,29.803345,336.40717,471.65543]" x="336.407" svgx:width="0.67" style="fill:rgb(0,0,0);font-family:Arial;font-size:42.15px;stroke:none;">S</text>
   <text y="350.386" transform="matrix(0.70711,-0.70711,0.70711,0.70711,-143.40656,354.55793)" rotateDegrees="-45" matrix="[29.803345,29.803345,-29.803345,29.803345,356.286,491.53424]" x="356.286" svgx:width="0.28" style="fill:rgb(0,0,0);font-family:Arial;font-size:42.15px;stroke:none;">I</text>
   <text y="342.1" transform="matrix(0.70711,-0.70711,0.70711,0.70711,-135.12086,357.9894)" rotateDegrees="-45" matrix="[29.803345,29.803345,-29.803345,29.803345,364.57135,499.81958]" x="364.571" svgx:width="0.78" style="fill:rgb(0,0,0);font-family:Arial;font-size:42.15px;stroke:none;">O</text>
   <text y="318.913" transform="matrix(0.70711,-0.70711,0.70711,0.70711,-111.93386,367.59377)" rotateDegrees="-45" matrix="[29.803345,29.803345,-29.803345,29.803345,387.7583,523.0066]" x="387.758" svgx:width="0.72" style="fill:rgb(0,0,0);font-family:Arial;font-size:42.15px;stroke:none;">N</text>
   <text y="297.395" transform="matrix(0.70711,-0.70711,0.70711,0.70711,-90.41586,376.50681)" rotateDegrees="-45" matrix="[29.803345,29.803345,-29.803345,29.803345,409.27637,544.5246]" x="409.276" svgx:width="0.28" style="fill:rgb(0,0,0);font-family:Arial;font-size:42.15px;stroke:none;"> </text>
   <text y="637.872" transform="matrix(0.70711,-0.70711,0.70711,0.70711,-409.94279,286.05456)" rotateDegrees="-45" matrix="[29.803345,29.803345,-29.803345,29.803345,140.32727,204.04747]" x="140.327" svgx:width="0.67" style="fill:rgb(0,0,0);font-family:Arial;font-size:42.15px;stroke:none;">S</text>
   <text y="617.994" transform="matrix(0.70711,-0.70711,0.70711,0.70711,-390.0645,294.289)" rotateDegrees="-45" matrix="[29.803345,29.803345,-29.803345,29.803345,160.2061,223.9263]" x="160.206" svgx:width="0.72" style="fill:rgb(0,0,0);font-family:Arial;font-size:42.15px;stroke:none;">U</text>
   <text y="596.476" transform="matrix(0.70711,-0.70711,0.70711,0.70711,-368.5465,303.20205)" rotateDegrees="-45" matrix="[29.803345,29.803345,-29.803345,29.803345,181.72412,245.4443]" x="181.724" svgx:width="0.67" style="fill:rgb(0,0,0);font-family:Arial;font-size:42.15px;stroke:none;">B</text>
   <text y="576.597" transform="matrix(0.70711,-0.70711,0.70711,0.70711,-348.6675,311.4362)" rotateDegrees="-45" matrix="[29.803345,29.803345,-29.803345,29.803345,201.60294,265.32315]" x="201.603" svgx:width="0.5" style="fill:rgb(0,0,0);font-family:Arial;font-size:42.15px;stroke:none;">J</text>
   <text y="561.695" transform="matrix(0.70711,-0.70711,0.70711,0.70711,-333.7655,317.60881)" rotateDegrees="-45" matrix="[29.803345,29.803345,-29.803345,29.803345,216.50462,280.22482]" x="216.505" svgx:width="0.67" style="fill:rgb(0,0,0);font-family:Arial;font-size:42.15px;stroke:none;">E</text>
   <text y="541.816" transform="matrix(0.70711,-0.70711,0.70711,0.70711,-313.88679,325.84225)" rotateDegrees="-45" matrix="[29.803345,29.803345,-29.803345,29.803345,236.38344,300.10364]" x="236.383" svgx:width="0.72" style="fill:rgb(0,0,0);font-family:Arial;font-size:42.15px;stroke:none;">C</text>
   <text y="520.298" transform="matrix(0.70711,-0.70711,0.70711,0.70711,-292.36879,334.7553)" rotateDegrees="-45" matrix="[29.803345,29.803345,-29.803345,29.803345,257.90146,321.62164]" x="257.901" svgx:width="0.61" style="fill:rgb(0,0,0);font-family:Arial;font-size:42.15px;stroke:none;">T</text>
   <text y="502.089" transform="matrix(0.70711,-0.70711,0.70711,0.70711,-274.1595,342.29842)" rotateDegrees="-45" matrix="[29.803345,29.803345,-29.803345,29.803345,276.1113,339.83148]" x="276.111" svgx:width="0.28" style="fill:rgb(0,0,0);font-family:Arial;font-size:42.15px;stroke:none;"> </text>
   <text y="493.803" transform="matrix(0.70711,-0.70711,0.70711,0.70711,-265.8735,345.7306)" rotateDegrees="-45" matrix="[29.803345,29.803345,-29.803345,29.803345,284.39664,348.11682]" x="284.397" svgx:width="0.61" style="fill:rgb(0,0,0);font-family:Arial;font-size:42.15px;stroke:none;">T</text>
   <text y="475.593" transform="matrix(0.70711,-0.70711,0.70711,0.70711,-247.66379,353.27272)" rotateDegrees="-45" matrix="[29.803345,29.803345,-29.803345,29.803345,302.60648,366.32666]" x="302.606" svgx:width="0.78" style="fill:rgb(0,0,0);font-family:Arial;font-size:42.15px;stroke:none;">O</text>
   <text y="452.406" transform="matrix(0.70711,-0.70711,0.70711,0.70711,-224.47679,362.87709)" rotateDegrees="-45" matrix="[29.803345,29.803345,-29.803345,29.803345,325.79346,389.51367]" x="325.793" svgx:width="0.28" style="fill:rgb(0,0,0);font-family:Arial;font-size:42.15px;stroke:none;"> </text>
   <text y="444.136" transform="matrix(0.70711,-0.70711,0.70711,0.70711,-216.2065,366.30334)" rotateDegrees="-45" matrix="[29.803345,29.803345,-29.803345,29.803345,334.0639,397.78412]" x="334.064" svgx:width="0.61" style="fill:rgb(0,0,0);font-family:Arial;font-size:42.15px;stroke:none;">F</text>
   <text y="425.926" transform="matrix(0.70711,-0.70711,0.70711,0.70711,-197.9965,373.84617)" rotateDegrees="-45" matrix="[29.803345,29.803345,-29.803345,29.803345,352.27374,415.99396]" x="352.274" svgx:width="0.28" style="fill:rgb(0,0,0);font-family:Arial;font-size:42.15px;stroke:none;">I</text>
   <text y="417.641" transform="matrix(0.70711,-0.70711,0.70711,0.70711,-189.7115,377.27793)" rotateDegrees="-45" matrix="[29.803345,29.803345,-29.803345,29.803345,360.55908,424.2793]" x="360.559" svgx:width="0.72" style="fill:rgb(0,0,0);font-family:Arial;font-size:42.15px;stroke:none;">N</text>
   <text y="396.123" transform="matrix(0.70711,-0.70711,0.70711,0.70711,-168.1935,386.19098)" rotateDegrees="-45" matrix="[29.803345,29.803345,-29.803345,29.803345,382.0771,445.7973]" x="382.077" svgx:width="0.67" style="fill:rgb(0,0,0);font-family:Arial;font-size:42.15px;stroke:none;">A</text>
   <text y="376.244" transform="matrix(0.70711,-0.70711,0.70711,0.70711,-148.3145,394.42513)" rotateDegrees="-45" matrix="[29.803345,29.803345,-29.803345,29.803345,401.95593,465.67615]" x="401.956" svgx:width="0.56" style="fill:rgb(0,0,0);font-family:Arial;font-size:42.15px;stroke:none;">L</text>
   <text y="359.673" transform="matrix(0.70711,-0.70711,0.70711,0.70711,-131.7435,401.28906)" rotateDegrees="-45" matrix="[29.803345,29.803345,-29.803345,29.803345,418.5266,482.24677]" x="418.527" svgx:width="0.28" style="fill:rgb(0,0,0);font-family:Arial;font-size:42.15px;stroke:none;"> </text>
   <text y="351.394" transform="matrix(0.70711,-0.70711,0.70711,0.70711,-123.4645,404.71834)" rotateDegrees="-45" matrix="[29.803345,29.803345,-29.803345,29.803345,426.80573,490.52588]" x="426.806" svgx:width="0.67" style="fill:rgb(0,0,0);font-family:Arial;font-size:42.15px;stroke:none;">E</text>
   <text y="331.515" transform="matrix(0.70711,-0.70711,0.70711,0.70711,-103.5855,412.95249)" rotateDegrees="-45" matrix="[29.803345,29.803345,-29.803345,29.803345,446.68457,510.40472]" x="446.685" svgx:width="0.72" style="fill:rgb(0,0,0);font-family:Arial;font-size:42.15px;stroke:none;">D</text>
   <text y="309.997" transform="matrix(0.70711,-0.70711,0.70711,0.70711,-82.0675,421.86554)" rotateDegrees="-45" matrix="[29.803345,29.803345,-29.803345,29.803345,468.2025,531.9227]" x="468.203" svgx:width="0.28" style="fill:rgb(0,0,0);font-family:Arial;font-size:42.15px;stroke:none;">I</text>
   <text y="301.712" transform="matrix(0.70711,-0.70711,0.70711,0.70711,-73.7825,425.29729)" rotateDegrees="-45" matrix="[29.803345,29.803345,-29.803345,29.803345,476.48785,540.20807]" x="476.488" svgx:width="0.61" style="fill:rgb(0,0,0);font-family:Arial;font-size:42.15px;stroke:none;">T</text>
   <text y="283.502" transform="matrix(0.70711,-0.70711,0.70711,0.70711,-55.5725,432.84012)" rotateDegrees="-45" matrix="[29.803345,29.803345,-29.803345,29.803345,494.6977,558.4179]" x="494.698" svgx:width="0.67" style="fill:rgb(0,0,0);font-family:Arial;font-size:42.15px;stroke:none;">S</text>
  </g>
 </g>
</svg>
