<?xml version="1.0" encoding="UTF-8"?>
<svg height="813.4" width="536.372" xmlns="http://www.w3.org/2000/svg">
 <g id="page" xmlns:svgx="http://www.xml-cml.org/schema/svgx">
  <g begin="text">
   <text y="46.32" x="72.024,78.162,81.231,86.751,91.587,94.7,97.46,105.376,110.896,116.416,121.218,124.928,130.448,138.971,143.872,149.392,152.517,155.277,163.082,166.195,170.39,173.504,177.103,180.216,185.736,191.135,194.137,197.251,202.771" svgx:width="0.56,0.28,0.5,0.44,0.28,0.25,0.72,0.5,0.5,0.44,0.33,0.5,0.78,0.44,0.5,0.28,0.25,0.72,0.28,0.39,0.28,0.33,0.28,0.5,0.5,0.28,0.28,0.5,0.5" style="fill:rgb(0,0,0);font-family:TimesNewRomanPSMT;font-size:11.04px;stroke:none;">Final Government Distribution</text>
  </g>
  <g begin="text">
   <text y="46.32" x="208.25" svgx:width="0.25" style="fill:rgb(0,0,0);font-family:TimesNewRomanPSMT;font-size:11.04px;stroke:none;"> </text>
  </g>
  <g begin="text">
   <text y="46.32" x="276.17,283.49,289.009,293.911,299.431,302.556,307.358,311.067,313.827" svgx:width="0.67,0.5,0.44,0.5,0.28,0.44,0.33,0.25,0.5" style="fill:rgb(0,0,0);font-family:TimesNewRomanPSMT;font-size:11.04px;stroke:none;">Chapter 4</text>
  </g>
  <g begin="text">
   <text y="46.32" x="319.27" svgx:width="0.25" style="fill:rgb(0,0,0);font-family:TimesNewRomanPSMT;font-size:11.04px;stroke:none;"> </text>
  </g>
  <g begin="text">
   <text y="46.32" x="443.38,446.979,453.117,460.415,467.734" svgx:width="0.33,0.56,0.67,0.67,0.25" style="fill:rgb(0,0,0);font-family:TimesNewRomanPSMT;font-size:11.04px;stroke:none;">IPCC </text>
  </g>
  <g begin="text">
   <text y="46.32" x="470.5" svgx:width="0.72" style="fill:rgb(0,0,0);font-family:TimesNewRomanPSMT;font-size:11.04px;stroke:none;">A</text>
  </g>
  <g begin="text">
   <text y="46.32" x="478.42,485.74,491.259,494.02,504.441,512.412,516.088,519.699" svgx:width="0.67,0.5,0.25,0.94,0.72,0.33,0.33,0.33" style="fill:rgb(0,0,0);font-family:TimesNewRomanPSMT;font-size:11.04px;stroke:none;">R6 WGIII</text>
  </g>
  <g begin="text">
   <text y="46.32" x="523.42" svgx:width="0.25" style="fill:rgb(0,0,0);font-family:TimesNewRomanPSMT;font-size:11.04px;stroke:none;"> </text>
  </g>
  <g begin="text">
   <text y="774.816" x="72.024,79.94,85.46,88.22,96.135,101.655,105.365,108.125,116.04,119.154,122.753,127.655,130.415,133.075,141.708,147.847,153.367,157.043,161.868,164.628,170.148,175.049,177.809,185.78,188.75,192.945,196.655,201.556,204.681,210.819,216.803,220.512" svgx:width="0.72,0.5,0.25,0.72,0.5,0.33,0.25,0.72,0.28,0.33,0.44,0.25,0.25,0.78,0.56,0.5,0.33,0.44,0.25,0.5,0.44,0.25,0.72,0.28,0.39,0.33,0.44,0.28,0.56,0.56,0.33,0.44" style="fill:rgb(0,0,0);font-family:TimesNewRomanPS-BoldMT;font-size:11.04px;stroke:none;">Do Not Cite, Quote or Distribute</text>
  </g>
  <g begin="text">
   <text y="774.816" x="225.41" svgx:width="0.25" style="fill:rgb(0,0,0);font-family:TimesNewRomanPS-BoldMT;font-size:11.04px;stroke:none;"> </text>
  </g>
  <g begin="text">
   <text y="774.816" x="284.81" svgx:width="0.5" style="fill:rgb(0,0,0);font-family:TimesNewRomanPSMT;font-size:11.04px;stroke:none;">4</text>
  </g>
  <g begin="text">
   <text y="774.816" x="290.33" svgx:width="0.33" style="fill:rgb(0,0,0);font-family:TimesNewRomanPSMT;font-size:11.04px;stroke:none;">-</text>
  </g>
  <g begin="text">
   <text y="774.816" x="293.93,299.45,304.97" svgx:width="0.5,0.5,0.5" style="fill:rgb(0,0,0);font-family:TimesNewRomanPSMT;font-size:11.04px;stroke:none;">156</text>
  </g>
  <g begin="text">
   <text y="774.816" x="310.49" svgx:width="0.25" style="fill:rgb(0,0,0);font-family:TimesNewRomanPSMT;font-size:11.04px;stroke:none;"> </text>
  </g>
  <g begin="text">
   <text y="774.816" x="313.27" svgx:width="0.25" style="fill:rgb(0,0,0);font-family:TimesNewRomanPSMT;font-size:11.04px;stroke:none;"> </text>
  </g>
  <g begin="text">
   <text y="774.816" x="450.1,456.845,462.365,465.435,470.259,473.372,476.132,481.652,486.554,491.975,496.876,501.204,504.207" svgx:width="0.61,0.5,0.28,0.44,0.28,0.25,0.5,0.44,0.5,0.44,0.39,0.28,0.25" style="fill:rgb(0,0,0);font-family:TimesNewRomanPSMT;font-size:11.04px;stroke:none;">Total pages: </text>
  </g>
  <g begin="text">
   <text y="774.816" x="506.98,512.5,518.02" svgx:width="0.5,0.5,0.5" style="fill:rgb(0,0,0);font-family:TimesNewRomanPSMT;font-size:11.04px;stroke:none;">156</text>
  </g>
  <g begin="text">
   <text y="774.816" x="523.42" svgx:width="0.25" style="fill:rgb(0,0,0);font-family:TimesNewRomanPSMT;font-size:9.96px;stroke:none;"> </text>
  </g>
  <g begin="text">
   <text y="789.576" x="72.024" svgx:width="0.25" style="fill:rgb(0,0,0);font-family:TimesNewRomanPSMT;font-size:12.0px;stroke:none;"> </text>
  </g>
  <g begin="text">
   <text y="803.4" x="72.024" svgx:width="0.25" style="fill:rgb(0,0,0);font-family:TimesNewRomanPSMT;font-size:12.0px;stroke:none;"> </text>
  </g>
  <g begin="text">
   <text y="83.16" x="96.024,104.052,110.052,116.052,121.332,126.612,132.612,135.948,141.948,147.276,150.612,153.948,158.64,163.92,167.256,170.628,176.628,182.628,187.296,190.296,193.296,201.096,209.76,215.76,221.76,230.376,233.712,239.04,245.04,251.04,256.296,259.296,267.084,273.792,277.128,281.124,287.124,292.392,295.728,301.728,305.724,310.992,315.66,318.66,326.46,331.74,337.848,343.848,346.848,354.636,361.968,365.916,371.196,377.196,383.196,387.864,390.864,398.664,404.664,408.66,411.66,419.412,428.076,432.012,437.292,442.572,448.572,451.572,459.48,468.144,473.4,482.064,485.064,492.828,501.492,506.748,512.028,515.364,520.032,523.176" svgx:width="0.67,0.5,0.5,0.44,0.44,0.5,0.28,0.5,0.44,0.28,0.28,0.39,0.44,0.28,0.28,0.5,0.5,0.39,0.25,0.25,0.55,0.72,0.5,0.5,0.72,0.28,0.44,0.5,0.5,0.44,0.25,0.55,0.56,0.28,0.33,0.5,0.44,0.28,0.5,0.33,0.44,0.39,0.25,0.55,0.44,0.5,0.5,0.25,0.55,0.61,0.33,0.44,0.5,0.5,0.39,0.25,0.55,0.5,0.33,0.25,0.55,0.72,0.33,0.44,0.44,0.5,0.25,0.55,0.72,0.44,0.72,0.25,0.55,0.72,0.44,0.44,0.28,0.39,0.25,0.25" style="fill:rgb(0,0,0);font-family:TimesNewRomanPSMT;font-size:12.0px;stroke:none;">Conceptualisations, Knowledge Structures and Trends of Green New Deals. </text>
  </g>
  <g begin="text">
   <text y="83.16" x="48.0" svgx:width="0.5" style="fill:rgb(0,0,0);font-family:TimesNewRomanPSMT;font-size:12.0px;stroke:none;">1</text>
  </g>
  <g begin="text">
   <text y="83.16" x="54.0" svgx:width="0.25" style="fill:rgb(0,0,0);font-family:TimesNewRomanPSMT;font-size:12.0px;stroke:none;"> </text>
  </g>
  <g begin="text">
   <text y="96.98" x="96.024,102.024,108.024,112.692,116.052,122.052,125.388,131.388,137.388,143.388,146.76,150.096,153.468,156.804" svgx:width="0.5,0.5,0.39,0.28,0.5,0.28,0.5,0.5,0.5,0.28,0.28,0.28,0.28,0.44" style="fill:rgb(0,0,0);font-family:TimesNewRomanPS-ItalicMT;font-size:12.0px;stroke:none;">Sustainability</text>
  </g>
  <g begin="text">
   <text y="96.98" x="162.14,165.14" svgx:width="0.25,0.25" style="fill:rgb(0,0,0);font-family:TimesNewRomanPSMT;font-size:12.0px;stroke:none;">, </text>
  </g>
  <g begin="text">
   <text y="96.98" x="168.14,174.14" svgx:width="0.5,0.5" style="fill:rgb(0,0,0);font-family:TimesNewRomanPS-BoldMT;font-size:12.0px;stroke:none;">13</text>
  </g>
  <g begin="text">
   <text y="96.98" x="180.14,184.136,190.136,196.136,200.06,203.06,206.06,212.06,218.06,221.396,224.768,230.768,236.768,239.768,245.768,251.768,257.768,263.768,267.104,271.796,277.796,283.796,289.796,295.796,301.796,307.796,313.796,319.796,325.796,331.796" svgx:width="0.33,0.5,0.5,0.33,0.25,0.25,0.5,0.5,0.28,0.28,0.5,0.5,0.25,0.5,0.5,0.5,0.5,0.28,0.39,0.5,0.5,0.5,0.5,0.5,0.5,0.5,0.5,0.5,0.5,0.25" style="fill:rgb(0,0,0);font-family:TimesNewRomanPSMT;font-size:12.0px;stroke:none;">(22), doi:10.3390/su132212529.</text>
  </g>
  <g begin="text">
   <text y="96.98" x="334.75" svgx:width="0.25" style="fill:rgb(0,0,0);font-family:TimesNewRomanPSMT;font-size:12.0px;stroke:none;"> </text>
  </g>
  <g begin="text">
   <text y="96.98" x="48.0" svgx:width="0.5" style="fill:rgb(0,0,0);font-family:TimesNewRomanPSMT;font-size:12.0px;stroke:none;">2</text>
  </g>
  <g begin="text">
   <text y="96.98" x="54.0" svgx:width="0.25" style="fill:rgb(0,0,0);font-family:TimesNewRomanPSMT;font-size:12.0px;stroke:none;"> </text>
  </g>
  <g begin="text">
   <text y="110.78" x="72.024,80.688,86.688,92.688,97.944,101.94,107.94,117.276,122.544,128.544,131.88,134.184,140.292,144.288,146.532,153.24,159.24,164.52,167.856,173.856,176.856,179.16,185.16,191.268,197.268,203.268,206.604" svgx:width="0.72,0.5,0.5,0.44,0.33,0.5,0.78,0.44,0.5,0.28,0.25,0.5,0.33,0.25,0.56,0.5,0.44,0.28,0.5,0.25,0.25,0.5,0.5,0.5,0.5,0.28,0.25" style="fill:rgb(0,0,0);font-family:TimesNewRomanPSMT;font-size:12.0px;stroke:none;">Government of Spain, 2019: </text>
  </g>
  <g begin="text">
   <text y="110.78" x="208.97,215.678,221.678,226.958,229.238,232.574,238.574,243.242,246.626,248.906,252.242,256.91,262.91,268.91,273.614,276.95,280.322,283.658,289.658,295.658" svgx:width="0.56,0.5,0.44,0.25,0.28,0.5,0.39,0.28,0.25,0.28,0.39,0.5,0.5,0.39,0.28,0.28,0.28,0.5,0.5,0.25" style="fill:rgb(0,0,0);font-family:TimesNewRomanPS-ItalicMT;font-size:12.0px;stroke:none;">The just transition </text>
  </g>
  <g begin="text">
   <text y="110.78" x="298.01,302.678,306.014,310.718,316.718,320.054,325.382,331.382,336.638,338.918,346.946,350.282,353.654,359.654,362.99,368.99,371.294,374.63,380.63,385.958,388.214,392.882,396.218,400.922,406.922,410.258,415.586,421.586,424.922,430.31,432.71,437.99,443.99,449.27,453.938,459.938,465.338,467.618,473.618,479.618,485.618,487.898,493.178,496.514,499.886,508.55,514.55,517.886,523.274" svgx:width="0.39,0.28,0.39,0.5,0.28,0.44,0.5,0.44,0.25,0.67,0.28,0.28,0.5,0.28,0.5,0.25,0.28,0.5,0.44,0.25,0.39,0.28,0.39,0.5,0.28,0.44,0.5,0.28,0.44,0.25,0.44,0.5,0.44,0.39,0.5,0.44,0.25,0.5,0.5,0.5,0.25,0.44,0.28,0.28,0.72,0.5,0.28,0.44,0.25" style="fill:rgb(0,0,0);font-family:TimesNewRomanPS-ItalicMT;font-size:12.0px;stroke:none;">strategy within the strategic energy and climate </text>
  </g>
  <g begin="text">
   <text y="110.78" x="48.0" svgx:width="0.5" style="fill:rgb(0,0,0);font-family:TimesNewRomanPSMT;font-size:12.0px;stroke:none;">3</text>
  </g>
  <g begin="text">
   <text y="110.78" x="54.0" svgx:width="0.25" style="fill:rgb(0,0,0);font-family:TimesNewRomanPSMT;font-size:12.0px;stroke:none;"> </text>
  </g>
  <g begin="text">
   <text y="124.58" x="96.024,99.36,104.028,110.028,118.692,123.984,132.012,138.012,142.68" svgx:width="0.28,0.39,0.5,0.72,0.44,0.67,0.5,0.39,0.44" style="fill:rgb(0,0,0);font-family:TimesNewRomanPS-ItalicMT;font-size:12.0px;stroke:none;">framework</text>
  </g>
  <g begin="text">
   <text y="124.58" x="147.98,150.98,153.98,182.528,185.528,188.528,217.076,227.744,233.036,239.036,243.032,246.368,252.368,255.368" svgx:width="0.25,0.25,0.55,0.25,0.25,0.55,0.89,0.44,0.5,0.33,0.28,0.5,0.25,0.25" style="fill:rgb(0,0,0);font-family:TimesNewRomanPSMT;font-size:12.0px;stroke:none;">. , Madrid, </text>
  </g>
  <g begin="text">
   <text y="124.58" x="286.97,292.97,296.306,299.678,305.678,310.346,313.682,317.066,320.402,329.066,337.73,346.346,349.346,358.682,362.054,365.39,370.718,375.974,381.974,384.974,390.974,396.974,402.974,405.974,411.254,415.922,419.258,424.586,430.586,433.922,439.922,443.918,449.174,455.174,459.962,465.242,468.578,473.906,477.242" svgx:width="0.5,0.28,0.28,0.5,0.39,0.28,0.28,0.28,0.72,0.72,0.72,0.25,0.78,0.28,0.28,0.44,0.44,0.5,0.25,0.5,0.5,0.5,0.25,0.44,0.39,0.28,0.44,0.5,0.28,0.5,0.33,0.44,0.5,0.39,0.44,0.28,0.44,0.28,0.28" style="fill:rgb(46,116,181);font-family:TimesNewRomanPSMT;font-size:12.0px;stroke:none;">https://www.miteco.gob.es/en/prensa/etj</text>
  </g>
  <g begin="text">
   <text y="124.58" x="480.7" svgx:width="0.33" style="fill:rgb(46,116,181);font-family:TimesNewRomanPSMT;font-size:12.0px;stroke:none;">-</text>
  </g>
  <g begin="text">
   <text y="124.58" x="484.66,489.94,495.94,501.94,505.276,508.648,513.316" svgx:width="0.44,0.5,0.5,0.28,0.28,0.39,0.5" style="fill:rgb(46,116,181);font-family:TimesNewRomanPSMT;font-size:12.0px;stroke:none;">english</text>
  </g>
  <g begin="text">
   <text y="124.58" x="519.34" svgx:width="0.33" style="fill:rgb(46,116,181);font-family:TimesNewRomanPSMT;font-size:12.0px;stroke:none;">-</text>
  </g>
  <g begin="text">
   <text y="124.58" x="48.0" svgx:width="0.5" style="fill:rgb(0,0,0);font-family:TimesNewRomanPSMT;font-size:12.0px;stroke:none;">4</text>
  </g>
  <g begin="text">
   <text y="124.58" x="54.0" svgx:width="0.25" style="fill:rgb(0,0,0);font-family:TimesNewRomanPSMT;font-size:12.0px;stroke:none;"> </text>
  </g>
  <g begin="text">
   <text y="138.38" x="96.024,99.36,105.36,108.732,114.012,118.008,123.252,128.532,131.868,135.24,141.24,146.52,152.52,155.856,161.184,170.52,176.52" svgx:width="0.28,0.5,0.28,0.44,0.33,0.44,0.44,0.28,0.28,0.5,0.44,0.5,0.28,0.44,0.78,0.5,0.5" style="fill:rgb(46,116,181);font-family:TimesNewRomanPSMT;font-size:12.0px;stroke:none;">interactive_tcm38</text>
  </g>
  <g begin="text">
   <text y="138.38" x="182.54" svgx:width="0.33" style="fill:rgb(46,116,181);font-family:TimesNewRomanPSMT;font-size:12.0px;stroke:none;">-</text>
  </g>
  <g begin="text">
   <text y="138.38" x="186.53,192.53,198.53,204.53,210.53,216.638,222.638,225.638,231.638,237.638" svgx:width="0.5,0.5,0.5,0.5,0.5,0.5,0.25,0.5,0.5,0.33" style="fill:rgb(46,116,181);font-family:TimesNewRomanPSMT;font-size:12.0px;stroke:none;">505653.pdf</text>
  </g>
  <g begin="text">
   <text y="138.38" x="241.61" svgx:width="0.25" style="fill:rgb(0,0,0);font-family:TimesNewRomanPSMT;font-size:12.0px;stroke:none;">.</text>
  </g>
  <g begin="text">
   <text y="138.38" x="244.61" svgx:width="0.25" style="fill:rgb(0,0,0);font-family:TimesNewRomanPSMT;font-size:12.0px;stroke:none;"> </text>
  </g>
  <g begin="text">
   <text y="138.38" x="48.0" svgx:width="0.5" style="fill:rgb(0,0,0);font-family:TimesNewRomanPSMT;font-size:12.0px;stroke:none;">5</text>
  </g>
  <g begin="text">
   <text y="138.38" x="54.0" svgx:width="0.25" style="fill:rgb(0,0,0);font-family:TimesNewRomanPSMT;font-size:12.0px;stroke:none;"> </text>
  </g>
  <g begin="text">
   <text y="152.18" x="72.024,78.732,84.732,88.068,91.44,94.776,100.776,103.776,107.388,115.416,118.416,121.416" svgx:width="0.56,0.5,0.28,0.28,0.28,0.5,0.25,0.25,0.67,0.25,0.25,0.25" style="fill:rgb(0,0,0);font-family:TimesNewRomanPSMT;font-size:12.0px;stroke:none;">Pollin, R., </text>
  </g>
  <g begin="text">
   <text y="152.18" x="125.06,131.06,137.06" svgx:width="0.5,0.5,0.5" style="fill:rgb(0,0,0);font-family:TimesNewRomanPSMT;font-size:12.0px;stroke:none;">202</text>
  </g>
  <g begin="text">
   <text y="152.18" x="143.06,149.06,152.396,156.008,164.672,170.672,174.236,178.076,184.076,190.184,196.184,200.852,204.188,208.184,211.52,216.848,220.184,223.772,230.48,236.48,239.816,243.188,248.468,254.468,258.056,264.656,268.652,273.896,283.232,288.644,297.308,303.308,307.352,313.352,316.94,320.276,326.276,329.888,338.552,344.552,350.552,355.808,361.808,367.196,372.476,376.064,381.344,385.052,393.716,397.052,403.052,409.052,414.332,417.668,421.28,430.028,434.024,439.268,444.548,450.548,454.256,462.92,468.176,476.84,480.524,489.188,494.444,499.724,503.06,506.06,509.792,513.788,519.788,523.124" svgx:width="0.5,0.28,0.25,0.72,0.5,0.25,0.33,0.5,0.5,0.5,0.39,0.28,0.33,0.28,0.44,0.28,0.25,0.56,0.5,0.28,0.28,0.44,0.5,0.25,0.56,0.33,0.44,0.78,0.44,0.72,0.5,0.33,0.5,0.25,0.28,0.5,0.25,0.72,0.5,0.5,0.44,0.5,0.44,0.44,0.25,0.44,0.25,0.72,0.28,0.5,0.5,0.44,0.28,0.25,0.72,0.33,0.44,0.44,0.5,0.25,0.72,0.44,0.72,0.25,0.72,0.44,0.44,0.28,0.25,0.25,0.33,0.5,0.28,0.25" style="fill:rgb(0,0,0);font-family:TimesNewRomanPSMT;font-size:12.0px;stroke:none;">0: An Industrial Policy Framework to Advance a Global Green New Deal. In: </text>
  </g>
  <g begin="text">
   <text y="152.18" x="48.0" svgx:width="0.5" style="fill:rgb(0,0,0);font-family:TimesNewRomanPSMT;font-size:12.0px;stroke:none;">6</text>
  </g>
  <g begin="text">
   <text y="152.18" x="54.0" svgx:width="0.25" style="fill:rgb(0,0,0);font-family:TimesNewRomanPSMT;font-size:12.0px;stroke:none;"> </text>
  </g>
  <g begin="text">
   <text y="165.98" x="96.024,102.732,108.732,114.012,117.012,125.676,130.932,134.268,140.268,144.936,150.936,153.936,162.6,168.6,174.6,180.6,186.6,192.6,198.6,204.0,207.0,213.0,216.336,219.336,223.332,229.332,235.332,241.332,246.0,249.336,254.028,257.364,263.364,266.736,269.736,277.068,283.068,286.404,289.74,295.068,300.336" svgx:width="0.56,0.5,0.44,0.25,0.72,0.44,0.28,0.5,0.39,0.5,0.25,0.72,0.5,0.5,0.5,0.5,0.5,0.5,0.44,0.25,0.5,0.28,0.25,0.33,0.5,0.5,0.5,0.39,0.28,0.39,0.28,0.5,0.28,0.25,0.61,0.5,0.28,0.28,0.44,0.44,0.25" style="fill:rgb(0,0,0);font-family:TimesNewRomanPS-ItalicMT;font-size:12.0px;stroke:none;">The Oxford Handbook of Industrial Policy,</text>
  </g>
  <g begin="text">
   <text y="165.98" x="303.41" svgx:width="0.25" style="fill:rgb(0,0,0);font-family:TimesNewRomanPSMT;font-size:12.0px;stroke:none;"> </text>
  </g>
  <g begin="text">
   <text y="165.98" x="306.41,310.406,319.01,325.01,331.01,337.118,342.398,348.398,351.398,354.398,363.062,366.062,369.062,372.062,380.066,383.066,386.066,394.106,398.102,403.346,412.814,418.094,422.09,425.09,428.09,436.694" svgx:width="0.33,0.72,0.5,0.5,0.5,0.44,0.5,0.25,0.25,0.72,0.25,0.25,0.25,0.67,0.25,0.25,0.67,0.33,0.44,0.78,0.44,0.33,0.25,0.25,0.72,0.25" style="fill:rgb(0,0,0);font-family:TimesNewRomanPSMT;font-size:12.0px;stroke:none;">[Oqubay, A., C. Cramer, H.</text>
  </g>
  <g begin="text">
   <text y="165.98" x="439.9" svgx:width="0.33" style="fill:rgb(0,0,0);font-family:TimesNewRomanPSMT;font-size:12.0px;stroke:none;">-</text>
  </g>
  <g begin="text">
   <text y="165.98" x="443.86,448.528,451.528,454.648,462.676,468.676,473.956,479.956,485.956,488.956,491.956,497.236,503.236,509.236,512.236,520.264,523.372" svgx:width="0.39,0.25,0.25,0.67,0.5,0.44,0.5,0.5,0.25,0.25,0.44,0.5,0.5,0.25,0.67,0.25,0.25" style="fill:rgb(0,0,0);font-family:TimesNewRomanPSMT;font-size:12.0px;stroke:none;">J. Chang, and R. </text>
  </g>
  <g begin="text">
   <text y="165.98" x="48.0" svgx:width="0.5" style="fill:rgb(0,0,0);font-family:TimesNewRomanPSMT;font-size:12.0px;stroke:none;">7</text>
  </g>
  <g begin="text">
   <text y="165.98" x="54.0" svgx:width="0.25" style="fill:rgb(0,0,0);font-family:TimesNewRomanPSMT;font-size:12.0px;stroke:none;"> </text>
  </g>
  <g begin="text">
   <text y="179.78" x="96.024,104.688,110.688,115.944,121.944,125.28,136.608,140.544,143.88,149.88,155.88,159.252,162.252,165.252,169.248,174.492,180.492,185.16,188.28,192.276,196.2,199.2,202.2,210.864,216.948,220.944,226.944,230.868,236.868,239.868,248.532,254.532,257.868,263.868,269.148,273.144,277.812,281.148,284.484,290.484,293.484,300.216,304.212,309.456,314.124" svgx:width="0.72,0.5,0.44,0.5,0.28,0.94,0.33,0.28,0.5,0.5,0.28,0.25,0.25,0.33,0.44,0.5,0.39,0.25,0.33,0.33,0.25,0.25,0.72,0.5,0.33,0.5,0.33,0.5,0.25,0.72,0.5,0.28,0.5,0.44,0.33,0.39,0.28,0.28,0.5,0.25,0.56,0.33,0.44,0.39,0.39" style="fill:rgb(0,0,0);font-family:TimesNewRomanPSMT;font-size:12.0px;stroke:none;">KozulWright, (eds.)], Oxford University Press</text>
  </g>
  <g begin="text">
   <text y="179.78" x="318.91" svgx:width="0.25" style="fill:rgb(0,0,0);font-family:TimesNewRomanPSMT;font-size:12.0px;stroke:none;">.</text>
  </g>
  <g begin="text">
   <text y="179.78" x="322.03" svgx:width="0.25" style="fill:rgb(0,0,0);font-family:TimesNewRomanPSMT;font-size:12.0px;stroke:none;"> </text>
  </g>
  <g begin="text">
   <text y="179.78" x="48.0" svgx:width="0.5" style="fill:rgb(0,0,0);font-family:TimesNewRomanPSMT;font-size:12.0px;stroke:none;">8</text>
  </g>
  <g begin="text">
   <text y="179.78" x="54.0" svgx:width="0.25" style="fill:rgb(0,0,0);font-family:TimesNewRomanPSMT;font-size:12.0px;stroke:none;"> </text>
  </g>
  <g begin="text">
   <text y="193.58" x="72.024" svgx:width="0.25" style="fill:rgb(0,0,0);font-family:TimesNewRomanPSMT;font-size:12.0px;stroke:none;"> </text>
  </g>
  <g begin="text">
   <text y="193.58" x="48.0" svgx:width="0.5" style="fill:rgb(0,0,0);font-family:TimesNewRomanPSMT;font-size:12.0px;stroke:none;">9</text>
  </g>
  <g begin="text">
   <text y="193.58" x="54.0" svgx:width="0.25" style="fill:rgb(0,0,0);font-family:TimesNewRomanPSMT;font-size:12.0px;stroke:none;"> </text>
  </g>
  <g begin="text">
   <text y="207.38" x="72.024" svgx:width="0.25" style="fill:rgb(0,0,0);font-family:TimesNewRomanPSMT;font-size:12.0px;stroke:none;"> </text>
  </g>
  <g begin="text">
   <text y="207.38" x="42.0,48.0" svgx:width="0.5,0.5" style="fill:rgb(0,0,0);font-family:TimesNewRomanPSMT;font-size:12.0px;stroke:none;">10</text>
  </g>
  <g begin="text">
   <text y="207.38" x="54.0" svgx:width="0.25" style="fill:rgb(0,0,0);font-family:TimesNewRomanPSMT;font-size:12.0px;stroke:none;"> </text>
  </g>
  <g begin="text">
   <text y="602.109" transform="matrix(0.70711,-0.70711,0.70711,0.70711,-395.12956,250.29085)" rotateDegrees="-45" matrix="[29.803345,29.803345,-29.803345,29.803345,104.563255,239.8115]" x="104.563" svgx:width="0.67" style="fill:rgb(0,0,0);font-family:Arial;font-size:42.15px;stroke:none;">A</text>
   <text y="582.23" transform="matrix(0.70711,-0.70711,0.70711,0.70711,-375.25056,258.525)" rotateDegrees="-45" matrix="[29.803345,29.803345,-29.803345,29.803345,124.442085,259.6903]" x="124.442" svgx:width="0.72" style="fill:rgb(0,0,0);font-family:Arial;font-size:42.15px;stroke:none;">C</text>
   <text y="560.712" transform="matrix(0.70711,-0.70711,0.70711,0.70711,-353.73256,267.43805)" rotateDegrees="-45" matrix="[29.803345,29.803345,-29.803345,29.803345,145.9601,281.20834]" x="145.96" svgx:width="0.72" style="fill:rgb(0,0,0);font-family:Arial;font-size:42.15px;stroke:none;">C</text>
   <text y="539.194" transform="matrix(0.70711,-0.70711,0.70711,0.70711,-332.21456,276.3511)" rotateDegrees="-45" matrix="[29.803345,29.803345,-29.803345,29.803345,167.47812,302.72635]" x="167.478" svgx:width="0.67" style="fill:rgb(0,0,0);font-family:Arial;font-size:42.15px;stroke:none;">E</text>
   <text y="519.315" transform="matrix(0.70711,-0.70711,0.70711,0.70711,-312.33556,284.58525)" rotateDegrees="-45" matrix="[29.803345,29.803345,-29.803345,29.803345,187.35693,322.60516]" x="187.357" svgx:width="0.67" style="fill:rgb(0,0,0);font-family:Arial;font-size:42.15px;stroke:none;">P</text>
   <text y="499.436" transform="matrix(0.70711,-0.70711,0.70711,0.70711,-292.45656,292.8194)" rotateDegrees="-45" matrix="[29.803345,29.803345,-29.803345,29.803345,207.23578,342.484]" x="207.236" svgx:width="0.61" style="fill:rgb(0,0,0);font-family:Arial;font-size:42.15px;stroke:none;">T</text>
   <text y="481.226" transform="matrix(0.70711,-0.70711,0.70711,0.70711,-274.24656,300.36223)" rotateDegrees="-45" matrix="[29.803345,29.803345,-29.803345,29.803345,225.44562,360.69385]" x="225.446" svgx:width="0.67" style="fill:rgb(0,0,0);font-family:Arial;font-size:42.15px;stroke:none;">E</text>
   <text y="461.347" transform="matrix(0.70711,-0.70711,0.70711,0.70711,-254.36786,308.59567)" rotateDegrees="-45" matrix="[29.803345,29.803345,-29.803345,29.803345,245.32443,380.57266]" x="245.324" svgx:width="0.72" style="fill:rgb(0,0,0);font-family:Arial;font-size:42.15px;stroke:none;">D</text>
   <text y="439.829" transform="matrix(0.70711,-0.70711,0.70711,0.70711,-232.84986,317.50872)" rotateDegrees="-45" matrix="[29.803345,29.803345,-29.803345,29.803345,266.84247,402.0907]" x="266.842" svgx:width="0.28" style="fill:rgb(0,0,0);font-family:Arial;font-size:42.15px;stroke:none;"> </text>
   <text y="431.54" transform="matrix(0.70711,-0.70711,0.70711,0.70711,-224.56056,320.94284)" rotateDegrees="-45" matrix="[29.803345,29.803345,-29.803345,29.803345,275.13153,410.37976]" x="275.132" svgx:width="0.67" style="fill:rgb(0,0,0);font-family:Arial;font-size:42.15px;stroke:none;">V</text>
   <text y="411.661" transform="matrix(0.70711,-0.70711,0.70711,0.70711,-204.68186,329.17629)" rotateDegrees="-45" matrix="[29.803345,29.803345,-29.803345,29.803345,295.0103,430.25858]" x="295.01" svgx:width="0.67" style="fill:rgb(0,0,0);font-family:Arial;font-size:42.15px;stroke:none;">E</text>
   <text y="391.783" transform="matrix(0.70711,-0.70711,0.70711,0.70711,-184.80356,337.41073)" rotateDegrees="-45" matrix="[29.803345,29.803345,-29.803345,29.803345,314.88916,450.1374]" x="314.889" svgx:width="0.72" style="fill:rgb(0,0,0);font-family:Arial;font-size:42.15px;stroke:none;">R</text>
   <text y="370.265" transform="matrix(0.70711,-0.70711,0.70711,0.70711,-163.28556,346.32378)" rotateDegrees="-45" matrix="[29.803345,29.803345,-29.803345,29.803345,336.40717,471.65543]" x="336.407" svgx:width="0.67" style="fill:rgb(0,0,0);font-family:Arial;font-size:42.15px;stroke:none;">S</text>
   <text y="350.386" transform="matrix(0.70711,-0.70711,0.70711,0.70711,-143.40656,354.55793)" rotateDegrees="-45" matrix="[29.803345,29.803345,-29.803345,29.803345,356.286,491.53424]" x="356.286" svgx:width="0.28" style="fill:rgb(0,0,0);font-family:Arial;font-size:42.15px;stroke:none;">I</text>
   <text y="342.1" transform="matrix(0.70711,-0.70711,0.70711,0.70711,-135.12086,357.9894)" rotateDegrees="-45" matrix="[29.803345,29.803345,-29.803345,29.803345,364.57135,499.81958]" x="364.571" svgx:width="0.78" style="fill:rgb(0,0,0);font-family:Arial;font-size:42.15px;stroke:none;">O</text>
   <text y="318.913" transform="matrix(0.70711,-0.70711,0.70711,0.70711,-111.93386,367.59377)" rotateDegrees="-45" matrix="[29.803345,29.803345,-29.803345,29.803345,387.7583,523.0066]" x="387.758" svgx:width="0.72" style="fill:rgb(0,0,0);font-family:Arial;font-size:42.15px;stroke:none;">N</text>
   <text y="297.395" transform="matrix(0.70711,-0.70711,0.70711,0.70711,-90.41586,376.50681)" rotateDegrees="-45" matrix="[29.803345,29.803345,-29.803345,29.803345,409.27637,544.5246]" x="409.276" svgx:width="0.28" style="fill:rgb(0,0,0);font-family:Arial;font-size:42.15px;stroke:none;"> </text>
   <text y="637.872" transform="matrix(0.70711,-0.70711,0.70711,0.70711,-409.94279,286.05456)" rotateDegrees="-45" matrix="[29.803345,29.803345,-29.803345,29.803345,140.32727,204.04747]" x="140.327" svgx:width="0.67" style="fill:rgb(0,0,0);font-family:Arial;font-size:42.15px;stroke:none;">S</text>
   <text y="617.994" transform="matrix(0.70711,-0.70711,0.70711,0.70711,-390.0645,294.289)" rotateDegrees="-45" matrix="[29.803345,29.803345,-29.803345,29.803345,160.2061,223.9263]" x="160.206" svgx:width="0.72" style="fill:rgb(0,0,0);font-family:Arial;font-size:42.15px;stroke:none;">U</text>
   <text y="596.476" transform="matrix(0.70711,-0.70711,0.70711,0.70711,-368.5465,303.20205)" rotateDegrees="-45" matrix="[29.803345,29.803345,-29.803345,29.803345,181.72412,245.4443]" x="181.724" svgx:width="0.67" style="fill:rgb(0,0,0);font-family:Arial;font-size:42.15px;stroke:none;">B</text>
   <text y="576.597" transform="matrix(0.70711,-0.70711,0.70711,0.70711,-348.6675,311.4362)" rotateDegrees="-45" matrix="[29.803345,29.803345,-29.803345,29.803345,201.60294,265.32315]" x="201.603" svgx:width="0.5" style="fill:rgb(0,0,0);font-family:Arial;font-size:42.15px;stroke:none;">J</text>
   <text y="561.695" transform="matrix(0.70711,-0.70711,0.70711,0.70711,-333.7655,317.60881)" rotateDegrees="-45" matrix="[29.803345,29.803345,-29.803345,29.803345,216.50462,280.22482]" x="216.505" svgx:width="0.67" style="fill:rgb(0,0,0);font-family:Arial;font-size:42.15px;stroke:none;">E</text>
   <text y="541.816" transform="matrix(0.70711,-0.70711,0.70711,0.70711,-313.88679,325.84225)" rotateDegrees="-45" matrix="[29.803345,29.803345,-29.803345,29.803345,236.38344,300.10364]" x="236.383" svgx:width="0.72" style="fill:rgb(0,0,0);font-family:Arial;font-size:42.15px;stroke:none;">C</text>
   <text y="520.298" transform="matrix(0.70711,-0.70711,0.70711,0.70711,-292.36879,334.7553)" rotateDegrees="-45" matrix="[29.803345,29.803345,-29.803345,29.803345,257.90146,321.62164]" x="257.901" svgx:width="0.61" style="fill:rgb(0,0,0);font-family:Arial;font-size:42.15px;stroke:none;">T</text>
   <text y="502.089" transform="matrix(0.70711,-0.70711,0.70711,0.70711,-274.1595,342.29842)" rotateDegrees="-45" matrix="[29.803345,29.803345,-29.803345,29.803345,276.1113,339.83148]" x="276.111" svgx:width="0.28" style="fill:rgb(0,0,0);font-family:Arial;font-size:42.15px;stroke:none;"> </text>
   <text y="493.803" transform="matrix(0.70711,-0.70711,0.70711,0.70711,-265.8735,345.7306)" rotateDegrees="-45" matrix="[29.803345,29.803345,-29.803345,29.803345,284.39664,348.11682]" x="284.397" svgx:width="0.61" style="fill:rgb(0,0,0);font-family:Arial;font-size:42.15px;stroke:none;">T</text>
   <text y="475.593" transform="matrix(0.70711,-0.70711,0.70711,0.70711,-247.66379,353.27272)" rotateDegrees="-45" matrix="[29.803345,29.803345,-29.803345,29.803345,302.60648,366.32666]" x="302.606" svgx:width="0.78" style="fill:rgb(0,0,0);font-family:Arial;font-size:42.15px;stroke:none;">O</text>
   <text y="452.406" transform="matrix(0.70711,-0.70711,0.70711,0.70711,-224.47679,362.87709)" rotateDegrees="-45" matrix="[29.803345,29.803345,-29.803345,29.803345,325.79346,389.51367]" x="325.793" svgx:width="0.28" style="fill:rgb(0,0,0);font-family:Arial;font-size:42.15px;stroke:none;"> </text>
   <text y="444.136" transform="matrix(0.70711,-0.70711,0.70711,0.70711,-216.2065,366.30334)" rotateDegrees="-45" matrix="[29.803345,29.803345,-29.803345,29.803345,334.0639,397.78412]" x="334.064" svgx:width="0.61" style="fill:rgb(0,0,0);font-family:Arial;font-size:42.15px;stroke:none;">F</text>
   <text y="425.926" transform="matrix(0.70711,-0.70711,0.70711,0.70711,-197.9965,373.84617)" rotateDegrees="-45" matrix="[29.803345,29.803345,-29.803345,29.803345,352.27374,415.99396]" x="352.274" svgx:width="0.28" style="fill:rgb(0,0,0);font-family:Arial;font-size:42.15px;stroke:none;">I</text>
   <text y="417.641" transform="matrix(0.70711,-0.70711,0.70711,0.70711,-189.7115,377.27793)" rotateDegrees="-45" matrix="[29.803345,29.803345,-29.803345,29.803345,360.55908,424.2793]" x="360.559" svgx:width="0.72" style="fill:rgb(0,0,0);font-family:Arial;font-size:42.15px;stroke:none;">N</text>
   <text y="396.123" transform="matrix(0.70711,-0.70711,0.70711,0.70711,-168.1935,386.19098)" rotateDegrees="-45" matrix="[29.803345,29.803345,-29.803345,29.803345,382.0771,445.7973]" x="382.077" svgx:width="0.67" style="fill:rgb(0,0,0);font-family:Arial;font-size:42.15px;stroke:none;">A</text>
   <text y="376.244" transform="matrix(0.70711,-0.70711,0.70711,0.70711,-148.3145,394.42513)" rotateDegrees="-45" matrix="[29.803345,29.803345,-29.803345,29.803345,401.95593,465.67615]" x="401.956" svgx:width="0.56" style="fill:rgb(0,0,0);font-family:Arial;font-size:42.15px;stroke:none;">L</text>
   <text y="359.673" transform="matrix(0.70711,-0.70711,0.70711,0.70711,-131.7435,401.28906)" rotateDegrees="-45" matrix="[29.803345,29.803345,-29.803345,29.803345,418.5266,482.24677]" x="418.527" svgx:width="0.28" style="fill:rgb(0,0,0);font-family:Arial;font-size:42.15px;stroke:none;"> </text>
   <text y="351.394" transform="matrix(0.70711,-0.70711,0.70711,0.70711,-123.4645,404.71834)" rotateDegrees="-45" matrix="[29.803345,29.803345,-29.803345,29.803345,426.80573,490.52588]" x="426.806" svgx:width="0.67" style="fill:rgb(0,0,0);font-family:Arial;font-size:42.15px;stroke:none;">E</text>
   <text y="331.515" transform="matrix(0.70711,-0.70711,0.70711,0.70711,-103.5855,412.95249)" rotateDegrees="-45" matrix="[29.803345,29.803345,-29.803345,29.803345,446.68457,510.40472]" x="446.685" svgx:width="0.72" style="fill:rgb(0,0,0);font-family:Arial;font-size:42.15px;stroke:none;">D</text>
   <text y="309.997" transform="matrix(0.70711,-0.70711,0.70711,0.70711,-82.0675,421.86554)" rotateDegrees="-45" matrix="[29.803345,29.803345,-29.803345,29.803345,468.2025,531.9227]" x="468.203" svgx:width="0.28" style="fill:rgb(0,0,0);font-family:Arial;font-size:42.15px;stroke:none;">I</text>
   <text y="301.712" transform="matrix(0.70711,-0.70711,0.70711,0.70711,-73.7825,425.29729)" rotateDegrees="-45" matrix="[29.803345,29.803345,-29.803345,29.803345,476.48785,540.20807]" x="476.488" svgx:width="0.61" style="fill:rgb(0,0,0);font-family:Arial;font-size:42.15px;stroke:none;">T</text>
   <text y="283.502" transform="matrix(0.70711,-0.70711,0.70711,0.70711,-55.5725,432.84012)" rotateDegrees="-45" matrix="[29.803345,29.803345,-29.803345,29.803345,494.6977,558.4179]" x="494.698" svgx:width="0.67" style="fill:rgb(0,0,0);font-family:Arial;font-size:42.15px;stroke:none;">S</text>
  </g>
 </g>
</svg>
