<?xml version="1.0" encoding="UTF-8"?>
<svg height="813.4" width="2593.575" xmlns="http://www.w3.org/2000/svg">
 <g id="page" xmlns:svgx="http://www.xml-cml.org/schema/svgx">
  <g begin="text">
   <text y="46.32" x="72.024,78.162,81.231,86.751,91.587,94.7,97.46,105.376,110.896,116.416,121.218,124.928,130.448,138.971,143.872,149.392,152.517,155.277,163.082,166.195,170.39,173.504,177.103,180.216,185.736,191.135,194.137,197.251,202.771" svgx:width="0.56,0.28,0.5,0.44,0.28,0.25,0.72,0.5,0.5,0.44,0.33,0.5,0.78,0.44,0.5,0.28,0.25,0.72,0.28,0.39,0.28,0.33,0.28,0.5,0.5,0.28,0.28,0.5,0.5" style="fill:rgb(0,0,0);font-family:TimesNewRomanPSMT;font-size:11.04px;stroke:none;">Final Government Distribution</text>
  </g>
  <g begin="text">
   <text y="46.32" x="208.25" svgx:width="0.25" style="fill:rgb(0,0,0);font-family:TimesNewRomanPSMT;font-size:11.04px;stroke:none;"> </text>
  </g>
  <g begin="text">
   <text y="46.32" x="276.17,283.49,289.009,293.911,299.431,302.556,307.358,311.067,313.827" svgx:width="0.67,0.5,0.44,0.5,0.28,0.44,0.33,0.25,0.5" style="fill:rgb(0,0,0);font-family:TimesNewRomanPSMT;font-size:11.04px;stroke:none;">Chapter 4</text>
  </g>
  <g begin="text">
   <text y="46.32" x="319.27" svgx:width="0.25" style="fill:rgb(0,0,0);font-family:TimesNewRomanPSMT;font-size:11.04px;stroke:none;"> </text>
  </g>
  <g begin="text">
   <text y="46.32" x="443.38,446.979,453.117,460.415,467.734" svgx:width="0.33,0.56,0.67,0.67,0.25" style="fill:rgb(0,0,0);font-family:TimesNewRomanPSMT;font-size:11.04px;stroke:none;">IPCC </text>
  </g>
  <g begin="text">
   <text y="46.32" x="470.5" svgx:width="0.72" style="fill:rgb(0,0,0);font-family:TimesNewRomanPSMT;font-size:11.04px;stroke:none;">A</text>
  </g>
  <g begin="text">
   <text y="46.32" x="478.42,485.74,491.259,494.02,504.441,512.412,516.088,519.699" svgx:width="0.67,0.5,0.25,0.94,0.72,0.33,0.33,0.33" style="fill:rgb(0,0,0);font-family:TimesNewRomanPSMT;font-size:11.04px;stroke:none;">R6 WGIII</text>
  </g>
  <g begin="text">
   <text y="46.32" x="523.42" svgx:width="0.25" style="fill:rgb(0,0,0);font-family:TimesNewRomanPSMT;font-size:11.04px;stroke:none;"> </text>
  </g>
  <g begin="text">
   <text y="774.816" x="72.024,79.94,85.46,88.22,96.135,101.655,105.365,108.125,116.04,119.154,122.753,127.655,130.415,133.075,141.708,147.847,153.367,157.043,161.868,164.628,170.148,175.049,177.809,185.78,188.75,192.945,196.655,201.556,204.681,210.819,216.803,220.512" svgx:width="0.72,0.5,0.25,0.72,0.5,0.33,0.25,0.72,0.28,0.33,0.44,0.25,0.25,0.78,0.56,0.5,0.33,0.44,0.25,0.5,0.44,0.25,0.72,0.28,0.39,0.33,0.44,0.28,0.56,0.56,0.33,0.44" style="fill:rgb(0,0,0);font-family:TimesNewRomanPS-BoldMT;font-size:11.04px;stroke:none;">Do Not Cite, Quote or Distribute</text>
  </g>
  <g begin="text">
   <text y="774.816" x="225.41" svgx:width="0.25" style="fill:rgb(0,0,0);font-family:TimesNewRomanPS-BoldMT;font-size:11.04px;stroke:none;"> </text>
  </g>
  <g begin="text">
   <text y="774.816" x="284.81" svgx:width="0.5" style="fill:rgb(0,0,0);font-family:TimesNewRomanPSMT;font-size:11.04px;stroke:none;">4</text>
  </g>
  <g begin="text">
   <text y="774.816" x="290.33" svgx:width="0.33" style="fill:rgb(0,0,0);font-family:TimesNewRomanPSMT;font-size:11.04px;stroke:none;">-</text>
  </g>
  <g begin="text">
   <text y="774.816" x="293.93,299.45,304.97" svgx:width="0.5,0.5,0.5" style="fill:rgb(0,0,0);font-family:TimesNewRomanPSMT;font-size:11.04px;stroke:none;">103</text>
  </g>
  <g begin="text">
   <text y="774.816" x="310.49" svgx:width="0.25" style="fill:rgb(0,0,0);font-family:TimesNewRomanPSMT;font-size:11.04px;stroke:none;"> </text>
  </g>
  <g begin="text">
   <text y="774.816" x="313.27" svgx:width="0.25" style="fill:rgb(0,0,0);font-family:TimesNewRomanPSMT;font-size:11.04px;stroke:none;"> </text>
  </g>
  <g begin="text">
   <text y="774.816" x="450.1,456.845,462.365,465.435,470.259,473.372,476.132,481.652,486.554,491.975,496.876,501.204,504.207" svgx:width="0.61,0.5,0.28,0.44,0.28,0.25,0.5,0.44,0.5,0.44,0.39,0.28,0.25" style="fill:rgb(0,0,0);font-family:TimesNewRomanPSMT;font-size:11.04px;stroke:none;">Total pages: </text>
  </g>
  <g begin="text">
   <text y="774.816" x="506.98,512.5,518.02" svgx:width="0.5,0.5,0.5" style="fill:rgb(0,0,0);font-family:TimesNewRomanPSMT;font-size:11.04px;stroke:none;">156</text>
  </g>
  <g begin="text">
   <text y="774.816" x="523.42" svgx:width="0.25" style="fill:rgb(0,0,0);font-family:TimesNewRomanPSMT;font-size:9.96px;stroke:none;"> </text>
  </g>
  <g begin="text">
   <text y="789.576" x="72.024" svgx:width="0.25" style="fill:rgb(0,0,0);font-family:TimesNewRomanPSMT;font-size:12.0px;stroke:none;"> </text>
  </g>
  <g begin="text">
   <text y="803.4" x="72.024" svgx:width="0.25" style="fill:rgb(0,0,0);font-family:TimesNewRomanPSMT;font-size:12.0px;stroke:none;"> </text>
  </g>
  <g begin="text">
   <text y="631.66" x="511.78" svgx:width="0.25" style="fill:rgb(0,0,0);font-family:TimesNewRomanPS-BoldMT;font-size:9.96px;stroke:none;"> </text>
  </g>
  <g begin="text">
   <text y="631.66" x="48.0" svgx:width="0.5" style="fill:rgb(0,0,0);font-family:TimesNewRomanPSMT;font-size:12.0px;stroke:none;">1</text>
  </g>
  <g begin="text">
   <text y="631.66" x="54.0" svgx:width="0.25" style="fill:rgb(0,0,0);font-family:TimesNewRomanPSMT;font-size:12.0px;stroke:none;"> </text>
  </g>
  <g begin="text">
   <text y="652.06" x="189.17,195.275,198.044,203.064,208.602,213.024,217.446" svgx:width="0.61,0.28,0.5,0.56,0.44,0.44,0.25" style="fill:rgb(0,0,0);font-family:TimesNewRomanPS-BoldMT;font-size:9.96px;stroke:none;">Figure </text>
  </g>
  <g begin="text">
   <text y="652.06" x="220.01" svgx:width="0.5" style="fill:rgb(0,0,0);font-family:TimesNewRomanPS-BoldMT;font-size:9.96px;stroke:none;">4</text>
  </g>
  <g begin="text">
   <text y="652.06" x="225.05" svgx:width="0.25" style="fill:rgb(0,0,0);font-family:TimesNewRomanPS-BoldMT;font-size:9.96px;stroke:none;">.</text>
  </g>
  <g begin="text">
   <text y="652.06" x="227.57" svgx:width="0.5" style="fill:rgb(0,0,0);font-family:TimesNewRomanPS-BoldMT;font-size:9.96px;stroke:none;">9</text>
  </g>
  <g begin="text">
   <text y="652.06" x="232.61" svgx:width="0.25" style="fill:rgb(0,0,0);font-family:TimesNewRomanPS-BoldMT;font-size:9.96px;stroke:none;"> </text>
  </g>
  <g begin="text">
   <text y="652.06" x="235.13,240.16,245.698,249.522,252.869,255.379,261.982,266.404,271.454,276.992,280.817,283.585,286.922,289.691,294.711,300.248,304.073,306.583,311.613,316.035,321.085,326.623,332.12,337.658,340.148,343.515,349.052,353.475,355.985,363.176,368.216,372.638,375.407,380.944,383.434,385.964,390.994,396.024,401.054" svgx:width="0.5,0.56,0.39,0.33,0.25,0.67,0.44,0.5,0.56,0.39,0.28,0.33,0.28,0.5,0.56,0.39,0.25,0.5,0.44,0.5,0.56,0.56,0.56,0.25,0.33,0.56,0.44,0.25,0.72,0.5,0.44,0.28,0.56,0.25,0.25,0.5,0.5,0.5,0.5" style="fill:rgb(0,0,0);font-family:TimesNewRomanPS-BoldMT;font-size:9.96px;stroke:none;">Just Transitions around the world, 2020</text>
  </g>
  <g begin="text">
   <text y="652.06" x="406.15" svgx:width="0.25" style="fill:rgb(0,0,0);font-family:TimesNewRomanPS-BoldMT;font-size:9.96px;stroke:none;"> </text>
  </g>
  <g begin="text">
   <text y="652.06" x="48.0" svgx:width="0.5" style="fill:rgb(0,0,0);font-family:TimesNewRomanPSMT;font-size:12.0px;stroke:none;">2</text>
  </g>
  <g begin="text">
   <text y="652.06" x="54.0" svgx:width="0.25" style="fill:rgb(0,0,0);font-family:TimesNewRomanPSMT;font-size:12.0px;stroke:none;"> </text>
  </g>
  <g begin="text">
   <text y="674.74" x="72.384,78.489,83.519,89.057,93.479,96.248,98.738,105.949,108.459,112.304,117.841,122.851,130.042,133.917,136.407,140.829,145.879,154.265,162.652,165.42,169.255,173.099,175.868,180.888,186.426,190.251,192.88,195.39,198.737,203.766,207.611,213.238,215.748,218.985,224.015,228.437,232.889,237.312,241.186,243.676,246.196,251.734,254.503,259.503,262.271,267.291,272.321,277.859,282.281,286.126,288.636,294.173,298.596,304.133,306.902,312.51,318.047,320.537,325.577,328.087,331.434,336.971,340.796,344.143,346.653,349.999,354.421,359.471,365.009,368.833,371.602,374.939,377.708,382.728,388.265,390.755,393.524,399.062,401.552,409.958,414.988,420.526,425.536,428.046,432.368,437.398,442.936,448.434,451.78,456.203,458.971,463.394,467.268,469.758" svgx:width="0.61,0.5,0.56,0.44,0.28,0.25,0.72,0.25,0.39,0.56,0.5,0.72,0.39,0.25,0.44,0.5,0.83,0.83,0.28,0.39,0.39,0.28,0.5,0.56,0.39,0.25,0.25,0.33,0.5,0.39,0.56,0.25,0.33,0.5,0.44,0.44,0.44,0.39,0.25,0.25,0.56,0.28,0.5,0.28,0.5,0.5,0.56,0.44,0.39,0.25,0.56,0.44,0.56,0.28,0.56,0.56,0.25,0.5,0.25,0.33,0.56,0.39,0.33,0.25,0.33,0.44,0.5,0.56,0.39,0.28,0.33,0.28,0.5,0.56,0.25,0.28,0.56,0.25,0.83,0.5,0.56,0.5,0.25,0.44,0.5,0.56,0.56,0.33,0.44,0.28,0.44,0.39,0.25,0.33" style="fill:rgb(0,0,0);font-family:TimesNewRomanPS-BoldMT;font-size:9.96px;stroke:none;">Panel A shows commissions, task forces, dialogues behind a just transition in many countries (</text>
  </g>
  <g begin="text">
   <text y="674.74" x="473.62,476.967,482.504,487.514,491.936,494.705,497.474,499.984,505.014,510.044,515.074,520.103,522.872" svgx:width="0.33,0.56,0.5,0.44,0.28,0.28,0.25,0.5,0.5,0.5,0.5,0.28,0.25" style="fill:rgb(0,0,0);font-family:TimesNewRomanPSMT;font-size:9.96px;stroke:none;">(Snell 2018; </text>
  </g>
  <g begin="text">
   <text y="674.74" x="48.0" svgx:width="0.5" style="fill:rgb(0,0,0);font-family:TimesNewRomanPSMT;font-size:12.0px;stroke:none;">3</text>
  </g>
  <g begin="text">
   <text y="674.74" x="54.0" svgx:width="0.25" style="fill:rgb(0,0,0);font-family:TimesNewRomanPSMT;font-size:12.0px;stroke:none;"> </text>
  </g>
  <g begin="text">
   <text y="687.46" x="83.304,90.495,95.535,100.565,104.987,108.353,113.383,121.172,125.495,130.524,133.293,135.783,140.833,144.18,146.689,153.293,157.715,162.765,167.187,172.237,176.559,179.069,184.099,189.019,194.049,199.079,201.848,204.238,209.776,212.545,217.545,222.575,227.605,230.373,232.863,237.316,240.084,242.574,247.027,249.795,252.285,254.815,259.845,264.765,269.795,274.825,277.594,280.084,287.295,291.717,295.084,298.43,301.199,305.034,310.063,314.984,317.494,322.414,327.444,332.473,337.503,340.272,342.762,349.973,355.003" svgx:width="0.72,0.5,0.5,0.44,0.33,0.5,0.78,0.44,0.5,0.28,0.25,0.5,0.33,0.25,0.67,0.44,0.5,0.44,0.5,0.44,0.25,0.5,0.5,0.5,0.5,0.28,0.25,0.56,0.28,0.5,0.5,0.5,0.28,0.25,0.44,0.28,0.25,0.44,0.28,0.25,0.25,0.5,0.5,0.5,0.5,0.28,0.25,0.72,0.44,0.33,0.33,0.28,0.39,0.5,0.5,0.25,0.5,0.5,0.5,0.5,0.28,0.25,0.72,0.5,0.5" style="fill:rgb(0,0,0);font-family:TimesNewRomanPSMT;font-size:9.96px;stroke:none;">Government of Canada 2019; Piggot et al. 2019; Harrison 2013; Gov</text>
  </g>
  <g begin="text">
   <text y="687.46" x="360.43,364.753,368.099,373.129,380.918,385.24,390.27,393.039,395.529,400.579,403.925,406.435,413.039,418.069,421.913,424.682,429.104,431.624,438.228,440.997,445.419,449.841,452.381,457.411,462.44,467.47,472.5,475.139,477.649,484.84,489.88,492.39,496.812,499.581,502.101,506.523,509.292,511.812" svgx:width="0.44,0.33,0.5,0.78,0.44,0.5,0.28,0.25,0.5,0.33,0.25,0.67,0.5,0.39,0.28,0.44,0.25,0.67,0.28,0.44,0.44,0.25,0.5,0.5,0.5,0.5,0.28,0.25,0.72,0.5,0.25,0.44,0.28,0.25,0.44,0.28,0.25,0.25" style="fill:rgb(0,0,0);font-family:TimesNewRomanPSMT;font-size:9.96px;stroke:none;">ernment of Costa Rica 2019; Ng et al. </text>
  </g>
  <g begin="text">
   <text y="687.46" x="48.0" svgx:width="0.5" style="fill:rgb(0,0,0);font-family:TimesNewRomanPSMT;font-size:12.0px;stroke:none;">4</text>
  </g>
  <g begin="text">
   <text y="687.46" x="54.0" svgx:width="0.25" style="fill:rgb(0,0,0);font-family:TimesNewRomanPSMT;font-size:12.0px;stroke:none;"> </text>
  </g>
  <g begin="text">
   <text y="700.06" x="83.424,88.454,93.484,98.513,103.543,106.312,108.702,113.732,118.155,123.204,125.714,132.905,136.78,140.594,145.017,147.786,150.554,153.064,157.487,162.536,167.566,170.076,178.93,183.99,188.412,191.779,196.101,201.131,206.052,211.081,216.111,218.88,221.37,226.42,231.34,236.37,241.4,244.168,246.658,252.794,257.714,261.061,266.09,271.12,275.542,279.885,284.915,287.425,294.616,299.656,302.424,307.444,312.365,314.874,319.904,324.825,329.854,334.884,337.394,339.904,344.824,349.854,354.884,359.914,362.683,365.173,372.384,376.806,379.575" svgx:width="0.5,0.5,0.5,0.5,0.28,0.25,0.5,0.44,0.5,0.25,0.72,0.39,0.39,0.44,0.28,0.28,0.25,0.44,0.5,0.5,0.25,0.89,0.5,0.44,0.33,0.44,0.5,0.5,0.5,0.5,0.28,0.25,0.5,0.5,0.5,0.5,0.28,0.25,0.61,0.5,0.33,0.5,0.5,0.44,0.44,0.5,0.25,0.72,0.5,0.28,0.5,0.5,0.25,0.5,0.5,0.5,0.5,0.25,0.25,0.5,0.5,0.5,0.5,0.28,0.25,0.72,0.44,0.28,0.5" style="fill:rgb(0,0,0);font-family:TimesNewRomanPSMT;font-size:9.96px;stroke:none;">2016; van Asselt and Moerenhout 2018; European Union 2019, 2020; Galg</text>
  </g>
  <g begin="text">
   <text y="700.06" x="384.91" svgx:width="0.5" style="fill:rgb(0,0,0);font-family:TimesNewRomanPSMT;font-size:9.96px;stroke:none;">ó</text>
  </g>
  <g begin="text">
   <text y="700.06" x="389.95,394.372,398.824,401.593,404.083,409.133,414.053,419.083,424.113,426.882,429.372,434.909,437.678,442.698,447.618,450.387,454.222,459.252,461.762,468.953,473.993,479.022,483.445,486.811,491.841,499.63,504.052,509.102,511.871" svgx:width="0.44,0.44,0.28,0.25,0.5,0.5,0.5,0.5,0.28,0.25,0.56,0.28,0.5,0.5,0.28,0.39,0.5,0.25,0.72,0.5,0.5,0.44,0.33,0.5,0.78,0.44,0.5,0.28,0.25" style="fill:rgb(0,0,0);font-family:TimesNewRomanPSMT;font-size:9.96px;stroke:none;">czi 2019; Finnish Government </text>
  </g>
  <g begin="text">
   <text y="700.06" x="48.0" svgx:width="0.5" style="fill:rgb(0,0,0);font-family:TimesNewRomanPSMT;font-size:12.0px;stroke:none;">5</text>
  </g>
  <g begin="text">
   <text y="700.06" x="54.0" svgx:width="0.25" style="fill:rgb(0,0,0);font-family:TimesNewRomanPSMT;font-size:12.0px;stroke:none;"> </text>
  </g>
  <g begin="text">
   <text y="712.66" x="76.104,81.134,86.164,91.193,96.223,98.992,101.482,108.125,113.135,120.924,128.713,131.482,135.316,139.161,141.93,146.949,151.979,154.489,159.409,164.439,166.949,174.14,177.497,182.527,189.718,192.487,197.407,199.917,205.455,208.223,211.54,216.59,221.012,223.781,228.821,232.167,236.589,239.358,241.878,248.482,253.512,257.934,262.984,268.013,272.436,274.965,279.288,284.318,289.348,291.858,297.963,305.642,310.672,313.441,318.351,323.381,331.17,335.592,340.642,343.411,345.901,350.841,355.871,360.9,365.93,368.699,371.189,380.083,382.852,387.872,390.641,394.476,397.244,400.581,405.611,408.011,413.041,416.388,418.898,425.003,432.682,437.712,440.481,445.501,450.53,458.319,462.741,467.791,470.56,473.05,477.393,482.422,487.452,489.962,496.068,500.49,505.43,510.46,515.49,518.727" svgx:width="0.5,0.5,0.5,0.5,0.28,0.25,0.67,0.5,0.78,0.78,0.28,0.39,0.39,0.28,0.5,0.5,0.25,0.5,0.5,0.25,0.72,0.33,0.5,0.72,0.28,0.5,0.25,0.56,0.28,0.33,0.5,0.44,0.28,0.5,0.33,0.44,0.28,0.25,0.67,0.5,0.44,0.5,0.5,0.44,0.25,0.44,0.5,0.5,0.25,0.61,0.78,0.5,0.28,0.5,0.5,0.78,0.44,0.5,0.28,0.25,0.5,0.5,0.5,0.5,0.28,0.25,0.89,0.28,0.5,0.28,0.39,0.28,0.33,0.5,0.25,0.5,0.33,0.25,0.61,0.78,0.5,0.28,0.5,0.5,0.78,0.44,0.5,0.28,0.25,0.44,0.5,0.5,0.25,0.61,0.44,0.5,0.5,0.5,0.33,0.25" style="fill:rgb(0,0,0);font-family:TimesNewRomanPSMT;font-size:9.96px;stroke:none;">2020; Commission on Growth Structural Change and Employment 2019; Ministry of Employment and Labour </text>
  </g>
  <g begin="text">
   <text y="712.66" x="48.0" svgx:width="0.5" style="fill:rgb(0,0,0);font-family:TimesNewRomanPSMT;font-size:12.0px;stroke:none;">6</text>
  </g>
  <g begin="text">
   <text y="712.66" x="54.0" svgx:width="0.25" style="fill:rgb(0,0,0);font-family:TimesNewRomanPSMT;font-size:12.0px;stroke:none;"> </text>
  </g>
  <g begin="text">
   <text y="725.38" x="72.864,79.468,83.89,86.659,91.081,93.85,96.619,101.658,106.688,110.533,113.043,118.072,121.419,123.929,131.12,136.16,140.582,145.632" svgx:width="0.67,0.44,0.28,0.44,0.28,0.28,0.5,0.5,0.39,0.25,0.5,0.33,0.25,0.72,0.5,0.44,0.5,0.44" style="fill:rgb(0,0,0);font-family:TimesNewRomanPSMT;font-size:9.96px;stroke:none;">Relations of Ghana</text>
  </g>
  <g begin="text">
   <text y="725.38" x="150.14" svgx:width="0.25" style="fill:rgb(0,0,0);font-family:TimesNewRomanPSMT;font-size:9.96px;stroke:none;"> </text>
  </g>
  <g begin="text">
   <text y="725.38" x="152.66,157.69,162.61,167.64,172.67,175.438,177.928,183.466,188.496,193.416,198.446,200.956,205.986,211.016,215.936,220.966,223.735,226.225,233.436,237.858,240.627" svgx:width="0.5,0.5,0.5,0.5,0.28,0.25,0.56,0.5,0.5,0.5,0.25,0.5,0.5,0.5,0.5,0.28,0.25,0.72,0.44,0.28,0.5" style="fill:rgb(0,0,0);font-family:TimesNewRomanPSMT;font-size:9.96px;stroke:none;">2018; Popp 2019; Galg</text>
  </g>
  <g begin="text">
   <text y="725.38" x="245.81" svgx:width="0.5" style="fill:rgb(0,0,0);font-family:TimesNewRomanPSMT;font-size:9.96px;stroke:none;">ó</text>
  </g>
  <g begin="text">
   <text y="725.38" x="250.85,255.272,259.724,262.493,264.884,269.913,274.943,279.863,284.893,287.662,290.152,297.363,302.393,306.815,311.865,314.504,317.273,319.763,324.216,326.984,329.474,333.926,336.695,339.185,341.715,346.745,351.775,356.695,361.725,364.494,366.984,374.195,378.617,382.491,386.316,388.826,393.248,398.298,403.328,405.838,411.943,416.365,421.415,425.837,430.887,435.21,438.556,441.903,444.672,449.094,451.614,456.644,461.564,466.594,471.624,474.392,476.882,485.777,488.546,493.565,496.334,500.169,502.938,506.274,511.304,513.814,518.844,522.081" svgx:width="0.44,0.44,0.28,0.25,0.5,0.5,0.5,0.5,0.28,0.25,0.72,0.5,0.44,0.5,0.28,0.28,0.25,0.44,0.28,0.25,0.44,0.28,0.25,0.25,0.5,0.5,0.5,0.5,0.28,0.25,0.72,0.44,0.39,0.39,0.25,0.44,0.5,0.5,0.25,0.61,0.44,0.5,0.44,0.5,0.44,0.33,0.33,0.28,0.44,0.25,0.5,0.5,0.5,0.5,0.28,0.25,0.89,0.28,0.5,0.28,0.39,0.28,0.33,0.5,0.25,0.5,0.33,0.25" style="fill:rgb(0,0,0);font-family:TimesNewRomanPSMT;font-size:9.96px;stroke:none;">czi 2014; Adeoti et al. 2016; Gass and Echeverria 2017; Ministry of </text>
  </g>
  <g begin="text">
   <text y="725.38" x="48.0" svgx:width="0.5" style="fill:rgb(0,0,0);font-family:TimesNewRomanPSMT;font-size:12.0px;stroke:none;">7</text>
  </g>
  <g begin="text">
   <text y="725.38" x="54.0" svgx:width="0.25" style="fill:rgb(0,0,0);font-family:TimesNewRomanPSMT;font-size:12.0px;stroke:none;"> </text>
  </g>
  <g begin="text">
   <text y="737.98" x="85.224,91.828,96.857,100.702,103.471,108.491,112.913,116.787,120.612,123.122,126.468,131.498,136.528,141.558,146.588,151.01,153.779,156.548,161.577,166.607,169.117,176.906,179.416,185.521,193.2,198.23,200.999,205.909,210.939,218.728,223.15,228.2,230.969,233.459,240.67,245.092,252.283,254.823,260.928,265.351,269.803,272.572,276.994,282.034,287.063,289.464,294.494,299.523,304.444,309.473,312.242,314.732,323.627,327.949,332.979,338.009,343.039,347.461,351.913,354.313,359.343,364.373,369.403,374.433,377.072,379.582,385.12,389.542,394.572,399.602,402.948,405.458,407.968,415.159,417.569,420.079,424.502,429.551,434.581,437.091,443.197,445.836,450.866,453.635,458.654,463.684,470.875,474.75,479.75,484.172,486.702,491.732,496.652,501.682,506.712,509.48" svgx:width="0.67,0.5,0.39,0.28,0.5,0.44,0.39,0.39,0.25,0.33,0.5,0.5,0.5,0.5,0.44,0.28,0.28,0.5,0.5,0.25,0.78,0.25,0.61,0.78,0.5,0.28,0.5,0.5,0.78,0.44,0.5,0.28,0.25,0.72,0.44,0.72,0.25,0.61,0.44,0.44,0.28,0.44,0.5,0.5,0.25,0.5,0.5,0.5,0.5,0.28,0.25,0.89,0.44,0.5,0.5,0.5,0.44,0.44,0.25,0.5,0.5,0.5,0.5,0.28,0.25,0.56,0.44,0.5,0.5,0.33,0.25,0.25,0.72,0.25,0.25,0.44,0.5,0.5,0.25,0.61,0.28,0.5,0.28,0.5,0.5,0.72,0.39,0.5,0.44,0.25,0.5,0.5,0.5,0.5,0.28,0.25" style="fill:rgb(0,0,0);font-family:TimesNewRomanPSMT;font-size:9.96px;stroke:none;">Business Innovation &amp; Employment New Zealand 2019; Mendoza 2014; Szpor, A. and Ziółkowska 2018; </text>
  </g>
  <g begin="text">
   <text y="737.98" x="48.0" svgx:width="0.5" style="fill:rgb(0,0,0);font-family:TimesNewRomanPSMT;font-size:12.0px;stroke:none;">8</text>
  </g>
  <g begin="text">
   <text y="737.98" x="54.0" svgx:width="0.25" style="fill:rgb(0,0,0);font-family:TimesNewRomanPSMT;font-size:12.0px;stroke:none;"> </text>
  </g>
  <g begin="text">
   <text y="750.696" x="79.224,86.415,91.455,96.485,100.907,104.273,109.303,117.092,121.415,126.444,129.213,131.703,136.753,140.1,142.609,148.147,152.569,157.599,160.368,163.137,167.559,172.48,177.509,180.019,184.939,189.969,194.999,199.919,202.688,205.178,211.822,216.244,221.274,226.303,233.494,237.917,240.686,245.138,250.167,252.677,257.707,262.737,267.657,272.687,275.456,277.946,285.157,290.695,297.278,299.788,303.135,310.326,314.748,317.517,320.405,325.435,330.465,334.887,337.656,340.176,345.714,348.483,352.905,357.925,362.955,365.724,370.743,375.664" svgx:width="0.72,0.5,0.5,0.44,0.33,0.5,0.78,0.44,0.5,0.28,0.25,0.5,0.33,0.25,0.56,0.44,0.5,0.28,0.28,0.44,0.5,0.5,0.25,0.5,0.5,0.5,0.5,0.28,0.25,0.67,0.44,0.5,0.5,0.72,0.44,0.28,0.44,0.5,0.25,0.5,0.5,0.5,0.5,0.28,0.25,0.72,0.56,0.67,0.25,0.33,0.72,0.44,0.28,0.28,0.5,0.5,0.44,0.28,0.25,0.56,0.28,0.44,0.5,0.5,0.28,0.5,0.5,0.25" style="fill:rgb(0,0,0);font-family:TimesNewRomanPSMT;font-size:9.96px;stroke:none;">Government of Scotland 2020; Bankwatch 2019; NPC (National Planning </text>
  </g>
  <g begin="text">
   <text y="750.696" x="378.55,385.154,390.183,397.972,405.761,408.53,412.364,416.209,418.978,423.998,429.027,432.374,434.884,439.804,444.834,449.864,454.893,457.662,460.152,465.69,468.459,471.806,476.228,484.036,488.957,493.986,496.496,500.919,503.688,506.207,510.63,513.398,515.918" svgx:width="0.67,0.5,0.78,0.78,0.28,0.39,0.39,0.28,0.5,0.5,0.33,0.25,0.5,0.5,0.5,0.5,0.28,0.25,0.56,0.28,0.33,0.44,0.78,0.5,0.5,0.25,0.44,0.28,0.25,0.44,0.28,0.25,0.25" style="fill:rgb(0,0,0);font-family:TimesNewRomanPSMT;font-size:9.96px;stroke:none;">Commission) 2019; Strambo et al. </text>
  </g>
  <g begin="text">
   <text y="750.696" x="48.0" svgx:width="0.5" style="fill:rgb(0,0,0);font-family:TimesNewRomanPSMT;font-size:12.0px;stroke:none;">9</text>
  </g>
  <g begin="text">
   <text y="750.696" x="54.0" svgx:width="0.25" style="fill:rgb(0,0,0);font-family:TimesNewRomanPSMT;font-size:12.0px;stroke:none;"> </text>
  </g>
  <rect style="fill:pink;opacity:0.2;stroke:blue;stroke-width:0.3;" x="83.575" y="30.08" height="559.1" width="428.13" title="104"/>
  <text y="30.08" class="image" id="image.104.1" width="428" height="559" x="83.575" style="font-size:5.0px;">image.104.1.84_512.30_589</text>
  <g begin="text">
   <text y="602.109" transform="matrix(0.70711,-0.70711,0.70711,0.70711,-395.12956,250.29085)" rotateDegrees="-45" matrix="[29.803345,29.803345,-29.803345,29.803345,104.563255,239.8115]" x="104.563" svgx:width="0.67" style="fill:rgb(0,0,0);font-family:Arial;font-size:42.15px;stroke:none;">A</text>
   <text y="582.23" transform="matrix(0.70711,-0.70711,0.70711,0.70711,-375.25056,258.525)" rotateDegrees="-45" matrix="[29.803345,29.803345,-29.803345,29.803345,124.442085,259.6903]" x="124.442" svgx:width="0.72" style="fill:rgb(0,0,0);font-family:Arial;font-size:42.15px;stroke:none;">C</text>
   <text y="560.712" transform="matrix(0.70711,-0.70711,0.70711,0.70711,-353.73256,267.43805)" rotateDegrees="-45" matrix="[29.803345,29.803345,-29.803345,29.803345,145.9601,281.20834]" x="145.96" svgx:width="0.72" style="fill:rgb(0,0,0);font-family:Arial;font-size:42.15px;stroke:none;">C</text>
   <text y="539.194" transform="matrix(0.70711,-0.70711,0.70711,0.70711,-332.21456,276.3511)" rotateDegrees="-45" matrix="[29.803345,29.803345,-29.803345,29.803345,167.47812,302.72635]" x="167.478" svgx:width="0.67" style="fill:rgb(0,0,0);font-family:Arial;font-size:42.15px;stroke:none;">E</text>
   <text y="519.315" transform="matrix(0.70711,-0.70711,0.70711,0.70711,-312.33556,284.58525)" rotateDegrees="-45" matrix="[29.803345,29.803345,-29.803345,29.803345,187.35693,322.60516]" x="187.357" svgx:width="0.67" style="fill:rgb(0,0,0);font-family:Arial;font-size:42.15px;stroke:none;">P</text>
   <text y="499.436" transform="matrix(0.70711,-0.70711,0.70711,0.70711,-292.45656,292.8194)" rotateDegrees="-45" matrix="[29.803345,29.803345,-29.803345,29.803345,207.23578,342.484]" x="207.236" svgx:width="0.61" style="fill:rgb(0,0,0);font-family:Arial;font-size:42.15px;stroke:none;">T</text>
   <text y="481.226" transform="matrix(0.70711,-0.70711,0.70711,0.70711,-274.24656,300.36223)" rotateDegrees="-45" matrix="[29.803345,29.803345,-29.803345,29.803345,225.44562,360.69385]" x="225.446" svgx:width="0.67" style="fill:rgb(0,0,0);font-family:Arial;font-size:42.15px;stroke:none;">E</text>
   <text y="461.347" transform="matrix(0.70711,-0.70711,0.70711,0.70711,-254.36786,308.59567)" rotateDegrees="-45" matrix="[29.803345,29.803345,-29.803345,29.803345,245.32443,380.57266]" x="245.324" svgx:width="0.72" style="fill:rgb(0,0,0);font-family:Arial;font-size:42.15px;stroke:none;">D</text>
   <text y="439.829" transform="matrix(0.70711,-0.70711,0.70711,0.70711,-232.84986,317.50872)" rotateDegrees="-45" matrix="[29.803345,29.803345,-29.803345,29.803345,266.84247,402.0907]" x="266.842" svgx:width="0.28" style="fill:rgb(0,0,0);font-family:Arial;font-size:42.15px;stroke:none;"> </text>
   <text y="431.54" transform="matrix(0.70711,-0.70711,0.70711,0.70711,-224.56056,320.94284)" rotateDegrees="-45" matrix="[29.803345,29.803345,-29.803345,29.803345,275.13153,410.37976]" x="275.132" svgx:width="0.67" style="fill:rgb(0,0,0);font-family:Arial;font-size:42.15px;stroke:none;">V</text>
   <text y="411.661" transform="matrix(0.70711,-0.70711,0.70711,0.70711,-204.68186,329.17629)" rotateDegrees="-45" matrix="[29.803345,29.803345,-29.803345,29.803345,295.0103,430.25858]" x="295.01" svgx:width="0.67" style="fill:rgb(0,0,0);font-family:Arial;font-size:42.15px;stroke:none;">E</text>
   <text y="391.783" transform="matrix(0.70711,-0.70711,0.70711,0.70711,-184.80356,337.41073)" rotateDegrees="-45" matrix="[29.803345,29.803345,-29.803345,29.803345,314.88916,450.1374]" x="314.889" svgx:width="0.72" style="fill:rgb(0,0,0);font-family:Arial;font-size:42.15px;stroke:none;">R</text>
   <text y="370.265" transform="matrix(0.70711,-0.70711,0.70711,0.70711,-163.28556,346.32378)" rotateDegrees="-45" matrix="[29.803345,29.803345,-29.803345,29.803345,336.40717,471.65543]" x="336.407" svgx:width="0.67" style="fill:rgb(0,0,0);font-family:Arial;font-size:42.15px;stroke:none;">S</text>
   <text y="350.386" transform="matrix(0.70711,-0.70711,0.70711,0.70711,-143.40656,354.55793)" rotateDegrees="-45" matrix="[29.803345,29.803345,-29.803345,29.803345,356.286,491.53424]" x="356.286" svgx:width="0.28" style="fill:rgb(0,0,0);font-family:Arial;font-size:42.15px;stroke:none;">I</text>
   <text y="342.1" transform="matrix(0.70711,-0.70711,0.70711,0.70711,-135.12086,357.9894)" rotateDegrees="-45" matrix="[29.803345,29.803345,-29.803345,29.803345,364.57135,499.81958]" x="364.571" svgx:width="0.78" style="fill:rgb(0,0,0);font-family:Arial;font-size:42.15px;stroke:none;">O</text>
   <text y="318.913" transform="matrix(0.70711,-0.70711,0.70711,0.70711,-111.93386,367.59377)" rotateDegrees="-45" matrix="[29.803345,29.803345,-29.803345,29.803345,387.7583,523.0066]" x="387.758" svgx:width="0.72" style="fill:rgb(0,0,0);font-family:Arial;font-size:42.15px;stroke:none;">N</text>
   <text y="297.395" transform="matrix(0.70711,-0.70711,0.70711,0.70711,-90.41586,376.50681)" rotateDegrees="-45" matrix="[29.803345,29.803345,-29.803345,29.803345,409.27637,544.5246]" x="409.276" svgx:width="0.28" style="fill:rgb(0,0,0);font-family:Arial;font-size:42.15px;stroke:none;"> </text>
   <text y="637.872" transform="matrix(0.70711,-0.70711,0.70711,0.70711,-409.94279,286.05456)" rotateDegrees="-45" matrix="[29.803345,29.803345,-29.803345,29.803345,140.32727,204.04747]" x="140.327" svgx:width="0.67" style="fill:rgb(0,0,0);font-family:Arial;font-size:42.15px;stroke:none;">S</text>
   <text y="617.994" transform="matrix(0.70711,-0.70711,0.70711,0.70711,-390.0645,294.289)" rotateDegrees="-45" matrix="[29.803345,29.803345,-29.803345,29.803345,160.2061,223.9263]" x="160.206" svgx:width="0.72" style="fill:rgb(0,0,0);font-family:Arial;font-size:42.15px;stroke:none;">U</text>
   <text y="596.476" transform="matrix(0.70711,-0.70711,0.70711,0.70711,-368.5465,303.20205)" rotateDegrees="-45" matrix="[29.803345,29.803345,-29.803345,29.803345,181.72412,245.4443]" x="181.724" svgx:width="0.67" style="fill:rgb(0,0,0);font-family:Arial;font-size:42.15px;stroke:none;">B</text>
   <text y="576.597" transform="matrix(0.70711,-0.70711,0.70711,0.70711,-348.6675,311.4362)" rotateDegrees="-45" matrix="[29.803345,29.803345,-29.803345,29.803345,201.60294,265.32315]" x="201.603" svgx:width="0.5" style="fill:rgb(0,0,0);font-family:Arial;font-size:42.15px;stroke:none;">J</text>
   <text y="561.695" transform="matrix(0.70711,-0.70711,0.70711,0.70711,-333.7655,317.60881)" rotateDegrees="-45" matrix="[29.803345,29.803345,-29.803345,29.803345,216.50462,280.22482]" x="216.505" svgx:width="0.67" style="fill:rgb(0,0,0);font-family:Arial;font-size:42.15px;stroke:none;">E</text>
   <text y="541.816" transform="matrix(0.70711,-0.70711,0.70711,0.70711,-313.88679,325.84225)" rotateDegrees="-45" matrix="[29.803345,29.803345,-29.803345,29.803345,236.38344,300.10364]" x="236.383" svgx:width="0.72" style="fill:rgb(0,0,0);font-family:Arial;font-size:42.15px;stroke:none;">C</text>
   <text y="520.298" transform="matrix(0.70711,-0.70711,0.70711,0.70711,-292.36879,334.7553)" rotateDegrees="-45" matrix="[29.803345,29.803345,-29.803345,29.803345,257.90146,321.62164]" x="257.901" svgx:width="0.61" style="fill:rgb(0,0,0);font-family:Arial;font-size:42.15px;stroke:none;">T</text>
   <text y="502.089" transform="matrix(0.70711,-0.70711,0.70711,0.70711,-274.1595,342.29842)" rotateDegrees="-45" matrix="[29.803345,29.803345,-29.803345,29.803345,276.1113,339.83148]" x="276.111" svgx:width="0.28" style="fill:rgb(0,0,0);font-family:Arial;font-size:42.15px;stroke:none;"> </text>
   <text y="493.803" transform="matrix(0.70711,-0.70711,0.70711,0.70711,-265.8735,345.7306)" rotateDegrees="-45" matrix="[29.803345,29.803345,-29.803345,29.803345,284.39664,348.11682]" x="284.397" svgx:width="0.61" style="fill:rgb(0,0,0);font-family:Arial;font-size:42.15px;stroke:none;">T</text>
   <text y="475.593" transform="matrix(0.70711,-0.70711,0.70711,0.70711,-247.66379,353.27272)" rotateDegrees="-45" matrix="[29.803345,29.803345,-29.803345,29.803345,302.60648,366.32666]" x="302.606" svgx:width="0.78" style="fill:rgb(0,0,0);font-family:Arial;font-size:42.15px;stroke:none;">O</text>
   <text y="452.406" transform="matrix(0.70711,-0.70711,0.70711,0.70711,-224.47679,362.87709)" rotateDegrees="-45" matrix="[29.803345,29.803345,-29.803345,29.803345,325.79346,389.51367]" x="325.793" svgx:width="0.28" style="fill:rgb(0,0,0);font-family:Arial;font-size:42.15px;stroke:none;"> </text>
   <text y="444.136" transform="matrix(0.70711,-0.70711,0.70711,0.70711,-216.2065,366.30334)" rotateDegrees="-45" matrix="[29.803345,29.803345,-29.803345,29.803345,334.0639,397.78412]" x="334.064" svgx:width="0.61" style="fill:rgb(0,0,0);font-family:Arial;font-size:42.15px;stroke:none;">F</text>
   <text y="425.926" transform="matrix(0.70711,-0.70711,0.70711,0.70711,-197.9965,373.84617)" rotateDegrees="-45" matrix="[29.803345,29.803345,-29.803345,29.803345,352.27374,415.99396]" x="352.274" svgx:width="0.28" style="fill:rgb(0,0,0);font-family:Arial;font-size:42.15px;stroke:none;">I</text>
   <text y="417.641" transform="matrix(0.70711,-0.70711,0.70711,0.70711,-189.7115,377.27793)" rotateDegrees="-45" matrix="[29.803345,29.803345,-29.803345,29.803345,360.55908,424.2793]" x="360.559" svgx:width="0.72" style="fill:rgb(0,0,0);font-family:Arial;font-size:42.15px;stroke:none;">N</text>
   <text y="396.123" transform="matrix(0.70711,-0.70711,0.70711,0.70711,-168.1935,386.19098)" rotateDegrees="-45" matrix="[29.803345,29.803345,-29.803345,29.803345,382.0771,445.7973]" x="382.077" svgx:width="0.67" style="fill:rgb(0,0,0);font-family:Arial;font-size:42.15px;stroke:none;">A</text>
   <text y="376.244" transform="matrix(0.70711,-0.70711,0.70711,0.70711,-148.3145,394.42513)" rotateDegrees="-45" matrix="[29.803345,29.803345,-29.803345,29.803345,401.95593,465.67615]" x="401.956" svgx:width="0.56" style="fill:rgb(0,0,0);font-family:Arial;font-size:42.15px;stroke:none;">L</text>
   <text y="359.673" transform="matrix(0.70711,-0.70711,0.70711,0.70711,-131.7435,401.28906)" rotateDegrees="-45" matrix="[29.803345,29.803345,-29.803345,29.803345,418.5266,482.24677]" x="418.527" svgx:width="0.28" style="fill:rgb(0,0,0);font-family:Arial;font-size:42.15px;stroke:none;"> </text>
   <text y="351.394" transform="matrix(0.70711,-0.70711,0.70711,0.70711,-123.4645,404.71834)" rotateDegrees="-45" matrix="[29.803345,29.803345,-29.803345,29.803345,426.80573,490.52588]" x="426.806" svgx:width="0.67" style="fill:rgb(0,0,0);font-family:Arial;font-size:42.15px;stroke:none;">E</text>
   <text y="331.515" transform="matrix(0.70711,-0.70711,0.70711,0.70711,-103.5855,412.95249)" rotateDegrees="-45" matrix="[29.803345,29.803345,-29.803345,29.803345,446.68457,510.40472]" x="446.685" svgx:width="0.72" style="fill:rgb(0,0,0);font-family:Arial;font-size:42.15px;stroke:none;">D</text>
   <text y="309.997" transform="matrix(0.70711,-0.70711,0.70711,0.70711,-82.0675,421.86554)" rotateDegrees="-45" matrix="[29.803345,29.803345,-29.803345,29.803345,468.2025,531.9227]" x="468.203" svgx:width="0.28" style="fill:rgb(0,0,0);font-family:Arial;font-size:42.15px;stroke:none;">I</text>
   <text y="301.712" transform="matrix(0.70711,-0.70711,0.70711,0.70711,-73.7825,425.29729)" rotateDegrees="-45" matrix="[29.803345,29.803345,-29.803345,29.803345,476.48785,540.20807]" x="476.488" svgx:width="0.61" style="fill:rgb(0,0,0);font-family:Arial;font-size:42.15px;stroke:none;">T</text>
   <text y="283.502" transform="matrix(0.70711,-0.70711,0.70711,0.70711,-55.5725,432.84012)" rotateDegrees="-45" matrix="[29.803345,29.803345,-29.803345,29.803345,494.6977,558.4179]" x="494.698" svgx:width="0.67" style="fill:rgb(0,0,0);font-family:Arial;font-size:42.15px;stroke:none;">S</text>
  </g>
 </g>
</svg>
