<?xml version="1.0" encoding="UTF-8"?>
<svg height="567.256" width="731.87" xmlns="http://www.w3.org/2000/svg">
 <g id="page" xmlns:svgx="http://www.xml-cml.org/schema/svgx">
  <g begin="text">
   <text y="45.72" x="72.0,78.138,81.207,86.727,91.563,94.676,97.436,105.352,110.872,116.392,121.194,124.904,130.424,138.947,143.848,149.368,152.493,155.253,163.058,166.171,170.366,173.48,177.079,180.192,185.712,191.111,194.113,197.227,202.747" svgx:width="0.56,0.28,0.5,0.44,0.28,0.25,0.72,0.5,0.5,0.44,0.33,0.5,0.78,0.44,0.5,0.28,0.25,0.72,0.28,0.39,0.28,0.33,0.28,0.5,0.5,0.28,0.28,0.5,0.5" style="fill:rgb(0,0,0);font-family:TimesNewRomanPSMT;font-size:11.04px;stroke:none;">Final Government Distribution</text>
  </g>
  <g begin="text">
   <text y="45.72" x="208.22" svgx:width="0.25" style="fill:rgb(0,0,0);font-family:TimesNewRomanPSMT;font-size:11.04px;stroke:none;"> </text>
  </g>
  <g begin="text">
   <text y="45.72" x="274.61,281.929,287.449,292.351,297.871,300.996,305.798,309.507,312.267,317.666" svgx:width="0.67,0.5,0.44,0.5,0.28,0.44,0.33,0.25,0.5,0.28" style="fill:rgb(0,0,0);font-family:TimesNewRomanPSMT;font-size:11.04px;stroke:none;">Chapter 4:</text>
  </g>
  <g begin="text">
   <text y="45.72" x="320.69" svgx:width="0.25" style="fill:rgb(0,0,0);font-family:TimesNewRomanPSMT;font-size:11.04px;stroke:none;"> </text>
  </g>
  <g begin="text">
   <text y="45.72" x="443.35,446.949,453.087,460.385,467.704,470.464,478.38,485.7,491.22,493.98,504.401,512.372,516.048,519.659" svgx:width="0.33,0.56,0.67,0.67,0.25,0.72,0.67,0.5,0.25,0.94,0.72,0.33,0.33,0.33" style="fill:rgb(0,0,0);font-family:TimesNewRomanPSMT;font-size:11.04px;stroke:none;">IPCC AR6 WGIII</text>
  </g>
  <g begin="text">
   <text y="45.72" x="523.39" svgx:width="0.25" style="fill:rgb(0,0,0);font-family:TimesNewRomanPSMT;font-size:11.04px;stroke:none;"> </text>
  </g>
  <g begin="text">
   <text y="60.5" x="72.0" svgx:width="0.25" style="fill:rgb(0,0,0);font-family:TimesNewRomanPSMT;font-size:12.0px;stroke:none;"> </text>
  </g>
  <g begin="text">
   <text y="74.3" x="72.0" svgx:width="0.25" style="fill:rgb(0,0,0);font-family:TimesNewRomanPSMT;font-size:12.0px;stroke:none;"> </text>
  </g>
  <g begin="text">
   <text y="528.696" x="72.0,79.916,85.436,88.196,96.111,101.631,105.341,108.101,116.016,119.13,122.729,127.631,130.391,133.051,141.684,147.823,153.343,157.019,161.844,164.604,170.124,175.025,177.785,185.756,188.726,192.921,196.631,201.532,204.657,210.795,216.779,220.488" svgx:width="0.72,0.5,0.25,0.72,0.5,0.33,0.25,0.72,0.28,0.33,0.44,0.25,0.25,0.78,0.56,0.5,0.33,0.44,0.25,0.5,0.44,0.25,0.72,0.28,0.39,0.33,0.44,0.28,0.56,0.56,0.33,0.44" style="fill:rgb(0,0,0);font-family:TimesNewRomanPS-BoldMT;font-size:11.04px;stroke:none;">Do Not Cite, Quote or Distribute</text>
  </g>
  <g begin="text">
   <text y="528.696" x="225.38" svgx:width="0.25" style="fill:rgb(0,0,0);font-family:TimesNewRomanPS-BoldMT;font-size:11.04px;stroke:none;"> </text>
  </g>
  <g begin="text">
   <text y="528.696" x="287.57" svgx:width="0.5" style="fill:rgb(0,0,0);font-family:TimesNewRomanPSMT;font-size:11.04px;stroke:none;">4</text>
  </g>
  <g begin="text">
   <text y="528.696" x="293.09" svgx:width="0.33" style="fill:rgb(0,0,0);font-family:TimesNewRomanPSMT;font-size:11.04px;stroke:none;">-</text>
  </g>
  <g begin="text">
   <text y="528.696" x="296.69,302.21" svgx:width="0.5,0.5" style="fill:rgb(0,0,0);font-family:TimesNewRomanPSMT;font-size:11.04px;stroke:none;">29</text>
  </g>
  <g begin="text">
   <text y="528.696" x="307.73" svgx:width="0.25" style="fill:rgb(0,0,0);font-family:TimesNewRomanPSMT;font-size:11.04px;stroke:none;"> </text>
  </g>
  <g begin="text">
   <text y="528.696" x="310.49" svgx:width="0.25" style="fill:rgb(0,0,0);font-family:TimesNewRomanPSMT;font-size:11.04px;stroke:none;"> </text>
  </g>
  <g begin="text">
   <text y="528.696" x="450.07,456.815,462.335,465.405,470.229,473.342,476.102,481.622,486.524,491.945,496.846,501.174,504.177" svgx:width="0.61,0.5,0.28,0.44,0.28,0.25,0.5,0.44,0.5,0.44,0.39,0.28,0.25" style="fill:rgb(0,0,0);font-family:TimesNewRomanPSMT;font-size:11.04px;stroke:none;">Total pages: </text>
  </g>
  <g begin="text">
   <text y="528.696" x="506.95,512.47,517.99" svgx:width="0.5,0.5,0.5" style="fill:rgb(0,0,0);font-family:TimesNewRomanPSMT;font-size:11.04px;stroke:none;">156</text>
  </g>
  <g begin="text">
   <text y="528.696" x="523.39" svgx:width="0.25" style="fill:rgb(0,0,0);font-family:TimesNewRomanPSMT;font-size:9.96px;stroke:none;"> </text>
  </g>
  <g begin="text">
   <text y="543.456" x="72.0" svgx:width="0.25" style="fill:rgb(0,0,0);font-family:TimesNewRomanPSMT;font-size:12.0px;stroke:none;"> </text>
  </g>
  <g begin="text">
   <text y="557.256" x="72.0" svgx:width="0.25" style="fill:rgb(0,0,0);font-family:TimesNewRomanPSMT;font-size:12.0px;stroke:none;"> </text>
  </g>
  <g begin="text">
   <text y="86.78" x="134.06,137.407,146.769,151.799,155.145,157.914,162.934" svgx:width="0.33,0.94,0.5,0.33,0.28,0.5,0.25" style="fill:rgb(0,0,0);font-family:TimesNewRomanPSMT;font-size:9.96px;stroke:none;">(World </text>
  </g>
  <g begin="text">
   <text y="98.3" x="134.06,140.664,145.086,150.135,155.165" svgx:width="0.67,0.44,0.5,0.5,0.33" style="fill:rgb(0,0,0);font-family:TimesNewRomanPSMT;font-size:9.96px;stroke:none;">Bank)</text>
  </g>
  <g begin="text">
   <text y="98.3" x="158.54" svgx:width="0.25" style="fill:rgb(0,0,0);font-family:TimesNewRomanPSMT;font-size:9.96px;stroke:none;"> </text>
  </g>
  <path style="fill:rgb(0,0,0);stroke:none;stroke-width:1.0;" d="M129.020 494.860 L185.420 494.860 L185.420 517.780 L129.020 517.780 L129.020 494.860 M129.020 494.860 L185.420 494.860 L185.420 517.780 L129.020 517.780 L129.020 494.860 M129.020 494.860 L185.420 494.860 L185.420 517.780 L129.020 517.780 L129.020 494.860 M129.020 494.860 L185.420 494.860 L185.420 517.780 L129.020 517.780 L129.020 494.860 M72.000 517.900 L72.480 517.900 L72.480 518.380 L72.000 518.380 L72.000 517.900 "/>
  <path style="fill:rgb(0,0,0);stroke:none;stroke-width:1.0;" d="M72.000 517.900 L72.480 517.900 L72.480 518.380 L72.000 518.380 L72.000 517.900 "/>
  <path style="fill:rgb(0,0,0);stroke:none;stroke-width:1.0;" d="M72.480 517.900 L128.540 517.900 L128.540 518.380 L72.480 518.380 L72.480 517.900 "/>
  <path style="fill:rgb(0,0,0);stroke:none;stroke-width:1.0;" d="M128.540 517.900 L129.020 517.900 L129.020 518.380 L128.540 518.380 L128.540 517.900 "/>
  <path style="fill:rgb(0,0,0);stroke:none;stroke-width:1.0;" d="M129.020 517.900 L185.420 517.900 L185.420 518.380 L129.020 518.380 L129.020 517.900 "/>
  <path style="fill:rgb(0,0,0);stroke:none;stroke-width:1.0;" d="M185.420 517.900 L185.900 517.900 L185.900 518.380 L185.420 518.380 L185.420 517.900 "/>
  <path style="fill:rgb(0,0,0);stroke:none;stroke-width:1.0;" d="M185.900 517.900 L277.360 517.900 L277.360 518.380 L185.900 518.380 L185.900 517.900 "/>
  <path style="fill:rgb(0,0,0);stroke:none;stroke-width:1.0;" d="M277.370 517.900 L277.850 517.900 L277.850 518.380 L277.370 518.380 L277.370 517.900 "/>
  <path style="fill:rgb(0,0,0);stroke:none;stroke-width:1.0;" d="M277.850 517.900 L341.210 517.900 L341.210 518.380 L277.850 518.380 L277.850 517.900 "/>
  <path style="fill:rgb(0,0,0);stroke:none;stroke-width:1.0;" d="M341.210 517.900 L341.690 517.900 L341.690 518.380 L341.210 518.380 L341.210 517.900 "/>
  <path style="fill:rgb(0,0,0);stroke:none;stroke-width:1.0;" d="M516.430 517.900 L516.910 517.900 L516.910 518.380 L516.430 518.380 L516.430 517.900 "/>
  <path style="fill:rgb(0,0,0);stroke:none;stroke-width:1.0;" d="M516.910 517.900 L553.150 517.900 L553.150 518.380 L516.910 518.380 L516.910 517.900 "/>
  <path style="fill:rgb(0,0,0);stroke:none;stroke-width:1.0;" d="M553.150 517.900 L553.630 517.900 L553.630 518.380 L553.150 518.380 L553.150 517.900 "/>
  <path style="fill:rgb(0,0,0);stroke:none;stroke-width:1.0;" d="M553.630 517.900 L615.670 517.900 L615.670 518.380 L553.630 518.380 L553.630 517.900 "/>
  <path style="fill:rgb(0,0,0);stroke:none;stroke-width:1.0;" d="M615.670 517.900 L616.150 517.900 L616.150 518.380 L615.670 518.380 L615.670 517.900 "/>
  <path style="fill:rgb(0,0,0);stroke:none;stroke-width:1.0;" d="M616.150 517.900 L688.530 517.900 L688.530 518.380 L616.150 518.380 L616.150 517.900 "/>
  <path style="fill:rgb(0,0,0);stroke:none;stroke-width:1.0;" d="M688.540 517.900 L689.020 517.900 L689.020 518.380 L688.540 518.380 L688.540 517.900 "/>
  <path style="fill:rgb(0,0,0);stroke:none;stroke-width:1.0;" d="M688.540 517.900 L689.020 517.900 L689.020 518.380 L688.540 518.380 L688.540 517.900 "/>
  <path style="fill:rgb(0,0,0);stroke:none;stroke-width:1.0;" d="M72.000 494.860 L72.480 494.860 L72.480 517.900 L72.000 517.900 L72.000 494.860 "/>
  <path style="fill:rgb(0,0,0);stroke:none;stroke-width:1.0;" d="M128.540 494.860 L129.020 494.860 L129.020 517.900 L128.540 517.900 L128.540 494.860 "/>
  <path style="fill:rgb(0,0,0);stroke:none;stroke-width:1.0;" d="M185.420 494.860 L185.900 494.860 L185.900 517.900 L185.420 517.900 L185.420 494.860 "/>
  <path style="fill:rgb(0,0,0);stroke:none;stroke-width:1.0;" d="M277.370 494.860 L277.850 494.860 L277.850 517.900 L277.370 517.900 L277.370 494.860 "/>
  <path style="fill:rgb(0,0,0);stroke:none;stroke-width:1.0;" d="M341.210 494.860 L341.690 494.860 L341.690 517.900 L341.210 517.900 L341.210 494.860 "/>
  <path style="fill:rgb(0,0,0);stroke:none;stroke-width:1.0;" d="M516.430 494.860 L516.910 494.860 L516.910 517.900 L516.430 517.900 L516.430 494.860 "/>
  <path style="fill:rgb(0,0,0);stroke:none;stroke-width:1.0;" d="M553.150 494.860 L553.630 494.860 L553.630 517.900 L553.150 517.900 L553.150 494.860 "/>
  <path style="fill:rgb(0,0,0);stroke:none;stroke-width:1.0;" d="M615.670 494.860 L616.150 494.860 L616.150 517.900 L615.670 517.900 L615.670 494.860 "/>
  <path style="fill:rgb(0,0,0);stroke:none;stroke-width:1.0;" d="M688.540 494.860 L689.020 494.860 L689.020 517.900 L688.540 517.900 L688.540 494.860 "/>
  <g begin="text">
   <text y="110.3" x="77.64,86.494,91.554,94.323,97.092,99.861,103.675,108.098,112.55,115.319" svgx:width="0.89,0.5,0.28,0.28,0.28,0.39,0.44,0.44,0.28,0.5" style="fill:rgb(0,0,0);font-family:TimesNewRomanPSMT;font-size:9.96px;stroke:none;">Multisecto</text>
  </g>
  <g begin="text">
   <text y="121.82" x="77.64,80.987,85.409" svgx:width="0.33,0.44,0.28" style="fill:rgb(0,0,0);font-family:TimesNewRomanPSMT;font-size:9.96px;stroke:none;">ral</text>
  </g>
  <g begin="text">
   <text y="121.82" x="88.224" svgx:width="0.25" style="fill:rgb(0,0,0);font-family:TimesNewRomanPSMT;font-size:9.96px;stroke:none;"> </text>
  </g>
  <g begin="text">
   <text y="110.3" x="134.06,140.664,143.432,146.201,148.97,153.392,157.227,159.737,164.159,169.209,174.239" svgx:width="0.67,0.28,0.28,0.28,0.44,0.39,0.25,0.44,0.5,0.5,0.25" style="fill:rgb(0,0,0);font-family:TimesNewRomanPSMT;font-size:9.96px;stroke:none;">Cities and </text>
  </g>
  <g begin="text">
   <text y="121.82" x="134.06,137.407,141.829,146.879,149.647,154.667,159.697" svgx:width="0.33,0.44,0.5,0.28,0.5,0.5,0.39" style="fill:rgb(0,0,0);font-family:TimesNewRomanPSMT;font-size:9.96px;stroke:none;">regions</text>
  </g>
  <g begin="text">
   <text y="121.82" x="163.46" svgx:width="0.25" style="fill:rgb(0,0,0);font-family:TimesNewRomanPSMT;font-size:9.96px;stroke:none;"> </text>
  </g>
  <g begin="text">
   <text y="110.3" x="191.06,198.251,203.291,208.321,212.743,216.109,221.139,223.649,230.253,235.282,239.705,242.473,245.242,248.011,250.78,255.79" svgx:width="0.72,0.5,0.5,0.44,0.33,0.5,0.25,0.67,0.5,0.44,0.28,0.28,0.28,0.28,0.5,0.5" style="fill:rgb(0,0,0);font-family:TimesNewRomanPSMT;font-size:9.96px;stroke:none;">Under2 Coalition</text>
  </g>
  <g begin="text">
   <text y="110.3" x="260.78" svgx:width="0.25" style="fill:rgb(0,0,0);font-family:TimesNewRomanPSMT;font-size:9.96px;stroke:none;"> </text>
  </g>
  <g begin="text">
   <text y="110.3" x="283.01,290.201,292.97,298.0,303.03,307.452" svgx:width="0.72,0.28,0.5,0.5,0.44,0.28" style="fill:rgb(0,0,0);font-family:TimesNewRomanPSMT;font-size:9.96px;stroke:none;">Global</text>
  </g>
  <g begin="text">
   <text y="110.3" x="310.25" svgx:width="0.25" style="fill:rgb(0,0,0);font-family:TimesNewRomanPSMT;font-size:9.96px;stroke:none;"> </text>
  </g>
  <g begin="text">
   <text y="110.3" x="346.85,352.955,357.985,362.408,366.86,369.629,372.119,373.812,378.842,383.871,388.901,393.224,396.57,401.6,409.389,413.811,418.861,421.63,425.464,427.954,429.658,433.004,437.924,442.954,447.984,450.474,452.177,459.966,464.288,472.077,477.107,481.529,484.896,488.74,492.087,494.577,496.28,500.702,503.471,511.16" svgx:width="0.61,0.5,0.44,0.44,0.28,0.25,0.55,0.5,0.5,0.5,0.44,0.33,0.5,0.78,0.44,0.5,0.28,0.39,0.25,0.55,0.33,0.5,0.5,0.5,0.25,0.55,0.78,0.44,0.78,0.5,0.44,0.33,0.39,0.33,0.25,0.55,0.44,0.28,0.78,0.25" style="fill:rgb(0,0,0);font-family:TimesNewRomanPSMT;font-size:9.96px;stroke:none;">Local governments (220 members) aim </text>
  </g>
  <g begin="text">
   <text y="121.82" x="346.85,349.619,354.639,357.129,359.071,361.84,364.609,372.378,375.146,377.915,380.40500000000003,382.328,385.096,390.116,394.539,397.307,400.554" svgx:width="0.28,0.5,0.25,0.55,0.28,0.28,0.78,0.28,0.28,0.25,0.55,0.28,0.5,0.44,0.28,0.33,0.25" style="fill:rgb(0,0,0);font-family:TimesNewRomanPSMT;font-size:9.96px;stroke:none;">to limit their </text>
  </g>
  <g begin="text">
   <text y="121.82" x="405.05,412.241,419.432,426.623,429.113,431.075,435.498,443.306,446.075,449.91,453.755,456.523,461.543,466.573,470.418,472.908,474.85,479.88,484.909,487.399,489.222,494.252,499.172,501.66200000000003,503.604,506.373,511.283" svgx:width="0.72,0.72,0.72,0.25,0.55,0.44,0.78,0.28,0.39,0.39,0.28,0.5,0.5,0.39,0.25,0.55,0.5,0.5,0.25,0.55,0.5,0.5,0.25,0.55,0.28,0.5,0.25" style="fill:rgb(0,0,0);font-family:TimesNewRomanPSMT;font-size:9.96px;stroke:none;">GHG emissions by 80 to </text>
  </g>
  <g begin="text">
   <text y="133.34" x="346.85,351.88,356.91,365.206,367.696,372.736,377.158,379.927,384.967,392.158,394.678,399.598,404.628,409.658,414.688,417.198,419.967,424.279,429.309,433.731,436.5,440.375,442.865,447.894,452.924,455.434,460.354,465.275,470.304" svgx:width="0.5,0.5,0.83,0.25,0.5,0.44,0.28,0.5,0.72,0.25,0.5,0.5,0.5,0.5,0.25,0.28,0.44,0.5,0.44,0.28,0.39,0.25,0.5,0.5,0.25,0.5,0.5,0.5,0.5" style="fill:rgb(0,0,0);font-family:TimesNewRomanPSMT;font-size:9.96px;stroke:none;">95% below 1990 levels by 2050</text>
  </g>
  <g begin="text">
   <text y="133.34" x="475.39" svgx:width="0.25" style="fill:rgb(0,0,0);font-family:TimesNewRomanPSMT;font-size:9.96px;stroke:none;"> </text>
  </g>
  <g begin="text">
   <text y="110.3" x="535.51,540.54,543.05" svgx:width="0.5,0.25,0.5" style="fill:rgb(0,0,0);font-family:TimesNewRomanPSMT;font-size:9.96px;stroke:none;">4.6</text>
  </g>
  <g begin="text">
   <text y="110.3" x="547.99" svgx:width="0.25" style="fill:rgb(0,0,0);font-family:TimesNewRomanPSMT;font-size:9.96px;stroke:none;"> </text>
  </g>
  <g begin="text">
   <text y="110.3" x="605.47" svgx:width="0.5" style="fill:rgb(0,0,0);font-family:TimesNewRomanPSMT;font-size:9.96px;stroke:none;">5</text>
  </g>
  <g begin="text">
   <text y="110.3" x="610.51" svgx:width="0.25" style="fill:rgb(0,0,0);font-family:TimesNewRomanPSMT;font-size:9.96px;stroke:none;"> </text>
  </g>
  <g begin="text">
   <text y="110.3" x="621.34,627.944,632.973,636.32,639.666,644.089,649.138,651.907" svgx:width="0.67,0.5,0.33,0.33,0.44,0.5,0.28,0.25" style="fill:rgb(0,0,0);font-family:TimesNewRomanPSMT;font-size:9.96px;stroke:none;">Current </text>
  </g>
  <g begin="text">
   <text y="121.82" x="621.34,629.129,633.551,641.36,646.389,650.812,654.178,658.023,663.052,665.821" svgx:width="0.78,0.44,0.78,0.5,0.44,0.33,0.39,0.5,0.28,0.5" style="fill:rgb(0,0,0);font-family:TimesNewRomanPSMT;font-size:9.96px;stroke:none;">membership</text>
  </g>
  <g begin="text">
   <text y="121.82" x="670.9" svgx:width="0.25" style="fill:rgb(0,0,0);font-family:TimesNewRomanPSMT;font-size:9.96px;stroke:none;"> </text>
  </g>
  <g begin="text">
   <text y="121.82" x="673.3" svgx:width="0.25" style="fill:rgb(0,0,0);font-family:TimesNewRomanPSMT;font-size:9.96px;stroke:none;"> </text>
  </g>
  <path style="fill:rgb(0,0,0);stroke:none;stroke-width:1.0;" d="M72.480 459.820 L128.420 459.820 L128.420 494.380 L72.480 494.380 L72.480 459.820 M72.480 459.820 L128.420 459.820 L128.420 494.380 L72.480 494.380 L72.480 459.820 M72.480 459.820 L128.420 459.820 L128.420 494.380 L72.480 494.380 L72.480 459.820 M72.480 459.820 L128.420 459.820 L128.420 494.380 L72.480 494.380 L72.480 459.820 M129.020 459.820 L185.420 459.820 L185.420 494.380 L129.020 494.380 L129.020 459.820 M129.020 459.820 L185.420 459.820 L185.420 494.380 L129.020 494.380 L129.020 459.820 M129.020 459.820 L185.420 459.820 L185.420 494.380 L129.020 494.380 L129.020 459.820 M129.020 459.820 L185.420 459.820 L185.420 494.380 L129.020 494.380 L129.020 459.820 M185.900 459.820 L277.360 459.820 L277.360 494.380 L185.900 494.380 L185.900 459.820 M185.900 459.820 L277.360 459.820 L277.360 494.380 L185.900 494.380 L185.900 459.820 M185.900 459.820 L277.360 459.820 L277.360 494.380 L185.900 494.380 L185.900 459.820 M277.850 459.820 L341.210 459.820 L341.210 494.380 L277.850 494.380 L277.850 459.820 M277.850 459.820 L341.210 459.820 L341.210 494.380 L277.850 494.380 L277.850 459.820 M277.850 459.820 L341.210 459.820 L341.210 494.380 L277.850 494.380 L277.850 459.820 M516.910 459.820 L553.150 459.820 L553.150 494.380 L516.910 494.380 L516.910 459.820 M516.910 459.820 L553.150 459.820 L553.150 494.380 L516.910 494.380 L516.910 459.820 M516.910 459.820 L553.150 459.820 L553.150 494.380 L516.910 494.380 L516.910 459.820 M553.630 459.820 L615.670 459.820 L615.670 494.380 L553.630 494.380 L553.630 459.820 M553.630 459.820 L615.670 459.820 L615.670 494.380 L553.630 494.380 L553.630 459.820 M553.630 459.820 L615.670 459.820 L615.670 494.380 L553.630 494.380 L553.630 459.820 M616.150 459.820 L688.530 459.820 L688.530 494.380 L616.150 494.380 L616.150 459.820 M616.150 459.820 L688.530 459.820 L688.530 494.380 L616.150 494.380 L616.150 459.820 M616.150 459.820 L688.530 459.820 L688.530 494.380 L616.150 494.380 L616.150 459.820 M616.150 459.820 L688.530 459.820 L688.530 494.380 L616.150 494.380 L616.150 459.820 M616.150 459.820 L688.530 459.820 L688.530 494.380 L616.150 494.380 L616.150 459.820 M72.000 494.380 L72.480 494.380 L72.480 494.860 L72.000 494.860 L72.000 494.380 "/>
  <path style="fill:rgb(0,0,0);stroke:none;stroke-width:1.0;" d="M72.480 494.380 L128.540 494.380 L128.540 494.860 L72.480 494.860 L72.480 494.380 "/>
  <path style="fill:rgb(0,0,0);stroke:none;stroke-width:1.0;" d="M128.540 494.380 L129.020 494.380 L129.020 494.860 L128.540 494.860 L128.540 494.380 "/>
  <path style="fill:rgb(0,0,0);stroke:none;stroke-width:1.0;" d="M129.020 494.380 L185.420 494.380 L185.420 494.860 L129.020 494.860 L129.020 494.380 "/>
  <path style="fill:rgb(0,0,0);stroke:none;stroke-width:1.0;" d="M185.420 494.380 L185.900 494.380 L185.900 494.860 L185.420 494.860 L185.420 494.380 "/>
  <path style="fill:rgb(0,0,0);stroke:none;stroke-width:1.0;" d="M185.900 494.380 L277.360 494.380 L277.360 494.860 L185.900 494.860 L185.900 494.380 "/>
  <path style="fill:rgb(0,0,0);stroke:none;stroke-width:1.0;" d="M277.370 494.380 L277.850 494.380 L277.850 494.860 L277.370 494.860 L277.370 494.380 "/>
  <path style="fill:rgb(0,0,0);stroke:none;stroke-width:1.0;" d="M277.850 494.380 L341.210 494.380 L341.210 494.860 L277.850 494.860 L277.850 494.380 "/>
  <path style="fill:rgb(0,0,0);stroke:none;stroke-width:1.0;" d="M341.210 494.380 L341.690 494.380 L341.690 494.860 L341.210 494.860 L341.210 494.380 "/>
  <path style="fill:rgb(0,0,0);stroke:none;stroke-width:1.0;" d="M516.430 494.380 L516.910 494.380 L516.910 494.860 L516.430 494.860 L516.430 494.380 "/>
  <path style="fill:rgb(0,0,0);stroke:none;stroke-width:1.0;" d="M516.910 494.380 L553.150 494.380 L553.150 494.860 L516.910 494.860 L516.910 494.380 "/>
  <path style="fill:rgb(0,0,0);stroke:none;stroke-width:1.0;" d="M553.150 494.380 L553.630 494.380 L553.630 494.860 L553.150 494.860 L553.150 494.380 "/>
  <path style="fill:rgb(0,0,0);stroke:none;stroke-width:1.0;" d="M553.630 494.380 L615.670 494.380 L615.670 494.860 L553.630 494.860 L553.630 494.380 "/>
  <path style="fill:rgb(0,0,0);stroke:none;stroke-width:1.0;" d="M615.670 494.380 L616.150 494.380 L616.150 494.860 L615.670 494.860 L615.670 494.380 "/>
  <path style="fill:rgb(0,0,0);stroke:none;stroke-width:1.0;" d="M616.150 494.380 L688.530 494.380 L688.530 494.860 L616.150 494.860 L616.150 494.380 "/>
  <path style="fill:rgb(0,0,0);stroke:none;stroke-width:1.0;" d="M688.540 494.380 L689.020 494.380 L689.020 494.860 L688.540 494.860 L688.540 494.380 "/>
  <path style="fill:rgb(0,0,0);stroke:none;stroke-width:1.0;" d="M72.000 459.820 L72.480 459.820 L72.480 494.380 L72.000 494.380 L72.000 459.820 "/>
  <path style="fill:rgb(0,0,0);stroke:none;stroke-width:1.0;" d="M128.540 459.820 L129.020 459.820 L129.020 494.380 L128.540 494.380 L128.540 459.820 "/>
  <path style="fill:rgb(0,0,0);stroke:none;stroke-width:1.0;" d="M185.420 459.820 L185.900 459.820 L185.900 494.380 L185.420 494.380 L185.420 459.820 "/>
  <path style="fill:rgb(0,0,0);stroke:none;stroke-width:1.0;" d="M277.370 459.820 L277.850 459.820 L277.850 494.380 L277.370 494.380 L277.370 459.820 "/>
  <path style="fill:rgb(0,0,0);stroke:none;stroke-width:1.0;" d="M341.210 459.820 L341.690 459.820 L341.690 494.380 L341.210 494.380 L341.210 459.820 "/>
  <path style="fill:rgb(0,0,0);stroke:none;stroke-width:1.0;" d="M516.430 459.820 L516.910 459.820 L516.910 494.380 L516.430 494.380 L516.430 459.820 "/>
  <path style="fill:rgb(0,0,0);stroke:none;stroke-width:1.0;" d="M553.150 459.820 L553.630 459.820 L553.630 494.380 L553.150 494.380 L553.150 459.820 "/>
  <path style="fill:rgb(0,0,0);stroke:none;stroke-width:1.0;" d="M615.670 459.820 L616.150 459.820 L616.150 494.380 L615.670 494.380 L615.670 459.820 "/>
  <path style="fill:rgb(0,0,0);stroke:none;stroke-width:1.0;" d="M688.540 459.820 L689.020 459.820 L689.020 494.380 L688.540 494.380 L688.540 459.820 "/>
  <g begin="text">
   <text y="145.34" x="77.64,86.494,91.554,94.323,97.092,99.861,103.675,108.098,112.55,115.319" svgx:width="0.89,0.5,0.28,0.28,0.28,0.39,0.44,0.44,0.28,0.5" style="fill:rgb(0,0,0);font-family:TimesNewRomanPSMT;font-size:9.96px;stroke:none;">Multisecto</text>
  </g>
  <g begin="text">
   <text y="156.86" x="77.64,80.987,85.409" svgx:width="0.33,0.44,0.28" style="fill:rgb(0,0,0);font-family:TimesNewRomanPSMT;font-size:9.96px;stroke:none;">ral</text>
  </g>
  <g begin="text">
   <text y="156.86" x="88.224" svgx:width="0.25" style="fill:rgb(0,0,0);font-family:TimesNewRomanPSMT;font-size:9.96px;stroke:none;"> </text>
  </g>
  <g begin="text">
   <text y="145.34" x="134.06,140.664,143.432,146.201,148.97,153.392,157.227,159.737,164.159,169.209,174.239" svgx:width="0.67,0.28,0.28,0.28,0.44,0.39,0.25,0.44,0.5,0.5,0.25" style="fill:rgb(0,0,0);font-family:TimesNewRomanPSMT;font-size:9.96px;stroke:none;">Cities and </text>
  </g>
  <g begin="text">
   <text y="156.86" x="134.06,137.407,141.829,146.879,149.647,154.667,159.697" svgx:width="0.33,0.44,0.5,0.28,0.5,0.5,0.39" style="fill:rgb(0,0,0);font-family:TimesNewRomanPSMT;font-size:9.96px;stroke:none;">regions</text>
  </g>
  <g begin="text">
   <text y="156.86" x="163.46" svgx:width="0.25" style="fill:rgb(0,0,0);font-family:TimesNewRomanPSMT;font-size:9.96px;stroke:none;"> </text>
  </g>
  <g begin="text">
   <text y="145.34" x="191.06,198.251,201.02,206.05,211.08,215.502,218.271,220.761,221.866,228.47,233.5,238.529,242.952,248.001,252.424,257.473,260.242,262.732,263.828,268.858,272.095" svgx:width="0.72,0.28,0.5,0.5,0.44,0.28,0.25,0.55,0.67,0.5,0.5,0.44,0.5,0.44,0.5,0.28,0.25,0.55,0.5,0.33,0.25" style="fill:rgb(0,0,0);font-family:TimesNewRomanPSMT;font-size:9.96px;stroke:none;">Global Covenant of </text>
  </g>
  <g begin="text">
   <text y="156.86" x="191.06,199.914,204.367,209.396,214.426,217.773,221.617,224.107,225.203,228.549,233.579,236.926,239.416,240.511,247.115,249.884,252.653,260.421,264.844,267.613,272.035" svgx:width="0.89,0.44,0.5,0.5,0.33,0.39,0.25,0.55,0.33,0.5,0.33,0.25,0.55,0.67,0.28,0.28,0.78,0.44,0.28,0.44,0.25" style="fill:rgb(0,0,0);font-family:TimesNewRomanPSMT;font-size:9.96px;stroke:none;">Mayors for Climate </text>
  </g>
  <g begin="text">
   <text y="168.26" x="191.06,198.849,201.359,207.464,212.494,216.916,220.283,225.203,230.233,232.743,236.089,243.28,249.894,254.923,263.778" svgx:width="0.78,0.25,0.61,0.5,0.44,0.33,0.5,0.5,0.25,0.33,0.72,0.67,0.5,0.89,0.33" style="fill:rgb(0,0,0);font-family:TimesNewRomanPSMT;font-size:9.96px;stroke:none;">&amp; Energy (GCoM)</text>
  </g>
  <g begin="text">
   <text y="168.26" x="267.17" svgx:width="0.25" style="fill:rgb(0,0,0);font-family:TimesNewRomanPSMT;font-size:9.96px;stroke:none;"> </text>
  </g>
  <g begin="text">
   <text y="145.34" x="283.01,290.201,292.97,298.0,303.03,307.452" svgx:width="0.72,0.28,0.5,0.5,0.44,0.28" style="fill:rgb(0,0,0);font-family:TimesNewRomanPSMT;font-size:9.96px;stroke:none;">Global</text>
  </g>
  <g begin="text">
   <text y="145.34" x="310.25" svgx:width="0.25" style="fill:rgb(0,0,0);font-family:TimesNewRomanPSMT;font-size:9.96px;stroke:none;"> </text>
  </g>
  <g begin="text">
   <text y="145.34" x="346.85,355.704,360.157,367.945,372.975,377.397,380.764,383.254,384.718,389.14,391.909,394.678,397.447,401.869,405.743,408.233,409.668,414.698,419.12,424.17,428.492,430.982,432.446,436.869,439.35900000000004,440.833,445.753,450.175,453.542,456.31,460.733,463.502,468.422,470.91200000000003,472.376,477.406,480.752,483.242,484.706,487.475,491.788,495.135,500.164,504.587,507.356,511.23" svgx:width="0.89,0.44,0.78,0.5,0.44,0.33,0.25,0.55,0.44,0.28,0.28,0.28,0.44,0.39,0.25,0.55,0.5,0.44,0.5,0.44,0.25,0.55,0.44,0.25,0.55,0.5,0.44,0.33,0.28,0.44,0.28,0.5,0.25,0.55,0.5,0.33,0.25,0.55,0.28,0.44,0.33,0.5,0.44,0.28,0.39,0.25" style="fill:rgb(0,0,0);font-family:TimesNewRomanPSMT;font-size:9.96px;stroke:none;">Member cities have a variety of targets </text>
  </g>
  <g begin="text">
   <text y="156.86" x="346.85,350.197,355.814,360.864,363.374,368.403,373.324,378.354,380.863,388.652,393.074,400.773,405.803,410.225,413.592,417.437" svgx:width="0.33,0.56,0.5,0.25,0.5,0.5,0.5,0.25,0.78,0.44,0.78,0.5,0.44,0.33,0.39,0.33" style="fill:rgb(0,0,0);font-family:TimesNewRomanPSMT;font-size:9.96px;stroke:none;">(+9,000 members)</text>
  </g>
  <g begin="text">
   <text y="156.86" x="420.77" svgx:width="0.25" style="fill:rgb(0,0,0);font-family:TimesNewRomanPSMT;font-size:9.96px;stroke:none;"> </text>
  </g>
  <g begin="text">
   <text y="145.34" x="535.51,540.54,543.05" svgx:width="0.5,0.25,0.5" style="fill:rgb(0,0,0);font-family:TimesNewRomanPSMT;font-size:9.96px;stroke:none;">1.4</text>
  </g>
  <g begin="text">
   <text y="145.34" x="547.99" svgx:width="0.25" style="fill:rgb(0,0,0);font-family:TimesNewRomanPSMT;font-size:9.96px;stroke:none;"> </text>
  </g>
  <g begin="text">
   <text y="145.34" x="598.03,603.06,605.57" svgx:width="0.5,0.25,0.5" style="fill:rgb(0,0,0);font-family:TimesNewRomanPSMT;font-size:9.96px;stroke:none;">1.4</text>
  </g>
  <g begin="text">
   <text y="145.34" x="610.51" svgx:width="0.25" style="fill:rgb(0,0,0);font-family:TimesNewRomanPSMT;font-size:9.96px;stroke:none;"> </text>
  </g>
  <g begin="text">
   <text y="145.34" x="621.34,627.944,632.973,636.32,639.666,644.089,649.138,651.907" svgx:width="0.67,0.5,0.33,0.33,0.44,0.5,0.28,0.25" style="fill:rgb(0,0,0);font-family:TimesNewRomanPSMT;font-size:9.96px;stroke:none;">Current </text>
  </g>
  <g begin="text">
   <text y="156.86" x="621.34,629.129,633.551,641.36,646.389,650.812,654.178,658.023,663.052,665.821" svgx:width="0.78,0.44,0.78,0.5,0.44,0.33,0.39,0.5,0.28,0.5" style="fill:rgb(0,0,0);font-family:TimesNewRomanPSMT;font-size:9.96px;stroke:none;">membership</text>
  </g>
  <g begin="text">
   <text y="156.86" x="670.78" svgx:width="0.25" style="fill:rgb(0,0,0);font-family:TimesNewRomanPSMT;font-size:9.96px;stroke:none;"> </text>
  </g>
  <path style="fill:rgb(0,0,0);stroke:none;stroke-width:1.0;" d="M72.480 424.900 L128.420 424.900 L128.420 459.340 L72.480 459.340 L72.480 424.900 M72.480 424.900 L128.420 424.900 L128.420 459.340 L72.480 459.340 L72.480 424.900 M72.480 424.900 L128.420 424.900 L128.420 459.340 L72.480 459.340 L72.480 424.900 M72.480 424.900 L128.420 424.900 L128.420 459.340 L72.480 459.340 L72.480 424.900 M129.020 424.900 L185.420 424.900 L185.420 459.340 L129.020 459.340 L129.020 424.900 M129.020 424.900 L185.420 424.900 L185.420 459.340 L129.020 459.340 L129.020 424.900 M129.020 424.900 L185.420 424.900 L185.420 459.340 L129.020 459.340 L129.020 424.900 M129.020 424.900 L185.420 424.900 L185.420 459.340 L129.020 459.340 L129.020 424.900 M185.900 424.900 L277.360 424.900 L277.360 459.340 L185.900 459.340 L185.900 424.900 M185.900 424.900 L277.360 424.900 L277.360 459.340 L185.900 459.340 L185.900 424.900 M185.900 424.900 L277.360 424.900 L277.360 459.340 L185.900 459.340 L185.900 424.900 M185.900 424.900 L277.360 424.900 L277.360 459.340 L185.900 459.340 L185.900 424.900 M185.900 424.900 L277.360 424.900 L277.360 459.340 L185.900 459.340 L185.900 424.900 M277.850 424.900 L341.210 424.900 L341.210 459.340 L277.850 459.340 L277.850 424.900 M277.850 424.900 L341.210 424.900 L341.210 459.340 L277.850 459.340 L277.850 424.900 M277.850 424.900 L341.210 424.900 L341.210 459.340 L277.850 459.340 L277.850 424.900 M516.910 424.900 L553.150 424.900 L553.150 459.340 L516.910 459.340 L516.910 424.900 M516.910 424.900 L553.150 424.900 L553.150 459.340 L516.910 459.340 L516.910 424.900 M516.910 424.900 L553.150 424.900 L553.150 459.340 L516.910 459.340 L516.910 424.900 M553.630 424.900 L615.670 424.900 L615.670 459.340 L553.630 459.340 L553.630 424.900 M553.630 424.900 L615.670 424.900 L615.670 459.340 L553.630 459.340 L553.630 424.900 M553.630 424.900 L615.670 424.900 L615.670 459.340 L553.630 459.340 L553.630 424.900 M616.150 424.900 L688.530 424.900 L688.530 459.340 L616.150 459.340 L616.150 424.900 M616.150 424.900 L688.530 424.900 L688.530 459.340 L616.150 459.340 L616.150 424.900 M616.150 424.900 L688.530 424.900 L688.530 459.340 L616.150 459.340 L616.150 424.900 M616.150 424.900 L688.530 424.900 L688.530 459.340 L616.150 459.340 L616.150 424.900 M72.000 459.340 L72.480 459.340 L72.480 459.820 L72.000 459.820 L72.000 459.340 "/>
  <path style="fill:rgb(0,0,0);stroke:none;stroke-width:1.0;" d="M72.480 459.340 L128.540 459.340 L128.540 459.820 L72.480 459.820 L72.480 459.340 "/>
  <path style="fill:rgb(0,0,0);stroke:none;stroke-width:1.0;" d="M128.540 459.340 L129.020 459.340 L129.020 459.820 L128.540 459.820 L128.540 459.340 "/>
  <path style="fill:rgb(0,0,0);stroke:none;stroke-width:1.0;" d="M129.020 459.340 L185.420 459.340 L185.420 459.820 L129.020 459.820 L129.020 459.340 "/>
  <path style="fill:rgb(0,0,0);stroke:none;stroke-width:1.0;" d="M185.420 459.340 L185.900 459.340 L185.900 459.820 L185.420 459.820 L185.420 459.340 "/>
  <path style="fill:rgb(0,0,0);stroke:none;stroke-width:1.0;" d="M185.900 459.340 L277.360 459.340 L277.360 459.820 L185.900 459.820 L185.900 459.340 "/>
  <path style="fill:rgb(0,0,0);stroke:none;stroke-width:1.0;" d="M277.370 459.340 L277.850 459.340 L277.850 459.820 L277.370 459.820 L277.370 459.340 "/>
  <path style="fill:rgb(0,0,0);stroke:none;stroke-width:1.0;" d="M277.850 459.340 L341.210 459.340 L341.210 459.820 L277.850 459.820 L277.850 459.340 "/>
  <path style="fill:rgb(0,0,0);stroke:none;stroke-width:1.0;" d="M341.210 459.340 L341.690 459.340 L341.690 459.820 L341.210 459.820 L341.210 459.340 "/>
  <path style="fill:rgb(0,0,0);stroke:none;stroke-width:1.0;" d="M516.430 459.340 L516.910 459.340 L516.910 459.820 L516.430 459.820 L516.430 459.340 "/>
  <path style="fill:rgb(0,0,0);stroke:none;stroke-width:1.0;" d="M516.910 459.340 L553.150 459.340 L553.150 459.820 L516.910 459.820 L516.910 459.340 "/>
  <path style="fill:rgb(0,0,0);stroke:none;stroke-width:1.0;" d="M553.150 459.340 L553.630 459.340 L553.630 459.820 L553.150 459.820 L553.150 459.340 "/>
  <path style="fill:rgb(0,0,0);stroke:none;stroke-width:1.0;" d="M553.630 459.340 L615.670 459.340 L615.670 459.820 L553.630 459.820 L553.630 459.340 "/>
  <path style="fill:rgb(0,0,0);stroke:none;stroke-width:1.0;" d="M615.670 459.340 L616.150 459.340 L616.150 459.820 L615.670 459.820 L615.670 459.340 "/>
  <path style="fill:rgb(0,0,0);stroke:none;stroke-width:1.0;" d="M616.150 459.340 L688.530 459.340 L688.530 459.820 L616.150 459.820 L616.150 459.340 "/>
  <path style="fill:rgb(0,0,0);stroke:none;stroke-width:1.0;" d="M688.540 459.340 L689.020 459.340 L689.020 459.820 L688.540 459.820 L688.540 459.340 "/>
  <path style="fill:rgb(0,0,0);stroke:none;stroke-width:1.0;" d="M72.000 424.900 L72.480 424.900 L72.480 459.340 L72.000 459.340 L72.000 424.900 "/>
  <path style="fill:rgb(0,0,0);stroke:none;stroke-width:1.0;" d="M128.540 424.900 L129.020 424.900 L129.020 459.340 L128.540 459.340 L128.540 424.900 "/>
  <path style="fill:rgb(0,0,0);stroke:none;stroke-width:1.0;" d="M185.420 424.900 L185.900 424.900 L185.900 459.340 L185.420 459.340 L185.420 424.900 "/>
  <path style="fill:rgb(0,0,0);stroke:none;stroke-width:1.0;" d="M277.370 424.900 L277.850 424.900 L277.850 459.340 L277.370 459.340 L277.370 424.900 "/>
  <path style="fill:rgb(0,0,0);stroke:none;stroke-width:1.0;" d="M341.210 424.900 L341.690 424.900 L341.690 459.340 L341.210 459.340 L341.210 424.900 "/>
  <path style="fill:rgb(0,0,0);stroke:none;stroke-width:1.0;" d="M516.430 424.900 L516.910 424.900 L516.910 459.340 L516.430 459.340 L516.430 424.900 "/>
  <path style="fill:rgb(0,0,0);stroke:none;stroke-width:1.0;" d="M553.150 424.900 L553.630 424.900 L553.630 459.340 L553.150 459.340 L553.150 424.900 "/>
  <path style="fill:rgb(0,0,0);stroke:none;stroke-width:1.0;" d="M615.670 424.900 L616.150 424.900 L616.150 459.340 L615.670 459.340 L615.670 424.900 "/>
  <path style="fill:rgb(0,0,0);stroke:none;stroke-width:1.0;" d="M688.540 424.900 L689.020 424.900 L689.020 459.340 L688.540 459.340 L688.540 424.900 "/>
  <g begin="text">
   <text y="180.26" x="77.64,86.494,91.554,94.323,97.092,99.861,103.675,108.098,112.55,115.319" svgx:width="0.89,0.5,0.28,0.28,0.28,0.39,0.44,0.44,0.28,0.5" style="fill:rgb(0,0,0);font-family:TimesNewRomanPSMT;font-size:9.96px;stroke:none;">Multisecto</text>
  </g>
  <g begin="text">
   <text y="191.81" x="77.64,80.987,85.409" svgx:width="0.33,0.44,0.28" style="fill:rgb(0,0,0);font-family:TimesNewRomanPSMT;font-size:9.96px;stroke:none;">ral</text>
  </g>
  <g begin="text">
   <text y="191.81" x="88.224" svgx:width="0.25" style="fill:rgb(0,0,0);font-family:TimesNewRomanPSMT;font-size:9.96px;stroke:none;"> </text>
  </g>
  <g begin="text">
   <text y="180.26" x="134.06,140.664,143.432,146.201,148.97,153.392,157.227,159.737,164.159,169.209,174.239" svgx:width="0.67,0.28,0.28,0.28,0.44,0.39,0.25,0.44,0.5,0.5,0.25" style="fill:rgb(0,0,0);font-family:TimesNewRomanPSMT;font-size:9.96px;stroke:none;">Cities and </text>
  </g>
  <g begin="text">
   <text y="191.81" x="134.06,137.407,141.829,146.879,149.647,154.667,159.697" svgx:width="0.33,0.44,0.5,0.28,0.5,0.5,0.39" style="fill:rgb(0,0,0);font-family:TimesNewRomanPSMT;font-size:9.96px;stroke:none;">regions</text>
  </g>
  <g begin="text">
   <text y="191.81" x="163.46" svgx:width="0.25" style="fill:rgb(0,0,0);font-family:TimesNewRomanPSMT;font-size:9.96px;stroke:none;"> </text>
  </g>
  <g begin="text">
   <text y="180.26" x="191.06,197.664,202.693,207.723,210.21300000000002,212.394,218.998,221.767,224.536,227.304,231.826,235.671,238.161,240.462,247.065,249.834,252.603,260.372,264.794,267.563,272.124" svgx:width="0.67,0.5,0.5,0.25,0.55,0.67,0.28,0.28,0.28,0.44,0.39,0.25,0.55,0.67,0.28,0.28,0.78,0.44,0.28,0.44,0.25" style="fill:rgb(0,0,0);font-family:TimesNewRomanPSMT;font-size:9.96px;stroke:none;">C40 Cities Climate </text>
  </g>
  <g begin="text">
   <text y="191.81" x="191.06,197.165,201.588,206.04,211.07,215.492,218.858,222.703,227.733,230.502,235.521,238.011,246.667,253.858,257.214,262.135,267.164,272.085" svgx:width="0.61,0.44,0.44,0.5,0.44,0.33,0.39,0.5,0.28,0.5,0.25,0.55,0.72,0.33,0.5,0.5,0.5,0.25" style="fill:rgb(0,0,0);font-family:TimesNewRomanPSMT;font-size:9.96px;stroke:none;">Leadership Group </text>
  </g>
  <g begin="text">
   <text y="203.33" x="191.06,194.407,201.01,206.04,211.07" svgx:width="0.33,0.67,0.5,0.5,0.33" style="fill:rgb(0,0,0);font-family:TimesNewRomanPSMT;font-size:9.96px;stroke:none;">(C40)</text>
  </g>
  <g begin="text">
   <text y="203.33" x="214.34" svgx:width="0.25" style="fill:rgb(0,0,0);font-family:TimesNewRomanPSMT;font-size:9.96px;stroke:none;"> </text>
  </g>
  <g begin="text">
   <text y="180.26" x="283.01,290.201,292.97,298.0,303.03,307.452" svgx:width="0.72,0.28,0.5,0.5,0.44,0.28" style="fill:rgb(0,0,0);font-family:TimesNewRomanPSMT;font-size:9.96px;stroke:none;">Global</text>
  </g>
  <g begin="text">
   <text y="180.26" x="310.25" svgx:width="0.25" style="fill:rgb(0,0,0);font-family:TimesNewRomanPSMT;font-size:9.96px;stroke:none;"> </text>
  </g>
  <g begin="text">
   <text y="180.26" x="346.85,351.88,356.91,359.40000000000003,363.742,371.531,375.953,383.762,388.792,393.214,396.58,399.07,403.413,407.835,410.604,413.373,416.142,420.564,424.438,426.928,431.241,436.271,440.693,445.743,450.165,452.65500000000003,457.018,461.44,463.93,468.292,473.322,477.744,481.111,483.88,488.302,491.071,496.101,498.591,502.933,507.963,511.2" svgx:width="0.5,0.5,0.25,0.55,0.78,0.44,0.78,0.5,0.44,0.33,0.25,0.55,0.44,0.28,0.28,0.28,0.44,0.39,0.25,0.55,0.5,0.44,0.5,0.44,0.25,0.55,0.44,0.25,0.55,0.5,0.44,0.33,0.28,0.44,0.28,0.5,0.25,0.55,0.5,0.33,0.25" style="fill:rgb(0,0,0);font-family:TimesNewRomanPSMT;font-size:9.96px;stroke:none;">94 member cities have a variety of </text>
  </g>
  <g begin="text">
   <text y="191.81" x="346.85,349.619,354.041,357.398,362.427,366.85,369.619,373.493,375.983,377.905,382.328,385.096,392.895,395.664,400.684,405.714,407.636,410.873,415.903,419.249,421.052,426.082,428.592,433.622,437.606,444.179,446.102,450.524,455.573,463.362,468.282,472.705,475.474,478.242,483.272,486.041,488.81,491.579,494.308,499.338,501.26,506.29,511.21" svgx:width="0.28,0.44,0.33,0.5,0.44,0.28,0.39,0.25,0.25,0.44,0.28,0.78,0.28,0.5,0.5,0.25,0.33,0.5,0.33,0.25,0.5,0.25,0.5,0.4,0.67,0.25,0.44,0.5,0.78,0.5,0.44,0.28,0.28,0.5,0.28,0.28,0.28,0.28,0.5,0.25,0.5,0.5,0.25" style="fill:rgb(0,0,0);font-family:TimesNewRomanPSMT;font-size:9.96px;stroke:none;">targets, aiming for 1.5°C compatibility by </text>
  </g>
  <g begin="text">
   <text y="203.33" x="346.85,351.88,356.91,361.939,366.969,369.37,371.86,373.802,379.907,384.937,389.359,391.849,393.692,398.722,403.144,405.913,413.104,418.154,421.5,426.421,428.911,430.853,435.275,439.727,443.074,446.42,449.189,453.611,457.486,459.976,461.888,464.528,471.719,476.759,479.249,481.191,485.613,490.663,495.692,498.461,501.23,505.652,508.421,511.19" svgx:width="0.5,0.5,0.5,0.5,0.25,0.25,0.55,0.61,0.5,0.44,0.25,0.55,0.5,0.44,0.28,0.72,0.5,0.33,0.5,0.25,0.55,0.44,0.44,0.33,0.33,0.28,0.44,0.39,0.25,0.55,0.28,0.72,0.5,0.25,0.55,0.44,0.5,0.5,0.28,0.28,0.44,0.28,0.28,0.25" style="fill:rgb(0,0,0);font-family:TimesNewRomanPSMT;font-size:9.96px;stroke:none;">2050. The network carries two explicit </text>
  </g>
  <g begin="text">
   <text y="214.85" x="346.85,351.88,356.91,361.332,364.101,367.975,370.714,373.583,378.613,381.959,384.828,387.596,392.616,395.485,400.515,404.837,409.867,414.289,417.178,421.6,426.65,431.072,434.329,439.359,442.227,448.831,453.86,458.89,461.759,466.181,468.84,471.609,476.629" svgx:width="0.5,0.5,0.44,0.28,0.39,0.28,0.25,0.5,0.33,0.25,0.28,0.5,0.25,0.5,0.44,0.5,0.44,0.25,0.44,0.5,0.44,0.33,0.5,0.25,0.67,0.5,0.5,0.25,0.44,0.28,0.28,0.5,0.25" style="fill:rgb(0,0,0);font-family:TimesNewRomanPSMT;font-size:9.96px;stroke:none;">goals: 1) to have every C40 city </text>
  </g>
  <g begin="text">
   <text y="214.85" x="479.71,484.74,489.162,494.212,498.634,501.403,506.443,511.363" svgx:width="0.5,0.44,0.5,0.44,0.28,0.5,0.5,0.25" style="fill:rgb(0,0,0);font-family:TimesNewRomanPSMT;font-size:9.96px;stroke:none;">develop </text>
  </g>
  <g begin="text">
   <text y="226.37" x="346.85,351.272,353.762,355.356,359.778,362.547,365.316,373.105,377.527,380.296,384.718,387.208,388.811,393.234,397.686,400.455,403.224,408.234,413.263,415.753,417.337,422.367,425.136,429.558,434.598,437.088,438.671,443.701,448.024,451.37,456.4,459.747,464.169,466.659,468.133,470.902,475.922,480.344,482.834,484.428,488.85,493.9,498.929,501.419,503.003,507.923,511.16" svgx:width="0.44,0.25,0.55,0.44,0.28,0.28,0.78,0.44,0.28,0.44,0.25,0.55,0.44,0.44,0.28,0.28,0.5,0.5,0.25,0.55,0.5,0.28,0.44,0.5,0.25,0.55,0.5,0.44,0.33,0.5,0.33,0.44,0.25,0.55,0.28,0.5,0.44,0.25,0.55,0.44,0.5,0.5,0.25,0.55,0.5,0.33,0.25" style="fill:rgb(0,0,0);font-family:TimesNewRomanPSMT;font-size:9.96px;stroke:none;">a climate action plan before the end of </text>
  </g>
  <g begin="text">
   <text y="237.89" x="346.85,351.88,356.91,361.939,366.86,370.087,373.433,380.624,385.047,389.499,394.529,397.297,400.066,405.076,409.399,412.626,417.656,422.576,427.606,432.636,435.982,438.382,441.61,448.801,453.84,456.609,461.032,465.962,469.069,471.838,475.673,478.9,483.322,488.372,492.794,495.563,498.332,503.362,507.784,511.15" svgx:width="0.5,0.5,0.5,0.5,0.25,0.33,0.72,0.44,0.44,0.5,0.28,0.28,0.5,0.44,0.25,0.5,0.5,0.5,0.5,0.33,0.25,0.25,0.72,0.5,0.28,0.44,0.5,0.25,0.28,0.39,0.25,0.44,0.5,0.44,0.28,0.28,0.5,0.44,0.33,0.25" style="fill:rgb(0,0,0);font-family:TimesNewRomanPSMT;font-size:9.96px;stroke:none;">2020 (Deadline 2020), which is “deliver </text>
  </g>
  <g begin="text">
   <text y="249.29" x="346.85,351.272,355.724,358.493,361.262,366.272,371.302,373.79200000000003,375.615,380.037,384.977,390.007,393.851,396.62,400.455,403.224,407.646,412.686,415.455,417.945,419.757,426.949,429.717,432.486,437.506,439.996,441.819,444.588,449.607,453.93,456.42,458.243,463.273,468.193,470.962,475.384,479.806,482.575,485.344,490.384,494.806,498.68,501.17,502.973,508.003,511.24" svgx:width="0.44,0.44,0.28,0.28,0.5,0.5,0.25,0.55,0.44,0.5,0.5,0.39,0.28,0.39,0.28,0.44,0.5,0.28,0.25,0.55,0.72,0.28,0.28,0.5,0.25,0.55,0.28,0.5,0.44,0.25,0.55,0.5,0.5,0.28,0.44,0.44,0.28,0.28,0.5,0.44,0.39,0.25,0.55,0.5,0.33,0.25" style="fill:rgb(0,0,0);font-family:TimesNewRomanPSMT;font-size:9.96px;stroke:none;">action consistent with the objectives of </text>
  </g>
  <g begin="text">
   <text y="260.81" x="346.85,349.619,354.639,359.061,361.551,364.708,370.246,374.668,378.015,380.784,384.618,387.108,390.246,397.437,402.477,405.823,410.245,414.698,422.486,426.909,431.958,434.727,439.149,441.639,444.787,449.209,454.259,459.289,461.779,464.916,469.946,473.292,475.782,478.92,481.689,486.708,489.19800000000004,492.336,497.366,501.788,506.838,511.16" svgx:width="0.28,0.5,0.44,0.25,0.55,0.56,0.44,0.33,0.28,0.39,0.25,0.55,0.72,0.5,0.33,0.44,0.44,0.78,0.44,0.5,0.28,0.44,0.25,0.55,0.44,0.5,0.5,0.25,0.55,0.5,0.33,0.25,0.55,0.28,0.5,0.25,0.55,0.5,0.44,0.5,0.44,0.25" style="fill:rgb(0,0,0);font-family:TimesNewRomanPSMT;font-size:9.96px;stroke:none;">the Paris Agreement” and 2) to have </text>
  </g>
  <g begin="text">
   <text y="272.33" x="346.85,351.272,354.041,356.81,359.579,364.001,367.876,370.366,374.081,378.503,382.955,387.985,390.754,395.176,400.216,404.638,407.128,410.883,415.305,423.114,425.883,429.827,433.671,436.44,441.46,446.49,450.335,452.825,456.57,461.599,466.151,471.181,473.95,477.286,481.709,484.477,487.246,490.015,495.035,497.52500000000003,501.27,506.3,511.22" svgx:width="0.44,0.28,0.28,0.28,0.44,0.39,0.25,0.55,0.44,0.44,0.5,0.28,0.44,0.5,0.44,0.25,0.55,0.44,0.78,0.28,0.39,0.39,0.28,0.5,0.5,0.39,0.25,0.55,0.5,0.44,0.5,0.28,0.33,0.44,0.28,0.28,0.28,0.5,0.25,0.55,0.5,0.5,0.25" style="fill:rgb(0,0,0);font-family:TimesNewRomanPSMT;font-size:9.96px;stroke:none;">cities achieve emissions neutrality by </text>
  </g>
  <g begin="text">
   <text y="283.85" x="346.85,351.89,356.93,361.97" svgx:width="0.5,0.5,0.5,0.5" style="fill:rgb(0,0,0);font-family:TimesNewRomanPSMT;font-size:9.96px;stroke:none;">2050</text>
  </g>
  <g begin="text">
   <text y="283.85" x="366.89" svgx:width="0.25" style="fill:rgb(0,0,0);font-family:TimesNewRomanPSMT;font-size:9.96px;stroke:none;"> </text>
  </g>
  <g begin="text">
   <text y="180.26" x="535.51,540.54,543.05" svgx:width="0.5,0.25,0.5" style="fill:rgb(0,0,0);font-family:TimesNewRomanPSMT;font-size:9.96px;stroke:none;">1.5</text>
  </g>
  <g begin="text">
   <text y="180.26" x="547.99" svgx:width="0.25" style="fill:rgb(0,0,0);font-family:TimesNewRomanPSMT;font-size:9.96px;stroke:none;"> </text>
  </g>
  <g begin="text">
   <text y="180.26" x="605.47" svgx:width="0.5" style="fill:rgb(0,0,0);font-family:TimesNewRomanPSMT;font-size:9.96px;stroke:none;">3</text>
  </g>
  <g begin="text">
   <text y="180.26" x="610.51" svgx:width="0.25" style="fill:rgb(0,0,0);font-family:TimesNewRomanPSMT;font-size:9.96px;stroke:none;"> </text>
  </g>
  <g begin="text">
   <text y="180.26" x="621.34,627.944,632.973,636.32,639.666,644.089,649.138,651.907" svgx:width="0.67,0.5,0.33,0.33,0.44,0.5,0.28,0.25" style="fill:rgb(0,0,0);font-family:TimesNewRomanPSMT;font-size:9.96px;stroke:none;">Current </text>
  </g>
  <g begin="text">
   <text y="191.81" x="621.34,629.129,633.551,641.36,646.389,650.812,654.178,658.023,663.052,665.821" svgx:width="0.78,0.44,0.78,0.5,0.44,0.33,0.39,0.5,0.28,0.5" style="fill:rgb(0,0,0);font-family:TimesNewRomanPSMT;font-size:9.96px;stroke:none;">membership</text>
  </g>
  <g begin="text">
   <text y="191.81" x="670.78" svgx:width="0.25" style="fill:rgb(0,0,0);font-family:TimesNewRomanPSMT;font-size:9.96px;stroke:none;"> </text>
  </g>
  <path style="fill:rgb(0,0,0);stroke:none;stroke-width:1.0;" d="M72.000 424.420 L72.480 424.420 L72.480 424.900 L72.000 424.900 L72.000 424.420 "/>
  <path style="fill:rgb(0,0,0);stroke:none;stroke-width:1.0;" d="M72.480 424.420 L128.540 424.420 L128.540 424.900 L72.480 424.900 L72.480 424.420 "/>
  <path style="fill:rgb(0,0,0);stroke:none;stroke-width:1.0;" d="M128.540 424.420 L129.020 424.420 L129.020 424.900 L128.540 424.900 L128.540 424.420 "/>
  <path style="fill:rgb(0,0,0);stroke:none;stroke-width:1.0;" d="M129.020 424.420 L185.420 424.420 L185.420 424.900 L129.020 424.900 L129.020 424.420 "/>
  <path style="fill:rgb(0,0,0);stroke:none;stroke-width:1.0;" d="M185.420 424.420 L185.900 424.420 L185.900 424.900 L185.420 424.900 L185.420 424.420 "/>
  <path style="fill:rgb(0,0,0);stroke:none;stroke-width:1.0;" d="M185.900 424.420 L277.360 424.420 L277.360 424.900 L185.900 424.900 L185.900 424.420 "/>
  <path style="fill:rgb(0,0,0);stroke:none;stroke-width:1.0;" d="M277.370 424.420 L277.850 424.420 L277.850 424.900 L277.370 424.900 L277.370 424.420 "/>
  <path style="fill:rgb(0,0,0);stroke:none;stroke-width:1.0;" d="M277.850 424.420 L341.210 424.420 L341.210 424.900 L277.850 424.900 L277.850 424.420 "/>
  <path style="fill:rgb(0,0,0);stroke:none;stroke-width:1.0;" d="M341.210 424.420 L341.690 424.420 L341.690 424.900 L341.210 424.900 L341.210 424.420 "/>
  <path style="fill:rgb(0,0,0);stroke:none;stroke-width:1.0;" d="M516.430 424.420 L516.910 424.420 L516.910 424.900 L516.430 424.900 L516.430 424.420 "/>
  <path style="fill:rgb(0,0,0);stroke:none;stroke-width:1.0;" d="M516.910 424.420 L553.150 424.420 L553.150 424.900 L516.910 424.900 L516.910 424.420 "/>
  <path style="fill:rgb(0,0,0);stroke:none;stroke-width:1.0;" d="M553.150 424.420 L553.630 424.420 L553.630 424.900 L553.150 424.900 L553.150 424.420 "/>
  <path style="fill:rgb(0,0,0);stroke:none;stroke-width:1.0;" d="M553.630 424.420 L615.670 424.420 L615.670 424.900 L553.630 424.900 L553.630 424.420 "/>
  <path style="fill:rgb(0,0,0);stroke:none;stroke-width:1.0;" d="M615.670 424.420 L616.150 424.420 L616.150 424.900 L615.670 424.900 L615.670 424.420 "/>
  <path style="fill:rgb(0,0,0);stroke:none;stroke-width:1.0;" d="M616.150 424.420 L688.530 424.420 L688.530 424.900 L616.150 424.900 L616.150 424.420 "/>
  <path style="fill:rgb(0,0,0);stroke:none;stroke-width:1.0;" d="M688.540 424.420 L689.020 424.420 L689.020 424.900 L688.540 424.900 L688.540 424.420 "/>
  <g begin="text">
   <text y="295.85" x="77.64,84.831,89.871,93.217,95.986,100.409,105.448,108.217,110.986,115.996" svgx:width="0.72,0.5,0.33,0.28,0.44,0.5,0.28,0.28,0.5,0.33" style="fill:rgb(0,0,0);font-family:TimesNewRomanPSMT;font-size:9.96px;stroke:none;">Agricultur</text>
  </g>
  <g begin="text">
   <text y="307.37" x="77.64" svgx:width="0.44" style="fill:rgb(0,0,0);font-family:TimesNewRomanPSMT;font-size:9.96px;stroke:none;">e</text>
  </g>
  <g begin="text">
   <text y="307.37" x="82.08" svgx:width="0.25" style="fill:rgb(0,0,0);font-family:TimesNewRomanPSMT;font-size:9.96px;stroke:none;"> </text>
  </g>
  <g begin="text">
   <text y="295.85" x="134.06,140.664,145.693,149.538,152.307,157.327,161.749,165.623,169.448" svgx:width="0.67,0.5,0.39,0.28,0.5,0.44,0.39,0.39,0.25" style="fill:rgb(0,0,0);font-family:TimesNewRomanPSMT;font-size:9.96px;stroke:none;">Business </text>
  </g>
  <g begin="text">
   <text y="295.85" x="172.1" svgx:width="0.25" style="fill:rgb(0,0,0);font-family:TimesNewRomanPSMT;font-size:9.96px;stroke:none;"> </text>
  </g>
  <g begin="text">
   <text y="295.85" x="191.06,197.664,200.432,203.201,210.97,215.392,218.161,222.583,225.073,248.161,253.698,261.467,265.889,269.256,272.124" svgx:width="0.67,0.28,0.28,0.78,0.44,0.28,0.44,0.25,0.55,0.56,0.78,0.44,0.33,0.28,0.25" style="fill:rgb(0,0,0);font-family:TimesNewRomanPSMT;font-size:9.96px;stroke:none;">Climate Smart </text>
  </g>
  <g begin="text">
   <text y="307.37" x="191.06,198.251,203.291,206.637,209.406,213.829,218.868,221.637,224.406,229.416,232.763,237.185,239.675,246.069,249.416,256.019,261.557,268.748,272.085" svgx:width="0.72,0.5,0.33,0.28,0.44,0.5,0.28,0.28,0.5,0.33,0.44,0.25,0.55,0.33,0.67,0.56,0.72,0.33,0.25" style="fill:rgb(0,0,0);font-family:TimesNewRomanPSMT;font-size:9.96px;stroke:none;">Agriculture (CSA) </text>
  </g>
  <g begin="text">
   <text y="318.91" x="191.06,197.165,203.769,209.874,215.412,218.181" svgx:width="0.61,0.67,0.61,0.56,0.28,0.25" style="fill:rgb(0,0,0);font-family:TimesNewRomanPSMT;font-size:9.96px;stroke:none;">LCTPi </text>
  </g>
  <g begin="text">
   <text y="315.43" x="220.7,223.94" svgx:width="0.5,0.33" style="fill:rgb(0,0,0);font-family:TimesNewRomanPSMT;font-size:6.48px;stroke:none;">1)</text>
  </g>
  <g begin="text">
   <text y="318.91" x="226.22" svgx:width="0.25" style="fill:rgb(0,0,0);font-family:TimesNewRomanPSMT;font-size:9.96px;stroke:none;"> </text>
  </g>
  <g begin="text">
   <text y="295.85" x="283.01,290.201,292.97,298.0,303.03,307.452" svgx:width="0.72,0.28,0.5,0.5,0.44,0.28" style="fill:rgb(0,0,0);font-family:TimesNewRomanPSMT;font-size:9.96px;stroke:none;">Global</text>
  </g>
  <g begin="text">
   <text y="295.85" x="310.25" svgx:width="0.25" style="fill:rgb(0,0,0);font-family:TimesNewRomanPSMT;font-size:9.96px;stroke:none;"> </text>
  </g>
  <g begin="text">
   <text y="295.85" x="346.85,353.454,357.876,362.925,367.955,372.378,375.146,380.186,385.216,387.706,395.764,400.186,405.236,408.582,411.351,415.773,420.813,423.582,426.351,431.361,434.707,439.13,441.898,444.38800000000003,452.456,456.878,461.818,466.739,469.229,477.286,480.055,484.477,489.517" svgx:width="0.67,0.44,0.5,0.5,0.44,0.28,0.5,0.5,0.25,0.55,0.44,0.5,0.33,0.28,0.44,0.5,0.28,0.28,0.5,0.33,0.44,0.28,0.25,0.55,0.44,0.5,0.5,0.25,0.55,0.28,0.44,0.5,0.5" style="fill:rgb(0,0,0);font-family:TimesNewRomanPSMT;font-size:9.96px;stroke:none;">Reducing agricultural and land</text>
  </g>
  <g begin="text">
   <text y="295.85" x="494.71" svgx:width="0.33" style="fill:rgb(0,0,0);font-family:TimesNewRomanPSMT;font-size:9.96px;stroke:none;">-</text>
  </g>
  <g begin="text">
   <text y="295.85" x="498.07,503.1,506.944,511.367" svgx:width="0.5,0.39,0.44,0.25" style="fill:rgb(0,0,0);font-family:TimesNewRomanPSMT;font-size:9.96px;stroke:none;">use </text>
  </g>
  <g begin="text">
   <text y="307.37" x="346.85,351.272,356.322,360.744,365.794,370.824,375.246,377.736,378.612,383.035,390.843,393.612,397.447,401.292,404.06,409.08,414.11,417.955,420.445,421.301,424.648,427.994,433.024,440.813,443.303,444.159,448.482,453.512,456.858,459.627,464.049,468.98,471.749,474.517,479.527,482.874,487.296,489.786,490.663,495.692,500.722,503.212,504.069,508.491,511.15" svgx:width="0.44,0.5,0.44,0.5,0.5,0.44,0.25,0.55,0.44,0.78,0.28,0.39,0.39,0.28,0.5,0.5,0.39,0.25,0.55,0.33,0.33,0.5,0.78,0.25,0.55,0.44,0.5,0.33,0.28,0.44,0.5,0.28,0.28,0.5,0.33,0.44,0.25,0.55,0.5,0.5,0.25,0.55,0.44,0.28,0.25" style="fill:rgb(0,0,0);font-family:TimesNewRomanPSMT;font-size:9.96px;stroke:none;">change emissions from agriculture by at </text>
  </g>
  <g begin="text">
   <text y="318.91" x="346.85,349.619,354.041,358.463,362.338,365.107,367.955,372.985,378.015,386.312,389.16,394.19,399.11,401.979,407.008,411.929,416.959,421.988,424.857,429.18,434.209,439.13,441.998,447.028,452.058,460.354,463.083,468.004,473.034,475.902,480.932,485.852,490.882,495.912,498.312,501.18,506.21,511.131" svgx:width="0.28,0.44,0.44,0.39,0.28,0.25,0.5,0.5,0.83,0.25,0.5,0.5,0.25,0.5,0.5,0.5,0.5,0.25,0.44,0.5,0.5,0.25,0.5,0.5,0.83,0.25,0.5,0.5,0.25,0.5,0.5,0.5,0.5,0.25,0.25,0.5,0.5,0.25" style="fill:rgb(0,0,0);font-family:TimesNewRomanPSMT;font-size:9.96px;stroke:none;">least 50% by 2030 and 65% by 2050. 24 </text>
  </g>
  <g begin="text">
   <text y="330.31" x="346.85,351.272,356.322,364.111,369.141,373.563,378.612,381.381,385.804,389.678,392.168,396.59,401.64,406.56,409.07,414.1,419.13,421.53,426.56,430.982,434.349,437.118,442.137,446.56,449.926" svgx:width="0.44,0.5,0.78,0.5,0.44,0.5,0.28,0.44,0.39,0.25,0.44,0.5,0.5,0.25,0.5,0.5,0.25,0.5,0.44,0.33,0.28,0.5,0.44,0.33,0.39" style="fill:rgb(0,0,0);font-family:TimesNewRomanPSMT;font-size:9.96px;stroke:none;">companies and 15 partners</text>
  </g>
  <g begin="text">
   <text y="330.31" x="453.79" svgx:width="0.25" style="fill:rgb(0,0,0);font-family:TimesNewRomanPSMT;font-size:9.96px;stroke:none;"> </text>
  </g>
  <g begin="text">
   <text y="295.85" x="535.51,540.54,543.05" svgx:width="0.5,0.25,0.5" style="fill:rgb(0,0,0);font-family:TimesNewRomanPSMT;font-size:9.96px;stroke:none;">3.7</text>
  </g>
  <g begin="text">
   <text y="295.85" x="547.99" svgx:width="0.25" style="fill:rgb(0,0,0);font-family:TimesNewRomanPSMT;font-size:9.96px;stroke:none;"> </text>
  </g>
  <g begin="text">
   <text y="295.85" x="598.03,603.06,605.57" svgx:width="0.5,0.25,0.5" style="fill:rgb(0,0,0);font-family:TimesNewRomanPSMT;font-size:9.96px;stroke:none;">3.7</text>
  </g>
  <g begin="text">
   <text y="295.85" x="610.51" svgx:width="0.25" style="fill:rgb(0,0,0);font-family:TimesNewRomanPSMT;font-size:9.96px;stroke:none;"> </text>
  </g>
  <g begin="text">
   <text y="295.85" x="621.34,626.878,631.3,635.722,638.491,642.913" svgx:width="0.56,0.44,0.44,0.28,0.44,0.5" style="fill:rgb(0,0,0);font-family:TimesNewRomanPSMT;font-size:9.96px;stroke:none;">Scaled</text>
  </g>
  <g begin="text">
   <text y="295.85" x="647.98" svgx:width="0.33" style="fill:rgb(0,0,0);font-family:TimesNewRomanPSMT;font-size:9.96px;stroke:none;">-</text>
  </g>
  <g begin="text">
   <text y="295.85" x="651.34,656.38,661.42" svgx:width="0.5,0.5,0.25" style="fill:rgb(0,0,0);font-family:TimesNewRomanPSMT;font-size:9.96px;stroke:none;">up </text>
  </g>
  <g begin="text">
   <text y="307.37" x="621.34,626.37,629.139,634.158,639.188,643.61,646.379,648.431,653.351,658.381,661.15,665.572,670.612,673.381,676.15,680.572" svgx:width="0.5,0.28,0.5,0.5,0.44,0.28,0.25,0.5,0.5,0.28,0.44,0.5,0.28,0.28,0.44,0.28" style="fill:rgb(0,0,0);font-family:TimesNewRomanPSMT;font-size:9.96px;stroke:none;">global potential</text>
  </g>
  <g begin="text">
   <text y="307.37" x="683.38" svgx:width="0.25" style="fill:rgb(0,0,0);font-family:TimesNewRomanPSMT;font-size:9.96px;stroke:none;"> </text>
  </g>
  <path style="fill:rgb(0,0,0);stroke:none;stroke-width:1.0;" d="M72.480 262.850 L128.420 262.850 L128.420 308.830 L72.480 308.830 L72.480 262.850 M72.480 262.850 L128.420 262.850 L128.420 308.830 L72.480 308.830 L72.480 262.850 M72.480 262.850 L128.420 262.850 L128.420 308.830 L72.480 308.830 L72.480 262.850 M72.480 262.850 L128.420 262.850 L128.420 308.830 L72.480 308.830 L72.480 262.850 M129.020 262.850 L185.420 262.850 L185.420 308.830 L129.020 308.830 L129.020 262.850 M129.020 262.850 L185.420 262.850 L185.420 308.830 L129.020 308.830 L129.020 262.850 M129.020 262.850 L185.420 262.850 L185.420 308.830 L129.020 308.830 L129.020 262.850 M185.900 262.850 L277.360 262.850 L277.360 308.830 L185.900 308.830 L185.900 262.850 M185.900 262.850 L277.360 262.850 L277.360 308.830 L185.900 308.830 L185.900 262.850 M185.900 262.850 L277.360 262.850 L277.360 308.830 L185.900 308.830 L185.900 262.850 M185.900 262.850 L277.360 262.850 L277.360 308.830 L185.900 308.830 L185.900 262.850 M185.900 262.850 L277.360 262.850 L277.360 308.830 L185.900 308.830 L185.900 262.850 M185.900 262.850 L277.360 262.850 L277.360 308.830 L185.900 308.830 L185.900 262.850 M277.850 262.850 L341.210 262.850 L341.210 308.830 L277.850 308.830 L277.850 262.850 M277.850 262.850 L341.210 262.850 L341.210 308.830 L277.850 308.830 L277.850 262.850 M277.850 262.850 L341.210 262.850 L341.210 308.830 L277.850 308.830 L277.850 262.850 M516.910 262.850 L553.150 262.850 L553.150 308.830 L516.910 308.830 L516.910 262.850 M516.910 262.850 L553.150 262.850 L553.150 308.830 L516.910 308.830 L516.910 262.850 M516.910 262.850 L553.150 262.850 L553.150 308.830 L516.910 308.830 L516.910 262.850 M553.630 262.850 L615.670 262.850 L615.670 308.830 L553.630 308.830 L553.630 262.850 M553.630 262.850 L615.670 262.850 L615.670 308.830 L553.630 308.830 L553.630 262.850 M553.630 262.850 L615.670 262.850 L615.670 308.830 L553.630 308.830 L553.630 262.850 M616.150 262.850 L688.530 262.850 L688.530 308.830 L616.150 308.830 L616.150 262.850 M616.150 262.850 L688.530 262.850 L688.530 308.830 L616.150 308.830 L616.150 262.850 M616.150 262.850 L688.530 262.850 L688.530 308.830 L616.150 308.830 L616.150 262.850 M616.150 262.850 L688.530 262.850 L688.530 308.830 L616.150 308.830 L616.150 262.850 M616.150 262.850 L688.530 262.850 L688.530 308.830 L616.150 308.830 L616.150 262.850 M616.150 262.850 L688.530 262.850 L688.530 308.830 L616.150 308.830 L616.150 262.850 M72.000 308.830 L72.480 308.830 L72.480 309.310 L72.000 309.310 L72.000 308.830 "/>
  <path style="fill:rgb(0,0,0);stroke:none;stroke-width:1.0;" d="M72.480 308.830 L128.540 308.830 L128.540 309.310 L72.480 309.310 L72.480 308.830 "/>
  <path style="fill:rgb(0,0,0);stroke:none;stroke-width:1.0;" d="M128.540 308.830 L129.020 308.830 L129.020 309.310 L128.540 309.310 L128.540 308.830 "/>
  <path style="fill:rgb(0,0,0);stroke:none;stroke-width:1.0;" d="M129.020 308.830 L185.420 308.830 L185.420 309.310 L129.020 309.310 L129.020 308.830 "/>
  <path style="fill:rgb(0,0,0);stroke:none;stroke-width:1.0;" d="M185.420 308.830 L185.900 308.830 L185.900 309.310 L185.420 309.310 L185.420 308.830 "/>
  <path style="fill:rgb(0,0,0);stroke:none;stroke-width:1.0;" d="M185.900 308.830 L277.360 308.830 L277.360 309.310 L185.900 309.310 L185.900 308.830 "/>
  <path style="fill:rgb(0,0,0);stroke:none;stroke-width:1.0;" d="M277.370 308.830 L277.850 308.830 L277.850 309.310 L277.370 309.310 L277.370 308.830 "/>
  <path style="fill:rgb(0,0,0);stroke:none;stroke-width:1.0;" d="M277.850 308.830 L341.210 308.830 L341.210 309.310 L277.850 309.310 L277.850 308.830 "/>
  <path style="fill:rgb(0,0,0);stroke:none;stroke-width:1.0;" d="M341.210 308.830 L341.690 308.830 L341.690 309.310 L341.210 309.310 L341.210 308.830 "/>
  <path style="fill:rgb(0,0,0);stroke:none;stroke-width:1.0;" d="M516.430 308.830 L516.910 308.830 L516.910 309.310 L516.430 309.310 L516.430 308.830 "/>
  <path style="fill:rgb(0,0,0);stroke:none;stroke-width:1.0;" d="M516.910 308.830 L553.150 308.830 L553.150 309.310 L516.910 309.310 L516.910 308.830 "/>
  <path style="fill:rgb(0,0,0);stroke:none;stroke-width:1.0;" d="M553.150 308.830 L553.630 308.830 L553.630 309.310 L553.150 309.310 L553.150 308.830 "/>
  <path style="fill:rgb(0,0,0);stroke:none;stroke-width:1.0;" d="M553.630 308.830 L615.670 308.830 L615.670 309.310 L553.630 309.310 L553.630 308.830 "/>
  <path style="fill:rgb(0,0,0);stroke:none;stroke-width:1.0;" d="M615.670 308.830 L616.150 308.830 L616.150 309.310 L615.670 309.310 L615.670 308.830 "/>
  <path style="fill:rgb(0,0,0);stroke:none;stroke-width:1.0;" d="M616.150 308.830 L688.530 308.830 L688.530 309.310 L616.150 309.310 L616.150 308.830 "/>
  <path style="fill:rgb(0,0,0);stroke:none;stroke-width:1.0;" d="M688.540 308.830 L689.020 308.830 L689.020 309.310 L688.540 309.310 L688.540 308.830 "/>
  <path style="fill:rgb(0,0,0);stroke:none;stroke-width:1.0;" d="M72.000 262.850 L72.480 262.850 L72.480 308.830 L72.000 308.830 L72.000 262.850 "/>
  <path style="fill:rgb(0,0,0);stroke:none;stroke-width:1.0;" d="M128.540 262.850 L129.020 262.850 L129.020 308.830 L128.540 308.830 L128.540 262.850 "/>
  <path style="fill:rgb(0,0,0);stroke:none;stroke-width:1.0;" d="M185.420 262.850 L185.900 262.850 L185.900 308.830 L185.420 308.830 L185.420 262.850 "/>
  <path style="fill:rgb(0,0,0);stroke:none;stroke-width:1.0;" d="M277.370 262.850 L277.850 262.850 L277.850 308.830 L277.370 308.830 L277.370 262.850 "/>
  <path style="fill:rgb(0,0,0);stroke:none;stroke-width:1.0;" d="M341.210 262.850 L341.690 262.850 L341.690 308.830 L341.210 308.830 L341.210 262.850 "/>
  <path style="fill:rgb(0,0,0);stroke:none;stroke-width:1.0;" d="M516.430 262.850 L516.910 262.850 L516.910 308.830 L516.430 308.830 L516.430 262.850 "/>
  <path style="fill:rgb(0,0,0);stroke:none;stroke-width:1.0;" d="M553.150 262.850 L553.630 262.850 L553.630 308.830 L553.150 308.830 L553.150 262.850 "/>
  <path style="fill:rgb(0,0,0);stroke:none;stroke-width:1.0;" d="M615.670 262.850 L616.150 262.850 L616.150 308.830 L615.670 308.830 L615.670 262.850 "/>
  <path style="fill:rgb(0,0,0);stroke:none;stroke-width:1.0;" d="M688.540 262.850 L689.020 262.850 L689.020 308.830 L688.540 308.830 L688.540 262.850 "/>
  <g begin="text">
   <text y="342.31" x="77.64,86.494,91.554,94.323,97.092,99.861,103.675,108.098,112.55,115.319" svgx:width="0.89,0.5,0.28,0.28,0.28,0.39,0.44,0.44,0.28,0.5" style="fill:rgb(0,0,0);font-family:TimesNewRomanPSMT;font-size:9.96px;stroke:none;">Multisecto</text>
  </g>
  <g begin="text">
   <text y="353.83" x="77.64,80.987,85.409" svgx:width="0.33,0.44,0.28" style="fill:rgb(0,0,0);font-family:TimesNewRomanPSMT;font-size:9.96px;stroke:none;">ral</text>
  </g>
  <g begin="text">
   <text y="353.83" x="88.224" svgx:width="0.25" style="fill:rgb(0,0,0);font-family:TimesNewRomanPSMT;font-size:9.96px;stroke:none;"> </text>
  </g>
  <g begin="text">
   <text y="342.31" x="134.06,140.664,145.693,149.538,152.307,157.327,161.749,165.623,169.448" svgx:width="0.67,0.5,0.39,0.28,0.5,0.44,0.39,0.39,0.25" style="fill:rgb(0,0,0);font-family:TimesNewRomanPSMT;font-size:9.96px;stroke:none;">Business </text>
  </g>
  <g begin="text">
   <text y="342.31" x="172.1" svgx:width="0.25" style="fill:rgb(0,0,0);font-family:TimesNewRomanPSMT;font-size:9.96px;stroke:none;"> </text>
  </g>
  <g begin="text">
   <text y="342.31" x="191.06,196.598,201.02,203.789,208.211,213.251,217.673,222.125,224.615,247.673,254.276,258.698,262.573,266.995,272.144" svgx:width="0.56,0.44,0.28,0.44,0.5,0.44,0.44,0.25,0.55,0.67,0.44,0.39,0.44,0.5,0.25" style="fill:rgb(0,0,0);font-family:TimesNewRomanPSMT;font-size:9.96px;stroke:none;">Science Based </text>
  </g>
  <g begin="text">
   <text y="353.83" x="191.06,197.165,201.588,204.954,209.984,214.406,217.175,221.05,223.54000000000002,236.617,239.386,244.406,247.175,249.943,252.712,257.135,259.903,262.672,267.672,272.095" svgx:width="0.61,0.44,0.33,0.5,0.44,0.28,0.39,0.25,0.55,0.28,0.5,0.28,0.28,0.28,0.44,0.28,0.28,0.5,0.44,0.25" style="fill:rgb(0,0,0);font-family:TimesNewRomanPSMT;font-size:9.96px;stroke:none;">Targets initiative </text>
  </g>
  <g begin="text">
   <text y="365.35" x="191.06,194.407,199.944,206.528,212.633,215.402" svgx:width="0.33,0.56,0.67,0.61,0.28,0.33" style="fill:rgb(0,0,0);font-family:TimesNewRomanPSMT;font-size:9.96px;stroke:none;">(SBTi)</text>
  </g>
  <g begin="text">
   <text y="365.35" x="218.9" svgx:width="0.25" style="fill:rgb(0,0,0);font-family:TimesNewRomanPSMT;font-size:9.96px;stroke:none;"> </text>
  </g>
  <g begin="text">
   <text y="342.31" x="283.01,290.201,292.97,298.0,303.03,307.452" svgx:width="0.72,0.28,0.5,0.5,0.44,0.28" style="fill:rgb(0,0,0);font-family:TimesNewRomanPSMT;font-size:9.96px;stroke:none;">Global</text>
  </g>
  <g begin="text">
   <text y="342.31" x="310.25" svgx:width="0.25" style="fill:rgb(0,0,0);font-family:TimesNewRomanPSMT;font-size:9.96px;stroke:none;"> </text>
  </g>
  <g begin="text">
   <text y="342.31" x="346.85,353.454,358.483,361.352,366.382,371.411,376.441,381.471,383.981,386.849,391.879,394.28,399.309,404.339,409.369,412.237,416.66,421.6,429.389,434.418,438.841,443.89,446.659,451.082,454.956,457.805,462.834,467.157,472.187,476.609,479.497,483.92,488.969,493.999,499.029,501.798,506.22,511.15" svgx:width="0.67,0.5,0.25,0.5,0.5,0.5,0.5,0.25,0.25,0.5,0.25,0.5,0.5,0.5,0.25,0.44,0.5,0.78,0.5,0.44,0.5,0.28,0.44,0.39,0.25,0.5,0.44,0.5,0.44,0.25,0.44,0.5,0.5,0.5,0.28,0.44,0.5,0.25" style="fill:rgb(0,0,0);font-family:TimesNewRomanPSMT;font-size:9.96px;stroke:none;">By 2030, 2,000 companies have adopted </text>
  </g>
  <g begin="text">
   <text y="353.83" x="346.85,351.272,353.922,357.766,362.188,364.957,369.38,374.439,378.862" svgx:width="0.44,0.25,0.39,0.44,0.28,0.44,0.5,0.44,0.44" style="fill:rgb(0,0,0);font-family:TimesNewRomanPSMT;font-size:9.96px;stroke:none;">a science</text>
  </g>
  <g begin="text">
   <text y="353.83" x="383.33" svgx:width="0.33" style="fill:rgb(0,0,0);font-family:TimesNewRomanPSMT;font-size:9.96px;stroke:none;">-</text>
  </g>
  <g begin="text">
   <text y="353.83" x="386.69" svgx:width="0.25" style="fill:rgb(0,0,0);font-family:TimesNewRomanPSMT;font-size:9.96px;stroke:none;"> </text>
  </g>
  <g begin="text">
   <text y="353.83" x="389.33,394.36,398.782,402.656,407.079,412.109,414.738,417.507,421.929,425.286,430.315,434.738,437.507,440.146,442.915,447.935,450.564,453.333,456.102,461.112,465.534,468.064,475.255,478.024,480.793,485.813,488.442,492.864,495.514,500.543,504.527,511.211" svgx:width="0.5,0.44,0.39,0.44,0.5,0.25,0.28,0.44,0.33,0.5,0.44,0.28,0.25,0.28,0.5,0.25,0.28,0.28,0.5,0.44,0.25,0.72,0.28,0.28,0.5,0.25,0.44,0.25,0.5,0.4,0.67,0.25" style="fill:rgb(0,0,0);font-family:TimesNewRomanPSMT;font-size:9.96px;stroke:none;">based target in line with a 2°C </text>
  </g>
  <g begin="text">
   <text y="365.35" x="346.85,349.619,354.041,361.84,366.87,371.292,374.658,379.081,381.849,386.889,390.236,394.658,397.078,402.108,407.138,411.56" svgx:width="0.28,0.44,0.78,0.5,0.44,0.33,0.44,0.28,0.5,0.33,0.44,0.25,0.5,0.5,0.44,0.28" style="fill:rgb(0,0,0);font-family:TimesNewRomanPSMT;font-size:9.96px;stroke:none;">temperature goal</text>
  </g>
  <g begin="text">
   <text y="365.35" x="414.29" svgx:width="0.25" style="fill:rgb(0,0,0);font-family:TimesNewRomanPSMT;font-size:9.96px;stroke:none;"> </text>
  </g>
  <g begin="text">
   <text y="342.31" x="535.51,540.54,543.05" svgx:width="0.5,0.25,0.5" style="fill:rgb(0,0,0);font-family:TimesNewRomanPSMT;font-size:9.96px;stroke:none;">2.7</text>
  </g>
  <g begin="text">
   <text y="342.31" x="547.99" svgx:width="0.25" style="fill:rgb(0,0,0);font-family:TimesNewRomanPSMT;font-size:9.96px;stroke:none;"> </text>
  </g>
  <g begin="text">
   <text y="342.31" x="598.03,603.06,605.57" svgx:width="0.5,0.25,0.5" style="fill:rgb(0,0,0);font-family:TimesNewRomanPSMT;font-size:9.96px;stroke:none;">2.7</text>
  </g>
  <g begin="text">
   <text y="342.31" x="610.51" svgx:width="0.25" style="fill:rgb(0,0,0);font-family:TimesNewRomanPSMT;font-size:9.96px;stroke:none;"> </text>
  </g>
  <g begin="text">
   <text y="342.31" x="621.34,627.445,631.868,635.234,640.264,644.686,647.455,651.877,656.937" svgx:width="0.61,0.44,0.33,0.5,0.44,0.28,0.44,0.5,0.25" style="fill:rgb(0,0,0);font-family:TimesNewRomanPSMT;font-size:9.96px;stroke:none;">Targeted </text>
  </g>
  <g begin="text">
   <text y="353.83" x="621.34,629.129,633.551,641.36,646.389,650.812,654.178,658.023,663.052,665.821,670.841" svgx:width="0.78,0.44,0.78,0.5,0.44,0.33,0.39,0.5,0.28,0.5,0.25" style="fill:rgb(0,0,0);font-family:TimesNewRomanPSMT;font-size:9.96px;stroke:none;">membership </text>
  </g>
  <g begin="text">
   <text y="353.83" x="673.3" svgx:width="0.25" style="fill:rgb(0,0,0);font-family:TimesNewRomanPSMT;font-size:9.96px;stroke:none;"> </text>
  </g>
  <path style="fill:rgb(0,0,0);stroke:none;stroke-width:1.0;" d="M72.480 227.810 L128.420 227.810 L128.420 262.370 L72.480 262.370 L72.480 227.810 M72.480 227.810 L128.420 227.810 L128.420 262.370 L72.480 262.370 L72.480 227.810 M72.480 227.810 L128.420 227.810 L128.420 262.370 L72.480 262.370 L72.480 227.810 M72.480 227.810 L128.420 227.810 L128.420 262.370 L72.480 262.370 L72.480 227.810 M129.020 227.810 L185.420 227.810 L185.420 262.370 L129.020 262.370 L129.020 227.810 M129.020 227.810 L185.420 227.810 L185.420 262.370 L129.020 262.370 L129.020 227.810 M129.020 227.810 L185.420 227.810 L185.420 262.370 L129.020 262.370 L129.020 227.810 M185.900 227.810 L277.360 227.810 L277.360 262.370 L185.900 262.370 L185.900 227.810 M185.900 227.810 L277.360 227.810 L277.360 262.370 L185.900 262.370 L185.900 227.810 M185.900 227.810 L277.360 227.810 L277.360 262.370 L185.900 262.370 L185.900 227.810 M185.900 227.810 L277.360 227.810 L277.360 262.370 L185.900 262.370 L185.900 227.810 M185.900 227.810 L277.360 227.810 L277.360 262.370 L185.900 262.370 L185.900 227.810 M277.850 227.810 L341.210 227.810 L341.210 262.370 L277.850 262.370 L277.850 227.810 M277.850 227.810 L341.210 227.810 L341.210 262.370 L277.850 262.370 L277.850 227.810 M277.850 227.810 L341.210 227.810 L341.210 262.370 L277.850 262.370 L277.850 227.810 M516.910 227.810 L553.150 227.810 L553.150 262.370 L516.910 262.370 L516.910 227.810 M516.910 227.810 L553.150 227.810 L553.150 262.370 L516.910 262.370 L516.910 227.810 M516.910 227.810 L553.150 227.810 L553.150 262.370 L516.910 262.370 L516.910 227.810 M553.630 227.810 L615.670 227.810 L615.670 262.370 L553.630 262.370 L553.630 227.810 M553.630 227.810 L615.670 227.810 L615.670 262.370 L553.630 262.370 L553.630 227.810 M553.630 227.810 L615.670 227.810 L615.670 262.370 L553.630 262.370 L553.630 227.810 M616.150 227.810 L688.530 227.810 L688.530 262.370 L616.150 262.370 L616.150 227.810 M616.150 227.810 L688.530 227.810 L688.530 262.370 L616.150 262.370 L616.150 227.810 M616.150 227.810 L688.530 227.810 L688.530 262.370 L616.150 262.370 L616.150 227.810 M616.150 227.810 L688.530 227.810 L688.530 262.370 L616.150 262.370 L616.150 227.810 M72.000 262.370 L72.480 262.370 L72.480 262.850 L72.000 262.850 L72.000 262.370 "/>
  <path style="fill:rgb(0,0,0);stroke:none;stroke-width:1.0;" d="M72.480 262.370 L128.540 262.370 L128.540 262.850 L72.480 262.850 L72.480 262.370 "/>
  <path style="fill:rgb(0,0,0);stroke:none;stroke-width:1.0;" d="M128.540 262.370 L129.020 262.370 L129.020 262.850 L128.540 262.850 L128.540 262.370 "/>
  <path style="fill:rgb(0,0,0);stroke:none;stroke-width:1.0;" d="M129.020 262.370 L185.420 262.370 L185.420 262.850 L129.020 262.850 L129.020 262.370 "/>
  <path style="fill:rgb(0,0,0);stroke:none;stroke-width:1.0;" d="M185.420 262.370 L185.900 262.370 L185.900 262.850 L185.420 262.850 L185.420 262.370 "/>
  <path style="fill:rgb(0,0,0);stroke:none;stroke-width:1.0;" d="M185.900 262.370 L277.360 262.370 L277.360 262.850 L185.900 262.850 L185.900 262.370 "/>
  <path style="fill:rgb(0,0,0);stroke:none;stroke-width:1.0;" d="M277.370 262.370 L277.850 262.370 L277.850 262.850 L277.370 262.850 L277.370 262.370 "/>
  <path style="fill:rgb(0,0,0);stroke:none;stroke-width:1.0;" d="M277.850 262.370 L341.210 262.370 L341.210 262.850 L277.850 262.850 L277.850 262.370 "/>
  <path style="fill:rgb(0,0,0);stroke:none;stroke-width:1.0;" d="M341.210 262.370 L341.690 262.370 L341.690 262.850 L341.210 262.850 L341.210 262.370 "/>
  <path style="fill:rgb(0,0,0);stroke:none;stroke-width:1.0;" d="M516.430 262.370 L516.910 262.370 L516.910 262.850 L516.430 262.850 L516.430 262.370 "/>
  <path style="fill:rgb(0,0,0);stroke:none;stroke-width:1.0;" d="M516.910 262.370 L553.150 262.370 L553.150 262.850 L516.910 262.850 L516.910 262.370 "/>
  <path style="fill:rgb(0,0,0);stroke:none;stroke-width:1.0;" d="M553.150 262.370 L553.630 262.370 L553.630 262.850 L553.150 262.850 L553.150 262.370 "/>
  <path style="fill:rgb(0,0,0);stroke:none;stroke-width:1.0;" d="M553.630 262.370 L615.670 262.370 L615.670 262.850 L553.630 262.850 L553.630 262.370 "/>
  <path style="fill:rgb(0,0,0);stroke:none;stroke-width:1.0;" d="M615.670 262.370 L616.150 262.370 L616.150 262.850 L615.670 262.850 L615.670 262.370 "/>
  <path style="fill:rgb(0,0,0);stroke:none;stroke-width:1.0;" d="M616.150 262.370 L688.530 262.370 L688.530 262.850 L616.150 262.850 L616.150 262.370 "/>
  <path style="fill:rgb(0,0,0);stroke:none;stroke-width:1.0;" d="M688.540 262.370 L689.020 262.370 L689.020 262.850 L688.540 262.850 L688.540 262.370 "/>
  <path style="fill:rgb(0,0,0);stroke:none;stroke-width:1.0;" d="M72.000 227.810 L72.480 227.810 L72.480 262.370 L72.000 262.370 L72.000 227.810 "/>
  <path style="fill:rgb(0,0,0);stroke:none;stroke-width:1.0;" d="M72.000 227.330 L72.480 227.330 L72.480 227.810 L72.000 227.810 L72.000 227.330 "/>
  <path style="fill:rgb(0,0,0);stroke:none;stroke-width:1.0;" d="M72.000 227.330 L72.480 227.330 L72.480 227.810 L72.000 227.810 L72.000 227.330 "/>
  <path style="fill:rgb(0,0,0);stroke:none;stroke-width:1.0;" d="M72.480 227.330 L128.540 227.330 L128.540 227.810 L72.480 227.810 L72.480 227.330 "/>
  <path style="fill:rgb(0,0,0);stroke:none;stroke-width:1.0;" d="M128.540 227.810 L129.020 227.810 L129.020 262.370 L128.540 262.370 L128.540 227.810 "/>
  <path style="fill:rgb(0,0,0);stroke:none;stroke-width:1.0;" d="M128.540 227.330 L129.020 227.330 L129.020 227.810 L128.540 227.810 L128.540 227.330 "/>
  <path style="fill:rgb(0,0,0);stroke:none;stroke-width:1.0;" d="M129.020 227.330 L185.420 227.330 L185.420 227.810 L129.020 227.810 L129.020 227.330 "/>
  <path style="fill:rgb(0,0,0);stroke:none;stroke-width:1.0;" d="M185.420 227.810 L185.900 227.810 L185.900 262.370 L185.420 262.370 L185.420 227.810 "/>
  <path style="fill:rgb(0,0,0);stroke:none;stroke-width:1.0;" d="M185.420 227.330 L185.900 227.330 L185.900 227.810 L185.420 227.810 L185.420 227.330 "/>
  <path style="fill:rgb(0,0,0);stroke:none;stroke-width:1.0;" d="M185.900 227.330 L277.360 227.330 L277.360 227.810 L185.900 227.810 L185.900 227.330 "/>
  <path style="fill:rgb(0,0,0);stroke:none;stroke-width:1.0;" d="M277.370 227.810 L277.850 227.810 L277.850 262.370 L277.370 262.370 L277.370 227.810 "/>
  <path style="fill:rgb(0,0,0);stroke:none;stroke-width:1.0;" d="M277.370 227.330 L277.850 227.330 L277.850 227.810 L277.370 227.810 L277.370 227.330 "/>
  <path style="fill:rgb(0,0,0);stroke:none;stroke-width:1.0;" d="M277.850 227.330 L341.210 227.330 L341.210 227.810 L277.850 227.810 L277.850 227.330 "/>
  <path style="fill:rgb(0,0,0);stroke:none;stroke-width:1.0;" d="M341.210 227.810 L341.690 227.810 L341.690 262.370 L341.210 262.370 L341.210 227.810 "/>
  <path style="fill:rgb(0,0,0);stroke:none;stroke-width:1.0;" d="M341.210 227.330 L341.690 227.330 L341.690 227.810 L341.210 227.810 L341.210 227.330 "/>
  <path style="fill:rgb(0,0,0);stroke:none;stroke-width:1.0;" d="M516.430 227.810 L516.910 227.810 L516.910 262.370 L516.430 262.370 L516.430 227.810 "/>
  <path style="fill:rgb(0,0,0);stroke:none;stroke-width:1.0;" d="M516.430 227.330 L516.910 227.330 L516.910 227.810 L516.430 227.810 L516.430 227.330 "/>
  <path style="fill:rgb(0,0,0);stroke:none;stroke-width:1.0;" d="M516.910 227.330 L553.150 227.330 L553.150 227.810 L516.910 227.810 L516.910 227.330 "/>
  <path style="fill:rgb(0,0,0);stroke:none;stroke-width:1.0;" d="M553.150 227.810 L553.630 227.810 L553.630 262.370 L553.150 262.370 L553.150 227.810 "/>
  <path style="fill:rgb(0,0,0);stroke:none;stroke-width:1.0;" d="M553.150 227.330 L553.630 227.330 L553.630 227.810 L553.150 227.810 L553.150 227.330 "/>
  <path style="fill:rgb(0,0,0);stroke:none;stroke-width:1.0;" d="M553.630 227.330 L615.670 227.330 L615.670 227.810 L553.630 227.810 L553.630 227.330 "/>
  <path style="fill:rgb(0,0,0);stroke:none;stroke-width:1.0;" d="M615.670 227.810 L616.150 227.810 L616.150 262.370 L615.670 262.370 L615.670 227.810 "/>
  <path style="fill:rgb(0,0,0);stroke:none;stroke-width:1.0;" d="M615.670 227.330 L616.150 227.330 L616.150 227.810 L615.670 227.810 L615.670 227.330 "/>
  <path style="fill:rgb(0,0,0);stroke:none;stroke-width:1.0;" d="M616.150 227.330 L688.530 227.330 L688.530 227.810 L616.150 227.810 L616.150 227.330 "/>
  <path style="fill:rgb(0,0,0);stroke:none;stroke-width:1.0;" d="M688.540 227.810 L689.020 227.810 L689.020 262.370 L688.540 262.370 L688.540 227.810 "/>
  <path style="fill:rgb(0,0,0);stroke:none;stroke-width:1.0;" d="M688.540 227.330 L689.020 227.330 L689.020 227.810 L688.540 227.810 L688.540 227.330 "/>
  <path style="fill:rgb(0,0,0);stroke:none;stroke-width:1.0;" d="M688.540 227.330 L689.020 227.330 L689.020 227.810 L688.540 227.810 L688.540 227.330 "/>
  <g begin="text">
   <text y="377.35" x="72.0,77.538,82.548,87.577,90.924,95.346,99.798,102.567" svgx:width="0.56,0.5,0.5,0.33,0.44,0.44,0.28,0.25" style="fill:rgb(0,0,0);font-family:TimesNewRomanPSMT;font-size:9.96px;stroke:none;">Source: </text>
  </g>
  <g begin="text">
   <text y="377.35" x="105.14,108.487,115.678,119.552,124.552,127.062,131.484,134.253,136.773,141.195,143.964,146.484,148.994,153.914,158.944,163.974,169.003" svgx:width="0.33,0.72,0.39,0.5,0.25,0.44,0.28,0.25,0.44,0.28,0.25,0.25,0.5,0.5,0.5,0.5,0.33" style="fill:rgb(0,0,0);font-family:TimesNewRomanPSMT;font-size:9.96px;stroke:none;">(Hsu et al. 2020)</text>
  </g>
  <g begin="text">
   <text y="377.35" x="172.34" svgx:width="0.25" style="fill:rgb(0,0,0);font-family:TimesNewRomanPSMT;font-size:9.96px;stroke:none;"> </text>
  </g>
  <g begin="text">
   <text y="377.35" x="42.0,48.0" svgx:width="0.5,0.5" style="fill:rgb(0,0,0);font-family:TimesNewRomanPSMT;font-size:12.0px;stroke:none;">21</text>
  </g>
  <g begin="text">
   <text y="377.35" x="54.0" svgx:width="0.25" style="fill:rgb(0,0,0);font-family:TimesNewRomanPSMT;font-size:12.0px;stroke:none;"> </text>
  </g>
  <g begin="text">
   <text y="400.03" x="72.0,79.191,84.231,87.0,91.422" svgx:width="0.72,0.5,0.28,0.44,0.25" style="fill:rgb(0,0,0);font-family:TimesNewRomanPSMT;font-size:9.96px;stroke:none;">Note </text>
  </g>
  <g begin="text">
   <text y="396.55" x="93.984" svgx:width="0.5" style="fill:rgb(0,0,0);font-family:TimesNewRomanPSMT;font-size:6.48px;stroke:none;">1</text>
  </g>
  <g begin="text">
   <text y="400.03" x="97.224" svgx:width="0.25" style="fill:rgb(0,0,0);font-family:TimesNewRomanPSMT;font-size:9.96px;stroke:none;"> </text>
  </g>
  <g begin="text">
   <text y="400.03" x="99.744,106.935,110.81,113.3,118.329,121.676,124.186,131.377,135.799,140.251" svgx:width="0.72,0.39,0.25,0.5,0.33,0.25,0.72,0.44,0.44,0.44" style="fill:rgb(0,0,0);font-family:TimesNewRomanPSMT;font-size:9.96px;stroke:none;">As of Dece</text>
  </g>
  <g begin="text">
   <text y="400.03" x="144.74,152.529,157.558,161.981,165.347,167.748,172.777,177.807,182.727,187.757,190.158,197.946,202.976,206.821,209.59,212.08,217.129,220.476,222.986,225.755,230.774,235.197,237.727,243.722,248.752,255.943,258.463,265.067,269.489,272.856,277.885,282.915,287.945,290.455,296.451,300.873,305.325,310.245,315.275,320.305,323.074,328.094,333.124,338.044,340.554,346.092,350.514,353.86,356.629,361.649,366.071,369.438,373.282,378.312,381.081,386.101,389.945,392.455,395.802,401.907,408.511,414.616,420.154,422.923,426.24,428.77,431.538,436.558,439.327,442.096,444.865,449.287,452.056,454.825,459.825,464.247,468.122,470.612,475.054,478.4,482.823,485.352,490.382,494.804,498.171,503.201,508.23,512.653,515.422,517.832,520.342,524.764,529.814,534.236,538.688,543.718,546.487,548.977,551.636,556.666,561.088,563.618,570.221,572.99,575.759,583.528,587.95,590.719,595.141,597.681,603.219,610.988,615.41,618.776,621.545,624.035,631.246,636.276,639.622,642.391,646.814,651.853,654.622,657.391,662.401" svgx:width="0.78,0.5,0.44,0.33,0.25,0.5,0.5,0.5,0.5,0.25,0.78,0.5,0.39,0.28,0.25,0.5,0.33,0.25,0.28,0.5,0.44,0.25,0.61,0.5,0.72,0.25,0.67,0.44,0.33,0.5,0.5,0.5,0.25,0.61,0.44,0.44,0.5,0.5,0.5,0.28,0.5,0.5,0.5,0.25,0.56,0.44,0.33,0.28,0.5,0.44,0.33,0.39,0.5,0.28,0.5,0.39,0.25,0.33,0.61,0.67,0.61,0.56,0.28,0.33,0.25,0.28,0.5,0.28,0.28,0.28,0.44,0.28,0.28,0.5,0.44,0.39,0.25,0.44,0.33,0.44,0.25,0.5,0.44,0.33,0.5,0.5,0.44,0.28,0.25,0.25,0.44,0.5,0.44,0.44,0.5,0.28,0.25,0.28,0.5,0.44,0.25,0.67,0.28,0.28,0.78,0.44,0.28,0.44,0.25,0.56,0.78,0.44,0.33,0.28,0.25,0.72,0.5,0.33,0.28,0.44,0.5,0.28,0.28,0.5,0.33" style="fill:rgb(0,0,0);font-family:TimesNewRomanPSMT;font-size:9.96px;stroke:none;">mber 2020 most of the Low Carbon Technology Partnerships (LCTPi) initiatives are defunct, except the Climate Smart Agricultur</text>
  </g>
  <g begin="text">
   <text y="400.03" x="666.46,670.882,673.303,678.332,681.679,686.709,691.738,695.085,699.408,707.196,714.985" svgx:width="0.44,0.25,0.5,0.33,0.5,0.5,0.33,0.44,0.78,0.78,0.44" style="fill:rgb(0,0,0);font-family:TimesNewRomanPSMT;font-size:9.96px;stroke:none;">e programme</text>
  </g>
  <g begin="text">
   <text y="400.03" x="719.38" svgx:width="0.25" style="fill:rgb(0,0,0);font-family:TimesNewRomanPSMT;font-size:9.96px;stroke:none;"> </text>
  </g>
  <g begin="text">
   <text y="400.03" x="42.0,48.0" svgx:width="0.5,0.5" style="fill:rgb(0,0,0);font-family:TimesNewRomanPSMT;font-size:12.0px;stroke:none;">22</text>
  </g>
  <g begin="text">
   <text y="400.03" x="54.0" svgx:width="0.25" style="fill:rgb(0,0,0);font-family:TimesNewRomanPSMT;font-size:12.0px;stroke:none;"> </text>
  </g>
  <g begin="text">
   <text y="478.906" transform="matrix(0.70711,-0.70711,0.70711,0.70711,-271.92861,301.31825)" rotateDegrees="-45" matrix="[29.819458,29.819458,-29.819458,29.819458,227.75916,116.41376]" x="227.759" svgx:width="0.67" style="fill:rgb(0,0,0);font-family:Arial;font-size:42.17px;stroke:none;">A</text>
   <text y="459.017" transform="matrix(0.70711,-0.70711,0.70711,0.70711,-252.03932,309.55725)" rotateDegrees="-45" matrix="[29.819458,29.819458,-29.819458,29.819458,247.64874,136.30333]" x="247.649" svgx:width="0.72" style="fill:rgb(0,0,0);font-family:Arial;font-size:42.17px;stroke:none;">C</text>
   <text y="437.487" transform="matrix(0.70711,-0.70711,0.70711,0.70711,-230.50961,318.47456)" rotateDegrees="-45" matrix="[29.819458,29.819458,-29.819458,29.819458,269.17838,157.83298]" x="269.178" svgx:width="0.72" style="fill:rgb(0,0,0);font-family:Arial;font-size:42.17px;stroke:none;">C</text>
   <text y="415.957" transform="matrix(0.70711,-0.70711,0.70711,0.70711,-208.97961,327.39258)" rotateDegrees="-45" matrix="[29.819458,29.819458,-29.819458,29.819458,290.70804,179.36263]" x="290.708" svgx:width="0.67" style="fill:rgb(0,0,0);font-family:Arial;font-size:42.17px;stroke:none;">E</text>
   <text y="396.068" transform="matrix(0.70711,-0.70711,0.70711,0.70711,-189.09032,335.63158)" rotateDegrees="-45" matrix="[29.819458,29.819458,-29.819458,29.819458,310.5976,199.2522]" x="310.598" svgx:width="0.67" style="fill:rgb(0,0,0);font-family:Arial;font-size:42.17px;stroke:none;">P</text>
   <text y="376.178" transform="matrix(0.70711,-0.70711,0.70711,0.70711,-169.20061,343.86958)" rotateDegrees="-45" matrix="[29.819458,29.819458,-29.819458,29.819458,330.48718,219.14178]" x="330.487" svgx:width="0.61" style="fill:rgb(0,0,0);font-family:Arial;font-size:42.17px;stroke:none;">T</text>
   <text y="357.959" transform="matrix(0.70711,-0.70711,0.70711,0.70711,-150.98132,351.41685)" rotateDegrees="-45" matrix="[29.819458,29.819458,-29.819458,29.819458,348.70688,237.36148]" x="348.707" svgx:width="0.67" style="fill:rgb(0,0,0);font-family:Arial;font-size:42.17px;stroke:none;">E</text>
   <text y="338.069" transform="matrix(0.70711,-0.70711,0.70711,0.70711,-131.09161,359.65485)" rotateDegrees="-45" matrix="[29.819458,29.819458,-29.819458,29.819458,368.59644,257.25104]" x="368.596" svgx:width="0.72" style="fill:rgb(0,0,0);font-family:Arial;font-size:42.17px;stroke:none;">D</text>
   <text y="316.539" transform="matrix(0.70711,-0.70711,0.70711,0.70711,-109.56161,368.57287)" rotateDegrees="-45" matrix="[29.819458,29.819458,-29.819458,29.819458,390.1261,278.7807]" x="390.126" svgx:width="0.28" style="fill:rgb(0,0,0);font-family:Arial;font-size:42.17px;stroke:none;"> </text>
   <text y="308.246" transform="matrix(0.70711,-0.70711,0.70711,0.70711,-101.26832,372.00865)" rotateDegrees="-45" matrix="[29.819458,29.819458,-29.819458,29.819458,398.41962,287.07422]" x="398.42" svgx:width="0.67" style="fill:rgb(0,0,0);font-family:Arial;font-size:42.17px;stroke:none;">V</text>
   <text y="288.356" transform="matrix(0.70711,-0.70711,0.70711,0.70711,-81.37861,380.24665)" rotateDegrees="-45" matrix="[29.819458,29.819458,-29.819458,29.819458,418.3092,306.9638]" x="418.309" svgx:width="0.67" style="fill:rgb(0,0,0);font-family:Arial;font-size:42.17px;stroke:none;">E</text>
   <text y="268.467" transform="matrix(0.70711,-0.70711,0.70711,0.70711,-61.48932,388.48565)" rotateDegrees="-45" matrix="[29.819458,29.819458,-29.819458,29.819458,438.1988,326.8534]" x="438.199" svgx:width="0.72" style="fill:rgb(0,0,0);font-family:Arial;font-size:42.17px;stroke:none;">R</text>
   <text y="246.937" transform="matrix(0.70711,-0.70711,0.70711,0.70711,-39.95961,397.40296)" rotateDegrees="-45" matrix="[29.819458,29.819458,-29.819458,29.819458,459.72845,348.38306]" x="459.728" svgx:width="0.67" style="fill:rgb(0,0,0);font-family:Arial;font-size:42.17px;stroke:none;">S</text>
   <text y="227.047" transform="matrix(0.70711,-0.70711,0.70711,0.70711,-20.06961,405.64167)" rotateDegrees="-45" matrix="[29.819458,29.819458,-29.819458,29.819458,479.618,368.2726]" x="479.618" svgx:width="0.28" style="fill:rgb(0,0,0);font-family:Arial;font-size:42.17px;stroke:none;">I</text>
   <text y="218.758" transform="matrix(0.70711,-0.70711,0.70711,0.70711,-11.78032,409.07579)" rotateDegrees="-45" matrix="[29.819458,29.819458,-29.819458,29.819458,487.9078,376.5624]" x="487.908" svgx:width="0.78" style="fill:rgb(0,0,0);font-family:Arial;font-size:42.17px;stroke:none;">O</text>
   <text y="195.558" transform="matrix(0.70711,-0.70711,0.70711,0.70711,11.41939,418.68484)" rotateDegrees="-45" matrix="[29.819458,29.819458,-29.819458,29.819458,511.10736,399.76196]" x="511.107" svgx:width="0.72" style="fill:rgb(0,0,0);font-family:Arial;font-size:42.17px;stroke:none;">N</text>
   <text y="174.028" transform="matrix(0.70711,-0.70711,0.70711,0.70711,32.94939,427.60286)" rotateDegrees="-45" matrix="[29.819458,29.819458,-29.819458,29.819458,532.63696,421.2916]" x="532.637" svgx:width="0.28" style="fill:rgb(0,0,0);font-family:Arial;font-size:42.17px;stroke:none;"> </text>
   <text y="514.69" transform="matrix(0.70711,-0.70711,0.70711,0.70711,-286.75083,337.10225)" rotateDegrees="-45" matrix="[29.819458,29.819458,-29.819458,29.819458,263.5425,80.6304]" x="263.543" svgx:width="0.67" style="fill:rgb(0,0,0);font-family:Arial;font-size:42.17px;stroke:none;">S</text>
   <text y="494.8" transform="matrix(0.70711,-0.70711,0.70711,0.70711,-266.86112,345.34025)" rotateDegrees="-45" matrix="[29.819458,29.819458,-29.819458,29.819458,283.43207,100.51998]" x="283.432" svgx:width="0.72" style="fill:rgb(0,0,0);font-family:Arial;font-size:42.17px;stroke:none;">U</text>
   <text y="473.27" transform="matrix(0.70711,-0.70711,0.70711,0.70711,-245.33112,354.25827)" rotateDegrees="-45" matrix="[29.819458,29.819458,-29.819458,29.819458,304.96173,122.04963]" x="304.962" svgx:width="0.67" style="fill:rgb(0,0,0);font-family:Arial;font-size:42.17px;stroke:none;">B</text>
   <text y="453.381" transform="matrix(0.70711,-0.70711,0.70711,0.70711,-225.44212,362.49657)" rotateDegrees="-45" matrix="[29.819458,29.819458,-29.819458,29.819458,324.85132,141.93921]" x="324.851" svgx:width="0.5" style="fill:rgb(0,0,0);font-family:Arial;font-size:42.17px;stroke:none;">J</text>
   <text y="438.471" transform="matrix(0.70711,-0.70711,0.70711,0.70711,-210.53212,368.67249)" rotateDegrees="-45" matrix="[29.819458,29.819458,-29.819458,29.819458,339.76105,156.84894]" x="339.761" svgx:width="0.67" style="fill:rgb(0,0,0);font-family:Arial;font-size:42.17px;stroke:none;">E</text>
   <text y="418.581" transform="matrix(0.70711,-0.70711,0.70711,0.70711,-190.64212,376.9112)" rotateDegrees="-45" matrix="[29.819458,29.819458,-29.819458,29.819458,359.65063,176.73851]" x="359.651" svgx:width="0.72" style="fill:rgb(0,0,0);font-family:Arial;font-size:42.17px;stroke:none;">C</text>
   <text y="397.052" transform="matrix(0.70711,-0.70711,0.70711,0.70711,-169.11312,385.8288)" rotateDegrees="-45" matrix="[29.819458,29.819458,-29.819458,29.819458,381.18027,198.26816]" x="381.18" svgx:width="0.61" style="fill:rgb(0,0,0);font-family:Arial;font-size:42.17px;stroke:none;">T</text>
   <text y="378.832" transform="matrix(0.70711,-0.70711,0.70711,0.70711,-150.89312,393.37577)" rotateDegrees="-45" matrix="[29.819458,29.819458,-29.819458,29.819458,399.39996,216.48784]" x="399.4" svgx:width="0.28" style="fill:rgb(0,0,0);font-family:Arial;font-size:42.17px;stroke:none;"> </text>
   <text y="370.542" transform="matrix(0.70711,-0.70711,0.70711,0.70711,-142.60312,396.8096)" rotateDegrees="-45" matrix="[29.819458,29.819458,-29.819458,29.819458,407.68976,224.77766]" x="407.69" svgx:width="0.61" style="fill:rgb(0,0,0);font-family:Arial;font-size:42.17px;stroke:none;">T</text>
   <text y="352.323" transform="matrix(0.70711,-0.70711,0.70711,0.70711,-124.38412,404.35616)" rotateDegrees="-45" matrix="[29.819458,29.819458,-29.819458,29.819458,425.90945,242.99734]" x="425.909" svgx:width="0.78" style="fill:rgb(0,0,0);font-family:Arial;font-size:42.17px;stroke:none;">O</text>
   <text y="329.123" transform="matrix(0.70711,-0.70711,0.70711,0.70711,-101.18412,413.96591)" rotateDegrees="-45" matrix="[29.819458,29.819458,-29.819458,29.819458,449.10898,266.19687]" x="449.109" svgx:width="0.28" style="fill:rgb(0,0,0);font-family:Arial;font-size:42.17px;stroke:none;"> </text>
   <text y="320.848" transform="matrix(0.70711,-0.70711,0.70711,0.70711,-92.90912,417.39353)" rotateDegrees="-45" matrix="[29.819458,29.819458,-29.819458,29.819458,457.3839,274.4718]" x="457.384" svgx:width="0.61" style="fill:rgb(0,0,0);font-family:Arial;font-size:42.17px;stroke:none;">F</text>
   <text y="302.629" transform="matrix(0.70711,-0.70711,0.70711,0.70711,-74.68983,424.9408)" rotateDegrees="-45" matrix="[29.819458,29.819458,-29.819458,29.819458,475.60358,292.69147]" x="475.604" svgx:width="0.28" style="fill:rgb(0,0,0);font-family:Arial;font-size:42.17px;stroke:none;">I</text>
   <text y="294.339" transform="matrix(0.70711,-0.70711,0.70711,0.70711,-66.40012,428.37392)" rotateDegrees="-45" matrix="[29.819458,29.819458,-29.819458,29.819458,483.89337,300.98126]" x="483.893" svgx:width="0.72" style="fill:rgb(0,0,0);font-family:Arial;font-size:42.17px;stroke:none;">N</text>
   <text y="272.809" transform="matrix(0.70711,-0.70711,0.70711,0.70711,-44.87012,437.29194)" rotateDegrees="-45" matrix="[29.819458,29.819458,-29.819458,29.819458,505.42303,322.51093]" x="505.423" svgx:width="0.67" style="fill:rgb(0,0,0);font-family:Arial;font-size:42.17px;stroke:none;">A</text>
   <text y="252.919" transform="matrix(0.70711,-0.70711,0.70711,0.70711,-24.98012,445.53064)" rotateDegrees="-45" matrix="[29.819458,29.819458,-29.819458,29.819458,525.3126,342.4005]" x="525.313" svgx:width="0.56" style="fill:rgb(0,0,0);font-family:Arial;font-size:42.17px;stroke:none;">L</text>
   <text y="236.34" transform="matrix(0.70711,-0.70711,0.70711,0.70711,-8.40112,452.39789)" rotateDegrees="-45" matrix="[29.819458,29.819458,-29.819458,29.819458,541.8922,358.9801]" x="541.892" svgx:width="0.28" style="fill:rgb(0,0,0);font-family:Arial;font-size:42.17px;stroke:none;"> </text>
   <text y="228.056" transform="matrix(0.70711,-0.70711,0.70711,0.70711,-0.11712,455.82924)" rotateDegrees="-45" matrix="[29.819458,29.819458,-29.819458,29.819458,550.17584,367.26373]" x="550.176" svgx:width="0.67" style="fill:rgb(0,0,0);font-family:Arial;font-size:42.17px;stroke:none;">E</text>
   <text y="208.167" transform="matrix(0.70711,-0.70711,0.70711,0.70711,19.77188,464.06753)" rotateDegrees="-45" matrix="[29.819458,29.819458,-29.819458,29.819458,570.0654,387.1533]" x="570.065" svgx:width="0.72" style="fill:rgb(0,0,0);font-family:Arial;font-size:42.17px;stroke:none;">D</text>
   <text y="186.637" transform="matrix(0.70711,-0.70711,0.70711,0.70711,41.30188,472.98555)" rotateDegrees="-45" matrix="[29.819458,29.819458,-29.819458,29.819458,591.59503,408.68292]" x="591.595" svgx:width="0.28" style="fill:rgb(0,0,0);font-family:Arial;font-size:42.17px;stroke:none;">I</text>
   <text y="178.347" transform="matrix(0.70711,-0.70711,0.70711,0.70711,49.59188,476.41938)" rotateDegrees="-45" matrix="[29.819458,29.819458,-29.819458,29.819458,599.8848,416.97272]" x="599.885" svgx:width="0.61" style="fill:rgb(0,0,0);font-family:Arial;font-size:42.17px;stroke:none;">T</text>
   <text y="160.128" transform="matrix(0.70711,-0.70711,0.70711,0.70711,67.81088,483.96594)" rotateDegrees="-45" matrix="[29.819458,29.819458,-29.819458,29.819458,618.1045,435.1924]" x="618.104" svgx:width="0.67" style="fill:rgb(0,0,0);font-family:Arial;font-size:42.17px;stroke:none;">S</text>
  </g>
 </g>
</svg>
