<?xml version="1.0" encoding="UTF-8"?>
<svg height="813.4" width="602.2" xmlns="http://www.w3.org/2000/svg">
 <g id="page" xmlns:svgx="http://www.xml-cml.org/schema/svgx">
  <g begin="text">
   <text y="46.32" x="72.024,78.162,81.231,86.751,91.587,94.7,97.46,105.376,110.896,116.416,121.218,124.928,130.448,138.971,143.872,149.392,152.517,155.277,163.082,166.195,170.39,173.504,177.103,180.216,185.736,191.135,194.137,197.251,202.771" svgx:width="0.56,0.28,0.5,0.44,0.28,0.25,0.72,0.5,0.5,0.44,0.33,0.5,0.78,0.44,0.5,0.28,0.25,0.72,0.28,0.39,0.28,0.33,0.28,0.5,0.5,0.28,0.28,0.5,0.5" style="fill:rgb(0,0,0);font-family:TimesNewRomanPSMT;font-size:11.04px;stroke:none;">Final Government Distribution</text>
  </g>
  <g begin="text">
   <text y="46.32" x="208.25" svgx:width="0.25" style="fill:rgb(0,0,0);font-family:TimesNewRomanPSMT;font-size:11.04px;stroke:none;"> </text>
  </g>
  <g begin="text">
   <text y="46.32" x="276.17,283.49,289.009,293.911,299.431,302.556,307.358,311.067,313.827" svgx:width="0.67,0.5,0.44,0.5,0.28,0.44,0.33,0.25,0.5" style="fill:rgb(0,0,0);font-family:TimesNewRomanPSMT;font-size:11.04px;stroke:none;">Chapter 4</text>
  </g>
  <g begin="text">
   <text y="46.32" x="319.27" svgx:width="0.25" style="fill:rgb(0,0,0);font-family:TimesNewRomanPSMT;font-size:11.04px;stroke:none;"> </text>
  </g>
  <g begin="text">
   <text y="46.32" x="443.38,446.979,453.117,460.415,467.734" svgx:width="0.33,0.56,0.67,0.67,0.25" style="fill:rgb(0,0,0);font-family:TimesNewRomanPSMT;font-size:11.04px;stroke:none;">IPCC </text>
  </g>
  <g begin="text">
   <text y="46.32" x="470.5" svgx:width="0.72" style="fill:rgb(0,0,0);font-family:TimesNewRomanPSMT;font-size:11.04px;stroke:none;">A</text>
  </g>
  <g begin="text">
   <text y="46.32" x="478.42,485.74,491.259,494.02,504.441,512.412,516.088,519.699" svgx:width="0.67,0.5,0.25,0.94,0.72,0.33,0.33,0.33" style="fill:rgb(0,0,0);font-family:TimesNewRomanPSMT;font-size:11.04px;stroke:none;">R6 WGIII</text>
  </g>
  <g begin="text">
   <text y="46.32" x="523.42" svgx:width="0.25" style="fill:rgb(0,0,0);font-family:TimesNewRomanPSMT;font-size:11.04px;stroke:none;"> </text>
  </g>
  <g begin="text">
   <text y="774.816" x="72.024,79.94,85.46,88.22,96.135,101.655,105.365,108.125,116.04,119.154,122.753,127.655,130.415,133.075,141.708,147.847,153.367,157.043,161.868,164.628,170.148,175.049,177.809,185.78,188.75,192.945,196.655,201.556,204.681,210.819,216.803,220.512" svgx:width="0.72,0.5,0.25,0.72,0.5,0.33,0.25,0.72,0.28,0.33,0.44,0.25,0.25,0.78,0.56,0.5,0.33,0.44,0.25,0.5,0.44,0.25,0.72,0.28,0.39,0.33,0.44,0.28,0.56,0.56,0.33,0.44" style="fill:rgb(0,0,0);font-family:TimesNewRomanPS-BoldMT;font-size:11.04px;stroke:none;">Do Not Cite, Quote or Distribute</text>
  </g>
  <g begin="text">
   <text y="774.816" x="225.41" svgx:width="0.25" style="fill:rgb(0,0,0);font-family:TimesNewRomanPS-BoldMT;font-size:11.04px;stroke:none;"> </text>
  </g>
  <g begin="text">
   <text y="774.816" x="284.81" svgx:width="0.5" style="fill:rgb(0,0,0);font-family:TimesNewRomanPSMT;font-size:11.04px;stroke:none;">4</text>
  </g>
  <g begin="text">
   <text y="774.816" x="290.33" svgx:width="0.33" style="fill:rgb(0,0,0);font-family:TimesNewRomanPSMT;font-size:11.04px;stroke:none;">-</text>
  </g>
  <g begin="text">
   <text y="774.816" x="293.93,299.45,304.97" svgx:width="0.5,0.5,0.5" style="fill:rgb(0,0,0);font-family:TimesNewRomanPSMT;font-size:11.04px;stroke:none;">106</text>
  </g>
  <g begin="text">
   <text y="774.816" x="310.49" svgx:width="0.25" style="fill:rgb(0,0,0);font-family:TimesNewRomanPSMT;font-size:11.04px;stroke:none;"> </text>
  </g>
  <g begin="text">
   <text y="774.816" x="313.27" svgx:width="0.25" style="fill:rgb(0,0,0);font-family:TimesNewRomanPSMT;font-size:11.04px;stroke:none;"> </text>
  </g>
  <g begin="text">
   <text y="774.816" x="450.1,456.845,462.365,465.435,470.259,473.372,476.132,481.652,486.554,491.975,496.876,501.204,504.207" svgx:width="0.61,0.5,0.28,0.44,0.28,0.25,0.5,0.44,0.5,0.44,0.39,0.28,0.25" style="fill:rgb(0,0,0);font-family:TimesNewRomanPSMT;font-size:11.04px;stroke:none;">Total pages: </text>
  </g>
  <g begin="text">
   <text y="774.816" x="506.98,512.5,518.02" svgx:width="0.5,0.5,0.5" style="fill:rgb(0,0,0);font-family:TimesNewRomanPSMT;font-size:11.04px;stroke:none;">156</text>
  </g>
  <g begin="text">
   <text y="774.816" x="523.42" svgx:width="0.25" style="fill:rgb(0,0,0);font-family:TimesNewRomanPSMT;font-size:9.96px;stroke:none;"> </text>
  </g>
  <g begin="text">
   <text y="789.576" x="72.024" svgx:width="0.25" style="fill:rgb(0,0,0);font-family:TimesNewRomanPSMT;font-size:12.0px;stroke:none;"> </text>
  </g>
  <g begin="text">
   <text y="803.4" x="72.024" svgx:width="0.25" style="fill:rgb(0,0,0);font-family:TimesNewRomanPSMT;font-size:12.0px;stroke:none;"> </text>
  </g>
  <g begin="text">
   <text y="82.32" x="72.024,76.926,85.57,90.969,94.082,99.602,105.122,110.024,115.544,117.719,122.62,125.634,128.748,131.033,134.036,142.669,148.189,152.991,157.893,161.017,163.303,168.701,174.221,176.507,184.422,192.338,200.254,202.539,207.441,216.085,219.088,223.383,227.721,230.724,236.244,241.764,246.059,248.366,253.268,258.688,264.208,266.494,269.607,275.006,279.907,282.204,287.724,293.244,296.246,299.36,304.88,310.278,314.473,316.759,324.674,329.576,331.872,337.392,342.294,347.814,352.738,355.023,358.026,363.546,365.832,369.541,374.443,379.863,385.383,390.285,395.209,397.373,400.486,406.006,410.809,419.442,422.202,424.487,428.086,433.606,435.891,439.005,444.525,448.234,453.754,456.514,458.678,462.387,467.289,472.809,478.23,483.132,486.256,491.655,497.174,499.46,507.375,515.291,523.207" svgx:width="0.44,0.78,0.5,0.28,0.5,0.5,0.44,0.5,0.25,0.44,0.28,0.28,0.25,0.28,0.78,0.5,0.44,0.44,0.28,0.25,0.5,0.5,0.25,0.72,0.72,0.72,0.25,0.44,0.78,0.28,0.39,0.39,0.28,0.5,0.5,0.39,0.25,0.44,0.5,0.5,0.25,0.28,0.5,0.44,0.25,0.5,0.5,0.28,0.28,0.5,0.5,0.39,0.25,0.72,0.44,0.25,0.5,0.44,0.5,0.44,0.25,0.28,0.5,0.25,0.33,0.44,0.5,0.5,0.44,0.44,0.25,0.28,0.5,0.44,0.78,0.25,0.25,0.33,0.5,0.25,0.28,0.5,0.33,0.5,0.25,0.25,0.33,0.44,0.5,0.5,0.44,0.28,0.5,0.5,0.25,0.72,0.72,0.72,0.25" style="fill:rgb(0,0,0);font-family:TimesNewRomanPSMT;font-size:11.04px;stroke:none;">employed all impact on GHG emissions and the options we have to reduce them. In turn, reducing GHG </text>
  </g>
  <g begin="text">
   <text y="82.32" x="48.0" svgx:width="0.5" style="fill:rgb(0,0,0);font-family:TimesNewRomanPSMT;font-size:12.0px;stroke:none;">1</text>
  </g>
  <g begin="text">
   <text y="82.32" x="54.0" svgx:width="0.25" style="fill:rgb(0,0,0);font-family:TimesNewRomanPSMT;font-size:12.0px;stroke:none;"> </text>
  </g>
  <g begin="text">
   <text y="96.26" x="72.024,76.926,85.46,88.573,92.868,97.096,100.209,105.729,111.249,115.544,118.094,122.996,127.92,133.44,136.078,140.881,143.994,148.288,153.808,156.469,161.271,166.791,172.311,175.314,179.024,182.137,187.536,192.934,196.047,200.949,203.61,206.723,212.243,214.76,218.47,223.371,228.891,234.312,239.214,242.338,247.737,253.257,255.895,261.415,266.935,272.455,277.258,280.967,284.08,289.6,292.36,294.999,300.397,304.107,309.009,314.429,319.331,324.851,327.865,330.978,336.498,342.018,344.657,350.177,355.697,361.217,366.615,371.517,375.249,378.009,380.526" svgx:width="0.44,0.78,0.28,0.39,0.39,0.28,0.5,0.5,0.39,0.25,0.44,0.44,0.5,0.25,0.44,0.28,0.39,0.5,0.25,0.44,0.5,0.5,0.28,0.33,0.28,0.5,0.5,0.28,0.44,0.25,0.28,0.5,0.25,0.33,0.44,0.5,0.5,0.44,0.28,0.5,0.5,0.25,0.5,0.5,0.5,0.44,0.33,0.28,0.5,0.25,0.25,0.5,0.33,0.44,0.5,0.44,0.5,0.28,0.28,0.5,0.5,0.25,0.5,0.5,0.5,0.5,0.44,0.33,0.25,0.25,0.28" style="fill:rgb(0,0,0);font-family:TimesNewRomanPSMT;font-size:11.04px;stroke:none;">emissions can also contribute to reducing poverty, preventing hunger, i</text>
  </g>
  <g begin="text">
   <text y="96.26" x="383.83,392.463,397.862,401.571,407.091,412.49,415.603,421.123,426.643,429.282,434.68,439.582,444.506,447.509,450.622,456.142,458.78,463.682,469.202,474.722,477.383,485.299,490.101,493.214,496.217,501.737,506.639,509.653,515.173,520.693,523.331" svgx:width="0.78,0.5,0.33,0.5,0.5,0.28,0.5,0.5,0.25,0.5,0.44,0.44,0.28,0.28,0.5,0.25,0.44,0.5,0.5,0.25,0.72,0.44,0.28,0.28,0.5,0.44,0.28,0.5,0.5,0.25,0.25" style="fill:rgb(0,0,0);font-family:TimesNewRomanPSMT;font-size:11.04px;stroke:none;">mproving health and wellbeing, </text>
  </g>
  <g begin="text">
   <text y="96.26" x="48.0" svgx:width="0.5" style="fill:rgb(0,0,0);font-family:TimesNewRomanPSMT;font-size:12.0px;stroke:none;">2</text>
  </g>
  <g begin="text">
   <text y="96.26" x="54.0" svgx:width="0.25" style="fill:rgb(0,0,0);font-family:TimesNewRomanPSMT;font-size:12.0px;stroke:none;"> </text>
  </g>
  <g begin="text">
   <text y="110.18" x="72.024,76.926,82.446,87.966,91.212,96.732,100.441,105.839,111.359,114.473,119.871,122.985,128.505,134.025,137.248,142.051,145.164,149.966,154.868,160.388,163.634,171.55,176.451,179.465,184.367,188.099,191.212,196.114,201.634,207.154,210.399,215.301,218.315,223.217,228.141,233.661,236.774,241.676,247.196,252.009,255.719,261.239,266.759,269.519,272.742,276.341,284.975,290.373,293.486,298.289,306.922,311.724,317.244,320.358,323.471,328.87,334.39,337.613,341.212,344.326,349.846,355.366,358.479,361.592,367.112,372.632,375.635,378.748,383.551,386.664,391.566,395.893,399.007,403.908,409.428,414.948,418.194,421.197,426.717,432.116,437.017,441.345,444.348,452.981,457.883,463.304,466.417,470.711,473.968,478.771,483.673,489.193,492.438,497.958,502.761,505.874,511.394,514.507,517.62,523.019" svgx:width="0.44,0.5,0.5,0.25,0.5,0.33,0.5,0.5,0.28,0.5,0.28,0.5,0.5,0.25,0.44,0.28,0.44,0.44,0.5,0.25,0.72,0.44,0.28,0.44,0.33,0.25,0.44,0.5,0.5,0.25,0.44,0.28,0.44,0.44,0.5,0.25,0.44,0.5,0.44,0.33,0.5,0.5,0.25,0.25,0.33,0.78,0.5,0.28,0.44,0.78,0.44,0.5,0.28,0.28,0.5,0.5,0.25,0.33,0.28,0.5,0.5,0.28,0.25,0.5,0.5,0.28,0.28,0.44,0.28,0.44,0.39,0.25,0.44,0.5,0.5,0.25,0.28,0.5,0.5,0.44,0.39,0.28,0.78,0.44,0.5,0.28,0.39,0.25,0.44,0.44,0.5,0.25,0.5,0.44,0.28,0.5,0.25,0.28,0.5,0.25" style="fill:rgb(0,0,0);font-family:TimesNewRomanPSMT;font-size:11.04px;stroke:none;">and providing clean water and clean energy. Implementing right policies and investments can help to </text>
  </g>
  <g begin="text">
   <text y="110.18" x="48.0" svgx:width="0.5" style="fill:rgb(0,0,0);font-family:TimesNewRomanPSMT;font-size:12.0px;stroke:none;">3</text>
  </g>
  <g begin="text">
   <text y="110.18" x="54.0" svgx:width="0.25" style="fill:rgb(0,0,0);font-family:TimesNewRomanPSMT;font-size:12.0px;stroke:none;"> </text>
  </g>
  <g begin="text">
   <text y="124.1" x="72.024,76.926,82.446,87.966,91.697,96.5,100.794,105.133,108.003,111.006,116.526,121.428,124.32,129.222,134.643,139.545,142.559,145.672,150.574,156.094,161.514,166.416,170.744,173.614,179.134,182.844,185.714,191.113,196.633,204.548,207.419,210.532,216.052,218.922,222.632,227.533,233.053,238.474,243.376,248.3,251.17,255.972,264.606,267.609,271.903,276.132,279.245,284.765,290.285,294.579,297.472,305.387,308.39,311.393,316.913,322.433,327.953,331.066,333.937,338.839,344.359,349.779,354.074,357.099,360.808,365.611,368.724,374.244,377.247,382.767,388.287,391.157,396.677,401.579,407.099,411.913,415.026,420.546,425.944,434.578,439.479,444.9,448.013,450.773,453.644,459.782,465.302,468.978,471.871,476.673,482.193,486.996,495.629,501.149,504.152,509.053,511.813,514.706,517.709,523.107" svgx:width="0.44,0.5,0.5,0.33,0.44,0.39,0.39,0.25,0.28,0.5,0.44,0.25,0.44,0.5,0.44,0.28,0.28,0.44,0.5,0.5,0.44,0.39,0.25,0.5,0.33,0.25,0.5,0.5,0.72,0.25,0.28,0.5,0.25,0.33,0.44,0.5,0.5,0.44,0.44,0.25,0.44,0.78,0.28,0.39,0.39,0.28,0.5,0.5,0.39,0.25,0.72,0.28,0.28,0.5,0.5,0.5,0.28,0.25,0.44,0.5,0.5,0.39,0.28,0.33,0.44,0.28,0.5,0.28,0.5,0.5,0.25,0.5,0.44,0.5,0.44,0.28,0.5,0.5,0.78,0.44,0.5,0.28,0.25,0.25,0.56,0.5,0.33,0.25,0.44,0.5,0.44,0.78,0.5,0.28,0.44,0.25,0.25,0.28,0.5,0.25" style="fill:rgb(0,0,0);font-family:TimesNewRomanPSMT;font-size:11.04px;stroke:none;">address the challenges of how to reduce emissions without constraining development. For example, in </text>
  </g>
  <g begin="text">
   <text y="124.1" x="48.0" svgx:width="0.5" style="fill:rgb(0,0,0);font-family:TimesNewRomanPSMT;font-size:12.0px;stroke:none;">4</text>
  </g>
  <g begin="text">
   <text y="124.1" x="54.0" svgx:width="0.25" style="fill:rgb(0,0,0);font-family:TimesNewRomanPSMT;font-size:12.0px;stroke:none;"> </text>
  </g>
  <g begin="text">
   <text y="138.02" x="72.024,75.137,80.039,85.559,91.079,93.618,99.017,103.311,108.246,111.006,113.523,121.439,124.552,129.951,134.853,139.18,144.579,148.288,153.19,158.114,163.634,166.151,171.55,174.663,179.565" svgx:width="0.28,0.44,0.5,0.5,0.25,0.5,0.39,0.44,0.25,0.25,0.72,0.28,0.5,0.44,0.39,0.5,0.33,0.44,0.44,0.5,0.25,0.5,0.28,0.44,0.5" style="fill:rgb(0,0,0);font-family:TimesNewRomanPSMT;font-size:11.04px;stroke:none;">land use, widespread plan</text>
  </g>
  <g begin="text">
   <text y="138.02" x="185.09,188.093,191.096,196.616,202.136,204.653,210.173,213.882,216.399,221.301,223.84,228.036,231.149,236.669,242.067,245.181,250.083,252.622,255.625,259.334,264.136,269.038,271.577,275.872,281.392,286.216,291.118,294.243,299.045,303.34,305.89,311.288,314.998,317.515,322.417,326.148,331.668,337.067,341.361,343.912,347.621,353.02,356.729,359.246,364.766,367.769,373.289,378.191,383.711,388.524,392.234,397.754,403.274,405.669,409.379,414.899,418.608,424.007,428.809,434.329,437.443,442.344,444.762,453.395,458.297,461.311,464.424,469.227,472.936,475.453,478.567,483.965,487.675,493.195,498.096,503.616,506.034,509.147,514.546,517.659,523.179" svgx:width="0.28,0.28,0.5,0.5,0.25,0.5,0.33,0.25,0.44,0.25,0.39,0.28,0.5,0.5,0.28,0.44,0.25,0.28,0.33,0.44,0.44,0.25,0.39,0.5,0.44,0.44,0.28,0.44,0.39,0.25,0.5,0.33,0.25,0.44,0.33,0.5,0.5,0.39,0.25,0.33,0.5,0.33,0.25,0.5,0.28,0.5,0.44,0.5,0.44,0.33,0.5,0.5,0.25,0.33,0.5,0.33,0.5,0.44,0.5,0.28,0.44,0.25,0.78,0.44,0.28,0.28,0.44,0.33,0.25,0.28,0.5,0.33,0.5,0.44,0.5,0.25,0.28,0.5,0.28,0.5,0.25" style="fill:rgb(0,0,0);font-family:TimesNewRomanPSMT;font-size:11.04px;stroke:none;">ting of a single tree species or crops for bioenergy (organic matter turned into </text>
  </g>
  <g begin="text">
   <text y="138.02" x="48.0" svgx:width="0.5" style="fill:rgb(0,0,0);font-family:TimesNewRomanPSMT;font-size:12.0px;stroke:none;">5</text>
  </g>
  <g begin="text">
   <text y="138.02" x="54.0" svgx:width="0.25" style="fill:rgb(0,0,0);font-family:TimesNewRomanPSMT;font-size:12.0px;stroke:none;"> </text>
  </g>
  <g begin="text">
   <text y="151.94" x="72.024,75.733,80.635,86.155,91.079,98.995,103.797,109.317,112.43,117.233,120.103,125.005,130.426,135.327,139.059,144.579,149.977,153.687,156.447,161.349,166.869,172.289,175.403,180.923,183.683,188.584,192.205,195.915,200.817,205.63,208.743,211.503,215.213,220.733,226.253,231.651,234.522,239.424,244.944,250.364,253.235,261.15,266.052,269.066,273.968,277.589,280.459,284.754,290.274,295.694,301.214,304.217,307.331,312.133,316.427,319.187,322.08,328.825,334.345,339.115,342.824,347.627,351.336,356.856,360.455,365.357,368.117,370.877,374.001,377.6,380.471,385.991,388.994,394.514,399.415,404.935,409.749,413.458,418.978,424.377,427.247,430.25,434.445,437.316,440.429,445.828,448.698,454.218,459.02,461.891,465.6,470.403,473.406,476.519,481.421,486.841,489.712,495.232,500.752,506.272,511.67,514.541,517.654,523.052" svgx:width="0.33,0.44,0.5,0.44,0.72,0.44,0.5,0.28,0.44,0.25,0.44,0.5,0.44,0.33,0.5,0.5,0.33,0.25,0.44,0.5,0.5,0.28,0.5,0.25,0.44,0.33,0.33,0.44,0.44,0.28,0.25,0.33,0.5,0.5,0.5,0.25,0.44,0.5,0.5,0.25,0.72,0.44,0.28,0.44,0.33,0.25,0.39,0.5,0.5,0.5,0.28,0.28,0.44,0.39,0.25,0.25,0.61,0.5,0.44,0.33,0.44,0.33,0.5,0.33,0.44,0.25,0.25,0.28,0.33,0.25,0.5,0.28,0.5,0.44,0.5,0.44,0.33,0.5,0.5,0.25,0.28,0.39,0.25,0.28,0.5,0.25,0.5,0.44,0.25,0.33,0.44,0.28,0.28,0.44,0.5,0.25,0.5,0.5,0.5,0.5,0.25,0.28,0.5,0.25" style="fill:rgb(0,0,0);font-family:TimesNewRomanPSMT;font-size:11.04px;stroke:none;">renewable energy) could affect food and water supplies. Therefore, if bioenergy is to be relied upon to </text>
  </g>
  <g begin="text">
   <text y="151.94" x="48.0" svgx:width="0.5" style="fill:rgb(0,0,0);font-family:TimesNewRomanPSMT;font-size:12.0px;stroke:none;">6</text>
  </g>
  <g begin="text">
   <text y="151.94" x="54.0" svgx:width="0.25" style="fill:rgb(0,0,0);font-family:TimesNewRomanPSMT;font-size:12.0px;stroke:none;"> </text>
  </g>
  <g begin="text">
   <text y="165.86" x="72.024,77.544,81.253,84.963,89.158,94.06,97.184,99.823,104.724,113.258,116.372,120.567,124.861,127.997,133.517,138.915,143.21,145.97,148.73,151.755,157.275,162.177,164.937,168.558,171.671,177.191,182.59,185.703,188.463,193.861,199.381,202.495,205.498,210.399,213.524,218.326,222.621,225.381,230.316,235.836,241.356,243.994,247.107,252.627,258.026,262.928,267.145,270.258,278.781,283.683,289.203,292.217,296.511,299.271,304.206,307.805,312.707,315.368,320.888,325.79,330.713,336.233,341.135" svgx:width="0.5,0.33,0.33,0.39,0.44,0.28,0.25,0.44,0.78,0.28,0.39,0.39,0.28,0.5,0.5,0.39,0.25,0.25,0.28,0.5,0.44,0.25,0.33,0.28,0.5,0.5,0.28,0.25,0.5,0.5,0.28,0.28,0.44,0.28,0.44,0.39,0.25,0.44,0.5,0.5,0.25,0.28,0.5,0.5,0.44,0.39,0.28,0.78,0.44,0.5,0.28,0.39,0.25,0.44,0.33,0.44,0.25,0.5,0.44,0.44,0.5,0.44,0.5" style="fill:rgb(0,0,0);font-family:TimesNewRomanPSMT;font-size:11.04px;stroke:none;">offset emissions, the right policies and investments are needed</text>
  </g>
  <g begin="text">
   <text y="165.86" x="346.75" svgx:width="0.25" style="fill:rgb(0,0,0);font-family:TimesNewRomanPSMT;font-size:11.04px;stroke:none;"> </text>
  </g>
  <g begin="text">
   <text y="165.86" x="349.51,353.219,357.415,362.316,367.24,370.0,374.803" svgx:width="0.33,0.39,0.44,0.44,0.25,0.44,0.28" style="fill:rgb(0,0,0);font-family:TimesNewRomanPSMT;font-size:11.04px;stroke:none;">(see al</text>
  </g>
  <g begin="text">
   <text y="165.86" x="377.95,382.245,387.765,390.525,397.888,403.265,408.167,413.686,416.7,421.602,425.334,428.094,433.492,439.012" svgx:width="0.39,0.5,0.25,0.67,0.5,0.44,0.5,0.28,0.44,0.33,0.25,0.5,0.5,0.33" style="fill:rgb(0,0,0);font-family:TimesNewRomanPSMT;font-size:11.04px;stroke:none;">so Chapter 17)</text>
  </g>
  <g begin="text">
   <text y="165.86" x="442.78" svgx:width="0.25" style="fill:rgb(0,0,0);font-family:TimesNewRomanPSMT;font-size:11.04px;stroke:none;">.</text>
  </g>
  <g begin="text">
   <text y="165.86" x="445.42" svgx:width="0.25" style="fill:rgb(0,0,0);font-family:TimesNewRomanPSMT;font-size:11.04px;stroke:none;"> </text>
  </g>
  <g begin="text">
   <text y="165.86" x="589.44" svgx:width="0.25" style="fill:rgb(0,0,0);font-family:TimesNewRomanPSMT;font-size:11.04px;stroke:none;"> </text>
  </g>
  <g begin="text">
   <text y="165.86" x="48.0" svgx:width="0.5" style="fill:rgb(0,0,0);font-family:TimesNewRomanPSMT;font-size:12.0px;stroke:none;">7</text>
  </g>
  <g begin="text">
   <text y="165.86" x="54.0" svgx:width="0.25" style="fill:rgb(0,0,0);font-family:TimesNewRomanPSMT;font-size:12.0px;stroke:none;"> </text>
  </g>
  <g begin="text">
   <text y="602.109" transform="matrix(0.70711,-0.70711,0.70711,0.70711,-395.12956,250.29085)" rotateDegrees="-45" matrix="[29.803345,29.803345,-29.803345,29.803345,104.563255,239.8115]" x="104.563" svgx:width="0.67" style="fill:rgb(0,0,0);font-family:Arial;font-size:42.15px;stroke:none;">A</text>
   <text y="582.23" transform="matrix(0.70711,-0.70711,0.70711,0.70711,-375.25056,258.525)" rotateDegrees="-45" matrix="[29.803345,29.803345,-29.803345,29.803345,124.442085,259.6903]" x="124.442" svgx:width="0.72" style="fill:rgb(0,0,0);font-family:Arial;font-size:42.15px;stroke:none;">C</text>
   <text y="560.712" transform="matrix(0.70711,-0.70711,0.70711,0.70711,-353.73256,267.43805)" rotateDegrees="-45" matrix="[29.803345,29.803345,-29.803345,29.803345,145.9601,281.20834]" x="145.96" svgx:width="0.72" style="fill:rgb(0,0,0);font-family:Arial;font-size:42.15px;stroke:none;">C</text>
   <text y="539.194" transform="matrix(0.70711,-0.70711,0.70711,0.70711,-332.21456,276.3511)" rotateDegrees="-45" matrix="[29.803345,29.803345,-29.803345,29.803345,167.47812,302.72635]" x="167.478" svgx:width="0.67" style="fill:rgb(0,0,0);font-family:Arial;font-size:42.15px;stroke:none;">E</text>
   <text y="519.315" transform="matrix(0.70711,-0.70711,0.70711,0.70711,-312.33556,284.58525)" rotateDegrees="-45" matrix="[29.803345,29.803345,-29.803345,29.803345,187.35693,322.60516]" x="187.357" svgx:width="0.67" style="fill:rgb(0,0,0);font-family:Arial;font-size:42.15px;stroke:none;">P</text>
   <text y="499.436" transform="matrix(0.70711,-0.70711,0.70711,0.70711,-292.45656,292.8194)" rotateDegrees="-45" matrix="[29.803345,29.803345,-29.803345,29.803345,207.23578,342.484]" x="207.236" svgx:width="0.61" style="fill:rgb(0,0,0);font-family:Arial;font-size:42.15px;stroke:none;">T</text>
   <text y="481.226" transform="matrix(0.70711,-0.70711,0.70711,0.70711,-274.24656,300.36223)" rotateDegrees="-45" matrix="[29.803345,29.803345,-29.803345,29.803345,225.44562,360.69385]" x="225.446" svgx:width="0.67" style="fill:rgb(0,0,0);font-family:Arial;font-size:42.15px;stroke:none;">E</text>
   <text y="461.347" transform="matrix(0.70711,-0.70711,0.70711,0.70711,-254.36786,308.59567)" rotateDegrees="-45" matrix="[29.803345,29.803345,-29.803345,29.803345,245.32443,380.57266]" x="245.324" svgx:width="0.72" style="fill:rgb(0,0,0);font-family:Arial;font-size:42.15px;stroke:none;">D</text>
   <text y="439.829" transform="matrix(0.70711,-0.70711,0.70711,0.70711,-232.84986,317.50872)" rotateDegrees="-45" matrix="[29.803345,29.803345,-29.803345,29.803345,266.84247,402.0907]" x="266.842" svgx:width="0.28" style="fill:rgb(0,0,0);font-family:Arial;font-size:42.15px;stroke:none;"> </text>
   <text y="431.54" transform="matrix(0.70711,-0.70711,0.70711,0.70711,-224.56056,320.94284)" rotateDegrees="-45" matrix="[29.803345,29.803345,-29.803345,29.803345,275.13153,410.37976]" x="275.132" svgx:width="0.67" style="fill:rgb(0,0,0);font-family:Arial;font-size:42.15px;stroke:none;">V</text>
   <text y="411.661" transform="matrix(0.70711,-0.70711,0.70711,0.70711,-204.68186,329.17629)" rotateDegrees="-45" matrix="[29.803345,29.803345,-29.803345,29.803345,295.0103,430.25858]" x="295.01" svgx:width="0.67" style="fill:rgb(0,0,0);font-family:Arial;font-size:42.15px;stroke:none;">E</text>
   <text y="391.783" transform="matrix(0.70711,-0.70711,0.70711,0.70711,-184.80356,337.41073)" rotateDegrees="-45" matrix="[29.803345,29.803345,-29.803345,29.803345,314.88916,450.1374]" x="314.889" svgx:width="0.72" style="fill:rgb(0,0,0);font-family:Arial;font-size:42.15px;stroke:none;">R</text>
   <text y="370.265" transform="matrix(0.70711,-0.70711,0.70711,0.70711,-163.28556,346.32378)" rotateDegrees="-45" matrix="[29.803345,29.803345,-29.803345,29.803345,336.40717,471.65543]" x="336.407" svgx:width="0.67" style="fill:rgb(0,0,0);font-family:Arial;font-size:42.15px;stroke:none;">S</text>
   <text y="350.386" transform="matrix(0.70711,-0.70711,0.70711,0.70711,-143.40656,354.55793)" rotateDegrees="-45" matrix="[29.803345,29.803345,-29.803345,29.803345,356.286,491.53424]" x="356.286" svgx:width="0.28" style="fill:rgb(0,0,0);font-family:Arial;font-size:42.15px;stroke:none;">I</text>
   <text y="342.1" transform="matrix(0.70711,-0.70711,0.70711,0.70711,-135.12086,357.9894)" rotateDegrees="-45" matrix="[29.803345,29.803345,-29.803345,29.803345,364.57135,499.81958]" x="364.571" svgx:width="0.78" style="fill:rgb(0,0,0);font-family:Arial;font-size:42.15px;stroke:none;">O</text>
   <text y="318.913" transform="matrix(0.70711,-0.70711,0.70711,0.70711,-111.93386,367.59377)" rotateDegrees="-45" matrix="[29.803345,29.803345,-29.803345,29.803345,387.7583,523.0066]" x="387.758" svgx:width="0.72" style="fill:rgb(0,0,0);font-family:Arial;font-size:42.15px;stroke:none;">N</text>
   <text y="297.395" transform="matrix(0.70711,-0.70711,0.70711,0.70711,-90.41586,376.50681)" rotateDegrees="-45" matrix="[29.803345,29.803345,-29.803345,29.803345,409.27637,544.5246]" x="409.276" svgx:width="0.28" style="fill:rgb(0,0,0);font-family:Arial;font-size:42.15px;stroke:none;"> </text>
   <text y="637.872" transform="matrix(0.70711,-0.70711,0.70711,0.70711,-409.94279,286.05456)" rotateDegrees="-45" matrix="[29.803345,29.803345,-29.803345,29.803345,140.32727,204.04747]" x="140.327" svgx:width="0.67" style="fill:rgb(0,0,0);font-family:Arial;font-size:42.15px;stroke:none;">S</text>
   <text y="617.994" transform="matrix(0.70711,-0.70711,0.70711,0.70711,-390.0645,294.289)" rotateDegrees="-45" matrix="[29.803345,29.803345,-29.803345,29.803345,160.2061,223.9263]" x="160.206" svgx:width="0.72" style="fill:rgb(0,0,0);font-family:Arial;font-size:42.15px;stroke:none;">U</text>
   <text y="596.476" transform="matrix(0.70711,-0.70711,0.70711,0.70711,-368.5465,303.20205)" rotateDegrees="-45" matrix="[29.803345,29.803345,-29.803345,29.803345,181.72412,245.4443]" x="181.724" svgx:width="0.67" style="fill:rgb(0,0,0);font-family:Arial;font-size:42.15px;stroke:none;">B</text>
   <text y="576.597" transform="matrix(0.70711,-0.70711,0.70711,0.70711,-348.6675,311.4362)" rotateDegrees="-45" matrix="[29.803345,29.803345,-29.803345,29.803345,201.60294,265.32315]" x="201.603" svgx:width="0.5" style="fill:rgb(0,0,0);font-family:Arial;font-size:42.15px;stroke:none;">J</text>
   <text y="561.695" transform="matrix(0.70711,-0.70711,0.70711,0.70711,-333.7655,317.60881)" rotateDegrees="-45" matrix="[29.803345,29.803345,-29.803345,29.803345,216.50462,280.22482]" x="216.505" svgx:width="0.67" style="fill:rgb(0,0,0);font-family:Arial;font-size:42.15px;stroke:none;">E</text>
   <text y="541.816" transform="matrix(0.70711,-0.70711,0.70711,0.70711,-313.88679,325.84225)" rotateDegrees="-45" matrix="[29.803345,29.803345,-29.803345,29.803345,236.38344,300.10364]" x="236.383" svgx:width="0.72" style="fill:rgb(0,0,0);font-family:Arial;font-size:42.15px;stroke:none;">C</text>
   <text y="520.298" transform="matrix(0.70711,-0.70711,0.70711,0.70711,-292.36879,334.7553)" rotateDegrees="-45" matrix="[29.803345,29.803345,-29.803345,29.803345,257.90146,321.62164]" x="257.901" svgx:width="0.61" style="fill:rgb(0,0,0);font-family:Arial;font-size:42.15px;stroke:none;">T</text>
   <text y="502.089" transform="matrix(0.70711,-0.70711,0.70711,0.70711,-274.1595,342.29842)" rotateDegrees="-45" matrix="[29.803345,29.803345,-29.803345,29.803345,276.1113,339.83148]" x="276.111" svgx:width="0.28" style="fill:rgb(0,0,0);font-family:Arial;font-size:42.15px;stroke:none;"> </text>
   <text y="493.803" transform="matrix(0.70711,-0.70711,0.70711,0.70711,-265.8735,345.7306)" rotateDegrees="-45" matrix="[29.803345,29.803345,-29.803345,29.803345,284.39664,348.11682]" x="284.397" svgx:width="0.61" style="fill:rgb(0,0,0);font-family:Arial;font-size:42.15px;stroke:none;">T</text>
   <text y="475.593" transform="matrix(0.70711,-0.70711,0.70711,0.70711,-247.66379,353.27272)" rotateDegrees="-45" matrix="[29.803345,29.803345,-29.803345,29.803345,302.60648,366.32666]" x="302.606" svgx:width="0.78" style="fill:rgb(0,0,0);font-family:Arial;font-size:42.15px;stroke:none;">O</text>
   <text y="452.406" transform="matrix(0.70711,-0.70711,0.70711,0.70711,-224.47679,362.87709)" rotateDegrees="-45" matrix="[29.803345,29.803345,-29.803345,29.803345,325.79346,389.51367]" x="325.793" svgx:width="0.28" style="fill:rgb(0,0,0);font-family:Arial;font-size:42.15px;stroke:none;"> </text>
   <text y="444.136" transform="matrix(0.70711,-0.70711,0.70711,0.70711,-216.2065,366.30334)" rotateDegrees="-45" matrix="[29.803345,29.803345,-29.803345,29.803345,334.0639,397.78412]" x="334.064" svgx:width="0.61" style="fill:rgb(0,0,0);font-family:Arial;font-size:42.15px;stroke:none;">F</text>
   <text y="425.926" transform="matrix(0.70711,-0.70711,0.70711,0.70711,-197.9965,373.84617)" rotateDegrees="-45" matrix="[29.803345,29.803345,-29.803345,29.803345,352.27374,415.99396]" x="352.274" svgx:width="0.28" style="fill:rgb(0,0,0);font-family:Arial;font-size:42.15px;stroke:none;">I</text>
   <text y="417.641" transform="matrix(0.70711,-0.70711,0.70711,0.70711,-189.7115,377.27793)" rotateDegrees="-45" matrix="[29.803345,29.803345,-29.803345,29.803345,360.55908,424.2793]" x="360.559" svgx:width="0.72" style="fill:rgb(0,0,0);font-family:Arial;font-size:42.15px;stroke:none;">N</text>
   <text y="396.123" transform="matrix(0.70711,-0.70711,0.70711,0.70711,-168.1935,386.19098)" rotateDegrees="-45" matrix="[29.803345,29.803345,-29.803345,29.803345,382.0771,445.7973]" x="382.077" svgx:width="0.67" style="fill:rgb(0,0,0);font-family:Arial;font-size:42.15px;stroke:none;">A</text>
   <text y="376.244" transform="matrix(0.70711,-0.70711,0.70711,0.70711,-148.3145,394.42513)" rotateDegrees="-45" matrix="[29.803345,29.803345,-29.803345,29.803345,401.95593,465.67615]" x="401.956" svgx:width="0.56" style="fill:rgb(0,0,0);font-family:Arial;font-size:42.15px;stroke:none;">L</text>
   <text y="359.673" transform="matrix(0.70711,-0.70711,0.70711,0.70711,-131.7435,401.28906)" rotateDegrees="-45" matrix="[29.803345,29.803345,-29.803345,29.803345,418.5266,482.24677]" x="418.527" svgx:width="0.28" style="fill:rgb(0,0,0);font-family:Arial;font-size:42.15px;stroke:none;"> </text>
   <text y="351.394" transform="matrix(0.70711,-0.70711,0.70711,0.70711,-123.4645,404.71834)" rotateDegrees="-45" matrix="[29.803345,29.803345,-29.803345,29.803345,426.80573,490.52588]" x="426.806" svgx:width="0.67" style="fill:rgb(0,0,0);font-family:Arial;font-size:42.15px;stroke:none;">E</text>
   <text y="331.515" transform="matrix(0.70711,-0.70711,0.70711,0.70711,-103.5855,412.95249)" rotateDegrees="-45" matrix="[29.803345,29.803345,-29.803345,29.803345,446.68457,510.40472]" x="446.685" svgx:width="0.72" style="fill:rgb(0,0,0);font-family:Arial;font-size:42.15px;stroke:none;">D</text>
   <text y="309.997" transform="matrix(0.70711,-0.70711,0.70711,0.70711,-82.0675,421.86554)" rotateDegrees="-45" matrix="[29.803345,29.803345,-29.803345,29.803345,468.2025,531.9227]" x="468.203" svgx:width="0.28" style="fill:rgb(0,0,0);font-family:Arial;font-size:42.15px;stroke:none;">I</text>
   <text y="301.712" transform="matrix(0.70711,-0.70711,0.70711,0.70711,-73.7825,425.29729)" rotateDegrees="-45" matrix="[29.803345,29.803345,-29.803345,29.803345,476.48785,540.20807]" x="476.488" svgx:width="0.61" style="fill:rgb(0,0,0);font-family:Arial;font-size:42.15px;stroke:none;">T</text>
   <text y="283.502" transform="matrix(0.70711,-0.70711,0.70711,0.70711,-55.5725,432.84012)" rotateDegrees="-45" matrix="[29.803345,29.803345,-29.803345,29.803345,494.6977,558.4179]" x="494.698" svgx:width="0.67" style="fill:rgb(0,0,0);font-family:Arial;font-size:42.15px;stroke:none;">S</text>
  </g>
 </g>
</svg>
