<?xml version="1.0" encoding="UTF-8"?>
<svg height="663.24" width="2656.2" xmlns="http://www.w3.org/2000/svg">
 <g id="page" xmlns:svgx="http://www.xml-cml.org/schema/svgx">
  <g begin="text">
   <text y="45.72" x="72.0,78.138,81.207,86.727,91.563,94.676,97.436,105.352,110.872,116.392,121.194,124.904,130.424,138.947,143.848,149.368,152.493,155.253,163.058,166.171,170.366,173.48,177.079,180.192,185.712,191.111,194.113,197.227,202.747" svgx:width="0.56,0.28,0.5,0.44,0.28,0.25,0.72,0.5,0.5,0.44,0.33,0.5,0.78,0.44,0.5,0.28,0.25,0.72,0.28,0.39,0.28,0.33,0.28,0.5,0.5,0.28,0.28,0.5,0.5" style="fill:rgb(0,0,0);font-family:TimesNewRomanPSMT;font-size:11.04px;stroke:none;">Final Government Distribution</text>
  </g>
  <g begin="text">
   <text y="45.72" x="208.34" svgx:width="0.25" style="fill:rgb(0,0,0);font-family:TimesNewRomanPSMT;font-size:11.04px;stroke:none;"> </text>
  </g>
  <g begin="text">
   <text y="45.72" x="210.98" svgx:width="0.25" style="fill:rgb(0,0,0);font-family:TimesNewRomanPSMT;font-size:11.04px;stroke:none;"> </text>
  </g>
  <g begin="text">
   <text y="45.72" x="276.17,283.49,289.009,293.911,299.431,302.556,307.358,311.067,313.827" svgx:width="0.67,0.5,0.44,0.5,0.28,0.44,0.33,0.25,0.5" style="fill:rgb(0,0,0);font-family:TimesNewRomanPSMT;font-size:11.04px;stroke:none;">Chapter 4</text>
  </g>
  <g begin="text">
   <text y="45.72" x="319.25" svgx:width="0.25" style="fill:rgb(0,0,0);font-family:TimesNewRomanPSMT;font-size:11.04px;stroke:none;"> </text>
  </g>
  <g begin="text">
   <text y="45.72" x="443.35,446.949,453.087,460.385,467.704" svgx:width="0.33,0.56,0.67,0.67,0.25" style="fill:rgb(0,0,0);font-family:TimesNewRomanPSMT;font-size:11.04px;stroke:none;">IPCC </text>
  </g>
  <g begin="text">
   <text y="45.72" x="470.47,478.386,485.705,491.225,493.985,504.407,512.378,516.054,519.664" svgx:width="0.72,0.67,0.5,0.25,0.94,0.72,0.33,0.33,0.33" style="fill:rgb(0,0,0);font-family:TimesNewRomanPSMT;font-size:11.04px;stroke:none;">AR6 WGIII</text>
  </g>
  <g begin="text">
   <text y="45.72" x="523.39" svgx:width="0.25" style="fill:rgb(0,0,0);font-family:TimesNewRomanPSMT;font-size:11.04px;stroke:none;"> </text>
  </g>
  <g begin="text">
   <text y="60.5" x="72.0" svgx:width="0.25" style="fill:rgb(0,0,0);font-family:TimesNewRomanPSMT;font-size:12.0px;stroke:none;"> </text>
  </g>
  <g begin="text">
   <text y="74.3" x="72.0" svgx:width="0.25" style="fill:rgb(0,0,0);font-family:TimesNewRomanPSMT;font-size:12.0px;stroke:none;"> </text>
  </g>
  <g begin="text">
   <text y="88.1" x="72.0" svgx:width="0.25" style="fill:rgb(0,0,0);font-family:TimesNewRomanPSMT;font-size:12.0px;stroke:none;"> </text>
  </g>
  <g begin="text">
   <text y="528.696" x="72.0,79.916,85.436,88.196,96.111,101.631,105.341,108.101,116.016,119.13,122.729,127.631,130.391,133.051,141.684,147.823,153.343,157.019,161.844,164.604,170.124,175.025,177.785,185.756,188.726,192.921,196.631,201.532,204.657,210.795,216.779,220.488" svgx:width="0.72,0.5,0.25,0.72,0.5,0.33,0.25,0.72,0.28,0.33,0.44,0.25,0.25,0.78,0.56,0.5,0.33,0.44,0.25,0.5,0.44,0.25,0.72,0.28,0.39,0.33,0.44,0.28,0.56,0.56,0.33,0.44" style="fill:rgb(0,0,0);font-family:TimesNewRomanPS-BoldMT;font-size:11.04px;stroke:none;">Do Not Cite, Quote or Distribute</text>
  </g>
  <g begin="text">
   <text y="528.696" x="225.38" svgx:width="0.25" style="fill:rgb(0,0,0);font-family:TimesNewRomanPS-BoldMT;font-size:11.04px;stroke:none;"> </text>
  </g>
  <g begin="text">
   <text y="528.696" x="287.57" svgx:width="0.5" style="fill:rgb(0,0,0);font-family:TimesNewRomanPSMT;font-size:11.04px;stroke:none;">4</text>
  </g>
  <g begin="text">
   <text y="528.696" x="293.09" svgx:width="0.33" style="fill:rgb(0,0,0);font-family:TimesNewRomanPSMT;font-size:11.04px;stroke:none;">-</text>
  </g>
  <g begin="text">
   <text y="528.696" x="296.69,302.21" svgx:width="0.5,0.5" style="fill:rgb(0,0,0);font-family:TimesNewRomanPSMT;font-size:11.04px;stroke:none;">53</text>
  </g>
  <g begin="text">
   <text y="528.696" x="307.73" svgx:width="0.25" style="fill:rgb(0,0,0);font-family:TimesNewRomanPSMT;font-size:11.04px;stroke:none;"> </text>
  </g>
  <g begin="text">
   <text y="528.696" x="310.49" svgx:width="0.25" style="fill:rgb(0,0,0);font-family:TimesNewRomanPSMT;font-size:11.04px;stroke:none;"> </text>
  </g>
  <g begin="text">
   <text y="528.696" x="450.07,456.815,462.335,465.405,470.229,473.342,476.102,481.622,486.524,491.945,496.846,501.174,504.177" svgx:width="0.61,0.5,0.28,0.44,0.28,0.25,0.5,0.44,0.5,0.44,0.39,0.28,0.25" style="fill:rgb(0,0,0);font-family:TimesNewRomanPSMT;font-size:11.04px;stroke:none;">Total pages: </text>
  </g>
  <g begin="text">
   <text y="528.696" x="506.95,512.47,517.99" svgx:width="0.5,0.5,0.5" style="fill:rgb(0,0,0);font-family:TimesNewRomanPSMT;font-size:11.04px;stroke:none;">156</text>
  </g>
  <g begin="text">
   <text y="528.696" x="523.39" svgx:width="0.25" style="fill:rgb(0,0,0);font-family:TimesNewRomanPSMT;font-size:9.96px;stroke:none;"> </text>
  </g>
  <g begin="text">
   <text y="543.456" x="72.0" svgx:width="0.25" style="fill:rgb(0,0,0);font-family:TimesNewRomanPSMT;font-size:12.0px;stroke:none;"> </text>
  </g>
  <g begin="text">
   <text y="557.256" x="72.0" svgx:width="0.25" style="fill:rgb(0,0,0);font-family:TimesNewRomanPSMT;font-size:12.0px;stroke:none;"> </text>
  </g>
  <g begin="text">
   <text y="449.38" x="695.74" svgx:width="0.25" style="fill:rgb(0,0,0);font-family:TimesNewRomanPS-BoldMT;font-size:9.96px;stroke:none;"> </text>
  </g>
  <g begin="text">
   <text y="449.38" x="48.0" svgx:width="0.5" style="fill:rgb(0,0,0);font-family:TimesNewRomanPSMT;font-size:12.0px;stroke:none;">1</text>
  </g>
  <g begin="text">
   <text y="449.38" x="54.0" svgx:width="0.25" style="fill:rgb(0,0,0);font-family:TimesNewRomanPSMT;font-size:12.0px;stroke:none;"> </text>
  </g>
  <g begin="text">
   <text y="459.82" x="203.06,209.165,211.934,216.954,222.492,226.914,231.336" svgx:width="0.61,0.28,0.5,0.56,0.44,0.44,0.25" style="fill:rgb(0,0,0);font-family:TimesNewRomanPS-BoldMT;font-size:9.96px;stroke:none;">Figure </text>
  </g>
  <g begin="text">
   <text y="459.82" x="233.9" svgx:width="0.5" style="fill:rgb(0,0,0);font-family:TimesNewRomanPS-BoldMT;font-size:9.96px;stroke:none;">4</text>
  </g>
  <g begin="text">
   <text y="459.82" x="238.94" svgx:width="0.25" style="fill:rgb(0,0,0);font-family:TimesNewRomanPS-BoldMT;font-size:9.96px;stroke:none;">.</text>
  </g>
  <g begin="text">
   <text y="459.82" x="241.46" svgx:width="0.5" style="fill:rgb(0,0,0);font-family:TimesNewRomanPS-BoldMT;font-size:9.96px;stroke:none;">4</text>
  </g>
  <g begin="text">
   <text y="459.82" x="246.5" svgx:width="0.25" style="fill:rgb(0,0,0);font-family:TimesNewRomanPS-BoldMT;font-size:9.96px;stroke:none;"> </text>
  </g>
  <g begin="text">
   <text y="459.82" x="249.02,256.809,264.0,270.115,272.516,277.546,282.575,287.605,290.374,295.912,299.726,303.073,305.583,310.005,318.411,321.18,324.895,328.74,331.509,336.529,342.066,345.891,348.401,351.17,356.708,359.198,363.62,368.67,374.297,379.835,383.151,387.603" svgx:width="0.78,0.72,0.61,0.25,0.5,0.5,0.5,0.28,0.56,0.39,0.33,0.25,0.44,0.83,0.28,0.39,0.39,0.28,0.5,0.56,0.39,0.25,0.28,0.56,0.25,0.44,0.5,0.56,0.56,0.33,0.44,0.5" style="fill:rgb(0,0,0);font-family:TimesNewRomanPS-BoldMT;font-size:9.96px;stroke:none;">GDP against emissions in country</text>
  </g>
  <g begin="text">
   <text y="459.82" x="392.81" svgx:width="0.33" style="fill:rgb(0,0,0);font-family:TimesNewRomanPS-BoldMT;font-size:9.96px;stroke:none;">-</text>
  </g>
  <g begin="text">
   <text y="459.82" x="396.17,398.939,403.361,408.401,412.823,415.592,418.112,426.498,431.528,437.066,441.488,444.257,446.886,449.655,455.193,460.193,462.703,466.547,469.894,475.432,480.93,483.699,488.121,491.995,494.485,496.995,499.864,505.401,507.891,512.931,517.961,522.383,525.152,530.192,533.538,536.307,541.327,546.865,550.689,553.199,557.622,562.074,564.843,569.862,573.209,575.978,580.998,585.42,587.95,591.187,596.216,598.726,603.148,607.601,610.947,615.369,619.822,624.244,629.782,634.204" svgx:width="0.28,0.44,0.5,0.44,0.28,0.25,0.83,0.5,0.56,0.44,0.28,0.28,0.28,0.56,0.5,0.25,0.39,0.33,0.56,0.56,0.28,0.44,0.39,0.25,0.25,0.28,0.56,0.25,0.5,0.5,0.44,0.28,0.5,0.33,0.28,0.5,0.56,0.39,0.25,0.44,0.44,0.28,0.5,0.33,0.28,0.5,0.44,0.25,0.33,0.5,0.25,0.44,0.44,0.33,0.44,0.44,0.44,0.56,0.44,0.44" style="fill:rgb(0,0,0);font-family:TimesNewRomanPS-BoldMT;font-size:9.96px;stroke:none;">level modelling studies, in variations relative to reference</text>
  </g>
  <g begin="text">
   <text y="459.82" x="638.86" svgx:width="0.25" style="fill:rgb(0,0,0);font-family:TimesNewRomanPSMT;font-size:9.96px;stroke:none;"> </text>
  </g>
  <g begin="text">
   <text y="459.82" x="48.0" svgx:width="0.5" style="fill:rgb(0,0,0);font-family:TimesNewRomanPSMT;font-size:12.0px;stroke:none;">2</text>
  </g>
  <g begin="text">
   <text y="459.82" x="54.0" svgx:width="0.25" style="fill:rgb(0,0,0);font-family:TimesNewRomanPSMT;font-size:12.0px;stroke:none;"> </text>
  </g>
  <rect style="fill:pink;opacity:0.2;stroke:blue;stroke-width:0.3;" x="146.2" y="295.44" height="357.8" width="549.49" title="54"/>
  <text y="295.44" class="image" id="image.54.1" width="549" height="357" x="146.2" style="font-size:5.0px;">image.54.1.146_696.295_653</text>
  <g begin="text">
   <text y="478.906" transform="matrix(0.70711,-0.70711,0.70711,0.70711,-271.92861,301.31825)" rotateDegrees="-45" matrix="[29.819458,29.819458,-29.819458,29.819458,227.75916,116.41376]" x="227.759" svgx:width="0.67" style="fill:rgb(0,0,0);font-family:Arial;font-size:42.17px;stroke:none;">A</text>
   <text y="459.017" transform="matrix(0.70711,-0.70711,0.70711,0.70711,-252.03932,309.55725)" rotateDegrees="-45" matrix="[29.819458,29.819458,-29.819458,29.819458,247.64874,136.30333]" x="247.649" svgx:width="0.72" style="fill:rgb(0,0,0);font-family:Arial;font-size:42.17px;stroke:none;">C</text>
   <text y="437.487" transform="matrix(0.70711,-0.70711,0.70711,0.70711,-230.50961,318.47456)" rotateDegrees="-45" matrix="[29.819458,29.819458,-29.819458,29.819458,269.17838,157.83298]" x="269.178" svgx:width="0.72" style="fill:rgb(0,0,0);font-family:Arial;font-size:42.17px;stroke:none;">C</text>
   <text y="415.957" transform="matrix(0.70711,-0.70711,0.70711,0.70711,-208.97961,327.39258)" rotateDegrees="-45" matrix="[29.819458,29.819458,-29.819458,29.819458,290.70804,179.36263]" x="290.708" svgx:width="0.67" style="fill:rgb(0,0,0);font-family:Arial;font-size:42.17px;stroke:none;">E</text>
   <text y="396.068" transform="matrix(0.70711,-0.70711,0.70711,0.70711,-189.09032,335.63158)" rotateDegrees="-45" matrix="[29.819458,29.819458,-29.819458,29.819458,310.5976,199.2522]" x="310.598" svgx:width="0.67" style="fill:rgb(0,0,0);font-family:Arial;font-size:42.17px;stroke:none;">P</text>
   <text y="376.178" transform="matrix(0.70711,-0.70711,0.70711,0.70711,-169.20061,343.86958)" rotateDegrees="-45" matrix="[29.819458,29.819458,-29.819458,29.819458,330.48718,219.14178]" x="330.487" svgx:width="0.61" style="fill:rgb(0,0,0);font-family:Arial;font-size:42.17px;stroke:none;">T</text>
   <text y="357.959" transform="matrix(0.70711,-0.70711,0.70711,0.70711,-150.98132,351.41685)" rotateDegrees="-45" matrix="[29.819458,29.819458,-29.819458,29.819458,348.70688,237.36148]" x="348.707" svgx:width="0.67" style="fill:rgb(0,0,0);font-family:Arial;font-size:42.17px;stroke:none;">E</text>
   <text y="338.069" transform="matrix(0.70711,-0.70711,0.70711,0.70711,-131.09161,359.65485)" rotateDegrees="-45" matrix="[29.819458,29.819458,-29.819458,29.819458,368.59644,257.25104]" x="368.596" svgx:width="0.72" style="fill:rgb(0,0,0);font-family:Arial;font-size:42.17px;stroke:none;">D</text>
   <text y="316.539" transform="matrix(0.70711,-0.70711,0.70711,0.70711,-109.56161,368.57287)" rotateDegrees="-45" matrix="[29.819458,29.819458,-29.819458,29.819458,390.1261,278.7807]" x="390.126" svgx:width="0.28" style="fill:rgb(0,0,0);font-family:Arial;font-size:42.17px;stroke:none;"> </text>
   <text y="308.246" transform="matrix(0.70711,-0.70711,0.70711,0.70711,-101.26832,372.00865)" rotateDegrees="-45" matrix="[29.819458,29.819458,-29.819458,29.819458,398.41962,287.07422]" x="398.42" svgx:width="0.67" style="fill:rgb(0,0,0);font-family:Arial;font-size:42.17px;stroke:none;">V</text>
   <text y="288.356" transform="matrix(0.70711,-0.70711,0.70711,0.70711,-81.37861,380.24665)" rotateDegrees="-45" matrix="[29.819458,29.819458,-29.819458,29.819458,418.3092,306.9638]" x="418.309" svgx:width="0.67" style="fill:rgb(0,0,0);font-family:Arial;font-size:42.17px;stroke:none;">E</text>
   <text y="268.467" transform="matrix(0.70711,-0.70711,0.70711,0.70711,-61.48932,388.48565)" rotateDegrees="-45" matrix="[29.819458,29.819458,-29.819458,29.819458,438.1988,326.8534]" x="438.199" svgx:width="0.72" style="fill:rgb(0,0,0);font-family:Arial;font-size:42.17px;stroke:none;">R</text>
   <text y="246.937" transform="matrix(0.70711,-0.70711,0.70711,0.70711,-39.95961,397.40296)" rotateDegrees="-45" matrix="[29.819458,29.819458,-29.819458,29.819458,459.72845,348.38306]" x="459.728" svgx:width="0.67" style="fill:rgb(0,0,0);font-family:Arial;font-size:42.17px;stroke:none;">S</text>
   <text y="227.047" transform="matrix(0.70711,-0.70711,0.70711,0.70711,-20.06961,405.64167)" rotateDegrees="-45" matrix="[29.819458,29.819458,-29.819458,29.819458,479.618,368.2726]" x="479.618" svgx:width="0.28" style="fill:rgb(0,0,0);font-family:Arial;font-size:42.17px;stroke:none;">I</text>
   <text y="218.758" transform="matrix(0.70711,-0.70711,0.70711,0.70711,-11.78032,409.07579)" rotateDegrees="-45" matrix="[29.819458,29.819458,-29.819458,29.819458,487.9078,376.5624]" x="487.908" svgx:width="0.78" style="fill:rgb(0,0,0);font-family:Arial;font-size:42.17px;stroke:none;">O</text>
   <text y="195.558" transform="matrix(0.70711,-0.70711,0.70711,0.70711,11.41939,418.68484)" rotateDegrees="-45" matrix="[29.819458,29.819458,-29.819458,29.819458,511.10736,399.76196]" x="511.107" svgx:width="0.72" style="fill:rgb(0,0,0);font-family:Arial;font-size:42.17px;stroke:none;">N</text>
   <text y="174.028" transform="matrix(0.70711,-0.70711,0.70711,0.70711,32.94939,427.60286)" rotateDegrees="-45" matrix="[29.819458,29.819458,-29.819458,29.819458,532.63696,421.2916]" x="532.637" svgx:width="0.28" style="fill:rgb(0,0,0);font-family:Arial;font-size:42.17px;stroke:none;"> </text>
   <text y="514.69" transform="matrix(0.70711,-0.70711,0.70711,0.70711,-286.75083,337.10225)" rotateDegrees="-45" matrix="[29.819458,29.819458,-29.819458,29.819458,263.5425,80.6304]" x="263.543" svgx:width="0.67" style="fill:rgb(0,0,0);font-family:Arial;font-size:42.17px;stroke:none;">S</text>
   <text y="494.8" transform="matrix(0.70711,-0.70711,0.70711,0.70711,-266.86112,345.34025)" rotateDegrees="-45" matrix="[29.819458,29.819458,-29.819458,29.819458,283.43207,100.51998]" x="283.432" svgx:width="0.72" style="fill:rgb(0,0,0);font-family:Arial;font-size:42.17px;stroke:none;">U</text>
   <text y="473.27" transform="matrix(0.70711,-0.70711,0.70711,0.70711,-245.33112,354.25827)" rotateDegrees="-45" matrix="[29.819458,29.819458,-29.819458,29.819458,304.96173,122.04963]" x="304.962" svgx:width="0.67" style="fill:rgb(0,0,0);font-family:Arial;font-size:42.17px;stroke:none;">B</text>
   <text y="453.381" transform="matrix(0.70711,-0.70711,0.70711,0.70711,-225.44212,362.49657)" rotateDegrees="-45" matrix="[29.819458,29.819458,-29.819458,29.819458,324.85132,141.93921]" x="324.851" svgx:width="0.5" style="fill:rgb(0,0,0);font-family:Arial;font-size:42.17px;stroke:none;">J</text>
   <text y="438.471" transform="matrix(0.70711,-0.70711,0.70711,0.70711,-210.53212,368.67249)" rotateDegrees="-45" matrix="[29.819458,29.819458,-29.819458,29.819458,339.76105,156.84894]" x="339.761" svgx:width="0.67" style="fill:rgb(0,0,0);font-family:Arial;font-size:42.17px;stroke:none;">E</text>
   <text y="418.581" transform="matrix(0.70711,-0.70711,0.70711,0.70711,-190.64212,376.9112)" rotateDegrees="-45" matrix="[29.819458,29.819458,-29.819458,29.819458,359.65063,176.73851]" x="359.651" svgx:width="0.72" style="fill:rgb(0,0,0);font-family:Arial;font-size:42.17px;stroke:none;">C</text>
   <text y="397.052" transform="matrix(0.70711,-0.70711,0.70711,0.70711,-169.11312,385.8288)" rotateDegrees="-45" matrix="[29.819458,29.819458,-29.819458,29.819458,381.18027,198.26816]" x="381.18" svgx:width="0.61" style="fill:rgb(0,0,0);font-family:Arial;font-size:42.17px;stroke:none;">T</text>
   <text y="378.832" transform="matrix(0.70711,-0.70711,0.70711,0.70711,-150.89312,393.37577)" rotateDegrees="-45" matrix="[29.819458,29.819458,-29.819458,29.819458,399.39996,216.48784]" x="399.4" svgx:width="0.28" style="fill:rgb(0,0,0);font-family:Arial;font-size:42.17px;stroke:none;"> </text>
   <text y="370.542" transform="matrix(0.70711,-0.70711,0.70711,0.70711,-142.60312,396.8096)" rotateDegrees="-45" matrix="[29.819458,29.819458,-29.819458,29.819458,407.68976,224.77766]" x="407.69" svgx:width="0.61" style="fill:rgb(0,0,0);font-family:Arial;font-size:42.17px;stroke:none;">T</text>
   <text y="352.323" transform="matrix(0.70711,-0.70711,0.70711,0.70711,-124.38412,404.35616)" rotateDegrees="-45" matrix="[29.819458,29.819458,-29.819458,29.819458,425.90945,242.99734]" x="425.909" svgx:width="0.78" style="fill:rgb(0,0,0);font-family:Arial;font-size:42.17px;stroke:none;">O</text>
   <text y="329.123" transform="matrix(0.70711,-0.70711,0.70711,0.70711,-101.18412,413.96591)" rotateDegrees="-45" matrix="[29.819458,29.819458,-29.819458,29.819458,449.10898,266.19687]" x="449.109" svgx:width="0.28" style="fill:rgb(0,0,0);font-family:Arial;font-size:42.17px;stroke:none;"> </text>
   <text y="320.848" transform="matrix(0.70711,-0.70711,0.70711,0.70711,-92.90912,417.39353)" rotateDegrees="-45" matrix="[29.819458,29.819458,-29.819458,29.819458,457.3839,274.4718]" x="457.384" svgx:width="0.61" style="fill:rgb(0,0,0);font-family:Arial;font-size:42.17px;stroke:none;">F</text>
   <text y="302.629" transform="matrix(0.70711,-0.70711,0.70711,0.70711,-74.68983,424.9408)" rotateDegrees="-45" matrix="[29.819458,29.819458,-29.819458,29.819458,475.60358,292.69147]" x="475.604" svgx:width="0.28" style="fill:rgb(0,0,0);font-family:Arial;font-size:42.17px;stroke:none;">I</text>
   <text y="294.339" transform="matrix(0.70711,-0.70711,0.70711,0.70711,-66.40012,428.37392)" rotateDegrees="-45" matrix="[29.819458,29.819458,-29.819458,29.819458,483.89337,300.98126]" x="483.893" svgx:width="0.72" style="fill:rgb(0,0,0);font-family:Arial;font-size:42.17px;stroke:none;">N</text>
   <text y="272.809" transform="matrix(0.70711,-0.70711,0.70711,0.70711,-44.87012,437.29194)" rotateDegrees="-45" matrix="[29.819458,29.819458,-29.819458,29.819458,505.42303,322.51093]" x="505.423" svgx:width="0.67" style="fill:rgb(0,0,0);font-family:Arial;font-size:42.17px;stroke:none;">A</text>
   <text y="252.919" transform="matrix(0.70711,-0.70711,0.70711,0.70711,-24.98012,445.53064)" rotateDegrees="-45" matrix="[29.819458,29.819458,-29.819458,29.819458,525.3126,342.4005]" x="525.313" svgx:width="0.56" style="fill:rgb(0,0,0);font-family:Arial;font-size:42.17px;stroke:none;">L</text>
   <text y="236.34" transform="matrix(0.70711,-0.70711,0.70711,0.70711,-8.40112,452.39789)" rotateDegrees="-45" matrix="[29.819458,29.819458,-29.819458,29.819458,541.8922,358.9801]" x="541.892" svgx:width="0.28" style="fill:rgb(0,0,0);font-family:Arial;font-size:42.17px;stroke:none;"> </text>
   <text y="228.056" transform="matrix(0.70711,-0.70711,0.70711,0.70711,-0.11712,455.82924)" rotateDegrees="-45" matrix="[29.819458,29.819458,-29.819458,29.819458,550.17584,367.26373]" x="550.176" svgx:width="0.67" style="fill:rgb(0,0,0);font-family:Arial;font-size:42.17px;stroke:none;">E</text>
   <text y="208.167" transform="matrix(0.70711,-0.70711,0.70711,0.70711,19.77188,464.06753)" rotateDegrees="-45" matrix="[29.819458,29.819458,-29.819458,29.819458,570.0654,387.1533]" x="570.065" svgx:width="0.72" style="fill:rgb(0,0,0);font-family:Arial;font-size:42.17px;stroke:none;">D</text>
   <text y="186.637" transform="matrix(0.70711,-0.70711,0.70711,0.70711,41.30188,472.98555)" rotateDegrees="-45" matrix="[29.819458,29.819458,-29.819458,29.819458,591.59503,408.68292]" x="591.595" svgx:width="0.28" style="fill:rgb(0,0,0);font-family:Arial;font-size:42.17px;stroke:none;">I</text>
   <text y="178.347" transform="matrix(0.70711,-0.70711,0.70711,0.70711,49.59188,476.41938)" rotateDegrees="-45" matrix="[29.819458,29.819458,-29.819458,29.819458,599.8848,416.97272]" x="599.885" svgx:width="0.61" style="fill:rgb(0,0,0);font-family:Arial;font-size:42.17px;stroke:none;">T</text>
   <text y="160.128" transform="matrix(0.70711,-0.70711,0.70711,0.70711,67.81088,483.96594)" rotateDegrees="-45" matrix="[29.819458,29.819458,-29.819458,29.819458,618.1045,435.1924]" x="618.104" svgx:width="0.67" style="fill:rgb(0,0,0);font-family:Arial;font-size:42.17px;stroke:none;">S</text>
  </g>
 </g>
</svg>
