<?xml version="1.0" encoding="UTF-8"?>
<svg height="663.74" width="2657.95" xmlns="http://www.w3.org/2000/svg">
 <g id="page" xmlns:svgx="http://www.xml-cml.org/schema/svgx">
  <g begin="text">
   <text y="45.72" x="72.0,78.138,81.207,86.727,91.563,94.676,97.436,105.352,110.872,116.392,121.194,124.904,130.424,138.947,143.848,149.368,152.493,155.253,163.058,166.171,170.366,173.48,177.079,180.192,185.712,191.111,194.113,197.227,202.747" svgx:width="0.56,0.28,0.5,0.44,0.28,0.25,0.72,0.5,0.5,0.44,0.33,0.5,0.78,0.44,0.5,0.28,0.25,0.72,0.28,0.39,0.28,0.33,0.28,0.5,0.5,0.28,0.28,0.5,0.5" style="fill:rgb(0,0,0);font-family:TimesNewRomanPSMT;font-size:11.04px;stroke:none;">Final Government Distribution</text>
  </g>
  <g begin="text">
   <text y="45.72" x="208.34" svgx:width="0.25" style="fill:rgb(0,0,0);font-family:TimesNewRomanPSMT;font-size:11.04px;stroke:none;"> </text>
  </g>
  <g begin="text">
   <text y="45.72" x="210.98" svgx:width="0.25" style="fill:rgb(0,0,0);font-family:TimesNewRomanPSMT;font-size:11.04px;stroke:none;"> </text>
  </g>
  <g begin="text">
   <text y="45.72" x="276.17,283.49,289.009,293.911,299.431,302.556,307.358,311.067,313.827" svgx:width="0.67,0.5,0.44,0.5,0.28,0.44,0.33,0.25,0.5" style="fill:rgb(0,0,0);font-family:TimesNewRomanPSMT;font-size:11.04px;stroke:none;">Chapter 4</text>
  </g>
  <g begin="text">
   <text y="45.72" x="319.25" svgx:width="0.25" style="fill:rgb(0,0,0);font-family:TimesNewRomanPSMT;font-size:11.04px;stroke:none;"> </text>
  </g>
  <g begin="text">
   <text y="45.72" x="443.35,446.949,453.087,460.385,467.704" svgx:width="0.33,0.56,0.67,0.67,0.25" style="fill:rgb(0,0,0);font-family:TimesNewRomanPSMT;font-size:11.04px;stroke:none;">IPCC </text>
  </g>
  <g begin="text">
   <text y="45.72" x="470.47,478.386,485.705,491.225,493.985,504.407,512.378,516.054,519.664" svgx:width="0.72,0.67,0.5,0.25,0.94,0.72,0.33,0.33,0.33" style="fill:rgb(0,0,0);font-family:TimesNewRomanPSMT;font-size:11.04px;stroke:none;">AR6 WGIII</text>
  </g>
  <g begin="text">
   <text y="45.72" x="523.39" svgx:width="0.25" style="fill:rgb(0,0,0);font-family:TimesNewRomanPSMT;font-size:11.04px;stroke:none;"> </text>
  </g>
  <g begin="text">
   <text y="60.5" x="72.0" svgx:width="0.25" style="fill:rgb(0,0,0);font-family:TimesNewRomanPSMT;font-size:12.0px;stroke:none;"> </text>
  </g>
  <g begin="text">
   <text y="74.3" x="72.0" svgx:width="0.25" style="fill:rgb(0,0,0);font-family:TimesNewRomanPSMT;font-size:12.0px;stroke:none;"> </text>
  </g>
  <g begin="text">
   <text y="88.1" x="72.0" svgx:width="0.25" style="fill:rgb(0,0,0);font-family:TimesNewRomanPSMT;font-size:12.0px;stroke:none;"> </text>
  </g>
  <g begin="text">
   <text y="528.696" x="72.0,79.916,85.436,88.196,96.111,101.631,105.341,108.101,116.016,119.13,122.729,127.631,130.391,133.051,141.684,147.823,153.343,157.019,161.844,164.604,170.124,175.025,177.785,185.756,188.726,192.921,196.631,201.532,204.657,210.795,216.779,220.488" svgx:width="0.72,0.5,0.25,0.72,0.5,0.33,0.25,0.72,0.28,0.33,0.44,0.25,0.25,0.78,0.56,0.5,0.33,0.44,0.25,0.5,0.44,0.25,0.72,0.28,0.39,0.33,0.44,0.28,0.56,0.56,0.33,0.44" style="fill:rgb(0,0,0);font-family:TimesNewRomanPS-BoldMT;font-size:11.04px;stroke:none;">Do Not Cite, Quote or Distribute</text>
  </g>
  <g begin="text">
   <text y="528.696" x="225.38" svgx:width="0.25" style="fill:rgb(0,0,0);font-family:TimesNewRomanPS-BoldMT;font-size:11.04px;stroke:none;"> </text>
  </g>
  <g begin="text">
   <text y="528.696" x="287.57" svgx:width="0.5" style="fill:rgb(0,0,0);font-family:TimesNewRomanPSMT;font-size:11.04px;stroke:none;">4</text>
  </g>
  <g begin="text">
   <text y="528.696" x="293.09" svgx:width="0.33" style="fill:rgb(0,0,0);font-family:TimesNewRomanPSMT;font-size:11.04px;stroke:none;">-</text>
  </g>
  <g begin="text">
   <text y="528.696" x="296.69,302.21" svgx:width="0.5,0.5" style="fill:rgb(0,0,0);font-family:TimesNewRomanPSMT;font-size:11.04px;stroke:none;">43</text>
  </g>
  <g begin="text">
   <text y="528.696" x="307.73" svgx:width="0.25" style="fill:rgb(0,0,0);font-family:TimesNewRomanPSMT;font-size:11.04px;stroke:none;"> </text>
  </g>
  <g begin="text">
   <text y="528.696" x="310.49" svgx:width="0.25" style="fill:rgb(0,0,0);font-family:TimesNewRomanPSMT;font-size:11.04px;stroke:none;"> </text>
  </g>
  <g begin="text">
   <text y="528.696" x="450.07,456.815,462.335,465.405,470.229,473.342,476.102,481.622,486.524,491.945,496.846,501.174,504.177" svgx:width="0.61,0.5,0.28,0.44,0.28,0.25,0.5,0.44,0.5,0.44,0.39,0.28,0.25" style="fill:rgb(0,0,0);font-family:TimesNewRomanPSMT;font-size:11.04px;stroke:none;">Total pages: </text>
  </g>
  <g begin="text">
   <text y="528.696" x="506.95,512.47,517.99" svgx:width="0.5,0.5,0.5" style="fill:rgb(0,0,0);font-family:TimesNewRomanPSMT;font-size:11.04px;stroke:none;">156</text>
  </g>
  <g begin="text">
   <text y="528.696" x="523.39" svgx:width="0.25" style="fill:rgb(0,0,0);font-family:TimesNewRomanPSMT;font-size:9.96px;stroke:none;"> </text>
  </g>
  <g begin="text">
   <text y="543.456" x="72.0" svgx:width="0.25" style="fill:rgb(0,0,0);font-family:TimesNewRomanPSMT;font-size:12.0px;stroke:none;"> </text>
  </g>
  <g begin="text">
   <text y="557.256" x="72.0" svgx:width="0.25" style="fill:rgb(0,0,0);font-family:TimesNewRomanPSMT;font-size:12.0px;stroke:none;"> </text>
  </g>
  <g begin="text">
   <text y="449.38" x="694.06" svgx:width="0.25" style="fill:rgb(0,0,0);font-family:TimesNewRomanPS-BoldMT;font-size:9.96px;stroke:none;"> </text>
  </g>
  <g begin="text">
   <text y="449.38" x="48.0" svgx:width="0.5" style="fill:rgb(0,0,0);font-family:TimesNewRomanPSMT;font-size:12.0px;stroke:none;">1</text>
  </g>
  <g begin="text">
   <text y="449.38" x="54.0" svgx:width="0.25" style="fill:rgb(0,0,0);font-family:TimesNewRomanPSMT;font-size:12.0px;stroke:none;"> </text>
  </g>
  <g begin="text">
   <text y="469.9" x="197.06,203.165,205.934,210.954,216.492,220.914,225.336" svgx:width="0.61,0.28,0.5,0.56,0.44,0.44,0.25" style="fill:rgb(0,0,0);font-family:TimesNewRomanPS-BoldMT;font-size:9.96px;stroke:none;">Figure </text>
  </g>
  <g begin="text">
   <text y="469.9" x="227.9" svgx:width="0.5" style="fill:rgb(0,0,0);font-family:TimesNewRomanPS-BoldMT;font-size:9.96px;stroke:none;">4</text>
  </g>
  <g begin="text">
   <text y="469.9" x="232.94" svgx:width="0.25" style="fill:rgb(0,0,0);font-family:TimesNewRomanPS-BoldMT;font-size:9.96px;stroke:none;">.</text>
  </g>
  <g begin="text">
   <text y="469.9" x="235.46" svgx:width="0.5" style="fill:rgb(0,0,0);font-family:TimesNewRomanPS-BoldMT;font-size:9.96px;stroke:none;">3</text>
  </g>
  <g begin="text">
   <text y="469.9" x="240.5" svgx:width="0.25" style="fill:rgb(0,0,0);font-family:TimesNewRomanPS-BoldMT;font-size:9.96px;stroke:none;"> </text>
  </g>
  <g begin="text">
   <text y="469.9" x="243.02,250.809,253.578,257.412,260.759,265.789,270.211,272.98,277.402,282.462,285.231,287.621,292.651,298.189,303.686,306.196,311.734,316.156,321.186,324.533,328.955,333.407,336.754,341.176,346.714,349.224,351.992,356.415,361.454,365.877,368.646,372.52,375.01,380.04,385.578,391.076,393.585,396.932,401.962,406.384,411.434,415.856,419.222,423.067,425.577,428.814,433.844,438.166,440.676,444.023,449.561,453.983,456.493,460.337,465.875,470.885,475.307,479.759,482.269,487.299,490.646,493.156,497.578,502.03,507.568,511.99,519.181" svgx:width="0.78,0.28,0.39,0.33,0.5,0.44,0.28,0.44,0.5,0.28,0.25,0.5,0.56,0.56,0.25,0.56,0.44,0.5,0.33,0.44,0.44,0.33,0.44,0.56,0.25,0.28,0.44,0.5,0.44,0.28,0.39,0.25,0.5,0.56,0.56,0.25,0.33,0.5,0.44,0.5,0.44,0.33,0.39,0.25,0.33,0.5,0.44,0.25,0.33,0.56,0.44,0.25,0.39,0.56,0.5,0.44,0.44,0.25,0.5,0.33,0.25,0.44,0.44,0.56,0.44,0.72,0.5" style="fill:rgb(0,0,0);font-family:TimesNewRomanPS-BoldMT;font-size:9.96px;stroke:none;">Historical and projected levels and targets for the share of renewa</text>
  </g>
  <g begin="text">
   <text y="469.9" x="524.59,530.128,532.897,537.319,541.154,543.663,546.432,551.97,554.46,559.012,561.781,566.203,570.625,574.002,578.424,581.193,585.615,588.384,591.75,596.78,599.29,604.32,608.742,614.28,618.702,623.154,628.184,631.53,634.299,639.319" svgx:width="0.56,0.28,0.44,0.39,0.25,0.28,0.56,0.25,0.44,0.28,0.44,0.44,0.33,0.44,0.28,0.44,0.28,0.33,0.5,0.25,0.5,0.44,0.56,0.44,0.44,0.5,0.33,0.28,0.5,0.56" style="fill:rgb(0,0,0);font-family:TimesNewRomanPS-BoldMT;font-size:9.96px;stroke:none;">bles in electricity generation</text>
  </g>
  <g begin="text">
   <text y="469.9" x="644.86" svgx:width="0.25" style="fill:rgb(0,0,0);font-family:TimesNewRomanPS-BoldMT;font-size:9.96px;stroke:none;"> </text>
  </g>
  <g begin="text">
   <text y="469.9" x="48.0" svgx:width="0.5" style="fill:rgb(0,0,0);font-family:TimesNewRomanPSMT;font-size:12.0px;stroke:none;">2</text>
  </g>
  <g begin="text">
   <text y="469.9" x="54.0" svgx:width="0.25" style="fill:rgb(0,0,0);font-family:TimesNewRomanPSMT;font-size:12.0px;stroke:none;"> </text>
  </g>
  <g begin="text">
   <text y="482.5" x="75.36,80.898,85.908,90.937,94.284,98.706,103.158,107.003,109.772,112.262,115.628,121.734,128.925,131.445,135.867,140.917,145.339,148.705,153.626,158.655,161.165,166.195,170.617,173.386,177.809,182.868,187.29,191.743,195.587,197.988,201.334,206.364,209.71,212.22,217.25,221.672,225.547,228.316,230.806,233.575,236.921,241.343,246.284,251.313,255.158,257.668,260.178,263.524,269.062,275.646,282.249,284.759,291.95,298.564,303.593,306.103,309.948,314.37,318.942,323.972,328.394,331.76,334.529,339.549,342.059,347.089,351.511,354.28,358.702,362.577,366.999,369.768,372.278,375.046,380.066,384.489,387.257,392.297,397.327,399.966,404.996,410.026,412.536,417.566,421.988,424.757,427.526,432.446,437.366,441.789,444.557,447.077,454.866,459.896,464.926,469.348,472.117,474.637,479.059,483.999,489.029,491.539,494.885,499.308,504.357,507.126,512.037,517.066,521.489,524.257,526.777,531.807,536.229,539.596,543.44,546.209,551.229,556.259,559.974,562.484,565.253,570.272" svgx:width="0.56,0.5,0.5,0.33,0.44,0.44,0.39,0.28,0.25,0.33,0.61,0.72,0.25,0.44,0.5,0.44,0.33,0.5,0.5,0.25,0.5,0.44,0.28,0.44,0.5,0.44,0.44,0.39,0.25,0.33,0.5,0.33,0.25,0.5,0.44,0.39,0.28,0.25,0.28,0.33,0.44,0.5,0.5,0.39,0.25,0.25,0.33,0.56,0.67,0.67,0.25,0.72,0.67,0.5,0.25,0.39,0.44,0.44,0.5,0.44,0.33,0.28,0.5,0.25,0.5,0.44,0.28,0.44,0.39,0.44,0.28,0.25,0.28,0.5,0.44,0.28,0.5,0.5,0.28,0.5,0.5,0.25,0.5,0.44,0.28,0.28,0.5,0.5,0.44,0.28,0.25,0.78,0.5,0.5,0.44,0.28,0.25,0.44,0.5,0.5,0.25,0.33,0.44,0.5,0.28,0.5,0.5,0.44,0.28,0.25,0.5,0.44,0.33,0.39,0.28,0.5,0.5,0.39,0.25,0.28,0.5,0.25" style="fill:rgb(0,0,0);font-family:TimesNewRomanPSMT;font-size:9.96px;stroke:none;">Sources: IEA energy balances for past trends, IPCC AR6 scenario dataset including national model and regional versions in </text>
  </g>
  <g begin="text">
   <text y="482.5" x="573.43,578.46,581.229,586.248,591.278,595.7,598.469,600.88,608.668,613.698,618.728,623.15,625.919,629.794,632.284,635.64,640.56" svgx:width="0.5,0.28,0.5,0.5,0.44,0.28,0.25,0.78,0.5,0.5,0.44,0.28,0.39,0.25,0.33,0.5,0.5" style="fill:rgb(0,0,0);font-family:TimesNewRomanPSMT;font-size:9.96px;stroke:none;">global models (10</text>
  </g>
  <g begin="text">
   <text y="479.02" x="645.7,647.5" svgx:width="0.28,0.5" style="fill:rgb(0,0,0);font-family:TimesNewRomanPSMT;font-size:6.48px;stroke:none;">th</text>
  </g>
  <g begin="text">
   <text y="482.5" x="650.74" svgx:width="0.25" style="fill:rgb(0,0,0);font-family:TimesNewRomanPSMT;font-size:9.96px;stroke:none;"> </text>
  </g>
  <g begin="text">
   <text y="482.5" x="653.26,656.029,661.049,663.559,668.479" svgx:width="0.28,0.5,0.25,0.5,0.5" style="fill:rgb(0,0,0);font-family:TimesNewRomanPSMT;font-size:9.96px;stroke:none;">to 90</text>
  </g>
  <g begin="text">
   <text y="479.02" x="673.54,675.34" svgx:width="0.28,0.5" style="fill:rgb(0,0,0);font-family:TimesNewRomanPSMT;font-size:6.48px;stroke:none;">th</text>
  </g>
  <g begin="text">
   <text y="482.5" x="678.58" svgx:width="0.25" style="fill:rgb(0,0,0);font-family:TimesNewRomanPSMT;font-size:9.96px;stroke:none;"> </text>
  </g>
  <g begin="text">
   <text y="482.5" x="680.98,686.01,690.432,693.798,698.221,702.673,707.703,710.471,713.24,716.009,720.431,722.921,727.971,731.318,733.718,738.748,741.258,746.288,748.797,755.989,758.757,761.526,766.546" svgx:width="0.5,0.44,0.33,0.44,0.44,0.5,0.28,0.28,0.28,0.44,0.25,0.5,0.33,0.25,0.5,0.25,0.5,0.25,0.72,0.28,0.28,0.5,0.25" style="fill:rgb(0,0,0);font-family:TimesNewRomanPSMT;font-size:9.96px;stroke:none;">percentile of 1.5 with </text>
  </g>
  <g begin="text">
   <text y="482.5" x="48.0" svgx:width="0.5" style="fill:rgb(0,0,0);font-family:TimesNewRomanPSMT;font-size:12.0px;stroke:none;">3</text>
  </g>
  <g begin="text">
   <text y="482.5" x="54.0" svgx:width="0.25" style="fill:rgb(0,0,0);font-family:TimesNewRomanPSMT;font-size:12.0px;stroke:none;"> </text>
  </g>
  <g begin="text">
   <text y="495.22" x="269.81,274.84,279.87,282.38,287.409,292.439,296.762,300.108,303.953,308.983,314.013,319.042,321.811,324.202,327.548,334.152,339.182,342.528,345.038,347.807,352.827,355.337,360.366,364.789,367.448,372.478,379.669,382.189,387.219,391.063,397.667,400.177,403.523,410.127,415.156,418.503,421.013,424.857,429.28,433.732,438.762,443.184,446.55,449.319,454.339,458.184,461.53,464.04,466.55,471.58,476.002,478.771,481.54,486.57,491.6,496.022,498.791,501.311,504.079,506.569,509.826,514.249,519.298,522.067,527.087,532.117,536.539,539.308,541.828,545.672,550.702,555.732,559.078,563.501,567.953" svgx:width="0.5,0.5,0.25,0.5,0.5,0.44,0.33,0.39,0.5,0.5,0.5,0.28,0.25,0.33,0.67,0.5,0.33,0.25,0.28,0.5,0.25,0.5,0.44,0.28,0.5,0.72,0.25,0.5,0.4,0.67,0.25,0.33,0.67,0.5,0.33,0.25,0.39,0.44,0.44,0.5,0.44,0.33,0.28,0.5,0.39,0.33,0.25,0.25,0.5,0.44,0.28,0.28,0.5,0.5,0.44,0.28,0.25,0.28,0.25,0.33,0.44,0.5,0.28,0.5,0.5,0.44,0.28,0.25,0.39,0.5,0.5,0.33,0.44,0.44,0.39" style="fill:rgb(0,0,0);font-family:TimesNewRomanPSMT;font-size:9.96px;stroke:none;">no overshoot (C0) to below 2°C (C4) scenarios), national / regional sources</text>
  </g>
  <g begin="text">
   <text y="495.22" x="572.11" svgx:width="0.25" style="fill:rgb(0,0,0);font-family:TimesNewRomanPS-BoldMT;font-size:9.96px;stroke:none;"> </text>
  </g>
  <g begin="text">
   <text y="495.22" x="48.0" svgx:width="0.5" style="fill:rgb(0,0,0);font-family:TimesNewRomanPSMT;font-size:12.0px;stroke:none;">4</text>
  </g>
  <g begin="text">
   <text y="495.22" x="54.0" svgx:width="0.25" style="fill:rgb(0,0,0);font-family:TimesNewRomanPSMT;font-size:12.0px;stroke:none;"> </text>
  </g>
  <rect style="fill:pink;opacity:0.2;stroke:blue;stroke-width:0.3;" x="147.95" y="295.44" height="358.3" width="545.35" title="44"/>
  <text y="295.44" class="image" id="image.44.1" width="545" height="358" x="147.95" style="font-size:5.0px;">image.44.1.148_693.295_654</text>
  <g begin="text">
   <text y="478.906" transform="matrix(0.70711,-0.70711,0.70711,0.70711,-271.92861,301.31825)" rotateDegrees="-45" matrix="[29.819458,29.819458,-29.819458,29.819458,227.75916,116.41376]" x="227.759" svgx:width="0.67" style="fill:rgb(0,0,0);font-family:Arial;font-size:42.17px;stroke:none;">A</text>
   <text y="459.017" transform="matrix(0.70711,-0.70711,0.70711,0.70711,-252.03932,309.55725)" rotateDegrees="-45" matrix="[29.819458,29.819458,-29.819458,29.819458,247.64874,136.30333]" x="247.649" svgx:width="0.72" style="fill:rgb(0,0,0);font-family:Arial;font-size:42.17px;stroke:none;">C</text>
   <text y="437.487" transform="matrix(0.70711,-0.70711,0.70711,0.70711,-230.50961,318.47456)" rotateDegrees="-45" matrix="[29.819458,29.819458,-29.819458,29.819458,269.17838,157.83298]" x="269.178" svgx:width="0.72" style="fill:rgb(0,0,0);font-family:Arial;font-size:42.17px;stroke:none;">C</text>
   <text y="415.957" transform="matrix(0.70711,-0.70711,0.70711,0.70711,-208.97961,327.39258)" rotateDegrees="-45" matrix="[29.819458,29.819458,-29.819458,29.819458,290.70804,179.36263]" x="290.708" svgx:width="0.67" style="fill:rgb(0,0,0);font-family:Arial;font-size:42.17px;stroke:none;">E</text>
   <text y="396.068" transform="matrix(0.70711,-0.70711,0.70711,0.70711,-189.09032,335.63158)" rotateDegrees="-45" matrix="[29.819458,29.819458,-29.819458,29.819458,310.5976,199.2522]" x="310.598" svgx:width="0.67" style="fill:rgb(0,0,0);font-family:Arial;font-size:42.17px;stroke:none;">P</text>
   <text y="376.178" transform="matrix(0.70711,-0.70711,0.70711,0.70711,-169.20061,343.86958)" rotateDegrees="-45" matrix="[29.819458,29.819458,-29.819458,29.819458,330.48718,219.14178]" x="330.487" svgx:width="0.61" style="fill:rgb(0,0,0);font-family:Arial;font-size:42.17px;stroke:none;">T</text>
   <text y="357.959" transform="matrix(0.70711,-0.70711,0.70711,0.70711,-150.98132,351.41685)" rotateDegrees="-45" matrix="[29.819458,29.819458,-29.819458,29.819458,348.70688,237.36148]" x="348.707" svgx:width="0.67" style="fill:rgb(0,0,0);font-family:Arial;font-size:42.17px;stroke:none;">E</text>
   <text y="338.069" transform="matrix(0.70711,-0.70711,0.70711,0.70711,-131.09161,359.65485)" rotateDegrees="-45" matrix="[29.819458,29.819458,-29.819458,29.819458,368.59644,257.25104]" x="368.596" svgx:width="0.72" style="fill:rgb(0,0,0);font-family:Arial;font-size:42.17px;stroke:none;">D</text>
   <text y="316.539" transform="matrix(0.70711,-0.70711,0.70711,0.70711,-109.56161,368.57287)" rotateDegrees="-45" matrix="[29.819458,29.819458,-29.819458,29.819458,390.1261,278.7807]" x="390.126" svgx:width="0.28" style="fill:rgb(0,0,0);font-family:Arial;font-size:42.17px;stroke:none;"> </text>
   <text y="308.246" transform="matrix(0.70711,-0.70711,0.70711,0.70711,-101.26832,372.00865)" rotateDegrees="-45" matrix="[29.819458,29.819458,-29.819458,29.819458,398.41962,287.07422]" x="398.42" svgx:width="0.67" style="fill:rgb(0,0,0);font-family:Arial;font-size:42.17px;stroke:none;">V</text>
   <text y="288.356" transform="matrix(0.70711,-0.70711,0.70711,0.70711,-81.37861,380.24665)" rotateDegrees="-45" matrix="[29.819458,29.819458,-29.819458,29.819458,418.3092,306.9638]" x="418.309" svgx:width="0.67" style="fill:rgb(0,0,0);font-family:Arial;font-size:42.17px;stroke:none;">E</text>
   <text y="268.467" transform="matrix(0.70711,-0.70711,0.70711,0.70711,-61.48932,388.48565)" rotateDegrees="-45" matrix="[29.819458,29.819458,-29.819458,29.819458,438.1988,326.8534]" x="438.199" svgx:width="0.72" style="fill:rgb(0,0,0);font-family:Arial;font-size:42.17px;stroke:none;">R</text>
   <text y="246.937" transform="matrix(0.70711,-0.70711,0.70711,0.70711,-39.95961,397.40296)" rotateDegrees="-45" matrix="[29.819458,29.819458,-29.819458,29.819458,459.72845,348.38306]" x="459.728" svgx:width="0.67" style="fill:rgb(0,0,0);font-family:Arial;font-size:42.17px;stroke:none;">S</text>
   <text y="227.047" transform="matrix(0.70711,-0.70711,0.70711,0.70711,-20.06961,405.64167)" rotateDegrees="-45" matrix="[29.819458,29.819458,-29.819458,29.819458,479.618,368.2726]" x="479.618" svgx:width="0.28" style="fill:rgb(0,0,0);font-family:Arial;font-size:42.17px;stroke:none;">I</text>
   <text y="218.758" transform="matrix(0.70711,-0.70711,0.70711,0.70711,-11.78032,409.07579)" rotateDegrees="-45" matrix="[29.819458,29.819458,-29.819458,29.819458,487.9078,376.5624]" x="487.908" svgx:width="0.78" style="fill:rgb(0,0,0);font-family:Arial;font-size:42.17px;stroke:none;">O</text>
   <text y="195.558" transform="matrix(0.70711,-0.70711,0.70711,0.70711,11.41939,418.68484)" rotateDegrees="-45" matrix="[29.819458,29.819458,-29.819458,29.819458,511.10736,399.76196]" x="511.107" svgx:width="0.72" style="fill:rgb(0,0,0);font-family:Arial;font-size:42.17px;stroke:none;">N</text>
   <text y="174.028" transform="matrix(0.70711,-0.70711,0.70711,0.70711,32.94939,427.60286)" rotateDegrees="-45" matrix="[29.819458,29.819458,-29.819458,29.819458,532.63696,421.2916]" x="532.637" svgx:width="0.28" style="fill:rgb(0,0,0);font-family:Arial;font-size:42.17px;stroke:none;"> </text>
   <text y="514.69" transform="matrix(0.70711,-0.70711,0.70711,0.70711,-286.75083,337.10225)" rotateDegrees="-45" matrix="[29.819458,29.819458,-29.819458,29.819458,263.5425,80.6304]" x="263.543" svgx:width="0.67" style="fill:rgb(0,0,0);font-family:Arial;font-size:42.17px;stroke:none;">S</text>
   <text y="494.8" transform="matrix(0.70711,-0.70711,0.70711,0.70711,-266.86112,345.34025)" rotateDegrees="-45" matrix="[29.819458,29.819458,-29.819458,29.819458,283.43207,100.51998]" x="283.432" svgx:width="0.72" style="fill:rgb(0,0,0);font-family:Arial;font-size:42.17px;stroke:none;">U</text>
   <text y="473.27" transform="matrix(0.70711,-0.70711,0.70711,0.70711,-245.33112,354.25827)" rotateDegrees="-45" matrix="[29.819458,29.819458,-29.819458,29.819458,304.96173,122.04963]" x="304.962" svgx:width="0.67" style="fill:rgb(0,0,0);font-family:Arial;font-size:42.17px;stroke:none;">B</text>
   <text y="453.381" transform="matrix(0.70711,-0.70711,0.70711,0.70711,-225.44212,362.49657)" rotateDegrees="-45" matrix="[29.819458,29.819458,-29.819458,29.819458,324.85132,141.93921]" x="324.851" svgx:width="0.5" style="fill:rgb(0,0,0);font-family:Arial;font-size:42.17px;stroke:none;">J</text>
   <text y="438.471" transform="matrix(0.70711,-0.70711,0.70711,0.70711,-210.53212,368.67249)" rotateDegrees="-45" matrix="[29.819458,29.819458,-29.819458,29.819458,339.76105,156.84894]" x="339.761" svgx:width="0.67" style="fill:rgb(0,0,0);font-family:Arial;font-size:42.17px;stroke:none;">E</text>
   <text y="418.581" transform="matrix(0.70711,-0.70711,0.70711,0.70711,-190.64212,376.9112)" rotateDegrees="-45" matrix="[29.819458,29.819458,-29.819458,29.819458,359.65063,176.73851]" x="359.651" svgx:width="0.72" style="fill:rgb(0,0,0);font-family:Arial;font-size:42.17px;stroke:none;">C</text>
   <text y="397.052" transform="matrix(0.70711,-0.70711,0.70711,0.70711,-169.11312,385.8288)" rotateDegrees="-45" matrix="[29.819458,29.819458,-29.819458,29.819458,381.18027,198.26816]" x="381.18" svgx:width="0.61" style="fill:rgb(0,0,0);font-family:Arial;font-size:42.17px;stroke:none;">T</text>
   <text y="378.832" transform="matrix(0.70711,-0.70711,0.70711,0.70711,-150.89312,393.37577)" rotateDegrees="-45" matrix="[29.819458,29.819458,-29.819458,29.819458,399.39996,216.48784]" x="399.4" svgx:width="0.28" style="fill:rgb(0,0,0);font-family:Arial;font-size:42.17px;stroke:none;"> </text>
   <text y="370.542" transform="matrix(0.70711,-0.70711,0.70711,0.70711,-142.60312,396.8096)" rotateDegrees="-45" matrix="[29.819458,29.819458,-29.819458,29.819458,407.68976,224.77766]" x="407.69" svgx:width="0.61" style="fill:rgb(0,0,0);font-family:Arial;font-size:42.17px;stroke:none;">T</text>
   <text y="352.323" transform="matrix(0.70711,-0.70711,0.70711,0.70711,-124.38412,404.35616)" rotateDegrees="-45" matrix="[29.819458,29.819458,-29.819458,29.819458,425.90945,242.99734]" x="425.909" svgx:width="0.78" style="fill:rgb(0,0,0);font-family:Arial;font-size:42.17px;stroke:none;">O</text>
   <text y="329.123" transform="matrix(0.70711,-0.70711,0.70711,0.70711,-101.18412,413.96591)" rotateDegrees="-45" matrix="[29.819458,29.819458,-29.819458,29.819458,449.10898,266.19687]" x="449.109" svgx:width="0.28" style="fill:rgb(0,0,0);font-family:Arial;font-size:42.17px;stroke:none;"> </text>
   <text y="320.848" transform="matrix(0.70711,-0.70711,0.70711,0.70711,-92.90912,417.39353)" rotateDegrees="-45" matrix="[29.819458,29.819458,-29.819458,29.819458,457.3839,274.4718]" x="457.384" svgx:width="0.61" style="fill:rgb(0,0,0);font-family:Arial;font-size:42.17px;stroke:none;">F</text>
   <text y="302.629" transform="matrix(0.70711,-0.70711,0.70711,0.70711,-74.68983,424.9408)" rotateDegrees="-45" matrix="[29.819458,29.819458,-29.819458,29.819458,475.60358,292.69147]" x="475.604" svgx:width="0.28" style="fill:rgb(0,0,0);font-family:Arial;font-size:42.17px;stroke:none;">I</text>
   <text y="294.339" transform="matrix(0.70711,-0.70711,0.70711,0.70711,-66.40012,428.37392)" rotateDegrees="-45" matrix="[29.819458,29.819458,-29.819458,29.819458,483.89337,300.98126]" x="483.893" svgx:width="0.72" style="fill:rgb(0,0,0);font-family:Arial;font-size:42.17px;stroke:none;">N</text>
   <text y="272.809" transform="matrix(0.70711,-0.70711,0.70711,0.70711,-44.87012,437.29194)" rotateDegrees="-45" matrix="[29.819458,29.819458,-29.819458,29.819458,505.42303,322.51093]" x="505.423" svgx:width="0.67" style="fill:rgb(0,0,0);font-family:Arial;font-size:42.17px;stroke:none;">A</text>
   <text y="252.919" transform="matrix(0.70711,-0.70711,0.70711,0.70711,-24.98012,445.53064)" rotateDegrees="-45" matrix="[29.819458,29.819458,-29.819458,29.819458,525.3126,342.4005]" x="525.313" svgx:width="0.56" style="fill:rgb(0,0,0);font-family:Arial;font-size:42.17px;stroke:none;">L</text>
   <text y="236.34" transform="matrix(0.70711,-0.70711,0.70711,0.70711,-8.40112,452.39789)" rotateDegrees="-45" matrix="[29.819458,29.819458,-29.819458,29.819458,541.8922,358.9801]" x="541.892" svgx:width="0.28" style="fill:rgb(0,0,0);font-family:Arial;font-size:42.17px;stroke:none;"> </text>
   <text y="228.056" transform="matrix(0.70711,-0.70711,0.70711,0.70711,-0.11712,455.82924)" rotateDegrees="-45" matrix="[29.819458,29.819458,-29.819458,29.819458,550.17584,367.26373]" x="550.176" svgx:width="0.67" style="fill:rgb(0,0,0);font-family:Arial;font-size:42.17px;stroke:none;">E</text>
   <text y="208.167" transform="matrix(0.70711,-0.70711,0.70711,0.70711,19.77188,464.06753)" rotateDegrees="-45" matrix="[29.819458,29.819458,-29.819458,29.819458,570.0654,387.1533]" x="570.065" svgx:width="0.72" style="fill:rgb(0,0,0);font-family:Arial;font-size:42.17px;stroke:none;">D</text>
   <text y="186.637" transform="matrix(0.70711,-0.70711,0.70711,0.70711,41.30188,472.98555)" rotateDegrees="-45" matrix="[29.819458,29.819458,-29.819458,29.819458,591.59503,408.68292]" x="591.595" svgx:width="0.28" style="fill:rgb(0,0,0);font-family:Arial;font-size:42.17px;stroke:none;">I</text>
   <text y="178.347" transform="matrix(0.70711,-0.70711,0.70711,0.70711,49.59188,476.41938)" rotateDegrees="-45" matrix="[29.819458,29.819458,-29.819458,29.819458,599.8848,416.97272]" x="599.885" svgx:width="0.61" style="fill:rgb(0,0,0);font-family:Arial;font-size:42.17px;stroke:none;">T</text>
   <text y="160.128" transform="matrix(0.70711,-0.70711,0.70711,0.70711,67.81088,483.96594)" rotateDegrees="-45" matrix="[29.819458,29.819458,-29.819458,29.819458,618.1045,435.1924]" x="618.104" svgx:width="0.67" style="fill:rgb(0,0,0);font-family:Arial;font-size:42.17px;stroke:none;">S</text>
  </g>
 </g>
</svg>
