<?xml version="1.0" encoding="UTF-8"?>
<svg height="813.88" width="536.18" xmlns="http://www.w3.org/2000/svg">
 <g id="page" xmlns:svgx="http://www.xml-cml.org/schema/svgx">
  <g begin="text">
   <text y="45.72" x="72.024,78.162,81.231,86.751,91.587,94.7,97.46,105.376,110.896,116.416,121.218,124.928,130.448,138.971,143.872,149.392,152.517,155.277,163.082,166.195,170.39,173.504,177.103,180.216,185.736,191.135,194.137,197.251,202.771" svgx:width="0.56,0.28,0.5,0.44,0.28,0.25,0.72,0.5,0.5,0.44,0.33,0.5,0.78,0.44,0.5,0.28,0.25,0.72,0.28,0.39,0.28,0.33,0.28,0.5,0.5,0.28,0.28,0.5,0.5" style="fill:rgb(0,0,0);font-family:TimesNewRomanPSMT;font-size:11.04px;stroke:none;">Final Government Distribution</text>
  </g>
  <g begin="text">
   <text y="45.72" x="208.37" svgx:width="0.25" style="fill:rgb(0,0,0);font-family:TimesNewRomanPSMT;font-size:11.04px;stroke:none;"> </text>
  </g>
  <g begin="text">
   <text y="45.72" x="211.01" svgx:width="0.25" style="fill:rgb(0,0,0);font-family:TimesNewRomanPSMT;font-size:11.04px;stroke:none;"> </text>
  </g>
  <g begin="text">
   <text y="45.72" x="276.17,283.49,289.009,293.911,299.431,302.556,307.358,311.067,313.827" svgx:width="0.67,0.5,0.44,0.5,0.28,0.44,0.33,0.25,0.5" style="fill:rgb(0,0,0);font-family:TimesNewRomanPSMT;font-size:11.04px;stroke:none;">Chapter 4</text>
  </g>
  <g begin="text">
   <text y="45.72" x="319.27" svgx:width="0.25" style="fill:rgb(0,0,0);font-family:TimesNewRomanPSMT;font-size:11.04px;stroke:none;"> </text>
  </g>
  <g begin="text">
   <text y="45.72" x="443.38,446.979,453.117,460.415,467.734" svgx:width="0.33,0.56,0.67,0.67,0.25" style="fill:rgb(0,0,0);font-family:TimesNewRomanPSMT;font-size:11.04px;stroke:none;">IPCC </text>
  </g>
  <g begin="text">
   <text y="45.72" x="470.5,478.416,485.735,491.255,494.015,504.437,512.408,516.084,519.694" svgx:width="0.72,0.67,0.5,0.25,0.94,0.72,0.33,0.33,0.33" style="fill:rgb(0,0,0);font-family:TimesNewRomanPSMT;font-size:11.04px;stroke:none;">AR6 WGIII</text>
  </g>
  <g begin="text">
   <text y="45.72" x="523.42" svgx:width="0.25" style="fill:rgb(0,0,0);font-family:TimesNewRomanPSMT;font-size:11.04px;stroke:none;"> </text>
  </g>
  <g begin="text">
   <text y="60.48" x="72.024" svgx:width="0.25" style="fill:rgb(0,0,0);font-family:TimesNewRomanPSMT;font-size:12.0px;stroke:none;"> </text>
  </g>
  <g begin="text">
   <text y="74.28" x="72.024" svgx:width="0.25" style="fill:rgb(0,0,0);font-family:TimesNewRomanPSMT;font-size:12.0px;stroke:none;"> </text>
  </g>
  <g begin="text">
   <text y="88.1" x="72.024" svgx:width="0.25" style="fill:rgb(0,0,0);font-family:TimesNewRomanPSMT;font-size:12.0px;stroke:none;"> </text>
  </g>
  <g begin="text">
   <text y="775.296" x="72.024,79.94,85.46,88.22,96.135,101.655,105.365,108.125,116.04,119.154,122.753,127.655,130.415,133.075,141.708,147.847,153.367,157.043,161.868,164.628,170.148,175.049,177.809,185.78,188.75,192.945,196.655,201.556,204.681,210.819,216.803,220.512" svgx:width="0.72,0.5,0.25,0.72,0.5,0.33,0.25,0.72,0.28,0.33,0.44,0.25,0.25,0.78,0.56,0.5,0.33,0.44,0.25,0.5,0.44,0.25,0.72,0.28,0.39,0.33,0.44,0.28,0.56,0.56,0.33,0.44" style="fill:rgb(0,0,0);font-family:TimesNewRomanPS-BoldMT;font-size:11.04px;stroke:none;">Do Not Cite, Quote or Distribute</text>
  </g>
  <g begin="text">
   <text y="775.296" x="225.41" svgx:width="0.25" style="fill:rgb(0,0,0);font-family:TimesNewRomanPS-BoldMT;font-size:11.04px;stroke:none;"> </text>
  </g>
  <g begin="text">
   <text y="775.296" x="284.81" svgx:width="0.5" style="fill:rgb(0,0,0);font-family:TimesNewRomanPSMT;font-size:11.04px;stroke:none;">4</text>
  </g>
  <g begin="text">
   <text y="775.296" x="290.33" svgx:width="0.33" style="fill:rgb(0,0,0);font-family:TimesNewRomanPSMT;font-size:11.04px;stroke:none;">-</text>
  </g>
  <g begin="text">
   <text y="775.296" x="293.93,299.45,304.97" svgx:width="0.5,0.5,0.5" style="fill:rgb(0,0,0);font-family:TimesNewRomanPSMT;font-size:11.04px;stroke:none;">102</text>
  </g>
  <g begin="text">
   <text y="775.296" x="310.49" svgx:width="0.25" style="fill:rgb(0,0,0);font-family:TimesNewRomanPSMT;font-size:11.04px;stroke:none;"> </text>
  </g>
  <g begin="text">
   <text y="775.296" x="313.27" svgx:width="0.25" style="fill:rgb(0,0,0);font-family:TimesNewRomanPSMT;font-size:11.04px;stroke:none;"> </text>
  </g>
  <g begin="text">
   <text y="775.296" x="450.1,456.845,462.365,465.435,470.259,473.372,476.132,481.652,486.554,491.975,496.876,501.204,504.207" svgx:width="0.61,0.5,0.28,0.44,0.28,0.25,0.5,0.44,0.5,0.44,0.39,0.28,0.25" style="fill:rgb(0,0,0);font-family:TimesNewRomanPSMT;font-size:11.04px;stroke:none;">Total pages: </text>
  </g>
  <g begin="text">
   <text y="775.296" x="506.98,512.5,518.02" svgx:width="0.5,0.5,0.5" style="fill:rgb(0,0,0);font-family:TimesNewRomanPSMT;font-size:11.04px;stroke:none;">156</text>
  </g>
  <g begin="text">
   <text y="775.296" x="523.42" svgx:width="0.25" style="fill:rgb(0,0,0);font-family:TimesNewRomanPSMT;font-size:9.96px;stroke:none;"> </text>
  </g>
  <g begin="text">
   <text y="790.056" x="72.024" svgx:width="0.25" style="fill:rgb(0,0,0);font-family:TimesNewRomanPSMT;font-size:12.0px;stroke:none;"> </text>
  </g>
  <g begin="text">
   <text y="803.88" x="72.024" svgx:width="0.25" style="fill:rgb(0,0,0);font-family:TimesNewRomanPSMT;font-size:12.0px;stroke:none;"> </text>
  </g>
  <g begin="text">
   <text y="100.94" x="84.384,92.3,97.82,100.933,106.453,111.973,114.733,122.052,127.572,132.971,136.68,141.582,147.102,151.916,155.625,160.427,163.541,166.654,172.053,177.573,181.282,183.921,187.63,195.546,200.447,204.069,212.702,217.604,223.124,228.544" svgx:width="0.72,0.5,0.28,0.5,0.5,0.25,0.67,0.5,0.5,0.33,0.44,0.5,0.44,0.33,0.44,0.28,0.28,0.5,0.5,0.33,0.25,0.33,0.72,0.44,0.33,0.78,0.44,0.5,0.5,0.33" style="fill:rgb(0,0,0);font-family:TimesNewRomanPSMT;font-size:11.04px;stroke:none;">Union Confederation) (Germany)</text>
  </g>
  <g begin="text">
   <text y="100.94" x="232.25" svgx:width="0.25" style="fill:rgb(0,0,0);font-family:TimesNewRomanPSMT;font-size:11.04px;stroke:none;"> </text>
  </g>
  <g begin="text">
   <text y="113.66" x="84.384,92.3,95.413,102.158,111.973,117.493,123.013,125.652,129.361,134.881,139.783" svgx:width="0.72,0.28,0.61,0.89,0.5,0.5,0.25,0.33,0.5,0.44,0.5" style="fill:rgb(0,0,0);font-family:TimesNewRomanPSMT;font-size:11.04px;stroke:none;">DiEM25 (pan</text>
  </g>
  <g begin="text">
   <text y="113.66" x="145.34" svgx:width="0.33" style="fill:rgb(0,0,0);font-family:TimesNewRomanPSMT;font-size:11.04px;stroke:none;">-</text>
  </g>
  <g begin="text">
   <text y="113.66" x="148.94,155.685,161.205,164.782,170.302,175.822,180.724,185.538,191.058" svgx:width="0.61,0.5,0.33,0.5,0.5,0.44,0.44,0.5,0.33" style="fill:rgb(0,0,0);font-family:TimesNewRomanPSMT;font-size:11.04px;stroke:none;">European)</text>
  </g>
  <g begin="text">
   <text y="113.66" x="194.69" svgx:width="0.25" style="fill:rgb(0,0,0);font-family:TimesNewRomanPSMT;font-size:11.04px;stroke:none;"> </text>
  </g>
  <g begin="text">
   <text y="126.26" x="84.384,91.129,96.649,100.326,105.846,111.366,116.179,121.081,126.601,129.361,137.332,142.852,145.921,151.342" svgx:width="0.61,0.5,0.33,0.5,0.5,0.44,0.44,0.5,0.25,0.72,0.5,0.28,0.5,0.5" style="fill:rgb(0,0,0);font-family:TimesNewRomanPSMT;font-size:11.04px;stroke:none;">European Union</text>
  </g>
  <g begin="text">
   <text y="126.26" x="156.74" svgx:width="0.25" style="fill:rgb(0,0,0);font-family:TimesNewRomanPSMT;font-size:11.04px;stroke:none;"> </text>
  </g>
  <g begin="text">
   <text y="138.98" x="84.384,91.129,96.649,100.326,105.846,111.366,116.179,121.081,126.601,129.361,136.106,139.694,144.596,150.116,155.04,157.8,165.716,171.114,174.228,179.748,185.268,188.028,195.347,200.867,206.266,209.975,214.877,220.397,225.21,228.92,233.722,236.835,239.949,245.469,250.867,253.627,257.337,264.082,271.976" svgx:width="0.61,0.5,0.33,0.5,0.5,0.44,0.44,0.5,0.25,0.61,0.33,0.44,0.5,0.44,0.25,0.72,0.5,0.28,0.5,0.5,0.25,0.67,0.5,0.5,0.33,0.44,0.5,0.44,0.33,0.44,0.28,0.28,0.5,0.5,0.25,0.33,0.61,0.72,0.33" style="fill:rgb(0,0,0);font-family:TimesNewRomanPSMT;font-size:11.04px;stroke:none;">European Trade Union Confederation (EU)</text>
  </g>
  <g begin="text">
   <text y="138.98" x="275.69" svgx:width="0.25" style="fill:rgb(0,0,0);font-family:TimesNewRomanPSMT;font-size:11.04px;stroke:none;"> </text>
  </g>
  <g begin="text">
   <text y="151.58" x="84.384,92.3,96.009,100.911,105.239,109.434,113.143,118.663,124.062,127.175,131.47,134.23,142.2,145.27,150.69,156.21,161.112,164.126,166.886,171.181,176.701,180.929,184.042,187.045,191.947,196.871,199.509,203.108,211.024,217.162" svgx:width="0.72,0.33,0.44,0.39,0.39,0.33,0.5,0.5,0.28,0.39,0.25,0.72,0.28,0.5,0.5,0.44,0.28,0.25,0.39,0.5,0.39,0.28,0.28,0.44,0.44,0.25,0.33,0.72,0.56,0.33" style="fill:rgb(0,0,0);font-family:TimesNewRomanPSMT;font-size:11.04px;stroke:none;">Grassroots Global Justice (US)</text>
  </g>
  <g begin="text">
   <text y="151.58" x="220.97" svgx:width="0.25" style="fill:rgb(0,0,0);font-family:TimesNewRomanPSMT;font-size:11.04px;stroke:none;"> </text>
  </g>
  <g begin="text">
   <text y="164.18" x="84.384,87.983,93.503,99.023,104.543,108.838,111.973,115.572,118.685,126.601,133.346,140.037,142.797,150.712,153.826,159.346,164.744,169.646,172.77,175.53,183.446,188.844,191.958,197.478,202.998,205.636,209.346,214.866,217.979,223.499,228.898,233.799,236.813" svgx:width="0.33,0.5,0.5,0.5,0.39,0.28,0.33,0.28,0.72,0.61,0.61,0.25,0.72,0.28,0.5,0.5,0.44,0.28,0.25,0.72,0.5,0.28,0.5,0.5,0.25,0.33,0.5,0.28,0.5,0.5,0.44,0.28,0.33" style="fill:rgb(0,0,0);font-family:TimesNewRomanPSMT;font-size:11.04px;stroke:none;">IndustriALL Global Union (global)</text>
  </g>
  <g begin="text">
   <text y="164.18" x="240.53" svgx:width="0.25" style="fill:rgb(0,0,0);font-family:TimesNewRomanPSMT;font-size:11.04px;stroke:none;"> </text>
  </g>
  <g begin="text">
   <text y="176.9" x="84.384,87.983,93.503,99.023,102.136,107.656,112.558,118.078,123.598,129.019,133.313,136.073,142.819,148.339,153.737,156.851,160.56,166.08,171.479,180.112,184.914,190.434,193.548,198.35,201.463,204.102,212.017,216.919,220.044,227.959,233.479,237.189,242.709,245.347,249.057,256.972,263.111" svgx:width="0.33,0.5,0.5,0.28,0.5,0.44,0.5,0.5,0.5,0.39,0.25,0.61,0.5,0.5,0.28,0.33,0.5,0.5,0.78,0.44,0.5,0.28,0.44,0.28,0.25,0.72,0.44,0.28,0.72,0.5,0.33,0.5,0.25,0.33,0.72,0.56,0.33" style="fill:rgb(0,0,0);font-family:TimesNewRomanPSMT;font-size:11.04px;stroke:none;">Indigenous Environmental Network (US)</text>
  </g>
  <g begin="text">
   <text y="176.9" x="266.81" svgx:width="0.25" style="fill:rgb(0,0,0);font-family:TimesNewRomanPSMT;font-size:11.04px;stroke:none;"> </text>
  </g>
  <g begin="text">
   <text y="189.5" x="84.384,87.983,93.503,96.616,101.518,105.25,110.77,115.572,118.685,121.688,127.208,132.728,137.531,140.644,143.404,150.149,155.051,160.571,165.959,169.668,172.428,180.344,184.053,189.452,194.353,199.873,202.887,207.789,212.713,215.716" svgx:width="0.33,0.5,0.28,0.44,0.33,0.5,0.44,0.28,0.28,0.5,0.5,0.44,0.28,0.25,0.61,0.44,0.5,0.5,0.33,0.25,0.72,0.33,0.5,0.44,0.5,0.28,0.44,0.44,0.28,0.28" style="fill:rgb(0,0,0);font-family:TimesNewRomanPSMT;font-size:11.04px;stroke:none;">International Labor Organizati</text>
  </g>
  <g begin="text">
   <text y="189.5" x="218.93,224.45,229.97,232.609,236.318,241.838,244.951,250.35,255.87,260.772,263.786" svgx:width="0.5,0.5,0.25,0.33,0.5,0.28,0.5,0.5,0.44,0.28,0.33" style="fill:rgb(0,0,0);font-family:TimesNewRomanPSMT;font-size:11.04px;stroke:none;">on (global)</text>
  </g>
  <g begin="text">
   <text y="189.5" x="267.41" svgx:width="0.25" style="fill:rgb(0,0,0);font-family:TimesNewRomanPSMT;font-size:11.04px;stroke:none;"> </text>
  </g>
  <g begin="text">
   <text y="202.22" x="84.384,87.983,93.503,96.616,101.518,105.25,110.77,115.572,118.685,121.688,127.208,132.728,137.531,140.644,143.404,150.149,153.726,158.628,164.148,169.072,171.832,179.748,185.146,188.259,193.779,199.299,201.938,209.257,214.777,220.298,224.007,228.909,234.429,239.242,242.952,247.754,250.867,253.981,259.379" svgx:width="0.33,0.5,0.28,0.44,0.33,0.5,0.44,0.28,0.28,0.5,0.5,0.44,0.28,0.25,0.61,0.33,0.44,0.5,0.44,0.25,0.72,0.5,0.28,0.5,0.5,0.25,0.67,0.5,0.5,0.33,0.44,0.5,0.44,0.33,0.44,0.28,0.28,0.5,0.5" style="fill:rgb(0,0,0);font-family:TimesNewRomanPSMT;font-size:11.04px;stroke:none;">International Trade Union Confederation</text>
  </g>
  <g begin="text">
   <text y="202.22" x="265.01" svgx:width="1.0" style="fill:rgb(0,0,0);font-family:TimesNewRomanPSMT;font-size:11.04px;stroke:none;">—</text>
  </g>
  <g begin="text">
   <text y="202.22" x="275.93" svgx:width="0.25" style="fill:rgb(0,0,0);font-family:TimesNewRomanPSMT;font-size:11.04px;stroke:none;"> </text>
  </g>
  <g begin="text">
   <text y="214.82" x="84.384" svgx:width="0.33" style="fill:rgb(0,0,0);font-family:TimesNewRomanPSMT;font-size:11.04px;stroke:none;">-</text>
  </g>
  <g begin="text">
   <text y="214.82" x="87.984,92.886,96.617,100.327,103.33,106.443,109.446,114.348,117.472,122.274,127.794,130.554,134.849,140.269,144.564,147.699,150.459,157.061,160.771,165.672,171.192,175.41,178.523,181.526,184.639,190.159,195.679,198.439,205.637,210.539,216.059,219.183,222.782,227.684,230.444,234.176,241.981,245.094,250.614,256.134,260.937,264.05,267.759,270.398,274.693,280.213,284.441,287.554" svgx:width="0.44,0.33,0.33,0.28,0.28,0.28,0.44,0.28,0.44,0.5,0.25,0.39,0.5,0.39,0.28,0.25,0.61,0.33,0.44,0.5,0.39,0.28,0.28,0.28,0.5,0.5,0.25,0.67,0.44,0.5,0.28,0.33,0.44,0.25,0.33,0.72,0.28,0.5,0.5,0.44,0.28,0.33,0.25,0.39,0.5,0.39,0.28,0.25" style="fill:rgb(0,0,0);font-family:TimesNewRomanPSMT;font-size:11.04px;stroke:none;">affiliated Just Transition Centre (Global) Just </text>
  </g>
  <g begin="text">
   <text y="227.42" x="84.384,91.129,94.806,99.73,105.25,109.445,112.558,115.561,118.674,124.194,129.714,132.474,140.28,143.393,146.396,149.509,154.411,159.931,164.744,169.646,172.406,176.138,184.053,190.048" svgx:width="0.61,0.33,0.44,0.5,0.39,0.28,0.28,0.28,0.5,0.5,0.25,0.72,0.28,0.28,0.28,0.44,0.5,0.44,0.44,0.25,0.33,0.72,0.56,0.33" style="fill:rgb(0,0,0);font-family:TimesNewRomanPSMT;font-size:11.04px;stroke:none;">Transition Alliance (US)</text>
  </g>
  <g begin="text">
   <text y="227.42" x="193.73" svgx:width="0.25" style="fill:rgb(0,0,0);font-family:TimesNewRomanPSMT;font-size:11.04px;stroke:none;"> </text>
  </g>
  <g begin="text">
   <text y="240.14" x="84.384,88.679,94.199,98.537,101.651,104.411,111.012,114.722,119.624,125.044,129.339,132.364,135.477,138.59,143.989,149.509,152.269,159.588,164.49,169.911,173.024,176.734,181.635,184.296,188.005,193.404,196.517,201.916,207.436,212.338,215.462" svgx:width="0.39,0.5,0.39,0.28,0.25,0.61,0.33,0.44,0.5,0.39,0.28,0.28,0.28,0.5,0.5,0.25,0.67,0.44,0.5,0.28,0.33,0.44,0.25,0.33,0.5,0.28,0.5,0.5,0.44,0.28,0.33" style="fill:rgb(0,0,0);font-family:TimesNewRomanPSMT;font-size:11.04px;stroke:none;">Just Transition Centre (global)</text>
  </g>
  <g begin="text">
   <text y="240.14" x="219.17" svgx:width="0.25" style="fill:rgb(0,0,0);font-family:TimesNewRomanPSMT;font-size:11.04px;stroke:none;"> </text>
  </g>
  <g begin="text">
   <text y="252.74" x="84.384,88.679,94.199,98.537,101.651,104.411,111.012,114.722,119.624,125.044,129.339,132.364,135.477,138.59,143.989,149.509,152.269,158.407,163.927,169.447,174.967,177.584,181.293,189.209,195.347" svgx:width="0.39,0.5,0.39,0.28,0.25,0.61,0.33,0.44,0.5,0.39,0.28,0.28,0.28,0.5,0.5,0.25,0.56,0.5,0.5,0.5,0.25,0.33,0.72,0.56,0.33" style="fill:rgb(0,0,0);font-family:TimesNewRomanPSMT;font-size:11.04px;stroke:none;">Just Transition Fund (US)</text>
  </g>
  <g begin="text">
   <text y="252.74" x="199.01" svgx:width="0.25" style="fill:rgb(0,0,0);font-family:TimesNewRomanPSMT;font-size:11.04px;stroke:none;"> </text>
  </g>
  <g begin="text">
   <text y="100.94" x="303.05,309.188,314.708,322.613,327.515,331.246,334.359,339.758,345.278,348.038,354.176,359.078,363.273,366.387,369.147,376.466,381.986,386.788,389.902,392.662,400.577,403.58,406.694,409.696,414.598,420.118,424.932,429.833,432.593,436.325,441.723,444.837,450.357,455.877,460.679,463.792" svgx:width="0.56,0.5,0.72,0.44,0.33,0.28,0.5,0.5,0.25,0.56,0.44,0.39,0.28,0.25,0.67,0.5,0.44,0.28,0.25,0.72,0.28,0.28,0.28,0.44,0.5,0.44,0.44,0.25,0.33,0.5,0.28,0.5,0.5,0.44,0.28,0.33" style="fill:rgb(0,0,0);font-family:TimesNewRomanPSMT;font-size:11.04px;stroke:none;">Powering Past Coal Alliance (global)</text>
  </g>
  <g begin="text">
   <text y="100.94" x="467.5" svgx:width="0.25" style="fill:rgb(0,0,0);font-family:TimesNewRomanPSMT;font-size:11.04px;stroke:none;"> </text>
  </g>
  <g begin="text">
   <text y="113.66" x="303.05,310.369,313.483,319.003,324.523,327.636,330.275,333.388,338.908,341.546,344.66,350.18,355.081,357.841,362.655,365.658,368.771,374.291,377.051,381.853,384.967,387.97,391.083,395.985,401.505,406.318,411.22,413.98,417.711,425.517,431.655" svgx:width="0.67,0.28,0.5,0.5,0.28,0.25,0.28,0.5,0.25,0.28,0.5,0.44,0.25,0.44,0.28,0.28,0.5,0.25,0.44,0.28,0.28,0.28,0.44,0.5,0.44,0.44,0.25,0.33,0.72,0.56,0.33" style="fill:rgb(0,0,0);font-family:TimesNewRomanPSMT;font-size:11.04px;stroke:none;">Right to the city alliance (US)</text>
  </g>
  <g begin="text">
   <text y="113.66" x="435.43" svgx:width="0.25" style="fill:rgb(0,0,0);font-family:TimesNewRomanPSMT;font-size:11.04px;stroke:none;"> </text>
  </g>
  <g begin="text">
   <text y="126.26" x="303.05,309.188,312.257,317.203,320.802,324.512,329.414,332.174,339.394,342.507,348.027" svgx:width="0.56,0.28,0.44,0.33,0.33,0.44,0.25,0.67,0.28,0.5,0.5" style="fill:rgb(0,0,0);font-family:TimesNewRomanPSMT;font-size:11.04px;stroke:none;">Sierra Club</text>
  </g>
  <g begin="text">
   <text y="126.26" x="353.59" svgx:width="0.25" style="fill:rgb(0,0,0);font-family:TimesNewRomanPSMT;font-size:11.04px;stroke:none;"> </text>
  </g>
  <g begin="text">
   <text y="126.26" x="356.35,360.059,367.975,373.97" svgx:width="0.33,0.72,0.56,0.33" style="fill:rgb(0,0,0);font-family:TimesNewRomanPSMT;font-size:11.04px;stroke:none;">(US)</text>
  </g>
  <g begin="text">
   <text y="126.26" x="377.59" svgx:width="0.25" style="fill:rgb(0,0,0);font-family:TimesNewRomanPSMT;font-size:11.04px;stroke:none;"> </text>
  </g>
  <g begin="text">
   <text y="138.98" x="303.05,309.188,314.708,320.228,323.905,326.929,331.224,336.159,338.798,348.612,354.132,359.652,364.477,373.11,378.012,383.432,386.545,389.305,393.015,400.931,406.925" svgx:width="0.56,0.5,0.5,0.33,0.28,0.39,0.44,0.25,0.89,0.5,0.5,0.44,0.78,0.44,0.5,0.28,0.25,0.33,0.72,0.56,0.33" style="fill:rgb(0,0,0);font-family:TimesNewRomanPSMT;font-size:11.04px;stroke:none;">Sunrise Movement (US)</text>
  </g>
  <g begin="text">
   <text y="138.98" x="410.59" svgx:width="0.25" style="fill:rgb(0,0,0);font-family:TimesNewRomanPSMT;font-size:11.04px;stroke:none;"> </text>
  </g>
  <g begin="text">
   <text y="151.58" x="303.05,309.795,315.315,320.217,322.977,329.723,334.624,339.526,345.046,347.685,357.499,362.434,367.833,370.946,374.545,379.447,383.664,386.777,392.297,395.057,398.767,406.086,410.889,416.409,421.211,426.731,431.633" svgx:width="0.61,0.5,0.44,0.25,0.61,0.44,0.44,0.5,0.25,0.89,0.44,0.5,0.28,0.33,0.44,0.39,0.28,0.5,0.25,0.33,0.67,0.44,0.5,0.44,0.5,0.44,0.33" style="fill:rgb(0,0,0);font-family:TimesNewRomanPSMT;font-size:11.04px;stroke:none;">The Leap Manifesto (Canada)</text>
  </g>
  <g begin="text">
   <text y="151.58" x="435.31" svgx:width="0.25" style="fill:rgb(0,0,0);font-family:TimesNewRomanPSMT;font-size:11.04px;stroke:none;"> </text>
  </g>
  <g begin="text">
   <text y="164.18" x="303.05,309.795,315.315,320.217,322.977,329.723,333.399,338.212,343.732,348.634,351.394,359.365,364.885,367.855,373.375,378.895,383.189,385.85,389.56,395.079,398.789,401.549,408.294,413.671,418.573,422.194,427.714,433.234,435.994,443.909,448.811,457.456,462.854,467.756,471.487,476.29,481.192,486.712" svgx:width="0.61,0.5,0.44,0.25,0.61,0.33,0.44,0.5,0.44,0.25,0.72,0.5,0.28,0.5,0.5,0.39,0.25,0.33,0.5,0.33,0.25,0.61,0.5,0.44,0.33,0.5,0.5,0.25,0.72,0.44,0.78,0.5,0.44,0.33,0.44,0.44,0.5,0.25" style="fill:rgb(0,0,0);font-family:TimesNewRomanPSMT;font-size:11.04px;stroke:none;">The Trade Unions for Energy Democracy </text>
  </g>
  <g begin="text">
   <text y="176.9" x="303.05,306.649,312.169,315.282,318.396,321.398,326.3,329.314,332.427,337.947,342.849,345.51,349.219,357.135,360.248,365.768,371.167,376.069,379.082" svgx:width="0.33,0.5,0.28,0.28,0.28,0.44,0.28,0.28,0.5,0.44,0.25,0.33,0.72,0.28,0.5,0.5,0.44,0.28,0.33" style="fill:rgb(0,0,0);font-family:TimesNewRomanPSMT;font-size:11.04px;stroke:none;">Initiative (Global)</text>
  </g>
  <g begin="text">
   <text y="176.9" x="382.75" svgx:width="0.25" style="fill:rgb(0,0,0);font-family:TimesNewRomanPSMT;font-size:11.04px;stroke:none;"> </text>
  </g>
  <g begin="text">
   <text y="189.5" x="303.05,309.795,313.472,318.396,323.916,328.817,331.577,339.548,344.914,348.027,353.547,359.067,361.827,369.146,374.666,380.065,383.774,388.676,394.097" svgx:width="0.61,0.33,0.44,0.5,0.44,0.25,0.72,0.5,0.28,0.5,0.5,0.25,0.67,0.5,0.5,0.33,0.44,0.5,0.44" style="fill:rgb(0,0,0);font-family:TimesNewRomanPSMT;font-size:11.04px;stroke:none;">Trade Union Confede</text>
  </g>
  <g begin="text">
   <text y="189.5" x="399.07,402.779,407.582,410.585,413.698,419.218,424.617,427.377,432.897,436.606,439.366,442.479,447.878,452.78,455.54,463.511,472.0,476.902,480.523,483.636,488.538,493.352,497.646" svgx:width="0.33,0.44,0.28,0.28,0.5,0.5,0.25,0.5,0.33,0.25,0.28,0.5,0.44,0.25,0.72,0.78,0.44,0.33,0.28,0.44,0.44,0.39,0.25" style="fill:rgb(0,0,0);font-family:TimesNewRomanPSMT;font-size:11.04px;stroke:none;">ration of the Americas </text>
  </g>
  <g begin="text">
   <text y="189.5" x="500.38" svgx:width="0.25" style="fill:rgb(0,0,0);font-family:TimesNewRomanPSMT;font-size:11.04px;stroke:none;"> </text>
  </g>
  <g begin="text">
   <text y="202.22" x="303.05,305.81,308.57,311.33,314.09" svgx:width="0.25,0.25,0.25,0.25,0.25" style="fill:rgb(0,0,0);font-family:TimesNewRomanPSMT;font-size:11.04px;stroke:none;"> </text>
  </g>
  <g begin="text">
   <text y="202.22" x="316.87,320.579,327.325,335.218,342.538,350.454,354.163,356.923,360.522,367.268,375.161,382.481,386.19,390.485,393.245,396.866,401.768,407.288,410.302,415.822,421.22,426.122,429.246,432.006,437.405,441.114,446.016,451.536,456.349,461.869" svgx:width="0.33,0.61,0.72,0.67,0.72,0.33,0.25,0.33,0.61,0.72,0.67,0.33,0.39,0.25,0.33,0.44,0.5,0.28,0.5,0.5,0.44,0.28,0.25,0.5,0.33,0.44,0.5,0.44,0.5,0.25" style="fill:rgb(0,0,0);font-family:TimesNewRomanPSMT;font-size:11.04px;stroke:none;">(TUCA) ITUC’s regional branch </text>
  </g>
  <g begin="text">
   <text y="214.82" x="303.05,306.759,314.675,323.308,328.111,331.82,334.823,339.725,344.649,348.844" svgx:width="0.33,0.72,0.78,0.44,0.33,0.28,0.44,0.44,0.39,0.33" style="fill:rgb(0,0,0);font-family:TimesNewRomanPSMT;font-size:11.04px;stroke:none;">(Americas)</text>
  </g>
  <g begin="text">
   <text y="214.82" x="352.51" svgx:width="0.25" style="fill:rgb(0,0,0);font-family:TimesNewRomanPSMT;font-size:11.04px;stroke:none;"> </text>
  </g>
  <g begin="text">
   <text y="227.42" x="303.05,309.795,313.472,318.396,323.916,328.111,331.224,334.227,337.34,342.86,348.259,352.553,355.313,362.059,367.579,375.495,381.014,383.775,393.589,399.01,404.53,409.332,417.965,422.768,428.288,431.401,434.161,437.87,445.786,453.702" svgx:width="0.61,0.33,0.44,0.5,0.39,0.28,0.28,0.28,0.5,0.5,0.39,0.25,0.61,0.5,0.72,0.5,0.25,0.89,0.5,0.5,0.44,0.78,0.44,0.5,0.28,0.25,0.33,0.72,0.72,0.33" style="fill:rgb(0,0,0);font-family:TimesNewRomanPSMT;font-size:11.04px;stroke:none;">Transitions Town Movement (UK)</text>
  </g>
  <g begin="text">
   <text y="227.42" x="457.42" svgx:width="0.25" style="fill:rgb(0,0,0);font-family:TimesNewRomanPSMT;font-size:11.04px;stroke:none;"> </text>
  </g>
  <g begin="text">
   <text y="240.14" x="303.05,313.472,318.992,327.526,332.427,337.947,341.569,345.863,348.623,355.369,360.889,366.287,369.4,373.11,378.63,384.028,392.662,397.464,402.984,406.097,408.857,413.66,419.18,424.578,427.338,435.254,440.156,445.676,450.599,453.713,459.111,464.631,473.154,478.056,483.576" svgx:width="0.94,0.5,0.78,0.44,0.5,0.33,0.39,0.25,0.61,0.5,0.5,0.28,0.33,0.5,0.5,0.78,0.44,0.5,0.28,0.25,0.44,0.5,0.5,0.25,0.72,0.44,0.5,0.44,0.28,0.5,0.5,0.78,0.44,0.5,0.28" style="fill:rgb(0,0,0);font-family:TimesNewRomanPSMT;font-size:11.04px;stroke:none;">Women’s Environment and Development</text>
  </g>
  <g begin="text">
   <text y="240.14" x="486.7" svgx:width="0.25" style="fill:rgb(0,0,0);font-family:TimesNewRomanPSMT;font-size:11.04px;stroke:none;"> </text>
  </g>
  <g begin="text">
   <text y="252.74" x="303.05,305.81,308.57,311.33,314.09" svgx:width="0.25,0.25,0.25,0.25,0.25" style="fill:rgb(0,0,0);font-family:TimesNewRomanPSMT;font-size:11.04px;stroke:none;"> </text>
  </g>
  <g begin="text">
   <text y="252.74" x="316.87,324.786,328.495,334.015,338.917,344.338,347.451,352.353,357.166,360.169,363.282,368.802,374.322,377.082,380.792,388.597,391.71,397.23,402.75,407.553,410.666" svgx:width="0.72,0.33,0.5,0.44,0.5,0.28,0.44,0.44,0.28,0.28,0.5,0.5,0.25,0.33,0.72,0.28,0.5,0.5,0.44,0.28,0.33" style="fill:rgb(0,0,0);font-family:TimesNewRomanPSMT;font-size:11.04px;stroke:none;">Organization (Global)</text>
  </g>
  <g begin="text">
   <text y="252.74" x="414.31" svgx:width="0.25" style="fill:rgb(0,0,0);font-family:TimesNewRomanPSMT;font-size:11.04px;stroke:none;"> </text>
  </g>
  <g begin="text">
   <text y="265.49" x="303.05,308.57,314.09,319.61,322.37,327.89,331.599,337.119,339.758,343.467,351.383,354.496,359.895,365.415,370.317,373.331" svgx:width="0.5,0.5,0.5,0.25,0.5,0.33,0.5,0.25,0.33,0.72,0.28,0.5,0.5,0.44,0.28,0.33" style="fill:rgb(0,0,0);font-family:TimesNewRomanPSMT;font-size:11.04px;stroke:none;">350.org (Global)</text>
  </g>
  <g begin="text">
   <text y="265.49" x="376.99" svgx:width="0.25" style="fill:rgb(0,0,0);font-family:TimesNewRomanPSMT;font-size:11.04px;stroke:none;"> </text>
  </g>
  <g begin="text">
   <text y="278.09" x="72.024,79.343,87.259,95.175,97.935,105.254,113.888,121.803,124.563,130.083,132.843,138.363,141.123,149.757,157.076,164.992" svgx:width="0.67,0.72,0.72,0.25,0.67,0.78,0.72,0.25,0.5,0.25,0.5,0.25,0.78,0.67,0.72,0.67" style="fill:rgb(0,0,0);font-family:TimesNewRomanPS-BoldMT;font-size:11.04px;stroke:none;">END BOX 4.6 HERE</text>
  </g>
  <g begin="text">
   <text y="278.09" x="172.22" svgx:width="0.25" style="fill:rgb(0,0,0);font-family:TimesNewRomanPS-BoldMT;font-size:11.04px;stroke:none;"> </text>
  </g>
  <g begin="text">
   <text y="278.09" x="48.0" svgx:width="0.5" style="fill:rgb(0,0,0);font-family:TimesNewRomanPSMT;font-size:12.0px;stroke:none;">1</text>
  </g>
  <g begin="text">
   <text y="278.09" x="54.0" svgx:width="0.25" style="fill:rgb(0,0,0);font-family:TimesNewRomanPSMT;font-size:12.0px;stroke:none;"> </text>
  </g>
  <g begin="text">
   <text y="290.69" x="72.024" svgx:width="0.25" style="fill:rgb(0,0,0);font-family:TimesNewRomanPSMT;font-size:11.04px;stroke:none;"> </text>
  </g>
  <g begin="text">
   <text y="290.69" x="48.0" svgx:width="0.5" style="fill:rgb(0,0,0);font-family:TimesNewRomanPSMT;font-size:12.0px;stroke:none;">2</text>
  </g>
  <g begin="text">
   <text y="290.69" x="54.0" svgx:width="0.25" style="fill:rgb(0,0,0);font-family:TimesNewRomanPSMT;font-size:12.0px;stroke:none;"> </text>
  </g>
  <g begin="text">
   <text y="303.41" x="72.024" svgx:width="0.25" style="fill:rgb(0,0,0);font-family:TimesNewRomanPSMT;font-size:11.04px;stroke:none;"> </text>
  </g>
  <g begin="text">
   <text y="303.41" x="48.0" svgx:width="0.5" style="fill:rgb(0,0,0);font-family:TimesNewRomanPSMT;font-size:12.0px;stroke:none;">3</text>
  </g>
  <g begin="text">
   <text y="303.41" x="54.0" svgx:width="0.25" style="fill:rgb(0,0,0);font-family:TimesNewRomanPSMT;font-size:12.0px;stroke:none;"> </text>
  </g>
  <g begin="text">
   <text y="316.13" x="72.024,79.94,82.7,83.528,86.641,92.161,96.456,99.591,102.351,103.179,106.182,109.891,114.793,120.214,124.508,127.533,130.646,133.76,139.28,144.8,148.266,153.168,156.292,159.88,165.4,170.203,173.316,176.429,181.828,187.348,192.15,195.264,198.024,201.612,205.321,210.223,215.643,218.757,224.277,229.797,234.599,237.712,240.47199999999998,241.3,246.202,251.722,257.242,260.731,263.844,269.364,274.266,279.079,282.193,284.953,285.781,290.075,294.9,299.801,302.926,307.728,311.923,314.683,315.511,320.413,325.337,330.857,334.445,339.965,344.867,347.991,353.511,356.978,360.091,365.611,368.371,369.199,374.101,379.621,383.948,389.347,393.056,397.958,401.447,404.56,410.08,414.882,417.996,420.756,421.584,429.499,435.019,438.729,444.249,449.051,452.761,457.055,459.815,462.575,463.425,468.327,473.748,482.271,490.904,496.424,501.944,504.947,508.06,511.063,515.965,520.292,522.931" svgx:width="0.72,0.25,0.55,0.28,0.5,0.39,0.28,0.25,0.55,0.28,0.33,0.44,0.5,0.39,0.28,0.28,0.28,0.5,0.5,0.25,0.44,0.28,0.25,0.5,0.44,0.28,0.28,0.5,0.5,0.44,0.28,0.25,0.25,0.33,0.44,0.5,0.28,0.5,0.5,0.44,0.28,0.25,0.55,0.44,0.5,0.5,0.25,0.28,0.5,0.44,0.44,0.28,0.25,0.55,0.39,0.44,0.44,0.28,0.44,0.39,0.25,0.55,0.44,0.44,0.5,0.25,0.5,0.44,0.28,0.5,0.25,0.28,0.5,0.25,0.55,0.44,0.5,0.39,0.5,0.33,0.44,0.25,0.28,0.5,0.44,0.28,0.25,0.55,0.72,0.5,0.33,0.5,0.44,0.33,0.39,0.25,0.25,0.55,0.44,0.5,0.78,0.78,0.5,0.5,0.28,0.28,0.28,0.44,0.39,0.25,0.25" style="fill:rgb(0,0,0);font-family:TimesNewRomanPSMT;font-size:11.04px;stroke:none;">A just transition at national, regional and local scales can help to ensure that workers, communities, </text>
  </g>
  <g begin="text">
   <text y="316.13" x="48.0" svgx:width="0.5" style="fill:rgb(0,0,0);font-family:TimesNewRomanPSMT;font-size:12.0px;stroke:none;">4</text>
  </g>
  <g begin="text">
   <text y="316.13" x="54.0" svgx:width="0.25" style="fill:rgb(0,0,0);font-family:TimesNewRomanPSMT;font-size:12.0px;stroke:none;"> </text>
  </g>
  <g begin="text">
   <text y="330.05" x="72.024,75.733,79.443,84.963,90.361,93.475,96.478,99.591,105.111,109.913,112.673,114.826,119.728,125.149,133.671,142.305,147.825,153.345,156.348,159.461,162.464,167.366,171.693,174.453,176.484,181.386,186.906,192.327,195.087,197.24,200.353,205.873,210.675,213.435,215.588,220.49,225.911,230.812,234.544,240.064" svgx:width="0.33,0.33,0.5,0.5,0.28,0.28,0.28,0.5,0.44,0.25,0.55,0.44,0.5,0.78,0.78,0.5,0.5,0.28,0.28,0.28,0.44,0.39,0.25,0.55,0.44,0.5,0.5,0.25,0.55,0.28,0.5,0.44,0.25,0.55,0.44,0.5,0.44,0.33,0.5,0.5" style="fill:rgb(0,0,0);font-family:TimesNewRomanPSMT;font-size:11.04px;stroke:none;">frontline communities and the energy</text>
  </g>
  <g begin="text">
   <text y="330.05" x="245.69" svgx:width="0.33" style="fill:rgb(0,0,0);font-family:TimesNewRomanPSMT;font-size:11.04px;stroke:none;">-</text>
  </g>
  <g begin="text">
   <text y="330.05" x="249.29,254.81,260.33,265.729,269.438,272.198,274.351,279.153,282.863,287.665,290.425,292.578,298.098,303.618,306.621,309.381,311.534,314.536,319.438,323.17,326.173,328.933,331.086,336.605,341.507,346.928,350.041,355.561,360.96,363.71999999999997,365.872,368.986,374.384,377.144,379.297,382.41,387.809,392.711,395.471,397.513,400.626,404.336,409.238,414.658,418.953,421.978,425.091,428.094,433.492,439.012,441.772,444.532,446.685,456.5,461.92,465.63,470.532,476.052,481.472,486.374,490.106,492.744,495.504,497.657,502.559,505.319,507.361,510.474,515.994,520.19,523.193" svgx:width="0.5,0.5,0.5,0.33,0.25,0.55,0.44,0.33,0.44,0.25,0.55,0.5,0.5,0.28,0.25,0.55,0.28,0.44,0.33,0.28,0.25,0.55,0.5,0.44,0.5,0.28,0.5,0.5,0.25,0.55,0.28,0.5,0.25,0.55,0.28,0.5,0.44,0.25,0.55,0.28,0.33,0.44,0.5,0.39,0.28,0.28,0.28,0.5,0.5,0.25,0.25,0.55,0.89,0.5,0.33,0.44,0.5,0.5,0.44,0.33,0.25,0.25,0.55,0.44,0.25,0.55,0.28,0.5,0.39,0.28,0.25" style="fill:rgb(0,0,0);font-family:TimesNewRomanPSMT;font-size:11.04px;stroke:none;">poor are not left behind in the transition. Moreover, a just </text>
  </g>
  <g begin="text">
   <text y="330.05" x="48.0" svgx:width="0.5" style="fill:rgb(0,0,0);font-family:TimesNewRomanPSMT;font-size:12.0px;stroke:none;">5</text>
  </g>
  <g begin="text">
   <text y="330.05" x="54.0" svgx:width="0.25" style="fill:rgb(0,0,0);font-family:TimesNewRomanPSMT;font-size:12.0px;stroke:none;"> </text>
  </g>
  <g begin="text">
   <text y="343.97" x="72.024,75.137,78.847,83.749,89.169,93.464,96.489,99.602,102.605,108.125,113.645,116.869,122.389,127.191,132.093,137.016,141.212,145.506,148.531,151.644,156.447,159.56,164.462,168.679,171.903,175.016,180.415,185.316,188.441,191.554,195.263,200.165,205.685,208.699,214.219,217.443,222.963,227.765,232.667,237.591,241.19,246.71,252.23,257.75,260.753,265.047,269.872,272.985,276.098,281.497,287.017,290.241,295.761,301.281,306.083" svgx:width="0.28,0.33,0.44,0.5,0.39,0.28,0.28,0.28,0.5,0.5,0.25,0.5,0.44,0.44,0.44,0.39,0.39,0.28,0.28,0.44,0.28,0.44,0.39,0.25,0.28,0.5,0.44,0.28,0.25,0.33,0.44,0.5,0.28,0.5,0.25,0.5,0.44,0.44,0.44,0.33,0.5,0.5,0.5,0.28,0.39,0.44,0.28,0.28,0.5,0.5,0.25,0.5,0.5,0.44,0.39" style="fill:rgb(0,0,0);font-family:TimesNewRomanPSMT;font-size:11.04px;stroke:none;">transition necessitates that rapid decarbonisation does</text>
  </g>
  <g begin="text">
   <text y="343.97" x="310.61" svgx:width="0.25" style="fill:rgb(0,0,0);font-family:TimesNewRomanPSMT;font-size:11.04px;stroke:none;"> </text>
  </g>
  <g begin="text">
   <text y="343.97" x="313.75,319.27,324.79,327.903,331.127,336.525,341.427,345.159,350.557,355.459,358.583,363.982,368.884,372.008,376.811,380.034,384.936,389.264,394.662,403.185,411.818,416.621,419.734,423.333,426.446,431.348,435.565,438.789,444.309,449.211,452.335,460.251,465.053,469.955,475.475,478.599,482.309,485.422,490.224,495.744,500.646,504.267,507.491,512.393,517.813,523.212" svgx:width="0.5,0.5,0.28,0.25,0.5,0.44,0.33,0.5,0.44,0.28,0.5,0.44,0.28,0.44,0.25,0.44,0.39,0.5,0.78,0.78,0.44,0.28,0.33,0.28,0.44,0.39,0.25,0.5,0.44,0.28,0.72,0.44,0.44,0.5,0.25,0.33,0.28,0.44,0.5,0.44,0.33,0.25,0.44,0.5,0.5,0.25" style="fill:rgb(0,0,0);font-family:TimesNewRomanPSMT;font-size:11.04px;stroke:none;">not perpetuate asymmetries between richer and </text>
  </g>
  <g begin="text">
   <text y="343.97" x="48.0" svgx:width="0.5" style="fill:rgb(0,0,0);font-family:TimesNewRomanPSMT;font-size:12.0px;stroke:none;">6</text>
  </g>
  <g begin="text">
   <text y="343.97" x="54.0" svgx:width="0.25" style="fill:rgb(0,0,0);font-family:TimesNewRomanPSMT;font-size:12.0px;stroke:none;"> </text>
  </g>
  <g begin="text">
   <text y="357.89" x="72.024,77.544,83.064,88.584,92.293,97.096,100.805,102.969,107.164,110.278,115.179,118.193,123.095,127.423,129.587,134.488,139.909,145.429,147.593,153.113,158.015,163.535,168.955,172.069,176.97" svgx:width="0.5,0.5,0.5,0.33,0.44,0.33,0.25,0.39,0.28,0.44,0.28,0.44,0.39,0.25,0.44,0.5,0.5,0.25,0.5,0.44,0.5,0.5,0.28,0.44,0.25" style="fill:rgb(0,0,0);font-family:TimesNewRomanPSMT;font-size:11.04px;stroke:none;">poorer states and people </text>
  </g>
  <g begin="text">
   <text y="357.89" x="179.06,182.769,190.685,198.601,206.516,213.836,221.156,223.319,228.839,234.359,239.879,245.399" svgx:width="0.33,0.72,0.72,0.72,0.67,0.67,0.25,0.5,0.5,0.5,0.5,0.33" style="fill:rgb(0,0,0);font-family:TimesNewRomanPSMT;font-size:11.04px;stroke:none;">(UNHRC 2020)</text>
  </g>
  <g begin="text">
   <text y="357.89" x="249.17,251.93,254.094,262.009,265.123,268.126,271.239,276.141,281.561,286.463,291.387,295.681,297.867,302.67,306.379,311.778,317.298,322.818,328.338,330.502,335.403,337.578,340.692,346.09,350.385,353.52,355.563,358.676,362.275,367.177,372.697,376.914,380.027,383.03,386.143,391.663,397.183,399.347,402.35,407.87,410.034,414.936,420.456,425.976,431.396,434.399,438.109,441.222,446.024,450.319,452.505,457.406,462.22,465.929,471.449,475.744,480.083,482.125,485.238,490.758,495.66,497.835,505.751,511.149,514.859,517.862,523.26" svgx:width="0.25,0.25,0.72,0.28,0.28,0.28,0.44,0.5,0.44,0.44,0.39,0.25,0.44,0.33,0.5,0.5,0.5,0.5,0.25,0.44,0.25,0.28,0.5,0.39,0.28,0.25,0.28,0.33,0.44,0.5,0.39,0.28,0.28,0.28,0.5,0.5,0.25,0.28,0.5,0.25,0.44,0.5,0.5,0.5,0.28,0.33,0.28,0.44,0.39,0.25,0.44,0.44,0.33,0.5,0.39,0.39,0.25,0.28,0.5,0.44,0.25,0.72,0.5,0.33,0.28,0.5,0.25" style="fill:rgb(0,0,0);font-family:TimesNewRomanPSMT;font-size:11.04px;stroke:none;">. Alliances around a just transition in countries across the world </text>
  </g>
  <g begin="text">
   <text y="357.89" x="48.0" svgx:width="0.5" style="fill:rgb(0,0,0);font-family:TimesNewRomanPSMT;font-size:12.0px;stroke:none;">7</text>
  </g>
  <g begin="text">
   <text y="357.89" x="54.0" svgx:width="0.25" style="fill:rgb(0,0,0);font-family:TimesNewRomanPSMT;font-size:12.0px;stroke:none;"> </text>
  </g>
  <g begin="text">
   <text y="371.81" x="72.024,75.137,80.039,85.559,90.483,93.121,101.755,106.557,112.077,117.597,120.357,124.067,129.465,133.064,141.697,145.992,148.752,152.484,159.682,165.202,170.722,173.482,179.002" svgx:width="0.28,0.44,0.5,0.44,0.25,0.78,0.44,0.5,0.5,0.25,0.33,0.5,0.33,0.78,0.39,0.25,0.33,0.67,0.5,0.5,0.25,0.5,0.25" style="fill:rgb(0,0,0);font-family:TimesNewRomanPSMT;font-size:11.04px;stroke:none;">take many forms (Box 4.</text>
  </g>
  <g begin="text">
   <text y="371.81" x="181.82" svgx:width="0.5" style="fill:rgb(0,0,0);font-family:TimesNewRomanPSMT;font-size:11.04px;stroke:none;">6</text>
  </g>
  <g begin="text">
   <text y="371.81" x="187.25,190.97" svgx:width="0.33,0.25" style="fill:rgb(0,0,0);font-family:TimesNewRomanPSMT;font-size:11.04px;stroke:none;">).</text>
  </g>
  <g begin="text">
   <text y="371.81" x="193.61" svgx:width="0.25" style="fill:rgb(0,0,0);font-family:TimesNewRomanPSMT;font-size:11.04px;stroke:none;"> </text>
  </g>
  <g begin="text">
   <text y="371.81" x="48.0" svgx:width="0.5" style="fill:rgb(0,0,0);font-family:TimesNewRomanPSMT;font-size:12.0px;stroke:none;">8</text>
  </g>
  <g begin="text">
   <text y="371.81" x="54.0" svgx:width="0.25" style="fill:rgb(0,0,0);font-family:TimesNewRomanPSMT;font-size:12.0px;stroke:none;"> </text>
  </g>
  <g begin="text">
   <text y="602.109" transform="matrix(0.70711,-0.70711,0.70711,0.70711,-395.12956,250.29085)" rotateDegrees="-45" matrix="[29.803345,29.803345,-29.803345,29.803345,104.563255,239.8115]" x="104.563" svgx:width="0.67" style="fill:rgb(0,0,0);font-family:Arial;font-size:42.15px;stroke:none;">A</text>
   <text y="582.23" transform="matrix(0.70711,-0.70711,0.70711,0.70711,-375.25056,258.525)" rotateDegrees="-45" matrix="[29.803345,29.803345,-29.803345,29.803345,124.442085,259.6903]" x="124.442" svgx:width="0.72" style="fill:rgb(0,0,0);font-family:Arial;font-size:42.15px;stroke:none;">C</text>
   <text y="560.712" transform="matrix(0.70711,-0.70711,0.70711,0.70711,-353.73256,267.43805)" rotateDegrees="-45" matrix="[29.803345,29.803345,-29.803345,29.803345,145.9601,281.20834]" x="145.96" svgx:width="0.72" style="fill:rgb(0,0,0);font-family:Arial;font-size:42.15px;stroke:none;">C</text>
   <text y="539.194" transform="matrix(0.70711,-0.70711,0.70711,0.70711,-332.21456,276.3511)" rotateDegrees="-45" matrix="[29.803345,29.803345,-29.803345,29.803345,167.47812,302.72635]" x="167.478" svgx:width="0.67" style="fill:rgb(0,0,0);font-family:Arial;font-size:42.15px;stroke:none;">E</text>
   <text y="519.315" transform="matrix(0.70711,-0.70711,0.70711,0.70711,-312.33556,284.58525)" rotateDegrees="-45" matrix="[29.803345,29.803345,-29.803345,29.803345,187.35693,322.60516]" x="187.357" svgx:width="0.67" style="fill:rgb(0,0,0);font-family:Arial;font-size:42.15px;stroke:none;">P</text>
   <text y="499.436" transform="matrix(0.70711,-0.70711,0.70711,0.70711,-292.45656,292.8194)" rotateDegrees="-45" matrix="[29.803345,29.803345,-29.803345,29.803345,207.23578,342.484]" x="207.236" svgx:width="0.61" style="fill:rgb(0,0,0);font-family:Arial;font-size:42.15px;stroke:none;">T</text>
   <text y="481.226" transform="matrix(0.70711,-0.70711,0.70711,0.70711,-274.24656,300.36223)" rotateDegrees="-45" matrix="[29.803345,29.803345,-29.803345,29.803345,225.44562,360.69385]" x="225.446" svgx:width="0.67" style="fill:rgb(0,0,0);font-family:Arial;font-size:42.15px;stroke:none;">E</text>
   <text y="461.347" transform="matrix(0.70711,-0.70711,0.70711,0.70711,-254.36786,308.59567)" rotateDegrees="-45" matrix="[29.803345,29.803345,-29.803345,29.803345,245.32443,380.57266]" x="245.324" svgx:width="0.72" style="fill:rgb(0,0,0);font-family:Arial;font-size:42.15px;stroke:none;">D</text>
   <text y="439.829" transform="matrix(0.70711,-0.70711,0.70711,0.70711,-232.84986,317.50872)" rotateDegrees="-45" matrix="[29.803345,29.803345,-29.803345,29.803345,266.84247,402.0907]" x="266.842" svgx:width="0.28" style="fill:rgb(0,0,0);font-family:Arial;font-size:42.15px;stroke:none;"> </text>
   <text y="431.54" transform="matrix(0.70711,-0.70711,0.70711,0.70711,-224.56056,320.94284)" rotateDegrees="-45" matrix="[29.803345,29.803345,-29.803345,29.803345,275.13153,410.37976]" x="275.132" svgx:width="0.67" style="fill:rgb(0,0,0);font-family:Arial;font-size:42.15px;stroke:none;">V</text>
   <text y="411.661" transform="matrix(0.70711,-0.70711,0.70711,0.70711,-204.68186,329.17629)" rotateDegrees="-45" matrix="[29.803345,29.803345,-29.803345,29.803345,295.0103,430.25858]" x="295.01" svgx:width="0.67" style="fill:rgb(0,0,0);font-family:Arial;font-size:42.15px;stroke:none;">E</text>
   <text y="391.783" transform="matrix(0.70711,-0.70711,0.70711,0.70711,-184.80356,337.41073)" rotateDegrees="-45" matrix="[29.803345,29.803345,-29.803345,29.803345,314.88916,450.1374]" x="314.889" svgx:width="0.72" style="fill:rgb(0,0,0);font-family:Arial;font-size:42.15px;stroke:none;">R</text>
   <text y="370.265" transform="matrix(0.70711,-0.70711,0.70711,0.70711,-163.28556,346.32378)" rotateDegrees="-45" matrix="[29.803345,29.803345,-29.803345,29.803345,336.40717,471.65543]" x="336.407" svgx:width="0.67" style="fill:rgb(0,0,0);font-family:Arial;font-size:42.15px;stroke:none;">S</text>
   <text y="350.386" transform="matrix(0.70711,-0.70711,0.70711,0.70711,-143.40656,354.55793)" rotateDegrees="-45" matrix="[29.803345,29.803345,-29.803345,29.803345,356.286,491.53424]" x="356.286" svgx:width="0.28" style="fill:rgb(0,0,0);font-family:Arial;font-size:42.15px;stroke:none;">I</text>
   <text y="342.1" transform="matrix(0.70711,-0.70711,0.70711,0.70711,-135.12086,357.9894)" rotateDegrees="-45" matrix="[29.803345,29.803345,-29.803345,29.803345,364.57135,499.81958]" x="364.571" svgx:width="0.78" style="fill:rgb(0,0,0);font-family:Arial;font-size:42.15px;stroke:none;">O</text>
   <text y="318.913" transform="matrix(0.70711,-0.70711,0.70711,0.70711,-111.93386,367.59377)" rotateDegrees="-45" matrix="[29.803345,29.803345,-29.803345,29.803345,387.7583,523.0066]" x="387.758" svgx:width="0.72" style="fill:rgb(0,0,0);font-family:Arial;font-size:42.15px;stroke:none;">N</text>
   <text y="297.395" transform="matrix(0.70711,-0.70711,0.70711,0.70711,-90.41586,376.50681)" rotateDegrees="-45" matrix="[29.803345,29.803345,-29.803345,29.803345,409.27637,544.5246]" x="409.276" svgx:width="0.28" style="fill:rgb(0,0,0);font-family:Arial;font-size:42.15px;stroke:none;"> </text>
   <text y="637.872" transform="matrix(0.70711,-0.70711,0.70711,0.70711,-409.94279,286.05456)" rotateDegrees="-45" matrix="[29.803345,29.803345,-29.803345,29.803345,140.32727,204.04747]" x="140.327" svgx:width="0.67" style="fill:rgb(0,0,0);font-family:Arial;font-size:42.15px;stroke:none;">S</text>
   <text y="617.994" transform="matrix(0.70711,-0.70711,0.70711,0.70711,-390.0645,294.289)" rotateDegrees="-45" matrix="[29.803345,29.803345,-29.803345,29.803345,160.2061,223.9263]" x="160.206" svgx:width="0.72" style="fill:rgb(0,0,0);font-family:Arial;font-size:42.15px;stroke:none;">U</text>
   <text y="596.476" transform="matrix(0.70711,-0.70711,0.70711,0.70711,-368.5465,303.20205)" rotateDegrees="-45" matrix="[29.803345,29.803345,-29.803345,29.803345,181.72412,245.4443]" x="181.724" svgx:width="0.67" style="fill:rgb(0,0,0);font-family:Arial;font-size:42.15px;stroke:none;">B</text>
   <text y="576.597" transform="matrix(0.70711,-0.70711,0.70711,0.70711,-348.6675,311.4362)" rotateDegrees="-45" matrix="[29.803345,29.803345,-29.803345,29.803345,201.60294,265.32315]" x="201.603" svgx:width="0.5" style="fill:rgb(0,0,0);font-family:Arial;font-size:42.15px;stroke:none;">J</text>
   <text y="561.695" transform="matrix(0.70711,-0.70711,0.70711,0.70711,-333.7655,317.60881)" rotateDegrees="-45" matrix="[29.803345,29.803345,-29.803345,29.803345,216.50462,280.22482]" x="216.505" svgx:width="0.67" style="fill:rgb(0,0,0);font-family:Arial;font-size:42.15px;stroke:none;">E</text>
   <text y="541.816" transform="matrix(0.70711,-0.70711,0.70711,0.70711,-313.88679,325.84225)" rotateDegrees="-45" matrix="[29.803345,29.803345,-29.803345,29.803345,236.38344,300.10364]" x="236.383" svgx:width="0.72" style="fill:rgb(0,0,0);font-family:Arial;font-size:42.15px;stroke:none;">C</text>
   <text y="520.298" transform="matrix(0.70711,-0.70711,0.70711,0.70711,-292.36879,334.7553)" rotateDegrees="-45" matrix="[29.803345,29.803345,-29.803345,29.803345,257.90146,321.62164]" x="257.901" svgx:width="0.61" style="fill:rgb(0,0,0);font-family:Arial;font-size:42.15px;stroke:none;">T</text>
   <text y="502.089" transform="matrix(0.70711,-0.70711,0.70711,0.70711,-274.1595,342.29842)" rotateDegrees="-45" matrix="[29.803345,29.803345,-29.803345,29.803345,276.1113,339.83148]" x="276.111" svgx:width="0.28" style="fill:rgb(0,0,0);font-family:Arial;font-size:42.15px;stroke:none;"> </text>
   <text y="493.803" transform="matrix(0.70711,-0.70711,0.70711,0.70711,-265.8735,345.7306)" rotateDegrees="-45" matrix="[29.803345,29.803345,-29.803345,29.803345,284.39664,348.11682]" x="284.397" svgx:width="0.61" style="fill:rgb(0,0,0);font-family:Arial;font-size:42.15px;stroke:none;">T</text>
   <text y="475.593" transform="matrix(0.70711,-0.70711,0.70711,0.70711,-247.66379,353.27272)" rotateDegrees="-45" matrix="[29.803345,29.803345,-29.803345,29.803345,302.60648,366.32666]" x="302.606" svgx:width="0.78" style="fill:rgb(0,0,0);font-family:Arial;font-size:42.15px;stroke:none;">O</text>
   <text y="452.406" transform="matrix(0.70711,-0.70711,0.70711,0.70711,-224.47679,362.87709)" rotateDegrees="-45" matrix="[29.803345,29.803345,-29.803345,29.803345,325.79346,389.51367]" x="325.793" svgx:width="0.28" style="fill:rgb(0,0,0);font-family:Arial;font-size:42.15px;stroke:none;"> </text>
   <text y="444.136" transform="matrix(0.70711,-0.70711,0.70711,0.70711,-216.2065,366.30334)" rotateDegrees="-45" matrix="[29.803345,29.803345,-29.803345,29.803345,334.0639,397.78412]" x="334.064" svgx:width="0.61" style="fill:rgb(0,0,0);font-family:Arial;font-size:42.15px;stroke:none;">F</text>
   <text y="425.926" transform="matrix(0.70711,-0.70711,0.70711,0.70711,-197.9965,373.84617)" rotateDegrees="-45" matrix="[29.803345,29.803345,-29.803345,29.803345,352.27374,415.99396]" x="352.274" svgx:width="0.28" style="fill:rgb(0,0,0);font-family:Arial;font-size:42.15px;stroke:none;">I</text>
   <text y="417.641" transform="matrix(0.70711,-0.70711,0.70711,0.70711,-189.7115,377.27793)" rotateDegrees="-45" matrix="[29.803345,29.803345,-29.803345,29.803345,360.55908,424.2793]" x="360.559" svgx:width="0.72" style="fill:rgb(0,0,0);font-family:Arial;font-size:42.15px;stroke:none;">N</text>
   <text y="396.123" transform="matrix(0.70711,-0.70711,0.70711,0.70711,-168.1935,386.19098)" rotateDegrees="-45" matrix="[29.803345,29.803345,-29.803345,29.803345,382.0771,445.7973]" x="382.077" svgx:width="0.67" style="fill:rgb(0,0,0);font-family:Arial;font-size:42.15px;stroke:none;">A</text>
   <text y="376.244" transform="matrix(0.70711,-0.70711,0.70711,0.70711,-148.3145,394.42513)" rotateDegrees="-45" matrix="[29.803345,29.803345,-29.803345,29.803345,401.95593,465.67615]" x="401.956" svgx:width="0.56" style="fill:rgb(0,0,0);font-family:Arial;font-size:42.15px;stroke:none;">L</text>
   <text y="359.673" transform="matrix(0.70711,-0.70711,0.70711,0.70711,-131.7435,401.28906)" rotateDegrees="-45" matrix="[29.803345,29.803345,-29.803345,29.803345,418.5266,482.24677]" x="418.527" svgx:width="0.28" style="fill:rgb(0,0,0);font-family:Arial;font-size:42.15px;stroke:none;"> </text>
   <text y="351.394" transform="matrix(0.70711,-0.70711,0.70711,0.70711,-123.4645,404.71834)" rotateDegrees="-45" matrix="[29.803345,29.803345,-29.803345,29.803345,426.80573,490.52588]" x="426.806" svgx:width="0.67" style="fill:rgb(0,0,0);font-family:Arial;font-size:42.15px;stroke:none;">E</text>
   <text y="331.515" transform="matrix(0.70711,-0.70711,0.70711,0.70711,-103.5855,412.95249)" rotateDegrees="-45" matrix="[29.803345,29.803345,-29.803345,29.803345,446.68457,510.40472]" x="446.685" svgx:width="0.72" style="fill:rgb(0,0,0);font-family:Arial;font-size:42.15px;stroke:none;">D</text>
   <text y="309.997" transform="matrix(0.70711,-0.70711,0.70711,0.70711,-82.0675,421.86554)" rotateDegrees="-45" matrix="[29.803345,29.803345,-29.803345,29.803345,468.2025,531.9227]" x="468.203" svgx:width="0.28" style="fill:rgb(0,0,0);font-family:Arial;font-size:42.15px;stroke:none;">I</text>
   <text y="301.712" transform="matrix(0.70711,-0.70711,0.70711,0.70711,-73.7825,425.29729)" rotateDegrees="-45" matrix="[29.803345,29.803345,-29.803345,29.803345,476.48785,540.20807]" x="476.488" svgx:width="0.61" style="fill:rgb(0,0,0);font-family:Arial;font-size:42.15px;stroke:none;">T</text>
   <text y="283.502" transform="matrix(0.70711,-0.70711,0.70711,0.70711,-55.5725,432.84012)" rotateDegrees="-45" matrix="[29.803345,29.803345,-29.803345,29.803345,494.6977,558.4179]" x="494.698" svgx:width="0.67" style="fill:rgb(0,0,0);font-family:Arial;font-size:42.15px;stroke:none;">S</text>
  </g>
 </g>
</svg>
