<?xml version="1.0" encoding="UTF-8"?>
<svg height="813.88" width="2607.4" xmlns="http://www.w3.org/2000/svg">
 <g id="page" xmlns:svgx="http://www.xml-cml.org/schema/svgx">
  <g begin="text">
   <text y="45.72" x="72.024,78.162,81.231,86.751,91.587,94.7,97.46,105.376,110.896,116.416,121.218,124.928,130.448,138.971,143.872,149.392,152.517,155.277,163.082,166.195,170.39,173.504,177.103,180.216,185.736,191.135,194.137,197.251,202.771" svgx:width="0.56,0.28,0.5,0.44,0.28,0.25,0.72,0.5,0.5,0.44,0.33,0.5,0.78,0.44,0.5,0.28,0.25,0.72,0.28,0.39,0.28,0.33,0.28,0.5,0.5,0.28,0.28,0.5,0.5" style="fill:rgb(0,0,0);font-family:TimesNewRomanPSMT;font-size:11.04px;stroke:none;">Final Government Distribution</text>
  </g>
  <g begin="text">
   <text y="45.72" x="208.37" svgx:width="0.25" style="fill:rgb(0,0,0);font-family:TimesNewRomanPSMT;font-size:11.04px;stroke:none;"> </text>
  </g>
  <g begin="text">
   <text y="45.72" x="211.01" svgx:width="0.25" style="fill:rgb(0,0,0);font-family:TimesNewRomanPSMT;font-size:11.04px;stroke:none;"> </text>
  </g>
  <g begin="text">
   <text y="45.72" x="276.17,283.49,289.009,293.911,299.431,302.556,307.358,311.067,313.827" svgx:width="0.67,0.5,0.44,0.5,0.28,0.44,0.33,0.25,0.5" style="fill:rgb(0,0,0);font-family:TimesNewRomanPSMT;font-size:11.04px;stroke:none;">Chapter 4</text>
  </g>
  <g begin="text">
   <text y="45.72" x="319.27" svgx:width="0.25" style="fill:rgb(0,0,0);font-family:TimesNewRomanPSMT;font-size:11.04px;stroke:none;"> </text>
  </g>
  <g begin="text">
   <text y="45.72" x="443.38,446.979,453.117,460.415,467.734" svgx:width="0.33,0.56,0.67,0.67,0.25" style="fill:rgb(0,0,0);font-family:TimesNewRomanPSMT;font-size:11.04px;stroke:none;">IPCC </text>
  </g>
  <g begin="text">
   <text y="45.72" x="470.5,478.416,485.735,491.255,494.015,504.437,512.408,516.084,519.694" svgx:width="0.72,0.67,0.5,0.25,0.94,0.72,0.33,0.33,0.33" style="fill:rgb(0,0,0);font-family:TimesNewRomanPSMT;font-size:11.04px;stroke:none;">AR6 WGIII</text>
  </g>
  <g begin="text">
   <text y="45.72" x="523.42" svgx:width="0.25" style="fill:rgb(0,0,0);font-family:TimesNewRomanPSMT;font-size:11.04px;stroke:none;"> </text>
  </g>
  <g begin="text">
   <text y="60.48" x="72.024" svgx:width="0.25" style="fill:rgb(0,0,0);font-family:TimesNewRomanPSMT;font-size:12.0px;stroke:none;"> </text>
  </g>
  <g begin="text">
   <text y="74.28" x="72.024" svgx:width="0.25" style="fill:rgb(0,0,0);font-family:TimesNewRomanPSMT;font-size:12.0px;stroke:none;"> </text>
  </g>
  <g begin="text">
   <text y="88.1" x="72.024" svgx:width="0.25" style="fill:rgb(0,0,0);font-family:TimesNewRomanPSMT;font-size:12.0px;stroke:none;"> </text>
  </g>
  <g begin="text">
   <text y="775.296" x="72.024,79.94,85.46,88.22,96.135,101.655,105.365,108.125,116.04,119.154,122.753,127.655,130.415,133.075,141.708,147.847,153.367,157.043,161.868,164.628,170.148,175.049,177.809,185.78,188.75,192.945,196.655,201.556,204.681,210.819,216.803,220.512" svgx:width="0.72,0.5,0.25,0.72,0.5,0.33,0.25,0.72,0.28,0.33,0.44,0.25,0.25,0.78,0.56,0.5,0.33,0.44,0.25,0.5,0.44,0.25,0.72,0.28,0.39,0.33,0.44,0.28,0.56,0.56,0.33,0.44" style="fill:rgb(0,0,0);font-family:TimesNewRomanPS-BoldMT;font-size:11.04px;stroke:none;">Do Not Cite, Quote or Distribute</text>
  </g>
  <g begin="text">
   <text y="775.296" x="225.41" svgx:width="0.25" style="fill:rgb(0,0,0);font-family:TimesNewRomanPS-BoldMT;font-size:11.04px;stroke:none;"> </text>
  </g>
  <g begin="text">
   <text y="775.296" x="287.57" svgx:width="0.5" style="fill:rgb(0,0,0);font-family:TimesNewRomanPSMT;font-size:11.04px;stroke:none;">4</text>
  </g>
  <g begin="text">
   <text y="775.296" x="293.09" svgx:width="0.33" style="fill:rgb(0,0,0);font-family:TimesNewRomanPSMT;font-size:11.04px;stroke:none;">-</text>
  </g>
  <g begin="text">
   <text y="775.296" x="296.69,302.21" svgx:width="0.5,0.5" style="fill:rgb(0,0,0);font-family:TimesNewRomanPSMT;font-size:11.04px;stroke:none;">60</text>
  </g>
  <g begin="text">
   <text y="775.296" x="307.73" svgx:width="0.25" style="fill:rgb(0,0,0);font-family:TimesNewRomanPSMT;font-size:11.04px;stroke:none;"> </text>
  </g>
  <g begin="text">
   <text y="775.296" x="310.49" svgx:width="0.25" style="fill:rgb(0,0,0);font-family:TimesNewRomanPSMT;font-size:11.04px;stroke:none;"> </text>
  </g>
  <g begin="text">
   <text y="775.296" x="450.1,456.845,462.365,465.435,470.259,473.372,476.132,481.652,486.554,491.975,496.876,501.204,504.207" svgx:width="0.61,0.5,0.28,0.44,0.28,0.25,0.5,0.44,0.5,0.44,0.39,0.28,0.25" style="fill:rgb(0,0,0);font-family:TimesNewRomanPSMT;font-size:11.04px;stroke:none;">Total pages: </text>
  </g>
  <g begin="text">
   <text y="775.296" x="506.98,512.5,518.02" svgx:width="0.5,0.5,0.5" style="fill:rgb(0,0,0);font-family:TimesNewRomanPSMT;font-size:11.04px;stroke:none;">156</text>
  </g>
  <g begin="text">
   <text y="775.296" x="523.42" svgx:width="0.25" style="fill:rgb(0,0,0);font-family:TimesNewRomanPSMT;font-size:9.96px;stroke:none;"> </text>
  </g>
  <g begin="text">
   <text y="790.056" x="72.024" svgx:width="0.25" style="fill:rgb(0,0,0);font-family:TimesNewRomanPSMT;font-size:12.0px;stroke:none;"> </text>
  </g>
  <g begin="text">
   <text y="803.88" x="72.024" svgx:width="0.25" style="fill:rgb(0,0,0);font-family:TimesNewRomanPSMT;font-size:12.0px;stroke:none;"> </text>
  </g>
  <g begin="text">
   <text y="409.37" x="497.98" svgx:width="0.25" style="fill:rgb(0,0,0);font-family:TimesNewRomanPS-BoldMT;font-size:9.96px;stroke:none;"> </text>
  </g>
  <g begin="text">
   <text y="409.37" x="48.0" svgx:width="0.5" style="fill:rgb(0,0,0);font-family:TimesNewRomanPSMT;font-size:12.0px;stroke:none;">1</text>
  </g>
  <g begin="text">
   <text y="409.37" x="54.0" svgx:width="0.25" style="fill:rgb(0,0,0);font-family:TimesNewRomanPSMT;font-size:12.0px;stroke:none;"> </text>
  </g>
  <g begin="text">
   <text y="430.01" x="75.024,81.129,83.898,88.918,94.456,98.878,103.3" svgx:width="0.61,0.28,0.5,0.56,0.44,0.44,0.25" style="fill:rgb(0,0,0);font-family:TimesNewRomanPS-BoldMT;font-size:9.96px;stroke:none;">Figure </text>
  </g>
  <g begin="text">
   <text y="430.01" x="105.86" svgx:width="0.5" style="fill:rgb(0,0,0);font-family:TimesNewRomanPS-BoldMT;font-size:9.96px;stroke:none;">4</text>
  </g>
  <g begin="text">
   <text y="430.01" x="110.9" svgx:width="0.25" style="fill:rgb(0,0,0);font-family:TimesNewRomanPS-BoldMT;font-size:9.96px;stroke:none;">.</text>
  </g>
  <g begin="text">
   <text y="430.01" x="113.42" svgx:width="0.5" style="fill:rgb(0,0,0);font-family:TimesNewRomanPS-BoldMT;font-size:9.96px;stroke:none;">6</text>
  </g>
  <g begin="text">
   <text y="430.01" x="118.46" svgx:width="0.25" style="fill:rgb(0,0,0);font-family:TimesNewRomanPS-BoldMT;font-size:9.96px;stroke:none;"> </text>
  </g>
  <g begin="text">
   <text y="430.01" x="120.98,128.769,134.306,138.131" svgx:width="0.78,0.56,0.39,0.33" style="fill:rgb(0,0,0);font-family:TimesNewRomanPS-BoldMT;font-size:9.96px;stroke:none;">Obst</text>
  </g>
  <g begin="text">
   <text y="430.01" x="141.5,146.53,150.952,153.721,158.143,162.018,164.508,167.884,172.914,175.314,183.701,186.469,189.806,192.575,197.485,202.515,205.861,208.63,213.65,219.188,221.678,225.044,228.391,233.421,238.959,241.449,246.986,252.006,257.544,261.966,264.735,268.072,270.582,275.611,281.149,286.647,289.157,297.543,301.866,306.896,310.74,316.278,320.7,325.123,328.997,331.487,334.854,339.883" svgx:width="0.5,0.44,0.28,0.44,0.39,0.25,0.33,0.5,0.25,0.83,0.28,0.33,0.28,0.5,0.5,0.33,0.28,0.5,0.56,0.25,0.33,0.33,0.5,0.56,0.25,0.56,0.5,0.56,0.44,0.28,0.33,0.25,0.5,0.56,0.56,0.25,0.83,0.44,0.5,0.39,0.56,0.44,0.44,0.39,0.25,0.33,0.5,0.25" style="fill:rgb(0,0,0);font-family:TimesNewRomanPS-BoldMT;font-size:9.96px;stroke:none;">acles to mitigation (top panel) and measures to </text>
  </g>
  <g begin="text">
   <text y="430.01" x="342.67,347.092,351.544,359.931,364.851,369.881,374.303,376.833,380.179,385.717,390.139,393.984,398.406,400.936,405.966,411.504,415.328,418.675,423.705,428.127,430.896,435.318,439.192,441.682,446.732,452.27,457.768" svgx:width="0.44,0.44,0.83,0.5,0.5,0.44,0.25,0.33,0.56,0.44,0.39,0.44,0.25,0.5,0.56,0.39,0.33,0.5,0.44,0.28,0.44,0.39,0.25,0.5,0.56,0.56,0.25" style="fill:rgb(0,0,0);font-family:TimesNewRomanPS-BoldMT;font-size:9.96px;stroke:none;">remove these obstacles and </text>
  </g>
  <g begin="text">
   <text y="430.01" x="460.42,464.842,470.38,475.41,480.948,483.716,488.139,490.629,494.503,500.011,502.78,506.116,509.463,511.973,514.742,520.28" svgx:width="0.44,0.56,0.5,0.56,0.28,0.44,0.25,0.39,0.56,0.28,0.33,0.33,0.25,0.28,0.56,0.25" style="fill:rgb(0,0,0);font-family:TimesNewRomanPS-BoldMT;font-size:9.96px;stroke:none;">enable shift in </text>
  </g>
  <g begin="text">
   <text y="430.01" x="48.0" svgx:width="0.5" style="fill:rgb(0,0,0);font-family:TimesNewRomanPSMT;font-size:12.0px;stroke:none;">2</text>
  </g>
  <g begin="text">
   <text y="430.01" x="54.0" svgx:width="0.25" style="fill:rgb(0,0,0);font-family:TimesNewRomanPSMT;font-size:12.0px;stroke:none;"> </text>
  </g>
  <g begin="text">
   <text y="442.63" x="219.53,225.068,229.49,234.52,238.942,241.711,246.751,252.288,260.665,265.087,270.625,273.971,276.481,282.019,287.029,290.375,295.913,303.104,308.124,313.154,316.999,319.509,322.855,325.624,330.644,337.835,342.168,346.59,349.12,354.657,359.667,365.205,369.627,372.396" svgx:width="0.56,0.44,0.5,0.44,0.28,0.5,0.56,0.83,0.44,0.56,0.33,0.25,0.56,0.5,0.33,0.56,0.72,0.5,0.5,0.39,0.25,0.33,0.28,0.5,0.72,0.44,0.44,0.25,0.56,0.5,0.56,0.44,0.28,0.33" style="fill:rgb(0,0,0);font-family:TimesNewRomanPS-BoldMT;font-size:9.96px;stroke:none;">development pathways (lower panel)</text>
  </g>
  <g begin="text">
   <text y="442.63" x="375.91" svgx:width="0.25" style="fill:rgb(0,0,0);font-family:TimesNewRomanPS-BoldItalicMT;font-size:9.96px;stroke:none;"> </text>
  </g>
  <g begin="text">
   <text y="442.63" x="48.0" svgx:width="0.5" style="fill:rgb(0,0,0);font-family:TimesNewRomanPSMT;font-size:12.0px;stroke:none;">3</text>
  </g>
  <g begin="text">
   <text y="442.63" x="54.0" svgx:width="0.25" style="fill:rgb(0,0,0);font-family:TimesNewRomanPSMT;font-size:12.0px;stroke:none;"> </text>
  </g>
  <g begin="text">
   <text y="465.31" x="297.65" svgx:width="0.25" style="fill:rgb(0,0,0);font-family:TimesNewRomanPSMT;font-size:9.96px;stroke:none;"> </text>
  </g>
  <g begin="text">
   <text y="465.31" x="48.0" svgx:width="0.5" style="fill:rgb(0,0,0);font-family:TimesNewRomanPSMT;font-size:12.0px;stroke:none;">4</text>
  </g>
  <g begin="text">
   <text y="465.31" x="54.0" svgx:width="0.25" style="fill:rgb(0,0,0);font-family:TimesNewRomanPSMT;font-size:12.0px;stroke:none;"> </text>
  </g>
  <g begin="text">
   <text y="488.95" x="72.024,79.94,83.053,87.955,93.475,102.119,110.642,116.162,121.682,124.795,127.909,133.307,137.017,141.918,146.842,152.362,155.354,158.467,163.987,167.1,170.214,175.734,180.636,183.76,189.158,192.161,196.456,201.391,206.911,211.205,215.434,218.547,224.067,229.587,232.7,237.602,243.023,248.543,254.063,258.964" svgx:width="0.72,0.25,0.44,0.5,0.78,0.78,0.5,0.5,0.25,0.28,0.5,0.33,0.44,0.44,0.5,0.25,0.28,0.5,0.25,0.28,0.5,0.44,0.25,0.5,0.28,0.39,0.44,0.5,0.39,0.39,0.28,0.5,0.5,0.25,0.44,0.5,0.5,0.5,0.44,0.25" style="fill:rgb(0,0,0);font-family:TimesNewRomanPSMT;font-size:11.04px;stroke:none;">A common thread in the discussion above </text>
  </g>
  <g begin="text">
   <text y="488.95" x="262.25,265.253,269.547,272.683,275.796,281.316,286.118,289.232" svgx:width="0.28,0.39,0.25,0.28,0.5,0.44,0.28,0.25" style="fill:rgb(0,0,0);font-family:TimesNewRomanPSMT;font-size:11.04px;stroke:none;">is that </text>
  </g>
  <g begin="text">
   <text y="488.95" x="292.37,295.483,300.882,305.784,308.908,314.306,319.826,324.121,327.256,332.059,336.961,340.085,344.887,349.182,352.317,355.43,360.95,364.064,368.866,373.768,378.692,383.494,386.607,391.509,395.13,400.032,403.046,407.948,413.468,416.592,425.115,428.228,431.231,434.234,439.754,444.656,447.67,450.783,456.303,461.823,464.936,469.838,473.459,478.361,481.485,484.599,490.118,493.232,498.134,501.258,504.261,509.163,512.894,518.293,523.194" svgx:width="0.28,0.5,0.44,0.25,0.5,0.5,0.39,0.28,0.44,0.44,0.28,0.44,0.39,0.25,0.28,0.5,0.25,0.44,0.44,0.44,0.44,0.28,0.44,0.33,0.44,0.28,0.44,0.5,0.25,0.78,0.28,0.28,0.28,0.5,0.44,0.28,0.28,0.5,0.5,0.25,0.44,0.33,0.44,0.25,0.28,0.5,0.25,0.44,0.25,0.28,0.44,0.33,0.5,0.44,0.25" style="fill:rgb(0,0,0);font-family:TimesNewRomanPSMT;font-size:11.04px;stroke:none;">the obstacles to accelerated mitigation are to a large </text>
  </g>
  <g begin="text">
   <text y="488.95" x="48.0" svgx:width="0.5" style="fill:rgb(0,0,0);font-family:TimesNewRomanPSMT;font-size:12.0px;stroke:none;">5</text>
  </g>
  <g begin="text">
   <text y="488.95" x="54.0" svgx:width="0.25" style="fill:rgb(0,0,0);font-family:TimesNewRomanPSMT;font-size:12.0px;stroke:none;"> </text>
  </g>
  <g begin="text">
   <text y="502.87" x="72.024,77.544,82.446,87.966,91.697,96.5,101.401,104.161,107.054,110.763,116.283,121.682,124.795,129.697,135.217,137.977,140.869,143.872,149.392,152.152,155.023,158.136,163.656,168.558,171.31799999999998,174.21,179.73,185.129,190.527,195.429" svgx:width="0.5,0.44,0.5,0.33,0.44,0.44,0.25,0.55,0.33,0.5,0.5,0.28,0.44,0.5,0.25,0.55,0.28,0.5,0.25,0.55,0.28,0.5,0.44,0.25,0.55,0.5,0.5,0.5,0.44,0.33" style="fill:rgb(0,0,0);font-family:TimesNewRomanPSMT;font-size:11.04px;stroke:none;">degree rooted in the under</text>
  </g>
  <g begin="text">
   <text y="502.87" x="199.25,202.363,207.762,210.875,216.395,221.915,224.67499999999998,227.546,231.741,234.854,238.453,243.973,248.875,251.889,257.409,261.118,265.921,269.034,271.794,274.664,278.374,283.176,288.078,291.202,296.601,300.31,305.212,309.429,312.18899999999996,315.06,320.58,324.289,327.049,329.92,334.214,339.734,344.669,347.672,352.574,355.588,358.701,363.603,367.93,370.69,373.45,376.321,384.236,388.531,391.291,394.183,399.085,401.84499999999997,404.616,408.326,413.227,417.555,422.954,426.067,429.18,431.819,434.579,437.449,440.563,444.272,449.174,454.594,458.889,462.62,468.019,471.729,480.251,483.365,488.885,494.405,497.16499999999996,500.035,503.038,508.558,514.078,518.273,523.075" svgx:width="0.28,0.5,0.28,0.5,0.5,0.25,0.55,0.39,0.28,0.33,0.5,0.44,0.28,0.5,0.33,0.44,0.28,0.25,0.55,0.33,0.44,0.44,0.28,0.5,0.33,0.44,0.39,0.25,0.55,0.5,0.33,0.25,0.55,0.39,0.5,0.44,0.28,0.44,0.28,0.28,0.44,0.39,0.25,0.25,0.55,0.72,0.39,0.25,0.55,0.44,0.25,0.55,0.33,0.44,0.39,0.5,0.28,0.28,0.25,0.25,0.55,0.28,0.33,0.44,0.5,0.39,0.33,0.5,0.33,0.78,0.28,0.5,0.5,0.25,0.55,0.28,0.5,0.5,0.39,0.44,0.25" style="fill:rgb(0,0,0);font-family:TimesNewRomanPSMT;font-size:11.04px;stroke:none;">lying structural features of societies. As a result, transforming those </text>
  </g>
  <g begin="text">
   <text y="502.87" x="48.0" svgx:width="0.5" style="fill:rgb(0,0,0);font-family:TimesNewRomanPSMT;font-size:12.0px;stroke:none;">6</text>
  </g>
  <g begin="text">
   <text y="502.87" x="54.0" svgx:width="0.25" style="fill:rgb(0,0,0);font-family:TimesNewRomanPSMT;font-size:12.0px;stroke:none;"> </text>
  </g>
  <g begin="text">
   <text y="516.67" x="72.024,77.544,83.064,88.584,93.486,97.107,100.22,105.74,108.743,114.263,119.783,122.543,125.171,129.366,132.479,136.189,141.709,146.511,149.624,155.023,158.732,163.634,167.962,170.72199999999998,173.349,178.151,183.053,188.573,191.333,193.861,199.381,204.283,207.408,212.928,215.688,218.194,221.307,226.827,229.587,232.214,235.924,240.726,249.36,254.88,260.278,265.18,267.94,270.589,273.703,279.223,284.621,288.916,293.851,296.611,299.238,304.758,310.157,314.352,317.465,322.367,327.18,330.294,335.196,339.523,342.283,345.043,347.549,352.451,357.971,363.491,366.251,368.901,372.014,377.413,382.932,387.227,389.98699999999997,392.637,396.236,401.137,406.061,409.064,412.177,415.18,418.294,423.096,426.209,431.111,433.871,436.399,439.512,445.032,449.934,452.694,455.344,460.246,465.059,469.961,474.774,477.888,482.789,486.411,491.312,494.326,497.439,502.959,508.479,511.239,513.867,519.266,522.975" svgx:width="0.5,0.5,0.5,0.44,0.33,0.28,0.5,0.28,0.5,0.5,0.25,0.55,0.39,0.28,0.33,0.5,0.44,0.28,0.5,0.33,0.44,0.39,0.25,0.55,0.44,0.44,0.5,0.25,0.55,0.5,0.44,0.28,0.5,0.25,0.55,0.28,0.5,0.25,0.55,0.33,0.44,0.78,0.5,0.5,0.44,0.25,0.55,0.28,0.5,0.5,0.39,0.44,0.25,0.55,0.5,0.5,0.39,0.28,0.44,0.44,0.28,0.44,0.39,0.25,0.25,0.55,0.44,0.5,0.5,0.25,0.55,0.28,0.5,0.5,0.39,0.25,0.55,0.33,0.44,0.44,0.28,0.28,0.28,0.28,0.44,0.28,0.44,0.25,0.55,0.28,0.5,0.44,0.25,0.55,0.44,0.44,0.44,0.44,0.28,0.44,0.33,0.44,0.28,0.28,0.5,0.5,0.25,0.55,0.5,0.33,0.25" style="fill:rgb(0,0,0);font-family:TimesNewRomanPSMT;font-size:11.04px;stroke:none;">underlying structures can help to remove those obstacles, and thus facilitate the acceleration of </text>
  </g>
  <g begin="text">
   <text y="516.67" x="48.0" svgx:width="0.5" style="fill:rgb(0,0,0);font-family:TimesNewRomanPSMT;font-size:12.0px;stroke:none;">7</text>
  </g>
  <g begin="text">
   <text y="516.67" x="54.0" svgx:width="0.25" style="fill:rgb(0,0,0);font-family:TimesNewRomanPSMT;font-size:12.0px;stroke:none;"> </text>
  </g>
  <g begin="text">
   <text y="530.59" x="72.024,80.657,83.66,86.773,89.887,95.285,100.187,103.201,106.314,111.834,117.354,120.114,122.87400000000001,124.42,131.165,136.542,139.655,143.95,146.70999999999998,148.167,151.876,156.679,165.312,170.114,173.824,179.344,182.10399999999998,183.65,186.652,190.848,193.608,195.153,200.055,203.179,206.182,208.94199999999998,210.488,213.601,219.0,223.901,226.661,228.229,236.862,242.261,245.97,250.872,253.632,255.078,258.081,266.714,272.234,277.754,281.353,284.467,289.368,294.789,297.902,300.662,302.208,305.211,310.609,315.511,318.636,321.396,322.941,327.744,332.645,337.569,342.372,345.485,350.387,354.008,358.909,361.923,366.825,372.345,375.105,376.551,385.185,388.188,391.301,394.414,399.813,404.714,407.728,410.842,416.362,421.882,424.642,426.187,431.586,436.488,439.612,445.132,453.048,457.949,463.37" svgx:width="0.78,0.28,0.28,0.28,0.5,0.44,0.28,0.28,0.5,0.5,0.25,0.25,0.55,0.61,0.5,0.28,0.39,0.25,0.55,0.33,0.44,0.78,0.44,0.33,0.5,0.25,0.55,0.28,0.39,0.25,0.55,0.44,0.28,0.28,0.25,0.55,0.28,0.5,0.44,0.25,0.55,0.78,0.5,0.33,0.44,0.25,0.55,0.28,0.78,0.5,0.5,0.33,0.28,0.44,0.5,0.28,0.25,0.55,0.28,0.5,0.44,0.28,0.25,0.55,0.44,0.44,0.44,0.44,0.28,0.44,0.33,0.44,0.28,0.44,0.5,0.25,0.55,0.78,0.28,0.28,0.28,0.5,0.44,0.28,0.28,0.5,0.5,0.25,0.55,0.5,0.44,0.28,0.5,0.72,0.44,0.5,0.39" style="fill:rgb(0,0,0);font-family:TimesNewRomanPSMT;font-size:11.04px;stroke:none;">mitigation. This remark is all the more important that accelerated mitigation pathways</text>
  </g>
  <g begin="text">
   <text y="530.59" x="468.1,470.86,473.62,475.166,483.081,488.601,491.604,494.717,499.619,502.379,503.947,509.345,514.247,517.979,523.377" svgx:width="0.25,0.25,0.55,0.72,0.5,0.28,0.28,0.44,0.25,0.55,0.5,0.44,0.33,0.5,0.25" style="fill:rgb(0,0,0);font-family:TimesNewRomanPSMT;font-size:11.04px;stroke:none;">, while very </text>
  </g>
  <g begin="text">
   <text y="530.59" x="48.0" svgx:width="0.5" style="fill:rgb(0,0,0);font-family:TimesNewRomanPSMT;font-size:12.0px;stroke:none;">8</text>
  </g>
  <g begin="text">
   <text y="530.59" x="54.0" svgx:width="0.25" style="fill:rgb(0,0,0);font-family:TimesNewRomanPSMT;font-size:12.0px;stroke:none;"> </text>
  </g>
  <g begin="text">
   <text y="544.51" x="72.024,77.544,80.657,84.256,87.966,92.868,96.489,101.39,106.91,109.924,112.68400000000001,113.755,118.657,123.47,127.18,132.7,136.895,141.19,143.95,145.043,149.944,155.464,160.885,166.405,169.408,173.117,176.231,181.033,185.328,188.088,190.84799999999998,191.819,196.721,199.845,202.848,205.608,206.679,210.973,216.493,221.318,225.027,229.929,232.689,233.661,236.774,242.172,245.882,250.784,255.597,258.357,259.428,264.33,269.85,274.663,278.373,283.274,288.088,291.201,296.004,299.713,302.716,307.011,310.035,313.038,317.94,322.268,325.381,328.14099999999996,329.091,333.385,338.905,343.73,348.631,354.151,356.911,357.993,363.392,367.101,369.861,370.932,373.935,382.568,387.967,391.08,395.883,404.516,409.418,414.838,417.951,422.754,425.867,428.98,434.379,439.899,442.659,445.419,446.49,452.01,455.719,460.522,465.423,470.943,473.957,479.477,482.23699999999997,483.308,488.707,492.416,495.176,496.247,501.149,505.962,509.076,512.078,517.599,522.997" svgx:width="0.5,0.28,0.33,0.33,0.44,0.33,0.44,0.5,0.28,0.25,0.55,0.44,0.44,0.33,0.5,0.39,0.39,0.25,0.55,0.44,0.5,0.5,0.5,0.28,0.33,0.28,0.44,0.39,0.25,0.25,0.55,0.44,0.28,0.28,0.25,0.55,0.39,0.5,0.44,0.33,0.44,0.25,0.55,0.28,0.5,0.33,0.44,0.44,0.25,0.55,0.44,0.5,0.44,0.33,0.44,0.44,0.28,0.44,0.33,0.28,0.39,0.28,0.28,0.44,0.39,0.28,0.25,0.55,0.39,0.5,0.44,0.44,0.5,0.25,0.55,0.5,0.33,0.25,0.55,0.28,0.78,0.5,0.28,0.44,0.78,0.44,0.5,0.28,0.44,0.28,0.28,0.5,0.5,0.25,0.25,0.55,0.5,0.33,0.44,0.44,0.5,0.28,0.5,0.25,0.55,0.5,0.33,0.25,0.55,0.44,0.44,0.28,0.28,0.5,0.5,0.25" style="fill:rgb(0,0,0);font-family:TimesNewRomanPSMT;font-size:11.04px;stroke:none;">different across countries, all share three characteristics: speed of implementation, breadth of action </text>
  </g>
  <g begin="text">
   <text y="544.51" x="48.0" svgx:width="0.5" style="fill:rgb(0,0,0);font-family:TimesNewRomanPSMT;font-size:12.0px;stroke:none;">9</text>
  </g>
  <g begin="text">
   <text y="544.51" x="54.0" svgx:width="0.25" style="fill:rgb(0,0,0);font-family:TimesNewRomanPSMT;font-size:12.0px;stroke:none;"> </text>
  </g>
  <g begin="text">
   <text y="558.43" x="72.024,76.926,81.85,85.559,90.958,95.252,99.591,102.815,107.617,110.73,113.844,117.067,121.262,126.164,131.088,134.091,139.611,143.32,147.615,150.872,156.27,159.98,163.203,166.317,171.715,176.617,179.863,184.765,189.578,195.098,200.618,206.138,214.771,220.291,223.051,226.165,231.066,236.586,242.106,245.352,250.872,255.774,261.194,264.308,269.828,273.051,278.45,282.159,285.383,290.285,298.819,301.932,306.127,310.322,313.436,318.956,324.476,327.699,331.409,336.211,341.731,347.251,352.054,355.167,358.28,363.8,369.32,372.434,377.335,382.259,387.658,390.771,395.673,401.093,404.207,409.727,415.247,418.47,426.993,432.392,436.101,441.003,444.249,449.051,457.684,463.204,466.207,469.321,472.323,477.843,483.363,487.658,490.915,493.918,498.819,502.551,507.95,512.851,515.976,520.171,522.931" svgx:width="0.44,0.44,0.33,0.5,0.39,0.39,0.25,0.44,0.28,0.28,0.25,0.39,0.44,0.44,0.28,0.5,0.33,0.39,0.25,0.5,0.33,0.25,0.28,0.5,0.44,0.25,0.44,0.44,0.5,0.5,0.5,0.78,0.5,0.25,0.25,0.44,0.5,0.5,0.25,0.5,0.44,0.5,0.28,0.5,0.25,0.5,0.33,0.25,0.44,0.78,0.28,0.39,0.39,0.28,0.5,0.5,0.25,0.33,0.44,0.5,0.5,0.44,0.28,0.28,0.5,0.5,0.25,0.44,0.44,0.5,0.28,0.44,0.5,0.28,0.5,0.5,0.25,0.78,0.5,0.33,0.44,0.25,0.44,0.78,0.5,0.28,0.28,0.28,0.5,0.5,0.39,0.25,0.28,0.44,0.33,0.5,0.44,0.28,0.39,0.25,0.25" style="fill:rgb(0,0,0);font-family:TimesNewRomanPSMT;font-size:11.04px;stroke:none;">across all sectors of the economy, and depth of emission reduction achieving more ambitious targets. </text>
  </g>
  <g begin="text">
   <text y="558.43" x="42.0,48.0" svgx:width="0.5,0.5" style="fill:rgb(0,0,0);font-family:TimesNewRomanPSMT;font-size:12.0px;stroke:none;">10</text>
  </g>
  <g begin="text">
   <text y="558.43" x="54.0" svgx:width="0.25" style="fill:rgb(0,0,0);font-family:TimesNewRomanPSMT;font-size:12.0px;stroke:none;"> </text>
  </g>
  <g begin="text">
   <text y="572.35" x="72.024,78.769,82.446,87.37,92.89,97.085,100.794,106.314,109.913,118.436,121.549,127.069,132.589" svgx:width="0.61,0.33,0.44,0.5,0.39,0.33,0.5,0.33,0.78,0.28,0.5,0.5,0.25" style="fill:rgb(0,0,0);font-family:TimesNewRomanPSMT;font-size:11.04px;stroke:none;">Transforming </text>
  </g>
  <g begin="text">
   <text y="572.35" x="135.02,138.133,143.653,149.173,153.368,158.27,160.809,166.329,171.728,177.248,182.15,185.771,188.884,194.283,197.396,202.916" svgx:width="0.28,0.5,0.5,0.39,0.44,0.25,0.5,0.5,0.5,0.44,0.33,0.28,0.5,0.28,0.5,0.5" style="fill:rgb(0,0,0);font-family:TimesNewRomanPSMT;font-size:11.04px;stroke:none;">those underlying</text>
  </g>
  <g begin="text">
   <text y="572.35" x="208.49" svgx:width="0.25" style="fill:rgb(0,0,0);font-family:TimesNewRomanPSMT;font-size:11.04px;stroke:none;"> </text>
  </g>
  <g begin="text">
   <text y="572.35" x="210.89,215.185,218.209,221.919,227.439,232.241,235.355,240.875" svgx:width="0.39,0.28,0.33,0.5,0.44,0.28,0.5,0.33" style="fill:rgb(0,0,0);font-family:TimesNewRomanPSMT;font-size:11.04px;stroke:none;">structur</text>
  </g>
  <g begin="text">
   <text y="572.35" x="244.61,249.412,253.707" svgx:width="0.44,0.39,0.25" style="fill:rgb(0,0,0);font-family:TimesNewRomanPSMT;font-size:11.04px;stroke:none;">es </text>
  </g>
  <g begin="text">
   <text y="572.35" x="256.25,261.052,269.686,275.206,280.604,286.124,289.237" svgx:width="0.44,0.78,0.5,0.5,0.5,0.28,0.39" style="fill:rgb(0,0,0);font-family:TimesNewRomanPSMT;font-size:11.04px;stroke:none;">amounts</text>
  </g>
  <g begin="text">
   <text y="572.35" x="293.45" svgx:width="0.25" style="fill:rgb(0,0,0);font-family:TimesNewRomanPSMT;font-size:11.04px;stroke:none;"> </text>
  </g>
  <g begin="text">
   <text y="572.35" x="295.97,299.083,304.482,306.999,311.293,316.714,319.827,323.427,326.54,329.653,335.173,340.572,343.089,347.991,350.408,354.703,360.223,365.047,368.161,372.963,376.076,381.596,385.306,389.501,392.018,397.538,402.44,407.86,412.762,415.886,421.285,426.805,435.328,440.23,445.75,448.874,451.391,456.79,461.691,464.816" svgx:width="0.28,0.5,0.25,0.39,0.5,0.28,0.33,0.28,0.28,0.5,0.5,0.25,0.44,0.25,0.39,0.5,0.44,0.28,0.44,0.28,0.5,0.33,0.39,0.25,0.5,0.44,0.5,0.44,0.28,0.5,0.5,0.78,0.44,0.5,0.28,0.25,0.5,0.44,0.28,0.5" style="fill:rgb(0,0,0);font-family:TimesNewRomanPSMT;font-size:11.04px;stroke:none;">to shifting a society’s development path</text>
  </g>
  <g begin="text">
   <text y="572.35" x="470.5,478.305,483.207" svgx:width="0.72,0.44,0.5" style="fill:rgb(0,0,0);font-family:TimesNewRomanPSMT;font-size:11.04px;stroke:none;">way</text>
  </g>
  <g begin="text">
   <text y="572.35" x="488.74" svgx:width="0.25" style="fill:rgb(0,0,0);font-family:TimesNewRomanPSMT;font-size:11.04px;stroke:none;"> </text>
  </g>
  <g begin="text">
   <text y="572.35" x="491.14,494.849,500.988,504.057,509.577,515.008,518.607,523.41" svgx:width="0.33,0.56,0.28,0.5,0.5,0.33,0.44,0.25" style="fill:rgb(0,0,0);font-family:TimesNewRomanPSMT;font-size:11.04px;stroke:none;">(Figure </text>
  </g>
  <g begin="text">
   <text y="572.35" x="42.0,48.0" svgx:width="0.5,0.5" style="fill:rgb(0,0,0);font-family:TimesNewRomanPSMT;font-size:12.0px;stroke:none;">11</text>
  </g>
  <g begin="text">
   <text y="572.35" x="54.0" svgx:width="0.25" style="fill:rgb(0,0,0);font-family:TimesNewRomanPSMT;font-size:12.0px;stroke:none;"> </text>
  </g>
  <g begin="text">
   <text y="586.27" x="72.024,77.544,80.304,85.824,89.533,92.293,94.579,98.178,103.698,105.983,109.096,114.616,119.518,121.814,125.524,130.922,134.036,137.039,142.559,150.474,153.588,159.108,164.628,166.913,173.051,177.831,182.733,185.747,188.86,194.259,199.779,204.073,206.381,211.901,214.186,219.088,224.608,230.128,232.424,237.944,240.704,242.989,250.905,255.807,258.103,263.005,266.737,272.257,277.655,282.557,284.853,287.966,293.486,298.289,301.402,303.687,306.69,309.804,312.089,315.092,319.386,321.694,324.807,330.327,335.847,340.142,342.449,347.969,352.771,357.673,362.597,366.792,371.087,376.022,379.621,385.141,387.426,390.539,396.059,398.344,402.054,406.856,411.758,416.682,420.877,423.99,426.276,431.177,435.991,440.893,445.816,448.93,453.732,457.442,462.244,465.357,470.259,475.779,477.954,486.587,489.59,492.703,495.817,501.215,506.117,509.131,512.244,517.764,523.163" svgx:width="0.5,0.25,0.5,0.33,0.25,0.25,0.33,0.5,0.25,0.28,0.5,0.44,0.25,0.33,0.5,0.28,0.28,0.5,0.72,0.28,0.5,0.5,0.25,0.56,0.44,0.44,0.28,0.28,0.5,0.5,0.39,0.25,0.5,0.25,0.44,0.5,0.5,0.25,0.5,0.25,0.25,0.72,0.44,0.25,0.44,0.33,0.5,0.5,0.44,0.25,0.28,0.5,0.44,0.28,0.25,0.28,0.28,0.25,0.28,0.39,0.25,0.28,0.5,0.5,0.39,0.25,0.5,0.44,0.44,0.44,0.39,0.39,0.44,0.33,0.5,0.25,0.28,0.5,0.25,0.33,0.44,0.44,0.44,0.39,0.28,0.25,0.44,0.44,0.44,0.44,0.28,0.44,0.33,0.44,0.28,0.44,0.5,0.25,0.78,0.28,0.28,0.28,0.5,0.44,0.28,0.28,0.5,0.5,0.25" style="fill:rgb(0,0,0);font-family:TimesNewRomanPSMT;font-size:11.04px;stroke:none;">4.6). In the following Sections 3 and 4, we argue that it is thus necessary to recast accelerated mitigation </text>
  </g>
  <g begin="text">
   <text y="586.27" x="42.0,48.0" svgx:width="0.5,0.5" style="fill:rgb(0,0,0);font-family:TimesNewRomanPSMT;font-size:12.0px;stroke:none;">12</text>
  </g>
  <g begin="text">
   <text y="586.27" x="54.0" svgx:width="0.25" style="fill:rgb(0,0,0);font-family:TimesNewRomanPSMT;font-size:12.0px;stroke:none;"> </text>
  </g>
  <g begin="text">
   <text y="600.19" x="72.024,75.137,80.657,83.417,85.692,88.805,94.325,99.227,101.98700000000001,104.272,109.792,113.501,118.9,123.802,129.322,134.135,137.844,140.60399999999998,142.989,147.891,153.312,158.832,161.945,166.747,172.267,175.381,178.141,180.415,185.935,189.644,192.404,194.678,198.973,204.493,207.628,211.227,214.23,217.344,222.864,228.384,231.14399999999998,233.528,238.927,243.828,249.348,254.162,257.275,262.795,268.194,276.827,281.729,287.149,290.263,293.02299999999997,295.407,300.806,305.708,308.832,314.231,322.146,327.048,332.568,336.896,339.656,342.416,344.8,349.603,355.123,360.643,363.40299999999996,365.677,368.79,374.31,379.113,382.226,384.986,387.371,392.891,398.289,401.402,406.922,412.321,415.081,417.466,421.76,427.28,430.03999999999996,432.336,437.856,443.376,448.278,453.798,458.015,460.775,463.16,468.68,474.2,476.96,479.234,484.136,489.656,495.176,498.19,501.303,504.306,509.826,515.346,520.027,523.03" svgx:width="0.28,0.5,0.25,0.55,0.28,0.5,0.44,0.25,0.55,0.5,0.33,0.5,0.44,0.5,0.44,0.33,0.25,0.55,0.44,0.5,0.5,0.28,0.44,0.5,0.28,0.25,0.55,0.5,0.33,0.25,0.55,0.39,0.5,0.28,0.33,0.28,0.28,0.5,0.5,0.25,0.55,0.5,0.44,0.5,0.44,0.28,0.5,0.5,0.78,0.44,0.5,0.28,0.25,0.55,0.5,0.44,0.28,0.5,0.72,0.44,0.5,0.39,0.25,0.25,0.55,0.44,0.5,0.5,0.25,0.55,0.28,0.5,0.44,0.28,0.25,0.55,0.5,0.5,0.28,0.5,0.5,0.25,0.55,0.39,0.5,0.25,0.55,0.5,0.5,0.44,0.5,0.39,0.25,0.55,0.5,0.5,0.25,0.55,0.44,0.5,0.5,0.28,0.28,0.28,0.5,0.5,0.44,0.28,0.25" style="fill:rgb(0,0,0);font-family:TimesNewRomanPSMT;font-size:11.04px;stroke:none;">in the broader context of shifting development pathways, and that doing so opens up additional </text>
  </g>
  <g begin="text">
   <text y="600.19" x="42.0,48.0" svgx:width="0.5,0.5" style="fill:rgb(0,0,0);font-family:TimesNewRomanPSMT;font-size:12.0px;stroke:none;">13</text>
  </g>
  <g begin="text">
   <text y="600.19" x="54.0" svgx:width="0.25" style="fill:rgb(0,0,0);font-family:TimesNewRomanPSMT;font-size:12.0px;stroke:none;"> </text>
  </g>
  <g begin="text">
   <text y="614.11" x="72.024,77.544,83.064,88.584,94.104,97.703,100.816,106.336,111.735,114.848,117.851,120.964,125.866,130.194,132.95399999999998,133.903,137.016,142.536,145.296,146.246,149.955,152.958,156.668,159.428,160.499,166.019,171.417,176.319,180.05,184.853,190.251,198.885,203.786,206.546,207.518,210.631,216.151,221.053,223.813,224.785,230.305,235.825,240.02,243.133,248.035,252.848,255.961,260.863" svgx:width="0.5,0.5,0.5,0.5,0.33,0.28,0.5,0.5,0.28,0.28,0.28,0.44,0.39,0.25,0.55,0.28,0.5,0.25,0.55,0.33,0.28,0.33,0.25,0.55,0.5,0.5,0.44,0.33,0.44,0.5,0.78,0.44,0.25,0.55,0.28,0.5,0.44,0.25,0.55,0.5,0.5,0.39,0.28,0.44,0.44,0.28,0.44,0.39" style="fill:rgb(0,0,0);font-family:TimesNewRomanPSMT;font-size:11.04px;stroke:none;">opportunities to (i) overcome the obstacles</text>
  </g>
  <g begin="text">
   <text y="614.11" x="265.25" svgx:width="0.25" style="fill:rgb(0,0,0);font-family:TimesNewRomanPSMT;font-size:11.04px;stroke:none;"> </text>
  </g>
  <g begin="text">
   <text y="614.11" x="269.09,274.61,280.13,283.133,286.246,289.249,294.769,299.671,305.191,307.95099999999996,308.922,313.824,319.344,324.864,330.384,335.308,338.068,340.828,341.777,346.679,352.199,357.719,360.479,361.451,366.352,369.477,373.672,379.192,381.952,383.023,386.622,389.735,392.738,396.447,399.207,400.278,405.18,410.601,419.234,424.633,427.635,433.155,438.057,440.817,441.899,446.702,449.815,452.818,461.451,466.253,469.367,474.268,477.02799999999996,478.0,486.633,489.636,492.749,495.752,501.272,506.174,509.188,512.301,517.821,523.22" svgx:width="0.5,0.5,0.28,0.28,0.28,0.5,0.44,0.5,0.25,0.55,0.44,0.5,0.5,0.5,0.44,0.25,0.25,0.55,0.44,0.5,0.5,0.25,0.55,0.44,0.28,0.39,0.5,0.25,0.55,0.33,0.28,0.28,0.33,0.25,0.55,0.44,0.5,0.78,0.5,0.28,0.5,0.44,0.25,0.55,0.44,0.28,0.28,0.78,0.44,0.28,0.44,0.25,0.55,0.78,0.28,0.28,0.28,0.5,0.44,0.28,0.28,0.5,0.5,0.25" style="fill:rgb(0,0,0);font-family:TimesNewRomanPSMT;font-size:11.04px;stroke:none;">outlined above, and also (ii) combine climate mitigation </text>
  </g>
  <g begin="text">
   <text y="614.11" x="42.0,48.0" svgx:width="0.5,0.5" style="fill:rgb(0,0,0);font-family:TimesNewRomanPSMT;font-size:12.0px;stroke:none;">14</text>
  </g>
  <g begin="text">
   <text y="614.11" x="54.0" svgx:width="0.25" style="fill:rgb(0,0,0);font-family:TimesNewRomanPSMT;font-size:12.0px;stroke:none;"> </text>
  </g>
  <g begin="text">
   <text y="628.06" x="72.024,79.94,83.053,86.166,91.686,94.446,99.845,102.958,108.478,113.281,116.99,119.75,125.27,130.172,135.592,140.494,143.618,149.017,154.537,163.06,167.962,173.482,176.606" svgx:width="0.72,0.28,0.28,0.5,0.25,0.5,0.28,0.5,0.44,0.33,0.25,0.5,0.44,0.5,0.44,0.28,0.5,0.5,0.78,0.44,0.5,0.28,0.25" style="fill:rgb(0,0,0);font-family:TimesNewRomanPSMT;font-size:11.04px;stroke:none;">with other development </text>
  </g>
  <g begin="text">
   <text y="628.06" x="179.3,184.82,190.34,193.343,198.245,203.168,206.171,209.285,214.805,219.706,223.924" svgx:width="0.5,0.5,0.28,0.44,0.44,0.28,0.28,0.5,0.44,0.39,0.25" style="fill:rgb(0,0,0);font-family:TimesNewRomanPSMT;font-size:11.04px;stroke:none;">objectives.</text>
  </g>
  <g begin="text">
   <text y="628.06" x="226.61" svgx:width="0.25" style="fill:rgb(0,0,0);font-family:TimesNewRomanPSMT;font-size:11.04px;stroke:none;"> </text>
  </g>
  <g begin="text">
   <text y="628.06" x="42.0,48.0" svgx:width="0.5,0.5" style="fill:rgb(0,0,0);font-family:TimesNewRomanPSMT;font-size:12.0px;stroke:none;">15</text>
  </g>
  <g begin="text">
   <text y="628.06" x="54.0" svgx:width="0.25" style="fill:rgb(0,0,0);font-family:TimesNewRomanPSMT;font-size:12.0px;stroke:none;"> </text>
  </g>
  <g begin="text">
   <text y="647.98" x="72.024" svgx:width="0.25" style="fill:rgb(0,0,0);font-family:TimesNewRomanPSMT;font-size:11.04px;stroke:none;"> </text>
  </g>
  <g begin="text">
   <text y="647.98" x="42.0,48.0" svgx:width="0.5,0.5" style="fill:rgb(0,0,0);font-family:TimesNewRomanPSMT;font-size:12.0px;stroke:none;">16</text>
  </g>
  <g begin="text">
   <text y="647.98" x="54.0" svgx:width="0.25" style="fill:rgb(0,0,0);font-family:TimesNewRomanPSMT;font-size:12.0px;stroke:none;"> </text>
  </g>
  <g begin="text">
   <text y="667.9" x="72.024" svgx:width="0.25" style="fill:rgb(0,0,0);font-family:TimesNewRomanPSMT;font-size:11.04px;stroke:none;"> </text>
  </g>
  <g begin="text">
   <text y="667.9" x="42.0,48.0" svgx:width="0.5,0.5" style="fill:rgb(0,0,0);font-family:TimesNewRomanPSMT;font-size:12.0px;stroke:none;">17</text>
  </g>
  <g begin="text">
   <text y="667.9" x="54.0" svgx:width="0.25" style="fill:rgb(0,0,0);font-family:TimesNewRomanPSMT;font-size:12.0px;stroke:none;"> </text>
  </g>
  <rect style="fill:pink;opacity:0.2;stroke:blue;stroke-width:0.3;" x="97.4" y="48.84" height="318.62" width="400.1" title="61"/>
  <text y="48.84" class="image" id="image.61.1" width="400" height="318" x="97.4" style="font-size:5.0px;">image.61.1.97_498.49_367</text>
  <g begin="text">
   <text y="602.109" transform="matrix(0.70711,-0.70711,0.70711,0.70711,-395.12956,250.29085)" rotateDegrees="-45" matrix="[29.803345,29.803345,-29.803345,29.803345,104.563255,239.8115]" x="104.563" svgx:width="0.67" style="fill:rgb(0,0,0);font-family:Arial;font-size:42.15px;stroke:none;">A</text>
   <text y="582.23" transform="matrix(0.70711,-0.70711,0.70711,0.70711,-375.25056,258.525)" rotateDegrees="-45" matrix="[29.803345,29.803345,-29.803345,29.803345,124.442085,259.6903]" x="124.442" svgx:width="0.72" style="fill:rgb(0,0,0);font-family:Arial;font-size:42.15px;stroke:none;">C</text>
   <text y="560.712" transform="matrix(0.70711,-0.70711,0.70711,0.70711,-353.73256,267.43805)" rotateDegrees="-45" matrix="[29.803345,29.803345,-29.803345,29.803345,145.9601,281.20834]" x="145.96" svgx:width="0.72" style="fill:rgb(0,0,0);font-family:Arial;font-size:42.15px;stroke:none;">C</text>
   <text y="539.194" transform="matrix(0.70711,-0.70711,0.70711,0.70711,-332.21456,276.3511)" rotateDegrees="-45" matrix="[29.803345,29.803345,-29.803345,29.803345,167.47812,302.72635]" x="167.478" svgx:width="0.67" style="fill:rgb(0,0,0);font-family:Arial;font-size:42.15px;stroke:none;">E</text>
   <text y="519.315" transform="matrix(0.70711,-0.70711,0.70711,0.70711,-312.33556,284.58525)" rotateDegrees="-45" matrix="[29.803345,29.803345,-29.803345,29.803345,187.35693,322.60516]" x="187.357" svgx:width="0.67" style="fill:rgb(0,0,0);font-family:Arial;font-size:42.15px;stroke:none;">P</text>
   <text y="499.436" transform="matrix(0.70711,-0.70711,0.70711,0.70711,-292.45656,292.8194)" rotateDegrees="-45" matrix="[29.803345,29.803345,-29.803345,29.803345,207.23578,342.484]" x="207.236" svgx:width="0.61" style="fill:rgb(0,0,0);font-family:Arial;font-size:42.15px;stroke:none;">T</text>
   <text y="481.226" transform="matrix(0.70711,-0.70711,0.70711,0.70711,-274.24656,300.36223)" rotateDegrees="-45" matrix="[29.803345,29.803345,-29.803345,29.803345,225.44562,360.69385]" x="225.446" svgx:width="0.67" style="fill:rgb(0,0,0);font-family:Arial;font-size:42.15px;stroke:none;">E</text>
   <text y="461.347" transform="matrix(0.70711,-0.70711,0.70711,0.70711,-254.36786,308.59567)" rotateDegrees="-45" matrix="[29.803345,29.803345,-29.803345,29.803345,245.32443,380.57266]" x="245.324" svgx:width="0.72" style="fill:rgb(0,0,0);font-family:Arial;font-size:42.15px;stroke:none;">D</text>
   <text y="439.829" transform="matrix(0.70711,-0.70711,0.70711,0.70711,-232.84986,317.50872)" rotateDegrees="-45" matrix="[29.803345,29.803345,-29.803345,29.803345,266.84247,402.0907]" x="266.842" svgx:width="0.28" style="fill:rgb(0,0,0);font-family:Arial;font-size:42.15px;stroke:none;"> </text>
   <text y="431.54" transform="matrix(0.70711,-0.70711,0.70711,0.70711,-224.56056,320.94284)" rotateDegrees="-45" matrix="[29.803345,29.803345,-29.803345,29.803345,275.13153,410.37976]" x="275.132" svgx:width="0.67" style="fill:rgb(0,0,0);font-family:Arial;font-size:42.15px;stroke:none;">V</text>
   <text y="411.661" transform="matrix(0.70711,-0.70711,0.70711,0.70711,-204.68186,329.17629)" rotateDegrees="-45" matrix="[29.803345,29.803345,-29.803345,29.803345,295.0103,430.25858]" x="295.01" svgx:width="0.67" style="fill:rgb(0,0,0);font-family:Arial;font-size:42.15px;stroke:none;">E</text>
   <text y="391.783" transform="matrix(0.70711,-0.70711,0.70711,0.70711,-184.80356,337.41073)" rotateDegrees="-45" matrix="[29.803345,29.803345,-29.803345,29.803345,314.88916,450.1374]" x="314.889" svgx:width="0.72" style="fill:rgb(0,0,0);font-family:Arial;font-size:42.15px;stroke:none;">R</text>
   <text y="370.265" transform="matrix(0.70711,-0.70711,0.70711,0.70711,-163.28556,346.32378)" rotateDegrees="-45" matrix="[29.803345,29.803345,-29.803345,29.803345,336.40717,471.65543]" x="336.407" svgx:width="0.67" style="fill:rgb(0,0,0);font-family:Arial;font-size:42.15px;stroke:none;">S</text>
   <text y="350.386" transform="matrix(0.70711,-0.70711,0.70711,0.70711,-143.40656,354.55793)" rotateDegrees="-45" matrix="[29.803345,29.803345,-29.803345,29.803345,356.286,491.53424]" x="356.286" svgx:width="0.28" style="fill:rgb(0,0,0);font-family:Arial;font-size:42.15px;stroke:none;">I</text>
   <text y="342.1" transform="matrix(0.70711,-0.70711,0.70711,0.70711,-135.12086,357.9894)" rotateDegrees="-45" matrix="[29.803345,29.803345,-29.803345,29.803345,364.57135,499.81958]" x="364.571" svgx:width="0.78" style="fill:rgb(0,0,0);font-family:Arial;font-size:42.15px;stroke:none;">O</text>
   <text y="318.913" transform="matrix(0.70711,-0.70711,0.70711,0.70711,-111.93386,367.59377)" rotateDegrees="-45" matrix="[29.803345,29.803345,-29.803345,29.803345,387.7583,523.0066]" x="387.758" svgx:width="0.72" style="fill:rgb(0,0,0);font-family:Arial;font-size:42.15px;stroke:none;">N</text>
   <text y="297.395" transform="matrix(0.70711,-0.70711,0.70711,0.70711,-90.41586,376.50681)" rotateDegrees="-45" matrix="[29.803345,29.803345,-29.803345,29.803345,409.27637,544.5246]" x="409.276" svgx:width="0.28" style="fill:rgb(0,0,0);font-family:Arial;font-size:42.15px;stroke:none;"> </text>
   <text y="637.872" transform="matrix(0.70711,-0.70711,0.70711,0.70711,-409.94279,286.05456)" rotateDegrees="-45" matrix="[29.803345,29.803345,-29.803345,29.803345,140.32727,204.04747]" x="140.327" svgx:width="0.67" style="fill:rgb(0,0,0);font-family:Arial;font-size:42.15px;stroke:none;">S</text>
   <text y="617.994" transform="matrix(0.70711,-0.70711,0.70711,0.70711,-390.0645,294.289)" rotateDegrees="-45" matrix="[29.803345,29.803345,-29.803345,29.803345,160.2061,223.9263]" x="160.206" svgx:width="0.72" style="fill:rgb(0,0,0);font-family:Arial;font-size:42.15px;stroke:none;">U</text>
   <text y="596.476" transform="matrix(0.70711,-0.70711,0.70711,0.70711,-368.5465,303.20205)" rotateDegrees="-45" matrix="[29.803345,29.803345,-29.803345,29.803345,181.72412,245.4443]" x="181.724" svgx:width="0.67" style="fill:rgb(0,0,0);font-family:Arial;font-size:42.15px;stroke:none;">B</text>
   <text y="576.597" transform="matrix(0.70711,-0.70711,0.70711,0.70711,-348.6675,311.4362)" rotateDegrees="-45" matrix="[29.803345,29.803345,-29.803345,29.803345,201.60294,265.32315]" x="201.603" svgx:width="0.5" style="fill:rgb(0,0,0);font-family:Arial;font-size:42.15px;stroke:none;">J</text>
   <text y="561.695" transform="matrix(0.70711,-0.70711,0.70711,0.70711,-333.7655,317.60881)" rotateDegrees="-45" matrix="[29.803345,29.803345,-29.803345,29.803345,216.50462,280.22482]" x="216.505" svgx:width="0.67" style="fill:rgb(0,0,0);font-family:Arial;font-size:42.15px;stroke:none;">E</text>
   <text y="541.816" transform="matrix(0.70711,-0.70711,0.70711,0.70711,-313.88679,325.84225)" rotateDegrees="-45" matrix="[29.803345,29.803345,-29.803345,29.803345,236.38344,300.10364]" x="236.383" svgx:width="0.72" style="fill:rgb(0,0,0);font-family:Arial;font-size:42.15px;stroke:none;">C</text>
   <text y="520.298" transform="matrix(0.70711,-0.70711,0.70711,0.70711,-292.36879,334.7553)" rotateDegrees="-45" matrix="[29.803345,29.803345,-29.803345,29.803345,257.90146,321.62164]" x="257.901" svgx:width="0.61" style="fill:rgb(0,0,0);font-family:Arial;font-size:42.15px;stroke:none;">T</text>
   <text y="502.089" transform="matrix(0.70711,-0.70711,0.70711,0.70711,-274.1595,342.29842)" rotateDegrees="-45" matrix="[29.803345,29.803345,-29.803345,29.803345,276.1113,339.83148]" x="276.111" svgx:width="0.28" style="fill:rgb(0,0,0);font-family:Arial;font-size:42.15px;stroke:none;"> </text>
   <text y="493.803" transform="matrix(0.70711,-0.70711,0.70711,0.70711,-265.8735,345.7306)" rotateDegrees="-45" matrix="[29.803345,29.803345,-29.803345,29.803345,284.39664,348.11682]" x="284.397" svgx:width="0.61" style="fill:rgb(0,0,0);font-family:Arial;font-size:42.15px;stroke:none;">T</text>
   <text y="475.593" transform="matrix(0.70711,-0.70711,0.70711,0.70711,-247.66379,353.27272)" rotateDegrees="-45" matrix="[29.803345,29.803345,-29.803345,29.803345,302.60648,366.32666]" x="302.606" svgx:width="0.78" style="fill:rgb(0,0,0);font-family:Arial;font-size:42.15px;stroke:none;">O</text>
   <text y="452.406" transform="matrix(0.70711,-0.70711,0.70711,0.70711,-224.47679,362.87709)" rotateDegrees="-45" matrix="[29.803345,29.803345,-29.803345,29.803345,325.79346,389.51367]" x="325.793" svgx:width="0.28" style="fill:rgb(0,0,0);font-family:Arial;font-size:42.15px;stroke:none;"> </text>
   <text y="444.136" transform="matrix(0.70711,-0.70711,0.70711,0.70711,-216.2065,366.30334)" rotateDegrees="-45" matrix="[29.803345,29.803345,-29.803345,29.803345,334.0639,397.78412]" x="334.064" svgx:width="0.61" style="fill:rgb(0,0,0);font-family:Arial;font-size:42.15px;stroke:none;">F</text>
   <text y="425.926" transform="matrix(0.70711,-0.70711,0.70711,0.70711,-197.9965,373.84617)" rotateDegrees="-45" matrix="[29.803345,29.803345,-29.803345,29.803345,352.27374,415.99396]" x="352.274" svgx:width="0.28" style="fill:rgb(0,0,0);font-family:Arial;font-size:42.15px;stroke:none;">I</text>
   <text y="417.641" transform="matrix(0.70711,-0.70711,0.70711,0.70711,-189.7115,377.27793)" rotateDegrees="-45" matrix="[29.803345,29.803345,-29.803345,29.803345,360.55908,424.2793]" x="360.559" svgx:width="0.72" style="fill:rgb(0,0,0);font-family:Arial;font-size:42.15px;stroke:none;">N</text>
   <text y="396.123" transform="matrix(0.70711,-0.70711,0.70711,0.70711,-168.1935,386.19098)" rotateDegrees="-45" matrix="[29.803345,29.803345,-29.803345,29.803345,382.0771,445.7973]" x="382.077" svgx:width="0.67" style="fill:rgb(0,0,0);font-family:Arial;font-size:42.15px;stroke:none;">A</text>
   <text y="376.244" transform="matrix(0.70711,-0.70711,0.70711,0.70711,-148.3145,394.42513)" rotateDegrees="-45" matrix="[29.803345,29.803345,-29.803345,29.803345,401.95593,465.67615]" x="401.956" svgx:width="0.56" style="fill:rgb(0,0,0);font-family:Arial;font-size:42.15px;stroke:none;">L</text>
   <text y="359.673" transform="matrix(0.70711,-0.70711,0.70711,0.70711,-131.7435,401.28906)" rotateDegrees="-45" matrix="[29.803345,29.803345,-29.803345,29.803345,418.5266,482.24677]" x="418.527" svgx:width="0.28" style="fill:rgb(0,0,0);font-family:Arial;font-size:42.15px;stroke:none;"> </text>
   <text y="351.394" transform="matrix(0.70711,-0.70711,0.70711,0.70711,-123.4645,404.71834)" rotateDegrees="-45" matrix="[29.803345,29.803345,-29.803345,29.803345,426.80573,490.52588]" x="426.806" svgx:width="0.67" style="fill:rgb(0,0,0);font-family:Arial;font-size:42.15px;stroke:none;">E</text>
   <text y="331.515" transform="matrix(0.70711,-0.70711,0.70711,0.70711,-103.5855,412.95249)" rotateDegrees="-45" matrix="[29.803345,29.803345,-29.803345,29.803345,446.68457,510.40472]" x="446.685" svgx:width="0.72" style="fill:rgb(0,0,0);font-family:Arial;font-size:42.15px;stroke:none;">D</text>
   <text y="309.997" transform="matrix(0.70711,-0.70711,0.70711,0.70711,-82.0675,421.86554)" rotateDegrees="-45" matrix="[29.803345,29.803345,-29.803345,29.803345,468.2025,531.9227]" x="468.203" svgx:width="0.28" style="fill:rgb(0,0,0);font-family:Arial;font-size:42.15px;stroke:none;">I</text>
   <text y="301.712" transform="matrix(0.70711,-0.70711,0.70711,0.70711,-73.7825,425.29729)" rotateDegrees="-45" matrix="[29.803345,29.803345,-29.803345,29.803345,476.48785,540.20807]" x="476.488" svgx:width="0.61" style="fill:rgb(0,0,0);font-family:Arial;font-size:42.15px;stroke:none;">T</text>
   <text y="283.502" transform="matrix(0.70711,-0.70711,0.70711,0.70711,-55.5725,432.84012)" rotateDegrees="-45" matrix="[29.803345,29.803345,-29.803345,29.803345,494.6977,558.4179]" x="494.698" svgx:width="0.67" style="fill:rgb(0,0,0);font-family:Arial;font-size:42.15px;stroke:none;">S</text>
  </g>
 </g>
</svg>
