<?xml version="1.0" encoding="UTF-8"?>
<svg height="812.92" width="536.18" xmlns="http://www.w3.org/2000/svg">
 <g id="page" xmlns:svgx="http://www.xml-cml.org/schema/svgx">
  <g begin="text">
   <text y="45.72" x="72.024,78.162,81.231,86.751,91.587,94.7,97.46,105.376,110.896,116.416,121.218,124.928,130.448,138.971,143.872,149.392,152.517,155.277,163.082,166.195,170.39,173.504,177.103,180.216,185.736,191.135,194.137,197.251,202.771" svgx:width="0.56,0.28,0.5,0.44,0.28,0.25,0.72,0.5,0.5,0.44,0.33,0.5,0.78,0.44,0.5,0.28,0.25,0.72,0.28,0.39,0.28,0.33,0.28,0.5,0.5,0.28,0.28,0.5,0.5" style="fill:rgb(0,0,0);font-family:TimesNewRomanPSMT;font-size:11.04px;stroke:none;">Final Government Distribution</text>
  </g>
  <g begin="text">
   <text y="45.72" x="208.37" svgx:width="0.25" style="fill:rgb(0,0,0);font-family:TimesNewRomanPSMT;font-size:11.04px;stroke:none;"> </text>
  </g>
  <g begin="text">
   <text y="45.72" x="211.01" svgx:width="0.25" style="fill:rgb(0,0,0);font-family:TimesNewRomanPSMT;font-size:11.04px;stroke:none;"> </text>
  </g>
  <g begin="text">
   <text y="45.72" x="276.17,283.49,289.009,293.911,299.431,302.556,307.358,311.067,313.827" svgx:width="0.67,0.5,0.44,0.5,0.28,0.44,0.33,0.25,0.5" style="fill:rgb(0,0,0);font-family:TimesNewRomanPSMT;font-size:11.04px;stroke:none;">Chapter 4</text>
  </g>
  <g begin="text">
   <text y="45.72" x="319.27" svgx:width="0.25" style="fill:rgb(0,0,0);font-family:TimesNewRomanPSMT;font-size:11.04px;stroke:none;"> </text>
  </g>
  <g begin="text">
   <text y="45.72" x="443.38,446.979,453.117,460.415,467.734" svgx:width="0.33,0.56,0.67,0.67,0.25" style="fill:rgb(0,0,0);font-family:TimesNewRomanPSMT;font-size:11.04px;stroke:none;">IPCC </text>
  </g>
  <g begin="text">
   <text y="45.72" x="470.5,480.922,488.893,492.569,496.179,499.778,502.538,510.454,517.773" svgx:width="0.94,0.72,0.33,0.33,0.33,0.25,0.72,0.67,0.5" style="fill:rgb(0,0,0);font-family:TimesNewRomanPSMT;font-size:11.04px;stroke:none;">WGIII AR6</text>
  </g>
  <g begin="text">
   <text y="45.72" x="523.42" svgx:width="0.25" style="fill:rgb(0,0,0);font-family:TimesNewRomanPSMT;font-size:11.04px;stroke:none;"> </text>
  </g>
  <g begin="text">
   <text y="802.92" x="72.024,79.94,85.46,88.22,96.135,101.655,105.365,108.125,116.04,119.154,122.753,127.655,130.415,133.075,141.708,147.847,153.367,157.043,161.868,164.628,170.148,175.049,177.809,185.78,188.75,192.945,196.655,201.556,204.681,210.819,216.803,220.512" svgx:width="0.72,0.5,0.25,0.72,0.5,0.33,0.25,0.72,0.28,0.33,0.44,0.25,0.25,0.78,0.56,0.5,0.33,0.44,0.25,0.5,0.44,0.25,0.72,0.28,0.39,0.33,0.44,0.28,0.56,0.56,0.33,0.44" style="fill:rgb(0,0,0);font-family:TimesNewRomanPS-BoldMT;font-size:11.04px;stroke:none;">Do Not Cite, Quote or Distribute</text>
  </g>
  <g begin="text">
   <text y="802.92" x="225.41" svgx:width="0.25" style="fill:rgb(0,0,0);font-family:TimesNewRomanPS-BoldMT;font-size:11.04px;stroke:none;"> </text>
  </g>
  <g begin="text">
   <text y="802.92" x="290.33" svgx:width="0.5" style="fill:rgb(0,0,0);font-family:TimesNewRomanPSMT;font-size:11.04px;stroke:none;">4</text>
  </g>
  <g begin="text">
   <text y="802.92" x="295.85" svgx:width="0.33" style="fill:rgb(0,0,0);font-family:TimesNewRomanPSMT;font-size:11.04px;stroke:none;">-</text>
  </g>
  <g begin="text">
   <text y="802.92" x="299.45" svgx:width="0.5" style="fill:rgb(0,0,0);font-family:TimesNewRomanPSMT;font-size:11.04px;stroke:none;">1</text>
  </g>
  <g begin="text">
   <text y="802.92" x="304.97" svgx:width="0.25" style="fill:rgb(0,0,0);font-family:TimesNewRomanPSMT;font-size:11.04px;stroke:none;"> </text>
  </g>
  <g begin="text">
   <text y="802.92" x="307.73" svgx:width="0.25" style="fill:rgb(0,0,0);font-family:TimesNewRomanPSMT;font-size:11.04px;stroke:none;"> </text>
  </g>
  <g begin="text">
   <text y="802.92" x="450.1,456.845,462.365,465.435,470.259,473.372,476.132,481.652,486.554,491.975,496.876,501.204,504.207" svgx:width="0.61,0.5,0.28,0.44,0.28,0.25,0.5,0.44,0.5,0.44,0.39,0.28,0.25" style="fill:rgb(0,0,0);font-family:TimesNewRomanPSMT;font-size:11.04px;stroke:none;">Total pages: </text>
  </g>
  <g begin="text">
   <text y="802.92" x="506.98,512.5,518.02" svgx:width="0.5,0.5,0.5" style="fill:rgb(0,0,0);font-family:TimesNewRomanPSMT;font-size:11.04px;stroke:none;">156</text>
  </g>
  <g begin="text">
   <text y="802.92" x="523.42" svgx:width="0.25" style="fill:rgb(0,0,0);font-family:TimesNewRomanPSMT;font-size:9.96px;stroke:none;"> </text>
  </g>
  <g begin="text">
   <text y="99.02" x="91.464,102.987,111.861,119.889,128.763,134.077,141.163,148.25,152.176,160.204" svgx:width="0.72,0.56,0.5,0.56,0.33,0.44,0.44,0.25,0.5,0.33" style="fill:rgb(0,0,0);font-family:TimesNewRomanPS-BoldMT;font-size:15.96px;stroke:none;">Chapter 4:</text>
  </g>
  <g begin="text">
   <text y="99.02" x="165.62" svgx:width="0.28" style="fill:rgb(0,0,0);font-family:Arial-BoldMT;font-size:15.96px;stroke:none;"> </text>
  </g>
  <g begin="text">
   <text y="99.02" x="199.49,214.588,219.025,224.34,228.777,236.757,244.816,250.131,254.568,262.548,271.422,275.412,283.44,292.313,301.187,305.177,314.051,321.217,329.245,336.331,340.768,348.796,357.67,370.964,378.05,386.924,392.239,396.229,405.103,413.083,418.397,427.383,439.002,447.029,455.057,461.266,465.256,469.693,478.566,482.556,487.823,496.697,503.783" svgx:width="0.94,0.28,0.33,0.28,0.5,0.5,0.33,0.28,0.5,0.56,0.25,0.5,0.56,0.56,0.25,0.56,0.44,0.5,0.44,0.28,0.5,0.56,0.83,0.44,0.56,0.33,0.25,0.56,0.5,0.33,0.56,0.72,0.5,0.5,0.39,0.25,0.28,0.56,0.25,0.33,0.56,0.44,0.25" style="fill:rgb(0,0,0);font-family:TimesNewRomanPS-BoldMT;font-size:15.96px;stroke:none;">Mitigation and development pathways in the </text>
  </g>
  <g begin="text">
   <text y="99.02" x="48.0" svgx:width="0.5" style="fill:rgb(0,0,0);font-family:TimesNewRomanPSMT;font-size:12.0px;stroke:none;">1</text>
  </g>
  <g begin="text">
   <text y="99.02" x="54.0" svgx:width="0.25" style="fill:rgb(0,0,0);font-family:TimesNewRomanPSMT;font-size:12.0px;stroke:none;"> </text>
  </g>
  <g begin="text">
   <text y="119.3" x="245.33,254.204,261.29,269.318" svgx:width="0.56,0.44,0.5,0.44" style="fill:rgb(0,0,0);font-family:TimesNewRomanPS-BoldMT;font-size:15.96px;stroke:none;">near</text>
  </g>
  <g begin="text">
   <text y="119.3" x="276.41" svgx:width="0.33" style="fill:rgb(0,0,0);font-family:TimesNewRomanPS-BoldMT;font-size:15.96px;stroke:none;">-</text>
  </g>
  <g begin="text">
   <text y="119.3" x="281.69" svgx:width="0.25" style="fill:rgb(0,0,0);font-family:TimesNewRomanPS-BoldMT;font-size:15.96px;stroke:none;"> </text>
  </g>
  <g begin="text">
   <text y="119.3" x="285.65,290.965,298.945,302.935,316.229,320.794" svgx:width="0.33,0.5,0.25,0.83,0.28,0.56" style="fill:rgb(0,0,0);font-family:TimesNewRomanPS-BoldMT;font-size:15.96px;stroke:none;">to mid</text>
  </g>
  <g begin="text">
   <text y="119.3" x="329.71" svgx:width="0.33" style="fill:rgb(0,0,0);font-family:TimesNewRomanPS-BoldMT;font-size:15.96px;stroke:none;">-</text>
  </g>
  <g begin="text">
   <text y="119.3" x="334.99,340.368,347.455,354.541" svgx:width="0.33,0.44,0.44,0.83" style="fill:rgb(0,0,0);font-family:TimesNewRomanPS-BoldMT;font-size:15.96px;stroke:none;">term</text>
  </g>
  <g begin="text">
   <text y="119.3" x="367.99" svgx:width="0.25" style="fill:rgb(0,0,0);font-family:TimesNewRomanPS-BoldMT;font-size:15.96px;stroke:none;"> </text>
  </g>
  <g begin="text">
   <text y="119.3" x="48.0" svgx:width="0.5" style="fill:rgb(0,0,0);font-family:TimesNewRomanPSMT;font-size:12.0px;stroke:none;">2</text>
  </g>
  <g begin="text">
   <text y="119.3" x="54.0" svgx:width="0.25" style="fill:rgb(0,0,0);font-family:TimesNewRomanPSMT;font-size:12.0px;stroke:none;"> </text>
  </g>
  <g begin="text">
   <text y="140.78" x="72.024" svgx:width="0.25" style="fill:rgb(0,0,0);font-family:TimesNewRomanPSMT;font-size:11.04px;stroke:none;"> </text>
  </g>
  <g begin="text">
   <text y="140.78" x="48.0" svgx:width="0.5" style="fill:rgb(0,0,0);font-family:TimesNewRomanPSMT;font-size:12.0px;stroke:none;">3</text>
  </g>
  <g begin="text">
   <text y="140.78" x="54.0" svgx:width="0.25" style="fill:rgb(0,0,0);font-family:TimesNewRomanPSMT;font-size:12.0px;stroke:none;"> </text>
  </g>
  <g begin="text">
   <text y="160.7" x="72.024,79.94,85.46,90.98,95.881,102.02,105.133,111.271,116.648,120.357,123.47,129.609,135.129,137.889,145.076,149.977,155.497,161.636,164.396,172.311,178.45,182.126,188.264,193.674,198.576" svgx:width="0.72,0.5,0.5,0.44,0.56,0.28,0.56,0.5,0.33,0.28,0.56,0.5,0.25,0.67,0.44,0.5,0.56,0.25,0.72,0.56,0.33,0.56,0.5,0.44,0.39" style="fill:rgb(0,0,0);font-family:TimesNewRomanPS-BoldMT;font-size:11.04px;stroke:none;">Coordinating Lead Authors</text>
  </g>
  <g begin="text">
   <text y="160.7" x="202.97,206.083,208.843,214.838,218.547,223.449,228.87,233.772,239.292,242.052,248.797,253.699,258.512,264.032,268.934,274.454,277.115,280.824,286.962,290.639,295.463,300.983,305.885,310.698,314.297,317.057,319.817,327.733,332.635,336.366,341.169,344.282,349.802,352.562,362.884,365.998,371.518,376.916,380.03,384.931,388.552,391.312" svgx:width="0.28,0.25,0.56,0.33,0.44,0.5,0.44,0.5,0.25,0.61,0.44,0.44,0.5,0.44,0.5,0.25,0.33,0.56,0.33,0.44,0.5,0.44,0.44,0.33,0.25,0.25,0.72,0.44,0.33,0.44,0.28,0.5,0.25,0.94,0.28,0.5,0.5,0.28,0.44,0.33,0.25,0.33" style="fill:rgb(0,0,0);font-family:TimesNewRomanPSMT;font-size:11.04px;stroke:none;">: Franck Lecocq (France), Harald Winkler (</text>
  </g>
  <g begin="text">
   <text y="160.7" x="395.11,402.429,407.331,412.752,418.272,423.792,426.795,429.908,434.71,437.47,442.99,446.7" svgx:width="0.67,0.44,0.5,0.5,0.5,0.28,0.28,0.44,0.25,0.5,0.33,0.25" style="fill:rgb(0,0,0);font-family:TimesNewRomanPSMT;font-size:11.04px;stroke:none;">Republic of </text>
  </g>
  <g begin="text">
   <text y="160.7" x="449.5,455.638,461.158,466.535,469.648,475.168,477.928,485.844,489.443,493.152,496.265,501.068,505.97" svgx:width="0.56,0.5,0.5,0.28,0.5,0.25,0.72,0.33,0.33,0.28,0.44,0.44,0.33" style="fill:rgb(0,0,0);font-family:TimesNewRomanPSMT;font-size:11.04px;stroke:none;">South Africa)</text>
  </g>
  <g begin="text">
   <text y="160.7" x="509.62" svgx:width="0.25" style="fill:rgb(0,0,0);font-family:TimesNewRomanPSMT;font-size:11.04px;stroke:none;"> </text>
  </g>
  <g begin="text">
   <text y="160.7" x="48.0" svgx:width="0.5" style="fill:rgb(0,0,0);font-family:TimesNewRomanPSMT;font-size:12.0px;stroke:none;">4</text>
  </g>
  <g begin="text">
   <text y="160.7" x="54.0" svgx:width="0.25" style="fill:rgb(0,0,0);font-family:TimesNewRomanPSMT;font-size:12.0px;stroke:none;"> </text>
  </g>
  <g begin="text">
   <text y="180.62" x="72.024,79.343,84.245,89.765,95.903,98.66300000000001,99.856,107.772,113.91,117.586,123.724,129.244,134.146" svgx:width="0.67,0.44,0.5,0.56,0.25,0.55,0.72,0.56,0.33,0.56,0.5,0.44,0.39" style="fill:rgb(0,0,0);font-family:TimesNewRomanPS-BoldMT;font-size:11.04px;stroke:none;">Lead Authors</text>
  </g>
  <g begin="text">
   <text y="180.62" x="138.38,141.493,144.253,145.446,149.74,155.26,158.285,161.398,166.918,171.213,173.97299999999998,175.187,181.326,186.106,189.815,192.818,197.113,202.633,208.153,210.91299999999998,212.127,220.043,224.945,230.465" svgx:width="0.28,0.25,0.55,0.39,0.5,0.28,0.28,0.5,0.39,0.25,0.55,0.56,0.44,0.33,0.28,0.39,0.5,0.5,0.25,0.55,0.72,0.44,0.5,0.44" style="fill:rgb(0,0,0);font-family:TimesNewRomanPSMT;font-size:11.04px;stroke:none;">: Julius Partson Daka</text>
  </g>
  <g begin="text">
   <text y="180.62" x="235.49" svgx:width="0.25" style="fill:rgb(0,0,0);font-family:TimesNewRomanPSMT;font-size:11.04px;stroke:none;"> </text>
  </g>
  <g begin="text">
   <text y="180.62" x="239.45,243.159,249.905,254.674,263.307,268.706,271.819,276.622,280.331,283.091,285.851,287.043,293.182,298.702,303.603,306.363,307.556,313.694,319.214,321.974,323.144,326.854,334.173,339.693,342.806,348.326,353.129,356.838,359.598,362.358,363.551,367.845,372.67,381.303,386.105,390.4,393.15999999999997,394.374,402.29,407.192,410.923,416.443,421.246,424.955,427.715,428.908,432.617,435.62,441.14,446.042,448.80199999999996,450.005,457.921,463.441,466.554,469.667,474.47,479.99,482.75,483.942,490.08,493.149,497.985,501.098,506.0,510.327,513.087,514.28,519.557,523.156" svgx:width="0.33,0.61,0.44,0.78,0.5,0.28,0.44,0.33,0.25,0.25,0.55,0.56,0.5,0.44,0.25,0.55,0.56,0.5,0.25,0.55,0.33,0.67,0.5,0.28,0.5,0.44,0.33,0.25,0.25,0.55,0.39,0.44,0.78,0.44,0.39,0.25,0.55,0.72,0.44,0.33,0.5,0.44,0.33,0.25,0.55,0.33,0.28,0.5,0.44,0.25,0.55,0.72,0.5,0.28,0.28,0.44,0.5,0.25,0.55,0.56,0.28,0.44,0.28,0.44,0.39,0.25,0.55,0.5,0.33,0.25" style="fill:rgb(0,0,0);font-family:TimesNewRomanPSMT;font-size:11.04px;stroke:none;">(Zambia), Sha Fu (China), James Gerber (the United States of </text>
  </g>
  <g begin="text">
   <text y="180.62" x="48.0" svgx:width="0.5" style="fill:rgb(0,0,0);font-family:TimesNewRomanPSMT;font-size:12.0px;stroke:none;">5</text>
  </g>
  <g begin="text">
   <text y="180.62" x="54.0" svgx:width="0.25" style="fill:rgb(0,0,0);font-family:TimesNewRomanPSMT;font-size:12.0px;stroke:none;"> </text>
  </g>
  <g begin="text">
   <text y="194.54" x="72.024,79.94,88.573,93.475,97.096,100.209,105.111,109.924,113.634,116.394,118.558,124.552,127.666,133.186,137.988,143.508,145.672,153.588,158.39,162.099,165.213,170.611,175.513,177.566,181.276,184.389,189.788,194.59,196.754,204.67,210.19,213.303,216.306,221.208,226.728,228.902,234.897,238.01,242.813,245.926,250.828,255.045,257.209,262.608,266.317,268.481,276.286,284.919,289.821,293.442,296.556,301.457,306.271,309.98,312.74,314.783,322.698,328.218,331.332,336.852,341.753,345.374,347.538,355.454,359.164,363.966,369.486,371.528,375.238,383.153,388.673,392.968,395.993,399.702,402.705,407.607,411.339,413.977,416.141,424.057,428.959,434.379,438.674,440.86,447.605,453.125,456.702,462.222,465.931,470.734,476.254,478.418,482.127,488.265,496.049,500.95,506.47,511.394,516.793,520.502,523.141" svgx:width="0.72,0.78,0.44,0.33,0.28,0.44,0.44,0.33,0.25,0.25,0.56,0.28,0.5,0.44,0.5,0.25,0.72,0.44,0.33,0.28,0.5,0.44,0.25,0.33,0.28,0.5,0.44,0.25,0.72,0.5,0.28,0.28,0.44,0.5,0.25,0.56,0.28,0.44,0.28,0.44,0.39,0.25,0.5,0.33,0.25,0.72,0.78,0.44,0.33,0.28,0.44,0.44,0.33,0.25,0.25,0.72,0.5,0.28,0.5,0.44,0.33,0.25,0.72,0.33,0.44,0.5,0.25,0.33,0.72,0.5,0.39,0.28,0.33,0.28,0.44,0.33,0.25,0.25,0.72,0.44,0.5,0.39,0.25,0.61,0.5,0.33,0.5,0.33,0.44,0.5,0.25,0.33,0.56,0.72,0.44,0.5,0.44,0.5,0.33,0.25,0.25" style="fill:rgb(0,0,0);font-family:TimesNewRomanPSMT;font-size:11.04px;stroke:none;">America), Sivan Kartha (the United States of America), Volker Krey (Austria), Hans Lofgren (Sweden), </text>
  </g>
  <g begin="text">
   <text y="194.54" x="48.0" svgx:width="0.5" style="fill:rgb(0,0,0);font-family:TimesNewRomanPSMT;font-size:12.0px;stroke:none;">6</text>
  </g>
  <g begin="text">
   <text y="194.54" x="54.0" svgx:width="0.25" style="fill:rgb(0,0,0);font-family:TimesNewRomanPSMT;font-size:12.0px;stroke:none;"> </text>
  </g>
  <g begin="text">
   <text y="208.46" x="72.024,78.769,84.289,88.584,94.104,97.217,102.616,105.729,111.249,116.648,119.408,121.196,131.011,135.835,140.13,145.65,148.675,151.435,153.223,156.822,161.117,166.052,171.572,176.374,181.894,185.604,188.242,191.00199999999998,192.669,199.989,203.102,206.215,211.735,214.495,216.162,225.977,230.801,233.915,239.435,244.833,248.543,251.303,252.97,256.679,260.278,265.798,271.318,274.431,279.234,282.943,285.703,288.46299999999997,290.252,294.447,299.967,304.869,310.389,315.202,317.962,319.751,325.889,331.409,334.986,338.099,343.619,349.139,353.941,357.055,359.815,361.603,367.598,372.5,376.231,381.034,384.147,387.746,392.648,395.408,397.097,400.806,408.126,411.835,416.737,421.551,424.553,427.667,431.376,434.015,436.775,438.563,445.883,450.785,456.305,459.318,464.22,472.754,475.867,481.387,484.147,485.936,493.741,498.643,504.163,509.683" svgx:width="0.61,0.5,0.39,0.5,0.28,0.5,0.28,0.5,0.5,0.25,0.55,0.89,0.44,0.39,0.5,0.28,0.25,0.55,0.33,0.39,0.44,0.5,0.44,0.5,0.33,0.25,0.25,0.55,0.67,0.28,0.28,0.5,0.25,0.55,0.89,0.44,0.28,0.5,0.5,0.33,0.25,0.55,0.33,0.33,0.5,0.5,0.28,0.44,0.33,0.25,0.25,0.55,0.39,0.5,0.44,0.5,0.44,0.25,0.55,0.56,0.5,0.33,0.28,0.5,0.5,0.44,0.28,0.25,0.55,0.56,0.44,0.33,0.44,0.28,0.33,0.44,0.25,0.55,0.33,0.67,0.33,0.44,0.44,0.28,0.28,0.33,0.25,0.25,0.55,0.67,0.44,0.5,0.28,0.44,0.78,0.28,0.5,0.25,0.55,0.72,0.44,0.5,0.5,0.44" style="fill:rgb(0,0,0);font-family:TimesNewRomanPSMT;font-size:11.04px;stroke:none;">Toshihiko Masui (Japan), Ritu Mathur (India), Joana Portugal Pereira (Brazil), Benjamin Kenne</text>
  </g>
  <g begin="text">
   <text y="208.46" x="514.9,518.013,523.412" svgx:width="0.28,0.5,0.25" style="fill:rgb(0,0,0);font-family:TimesNewRomanPSMT;font-size:11.04px;stroke:none;">th </text>
  </g>
  <g begin="text">
   <text y="208.46" x="48.0" svgx:width="0.5" style="fill:rgb(0,0,0);font-family:TimesNewRomanPSMT;font-size:12.0px;stroke:none;">7</text>
  </g>
  <g begin="text">
   <text y="208.46" x="54.0" svgx:width="0.25" style="fill:rgb(0,0,0);font-family:TimesNewRomanPSMT;font-size:12.0px;stroke:none;"> </text>
  </g>
  <g begin="text">
   <text y="222.38" x="72.024,78.162,83.682,89.202,94.104,99.006,104.526,109.946,113.06,115.82,119.529,127.445,132.247,137.767,146.29,151.192,154.923,160.322,164.031,166.791,169.551,179.266,184.168,187.789,190.792,195.694,198.454,206.425,209.494,213.226,218.624,221.737,227.136,230.249,235.151,237.911,245.882,248.852,251.965,256.767,260.477,263.59,269.11,274.509,277.269,280.978,288.894,292.603,298.002,302.904,308.424,311.437,314.551,320.071,324.973,328.594,331.354,334.114,342.029,346.931,352.451,355.211,361.957,367.477,372.997,378.384,381.144,384.743,387.856,393.376,398.278,401.038,409.009,414.374,417.488,420.601,425.403,430.923,433.562,439.7,442.769,447.715,450.718,455.62,459.948,462.708,468.106,471.816,474.576,482.491,491.014,495.916,499.537,502.65,507.552,512.366" svgx:width="0.56,0.5,0.5,0.44,0.44,0.5,0.5,0.28,0.25,0.33,0.72,0.44,0.5,0.78,0.44,0.33,0.5,0.33,0.25,0.25,0.89,0.44,0.33,0.28,0.44,0.25,0.72,0.28,0.33,0.5,0.28,0.5,0.28,0.44,0.25,0.72,0.28,0.28,0.44,0.33,0.28,0.5,0.5,0.25,0.33,0.72,0.33,0.5,0.44,0.5,0.28,0.28,0.5,0.44,0.33,0.25,0.25,0.72,0.44,0.5,0.25,0.61,0.5,0.5,0.5,0.25,0.33,0.28,0.5,0.44,0.25,0.72,0.5,0.28,0.28,0.44,0.5,0.25,0.56,0.28,0.44,0.28,0.44,0.39,0.25,0.5,0.33,0.25,0.72,0.78,0.44,0.33,0.28,0.44,0.44,0.33" style="fill:rgb(0,0,0);font-family:TimesNewRomanPSMT;font-size:11.04px;stroke:none;">Sovacool (Denmark), Maria Virginia Vilariño (Argentina), Nan Zhou (the United States of America)</text>
  </g>
  <g begin="text">
   <text y="222.38" x="516.22" svgx:width="0.25" style="fill:rgb(0,0,0);font-family:TimesNewRomanPSMT;font-size:11.04px;stroke:none;"> </text>
  </g>
  <g begin="text">
   <text y="222.38" x="48.0" svgx:width="0.5" style="fill:rgb(0,0,0);font-family:TimesNewRomanPSMT;font-size:12.0px;stroke:none;">8</text>
  </g>
  <g begin="text">
   <text y="222.38" x="54.0" svgx:width="0.25" style="fill:rgb(0,0,0);font-family:TimesNewRomanPSMT;font-size:12.0px;stroke:none;"> </text>
  </g>
  <g begin="text">
   <text y="242.3" x="72.024,79.94,85.46,91.598,95.274,100.209,103.322,109.461,115.444,119.154,122.267,128.405,133.925,136.895,144.811,150.949,154.526,160.664,166.184,171.086" svgx:width="0.72,0.5,0.56,0.33,0.44,0.28,0.56,0.56,0.33,0.28,0.56,0.5,0.25,0.72,0.56,0.33,0.56,0.5,0.44,0.39" style="fill:rgb(0,0,0);font-family:TimesNewRomanPS-BoldMT;font-size:11.04px;stroke:none;">Contributing Authors</text>
  </g>
  <g begin="text">
   <text y="242.3" x="175.34,178.453,181.445,191.16,194.163,199.065,204.585,209.509,212.622,215.614,221.134,225.936,231.456,234.448,241.194,244.263,249.087,253.989,259.509,262.512,266.221,269.224,274.744,279.646,282.649,290.564,295.466,298.591,303.989,308.891,312.512,315.515,320.417,325.937,331.457,335.784,339.383,342.143,345.135,352.455,357.357,362.877,368.397,373.32,378.84,381.832,389.748,392.751,397.652,406.186,409.3,414.82,417.933,420.803,424.513,429.415,435.431,443.347,448.249,451.373,454.486,459.885,462.998,466.708,469.468,472.46,480.375,485.895,490.698,493.811,496.803,504.718,509.62,514.434,517.547,523.067" svgx:width="0.28,0.25,0.89,0.28,0.44,0.5,0.44,0.28,0.25,0.5,0.44,0.5,0.25,0.61,0.28,0.44,0.44,0.5,0.25,0.33,0.28,0.5,0.44,0.25,0.72,0.44,0.28,0.5,0.44,0.33,0.28,0.44,0.5,0.5,0.39,0.33,0.25,0.25,0.67,0.44,0.5,0.5,0.44,0.5,0.25,0.72,0.28,0.44,0.78,0.28,0.5,0.28,0.25,0.33,0.44,0.56,0.72,0.44,0.28,0.28,0.5,0.28,0.33,0.25,0.25,0.72,0.5,0.44,0.28,0.25,0.72,0.44,0.44,0.28,0.5,0.25" style="fill:rgb(0,0,0);font-family:TimesNewRomanPSMT;font-size:11.04px;stroke:none;">: Michel den Elzen (the Netherlands), Reuben Dlamini (eSwatini), Noel Healy </text>
  </g>
  <g begin="text">
   <text y="242.3" x="48.0" svgx:width="0.5" style="fill:rgb(0,0,0);font-family:TimesNewRomanPSMT;font-size:12.0px;stroke:none;">9</text>
  </g>
  <g begin="text">
   <text y="242.3" x="54.0" svgx:width="0.25" style="fill:rgb(0,0,0);font-family:TimesNewRomanPSMT;font-size:12.0px;stroke:none;"> </text>
  </g>
  <g begin="text">
   <text y="256.22" x="72.024,75.733,78.847,84.367,89.169,92.514,100.43,105.95,108.953,112.066,116.968,122.488,125.855,131.85,134.963,139.765,142.879,147.781,152.108,155.453,160.852,164.561,167.906,175.712,184.345,189.247,192.868,195.981,200.883,205.696,209.406,212.166,215.511,223.427,226.54,231.938,235.052,239.954,244.171,247.516,255.432,260.952,266.472,271.992,276.893,280.139,283.849,291.764,296.666,300.287,308.92,313.723,319.243,324.763,328.472,331.232,334.577,342.493,348.013,353.533" svgx:width="0.33,0.28,0.5,0.44,0.25,0.72,0.5,0.28,0.28,0.44,0.5,0.25,0.56,0.28,0.44,0.28,0.44,0.39,0.25,0.5,0.33,0.25,0.72,0.78,0.44,0.33,0.28,0.44,0.44,0.33,0.25,0.25,0.72,0.28,0.5,0.28,0.44,0.39,0.25,0.72,0.5,0.5,0.5,0.44,0.25,0.33,0.72,0.44,0.33,0.78,0.44,0.5,0.5,0.33,0.25,0.25,0.72,0.5,0.5,0.44" style="fill:rgb(0,0,0);font-family:TimesNewRomanPSMT;font-size:11.04px;stroke:none;">(the United States of America), Niklas Höhne (Germany), Ange</text>
  </g>
  <g begin="text">
   <text y="256.22" x="358.63,361.743,365.088,373.004,377.299,382.819,386.075,389.785,395.923,398.904,404.424,409.944,414.846,420.366,425.786,429.496,434.298,438.008,440.768,444.113,452.028,455.142,460.662,465.464,468.809,476.725,482.245,487.147,492.667,498.187,503.0,506.345,509.944,513.057,518.456,523.258" svgx:width="0.28,0.25,0.72,0.39,0.5,0.25,0.33,0.56,0.28,0.5,0.5,0.44,0.5,0.5,0.33,0.44,0.33,0.25,0.25,0.72,0.28,0.5,0.44,0.25,0.72,0.5,0.44,0.5,0.5,0.44,0.25,0.33,0.28,0.5,0.44,0.25" style="fill:rgb(0,0,0);font-family:TimesNewRomanPSMT;font-size:11.04px;stroke:none;">l Hsu (Singapore), Nina Khanna (the </text>
  </g>
  <g begin="text">
   <text y="256.22" x="42.0,48.0" svgx:width="0.5,0.5" style="fill:rgb(0,0,0);font-family:TimesNewRomanPSMT;font-size:12.0px;stroke:none;">10</text>
  </g>
  <g begin="text">
   <text y="256.22" x="54.0" svgx:width="0.25" style="fill:rgb(0,0,0);font-family:TimesNewRomanPSMT;font-size:12.0px;stroke:none;"> </text>
  </g>
  <g begin="text">
   <text y="270.17" x="72.024,79.94,85.46,88.573,91.686,96.588,102.009,104.769,107.043,113.181,116.162,121.064,124.078,128.979,133.307,136.06699999999998,138.341,143.74,147.449,150.209,152.484,160.289,168.922,173.725,177.434,180.547,185.35,190.251,193.872,196.632,199.392,201.667,208.986,212.099,216.902,220.015,223.725,228.527,231.28699999999998,233.561,240.307,245.208,250.596,255.498,261.018,264.032,267.145,269.905,272.058,275.767,281.905,285.482,290.384,295.904,300.828,305.63,309.34,311.978,314.738,317.013,323.151,328.671,332.347,337.768,340.52799999999996,342.802,350.122,355.642,361.162,366.682,371.484,374.24399999999997,376.518,380.117,383.231,388.751,393.652,396.412,398.698,406.613,412.012,415.015,418.128,423.03,428.55,431.31,433.474,439.612,442.681,447.627,450.63,455.532,459.859,462.61899999999997,464.772,470.292,474.002,476.762,479.036,486.841,495.474,500.277,503.986,506.989,511.891,516.815,520.414,523.052" svgx:width="0.72,0.5,0.28,0.28,0.44,0.5,0.25,0.55,0.56,0.28,0.44,0.28,0.44,0.39,0.25,0.55,0.5,0.33,0.25,0.55,0.72,0.78,0.44,0.33,0.28,0.44,0.44,0.33,0.25,0.25,0.55,0.67,0.28,0.44,0.28,0.33,0.44,0.25,0.55,0.61,0.44,0.5,0.44,0.5,0.28,0.28,0.25,0.55,0.33,0.56,0.33,0.44,0.5,0.44,0.44,0.33,0.25,0.25,0.55,0.56,0.5,0.33,0.5,0.25,0.55,0.67,0.5,0.5,0.5,0.44,0.25,0.55,0.33,0.28,0.5,0.44,0.25,0.55,0.72,0.5,0.28,0.28,0.44,0.5,0.25,0.55,0.56,0.28,0.44,0.28,0.44,0.39,0.25,0.55,0.5,0.33,0.25,0.55,0.72,0.78,0.44,0.33,0.28,0.44,0.44,0.33,0.25,0.25" style="fill:rgb(0,0,0);font-family:TimesNewRomanPSMT;font-size:11.04px;stroke:none;">United States of America), Claire Lepault (France), Ford Runge (the United States of America), </text>
  </g>
  <g begin="text">
   <text y="270.17" x="42.0,48.0" svgx:width="0.5,0.5" style="fill:rgb(0,0,0);font-family:TimesNewRomanPSMT;font-size:12.0px;stroke:none;">11</text>
  </g>
  <g begin="text">
   <text y="270.17" x="54.0" svgx:width="0.25" style="fill:rgb(0,0,0);font-family:TimesNewRomanPSMT;font-size:12.0px;stroke:none;"> </text>
  </g>
  <g begin="text">
   <text y="284.09" x="72.024,79.94,83.053,91.686,96.588,102.009,106.91,109.924,114.219,119.739,122.499,128.637,133.539,138.96,144.48,147.593,153.113,158.511,167.145,172.046,174.707" svgx:width="0.72,0.28,0.78,0.44,0.5,0.44,0.28,0.39,0.5,0.25,0.56,0.44,0.5,0.5,0.28,0.5,0.5,0.78,0.44,0.25,0.33" style="fill:rgb(0,0,0);font-family:TimesNewRomanPSMT;font-size:11.04px;stroke:none;">Dimakatso Sebothoma (</text>
  </g>
  <g begin="text">
   <text y="284.09" x="178.46,185.779,190.582,196.102,201.622,207.142,210.145,213.258,218.16,220.92,226.34,230.05" svgx:width="0.67,0.44,0.5,0.5,0.5,0.28,0.28,0.44,0.25,0.5,0.33,0.25" style="fill:rgb(0,0,0);font-family:TimesNewRomanPSMT;font-size:11.04px;stroke:none;">Republic of </text>
  </g>
  <g begin="text">
   <text y="284.09" x="232.85,238.988,244.508,249.885,252.998,258.518,261.278,269.194,272.793,276.502,279.615,284.418" svgx:width="0.56,0.5,0.5,0.28,0.5,0.25,0.72,0.33,0.33,0.28,0.44,0.44" style="fill:rgb(0,0,0);font-family:TimesNewRomanPSMT;font-size:11.04px;stroke:none;">South Africa</text>
  </g>
  <g begin="text">
   <text y="284.09" x="289.37" svgx:width="0.33" style="fill:rgb(0,0,0);font-family:TimesNewRomanPSMT;font-size:11.04px;stroke:none;">)</text>
  </g>
  <g begin="text">
   <text y="284.09" x="292.97" svgx:width="0.25" style="fill:rgb(0,0,0);font-family:TimesNewRomanPSMT;font-size:11.04px;stroke:none;"> </text>
  </g>
  <g begin="text">
   <text y="284.09" x="42.0,48.0" svgx:width="0.5,0.5" style="fill:rgb(0,0,0);font-family:TimesNewRomanPSMT;font-size:12.0px;stroke:none;">12</text>
  </g>
  <g begin="text">
   <text y="284.09" x="54.0" svgx:width="0.25" style="fill:rgb(0,0,0);font-family:TimesNewRomanPSMT;font-size:12.0px;stroke:none;"> </text>
  </g>
  <g begin="text">
   <text y="304.01" x="72.024,79.94,84.841,90.361,93.486,98.288,106.314,109.074,116.394,122.532,125.513,129.222,134.742,139.545" svgx:width="0.72,0.44,0.5,0.28,0.44,0.72,0.25,0.67,0.56,0.28,0.33,0.5,0.44,0.39" style="fill:rgb(0,0,0);font-family:TimesNewRomanPS-BoldMT;font-size:11.04px;stroke:none;">Review Editors</text>
  </g>
  <g begin="text">
   <text y="304.01" x="143.9,147.013,149.652,159.466,164.291,168.0,172.902,175.916,181.436,184.196,192.112,197.632,206.265" svgx:width="0.28,0.25,0.89,0.44,0.33,0.44,0.28,0.5,0.25,0.72,0.5,0.78,0.44" style="fill:rgb(0,0,0);font-family:TimesNewRomanPSMT;font-size:11.04px;stroke:none;">: Marzio Dome</text>
  </g>
  <g begin="text">
   <text y="304.01" x="211.25,216.649,219.762,224.664,230.184,232.944,240.76,245.662,248.786,253.588,259.108,262.111,265.225,268.338,270.976,274.686,278.285,281.398,286.201,289.314,294.834,298.543,301.303,304.063,311.869,314.872,320.392,325.293,329.025,332.028,337.548,340.308,346.446,351.348,356.746,361.648,366.572,371.474,374.134,377.844,385.759,389.469,394.989,399.791,405.311,408.314,411.427,416.947,421.75" svgx:width="0.5,0.28,0.44,0.5,0.25,0.72,0.44,0.28,0.44,0.5,0.28,0.28,0.28,0.25,0.33,0.33,0.28,0.44,0.28,0.5,0.33,0.25,0.25,0.72,0.28,0.5,0.44,0.33,0.28,0.5,0.25,0.56,0.44,0.5,0.44,0.44,0.44,0.25,0.33,0.72,0.33,0.5,0.44,0.5,0.28,0.28,0.5,0.44,0.33" style="fill:rgb(0,0,0);font-family:TimesNewRomanPSMT;font-size:11.04px;stroke:none;">nico Galeotti (Italy), Alberto Pedace (Argentina)</text>
  </g>
  <g begin="text">
   <text y="304.01" x="425.47" svgx:width="0.25" style="fill:rgb(0,0,0);font-family:TimesNewRomanPSMT;font-size:11.04px;stroke:none;"> </text>
  </g>
  <g begin="text">
   <text y="304.01" x="42.0,48.0" svgx:width="0.5,0.5" style="fill:rgb(0,0,0);font-family:TimesNewRomanPSMT;font-size:12.0px;stroke:none;">13</text>
  </g>
  <g begin="text">
   <text y="304.01" x="54.0" svgx:width="0.25" style="fill:rgb(0,0,0);font-family:TimesNewRomanPSMT;font-size:12.0px;stroke:none;"> </text>
  </g>
  <g begin="text">
   <text y="323.93" x="72.024,79.94,86.078,91.598,97.703,101.412,106.314,111.238,113.998,120.136,124.917,128.03,132.932,138.949,142.658,145.661,149.955" svgx:width="0.72,0.56,0.5,0.56,0.33,0.44,0.44,0.25,0.56,0.44,0.28,0.44,0.56,0.33,0.28,0.39,0.33" style="fill:rgb(0,0,0);font-family:TimesNewRomanPS-BoldMT;font-size:11.04px;stroke:none;">Chapter Scientist</text>
  </g>
  <g begin="text">
   <text y="323.93" x="153.62,156.733,159.493,167.409,172.311,175.325,180.226,185.04,193.563,196.323,204.238,209.758,217.674,222.576,226.307,229.067,238.783,241.896,245.605,248.244,251.953,258.092,262.993,268.392,271.505,275.7,278.814,283.715,289.136" svgx:width="0.28,0.25,0.72,0.44,0.28,0.44,0.44,0.78,0.25,0.72,0.5,0.72,0.44,0.33,0.25,0.89,0.28,0.33,0.25,0.33,0.56,0.44,0.5,0.28,0.39,0.28,0.44,0.5,0.33" style="fill:rgb(0,0,0);font-family:TimesNewRomanPSMT;font-size:11.04px;stroke:none;">: Kaleem Anwar Mir (Pakistan)</text>
  </g>
  <g begin="text">
   <text y="323.93" x="292.85" svgx:width="0.25" style="fill:rgb(0,0,0);font-family:TimesNewRomanPSMT;font-size:11.04px;stroke:none;"> </text>
  </g>
  <g begin="text">
   <text y="323.93" x="42.0,48.0" svgx:width="0.5,0.5" style="fill:rgb(0,0,0);font-family:TimesNewRomanPSMT;font-size:12.0px;stroke:none;">14</text>
  </g>
  <g begin="text">
   <text y="323.93" x="54.0" svgx:width="0.25" style="fill:rgb(0,0,0);font-family:TimesNewRomanPSMT;font-size:12.0px;stroke:none;"> </text>
  </g>
  <g begin="text">
   <text y="343.85" x="72.024,79.94,85.46,89.169,94.071,96.831,102.351,105.972,108.732,116.648,121.549,127.069,130.691" svgx:width="0.72,0.5,0.33,0.44,0.25,0.5,0.33,0.25,0.72,0.44,0.5,0.33,0.33" style="fill:rgb(0,0,0);font-family:TimesNewRomanPS-BoldMT;font-size:11.04px;stroke:none;">Date of Draft</text>
  </g>
  <g begin="text">
   <text y="343.85" x="134.42,137.54" svgx:width="0.28,0.25" style="fill:rgb(0,0,0);font-family:TimesNewRomanPSMT;font-size:11.04px;stroke:none;">: </text>
  </g>
  <g begin="text">
   <text y="343.85" x="140.18,145.7,151.22,154.333,159.732,165.252,168.365,173.885,179.284,184.804" svgx:width="0.5,0.5,0.28,0.5,0.5,0.28,0.5,0.5,0.5,0.5" style="fill:rgb(0,0,0);font-family:TimesNewRomanPSMT;font-size:11.04px;stroke:none;">27/11/2021</text>
  </g>
  <g begin="text">
   <text y="343.85" x="190.25" svgx:width="0.25" style="fill:rgb(0,0,0);font-family:TimesNewRomanPSMT;font-size:11.04px;stroke:none;"> </text>
  </g>
  <g begin="text">
   <text y="343.85" x="42.0,48.0" svgx:width="0.5,0.5" style="fill:rgb(0,0,0);font-family:TimesNewRomanPSMT;font-size:12.0px;stroke:none;">15</text>
  </g>
  <g begin="text">
   <text y="343.85" x="54.0" svgx:width="0.25" style="fill:rgb(0,0,0);font-family:TimesNewRomanPSMT;font-size:12.0px;stroke:none;"> </text>
  </g>
  <g begin="text">
   <text y="363.77" x="72.024" svgx:width="0.25" style="fill:rgb(0,0,0);font-family:TimesNewRomanPSMT;font-size:12.0px;stroke:none;"> </text>
  </g>
  <g begin="text">
   <text y="363.77" x="216.05" svgx:width="0.25" style="fill:rgb(0,0,0);font-family:TimesNewRomanPSMT;font-size:11.04px;stroke:none;"> </text>
  </g>
  <g begin="text">
   <text y="363.77" x="42.0,48.0" svgx:width="0.5,0.5" style="fill:rgb(0,0,0);font-family:TimesNewRomanPSMT;font-size:12.0px;stroke:none;">16</text>
  </g>
  <g begin="text">
   <text y="363.77" x="54.0" svgx:width="0.25" style="fill:rgb(0,0,0);font-family:TimesNewRomanPSMT;font-size:12.0px;stroke:none;"> </text>
  </g>
  <g begin="text">
   <text y="602.109" transform="matrix(0.70711,-0.70711,0.70711,0.70711,-395.12956,250.29085)" rotateDegrees="-45" matrix="[29.803345,29.803345,-29.803345,29.803345,104.563255,239.8115]" x="104.563" svgx:width="0.67" style="fill:rgb(0,0,0);font-family:Arial;font-size:42.15px;stroke:none;">A</text>
   <text y="582.23" transform="matrix(0.70711,-0.70711,0.70711,0.70711,-375.25056,258.525)" rotateDegrees="-45" matrix="[29.803345,29.803345,-29.803345,29.803345,124.442085,259.6903]" x="124.442" svgx:width="0.72" style="fill:rgb(0,0,0);font-family:Arial;font-size:42.15px;stroke:none;">C</text>
   <text y="560.712" transform="matrix(0.70711,-0.70711,0.70711,0.70711,-353.73256,267.43805)" rotateDegrees="-45" matrix="[29.803345,29.803345,-29.803345,29.803345,145.9601,281.20834]" x="145.96" svgx:width="0.72" style="fill:rgb(0,0,0);font-family:Arial;font-size:42.15px;stroke:none;">C</text>
   <text y="539.194" transform="matrix(0.70711,-0.70711,0.70711,0.70711,-332.21456,276.3511)" rotateDegrees="-45" matrix="[29.803345,29.803345,-29.803345,29.803345,167.47812,302.72635]" x="167.478" svgx:width="0.67" style="fill:rgb(0,0,0);font-family:Arial;font-size:42.15px;stroke:none;">E</text>
   <text y="519.315" transform="matrix(0.70711,-0.70711,0.70711,0.70711,-312.33556,284.58525)" rotateDegrees="-45" matrix="[29.803345,29.803345,-29.803345,29.803345,187.35693,322.60516]" x="187.357" svgx:width="0.67" style="fill:rgb(0,0,0);font-family:Arial;font-size:42.15px;stroke:none;">P</text>
   <text y="499.436" transform="matrix(0.70711,-0.70711,0.70711,0.70711,-292.45656,292.8194)" rotateDegrees="-45" matrix="[29.803345,29.803345,-29.803345,29.803345,207.23578,342.484]" x="207.236" svgx:width="0.61" style="fill:rgb(0,0,0);font-family:Arial;font-size:42.15px;stroke:none;">T</text>
   <text y="481.226" transform="matrix(0.70711,-0.70711,0.70711,0.70711,-274.24656,300.36223)" rotateDegrees="-45" matrix="[29.803345,29.803345,-29.803345,29.803345,225.44562,360.69385]" x="225.446" svgx:width="0.67" style="fill:rgb(0,0,0);font-family:Arial;font-size:42.15px;stroke:none;">E</text>
   <text y="461.347" transform="matrix(0.70711,-0.70711,0.70711,0.70711,-254.36786,308.59567)" rotateDegrees="-45" matrix="[29.803345,29.803345,-29.803345,29.803345,245.32443,380.57266]" x="245.324" svgx:width="0.72" style="fill:rgb(0,0,0);font-family:Arial;font-size:42.15px;stroke:none;">D</text>
   <text y="439.829" transform="matrix(0.70711,-0.70711,0.70711,0.70711,-232.84986,317.50872)" rotateDegrees="-45" matrix="[29.803345,29.803345,-29.803345,29.803345,266.84247,402.0907]" x="266.842" svgx:width="0.28" style="fill:rgb(0,0,0);font-family:Arial;font-size:42.15px;stroke:none;"> </text>
   <text y="431.54" transform="matrix(0.70711,-0.70711,0.70711,0.70711,-224.56056,320.94284)" rotateDegrees="-45" matrix="[29.803345,29.803345,-29.803345,29.803345,275.13153,410.37976]" x="275.132" svgx:width="0.67" style="fill:rgb(0,0,0);font-family:Arial;font-size:42.15px;stroke:none;">V</text>
   <text y="411.661" transform="matrix(0.70711,-0.70711,0.70711,0.70711,-204.68186,329.17629)" rotateDegrees="-45" matrix="[29.803345,29.803345,-29.803345,29.803345,295.0103,430.25858]" x="295.01" svgx:width="0.67" style="fill:rgb(0,0,0);font-family:Arial;font-size:42.15px;stroke:none;">E</text>
   <text y="391.783" transform="matrix(0.70711,-0.70711,0.70711,0.70711,-184.80356,337.41073)" rotateDegrees="-45" matrix="[29.803345,29.803345,-29.803345,29.803345,314.88916,450.1374]" x="314.889" svgx:width="0.72" style="fill:rgb(0,0,0);font-family:Arial;font-size:42.15px;stroke:none;">R</text>
   <text y="370.265" transform="matrix(0.70711,-0.70711,0.70711,0.70711,-163.28556,346.32378)" rotateDegrees="-45" matrix="[29.803345,29.803345,-29.803345,29.803345,336.40717,471.65543]" x="336.407" svgx:width="0.67" style="fill:rgb(0,0,0);font-family:Arial;font-size:42.15px;stroke:none;">S</text>
   <text y="350.386" transform="matrix(0.70711,-0.70711,0.70711,0.70711,-143.40656,354.55793)" rotateDegrees="-45" matrix="[29.803345,29.803345,-29.803345,29.803345,356.286,491.53424]" x="356.286" svgx:width="0.28" style="fill:rgb(0,0,0);font-family:Arial;font-size:42.15px;stroke:none;">I</text>
   <text y="342.1" transform="matrix(0.70711,-0.70711,0.70711,0.70711,-135.12086,357.9894)" rotateDegrees="-45" matrix="[29.803345,29.803345,-29.803345,29.803345,364.57135,499.81958]" x="364.571" svgx:width="0.78" style="fill:rgb(0,0,0);font-family:Arial;font-size:42.15px;stroke:none;">O</text>
   <text y="318.913" transform="matrix(0.70711,-0.70711,0.70711,0.70711,-111.93386,367.59377)" rotateDegrees="-45" matrix="[29.803345,29.803345,-29.803345,29.803345,387.7583,523.0066]" x="387.758" svgx:width="0.72" style="fill:rgb(0,0,0);font-family:Arial;font-size:42.15px;stroke:none;">N</text>
   <text y="297.395" transform="matrix(0.70711,-0.70711,0.70711,0.70711,-90.41586,376.50681)" rotateDegrees="-45" matrix="[29.803345,29.803345,-29.803345,29.803345,409.27637,544.5246]" x="409.276" svgx:width="0.28" style="fill:rgb(0,0,0);font-family:Arial;font-size:42.15px;stroke:none;"> </text>
   <text y="637.872" transform="matrix(0.70711,-0.70711,0.70711,0.70711,-409.94279,286.05456)" rotateDegrees="-45" matrix="[29.803345,29.803345,-29.803345,29.803345,140.32727,204.04747]" x="140.327" svgx:width="0.67" style="fill:rgb(0,0,0);font-family:Arial;font-size:42.15px;stroke:none;">S</text>
   <text y="617.994" transform="matrix(0.70711,-0.70711,0.70711,0.70711,-390.0645,294.289)" rotateDegrees="-45" matrix="[29.803345,29.803345,-29.803345,29.803345,160.2061,223.9263]" x="160.206" svgx:width="0.72" style="fill:rgb(0,0,0);font-family:Arial;font-size:42.15px;stroke:none;">U</text>
   <text y="596.476" transform="matrix(0.70711,-0.70711,0.70711,0.70711,-368.5465,303.20205)" rotateDegrees="-45" matrix="[29.803345,29.803345,-29.803345,29.803345,181.72412,245.4443]" x="181.724" svgx:width="0.67" style="fill:rgb(0,0,0);font-family:Arial;font-size:42.15px;stroke:none;">B</text>
   <text y="576.597" transform="matrix(0.70711,-0.70711,0.70711,0.70711,-348.6675,311.4362)" rotateDegrees="-45" matrix="[29.803345,29.803345,-29.803345,29.803345,201.60294,265.32315]" x="201.603" svgx:width="0.5" style="fill:rgb(0,0,0);font-family:Arial;font-size:42.15px;stroke:none;">J</text>
   <text y="561.695" transform="matrix(0.70711,-0.70711,0.70711,0.70711,-333.7655,317.60881)" rotateDegrees="-45" matrix="[29.803345,29.803345,-29.803345,29.803345,216.50462,280.22482]" x="216.505" svgx:width="0.67" style="fill:rgb(0,0,0);font-family:Arial;font-size:42.15px;stroke:none;">E</text>
   <text y="541.816" transform="matrix(0.70711,-0.70711,0.70711,0.70711,-313.88679,325.84225)" rotateDegrees="-45" matrix="[29.803345,29.803345,-29.803345,29.803345,236.38344,300.10364]" x="236.383" svgx:width="0.72" style="fill:rgb(0,0,0);font-family:Arial;font-size:42.15px;stroke:none;">C</text>
   <text y="520.298" transform="matrix(0.70711,-0.70711,0.70711,0.70711,-292.36879,334.7553)" rotateDegrees="-45" matrix="[29.803345,29.803345,-29.803345,29.803345,257.90146,321.62164]" x="257.901" svgx:width="0.61" style="fill:rgb(0,0,0);font-family:Arial;font-size:42.15px;stroke:none;">T</text>
   <text y="502.089" transform="matrix(0.70711,-0.70711,0.70711,0.70711,-274.1595,342.29842)" rotateDegrees="-45" matrix="[29.803345,29.803345,-29.803345,29.803345,276.1113,339.83148]" x="276.111" svgx:width="0.28" style="fill:rgb(0,0,0);font-family:Arial;font-size:42.15px;stroke:none;"> </text>
   <text y="493.803" transform="matrix(0.70711,-0.70711,0.70711,0.70711,-265.8735,345.7306)" rotateDegrees="-45" matrix="[29.803345,29.803345,-29.803345,29.803345,284.39664,348.11682]" x="284.397" svgx:width="0.61" style="fill:rgb(0,0,0);font-family:Arial;font-size:42.15px;stroke:none;">T</text>
   <text y="475.593" transform="matrix(0.70711,-0.70711,0.70711,0.70711,-247.66379,353.27272)" rotateDegrees="-45" matrix="[29.803345,29.803345,-29.803345,29.803345,302.60648,366.32666]" x="302.606" svgx:width="0.78" style="fill:rgb(0,0,0);font-family:Arial;font-size:42.15px;stroke:none;">O</text>
   <text y="452.406" transform="matrix(0.70711,-0.70711,0.70711,0.70711,-224.47679,362.87709)" rotateDegrees="-45" matrix="[29.803345,29.803345,-29.803345,29.803345,325.79346,389.51367]" x="325.793" svgx:width="0.28" style="fill:rgb(0,0,0);font-family:Arial;font-size:42.15px;stroke:none;"> </text>
   <text y="444.136" transform="matrix(0.70711,-0.70711,0.70711,0.70711,-216.2065,366.30334)" rotateDegrees="-45" matrix="[29.803345,29.803345,-29.803345,29.803345,334.0639,397.78412]" x="334.064" svgx:width="0.61" style="fill:rgb(0,0,0);font-family:Arial;font-size:42.15px;stroke:none;">F</text>
   <text y="425.926" transform="matrix(0.70711,-0.70711,0.70711,0.70711,-197.9965,373.84617)" rotateDegrees="-45" matrix="[29.803345,29.803345,-29.803345,29.803345,352.27374,415.99396]" x="352.274" svgx:width="0.28" style="fill:rgb(0,0,0);font-family:Arial;font-size:42.15px;stroke:none;">I</text>
   <text y="417.641" transform="matrix(0.70711,-0.70711,0.70711,0.70711,-189.7115,377.27793)" rotateDegrees="-45" matrix="[29.803345,29.803345,-29.803345,29.803345,360.55908,424.2793]" x="360.559" svgx:width="0.72" style="fill:rgb(0,0,0);font-family:Arial;font-size:42.15px;stroke:none;">N</text>
   <text y="396.123" transform="matrix(0.70711,-0.70711,0.70711,0.70711,-168.1935,386.19098)" rotateDegrees="-45" matrix="[29.803345,29.803345,-29.803345,29.803345,382.0771,445.7973]" x="382.077" svgx:width="0.67" style="fill:rgb(0,0,0);font-family:Arial;font-size:42.15px;stroke:none;">A</text>
   <text y="376.244" transform="matrix(0.70711,-0.70711,0.70711,0.70711,-148.3145,394.42513)" rotateDegrees="-45" matrix="[29.803345,29.803345,-29.803345,29.803345,401.95593,465.67615]" x="401.956" svgx:width="0.56" style="fill:rgb(0,0,0);font-family:Arial;font-size:42.15px;stroke:none;">L</text>
   <text y="359.673" transform="matrix(0.70711,-0.70711,0.70711,0.70711,-131.7435,401.28906)" rotateDegrees="-45" matrix="[29.803345,29.803345,-29.803345,29.803345,418.5266,482.24677]" x="418.527" svgx:width="0.28" style="fill:rgb(0,0,0);font-family:Arial;font-size:42.15px;stroke:none;"> </text>
   <text y="351.394" transform="matrix(0.70711,-0.70711,0.70711,0.70711,-123.4645,404.71834)" rotateDegrees="-45" matrix="[29.803345,29.803345,-29.803345,29.803345,426.80573,490.52588]" x="426.806" svgx:width="0.67" style="fill:rgb(0,0,0);font-family:Arial;font-size:42.15px;stroke:none;">E</text>
   <text y="331.515" transform="matrix(0.70711,-0.70711,0.70711,0.70711,-103.5855,412.95249)" rotateDegrees="-45" matrix="[29.803345,29.803345,-29.803345,29.803345,446.68457,510.40472]" x="446.685" svgx:width="0.72" style="fill:rgb(0,0,0);font-family:Arial;font-size:42.15px;stroke:none;">D</text>
   <text y="309.997" transform="matrix(0.70711,-0.70711,0.70711,0.70711,-82.0675,421.86554)" rotateDegrees="-45" matrix="[29.803345,29.803345,-29.803345,29.803345,468.2025,531.9227]" x="468.203" svgx:width="0.28" style="fill:rgb(0,0,0);font-family:Arial;font-size:42.15px;stroke:none;">I</text>
   <text y="301.712" transform="matrix(0.70711,-0.70711,0.70711,0.70711,-73.7825,425.29729)" rotateDegrees="-45" matrix="[29.803345,29.803345,-29.803345,29.803345,476.48785,540.20807]" x="476.488" svgx:width="0.61" style="fill:rgb(0,0,0);font-family:Arial;font-size:42.15px;stroke:none;">T</text>
   <text y="283.502" transform="matrix(0.70711,-0.70711,0.70711,0.70711,-55.5725,432.84012)" rotateDegrees="-45" matrix="[29.803345,29.803345,-29.803345,29.803345,494.6977,558.4179]" x="494.698" svgx:width="0.67" style="fill:rgb(0,0,0);font-family:Arial;font-size:42.15px;stroke:none;">S</text>
  </g>
 </g>
</svg>
