<?xml version="1.0" encoding="UTF-8"?>
<svg height="813.88" width="536.18" xmlns="http://www.w3.org/2000/svg">
 <g id="page" xmlns:svgx="http://www.xml-cml.org/schema/svgx">
  <g begin="text">
   <text y="45.72" x="72.024,78.162,81.231,86.751,91.587,94.7,97.46,105.376,110.896,116.416,121.218,124.928,130.448,138.971,143.872,149.392,152.517,155.277,163.082,166.195,170.39,173.504,177.103,180.216,185.736,191.135,194.137,197.251,202.771" svgx:width="0.56,0.28,0.5,0.44,0.28,0.25,0.72,0.5,0.5,0.44,0.33,0.5,0.78,0.44,0.5,0.28,0.25,0.72,0.28,0.39,0.28,0.33,0.28,0.5,0.5,0.28,0.28,0.5,0.5" style="fill:rgb(0,0,0);font-family:TimesNewRomanPSMT;font-size:11.04px;stroke:none;">Final Government Distribution</text>
  </g>
  <g begin="text">
   <text y="45.72" x="208.37" svgx:width="0.25" style="fill:rgb(0,0,0);font-family:TimesNewRomanPSMT;font-size:11.04px;stroke:none;"> </text>
  </g>
  <g begin="text">
   <text y="45.72" x="211.01" svgx:width="0.25" style="fill:rgb(0,0,0);font-family:TimesNewRomanPSMT;font-size:11.04px;stroke:none;"> </text>
  </g>
  <g begin="text">
   <text y="45.72" x="276.17,283.49,289.009,293.911,299.431,302.556,307.358,311.067,313.827" svgx:width="0.67,0.5,0.44,0.5,0.28,0.44,0.33,0.25,0.5" style="fill:rgb(0,0,0);font-family:TimesNewRomanPSMT;font-size:11.04px;stroke:none;">Chapter 4</text>
  </g>
  <g begin="text">
   <text y="45.72" x="319.27" svgx:width="0.25" style="fill:rgb(0,0,0);font-family:TimesNewRomanPSMT;font-size:11.04px;stroke:none;"> </text>
  </g>
  <g begin="text">
   <text y="45.72" x="443.38,446.979,453.117,460.415,467.734" svgx:width="0.33,0.56,0.67,0.67,0.25" style="fill:rgb(0,0,0);font-family:TimesNewRomanPSMT;font-size:11.04px;stroke:none;">IPCC </text>
  </g>
  <g begin="text">
   <text y="45.72" x="470.5,478.416,485.735,491.255,494.015,504.437,512.408,516.084,519.694" svgx:width="0.72,0.67,0.5,0.25,0.94,0.72,0.33,0.33,0.33" style="fill:rgb(0,0,0);font-family:TimesNewRomanPSMT;font-size:11.04px;stroke:none;">AR6 WGIII</text>
  </g>
  <g begin="text">
   <text y="45.72" x="523.42" svgx:width="0.25" style="fill:rgb(0,0,0);font-family:TimesNewRomanPSMT;font-size:11.04px;stroke:none;"> </text>
  </g>
  <g begin="text">
   <text y="60.48" x="72.024" svgx:width="0.25" style="fill:rgb(0,0,0);font-family:TimesNewRomanPSMT;font-size:12.0px;stroke:none;"> </text>
  </g>
  <g begin="text">
   <text y="74.28" x="72.024" svgx:width="0.25" style="fill:rgb(0,0,0);font-family:TimesNewRomanPSMT;font-size:12.0px;stroke:none;"> </text>
  </g>
  <g begin="text">
   <text y="88.1" x="72.024" svgx:width="0.25" style="fill:rgb(0,0,0);font-family:TimesNewRomanPSMT;font-size:12.0px;stroke:none;"> </text>
  </g>
  <g begin="text">
   <text y="775.296" x="72.024,79.94,85.46,88.22,96.135,101.655,105.365,108.125,116.04,119.154,122.753,127.655,130.415,133.075,141.708,147.847,153.367,157.043,161.868,164.628,170.148,175.049,177.809,185.78,188.75,192.945,196.655,201.556,204.681,210.819,216.803,220.512" svgx:width="0.72,0.5,0.25,0.72,0.5,0.33,0.25,0.72,0.28,0.33,0.44,0.25,0.25,0.78,0.56,0.5,0.33,0.44,0.25,0.5,0.44,0.25,0.72,0.28,0.39,0.33,0.44,0.28,0.56,0.56,0.33,0.44" style="fill:rgb(0,0,0);font-family:TimesNewRomanPS-BoldMT;font-size:11.04px;stroke:none;">Do Not Cite, Quote or Distribute</text>
  </g>
  <g begin="text">
   <text y="775.296" x="225.41" svgx:width="0.25" style="fill:rgb(0,0,0);font-family:TimesNewRomanPS-BoldMT;font-size:11.04px;stroke:none;"> </text>
  </g>
  <g begin="text">
   <text y="775.296" x="287.57" svgx:width="0.5" style="fill:rgb(0,0,0);font-family:TimesNewRomanPSMT;font-size:11.04px;stroke:none;">4</text>
  </g>
  <g begin="text">
   <text y="775.296" x="293.09" svgx:width="0.33" style="fill:rgb(0,0,0);font-family:TimesNewRomanPSMT;font-size:11.04px;stroke:none;">-</text>
  </g>
  <g begin="text">
   <text y="775.296" x="296.69,302.21" svgx:width="0.5,0.5" style="fill:rgb(0,0,0);font-family:TimesNewRomanPSMT;font-size:11.04px;stroke:none;">52</text>
  </g>
  <g begin="text">
   <text y="775.296" x="307.73" svgx:width="0.25" style="fill:rgb(0,0,0);font-family:TimesNewRomanPSMT;font-size:11.04px;stroke:none;"> </text>
  </g>
  <g begin="text">
   <text y="775.296" x="310.49" svgx:width="0.25" style="fill:rgb(0,0,0);font-family:TimesNewRomanPSMT;font-size:11.04px;stroke:none;"> </text>
  </g>
  <g begin="text">
   <text y="775.296" x="450.1,456.845,462.365,465.435,470.259,473.372,476.132,481.652,486.554,491.975,496.876,501.204,504.207" svgx:width="0.61,0.5,0.28,0.44,0.28,0.25,0.5,0.44,0.5,0.44,0.39,0.28,0.25" style="fill:rgb(0,0,0);font-family:TimesNewRomanPSMT;font-size:11.04px;stroke:none;">Total pages: </text>
  </g>
  <g begin="text">
   <text y="775.296" x="506.98,512.5,518.02" svgx:width="0.5,0.5,0.5" style="fill:rgb(0,0,0);font-family:TimesNewRomanPSMT;font-size:11.04px;stroke:none;">156</text>
  </g>
  <g begin="text">
   <text y="775.296" x="523.42" svgx:width="0.25" style="fill:rgb(0,0,0);font-family:TimesNewRomanPSMT;font-size:9.96px;stroke:none;"> </text>
  </g>
  <g begin="text">
   <text y="790.056" x="72.024" svgx:width="0.25" style="fill:rgb(0,0,0);font-family:TimesNewRomanPSMT;font-size:12.0px;stroke:none;"> </text>
  </g>
  <g begin="text">
   <text y="803.88" x="72.024" svgx:width="0.25" style="fill:rgb(0,0,0);font-family:TimesNewRomanPSMT;font-size:12.0px;stroke:none;"> </text>
  </g>
  <g begin="text">
   <text y="101.06" x="72.024" svgx:width="0.39" style="fill:rgb(0,0,0);font-family:TimesNewRomanPSMT;font-size:11.04px;stroke:none;">s</text>
  </g>
  <g begin="text">
   <text y="101.06" x="76.344,79.457,84.977,90.376,93.489,98.391,102.719,105.479,106.792,109.906,115.426,120.946,126.344,129.457,134.977,140.497,143.257,144.682,148.391,153.193,156.903,160.016,165.415,170.316,174.048,176.808,178.232,183.134,188.555,193.357,198.259,203.779,206.539" svgx:width="0.28,0.5,0.5,0.28,0.44,0.39,0.25,0.55,0.28,0.5,0.5,0.5,0.28,0.5,0.5,0.25,0.55,0.33,0.44,0.33,0.28,0.5,0.44,0.33,0.25,0.55,0.44,0.5,0.44,0.44,0.5,0.25,0.25" style="fill:rgb(0,0,0);font-family:TimesNewRomanPSMT;font-size:11.04px;stroke:none;">tudies looking farther ahead. </text>
  </g>
  <g begin="text">
   <text y="101.06" x="210.89,214.489,220.009,222.76899999999998,224.193,229.095,232.219,235.333,238.093,239.517,243.226,248.128,253.549,256.662,261.564,269.534,274.304,279.824,282.584,284.008,288.302,291.438,296.958,302.356,305.47,310.272,314.467,317.227,319.98699999999997,321.411,326.931,332.451,340.367,345.269,350.789,355.713,359.422,362.182,364.942,366.366,374.282,382.198,388.336,391.096,392.509,397.411,402.931,408.451,411.465,414.578,420.098,425.618,430.42,434.616,437.376,438.8,441.913,447.433,450.193,451.617,457.137,460.847,466.367,474.282,477.042,478.466,483.368,488.888,493.812,499.332,502.092,503.516,511.432,514.435,517.548,523.068" svgx:width="0.33,0.5,0.25,0.55,0.44,0.28,0.28,0.25,0.55,0.33,0.44,0.5,0.28,0.44,0.72,0.44,0.5,0.25,0.55,0.39,0.28,0.5,0.5,0.28,0.44,0.39,0.25,0.25,0.55,0.5,0.5,0.72,0.44,0.5,0.44,0.33,0.25,0.25,0.55,0.72,0.72,0.56,0.25,0.55,0.44,0.5,0.5,0.28,0.28,0.5,0.5,0.44,0.39,0.25,0.55,0.28,0.5,0.25,0.55,0.5,0.33,0.5,0.72,0.25,0.55,0.44,0.5,0.44,0.5,0.25,0.55,0.72,0.28,0.28,0.5,0.25" style="fill:rgb(0,0,0);font-family:TimesNewRomanPSMT;font-size:11.04px;stroke:none;">In all reviewed studies, however, GDP continues to grow even with </text>
  </g>
  <g begin="text">
   <text y="101.06" x="48.0" svgx:width="0.5" style="fill:rgb(0,0,0);font-family:TimesNewRomanPSMT;font-size:12.0px;stroke:none;">1</text>
  </g>
  <g begin="text">
   <text y="101.06" x="54.0" svgx:width="0.25" style="fill:rgb(0,0,0);font-family:TimesNewRomanPSMT;font-size:12.0px;stroke:none;"> </text>
  </g>
  <g begin="text">
   <text y="114.98" x="72.024,80.657,83.66,86.773,89.887,95.285,100.187,103.201,106.314,111.834,117.354,120.114" svgx:width="0.78,0.28,0.28,0.28,0.5,0.44,0.28,0.28,0.5,0.5,0.25,0.25" style="fill:rgb(0,0,0);font-family:TimesNewRomanPSMT;font-size:11.04px;stroke:none;">mitigation. </text>
  </g>
  <g begin="text">
   <text y="114.98" x="122.78,126.379,129.492,132.131,140.654,145.556,151.076,153.736,159.256,164.158,166.819,172.339,177.859,180.861,185.763,191.283,193.822,196.936,202.456,207.258,210.371,213.01,218.53,224.05,229.57,234.472,237.132,242.652,246.362,249.0,252.003,257.523,262.425,265.086,269.38,272.405,277.925,283.445,286.448,291.35,295.677,298.316,303.218,307.435,311.73,316.554,320.849,325.187,330.089,335.609,338.27,343.172,348.692,354.112,359.632,364.534,367.195,370.308,375.706,378.82,383.721,389.142,392.852,397.654,400.767,405.669,409.997,412.635,415.638,421.158,426.06,428.721,434.241,439.043,444.563,449.465,453.196,456.199,459.312,463.607,466.268,471.666,475.376,478.014,486.537,489.65,492.653,495.767,501.287,506.089,509.202,512.315,517.835,523.234" svgx:width="0.33,0.28,0.25,0.78,0.44,0.5,0.25,0.5,0.44,0.25,0.5,0.5,0.28,0.44,0.5,0.25,0.28,0.5,0.44,0.28,0.25,0.5,0.5,0.5,0.44,0.25,0.5,0.33,0.25,0.28,0.5,0.44,0.25,0.39,0.28,0.5,0.5,0.28,0.44,0.39,0.25,0.44,0.39,0.39,0.44,0.39,0.39,0.44,0.5,0.25,0.44,0.5,0.5,0.5,0.44,0.25,0.28,0.5,0.28,0.44,0.5,0.33,0.44,0.28,0.44,0.39,0.25,0.28,0.5,0.44,0.25,0.5,0.44,0.5,0.44,0.33,0.28,0.28,0.39,0.25,0.5,0.33,0.25,0.78,0.28,0.28,0.28,0.5,0.44,0.28,0.28,0.5,0.5,0.25" style="fill:rgb(0,0,0);font-family:TimesNewRomanPSMT;font-size:11.04px;stroke:none;">It may be noted that none of the studies assessed above integrates the benefits of mitigation </text>
  </g>
  <g begin="text">
   <text y="114.98" x="48.0" svgx:width="0.5" style="fill:rgb(0,0,0);font-family:TimesNewRomanPSMT;font-size:12.0px;stroke:none;">2</text>
  </g>
  <g begin="text">
   <text y="114.98" x="54.0" svgx:width="0.25" style="fill:rgb(0,0,0);font-family:TimesNewRomanPSMT;font-size:12.0px;stroke:none;"> </text>
  </g>
  <g begin="text">
   <text y="128.9" x="72.024,75.137,80.657,84.002,87.116,92.017,95.639,104.272,108.467,111.934,117.454,121.053,124.519,128.229,133.13,138.551,144.071,148.973,153.897,159.295,162.762,165.765,174.398,179.918,184.72,189.622,192.636,196.931,200.43,205.95,209.549,213.016,217.918,220.932,223.934,232.568,237.47,240.483,245.385,248.874,253.676,259.196,264.098,269.618,275.138,279.951,283.418,288.938,292.537,296.004,299.117,304.637,312.442,317.344" svgx:width="0.28,0.5,0.25,0.28,0.44,0.33,0.78,0.39,0.25,0.5,0.33,0.25,0.33,0.44,0.5,0.5,0.44,0.44,0.5,0.25,0.28,0.78,0.5,0.44,0.44,0.28,0.39,0.25,0.5,0.33,0.25,0.44,0.28,0.28,0.78,0.44,0.28,0.44,0.25,0.44,0.5,0.44,0.5,0.5,0.44,0.25,0.5,0.33,0.25,0.28,0.5,0.72,0.44,0.33" style="fill:rgb(0,0,0);font-family:TimesNewRomanPSMT;font-size:11.04px;stroke:none;">in terms of reduced impacts of climate change or lower</text>
  </g>
  <g begin="text">
   <text y="128.9" x="321.31" svgx:width="0.25" style="fill:rgb(0,0,0);font-family:TimesNewRomanPSMT;font-size:11.04px;stroke:none;"> </text>
  </g>
  <g begin="text">
   <text y="128.9" x="324.79,329.592,335.112,340.014,345.435,348.548,353.45,356.464,359.577,365.097,370.496,373.962,378.864,384.384,388.601,391.714,396.009,398.67,402.136,408.882,414.402,417.371,421.666,425.166,428.169,432.364,435.83,441.35,446.87,449.984,453.329,457.623,463.143,466.764,472.284,475.883,478.997,483.291,486.316,491.836,497.356,500.823,505.018,508.131,513.651,518.454,523.256" svgx:width="0.44,0.5,0.44,0.5,0.28,0.44,0.28,0.28,0.5,0.5,0.25,0.44,0.5,0.39,0.28,0.39,0.25,0.25,0.61,0.5,0.28,0.39,0.25,0.28,0.39,0.25,0.5,0.5,0.28,0.25,0.39,0.5,0.33,0.5,0.33,0.28,0.39,0.28,0.5,0.5,0.25,0.39,0.28,0.5,0.44,0.44,0.25" style="fill:rgb(0,0,0);font-family:TimesNewRomanPSMT;font-size:11.04px;stroke:none;">adaptation costs. This is not surprising since </text>
  </g>
  <g begin="text">
   <text y="128.9" x="48.0" svgx:width="0.5" style="fill:rgb(0,0,0);font-family:TimesNewRomanPSMT;font-size:12.0px;stroke:none;">3</text>
  </g>
  <g begin="text">
   <text y="128.9" x="54.0" svgx:width="0.25" style="fill:rgb(0,0,0);font-family:TimesNewRomanPSMT;font-size:12.0px;stroke:none;"> </text>
  </g>
  <g begin="text">
   <text y="142.82" x="72.024,75.137,80.657,85.559,89.776,94.678,97.438,98.641,102.837,105.95,111.47,116.868,119.982,124.884,129.101,131.861,133.053,137.855,141.565,146.467,149.227,150.309,155.21,158.224,160.98399999999998,162.177,167.697,172.499,175.612,178.726,184.124,189.644,194.447,197.56,200.32,201.512,206.911,210.62,213.38,214.451,218.16,223.062,228.483,231.596,237.116,242.636,247.439,250.552,253.31199999999998,254.383,258.677,263.612,268.415,271.528,276.43,279.19,280.272,285.173,290.693,296.114,298.87399999999997,300.066,305.586,311.106,313.866,314.937,320.457,325.977,329.09,331.84999999999997,332.921,337.823,343.343,346.357,351.259,356.779,362.299,365.05899999999997,366.141,371.661,376.562,382.082,387.602,393.023,398.543,401.303,402.495,408.015,413.535,418.934,424.454,427.214,429.974,431.045,438.96,444.48,449.382,453.114,458.015,462.829,467.123,469.883,470.976,474.09,479.61,484.412,487.17199999999997,488.364,493.884,498.786,504.207,509.109,512.73,515.843,518.846,523.041" svgx:width="0.28,0.5,0.44,0.39,0.44,0.25,0.55,0.39,0.28,0.5,0.5,0.28,0.44,0.39,0.25,0.55,0.44,0.33,0.44,0.25,0.55,0.44,0.28,0.25,0.55,0.5,0.44,0.28,0.28,0.5,0.5,0.44,0.28,0.25,0.55,0.5,0.33,0.25,0.55,0.33,0.44,0.5,0.28,0.5,0.5,0.44,0.28,0.25,0.55,0.39,0.44,0.44,0.28,0.44,0.25,0.55,0.44,0.5,0.5,0.25,0.55,0.5,0.5,0.25,0.55,0.5,0.5,0.28,0.25,0.55,0.44,0.5,0.28,0.44,0.5,0.5,0.25,0.55,0.5,0.44,0.5,0.5,0.5,0.5,0.25,0.55,0.5,0.5,0.5,0.5,0.25,0.25,0.55,0.72,0.5,0.44,0.33,0.44,0.44,0.39,0.25,0.55,0.28,0.5,0.44,0.25,0.55,0.5,0.44,0.5,0.44,0.33,0.28,0.28,0.39,0.25" style="fill:rgb(0,0,0);font-family:TimesNewRomanPSMT;font-size:11.04px;stroke:none;">these studies are at national or regional scale and do not extend beyond 2050, whereas the benefits </text>
  </g>
  <g begin="text">
   <text y="142.82" x="48.0" svgx:width="0.5" style="fill:rgb(0,0,0);font-family:TimesNewRomanPSMT;font-size:12.0px;stroke:none;">4</text>
  </g>
  <g begin="text">
   <text y="142.82" x="54.0" svgx:width="0.25" style="fill:rgb(0,0,0);font-family:TimesNewRomanPSMT;font-size:12.0px;stroke:none;"> </text>
  </g>
  <g begin="text">
   <text y="156.74" x="72.024,77.544,82.446,87.966,92.89,98.41,103.93,106.447,111.967,117.487,120.125,125.524,128.637,134.157,139.677,144.479,147.593,150.231,155.034,163.667,166.67,170.964,175.193,178.306,183.826,189.346,193.541,196.18,201.082,206.602,212.122,214.782,220.181,223.89,226.893,235.526,240.329,244.038,247.041,250.154,255.674,258.313,263.833,268.635,273.537,279.057,282.789,285.306,290.208,293.829,296.942,301.844,305.465,308.103,313.502,319.022,324.542,330.062,332.822,335.461,343.376,346.49,350.685,355.586,361.106,365.434,369.629,372.743,378.263,383.783,386.3,391.82,397.34,399.978,403.577,408.479,413.999,419.519,424.333,429.234,434.655,437.293,440.407,448.93,454.45,459.351,464.165,467.278,471.573,474.123,477.236,481.531,484.191,489.59,493.299,498.819,504.218,507.331,512.851,517.753,523.174" svgx:width="0.5,0.44,0.5,0.44,0.5,0.5,0.25,0.5,0.5,0.25,0.5,0.28,0.5,0.5,0.44,0.28,0.25,0.44,0.78,0.28,0.39,0.39,0.28,0.5,0.5,0.39,0.25,0.44,0.5,0.5,0.25,0.5,0.33,0.28,0.78,0.44,0.33,0.28,0.28,0.5,0.25,0.5,0.44,0.44,0.5,0.33,0.25,0.44,0.33,0.28,0.44,0.33,0.25,0.5,0.5,0.5,0.5,0.25,0.25,0.72,0.28,0.39,0.44,0.5,0.39,0.39,0.28,0.5,0.5,0.25,0.5,0.5,0.25,0.33,0.44,0.5,0.5,0.44,0.44,0.5,0.25,0.28,0.78,0.5,0.44,0.44,0.28,0.39,0.25,0.28,0.39,0.25,0.5,0.33,0.5,0.5,0.28,0.5,0.44,0.5,0.25" style="fill:rgb(0,0,0);font-family:TimesNewRomanPSMT;font-size:11.04px;stroke:none;">depend on global emissions and primarily occur after 2050. Discussion on reduced impacts is provided </text>
  </g>
  <g begin="text">
   <text y="156.74" x="48.0" svgx:width="0.5" style="fill:rgb(0,0,0);font-family:TimesNewRomanPSMT;font-size:12.0px;stroke:none;">5</text>
  </g>
  <g begin="text">
   <text y="156.74" x="54.0" svgx:width="0.25" style="fill:rgb(0,0,0);font-family:TimesNewRomanPSMT;font-size:12.0px;stroke:none;"> </text>
  </g>
  <g begin="text">
   <text y="170.66" x="72.024,75.137,80.657,83.417,87.712,92.536,97.438" svgx:width="0.28,0.5,0.25,0.39,0.44,0.44,0.28" style="fill:rgb(0,0,0);font-family:TimesNewRomanPSMT;font-size:11.04px;stroke:none;">in sect</text>
  </g>
  <g begin="text">
   <text y="170.66" x="100.46,103.573,109.093,114.613,117.373,122.893,125.532,131.052,133.812" svgx:width="0.28,0.5,0.5,0.25,0.5,0.25,0.5,0.25,0.5" style="fill:rgb(0,0,0);font-family:TimesNewRomanPSMT;font-size:11.04px;stroke:none;">ion 3.6.2</text>
  </g>
  <g begin="text">
   <text y="170.66" x="139.34" svgx:width="0.25" style="fill:rgb(0,0,0);font-family:TimesNewRomanPSMT;font-size:11.04px;stroke:none;"> </text>
  </g>
  <g begin="text">
   <text y="170.66" x="142.1,147.002,152.422,157.942" svgx:width="0.44,0.5,0.5,0.25" style="fill:rgb(0,0,0);font-family:TimesNewRomanPSMT;font-size:11.04px;stroke:none;">and </text>
  </g>
  <g begin="text">
   <text y="170.66" x="160.7,168.019,171.729,177.249,181.444" svgx:width="0.67,0.33,0.5,0.39,0.39" style="fill:rgb(0,0,0);font-family:TimesNewRomanPSMT;font-size:11.04px;stroke:none;">Cross</text>
  </g>
  <g begin="text">
   <text y="170.66" x="185.81" svgx:width="0.33" style="fill:rgb(0,0,0);font-family:TimesNewRomanPSMT;font-size:11.04px;stroke:none;">-</text>
  </g>
  <g begin="text">
   <text y="170.66" x="189.41,199.832,205.352,209.083,214.482,217.595,223.115,228.635,231.395,239.311,242.91,248.43,253.95,259.47,262.23,269.549,275.069,280.589" svgx:width="0.94,0.5,0.33,0.5,0.28,0.5,0.5,0.25,0.72,0.33,0.5,0.5,0.5,0.25,0.67,0.5,0.5,0.25" style="fill:rgb(0,0,0);font-family:TimesNewRomanPSMT;font-size:11.04px;stroke:none;">Working Group Box </text>
  </g>
  <g begin="text">
   <text y="170.66" x="283.37" svgx:width="0.5" style="fill:rgb(0,0,0);font-family:TimesNewRomanPSMT;font-size:11.04px;stroke:none;">1</text>
  </g>
  <g begin="text">
   <text y="170.66" x="288.77" svgx:width="0.25" style="fill:rgb(0,0,0);font-family:TimesNewRomanPSMT;font-size:11.04px;stroke:none;">.</text>
  </g>
  <g begin="text">
   <text y="170.66" x="291.41" svgx:width="0.25" style="fill:rgb(0,0,0);font-family:TimesNewRomanPSMT;font-size:11.04px;stroke:none;"> </text>
  </g>
  <g begin="text">
   <text y="170.66" x="48.0" svgx:width="0.5" style="fill:rgb(0,0,0);font-family:TimesNewRomanPSMT;font-size:12.0px;stroke:none;">6</text>
  </g>
  <g begin="text">
   <text y="170.66" x="54.0" svgx:width="0.25" style="fill:rgb(0,0,0);font-family:TimesNewRomanPSMT;font-size:12.0px;stroke:none;"> </text>
  </g>
  <g begin="text">
   <text y="602.109" transform="matrix(0.70711,-0.70711,0.70711,0.70711,-395.12956,250.29085)" rotateDegrees="-45" matrix="[29.803345,29.803345,-29.803345,29.803345,104.563255,239.8115]" x="104.563" svgx:width="0.67" style="fill:rgb(0,0,0);font-family:Arial;font-size:42.15px;stroke:none;">A</text>
   <text y="582.23" transform="matrix(0.70711,-0.70711,0.70711,0.70711,-375.25056,258.525)" rotateDegrees="-45" matrix="[29.803345,29.803345,-29.803345,29.803345,124.442085,259.6903]" x="124.442" svgx:width="0.72" style="fill:rgb(0,0,0);font-family:Arial;font-size:42.15px;stroke:none;">C</text>
   <text y="560.712" transform="matrix(0.70711,-0.70711,0.70711,0.70711,-353.73256,267.43805)" rotateDegrees="-45" matrix="[29.803345,29.803345,-29.803345,29.803345,145.9601,281.20834]" x="145.96" svgx:width="0.72" style="fill:rgb(0,0,0);font-family:Arial;font-size:42.15px;stroke:none;">C</text>
   <text y="539.194" transform="matrix(0.70711,-0.70711,0.70711,0.70711,-332.21456,276.3511)" rotateDegrees="-45" matrix="[29.803345,29.803345,-29.803345,29.803345,167.47812,302.72635]" x="167.478" svgx:width="0.67" style="fill:rgb(0,0,0);font-family:Arial;font-size:42.15px;stroke:none;">E</text>
   <text y="519.315" transform="matrix(0.70711,-0.70711,0.70711,0.70711,-312.33556,284.58525)" rotateDegrees="-45" matrix="[29.803345,29.803345,-29.803345,29.803345,187.35693,322.60516]" x="187.357" svgx:width="0.67" style="fill:rgb(0,0,0);font-family:Arial;font-size:42.15px;stroke:none;">P</text>
   <text y="499.436" transform="matrix(0.70711,-0.70711,0.70711,0.70711,-292.45656,292.8194)" rotateDegrees="-45" matrix="[29.803345,29.803345,-29.803345,29.803345,207.23578,342.484]" x="207.236" svgx:width="0.61" style="fill:rgb(0,0,0);font-family:Arial;font-size:42.15px;stroke:none;">T</text>
   <text y="481.226" transform="matrix(0.70711,-0.70711,0.70711,0.70711,-274.24656,300.36223)" rotateDegrees="-45" matrix="[29.803345,29.803345,-29.803345,29.803345,225.44562,360.69385]" x="225.446" svgx:width="0.67" style="fill:rgb(0,0,0);font-family:Arial;font-size:42.15px;stroke:none;">E</text>
   <text y="461.347" transform="matrix(0.70711,-0.70711,0.70711,0.70711,-254.36786,308.59567)" rotateDegrees="-45" matrix="[29.803345,29.803345,-29.803345,29.803345,245.32443,380.57266]" x="245.324" svgx:width="0.72" style="fill:rgb(0,0,0);font-family:Arial;font-size:42.15px;stroke:none;">D</text>
   <text y="439.829" transform="matrix(0.70711,-0.70711,0.70711,0.70711,-232.84986,317.50872)" rotateDegrees="-45" matrix="[29.803345,29.803345,-29.803345,29.803345,266.84247,402.0907]" x="266.842" svgx:width="0.28" style="fill:rgb(0,0,0);font-family:Arial;font-size:42.15px;stroke:none;"> </text>
   <text y="431.54" transform="matrix(0.70711,-0.70711,0.70711,0.70711,-224.56056,320.94284)" rotateDegrees="-45" matrix="[29.803345,29.803345,-29.803345,29.803345,275.13153,410.37976]" x="275.132" svgx:width="0.67" style="fill:rgb(0,0,0);font-family:Arial;font-size:42.15px;stroke:none;">V</text>
   <text y="411.661" transform="matrix(0.70711,-0.70711,0.70711,0.70711,-204.68186,329.17629)" rotateDegrees="-45" matrix="[29.803345,29.803345,-29.803345,29.803345,295.0103,430.25858]" x="295.01" svgx:width="0.67" style="fill:rgb(0,0,0);font-family:Arial;font-size:42.15px;stroke:none;">E</text>
   <text y="391.783" transform="matrix(0.70711,-0.70711,0.70711,0.70711,-184.80356,337.41073)" rotateDegrees="-45" matrix="[29.803345,29.803345,-29.803345,29.803345,314.88916,450.1374]" x="314.889" svgx:width="0.72" style="fill:rgb(0,0,0);font-family:Arial;font-size:42.15px;stroke:none;">R</text>
   <text y="370.265" transform="matrix(0.70711,-0.70711,0.70711,0.70711,-163.28556,346.32378)" rotateDegrees="-45" matrix="[29.803345,29.803345,-29.803345,29.803345,336.40717,471.65543]" x="336.407" svgx:width="0.67" style="fill:rgb(0,0,0);font-family:Arial;font-size:42.15px;stroke:none;">S</text>
   <text y="350.386" transform="matrix(0.70711,-0.70711,0.70711,0.70711,-143.40656,354.55793)" rotateDegrees="-45" matrix="[29.803345,29.803345,-29.803345,29.803345,356.286,491.53424]" x="356.286" svgx:width="0.28" style="fill:rgb(0,0,0);font-family:Arial;font-size:42.15px;stroke:none;">I</text>
   <text y="342.1" transform="matrix(0.70711,-0.70711,0.70711,0.70711,-135.12086,357.9894)" rotateDegrees="-45" matrix="[29.803345,29.803345,-29.803345,29.803345,364.57135,499.81958]" x="364.571" svgx:width="0.78" style="fill:rgb(0,0,0);font-family:Arial;font-size:42.15px;stroke:none;">O</text>
   <text y="318.913" transform="matrix(0.70711,-0.70711,0.70711,0.70711,-111.93386,367.59377)" rotateDegrees="-45" matrix="[29.803345,29.803345,-29.803345,29.803345,387.7583,523.0066]" x="387.758" svgx:width="0.72" style="fill:rgb(0,0,0);font-family:Arial;font-size:42.15px;stroke:none;">N</text>
   <text y="297.395" transform="matrix(0.70711,-0.70711,0.70711,0.70711,-90.41586,376.50681)" rotateDegrees="-45" matrix="[29.803345,29.803345,-29.803345,29.803345,409.27637,544.5246]" x="409.276" svgx:width="0.28" style="fill:rgb(0,0,0);font-family:Arial;font-size:42.15px;stroke:none;"> </text>
   <text y="637.872" transform="matrix(0.70711,-0.70711,0.70711,0.70711,-409.94279,286.05456)" rotateDegrees="-45" matrix="[29.803345,29.803345,-29.803345,29.803345,140.32727,204.04747]" x="140.327" svgx:width="0.67" style="fill:rgb(0,0,0);font-family:Arial;font-size:42.15px;stroke:none;">S</text>
   <text y="617.994" transform="matrix(0.70711,-0.70711,0.70711,0.70711,-390.0645,294.289)" rotateDegrees="-45" matrix="[29.803345,29.803345,-29.803345,29.803345,160.2061,223.9263]" x="160.206" svgx:width="0.72" style="fill:rgb(0,0,0);font-family:Arial;font-size:42.15px;stroke:none;">U</text>
   <text y="596.476" transform="matrix(0.70711,-0.70711,0.70711,0.70711,-368.5465,303.20205)" rotateDegrees="-45" matrix="[29.803345,29.803345,-29.803345,29.803345,181.72412,245.4443]" x="181.724" svgx:width="0.67" style="fill:rgb(0,0,0);font-family:Arial;font-size:42.15px;stroke:none;">B</text>
   <text y="576.597" transform="matrix(0.70711,-0.70711,0.70711,0.70711,-348.6675,311.4362)" rotateDegrees="-45" matrix="[29.803345,29.803345,-29.803345,29.803345,201.60294,265.32315]" x="201.603" svgx:width="0.5" style="fill:rgb(0,0,0);font-family:Arial;font-size:42.15px;stroke:none;">J</text>
   <text y="561.695" transform="matrix(0.70711,-0.70711,0.70711,0.70711,-333.7655,317.60881)" rotateDegrees="-45" matrix="[29.803345,29.803345,-29.803345,29.803345,216.50462,280.22482]" x="216.505" svgx:width="0.67" style="fill:rgb(0,0,0);font-family:Arial;font-size:42.15px;stroke:none;">E</text>
   <text y="541.816" transform="matrix(0.70711,-0.70711,0.70711,0.70711,-313.88679,325.84225)" rotateDegrees="-45" matrix="[29.803345,29.803345,-29.803345,29.803345,236.38344,300.10364]" x="236.383" svgx:width="0.72" style="fill:rgb(0,0,0);font-family:Arial;font-size:42.15px;stroke:none;">C</text>
   <text y="520.298" transform="matrix(0.70711,-0.70711,0.70711,0.70711,-292.36879,334.7553)" rotateDegrees="-45" matrix="[29.803345,29.803345,-29.803345,29.803345,257.90146,321.62164]" x="257.901" svgx:width="0.61" style="fill:rgb(0,0,0);font-family:Arial;font-size:42.15px;stroke:none;">T</text>
   <text y="502.089" transform="matrix(0.70711,-0.70711,0.70711,0.70711,-274.1595,342.29842)" rotateDegrees="-45" matrix="[29.803345,29.803345,-29.803345,29.803345,276.1113,339.83148]" x="276.111" svgx:width="0.28" style="fill:rgb(0,0,0);font-family:Arial;font-size:42.15px;stroke:none;"> </text>
   <text y="493.803" transform="matrix(0.70711,-0.70711,0.70711,0.70711,-265.8735,345.7306)" rotateDegrees="-45" matrix="[29.803345,29.803345,-29.803345,29.803345,284.39664,348.11682]" x="284.397" svgx:width="0.61" style="fill:rgb(0,0,0);font-family:Arial;font-size:42.15px;stroke:none;">T</text>
   <text y="475.593" transform="matrix(0.70711,-0.70711,0.70711,0.70711,-247.66379,353.27272)" rotateDegrees="-45" matrix="[29.803345,29.803345,-29.803345,29.803345,302.60648,366.32666]" x="302.606" svgx:width="0.78" style="fill:rgb(0,0,0);font-family:Arial;font-size:42.15px;stroke:none;">O</text>
   <text y="452.406" transform="matrix(0.70711,-0.70711,0.70711,0.70711,-224.47679,362.87709)" rotateDegrees="-45" matrix="[29.803345,29.803345,-29.803345,29.803345,325.79346,389.51367]" x="325.793" svgx:width="0.28" style="fill:rgb(0,0,0);font-family:Arial;font-size:42.15px;stroke:none;"> </text>
   <text y="444.136" transform="matrix(0.70711,-0.70711,0.70711,0.70711,-216.2065,366.30334)" rotateDegrees="-45" matrix="[29.803345,29.803345,-29.803345,29.803345,334.0639,397.78412]" x="334.064" svgx:width="0.61" style="fill:rgb(0,0,0);font-family:Arial;font-size:42.15px;stroke:none;">F</text>
   <text y="425.926" transform="matrix(0.70711,-0.70711,0.70711,0.70711,-197.9965,373.84617)" rotateDegrees="-45" matrix="[29.803345,29.803345,-29.803345,29.803345,352.27374,415.99396]" x="352.274" svgx:width="0.28" style="fill:rgb(0,0,0);font-family:Arial;font-size:42.15px;stroke:none;">I</text>
   <text y="417.641" transform="matrix(0.70711,-0.70711,0.70711,0.70711,-189.7115,377.27793)" rotateDegrees="-45" matrix="[29.803345,29.803345,-29.803345,29.803345,360.55908,424.2793]" x="360.559" svgx:width="0.72" style="fill:rgb(0,0,0);font-family:Arial;font-size:42.15px;stroke:none;">N</text>
   <text y="396.123" transform="matrix(0.70711,-0.70711,0.70711,0.70711,-168.1935,386.19098)" rotateDegrees="-45" matrix="[29.803345,29.803345,-29.803345,29.803345,382.0771,445.7973]" x="382.077" svgx:width="0.67" style="fill:rgb(0,0,0);font-family:Arial;font-size:42.15px;stroke:none;">A</text>
   <text y="376.244" transform="matrix(0.70711,-0.70711,0.70711,0.70711,-148.3145,394.42513)" rotateDegrees="-45" matrix="[29.803345,29.803345,-29.803345,29.803345,401.95593,465.67615]" x="401.956" svgx:width="0.56" style="fill:rgb(0,0,0);font-family:Arial;font-size:42.15px;stroke:none;">L</text>
   <text y="359.673" transform="matrix(0.70711,-0.70711,0.70711,0.70711,-131.7435,401.28906)" rotateDegrees="-45" matrix="[29.803345,29.803345,-29.803345,29.803345,418.5266,482.24677]" x="418.527" svgx:width="0.28" style="fill:rgb(0,0,0);font-family:Arial;font-size:42.15px;stroke:none;"> </text>
   <text y="351.394" transform="matrix(0.70711,-0.70711,0.70711,0.70711,-123.4645,404.71834)" rotateDegrees="-45" matrix="[29.803345,29.803345,-29.803345,29.803345,426.80573,490.52588]" x="426.806" svgx:width="0.67" style="fill:rgb(0,0,0);font-family:Arial;font-size:42.15px;stroke:none;">E</text>
   <text y="331.515" transform="matrix(0.70711,-0.70711,0.70711,0.70711,-103.5855,412.95249)" rotateDegrees="-45" matrix="[29.803345,29.803345,-29.803345,29.803345,446.68457,510.40472]" x="446.685" svgx:width="0.72" style="fill:rgb(0,0,0);font-family:Arial;font-size:42.15px;stroke:none;">D</text>
   <text y="309.997" transform="matrix(0.70711,-0.70711,0.70711,0.70711,-82.0675,421.86554)" rotateDegrees="-45" matrix="[29.803345,29.803345,-29.803345,29.803345,468.2025,531.9227]" x="468.203" svgx:width="0.28" style="fill:rgb(0,0,0);font-family:Arial;font-size:42.15px;stroke:none;">I</text>
   <text y="301.712" transform="matrix(0.70711,-0.70711,0.70711,0.70711,-73.7825,425.29729)" rotateDegrees="-45" matrix="[29.803345,29.803345,-29.803345,29.803345,476.48785,540.20807]" x="476.488" svgx:width="0.61" style="fill:rgb(0,0,0);font-family:Arial;font-size:42.15px;stroke:none;">T</text>
   <text y="283.502" transform="matrix(0.70711,-0.70711,0.70711,0.70711,-55.5725,432.84012)" rotateDegrees="-45" matrix="[29.803345,29.803345,-29.803345,29.803345,494.6977,558.4179]" x="494.698" svgx:width="0.67" style="fill:rgb(0,0,0);font-family:Arial;font-size:42.15px;stroke:none;">S</text>
  </g>
 </g>
</svg>
