<?xml version="1.0" encoding="UTF-8"?>
<svg height="714.28" width="534.46" xmlns="http://www.w3.org/2000/svg">
 <g id="page" xmlns:svgx="http://www.xml-cml.org/schema/svgx">
  <g begin="text">
   <text y="84.18" x="149.34,162.0,170.941,174.114,177.833,181.551,185.27,188.443,194.323,201.824,209.384,214.245,219.225,222.65,230.143,237.636,242.497,245.922,253.423,260.916,264.089,269.01,276.51,279.684,284.543,292.037,299.055,302.228,308.827,312.252,318.671,323.591,331.084,334.258,342.716,348.295,353.874,360.892,366.473,372.053,383.512,390.53,398.023,402.883,406.056,413.913,420.931,428.491,435.992,441.031,445.982" svgx:width="0.91,0.64,0.23,0.27,0.27,0.27,0.23,0.42,0.54,0.54,0.35,0.35,0.25,0.54,0.54,0.35,0.25,0.54,0.54,0.23,0.35,0.54,0.23,0.35,0.54,0.5,0.23,0.47,0.25,0.46,0.35,0.54,0.23,0.61,0.4,0.4,0.5,0.4,0.4,0.81,0.5,0.54,0.35,0.23,0.56,0.5,0.54,0.54,0.35,0.35,0.23" style="fill:rgb(0,0,0);font-family:Calibri-Bold;font-size:13.98px;stroke:none;">WG III contribution to the Sixth Assessment Report </text>
   <text y="99.36" x="205.44,210.54,213.48,218.28,222.42,225.12,231.6,235.38,238.08,243.12,249.6,253.86,258.12,261.06,266.7,272.76,279.18,285.6,291.54,294.24,298.38,304.86,307.56,313.981,320.041,322.741,325.741,335.521,341.941,344.881,350.941,360.721,366.781,373.201,377.341,383.401,389.82" svgx:width="0.42,0.25,0.4,0.35,0.23,0.54,0.32,0.23,0.42,0.54,0.35,0.35,0.25,0.47,0.5,0.54,0.54,0.49,0.23,0.35,0.54,0.23,0.54,0.5,0.23,0.25,0.81,0.54,0.25,0.5,0.81,0.5,0.54,0.35,0.5,0.54,0.23" style="fill:rgb(0,0,0);font-family:Calibri-Bold;font-size:12.0px;stroke:none;">List of corrigenda to be implemented </text>
   <text y="112.92" x="94.92,101.64,107.756,113.871,116.935,122.456,128.572,132.232,135.892,138.351,144.467,150.527,156.643,162.759,168.875,171.938,174.398,176.858,182.378,185.441,191.557,197.673,200.736,206.796,212.912,215.372,221.488,229.407,232.471,240.391,242.85,245.31,247.77,250.834,256.95,263.066,266.065,268.525,277.645,283.761,286.22,292.336,301.456,307.572,313.688,316.751,322.932,329.048,332.111,334.571,340.686,343.75,346.813,352.929,359.045,362.108,370.028,376.144,382.26,388.376,391.439,397.555,401.215,404.278,410.394,416.51,420.169,422.63,428.746,434.862,437.925,443.385,449.501,455.617,461.224,464.88,470.996,477.112,479.571,482.635,485.094,491.21,497.326,500.345" svgx:width="0.61,0.56,0.56,0.28,0.5,0.56,0.33,0.33,0.22,0.56,0.56,0.56,0.56,0.56,0.28,0.22,0.22,0.5,0.28,0.56,0.56,0.28,0.56,0.56,0.22,0.56,0.72,0.28,0.72,0.22,0.22,0.22,0.28,0.56,0.56,0.28,0.22,0.83,0.56,0.22,0.56,0.83,0.56,0.56,0.28,0.56,0.56,0.28,0.22,0.56,0.28,0.28,0.56,0.56,0.28,0.72,0.56,0.56,0.56,0.28,0.56,0.33,0.28,0.56,0.56,0.33,0.22,0.56,0.56,0.28,0.5,0.56,0.56,0.5,0.33,0.56,0.56,0.22,0.28,0.22,0.56,0.56,0.28,0.28" style="fill:rgb(255,0,0);font-family:ArialMT;font-size:10.98px;stroke:none;">The corrigenda listed below will be implemented in the Chapter during copy-editing. </text>
   <text y="125.525" x="297.666" svgx:width="0.28" style="fill:rgb(255,0,0);font-family:ArialMT;font-size:10.98px;stroke:none;"> </text>
   <text y="135.48" x="70.86" svgx:width="0.23" style="fill:rgb(255,0,0);font-family:Calibri;font-size:7.98px;stroke:none;"> </text>
   <text y="150.96" x="70.86,78.241,87.061,95.519,103.02,109.919,116.759,124.616,127.859,134.933" svgx:width="0.53,0.63,0.61,0.53,0.5,0.49,0.56,0.23,0.51,0.23" style="fill:rgb(192,0,0);font-family:Calibri-Bold;font-size:13.98px;stroke:none;">CHAPTER 4 </text>
   <text y="165.24" x="70.86" svgx:width="0.23" style="fill:rgb(0,0,0);font-family:Calibri;font-size:10.98px;stroke:none;"> </text>
  </g>
  <path style="fill:rgb(217,225,242);stroke:none;stroke-width:1.0;" d="M71.340 610.260 L127.560 610.260 L127.560 673.260 L71.340 673.260 L71.340 610.260 "/>
  <path style="fill:rgb(217,225,242);stroke:none;stroke-width:1.0;" d="M76.500 661.020 L122.400 661.020 L122.400 673.260 L76.500 673.260 L76.500 661.020 "/>
  <g begin="text">
   <text y="178.14" x="77.82,84.12,89.52,93.719,99.058,107.215,112.255,117.655,121.074" svgx:width="0.63,0.54,0.42,0.54,0.81,0.5,0.54,0.35,0.23" style="fill:rgb(0,0,0);font-family:Calibri-Bold;font-size:10.02px;stroke:none;">Document </text>
  </g>
  <path style="fill:rgb(217,225,242);stroke:none;stroke-width:1.0;" d="M71.340 610.260 L127.560 610.260 L127.560 673.260 L71.340 673.260 L71.340 610.260 M76.500 648.840 L122.400 648.840 L122.400 661.020 L76.500 661.020 L76.500 648.840 "/>
  <g begin="text">
   <text y="190.38" x="80.04,83.16,88.44,93.841,98.76,104.16,107.637,112.677,116.217,118.797" svgx:width="0.31,0.53,0.54,0.49,0.54,0.35,0.5,0.35,0.26,0.23" style="fill:rgb(0,0,0);font-family:Calibri-Bold;font-size:10.02px;stroke:none;">(Chapter, </text>
  </g>
  <path style="fill:rgb(217,225,242);stroke:none;stroke-width:1.0;" d="M76.500 636.600 L122.400 636.600 L122.400 648.840 L76.500 648.840 L76.500 636.600 "/>
  <g begin="text">
   <text y="202.56" x="84.9,90.96,96.361,101.762,106.742,111.361,113.941" svgx:width="0.61,0.54,0.54,0.5,0.46,0.26,0.23" style="fill:rgb(0,0,0);font-family:Calibri-Bold;font-size:10.02px;stroke:none;">Annex, </text>
  </g>
  <path style="fill:rgb(217,225,242);stroke:none;stroke-width:1.0;" d="M76.500 624.420 L122.400 624.420 L122.400 636.600 L76.500 636.600 L76.500 624.420 "/>
  <g begin="text">
   <text y="214.8" x="87.66,92.4,97.8,103.141,108.541,111.176" svgx:width="0.47,0.54,0.54,0.54,0.27,0.23" style="fill:rgb(0,0,0);font-family:Calibri-Bold;font-size:10.02px;stroke:none;">Supp. </text>
  </g>
  <path style="fill:rgb(217,225,242);stroke:none;stroke-width:1.0;" d="M76.500 612.240 L122.400 612.240 L122.400 624.420 L76.500 624.420 L76.500 612.240 "/>
  <g begin="text">
   <text y="226.98" x="80.1,88.857,93.778,97.255,102.295,105.835,108.295,113.215,115.675,118.797" svgx:width="0.87,0.49,0.35,0.5,0.35,0.25,0.49,0.25,0.31,0.23" style="fill:rgb(0,0,0);font-family:Calibri-Bold;font-size:10.02px;stroke:none;">Material) </text>
  </g>
  <path style="fill:rgb(217,225,242);stroke:none;stroke-width:1.0;" d="M128.040 610.260 L184.260 610.260 L184.260 673.260 L128.040 673.260 L128.040 610.260 "/>
  <path style="fill:rgb(217,225,242);stroke:none;stroke-width:1.0;" d="M133.200 661.020 L179.100 661.020 L179.100 673.260 L133.200 673.260 L133.200 661.020 "/>
  <g begin="text">
   <text y="178.14" x="146.1,151.44,156.359,161.099" svgx:width="0.53,0.49,0.47,0.5" style="fill:rgb(0,0,0);font-family:Calibri-Bold;font-size:10.02px;stroke:none;">Page</text>
  </g>
  <g begin="text">
   <text y="178.14" x="166.14" svgx:width="0.23" style="fill:rgb(0,0,0);font-family:Calibri-Bold;font-size:10.02px;stroke:none;"> </text>
  </g>
  <path style="fill:rgb(217,225,242);stroke:none;stroke-width:1.0;" d="M128.040 610.260 L184.260 610.260 L184.260 673.260 L128.040 673.260 L128.040 610.260 M128.040 610.260 L184.260 610.260 L184.260 673.260 L128.040 673.260 L128.040 610.260 M133.200 648.840 L179.100 648.840 L179.100 661.020 L133.200 661.020 L133.200 648.840 "/>
  <g begin="text">
   <text y="190.38" x="135.6,138.72,144.362,149.281,153.299,158.279,163.68,165.96,171.3,176.701" svgx:width="0.31,0.56,0.49,0.4,0.5,0.54,0.23,0.54,0.54,0.23" style="fill:rgb(0,0,0);font-family:Calibri-Bold;font-size:10.02px;stroke:none;">(Based on </text>
  </g>
  <path style="fill:rgb(217,225,242);stroke:none;stroke-width:1.0;" d="M133.200 636.600 L179.100 636.600 L179.100 648.840 L133.200 648.840 L133.200 636.600 "/>
  <g begin="text">
   <text y="202.56" x="138.84,142.317,147.717,152.757,155.042,158.163,160.622,166.022,170.942,173.402" svgx:width="0.35,0.54,0.5,0.23,0.32,0.25,0.54,0.49,0.25,0.23" style="fill:rgb(0,0,0);font-family:Calibri-Bold;font-size:10.02px;stroke:none;">the final </text>
  </g>
  <path style="fill:rgb(217,225,242);stroke:none;stroke-width:1.0;" d="M133.200 624.420 L179.100 624.420 L179.100 636.600 L133.200 636.600 L133.200 624.420 "/>
  <g begin="text">
   <text y="214.8" x="139.38,144.781,150.182,153.302,155.586,160.206,166.565,172.865" svgx:width="0.54,0.54,0.32,0.23,0.46,0.64,0.63,0.23" style="fill:rgb(0,0,0);font-family:Calibri-Bold;font-size:10.02px;stroke:none;">pdf FGD </text>
  </g>
  <path style="fill:rgb(217,225,242);stroke:none;stroke-width:1.0;" d="M133.200 612.240 L179.100 612.240 L179.100 624.420 L133.200 624.420 L133.200 612.240 "/>
  <g begin="text">
   <text y="226.98" x="139.32,144.059,149.1,152.639,156.659,159.124,164.463,169.863,172.917" svgx:width="0.47,0.5,0.35,0.4,0.25,0.54,0.54,0.31,0.23" style="fill:rgb(0,0,0);font-family:Calibri-Bold;font-size:10.02px;stroke:none;">version) </text>
  </g>
  <path style="fill:rgb(217,225,242);stroke:none;stroke-width:1.0;" d="M184.740 610.260 L240.960 610.260 L240.960 673.260 L184.740 673.260 L184.740 610.260 "/>
  <path style="fill:rgb(217,225,242);stroke:none;stroke-width:1.0;" d="M189.900 661.020 L235.800 661.020 L235.800 673.260 L189.900 673.260 L189.900 661.020 "/>
  <g begin="text">
   <text y="178.14" x="204.3,208.559,211.019,216.42" svgx:width="0.42,0.25,0.54,0.5" style="fill:rgb(0,0,0);font-family:Calibri-Bold;font-size:10.02px;stroke:none;">Line</text>
  </g>
  <g begin="text">
   <text y="178.14" x="221.4" svgx:width="0.23" style="fill:rgb(0,0,0);font-family:Calibri-Bold;font-size:10.02px;stroke:none;"> </text>
  </g>
  <path style="fill:rgb(217,225,242);stroke:none;stroke-width:1.0;" d="M184.740 610.260 L240.960 610.260 L240.960 673.260 L184.740 673.260 L184.740 610.260 M184.740 610.260 L240.960 610.260 L240.960 673.260 L184.740 673.260 L184.740 610.260 "/>
  <g begin="text">
   <text y="178.14" x="292.14,298.44,303.48,306.96,311.879,314.339,316.799,321.839,327.239,329.524,331.923,337.323,340.5,345.9,349.38,357.537,362.456,365.936,368.396,373.797,379.137,381.416,386.756,392.157,394.436,398.575,403.976,407.516,411.055,416.095,420.294,423.774,426.234,431.634,436.974,439.254,442.735,448.074,450.354,458.51,463.43,468.169" svgx:width="0.63,0.5,0.35,0.49,0.25,0.25,0.5,0.54,0.23,0.25,0.54,0.32,0.54,0.35,0.81,0.49,0.35,0.25,0.54,0.54,0.23,0.54,0.54,0.23,0.42,0.54,0.35,0.35,0.5,0.42,0.35,0.25,0.54,0.54,0.23,0.35,0.54,0.23,0.81,0.49,0.48,0.5" style="fill:rgb(0,0,0);font-family:Calibri-Bold;font-size:10.02px;stroke:none;">Detailed information on correction to make</text>
  </g>
  <g begin="text">
   <text y="178.14" x="473.22" svgx:width="0.23" style="fill:rgb(0,0,0);font-family:Calibri-Bold;font-size:10.02px;stroke:none;"> </text>
  </g>
  <path style="fill:rgb(0,0,0);stroke:none;stroke-width:1.0;" d="M70.860 673.260 L71.340 673.260 L71.340 673.740 L70.860 673.740 L70.860 673.260 "/>
  <path style="fill:rgb(0,0,0);stroke:none;stroke-width:1.0;" d="M70.860 673.260 L71.340 673.260 L71.340 673.740 L70.860 673.740 L70.860 673.260 "/>
  <path style="fill:rgb(0,0,0);stroke:none;stroke-width:1.0;" d="M71.340 673.260 L127.560 673.260 L127.560 673.740 L71.340 673.740 L71.340 673.260 "/>
  <path style="fill:rgb(0,0,0);stroke:none;stroke-width:1.0;" d="M127.560 673.260 L128.040 673.260 L128.040 673.740 L127.560 673.740 L127.560 673.260 "/>
  <path style="fill:rgb(0,0,0);stroke:none;stroke-width:1.0;" d="M128.040 673.260 L184.260 673.260 L184.260 673.740 L128.040 673.740 L128.040 673.260 "/>
  <path style="fill:rgb(0,0,0);stroke:none;stroke-width:1.0;" d="M184.260 673.260 L184.740 673.260 L184.740 673.740 L184.260 673.740 L184.260 673.260 "/>
  <path style="fill:rgb(0,0,0);stroke:none;stroke-width:1.0;" d="M184.740 673.260 L240.960 673.260 L240.960 673.740 L184.740 673.740 L184.740 673.260 "/>
  <path style="fill:rgb(0,0,0);stroke:none;stroke-width:1.0;" d="M240.960 673.260 L241.440 673.260 L241.440 673.740 L240.960 673.740 L240.960 673.260 "/>
  <path style="fill:rgb(0,0,0);stroke:none;stroke-width:1.0;" d="M523.980 673.260 L524.460 673.260 L524.460 673.740 L523.980 673.740 L523.980 673.260 "/>
  <path style="fill:rgb(0,0,0);stroke:none;stroke-width:1.0;" d="M523.980 673.260 L524.460 673.260 L524.460 673.740 L523.980 673.740 L523.980 673.260 "/>
  <path style="fill:rgb(0,0,0);stroke:none;stroke-width:1.0;" d="M70.860 610.260 L71.340 610.260 L71.340 673.260 L70.860 673.260 L70.860 610.260 "/>
  <path style="fill:rgb(0,0,0);stroke:none;stroke-width:1.0;" d="M127.560 610.260 L128.040 610.260 L128.040 673.260 L127.560 673.260 L127.560 610.260 "/>
  <path style="fill:rgb(0,0,0);stroke:none;stroke-width:1.0;" d="M184.260 610.260 L184.740 610.260 L184.740 673.260 L184.260 673.260 L184.260 610.260 "/>
  <path style="fill:rgb(0,0,0);stroke:none;stroke-width:1.0;" d="M240.960 610.260 L241.440 610.260 L241.440 673.260 L240.960 673.260 L240.960 610.260 "/>
  <path style="fill:rgb(0,0,0);stroke:none;stroke-width:1.0;" d="M523.980 610.260 L524.460 610.260 L524.460 673.260 L523.980 673.260 L523.980 610.260 "/>
  <g begin="text">
   <text y="241.62" x="76.5,81.841,87.121,91.921,97.201,100.558,105.538,108.958,111.242" svgx:width="0.53,0.52,0.48,0.52,0.34,0.5,0.35,0.23,0.51" style="fill:rgb(0,0,0);font-family:Calibri;font-size:10.02px;stroke:none;">Chapter 4</text>
  </g>
  <g begin="text">
   <text y="241.62" x="116.28" svgx:width="0.23" style="fill:rgb(0,0,0);font-family:Calibri;font-size:10.02px;stroke:none;"> </text>
  </g>
  <g begin="text">
   <text y="241.62" x="133.2" svgx:width="0.51" style="fill:rgb(0,0,0);font-family:Calibri;font-size:10.02px;stroke:none;">9</text>
  </g>
  <g begin="text">
   <text y="241.62" x="138.24" svgx:width="0.23" style="fill:rgb(0,0,0);font-family:Calibri;font-size:10.02px;stroke:none;"> </text>
  </g>
  <g begin="text">
   <text y="241.62" x="189.9,195.0" svgx:width="0.51,0.51" style="fill:rgb(0,0,0);font-family:Calibri;font-size:10.02px;stroke:none;">38</text>
  </g>
  <g begin="text">
   <text y="241.62" x="200.1" svgx:width="0.31" style="fill:rgb(0,0,0);font-family:Calibri;font-size:10.02px;stroke:none;">-</text>
  </g>
  <g begin="text">
   <text y="241.62" x="203.1,208.2" svgx:width="0.51,0.51" style="fill:rgb(0,0,0);font-family:Calibri;font-size:10.02px;stroke:none;">41</text>
  </g>
  <g begin="text">
   <text y="241.62" x="213.24" svgx:width="0.23" style="fill:rgb(0,0,0);font-family:Calibri;font-size:10.02px;stroke:none;"> </text>
  </g>
  <g begin="text">
   <text y="241.62" x="246.6,252.06,257.04,262.32,264.6,269.401,273.6,278.58" svgx:width="0.54,0.5,0.52,0.23,0.48,0.42,0.5,0.27" style="fill:rgb(0,0,0);font-family:Calibri;font-size:10.02px;stroke:none;">Replace:</text>
  </g>
  <g begin="text">
   <text y="241.62" x="281.22" svgx:width="0.23" style="fill:rgb(0,0,0);font-family:Calibri;font-size:10.02px;stroke:none;"> </text>
  </g>
  <g begin="text">
   <text y="253.86" x="246.6,255.18,260.461,263.941,268.921,274.201,278.701,283.681,287.161,289.681,291.966,295.265,300.545,305.765,311.045,315.785,321.006,323.285,327.185,332.465,340.445,345.425,347.705,351.905,357.186,362.406,367.686,371.042,374.522,376.802,381.782,385.682,387.966,390.246,392.526,397.085,402.065,404.345,409.686,414.965,417.246,422.465,427.265,429.549,434.829,439.628,444.128,449.108,451.328,456.608,461.889,465.246,467.525,471.365,476.645,481.866,489.846,492.125,495.482,498.839,503.819,509.098" svgx:width="0.86,0.53,0.35,0.5,0.53,0.45,0.5,0.35,0.25,0.23,0.34,0.52,0.53,0.52,0.47,0.52,0.23,0.39,0.53,0.8,0.5,0.23,0.42,0.53,0.52,0.52,0.34,0.35,0.23,0.5,0.39,0.23,0.23,0.23,0.46,0.5,0.23,0.53,0.52,0.23,0.52,0.48,0.23,0.52,0.48,0.45,0.5,0.23,0.52,0.53,0.34,0.23,0.39,0.52,0.52,0.8,0.23,0.34,0.34,0.5,0.52,0.23" style="fill:rgb(0,0,0);font-family:Calibri;font-size:10.02px;stroke:none;">Moreover, though some countries like China have not submitted </text>
   <text y="266.044" x="246.6,249.96,255.24,260.22,262.5,265.98,268.264,273.484,278.764,284.045,288.845,292.205,297.125,302.405,304.625,311.105,317.287,322.628,326.527,328.747,333.306,338.286,341.647,344.107,346.386,349.746,355.026,359.946,364.446,366.731,372.011,376.811,381.312,386.292,388.571,393.372,395.651,399.131,404.111,408.852,414.132,418.691,420.912,425.651,430.932,436.212,441.493,446.712,451.993,456.251,461.171,466.452,468.731,472.032,477.313,482.292,484.513,487.993" svgx:width="0.34,0.52,0.5,0.23,0.35,0.23,0.52,0.52,0.52,0.48,0.34,0.5,0.52,0.23,0.65,0.62,0.53,0.39,0.23,0.45,0.5,0.34,0.25,0.23,0.34,0.52,0.5,0.45,0.23,0.52,0.48,0.45,0.5,0.23,0.48,0.23,0.35,0.5,0.48,0.52,0.45,0.23,0.48,0.52,0.52,0.53,0.52,0.52,0.42,0.5,0.52,0.23,0.34,0.52,0.5,0.23,0.35,0.23" style="fill:rgb(0,0,0);font-family:Calibri;font-size:10.02px;stroke:none;">their updated NDCs yet, they have already announced their </text>
   <text y="278.289" x="246.6,251.881,257.16,262.44,267.18,270.537,275.517,280.797,283.017,289.497,295.617,300.958,303.237,307.917,313.198,317.998,320.278,324.178,326.459,330.359,335.64,343.62,348.6,355.74,361.019,365.999,369.479,374.459,376.974" svgx:width="0.52,0.52,0.52,0.48,0.34,0.5,0.52,0.23,0.65,0.62,0.53,0.23,0.47,0.53,0.48,0.23,0.39,0.23,0.39,0.53,0.8,0.5,0.71,0.52,0.5,0.35,0.5,0.25,0.23" style="fill:rgb(0,0,0);font-family:Calibri;font-size:10.02px;stroke:none;">updated NDC goals somewhere. </text>
   <text y="290.473" x="246.6" svgx:width="0.23" style="fill:rgb(0,0,0);font-family:Calibri;font-size:10.02px;stroke:none;"> </text>
   <text y="302.718" x="246.6,255.54,257.82,261.18,266.401,269.045" svgx:width="0.89,0.23,0.34,0.52,0.27,0.23" style="fill:rgb(0,0,0);font-family:Calibri;font-size:10.02px;stroke:none;">With: </text>
   <text y="314.902" x="246.6,255.18,260.461,263.941,268.921,274.201,278.701,283.681,287.161,289.681,291.966,295.265,300.545,305.765,311.045,315.785,321.006,323.285,327.185,332.465,340.445,345.425,347.705,351.905,357.186,362.406,367.686,371.042,374.522,376.802,381.782,385.682,387.966,393.246,398.045,402.545,407.525,409.745,415.025,420.306,423.606,425.886,429.786,435.066,440.346,448.327,450.606,453.963,457.32,462.24,467.519,469.804,473.16,478.381,483.301,485.58,489.06" svgx:width="0.86,0.53,0.35,0.5,0.53,0.45,0.5,0.35,0.25,0.23,0.34,0.52,0.53,0.52,0.47,0.52,0.23,0.39,0.53,0.8,0.5,0.23,0.42,0.53,0.52,0.52,0.34,0.35,0.23,0.5,0.39,0.23,0.52,0.48,0.45,0.5,0.23,0.52,0.53,0.34,0.23,0.39,0.52,0.52,0.8,0.23,0.34,0.34,0.5,0.52,0.23,0.34,0.52,0.5,0.23,0.35,0.23" style="fill:rgb(0,0,0);font-family:Calibri;font-size:10.02px;stroke:none;">Moreover, though some countries have not submitted their </text>
   <text y="327.146" x="246.6,251.881,257.161,262.442,267.182,270.542,275.522,280.802,283.022,289.503,295.622,300.962,304.862,307.082,311.641,316.621,319.981,322.441,324.721,328.082,333.362,338.282,342.841,345.066,350.346,355.147,359.647,364.627,366.846,371.647,373.926,377.406,382.386,387.187,392.467,397.026,399.246,404.046,409.327,414.547,419.827,425.047,430.328,434.586,439.566,444.787,447.066,450.426,455.706,460.686,462.966,466.446,468.67,473.951,479.17,484.391,489.19,492.551,497.531,502.811" svgx:width="0.52,0.52,0.52,0.48,0.34,0.5,0.52,0.23,0.65,0.62,0.53,0.39,0.23,0.45,0.5,0.34,0.25,0.23,0.34,0.52,0.5,0.45,0.23,0.52,0.48,0.45,0.5,0.23,0.48,0.23,0.35,0.5,0.48,0.52,0.45,0.23,0.48,0.52,0.52,0.53,0.52,0.52,0.42,0.5,0.52,0.23,0.34,0.52,0.5,0.23,0.35,0.23,0.52,0.52,0.52,0.48,0.34,0.5,0.52,0.23" style="fill:rgb(0,0,0);font-family:Calibri;font-size:10.02px;stroke:none;">updated NDCs yet, they have already announced their updated </text>
  </g>
  <g begin="text">
   <text y="339.3" x="246.6,253.08,259.26,264.6,266.824,271.564,276.843,281.644,283.918,287.816,290.096,293.994,299.274,307.194,312.174,319.318,324.598,329.578,333.054,338.034" svgx:width="0.65,0.62,0.53,0.23,0.47,0.53,0.48,0.23,0.39,0.23,0.39,0.53,0.8,0.5,0.71,0.52,0.5,0.35,0.5,0.25" style="fill:rgb(0,0,0);font-family:Calibri;font-size:10.02px;stroke:none;">NDC goals somewhere.</text>
  </g>
  <g begin="text">
   <text y="339.3" x="340.56" svgx:width="0.23" style="fill:rgb(0,0,0);font-family:Calibri;font-size:10.02px;stroke:none;"> </text>
  </g>
  <path style="fill:rgb(0,0,0);stroke:none;stroke-width:1.0;" d="M70.860 609.780 L71.340 609.780 L71.340 610.260 L70.860 610.260 L70.860 609.780 "/>
  <path style="fill:rgb(0,0,0);stroke:none;stroke-width:1.0;" d="M71.340 609.780 L127.560 609.780 L127.560 610.260 L71.340 610.260 L71.340 609.780 "/>
  <path style="fill:rgb(0,0,0);stroke:none;stroke-width:1.0;" d="M127.560 609.780 L128.040 609.780 L128.040 610.260 L127.560 610.260 L127.560 609.780 "/>
  <path style="fill:rgb(0,0,0);stroke:none;stroke-width:1.0;" d="M128.040 609.780 L184.260 609.780 L184.260 610.260 L128.040 610.260 L128.040 609.780 "/>
  <path style="fill:rgb(0,0,0);stroke:none;stroke-width:1.0;" d="M184.260 609.780 L184.740 609.780 L184.740 610.260 L184.260 610.260 L184.260 609.780 "/>
  <path style="fill:rgb(0,0,0);stroke:none;stroke-width:1.0;" d="M184.740 609.780 L240.960 609.780 L240.960 610.260 L184.740 610.260 L184.740 609.780 "/>
  <path style="fill:rgb(0,0,0);stroke:none;stroke-width:1.0;" d="M240.960 609.780 L241.440 609.780 L241.440 610.260 L240.960 610.260 L240.960 609.780 "/>
  <path style="fill:rgb(0,0,0);stroke:none;stroke-width:1.0;" d="M523.980 609.780 L524.460 609.780 L524.460 610.260 L523.980 610.260 L523.980 609.780 "/>
  <g begin="text">
   <text y="352.38" x="76.5,81.841,87.121,91.921,97.201,100.558,105.538,108.958,111.242" svgx:width="0.53,0.52,0.48,0.52,0.34,0.5,0.35,0.23,0.51" style="fill:rgb(0,0,0);font-family:Calibri;font-size:10.02px;stroke:none;">Chapter 4</text>
  </g>
  <g begin="text">
   <text y="352.38" x="116.28" svgx:width="0.23" style="fill:rgb(0,0,0);font-family:Calibri;font-size:10.02px;stroke:none;"> </text>
  </g>
  <g begin="text">
   <text y="352.38" x="133.2,138.3" svgx:width="0.51,0.51" style="fill:rgb(0,0,0);font-family:Calibri;font-size:10.02px;stroke:none;">34</text>
  </g>
  <g begin="text">
   <text y="352.38" x="143.34" svgx:width="0.23" style="fill:rgb(0,0,0);font-family:Calibri;font-size:10.02px;stroke:none;"> </text>
  </g>
  <g begin="text">
   <text y="352.38" x="189.9,195.0" svgx:width="0.51,0.51" style="fill:rgb(0,0,0);font-family:Calibri;font-size:10.02px;stroke:none;">16</text>
  </g>
  <g begin="text">
   <text y="352.38" x="200.1" svgx:width="0.31" style="fill:rgb(0,0,0);font-family:Calibri;font-size:10.02px;stroke:none;">-</text>
  </g>
  <g begin="text">
   <text y="352.38" x="203.1,208.2" svgx:width="0.51,0.51" style="fill:rgb(0,0,0);font-family:Calibri;font-size:10.02px;stroke:none;">17</text>
  </g>
  <g begin="text">
   <text y="352.38" x="213.24" svgx:width="0.23" style="fill:rgb(0,0,0);font-family:Calibri;font-size:10.02px;stroke:none;"> </text>
  </g>
  <g begin="text">
   <text y="352.38" x="246.6,252.06,257.04,262.32,264.6,269.401,273.6,278.58" svgx:width="0.54,0.5,0.52,0.23,0.48,0.42,0.5,0.27" style="fill:rgb(0,0,0);font-family:Calibri;font-size:10.02px;stroke:none;">Replace:</text>
  </g>
  <g begin="text">
   <text y="352.38" x="281.22" svgx:width="0.23" style="fill:rgb(0,0,0);font-family:Calibri;font-size:10.02px;stroke:none;"> </text>
  </g>
  <g begin="text">
   <text y="364.62" x="246.6,251.94,257.22,259.5,264.78,269.58,271.864,276.604,281.884,287.104,289.388,294.008,299.227,304.508,307.807,313.088,315.367,320.587,325.867,329.347,334.327,339.068,341.588,343.807,349.088,353.887,358.387,363.367,365.587,373.567,378.367,383.647,388.627,390.907,395.708,400.927,406.208,411.487,416.707,421.988,426.188,431.168,439.148,444.128,449.409,452.769,456.668,458.953,464.232,467.292,469.513,473.771,478.572,482.052,487.271,492.552,497.832" svgx:width="0.53,0.52,0.23,0.52,0.48,0.23,0.48,0.52,0.52,0.23,0.46,0.53,0.52,0.34,0.52,0.23,0.52,0.53,0.35,0.5,0.48,0.25,0.23,0.52,0.48,0.45,0.5,0.23,0.8,0.48,0.52,0.5,0.23,0.48,0.52,0.52,0.53,0.52,0.52,0.42,0.5,0.8,0.5,0.52,0.34,0.39,0.23,0.53,0.31,0.23,0.42,0.48,0.35,0.52,0.53,0.52,0.23" style="fill:rgb(0,0,0);font-family:Calibri;font-size:10.02px;stroke:none;">China and South Korea, have made announcements of carbon </text>
   <text y="376.804" x="246.6,251.881,256.861,262.14,265.497,268.977,273.776,276.056,278.336,281.693,286.193,288.473,293.693,298.253,300.478,305.518,310.618,315.658,320.758,323.038,327.778,333.059,338.339,340.559,345.839,350.819,354.179,356.458,360.359,365.279,368.759,374.038,376.323,382.622,388.863,395.163,397.447,402.427,410.407,412.687,416.587,420.487,422.767,428.047,433.328,435.612,440.832,445.391,447.611,452.711,457.751,462.852,467.892,470.412" svgx:width="0.52,0.5,0.52,0.34,0.35,0.48,0.23,0.23,0.34,0.45,0.23,0.52,0.45,0.23,0.51,0.51,0.51,0.51,0.23,0.48,0.52,0.52,0.23,0.52,0.5,0.34,0.23,0.4,0.5,0.35,0.53,0.23,0.63,0.62,0.63,0.23,0.5,0.8,0.23,0.39,0.39,0.23,0.53,0.52,0.23,0.52,0.45,0.23,0.51,0.51,0.51,0.51,0.25,0.23" style="fill:rgb(0,0,0);font-family:Calibri;font-size:10.02px;stroke:none;">neutrality by 2060 and net zero GHG emission by 2050, </text>
   <text y="389.049" x="246.6,250.08,255.06,258.96,264.24,269.22,273.479,276.839,279.119,283.619,288.599,290.879,295.439,297.658,300.714,307.074,313.555,315.834,320.874,325.974,331.014,336.115,340.914,343.374,348.655,351.711,354.185" svgx:width="0.35,0.5,0.39,0.52,0.5,0.42,0.34,0.23,0.45,0.5,0.23,0.45,0.23,0.3,0.64,0.65,0.23,0.51,0.51,0.51,0.51,0.48,0.25,0.52,0.3,0.25,0.23" style="fill:rgb(0,0,0);font-family:Calibri;font-size:10.02px;stroke:none;">respectively (UN 2020a,b). </text>
   <text y="401.233" x="246.6" svgx:width="0.23" style="fill:rgb(0,0,0);font-family:Calibri;font-size:10.02px;stroke:none;"> </text>
   <text y="413.478" x="246.6,255.54,257.82,261.18,266.401,269.045" svgx:width="0.89,0.23,0.34,0.52,0.27,0.23" style="fill:rgb(0,0,0);font-family:Calibri;font-size:10.02px;stroke:none;">With: </text>
   <text y="425.662" x="246.6,251.94,257.22,259.5,264.78,269.58,271.864,276.604,281.884,287.104,289.388,294.008,299.227,304.508,307.807,313.088,315.367,320.587,325.867,329.347,334.327,339.068,341.588,343.807,349.088,353.887,358.387,363.367,365.587,373.567,378.367,383.647,388.627,390.907,395.708,400.927,406.208,411.487,416.707,421.988,426.188,431.168,439.148,444.128,449.409,452.769,456.668,458.953,464.232,467.292,469.513,473.771,478.572,482.052,487.271,492.552,497.832" svgx:width="0.53,0.52,0.23,0.52,0.48,0.23,0.48,0.52,0.52,0.23,0.46,0.53,0.52,0.34,0.52,0.23,0.52,0.53,0.35,0.5,0.48,0.25,0.23,0.52,0.48,0.45,0.5,0.23,0.8,0.48,0.52,0.5,0.23,0.48,0.52,0.52,0.53,0.52,0.52,0.42,0.5,0.8,0.5,0.52,0.34,0.39,0.23,0.53,0.31,0.23,0.42,0.48,0.35,0.52,0.53,0.52,0.23" style="fill:rgb(0,0,0);font-family:Calibri;font-size:10.02px;stroke:none;">China and South Korea, have made announcements of carbon </text>
   <text y="437.846" x="246.6,251.881,256.86,262.141,265.501,268.981,273.781,276.061,278.341,281.701,286.201,288.486,293.766,298.746,301.746,306.966,310.446,315.426,317.706,322.806,327.846,332.946,337.986,340.266,345.067,350.286,355.567,357.786,363.066,367.986,371.346,373.631,377.59,382.57,386.05,391.331,393.61,399.91,406.15,412.45,414.735,419.715,427.634,429.915,433.815,437.714,439.994,445.275,450.555,452.84,458.12,462.679,464.9,470.0,475.04,480.14,485.18,487.64" svgx:width="0.52,0.5,0.52,0.34,0.35,0.48,0.23,0.23,0.34,0.45,0.23,0.52,0.5,0.31,0.53,0.35,0.5,0.23,0.51,0.51,0.51,0.51,0.23,0.48,0.52,0.52,0.23,0.52,0.5,0.34,0.23,0.4,0.5,0.35,0.53,0.23,0.63,0.62,0.63,0.23,0.5,0.8,0.23,0.39,0.39,0.23,0.53,0.52,0.23,0.52,0.45,0.23,0.51,0.51,0.51,0.51,0.25,0.23" style="fill:rgb(0,0,0);font-family:Calibri;font-size:10.02px;stroke:none;">neutrality before 2060 and net zero GHG emission by 2050, </text>
  </g>
  <g begin="text">
   <text y="450.06" x="246.6,250.08,255.06,258.96,264.24,269.22,273.479,276.839,279.119,283.619,288.599,290.879,295.439,297.658,300.714,307.074,313.555,315.834,320.874,325.974,331.014,336.115,340.914,343.374,348.655,351.711" svgx:width="0.35,0.5,0.39,0.52,0.5,0.42,0.34,0.23,0.45,0.5,0.23,0.45,0.23,0.3,0.64,0.65,0.23,0.51,0.51,0.51,0.51,0.48,0.25,0.52,0.3,0.25" style="fill:rgb(0,0,0);font-family:Calibri;font-size:10.02px;stroke:none;">respectively (UN 2020a,b).</text>
  </g>
  <g begin="text">
   <text y="450.06" x="354.18" svgx:width="0.23" style="fill:rgb(0,0,0);font-family:Calibri;font-size:10.02px;stroke:none;"> </text>
  </g>
  <path style="fill:rgb(0,0,0);stroke:none;stroke-width:1.0;" d="M70.860 499.020 L71.340 499.020 L71.340 499.500 L70.860 499.500 L70.860 499.020 "/>
  <path style="fill:rgb(0,0,0);stroke:none;stroke-width:1.0;" d="M71.340 499.020 L127.560 499.020 L127.560 499.500 L71.340 499.500 L71.340 499.020 "/>
  <path style="fill:rgb(0,0,0);stroke:none;stroke-width:1.0;" d="M127.560 499.020 L128.040 499.020 L128.040 499.500 L127.560 499.500 L127.560 499.020 "/>
  <path style="fill:rgb(0,0,0);stroke:none;stroke-width:1.0;" d="M128.040 499.020 L184.260 499.020 L184.260 499.500 L128.040 499.500 L128.040 499.020 "/>
  <path style="fill:rgb(0,0,0);stroke:none;stroke-width:1.0;" d="M184.260 499.020 L184.740 499.020 L184.740 499.500 L184.260 499.500 L184.260 499.020 "/>
  <path style="fill:rgb(0,0,0);stroke:none;stroke-width:1.0;" d="M184.740 499.020 L240.960 499.020 L240.960 499.500 L184.740 499.500 L184.740 499.020 "/>
  <path style="fill:rgb(0,0,0);stroke:none;stroke-width:1.0;" d="M240.960 499.020 L241.440 499.020 L241.440 499.500 L240.960 499.500 L240.960 499.020 "/>
  <path style="fill:rgb(0,0,0);stroke:none;stroke-width:1.0;" d="M523.980 499.020 L524.460 499.020 L524.460 499.500 L523.980 499.500 L523.980 499.020 "/>
  <g begin="text">
   <text y="462.78" x="76.5,81.841,87.121,91.921,97.201,100.558,105.538,108.958,111.242" svgx:width="0.53,0.52,0.48,0.52,0.34,0.5,0.35,0.23,0.51" style="fill:rgb(0,0,0);font-family:Calibri;font-size:10.02px;stroke:none;">Chapter 4</text>
  </g>
  <g begin="text">
   <text y="462.78" x="116.28" svgx:width="0.23" style="fill:rgb(0,0,0);font-family:Calibri;font-size:10.02px;stroke:none;"> </text>
  </g>
  <g begin="text">
   <text y="462.78" x="133.2,138.3" svgx:width="0.51,0.51" style="fill:rgb(0,0,0);font-family:Calibri;font-size:10.02px;stroke:none;">89</text>
  </g>
  <g begin="text">
   <text y="462.78" x="143.34" svgx:width="0.23" style="fill:rgb(0,0,0);font-family:Calibri;font-size:10.02px;stroke:none;"> </text>
  </g>
  <g begin="text">
   <text y="462.78" x="189.9" svgx:width="0.51" style="fill:rgb(0,0,0);font-family:Calibri;font-size:10.02px;stroke:none;">7</text>
  </g>
  <g begin="text">
   <text y="462.78" x="194.94" svgx:width="0.23" style="fill:rgb(0,0,0);font-family:Calibri;font-size:10.02px;stroke:none;"> </text>
  </g>
  <g begin="text">
   <text y="462.78" x="246.6,252.06,257.04,262.32,264.6,269.401,273.6,278.58" svgx:width="0.54,0.5,0.52,0.23,0.48,0.42,0.5,0.27" style="fill:rgb(0,0,0);font-family:Calibri;font-size:10.02px;stroke:none;">Replace:</text>
  </g>
  <g begin="text">
   <text y="462.78" x="281.22" svgx:width="0.23" style="fill:rgb(0,0,0);font-family:Calibri;font-size:10.02px;stroke:none;"> </text>
  </g>
  <g begin="text">
   <text y="474.96" x="246.6,252.06,257.04,260.94,265.92,270.719,274.199,278.398,283.679,285.959,290.219,295.439,300.719,303.775,305.995,309.476,317.455,321.355,323.635,326.991,332.272,337.072,340.428,342.708,347.448,349.728,355.008,360.289,363.709,368.989,373.969,377.449,379.729,383.989,388.789,392.21,397.489,402.77,407.99,410.27,413.626,418.426,422.746,424.966,428.026,433.307,436.788,439.067,443.867,449.087,451.482,456.763,460.662,464.019,471.999,476.979,482.199,485.499,488.559,491.079,493.359,497.259,502.239,505.539,507.823,513.104,518.385" svgx:width="0.54,0.5,0.39,0.5,0.48,0.35,0.42,0.52,0.23,0.42,0.53,0.52,0.31,0.23,0.35,0.8,0.39,0.23,0.34,0.52,0.48,0.34,0.23,0.48,0.23,0.52,0.53,0.35,0.52,0.5,0.35,0.23,0.42,0.48,0.35,0.52,0.53,0.52,0.23,0.34,0.48,0.43,0.23,0.3,0.53,0.35,0.23,0.48,0.52,0.24,0.52,0.39,0.34,0.8,0.5,0.52,0.34,0.3,0.25,0.23,0.39,0.5,0.34,0.23,0.53,0.52,0.23" style="fill:rgb(0,0,0);font-family:Calibri;font-size:10.02px;stroke:none;">Research confirms that a border carbon tax (or adjustment), set on </text>
   <text y="487.204" x="246.6,249.957,255.237,260.217,262.497,267.717,272.517,276.418,278.697,282.597,284.881,290.162,293.218,295.498,298.798,304.018,308.998,311.282,315.542,320.341,323.821,329.041,334.321,339.601,341.821,346.082,351.362,356.583,359.939,364.859,370.14,373.496,375.776,381.056,384.056,386.336,389.693,394.973,399.893,402.178,404.457,412.437,417.718,422.937,426.417,429.774,432.293,434.577,436.857,442.077,446.337,448.617,453.897,459.177,461.457,466.677,471.417,473.701,478.441" svgx:width="0.34,0.52,0.5,0.23,0.52,0.48,0.39,0.23,0.39,0.23,0.53,0.31,0.23,0.34,0.52,0.5,0.23,0.42,0.48,0.35,0.52,0.53,0.52,0.23,0.42,0.53,0.52,0.34,0.5,0.52,0.34,0.23,0.53,0.31,0.23,0.34,0.52,0.5,0.23,0.23,0.8,0.52,0.53,0.35,0.34,0.25,0.23,0.23,0.52,0.42,0.23,0.52,0.52,0.23,0.52,0.47,0.23,0.48,0.23" style="fill:rgb(0,0,0);font-family:Calibri;font-size:10.02px;stroke:none;">the basis of the carbon content of the import, including a </text>
   <text y="499.389" x="246.6,251.881,257.161,264.301,269.581,276.721,281.521,285.001,290.221,292.501,297.3,302.58,304.92,310.2,314.1,317.456,325.436,330.416,335.696,339.053,341.332,346.552,351.832,354.112,357.412,362.632,367.613,369.892,375.172,379.971,383.871,386.151,390.051,392.331,397.611,400.667,402.947,407.686,412.967,417.467,419.747,423.947,428.747,432.227,437.507,442.788,448.068,450.288,455.568,460.308,464.868,472.848,477.829,483.048,486.405,490.305,492.585,495.645,499.002,503.801,508.121,513.101,517.001" svgx:width="0.52,0.53,0.71,0.52,0.71,0.48,0.35,0.52,0.23,0.48,0.52,0.24,0.52,0.39,0.34,0.8,0.5,0.52,0.34,0.23,0.53,0.52,0.23,0.34,0.52,0.5,0.23,0.52,0.48,0.39,0.23,0.39,0.23,0.53,0.31,0.23,0.48,0.52,0.45,0.23,0.42,0.48,0.35,0.52,0.53,0.52,0.23,0.52,0.48,0.45,0.8,0.5,0.52,0.34,0.39,0.23,0.3,0.34,0.48,0.43,0.5,0.39,0.23" style="fill:rgb(0,0,0);font-family:Calibri;font-size:10.02px;stroke:none;">downward adjustment on the basis of any carbon payments (taxes </text>
   <text y="511.633" x="246.6,251.881,255.359,257.644,262.924,266.284,271.565,276.545,280.025,283.025,285.309,290.109,292.389,295.869,300.849,305.589,310.869,315.428,317.708,325.688,330.428,335.709,340.689,342.909,348.19,353.17,356.23,361.509,364.929,369.909,372.194,377.174,382.454,385.815,389.235,393.794,396.314,398.533,402.792,408.071,413.352,415.571,420.852,423.071,426.551,431.531,436.812,442.092,446.351,451.271,453.55,457.809,462.608,466.029,471.31,476.59,481.81,484.03,486.31,491.289,496.09,500.65,505.45,510.189,515.169" svgx:width="0.53,0.35,0.23,0.53,0.34,0.52,0.5,0.35,0.3,0.23,0.48,0.23,0.35,0.5,0.48,0.52,0.45,0.23,0.8,0.48,0.52,0.5,0.23,0.52,0.5,0.31,0.53,0.35,0.5,0.23,0.5,0.52,0.34,0.35,0.45,0.25,0.23,0.42,0.53,0.52,0.23,0.52,0.23,0.35,0.5,0.52,0.52,0.42,0.5,0.23,0.42,0.48,0.35,0.52,0.53,0.52,0.23,0.23,0.5,0.48,0.46,0.48,0.47,0.5,0.23" style="fill:rgb(0,0,0);font-family:Calibri;font-size:10.02px;stroke:none;">or other) already made before entry, could reduce carbon leakage </text>
   <text y="523.818" x="246.6,253.744,259.025,261.304,263.585,268.565,270.844,275.645,277.924,281.825,287.105,289.384,292.865,297.665,299.945,303.845,306.125,311.405,316.145,318.429,323.169,328.449,333.73,336.01,339.37,341.65,346.87,352.151,356.951,359.231,361.515,364.935,369.915,374.415,379.395,384.675,389.956,394.936,397.221,401.96,407.241,412.46,414.744,419.724,424.944,429.202,434.482,439.762,443.242,447.982,452.721,455.001,460.281,464.962,467.241,471.5,476.3,479.72,484.941,490.22,495.501" svgx:width="0.71,0.52,0.23,0.23,0.5,0.23,0.48,0.23,0.39,0.53,0.23,0.35,0.48,0.23,0.39,0.23,0.52,0.47,0.23,0.48,0.52,0.52,0.23,0.34,0.23,0.53,0.52,0.48,0.23,0.23,0.35,0.5,0.45,0.5,0.52,0.52,0.5,0.23,0.48,0.52,0.52,0.23,0.5,0.52,0.42,0.53,0.52,0.35,0.48,0.47,0.23,0.52,0.47,0.23,0.42,0.48,0.35,0.52,0.53,0.52,0.23" style="fill:rgb(0,0,0);font-family:Calibri;font-size:10.02px;stroke:none;">while also raising additional revenue and encouraging carbon </text>
   <text y="536.002" x="246.6,251.881,255.359,257.64,261.899,264.178,269.459,274.138,276.423,278.702,283.983,286.262,289.562,294.842,299.822,302.102,307.023,311.342,316.623,321.902,325.382,328.742,331.023,336.303,340.983,343.263,347.521,352.741,358.021,363.302,366.603,370.083,374.642,376.921,379.921,388.859,391.14,394.499,399.72,404.519,409.8,414.599,416.82,423.603" svgx:width="0.52,0.35,0.23,0.42,0.23,0.52,0.47,0.23,0.23,0.52,0.23,0.34,0.52,0.5,0.23,0.5,0.43,0.52,0.53,0.35,0.34,0.23,0.52,0.47,0.23,0.42,0.53,0.52,0.52,0.34,0.35,0.45,0.23,0.3,0.89,0.23,0.34,0.52,0.48,0.52,0.48,0.23,0.68,0.23" style="fill:rgb(0,0,0);font-family:Calibri;font-size:10.02px;stroke:none;">pricing in the exporting country (Withana &amp; </text>
   <text y="548.246" x="246.6,248.885,253.504,255.783,259.263,261.544,266.824,269.105,271.384,276.425,281.525,286.565,291.665,294.304,296.589,301.928,307.149,311.049,316.329,321.309,325.868,328.153,333.133,336.432,338.717,343.516,345.797,348.016,353.117,358.157,363.257,368.297,371.353,373.864" svgx:width="0.23,0.46,0.23,0.35,0.23,0.52,0.23,0.23,0.51,0.51,0.51,0.51,0.27,0.23,0.53,0.53,0.39,0.52,0.5,0.45,0.23,0.5,0.34,0.23,0.48,0.23,0.23,0.51,0.51,0.51,0.51,0.3,0.25,0.23" style="fill:rgb(0,0,0);font-family:Calibri;font-size:10.02px;stroke:none;"> Sirini 2016; Cosbey et al 2019). </text>
   <text y="560.431" x="246.6" svgx:width="0.23" style="fill:rgb(0,0,0);font-family:Calibri;font-size:10.02px;stroke:none;"> </text>
   <text y="572.675" x="246.6,255.54,257.82,261.18,266.401,269.101,271.319" svgx:width="0.89,0.23,0.34,0.52,0.27,0.23,0.23" style="fill:rgb(0,0,0);font-family:Calibri;font-size:10.02px;stroke:none;">With: </text>
   <text y="584.859" x="246.6,251.219,256.499,264.479,269.459,271.743,275.223,280.203,284.103,289.083,293.883,297.363,301.563,306.783,309.068,312.967,318.248,322.928,327.668,332.649,336.549,339.908,343.808,346.093,349.392,354.673,359.472,362.832,365.052,370.032,374.532,376.812,382.092,387.072,392.353,396.611,401.591,403.812,407.172,412.452,417.253,420.552,422.773,427.572,429.857,435.137,440.418,443.898,449.178,454.158,457.578,459.863,464.121,468.922,472.342,477.622,482.843,488.123,490.403,493.762,498.563,502.883,505.103,508.159,513.439,516.919" svgx:width="0.46,0.53,0.8,0.5,0.23,0.35,0.5,0.39,0.5,0.48,0.35,0.42,0.52,0.23,0.39,0.52,0.47,0.47,0.5,0.39,0.34,0.39,0.23,0.34,0.52,0.48,0.34,0.23,0.5,0.45,0.23,0.52,0.5,0.52,0.42,0.5,0.23,0.34,0.52,0.48,0.34,0.23,0.48,0.23,0.52,0.53,0.35,0.52,0.5,0.35,0.23,0.42,0.48,0.35,0.52,0.53,0.52,0.23,0.34,0.48,0.43,0.23,0.3,0.53,0.35,0.23" style="fill:rgb(0,0,0);font-family:Calibri;font-size:10.02px;stroke:none;">Some research suggests that evidence that a border carbon tax (or </text>
   <text y="597.104" x="246.6,251.4,256.68,259.075,264.355,268.255,271.612,279.592,284.512,289.792,293.149,296.149,298.669,300.953,304.793,309.773,313.13,315.414,320.695,325.975,328.195,331.552,336.832,341.812,344.032,349.312,354.112,358.012,360.292,364.192,366.476,371.757,374.813,377.097,380.397,385.678,390.658,392.937,397.137,401.937,405.417,410.698,415.978,421.198,423.418,427.681,432.962,438.242,441.598,446.518,451.799,455.155,457.44,462.659,465.715,468.0,471.357,476.576,481.557,483.776,486.056,494.036,499.316,504.597,508.076,511.433,513.953" svgx:width="0.48,0.52,0.24,0.52,0.39,0.34,0.8,0.5,0.52,0.34,0.3,0.25,0.23,0.39,0.5,0.34,0.23,0.53,0.52,0.23,0.34,0.52,0.5,0.23,0.52,0.48,0.39,0.23,0.39,0.23,0.53,0.31,0.23,0.34,0.52,0.5,0.23,0.42,0.48,0.35,0.52,0.53,0.52,0.23,0.42,0.53,0.52,0.34,0.5,0.52,0.34,0.23,0.53,0.31,0.23,0.34,0.52,0.5,0.23,0.23,0.8,0.52,0.53,0.35,0.34,0.25,0.23" style="fill:rgb(0,0,0);font-family:Calibri;font-size:10.02px;stroke:none;">adjustment), set on the basis of the carbon content of the import, </text>
   <text y="609.288" x="246.6,248.88,254.16,258.419,260.699,265.98,271.26,273.481,278.761,283.501,285.72,290.521,292.8,298.081,303.301,310.441,315.722,322.862,327.662,331.142,336.422,338.702,343.442,348.723,351.123,356.403,360.303,363.603,371.583,376.563,381.844,385.205,387.484,392.765,397.984,400.269,403.628,408.909,413.829,416.108,421.329,426.128,430.028,432.309,436.208,438.488,443.768,446.829,449.108,453.909,459.128,463.687,465.972,470.171,474.972,478.392,483.672,488.953,494.233" svgx:width="0.23,0.52,0.42,0.23,0.52,0.52,0.23,0.52,0.47,0.23,0.48,0.23,0.52,0.53,0.71,0.52,0.71,0.48,0.35,0.52,0.23,0.48,0.52,0.24,0.52,0.39,0.34,0.8,0.5,0.52,0.34,0.23,0.53,0.52,0.23,0.34,0.52,0.5,0.23,0.52,0.48,0.39,0.23,0.39,0.23,0.53,0.31,0.23,0.48,0.52,0.45,0.23,0.42,0.48,0.35,0.52,0.53,0.52,0.23" style="fill:rgb(0,0,0);font-family:Calibri;font-size:10.02px;stroke:none;">including a downward adjustment on the basis of any carbon </text>
   <text y="621.533" x="246.6,251.881,256.68,261.239,269.219,274.139,279.42,282.779,286.679,288.964,291.964,295.323,300.123,304.443,309.423,313.323,315.608,320.887,324.367,326.652,331.931,335.291,340.572,345.551,348.971,352.027,354.307,359.107,361.387,364.807,369.787,374.587,379.868,384.368,386.652,394.632,399.432,404.713,409.692,411.912,417.192,422.172,425.172,430.453,433.933,438.913,441.192,446.172,451.453,454.813,458.232,462.792,465.312,467.532,471.79,477.071,482.352,484.572,489.853" svgx:width="0.52,0.48,0.45,0.8,0.5,0.52,0.34,0.39,0.23,0.3,0.34,0.48,0.43,0.5,0.39,0.23,0.53,0.35,0.23,0.53,0.34,0.52,0.5,0.35,0.3,0.23,0.48,0.23,0.35,0.5,0.48,0.52,0.45,0.23,0.8,0.48,0.52,0.5,0.23,0.52,0.5,0.31,0.53,0.35,0.5,0.23,0.5,0.52,0.34,0.35,0.45,0.25,0.23,0.42,0.53,0.52,0.23,0.52,0.23" style="fill:rgb(0,0,0);font-family:Calibri;font-size:10.02px;stroke:none;">payments (taxes or other) already made before entry, could </text>
   <text y="633.717" x="246.6,250.08,255.06,260.34,265.621,269.879,274.799,277.079,281.337,286.137,289.557,294.837,300.117,305.337,307.558,309.837,314.817,319.617,324.177,328.977,333.717,338.697,340.981,348.061,353.342,355.623,357.902,362.882,365.102,369.902,372.183,376.082,381.362,383.646,387.126,391.926,394.206,398.106,400.387,405.667,410.407,412.686,417.486,422.706,427.987,430.266,433.626,435.907,441.186,446.467,451.266,453.547,455.826,459.306,464.286,468.786,473.766,478.987,484.267,489.247,491.532,496.331,501.552,506.832" svgx:width="0.35,0.5,0.52,0.52,0.42,0.5,0.23,0.42,0.48,0.35,0.52,0.53,0.52,0.23,0.23,0.5,0.48,0.46,0.48,0.47,0.5,0.23,0.71,0.52,0.23,0.23,0.5,0.23,0.48,0.23,0.39,0.53,0.23,0.35,0.48,0.23,0.39,0.23,0.52,0.47,0.23,0.48,0.52,0.52,0.23,0.34,0.23,0.53,0.52,0.48,0.23,0.23,0.35,0.5,0.45,0.5,0.52,0.52,0.5,0.23,0.48,0.52,0.52,0.23" style="fill:rgb(0,0,0);font-family:Calibri;font-size:10.02px;stroke:none;">reduce carbon leakage while also raising additional revenue and </text>
   <text y="645.901" x="246.6,251.58,256.86,261.119,266.339,271.62,275.1,279.9,284.64,286.92,292.14,296.879,299.099,303.299,308.1,311.579,316.859,322.139,327.419,329.64,334.92,338.4,340.68,344.938,347.218,352.438,357.178,359.457,361.678,366.958,369.243,372.603,377.883,382.804,385.083,390.063,394.383,399.664,404.943,408.423,411.784,414.063,419.284,424.023,426.308,430.508,435.788,441.068,446.289,449.648,453.128,457.687,459.896,462.896,471.836,474.116,477.473,482.752,487.552,492.831,497.572,499.852,506.639" svgx:width="0.5,0.52,0.42,0.53,0.52,0.35,0.48,0.47,0.23,0.52,0.47,0.23,0.42,0.48,0.35,0.52,0.53,0.52,0.23,0.52,0.35,0.23,0.42,0.23,0.52,0.47,0.23,0.23,0.52,0.23,0.34,0.52,0.5,0.23,0.5,0.43,0.52,0.53,0.35,0.34,0.23,0.52,0.47,0.23,0.42,0.53,0.52,0.52,0.34,0.35,0.45,0.23,0.3,0.89,0.23,0.34,0.52,0.48,0.52,0.48,0.23,0.68,0.23" style="fill:rgb(0,0,0);font-family:Calibri;font-size:10.02px;stroke:none;">encouraging carbon pricing in the exporting country (Withana &amp; </text>
  </g>
  <g begin="text">
   <text y="658.08" x="246.6" svgx:width="0.23" style="fill:rgb(0,0,0);font-family:Calibri;font-size:10.02px;stroke:none;"> </text>
  </g>
  <g begin="text">
   <text y="658.08" x="248.88,253.499,255.779,259.259,261.539,266.82,269.1,271.38,276.42,281.52,286.56,291.66,294.3,296.584,301.924,307.144,311.044,316.325,321.305,325.864,328.148,333.128,336.429,338.708,343.509,345.788,348.009,353.109,358.149,363.249,368.289,371.345" svgx:width="0.46,0.23,0.35,0.23,0.52,0.23,0.23,0.51,0.51,0.51,0.51,0.27,0.23,0.53,0.53,0.39,0.52,0.5,0.45,0.23,0.5,0.34,0.23,0.48,0.23,0.23,0.51,0.51,0.51,0.51,0.3,0.25" style="fill:rgb(0,0,0);font-family:Calibri;font-size:10.02px;stroke:none;">Sirini 2016; Cosbey et al 2019).</text>
  </g>
  <g begin="text">
   <text y="658.08" x="373.86" svgx:width="0.23" style="fill:rgb(0,0,0);font-family:Calibri;font-size:10.02px;stroke:none;"> </text>
  </g>
  <path style="fill:rgb(0,0,0);stroke:none;stroke-width:1.0;" d="M70.860 388.680 L71.340 388.680 L71.340 389.160 L70.860 389.160 L70.860 388.680 "/>
  <path style="fill:rgb(0,0,0);stroke:none;stroke-width:1.0;" d="M71.340 388.680 L127.560 388.680 L127.560 389.160 L71.340 389.160 L71.340 388.680 "/>
  <path style="fill:rgb(0,0,0);stroke:none;stroke-width:1.0;" d="M127.560 388.680 L128.040 388.680 L128.040 389.160 L127.560 389.160 L127.560 388.680 "/>
  <path style="fill:rgb(0,0,0);stroke:none;stroke-width:1.0;" d="M128.040 388.680 L184.260 388.680 L184.260 389.160 L128.040 389.160 L128.040 388.680 "/>
  <path style="fill:rgb(0,0,0);stroke:none;stroke-width:1.0;" d="M184.260 388.680 L184.740 388.680 L184.740 389.160 L184.260 389.160 L184.260 388.680 "/>
  <path style="fill:rgb(0,0,0);stroke:none;stroke-width:1.0;" d="M184.740 388.680 L240.960 388.680 L240.960 389.160 L184.740 389.160 L184.740 388.680 "/>
  <path style="fill:rgb(0,0,0);stroke:none;stroke-width:1.0;" d="M240.960 388.680 L241.440 388.680 L241.440 389.160 L240.960 389.160 L240.960 388.680 "/>
  <path style="fill:rgb(0,0,0);stroke:none;stroke-width:1.0;" d="M523.980 388.680 L524.460 388.680 L524.460 389.160 L523.980 389.160 L523.980 388.680 "/>
  <g begin="text">
   <text y="670.8" x="76.5,81.841,87.121,91.921,97.201,100.558,105.538,108.958,111.242" svgx:width="0.53,0.52,0.48,0.52,0.34,0.5,0.35,0.23,0.51" style="fill:rgb(0,0,0);font-family:Calibri;font-size:10.02px;stroke:none;">Chapter 4</text>
  </g>
  <g begin="text">
   <text y="670.8" x="116.28" svgx:width="0.23" style="fill:rgb(0,0,0);font-family:Calibri;font-size:10.02px;stroke:none;"> </text>
  </g>
  <g begin="text">
   <text y="670.8" x="133.2,137.819,141.299,146.579,151.859" svgx:width="0.46,0.35,0.53,0.52,0.34" style="fill:rgb(0,0,0);font-family:Calibri;font-size:10.02px;stroke:none;">Front</text>
  </g>
  <g begin="text">
   <text y="670.8" x="155.16" svgx:width="0.23" style="fill:rgb(0,0,0);font-family:Calibri;font-size:10.02px;stroke:none;"> </text>
  </g>
  <g begin="text">
   <text y="670.8" x="189.9" svgx:width="0.51" style="fill:rgb(0,0,0);font-family:Calibri;font-size:10.02px;stroke:none;">5</text>
  </g>
  <g begin="text">
   <text y="670.8" x="194.94" svgx:width="0.23" style="fill:rgb(0,0,0);font-family:Calibri;font-size:10.02px;stroke:none;"> </text>
  </g>
  <g begin="text">
   <text y="670.8" x="246.6,249.78,254.58,262.56,267.54,271.441,273.72,278.34,280.855,283.14,289.44,294.419,297.899,303.12,308.1" svgx:width="0.32,0.48,0.8,0.5,0.39,0.23,0.46,0.25,0.23,0.63,0.5,0.35,0.52,0.5,0.35" style="fill:rgb(0,0,0);font-family:Calibri;font-size:10.02px;stroke:none;">James S. Gerber</text>
  </g>
  <g begin="text">
   <text y="670.8" x="311.58" svgx:width="0.23" style="fill:rgb(0,0,0);font-family:Calibri;font-size:10.02px;stroke:none;"> </text>
  </g>
  <path style="fill:rgb(0,0,0);stroke:none;stroke-width:1.0;" d="M71.340 164.880 L127.560 164.880 L127.560 180.600 L71.340 180.600 L71.340 164.880 M71.340 164.880 L127.560 164.880 L127.560 180.600 L71.340 180.600 L71.340 164.880 M128.040 164.880 L184.260 164.880 L184.260 180.600 L128.040 180.600 L128.040 164.880 M128.040 164.880 L184.260 164.880 L184.260 180.600 L128.040 180.600 L128.040 164.880 M184.740 164.880 L240.960 164.880 L240.960 180.600 L184.740 180.600 L184.740 164.880 M184.740 164.880 L240.960 164.880 L240.960 180.600 L184.740 180.600 L184.740 164.880 M70.860 180.660 L71.340 180.660 L71.340 181.140 L70.860 181.140 L70.860 180.660 "/>
  <path style="fill:rgb(0,0,0);stroke:none;stroke-width:1.0;" d="M71.340 180.660 L127.560 180.660 L127.560 181.140 L71.340 181.140 L71.340 180.660 "/>
  <path style="fill:rgb(0,0,0);stroke:none;stroke-width:1.0;" d="M127.560 180.660 L128.040 180.660 L128.040 181.140 L127.560 181.140 L127.560 180.660 "/>
  <path style="fill:rgb(0,0,0);stroke:none;stroke-width:1.0;" d="M128.040 180.660 L184.260 180.660 L184.260 181.140 L128.040 181.140 L128.040 180.660 "/>
  <path style="fill:rgb(0,0,0);stroke:none;stroke-width:1.0;" d="M184.260 180.660 L184.740 180.660 L184.740 181.140 L184.260 181.140 L184.260 180.660 "/>
  <path style="fill:rgb(0,0,0);stroke:none;stroke-width:1.0;" d="M184.740 180.660 L240.960 180.660 L240.960 181.140 L184.740 181.140 L184.740 180.660 "/>
  <path style="fill:rgb(0,0,0);stroke:none;stroke-width:1.0;" d="M240.960 180.660 L241.440 180.660 L241.440 181.140 L240.960 181.140 L240.960 180.660 "/>
  <path style="fill:rgb(0,0,0);stroke:none;stroke-width:1.0;" d="M523.980 180.660 L524.460 180.660 L524.460 181.140 L523.980 181.140 L523.980 180.660 "/>
  <path style="fill:rgb(0,0,0);stroke:none;stroke-width:1.0;" d="M70.860 164.880 L71.340 164.880 L71.340 180.660 L70.860 180.660 L70.860 164.880 "/>
  <path style="fill:rgb(0,0,0);stroke:none;stroke-width:1.0;" d="M127.560 164.880 L128.040 164.880 L128.040 180.660 L127.560 180.660 L127.560 164.880 "/>
  <path style="fill:rgb(0,0,0);stroke:none;stroke-width:1.0;" d="M184.260 164.880 L184.740 164.880 L184.740 180.660 L184.260 180.660 L184.260 164.880 "/>
  <path style="fill:rgb(0,0,0);stroke:none;stroke-width:1.0;" d="M240.960 164.880 L241.440 164.880 L241.440 180.660 L240.960 180.660 L240.960 164.880 "/>
  <path style="fill:rgb(0,0,0);stroke:none;stroke-width:1.0;" d="M523.980 164.880 L524.460 164.880 L524.460 180.660 L523.980 180.660 L523.980 164.880 "/>
  <g begin="text">
   <text y="687.06" x="76.5,81.841,87.121,91.921,97.201,100.558,105.538,108.958,111.242" svgx:width="0.53,0.52,0.48,0.52,0.34,0.5,0.35,0.23,0.51" style="fill:rgb(0,0,0);font-family:Calibri;font-size:10.02px;stroke:none;">Chapter 4</text>
  </g>
  <g begin="text">
   <text y="687.06" x="116.28" svgx:width="0.23" style="fill:rgb(0,0,0);font-family:Calibri;font-size:10.02px;stroke:none;"> </text>
  </g>
  <g begin="text">
   <text y="687.06" x="133.2,137.819,141.299,146.579,151.859" svgx:width="0.46,0.35,0.53,0.52,0.34" style="fill:rgb(0,0,0);font-family:Calibri;font-size:10.02px;stroke:none;">Front</text>
  </g>
  <g begin="text">
   <text y="687.06" x="155.16" svgx:width="0.23" style="fill:rgb(0,0,0);font-family:Calibri;font-size:10.02px;stroke:none;"> </text>
  </g>
  <g begin="text">
   <text y="687.06" x="189.9,195.0" svgx:width="0.51,0.51" style="fill:rgb(0,0,0);font-family:Calibri;font-size:10.02px;stroke:none;">11</text>
  </g>
  <g begin="text">
   <text y="687.06" x="200.04" svgx:width="0.23" style="fill:rgb(0,0,0);font-family:Calibri;font-size:10.02px;stroke:none;"> </text>
  </g>
  <g begin="text">
   <text y="687.06" x="246.6,251.94,256.74,260.217,262.492,264.772,268.67,270.945,275.924,278.209,282.829,288.109,291.586,296.866,299.146,304.546,309.826,315.106,319.786" svgx:width="0.53,0.48,0.35,0.23,0.23,0.39,0.23,0.5,0.23,0.46,0.53,0.35,0.52,0.23,0.54,0.52,0.52,0.47,0.5" style="fill:rgb(0,0,0);font-family:Calibri;font-size:10.02px;stroke:none;">Carlisle Ford Runge</text>
  </g>
  <g begin="text">
   <text y="687.06" x="324.72" svgx:width="0.23" style="fill:rgb(0,0,0);font-family:Calibri;font-size:10.02px;stroke:none;"> </text>
  </g>
  <path style="fill:rgb(0,0,0);stroke:none;stroke-width:1.0;" d="M71.340 148.620 L127.560 148.620 L127.560 164.340 L71.340 164.340 L71.340 148.620 M71.340 148.620 L127.560 148.620 L127.560 164.340 L71.340 164.340 L71.340 148.620 M128.040 148.620 L184.260 148.620 L184.260 164.340 L128.040 164.340 L128.040 148.620 M128.040 148.620 L184.260 148.620 L184.260 164.340 L128.040 164.340 L128.040 148.620 M184.740 148.620 L240.960 148.620 L240.960 164.340 L184.740 164.340 L184.740 148.620 M184.740 148.620 L240.960 148.620 L240.960 164.340 L184.740 164.340 L184.740 148.620 M70.860 164.400 L71.340 164.400 L71.340 164.880 L70.860 164.880 L70.860 164.400 "/>
  <path style="fill:rgb(0,0,0);stroke:none;stroke-width:1.0;" d="M71.340 164.400 L127.560 164.400 L127.560 164.880 L71.340 164.880 L71.340 164.400 "/>
  <path style="fill:rgb(0,0,0);stroke:none;stroke-width:1.0;" d="M127.560 164.400 L128.040 164.400 L128.040 164.880 L127.560 164.880 L127.560 164.400 "/>
  <path style="fill:rgb(0,0,0);stroke:none;stroke-width:1.0;" d="M128.040 164.400 L184.260 164.400 L184.260 164.880 L128.040 164.880 L128.040 164.400 "/>
  <path style="fill:rgb(0,0,0);stroke:none;stroke-width:1.0;" d="M184.260 164.400 L184.740 164.400 L184.740 164.880 L184.260 164.880 L184.260 164.400 "/>
  <path style="fill:rgb(0,0,0);stroke:none;stroke-width:1.0;" d="M184.740 164.400 L240.960 164.400 L240.960 164.880 L184.740 164.880 L184.740 164.400 "/>
  <path style="fill:rgb(0,0,0);stroke:none;stroke-width:1.0;" d="M240.960 164.400 L241.440 164.400 L241.440 164.880 L240.960 164.880 L240.960 164.400 "/>
  <path style="fill:rgb(0,0,0);stroke:none;stroke-width:1.0;" d="M523.980 164.400 L524.460 164.400 L524.460 164.880 L523.980 164.880 L523.980 164.400 "/>
  <path style="fill:rgb(0,0,0);stroke:none;stroke-width:1.0;" d="M70.860 148.620 L71.340 148.620 L71.340 164.400 L70.860 164.400 L70.860 148.620 "/>
  <path style="fill:rgb(0,0,0);stroke:none;stroke-width:1.0;" d="M70.860 148.140 L71.340 148.140 L71.340 148.620 L70.860 148.620 L70.860 148.140 "/>
  <path style="fill:rgb(0,0,0);stroke:none;stroke-width:1.0;" d="M70.860 148.140 L71.340 148.140 L71.340 148.620 L70.860 148.620 L70.860 148.140 "/>
  <path style="fill:rgb(0,0,0);stroke:none;stroke-width:1.0;" d="M71.340 148.140 L127.560 148.140 L127.560 148.620 L71.340 148.620 L71.340 148.140 "/>
  <path style="fill:rgb(0,0,0);stroke:none;stroke-width:1.0;" d="M127.560 148.620 L128.040 148.620 L128.040 164.400 L127.560 164.400 L127.560 148.620 "/>
  <path style="fill:rgb(0,0,0);stroke:none;stroke-width:1.0;" d="M127.560 148.140 L128.040 148.140 L128.040 148.620 L127.560 148.620 L127.560 148.140 "/>
  <path style="fill:rgb(0,0,0);stroke:none;stroke-width:1.0;" d="M128.040 148.140 L184.260 148.140 L184.260 148.620 L128.040 148.620 L128.040 148.140 "/>
  <path style="fill:rgb(0,0,0);stroke:none;stroke-width:1.0;" d="M184.260 148.620 L184.740 148.620 L184.740 164.400 L184.260 164.400 L184.260 148.620 "/>
  <path style="fill:rgb(0,0,0);stroke:none;stroke-width:1.0;" d="M184.260 148.140 L184.740 148.140 L184.740 148.620 L184.260 148.620 L184.260 148.140 "/>
  <path style="fill:rgb(0,0,0);stroke:none;stroke-width:1.0;" d="M184.740 148.140 L240.960 148.140 L240.960 148.620 L184.740 148.620 L184.740 148.140 "/>
  <path style="fill:rgb(0,0,0);stroke:none;stroke-width:1.0;" d="M240.960 148.620 L241.440 148.620 L241.440 164.400 L240.960 164.400 L240.960 148.620 "/>
  <path style="fill:rgb(0,0,0);stroke:none;stroke-width:1.0;" d="M240.960 148.140 L241.440 148.140 L241.440 148.620 L240.960 148.620 L240.960 148.140 "/>
  <path style="fill:rgb(0,0,0);stroke:none;stroke-width:1.0;" d="M523.980 148.620 L524.460 148.620 L524.460 164.400 L523.980 164.400 L523.980 148.620 "/>
  <path style="fill:rgb(0,0,0);stroke:none;stroke-width:1.0;" d="M523.980 148.140 L524.460 148.140 L524.460 148.620 L523.980 148.620 L523.980 148.140 "/>
  <path style="fill:rgb(0,0,0);stroke:none;stroke-width:1.0;" d="M523.980 148.140 L524.460 148.140 L524.460 148.620 L523.980 148.620 L523.980 148.140 "/>
  <g begin="text">
   <text y="704.28" x="70.86" svgx:width="0.23" style="fill:rgb(0,0,0);font-family:Calibri;font-size:10.98px;stroke:none;"> </text>
  </g>
 </g>
</svg>
