<?xml version="1.0" encoding="UTF-8" standalone="no"?>
<!DOCTYPE svg PUBLIC "-//W3C//DTD SVG 1.1//EN"
 "http://www.w3.org/Graphics/SVG/1.1/DTD/svg11.dtd">
<!-- Generated by graphviz version 9.0.0 (20230911.1827)
 -->
<!-- Title: cmpom Pages: 1 -->
<svg width="585pt" height="548pt"
 viewBox="0.00 0.00 585.37 548.00" xmlns="http://www.w3.org/2000/svg" xmlns:xlink="http://www.w3.org/1999/xlink">
<g id="graph0" class="graph" transform="scale(1 1) rotate(0) translate(4 544)">
<title>cmpom</title>
<polygon fill="white" stroke="none" points="-4,4 -4,-544 581.37,-544 581.37,4 -4,4"/>
<!-- org.contentmine/svg/1.0.7 -->
<g id="node1" class="node">
<title>org.contentmine/svg/1.0.7</title>
<ellipse fill="none" stroke="black" cx="304.81" cy="-90" rx="108.67" ry="18"/>
<text text-anchor="middle" x="304.81" y="-84.95" font-family="Times,serif" font-size="14.00">org.contentmine/svg/1.0.7</text>
</g>
<!-- org.contentmine/euclid/2.0.5 -->
<g id="node2" class="node">
<title>org.contentmine/euclid/2.0.5</title>
<ellipse fill="none" stroke="black" cx="304.81" cy="-18" rx="118.4" ry="18"/>
<text text-anchor="middle" x="304.81" y="-12.95" font-family="Times,serif" font-size="14.00">org.contentmine/euclid/2.0.5</text>
</g>
<!-- org.contentmine/svg/1.0.7&#45;&gt;org.contentmine/euclid/2.0.5 -->
<g id="edge1" class="edge">
<title>org.contentmine/svg/1.0.7&#45;&gt;org.contentmine/euclid/2.0.5</title>
<path fill="none" stroke="black" d="M304.81,-71.7C304.81,-64.41 304.81,-55.73 304.81,-47.54"/>
<polygon fill="black" stroke="black" points="308.31,-47.62 304.81,-37.62 301.31,-47.62 308.31,-47.62"/>
</g>
<!-- org.contentmine/html/2.0.7 -->
<g id="node3" class="node">
<title>org.contentmine/html/2.0.7</title>
<ellipse fill="none" stroke="black" cx="304.81" cy="-162" rx="113.28" ry="18"/>
<text text-anchor="middle" x="304.81" y="-156.95" font-family="Times,serif" font-size="14.00">org.contentmine/html/2.0.7</text>
</g>
<!-- org.contentmine/html/2.0.7&#45;&gt;org.contentmine/svg/1.0.7 -->
<g id="edge2" class="edge">
<title>org.contentmine/html/2.0.7&#45;&gt;org.contentmine/svg/1.0.7</title>
<path fill="none" stroke="black" d="M304.81,-143.7C304.81,-136.41 304.81,-127.73 304.81,-119.54"/>
<polygon fill="black" stroke="black" points="308.31,-119.62 304.81,-109.62 301.31,-119.62 308.31,-119.62"/>
</g>
<!-- org.contentmine/imageanalysis/1.0.4 -->
<g id="node4" class="node">
<title>org.contentmine/imageanalysis/1.0.4</title>
<ellipse fill="none" stroke="black" cx="159.81" cy="-378" rx="148.59" ry="18"/>
<text text-anchor="middle" x="159.81" y="-372.95" font-family="Times,serif" font-size="14.00">org.contentmine/imageanalysis/1.0.4</text>
</g>
<!-- org.contentmine/imageanalysis/1.0.4&#45;&gt;org.contentmine/html/2.0.7 -->
<g id="edge3" class="edge">
<title>org.contentmine/imageanalysis/1.0.4&#45;&gt;org.contentmine/html/2.0.7</title>
<path fill="none" stroke="black" d="M166.93,-359.94C180.18,-329.32 210.65,-263.78 247.81,-216 255.75,-205.79 265.72,-195.81 275.09,-187.31"/>
<polygon fill="black" stroke="black" points="277.11,-190.19 282.31,-180.96 272.49,-184.93 277.11,-190.19"/>
</g>
<!-- org.contentmine/diagramanalyzer/0.3.6 -->
<g id="node5" class="node">
<title>org.contentmine/diagramanalyzer/0.3.6</title>
<ellipse fill="none" stroke="black" cx="157.81" cy="-450" rx="157.81" ry="18"/>
<text text-anchor="middle" x="157.81" y="-444.95" font-family="Times,serif" font-size="14.00">org.contentmine/diagramanalyzer/0.3.6</text>
</g>
<!-- org.contentmine/diagramanalyzer/0.3.6&#45;&gt;org.contentmine/imageanalysis/1.0.4 -->
<g id="edge4" class="edge">
<title>org.contentmine/diagramanalyzer/0.3.6&#45;&gt;org.contentmine/imageanalysis/1.0.4</title>
<path fill="none" stroke="black" d="M158.3,-431.7C158.51,-424.41 158.76,-415.73 158.99,-407.54"/>
<polygon fill="black" stroke="black" points="162.49,-407.71 159.28,-397.62 155.49,-407.51 162.49,-407.71"/>
</g>
<!-- org.contentmine/cproject/0.3.8 -->
<g id="node6" class="node">
<title>org.contentmine/cproject/0.3.8</title>
<ellipse fill="none" stroke="black" cx="451.81" cy="-378" rx="125.56" ry="18"/>
<text text-anchor="middle" x="451.81" y="-372.95" font-family="Times,serif" font-size="14.00">org.contentmine/cproject/0.3.8</text>
</g>
<!-- org.contentmine/diagramanalyzer/0.3.6&#45;&gt;org.contentmine/cproject/0.3.8 -->
<g id="edge5" class="edge">
<title>org.contentmine/diagramanalyzer/0.3.6&#45;&gt;org.contentmine/cproject/0.3.8</title>
<path fill="none" stroke="black" d="M224.15,-433.2C269.86,-422.32 330.63,-407.85 377.88,-396.6"/>
<polygon fill="black" stroke="black" points="378.59,-400.03 387.5,-394.31 376.96,-393.22 378.59,-400.03"/>
</g>
<!-- org.contentmine/svg2xml/2.0.8 -->
<g id="node8" class="node">
<title>org.contentmine/svg2xml/2.0.8</title>
<ellipse fill="none" stroke="black" cx="417.81" cy="-306" rx="128.12" ry="18"/>
<text text-anchor="middle" x="417.81" y="-300.95" font-family="Times,serif" font-size="14.00">org.contentmine/svg2xml/2.0.8</text>
</g>
<!-- org.contentmine/cproject/0.3.8&#45;&gt;org.contentmine/svg2xml/2.0.8 -->
<g id="edge8" class="edge">
<title>org.contentmine/cproject/0.3.8&#45;&gt;org.contentmine/svg2xml/2.0.8</title>
<path fill="none" stroke="black" d="M443.4,-359.7C439.7,-352.07 435.25,-342.92 431.11,-334.4"/>
<polygon fill="black" stroke="black" points="434.29,-332.93 426.78,-325.47 428,-335.99 434.29,-332.93"/>
</g>
<!-- org.contentmine/pdf2svg/2.0.6 -->
<g id="node7" class="node">
<title>org.contentmine/pdf2svg/2.0.6</title>
<ellipse fill="none" stroke="black" cx="382.81" cy="-234" rx="125.56" ry="18"/>
<text text-anchor="middle" x="382.81" y="-228.95" font-family="Times,serif" font-size="14.00">org.contentmine/pdf2svg/2.0.6</text>
</g>
<!-- org.contentmine/pdf2svg/2.0.6&#45;&gt;org.contentmine/html/2.0.7 -->
<g id="edge6" class="edge">
<title>org.contentmine/pdf2svg/2.0.6&#45;&gt;org.contentmine/html/2.0.7</title>
<path fill="none" stroke="black" d="M363.93,-216.05C354.42,-207.52 342.71,-197.01 332.23,-187.61"/>
<polygon fill="black" stroke="black" points="334.69,-185.12 324.91,-181.04 330.02,-190.33 334.69,-185.12"/>
</g>
<!-- org.contentmine/svg2xml/2.0.8&#45;&gt;org.contentmine/pdf2svg/2.0.6 -->
<g id="edge7" class="edge">
<title>org.contentmine/svg2xml/2.0.8&#45;&gt;org.contentmine/pdf2svg/2.0.6</title>
<path fill="none" stroke="black" d="M409.16,-287.7C405.34,-280.07 400.77,-270.92 396.51,-262.4"/>
<polygon fill="black" stroke="black" points="399.64,-260.84 392.04,-253.46 393.38,-263.97 399.64,-260.84"/>
</g>
<!-- org.contentmine/norma/0.3.8 -->
<g id="node9" class="node">
<title>org.contentmine/norma/0.3.8</title>
<ellipse fill="none" stroke="black" cx="453.81" cy="-450" rx="119.93" ry="18"/>
<text text-anchor="middle" x="453.81" y="-444.95" font-family="Times,serif" font-size="14.00">org.contentmine/norma/0.3.8</text>
</g>
<!-- org.contentmine/norma/0.3.8&#45;&gt;org.contentmine/imageanalysis/1.0.4 -->
<g id="edge10" class="edge">
<title>org.contentmine/norma/0.3.8&#45;&gt;org.contentmine/imageanalysis/1.0.4</title>
<path fill="none" stroke="black" d="M391.82,-434.24C346.49,-423.45 284.74,-408.75 236.34,-397.22"/>
<polygon fill="black" stroke="black" points="237.29,-393.85 226.75,-394.94 235.67,-400.66 237.29,-393.85"/>
</g>
<!-- org.contentmine/norma/0.3.8&#45;&gt;org.contentmine/cproject/0.3.8 -->
<g id="edge9" class="edge">
<title>org.contentmine/norma/0.3.8&#45;&gt;org.contentmine/cproject/0.3.8</title>
<path fill="none" stroke="black" d="M453.31,-431.7C453.1,-424.41 452.86,-415.73 452.62,-407.54"/>
<polygon fill="black" stroke="black" points="456.12,-407.51 452.34,-397.62 449.13,-407.71 456.12,-407.51"/>
</g>
<!-- org.contentmine/ami2/0.3.6 -->
<g id="node10" class="node">
<title>org.contentmine/ami2/0.3.6</title>
<ellipse fill="none" stroke="black" cx="305.81" cy="-522" rx="114.82" ry="18"/>
<text text-anchor="middle" x="305.81" y="-516.95" font-family="Times,serif" font-size="14.00">org.contentmine/ami2/0.3.6</text>
</g>
<!-- org.contentmine/ami2/0.3.6&#45;&gt;org.contentmine/diagramanalyzer/0.3.6 -->
<g id="edge12" class="edge">
<title>org.contentmine/ami2/0.3.6&#45;&gt;org.contentmine/diagramanalyzer/0.3.6</title>
<path fill="none" stroke="black" d="M270.73,-504.41C250.75,-494.96 225.48,-483.01 203.91,-472.8"/>
<polygon fill="black" stroke="black" points="205.56,-469.72 195.03,-468.6 202.57,-476.04 205.56,-469.72"/>
</g>
<!-- org.contentmine/ami2/0.3.6&#45;&gt;org.contentmine/norma/0.3.8 -->
<g id="edge11" class="edge">
<title>org.contentmine/ami2/0.3.6&#45;&gt;org.contentmine/norma/0.3.8</title>
<path fill="none" stroke="black" d="M340.88,-504.41C361.08,-494.86 386.69,-482.74 408.42,-472.47"/>
<polygon fill="black" stroke="black" points="409.82,-475.68 417.36,-468.24 406.82,-469.35 409.82,-475.68"/>
</g>
</g>
</svg>
