<?xml version="1.0" encoding="UTF-8"?>
<svg height="807.04" width="535.9399999999999" xmlns="http://www.w3.org/2000/svg">
 <g id="page" xmlns:svgx="http://www.xml-cml.org/schema/svgx">
  <g begin="text">
   <text y="45.72" x="72.024,78.162,81.231,86.751,91.587,94.7,97.46,105.376,110.896,116.416,121.218,124.928,130.448,138.971,143.872,149.392,152.517,155.277,163.082,166.195,170.39,173.504,177.103,180.216,185.736,191.135,194.137,197.251,202.771" svgx:width="0.56,0.28,0.5,0.44,0.28,0.25,0.72,0.5,0.5,0.44,0.33,0.5,0.78,0.44,0.5,0.28,0.25,0.72,0.28,0.39,0.28,0.33,0.28,0.5,0.5,0.28,0.28,0.5,0.5" style="fill:rgb(0,0,0);font-family:TimesNewRomanPSMT;font-size:11.04px;stroke:none;">Final Government Distribution</text>
  </g>
  <g begin="text">
   <text y="45.72" x="208.37" svgx:width="0.25" style="fill:rgb(0,0,0);font-family:TimesNewRomanPSMT;font-size:11.04px;stroke:none;"> </text>
  </g>
  <g begin="text">
   <text y="45.72" x="211.01" svgx:width="0.25" style="fill:rgb(0,0,0);font-family:TimesNewRomanPSMT;font-size:11.04px;stroke:none;"> </text>
  </g>
  <g begin="text">
   <text y="45.72" x="216.05" svgx:width="0.25" style="fill:rgb(0,0,0);font-family:TimesNewRomanPSMT;font-size:11.04px;stroke:none;"> </text>
  </g>
  <g begin="text">
   <text y="45.72" x="252.05" svgx:width="0.25" style="fill:rgb(0,0,0);font-family:TimesNewRomanPSMT;font-size:11.04px;stroke:none;"> </text>
  </g>
  <g begin="text">
   <text y="45.72" x="288.05,295.369,300.889,305.791,311.311,314.436,319.238,322.947,325.707" svgx:width="0.67,0.5,0.44,0.5,0.28,0.44,0.33,0.25,0.5" style="fill:rgb(0,0,0);font-family:TimesNewRomanPSMT;font-size:11.04px;stroke:none;">Chapter 6</text>
  </g>
  <g begin="text">
   <text y="45.72" x="331.15" svgx:width="0.25" style="fill:rgb(0,0,0);font-family:TimesNewRomanPSMT;font-size:11.04px;stroke:none;"> </text>
  </g>
  <g begin="text">
   <text y="45.72" x="360.07" svgx:width="0.25" style="fill:rgb(0,0,0);font-family:TimesNewRomanPSMT;font-size:11.04px;stroke:none;"> </text>
  </g>
  <g begin="text">
   <text y="45.72" x="396.07" svgx:width="0.25" style="fill:rgb(0,0,0);font-family:TimesNewRomanPSMT;font-size:11.04px;stroke:none;"> </text>
  </g>
  <g begin="text">
   <text y="45.72" x="432.07,435.669,441.807,449.105,456.424" svgx:width="0.33,0.56,0.67,0.67,0.25" style="fill:rgb(0,0,0);font-family:TimesNewRomanPSMT;font-size:11.04px;stroke:none;">IPCC </text>
  </g>
  <g begin="text">
   <text y="45.72" x="459.22,469.642,477.613,481.289,484.899,488.498,491.258,499.174,506.493" svgx:width="0.94,0.72,0.33,0.33,0.33,0.25,0.72,0.67,0.5" style="fill:rgb(0,0,0);font-family:TimesNewRomanPSMT;font-size:11.04px;stroke:none;">WGIII AR6</text>
  </g>
  <g begin="text">
   <text y="45.72" x="512.14" svgx:width="0.25" style="fill:rgb(0,0,0);font-family:TimesNewRomanPSMT;font-size:11.04px;stroke:none;"> </text>
  </g>
  <g begin="text">
   <text y="783.096" x="72.024,79.94,85.46,88.22,96.135,101.655,105.365,108.125,116.04,119.154,122.753,127.655,130.415,133.075,141.708,147.847,153.367,157.043,161.868,164.628,170.148,175.049,177.809,185.78,188.75,192.945,196.655,201.556,204.681,210.819,216.803,220.512" svgx:width="0.72,0.5,0.25,0.72,0.5,0.33,0.25,0.72,0.28,0.33,0.44,0.25,0.25,0.78,0.56,0.5,0.33,0.44,0.25,0.5,0.44,0.25,0.72,0.28,0.39,0.33,0.44,0.28,0.56,0.56,0.33,0.44" style="fill:rgb(0,0,0);font-family:TimesNewRomanPS-BoldMT;font-size:11.04px;stroke:none;">Do Not Cite, Quote or Distribute</text>
  </g>
  <g begin="text">
   <text y="783.096" x="225.41" svgx:width="0.25" style="fill:rgb(0,0,0);font-family:TimesNewRomanPS-BoldMT;font-size:11.04px;stroke:none;"> </text>
  </g>
  <g begin="text">
   <text y="783.096" x="287.57" svgx:width="0.5" style="fill:rgb(0,0,0);font-family:TimesNewRomanPSMT;font-size:11.04px;stroke:none;">6</text>
  </g>
  <g begin="text">
   <text y="783.096" x="293.09" svgx:width="0.33" style="fill:rgb(0,0,0);font-family:TimesNewRomanPS-BoldMT;font-size:11.04px;stroke:none;">-</text>
  </g>
  <g begin="text">
   <text y="783.096" x="296.81,302.33" svgx:width="0.5,0.5" style="fill:rgb(0,0,0);font-family:TimesNewRomanPSMT;font-size:11.04px;stroke:none;">69</text>
  </g>
  <g begin="text">
   <text y="783.096" x="307.85" svgx:width="0.25" style="fill:rgb(0,0,0);font-family:TimesNewRomanPSMT;font-size:11.04px;stroke:none;"> </text>
  </g>
  <g begin="text">
   <text y="783.096" x="310.49" svgx:width="0.25" style="fill:rgb(0,0,0);font-family:TimesNewRomanPSMT;font-size:11.04px;stroke:none;"> </text>
  </g>
  <g begin="text">
   <text y="783.096" x="450.1,456.845,462.365,465.435,470.259,473.372,476.132,481.652,486.554,491.975,496.876,501.204,504.207" svgx:width="0.61,0.5,0.28,0.44,0.28,0.25,0.5,0.44,0.5,0.44,0.39,0.28,0.25" style="fill:rgb(0,0,0);font-family:TimesNewRomanPSMT;font-size:11.04px;stroke:none;">Total pages: </text>
  </g>
  <g begin="text">
   <text y="783.096" x="506.98,512.5,518.02" svgx:width="0.5,0.5,0.5" style="fill:rgb(0,0,0);font-family:TimesNewRomanPSMT;font-size:11.04px;stroke:none;">217</text>
  </g>
  <g begin="text">
   <text y="783.096" x="523.42" svgx:width="0.25" style="fill:rgb(0,0,0);font-family:TimesNewRomanPSMT;font-size:9.96px;stroke:none;"> </text>
  </g>
  <g begin="text">
   <text y="797.04" x="72.024" svgx:width="0.25" style="fill:rgb(0,0,0);font-family:TimesNewRomanPSMT;font-size:11.04px;stroke:none;"> </text>
  </g>
  <g begin="text">
   <text y="85.22" x="72.024,79.086,82.596" svgx:width="0.5,0.25,0.5" style="fill:rgb(0,0,0);font-family:TimesNewRomanPS-BoldMT;font-size:14.04px;stroke:none;">6.5</text>
  </g>
  <g begin="text">
   <text y="85.22" x="89.544" svgx:width="0.28" style="fill:rgb(0,0,0);font-family:Arial-BoldMT;font-size:14.04px;stroke:none;"> </text>
  </g>
  <g begin="text">
   <text y="85.22" x="100.82,110.999,114.846,118.791,130.43,137.394,142.07,148.303,151.813,161.978,169.658,176.72,184.4,191.462,197.696,201.206,206.668,218.223,226.029,233.091,239.325,243.888,249.391,252.901,259.921,267.728,271.238,275.913,283.593,289.827,293.337,302.701,310.507,316.741,322.835,329.897,336.861,340.371,348.177,355.099,360.602,365.277,371.511" svgx:width="0.72,0.28,0.28,0.83,0.5,0.33,0.44,0.25,0.72,0.56,0.5,0.56,0.5,0.44,0.25,0.39,0.83,0.56,0.5,0.44,0.33,0.39,0.25,0.5,0.56,0.25,0.33,0.56,0.44,0.25,0.67,0.56,0.44,0.44,0.5,0.5,0.25,0.56,0.5,0.39,0.33,0.44,0.83" style="fill:rgb(0,0,0);font-family:TimesNewRomanPS-BoldMT;font-size:14.04px;stroke:none;">Climate Change Impacts on the Energy System</text>
  </g>
  <g begin="text">
   <text y="85.22" x="383.23" svgx:width="0.25" style="fill:rgb(0,0,0);font-family:TimesNewRomanPS-BoldMT;font-size:14.04px;stroke:none;"> </text>
  </g>
  <g begin="text">
   <text y="85.22" x="48.48" svgx:width="0.5" style="fill:rgb(0,0,0);font-family:TimesNewRomanPSMT;font-size:11.04px;stroke:none;">1</text>
  </g>
  <g begin="text">
   <text y="85.22" x="54.0" svgx:width="0.25" style="fill:rgb(0,0,0);font-family:TimesNewRomanPSMT;font-size:11.04px;stroke:none;"> </text>
  </g>
  <g begin="text">
   <text y="112.94" x="72.024,78.024,81.024,87.024,90.024" svgx:width="0.5,0.25,0.5,0.25,0.5" style="fill:rgb(0,0,0);font-family:TimesNewRomanPS-BoldMT;font-size:12.0px;stroke:none;">6.5.1</text>
  </g>
  <g begin="text">
   <text y="112.94" x="96.024" svgx:width="0.28" style="fill:rgb(0,0,0);font-family:Arial-BoldMT;font-size:12.0px;stroke:none;"> </text>
  </g>
  <g begin="text">
   <text y="112.94" x="108.02,116.684,120.02,123.356,133.448,139.448,143.444,148.688,151.688,156.356,166.436,173.144,179.144,184.424,188.42,193.088,196.088,202.088,208.76,211.76,215.756,222.452,227.732,230.612,238.64,245.348,250.628,255.908,261.908,267.908,270.908,277.616,283.616,288.284,292.28,297.536" svgx:width="0.72,0.28,0.28,0.83,0.5,0.33,0.44,0.25,0.39,0.83,0.56,0.5,0.44,0.33,0.39,0.25,0.5,0.56,0.25,0.33,0.56,0.44,0.25,0.67,0.56,0.44,0.44,0.5,0.5,0.25,0.56,0.5,0.39,0.33,0.44,0.83" style="fill:rgb(0,0,0);font-family:TimesNewRomanPS-BoldMT;font-size:12.0px;stroke:none;">Climate Impacts on the Energy System</text>
  </g>
  <g begin="text">
   <text y="112.94" x="307.73" svgx:width="0.25" style="fill:rgb(0,0,0);font-family:TimesNewRomanPS-BoldMT;font-size:12.0px;stroke:none;"> </text>
  </g>
  <g begin="text">
   <text y="112.94" x="48.48" svgx:width="0.5" style="fill:rgb(0,0,0);font-family:TimesNewRomanPSMT;font-size:11.04px;stroke:none;">2</text>
  </g>
  <g begin="text">
   <text y="112.94" x="54.0" svgx:width="0.25" style="fill:rgb(0,0,0);font-family:TimesNewRomanPSMT;font-size:11.04px;stroke:none;"> </text>
  </g>
  <g begin="text">
   <text y="133.22" x="72.024,81.839,86.773,92.293,97.813,100.57300000000001,103.444,108.346,113.766,122.399,127.919,133.439,138.838,143.74,149.26,152.274,156.568,159.328,162.221,167.741,171.45,174.20999999999998,177.081,180.083,185.603,190.406,193.166,196.036,200.938,206.458,211.382,215.091,220.611,226.131" svgx:width="0.89,0.44,0.5,0.5,0.25,0.55,0.44,0.5,0.78,0.5,0.5,0.5,0.44,0.5,0.28,0.39,0.25,0.55,0.5,0.33,0.25,0.55,0.28,0.5,0.44,0.25,0.55,0.44,0.5,0.44,0.33,0.5,0.5,0.25" style="fill:rgb(0,0,0);font-family:TimesNewRomanPSMT;font-size:11.04px;stroke:none;">Many components of the energy </text>
  </g>
  <g begin="text">
   <text y="133.22" x="231.89,236.185,241.605,245.9,248.925,253.826,262.471,265.231,268.101,272.904,276.613,281.515,284.275,287.167,291.97,295.679,299.389,304.191,309.093,312.107,317.008,322.528,325.288,328.181,333.701,339.221,341.981,344.851,347.965,353.485,358.883,361.996,367.516,370.63,376.028,381.548,386.45,389.574,392.334,395.205,403.12,407.923,412.825,415.949,421.348,426.249,429.87,432.63,435.501,440.403,445.923,450.846,456.366,459.369,463.664,466.424,469.316,474.218,479.738,485.258,488.018,490.911,495.812,498.826,501.829,510.462,515.364,518.378,523.18" svgx:width="0.39,0.5,0.39,0.28,0.44,0.78,0.25,0.55,0.44,0.33,0.44,0.25,0.55,0.44,0.33,0.33,0.44,0.44,0.28,0.44,0.5,0.25,0.55,0.5,0.5,0.25,0.55,0.28,0.5,0.5,0.28,0.5,0.28,0.5,0.5,0.44,0.28,0.25,0.55,0.72,0.44,0.44,0.28,0.5,0.44,0.33,0.25,0.55,0.44,0.5,0.44,0.5,0.28,0.39,0.25,0.55,0.44,0.5,0.5,0.25,0.55,0.44,0.28,0.28,0.78,0.44,0.28,0.44,0.25" style="fill:rgb(0,0,0);font-family:TimesNewRomanPSMT;font-size:11.04px;stroke:none;">system are affected by individual weather events and climate </text>
  </g>
  <g begin="text">
   <text y="133.22" x="48.48" svgx:width="0.5" style="fill:rgb(0,0,0);font-family:TimesNewRomanPSMT;font-size:11.04px;stroke:none;">3</text>
  </g>
  <g begin="text">
   <text y="133.22" x="54.0" svgx:width="0.25" style="fill:rgb(0,0,0);font-family:TimesNewRomanPSMT;font-size:11.04px;stroke:none;"> </text>
  </g>
  <g begin="text">
   <text y="147.14" x="72.024,76.926,82.446,87.966,93.486,96.5,99.613,102.616,108.136,113.656,117.851,120.247" svgx:width="0.44,0.5,0.5,0.5,0.28,0.28,0.28,0.5,0.5,0.39,0.25,0.33" style="fill:rgb(0,0,0);font-family:TimesNewRomanPSMT;font-size:11.04px;stroke:none;">conditions (</text>
  </g>
  <g begin="text">
   <text y="147.14" x="123.98,130.725,135.495,141.015,144.128,148.93" svgx:width="0.61,0.44,0.5,0.28,0.44,0.25" style="fill:rgb(0,0,0);font-family:TimesNewRomanPSMT;font-size:11.04px;stroke:none;">Table </text>
  </g>
  <g begin="text">
   <text y="147.14" x="151.34" svgx:width="0.5" style="fill:rgb(0,0,0);font-family:TimesNewRomanPSMT;font-size:11.04px;stroke:none;">6</text>
  </g>
  <g begin="text">
   <text y="147.14" x="156.86" svgx:width="0.25" style="fill:rgb(0,0,0);font-family:TimesNewRomanPSMT;font-size:11.04px;stroke:none;">.</text>
  </g>
  <g begin="text">
   <text y="147.14" x="159.62,165.02" svgx:width="0.5,0.5" style="fill:rgb(0,0,0);font-family:TimesNewRomanPSMT;font-size:11.04px;stroke:none;">10</text>
  </g>
  <g begin="text">
   <text y="147.14" x="170.54,174.249,176.888,179.284,182.883,188.403,190.688,195.59,201.11,206.63,209.644,212.757,215.87,221.269,226.789,229.549,231.834,236.736,239.032,242.742,247.643,253.163,258.683,263.497,265.892,271.291,275.0,277.286,282.188,287.708,296.241,301.761,307.281,312.68,318.2,323.72,326.833,332.353,337.752,340.147,344.95,348.659,352.369,357.171,362.073,365.197,369.392,371.788,376.591,381.492,387.012,389.309,394.829,399.73,402.027,406.929,412.449,415.462,418.576,423.378,426.491,431.89,436.792,439.916,444.818,450.338,452.998,455.394,460.196,464.491,466.798,469.912,475.432,480.234,482.63,487.532,492.952,501.585,506.984,510.097,514.999,520.519,523.18" svgx:width="0.33,0.25,0.25,0.33,0.5,0.25,0.44,0.5,0.5,0.28,0.28,0.28,0.5,0.5,0.25,0.25,0.44,0.25,0.33,0.44,0.5,0.5,0.44,0.25,0.5,0.33,0.25,0.44,0.5,0.78,0.5,0.5,0.5,0.5,0.5,0.28,0.5,0.5,0.25,0.44,0.33,0.33,0.44,0.44,0.28,0.39,0.25,0.44,0.44,0.5,0.25,0.5,0.44,0.25,0.44,0.5,0.28,0.28,0.44,0.28,0.5,0.44,0.28,0.44,0.5,0.25,0.25,0.44,0.39,0.25,0.28,0.5,0.44,0.25,0.44,0.5,0.78,0.5,0.28,0.44,0.5,0.25,0.25" style="fill:rgb(0,0,0);font-family:TimesNewRomanPSMT;font-size:11.04px;stroke:none;">). In addition, a range of compounding effects can be anticipated, as the complex, </text>
  </g>
  <g begin="text">
   <text y="147.14" x="48.48" svgx:width="0.5" style="fill:rgb(0,0,0);font-family:TimesNewRomanPSMT;font-size:11.04px;stroke:none;">4</text>
  </g>
  <g begin="text">
   <text y="147.14" x="54.0" svgx:width="0.25" style="fill:rgb(0,0,0);font-family:TimesNewRomanPSMT;font-size:11.04px;stroke:none;"> </text>
  </g>
  <g begin="text">
   <text y="161.06" x="72.024,75.137,80.657,83.66,88.562,92.293,97.195,102.616,108.136,113.656,118.558,123.371,126.484,131.386,136.807,140.03,144.932,147.946,150.949,159.582,164.484,167.498,172.4,175.645,180.547,185.968,191.488,194.601,199.503,205.023,209.947,213.656,219.055,224.575,227.798,232.093,237.514,241.808,244.943,249.746,258.379,261.492,266.394,270.126,275.028,278.152,281.265,286.664,290.373,293.486,298.885,303.787,309.307,314.12,319.022,324.542,327.788,333.308,338.828,341.941,350.574,356.094,359.097,362.1,365.213,370.733,373.736,378.638,381.884,389.799,394.701,399.515,402.628,408.148,412.95,416.66,419.884,424.785,430.305,435.726,438.95,443.851,446.865,449.979,458.501,463.403,466.528,471.33,474.554,479.455,484.975,490.495,495.916,499.029,502.032,505.145,510.665,516.064,520.359,523.019" svgx:width="0.28,0.5,0.28,0.44,0.33,0.44,0.5,0.5,0.5,0.44,0.44,0.28,0.44,0.5,0.25,0.44,0.28,0.28,0.78,0.44,0.28,0.44,0.25,0.44,0.5,0.5,0.25,0.44,0.5,0.44,0.33,0.5,0.5,0.25,0.39,0.5,0.39,0.28,0.44,0.78,0.25,0.44,0.33,0.44,0.25,0.28,0.5,0.33,0.28,0.5,0.44,0.5,0.44,0.44,0.5,0.25,0.5,0.5,0.25,0.78,0.5,0.28,0.28,0.28,0.5,0.28,0.44,0.25,0.72,0.44,0.44,0.28,0.5,0.44,0.33,0.25,0.44,0.5,0.5,0.25,0.44,0.28,0.28,0.78,0.44,0.28,0.44,0.25,0.44,0.5,0.5,0.5,0.28,0.28,0.28,0.5,0.5,0.39,0.25,0.25" style="fill:rgb(0,0,0);font-family:TimesNewRomanPSMT;font-size:11.04px;stroke:none;">interconnected climate and energy system are influenced by multiple weather and climate conditions. </text>
  </g>
  <g begin="text">
   <text y="161.06" x="48.48" svgx:width="0.5" style="fill:rgb(0,0,0);font-family:TimesNewRomanPSMT;font-size:11.04px;stroke:none;">5</text>
  </g>
  <g begin="text">
   <text y="161.06" x="54.0" svgx:width="0.25" style="fill:rgb(0,0,0);font-family:TimesNewRomanPSMT;font-size:11.04px;stroke:none;"> </text>
  </g>
  <g begin="text">
   <text y="174.98" x="72.024,78.769,84.289,87.359,91.697,94.689,98.399,103.201,106.314,110.509" svgx:width="0.61,0.5,0.28,0.39,0.25,0.33,0.44,0.28,0.39,0.44" style="fill:rgb(0,0,0);font-family:TimesNewRomanPSMT;font-size:11.04px;stroke:none;">This raise</text>
  </g>
  <g begin="text">
   <text y="174.98" x="115.46,119.755,122.768,125.882,131.28,136.182,139.185,144.705,150.225,155.127,159.344,162.457,165.571,170.969,176.489,179.481,185.001,188.71,191.581,199.497,205.017,209.918,213.043,218.563,223.365,227.074,230.066,233.18,238.7,243.601,246.604,251.407,256.927,261.828,265.56,270.958,276.478,279.47,283.765,289.285,293.513,296.626,301.429,310.062,313.054,316.167,319.877,324.778,330.199,334.494,338.225,343.624,347.223,355.856,360.758,363.772,366.885,372.405,377.925,380.917,386.437,391.239,396.141,401.661,406.585,412.105,414.975,418.089,423.609,426.6,429.714,432.716,441.35,444.353,447.466,450.458,458.373,463.275,466.896,475.53,478.643,484.041,489.561,492.553,500.469,503.582,506.585,509.698,512.69,518.21,523.013" svgx:width="0.39,0.25,0.28,0.5,0.44,0.25,0.5,0.5,0.44,0.39,0.28,0.28,0.5,0.5,0.25,0.5,0.33,0.25,0.72,0.5,0.44,0.28,0.5,0.44,0.33,0.25,0.28,0.5,0.44,0.25,0.44,0.5,0.44,0.33,0.5,0.5,0.25,0.39,0.5,0.39,0.28,0.44,0.78,0.25,0.28,0.33,0.44,0.5,0.39,0.33,0.5,0.33,0.78,0.44,0.28,0.28,0.5,0.5,0.25,0.5,0.44,0.44,0.5,0.44,0.5,0.25,0.28,0.5,0.25,0.28,0.28,0.78,0.28,0.28,0.25,0.72,0.44,0.33,0.78,0.28,0.5,0.5,0.25,0.72,0.28,0.28,0.28,0.25,0.5,0.44,0.25" style="fill:rgb(0,0,0);font-family:TimesNewRomanPSMT;font-size:11.04px;stroke:none;">s the question of whether the energy system transformation needed to limit warming will be </text>
  </g>
  <g begin="text">
   <text y="174.98" x="48.48" svgx:width="0.5" style="fill:rgb(0,0,0);font-family:TimesNewRomanPSMT;font-size:11.04px;stroke:none;">6</text>
  </g>
  <g begin="text">
   <text y="174.98" x="54.0" svgx:width="0.25" style="fill:rgb(0,0,0);font-family:TimesNewRomanPSMT;font-size:11.04px;stroke:none;"> </text>
  </g>
  <g begin="text">
   <text y="188.9" x="72.024,75.137,83.771,89.169,94.071,98.884,101.998,106.899,112.419,115.179,120.699,126.12,128.88,133.782,136.796,139.799,148.432,153.334,156.348,161.249,164.009,168.933,174.332,179.233,184.753,190.174,195.076,197.836" svgx:width="0.28,0.78,0.5,0.44,0.44,0.28,0.44,0.5,0.25,0.5,0.5,0.25,0.44,0.28,0.28,0.78,0.44,0.28,0.44,0.25,0.44,0.5,0.44,0.5,0.5,0.44,0.25,0.25" style="fill:rgb(0,0,0);font-family:TimesNewRomanPSMT;font-size:11.04px;stroke:none;">impacted by climate change. </text>
  </g>
  <g begin="text">
   <text y="188.9" x="200.69" svgx:width="0.25" style="fill:rgb(0,0,0);font-family:TimesNewRomanPSMT;font-size:11.04px;stroke:none;"> </text>
  </g>
  <g begin="text">
   <text y="188.9" x="48.48" svgx:width="0.5" style="fill:rgb(0,0,0);font-family:TimesNewRomanPSMT;font-size:11.04px;stroke:none;">7</text>
  </g>
  <g begin="text">
   <text y="188.9" x="54.0" svgx:width="0.25" style="fill:rgb(0,0,0);font-family:TimesNewRomanPSMT;font-size:11.04px;stroke:none;"> </text>
  </g>
  <g begin="text">
   <text y="208.82" x="72.024" svgx:width="0.25" style="fill:rgb(0,0,0);font-family:TimesNewRomanPSMT;font-size:11.04px;stroke:none;"> </text>
  </g>
  <g begin="text">
   <text y="208.82" x="48.48" svgx:width="0.5" style="fill:rgb(0,0,0);font-family:TimesNewRomanPSMT;font-size:11.04px;stroke:none;">8</text>
  </g>
  <g begin="text">
   <text y="208.82" x="54.0" svgx:width="0.25" style="fill:rgb(0,0,0);font-family:TimesNewRomanPSMT;font-size:11.04px;stroke:none;"> </text>
  </g>
  <g begin="text">
   <text y="602.109" transform="matrix(0.70711,-0.70711,0.70711,0.70711,-395.12956,250.29085)" rotateDegrees="-45" matrix="[29.803345,29.803345,-29.803345,29.803345,104.563255,239.8115]" x="104.563" svgx:width="0.67" style="fill:rgb(0,0,0);font-family:Arial;font-size:42.15px;stroke:none;">A</text>
   <text y="582.23" transform="matrix(0.70711,-0.70711,0.70711,0.70711,-375.25056,258.525)" rotateDegrees="-45" matrix="[29.803345,29.803345,-29.803345,29.803345,124.442085,259.6903]" x="124.442" svgx:width="0.72" style="fill:rgb(0,0,0);font-family:Arial;font-size:42.15px;stroke:none;">C</text>
   <text y="560.712" transform="matrix(0.70711,-0.70711,0.70711,0.70711,-353.73256,267.43805)" rotateDegrees="-45" matrix="[29.803345,29.803345,-29.803345,29.803345,145.9601,281.20834]" x="145.96" svgx:width="0.72" style="fill:rgb(0,0,0);font-family:Arial;font-size:42.15px;stroke:none;">C</text>
   <text y="539.194" transform="matrix(0.70711,-0.70711,0.70711,0.70711,-332.21456,276.3511)" rotateDegrees="-45" matrix="[29.803345,29.803345,-29.803345,29.803345,167.47812,302.72635]" x="167.478" svgx:width="0.67" style="fill:rgb(0,0,0);font-family:Arial;font-size:42.15px;stroke:none;">E</text>
   <text y="519.315" transform="matrix(0.70711,-0.70711,0.70711,0.70711,-312.33556,284.58525)" rotateDegrees="-45" matrix="[29.803345,29.803345,-29.803345,29.803345,187.35693,322.60516]" x="187.357" svgx:width="0.67" style="fill:rgb(0,0,0);font-family:Arial;font-size:42.15px;stroke:none;">P</text>
   <text y="499.436" transform="matrix(0.70711,-0.70711,0.70711,0.70711,-292.45656,292.8194)" rotateDegrees="-45" matrix="[29.803345,29.803345,-29.803345,29.803345,207.23578,342.484]" x="207.236" svgx:width="0.61" style="fill:rgb(0,0,0);font-family:Arial;font-size:42.15px;stroke:none;">T</text>
   <text y="481.226" transform="matrix(0.70711,-0.70711,0.70711,0.70711,-274.24656,300.36223)" rotateDegrees="-45" matrix="[29.803345,29.803345,-29.803345,29.803345,225.44562,360.69385]" x="225.446" svgx:width="0.67" style="fill:rgb(0,0,0);font-family:Arial;font-size:42.15px;stroke:none;">E</text>
   <text y="461.347" transform="matrix(0.70711,-0.70711,0.70711,0.70711,-254.36786,308.59567)" rotateDegrees="-45" matrix="[29.803345,29.803345,-29.803345,29.803345,245.32443,380.57266]" x="245.324" svgx:width="0.72" style="fill:rgb(0,0,0);font-family:Arial;font-size:42.15px;stroke:none;">D</text>
   <text y="439.829" transform="matrix(0.70711,-0.70711,0.70711,0.70711,-232.84986,317.50872)" rotateDegrees="-45" matrix="[29.803345,29.803345,-29.803345,29.803345,266.84247,402.0907]" x="266.842" svgx:width="0.28" style="fill:rgb(0,0,0);font-family:Arial;font-size:42.15px;stroke:none;"> </text>
   <text y="431.54" transform="matrix(0.70711,-0.70711,0.70711,0.70711,-224.56056,320.94284)" rotateDegrees="-45" matrix="[29.803345,29.803345,-29.803345,29.803345,275.13153,410.37976]" x="275.132" svgx:width="0.67" style="fill:rgb(0,0,0);font-family:Arial;font-size:42.15px;stroke:none;">V</text>
   <text y="411.661" transform="matrix(0.70711,-0.70711,0.70711,0.70711,-204.68186,329.17629)" rotateDegrees="-45" matrix="[29.803345,29.803345,-29.803345,29.803345,295.0103,430.25858]" x="295.01" svgx:width="0.67" style="fill:rgb(0,0,0);font-family:Arial;font-size:42.15px;stroke:none;">E</text>
   <text y="391.783" transform="matrix(0.70711,-0.70711,0.70711,0.70711,-184.80356,337.41073)" rotateDegrees="-45" matrix="[29.803345,29.803345,-29.803345,29.803345,314.88916,450.1374]" x="314.889" svgx:width="0.72" style="fill:rgb(0,0,0);font-family:Arial;font-size:42.15px;stroke:none;">R</text>
   <text y="370.265" transform="matrix(0.70711,-0.70711,0.70711,0.70711,-163.28556,346.32378)" rotateDegrees="-45" matrix="[29.803345,29.803345,-29.803345,29.803345,336.40717,471.65543]" x="336.407" svgx:width="0.67" style="fill:rgb(0,0,0);font-family:Arial;font-size:42.15px;stroke:none;">S</text>
   <text y="350.386" transform="matrix(0.70711,-0.70711,0.70711,0.70711,-143.40656,354.55793)" rotateDegrees="-45" matrix="[29.803345,29.803345,-29.803345,29.803345,356.286,491.53424]" x="356.286" svgx:width="0.28" style="fill:rgb(0,0,0);font-family:Arial;font-size:42.15px;stroke:none;">I</text>
   <text y="342.1" transform="matrix(0.70711,-0.70711,0.70711,0.70711,-135.12086,357.9894)" rotateDegrees="-45" matrix="[29.803345,29.803345,-29.803345,29.803345,364.57135,499.81958]" x="364.571" svgx:width="0.78" style="fill:rgb(0,0,0);font-family:Arial;font-size:42.15px;stroke:none;">O</text>
   <text y="318.913" transform="matrix(0.70711,-0.70711,0.70711,0.70711,-111.93386,367.59377)" rotateDegrees="-45" matrix="[29.803345,29.803345,-29.803345,29.803345,387.7583,523.0066]" x="387.758" svgx:width="0.72" style="fill:rgb(0,0,0);font-family:Arial;font-size:42.15px;stroke:none;">N</text>
   <text y="297.395" transform="matrix(0.70711,-0.70711,0.70711,0.70711,-90.41586,376.50681)" rotateDegrees="-45" matrix="[29.803345,29.803345,-29.803345,29.803345,409.27637,544.5246]" x="409.276" svgx:width="0.28" style="fill:rgb(0,0,0);font-family:Arial;font-size:42.15px;stroke:none;"> </text>
   <text y="637.872" transform="matrix(0.70711,-0.70711,0.70711,0.70711,-409.94279,286.05456)" rotateDegrees="-45" matrix="[29.803345,29.803345,-29.803345,29.803345,140.32727,204.04747]" x="140.327" svgx:width="0.67" style="fill:rgb(0,0,0);font-family:Arial;font-size:42.15px;stroke:none;">S</text>
   <text y="617.994" transform="matrix(0.70711,-0.70711,0.70711,0.70711,-390.0645,294.289)" rotateDegrees="-45" matrix="[29.803345,29.803345,-29.803345,29.803345,160.2061,223.9263]" x="160.206" svgx:width="0.72" style="fill:rgb(0,0,0);font-family:Arial;font-size:42.15px;stroke:none;">U</text>
   <text y="596.476" transform="matrix(0.70711,-0.70711,0.70711,0.70711,-368.5465,303.20205)" rotateDegrees="-45" matrix="[29.803345,29.803345,-29.803345,29.803345,181.72412,245.4443]" x="181.724" svgx:width="0.67" style="fill:rgb(0,0,0);font-family:Arial;font-size:42.15px;stroke:none;">B</text>
   <text y="576.597" transform="matrix(0.70711,-0.70711,0.70711,0.70711,-348.6675,311.4362)" rotateDegrees="-45" matrix="[29.803345,29.803345,-29.803345,29.803345,201.60294,265.32315]" x="201.603" svgx:width="0.5" style="fill:rgb(0,0,0);font-family:Arial;font-size:42.15px;stroke:none;">J</text>
   <text y="561.695" transform="matrix(0.70711,-0.70711,0.70711,0.70711,-333.7655,317.60881)" rotateDegrees="-45" matrix="[29.803345,29.803345,-29.803345,29.803345,216.50462,280.22482]" x="216.505" svgx:width="0.67" style="fill:rgb(0,0,0);font-family:Arial;font-size:42.15px;stroke:none;">E</text>
   <text y="541.816" transform="matrix(0.70711,-0.70711,0.70711,0.70711,-313.88679,325.84225)" rotateDegrees="-45" matrix="[29.803345,29.803345,-29.803345,29.803345,236.38344,300.10364]" x="236.383" svgx:width="0.72" style="fill:rgb(0,0,0);font-family:Arial;font-size:42.15px;stroke:none;">C</text>
   <text y="520.298" transform="matrix(0.70711,-0.70711,0.70711,0.70711,-292.36879,334.7553)" rotateDegrees="-45" matrix="[29.803345,29.803345,-29.803345,29.803345,257.90146,321.62164]" x="257.901" svgx:width="0.61" style="fill:rgb(0,0,0);font-family:Arial;font-size:42.15px;stroke:none;">T</text>
   <text y="502.089" transform="matrix(0.70711,-0.70711,0.70711,0.70711,-274.1595,342.29842)" rotateDegrees="-45" matrix="[29.803345,29.803345,-29.803345,29.803345,276.1113,339.83148]" x="276.111" svgx:width="0.28" style="fill:rgb(0,0,0);font-family:Arial;font-size:42.15px;stroke:none;"> </text>
   <text y="493.803" transform="matrix(0.70711,-0.70711,0.70711,0.70711,-265.8735,345.7306)" rotateDegrees="-45" matrix="[29.803345,29.803345,-29.803345,29.803345,284.39664,348.11682]" x="284.397" svgx:width="0.61" style="fill:rgb(0,0,0);font-family:Arial;font-size:42.15px;stroke:none;">T</text>
   <text y="475.593" transform="matrix(0.70711,-0.70711,0.70711,0.70711,-247.66379,353.27272)" rotateDegrees="-45" matrix="[29.803345,29.803345,-29.803345,29.803345,302.60648,366.32666]" x="302.606" svgx:width="0.78" style="fill:rgb(0,0,0);font-family:Arial;font-size:42.15px;stroke:none;">O</text>
   <text y="452.406" transform="matrix(0.70711,-0.70711,0.70711,0.70711,-224.47679,362.87709)" rotateDegrees="-45" matrix="[29.803345,29.803345,-29.803345,29.803345,325.79346,389.51367]" x="325.793" svgx:width="0.28" style="fill:rgb(0,0,0);font-family:Arial;font-size:42.15px;stroke:none;"> </text>
   <text y="444.136" transform="matrix(0.70711,-0.70711,0.70711,0.70711,-216.2065,366.30334)" rotateDegrees="-45" matrix="[29.803345,29.803345,-29.803345,29.803345,334.0639,397.78412]" x="334.064" svgx:width="0.61" style="fill:rgb(0,0,0);font-family:Arial;font-size:42.15px;stroke:none;">F</text>
   <text y="425.926" transform="matrix(0.70711,-0.70711,0.70711,0.70711,-197.9965,373.84617)" rotateDegrees="-45" matrix="[29.803345,29.803345,-29.803345,29.803345,352.27374,415.99396]" x="352.274" svgx:width="0.28" style="fill:rgb(0,0,0);font-family:Arial;font-size:42.15px;stroke:none;">I</text>
   <text y="417.641" transform="matrix(0.70711,-0.70711,0.70711,0.70711,-189.7115,377.27793)" rotateDegrees="-45" matrix="[29.803345,29.803345,-29.803345,29.803345,360.55908,424.2793]" x="360.559" svgx:width="0.72" style="fill:rgb(0,0,0);font-family:Arial;font-size:42.15px;stroke:none;">N</text>
   <text y="396.123" transform="matrix(0.70711,-0.70711,0.70711,0.70711,-168.1935,386.19098)" rotateDegrees="-45" matrix="[29.803345,29.803345,-29.803345,29.803345,382.0771,445.7973]" x="382.077" svgx:width="0.67" style="fill:rgb(0,0,0);font-family:Arial;font-size:42.15px;stroke:none;">A</text>
   <text y="376.244" transform="matrix(0.70711,-0.70711,0.70711,0.70711,-148.3145,394.42513)" rotateDegrees="-45" matrix="[29.803345,29.803345,-29.803345,29.803345,401.95593,465.67615]" x="401.956" svgx:width="0.56" style="fill:rgb(0,0,0);font-family:Arial;font-size:42.15px;stroke:none;">L</text>
   <text y="359.673" transform="matrix(0.70711,-0.70711,0.70711,0.70711,-131.7435,401.28906)" rotateDegrees="-45" matrix="[29.803345,29.803345,-29.803345,29.803345,418.5266,482.24677]" x="418.527" svgx:width="0.28" style="fill:rgb(0,0,0);font-family:Arial;font-size:42.15px;stroke:none;"> </text>
   <text y="351.394" transform="matrix(0.70711,-0.70711,0.70711,0.70711,-123.4645,404.71834)" rotateDegrees="-45" matrix="[29.803345,29.803345,-29.803345,29.803345,426.80573,490.52588]" x="426.806" svgx:width="0.67" style="fill:rgb(0,0,0);font-family:Arial;font-size:42.15px;stroke:none;">E</text>
   <text y="331.515" transform="matrix(0.70711,-0.70711,0.70711,0.70711,-103.5855,412.95249)" rotateDegrees="-45" matrix="[29.803345,29.803345,-29.803345,29.803345,446.68457,510.40472]" x="446.685" svgx:width="0.72" style="fill:rgb(0,0,0);font-family:Arial;font-size:42.15px;stroke:none;">D</text>
   <text y="309.997" transform="matrix(0.70711,-0.70711,0.70711,0.70711,-82.0675,421.86554)" rotateDegrees="-45" matrix="[29.803345,29.803345,-29.803345,29.803345,468.2025,531.9227]" x="468.203" svgx:width="0.28" style="fill:rgb(0,0,0);font-family:Arial;font-size:42.15px;stroke:none;">I</text>
   <text y="301.712" transform="matrix(0.70711,-0.70711,0.70711,0.70711,-73.7825,425.29729)" rotateDegrees="-45" matrix="[29.803345,29.803345,-29.803345,29.803345,476.48785,540.20807]" x="476.488" svgx:width="0.61" style="fill:rgb(0,0,0);font-family:Arial;font-size:42.15px;stroke:none;">T</text>
   <text y="283.502" transform="matrix(0.70711,-0.70711,0.70711,0.70711,-55.5725,432.84012)" rotateDegrees="-45" matrix="[29.803345,29.803345,-29.803345,29.803345,494.6977,558.4179]" x="494.698" svgx:width="0.67" style="fill:rgb(0,0,0);font-family:Arial;font-size:42.15px;stroke:none;">S</text>
  </g>
 </g>
</svg>
