<?xml version="1.0" encoding="UTF-8"?>
<svg height="807.04" width="2582.0" xmlns="http://www.w3.org/2000/svg">
 <g id="page" xmlns:svgx="http://www.xml-cml.org/schema/svgx">
  <g begin="text">
   <text y="45.72" x="72.024,78.162,81.231,86.751,91.587,94.7,97.46,105.376,110.896,116.416,121.218,124.928,130.448,138.971,143.872,149.392,152.517,155.277,163.082,166.195,170.39,173.504,177.103,180.216,185.736,191.135,194.137,197.251,202.771" svgx:width="0.56,0.28,0.5,0.44,0.28,0.25,0.72,0.5,0.5,0.44,0.33,0.5,0.78,0.44,0.5,0.28,0.25,0.72,0.28,0.39,0.28,0.33,0.28,0.5,0.5,0.28,0.28,0.5,0.5" style="fill:rgb(0,0,0);font-family:TimesNewRomanPSMT;font-size:11.04px;stroke:none;">Final Government Distribution</text>
  </g>
  <g begin="text">
   <text y="45.72" x="208.37" svgx:width="0.25" style="fill:rgb(0,0,0);font-family:TimesNewRomanPSMT;font-size:11.04px;stroke:none;"> </text>
  </g>
  <g begin="text">
   <text y="45.72" x="211.01" svgx:width="0.25" style="fill:rgb(0,0,0);font-family:TimesNewRomanPSMT;font-size:11.04px;stroke:none;"> </text>
  </g>
  <g begin="text">
   <text y="45.72" x="216.05" svgx:width="0.25" style="fill:rgb(0,0,0);font-family:TimesNewRomanPSMT;font-size:11.04px;stroke:none;"> </text>
  </g>
  <g begin="text">
   <text y="45.72" x="252.05" svgx:width="0.25" style="fill:rgb(0,0,0);font-family:TimesNewRomanPSMT;font-size:11.04px;stroke:none;"> </text>
  </g>
  <g begin="text">
   <text y="45.72" x="288.05,295.369,300.889,305.791,311.311,314.436,319.238,322.947,325.707" svgx:width="0.67,0.5,0.44,0.5,0.28,0.44,0.33,0.25,0.5" style="fill:rgb(0,0,0);font-family:TimesNewRomanPSMT;font-size:11.04px;stroke:none;">Chapter 6</text>
  </g>
  <g begin="text">
   <text y="45.72" x="331.15" svgx:width="0.25" style="fill:rgb(0,0,0);font-family:TimesNewRomanPSMT;font-size:11.04px;stroke:none;"> </text>
  </g>
  <g begin="text">
   <text y="45.72" x="360.07" svgx:width="0.25" style="fill:rgb(0,0,0);font-family:TimesNewRomanPSMT;font-size:11.04px;stroke:none;"> </text>
  </g>
  <g begin="text">
   <text y="45.72" x="396.07" svgx:width="0.25" style="fill:rgb(0,0,0);font-family:TimesNewRomanPSMT;font-size:11.04px;stroke:none;"> </text>
  </g>
  <g begin="text">
   <text y="45.72" x="432.07,435.669,441.807,449.105,456.424" svgx:width="0.33,0.56,0.67,0.67,0.25" style="fill:rgb(0,0,0);font-family:TimesNewRomanPSMT;font-size:11.04px;stroke:none;">IPCC </text>
  </g>
  <g begin="text">
   <text y="45.72" x="459.22,469.642,477.613,481.289,484.899,488.498,491.258,499.174,506.493" svgx:width="0.94,0.72,0.33,0.33,0.33,0.25,0.72,0.67,0.5" style="fill:rgb(0,0,0);font-family:TimesNewRomanPSMT;font-size:11.04px;stroke:none;">WGIII AR6</text>
  </g>
  <g begin="text">
   <text y="45.72" x="512.14" svgx:width="0.25" style="fill:rgb(0,0,0);font-family:TimesNewRomanPSMT;font-size:11.04px;stroke:none;"> </text>
  </g>
  <g begin="text">
   <text y="783.096" x="72.024,79.94,85.46,88.22,96.135,101.655,105.365,108.125,116.04,119.154,122.753,127.655,130.415,133.075,141.708,147.847,153.367,157.043,161.868,164.628,170.148,175.049,177.809,185.78,188.75,192.945,196.655,201.556,204.681,210.819,216.803,220.512" svgx:width="0.72,0.5,0.25,0.72,0.5,0.33,0.25,0.72,0.28,0.33,0.44,0.25,0.25,0.78,0.56,0.5,0.33,0.44,0.25,0.5,0.44,0.25,0.72,0.28,0.39,0.33,0.44,0.28,0.56,0.56,0.33,0.44" style="fill:rgb(0,0,0);font-family:TimesNewRomanPS-BoldMT;font-size:11.04px;stroke:none;">Do Not Cite, Quote or Distribute</text>
  </g>
  <g begin="text">
   <text y="783.096" x="225.41" svgx:width="0.25" style="fill:rgb(0,0,0);font-family:TimesNewRomanPS-BoldMT;font-size:11.04px;stroke:none;"> </text>
  </g>
  <g begin="text">
   <text y="783.096" x="284.81" svgx:width="0.5" style="fill:rgb(0,0,0);font-family:TimesNewRomanPSMT;font-size:11.04px;stroke:none;">6</text>
  </g>
  <g begin="text">
   <text y="783.096" x="290.33" svgx:width="0.33" style="fill:rgb(0,0,0);font-family:TimesNewRomanPS-BoldMT;font-size:11.04px;stroke:none;">-</text>
  </g>
  <g begin="text">
   <text y="783.096" x="294.05,299.57,305.09" svgx:width="0.5,0.5,0.5" style="fill:rgb(0,0,0);font-family:TimesNewRomanPSMT;font-size:11.04px;stroke:none;">111</text>
  </g>
  <g begin="text">
   <text y="783.096" x="310.61" svgx:width="0.25" style="fill:rgb(0,0,0);font-family:TimesNewRomanPSMT;font-size:11.04px;stroke:none;"> </text>
  </g>
  <g begin="text">
   <text y="783.096" x="313.27" svgx:width="0.25" style="fill:rgb(0,0,0);font-family:TimesNewRomanPSMT;font-size:11.04px;stroke:none;"> </text>
  </g>
  <g begin="text">
   <text y="783.096" x="450.1,456.845,462.365,465.435,470.259,473.372,476.132,481.652,486.554,491.975,496.876,501.204,504.207" svgx:width="0.61,0.5,0.28,0.44,0.28,0.25,0.5,0.44,0.5,0.44,0.39,0.28,0.25" style="fill:rgb(0,0,0);font-family:TimesNewRomanPSMT;font-size:11.04px;stroke:none;">Total pages: </text>
  </g>
  <g begin="text">
   <text y="783.096" x="506.98,512.5,518.02" svgx:width="0.5,0.5,0.5" style="fill:rgb(0,0,0);font-family:TimesNewRomanPSMT;font-size:11.04px;stroke:none;">217</text>
  </g>
  <g begin="text">
   <text y="783.096" x="523.42" svgx:width="0.25" style="fill:rgb(0,0,0);font-family:TimesNewRomanPSMT;font-size:9.96px;stroke:none;"> </text>
  </g>
  <g begin="text">
   <text y="797.04" x="72.024" svgx:width="0.25" style="fill:rgb(0,0,0);font-family:TimesNewRomanPSMT;font-size:11.04px;stroke:none;"> </text>
  </g>
  <g begin="text">
   <text y="354.05" x="523.54" svgx:width="0.25" style="fill:rgb(0,0,0);font-family:TimesNewRomanPSMT;font-size:11.04px;stroke:none;"> </text>
  </g>
  <g begin="text">
   <text y="354.05" x="48.48" svgx:width="0.5" style="fill:rgb(0,0,0);font-family:TimesNewRomanPSMT;font-size:11.04px;stroke:none;">1</text>
  </g>
  <g begin="text">
   <text y="354.05" x="54.0" svgx:width="0.25" style="fill:rgb(0,0,0);font-family:TimesNewRomanPSMT;font-size:11.04px;stroke:none;"> </text>
  </g>
  <g begin="text">
   <text y="370.73" x="73.944" svgx:width="0.25" style="fill:rgb(0,0,0);font-family:TimesNewRomanPS-BoldMT;font-size:9.96px;stroke:none;"> </text>
  </g>
  <g begin="text">
   <text y="370.73" x="76.464,82.569,85.338,90.358,95.896,100.318,104.74" svgx:width="0.61,0.28,0.5,0.56,0.44,0.44,0.25" style="fill:rgb(0,0,0);font-family:TimesNewRomanPS-BoldMT;font-size:9.96px;stroke:none;">Figure </text>
  </g>
  <g begin="text">
   <text y="370.73" x="107.3" svgx:width="0.5" style="fill:rgb(0,0,0);font-family:TimesNewRomanPS-BoldMT;font-size:9.96px;stroke:none;">6</text>
  </g>
  <g begin="text">
   <text y="370.73" x="112.34" svgx:width="0.25" style="fill:rgb(0,0,0);font-family:TimesNewRomanPS-BoldMT;font-size:9.96px;stroke:none;">.</text>
  </g>
  <g begin="text">
   <text y="370.73" x="114.86,119.9" svgx:width="0.5,0.5" style="fill:rgb(0,0,0);font-family:TimesNewRomanPS-BoldMT;font-size:9.96px;stroke:none;">32</text>
  </g>
  <g begin="text">
   <text y="370.73" x="124.82" svgx:width="0.25" style="fill:rgb(0,0,0);font-family:TimesNewRomanPS-BoldMT;font-size:9.96px;stroke:none;"> </text>
  </g>
  <g begin="text">
   <text y="370.73" x="127.34,135.129,137.898,142.917,148.455,153.465,156.234,158.724,163.664,168.694,173.116,177.568,182.598,187.628,192.05,194.47,199.5,205.038,210.536,216.074,221.084,223.852,226.342,229.111,234.649,239.669,244.091,247.966,251.282,259.698,264.121,269.658,273.005,276.85,279.359,282.706,287.128,292.178,300.564,303.074,308.104,313.024,318.054,323.084,325.594,328.94,333.861,336.371,341.4,346.321,351.35,356.38,358.89,362.237,367.774,373.272,378.81,381.579,385.394,389.816,394.866,400.403,405.901,409.248,413.67,419.208,421.718,424.228,426.997,432.534,435.134,442.325,447.863,455.054,457.564,463.102,465.87,468.599,471.468,474.237,479.257,484.795" svgx:width="0.78,0.28,0.5,0.56,0.5,0.28,0.25,0.5,0.5,0.44,0.44,0.5,0.5,0.44,0.25,0.5,0.56,0.56,0.56,0.5,0.28,0.25,0.28,0.56,0.5,0.44,0.39,0.33,0.83,0.44,0.56,0.33,0.39,0.25,0.33,0.44,0.5,0.83,0.25,0.5,0.5,0.5,0.5,0.25,0.33,0.5,0.25,0.5,0.5,0.5,0.5,0.25,0.33,0.56,0.56,0.56,0.28,0.39,0.44,0.5,0.56,0.56,0.33,0.44,0.56,0.25,0.25,0.28,0.56,0.25,0.72,0.56,0.72,0.25,0.56,0.28,0.28,0.28,0.28,0.5,0.56,0.25" style="fill:rgb(0,0,0);font-family:TimesNewRomanPS-BoldMT;font-size:9.96px;stroke:none;">Global average annual investments from 2023 to 2052 (undiscounted, in USD billion </text>
  </g>
  <g begin="text">
   <text y="370.73" x="487.78,492.82" svgx:width="0.5,0.44" style="fill:rgb(0,0,0);font-family:TimesNewRomanPS-BoldMT;font-size:9.96px;stroke:none;">yr</text>
  </g>
  <g begin="text">
   <text y="367.25" x="497.26" svgx:width="0.33" style="fill:rgb(0,0,0);font-family:TimesNewRomanPS-BoldMT;font-size:6.48px;stroke:none;">-</text>
  </g>
  <g begin="text">
   <text y="367.25" x="499.42" svgx:width="0.5" style="fill:rgb(0,0,0);font-family:TimesNewRomanPS-BoldMT;font-size:6.48px;stroke:none;">1</text>
  </g>
  <g begin="text">
   <text y="370.73" x="502.66,506.007,508.516,511.863,516.893,521.315" svgx:width="0.33,0.25,0.33,0.5,0.44,0.25" style="fill:rgb(0,0,0);font-family:TimesNewRomanPS-BoldMT;font-size:9.96px;stroke:none;">) for </text>
  </g>
  <g begin="text">
   <text y="370.73" x="48.48" svgx:width="0.5" style="fill:rgb(0,0,0);font-family:TimesNewRomanPSMT;font-size:11.04px;stroke:none;">2</text>
  </g>
  <g begin="text">
   <text y="370.73" x="54.0" svgx:width="0.25" style="fill:rgb(0,0,0);font-family:TimesNewRomanPSMT;font-size:11.04px;stroke:none;"> </text>
  </g>
  <g begin="text">
   <text y="383.33" x="75.144,79.566,82.335,86.757,91.21,94.556,98.978,101.747,106.169,108.938,112.305,117.335,119.845,123.689,129.227,134.725,140.263,143.031,148.031,150.541,154.386,160.013" svgx:width="0.44,0.28,0.44,0.44,0.33,0.44,0.28,0.44,0.28,0.33,0.5,0.25,0.39,0.56,0.56,0.56,0.28,0.5,0.25,0.39,0.56,0.56" style="fill:rgb(0,0,0);font-family:TimesNewRomanPS-BoldMT;font-size:9.96px;stroke:none;">electricity supply sub</text>
  </g>
  <g begin="text">
   <text y="383.33" x="165.62" svgx:width="0.33" style="fill:rgb(0,0,0);font-family:TimesNewRomanPS-BoldMT;font-size:9.96px;stroke:none;">-</text>
  </g>
  <g begin="text">
   <text y="383.33" x="168.98,172.825,177.247,181.699,185.046,190.075,194.498,198.372,200.862,205.902,211.439,216.937,219.447,222.794,227.824,232.246,234.776,239.198,244.248,247.594,252.017,257.066,261.489,264.855,267.494,272.524,278.062,280.552,285.592,288.938,291.448,294.685,299.715,303.56,307.404,310.173,312.942,315.432,318.798,324.336,328.758,331.527,335.362,337.872,340.641,346.178,348.668,355.86" svgx:width="0.39,0.44,0.44,0.33,0.5,0.44,0.39,0.25,0.5,0.56,0.56,0.25,0.33,0.5,0.44,0.25,0.44,0.5,0.33,0.44,0.5,0.44,0.33,0.28,0.5,0.56,0.25,0.5,0.33,0.25,0.33,0.5,0.39,0.39,0.28,0.28,0.25,0.33,0.56,0.44,0.28,0.39,0.25,0.28,0.56,0.25,0.72,0.5" style="fill:rgb(0,0,0);font-family:TimesNewRomanPS-BoldMT;font-size:9.96px;stroke:none;">sectors and for extraction of fossil fuels in C1</text>
  </g>
  <g begin="text">
   <text y="383.33" x="361.15" svgx:width="0.33" style="fill:rgb(0,0,0);font-family:TimesNewRomanPS-BoldMT;font-size:9.96px;stroke:none;">-</text>
  </g>
  <g begin="text">
   <text y="383.33" x="364.51,371.701,376.741,379.251,384.789,389.799,393.145,398.683,405.874,410.894,415.924,419.768" svgx:width="0.72,0.5,0.25,0.56,0.5,0.33,0.56,0.72,0.5,0.5,0.39,0.25" style="fill:rgb(0,0,0);font-family:TimesNewRomanPS-BoldMT;font-size:9.96px;stroke:none;">C3 pathways </text>
  </g>
  <g begin="text">
   <text y="383.33" x="422.35,425.697,431.234,436.244,441.782,446.204,450.626,455.079,458.425,460.935,468.126,475.317,480.367,482.877,488.415,492.837,497.259,502.797,507.827,512.249,515.018,520.057" svgx:width="0.33,0.56,0.5,0.56,0.44,0.44,0.44,0.33,0.25,0.72,0.72,0.5,0.25,0.56,0.44,0.44,0.56,0.5,0.44,0.28,0.5,0.25" style="fill:rgb(0,0,0);font-family:TimesNewRomanPS-BoldMT;font-size:9.96px;stroke:none;">(Source: AR6 Scenario </text>
  </g>
  <g begin="text">
   <text y="383.33" x="48.48" svgx:width="0.5" style="fill:rgb(0,0,0);font-family:TimesNewRomanPSMT;font-size:11.04px;stroke:none;">3</text>
  </g>
  <g begin="text">
   <text y="383.33" x="54.0" svgx:width="0.25" style="fill:rgb(0,0,0);font-family:TimesNewRomanPSMT;font-size:11.04px;stroke:none;"> </text>
  </g>
  <g begin="text">
   <text y="396.05" x="83.784,90.975,96.015,99.361,104.391,109.929,114.939,118.783,123.206,125.736,130.765,136.303,141.801,144.311,151.502,157.04,162.06,167.597,170.914,175.366,179.788,182.318,187.348" svgx:width="0.72,0.5,0.33,0.5,0.56,0.5,0.39,0.44,0.25,0.5,0.56,0.56,0.25,0.72,0.56,0.5,0.56,0.33,0.44,0.44,0.25,0.5,0.33" style="fill:rgb(0,0,0);font-family:TimesNewRomanPS-BoldMT;font-size:9.96px;stroke:none;">Database and Chapter 3)</text>
  </g>
  <g begin="text">
   <text y="396.05" x="190.85,193.36,195.87,203.659,206.298,210.143,213.489,218.519,222.941,225.71,230.132,235.192,237.961,240.451,243.22,248.757,253.777,258.199,262.074,265.391,273.807,278.229,283.767,287.113,290.958,293.468,298.498,302.92,307.372,309.882,314.912,317.681,321.515,326.545,328.945,332.79,338.328,343.338,350.529,356.067,358.557,361.923,366.953,371.375,373.905,378.327,383.377,391.763,397.301,402.311,406.733,409.502,413.376,418.376,423.914,426.404,429.771,435.308,440.318,445.856,450.278,454.701,459.153,462.499,465.009,468.854,475.457,482.648,485.168,487.678,492.708,497.738,502.767,507.797,511.144" svgx:width="0.25,0.25,0.78,0.28,0.39,0.33,0.5,0.44,0.28,0.44,0.5,0.28,0.25,0.28,0.56,0.5,0.44,0.39,0.33,0.83,0.44,0.56,0.33,0.39,0.25,0.5,0.44,0.44,0.25,0.5,0.28,0.39,0.5,0.25,0.39,0.56,0.5,0.72,0.56,0.25,0.33,0.5,0.44,0.25,0.44,0.5,0.83,0.56,0.5,0.44,0.28,0.39,0.5,0.56,0.25,0.33,0.56,0.5,0.56,0.44,0.44,0.44,0.33,0.25,0.39,0.67,0.72,0.25,0.25,0.5,0.5,0.5,0.5,0.33,0.25" style="fill:rgb(0,0,0);font-family:TimesNewRomanPS-BoldMT;font-size:9.96px;stroke:none;">. Historical investments are also shown for comparison (Source: IEA, 2021; </text>
  </g>
  <g begin="text">
   <text y="396.05" x="48.48" svgx:width="0.5" style="fill:rgb(0,0,0);font-family:TimesNewRomanPSMT;font-size:11.04px;stroke:none;">4</text>
  </g>
  <g begin="text">
   <text y="396.05" x="54.0" svgx:width="0.25" style="fill:rgb(0,0,0);font-family:TimesNewRomanPSMT;font-size:11.04px;stroke:none;"> </text>
  </g>
  <g begin="text">
   <text y="408.65" x="78.024,83.054,88.592,94.09,98.512,103.561,108.591,111.36,119.737,124.766,128.113,130.882,135.902,141.439,145.264,147.774,152.804,157.226,161.678,164.078,172.465,177.495,183.032,187.455,189.964,193.201,198.122,202.544,205.074,210.612,215.621,221.159,225.581,230.611,233.121,238.151,243.689,249.187,251.697,256.726,261.149,266.198,269.545,275.083,279.505,283.927" svgx:width="0.5,0.56,0.56,0.44,0.5,0.5,0.28,0.83,0.5,0.33,0.28,0.5,0.56,0.39,0.25,0.5,0.44,0.44,0.25,0.83,0.5,0.56,0.44,0.25,0.33,0.5,0.44,0.25,0.56,0.5,0.56,0.44,0.5,0.25,0.5,0.56,0.56,0.25,0.5,0.44,0.5,0.33,0.56,0.44,0.44,0.83" style="fill:rgb(0,0,0);font-family:TimesNewRomanPS-BoldMT;font-size:9.96px;stroke:none;">approximations are made for hydro and geotherm</text>
  </g>
  <g begin="text">
   <text y="408.65" x="292.49,297.52,300.289,302.779,308.316,313.346,317.191,321.613,327.151,329.661,334.69,340.228,342.718,347.758,352.788,357.818,360.587,363.355,368.365,373.903,376.672,381.094,383.584,389.122,394.152,397.498,402.528,405.765,408.275,412.12,417.149,419.918,424.938,429.36,431.89,436.81,442.348,447.846,450.356,457.547,460.316,465.944,471.481,473.971,479.011,484.041,486.81,492.347,496.77,500.604,503.114,508.144,512.566,517.018" svgx:width="0.5,0.28,0.25,0.56,0.5,0.39,0.44,0.56,0.25,0.5,0.56,0.25,0.5,0.5,0.5,0.28,0.28,0.5,0.56,0.28,0.44,0.25,0.56,0.5,0.33,0.5,0.33,0.25,0.39,0.5,0.28,0.5,0.44,0.25,0.5,0.56,0.56,0.25,0.72,0.28,0.56,0.56,0.25,0.5,0.5,0.28,0.56,0.44,0.39,0.25,0.5,0.44,0.44,0.25" style="fill:rgb(0,0,0);font-family:TimesNewRomanPS-BoldMT;font-size:9.96px;stroke:none;">al based on available data; solar and wind values are </text>
  </g>
  <g begin="text">
   <text y="408.65" x="48.48" svgx:width="0.5" style="fill:rgb(0,0,0);font-family:TimesNewRomanPSMT;font-size:11.04px;stroke:none;">5</text>
  </g>
  <g begin="text">
   <text y="408.65" x="54.0" svgx:width="0.25" style="fill:rgb(0,0,0);font-family:TimesNewRomanPSMT;font-size:11.04px;stroke:none;"> </text>
  </g>
  <g begin="text">
   <text y="421.37" x="78.864,82.211,87.24,91.663,94.192,99.222,104.143,109.172,114.202,117.549,119.949,122.459,125.805,132.409,140.706,147.897,151.243,154.59,157.1,160.446,164.869,169.918,175.456,179.281,187.667,190.436,194.27,198.115,200.884,205.904,211.442,213.932,218.971,224.509,230.007,232.517,238.055,240.824,244.638,247.985,252.407,255.176,260.813,266.351,269.668,272.437,277.486,283.024,285.514,290.554,293.9,296.41,300.833,303.601,308.024,312.476,315.822,320.245,323.014,327.436,330.205,333.571,338.601,341.111,343.621,350.224,355.254,359.676,363.551,366.041,369.915,375.413,380.443,387.634,390.154,398.54,402.962,408.5,411.269,416.289,421.827,424.317,429.357,434.386,437.155,442.693,447.115,450.95,453.46,458.49,462.912,467.364,472.394,476.238,480.083,482.593,490.979,496.009,501.547,505.969,508.738" svgx:width="0.33,0.5,0.44,0.25,0.5,0.5,0.5,0.5,0.33,0.25,0.25,0.33,0.67,0.83,0.72,0.33,0.33,0.25,0.33,0.44,0.5,0.56,0.39,0.83,0.28,0.39,0.39,0.28,0.5,0.56,0.25,0.5,0.56,0.56,0.25,0.56,0.28,0.39,0.33,0.44,0.28,0.56,0.56,0.33,0.28,0.5,0.56,0.25,0.5,0.33,0.25,0.44,0.28,0.44,0.44,0.33,0.44,0.28,0.44,0.28,0.33,0.5,0.25,0.25,0.67,0.5,0.44,0.39,0.25,0.39,0.56,0.5,0.72,0.25,0.83,0.44,0.56,0.28,0.5,0.56,0.25,0.5,0.5,0.28,0.56,0.44,0.39,0.25,0.5,0.44,0.44,0.5,0.39,0.39,0.25,0.83,0.5,0.56,0.44,0.28,0.39" style="fill:rgb(0,0,0);font-family:TimesNewRomanPS-BoldMT;font-size:9.96px;stroke:none;">for 2020). ‘T&amp;D’: transmission and distribution of electricity. Bars show median values across models</text>
  </g>
  <g begin="text">
   <text y="421.37" x="513.1" svgx:width="0.33" style="fill:rgb(0,0,0);font-family:TimesNewRomanPS-BoldMT;font-size:9.96px;stroke:none;">-</text>
  </g>
  <g begin="text">
   <text y="421.37" x="48.48" svgx:width="0.5" style="fill:rgb(0,0,0);font-family:TimesNewRomanPSMT;font-size:11.04px;stroke:none;">6</text>
  </g>
  <g begin="text">
   <text y="421.37" x="54.0" svgx:width="0.25" style="fill:rgb(0,0,0);font-family:TimesNewRomanPSMT;font-size:11.04px;stroke:none;"> </text>
  </g>
  <g begin="text">
   <text y="433.97" x="79.824,83.669,88.091,92.543,98.081,103.091,107.513,110.282,115.321,119.166,121.676,124.186,129.216,134.753,140.251,142.761,149.952,155.49,158.349,162.193,167.821,172.243,176.695,180.54,183.049,186.396,191.934,196.356,198.866,201.635,207.173,210.489,214.931" svgx:width="0.39,0.44,0.44,0.56,0.5,0.44,0.28,0.5,0.39,0.25,0.25,0.5,0.56,0.56,0.25,0.72,0.56,0.28,0.39,0.56,0.44,0.44,0.39,0.25,0.33,0.56,0.44,0.25,0.28,0.56,0.33,0.44,0.44" style="fill:rgb(0,0,0);font-family:TimesNewRomanPS-BoldMT;font-size:9.96px;stroke:none;">scenarios, and whiskers the inter</text>
  </g>
  <g begin="text">
   <text y="433.97" x="219.53" svgx:width="0.33" style="fill:rgb(0,0,0);font-family:TimesNewRomanPS-BoldMT;font-size:9.96px;stroke:none;">-</text>
  </g>
  <g begin="text">
   <text y="433.97" x="222.89,228.428,233.926,238.956,243.378,246.744,249.513,252.282,256.704,259.214,263.636,268.686,274.224,279.234,283.656" svgx:width="0.56,0.56,0.5,0.44,0.33,0.28,0.28,0.44,0.25,0.44,0.5,0.56,0.5,0.44,0.39" style="fill:rgb(0,0,0);font-family:TimesNewRomanPS-BoldMT;font-size:9.96px;stroke:none;">quartile ranges</text>
  </g>
  <g begin="text">
   <text y="433.97" x="287.57,290.08,292.59,298.128,302.55,306.972,309.502,316.693,322.33,327.36,332.898,336.215,340.667,345.089,348.963,351.453,356.493,359.003,364.033,369.571,375.069,377.578,382.608,387.638,390.148,393.385,398.415,402.837,405.367,410.397,415.934,421.432,424.201,427.538,430.307,435.327,440.864,445.874,448.643,451.133,453.902,459.44,462.786,467.816,472.238,480.645,485.565,488.912,491.68,496.7,502.238" svgx:width="0.25,0.25,0.56,0.44,0.44,0.25,0.72,0.56,0.5,0.56,0.33,0.44,0.44,0.39,0.25,0.5,0.25,0.5,0.56,0.56,0.25,0.5,0.5,0.25,0.33,0.5,0.44,0.25,0.5,0.56,0.56,0.28,0.33,0.28,0.5,0.56,0.5,0.28,0.25,0.28,0.56,0.33,0.5,0.44,0.83,0.5,0.33,0.28,0.5,0.56,0.25" style="fill:rgb(0,0,0);font-family:TimesNewRomanPS-BoldMT;font-size:9.96px;stroke:none;">. See Chapters 3 and 15 for additional information </text>
  </g>
  <g begin="text">
   <text y="433.97" x="505.06,510.09,515.628" svgx:width="0.5,0.56,0.25" style="fill:rgb(0,0,0);font-family:TimesNewRomanPS-BoldMT;font-size:9.96px;stroke:none;">on </text>
  </g>
  <g begin="text">
   <text y="433.97" x="48.48" svgx:width="0.5" style="fill:rgb(0,0,0);font-family:TimesNewRomanPSMT;font-size:11.04px;stroke:none;">7</text>
  </g>
  <g begin="text">
   <text y="433.97" x="54.0" svgx:width="0.25" style="fill:rgb(0,0,0);font-family:TimesNewRomanPSMT;font-size:11.04px;stroke:none;"> </text>
  </g>
  <g begin="text">
   <text y="446.59" x="245.09,247.859,253.397,258.397,262.819,266.693,270.01,278.426,282.848,288.386,291.733,295.577,298.087,303.117,308.655,314.153,316.663,320.009,322.778,328.316,333.316,338.853,343.276,347.698" svgx:width="0.28,0.56,0.5,0.44,0.39,0.33,0.83,0.44,0.56,0.33,0.39,0.25,0.5,0.56,0.56,0.25,0.33,0.28,0.56,0.5,0.56,0.44,0.44,0.25" style="fill:rgb(0,0,0);font-family:TimesNewRomanPS-BoldMT;font-size:9.96px;stroke:none;">investments and finance.</text>
  </g>
  <g begin="text">
   <text y="446.59" x="350.35" svgx:width="0.25" style="fill:rgb(0,0,0);font-family:TimesNewRomanPS-BoldMT;font-size:9.96px;stroke:none;"> </text>
  </g>
  <g begin="text">
   <text y="446.59" x="48.48" svgx:width="0.5" style="fill:rgb(0,0,0);font-family:TimesNewRomanPSMT;font-size:11.04px;stroke:none;">8</text>
  </g>
  <g begin="text">
   <text y="446.59" x="54.0" svgx:width="0.25" style="fill:rgb(0,0,0);font-family:TimesNewRomanPSMT;font-size:11.04px;stroke:none;"> </text>
  </g>
  <g begin="text">
   <text y="470.23" x="72.024" svgx:width="0.25" style="fill:rgb(0,0,0);font-family:TimesNewRomanPSMT;font-size:11.04px;stroke:none;"> </text>
  </g>
  <g begin="text">
   <text y="470.23" x="48.48" svgx:width="0.5" style="fill:rgb(0,0,0);font-family:TimesNewRomanPSMT;font-size:11.04px;stroke:none;">9</text>
  </g>
  <g begin="text">
   <text y="470.23" x="54.0" svgx:width="0.25" style="fill:rgb(0,0,0);font-family:TimesNewRomanPSMT;font-size:11.04px;stroke:none;"> </text>
  </g>
  <g begin="text">
   <text y="761.856" x="523.54" svgx:width="0.25" style="fill:rgb(0,0,0);font-family:TimesNewRomanPS-BoldMT;font-size:11.04px;stroke:none;"> </text>
  </g>
  <g begin="text">
   <text y="761.856" x="42.96,48.48" svgx:width="0.5,0.5" style="fill:rgb(0,0,0);font-family:TimesNewRomanPSMT;font-size:11.04px;stroke:none;">10</text>
  </g>
  <g begin="text">
   <text y="761.856" x="54.0" svgx:width="0.25" style="fill:rgb(0,0,0);font-family:TimesNewRomanPSMT;font-size:11.04px;stroke:none;"> </text>
  </g>
  <rect style="fill:pink;opacity:0.2;stroke:blue;stroke-width:0.3;" x="72.0" y="30.08" height="282.05" width="451.3" title="113"/>
  <text y="30.08" class="image" id="image.113.1" width="451" height="282" x="72.0" style="font-size:5.0px;">image.113.1.72_523.30_312</text>
  <rect style="fill:pink;opacity:0.2;stroke:blue;stroke-width:0.3;" x="72.0" y="437.851" height="282.05" width="451.3" title="113"/>
  <text y="437.851" class="image" id="image.113.2" width="451" height="282" x="72.0" style="font-size:5.0px;">image.113.2.72_523.438_720</text>
  <g begin="text">
   <text y="602.109" transform="matrix(0.70711,-0.70711,0.70711,0.70711,-395.12956,250.29085)" rotateDegrees="-45" matrix="[29.803345,29.803345,-29.803345,29.803345,104.563255,239.8115]" x="104.563" svgx:width="0.67" style="fill:rgb(0,0,0);font-family:Arial;font-size:42.15px;stroke:none;">A</text>
   <text y="582.23" transform="matrix(0.70711,-0.70711,0.70711,0.70711,-375.25056,258.525)" rotateDegrees="-45" matrix="[29.803345,29.803345,-29.803345,29.803345,124.442085,259.6903]" x="124.442" svgx:width="0.72" style="fill:rgb(0,0,0);font-family:Arial;font-size:42.15px;stroke:none;">C</text>
   <text y="560.712" transform="matrix(0.70711,-0.70711,0.70711,0.70711,-353.73256,267.43805)" rotateDegrees="-45" matrix="[29.803345,29.803345,-29.803345,29.803345,145.9601,281.20834]" x="145.96" svgx:width="0.72" style="fill:rgb(0,0,0);font-family:Arial;font-size:42.15px;stroke:none;">C</text>
   <text y="539.194" transform="matrix(0.70711,-0.70711,0.70711,0.70711,-332.21456,276.3511)" rotateDegrees="-45" matrix="[29.803345,29.803345,-29.803345,29.803345,167.47812,302.72635]" x="167.478" svgx:width="0.67" style="fill:rgb(0,0,0);font-family:Arial;font-size:42.15px;stroke:none;">E</text>
   <text y="519.315" transform="matrix(0.70711,-0.70711,0.70711,0.70711,-312.33556,284.58525)" rotateDegrees="-45" matrix="[29.803345,29.803345,-29.803345,29.803345,187.35693,322.60516]" x="187.357" svgx:width="0.67" style="fill:rgb(0,0,0);font-family:Arial;font-size:42.15px;stroke:none;">P</text>
   <text y="499.436" transform="matrix(0.70711,-0.70711,0.70711,0.70711,-292.45656,292.8194)" rotateDegrees="-45" matrix="[29.803345,29.803345,-29.803345,29.803345,207.23578,342.484]" x="207.236" svgx:width="0.61" style="fill:rgb(0,0,0);font-family:Arial;font-size:42.15px;stroke:none;">T</text>
   <text y="481.226" transform="matrix(0.70711,-0.70711,0.70711,0.70711,-274.24656,300.36223)" rotateDegrees="-45" matrix="[29.803345,29.803345,-29.803345,29.803345,225.44562,360.69385]" x="225.446" svgx:width="0.67" style="fill:rgb(0,0,0);font-family:Arial;font-size:42.15px;stroke:none;">E</text>
   <text y="461.347" transform="matrix(0.70711,-0.70711,0.70711,0.70711,-254.36786,308.59567)" rotateDegrees="-45" matrix="[29.803345,29.803345,-29.803345,29.803345,245.32443,380.57266]" x="245.324" svgx:width="0.72" style="fill:rgb(0,0,0);font-family:Arial;font-size:42.15px;stroke:none;">D</text>
   <text y="439.829" transform="matrix(0.70711,-0.70711,0.70711,0.70711,-232.84986,317.50872)" rotateDegrees="-45" matrix="[29.803345,29.803345,-29.803345,29.803345,266.84247,402.0907]" x="266.842" svgx:width="0.28" style="fill:rgb(0,0,0);font-family:Arial;font-size:42.15px;stroke:none;"> </text>
   <text y="431.54" transform="matrix(0.70711,-0.70711,0.70711,0.70711,-224.56056,320.94284)" rotateDegrees="-45" matrix="[29.803345,29.803345,-29.803345,29.803345,275.13153,410.37976]" x="275.132" svgx:width="0.67" style="fill:rgb(0,0,0);font-family:Arial;font-size:42.15px;stroke:none;">V</text>
   <text y="411.661" transform="matrix(0.70711,-0.70711,0.70711,0.70711,-204.68186,329.17629)" rotateDegrees="-45" matrix="[29.803345,29.803345,-29.803345,29.803345,295.0103,430.25858]" x="295.01" svgx:width="0.67" style="fill:rgb(0,0,0);font-family:Arial;font-size:42.15px;stroke:none;">E</text>
   <text y="391.783" transform="matrix(0.70711,-0.70711,0.70711,0.70711,-184.80356,337.41073)" rotateDegrees="-45" matrix="[29.803345,29.803345,-29.803345,29.803345,314.88916,450.1374]" x="314.889" svgx:width="0.72" style="fill:rgb(0,0,0);font-family:Arial;font-size:42.15px;stroke:none;">R</text>
   <text y="370.265" transform="matrix(0.70711,-0.70711,0.70711,0.70711,-163.28556,346.32378)" rotateDegrees="-45" matrix="[29.803345,29.803345,-29.803345,29.803345,336.40717,471.65543]" x="336.407" svgx:width="0.67" style="fill:rgb(0,0,0);font-family:Arial;font-size:42.15px;stroke:none;">S</text>
   <text y="350.386" transform="matrix(0.70711,-0.70711,0.70711,0.70711,-143.40656,354.55793)" rotateDegrees="-45" matrix="[29.803345,29.803345,-29.803345,29.803345,356.286,491.53424]" x="356.286" svgx:width="0.28" style="fill:rgb(0,0,0);font-family:Arial;font-size:42.15px;stroke:none;">I</text>
   <text y="342.1" transform="matrix(0.70711,-0.70711,0.70711,0.70711,-135.12086,357.9894)" rotateDegrees="-45" matrix="[29.803345,29.803345,-29.803345,29.803345,364.57135,499.81958]" x="364.571" svgx:width="0.78" style="fill:rgb(0,0,0);font-family:Arial;font-size:42.15px;stroke:none;">O</text>
   <text y="318.913" transform="matrix(0.70711,-0.70711,0.70711,0.70711,-111.93386,367.59377)" rotateDegrees="-45" matrix="[29.803345,29.803345,-29.803345,29.803345,387.7583,523.0066]" x="387.758" svgx:width="0.72" style="fill:rgb(0,0,0);font-family:Arial;font-size:42.15px;stroke:none;">N</text>
   <text y="297.395" transform="matrix(0.70711,-0.70711,0.70711,0.70711,-90.41586,376.50681)" rotateDegrees="-45" matrix="[29.803345,29.803345,-29.803345,29.803345,409.27637,544.5246]" x="409.276" svgx:width="0.28" style="fill:rgb(0,0,0);font-family:Arial;font-size:42.15px;stroke:none;"> </text>
   <text y="637.872" transform="matrix(0.70711,-0.70711,0.70711,0.70711,-409.94279,286.05456)" rotateDegrees="-45" matrix="[29.803345,29.803345,-29.803345,29.803345,140.32727,204.04747]" x="140.327" svgx:width="0.67" style="fill:rgb(0,0,0);font-family:Arial;font-size:42.15px;stroke:none;">S</text>
   <text y="617.994" transform="matrix(0.70711,-0.70711,0.70711,0.70711,-390.0645,294.289)" rotateDegrees="-45" matrix="[29.803345,29.803345,-29.803345,29.803345,160.2061,223.9263]" x="160.206" svgx:width="0.72" style="fill:rgb(0,0,0);font-family:Arial;font-size:42.15px;stroke:none;">U</text>
   <text y="596.476" transform="matrix(0.70711,-0.70711,0.70711,0.70711,-368.5465,303.20205)" rotateDegrees="-45" matrix="[29.803345,29.803345,-29.803345,29.803345,181.72412,245.4443]" x="181.724" svgx:width="0.67" style="fill:rgb(0,0,0);font-family:Arial;font-size:42.15px;stroke:none;">B</text>
   <text y="576.597" transform="matrix(0.70711,-0.70711,0.70711,0.70711,-348.6675,311.4362)" rotateDegrees="-45" matrix="[29.803345,29.803345,-29.803345,29.803345,201.60294,265.32315]" x="201.603" svgx:width="0.5" style="fill:rgb(0,0,0);font-family:Arial;font-size:42.15px;stroke:none;">J</text>
   <text y="561.695" transform="matrix(0.70711,-0.70711,0.70711,0.70711,-333.7655,317.60881)" rotateDegrees="-45" matrix="[29.803345,29.803345,-29.803345,29.803345,216.50462,280.22482]" x="216.505" svgx:width="0.67" style="fill:rgb(0,0,0);font-family:Arial;font-size:42.15px;stroke:none;">E</text>
   <text y="541.816" transform="matrix(0.70711,-0.70711,0.70711,0.70711,-313.88679,325.84225)" rotateDegrees="-45" matrix="[29.803345,29.803345,-29.803345,29.803345,236.38344,300.10364]" x="236.383" svgx:width="0.72" style="fill:rgb(0,0,0);font-family:Arial;font-size:42.15px;stroke:none;">C</text>
   <text y="520.298" transform="matrix(0.70711,-0.70711,0.70711,0.70711,-292.36879,334.7553)" rotateDegrees="-45" matrix="[29.803345,29.803345,-29.803345,29.803345,257.90146,321.62164]" x="257.901" svgx:width="0.61" style="fill:rgb(0,0,0);font-family:Arial;font-size:42.15px;stroke:none;">T</text>
   <text y="502.089" transform="matrix(0.70711,-0.70711,0.70711,0.70711,-274.1595,342.29842)" rotateDegrees="-45" matrix="[29.803345,29.803345,-29.803345,29.803345,276.1113,339.83148]" x="276.111" svgx:width="0.28" style="fill:rgb(0,0,0);font-family:Arial;font-size:42.15px;stroke:none;"> </text>
   <text y="493.803" transform="matrix(0.70711,-0.70711,0.70711,0.70711,-265.8735,345.7306)" rotateDegrees="-45" matrix="[29.803345,29.803345,-29.803345,29.803345,284.39664,348.11682]" x="284.397" svgx:width="0.61" style="fill:rgb(0,0,0);font-family:Arial;font-size:42.15px;stroke:none;">T</text>
   <text y="475.593" transform="matrix(0.70711,-0.70711,0.70711,0.70711,-247.66379,353.27272)" rotateDegrees="-45" matrix="[29.803345,29.803345,-29.803345,29.803345,302.60648,366.32666]" x="302.606" svgx:width="0.78" style="fill:rgb(0,0,0);font-family:Arial;font-size:42.15px;stroke:none;">O</text>
   <text y="452.406" transform="matrix(0.70711,-0.70711,0.70711,0.70711,-224.47679,362.87709)" rotateDegrees="-45" matrix="[29.803345,29.803345,-29.803345,29.803345,325.79346,389.51367]" x="325.793" svgx:width="0.28" style="fill:rgb(0,0,0);font-family:Arial;font-size:42.15px;stroke:none;"> </text>
   <text y="444.136" transform="matrix(0.70711,-0.70711,0.70711,0.70711,-216.2065,366.30334)" rotateDegrees="-45" matrix="[29.803345,29.803345,-29.803345,29.803345,334.0639,397.78412]" x="334.064" svgx:width="0.61" style="fill:rgb(0,0,0);font-family:Arial;font-size:42.15px;stroke:none;">F</text>
   <text y="425.926" transform="matrix(0.70711,-0.70711,0.70711,0.70711,-197.9965,373.84617)" rotateDegrees="-45" matrix="[29.803345,29.803345,-29.803345,29.803345,352.27374,415.99396]" x="352.274" svgx:width="0.28" style="fill:rgb(0,0,0);font-family:Arial;font-size:42.15px;stroke:none;">I</text>
   <text y="417.641" transform="matrix(0.70711,-0.70711,0.70711,0.70711,-189.7115,377.27793)" rotateDegrees="-45" matrix="[29.803345,29.803345,-29.803345,29.803345,360.55908,424.2793]" x="360.559" svgx:width="0.72" style="fill:rgb(0,0,0);font-family:Arial;font-size:42.15px;stroke:none;">N</text>
   <text y="396.123" transform="matrix(0.70711,-0.70711,0.70711,0.70711,-168.1935,386.19098)" rotateDegrees="-45" matrix="[29.803345,29.803345,-29.803345,29.803345,382.0771,445.7973]" x="382.077" svgx:width="0.67" style="fill:rgb(0,0,0);font-family:Arial;font-size:42.15px;stroke:none;">A</text>
   <text y="376.244" transform="matrix(0.70711,-0.70711,0.70711,0.70711,-148.3145,394.42513)" rotateDegrees="-45" matrix="[29.803345,29.803345,-29.803345,29.803345,401.95593,465.67615]" x="401.956" svgx:width="0.56" style="fill:rgb(0,0,0);font-family:Arial;font-size:42.15px;stroke:none;">L</text>
   <text y="359.673" transform="matrix(0.70711,-0.70711,0.70711,0.70711,-131.7435,401.28906)" rotateDegrees="-45" matrix="[29.803345,29.803345,-29.803345,29.803345,418.5266,482.24677]" x="418.527" svgx:width="0.28" style="fill:rgb(0,0,0);font-family:Arial;font-size:42.15px;stroke:none;"> </text>
   <text y="351.394" transform="matrix(0.70711,-0.70711,0.70711,0.70711,-123.4645,404.71834)" rotateDegrees="-45" matrix="[29.803345,29.803345,-29.803345,29.803345,426.80573,490.52588]" x="426.806" svgx:width="0.67" style="fill:rgb(0,0,0);font-family:Arial;font-size:42.15px;stroke:none;">E</text>
   <text y="331.515" transform="matrix(0.70711,-0.70711,0.70711,0.70711,-103.5855,412.95249)" rotateDegrees="-45" matrix="[29.803345,29.803345,-29.803345,29.803345,446.68457,510.40472]" x="446.685" svgx:width="0.72" style="fill:rgb(0,0,0);font-family:Arial;font-size:42.15px;stroke:none;">D</text>
   <text y="309.997" transform="matrix(0.70711,-0.70711,0.70711,0.70711,-82.0675,421.86554)" rotateDegrees="-45" matrix="[29.803345,29.803345,-29.803345,29.803345,468.2025,531.9227]" x="468.203" svgx:width="0.28" style="fill:rgb(0,0,0);font-family:Arial;font-size:42.15px;stroke:none;">I</text>
   <text y="301.712" transform="matrix(0.70711,-0.70711,0.70711,0.70711,-73.7825,425.29729)" rotateDegrees="-45" matrix="[29.803345,29.803345,-29.803345,29.803345,476.48785,540.20807]" x="476.488" svgx:width="0.61" style="fill:rgb(0,0,0);font-family:Arial;font-size:42.15px;stroke:none;">T</text>
   <text y="283.502" transform="matrix(0.70711,-0.70711,0.70711,0.70711,-55.5725,432.84012)" rotateDegrees="-45" matrix="[29.803345,29.803345,-29.803345,29.803345,494.6977,558.4179]" x="494.698" svgx:width="0.67" style="fill:rgb(0,0,0);font-family:Arial;font-size:42.15px;stroke:none;">S</text>
  </g>
 </g>
</svg>
