<?xml version="1.0" encoding="UTF-8"?>
<svg height="719.922" width="2696.95" xmlns="http://www.w3.org/2000/svg">
 <g id="page" xmlns:svgx="http://www.xml-cml.org/schema/svgx">
  <g begin="text">
   <text y="45.6" x="72.0,78.138,81.207,86.727,91.563,94.676,97.436,105.352,110.872,116.392,121.194,124.904,130.424,138.947,143.848,149.368,152.493,155.253,163.058,166.171,170.366,173.48,177.079,180.192,185.712,191.111,194.113,197.227,202.747" svgx:width="0.56,0.28,0.5,0.44,0.28,0.25,0.72,0.5,0.5,0.44,0.33,0.5,0.78,0.44,0.5,0.28,0.25,0.72,0.28,0.39,0.28,0.33,0.28,0.5,0.5,0.28,0.28,0.5,0.5" style="fill:rgb(0,0,0);font-family:TimesNewRomanPSMT;font-size:11.04px;stroke:none;">Final Government Distribution</text>
  </g>
  <g begin="text">
   <text y="45.6" x="208.34" svgx:width="0.25" style="fill:rgb(0,0,0);font-family:TimesNewRomanPSMT;font-size:11.04px;stroke:none;"> </text>
  </g>
  <g begin="text">
   <text y="45.6" x="210.98" svgx:width="0.25" style="fill:rgb(0,0,0);font-family:TimesNewRomanPSMT;font-size:11.04px;stroke:none;"> </text>
  </g>
  <g begin="text">
   <text y="45.6" x="276.17,283.49,289.009,293.911,299.431,302.556,307.358,311.067,313.827" svgx:width="0.67,0.5,0.44,0.5,0.28,0.44,0.33,0.25,0.5" style="fill:rgb(0,0,0);font-family:TimesNewRomanPSMT;font-size:11.04px;stroke:none;">Chapter 6</text>
  </g>
  <g begin="text">
   <text y="45.6" x="319.25" svgx:width="0.25" style="fill:rgb(0,0,0);font-family:TimesNewRomanPSMT;font-size:11.04px;stroke:none;"> </text>
  </g>
  <g begin="text">
   <text y="45.6" x="443.35,446.949,453.087,460.385,467.704" svgx:width="0.33,0.56,0.67,0.67,0.25" style="fill:rgb(0,0,0);font-family:TimesNewRomanPSMT;font-size:11.04px;stroke:none;">IPCC </text>
  </g>
  <g begin="text">
   <text y="45.6" x="470.47,480.892,488.863,492.539,496.149,499.748,502.508,510.424,517.743" svgx:width="0.94,0.72,0.33,0.33,0.33,0.25,0.72,0.67,0.5" style="fill:rgb(0,0,0);font-family:TimesNewRomanPSMT;font-size:11.04px;stroke:none;">WGIII AR6</text>
  </g>
  <g begin="text">
   <text y="45.6" x="523.39" svgx:width="0.25" style="fill:rgb(0,0,0);font-family:TimesNewRomanPSMT;font-size:11.04px;stroke:none;"> </text>
  </g>
  <g begin="text">
   <text y="537.336" x="72.0,79.916,85.436,88.196,96.111,101.631,105.341,108.101,116.016,119.13,122.729,127.631,130.391,133.051,141.684,147.823,153.343,157.019,161.844,164.604,170.124,175.025,177.785,185.756,188.726,192.921,196.631,201.532,204.657,210.795,216.779,220.488" svgx:width="0.72,0.5,0.25,0.72,0.5,0.33,0.25,0.72,0.28,0.33,0.44,0.25,0.25,0.78,0.56,0.5,0.33,0.44,0.25,0.5,0.44,0.25,0.72,0.28,0.39,0.33,0.44,0.28,0.56,0.56,0.33,0.44" style="fill:rgb(0,0,0);font-family:TimesNewRomanPS-BoldMT;font-size:11.04px;stroke:none;">Do Not Cite, Quote or Distribute</text>
  </g>
  <g begin="text">
   <text y="537.336" x="225.38" svgx:width="0.25" style="fill:rgb(0,0,0);font-family:TimesNewRomanPS-BoldMT;font-size:11.04px;stroke:none;"> </text>
  </g>
  <g begin="text">
   <text y="537.336" x="287.57" svgx:width="0.5" style="fill:rgb(0,0,0);font-family:TimesNewRomanPSMT;font-size:11.04px;stroke:none;">6</text>
  </g>
  <g begin="text">
   <text y="537.336" x="293.09" svgx:width="0.33" style="fill:rgb(0,0,0);font-family:TimesNewRomanPS-BoldMT;font-size:11.04px;stroke:none;">-</text>
  </g>
  <g begin="text">
   <text y="537.336" x="296.81,302.33" svgx:width="0.5,0.5" style="fill:rgb(0,0,0);font-family:TimesNewRomanPSMT;font-size:11.04px;stroke:none;">68</text>
  </g>
  <g begin="text">
   <text y="537.336" x="307.85" svgx:width="0.25" style="fill:rgb(0,0,0);font-family:TimesNewRomanPSMT;font-size:11.04px;stroke:none;"> </text>
  </g>
  <g begin="text">
   <text y="537.336" x="310.49" svgx:width="0.25" style="fill:rgb(0,0,0);font-family:TimesNewRomanPSMT;font-size:11.04px;stroke:none;"> </text>
  </g>
  <g begin="text">
   <text y="537.336" x="450.07,456.815,462.335,465.405,470.229,473.342,476.102,481.622,486.524,491.945,496.846,501.174,504.177" svgx:width="0.61,0.5,0.28,0.44,0.28,0.25,0.5,0.44,0.5,0.44,0.39,0.28,0.25" style="fill:rgb(0,0,0);font-family:TimesNewRomanPSMT;font-size:11.04px;stroke:none;">Total pages: </text>
  </g>
  <g begin="text">
   <text y="537.336" x="506.95,512.47,517.99" svgx:width="0.5,0.5,0.5" style="fill:rgb(0,0,0);font-family:TimesNewRomanPSMT;font-size:11.04px;stroke:none;">217</text>
  </g>
  <g begin="text">
   <text y="537.336" x="523.39" svgx:width="0.25" style="fill:rgb(0,0,0);font-family:TimesNewRomanPSMT;font-size:9.96px;stroke:none;"> </text>
  </g>
  <g begin="text">
   <text y="556.176" x="72.0" svgx:width="0.25" style="fill:rgb(0,0,0);font-family:TimesNewRomanPSMT;font-size:9.96px;stroke:none;"> </text>
  </g>
  <g begin="text">
   <text y="81.38" x="73.32,79.425,82.194,87.214,92.752,97.174,101.596" svgx:width="0.61,0.28,0.5,0.56,0.44,0.44,0.25" style="fill:rgb(0,0,0);font-family:TimesNewRomanPS-BoldMT;font-size:9.96px;stroke:none;">Figure </text>
  </g>
  <g begin="text">
   <text y="81.38" x="104.18" svgx:width="0.5" style="fill:rgb(0,0,0);font-family:TimesNewRomanPS-BoldMT;font-size:9.96px;stroke:none;">6</text>
  </g>
  <g begin="text">
   <text y="81.38" x="109.22" svgx:width="0.25" style="fill:rgb(0,0,0);font-family:TimesNewRomanPS-BoldMT;font-size:9.96px;stroke:none;">.</text>
  </g>
  <g begin="text">
   <text y="81.38" x="111.74,116.78" svgx:width="0.5,0.5" style="fill:rgb(0,0,0);font-family:TimesNewRomanPS-BoldMT;font-size:9.96px;stroke:none;">19</text>
  </g>
  <g begin="text">
   <text y="81.38" x="121.82" svgx:width="0.25" style="fill:rgb(0,0,0);font-family:TimesNewRomanPS-BoldMT;font-size:9.96px;stroke:none;"> </text>
  </g>
  <g begin="text">
   <text y="81.38" x="124.34,129.878,135.376,143.672,152.049,157.078,161.401,166.431,168.941,173.971,177.317,179.718,183.064,188.602,193.024,195.425,199.847,204.897,208.243,212.665,218.203,221.55,224.06,227.406,232.436,234.946,242.137,247.675,250.444,254.866,260.404,262.894,268.431,271.2,274.517,277.893,282.316,286.768,291.19,296.728,300.074,302.584,305.931,310.961,315.283,318.63,323.66,328.082,331.956,334.446,341.637,346.687,352.225,354.994,360.492,363.002,367.424,372.962,377.991,383.529,386.298,390.72,393.21,398.26,402.682,405.212,407.981,413.519,419.017,421.786,427.403,430.172,433.508,436.018,439.365,444.903,449.325,451.835,457.373,461.795,467.333,470.101,475.101,480.131,488.517,492.94,498.477,501.824,504.334,509.364,512.71,515.111,523.497,526.266,529.602,532.371,537.391,542.311,545.658,548.427,553.337,558.875,561.365,566.404,571.942,575.259,578.028,583.078,588.615,592.44,594.95,597.719,603.257,605.747,610.169,615.707,620.129,624.581,629.611,634.641,637.15,640.995,646.025,649.869,653.216" svgx:width="0.56,0.56,0.83,0.83,0.5,0.44,0.5,0.25,0.5,0.33,0.25,0.33,0.56,0.44,0.25,0.44,0.5,0.33,0.44,0.56,0.33,0.25,0.33,0.5,0.25,0.72,0.56,0.28,0.44,0.56,0.25,0.56,0.28,0.33,0.33,0.44,0.44,0.44,0.56,0.33,0.25,0.33,0.5,0.44,0.33,0.5,0.44,0.39,0.25,0.72,0.5,0.56,0.28,0.56,0.25,0.44,0.56,0.5,0.56,0.28,0.44,0.25,0.5,0.44,0.25,0.28,0.56,0.56,0.28,0.56,0.28,0.33,0.25,0.33,0.56,0.44,0.25,0.56,0.44,0.56,0.28,0.5,0.5,0.83,0.44,0.56,0.33,0.25,0.5,0.33,0.25,0.83,0.28,0.33,0.28,0.5,0.5,0.33,0.28,0.5,0.56,0.25,0.5,0.56,0.33,0.28,0.5,0.56,0.39,0.25,0.28,0.56,0.25,0.44,0.56,0.44,0.44,0.5,0.5,0.25,0.39,0.5,0.39,0.33,0.44" style="fill:rgb(0,0,0);font-family:TimesNewRomanPS-BoldMT;font-size:9.96px;stroke:none;">Summary of the extent to which different factors would enable or inhibit the deployment of mitigation options in energy syste</text>
  </g>
  <g begin="text">
   <text y="81.38" x="658.3,666.686,670.531" svgx:width="0.83,0.39,0.25" style="fill:rgb(0,0,0);font-family:TimesNewRomanPS-BoldMT;font-size:9.96px;stroke:none;">ms.</text>
  </g>
  <g begin="text">
   <text y="81.38" x="673.06" svgx:width="0.25" style="fill:rgb(0,0,0);font-family:TimesNewRomanPS-BoldMT;font-size:9.96px;stroke:none;"> </text>
  </g>
  <g begin="text">
   <text y="81.38" x="675.58,682.184,684.952,690.49,694.912,697.402,702.94,707.97,712.392,716.267,718.757,721.635,727.173,732.671,735.44,739.862,744.902,748.248,752.67,755.2,758.547,764.084,768.507" svgx:width="0.67,0.28,0.56,0.44,0.25,0.56,0.5,0.44,0.39,0.25,0.28,0.56,0.56,0.28,0.44,0.5,0.33,0.44,0.25,0.33,0.56,0.44,0.25" style="fill:rgb(0,0,0);font-family:TimesNewRomanPS-BoldMT;font-size:9.96px;stroke:none;">Blue bars indicate the </text>
  </g>
  <g begin="text">
   <text y="81.38" x="48.48" svgx:width="0.5" style="fill:rgb(0,0,0);font-family:TimesNewRomanPSMT;font-size:11.04px;stroke:none;">1</text>
  </g>
  <g begin="text">
   <text y="81.38" x="54.0" svgx:width="0.25" style="fill:rgb(0,0,0);font-family:TimesNewRomanPSMT;font-size:11.04px;stroke:none;"> </text>
  </g>
  <g begin="text">
   <text y="93.98" x="94.344,98.766,103.816,107.163,111.585,117.123,120.469,122.979,126.326,131.355,133.865,141.056,146.594,149.363,153.785,159.323,161.813,165.18,170.717,175.14,177.649,180.418,185.956,191.454,194.223,198.645,203.685,207.031,212.061,216.384,218.894,223.316,228.854,233.884,239.421,242.19,246.613,250.447,252.957,256.304,261.841,266.264,268.774,271.542,279.919,285.457,288.225,292.648,301.024,305.446,310.984" svgx:width="0.44,0.5,0.33,0.44,0.56,0.33,0.25,0.33,0.5,0.25,0.72,0.56,0.28,0.44,0.56,0.25,0.33,0.56,0.44,0.25,0.28,0.56,0.56,0.28,0.44,0.5,0.33,0.5,0.44,0.25,0.44,0.56,0.5,0.56,0.28,0.44,0.39,0.25,0.33,0.56,0.44,0.25,0.28,0.83,0.56,0.28,0.44,0.83,0.44,0.56,0.33" style="fill:rgb(0,0,0);font-family:TimesNewRomanPS-BoldMT;font-size:9.96px;stroke:none;">extent to which the indicator enables the implement</text>
  </g>
  <g begin="text">
   <text y="93.98" x="314.57,319.6,322.946,325.715,330.735,336.273,338.763,343.803,347.149,349.659,353.006,358.543,362.966,365.476,370.505,376.043,379.36,382.129,387.178,392.716,395.206,398.573,405.176,408.523,411.033,416.062,421.6,427.098,429.608,434.638,438.96,443.99,449.528,454.538,458.96,461.38,466.918,471.928,476.35" svgx:width="0.5,0.33,0.28,0.5,0.56,0.25,0.5,0.33,0.25,0.33,0.56,0.44,0.25,0.5,0.56,0.33,0.28,0.5,0.56,0.25,0.33,0.67,0.33,0.25,0.5,0.56,0.56,0.25,0.5,0.44,0.5,0.56,0.5,0.44,0.25,0.56,0.5,0.44,0.39" style="fill:rgb(0,0,0);font-family:TimesNewRomanPS-BoldMT;font-size:9.96px;stroke:none;">ation of the option (E) and orange bars</text>
  </g>
  <g begin="text">
   <text y="93.98" x="480.43" svgx:width="0.25" style="fill:rgb(0,0,0);font-family:TimesNewRomanPS-BoldMT;font-size:9.96px;stroke:none;"> </text>
  </g>
  <g begin="text">
   <text y="93.98" x="482.95,485.719,491.257,496.755,499.523,503.946,508.985,512.332,516.754,519.284,522.631,528.168,532.591,535.101,539.523,544.573,547.919,552.341,557.879,561.226,563.735,567.082,572.112,574.622,581.703,587.241,590.01,594.432,599.97,602.46,607.49,613.028,615.518,618.286,623.824,629.442,632.211,636.633,641.672,645.019,650.049,654.471,657.001,659.77,663.604,666.114,671.144,673.654,679.192,684.202,688.624,693.076,695.845,700.267,704.689,707.229,710.576,717.179,720.526,723.035,726.382,731.412,733.922,737.268,742.806,747.228" svgx:width="0.28,0.56,0.56,0.28,0.44,0.5,0.33,0.44,0.25,0.33,0.56,0.44,0.25,0.44,0.5,0.33,0.44,0.56,0.33,0.25,0.33,0.5,0.25,0.72,0.56,0.28,0.44,0.56,0.25,0.5,0.56,0.25,0.28,0.56,0.56,0.28,0.44,0.5,0.33,0.5,0.44,0.25,0.28,0.39,0.25,0.5,0.25,0.56,0.5,0.44,0.44,0.28,0.44,0.44,0.25,0.33,0.67,0.33,0.25,0.33,0.5,0.25,0.33,0.56,0.44,0.25" style="fill:rgb(0,0,0);font-family:TimesNewRomanPS-BoldMT;font-size:9.96px;stroke:none;">indicate the extent to which an indicator is a barrier (B) to the </text>
  </g>
  <g begin="text">
   <text y="93.98" x="48.48" svgx:width="0.5" style="fill:rgb(0,0,0);font-family:TimesNewRomanPSMT;font-size:11.04px;stroke:none;">2</text>
  </g>
  <g begin="text">
   <text y="93.98" x="54.0" svgx:width="0.25" style="fill:rgb(0,0,0);font-family:TimesNewRomanPSMT;font-size:11.04px;stroke:none;"> </text>
  </g>
  <g begin="text">
   <text y="106.7" x="85.824,91.362,95.784,101.322,104.091,109.091,114.12,122.507,126.929,132.467,135.813,138.323,143.353,146.699,149.21,152.556,158.094,162.516,164.916,169.946,175.484,178.801,181.57,186.619,192.157" svgx:width="0.56,0.44,0.56,0.28,0.5,0.5,0.83,0.44,0.56,0.33,0.25,0.5,0.33,0.25,0.33,0.56,0.44,0.25,0.5,0.56,0.33,0.28,0.5,0.56,0.25" style="fill:rgb(0,0,0);font-family:TimesNewRomanPS-BoldMT;font-size:9.96px;stroke:none;">deployment of the option,</text>
  </g>
  <g begin="text">
   <text y="106.7" x="194.78" svgx:width="0.25" style="fill:rgb(0,0,0);font-family:TimesNewRomanPS-BoldMT;font-size:9.96px;stroke:none;"> </text>
  </g>
  <g begin="text">
   <text y="106.7" x="197.3,201.722,206.065,208.834,213.854,217.2,219.969,224.989,229.411,231.941,235.287,240.208,242.718,246.064,251.602,256.024,258.534,266.92,271.841,276.87,279.639,288.016,293.553,301.82,304.33,309.868,314.878,318.722,322.567,325.336,330.874,333.603,338.025,340.555,346.092,351.102,355.525,359.977,362.746,367.168,371.59,375.465,377.954,383.004,388.542,394.04,396.55,400.972,406.51,411.54,417.077,419.846,424.268,428.81,432.655,435.165,440.195,444.039,447.993,452.416,456.29,460.115" svgx:width="0.44,0.44,0.28,0.5,0.33,0.28,0.5,0.44,0.25,0.33,0.5,0.25,0.33,0.56,0.44,0.25,0.83,0.5,0.5,0.28,0.83,0.56,0.83,0.25,0.56,0.5,0.39,0.39,0.28,0.56,0.28,0.44,0.25,0.56,0.5,0.44,0.44,0.28,0.44,0.44,0.39,0.25,0.5,0.56,0.56,0.25,0.44,0.56,0.5,0.56,0.28,0.44,0.44,0.39,0.25,0.5,0.39,0.39,0.44,0.39,0.39,0.44" style="fill:rgb(0,0,0);font-family:TimesNewRomanPS-BoldMT;font-size:9.96px;stroke:none;">relative to the maximum possible barriers and enablers assesse</text>
  </g>
  <g begin="text">
   <text y="106.7" x="464.83" svgx:width="0.56" style="fill:rgb(0,0,0);font-family:TimesNewRomanPS-BoldMT;font-size:9.96px;stroke:none;">d</text>
  </g>
  <g begin="text">
   <text y="106.7" x="470.35" svgx:width="0.25" style="fill:rgb(0,0,0);font-family:TimesNewRomanPS-BoldMT;font-size:9.96px;stroke:none;">.</text>
  </g>
  <g begin="text">
   <text y="106.7" x="472.87" svgx:width="0.25" style="fill:rgb(0,0,0);font-family:TimesNewRomanPS-BoldMT;font-size:9.96px;stroke:none;"> </text>
  </g>
  <g begin="text">
   <text y="106.7" x="475.39,482.581,488.119,490.609,497.82,500.449,504.294,507.063,512.083,517.62,520.389,523.706,526.475,530.897,534.771,537.261,540.628,546.166,550.588,553.098,555.966,561.504,567.002,569.871,574.293,579.342,582.689,587.719,592.141,594.671,597.44,601.274,603.784,609.322,614.332,617.678,620.188,625.218,630.756,636.254,639.023,641.792,646.214,651.244,656.781,659.55,663.973,666.463,671.512,675.934,678.464,684.002,688.902,693.325,697.199" svgx:width="0.72,0.56,0.25,0.72,0.25,0.39,0.28,0.5,0.56,0.28,0.33,0.28,0.44,0.39,0.25,0.33,0.56,0.44,0.25,0.28,0.56,0.56,0.28,0.44,0.5,0.33,0.5,0.44,0.25,0.28,0.39,0.25,0.56,0.5,0.33,0.25,0.5,0.56,0.56,0.28,0.28,0.44,0.5,0.56,0.28,0.44,0.25,0.5,0.44,0.25,0.56,0.5,0.44,0.39,0.25" style="fill:rgb(0,0,0);font-family:TimesNewRomanPS-BoldMT;font-size:9.96px;stroke:none;">An X signifies the indicator is not applicable or does </text>
  </g>
  <g begin="text">
   <text y="106.7" x="699.94,705.478,710.488,713.834,716.344,721.374,724.72,728.067,732.489,736.941,740.288,742.688,746.035,751.572,755.995" svgx:width="0.56,0.5,0.33,0.25,0.5,0.33,0.33,0.44,0.44,0.33,0.25,0.33,0.56,0.44,0.25" style="fill:rgb(0,0,0);font-family:TimesNewRomanPS-BoldMT;font-size:9.96px;stroke:none;">not affect the </text>
  </g>
  <g begin="text">
   <text y="106.7" x="48.48" svgx:width="0.5" style="fill:rgb(0,0,0);font-family:TimesNewRomanPSMT;font-size:11.04px;stroke:none;">3</text>
  </g>
  <g begin="text">
   <text y="106.7" x="54.0" svgx:width="0.25" style="fill:rgb(0,0,0);font-family:TimesNewRomanPSMT;font-size:11.04px;stroke:none;"> </text>
  </g>
  <g begin="text">
   <text y="119.3" x="78.96,82.307,86.729,91.779,95.623,98.392,103.93,106.659,109.428,112.197,115.513,120.573,123.083,128.113,131.459,133.969,137.316,142.853,147.276,149.786,154.815,160.353,163.67,166.439,171.488,177.026,179.516,182.036,189.227,194.765,197.534,200.303,204.725,207.215,212.265,214.775,218.121,223.151,227.573,234.764,239.824,244.246,249.784,252.294,256.138,258.907,263.927,267.772,273.31,275.8,278.568,284.106,289.614,292.383,296.805,301.845,305.191,309.614,313.488,315.978,319.345,324.882,329.892,333.239,335.749,339.095,344.633,349.055,353.478,357.93,360.44,363.209,367.043,369.553,375.091,380.101,382.611,387.64,392.063,394.592,397.361,400.13,408.507,411.276,414.612,419.034,424.572,427.082,431.504,436.554,439.193,444.731,449.153,454.691,459.113,463.536,466.065,473.257,478.794,483.217,486.573,492.111,496.533,500.955,503.485,506.832,512.37,516.792,519.302,522.07,527.688,533.226,535.995,540.417,545.437,548.783,553.813,558.235,560.765,565.795,569.141,572.488,576.91,581.362,584.709" svgx:width="0.33,0.44,0.5,0.39,0.28,0.56,0.28,0.28,0.28,0.33,0.5,0.25,0.5,0.33,0.25,0.33,0.56,0.44,0.25,0.5,0.56,0.33,0.28,0.5,0.56,0.25,0.25,0.72,0.56,0.28,0.28,0.44,0.25,0.5,0.25,0.33,0.5,0.44,0.72,0.5,0.44,0.56,0.25,0.39,0.28,0.5,0.39,0.56,0.25,0.28,0.56,0.56,0.28,0.44,0.5,0.33,0.44,0.39,0.25,0.33,0.56,0.5,0.33,0.25,0.33,0.56,0.44,0.44,0.44,0.25,0.28,0.39,0.25,0.56,0.5,0.25,0.5,0.44,0.25,0.28,0.28,0.83,0.28,0.33,0.44,0.56,0.25,0.44,0.5,0.28,0.56,0.44,0.56,0.44,0.44,0.25,0.72,0.56,0.44,0.33,0.56,0.44,0.44,0.25,0.33,0.56,0.44,0.25,0.28,0.56,0.56,0.28,0.44,0.5,0.33,0.5,0.44,0.25,0.5,0.33,0.33,0.44,0.44,0.33,0.39" style="fill:rgb(0,0,0);font-family:TimesNewRomanPS-BoldMT;font-size:9.96px;stroke:none;">feasibility of the option, while a forward slash indicates that there is no or limited evidence whether the indicator affects</text>
  </g>
  <g begin="text">
   <text y="119.3" x="589.15" svgx:width="0.25" style="fill:rgb(0,0,0);font-family:TimesNewRomanPS-BoldMT;font-size:9.96px;stroke:none;"> </text>
  </g>
  <g begin="text">
   <text y="119.3" x="591.67,595.017,600.554,604.977,607.486,610.833,615.255,620.305,624.149,626.918,632.456,635.185,637.954,640.723,644.04,649.099,651.609,656.639,659.876,662.386,665.732,671.27,675.692,678.202,683.122,688.66,691.977,694.746,699.795,705.333,707.823,710.343,716.947,722.484,726.907,729.416,733.261,738.799,743.928,749.466,752.235,757.733,762.763" svgx:width="0.33,0.56,0.44,0.25,0.33,0.44,0.5,0.39,0.28,0.56,0.28,0.28,0.28,0.33,0.5,0.25,0.5,0.33,0.25,0.33,0.56,0.44,0.25,0.5,0.56,0.33,0.28,0.5,0.56,0.25,0.25,0.67,0.56,0.44,0.25,0.39,0.56,0.5,0.56,0.28,0.56,0.5,0.25" style="fill:rgb(0,0,0);font-family:TimesNewRomanPS-BoldMT;font-size:9.96px;stroke:none;">the feasibility of the option. The shading </text>
  </g>
  <g begin="text">
   <text y="119.3" x="48.48" svgx:width="0.5" style="fill:rgb(0,0,0);font-family:TimesNewRomanPSMT;font-size:11.04px;stroke:none;">4</text>
  </g>
  <g begin="text">
   <text y="119.3" x="54.0" svgx:width="0.25" style="fill:rgb(0,0,0);font-family:TimesNewRomanPSMT;font-size:11.04px;stroke:none;"> </text>
  </g>
  <g begin="text">
   <text y="132.02" x="72.84,75.609,81.147,86.645,89.413,93.836,98.875,102.222,106.644,110.519,113.009,116.375,121.913,126.335,128.845,131.614,136.036,141.076,145.498,148.267,150.787,155.817,159.163,161.673,166.096,171.145,176.683,180.0,182.769,188.306,192.729,198.266,202.689,207.131,209.641,212.151,219.342,222.111,225.457,230.995,233.485,239.023,244.043,248.465,254.112,258.534,262.986,265.496,269.341,274.879,279.889,285.426,288.195,293.693,298.723,301.233,305.077,307.846,312.986,318.523,321.292,324.609,329.659,332.428,337.965,342.965,345.475,351.013,353.782,358.782,364.32,368.742" svgx:width="0.28,0.56,0.56,0.28,0.44,0.5,0.33,0.44,0.39,0.25,0.33,0.56,0.44,0.25,0.28,0.44,0.5,0.44,0.28,0.25,0.5,0.33,0.25,0.44,0.5,0.56,0.33,0.28,0.56,0.44,0.56,0.44,0.44,0.25,0.25,0.72,0.28,0.33,0.56,0.25,0.56,0.5,0.44,0.56,0.44,0.44,0.25,0.39,0.56,0.5,0.56,0.28,0.56,0.5,0.25,0.39,0.28,0.5,0.56,0.28,0.33,0.5,0.28,0.56,0.5,0.25,0.56,0.28,0.5,0.56,0.44,0.44" style="fill:rgb(0,0,0);font-family:TimesNewRomanPS-BoldMT;font-size:9.96px;stroke:none;">indicates the level of confidence, with darker shading signifying higher</text>
  </g>
  <g begin="text">
   <text y="132.02" x="373.49" svgx:width="0.25" style="fill:rgb(0,0,0);font-family:TimesNewRomanPS-BoldMT;font-size:9.96px;stroke:none;"> </text>
  </g>
  <g begin="text">
   <text y="132.02" x="376.01,378.779,383.201,388.241,392.663,395.432,399.307,401.797,406.826,410.173,412.683,417.105,422.155,427.693,431.009,433.778,439.316,443.738,449.276,453.698,458.14" svgx:width="0.28,0.44,0.5,0.44,0.28,0.39,0.25,0.5,0.33,0.25,0.44,0.5,0.56,0.33,0.28,0.56,0.44,0.56,0.44,0.44,0.25" style="fill:rgb(0,0,0);font-family:TimesNewRomanPS-BoldMT;font-size:9.96px;stroke:none;">levels of confidence.</text>
  </g>
  <g begin="text">
   <text y="132.02" x="460.75" svgx:width="0.25" style="fill:rgb(0,0,0);font-family:TimesNewRomanPS-BoldMT;font-size:9.96px;stroke:none;"> </text>
  </g>
  <g begin="text">
   <text y="132.02" x="463.27,470.461,475.999,481.537,486.058,491.596,497.094,499.863" svgx:width="0.72,0.56,0.56,0.44,0.56,0.56,0.28,0.5" style="fill:rgb(0,0,0);font-family:TimesNewRomanPS-BoldMT;font-size:9.96px;stroke:none;">Appendix</text>
  </g>
  <g begin="text">
   <text y="132.02" x="504.91" svgx:width="0.25" style="fill:rgb(0,0,0);font-family:TimesNewRomanPS-BoldMT;font-size:9.96px;stroke:none;"> </text>
  </g>
  <g begin="text">
   <text y="132.02" x="507.43,511.27" svgx:width="0.39,0.39" style="fill:rgb(0,0,0);font-family:TimesNewRomanPS-BoldMT;font-size:9.96px;stroke:none;">II</text>
  </g>
  <g begin="text">
   <text y="132.02" x="515.11" svgx:width="0.25" style="fill:rgb(0,0,0);font-family:TimesNewRomanPS-BoldMT;font-size:9.96px;stroke:none;"> </text>
  </g>
  <g begin="text">
   <text y="132.02" x="517.63" svgx:width="0.25" style="fill:rgb(0,0,0);font-family:TimesNewRomanPS-BoldMT;font-size:9.96px;stroke:none;"> </text>
  </g>
  <g begin="text">
   <text y="132.02" x="520.15,525.688,530.11,535.14,540.17,542.938,548.476,552.998,556.843,559.353,564.382,569.92,572.41,577.45,582.48,586.902,591.354,596.384,599.153,603.575,610.766,613.296,618.326,621.672,624.073,627.419,632.957,637.379,639.889,643.235,648.265,652.688,655.944,660.974,665.396,669.271,671.761,676.801,680.147,683.494,687.916,692.368,695.715,698.484,704.021,709.021,711.531,714.878,720.415,724.838,727.348,730.694,735.017,740.047,743.891,746.66,752.198,754.927,757.696,760.464,763.781,768.841" svgx:width="0.56,0.44,0.5,0.5,0.28,0.56,0.44,0.39,0.25,0.5,0.56,0.25,0.5,0.5,0.44,0.44,0.5,0.28,0.44,0.72,0.25,0.5,0.33,0.25,0.33,0.56,0.44,0.25,0.33,0.5,0.44,0.33,0.5,0.44,0.39,0.25,0.5,0.33,0.33,0.44,0.44,0.33,0.28,0.56,0.5,0.25,0.33,0.56,0.44,0.25,0.33,0.44,0.5,0.39,0.28,0.56,0.28,0.28,0.28,0.33,0.5,0.25" style="fill:rgb(0,0,0);font-family:TimesNewRomanPS-BoldMT;font-size:9.96px;stroke:none;">provides an overview of the factors affecting the feasibility </text>
  </g>
  <g begin="text">
   <text y="132.02" x="48.48" svgx:width="0.5" style="fill:rgb(0,0,0);font-family:TimesNewRomanPSMT;font-size:11.04px;stroke:none;">5</text>
  </g>
  <g begin="text">
   <text y="132.02" x="54.0" svgx:width="0.25" style="fill:rgb(0,0,0);font-family:TimesNewRomanPSMT;font-size:11.04px;stroke:none;"> </text>
  </g>
  <g begin="text">
   <text y="144.62" x="73.08,78.11,81.456,83.966,88.996,94.534,97.851,100.619,105.669,111.207,115.032,117.541,122.571,128.109,133.607,136.117,141.655,146.665,153.856,156.376,159.722,165.26,169.682,174.712,177.222,182.76,185.528,188.845,192.102,196.524,200.976,203.486,208.516,212.938,217.391,222.42,226.265,230.109,232.619,237.042,242.091,247.629,250.946,255.398,260.428" svgx:width="0.5,0.33,0.25,0.5,0.56,0.33,0.28,0.5,0.56,0.39,0.25,0.5,0.56,0.56,0.25,0.56,0.5,0.72,0.25,0.33,0.56,0.44,0.5,0.25,0.56,0.28,0.33,0.33,0.44,0.44,0.25,0.5,0.44,0.44,0.5,0.39,0.39,0.25,0.44,0.5,0.56,0.33,0.44,0.5,0.33" style="fill:rgb(0,0,0);font-family:TimesNewRomanPS-BoldMT;font-size:9.96px;stroke:none;">of options and how they differ across context</text>
  </g>
  <g begin="text">
   <text y="144.62" x="264.05" svgx:width="0.25" style="fill:rgb(0,0,0);font-family:TimesNewRomanPS-BoldMT;font-size:9.96px;stroke:none;"> </text>
  </g>
  <g begin="text">
   <text y="144.62" x="266.57,269.917,274.239,276.749,281.779,284.289,286.799,289.309,293.731,298.073,303.103,305.872,310.782,316.32,319.637,322.177,324.687,328.033,330.802,339.178,343.601,346.13,349.477,353.899,356.319,361.349,363.859,366.369,368.769,373.799,378.829,383.749,388.779,391.289,396.319,400.741,405.193,409.038,414.576,418.4,420.91,425.94,430.86,435.89,440.92,444.266,446.776,449.177,454.206,459.744,465.242,467.752,471.597,476.019,481.069,483.837,488.26,490.78,494.126,498.548,501.078,506.108,508.618,511.128,513.638,517.482,525.779,530.789,533.558,536.327,538.817,543.856,548.279,552.621,556.466,562.004,565.828,568.338,571.107,576.127,580.549,585.599,590.021,593.387,595.897,598.407,603.437,608.975,614.473,616.983,619.752,625.289,629.712,632.48,637.978,643.516,648.048,651.892,654.402,659.432,661.942,664.711" svgx:width="0.33,0.44,0.25,0.5,0.25,0.25,0.25,0.44,0.44,0.5,0.28,0.5,0.56,0.33,0.25,0.25,0.33,0.28,0.83,0.44,0.25,0.33,0.44,0.25,0.5,0.25,0.25,0.25,0.5,0.5,0.5,0.5,0.25,0.5,0.44,0.44,0.39,0.56,0.39,0.25,0.5,0.5,0.5,0.5,0.33,0.25,0.25,0.5,0.56,0.56,0.25,0.39,0.44,0.5,0.28,0.44,0.25,0.33,0.44,0.25,0.5,0.25,0.25,0.25,0.39,0.83,0.5,0.28,0.28,0.25,0.5,0.44,0.44,0.39,0.56,0.39,0.25,0.28,0.5,0.44,0.5,0.44,0.33,0.25,0.25,0.5,0.56,0.56,0.25,0.28,0.56,0.44,0.28,0.56,0.56,0.44,0.39,0.25,0.5,0.25,0.28,0.28" style="fill:rgb(0,0,0);font-family:TimesNewRomanPS-BoldMT;font-size:9.96px;stroke:none;">(e.g., region), time (e.g., 2030 versus 2050), and scale (e.g., small versus large), and includes a li</text>
  </g>
  <g begin="text">
   <text y="144.62" x="668.02,673.647,678.07,680.6,685.629,688.976,691.486,695.33,698.099,703.119,708.657,711.973,714.513,719.543,725.081,727.571,734.762,740.3,743.068,747.491,753.029,755.518,758.895,764.433,768.855" svgx:width="0.56,0.44,0.25,0.5,0.33,0.25,0.39,0.28,0.5,0.56,0.33,0.25,0.5,0.56,0.25,0.72,0.56,0.28,0.44,0.56,0.25,0.33,0.56,0.44,0.25" style="fill:rgb(0,0,0);font-family:TimesNewRomanPS-BoldMT;font-size:9.96px;stroke:none;">ne of sight on which the </text>
  </g>
  <g begin="text">
   <text y="144.62" x="48.48" svgx:width="0.5" style="fill:rgb(0,0,0);font-family:TimesNewRomanPSMT;font-size:11.04px;stroke:none;">6</text>
  </g>
  <g begin="text">
   <text y="144.62" x="54.0" svgx:width="0.25" style="fill:rgb(0,0,0);font-family:TimesNewRomanPSMT;font-size:11.04px;stroke:none;"> </text>
  </g>
  <g begin="text">
   <text y="157.22" x="267.17,272.2,276.044,279.889,284.311,288.186,292.01,300.397,304.819,310.357,313.703,316.213,318.982,322.817,325.446,330.984,335.994,339.838,344.26,349.798,352.308,354.818,361.531,367.069,371.491,374.001,379.031,382.875,386.83,391.252,395.126,398.951,407.337,411.759,417.297,420.644,423.154,431.54,435.962,439.329,444.866,449.876,455.414,457.904,460.673,464.517,467.027,471.45,476.499,482.037,484.806,489.806,492.575,498.113,502.535,508.152,510.662,513.431,518.969,521.459,528.65,534.188,539.726,544.148,549.168" svgx:width="0.5,0.39,0.39,0.44,0.39,0.39,0.83,0.44,0.56,0.33,0.25,0.28,0.39,0.25,0.56,0.5,0.39,0.44,0.56,0.25,0.25,0.67,0.56,0.44,0.25,0.5,0.39,0.39,0.44,0.39,0.39,0.83,0.44,0.56,0.33,0.25,0.83,0.44,0.33,0.56,0.5,0.56,0.25,0.28,0.39,0.25,0.44,0.5,0.56,0.28,0.5,0.28,0.56,0.44,0.56,0.25,0.28,0.56,0.25,0.72,0.56,0.56,0.44,0.5,0.25" style="fill:rgb(0,0,0);font-family:TimesNewRomanPS-BoldMT;font-size:9.96px;stroke:none;">assessment is based. The assessment method is explained in Annex </text>
  </g>
  <g begin="text">
   <text y="157.22" x="551.95,555.79" svgx:width="0.39,0.39" style="fill:rgb(0,0,0);font-family:TimesNewRomanPS-BoldMT;font-size:9.96px;stroke:none;">II</text>
  </g>
  <g begin="text">
   <text y="157.22" x="559.63,562.15" svgx:width="0.25,0.5" style="fill:rgb(0,0,0);font-family:TimesNewRomanPS-BoldMT;font-size:9.96px;stroke:none;">.1</text>
  </g>
  <g begin="text">
   <text y="157.22" x="567.19" svgx:width="0.5" style="fill:rgb(0,0,0);font-family:TimesNewRomanPS-BoldMT;font-size:9.96px;stroke:none;">1</text>
  </g>
  <g begin="text">
   <text y="157.22" x="572.23" svgx:width="0.25" style="fill:rgb(0,0,0);font-family:TimesNewRomanPS-BoldMT;font-size:9.96px;stroke:none;">.</text>
  </g>
  <g begin="text">
   <text y="157.22" x="574.75" svgx:width="0.25" style="fill:rgb(0,0,0);font-family:TimesNewRomanPS-BoldMT;font-size:12.0px;stroke:none;"> </text>
  </g>
  <g begin="text">
   <text y="157.22" x="48.48" svgx:width="0.5" style="fill:rgb(0,0,0);font-family:TimesNewRomanPSMT;font-size:11.04px;stroke:none;">7</text>
  </g>
  <g begin="text">
   <text y="157.22" x="54.0" svgx:width="0.25" style="fill:rgb(0,0,0);font-family:TimesNewRomanPSMT;font-size:11.04px;stroke:none;"> </text>
  </g>
  <g begin="text">
   <text y="505.656" x="48.48" svgx:width="0.5" style="fill:rgb(0,0,0);font-family:TimesNewRomanPSMT;font-size:11.04px;stroke:none;">8</text>
  </g>
  <g begin="text">
   <text y="505.656" x="54.0" svgx:width="0.25" style="fill:rgb(0,0,0);font-family:TimesNewRomanPSMT;font-size:11.04px;stroke:none;"> </text>
  </g>
  <rect style="fill:pink;opacity:0.2;stroke:blue;stroke-width:0.3;" x="186.95" y="375.222" height="334.7" width="467.97" title="70"/>
  <text y="375.222" class="image" id="image.70.1" width="467" height="334" x="186.95" style="font-size:5.0px;">image.70.1.187_655.375_710</text>
  <g begin="text">
   <text y="478.906" transform="matrix(0.70711,-0.70711,0.70711,0.70711,-271.92861,301.31825)" rotateDegrees="-45" matrix="[29.819458,29.819458,-29.819458,29.819458,227.75916,116.41376]" x="227.759" svgx:width="0.67" style="fill:rgb(0,0,0);font-family:Arial;font-size:42.17px;stroke:none;">A</text>
   <text y="459.017" transform="matrix(0.70711,-0.70711,0.70711,0.70711,-252.03932,309.55725)" rotateDegrees="-45" matrix="[29.819458,29.819458,-29.819458,29.819458,247.64874,136.30333]" x="247.649" svgx:width="0.72" style="fill:rgb(0,0,0);font-family:Arial;font-size:42.17px;stroke:none;">C</text>
   <text y="437.487" transform="matrix(0.70711,-0.70711,0.70711,0.70711,-230.50961,318.47456)" rotateDegrees="-45" matrix="[29.819458,29.819458,-29.819458,29.819458,269.17838,157.83298]" x="269.178" svgx:width="0.72" style="fill:rgb(0,0,0);font-family:Arial;font-size:42.17px;stroke:none;">C</text>
   <text y="415.957" transform="matrix(0.70711,-0.70711,0.70711,0.70711,-208.97961,327.39258)" rotateDegrees="-45" matrix="[29.819458,29.819458,-29.819458,29.819458,290.70804,179.36263]" x="290.708" svgx:width="0.67" style="fill:rgb(0,0,0);font-family:Arial;font-size:42.17px;stroke:none;">E</text>
   <text y="396.068" transform="matrix(0.70711,-0.70711,0.70711,0.70711,-189.09032,335.63158)" rotateDegrees="-45" matrix="[29.819458,29.819458,-29.819458,29.819458,310.5976,199.2522]" x="310.598" svgx:width="0.67" style="fill:rgb(0,0,0);font-family:Arial;font-size:42.17px;stroke:none;">P</text>
   <text y="376.178" transform="matrix(0.70711,-0.70711,0.70711,0.70711,-169.20061,343.86958)" rotateDegrees="-45" matrix="[29.819458,29.819458,-29.819458,29.819458,330.48718,219.14178]" x="330.487" svgx:width="0.61" style="fill:rgb(0,0,0);font-family:Arial;font-size:42.17px;stroke:none;">T</text>
   <text y="357.959" transform="matrix(0.70711,-0.70711,0.70711,0.70711,-150.98132,351.41685)" rotateDegrees="-45" matrix="[29.819458,29.819458,-29.819458,29.819458,348.70688,237.36148]" x="348.707" svgx:width="0.67" style="fill:rgb(0,0,0);font-family:Arial;font-size:42.17px;stroke:none;">E</text>
   <text y="338.069" transform="matrix(0.70711,-0.70711,0.70711,0.70711,-131.09161,359.65485)" rotateDegrees="-45" matrix="[29.819458,29.819458,-29.819458,29.819458,368.59644,257.25104]" x="368.596" svgx:width="0.72" style="fill:rgb(0,0,0);font-family:Arial;font-size:42.17px;stroke:none;">D</text>
   <text y="316.539" transform="matrix(0.70711,-0.70711,0.70711,0.70711,-109.56161,368.57287)" rotateDegrees="-45" matrix="[29.819458,29.819458,-29.819458,29.819458,390.1261,278.7807]" x="390.126" svgx:width="0.28" style="fill:rgb(0,0,0);font-family:Arial;font-size:42.17px;stroke:none;"> </text>
   <text y="308.246" transform="matrix(0.70711,-0.70711,0.70711,0.70711,-101.26832,372.00865)" rotateDegrees="-45" matrix="[29.819458,29.819458,-29.819458,29.819458,398.41962,287.07422]" x="398.42" svgx:width="0.67" style="fill:rgb(0,0,0);font-family:Arial;font-size:42.17px;stroke:none;">V</text>
   <text y="288.356" transform="matrix(0.70711,-0.70711,0.70711,0.70711,-81.37861,380.24665)" rotateDegrees="-45" matrix="[29.819458,29.819458,-29.819458,29.819458,418.3092,306.9638]" x="418.309" svgx:width="0.67" style="fill:rgb(0,0,0);font-family:Arial;font-size:42.17px;stroke:none;">E</text>
   <text y="268.467" transform="matrix(0.70711,-0.70711,0.70711,0.70711,-61.48932,388.48565)" rotateDegrees="-45" matrix="[29.819458,29.819458,-29.819458,29.819458,438.1988,326.8534]" x="438.199" svgx:width="0.72" style="fill:rgb(0,0,0);font-family:Arial;font-size:42.17px;stroke:none;">R</text>
   <text y="246.937" transform="matrix(0.70711,-0.70711,0.70711,0.70711,-39.95961,397.40296)" rotateDegrees="-45" matrix="[29.819458,29.819458,-29.819458,29.819458,459.72845,348.38306]" x="459.728" svgx:width="0.67" style="fill:rgb(0,0,0);font-family:Arial;font-size:42.17px;stroke:none;">S</text>
   <text y="227.047" transform="matrix(0.70711,-0.70711,0.70711,0.70711,-20.06961,405.64167)" rotateDegrees="-45" matrix="[29.819458,29.819458,-29.819458,29.819458,479.618,368.2726]" x="479.618" svgx:width="0.28" style="fill:rgb(0,0,0);font-family:Arial;font-size:42.17px;stroke:none;">I</text>
   <text y="218.758" transform="matrix(0.70711,-0.70711,0.70711,0.70711,-11.78032,409.07579)" rotateDegrees="-45" matrix="[29.819458,29.819458,-29.819458,29.819458,487.9078,376.5624]" x="487.908" svgx:width="0.78" style="fill:rgb(0,0,0);font-family:Arial;font-size:42.17px;stroke:none;">O</text>
   <text y="195.558" transform="matrix(0.70711,-0.70711,0.70711,0.70711,11.41939,418.68484)" rotateDegrees="-45" matrix="[29.819458,29.819458,-29.819458,29.819458,511.10736,399.76196]" x="511.107" svgx:width="0.72" style="fill:rgb(0,0,0);font-family:Arial;font-size:42.17px;stroke:none;">N</text>
   <text y="174.028" transform="matrix(0.70711,-0.70711,0.70711,0.70711,32.94939,427.60286)" rotateDegrees="-45" matrix="[29.819458,29.819458,-29.819458,29.819458,532.63696,421.2916]" x="532.637" svgx:width="0.28" style="fill:rgb(0,0,0);font-family:Arial;font-size:42.17px;stroke:none;"> </text>
   <text y="514.69" transform="matrix(0.70711,-0.70711,0.70711,0.70711,-286.75083,337.10225)" rotateDegrees="-45" matrix="[29.819458,29.819458,-29.819458,29.819458,263.5425,80.6304]" x="263.543" svgx:width="0.67" style="fill:rgb(0,0,0);font-family:Arial;font-size:42.17px;stroke:none;">S</text>
   <text y="494.8" transform="matrix(0.70711,-0.70711,0.70711,0.70711,-266.86112,345.34025)" rotateDegrees="-45" matrix="[29.819458,29.819458,-29.819458,29.819458,283.43207,100.51998]" x="283.432" svgx:width="0.72" style="fill:rgb(0,0,0);font-family:Arial;font-size:42.17px;stroke:none;">U</text>
   <text y="473.27" transform="matrix(0.70711,-0.70711,0.70711,0.70711,-245.33112,354.25827)" rotateDegrees="-45" matrix="[29.819458,29.819458,-29.819458,29.819458,304.96173,122.04963]" x="304.962" svgx:width="0.67" style="fill:rgb(0,0,0);font-family:Arial;font-size:42.17px;stroke:none;">B</text>
   <text y="453.381" transform="matrix(0.70711,-0.70711,0.70711,0.70711,-225.44212,362.49657)" rotateDegrees="-45" matrix="[29.819458,29.819458,-29.819458,29.819458,324.85132,141.93921]" x="324.851" svgx:width="0.5" style="fill:rgb(0,0,0);font-family:Arial;font-size:42.17px;stroke:none;">J</text>
   <text y="438.471" transform="matrix(0.70711,-0.70711,0.70711,0.70711,-210.53212,368.67249)" rotateDegrees="-45" matrix="[29.819458,29.819458,-29.819458,29.819458,339.76105,156.84894]" x="339.761" svgx:width="0.67" style="fill:rgb(0,0,0);font-family:Arial;font-size:42.17px;stroke:none;">E</text>
   <text y="418.581" transform="matrix(0.70711,-0.70711,0.70711,0.70711,-190.64212,376.9112)" rotateDegrees="-45" matrix="[29.819458,29.819458,-29.819458,29.819458,359.65063,176.73851]" x="359.651" svgx:width="0.72" style="fill:rgb(0,0,0);font-family:Arial;font-size:42.17px;stroke:none;">C</text>
   <text y="397.052" transform="matrix(0.70711,-0.70711,0.70711,0.70711,-169.11312,385.8288)" rotateDegrees="-45" matrix="[29.819458,29.819458,-29.819458,29.819458,381.18027,198.26816]" x="381.18" svgx:width="0.61" style="fill:rgb(0,0,0);font-family:Arial;font-size:42.17px;stroke:none;">T</text>
   <text y="378.832" transform="matrix(0.70711,-0.70711,0.70711,0.70711,-150.89312,393.37577)" rotateDegrees="-45" matrix="[29.819458,29.819458,-29.819458,29.819458,399.39996,216.48784]" x="399.4" svgx:width="0.28" style="fill:rgb(0,0,0);font-family:Arial;font-size:42.17px;stroke:none;"> </text>
   <text y="370.542" transform="matrix(0.70711,-0.70711,0.70711,0.70711,-142.60312,396.8096)" rotateDegrees="-45" matrix="[29.819458,29.819458,-29.819458,29.819458,407.68976,224.77766]" x="407.69" svgx:width="0.61" style="fill:rgb(0,0,0);font-family:Arial;font-size:42.17px;stroke:none;">T</text>
   <text y="352.323" transform="matrix(0.70711,-0.70711,0.70711,0.70711,-124.38412,404.35616)" rotateDegrees="-45" matrix="[29.819458,29.819458,-29.819458,29.819458,425.90945,242.99734]" x="425.909" svgx:width="0.78" style="fill:rgb(0,0,0);font-family:Arial;font-size:42.17px;stroke:none;">O</text>
   <text y="329.123" transform="matrix(0.70711,-0.70711,0.70711,0.70711,-101.18412,413.96591)" rotateDegrees="-45" matrix="[29.819458,29.819458,-29.819458,29.819458,449.10898,266.19687]" x="449.109" svgx:width="0.28" style="fill:rgb(0,0,0);font-family:Arial;font-size:42.17px;stroke:none;"> </text>
   <text y="320.848" transform="matrix(0.70711,-0.70711,0.70711,0.70711,-92.90912,417.39353)" rotateDegrees="-45" matrix="[29.819458,29.819458,-29.819458,29.819458,457.3839,274.4718]" x="457.384" svgx:width="0.61" style="fill:rgb(0,0,0);font-family:Arial;font-size:42.17px;stroke:none;">F</text>
   <text y="302.629" transform="matrix(0.70711,-0.70711,0.70711,0.70711,-74.68983,424.9408)" rotateDegrees="-45" matrix="[29.819458,29.819458,-29.819458,29.819458,475.60358,292.69147]" x="475.604" svgx:width="0.28" style="fill:rgb(0,0,0);font-family:Arial;font-size:42.17px;stroke:none;">I</text>
   <text y="294.339" transform="matrix(0.70711,-0.70711,0.70711,0.70711,-66.40012,428.37392)" rotateDegrees="-45" matrix="[29.819458,29.819458,-29.819458,29.819458,483.89337,300.98126]" x="483.893" svgx:width="0.72" style="fill:rgb(0,0,0);font-family:Arial;font-size:42.17px;stroke:none;">N</text>
   <text y="272.809" transform="matrix(0.70711,-0.70711,0.70711,0.70711,-44.87012,437.29194)" rotateDegrees="-45" matrix="[29.819458,29.819458,-29.819458,29.819458,505.42303,322.51093]" x="505.423" svgx:width="0.67" style="fill:rgb(0,0,0);font-family:Arial;font-size:42.17px;stroke:none;">A</text>
   <text y="252.919" transform="matrix(0.70711,-0.70711,0.70711,0.70711,-24.98012,445.53064)" rotateDegrees="-45" matrix="[29.819458,29.819458,-29.819458,29.819458,525.3126,342.4005]" x="525.313" svgx:width="0.56" style="fill:rgb(0,0,0);font-family:Arial;font-size:42.17px;stroke:none;">L</text>
   <text y="236.34" transform="matrix(0.70711,-0.70711,0.70711,0.70711,-8.40112,452.39789)" rotateDegrees="-45" matrix="[29.819458,29.819458,-29.819458,29.819458,541.8922,358.9801]" x="541.892" svgx:width="0.28" style="fill:rgb(0,0,0);font-family:Arial;font-size:42.17px;stroke:none;"> </text>
   <text y="228.056" transform="matrix(0.70711,-0.70711,0.70711,0.70711,-0.11712,455.82924)" rotateDegrees="-45" matrix="[29.819458,29.819458,-29.819458,29.819458,550.17584,367.26373]" x="550.176" svgx:width="0.67" style="fill:rgb(0,0,0);font-family:Arial;font-size:42.17px;stroke:none;">E</text>
   <text y="208.167" transform="matrix(0.70711,-0.70711,0.70711,0.70711,19.77188,464.06753)" rotateDegrees="-45" matrix="[29.819458,29.819458,-29.819458,29.819458,570.0654,387.1533]" x="570.065" svgx:width="0.72" style="fill:rgb(0,0,0);font-family:Arial;font-size:42.17px;stroke:none;">D</text>
   <text y="186.637" transform="matrix(0.70711,-0.70711,0.70711,0.70711,41.30188,472.98555)" rotateDegrees="-45" matrix="[29.819458,29.819458,-29.819458,29.819458,591.59503,408.68292]" x="591.595" svgx:width="0.28" style="fill:rgb(0,0,0);font-family:Arial;font-size:42.17px;stroke:none;">I</text>
   <text y="178.347" transform="matrix(0.70711,-0.70711,0.70711,0.70711,49.59188,476.41938)" rotateDegrees="-45" matrix="[29.819458,29.819458,-29.819458,29.819458,599.8848,416.97272]" x="599.885" svgx:width="0.61" style="fill:rgb(0,0,0);font-family:Arial;font-size:42.17px;stroke:none;">T</text>
   <text y="160.128" transform="matrix(0.70711,-0.70711,0.70711,0.70711,67.81088,483.96594)" rotateDegrees="-45" matrix="[29.819458,29.819458,-29.819458,29.819458,618.1045,435.1924]" x="618.104" svgx:width="0.67" style="fill:rgb(0,0,0);font-family:Arial;font-size:42.17px;stroke:none;">S</text>
  </g>
 </g>
</svg>
