<?xml version="1.0" encoding="UTF-8"?>
<svg height="807.04" width="2582.0" xmlns="http://www.w3.org/2000/svg">
 <g id="page" xmlns:svgx="http://www.xml-cml.org/schema/svgx">
  <g begin="text">
   <text y="45.72" x="72.024,78.162,81.231,86.751,91.587,94.7,97.46,105.376,110.896,116.416,121.218,124.928,130.448,138.971,143.872,149.392,152.517,155.277,163.082,166.195,170.39,173.504,177.103,180.216,185.736,191.135,194.137,197.251,202.771" svgx:width="0.56,0.28,0.5,0.44,0.28,0.25,0.72,0.5,0.5,0.44,0.33,0.5,0.78,0.44,0.5,0.28,0.25,0.72,0.28,0.39,0.28,0.33,0.28,0.5,0.5,0.28,0.28,0.5,0.5" style="fill:rgb(0,0,0);font-family:TimesNewRomanPSMT;font-size:11.04px;stroke:none;">Final Government Distribution</text>
  </g>
  <g begin="text">
   <text y="45.72" x="208.37" svgx:width="0.25" style="fill:rgb(0,0,0);font-family:TimesNewRomanPSMT;font-size:11.04px;stroke:none;"> </text>
  </g>
  <g begin="text">
   <text y="45.72" x="211.01" svgx:width="0.25" style="fill:rgb(0,0,0);font-family:TimesNewRomanPSMT;font-size:11.04px;stroke:none;"> </text>
  </g>
  <g begin="text">
   <text y="45.72" x="216.05" svgx:width="0.25" style="fill:rgb(0,0,0);font-family:TimesNewRomanPSMT;font-size:11.04px;stroke:none;"> </text>
  </g>
  <g begin="text">
   <text y="45.72" x="252.05" svgx:width="0.25" style="fill:rgb(0,0,0);font-family:TimesNewRomanPSMT;font-size:11.04px;stroke:none;"> </text>
  </g>
  <g begin="text">
   <text y="45.72" x="288.05,295.369,300.889,305.791,311.311,314.436,319.238,322.947,325.707" svgx:width="0.67,0.5,0.44,0.5,0.28,0.44,0.33,0.25,0.5" style="fill:rgb(0,0,0);font-family:TimesNewRomanPSMT;font-size:11.04px;stroke:none;">Chapter 6</text>
  </g>
  <g begin="text">
   <text y="45.72" x="331.15" svgx:width="0.25" style="fill:rgb(0,0,0);font-family:TimesNewRomanPSMT;font-size:11.04px;stroke:none;"> </text>
  </g>
  <g begin="text">
   <text y="45.72" x="360.07" svgx:width="0.25" style="fill:rgb(0,0,0);font-family:TimesNewRomanPSMT;font-size:11.04px;stroke:none;"> </text>
  </g>
  <g begin="text">
   <text y="45.72" x="396.07" svgx:width="0.25" style="fill:rgb(0,0,0);font-family:TimesNewRomanPSMT;font-size:11.04px;stroke:none;"> </text>
  </g>
  <g begin="text">
   <text y="45.72" x="432.07,435.669,441.807,449.105,456.424" svgx:width="0.33,0.56,0.67,0.67,0.25" style="fill:rgb(0,0,0);font-family:TimesNewRomanPSMT;font-size:11.04px;stroke:none;">IPCC </text>
  </g>
  <g begin="text">
   <text y="45.72" x="459.22,469.642,477.613,481.289,484.899,488.498,491.258,499.174,506.493" svgx:width="0.94,0.72,0.33,0.33,0.33,0.25,0.72,0.67,0.5" style="fill:rgb(0,0,0);font-family:TimesNewRomanPSMT;font-size:11.04px;stroke:none;">WGIII AR6</text>
  </g>
  <g begin="text">
   <text y="45.72" x="512.14" svgx:width="0.25" style="fill:rgb(0,0,0);font-family:TimesNewRomanPSMT;font-size:11.04px;stroke:none;"> </text>
  </g>
  <g begin="text">
   <text y="783.096" x="72.024,79.94,85.46,88.22,96.135,101.655,105.365,108.125,116.04,119.154,122.753,127.655,130.415,133.075,141.708,147.847,153.367,157.043,161.868,164.628,170.148,175.049,177.809,185.78,188.75,192.945,196.655,201.556,204.681,210.819,216.803,220.512" svgx:width="0.72,0.5,0.25,0.72,0.5,0.33,0.25,0.72,0.28,0.33,0.44,0.25,0.25,0.78,0.56,0.5,0.33,0.44,0.25,0.5,0.44,0.25,0.72,0.28,0.39,0.33,0.44,0.28,0.56,0.56,0.33,0.44" style="fill:rgb(0,0,0);font-family:TimesNewRomanPS-BoldMT;font-size:11.04px;stroke:none;">Do Not Cite, Quote or Distribute</text>
  </g>
  <g begin="text">
   <text y="783.096" x="225.41" svgx:width="0.25" style="fill:rgb(0,0,0);font-family:TimesNewRomanPS-BoldMT;font-size:11.04px;stroke:none;"> </text>
  </g>
  <g begin="text">
   <text y="783.096" x="287.57" svgx:width="0.5" style="fill:rgb(0,0,0);font-family:TimesNewRomanPSMT;font-size:11.04px;stroke:none;">6</text>
  </g>
  <g begin="text">
   <text y="783.096" x="293.09" svgx:width="0.33" style="fill:rgb(0,0,0);font-family:TimesNewRomanPS-BoldMT;font-size:11.04px;stroke:none;">-</text>
  </g>
  <g begin="text">
   <text y="783.096" x="296.81,302.33" svgx:width="0.5,0.5" style="fill:rgb(0,0,0);font-family:TimesNewRomanPSMT;font-size:11.04px;stroke:none;">96</text>
  </g>
  <g begin="text">
   <text y="783.096" x="307.85" svgx:width="0.25" style="fill:rgb(0,0,0);font-family:TimesNewRomanPSMT;font-size:11.04px;stroke:none;"> </text>
  </g>
  <g begin="text">
   <text y="783.096" x="310.49" svgx:width="0.25" style="fill:rgb(0,0,0);font-family:TimesNewRomanPSMT;font-size:11.04px;stroke:none;"> </text>
  </g>
  <g begin="text">
   <text y="783.096" x="450.1,456.845,462.365,465.435,470.259,473.372,476.132,481.652,486.554,491.975,496.876,501.204,504.207" svgx:width="0.61,0.5,0.28,0.44,0.28,0.25,0.5,0.44,0.5,0.44,0.39,0.28,0.25" style="fill:rgb(0,0,0);font-family:TimesNewRomanPSMT;font-size:11.04px;stroke:none;">Total pages: </text>
  </g>
  <g begin="text">
   <text y="783.096" x="506.98,512.5,518.02" svgx:width="0.5,0.5,0.5" style="fill:rgb(0,0,0);font-family:TimesNewRomanPSMT;font-size:11.04px;stroke:none;">217</text>
  </g>
  <g begin="text">
   <text y="783.096" x="523.42" svgx:width="0.25" style="fill:rgb(0,0,0);font-family:TimesNewRomanPSMT;font-size:9.96px;stroke:none;"> </text>
  </g>
  <g begin="text">
   <text y="797.04" x="72.024" svgx:width="0.25" style="fill:rgb(0,0,0);font-family:TimesNewRomanPSMT;font-size:11.04px;stroke:none;"> </text>
  </g>
  <g begin="text">
   <text y="82.32" x="72.024,78.769,83.671,89.191,92.293,97.813,103.333,108.732,111.845,114.605,115.433,119.143,124.541,127.655,132.556,138.076,142.294,147.814,150.817,153.93,159.45,164.97" svgx:width="0.61,0.44,0.5,0.28,0.5,0.5,0.5,0.28,0.25,0.55,0.33,0.5,0.28,0.44,0.5,0.39,0.5,0.28,0.28,0.5,0.5,0.25" style="fill:rgb(0,0,0);font-family:TimesNewRomanPS-ItalicMT;font-size:11.04px;stroke:none;">Regional Integration.</text>
  </g>
  <g begin="text">
   <text y="82.32" x="167.78" svgx:width="0.25" style="fill:rgb(0,0,0);font-family:TimesNewRomanPS-BoldMT;font-size:11.04px;stroke:none;"> </text>
  </g>
  <g begin="text">
   <text y="82.32" x="171.5,178.698,183.6,189.12,192.134,197.654,203.174,208.076,211.089,213.849,214.799,217.912,223.311,226.424,231.326,236.746,240.456,245.258,248.372,251.485,257.005,262.403,265.163,266.113,274.028,277.031,280.145,283.148,285.908,286.857,291.759,294.773,297.886,303.406,311.211,313.971,314.921,319.822,325.342,330.862,336.283,339.396,342.995,346.109,351.01,355.228,357.988,358.937,362.05,367.449,370.209,371.158,376.678,380.277,383.391" svgx:width="0.67,0.44,0.5,0.28,0.5,0.5,0.44,0.28,0.25,0.55,0.28,0.5,0.28,0.44,0.5,0.33,0.44,0.28,0.28,0.5,0.5,0.25,0.55,0.72,0.28,0.28,0.28,0.25,0.55,0.44,0.28,0.28,0.5,0.72,0.25,0.55,0.44,0.5,0.5,0.5,0.28,0.33,0.28,0.44,0.39,0.25,0.55,0.28,0.5,0.25,0.55,0.5,0.33,0.28,0.5" style="fill:rgb(0,0,0);font-family:TimesNewRomanPSMT;font-size:11.04px;stroke:none;">Regional integration will allow countries to brid</text>
  </g>
  <g begin="text">
   <text y="82.32" x="389.11,394.509,399.41,402.17,403.142,408.044,413.464,418.366,422.098,427.496,432.895,435.655,436.604,442.124,447.026,452.546,456.763,459.52299999999997,460.473,465.992,470.188,473.301,478.821,484.341,487.929,492.831,498.351,501.365,506.266,509.998,515.397,520.298,523.312" svgx:width="0.5,0.44,0.25,0.55,0.44,0.5,0.44,0.33,0.5,0.5,0.25,0.55,0.5,0.44,0.5,0.39,0.25,0.55,0.5,0.39,0.28,0.5,0.5,0.25,0.44,0.5,0.28,0.44,0.33,0.5,0.44,0.28,0.25" style="fill:rgb(0,0,0);font-family:TimesNewRomanPSMT;font-size:11.04px;stroke:none;">ge energy gaps using external </text>
  </g>
  <g begin="text">
   <text y="82.32" x="48.48" svgx:width="0.5" style="fill:rgb(0,0,0);font-family:TimesNewRomanPSMT;font-size:11.04px;stroke:none;">1</text>
  </g>
  <g begin="text">
   <text y="82.32" x="54.0" svgx:width="0.25" style="fill:rgb(0,0,0);font-family:TimesNewRomanPSMT;font-size:11.04px;stroke:none;"> </text>
  </g>
  <g begin="text">
   <text y="96.26" x="72.024,75.137,78.251,83.771,89.169,94.071,99.591,104.515,108.71,111.47,114.23,115.654,118.767,124.287,129.09,132.203,137.723,143.122,146.235,151.755,157.275,160.035,161.349,165.058,169.96,175.381,178.494,184.014,189.534,194.336,197.449,200.209,201.634,206.535,209.549,214.451,219.375,222.378,226.087,229.09,233.992,237.006,240.119,245.639,248.399,249.823,252.826,258.346,261.459,266.262,271.782,275.491,280.294,283.407,286.41,291.93,297.45,300.21,301.634,306.536,311.956,317.476,320.236,321.661,324.774,328.483,333.286,338.806,343.707,346.467,347.914,351.027,356.547,359.307,360.621,366.141,371.661,377.181,380.89,386.289,391.809,396.711,402.23,404.991,407.751,409.197,414.595,417.709,423.107,431.63,436.532,440.859,445.154,447.914,450.674,452.131,457.033,462.454,467.974,470.734,472.158,477.678,480.791,486.19,491.091,494.823,497.58299999999997,499.007,502.606,508.126,512.929,516.042,520.336,522.997" svgx:width="0.28,0.28,0.5,0.5,0.44,0.5,0.44,0.39,0.25,0.25,0.55,0.28,0.5,0.44,0.28,0.5,0.5,0.28,0.5,0.5,0.25,0.55,0.33,0.44,0.5,0.28,0.5,0.5,0.44,0.28,0.25,0.55,0.44,0.28,0.44,0.44,0.28,0.33,0.28,0.44,0.28,0.28,0.5,0.25,0.55,0.28,0.5,0.28,0.44,0.5,0.33,0.44,0.28,0.28,0.5,0.5,0.25,0.55,0.44,0.5,0.5,0.25,0.55,0.28,0.33,0.44,0.5,0.44,0.25,0.55,0.28,0.5,0.25,0.55,0.5,0.5,0.5,0.33,0.5,0.5,0.44,0.5,0.25,0.25,0.55,0.5,0.28,0.5,0.78,0.44,0.39,0.39,0.25,0.25,0.55,0.44,0.5,0.5,0.25,0.55,0.5,0.28,0.5,0.44,0.33,0.25,0.55,0.33,0.5,0.44,0.28,0.39,0.25,0.25" style="fill:rgb(0,0,0);font-family:TimesNewRomanPSMT;font-size:11.04px;stroke:none;">linkages, including regional electricity integration and trade in hydrogen, biomass, and other fuels. </text>
  </g>
  <g begin="text">
   <text y="96.26" x="48.48" svgx:width="0.5" style="fill:rgb(0,0,0);font-family:TimesNewRomanPSMT;font-size:11.04px;stroke:none;">2</text>
  </g>
  <g begin="text">
   <text y="96.26" x="54.0" svgx:width="0.25" style="fill:rgb(0,0,0);font-family:TimesNewRomanPSMT;font-size:11.04px;stroke:none;"> </text>
  </g>
  <g begin="text">
   <text y="110.18" x="72.024,79.343,84.863,90.383,95.903,99.017,102.616,105.729,110.532,114.826,117.586,118.8,126.716,129.829,132.943,138.463,141.22299999999998,142.415,147.814,151.523,156.425,161.238,164.352,169.154,172.863,175.623,176.816,179.929,185.328,188.441,193.243,198.763,202.473,207.374,210.388,213.502,219.022,224.542,227.302,228.494,233.296,238.198,243.718,246.47799999999998,247.681,251.28,256.182,259.307,264.827,267.587,268.657,277.291,282.811,286.41,291.312,294.072,295.275,300.795,305.697,310.51,316.03,319.143,322.257,327.777,330.537,331.729,337.127,342.647,345.407,346.6,349.603,358.236,363.756,369.276,372.875,375.988,380.283,383.043,384.257,389.06,394.58,400.1,402.86,404.052,412.575,417.477,422.996,425.756,426.96,429.963,435.483,440.385,444.116,448.918,452.628,458.148,461.747,466.649,469.409,470.612,474.322,479.124,482.237,487.757,490.517,491.71,494.712,499.614,503.942,508.236,510.996,512.211,517.731,523.008" svgx:width="0.67,0.5,0.5,0.5,0.28,0.33,0.28,0.44,0.39,0.25,0.55,0.72,0.28,0.28,0.5,0.25,0.55,0.5,0.33,0.44,0.44,0.28,0.44,0.33,0.25,0.55,0.28,0.5,0.28,0.44,0.5,0.33,0.44,0.28,0.28,0.5,0.5,0.25,0.55,0.44,0.44,0.5,0.25,0.55,0.33,0.44,0.28,0.5,0.25,0.55,0.78,0.5,0.33,0.44,0.25,0.55,0.5,0.44,0.44,0.5,0.28,0.28,0.5,0.25,0.55,0.5,0.5,0.25,0.55,0.28,0.78,0.5,0.5,0.33,0.28,0.39,0.25,0.55,0.44,0.5,0.5,0.25,0.55,0.78,0.44,0.5,0.25,0.55,0.28,0.5,0.44,0.33,0.44,0.33,0.5,0.33,0.44,0.25,0.55,0.33,0.44,0.28,0.5,0.25,0.55,0.28,0.44,0.39,0.39,0.25,0.55,0.5,0.5,0.25" style="fill:rgb(0,0,0);font-family:TimesNewRomanPSMT;font-size:11.04px;stroke:none;">Countries with greater integration can rely more heavily on imports and may therefore rely less on </text>
  </g>
  <g begin="text">
   <text y="110.18" x="48.48" svgx:width="0.5" style="fill:rgb(0,0,0);font-family:TimesNewRomanPSMT;font-size:11.04px;stroke:none;">3</text>
  </g>
  <g begin="text">
   <text y="110.18" x="54.0" svgx:width="0.25" style="fill:rgb(0,0,0);font-family:TimesNewRomanPSMT;font-size:11.04px;stroke:none;"> </text>
  </g>
  <g begin="text">
   <text y="124.1" x="72.024,75.137,80.657,86.177,89.18,94.7,99.602,105.122,110.642,116.063,120.357,123.117,126.738,131.64,135.968,141.488,146.886,150.596,155.497,160.311,164.605,167.365" svgx:width="0.28,0.5,0.5,0.28,0.5,0.44,0.5,0.5,0.5,0.39,0.25,0.33,0.44,0.39,0.5,0.5,0.33,0.44,0.44,0.39,0.25,0.33" style="fill:rgb(0,0,0);font-family:TimesNewRomanPSMT;font-size:11.04px;stroke:none;">indigenous resources (</text>
  </g>
  <g begin="text">
   <text y="124.1" x="171.14,178.459,183.979" svgx:width="0.67,0.5,0.5" style="fill:rgb(0,0,0);font-family:TimesNewRomanPSMT;font-size:11.04px;stroke:none;">Box</text>
  </g>
  <g begin="text">
   <text y="124.1" x="189.53" svgx:width="0.25" style="fill:rgb(0,0,0);font-family:TimesNewRomanPSMT;font-size:11.04px;stroke:none;"> </text>
  </g>
  <g begin="text">
   <text y="124.1" x="192.17,197.69" svgx:width="0.5,0.25" style="fill:rgb(0,0,0);font-family:TimesNewRomanPSMT;font-size:11.04px;stroke:none;">6.</text>
  </g>
  <g begin="text">
   <text y="124.1" x="200.45,205.97" svgx:width="0.5,0.5" style="fill:rgb(0,0,0);font-family:TimesNewRomanPSMT;font-size:11.04px;stroke:none;">10</text>
  </g>
  <g begin="text">
   <text y="124.1" x="211.49,215.21" svgx:width="0.33,0.25" style="fill:rgb(0,0,0);font-family:TimesNewRomanPSMT;font-size:11.04px;stroke:none;">).</text>
  </g>
  <g begin="text">
   <text y="124.1" x="217.85" svgx:width="0.25" style="fill:rgb(0,0,0);font-family:TimesNewRomanPSMT;font-size:11.04px;stroke:none;"> </text>
  </g>
  <g begin="text">
   <text y="124.1" x="48.48" svgx:width="0.5" style="fill:rgb(0,0,0);font-family:TimesNewRomanPSMT;font-size:11.04px;stroke:none;">4</text>
  </g>
  <g begin="text">
   <text y="124.1" x="54.0" svgx:width="0.25" style="fill:rgb(0,0,0);font-family:TimesNewRomanPSMT;font-size:11.04px;stroke:none;"> </text>
  </g>
  <g begin="text">
   <text y="144.02" x="72.024" svgx:width="0.25" style="fill:rgb(0,0,0);font-family:TimesNewRomanPSMT;font-size:11.04px;stroke:none;"> </text>
  </g>
  <g begin="text">
   <text y="144.02" x="48.48" svgx:width="0.5" style="fill:rgb(0,0,0);font-family:TimesNewRomanPSMT;font-size:11.04px;stroke:none;">5</text>
  </g>
  <g begin="text">
   <text y="144.02" x="54.0" svgx:width="0.25" style="fill:rgb(0,0,0);font-family:TimesNewRomanPSMT;font-size:11.04px;stroke:none;"> </text>
  </g>
  <g begin="text">
   <text y="588.79" x="523.54" svgx:width="0.25" style="fill:rgb(0,0,0);font-family:TimesNewRomanPSMT;font-size:11.04px;stroke:none;"> </text>
  </g>
  <g begin="text">
   <text y="588.79" x="48.48" svgx:width="0.5" style="fill:rgb(0,0,0);font-family:TimesNewRomanPSMT;font-size:11.04px;stroke:none;">6</text>
  </g>
  <g begin="text">
   <text y="588.79" x="54.0" svgx:width="0.25" style="fill:rgb(0,0,0);font-family:TimesNewRomanPSMT;font-size:11.04px;stroke:none;"> </text>
  </g>
  <g begin="text">
   <text y="605.35" x="297.65" svgx:width="0.25" style="fill:rgb(0,0,0);font-family:TimesNewRomanPS-BoldMT;font-size:9.96px;stroke:none;"> </text>
  </g>
  <g begin="text">
   <text y="605.35" x="48.48" svgx:width="0.5" style="fill:rgb(0,0,0);font-family:TimesNewRomanPSMT;font-size:11.04px;stroke:none;">7</text>
  </g>
  <g begin="text">
   <text y="605.35" x="54.0" svgx:width="0.25" style="fill:rgb(0,0,0);font-family:TimesNewRomanPSMT;font-size:11.04px;stroke:none;"> </text>
  </g>
  <g begin="text">
   <text y="628.06" x="81.384,87.489,90.258,95.278,100.816,105.238,109.66" svgx:width="0.61,0.28,0.5,0.56,0.44,0.44,0.25" style="fill:rgb(0,0,0);font-family:TimesNewRomanPS-BoldMT;font-size:9.96px;stroke:none;">Figure </text>
  </g>
  <g begin="text">
   <text y="628.06" x="112.22" svgx:width="0.5" style="fill:rgb(0,0,0);font-family:TimesNewRomanPS-BoldMT;font-size:9.96px;stroke:none;">6</text>
  </g>
  <g begin="text">
   <text y="628.06" x="117.26" svgx:width="0.25" style="fill:rgb(0,0,0);font-family:TimesNewRomanPS-BoldMT;font-size:9.96px;stroke:none;">.</text>
  </g>
  <g begin="text">
   <text y="628.06" x="119.78,124.82" svgx:width="0.5,0.5" style="fill:rgb(0,0,0);font-family:TimesNewRomanPS-BoldMT;font-size:9.96px;stroke:none;">25</text>
  </g>
  <g begin="text">
   <text y="628.06" x="129.86" svgx:width="0.25" style="fill:rgb(0,0,0);font-family:TimesNewRomanPS-BoldMT;font-size:9.96px;stroke:none;"> </text>
  </g>
  <g begin="text">
   <text y="628.06" x="132.38,139.571,145.109,150.129,154.451,159.481,163.903,167.27,171.692,176.144,178.913,182.748,186.094,188.863,193.285,197.16,199.65,204.68,208.026,210.536,214.958,219.41,224.44,227.209,232.229,237.767,242.777,245.546,248.036,252.488,258.025,262.448,266.87,271.81,276.84,279.35,283.194,288.224,292.069,295.415,299.838,308.244,312.088,314.598,319.519,325.056,330.554,333.064,337.486,345.893,348.661,352.496,356.341,359.11,364.129,369.757,373.601,376.111,383.302,388.84,393.262,398.8,401.29,405.742,411.28,415.702,420.124,425.174,430.204,432.714,437.744,443.281,448.779,451.289,454.058,459.596,465.203,470.741,474.566,477.912,482.335,485.104,490.143,492.912,495.402,502.613" svgx:width="0.72,0.56,0.5,0.44,0.5,0.44,0.33,0.44,0.44,0.28,0.39,0.33,0.28,0.44,0.39,0.25,0.5,0.33,0.25,0.44,0.44,0.5,0.28,0.5,0.56,0.5,0.28,0.25,0.44,0.56,0.44,0.44,0.5,0.5,0.25,0.39,0.5,0.39,0.33,0.44,0.83,0.39,0.25,0.5,0.56,0.56,0.25,0.44,0.83,0.28,0.39,0.39,0.28,0.5,0.56,0.39,0.25,0.72,0.56,0.44,0.56,0.25,0.44,0.56,0.44,0.44,0.5,0.5,0.25,0.5,0.56,0.56,0.25,0.28,0.56,0.56,0.56,0.39,0.33,0.44,0.28,0.5,0.28,0.25,0.72,0.78" style="fill:rgb(0,0,0);font-family:TimesNewRomanPS-BoldMT;font-size:9.96px;stroke:none;">Characteristics of regional energy systems and emissions when energy and industrial CO</text>
  </g>
  <g begin="text">
   <text y="628.54" x="510.82" svgx:width="0.5" style="fill:rgb(0,0,0);font-family:TimesNewRomanPS-BoldMT;font-size:6.48px;stroke:none;">2</text>
  </g>
  <g begin="text">
   <text y="628.06" x="514.06" svgx:width="0.25" style="fill:rgb(0,0,0);font-family:TimesNewRomanPS-BoldMT;font-size:9.96px;stroke:none;"> </text>
  </g>
  <g begin="text">
   <text y="628.06" x="48.48" svgx:width="0.5" style="fill:rgb(0,0,0);font-family:TimesNewRomanPSMT;font-size:11.04px;stroke:none;">8</text>
  </g>
  <g begin="text">
   <text y="628.06" x="54.0" svgx:width="0.25" style="fill:rgb(0,0,0);font-family:TimesNewRomanPSMT;font-size:11.04px;stroke:none;"> </text>
  </g>
  <g begin="text">
   <text y="640.66" x="84.864,89.286,97.693,100.461,104.296,108.14,110.909,115.929,121.467,125.292,127.802,132.224,136.676,141.706,146.128,151.666,154.176,159.713,164.136" svgx:width="0.44,0.83,0.28,0.39,0.39,0.28,0.5,0.56,0.39,0.25,0.44,0.44,0.5,0.44,0.56,0.25,0.56,0.44,0.33" style="fill:rgb(0,0,0);font-family:TimesNewRomanPS-BoldMT;font-size:9.96px;stroke:none;">emissions reach net</text>
  </g>
  <g begin="text">
   <text y="640.66" x="167.54" svgx:width="0.25" style="fill:rgb(0,0,0);font-family:TimesNewRomanPS-BoldMT;font-size:9.96px;stroke:none;"> </text>
  </g>
  <g begin="text">
   <text y="640.66" x="170.06,174.482,178.934,183.357,188.406,190.916,193.426,200.617,205.039,210.099,212.868,217.888,223.426,228.436,231.204,233.694,239.232,242.001,245.348,248.694,253.116,257.569,261.991,267.529,271.951,276.403,280.248,282.757,287.787,292.209,296.662,299.172,303.016,308.554,313.564,320.755,326.392,328.902,332.249,337.279,341.701,344.231,348.653,353.105,356.949,359.718,365.256,370.754,375.784,378.553,381.043,385.495,393.881,396.65,400.485,404.329,407.098,412.118,417.656,421.48,423.99,429.02,434.558,440.056" svgx:width="0.44,0.44,0.44,0.5,0.25,0.25,0.72,0.44,0.5,0.28,0.5,0.56,0.5,0.28,0.25,0.56,0.28,0.33,0.33,0.44,0.44,0.44,0.56,0.44,0.44,0.39,0.25,0.5,0.44,0.44,0.25,0.39,0.56,0.5,0.72,0.56,0.25,0.33,0.5,0.44,0.25,0.44,0.44,0.39,0.28,0.56,0.56,0.5,0.28,0.25,0.44,0.83,0.28,0.39,0.39,0.28,0.5,0.56,0.39,0.25,0.5,0.56,0.56,0.25" style="fill:rgb(0,0,0);font-family:TimesNewRomanPS-BoldMT;font-size:9.96px;stroke:none;">zero. Regional differences are shown for residual emissions and </text>
  </g>
  <g begin="text">
   <text y="640.66" x="442.9,447.452,452.482,456.904,462.442,467.471,473.009,475.499,479.941,484.363,492.77,497.8,502.72,507.75,510.518" svgx:width="0.44,0.5,0.44,0.56,0.5,0.56,0.25,0.44,0.44,0.83,0.5,0.5,0.5,0.28,0.25" style="fill:rgb(0,0,0);font-family:TimesNewRomanPS-BoldMT;font-size:9.96px;stroke:none;">carbon removal </text>
  </g>
  <g begin="text">
   <text y="640.66" x="48.48" svgx:width="0.5" style="fill:rgb(0,0,0);font-family:TimesNewRomanPSMT;font-size:11.04px;stroke:none;">9</text>
  </g>
  <g begin="text">
   <text y="640.66" x="54.0" svgx:width="0.25" style="fill:rgb(0,0,0);font-family:TimesNewRomanPSMT;font-size:11.04px;stroke:none;"> </text>
  </g>
  <g begin="text">
   <text y="653.38" x="101.06,104.407,109.944,114.954,120.492,124.914,127.683,130.173,135.223,138.569,141.079,143.589,148.011,153.549,157.971,162.424,167.453,172.483,174.993,179.415,183.868,187.712,192.742,198.28,202.702,207.124,211.576,215.421,217.931,221.168,226.705,231.715,237.253,241.675,244.444,246.934,252.472,255.829,258.338,260.848,265.271,268.039,272.462,276.914,280.26,284.683,287.452,290.808,293.577,297.999,303.039,306.385,309.154,314.174,319.712,322.202,325.568,331.106,336.116,341.654,346.076,348.845,351.335,355.787,359.134,361.644,364.154,369.183,374.721,380.219,382.729,387.151,392.689,397.111,401.563,406.593,411.623,414.133,416.902,422.439,425.756,430.198,435.736,439.561,442.33,445.666,450.696,453.206,456.552,462.09,467.1,472.638,477.06,479.829,482.319,487.857,491.213,493.723" svgx:width="0.33,0.56,0.5,0.56,0.44,0.28,0.25,0.5,0.33,0.25,0.25,0.44,0.56,0.44,0.44,0.5,0.5,0.25,0.44,0.44,0.39,0.5,0.56,0.44,0.44,0.44,0.39,0.25,0.33,0.56,0.5,0.56,0.44,0.28,0.25,0.56,0.33,0.25,0.25,0.44,0.28,0.44,0.44,0.33,0.44,0.28,0.33,0.28,0.44,0.5,0.33,0.28,0.5,0.56,0.25,0.33,0.56,0.5,0.56,0.44,0.28,0.25,0.44,0.33,0.25,0.25,0.5,0.56,0.56,0.25,0.44,0.56,0.44,0.44,0.5,0.5,0.25,0.28,0.56,0.33,0.44,0.56,0.39,0.28,0.33,0.5,0.25,0.33,0.56,0.5,0.56,0.44,0.28,0.25,0.56,0.33,0.25,0.25" style="fill:rgb(0,0,0);font-family:TimesNewRomanPS-BoldMT;font-size:9.96px;stroke:none;">(panel a), energy resources (panel b), electrification (panel c), and energy intensity (panel d). </text>
  </g>
  <g begin="text">
   <text y="653.38" x="42.96,48.48" svgx:width="0.5,0.5" style="fill:rgb(0,0,0);font-family:TimesNewRomanPSMT;font-size:11.04px;stroke:none;">10</text>
  </g>
  <g begin="text">
   <text y="653.38" x="54.0" svgx:width="0.25" style="fill:rgb(0,0,0);font-family:TimesNewRomanPSMT;font-size:11.04px;stroke:none;"> </text>
  </g>
  <g begin="text">
   <text y="665.98" x="76.104,83.295,86.064,89.909,93.255,97.677,100.446,105.984,111.522,114.838,117.607,122.647,128.274,132.119,134.629,139.659,143.005,145.515,149.36,153.782,158.234,163.772,168.782,173.204,175.973,181.013,184.857,187.367,192.397,196.819,201.271,203.781,207.626,213.164,218.173,225.365,230.902,233.392,238.442,241.211,246.231,251.769,256.778,259.288,263.711,268.76,273.183,278.72,281.23,286.26,291.29,294.059,297.893,300.403,303.75,308.78,313.202,315.622,320.044,325.094,329.516,335.054,337.564,341.986,346.438,351.468,354.237,359.257,364.795,367.285,369.805,376.996,382.036,384.804" svgx:width="0.72,0.28,0.39,0.33,0.44,0.28,0.56,0.56,0.33,0.28,0.5,0.56,0.39,0.25,0.5,0.33,0.25,0.39,0.44,0.44,0.56,0.5,0.44,0.28,0.5,0.39,0.25,0.5,0.44,0.44,0.25,0.39,0.56,0.5,0.72,0.56,0.25,0.5,0.28,0.5,0.56,0.5,0.25,0.44,0.5,0.44,0.56,0.25,0.5,0.5,0.28,0.39,0.25,0.33,0.5,0.44,0.25,0.44,0.5,0.44,0.56,0.25,0.44,0.44,0.5,0.28,0.5,0.56,0.25,0.25,0.72,0.5,0.28,0.5" style="fill:rgb(0,0,0);font-family:TimesNewRomanPS-BoldMT;font-size:9.96px;stroke:none;">Distributions of scenarios are shown along each axis for each region. Colo</text>
  </g>
  <g begin="text">
   <text y="665.98" x="390.19" svgx:width="0.56" style="fill:rgb(0,0,0);font-family:TimesNewRomanPS-BoldMT;font-size:9.96px;stroke:none;">u</text>
  </g>
  <g begin="text">
   <text y="665.98" x="395.71,400.132,402.662,406.507,410.929,416.467,420.889,429.295,433.717,436.138,438.907,442.741,445.251,449.096,454.633,459.643,466.834,472.372,474.862,477.751,483.288,485.778,491.316,496.336,501.874,506.296,509.065,511.555,516.605,519.114" svgx:width="0.44,0.25,0.39,0.44,0.56,0.44,0.83,0.44,0.25,0.28,0.39,0.25,0.39,0.56,0.5,0.72,0.56,0.25,0.28,0.56,0.25,0.56,0.5,0.56,0.44,0.28,0.25,0.5,0.25,0.25" style="fill:rgb(0,0,0);font-family:TimesNewRomanPS-BoldMT;font-size:9.96px;stroke:none;">r scheme is shown in panel a. </text>
  </g>
  <g begin="text">
   <text y="665.98" x="42.96,48.48" svgx:width="0.5,0.5" style="fill:rgb(0,0,0);font-family:TimesNewRomanPSMT;font-size:11.04px;stroke:none;">11</text>
  </g>
  <g begin="text">
   <text y="665.98" x="54.0" svgx:width="0.25" style="fill:rgb(0,0,0);font-family:TimesNewRomanPSMT;font-size:11.04px;stroke:none;"> </text>
  </g>
  <g begin="text">
   <text y="678.58" x="144.38,150.485,155.515,158.284,163.822,167.139,171.013,173.503,177.945,182.367,187.905,192.327,196.78,200.624,205.046,210.584,213.931,216.441,221.978,224.747,228.064,231.43,235.853,240.305,244.727,250.265,253.611,256.121,264.508,269.537,275.075,279.497,282.266,286.101,288.611,293.641,299.178,304.676" svgx:width="0.61,0.5,0.28,0.56,0.33,0.39,0.25,0.44,0.44,0.56,0.44,0.44,0.39,0.44,0.56,0.33,0.25,0.56,0.28,0.33,0.33,0.44,0.44,0.44,0.56,0.33,0.25,0.83,0.5,0.56,0.44,0.28,0.39,0.25,0.5,0.56,0.56,0.25" style="fill:rgb(0,0,0);font-family:TimesNewRomanPS-BoldMT;font-size:9.96px;stroke:none;">Points represent different models and </text>
  </g>
  <g begin="text">
   <text y="678.58" x="307.37,311.215,315.637,320.089,325.627,330.637,335.059,337.828,342.867,346.712,349.222,352.569,356.991,362.041,370.427,372.937,376.283,381.821,386.243,388.753,395.944,403.135,408.185,410.695,416.233,421.243,424.589,429.619,435.157,440.167,444.011" svgx:width="0.39,0.44,0.44,0.56,0.5,0.44,0.28,0.5,0.39,0.25,0.33,0.44,0.5,0.83,0.25,0.33,0.56,0.44,0.25,0.72,0.72,0.5,0.25,0.56,0.5,0.33,0.5,0.56,0.5,0.39,0.44" style="fill:rgb(0,0,0);font-family:TimesNewRomanPS-BoldMT;font-size:9.96px;stroke:none;">scenarios from the AR6 database</text>
  </g>
  <g begin="text">
   <text y="678.58" x="448.66" svgx:width="0.25" style="fill:rgb(0,0,0);font-family:TimesNewRomanPS-BoldMT;font-size:9.96px;stroke:none;">.</text>
  </g>
  <g begin="text">
   <text y="678.58" x="451.06" svgx:width="0.25" style="fill:rgb(0,0,0);font-family:TimesNewRomanPSMT;font-size:9.96px;stroke:none;"> </text>
  </g>
  <g begin="text">
   <text y="678.58" x="42.96,48.48" svgx:width="0.5,0.5" style="fill:rgb(0,0,0);font-family:TimesNewRomanPSMT;font-size:11.04px;stroke:none;">12</text>
  </g>
  <g begin="text">
   <text y="678.58" x="54.0" svgx:width="0.25" style="fill:rgb(0,0,0);font-family:TimesNewRomanPSMT;font-size:11.04px;stroke:none;"> </text>
  </g>
  <g begin="text">
   <text y="702.22" x="72.024,77.544,83.064,87.966,91.09,95.892,99.006,104.404,107.518,111.106,117.851,122.024,126.926,130.05,134.853,139.147,144.082,149.602,154.405,159.306,163.634" svgx:width="0.5,0.5,0.44,0.28,0.44,0.28,0.5,0.28,0.25,0.61,0.39,0.44,0.28,0.44,0.39,0.44,0.5,0.44,0.44,0.39,0.25" style="fill:rgb(0,0,0);font-family:TimesNewRomanPS-ItalicMT;font-size:11.04px;stroke:none;">Societal Preferences.</text>
  </g>
  <g begin="text">
   <text y="702.22" x="166.46" svgx:width="0.25" style="fill:rgb(0,0,0);font-family:TimesNewRomanPS-BoldMT;font-size:11.04px;stroke:none;"> </text>
  </g>
  <g begin="text">
   <text y="702.22" x="170.06,177.258,180.371,183.374,186.488,191.29,196.192,201.712,206.039,209.506,212.619,218.139,221.727,226.629,232.05,236.951,240.683,246.203,249.669,254.571,260.091,265.611,271.032,274.145,277.855,283.253,286.013,286.841,292.361,297.263,302.684,307.585,311.074,316.594,320.303,325.205,328.826,333.728,337.349,342.251,347.771,352.695,357.497,361.792,364.55199999999996,365.402,369.111,374.51,378.219,380.979,381.807,386.61,391.511,395.133,398.246,403.048,406.161,411.681,414.441,415.27,418.272,423.174,428.098,433.497,439.017,444.537,447.65,453.17,458.568,461.682,466.583,471.397,474.51,477.27,478.098,483.618,489.017,492.13,495.133,500.653,506.173,510.467,513.227,514.077,519.476,523.075" svgx:width="0.67,0.28,0.28,0.28,0.44,0.44,0.5,0.39,0.25,0.28,0.5,0.25,0.44,0.5,0.44,0.33,0.5,0.25,0.44,0.5,0.5,0.5,0.28,0.33,0.5,0.25,0.55,0.5,0.44,0.5,0.44,0.25,0.5,0.33,0.44,0.33,0.44,0.33,0.44,0.5,0.44,0.44,0.39,0.25,0.55,0.33,0.5,0.33,0.25,0.55,0.44,0.44,0.33,0.28,0.44,0.28,0.5,0.25,0.55,0.28,0.44,0.44,0.5,0.5,0.5,0.28,0.5,0.5,0.28,0.44,0.44,0.28,0.25,0.55,0.5,0.5,0.28,0.28,0.5,0.5,0.39,0.25,0.55,0.5,0.33,0.25" style="fill:rgb(0,0,0);font-family:TimesNewRomanPSMT;font-size:11.04px;stroke:none;">Citizens in every country have preferences for certain technological options or </text>
  </g>
  <g begin="text">
   <text y="702.22" x="42.96,48.48" svgx:width="0.5,0.5" style="fill:rgb(0,0,0);font-family:TimesNewRomanPSMT;font-size:11.04px;stroke:none;">13</text>
  </g>
  <g begin="text">
   <text y="702.22" x="54.0" svgx:width="0.25" style="fill:rgb(0,0,0);font-family:TimesNewRomanPSMT;font-size:11.04px;stroke:none;"> </text>
  </g>
  <g begin="text">
   <text y="716.14" x="72.024,80.657,83.66,86.773,89.887,95.285,100.187,103.201,106.314,111.834,117.233,119.99300000000001,121.781,126.683,132.203,137.624,141.333,146.853,151.656,156.557,162.077,167.001,171.196,173.956,175.745,181.265,186.663,191.466,195.175,197.935,199.724,205.122,208.236,213.756,218.558,222.267,226.463,229.22299999999998,231.011,234.124,239.523,244.425,247.439,250.19899999999998,251.987,259.903,263.016,266.019,269.022,271.782,273.57,276.684,282.082,285.792,288.905,294.303,299.205,304.725,309.539,314.44,317.2,319.011,323.913,329.333,334.235,337.967,343.487,348.885,351.645,353.434,357.728,363.149,367.443,370.468,375.37,383.904,386.664,388.453,393.354,398.775,404.295,407.408,412.211,417.112,421.44,424.079,426.839,428.506,435.251,440.771,445.673,448.433,450.21,455.73,461.129,466.649,469.652,472.765,477.667,480.42699999999996,482.116,487.636,492.538,498.058,502.871,506.581,511.383,514.496,517.61,523.008" svgx:width="0.78,0.28,0.28,0.28,0.5,0.44,0.28,0.28,0.5,0.5,0.25,0.55,0.44,0.5,0.5,0.33,0.5,0.44,0.44,0.5,0.44,0.39,0.25,0.55,0.5,0.5,0.44,0.33,0.25,0.55,0.5,0.28,0.5,0.44,0.33,0.39,0.25,0.55,0.28,0.5,0.44,0.28,0.25,0.55,0.72,0.28,0.28,0.28,0.25,0.55,0.28,0.5,0.33,0.28,0.5,0.44,0.5,0.44,0.44,0.25,0.55,0.44,0.5,0.44,0.33,0.5,0.5,0.25,0.55,0.39,0.5,0.39,0.28,0.44,0.78,0.25,0.55,0.44,0.5,0.5,0.28,0.44,0.44,0.39,0.25,0.25,0.55,0.61,0.5,0.44,0.25,0.55,0.5,0.5,0.5,0.28,0.28,0.44,0.25,0.55,0.5,0.44,0.5,0.44,0.33,0.44,0.28,0.28,0.5,0.25" style="fill:rgb(0,0,0);font-family:TimesNewRomanPSMT;font-size:11.04px;stroke:none;">mitigation approaches over others that will influence energy system choices. The public generally </text>
  </g>
  <g begin="text">
   <text y="716.14" x="42.96,48.48" svgx:width="0.5,0.5" style="fill:rgb(0,0,0);font-family:TimesNewRomanPSMT;font-size:11.04px;stroke:none;">14</text>
  </g>
  <g begin="text">
   <text y="716.14" x="54.0" svgx:width="0.25" style="fill:rgb(0,0,0);font-family:TimesNewRomanPSMT;font-size:11.04px;stroke:none;"> </text>
  </g>
  <g begin="text">
   <text y="729.94" x="72.024,77.544,81.253,86.155,89.776,94.678,98.299,102.594,105.354,106.811,111.713,114.473,115.919,119.629,125.149,128.262,133.66,137.37,142.272,145.03199999999998,146.478,151.379,156.8,161.702,165.433,170.953" svgx:width="0.5,0.33,0.44,0.33,0.44,0.33,0.39,0.25,0.55,0.44,0.25,0.55,0.33,0.5,0.28,0.5,0.33,0.44,0.25,0.55,0.44,0.5,0.44,0.33,0.5,0.5" style="fill:rgb(0,0,0);font-family:TimesNewRomanPSMT;font-size:11.04px;stroke:none;">prefers a future energy</text>
  </g>
  <g begin="text">
   <text y="729.94" x="176.54" svgx:width="0.25" style="fill:rgb(0,0,0);font-family:TimesNewRomanPSMT;font-size:11.04px;stroke:none;"> </text>
  </g>
  <g begin="text">
   <text y="729.94" x="180.74,184.935,190.455,194.65,197.764,202.566,211.199,213.959,215.384,220.904,225.805,230.133,235.035,240.555,243.315,244.639,247.753,252.655,256.276,261.796,266.697,269.711,275.231,277.991,279.415,284.935,290.455,293.215,294.64,298.349,303.251,308.771,313.584,321.5,326.402,331.922,335.046,339.948" svgx:width="0.39,0.5,0.39,0.28,0.44,0.78,0.25,0.55,0.5,0.44,0.39,0.44,0.5,0.25,0.55,0.28,0.44,0.33,0.5,0.44,0.28,0.5,0.25,0.55,0.5,0.5,0.25,0.55,0.33,0.44,0.5,0.44,0.72,0.44,0.5,0.28,0.44,0.39" style="fill:rgb(0,0,0);font-family:TimesNewRomanPSMT;font-size:11.04px;stroke:none;">system based largely on renewables</text>
  </g>
  <g begin="text">
   <text y="729.94" x="344.35,347.11,349.87,351.294,357.432,361.109,366.044,369.643,374.544,378.166,383.067,388.587,393.511,398.314,402.608,405.368,406.825,410.535,416.055,419.764,422.524,423.949,429.469,434.867" svgx:width="0.25,0.25,0.55,0.56,0.33,0.44,0.33,0.44,0.33,0.44,0.5,0.44,0.44,0.39,0.25,0.55,0.33,0.5,0.33,0.25,0.55,0.5,0.5,0.5" style="fill:rgb(0,0,0);font-family:TimesNewRomanPSMT;font-size:11.04px;stroke:none;">. Preferences for non</text>
  </g>
  <g begin="text">
   <text y="729.94" x="440.5" svgx:width="0.33" style="fill:rgb(0,0,0);font-family:TimesNewRomanPSMT;font-size:11.04px;stroke:none;">-</text>
  </g>
  <g begin="text">
   <text y="729.94" x="444.1,447.809,452.711,458.231,463.155,471.071,475.973,481.393,484.506,489.408,492.168,493.614,498.516,504.036,508.85,512.559,517.958,523.356" svgx:width="0.33,0.44,0.5,0.44,0.72,0.44,0.5,0.28,0.44,0.25,0.55,0.44,0.5,0.44,0.33,0.5,0.5,0.25" style="fill:rgb(0,0,0);font-family:TimesNewRomanPSMT;font-size:11.04px;stroke:none;">renewable energy </text>
  </g>
  <g begin="text">
   <text y="729.94" x="42.96,48.48" svgx:width="0.5,0.5" style="fill:rgb(0,0,0);font-family:TimesNewRomanPSMT;font-size:11.04px;stroke:none;">15</text>
  </g>
  <g begin="text">
   <text y="729.94" x="54.0" svgx:width="0.25" style="fill:rgb(0,0,0);font-family:TimesNewRomanPSMT;font-size:11.04px;stroke:none;"> </text>
  </g>
  <g begin="text">
   <text y="743.856" x="72.024,77.544,80.657,84.256,87.966,92.868,96.599,99.823,104.725,109.648,113.247,118.767,123.062,127.401,130.624,134.334,139.235,144.656,147.769,153.289,158.809,163.104,166.361,171.263,176.783,182.303,185.67,191.068,194.778,200.298,205.818,211.338" svgx:width="0.5,0.28,0.33,0.33,0.44,0.33,0.25,0.44,0.44,0.33,0.5,0.39,0.39,0.25,0.33,0.44,0.5,0.28,0.5,0.5,0.39,0.25,0.44,0.5,0.5,0.25,0.5,0.33,0.5,0.5,0.5,0.39" style="fill:rgb(0,0,0);font-family:TimesNewRomanPSMT;font-size:11.04px;stroke:none;">differ across regions and groups</text>
  </g>
  <g begin="text">
   <text y="743.856" x="215.81,218.57,221.915,228.053,233.43,237.139,240.484,245.386,250.807,255.709,264.242,269.762,272.876,277.777,280.537,283.783,288.078,291.213,296.612,302.132,305.245,310.047,314.342,317.72,323.24,328.142,333.662,338.586,341.81,345.519,351.039,356.559,362.079,367.599,370.823,373.936,379.456,384.258,387.372,390.717,396.237,401.138,406.658,412.079,415.192,420.094,423.34,426.453,431.852,435.197,438.31,443.83,448.732,452.099,460.015,462.775,470.69,473.45,476.21,479.556,487.471,492.373,495.994,504.627,509.529,514.95,520.47,523.108" svgx:width="0.25,0.25,0.56,0.5,0.33,0.25,0.44,0.5,0.44,0.78,0.5,0.28,0.44,0.25,0.25,0.39,0.28,0.5,0.5,0.28,0.44,0.39,0.25,0.5,0.44,0.5,0.44,0.25,0.33,0.5,0.5,0.5,0.5,0.25,0.28,0.5,0.44,0.28,0.25,0.5,0.44,0.5,0.5,0.28,0.44,0.25,0.28,0.5,0.25,0.28,0.5,0.44,0.25,0.72,0.25,0.72,0.25,0.25,0.25,0.72,0.44,0.33,0.78,0.44,0.5,0.5,0.25,0.25" style="fill:rgb(0,0,0);font-family:TimesNewRomanPSMT;font-size:11.04px;stroke:none;">. For example, studies have found that people in the U.K., Germany, </text>
  </g>
  <g begin="text">
   <text y="743.856" x="42.96,48.48" svgx:width="0.5,0.5" style="fill:rgb(0,0,0);font-family:TimesNewRomanPSMT;font-size:11.04px;stroke:none;">16</text>
  </g>
  <g begin="text">
   <text y="743.856" x="54.0" svgx:width="0.25" style="fill:rgb(0,0,0);font-family:TimesNewRomanPSMT;font-size:11.04px;stroke:none;"> </text>
  </g>
  <g begin="text">
   <text y="757.656" x="72.024,75.137,80.657,85.559,88.562,96.478,101.379,104.393,109.913,114.815,118.436,121.549,126.451,131.872,137.392,141.686" svgx:width="0.28,0.5,0.44,0.25,0.72,0.44,0.28,0.5,0.44,0.33,0.28,0.44,0.5,0.5,0.39,0.25" style="fill:rgb(0,0,0);font-family:TimesNewRomanPSMT;font-size:11.04px;stroke:none;">the Netherlands,</text>
  </g>
  <g begin="text">
   <text y="757.656" x="144.5" svgx:width="0.25" style="fill:rgb(0,0,0);font-family:TimesNewRomanPSMT;font-size:11.04px;stroke:none;"> </text>
  </g>
  <g begin="text">
   <text y="757.656" x="147.5,152.402,157.922,163.442,166.445,172.583,180.366,183.479,186.593,191.395,196.297,200.028,203.031,207.933,213.453,218.973,221.976,227.496,231.095,235.997,239.618,244.52,248.251,251.243,254.842,259.744,265.264,270.188,278.103,283.005,288.426,291.539,296.441,299.443,304.345,309.766,314.668,318.399,323.919,329.439,332.431,337.333,342.753,348.273,351.265,356.785,361.687,365.308,369.603,375.123,380.643,385.467,388.58,391.572,396.474,401.994,406.807,410.517,416.037,421.557,424.549,429.351,433.061,436.77,439.773,444.675,447.689,452.59,458.11,463.034,468.554,471.546,476.348,481.868,487.388,490.38,494.675,499.61,505.008,508.121,513.641,518.919,523.114" svgx:width="0.44,0.5,0.5,0.25,0.56,0.72,0.28,0.28,0.44,0.44,0.33,0.28,0.44,0.5,0.5,0.25,0.5,0.33,0.44,0.33,0.44,0.33,0.25,0.33,0.44,0.5,0.44,0.72,0.44,0.5,0.28,0.44,0.25,0.44,0.5,0.44,0.33,0.5,0.5,0.25,0.44,0.5,0.5,0.25,0.5,0.44,0.33,0.39,0.5,0.5,0.44,0.28,0.25,0.44,0.5,0.44,0.33,0.5,0.5,0.25,0.44,0.33,0.33,0.28,0.44,0.28,0.44,0.5,0.44,0.5,0.25,0.44,0.5,0.5,0.25,0.39,0.44,0.5,0.28,0.5,0.5,0.39,0.25" style="fill:rgb(0,0,0);font-family:TimesNewRomanPSMT;font-size:11.04px;stroke:none;">and Switzerland prefer renewable energy and personal energy efficiency and savings </text>
  </g>
  <g begin="text">
   <text y="757.656" x="42.96,48.48" svgx:width="0.5,0.5" style="fill:rgb(0,0,0);font-family:TimesNewRomanPSMT;font-size:11.04px;stroke:none;">17</text>
  </g>
  <g begin="text">
   <text y="757.656" x="54.0" svgx:width="0.25" style="fill:rgb(0,0,0);font-family:TimesNewRomanPSMT;font-size:11.04px;stroke:none;"> </text>
  </g>
  <rect style="fill:pink;opacity:0.2;stroke:blue;stroke-width:0.3;" x="72.0" y="111.65" height="435.1" width="451.3" title="98"/>
  <text y="111.65" class="image" id="image.98.1" width="451" height="435" x="72.0" style="font-size:5.0px;">image.98.1.72_523.112_547</text>
  <g begin="text">
   <text y="602.109" transform="matrix(0.70711,-0.70711,0.70711,0.70711,-395.12956,250.29085)" rotateDegrees="-45" matrix="[29.803345,29.803345,-29.803345,29.803345,104.563255,239.8115]" x="104.563" svgx:width="0.67" style="fill:rgb(0,0,0);font-family:Arial;font-size:42.15px;stroke:none;">A</text>
   <text y="582.23" transform="matrix(0.70711,-0.70711,0.70711,0.70711,-375.25056,258.525)" rotateDegrees="-45" matrix="[29.803345,29.803345,-29.803345,29.803345,124.442085,259.6903]" x="124.442" svgx:width="0.72" style="fill:rgb(0,0,0);font-family:Arial;font-size:42.15px;stroke:none;">C</text>
   <text y="560.712" transform="matrix(0.70711,-0.70711,0.70711,0.70711,-353.73256,267.43805)" rotateDegrees="-45" matrix="[29.803345,29.803345,-29.803345,29.803345,145.9601,281.20834]" x="145.96" svgx:width="0.72" style="fill:rgb(0,0,0);font-family:Arial;font-size:42.15px;stroke:none;">C</text>
   <text y="539.194" transform="matrix(0.70711,-0.70711,0.70711,0.70711,-332.21456,276.3511)" rotateDegrees="-45" matrix="[29.803345,29.803345,-29.803345,29.803345,167.47812,302.72635]" x="167.478" svgx:width="0.67" style="fill:rgb(0,0,0);font-family:Arial;font-size:42.15px;stroke:none;">E</text>
   <text y="519.315" transform="matrix(0.70711,-0.70711,0.70711,0.70711,-312.33556,284.58525)" rotateDegrees="-45" matrix="[29.803345,29.803345,-29.803345,29.803345,187.35693,322.60516]" x="187.357" svgx:width="0.67" style="fill:rgb(0,0,0);font-family:Arial;font-size:42.15px;stroke:none;">P</text>
   <text y="499.436" transform="matrix(0.70711,-0.70711,0.70711,0.70711,-292.45656,292.8194)" rotateDegrees="-45" matrix="[29.803345,29.803345,-29.803345,29.803345,207.23578,342.484]" x="207.236" svgx:width="0.61" style="fill:rgb(0,0,0);font-family:Arial;font-size:42.15px;stroke:none;">T</text>
   <text y="481.226" transform="matrix(0.70711,-0.70711,0.70711,0.70711,-274.24656,300.36223)" rotateDegrees="-45" matrix="[29.803345,29.803345,-29.803345,29.803345,225.44562,360.69385]" x="225.446" svgx:width="0.67" style="fill:rgb(0,0,0);font-family:Arial;font-size:42.15px;stroke:none;">E</text>
   <text y="461.347" transform="matrix(0.70711,-0.70711,0.70711,0.70711,-254.36786,308.59567)" rotateDegrees="-45" matrix="[29.803345,29.803345,-29.803345,29.803345,245.32443,380.57266]" x="245.324" svgx:width="0.72" style="fill:rgb(0,0,0);font-family:Arial;font-size:42.15px;stroke:none;">D</text>
   <text y="439.829" transform="matrix(0.70711,-0.70711,0.70711,0.70711,-232.84986,317.50872)" rotateDegrees="-45" matrix="[29.803345,29.803345,-29.803345,29.803345,266.84247,402.0907]" x="266.842" svgx:width="0.28" style="fill:rgb(0,0,0);font-family:Arial;font-size:42.15px;stroke:none;"> </text>
   <text y="431.54" transform="matrix(0.70711,-0.70711,0.70711,0.70711,-224.56056,320.94284)" rotateDegrees="-45" matrix="[29.803345,29.803345,-29.803345,29.803345,275.13153,410.37976]" x="275.132" svgx:width="0.67" style="fill:rgb(0,0,0);font-family:Arial;font-size:42.15px;stroke:none;">V</text>
   <text y="411.661" transform="matrix(0.70711,-0.70711,0.70711,0.70711,-204.68186,329.17629)" rotateDegrees="-45" matrix="[29.803345,29.803345,-29.803345,29.803345,295.0103,430.25858]" x="295.01" svgx:width="0.67" style="fill:rgb(0,0,0);font-family:Arial;font-size:42.15px;stroke:none;">E</text>
   <text y="391.783" transform="matrix(0.70711,-0.70711,0.70711,0.70711,-184.80356,337.41073)" rotateDegrees="-45" matrix="[29.803345,29.803345,-29.803345,29.803345,314.88916,450.1374]" x="314.889" svgx:width="0.72" style="fill:rgb(0,0,0);font-family:Arial;font-size:42.15px;stroke:none;">R</text>
   <text y="370.265" transform="matrix(0.70711,-0.70711,0.70711,0.70711,-163.28556,346.32378)" rotateDegrees="-45" matrix="[29.803345,29.803345,-29.803345,29.803345,336.40717,471.65543]" x="336.407" svgx:width="0.67" style="fill:rgb(0,0,0);font-family:Arial;font-size:42.15px;stroke:none;">S</text>
   <text y="350.386" transform="matrix(0.70711,-0.70711,0.70711,0.70711,-143.40656,354.55793)" rotateDegrees="-45" matrix="[29.803345,29.803345,-29.803345,29.803345,356.286,491.53424]" x="356.286" svgx:width="0.28" style="fill:rgb(0,0,0);font-family:Arial;font-size:42.15px;stroke:none;">I</text>
   <text y="342.1" transform="matrix(0.70711,-0.70711,0.70711,0.70711,-135.12086,357.9894)" rotateDegrees="-45" matrix="[29.803345,29.803345,-29.803345,29.803345,364.57135,499.81958]" x="364.571" svgx:width="0.78" style="fill:rgb(0,0,0);font-family:Arial;font-size:42.15px;stroke:none;">O</text>
   <text y="318.913" transform="matrix(0.70711,-0.70711,0.70711,0.70711,-111.93386,367.59377)" rotateDegrees="-45" matrix="[29.803345,29.803345,-29.803345,29.803345,387.7583,523.0066]" x="387.758" svgx:width="0.72" style="fill:rgb(0,0,0);font-family:Arial;font-size:42.15px;stroke:none;">N</text>
   <text y="297.395" transform="matrix(0.70711,-0.70711,0.70711,0.70711,-90.41586,376.50681)" rotateDegrees="-45" matrix="[29.803345,29.803345,-29.803345,29.803345,409.27637,544.5246]" x="409.276" svgx:width="0.28" style="fill:rgb(0,0,0);font-family:Arial;font-size:42.15px;stroke:none;"> </text>
   <text y="637.872" transform="matrix(0.70711,-0.70711,0.70711,0.70711,-409.94279,286.05456)" rotateDegrees="-45" matrix="[29.803345,29.803345,-29.803345,29.803345,140.32727,204.04747]" x="140.327" svgx:width="0.67" style="fill:rgb(0,0,0);font-family:Arial;font-size:42.15px;stroke:none;">S</text>
   <text y="617.994" transform="matrix(0.70711,-0.70711,0.70711,0.70711,-390.0645,294.289)" rotateDegrees="-45" matrix="[29.803345,29.803345,-29.803345,29.803345,160.2061,223.9263]" x="160.206" svgx:width="0.72" style="fill:rgb(0,0,0);font-family:Arial;font-size:42.15px;stroke:none;">U</text>
   <text y="596.476" transform="matrix(0.70711,-0.70711,0.70711,0.70711,-368.5465,303.20205)" rotateDegrees="-45" matrix="[29.803345,29.803345,-29.803345,29.803345,181.72412,245.4443]" x="181.724" svgx:width="0.67" style="fill:rgb(0,0,0);font-family:Arial;font-size:42.15px;stroke:none;">B</text>
   <text y="576.597" transform="matrix(0.70711,-0.70711,0.70711,0.70711,-348.6675,311.4362)" rotateDegrees="-45" matrix="[29.803345,29.803345,-29.803345,29.803345,201.60294,265.32315]" x="201.603" svgx:width="0.5" style="fill:rgb(0,0,0);font-family:Arial;font-size:42.15px;stroke:none;">J</text>
   <text y="561.695" transform="matrix(0.70711,-0.70711,0.70711,0.70711,-333.7655,317.60881)" rotateDegrees="-45" matrix="[29.803345,29.803345,-29.803345,29.803345,216.50462,280.22482]" x="216.505" svgx:width="0.67" style="fill:rgb(0,0,0);font-family:Arial;font-size:42.15px;stroke:none;">E</text>
   <text y="541.816" transform="matrix(0.70711,-0.70711,0.70711,0.70711,-313.88679,325.84225)" rotateDegrees="-45" matrix="[29.803345,29.803345,-29.803345,29.803345,236.38344,300.10364]" x="236.383" svgx:width="0.72" style="fill:rgb(0,0,0);font-family:Arial;font-size:42.15px;stroke:none;">C</text>
   <text y="520.298" transform="matrix(0.70711,-0.70711,0.70711,0.70711,-292.36879,334.7553)" rotateDegrees="-45" matrix="[29.803345,29.803345,-29.803345,29.803345,257.90146,321.62164]" x="257.901" svgx:width="0.61" style="fill:rgb(0,0,0);font-family:Arial;font-size:42.15px;stroke:none;">T</text>
   <text y="502.089" transform="matrix(0.70711,-0.70711,0.70711,0.70711,-274.1595,342.29842)" rotateDegrees="-45" matrix="[29.803345,29.803345,-29.803345,29.803345,276.1113,339.83148]" x="276.111" svgx:width="0.28" style="fill:rgb(0,0,0);font-family:Arial;font-size:42.15px;stroke:none;"> </text>
   <text y="493.803" transform="matrix(0.70711,-0.70711,0.70711,0.70711,-265.8735,345.7306)" rotateDegrees="-45" matrix="[29.803345,29.803345,-29.803345,29.803345,284.39664,348.11682]" x="284.397" svgx:width="0.61" style="fill:rgb(0,0,0);font-family:Arial;font-size:42.15px;stroke:none;">T</text>
   <text y="475.593" transform="matrix(0.70711,-0.70711,0.70711,0.70711,-247.66379,353.27272)" rotateDegrees="-45" matrix="[29.803345,29.803345,-29.803345,29.803345,302.60648,366.32666]" x="302.606" svgx:width="0.78" style="fill:rgb(0,0,0);font-family:Arial;font-size:42.15px;stroke:none;">O</text>
   <text y="452.406" transform="matrix(0.70711,-0.70711,0.70711,0.70711,-224.47679,362.87709)" rotateDegrees="-45" matrix="[29.803345,29.803345,-29.803345,29.803345,325.79346,389.51367]" x="325.793" svgx:width="0.28" style="fill:rgb(0,0,0);font-family:Arial;font-size:42.15px;stroke:none;"> </text>
   <text y="444.136" transform="matrix(0.70711,-0.70711,0.70711,0.70711,-216.2065,366.30334)" rotateDegrees="-45" matrix="[29.803345,29.803345,-29.803345,29.803345,334.0639,397.78412]" x="334.064" svgx:width="0.61" style="fill:rgb(0,0,0);font-family:Arial;font-size:42.15px;stroke:none;">F</text>
   <text y="425.926" transform="matrix(0.70711,-0.70711,0.70711,0.70711,-197.9965,373.84617)" rotateDegrees="-45" matrix="[29.803345,29.803345,-29.803345,29.803345,352.27374,415.99396]" x="352.274" svgx:width="0.28" style="fill:rgb(0,0,0);font-family:Arial;font-size:42.15px;stroke:none;">I</text>
   <text y="417.641" transform="matrix(0.70711,-0.70711,0.70711,0.70711,-189.7115,377.27793)" rotateDegrees="-45" matrix="[29.803345,29.803345,-29.803345,29.803345,360.55908,424.2793]" x="360.559" svgx:width="0.72" style="fill:rgb(0,0,0);font-family:Arial;font-size:42.15px;stroke:none;">N</text>
   <text y="396.123" transform="matrix(0.70711,-0.70711,0.70711,0.70711,-168.1935,386.19098)" rotateDegrees="-45" matrix="[29.803345,29.803345,-29.803345,29.803345,382.0771,445.7973]" x="382.077" svgx:width="0.67" style="fill:rgb(0,0,0);font-family:Arial;font-size:42.15px;stroke:none;">A</text>
   <text y="376.244" transform="matrix(0.70711,-0.70711,0.70711,0.70711,-148.3145,394.42513)" rotateDegrees="-45" matrix="[29.803345,29.803345,-29.803345,29.803345,401.95593,465.67615]" x="401.956" svgx:width="0.56" style="fill:rgb(0,0,0);font-family:Arial;font-size:42.15px;stroke:none;">L</text>
   <text y="359.673" transform="matrix(0.70711,-0.70711,0.70711,0.70711,-131.7435,401.28906)" rotateDegrees="-45" matrix="[29.803345,29.803345,-29.803345,29.803345,418.5266,482.24677]" x="418.527" svgx:width="0.28" style="fill:rgb(0,0,0);font-family:Arial;font-size:42.15px;stroke:none;"> </text>
   <text y="351.394" transform="matrix(0.70711,-0.70711,0.70711,0.70711,-123.4645,404.71834)" rotateDegrees="-45" matrix="[29.803345,29.803345,-29.803345,29.803345,426.80573,490.52588]" x="426.806" svgx:width="0.67" style="fill:rgb(0,0,0);font-family:Arial;font-size:42.15px;stroke:none;">E</text>
   <text y="331.515" transform="matrix(0.70711,-0.70711,0.70711,0.70711,-103.5855,412.95249)" rotateDegrees="-45" matrix="[29.803345,29.803345,-29.803345,29.803345,446.68457,510.40472]" x="446.685" svgx:width="0.72" style="fill:rgb(0,0,0);font-family:Arial;font-size:42.15px;stroke:none;">D</text>
   <text y="309.997" transform="matrix(0.70711,-0.70711,0.70711,0.70711,-82.0675,421.86554)" rotateDegrees="-45" matrix="[29.803345,29.803345,-29.803345,29.803345,468.2025,531.9227]" x="468.203" svgx:width="0.28" style="fill:rgb(0,0,0);font-family:Arial;font-size:42.15px;stroke:none;">I</text>
   <text y="301.712" transform="matrix(0.70711,-0.70711,0.70711,0.70711,-73.7825,425.29729)" rotateDegrees="-45" matrix="[29.803345,29.803345,-29.803345,29.803345,476.48785,540.20807]" x="476.488" svgx:width="0.61" style="fill:rgb(0,0,0);font-family:Arial;font-size:42.15px;stroke:none;">T</text>
   <text y="283.502" transform="matrix(0.70711,-0.70711,0.70711,0.70711,-55.5725,432.84012)" rotateDegrees="-45" matrix="[29.803345,29.803345,-29.803345,29.803345,494.6977,558.4179]" x="494.698" svgx:width="0.67" style="fill:rgb(0,0,0);font-family:Arial;font-size:42.15px;stroke:none;">S</text>
  </g>
 </g>
</svg>
