<?xml version="1.0" encoding="UTF-8"?>
<svg height="807.04" width="536.112" xmlns="http://www.w3.org/2000/svg">
 <g id="page" xmlns:svgx="http://www.xml-cml.org/schema/svgx">
  <g begin="text">
   <text y="45.72" x="72.024,78.162,81.231,86.751,91.587,94.7,97.46,105.376,110.896,116.416,121.218,124.928,130.448,138.971,143.872,149.392,152.517,155.277,163.082,166.195,170.39,173.504,177.103,180.216,185.736,191.135,194.137,197.251,202.771" svgx:width="0.56,0.28,0.5,0.44,0.28,0.25,0.72,0.5,0.5,0.44,0.33,0.5,0.78,0.44,0.5,0.28,0.25,0.72,0.28,0.39,0.28,0.33,0.28,0.5,0.5,0.28,0.28,0.5,0.5" style="fill:rgb(0,0,0);font-family:TimesNewRomanPSMT;font-size:11.04px;stroke:none;">Final Government Distribution</text>
  </g>
  <g begin="text">
   <text y="45.72" x="208.37" svgx:width="0.25" style="fill:rgb(0,0,0);font-family:TimesNewRomanPSMT;font-size:11.04px;stroke:none;"> </text>
  </g>
  <g begin="text">
   <text y="45.72" x="211.01" svgx:width="0.25" style="fill:rgb(0,0,0);font-family:TimesNewRomanPSMT;font-size:11.04px;stroke:none;"> </text>
  </g>
  <g begin="text">
   <text y="45.72" x="216.05" svgx:width="0.25" style="fill:rgb(0,0,0);font-family:TimesNewRomanPSMT;font-size:11.04px;stroke:none;"> </text>
  </g>
  <g begin="text">
   <text y="45.72" x="252.05" svgx:width="0.25" style="fill:rgb(0,0,0);font-family:TimesNewRomanPSMT;font-size:11.04px;stroke:none;"> </text>
  </g>
  <g begin="text">
   <text y="45.72" x="288.05,295.369,300.889,305.791,311.311,314.436,319.238,322.947,325.707" svgx:width="0.67,0.5,0.44,0.5,0.28,0.44,0.33,0.25,0.5" style="fill:rgb(0,0,0);font-family:TimesNewRomanPSMT;font-size:11.04px;stroke:none;">Chapter 6</text>
  </g>
  <g begin="text">
   <text y="45.72" x="331.15" svgx:width="0.25" style="fill:rgb(0,0,0);font-family:TimesNewRomanPSMT;font-size:11.04px;stroke:none;"> </text>
  </g>
  <g begin="text">
   <text y="45.72" x="360.07" svgx:width="0.25" style="fill:rgb(0,0,0);font-family:TimesNewRomanPSMT;font-size:11.04px;stroke:none;"> </text>
  </g>
  <g begin="text">
   <text y="45.72" x="396.07" svgx:width="0.25" style="fill:rgb(0,0,0);font-family:TimesNewRomanPSMT;font-size:11.04px;stroke:none;"> </text>
  </g>
  <g begin="text">
   <text y="45.72" x="432.07,435.669,441.807,449.105,456.424" svgx:width="0.33,0.56,0.67,0.67,0.25" style="fill:rgb(0,0,0);font-family:TimesNewRomanPSMT;font-size:11.04px;stroke:none;">IPCC </text>
  </g>
  <g begin="text">
   <text y="45.72" x="459.22,469.642,477.613,481.289,484.899,488.498,491.258,499.174,506.493" svgx:width="0.94,0.72,0.33,0.33,0.33,0.25,0.72,0.67,0.5" style="fill:rgb(0,0,0);font-family:TimesNewRomanPSMT;font-size:11.04px;stroke:none;">WGIII AR6</text>
  </g>
  <g begin="text">
   <text y="45.72" x="512.14" svgx:width="0.25" style="fill:rgb(0,0,0);font-family:TimesNewRomanPSMT;font-size:11.04px;stroke:none;"> </text>
  </g>
  <g begin="text">
   <text y="783.096" x="72.024,79.94,85.46,88.22,96.135,101.655,105.365,108.125,116.04,119.154,122.753,127.655,130.415,133.075,141.708,147.847,153.367,157.043,161.868,164.628,170.148,175.049,177.809,185.78,188.75,192.945,196.655,201.556,204.681,210.819,216.803,220.512" svgx:width="0.72,0.5,0.25,0.72,0.5,0.33,0.25,0.72,0.28,0.33,0.44,0.25,0.25,0.78,0.56,0.5,0.33,0.44,0.25,0.5,0.44,0.25,0.72,0.28,0.39,0.33,0.44,0.28,0.56,0.56,0.33,0.44" style="fill:rgb(0,0,0);font-family:TimesNewRomanPS-BoldMT;font-size:11.04px;stroke:none;">Do Not Cite, Quote or Distribute</text>
  </g>
  <g begin="text">
   <text y="783.096" x="225.41" svgx:width="0.25" style="fill:rgb(0,0,0);font-family:TimesNewRomanPS-BoldMT;font-size:11.04px;stroke:none;"> </text>
  </g>
  <g begin="text">
   <text y="783.096" x="287.57" svgx:width="0.5" style="fill:rgb(0,0,0);font-family:TimesNewRomanPSMT;font-size:11.04px;stroke:none;">6</text>
  </g>
  <g begin="text">
   <text y="783.096" x="293.09" svgx:width="0.33" style="fill:rgb(0,0,0);font-family:TimesNewRomanPS-BoldMT;font-size:11.04px;stroke:none;">-</text>
  </g>
  <g begin="text">
   <text y="783.096" x="296.81,302.33" svgx:width="0.5,0.5" style="fill:rgb(0,0,0);font-family:TimesNewRomanPSMT;font-size:11.04px;stroke:none;">81</text>
  </g>
  <g begin="text">
   <text y="783.096" x="307.85" svgx:width="0.25" style="fill:rgb(0,0,0);font-family:TimesNewRomanPSMT;font-size:11.04px;stroke:none;"> </text>
  </g>
  <g begin="text">
   <text y="783.096" x="310.49" svgx:width="0.25" style="fill:rgb(0,0,0);font-family:TimesNewRomanPSMT;font-size:11.04px;stroke:none;"> </text>
  </g>
  <g begin="text">
   <text y="783.096" x="450.1,456.845,462.365,465.435,470.259,473.372,476.132,481.652,486.554,491.975,496.876,501.204,504.207" svgx:width="0.61,0.5,0.28,0.44,0.28,0.25,0.5,0.44,0.5,0.44,0.39,0.28,0.25" style="fill:rgb(0,0,0);font-family:TimesNewRomanPSMT;font-size:11.04px;stroke:none;">Total pages: </text>
  </g>
  <g begin="text">
   <text y="783.096" x="506.98,512.5,518.02" svgx:width="0.5,0.5,0.5" style="fill:rgb(0,0,0);font-family:TimesNewRomanPSMT;font-size:11.04px;stroke:none;">217</text>
  </g>
  <g begin="text">
   <text y="783.096" x="523.42" svgx:width="0.25" style="fill:rgb(0,0,0);font-family:TimesNewRomanPSMT;font-size:9.96px;stroke:none;"> </text>
  </g>
  <g begin="text">
   <text y="797.04" x="72.024" svgx:width="0.25" style="fill:rgb(0,0,0);font-family:TimesNewRomanPSMT;font-size:11.04px;stroke:none;"> </text>
  </g>
  <g begin="text">
   <text y="82.32" x="72.024,77.544,82.446,85.57,91.09,99.006,103.908,109.328,113.623,116.383" svgx:width="0.5,0.44,0.28,0.5,0.72,0.44,0.5,0.39,0.25,0.25" style="fill:rgb(0,0,0);font-family:TimesNewRomanPSMT;font-size:11.04px;stroke:none;">pathways. </text>
  </g>
  <g begin="text">
   <text y="82.32" x="120.5,128.416,131.529,137.049" svgx:width="0.72,0.28,0.5,0.5" style="fill:rgb(0,0,0);font-family:TimesNewRomanPSMT;font-size:11.04px;stroke:none;">High</text>
  </g>
  <g begin="text">
   <text y="82.32" x="142.58" svgx:width="0.33" style="fill:rgb(0,0,0);font-family:TimesNewRomanPSMT;font-size:11.04px;stroke:none;">-</text>
  </g>
  <g begin="text">
   <text y="82.32" x="146.18,149.78" svgx:width="0.33,0.28" style="fill:rgb(0,0,0);font-family:TimesNewRomanPSMT;font-size:11.04px;stroke:none;">fi</text>
  </g>
  <g begin="text">
   <text y="82.32" x="152.9,158.42,163.222,166.336,169.339,172.452,177.972,180.732,181.924,190.447,195.967,201.487,206.389,209.513,213.808,216.56799999999998,217.782,222.684,228.204,233.724,236.48399999999998,237.809,242.611,248.131,253.033,256.047,261.567,265.861,270.796,275.091,277.851,279.065,283.967,287.588,292.49,295.25,296.575,302.095,306.996,311.81,317.33,322.231,327.751,330.51099999999997,331.836,334.95,340.47,343.23,344.422,349.324,353.651,357.847,362.748,367.076,371.371,374.131,375.345,378.458,383.978,388.88" svgx:width="0.5,0.44,0.28,0.28,0.28,0.5,0.25,0.55,0.78,0.5,0.5,0.44,0.28,0.39,0.25,0.55,0.44,0.5,0.5,0.25,0.55,0.44,0.5,0.44,0.28,0.5,0.39,0.44,0.39,0.25,0.55,0.44,0.33,0.44,0.25,0.55,0.5,0.44,0.44,0.5,0.44,0.5,0.25,0.55,0.28,0.5,0.25,0.55,0.44,0.39,0.39,0.44,0.39,0.39,0.25,0.55,0.28,0.5,0.44,0.25" style="fill:rgb(0,0,0);font-family:TimesNewRomanPSMT;font-size:11.04px;stroke:none;">delity models and analyses are needed to assess the </text>
  </g>
  <g begin="text">
   <text y="82.32" x="393.19,397.992,402.894,408.414,413.934,419.355,427.988,430.991,435.893,438.65299999999996,439.978,444.879,450.399,455.919,458.679,460.004,464.906,470.326,475.846,478.849,482.559,488.079,493.477,502.111,507.012,512.433,515.546,520.349,523.352" svgx:width="0.44,0.44,0.5,0.5,0.5,0.78,0.28,0.44,0.25,0.55,0.44,0.5,0.5,0.25,0.55,0.44,0.5,0.5,0.28,0.33,0.5,0.5,0.78,0.44,0.5,0.28,0.44,0.28,0.25" style="fill:rgb(0,0,0);font-family:TimesNewRomanPSMT;font-size:11.04px;stroke:none;">economic and environmental </text>
  </g>
  <g begin="text">
   <text y="82.32" x="48.48" svgx:width="0.5" style="fill:rgb(0,0,0);font-family:TimesNewRomanPSMT;font-size:11.04px;stroke:none;">1</text>
  </g>
  <g begin="text">
   <text y="82.32" x="54.0" svgx:width="0.25" style="fill:rgb(0,0,0);font-family:TimesNewRomanPSMT;font-size:11.04px;stroke:none;"> </text>
  </g>
  <g begin="text">
   <text y="96.26" x="72.024,76.926,82.446,87.37,90.969,95.87,100.794,103.797,108.699,112.32,115.433,119.628,122.742,125.855,130.657,134.952,137.613,142.514,148.034,153.554,156.215,159.328,164.727,169.629,172.289,175.999,180.801,185.703,190.031,193.033,198.553,201.667,204.67,207.783,210.896,216.416,219.055,224.453,228.163,230.801,239.435,244.237,249.757,255.277,257.916,262.817,267.145,272.544,277.445,282.369,285.372,289.667,292.327,297.847,301.557" svgx:width="0.44,0.5,0.44,0.33,0.44,0.44,0.28,0.44,0.33,0.28,0.39,0.28,0.28,0.44,0.39,0.25,0.44,0.5,0.5,0.25,0.28,0.5,0.44,0.25,0.33,0.44,0.44,0.39,0.28,0.5,0.28,0.28,0.28,0.28,0.5,0.25,0.5,0.33,0.25,0.78,0.44,0.5,0.5,0.25,0.44,0.39,0.5,0.44,0.44,0.28,0.39,0.25,0.5,0.33,0.25" style="fill:rgb(0,0,0);font-family:TimesNewRomanPSMT;font-size:11.04px;stroke:none;">characteristics and the feasibility of many aspects of </text>
  </g>
  <g begin="text">
   <text y="96.26" x="304.37,309.89,314.692,317.806,320.444,325.346,330.27,333.979" svgx:width="0.5,0.44,0.28,0.25,0.44,0.44,0.33,0.5" style="fill:rgb(0,0,0);font-family:TimesNewRomanPSMT;font-size:11.04px;stroke:none;">net zero</text>
  </g>
  <g begin="text">
   <text y="96.26" x="339.55" svgx:width="0.25" style="fill:rgb(0,0,0);font-family:TimesNewRomanPSMT;font-size:11.04px;stroke:none;"> </text>
  </g>
  <g begin="text">
   <text y="96.26" x="342.19,347.589,351.298" svgx:width="0.5,0.33,0.25" style="fill:rgb(0,0,0);font-family:TimesNewRomanPSMT;font-size:11.04px;stroke:none;">or </text>
  </g>
  <g begin="text">
   <text y="96.26" x="353.95,359.47,364.372,367.496" svgx:width="0.5,0.44,0.28,0.25" style="fill:rgb(0,0,0);font-family:TimesNewRomanPSMT;font-size:11.04px;stroke:none;">net </text>
  </g>
  <g begin="text">
   <text y="96.26" x="370.15,375.549,380.45,385.97,390.784,393.897,397.01,402.409,407.311,409.971,414.873,423.407,426.52,430.815,435.043,438.156,443.676,449.196,453.491,456.152,461.053,466.474,471.376,475.107,480.627,486.147,488.786,492.981,498.501,502.796,505.821,510.722,519.146,523.341" svgx:width="0.5,0.44,0.5,0.44,0.28,0.28,0.5,0.44,0.25,0.44,0.78,0.28,0.39,0.39,0.28,0.5,0.5,0.39,0.25,0.44,0.5,0.44,0.33,0.5,0.5,0.25,0.39,0.5,0.39,0.28,0.44,0.78,0.39,0.25" style="fill:rgb(0,0,0);font-family:TimesNewRomanPSMT;font-size:11.04px;stroke:none;">negative emissions energy systems </text>
  </g>
  <g begin="text">
   <text y="96.26" x="48.48" svgx:width="0.5" style="fill:rgb(0,0,0);font-family:TimesNewRomanPSMT;font-size:11.04px;stroke:none;">2</text>
  </g>
  <g begin="text">
   <text y="96.26" x="54.0" svgx:width="0.25" style="fill:rgb(0,0,0);font-family:TimesNewRomanPSMT;font-size:11.04px;stroke:none;"> </text>
  </g>
  <g begin="text">
   <text y="110.18" x="72.024" svgx:width="0.33" style="fill:rgb(0,0,0);font-family:TimesNewRomanPSMT;font-size:11.04px;stroke:none;">(</text>
  </g>
  <g begin="text">
   <text y="110.18" x="75.744,81.264,84.377,89.897,95.417,98.177,99.723,104.625,110.145,115.665,118.679,121.792,127.312,132.114,137.634,142.536" svgx:width="0.5,0.28,0.5,0.5,0.25,0.55,0.44,0.5,0.5,0.28,0.28,0.5,0.44,0.5,0.44,0.44" style="fill:rgb(0,0,0);font-family:TimesNewRomanPS-ItalicMT;font-size:11.04px;stroke:none;">high confidence</text>
  </g>
  <g begin="text">
   <text y="110.18" x="147.38,151.1" svgx:width="0.33,0.25" style="fill:rgb(0,0,0);font-family:TimesNewRomanPSMT;font-size:11.04px;stroke:none;">) </text>
  </g>
  <g begin="text">
   <text y="110.18" x="155.54,159.249,166.569,169.572,173.866,176.891,180.005,183.118,188.516,193.319,196.07899999999998,197.746,202.648,208.168,213.688,216.44799999999998,218.137,225.456,228.57,233.471,238.991,242.612,248.132,251.842,257.362,260.122,261.789,267.309,272.829,278.228,283.748,286.861,289.621,291.288,298.607,301.721,306.523,312.043,315.642,321.162,324.871,330.391,333.151,334.819,339.72,342.845,345.605,347.272,352.074,355.187,357.947,360.707,362.375,367.895,373.414,378.934,384.333" svgx:width="0.33,0.67,0.28,0.39,0.28,0.28,0.28,0.5,0.44,0.25,0.55,0.44,0.5,0.5,0.25,0.55,0.67,0.28,0.44,0.5,0.33,0.5,0.33,0.5,0.25,0.55,0.5,0.5,0.5,0.5,0.28,0.25,0.55,0.67,0.28,0.44,0.5,0.33,0.5,0.33,0.5,0.25,0.55,0.44,0.28,0.25,0.55,0.44,0.28,0.25,0.25,0.55,0.5,0.5,0.5,0.5,0.33" style="fill:rgb(0,0,0);font-family:TimesNewRomanPSMT;font-size:11.04px;stroke:none;">(Bistline and Blanford 2020; Blanford et al. 2018)</text>
  </g>
  <g begin="text">
   <text y="110.18" x="388.27,391.03,393.78999999999996,395.457,401.595,407.115,410.792,413.55199999999996,415.241,420.143,425.563,430.366,438.999,444.519,447.522,452.423,455.184,457.944,459.633,464.534,470.054,474.868,477.981,483.501,488.303,491.417,494.42,499.94,505.46,508.21999999999997,509.887,513.0,518.52,523.322" svgx:width="0.25,0.25,0.55,0.56,0.5,0.33,0.25,0.55,0.44,0.5,0.44,0.78,0.5,0.28,0.44,0.25,0.25,0.55,0.44,0.5,0.44,0.28,0.5,0.44,0.28,0.28,0.5,0.5,0.25,0.55,0.28,0.5,0.44,0.25" style="fill:rgb(0,0,0);font-family:TimesNewRomanPSMT;font-size:11.04px;stroke:none;">. For example, evaluating the </text>
  </g>
  <g begin="text">
   <text y="110.18" x="48.48" svgx:width="0.5" style="fill:rgb(0,0,0);font-family:TimesNewRomanPSMT;font-size:11.04px;stroke:none;">3</text>
  </g>
  <g begin="text">
   <text y="110.18" x="54.0" svgx:width="0.25" style="fill:rgb(0,0,0);font-family:TimesNewRomanPSMT;font-size:11.04px;stroke:none;"> </text>
  </g>
  <g begin="text">
   <text y="124.1" x="72.024,76.926,82.446,91.09,96.489,101.39,104.404,107.518,110.521,113.634,119.154,124.056,129.476,134.378,138.706,142.901,145.539,151.059,154.658" svgx:width="0.44,0.5,0.78,0.5,0.44,0.28,0.28,0.28,0.28,0.5,0.44,0.5,0.44,0.39,0.39,0.25,0.5,0.33,0.25" style="fill:rgb(0,0,0);font-family:TimesNewRomanPSMT;font-size:11.04px;stroke:none;">competitiveness of </text>
  </g>
  <g begin="text">
   <text y="124.1" x="157.34,162.142,165.256,170.157,174.971,178.084,181.683,184.796,189.599,192.602,195.715" svgx:width="0.44,0.28,0.44,0.44,0.28,0.33,0.28,0.44,0.28,0.28,0.5" style="fill:rgb(0,0,0);font-family:TimesNewRomanPSMT;font-size:11.04px;stroke:none;">electricity</text>
  </g>
  <g begin="text">
   <text y="124.1" x="201.29" svgx:width="0.25" style="fill:rgb(0,0,0);font-family:TimesNewRomanPSMT;font-size:11.04px;stroke:none;"> </text>
  </g>
  <g begin="text">
   <text y="124.1" x="203.93,208.125,213.027,217.84,220.954,226.474,230.073,232.711,235.825,240.627,245.529,251.049,256.569,261.989,265.103,270.623,276.021,279.134,284.036,288.253,290.892,294.602,299.503,304.924,310.444,313.447,317.156,322.058,326.386,328.903,332.016,336.818,345.452,350.972,356.37,360.08,364.882,367.995,370.755,373.394,377.589,383.109,388.011,391.025,394.138,398.941,402.054,404.814,407.331,412.233,417.753,423.273,425.812,428.925,433.728,438.629,444.149,449.669,455.189,458.314,463.712,469.232,472.346,477.148,482.05,485.064,487.702,493.222,498.025,501.138,505.94,509.054,512.167,514.684,517.797,523.196" svgx:width="0.39,0.44,0.44,0.28,0.5,0.33,0.25,0.28,0.44,0.44,0.5,0.5,0.5,0.28,0.5,0.5,0.28,0.44,0.39,0.25,0.33,0.44,0.5,0.5,0.28,0.33,0.44,0.39,0.25,0.28,0.44,0.78,0.5,0.5,0.33,0.44,0.28,0.25,0.25,0.39,0.5,0.44,0.28,0.28,0.44,0.28,0.25,0.25,0.44,0.5,0.5,0.25,0.28,0.44,0.44,0.5,0.5,0.5,0.28,0.5,0.5,0.28,0.44,0.44,0.28,0.25,0.5,0.44,0.28,0.44,0.28,0.28,0.25,0.28,0.5,0.25" style="fill:rgb(0,0,0);font-family:TimesNewRomanPSMT;font-size:11.04px;stroke:none;">sector technologies requires temporal, spatial, and technological detail to </text>
  </g>
  <g begin="text">
   <text y="124.1" x="48.48" svgx:width="0.5" style="fill:rgb(0,0,0);font-family:TimesNewRomanPSMT;font-size:11.04px;stroke:none;">4</text>
  </g>
  <g begin="text">
   <text y="124.1" x="54.0" svgx:width="0.25" style="fill:rgb(0,0,0);font-family:TimesNewRomanPSMT;font-size:11.04px;stroke:none;"> </text>
  </g>
  <g begin="text">
   <text y="138.02" x="72.024,76.926,81.85,86.751,92.172,95.881,100.783,103.797,108.699,111.823,117.222,120.335,123.934,128.836,134.356,137.977,142.879,147.206,152.108,157.529,160.642,163.634,167.928,173.449,177.677,180.79,185.592,194.115,197.229,200.342,205.862,211.26,216.162,220.49,223.493,232.126,236.929,242.449,245.562,249.757,252.87,257.772,263.193,268.713,271.826,277.346,282.744,287.646,291.378,296.18,299.183,302.296,307.816,313.215,317.509" svgx:width="0.44,0.44,0.44,0.5,0.33,0.44,0.28,0.44,0.28,0.5,0.25,0.33,0.44,0.5,0.33,0.44,0.39,0.44,0.5,0.28,0.25,0.39,0.5,0.39,0.28,0.44,0.78,0.25,0.28,0.5,0.5,0.44,0.39,0.28,0.78,0.44,0.5,0.28,0.39,0.25,0.44,0.5,0.5,0.25,0.5,0.5,0.44,0.33,0.44,0.28,0.28,0.5,0.5,0.39,0.25" style="fill:rgb(0,0,0);font-family:TimesNewRomanPSMT;font-size:11.04px;stroke:none;">accurately represent system investments and operations </text>
  </g>
  <g begin="text">
   <text y="138.02" x="320.83,324.539,331.738,334.851,339.145,342.17,345.173,348.286,353.806,358.708,361.711,367.231,372.751,378.271,383.791,388.594,391.707,394.82,402.625,405.739,410.541,413.654,419.174,422.773,425.887,430.689,433.681,438.583,441.707,444.699,449.601,452.725,455.363,458.477,463.997,469.517,475.037,480.435,483.549,486.662,494.578,499.38,502.493,505.496,509.791,512.926,518.325,523.226" svgx:width="0.33,0.67,0.28,0.39,0.28,0.28,0.28,0.5,0.44,0.25,0.5,0.5,0.5,0.5,0.44,0.28,0.25,0.72,0.28,0.44,0.28,0.5,0.33,0.28,0.44,0.25,0.44,0.28,0.25,0.44,0.28,0.25,0.25,0.5,0.5,0.5,0.5,0.28,0.25,0.72,0.44,0.28,0.28,0.39,0.28,0.5,0.44,0.25" style="fill:rgb(0,0,0);font-family:TimesNewRomanPSMT;font-size:11.04px;stroke:none;">(Bistline 2021c; Victoria et al. 2021; Helistoe </text>
  </g>
  <g begin="text">
   <text y="138.02" x="48.48" svgx:width="0.5" style="fill:rgb(0,0,0);font-family:TimesNewRomanPSMT;font-size:11.04px;stroke:none;">5</text>
  </g>
  <g begin="text">
   <text y="138.02" x="54.0" svgx:width="0.25" style="fill:rgb(0,0,0);font-family:TimesNewRomanPSMT;font-size:11.04px;stroke:none;"> </text>
  </g>
  <g begin="text">
   <text y="151.94" x="72.024,76.926,80.05,82.81,87.612,90.726,93.486,96.246,101.766,107.286,112.684,118.204,121.318,124.078,131.397,136.796,139.909,142.912,146.025,151.545,155.84,158.5,163.402,166.526,169.165,174.067,177.191,179.951,182.711,188.11,193.508,199.028,204.548,207.662,210.422,216.56,221.462,226.86,229.973,234.875,240.296,243.056,247.958,251.082,253.72,258.622,261.747,264.507,267.145,272.665,278.185,283.705,289.104" svgx:width="0.44,0.28,0.25,0.44,0.28,0.25,0.25,0.5,0.5,0.5,0.5,0.28,0.25,0.67,0.5,0.28,0.28,0.28,0.5,0.39,0.25,0.44,0.28,0.25,0.44,0.28,0.25,0.25,0.5,0.5,0.5,0.5,0.28,0.25,0.56,0.44,0.5,0.28,0.44,0.5,0.25,0.44,0.28,0.25,0.44,0.28,0.25,0.25,0.5,0.5,0.5,0.5,0.33" style="fill:rgb(0,0,0);font-family:TimesNewRomanPSMT;font-size:11.04px;stroke:none;">et al. 2019; Collins et al. 2017; Santen et al. 2017)</text>
  </g>
  <g begin="text">
   <text y="151.94" x="292.97" svgx:width="0.25" style="fill:rgb(0,0,0);font-family:TimesNewRomanPSMT;font-size:11.04px;stroke:none;">.</text>
  </g>
  <g begin="text">
   <text y="151.94" x="295.61" svgx:width="0.25" style="fill:rgb(0,0,0);font-family:TimesNewRomanPSMT;font-size:11.04px;stroke:none;"> </text>
  </g>
  <g begin="text">
   <text y="151.94" x="48.48" svgx:width="0.5" style="fill:rgb(0,0,0);font-family:TimesNewRomanPSMT;font-size:11.04px;stroke:none;">6</text>
  </g>
  <g begin="text">
   <text y="151.94" x="54.0" svgx:width="0.25" style="fill:rgb(0,0,0);font-family:TimesNewRomanPSMT;font-size:11.04px;stroke:none;"> </text>
  </g>
  <g begin="text">
   <text y="171.86" x="72.024,79.343,84.863,90.383,94.093,97.206,102.605,108.125,111.834,116.637,119.75,122.753,128.273,133.793,138.087,141.223,146.621,150.331" svgx:width="0.67,0.5,0.5,0.33,0.28,0.5,0.5,0.33,0.44,0.28,0.28,0.5,0.5,0.39,0.25,0.5,0.33,0.25" style="fill:rgb(0,0,0);font-family:TimesNewRomanPSMT;font-size:11.04px;stroke:none;">Configurations of </text>
  </g>
  <g begin="text">
   <text y="171.86" x="153.5,158.899,163.8,166.814,169.927,174.829,179.643,183.352" svgx:width="0.5,0.44,0.28,0.25,0.44,0.44,0.33,0.5" style="fill:rgb(0,0,0);font-family:TimesNewRomanPSMT;font-size:11.04px;stroke:none;">net zero</text>
  </g>
  <g begin="text">
   <text y="171.86" x="188.93" svgx:width="0.25" style="fill:rgb(0,0,0);font-family:TimesNewRomanPSMT;font-size:11.04px;stroke:none;"> </text>
  </g>
  <g begin="text">
   <text y="171.86" x="191.93,196.832,202.352,207.276,210.985,216.384,221.904,225.017,229.311,234.732,239.027,242.052,246.953,255.487,259.782,262.917,270.833,273.836,276.949,279.952,283.065,288.585,293.388,297.097,302.617,305.73,311.129,316.649,319.762,323.472,328.373,333.794,336.907,342.427,347.826,350.939,356.459,361.979,364.982,368.095,372.898,376.607,381.509,384.512,387.625,390.738,396.137,401.039,404.163,409.562,412.675,415.788,421.187,424.3,428.495,434.015,438.917,442.648,447.451,450.564,454.859,459.794,465.192,470.094,473.825,478.628,481.741,484.733,489.635,495.155,503.689,512.322,517.842,523.119" svgx:width="0.44,0.5,0.44,0.33,0.5,0.5,0.25,0.39,0.5,0.39,0.28,0.44,0.78,0.39,0.25,0.72,0.28,0.28,0.28,0.25,0.5,0.44,0.33,0.5,0.25,0.5,0.5,0.25,0.33,0.44,0.5,0.28,0.5,0.5,0.25,0.5,0.5,0.28,0.25,0.44,0.33,0.44,0.25,0.28,0.28,0.5,0.44,0.28,0.5,0.25,0.28,0.5,0.25,0.39,0.5,0.44,0.33,0.44,0.25,0.39,0.44,0.5,0.44,0.33,0.44,0.28,0.25,0.44,0.5,0.78,0.78,0.5,0.5,0.25" style="fill:rgb(0,0,0);font-family:TimesNewRomanPSMT;font-size:11.04px;stroke:none;">energy systems will vary by region but are likely to share several common </text>
  </g>
  <g begin="text">
   <text y="171.86" x="48.48" svgx:width="0.5" style="fill:rgb(0,0,0);font-family:TimesNewRomanPSMT;font-size:11.04px;stroke:none;">7</text>
  </g>
  <g begin="text">
   <text y="171.86" x="54.0" svgx:width="0.25" style="fill:rgb(0,0,0);font-family:TimesNewRomanPSMT;font-size:11.04px;stroke:none;"> </text>
  </g>
  <g begin="text">
   <text y="185.78" x="72.024,76.926,82.446,87.37,90.969,95.87,100.794,103.797,108.699,112.32,115.433,119.628,122.742,125.855,130.657,134.952,137.845" svgx:width="0.44,0.5,0.44,0.33,0.44,0.44,0.28,0.44,0.33,0.28,0.39,0.28,0.28,0.44,0.39,0.25,0.33" style="fill:rgb(0,0,0);font-family:TimesNewRomanPSMT;font-size:11.04px;stroke:none;">characteristics (</text>
  </g>
  <g begin="text">
   <text y="185.78" x="141.62,147.14,150.253,155.652,161.172,164.164,168.966,174.486,180.006,183.009,186.122,191.521,196.423,201.943,206.866" svgx:width="0.5,0.28,0.5,0.5,0.25,0.44,0.5,0.5,0.28,0.28,0.5,0.44,0.5,0.44,0.44" style="fill:rgb(0,0,0);font-family:TimesNewRomanPS-ItalicMT;font-size:11.04px;stroke:none;">high confidence</text>
  </g>
  <g begin="text">
   <text y="185.78" x="211.73,215.439,218.431" svgx:width="0.33,0.25,0.33" style="fill:rgb(0,0,0);font-family:TimesNewRomanPSMT;font-size:11.04px;stroke:none;">) (</text>
  </g>
  <g begin="text">
   <text y="185.78" x="222.17,228.165,231.278,236.798,242.197,245.906,250.708" svgx:width="0.56,0.28,0.5,0.5,0.33,0.44,0.25" style="fill:rgb(0,0,0);font-family:TimesNewRomanPSMT;font-size:11.04px;stroke:none;">Figure </text>
  </g>
  <g begin="text">
   <text y="185.78" x="253.73" svgx:width="0.5" style="fill:rgb(0,0,0);font-family:TimesNewRomanPSMT;font-size:11.04px;stroke:none;">6</text>
  </g>
  <g begin="text">
   <text y="185.78" x="259.25" svgx:width="0.25" style="fill:rgb(0,0,0);font-family:TimesNewRomanPSMT;font-size:11.04px;stroke:none;">.</text>
  </g>
  <g begin="text">
   <text y="185.78" x="262.01,267.53" svgx:width="0.5,0.5" style="fill:rgb(0,0,0);font-family:TimesNewRomanPSMT;font-size:11.04px;stroke:none;">22</text>
  </g>
  <g begin="text">
   <text y="185.78" x="272.93,276.639,279.399,282.27,292.692,297.615,300.486,304.195,309.594,314.496,320.016,324.343,327.335,332.734,338.254,341.246,345.441,350.343,355.863,360.786,366.185,369.177,374.697" svgx:width="0.33,0.25,0.25,0.94,0.44,0.25,0.33,0.5,0.44,0.5,0.39,0.25,0.5,0.5,0.25,0.39,0.44,0.5,0.44,0.5,0.25,0.5,0.33" style="fill:rgb(0,0,0);font-family:TimesNewRomanPSMT;font-size:11.04px;stroke:none;">). We focus on seven of</text>
  </g>
  <g begin="text">
   <text y="185.78" x="378.43" svgx:width="0.25" style="fill:rgb(0,0,0);font-family:TimesNewRomanPSMT;font-size:11.04px;stroke:none;"> </text>
  </g>
  <g begin="text">
   <text y="185.78" x="381.43,384.543,389.942,395.462,399.756,404.581,407.573,412.474,417.895,426.418,435.051,440.571,446.091,448.962,453.863,459.383,464.197,467.906,472.808,477.622,480.735,485.537,489.247,492.36,496.555,499.558,502.671,507.573,511.79,514.782,517.895,523.294" svgx:width="0.28,0.5,0.5,0.39,0.44,0.25,0.44,0.5,0.78,0.78,0.5,0.5,0.25,0.44,0.5,0.44,0.33,0.44,0.44,0.28,0.44,0.33,0.28,0.39,0.28,0.28,0.44,0.39,0.25,0.28,0.5,0.25" style="fill:rgb(0,0,0);font-family:TimesNewRomanPSMT;font-size:11.04px;stroke:none;">those common characteristics in </text>
  </g>
  <g begin="text">
   <text y="185.78" x="48.48" svgx:width="0.5" style="fill:rgb(0,0,0);font-family:TimesNewRomanPSMT;font-size:11.04px;stroke:none;">8</text>
  </g>
  <g begin="text">
   <text y="185.78" x="54.0" svgx:width="0.25" style="fill:rgb(0,0,0);font-family:TimesNewRomanPSMT;font-size:11.04px;stroke:none;"> </text>
  </g>
  <g begin="text">
   <text y="199.7" x="72.024,75.137,80.657,85.559,88.22,91.929,96.732,105.365,110.267,113.28,118.8,124.32,129.123,132.832,135.592,141.112,144.822,147.46,150.574,155.972,159.085,163.38,166.14,170.479,175.877,181.397,185.692,190.516,195.418,198.542,201.545,207.065,212.585" svgx:width="0.28,0.5,0.44,0.25,0.33,0.44,0.78,0.44,0.28,0.5,0.5,0.44,0.33,0.25,0.5,0.33,0.25,0.28,0.5,0.28,0.39,0.25,0.39,0.5,0.5,0.39,0.44,0.44,0.28,0.28,0.5,0.5,0.25" style="fill:rgb(0,0,0);font-family:TimesNewRomanPSMT;font-size:11.04px;stroke:none;">the remainder of this subsection.</text>
  </g>
  <g begin="text">
   <text y="199.7" x="215.33" svgx:width="0.25" style="fill:rgb(0,0,0);font-family:TimesNewRomanPSMT;font-size:11.04px;stroke:none;"> </text>
  </g>
  <g begin="text">
   <text y="199.7" x="48.48" svgx:width="0.5" style="fill:rgb(0,0,0);font-family:TimesNewRomanPSMT;font-size:11.04px;stroke:none;">9</text>
  </g>
  <g begin="text">
   <text y="199.7" x="54.0" svgx:width="0.25" style="fill:rgb(0,0,0);font-family:TimesNewRomanPSMT;font-size:11.04px;stroke:none;"> </text>
  </g>
  <g begin="text">
   <text y="602.109" transform="matrix(0.70711,-0.70711,0.70711,0.70711,-395.12956,250.29085)" rotateDegrees="-45" matrix="[29.803345,29.803345,-29.803345,29.803345,104.563255,239.8115]" x="104.563" svgx:width="0.67" style="fill:rgb(0,0,0);font-family:Arial;font-size:42.15px;stroke:none;">A</text>
   <text y="582.23" transform="matrix(0.70711,-0.70711,0.70711,0.70711,-375.25056,258.525)" rotateDegrees="-45" matrix="[29.803345,29.803345,-29.803345,29.803345,124.442085,259.6903]" x="124.442" svgx:width="0.72" style="fill:rgb(0,0,0);font-family:Arial;font-size:42.15px;stroke:none;">C</text>
   <text y="560.712" transform="matrix(0.70711,-0.70711,0.70711,0.70711,-353.73256,267.43805)" rotateDegrees="-45" matrix="[29.803345,29.803345,-29.803345,29.803345,145.9601,281.20834]" x="145.96" svgx:width="0.72" style="fill:rgb(0,0,0);font-family:Arial;font-size:42.15px;stroke:none;">C</text>
   <text y="539.194" transform="matrix(0.70711,-0.70711,0.70711,0.70711,-332.21456,276.3511)" rotateDegrees="-45" matrix="[29.803345,29.803345,-29.803345,29.803345,167.47812,302.72635]" x="167.478" svgx:width="0.67" style="fill:rgb(0,0,0);font-family:Arial;font-size:42.15px;stroke:none;">E</text>
   <text y="519.315" transform="matrix(0.70711,-0.70711,0.70711,0.70711,-312.33556,284.58525)" rotateDegrees="-45" matrix="[29.803345,29.803345,-29.803345,29.803345,187.35693,322.60516]" x="187.357" svgx:width="0.67" style="fill:rgb(0,0,0);font-family:Arial;font-size:42.15px;stroke:none;">P</text>
   <text y="499.436" transform="matrix(0.70711,-0.70711,0.70711,0.70711,-292.45656,292.8194)" rotateDegrees="-45" matrix="[29.803345,29.803345,-29.803345,29.803345,207.23578,342.484]" x="207.236" svgx:width="0.61" style="fill:rgb(0,0,0);font-family:Arial;font-size:42.15px;stroke:none;">T</text>
   <text y="481.226" transform="matrix(0.70711,-0.70711,0.70711,0.70711,-274.24656,300.36223)" rotateDegrees="-45" matrix="[29.803345,29.803345,-29.803345,29.803345,225.44562,360.69385]" x="225.446" svgx:width="0.67" style="fill:rgb(0,0,0);font-family:Arial;font-size:42.15px;stroke:none;">E</text>
   <text y="461.347" transform="matrix(0.70711,-0.70711,0.70711,0.70711,-254.36786,308.59567)" rotateDegrees="-45" matrix="[29.803345,29.803345,-29.803345,29.803345,245.32443,380.57266]" x="245.324" svgx:width="0.72" style="fill:rgb(0,0,0);font-family:Arial;font-size:42.15px;stroke:none;">D</text>
   <text y="439.829" transform="matrix(0.70711,-0.70711,0.70711,0.70711,-232.84986,317.50872)" rotateDegrees="-45" matrix="[29.803345,29.803345,-29.803345,29.803345,266.84247,402.0907]" x="266.842" svgx:width="0.28" style="fill:rgb(0,0,0);font-family:Arial;font-size:42.15px;stroke:none;"> </text>
   <text y="431.54" transform="matrix(0.70711,-0.70711,0.70711,0.70711,-224.56056,320.94284)" rotateDegrees="-45" matrix="[29.803345,29.803345,-29.803345,29.803345,275.13153,410.37976]" x="275.132" svgx:width="0.67" style="fill:rgb(0,0,0);font-family:Arial;font-size:42.15px;stroke:none;">V</text>
   <text y="411.661" transform="matrix(0.70711,-0.70711,0.70711,0.70711,-204.68186,329.17629)" rotateDegrees="-45" matrix="[29.803345,29.803345,-29.803345,29.803345,295.0103,430.25858]" x="295.01" svgx:width="0.67" style="fill:rgb(0,0,0);font-family:Arial;font-size:42.15px;stroke:none;">E</text>
   <text y="391.783" transform="matrix(0.70711,-0.70711,0.70711,0.70711,-184.80356,337.41073)" rotateDegrees="-45" matrix="[29.803345,29.803345,-29.803345,29.803345,314.88916,450.1374]" x="314.889" svgx:width="0.72" style="fill:rgb(0,0,0);font-family:Arial;font-size:42.15px;stroke:none;">R</text>
   <text y="370.265" transform="matrix(0.70711,-0.70711,0.70711,0.70711,-163.28556,346.32378)" rotateDegrees="-45" matrix="[29.803345,29.803345,-29.803345,29.803345,336.40717,471.65543]" x="336.407" svgx:width="0.67" style="fill:rgb(0,0,0);font-family:Arial;font-size:42.15px;stroke:none;">S</text>
   <text y="350.386" transform="matrix(0.70711,-0.70711,0.70711,0.70711,-143.40656,354.55793)" rotateDegrees="-45" matrix="[29.803345,29.803345,-29.803345,29.803345,356.286,491.53424]" x="356.286" svgx:width="0.28" style="fill:rgb(0,0,0);font-family:Arial;font-size:42.15px;stroke:none;">I</text>
   <text y="342.1" transform="matrix(0.70711,-0.70711,0.70711,0.70711,-135.12086,357.9894)" rotateDegrees="-45" matrix="[29.803345,29.803345,-29.803345,29.803345,364.57135,499.81958]" x="364.571" svgx:width="0.78" style="fill:rgb(0,0,0);font-family:Arial;font-size:42.15px;stroke:none;">O</text>
   <text y="318.913" transform="matrix(0.70711,-0.70711,0.70711,0.70711,-111.93386,367.59377)" rotateDegrees="-45" matrix="[29.803345,29.803345,-29.803345,29.803345,387.7583,523.0066]" x="387.758" svgx:width="0.72" style="fill:rgb(0,0,0);font-family:Arial;font-size:42.15px;stroke:none;">N</text>
   <text y="297.395" transform="matrix(0.70711,-0.70711,0.70711,0.70711,-90.41586,376.50681)" rotateDegrees="-45" matrix="[29.803345,29.803345,-29.803345,29.803345,409.27637,544.5246]" x="409.276" svgx:width="0.28" style="fill:rgb(0,0,0);font-family:Arial;font-size:42.15px;stroke:none;"> </text>
   <text y="637.872" transform="matrix(0.70711,-0.70711,0.70711,0.70711,-409.94279,286.05456)" rotateDegrees="-45" matrix="[29.803345,29.803345,-29.803345,29.803345,140.32727,204.04747]" x="140.327" svgx:width="0.67" style="fill:rgb(0,0,0);font-family:Arial;font-size:42.15px;stroke:none;">S</text>
   <text y="617.994" transform="matrix(0.70711,-0.70711,0.70711,0.70711,-390.0645,294.289)" rotateDegrees="-45" matrix="[29.803345,29.803345,-29.803345,29.803345,160.2061,223.9263]" x="160.206" svgx:width="0.72" style="fill:rgb(0,0,0);font-family:Arial;font-size:42.15px;stroke:none;">U</text>
   <text y="596.476" transform="matrix(0.70711,-0.70711,0.70711,0.70711,-368.5465,303.20205)" rotateDegrees="-45" matrix="[29.803345,29.803345,-29.803345,29.803345,181.72412,245.4443]" x="181.724" svgx:width="0.67" style="fill:rgb(0,0,0);font-family:Arial;font-size:42.15px;stroke:none;">B</text>
   <text y="576.597" transform="matrix(0.70711,-0.70711,0.70711,0.70711,-348.6675,311.4362)" rotateDegrees="-45" matrix="[29.803345,29.803345,-29.803345,29.803345,201.60294,265.32315]" x="201.603" svgx:width="0.5" style="fill:rgb(0,0,0);font-family:Arial;font-size:42.15px;stroke:none;">J</text>
   <text y="561.695" transform="matrix(0.70711,-0.70711,0.70711,0.70711,-333.7655,317.60881)" rotateDegrees="-45" matrix="[29.803345,29.803345,-29.803345,29.803345,216.50462,280.22482]" x="216.505" svgx:width="0.67" style="fill:rgb(0,0,0);font-family:Arial;font-size:42.15px;stroke:none;">E</text>
   <text y="541.816" transform="matrix(0.70711,-0.70711,0.70711,0.70711,-313.88679,325.84225)" rotateDegrees="-45" matrix="[29.803345,29.803345,-29.803345,29.803345,236.38344,300.10364]" x="236.383" svgx:width="0.72" style="fill:rgb(0,0,0);font-family:Arial;font-size:42.15px;stroke:none;">C</text>
   <text y="520.298" transform="matrix(0.70711,-0.70711,0.70711,0.70711,-292.36879,334.7553)" rotateDegrees="-45" matrix="[29.803345,29.803345,-29.803345,29.803345,257.90146,321.62164]" x="257.901" svgx:width="0.61" style="fill:rgb(0,0,0);font-family:Arial;font-size:42.15px;stroke:none;">T</text>
   <text y="502.089" transform="matrix(0.70711,-0.70711,0.70711,0.70711,-274.1595,342.29842)" rotateDegrees="-45" matrix="[29.803345,29.803345,-29.803345,29.803345,276.1113,339.83148]" x="276.111" svgx:width="0.28" style="fill:rgb(0,0,0);font-family:Arial;font-size:42.15px;stroke:none;"> </text>
   <text y="493.803" transform="matrix(0.70711,-0.70711,0.70711,0.70711,-265.8735,345.7306)" rotateDegrees="-45" matrix="[29.803345,29.803345,-29.803345,29.803345,284.39664,348.11682]" x="284.397" svgx:width="0.61" style="fill:rgb(0,0,0);font-family:Arial;font-size:42.15px;stroke:none;">T</text>
   <text y="475.593" transform="matrix(0.70711,-0.70711,0.70711,0.70711,-247.66379,353.27272)" rotateDegrees="-45" matrix="[29.803345,29.803345,-29.803345,29.803345,302.60648,366.32666]" x="302.606" svgx:width="0.78" style="fill:rgb(0,0,0);font-family:Arial;font-size:42.15px;stroke:none;">O</text>
   <text y="452.406" transform="matrix(0.70711,-0.70711,0.70711,0.70711,-224.47679,362.87709)" rotateDegrees="-45" matrix="[29.803345,29.803345,-29.803345,29.803345,325.79346,389.51367]" x="325.793" svgx:width="0.28" style="fill:rgb(0,0,0);font-family:Arial;font-size:42.15px;stroke:none;"> </text>
   <text y="444.136" transform="matrix(0.70711,-0.70711,0.70711,0.70711,-216.2065,366.30334)" rotateDegrees="-45" matrix="[29.803345,29.803345,-29.803345,29.803345,334.0639,397.78412]" x="334.064" svgx:width="0.61" style="fill:rgb(0,0,0);font-family:Arial;font-size:42.15px;stroke:none;">F</text>
   <text y="425.926" transform="matrix(0.70711,-0.70711,0.70711,0.70711,-197.9965,373.84617)" rotateDegrees="-45" matrix="[29.803345,29.803345,-29.803345,29.803345,352.27374,415.99396]" x="352.274" svgx:width="0.28" style="fill:rgb(0,0,0);font-family:Arial;font-size:42.15px;stroke:none;">I</text>
   <text y="417.641" transform="matrix(0.70711,-0.70711,0.70711,0.70711,-189.7115,377.27793)" rotateDegrees="-45" matrix="[29.803345,29.803345,-29.803345,29.803345,360.55908,424.2793]" x="360.559" svgx:width="0.72" style="fill:rgb(0,0,0);font-family:Arial;font-size:42.15px;stroke:none;">N</text>
   <text y="396.123" transform="matrix(0.70711,-0.70711,0.70711,0.70711,-168.1935,386.19098)" rotateDegrees="-45" matrix="[29.803345,29.803345,-29.803345,29.803345,382.0771,445.7973]" x="382.077" svgx:width="0.67" style="fill:rgb(0,0,0);font-family:Arial;font-size:42.15px;stroke:none;">A</text>
   <text y="376.244" transform="matrix(0.70711,-0.70711,0.70711,0.70711,-148.3145,394.42513)" rotateDegrees="-45" matrix="[29.803345,29.803345,-29.803345,29.803345,401.95593,465.67615]" x="401.956" svgx:width="0.56" style="fill:rgb(0,0,0);font-family:Arial;font-size:42.15px;stroke:none;">L</text>
   <text y="359.673" transform="matrix(0.70711,-0.70711,0.70711,0.70711,-131.7435,401.28906)" rotateDegrees="-45" matrix="[29.803345,29.803345,-29.803345,29.803345,418.5266,482.24677]" x="418.527" svgx:width="0.28" style="fill:rgb(0,0,0);font-family:Arial;font-size:42.15px;stroke:none;"> </text>
   <text y="351.394" transform="matrix(0.70711,-0.70711,0.70711,0.70711,-123.4645,404.71834)" rotateDegrees="-45" matrix="[29.803345,29.803345,-29.803345,29.803345,426.80573,490.52588]" x="426.806" svgx:width="0.67" style="fill:rgb(0,0,0);font-family:Arial;font-size:42.15px;stroke:none;">E</text>
   <text y="331.515" transform="matrix(0.70711,-0.70711,0.70711,0.70711,-103.5855,412.95249)" rotateDegrees="-45" matrix="[29.803345,29.803345,-29.803345,29.803345,446.68457,510.40472]" x="446.685" svgx:width="0.72" style="fill:rgb(0,0,0);font-family:Arial;font-size:42.15px;stroke:none;">D</text>
   <text y="309.997" transform="matrix(0.70711,-0.70711,0.70711,0.70711,-82.0675,421.86554)" rotateDegrees="-45" matrix="[29.803345,29.803345,-29.803345,29.803345,468.2025,531.9227]" x="468.203" svgx:width="0.28" style="fill:rgb(0,0,0);font-family:Arial;font-size:42.15px;stroke:none;">I</text>
   <text y="301.712" transform="matrix(0.70711,-0.70711,0.70711,0.70711,-73.7825,425.29729)" rotateDegrees="-45" matrix="[29.803345,29.803345,-29.803345,29.803345,476.48785,540.20807]" x="476.488" svgx:width="0.61" style="fill:rgb(0,0,0);font-family:Arial;font-size:42.15px;stroke:none;">T</text>
   <text y="283.502" transform="matrix(0.70711,-0.70711,0.70711,0.70711,-55.5725,432.84012)" rotateDegrees="-45" matrix="[29.803345,29.803345,-29.803345,29.803345,494.6977,558.4179]" x="494.698" svgx:width="0.67" style="fill:rgb(0,0,0);font-family:Arial;font-size:42.15px;stroke:none;">S</text>
  </g>
 </g>
</svg>
