<?xml version="1.0" encoding="UTF-8"?>
<svg height="812.8" width="2582.0" xmlns="http://www.w3.org/2000/svg">
 <g id="page" xmlns:svgx="http://www.xml-cml.org/schema/svgx">
  <g begin="text">
   <text y="45.72" x="72.024,78.162,81.231,86.751,91.587,94.7,97.46,105.376,110.896,116.416,121.218,124.928,130.448,138.971,143.872,149.392,152.517,155.277,163.082,166.195,170.39,173.504,177.103,180.216,185.736,191.135,194.137,197.251,202.771" svgx:width="0.56,0.28,0.5,0.44,0.28,0.25,0.72,0.5,0.5,0.44,0.33,0.5,0.78,0.44,0.5,0.28,0.25,0.72,0.28,0.39,0.28,0.33,0.28,0.5,0.5,0.28,0.28,0.5,0.5" style="fill:rgb(0,0,0);font-family:TimesNewRomanPSMT;font-size:11.04px;stroke:none;">Final Government Distribution</text>
  </g>
  <g begin="text">
   <text y="45.72" x="208.37" svgx:width="0.25" style="fill:rgb(0,0,0);font-family:TimesNewRomanPSMT;font-size:11.04px;stroke:none;"> </text>
  </g>
  <g begin="text">
   <text y="45.72" x="211.01" svgx:width="0.25" style="fill:rgb(0,0,0);font-family:TimesNewRomanPSMT;font-size:11.04px;stroke:none;"> </text>
  </g>
  <g begin="text">
   <text y="45.72" x="276.17,283.49,289.009,293.911,299.431,302.556,307.358,311.067,313.827" svgx:width="0.67,0.5,0.44,0.5,0.28,0.44,0.33,0.25,0.5" style="fill:rgb(0,0,0);font-family:TimesNewRomanPSMT;font-size:11.04px;stroke:none;">Chapter 6</text>
  </g>
  <g begin="text">
   <text y="45.72" x="319.27" svgx:width="0.25" style="fill:rgb(0,0,0);font-family:TimesNewRomanPSMT;font-size:11.04px;stroke:none;"> </text>
  </g>
  <g begin="text">
   <text y="45.72" x="443.38,446.979,453.117,460.415,467.734" svgx:width="0.33,0.56,0.67,0.67,0.25" style="fill:rgb(0,0,0);font-family:TimesNewRomanPSMT;font-size:11.04px;stroke:none;">IPCC </text>
  </g>
  <g begin="text">
   <text y="45.72" x="470.5,480.922,488.893,492.569,496.179,499.778,502.538,510.454,517.773" svgx:width="0.94,0.72,0.33,0.33,0.33,0.25,0.72,0.67,0.5" style="fill:rgb(0,0,0);font-family:TimesNewRomanPSMT;font-size:11.04px;stroke:none;">WGIII AR6</text>
  </g>
  <g begin="text">
   <text y="45.72" x="523.42" svgx:width="0.25" style="fill:rgb(0,0,0);font-family:TimesNewRomanPSMT;font-size:11.04px;stroke:none;"> </text>
  </g>
  <g begin="text">
   <text y="783.816" x="72.024,79.94,85.46,88.22,96.135,101.655,105.365,108.125,116.04,119.154,122.753,127.655,130.415,133.075,141.708,147.847,153.367,157.043,161.868,164.628,170.148,175.049,177.809,185.78,188.75,192.945,196.655,201.556,204.681,210.819,216.803,220.512" svgx:width="0.72,0.5,0.25,0.72,0.5,0.33,0.25,0.72,0.28,0.33,0.44,0.25,0.25,0.78,0.56,0.5,0.33,0.44,0.25,0.5,0.44,0.25,0.72,0.28,0.39,0.33,0.44,0.28,0.56,0.56,0.33,0.44" style="fill:rgb(0,0,0);font-family:TimesNewRomanPS-BoldMT;font-size:11.04px;stroke:none;">Do Not Cite, Quote or Distribute</text>
  </g>
  <g begin="text">
   <text y="783.816" x="225.41" svgx:width="0.25" style="fill:rgb(0,0,0);font-family:TimesNewRomanPS-BoldMT;font-size:11.04px;stroke:none;"> </text>
  </g>
  <g begin="text">
   <text y="783.816" x="290.33" svgx:width="0.5" style="fill:rgb(0,0,0);font-family:TimesNewRomanPSMT;font-size:11.04px;stroke:none;">6</text>
  </g>
  <g begin="text">
   <text y="783.816" x="295.85" svgx:width="0.33" style="fill:rgb(0,0,0);font-family:TimesNewRomanPS-BoldMT;font-size:11.04px;stroke:none;">-</text>
  </g>
  <g begin="text">
   <text y="783.816" x="299.57" svgx:width="0.5" style="fill:rgb(0,0,0);font-family:TimesNewRomanPSMT;font-size:11.04px;stroke:none;">6</text>
  </g>
  <g begin="text">
   <text y="783.816" x="305.09" svgx:width="0.25" style="fill:rgb(0,0,0);font-family:TimesNewRomanPSMT;font-size:11.04px;stroke:none;"> </text>
  </g>
  <g begin="text">
   <text y="783.816" x="307.73" svgx:width="0.25" style="fill:rgb(0,0,0);font-family:TimesNewRomanPSMT;font-size:11.04px;stroke:none;"> </text>
  </g>
  <g begin="text">
   <text y="783.816" x="450.1,456.845,462.365,465.435,470.259,473.372,476.132,481.652,486.554,491.975,496.876,501.204,504.207" svgx:width="0.61,0.5,0.28,0.44,0.28,0.25,0.5,0.44,0.5,0.44,0.39,0.28,0.25" style="fill:rgb(0,0,0);font-family:TimesNewRomanPSMT;font-size:11.04px;stroke:none;">Total pages: </text>
  </g>
  <g begin="text">
   <text y="783.816" x="506.98,512.5,518.02" svgx:width="0.5,0.5,0.5" style="fill:rgb(0,0,0);font-family:TimesNewRomanPSMT;font-size:11.04px;stroke:none;">217</text>
  </g>
  <g begin="text">
   <text y="783.816" x="523.42" svgx:width="0.25" style="fill:rgb(0,0,0);font-family:TimesNewRomanPSMT;font-size:9.96px;stroke:none;"> </text>
  </g>
  <g begin="text">
   <text y="802.8" x="72.024" svgx:width="0.25" style="fill:rgb(0,0,0);font-family:TimesNewRomanPSMT;font-size:9.96px;stroke:none;"> </text>
  </g>
  <g begin="text">
   <text y="85.22" x="72.024,79.086,82.596" svgx:width="0.5,0.25,0.5" style="fill:rgb(0,0,0);font-family:TimesNewRomanPS-BoldMT;font-size:14.04px;stroke:none;">6.1</text>
  </g>
  <g begin="text">
   <text y="85.22" x="89.544" svgx:width="0.28" style="fill:rgb(0,0,0);font-family:Arial-BoldMT;font-size:14.04px;stroke:none;"> </text>
  </g>
  <g begin="text">
   <text y="85.22" x="100.82,106.324,114.13,118.805,124.927,131.989,139.795,147.601,153.835,158.384,162.231,169.293" svgx:width="0.39,0.56,0.33,0.44,0.5,0.56,0.56,0.44,0.33,0.28,0.5,0.56" style="fill:rgb(0,0,0);font-family:TimesNewRomanPS-BoldMT;font-size:14.04px;stroke:none;">Introduction</text>
  </g>
  <g begin="text">
   <text y="85.22" x="177.02" svgx:width="0.25" style="fill:rgb(0,0,0);font-family:TimesNewRomanPS-BoldMT;font-size:14.04px;stroke:none;"> </text>
  </g>
  <g begin="text">
   <text y="85.22" x="48.48" svgx:width="0.5" style="fill:rgb(0,0,0);font-family:TimesNewRomanPSMT;font-size:11.04px;stroke:none;">1</text>
  </g>
  <g begin="text">
   <text y="85.22" x="54.0" svgx:width="0.25" style="fill:rgb(0,0,0);font-family:TimesNewRomanPSMT;font-size:11.04px;stroke:none;"> </text>
  </g>
  <g begin="text">
   <text y="112.1" x="72.024,78.769,84.289,89.191,92.293,97.813,100.927,106.447,111.845,116.747,119.871,122.985,127.886,133.307,138.209,141.94,147.46,152.98,156.094,160.289,165.809,170.103,173.128,178.03,186.674,189.666,192.669,196.964,200.099,203.212,208.732,213.634,216.758,219.761,224.663,228.395,233.793,238.695,243.023,246.136,249.249,253.444,258.964,264.484,268.083,272.985,277.909,281.022,286.542,290.252,293.365,300.684" svgx:width="0.61,0.5,0.44,0.25,0.5,0.28,0.5,0.5,0.44,0.28,0.25,0.44,0.5,0.44,0.33,0.5,0.5,0.25,0.39,0.5,0.39,0.28,0.44,0.78,0.25,0.28,0.39,0.25,0.28,0.5,0.44,0.25,0.28,0.44,0.33,0.5,0.44,0.39,0.28,0.25,0.39,0.5,0.5,0.33,0.44,0.44,0.25,0.5,0.33,0.25,0.67,0.72" style="fill:rgb(0,0,0);font-family:TimesNewRomanPSMT;font-size:11.04px;stroke:none;">The global energy system is the largest source of CO</text>
  </g>
  <g begin="text">
   <text y="113.06" x="308.81" svgx:width="0.5" style="fill:rgb(0,0,0);font-family:TimesNewRomanPSMT;font-size:6.96px;stroke:none;">2</text>
  </g>
  <g begin="text">
   <text y="112.1" x="312.31" svgx:width="0.25" style="fill:rgb(0,0,0);font-family:TimesNewRomanPSMT;font-size:11.04px;stroke:none;"> </text>
  </g>
  <g begin="text">
   <text y="112.1" x="315.43,320.332,328.866,331.979,336.274,340.502,343.615,349.135,354.655,358.95,361.964,365.673,372.993,378.513,383.414,388.835,391.948,396.85,400.582,403.695,409.093,412.803,415.563,418.676,425.996,430.897,436.318,441.838,446.74,449.864,455.384,460.904,464.017,468.82,474.34,479.242,482.973,488.372,493.892,497.005,501.299,506.234,511.037,514.15,519.67,523.269" svgx:width="0.44,0.78,0.28,0.39,0.39,0.28,0.5,0.5,0.39,0.25,0.33,0.67,0.5,0.44,0.5,0.28,0.44,0.33,0.25,0.5,0.33,0.25,0.25,0.67,0.44,0.5,0.5,0.44,0.28,0.5,0.5,0.25,0.44,0.5,0.44,0.33,0.5,0.5,0.25,0.39,0.44,0.44,0.28,0.5,0.33,0.25" style="fill:rgb(0,0,0);font-family:TimesNewRomanPSMT;font-size:11.04px;stroke:none;">emissions (Chapter 2). Reducing energy sector </text>
  </g>
  <g begin="text">
   <text y="112.1" x="48.48" svgx:width="0.5" style="fill:rgb(0,0,0);font-family:TimesNewRomanPSMT;font-size:11.04px;stroke:none;">2</text>
  </g>
  <g begin="text">
   <text y="112.1" x="54.0" svgx:width="0.25" style="fill:rgb(0,0,0);font-family:TimesNewRomanPSMT;font-size:11.04px;stroke:none;"> </text>
  </g>
  <g begin="text">
   <text y="126.02" x="72.024,76.926,85.46,88.573,92.868,97.096,100.209,105.729,111.249,115.444,117.73,120.843,125.038,127.323,130.437,135.835,140.737,144.469,149.271,152.98,158.5,162.099,167.001,169.297,174.1,178.394,182.733,187.635,193.055,196.169,199.282,204.085,207.198,209.362,212.475,217.995,220.28,223.283,226.286,234.919,237.922,241.035,243.321,251.236,256.138,259.759,268.282,271.395,276.915,282.435" svgx:width="0.44,0.78,0.28,0.39,0.39,0.28,0.5,0.5,0.39,0.25,0.28,0.39,0.25,0.28,0.5,0.44,0.33,0.44,0.33,0.5,0.33,0.44,0.25,0.44,0.39,0.39,0.44,0.5,0.28,0.28,0.44,0.28,0.25,0.28,0.5,0.25,0.28,0.28,0.78,0.28,0.28,0.25,0.72,0.44,0.33,0.78,0.28,0.5,0.5,0.25" style="fill:rgb(0,0,0);font-family:TimesNewRomanPSMT;font-size:11.04px;stroke:none;">emissions is therefore essential to limit warming.</text>
  </g>
  <g begin="text">
   <text y="126.02" x="285.29" svgx:width="0.25" style="fill:rgb(0,0,0);font-family:TimesNewRomanPSMT;font-size:11.04px;stroke:none;"> </text>
  </g>
  <g begin="text">
   <text y="126.02" x="287.57,294.315,299.692,304.594,306.89,311.692,317.212,322.114,325.846,331.366,336.886,339.05,343.344,348.864,353.092,356.206,361.008,369.641,373.936,376.243,381.642,385.351,387.515,390.628,396.148,401.05,403.225,406.935,412.454,415.457,420.977,424.687,429.589,431.764,439.679,442.793,445.906,448.909,451.194,456.714,461.616,463.912,469.311,474.212,477.944,483.464,485.628,491.148,494.151,497.86,501.57,506.372,510.081,514.983,520.282,523.285" svgx:width="0.61,0.5,0.44,0.25,0.44,0.5,0.44,0.33,0.5,0.5,0.25,0.39,0.5,0.39,0.28,0.44,0.78,0.39,0.25,0.5,0.33,0.25,0.28,0.5,0.44,0.25,0.33,0.5,0.28,0.5,0.33,0.44,0.25,0.72,0.28,0.28,0.28,0.25,0.5,0.44,0.25,0.5,0.44,0.33,0.5,0.25,0.5,0.28,0.33,0.33,0.44,0.33,0.44,0.5,0.28,0.25" style="fill:rgb(0,0,0);font-family:TimesNewRomanPSMT;font-size:11.04px;stroke:none;">The energy systems of the future will be very different </text>
  </g>
  <g begin="text">
   <text y="126.02" x="48.48" svgx:width="0.5" style="fill:rgb(0,0,0);font-family:TimesNewRomanPSMT;font-size:11.04px;stroke:none;">3</text>
  </g>
  <g begin="text">
   <text y="126.02" x="54.0" svgx:width="0.25" style="fill:rgb(0,0,0);font-family:TimesNewRomanPSMT;font-size:11.04px;stroke:none;"> </text>
  </g>
  <g begin="text">
   <text y="139.82" x="72.024,75.733,79.443,84.841" svgx:width="0.33,0.33,0.5,0.78" style="fill:rgb(0,0,0);font-family:TimesNewRomanPSMT;font-size:11.04px;stroke:none;">from</text>
  </g>
  <g begin="text">
   <text y="139.82" x="93.504" svgx:width="0.25" style="fill:rgb(0,0,0);font-family:TimesNewRomanPSMT;font-size:11.04px;stroke:none;"> </text>
  </g>
  <g begin="text">
   <text y="139.82" x="98.184,101.297,106.817,112.216,116.51,121.445,124.205,126.115,131.635,135.234,137.994,140.026,143.139,148.659,154.057,158.959,164.479,167.239,169.171,172.284,175.883,178.643,180.553,183.667,189.187,193.989,196.749,198.78,206.696,212.216,215.815,218.929,224.449" svgx:width="0.28,0.5,0.5,0.39,0.44,0.25,0.55,0.5,0.33,0.25,0.55,0.28,0.5,0.5,0.44,0.5,0.25,0.55,0.28,0.33,0.25,0.55,0.28,0.5,0.44,0.25,0.55,0.72,0.5,0.33,0.28,0.5,0.25" style="fill:rgb(0,0,0);font-family:TimesNewRomanPSMT;font-size:11.04px;stroke:none;">those of today if the world </text>
  </g>
  <g begin="text">
   <text y="139.82" x="229.25,233.545,239.065,243.999,248.802,253.704,258.031,262.226,265.936,271.456,274.459,277.572,282.971,285.731,287.762,290.765,293.878,302.401,305.404,308.517" svgx:width="0.39,0.5,0.44,0.44,0.44,0.39,0.39,0.33,0.5,0.28,0.28,0.5,0.25,0.55,0.28,0.28,0.78,0.28,0.28,0.39" style="fill:rgb(0,0,0);font-family:TimesNewRomanPSMT;font-size:11.04px;stroke:none;">successfully limits</text>
  </g>
  <g begin="text">
   <text y="139.82" x="312.79" svgx:width="0.25" style="fill:rgb(0,0,0);font-family:TimesNewRomanPSMT;font-size:11.04px;stroke:none;"> </text>
  </g>
  <g begin="text">
   <text y="139.82" x="317.59,325.506,330.407,334.029,342.662,345.665,351.185,356.705,359.465,361.375,364.488,370.008" svgx:width="0.72,0.44,0.33,0.78,0.28,0.5,0.5,0.25,0.55,0.28,0.5,0.25" style="fill:rgb(0,0,0);font-family:TimesNewRomanPSMT;font-size:11.04px;stroke:none;">warming to </text>
  </g>
  <g begin="text">
   <text y="139.82" x="374.83,382.635,387.537,390.551,393.664,396.424,398.456,403.854,408.756,411.88,417.4,425.206" svgx:width="0.72,0.44,0.28,0.28,0.25,0.55,0.5,0.44,0.28,0.5,0.72,0.25" style="fill:rgb(0,0,0);font-family:TimesNewRomanPSMT;font-size:11.04px;stroke:none;">well below </text>
  </g>
  <g begin="text">
   <text y="139.82" x="430.03,435.429,439.745" svgx:width="0.5,0.4,0.67" style="fill:rgb(0,0,0);font-family:TimesNewRomanPSMT;font-size:11.04px;stroke:none;">2°C</text>
  </g>
  <g begin="text">
   <text y="139.82" x="447.1,449.86,452.62,454.651,461.397,466.917,471.819,475.517,481.037,486.436,489.19599999999997,491.227,499.143,502.145,505.259,508.262,511.022,513.053,518.573,523.375" svgx:width="0.25,0.25,0.55,0.61,0.5,0.44,0.33,0.5,0.5,0.25,0.55,0.72,0.28,0.28,0.28,0.25,0.55,0.5,0.44,0.25" style="fill:rgb(0,0,0);font-family:TimesNewRomanPSMT;font-size:11.04px;stroke:none;">. Energy will be </text>
  </g>
  <g begin="text">
   <text y="139.82" x="48.48" svgx:width="0.5" style="fill:rgb(0,0,0);font-family:TimesNewRomanPSMT;font-size:11.04px;stroke:none;">4</text>
  </g>
  <g begin="text">
   <text y="139.82" x="54.0" svgx:width="0.25" style="fill:rgb(0,0,0);font-family:TimesNewRomanPSMT;font-size:11.04px;stroke:none;"> </text>
  </g>
  <g begin="text">
   <text y="153.74" x="72.024,77.544,81.253,86.773,92.293,95.296,100.816" svgx:width="0.5,0.33,0.5,0.5,0.28,0.5,0.44" style="fill:rgb(0,0,0);font-family:TimesNewRomanPSMT;font-size:11.04px;stroke:none;">provide</text>
  </g>
  <g begin="text">
   <text y="153.74" x="105.74,111.26,114.02,116.537,121.439,126.86,132.38,137.9,142.702,146.411,149.525,154.327,159.847,162.607,165.124,170.026,175.546,181.066,183.605,189.125,193.32,198.222,203.742,206.281,209.395,214.915,217.432,222.952,225.955,229.664,233.263,238.165,241.896,246.699,252.219,255.332,257.849,265.765,270.667,276.187" svgx:width="0.5,0.25,0.25,0.44,0.5,0.5,0.5,0.44,0.33,0.28,0.44,0.5,0.25,0.25,0.44,0.5,0.5,0.25,0.5,0.39,0.44,0.5,0.25,0.28,0.5,0.25,0.5,0.28,0.33,0.33,0.44,0.33,0.44,0.5,0.28,0.25,0.72,0.44,0.5,0.39" style="fill:rgb(0,0,0);font-family:TimesNewRomanPSMT;font-size:11.04px;stroke:none;">d, converted, and used in different ways</text>
  </g>
  <g begin="text">
   <text y="153.74" x="280.61" svgx:width="0.25" style="fill:rgb(0,0,0);font-family:TimesNewRomanPSMT;font-size:11.04px;stroke:none;"> </text>
  </g>
  <g begin="text">
   <text y="153.74" x="283.01,286.123,291.643,296.545,302.065,304.604,307.607,310.72,313.116,316.229,320.524,323.074,326.187,331.707,337.106,342.008,347.528" svgx:width="0.28,0.5,0.44,0.5,0.25,0.28,0.28,0.25,0.28,0.39,0.25,0.28,0.5,0.5,0.44,0.5,0.25" style="fill:rgb(0,0,0);font-family:TimesNewRomanPSMT;font-size:11.04px;stroke:none;">than it is today </text>
  </g>
  <g begin="text">
   <text y="153.74" x="350.11" svgx:width="0.33" style="fill:rgb(0,0,0);font-family:TimesNewRomanPSMT;font-size:11.04px;stroke:none;">(</text>
  </g>
  <g begin="text">
   <text y="153.74" x="353.83,359.825,362.938,368.458,373.978,377.577,382.479" svgx:width="0.56,0.28,0.5,0.5,0.33,0.44,0.25" style="fill:rgb(0,0,0);font-family:TimesNewRomanPSMT;font-size:11.04px;stroke:none;">Figure </text>
  </g>
  <g begin="text">
   <text y="153.74" x="385.03" svgx:width="0.5" style="fill:rgb(0,0,0);font-family:TimesNewRomanPSMT;font-size:11.04px;stroke:none;">6</text>
  </g>
  <g begin="text">
   <text y="153.74" x="390.55" svgx:width="0.25" style="fill:rgb(0,0,0);font-family:TimesNewRomanPSMT;font-size:11.04px;stroke:none;">.</text>
  </g>
  <g begin="text">
   <text y="153.74" x="393.31" svgx:width="0.5" style="fill:rgb(0,0,0);font-family:TimesNewRomanPSMT;font-size:11.04px;stroke:none;">1</text>
  </g>
  <g begin="text">
   <text y="153.74" x="398.83,402.539,405.299,407.817,415.732,420.634,426.055,429.168,433.97,439.49,442.604,448.124,453.644,456.161,461.063,466.583,472.103,474.52,478.23,483.131,487.459,492.858,498.378,503.898,509.418,512.421,517.941,523.339" svgx:width="0.33,0.25,0.25,0.72,0.44,0.5,0.28,0.44,0.5,0.28,0.5,0.5,0.25,0.44,0.5,0.5,0.25,0.33,0.44,0.39,0.5,0.5,0.5,0.5,0.28,0.5,0.5,0.25" style="fill:rgb(0,0,0);font-family:TimesNewRomanPSMT;font-size:11.04px;stroke:none;">). Achieving and responding </text>
  </g>
  <g begin="text">
   <text y="153.74" x="48.48" svgx:width="0.5" style="fill:rgb(0,0,0);font-family:TimesNewRomanPSMT;font-size:11.04px;stroke:none;">5</text>
  </g>
  <g begin="text">
   <text y="153.74" x="54.0" svgx:width="0.25" style="fill:rgb(0,0,0);font-family:TimesNewRomanPSMT;font-size:11.04px;stroke:none;"> </text>
  </g>
  <g begin="text">
   <text y="167.66" x="72.024,75.137,80.657,83.417,86.531,91.929,96.831,101.159,106.06,108.721,113.623,119.143,124.067,129.465,134.985,139.887,144.215,146.975,152.373,156.083,160.885,165.179,170.114,175.513,178.626,182.921,185.681,190.505,196.025,198.785,201.899,210.421,215.941,219.651,224.453,228.748,232.976,236.089,241.609,246.511,249.172,252.881,257.783,263.303,268.724,273.625,276.385,281.905,285.637,288.275,293.177,298.697,303.511,306.624,309.627" svgx:width="0.28,0.5,0.25,0.28,0.5,0.44,0.39,0.44,0.25,0.44,0.5,0.44,0.5,0.5,0.44,0.39,0.25,0.5,0.33,0.44,0.39,0.44,0.5,0.28,0.39,0.25,0.44,0.5,0.25,0.28,0.78,0.5,0.33,0.44,0.39,0.39,0.28,0.5,0.44,0.25,0.33,0.44,0.5,0.5,0.44,0.25,0.5,0.33,0.25,0.44,0.5,0.44,0.28,0.28,0.44" style="fill:rgb(0,0,0);font-family:TimesNewRomanPSMT;font-size:11.04px;stroke:none;">to these changes presents an impressive range of challe</text>
  </g>
  <g begin="text">
   <text y="167.66" x="314.71,320.23,325.75,330.652" svgx:width="0.5,0.5,0.44,0.39" style="fill:rgb(0,0,0);font-family:TimesNewRomanPSMT;font-size:11.04px;stroke:none;">nges</text>
  </g>
  <g begin="text">
   <text y="167.66" x="334.99" svgx:width="0.25" style="fill:rgb(0,0,0);font-family:TimesNewRomanPSMT;font-size:11.04px;stroke:none;"> </text>
  </g>
  <g begin="text">
   <text y="167.66" x="337.63,342.532,348.052,353.572,356.332,361.852,367.272,372.792,378.312,381.911,385.025,390.545,395.943,399.056,402.059,405.173,410.074" svgx:width="0.44,0.5,0.5,0.25,0.5,0.5,0.5,0.5,0.33,0.28,0.5,0.5,0.28,0.28,0.28,0.44,0.39" style="fill:rgb(0,0,0);font-family:TimesNewRomanPSMT;font-size:11.04px;stroke:none;">and opportunities</text>
  </g>
  <g begin="text">
   <text y="167.66" x="414.43" svgx:width="0.25" style="fill:rgb(0,0,0);font-family:TimesNewRomanPSMT;font-size:11.04px;stroke:none;">.</text>
  </g>
  <g begin="text">
   <text y="167.66" x="417.07" svgx:width="0.25" style="fill:rgb(0,0,0);font-family:TimesNewRomanPSMT;font-size:11.04px;stroke:none;"> </text>
  </g>
  <g begin="text">
   <text y="167.66" x="48.48" svgx:width="0.5" style="fill:rgb(0,0,0);font-family:TimesNewRomanPSMT;font-size:11.04px;stroke:none;">6</text>
  </g>
  <g begin="text">
   <text y="167.66" x="54.0" svgx:width="0.25" style="fill:rgb(0,0,0);font-family:TimesNewRomanPSMT;font-size:11.04px;stroke:none;"> </text>
  </g>
  <g begin="text">
   <text y="429.29" x="523.54" svgx:width="0.25" style="fill:rgb(0,0,0);font-family:TimesNewRomanPSMT;font-size:11.04px;stroke:none;"> </text>
  </g>
  <g begin="text">
   <text y="429.29" x="48.48" svgx:width="0.5" style="fill:rgb(0,0,0);font-family:TimesNewRomanPSMT;font-size:11.04px;stroke:none;">7</text>
  </g>
  <g begin="text">
   <text y="429.29" x="54.0" svgx:width="0.25" style="fill:rgb(0,0,0);font-family:TimesNewRomanPSMT;font-size:11.04px;stroke:none;"> </text>
  </g>
  <g begin="text">
   <text y="638.26" x="523.54" svgx:width="0.25" style="fill:rgb(0,0,0);font-family:TimesNewRomanPSMT;font-size:11.04px;stroke:none;"> </text>
  </g>
  <g begin="text">
   <text y="638.26" x="48.48" svgx:width="0.5" style="fill:rgb(0,0,0);font-family:TimesNewRomanPSMT;font-size:11.04px;stroke:none;">8</text>
  </g>
  <g begin="text">
   <text y="638.26" x="54.0" svgx:width="0.25" style="fill:rgb(0,0,0);font-family:TimesNewRomanPSMT;font-size:11.04px;stroke:none;"> </text>
  </g>
  <rect style="fill:pink;opacity:0.2;stroke:blue;stroke-width:0.3;" x="72.0" y="135.36" height="251.65" width="451.3" title="8"/>
  <text y="135.36" class="image" id="image.8.1" width="451" height="251" x="72.0" style="font-size:5.0px;">image.8.1.72_523.135_387</text>
  <rect style="fill:pink;opacity:0.2;stroke:blue;stroke-width:0.3;" x="72.0" y="394.62" height="201.65" width="451.3" title="8"/>
  <text y="394.62" class="image" id="image.8.2" width="451" height="201" x="72.0" style="font-size:5.0px;">image.8.2.72_523.395_596</text>
  <g begin="text">
   <text y="602.109" transform="matrix(0.70711,-0.70711,0.70711,0.70711,-395.12956,250.29085)" rotateDegrees="-45" matrix="[29.803345,29.803345,-29.803345,29.803345,104.563255,239.8115]" x="104.563" svgx:width="0.67" style="fill:rgb(0,0,0);font-family:Arial;font-size:42.15px;stroke:none;">A</text>
   <text y="582.23" transform="matrix(0.70711,-0.70711,0.70711,0.70711,-375.25056,258.525)" rotateDegrees="-45" matrix="[29.803345,29.803345,-29.803345,29.803345,124.442085,259.6903]" x="124.442" svgx:width="0.72" style="fill:rgb(0,0,0);font-family:Arial;font-size:42.15px;stroke:none;">C</text>
   <text y="560.712" transform="matrix(0.70711,-0.70711,0.70711,0.70711,-353.73256,267.43805)" rotateDegrees="-45" matrix="[29.803345,29.803345,-29.803345,29.803345,145.9601,281.20834]" x="145.96" svgx:width="0.72" style="fill:rgb(0,0,0);font-family:Arial;font-size:42.15px;stroke:none;">C</text>
   <text y="539.194" transform="matrix(0.70711,-0.70711,0.70711,0.70711,-332.21456,276.3511)" rotateDegrees="-45" matrix="[29.803345,29.803345,-29.803345,29.803345,167.47812,302.72635]" x="167.478" svgx:width="0.67" style="fill:rgb(0,0,0);font-family:Arial;font-size:42.15px;stroke:none;">E</text>
   <text y="519.315" transform="matrix(0.70711,-0.70711,0.70711,0.70711,-312.33556,284.58525)" rotateDegrees="-45" matrix="[29.803345,29.803345,-29.803345,29.803345,187.35693,322.60516]" x="187.357" svgx:width="0.67" style="fill:rgb(0,0,0);font-family:Arial;font-size:42.15px;stroke:none;">P</text>
   <text y="499.436" transform="matrix(0.70711,-0.70711,0.70711,0.70711,-292.45656,292.8194)" rotateDegrees="-45" matrix="[29.803345,29.803345,-29.803345,29.803345,207.23578,342.484]" x="207.236" svgx:width="0.61" style="fill:rgb(0,0,0);font-family:Arial;font-size:42.15px;stroke:none;">T</text>
   <text y="481.226" transform="matrix(0.70711,-0.70711,0.70711,0.70711,-274.24656,300.36223)" rotateDegrees="-45" matrix="[29.803345,29.803345,-29.803345,29.803345,225.44562,360.69385]" x="225.446" svgx:width="0.67" style="fill:rgb(0,0,0);font-family:Arial;font-size:42.15px;stroke:none;">E</text>
   <text y="461.347" transform="matrix(0.70711,-0.70711,0.70711,0.70711,-254.36786,308.59567)" rotateDegrees="-45" matrix="[29.803345,29.803345,-29.803345,29.803345,245.32443,380.57266]" x="245.324" svgx:width="0.72" style="fill:rgb(0,0,0);font-family:Arial;font-size:42.15px;stroke:none;">D</text>
   <text y="439.829" transform="matrix(0.70711,-0.70711,0.70711,0.70711,-232.84986,317.50872)" rotateDegrees="-45" matrix="[29.803345,29.803345,-29.803345,29.803345,266.84247,402.0907]" x="266.842" svgx:width="0.28" style="fill:rgb(0,0,0);font-family:Arial;font-size:42.15px;stroke:none;"> </text>
   <text y="431.54" transform="matrix(0.70711,-0.70711,0.70711,0.70711,-224.56056,320.94284)" rotateDegrees="-45" matrix="[29.803345,29.803345,-29.803345,29.803345,275.13153,410.37976]" x="275.132" svgx:width="0.67" style="fill:rgb(0,0,0);font-family:Arial;font-size:42.15px;stroke:none;">V</text>
   <text y="411.661" transform="matrix(0.70711,-0.70711,0.70711,0.70711,-204.68186,329.17629)" rotateDegrees="-45" matrix="[29.803345,29.803345,-29.803345,29.803345,295.0103,430.25858]" x="295.01" svgx:width="0.67" style="fill:rgb(0,0,0);font-family:Arial;font-size:42.15px;stroke:none;">E</text>
   <text y="391.783" transform="matrix(0.70711,-0.70711,0.70711,0.70711,-184.80356,337.41073)" rotateDegrees="-45" matrix="[29.803345,29.803345,-29.803345,29.803345,314.88916,450.1374]" x="314.889" svgx:width="0.72" style="fill:rgb(0,0,0);font-family:Arial;font-size:42.15px;stroke:none;">R</text>
   <text y="370.265" transform="matrix(0.70711,-0.70711,0.70711,0.70711,-163.28556,346.32378)" rotateDegrees="-45" matrix="[29.803345,29.803345,-29.803345,29.803345,336.40717,471.65543]" x="336.407" svgx:width="0.67" style="fill:rgb(0,0,0);font-family:Arial;font-size:42.15px;stroke:none;">S</text>
   <text y="350.386" transform="matrix(0.70711,-0.70711,0.70711,0.70711,-143.40656,354.55793)" rotateDegrees="-45" matrix="[29.803345,29.803345,-29.803345,29.803345,356.286,491.53424]" x="356.286" svgx:width="0.28" style="fill:rgb(0,0,0);font-family:Arial;font-size:42.15px;stroke:none;">I</text>
   <text y="342.1" transform="matrix(0.70711,-0.70711,0.70711,0.70711,-135.12086,357.9894)" rotateDegrees="-45" matrix="[29.803345,29.803345,-29.803345,29.803345,364.57135,499.81958]" x="364.571" svgx:width="0.78" style="fill:rgb(0,0,0);font-family:Arial;font-size:42.15px;stroke:none;">O</text>
   <text y="318.913" transform="matrix(0.70711,-0.70711,0.70711,0.70711,-111.93386,367.59377)" rotateDegrees="-45" matrix="[29.803345,29.803345,-29.803345,29.803345,387.7583,523.0066]" x="387.758" svgx:width="0.72" style="fill:rgb(0,0,0);font-family:Arial;font-size:42.15px;stroke:none;">N</text>
   <text y="297.395" transform="matrix(0.70711,-0.70711,0.70711,0.70711,-90.41586,376.50681)" rotateDegrees="-45" matrix="[29.803345,29.803345,-29.803345,29.803345,409.27637,544.5246]" x="409.276" svgx:width="0.28" style="fill:rgb(0,0,0);font-family:Arial;font-size:42.15px;stroke:none;"> </text>
   <text y="637.872" transform="matrix(0.70711,-0.70711,0.70711,0.70711,-409.94279,286.05456)" rotateDegrees="-45" matrix="[29.803345,29.803345,-29.803345,29.803345,140.32727,204.04747]" x="140.327" svgx:width="0.67" style="fill:rgb(0,0,0);font-family:Arial;font-size:42.15px;stroke:none;">S</text>
   <text y="617.994" transform="matrix(0.70711,-0.70711,0.70711,0.70711,-390.0645,294.289)" rotateDegrees="-45" matrix="[29.803345,29.803345,-29.803345,29.803345,160.2061,223.9263]" x="160.206" svgx:width="0.72" style="fill:rgb(0,0,0);font-family:Arial;font-size:42.15px;stroke:none;">U</text>
   <text y="596.476" transform="matrix(0.70711,-0.70711,0.70711,0.70711,-368.5465,303.20205)" rotateDegrees="-45" matrix="[29.803345,29.803345,-29.803345,29.803345,181.72412,245.4443]" x="181.724" svgx:width="0.67" style="fill:rgb(0,0,0);font-family:Arial;font-size:42.15px;stroke:none;">B</text>
   <text y="576.597" transform="matrix(0.70711,-0.70711,0.70711,0.70711,-348.6675,311.4362)" rotateDegrees="-45" matrix="[29.803345,29.803345,-29.803345,29.803345,201.60294,265.32315]" x="201.603" svgx:width="0.5" style="fill:rgb(0,0,0);font-family:Arial;font-size:42.15px;stroke:none;">J</text>
   <text y="561.695" transform="matrix(0.70711,-0.70711,0.70711,0.70711,-333.7655,317.60881)" rotateDegrees="-45" matrix="[29.803345,29.803345,-29.803345,29.803345,216.50462,280.22482]" x="216.505" svgx:width="0.67" style="fill:rgb(0,0,0);font-family:Arial;font-size:42.15px;stroke:none;">E</text>
   <text y="541.816" transform="matrix(0.70711,-0.70711,0.70711,0.70711,-313.88679,325.84225)" rotateDegrees="-45" matrix="[29.803345,29.803345,-29.803345,29.803345,236.38344,300.10364]" x="236.383" svgx:width="0.72" style="fill:rgb(0,0,0);font-family:Arial;font-size:42.15px;stroke:none;">C</text>
   <text y="520.298" transform="matrix(0.70711,-0.70711,0.70711,0.70711,-292.36879,334.7553)" rotateDegrees="-45" matrix="[29.803345,29.803345,-29.803345,29.803345,257.90146,321.62164]" x="257.901" svgx:width="0.61" style="fill:rgb(0,0,0);font-family:Arial;font-size:42.15px;stroke:none;">T</text>
   <text y="502.089" transform="matrix(0.70711,-0.70711,0.70711,0.70711,-274.1595,342.29842)" rotateDegrees="-45" matrix="[29.803345,29.803345,-29.803345,29.803345,276.1113,339.83148]" x="276.111" svgx:width="0.28" style="fill:rgb(0,0,0);font-family:Arial;font-size:42.15px;stroke:none;"> </text>
   <text y="493.803" transform="matrix(0.70711,-0.70711,0.70711,0.70711,-265.8735,345.7306)" rotateDegrees="-45" matrix="[29.803345,29.803345,-29.803345,29.803345,284.39664,348.11682]" x="284.397" svgx:width="0.61" style="fill:rgb(0,0,0);font-family:Arial;font-size:42.15px;stroke:none;">T</text>
   <text y="475.593" transform="matrix(0.70711,-0.70711,0.70711,0.70711,-247.66379,353.27272)" rotateDegrees="-45" matrix="[29.803345,29.803345,-29.803345,29.803345,302.60648,366.32666]" x="302.606" svgx:width="0.78" style="fill:rgb(0,0,0);font-family:Arial;font-size:42.15px;stroke:none;">O</text>
   <text y="452.406" transform="matrix(0.70711,-0.70711,0.70711,0.70711,-224.47679,362.87709)" rotateDegrees="-45" matrix="[29.803345,29.803345,-29.803345,29.803345,325.79346,389.51367]" x="325.793" svgx:width="0.28" style="fill:rgb(0,0,0);font-family:Arial;font-size:42.15px;stroke:none;"> </text>
   <text y="444.136" transform="matrix(0.70711,-0.70711,0.70711,0.70711,-216.2065,366.30334)" rotateDegrees="-45" matrix="[29.803345,29.803345,-29.803345,29.803345,334.0639,397.78412]" x="334.064" svgx:width="0.61" style="fill:rgb(0,0,0);font-family:Arial;font-size:42.15px;stroke:none;">F</text>
   <text y="425.926" transform="matrix(0.70711,-0.70711,0.70711,0.70711,-197.9965,373.84617)" rotateDegrees="-45" matrix="[29.803345,29.803345,-29.803345,29.803345,352.27374,415.99396]" x="352.274" svgx:width="0.28" style="fill:rgb(0,0,0);font-family:Arial;font-size:42.15px;stroke:none;">I</text>
   <text y="417.641" transform="matrix(0.70711,-0.70711,0.70711,0.70711,-189.7115,377.27793)" rotateDegrees="-45" matrix="[29.803345,29.803345,-29.803345,29.803345,360.55908,424.2793]" x="360.559" svgx:width="0.72" style="fill:rgb(0,0,0);font-family:Arial;font-size:42.15px;stroke:none;">N</text>
   <text y="396.123" transform="matrix(0.70711,-0.70711,0.70711,0.70711,-168.1935,386.19098)" rotateDegrees="-45" matrix="[29.803345,29.803345,-29.803345,29.803345,382.0771,445.7973]" x="382.077" svgx:width="0.67" style="fill:rgb(0,0,0);font-family:Arial;font-size:42.15px;stroke:none;">A</text>
   <text y="376.244" transform="matrix(0.70711,-0.70711,0.70711,0.70711,-148.3145,394.42513)" rotateDegrees="-45" matrix="[29.803345,29.803345,-29.803345,29.803345,401.95593,465.67615]" x="401.956" svgx:width="0.56" style="fill:rgb(0,0,0);font-family:Arial;font-size:42.15px;stroke:none;">L</text>
   <text y="359.673" transform="matrix(0.70711,-0.70711,0.70711,0.70711,-131.7435,401.28906)" rotateDegrees="-45" matrix="[29.803345,29.803345,-29.803345,29.803345,418.5266,482.24677]" x="418.527" svgx:width="0.28" style="fill:rgb(0,0,0);font-family:Arial;font-size:42.15px;stroke:none;"> </text>
   <text y="351.394" transform="matrix(0.70711,-0.70711,0.70711,0.70711,-123.4645,404.71834)" rotateDegrees="-45" matrix="[29.803345,29.803345,-29.803345,29.803345,426.80573,490.52588]" x="426.806" svgx:width="0.67" style="fill:rgb(0,0,0);font-family:Arial;font-size:42.15px;stroke:none;">E</text>
   <text y="331.515" transform="matrix(0.70711,-0.70711,0.70711,0.70711,-103.5855,412.95249)" rotateDegrees="-45" matrix="[29.803345,29.803345,-29.803345,29.803345,446.68457,510.40472]" x="446.685" svgx:width="0.72" style="fill:rgb(0,0,0);font-family:Arial;font-size:42.15px;stroke:none;">D</text>
   <text y="309.997" transform="matrix(0.70711,-0.70711,0.70711,0.70711,-82.0675,421.86554)" rotateDegrees="-45" matrix="[29.803345,29.803345,-29.803345,29.803345,468.2025,531.9227]" x="468.203" svgx:width="0.28" style="fill:rgb(0,0,0);font-family:Arial;font-size:42.15px;stroke:none;">I</text>
   <text y="301.712" transform="matrix(0.70711,-0.70711,0.70711,0.70711,-73.7825,425.29729)" rotateDegrees="-45" matrix="[29.803345,29.803345,-29.803345,29.803345,476.48785,540.20807]" x="476.488" svgx:width="0.61" style="fill:rgb(0,0,0);font-family:Arial;font-size:42.15px;stroke:none;">T</text>
   <text y="283.502" transform="matrix(0.70711,-0.70711,0.70711,0.70711,-55.5725,432.84012)" rotateDegrees="-45" matrix="[29.803345,29.803345,-29.803345,29.803345,494.6977,558.4179]" x="494.698" svgx:width="0.67" style="fill:rgb(0,0,0);font-family:Arial;font-size:42.15px;stroke:none;">S</text>
  </g>
 </g>
</svg>
