<?xml version="1.0" encoding="UTF-8"?>
<svg height="807.04" width="2582.0" xmlns="http://www.w3.org/2000/svg">
 <g id="page" xmlns:svgx="http://www.xml-cml.org/schema/svgx">
  <g begin="text">
   <text y="45.72" x="72.024,78.162,81.231,86.751,91.587,94.7,97.46,105.376,110.896,116.416,121.218,124.928,130.448,138.971,143.872,149.392,152.517,155.277,163.082,166.195,170.39,173.504,177.103,180.216,185.736,191.135,194.137,197.251,202.771" svgx:width="0.56,0.28,0.5,0.44,0.28,0.25,0.72,0.5,0.5,0.44,0.33,0.5,0.78,0.44,0.5,0.28,0.25,0.72,0.28,0.39,0.28,0.33,0.28,0.5,0.5,0.28,0.28,0.5,0.5" style="fill:rgb(0,0,0);font-family:TimesNewRomanPSMT;font-size:11.04px;stroke:none;">Final Government Distribution</text>
  </g>
  <g begin="text">
   <text y="45.72" x="208.37" svgx:width="0.25" style="fill:rgb(0,0,0);font-family:TimesNewRomanPSMT;font-size:11.04px;stroke:none;"> </text>
  </g>
  <g begin="text">
   <text y="45.72" x="211.01" svgx:width="0.25" style="fill:rgb(0,0,0);font-family:TimesNewRomanPSMT;font-size:11.04px;stroke:none;"> </text>
  </g>
  <g begin="text">
   <text y="45.72" x="216.05" svgx:width="0.25" style="fill:rgb(0,0,0);font-family:TimesNewRomanPSMT;font-size:11.04px;stroke:none;"> </text>
  </g>
  <g begin="text">
   <text y="45.72" x="252.05" svgx:width="0.25" style="fill:rgb(0,0,0);font-family:TimesNewRomanPSMT;font-size:11.04px;stroke:none;"> </text>
  </g>
  <g begin="text">
   <text y="45.72" x="288.05,295.369,300.889,305.791,311.311,314.436,319.238,322.947,325.707" svgx:width="0.67,0.5,0.44,0.5,0.28,0.44,0.33,0.25,0.5" style="fill:rgb(0,0,0);font-family:TimesNewRomanPSMT;font-size:11.04px;stroke:none;">Chapter 6</text>
  </g>
  <g begin="text">
   <text y="45.72" x="331.15" svgx:width="0.25" style="fill:rgb(0,0,0);font-family:TimesNewRomanPSMT;font-size:11.04px;stroke:none;"> </text>
  </g>
  <g begin="text">
   <text y="45.72" x="360.07" svgx:width="0.25" style="fill:rgb(0,0,0);font-family:TimesNewRomanPSMT;font-size:11.04px;stroke:none;"> </text>
  </g>
  <g begin="text">
   <text y="45.72" x="396.07" svgx:width="0.25" style="fill:rgb(0,0,0);font-family:TimesNewRomanPSMT;font-size:11.04px;stroke:none;"> </text>
  </g>
  <g begin="text">
   <text y="45.72" x="432.07,435.669,441.807,449.105,456.424" svgx:width="0.33,0.56,0.67,0.67,0.25" style="fill:rgb(0,0,0);font-family:TimesNewRomanPSMT;font-size:11.04px;stroke:none;">IPCC </text>
  </g>
  <g begin="text">
   <text y="45.72" x="459.22,469.642,477.613,481.289,484.899,488.498,491.258,499.174,506.493" svgx:width="0.94,0.72,0.33,0.33,0.33,0.25,0.72,0.67,0.5" style="fill:rgb(0,0,0);font-family:TimesNewRomanPSMT;font-size:11.04px;stroke:none;">WGIII AR6</text>
  </g>
  <g begin="text">
   <text y="45.72" x="512.14" svgx:width="0.25" style="fill:rgb(0,0,0);font-family:TimesNewRomanPSMT;font-size:11.04px;stroke:none;"> </text>
  </g>
  <g begin="text">
   <text y="783.096" x="72.024,79.94,85.46,88.22,96.135,101.655,105.365,108.125,116.04,119.154,122.753,127.655,130.415,133.075,141.708,147.847,153.367,157.043,161.868,164.628,170.148,175.049,177.809,185.78,188.75,192.945,196.655,201.556,204.681,210.819,216.803,220.512" svgx:width="0.72,0.5,0.25,0.72,0.5,0.33,0.25,0.72,0.28,0.33,0.44,0.25,0.25,0.78,0.56,0.5,0.33,0.44,0.25,0.5,0.44,0.25,0.72,0.28,0.39,0.33,0.44,0.28,0.56,0.56,0.33,0.44" style="fill:rgb(0,0,0);font-family:TimesNewRomanPS-BoldMT;font-size:11.04px;stroke:none;">Do Not Cite, Quote or Distribute</text>
  </g>
  <g begin="text">
   <text y="783.096" x="225.41" svgx:width="0.25" style="fill:rgb(0,0,0);font-family:TimesNewRomanPS-BoldMT;font-size:11.04px;stroke:none;"> </text>
  </g>
  <g begin="text">
   <text y="783.096" x="284.81" svgx:width="0.5" style="fill:rgb(0,0,0);font-family:TimesNewRomanPSMT;font-size:11.04px;stroke:none;">6</text>
  </g>
  <g begin="text">
   <text y="783.096" x="290.33" svgx:width="0.33" style="fill:rgb(0,0,0);font-family:TimesNewRomanPS-BoldMT;font-size:11.04px;stroke:none;">-</text>
  </g>
  <g begin="text">
   <text y="783.096" x="294.05,299.57,305.09" svgx:width="0.5,0.5,0.5" style="fill:rgb(0,0,0);font-family:TimesNewRomanPSMT;font-size:11.04px;stroke:none;">105</text>
  </g>
  <g begin="text">
   <text y="783.096" x="310.61" svgx:width="0.25" style="fill:rgb(0,0,0);font-family:TimesNewRomanPSMT;font-size:11.04px;stroke:none;"> </text>
  </g>
  <g begin="text">
   <text y="783.096" x="313.27" svgx:width="0.25" style="fill:rgb(0,0,0);font-family:TimesNewRomanPSMT;font-size:11.04px;stroke:none;"> </text>
  </g>
  <g begin="text">
   <text y="783.096" x="450.1,456.845,462.365,465.435,470.259,473.372,476.132,481.652,486.554,491.975,496.876,501.204,504.207" svgx:width="0.61,0.5,0.28,0.44,0.28,0.25,0.5,0.44,0.5,0.44,0.39,0.28,0.25" style="fill:rgb(0,0,0);font-family:TimesNewRomanPSMT;font-size:11.04px;stroke:none;">Total pages: </text>
  </g>
  <g begin="text">
   <text y="783.096" x="506.98,512.5,518.02" svgx:width="0.5,0.5,0.5" style="fill:rgb(0,0,0);font-family:TimesNewRomanPSMT;font-size:11.04px;stroke:none;">217</text>
  </g>
  <g begin="text">
   <text y="783.096" x="523.42" svgx:width="0.25" style="fill:rgb(0,0,0);font-family:TimesNewRomanPSMT;font-size:9.96px;stroke:none;"> </text>
  </g>
  <g begin="text">
   <text y="797.04" x="72.024" svgx:width="0.25" style="fill:rgb(0,0,0);font-family:TimesNewRomanPSMT;font-size:11.04px;stroke:none;"> </text>
  </g>
  <g begin="text">
   <text y="82.32" x="72.024,77.544,82.446,87.37,92.271,97.692,102.594,106.921,109.681" svgx:width="0.5,0.44,0.44,0.44,0.5,0.44,0.39,0.25,0.25" style="fill:rgb(0,0,0);font-family:TimesNewRomanPSMT;font-size:11.04px;stroke:none;">decades. </text>
  </g>
  <g begin="text">
   <text y="82.32" x="48.48" svgx:width="0.5" style="fill:rgb(0,0,0);font-family:TimesNewRomanPSMT;font-size:11.04px;stroke:none;">1</text>
  </g>
  <g begin="text">
   <text y="82.32" x="54.0" svgx:width="0.25" style="fill:rgb(0,0,0);font-family:TimesNewRomanPSMT;font-size:11.04px;stroke:none;"> </text>
  </g>
  <g begin="text">
   <text y="249.74" x="523.54" svgx:width="0.25" style="fill:rgb(0,0,0);font-family:TimesNewRomanPSMT;font-size:11.04px;stroke:none;"> </text>
  </g>
  <g begin="text">
   <text y="249.74" x="48.48" svgx:width="0.5" style="fill:rgb(0,0,0);font-family:TimesNewRomanPSMT;font-size:11.04px;stroke:none;">2</text>
  </g>
  <g begin="text">
   <text y="249.74" x="54.0" svgx:width="0.25" style="fill:rgb(0,0,0);font-family:TimesNewRomanPSMT;font-size:11.04px;stroke:none;"> </text>
  </g>
  <g begin="text">
   <text y="267.29" x="72.024" svgx:width="0.25" style="fill:rgb(0,0,0);font-family:TimesNewRomanPSMT;font-size:11.04px;stroke:none;"> </text>
  </g>
  <g begin="text">
   <text y="267.29" x="48.48" svgx:width="0.5" style="fill:rgb(0,0,0);font-family:TimesNewRomanPSMT;font-size:11.04px;stroke:none;">3</text>
  </g>
  <g begin="text">
   <text y="267.29" x="54.0" svgx:width="0.25" style="fill:rgb(0,0,0);font-family:TimesNewRomanPSMT;font-size:11.04px;stroke:none;"> </text>
  </g>
  <g begin="text">
   <text y="287.21" x="72.024" svgx:width="0.25" style="fill:rgb(0,0,0);font-family:TimesNewRomanPSMT;font-size:11.04px;stroke:none;"> </text>
  </g>
  <g begin="text">
   <text y="287.21" x="48.48" svgx:width="0.5" style="fill:rgb(0,0,0);font-family:TimesNewRomanPSMT;font-size:11.04px;stroke:none;">4</text>
  </g>
  <g begin="text">
   <text y="287.21" x="54.0" svgx:width="0.25" style="fill:rgb(0,0,0);font-family:TimesNewRomanPSMT;font-size:11.04px;stroke:none;"> </text>
  </g>
  <g begin="text">
   <text y="306.17" x="83.904,90.508,95.537" svgx:width="0.67,0.5,0.5" style="fill:rgb(0,0,0);font-family:TimesNewRomanPS-BoldMT;font-size:9.96px;stroke:none;">Box</text>
  </g>
  <g begin="text">
   <text y="306.17" x="100.58" svgx:width="0.25" style="fill:rgb(0,0,0);font-family:TimesNewRomanPS-BoldMT;font-size:9.96px;stroke:none;"> </text>
  </g>
  <g begin="text">
   <text y="306.17" x="103.1,108.13,110.64,115.669,120.59,123.1,125.61,131.715,134.484,139.504,145.042,149.464,153.886,156.416,161.446,163.956,167.8,170.569,173.338,178.836,182.68,186.027,190.449,195.499,198.845,201.614,206.525" svgx:width="0.5,0.25,0.5,0.5,0.25,0.25,0.61,0.28,0.5,0.56,0.44,0.44,0.25,0.5,0.25,0.39,0.28,0.28,0.56,0.39,0.33,0.44,0.5,0.33,0.28,0.5,0.44" style="fill:rgb(0,0,0);font-family:TimesNewRomanPS-BoldMT;font-size:9.96px;stroke:none;">6.11, Figure 1 Illustrative</text>
  </g>
  <g begin="text">
   <text y="306.17" x="211.13" svgx:width="0.25" style="fill:rgb(0,0,0);font-family:TimesNewRomanPS-BoldMT;font-size:9.96px;stroke:none;"> </text>
  </g>
  <g begin="text">
   <text y="306.17" x="213.65,223.012,225.781,229.118,231.887,236.907,241.936,245.283,248.052,253.072" svgx:width="0.94,0.28,0.33,0.28,0.5,0.5,0.33,0.28,0.5,0.56" style="fill:rgb(0,0,0);font-family:TimesNewRomanPS-BoldMT;font-size:9.96px;stroke:none;">Mitigation</text>
  </g>
  <g begin="text">
   <text y="306.17" x="258.65" svgx:width="0.25" style="fill:rgb(0,0,0);font-family:TimesNewRomanPS-BoldMT;font-size:9.96px;stroke:none;"> </text>
  </g>
  <g begin="text">
   <text y="306.17" x="261.17,267.275,272.305,275.652,281.19,288.381,293.401,298.43,300.831,305.861,308.37" svgx:width="0.61,0.5,0.33,0.56,0.72,0.5,0.5,0.25,0.5,0.25,0.5" style="fill:rgb(0,0,0);font-family:TimesNewRomanPS-BoldMT;font-size:9.96px;stroke:none;">Pathway 2.0</text>
  </g>
  <g begin="text">
   <text y="306.17" x="313.51" svgx:width="0.33" style="fill:rgb(0,0,0);font-family:TimesNewRomanPS-BoldMT;font-size:9.96px;stroke:none;">-</text>
  </g>
  <g begin="text">
   <text y="306.17" x="316.87,324.061,328.394,333.424,336.77,339.28,345.883,350.913,354.26,357.029,362.566,365.056,372.248,380.654,385.076,389.528,392.297,396.719,401.759,404.269,412.566,415.056,422.247,427.297,431.719,434.488,440.025,445.563,449.985,455.005" svgx:width="0.72,0.44,0.5,0.33,0.25,0.67,0.5,0.33,0.28,0.56,0.25,0.72,0.83,0.44,0.44,0.28,0.44,0.5,0.25,0.83,0.25,0.72,0.5,0.44,0.28,0.56,0.56,0.44,0.5,0.56" style="fill:rgb(0,0,0);font-family:TimesNewRomanPS-BoldMT;font-size:9.96px;stroke:none;">Neg: Latin America &amp; Caribbean</text>
  </g>
  <g begin="text">
   <text y="306.17" x="460.66" svgx:width="0.25" style="fill:rgb(0,0,0);font-family:TimesNewRomanPS-BoldMT;font-size:9.96px;stroke:none;"> </text>
  </g>
  <g begin="text">
   <text y="306.17" x="463.18,466.527,473.13,480.321,489.694,493.04" svgx:width="0.33,0.67,0.72,0.94,0.33,0.25" style="fill:rgb(0,0,0);font-family:TimesNewRomanPS-BoldMT;font-size:9.96px;stroke:none;">(LAM) </text>
  </g>
  <g begin="text">
   <text y="306.17" x="495.58,498.349,503.887,506.377,511.406" svgx:width="0.28,0.56,0.25,0.5,0.25" style="fill:rgb(0,0,0);font-family:TimesNewRomanPS-BoldMT;font-size:9.96px;stroke:none;">in a </text>
  </g>
  <g begin="text">
   <text y="306.17" x="48.48" svgx:width="0.5" style="fill:rgb(0,0,0);font-family:TimesNewRomanPSMT;font-size:11.04px;stroke:none;">5</text>
  </g>
  <g begin="text">
   <text y="306.17" x="54.0" svgx:width="0.25" style="fill:rgb(0,0,0);font-family:TimesNewRomanPSMT;font-size:11.04px;stroke:none;"> </text>
  </g>
  <g begin="text">
   <text y="318.77" x="74.424,77.193,79.962,85.569,89.991,92.76,97.8,100.31,105.848,110.27,113.039,118.059,125.25" svgx:width="0.28,0.28,0.56,0.44,0.28,0.5,0.25,0.56,0.44,0.28,0.5,0.72,0.25" style="fill:rgb(0,0,0);font-family:TimesNewRomanPS-BoldMT;font-size:9.96px;stroke:none;">likely below </text>
  </g>
  <g begin="text">
   <text y="318.77" x="127.82,132.85,136.834,144.025,146.515,150.389,154.812,159.234,164.772,169.801,174.224,176.993,182.032,184.542,187.889,194.492,201.683,211.056,213.566,219.103,223.526" svgx:width="0.5,0.4,0.72,0.25,0.39,0.44,0.44,0.56,0.5,0.44,0.28,0.5,0.25,0.33,0.67,0.72,0.94,0.25,0.56,0.44,0.33" style="fill:rgb(0,0,0);font-family:TimesNewRomanPS-BoldMT;font-size:9.96px;stroke:none;">2°C scenario (LAM net</text>
  </g>
  <g begin="text">
   <text y="318.77" x="226.97" svgx:width="0.33" style="fill:rgb(0,0,0);font-family:TimesNewRomanPS-BoldMT;font-size:9.96px;stroke:none;">-</text>
  </g>
  <g begin="text">
   <text y="318.77" x="230.33,234.752,239.204,243.627,248.676,251.186,255.608,260.061,265.09,270.628,275.638,284.024" svgx:width="0.44,0.44,0.44,0.5,0.25,0.44,0.44,0.5,0.56,0.5,0.83,0.5" style="fill:rgb(0,0,0);font-family:TimesNewRomanPS-BoldMT;font-size:9.96px;stroke:none;">zero economy</text>
  </g>
  <g begin="text">
   <text y="318.77" x="289.13" svgx:width="0.25" style="fill:rgb(0,0,0);font-family:TimesNewRomanPS-BoldMT;font-size:9.96px;stroke:none;"> </text>
  </g>
  <g begin="text">
   <text y="318.77" x="291.53,296.56,301.59,306.51" svgx:width="0.5,0.5,0.5,0.5" style="fill:rgb(0,0,0);font-family:TimesNewRomanPS-BoldMT;font-size:9.96px;stroke:none;">2040</text>
  </g>
  <g begin="text">
   <text y="318.77" x="311.59" svgx:width="0.33" style="fill:rgb(0,0,0);font-family:TimesNewRomanPS-BoldMT;font-size:9.96px;stroke:none;">-</text>
  </g>
  <g begin="text">
   <text y="318.77" x="314.83,319.86,324.89,329.919,334.949,337.35,339.86,345.397,349.82,353.166,355.676,360.098,364.55,368.973,374.022,376.532,380.954,386.492,390.914,395.367,400.287,405.317,407.827,411.671,416.701,420.546,423.892,428.314,436.611" svgx:width="0.5,0.5,0.5,0.5,0.25,0.25,0.56,0.44,0.33,0.25,0.44,0.44,0.44,0.5,0.25,0.44,0.56,0.44,0.44,0.5,0.5,0.25,0.39,0.5,0.39,0.33,0.44,0.83,0.25" style="fill:rgb(0,0,0);font-family:TimesNewRomanPS-BoldMT;font-size:9.96px;stroke:none;">2045, net zero energy system </text>
  </g>
  <g begin="text">
   <text y="318.77" x="439.3,444.34,449.38,454.42" svgx:width="0.5,0.5,0.5,0.5" style="fill:rgb(0,0,0);font-family:TimesNewRomanPS-BoldMT;font-size:9.96px;stroke:none;">2045</text>
  </g>
  <g begin="text">
   <text y="318.77" x="459.34" svgx:width="0.33" style="fill:rgb(0,0,0);font-family:TimesNewRomanPS-BoldMT;font-size:9.96px;stroke:none;">-</text>
  </g>
  <g begin="text">
   <text y="318.77" x="462.7,467.73,472.65,477.68,482.71,486.056,488.457,490.967,496.504,502.002,507.54,513.038,515.807,520.827" svgx:width="0.5,0.5,0.5,0.5,0.33,0.25,0.25,0.56,0.56,0.56,0.56,0.28,0.5,0.25" style="fill:rgb(0,0,0);font-family:TimesNewRomanPS-BoldMT;font-size:9.96px;stroke:none;">2050). Supply </text>
  </g>
  <g begin="text">
   <text y="318.77" x="48.48" svgx:width="0.5" style="fill:rgb(0,0,0);font-family:TimesNewRomanPSMT;font-size:11.04px;stroke:none;">6</text>
  </g>
  <g begin="text">
   <text y="318.77" x="54.0" svgx:width="0.25" style="fill:rgb(0,0,0);font-family:TimesNewRomanPSMT;font-size:11.04px;stroke:none;"> </text>
  </g>
  <g begin="text">
   <text y="331.49" x="74.784,78.629,81.397,86.935,91.357,93.847,97.214,102.244,106.666,112.204,116.048,118.558,125.749,128.518,131.865,137.402,139.892,144.932,149.355,154.404,161.595,164.364,169.902,174.912,177.422,182.96,187.382,192.92,197.451,202.989,208.487,212.909,218.447,222.869,227.919,230.429,235.459,240.997,243.487,247.929,252.958,257.381,262.918,267.948,273.486,275.976,281.514,284.283,289.302,294.332,297.101,302.639,307.061,309.551,314.003,318.426,326.832,331.862,336.782,341.812,344.581,347.071,352.12,357.658,363.156,365.666,372.857,378.972,386.761,393.365,400.556,403.076,405.586,408.932,414.47,419.968,423.812,426.322,431.352,435.774,441.312,444.081,448.503,453.543,457.965,461.84,464.33,469.867,474.29" svgx:width="0.39,0.28,0.56,0.44,0.25,0.33,0.5,0.44,0.56,0.39,0.25,0.72,0.28,0.33,0.56,0.25,0.5,0.44,0.5,0.72,0.28,0.56,0.5,0.25,0.56,0.44,0.56,0.44,0.56,0.56,0.44,0.56,0.44,0.5,0.25,0.5,0.56,0.25,0.44,0.5,0.44,0.56,0.5,0.56,0.25,0.56,0.28,0.5,0.5,0.28,0.56,0.44,0.25,0.44,0.44,0.83,0.5,0.5,0.5,0.28,0.25,0.5,0.56,0.56,0.25,0.72,0.61,0.78,0.67,0.72,0.25,0.25,0.33,0.56,0.56,0.39,0.25,0.5,0.44,0.56,0.28,0.44,0.5,0.44,0.39,0.25,0.56,0.44,0.33" style="fill:rgb(0,0,0);font-family:TimesNewRomanPS-BoldMT;font-size:9.96px;stroke:none;">side focus with growing dependency on carbon dioxide removal and AFOLU, thus achieves net</text>
  </g>
  <g begin="text">
   <text y="331.49" x="478.06" svgx:width="0.33" style="fill:rgb(0,0,0);font-family:TimesNewRomanPS-BoldMT;font-size:9.96px;stroke:none;">-</text>
  </g>
  <g begin="text">
   <text y="331.49" x="481.42,485.86,490.3,494.74" svgx:width="0.44,0.44,0.44,0.5" style="fill:rgb(0,0,0);font-family:TimesNewRomanPS-BoldMT;font-size:9.96px;stroke:none;">zero</text>
  </g>
  <g begin="text">
   <text y="331.49" x="499.78" svgx:width="0.25" style="fill:rgb(0,0,0);font-family:TimesNewRomanPS-BoldMT;font-size:9.96px;stroke:none;"> </text>
  </g>
  <g begin="text">
   <text y="331.49" x="502.3,509.5" svgx:width="0.72,0.78" style="fill:rgb(0,0,0);font-family:TimesNewRomanPS-BoldMT;font-size:9.96px;stroke:none;">CO</text>
  </g>
  <g begin="text">
   <text y="331.97" x="517.3" svgx:width="0.5" style="fill:rgb(0,0,0);font-family:TimesNewRomanPS-BoldMT;font-size:6.48px;stroke:none;">2</text>
  </g>
  <g begin="text">
   <text y="331.49" x="520.54" svgx:width="0.25" style="fill:rgb(0,0,0);font-family:TimesNewRomanPS-BoldMT;font-size:9.96px;stroke:none;"> </text>
  </g>
  <g begin="text">
   <text y="331.49" x="48.48" svgx:width="0.5" style="fill:rgb(0,0,0);font-family:TimesNewRomanPSMT;font-size:11.04px;stroke:none;">7</text>
  </g>
  <g begin="text">
   <text y="331.49" x="54.0" svgx:width="0.25" style="fill:rgb(0,0,0);font-family:TimesNewRomanPSMT;font-size:11.04px;stroke:none;"> </text>
  </g>
  <g begin="text">
   <text y="344.09" x="264.41,268.832,273.284,276.053,281.073,284.42,287.189,292.208,296.631,299.4,304.439,306.949,311.371,316.421,320.843,323.612,328.543" svgx:width="0.44,0.44,0.28,0.5,0.33,0.28,0.5,0.44,0.28,0.5,0.25,0.44,0.5,0.44,0.28,0.5,0.25" style="fill:rgb(0,0,0);font-family:TimesNewRomanPS-BoldMT;font-size:9.96px;stroke:none;">relatively early.</text>
  </g>
  <g begin="text">
   <text y="344.09" x="331.03" svgx:width="0.25" style="fill:rgb(0,0,0);font-family:TimesNewRomanPS-BoldMT;font-size:9.96px;stroke:none;"> </text>
  </g>
  <g begin="text">
   <text y="344.09" x="48.48" svgx:width="0.5" style="fill:rgb(0,0,0);font-family:TimesNewRomanPSMT;font-size:11.04px;stroke:none;">8</text>
  </g>
  <g begin="text">
   <text y="344.09" x="54.0" svgx:width="0.25" style="fill:rgb(0,0,0);font-family:TimesNewRomanPSMT;font-size:11.04px;stroke:none;"> </text>
  </g>
  <g begin="text">
   <text y="362.81" x="297.65" svgx:width="0.25" style="fill:rgb(0,0,0);font-family:TimesNewRomanPS-BoldMT;font-size:9.96px;stroke:none;"> </text>
  </g>
  <g begin="text">
   <text y="362.81" x="48.48" svgx:width="0.5" style="fill:rgb(0,0,0);font-family:TimesNewRomanPSMT;font-size:11.04px;stroke:none;">9</text>
  </g>
  <g begin="text">
   <text y="362.81" x="54.0" svgx:width="0.25" style="fill:rgb(0,0,0);font-family:TimesNewRomanPSMT;font-size:11.04px;stroke:none;"> </text>
  </g>
  <g begin="text">
   <text y="549.19" x="523.54" svgx:width="0.25" style="fill:rgb(0,0,0);font-family:TimesNewRomanPS-BoldMT;font-size:9.96px;stroke:none;"> </text>
  </g>
  <g begin="text">
   <text y="549.19" x="42.96,48.48" svgx:width="0.5,0.5" style="fill:rgb(0,0,0);font-family:TimesNewRomanPSMT;font-size:11.04px;stroke:none;">10</text>
  </g>
  <g begin="text">
   <text y="549.19" x="54.0" svgx:width="0.25" style="fill:rgb(0,0,0);font-family:TimesNewRomanPSMT;font-size:11.04px;stroke:none;"> </text>
  </g>
  <g begin="text">
   <text y="570.79" x="72.024" svgx:width="0.25" style="fill:rgb(0,0,0);font-family:TimesNewRomanPSMT;font-size:11.04px;stroke:none;"> </text>
  </g>
  <g begin="text">
   <text y="570.79" x="42.96,48.48" svgx:width="0.5,0.5" style="fill:rgb(0,0,0);font-family:TimesNewRomanPSMT;font-size:11.04px;stroke:none;">11</text>
  </g>
  <g begin="text">
   <text y="570.79" x="54.0" svgx:width="0.25" style="fill:rgb(0,0,0);font-family:TimesNewRomanPSMT;font-size:11.04px;stroke:none;"> </text>
  </g>
  <g begin="text">
   <text y="589.75" x="77.304,83.908,88.937" svgx:width="0.67,0.5,0.5" style="fill:rgb(0,0,0);font-family:TimesNewRomanPS-BoldMT;font-size:9.96px;stroke:none;">Box</text>
  </g>
  <g begin="text">
   <text y="589.75" x="93.984" svgx:width="0.25" style="fill:rgb(0,0,0);font-family:TimesNewRomanPS-BoldMT;font-size:9.96px;stroke:none;"> </text>
  </g>
  <g begin="text">
   <text y="589.75" x="96.504,101.534,104.044,109.073,113.994,116.504,119.014,125.119,127.888,132.908,138.446,142.868,147.29,149.82,154.85,157.36,161.204,163.973,166.742,172.24,176.084,179.431,183.853,188.903,192.249,195.018,199.929,204.351,206.881,216.243,219.012,222.349,225.117,230.137,235.167,238.514,241.283,246.302,251.84,254.33,260.456,265.485,268.832,274.37,281.561,286.581" svgx:width="0.5,0.25,0.5,0.5,0.25,0.25,0.61,0.28,0.5,0.56,0.44,0.44,0.25,0.5,0.25,0.39,0.28,0.28,0.56,0.39,0.33,0.44,0.5,0.33,0.28,0.5,0.44,0.25,0.94,0.28,0.33,0.28,0.5,0.5,0.33,0.28,0.5,0.56,0.25,0.61,0.5,0.33,0.56,0.72,0.5,0.5" style="fill:rgb(0,0,0);font-family:TimesNewRomanPS-BoldMT;font-size:9.96px;stroke:none;">6.11, Figure 2 Illustrative Mitigation Pathway</text>
  </g>
  <g begin="text">
   <text y="589.75" x="291.89" svgx:width="0.25" style="fill:rgb(0,0,0);font-family:TimesNewRomanPS-BoldMT;font-size:9.96px;stroke:none;"> </text>
  </g>
  <g begin="text">
   <text y="589.75" x="294.29,299.32,301.83" svgx:width="0.5,0.25,0.5" style="fill:rgb(0,0,0);font-family:TimesNewRomanPS-BoldMT;font-size:9.96px;stroke:none;">1.5</text>
  </g>
  <g begin="text">
   <text y="589.75" x="306.89" svgx:width="0.33" style="fill:rgb(0,0,0);font-family:TimesNewRomanPS-BoldMT;font-size:9.96px;stroke:none;">-</text>
  </g>
  <g begin="text">
   <text y="589.75" x="310.25,317.441,321.774,327.312,331.734,338.925,343.965,349.502,352.271,356.693,360.528,363.875,366.385,373.576,376.932,381.354,384.123,388.546,393.605" svgx:width="0.72,0.44,0.56,0.44,0.72,0.5,0.56,0.28,0.44,0.39,0.33,0.25,0.72,0.33,0.44,0.28,0.44,0.5,0.25" style="fill:rgb(0,0,0);font-family:TimesNewRomanPS-BoldMT;font-size:9.96px;stroke:none;">Renewables: Africa </text>
  </g>
  <g begin="text">
   <text y="589.75" x="396.19,399.537,406.728,412.843,416.19" svgx:width="0.33,0.72,0.61,0.33,0.25" style="fill:rgb(0,0,0);font-family:TimesNewRomanPS-BoldMT;font-size:9.96px;stroke:none;">(AF) </text>
  </g>
  <g begin="text">
   <text y="589.75" x="418.75,421.519,427.057,429.547,434.576,437.086,442.116,444.517,449.546,453.53,460.721,463.211,467.086,471.508,475.93,481.468,486.498,490.92,493.689,498.729,501.239" svgx:width="0.28,0.56,0.25,0.5,0.25,0.5,0.25,0.5,0.4,0.72,0.25,0.39,0.44,0.44,0.56,0.5,0.44,0.28,0.5,0.25,0.33" style="fill:rgb(0,0,0);font-family:TimesNewRomanPS-BoldMT;font-size:9.96px;stroke:none;">in a 1.5°C scenario (</text>
  </g>
  <g begin="text">
   <text y="589.75" x="504.7,511.891,518.007" svgx:width="0.72,0.61,0.25" style="fill:rgb(0,0,0);font-family:TimesNewRomanPS-BoldMT;font-size:9.96px;stroke:none;">AF </text>
  </g>
  <g begin="text">
   <text y="589.75" x="42.96,48.48" svgx:width="0.5,0.5" style="fill:rgb(0,0,0);font-family:TimesNewRomanPSMT;font-size:11.04px;stroke:none;">12</text>
  </g>
  <g begin="text">
   <text y="589.75" x="54.0" svgx:width="0.25" style="fill:rgb(0,0,0);font-family:TimesNewRomanPSMT;font-size:11.04px;stroke:none;"> </text>
  </g>
  <g begin="text">
   <text y="602.35" x="80.544,86.082,90.504" svgx:width="0.56,0.44,0.33" style="fill:rgb(0,0,0);font-family:TimesNewRomanPS-BoldMT;font-size:9.96px;stroke:none;">net</text>
  </g>
  <g begin="text">
   <text y="602.35" x="93.864" svgx:width="0.33" style="fill:rgb(0,0,0);font-family:TimesNewRomanPS-BoldMT;font-size:9.96px;stroke:none;">-</text>
  </g>
  <g begin="text">
   <text y="602.35" x="97.224,101.646,106.098,110.521,115.57,118.08,122.502,126.955,131.984,137.522,142.422,150.809,155.839,158.349,160.749,165.779,170.808,175.729" svgx:width="0.44,0.44,0.44,0.5,0.25,0.44,0.44,0.5,0.56,0.5,0.83,0.5,0.25,0.25,0.5,0.5,0.5,0.5" style="fill:rgb(0,0,0);font-family:TimesNewRomanPS-BoldMT;font-size:9.96px;stroke:none;">zero economy, 2055</text>
  </g>
  <g begin="text">
   <text y="602.35" x="180.86" svgx:width="0.33" style="fill:rgb(0,0,0);font-family:TimesNewRomanPS-BoldMT;font-size:9.96px;stroke:none;">-</text>
  </g>
  <g begin="text">
   <text y="602.35" x="184.22,189.25,194.17,199.09,204.12,206.63,209.14,216.331,222.446,224.956,230.494,234.916,238.263,240.773,245.195,249.647,254.07,259.119,261.629,266.051,271.589,276.011,280.463,285.384,290.414,292.923,296.768,301.798,305.642,308.989,313.411,321.708" svgx:width="0.5,0.5,0.5,0.5,0.25,0.25,0.72,0.61,0.25,0.56,0.44,0.33,0.25,0.44,0.44,0.44,0.5,0.25,0.44,0.56,0.44,0.44,0.5,0.5,0.25,0.39,0.5,0.39,0.33,0.44,0.83,0.25" style="fill:rgb(0,0,0);font-family:TimesNewRomanPS-BoldMT;font-size:9.96px;stroke:none;">2060, AF net zero energy system </text>
  </g>
  <g begin="text">
   <text y="602.35" x="324.43,329.47,334.51,339.55" svgx:width="0.5,0.5,0.5,0.5" style="fill:rgb(0,0,0);font-family:TimesNewRomanPS-BoldMT;font-size:9.96px;stroke:none;">2055</text>
  </g>
  <g begin="text">
   <text y="602.35" x="344.47" svgx:width="0.33" style="fill:rgb(0,0,0);font-family:TimesNewRomanPS-BoldMT;font-size:9.96px;stroke:none;">-</text>
  </g>
  <g begin="text">
   <text y="602.35" x="347.83,352.86,357.78,362.81,367.84,371.186,373.587,376.096,383.288,388.327,393.865,396.634,402.132,404.642,409.064,414.114,419.652,424.661,430.199,434.024,436.793,441.813,447.35,449.84,454.88,458.227,460.737,466.274,471.284" svgx:width="0.5,0.5,0.5,0.5,0.33,0.25,0.25,0.72,0.5,0.56,0.28,0.56,0.25,0.44,0.5,0.56,0.5,0.56,0.39,0.28,0.5,0.56,0.25,0.5,0.33,0.25,0.56,0.5,0.56" style="fill:rgb(0,0,0);font-family:TimesNewRomanPS-BoldMT;font-size:9.96px;stroke:none;">2060). Rapid expansion of non</text>
  </g>
  <g begin="text">
   <text y="602.35" x="476.98" svgx:width="0.33" style="fill:rgb(0,0,0);font-family:TimesNewRomanPS-BoldMT;font-size:9.96px;stroke:none;">-</text>
  </g>
  <g begin="text">
   <text y="602.35" x="480.34,485.878,488.647,493.647,502.033,507.063,510.907,514.752" svgx:width="0.56,0.28,0.5,0.83,0.5,0.39,0.39,0.25" style="fill:rgb(0,0,0);font-family:TimesNewRomanPS-BoldMT;font-size:9.96px;stroke:none;">biomass </text>
  </g>
  <g begin="text">
   <text y="602.35" x="42.96,48.48" svgx:width="0.5,0.5" style="fill:rgb(0,0,0);font-family:TimesNewRomanPSMT;font-size:11.04px;stroke:none;">13</text>
  </g>
  <g begin="text">
   <text y="602.35" x="54.0" svgx:width="0.25" style="fill:rgb(0,0,0);font-family:TimesNewRomanPSMT;font-size:11.04px;stroke:none;"> </text>
  </g>
  <g begin="text">
   <text y="614.95" x="173.78,178.202,182.654,188.192,192.614,199.806,204.845,210.383,213.152,217.574,221.409,223.919,226.429,231.966,234.735,239.735,245.273,247.763,252.205,254.974,259.396,263.818,267.195,271.617,274.386,277.743,280.511,284.934,289.973,293.32,296.188,301.218" svgx:width="0.44,0.44,0.56,0.44,0.72,0.5,0.56,0.28,0.44,0.39,0.25,0.25,0.56,0.28,0.5,0.56,0.25,0.44,0.28,0.44,0.44,0.33,0.44,0.28,0.33,0.28,0.44,0.5,0.33,0.28,0.5,0.56" style="fill:rgb(0,0,0);font-family:TimesNewRomanPS-BoldMT;font-size:9.96px;stroke:none;">renewables, high electrification</text>
  </g>
  <g begin="text">
   <text y="614.95" x="306.89,309.4,311.91,316.94,322.477,327.975,330.485,335.515,338.025,341.371,346.401,350.246,354.091,356.859,359.628,362.118,365.485,371.023,375.445,378.214" svgx:width="0.25,0.25,0.5,0.56,0.56,0.25,0.5,0.25,0.33,0.5,0.39,0.39,0.28,0.28,0.25,0.33,0.56,0.44,0.28,0.25" style="fill:rgb(0,0,0);font-family:TimesNewRomanPS-BoldMT;font-size:9.96px;stroke:none;">, and a fossil fuel </text>
  </g>
  <g begin="text">
   <text y="614.95" x="380.83,386.368,391.866,396.896,400.74,405.162,410.212,415.75,419.066" svgx:width="0.56,0.56,0.5,0.39,0.44,0.5,0.56,0.33,0.25" style="fill:rgb(0,0,0);font-family:TimesNewRomanPS-BoldMT;font-size:9.96px;stroke:none;">phaseout.</text>
  </g>
  <g begin="text">
   <text y="614.95" x="421.63" svgx:width="0.25" style="fill:rgb(0,0,0);font-family:TimesNewRomanPS-BoldMT;font-size:9.96px;stroke:none;"> </text>
  </g>
  <g begin="text">
   <text y="614.95" x="42.96,48.48" svgx:width="0.5,0.5" style="fill:rgb(0,0,0);font-family:TimesNewRomanPSMT;font-size:11.04px;stroke:none;">14</text>
  </g>
  <g begin="text">
   <text y="614.95" x="54.0" svgx:width="0.25" style="fill:rgb(0,0,0);font-family:TimesNewRomanPSMT;font-size:11.04px;stroke:none;"> </text>
  </g>
  <g begin="text">
   <text y="633.7" x="297.65" svgx:width="0.25" style="fill:rgb(0,0,0);font-family:TimesNewRomanPS-BoldMT;font-size:9.96px;stroke:none;"> </text>
  </g>
  <g begin="text">
   <text y="633.7" x="42.96,48.48" svgx:width="0.5,0.5" style="fill:rgb(0,0,0);font-family:TimesNewRomanPSMT;font-size:11.04px;stroke:none;">15</text>
  </g>
  <g begin="text">
   <text y="633.7" x="54.0" svgx:width="0.25" style="fill:rgb(0,0,0);font-family:TimesNewRomanPSMT;font-size:11.04px;stroke:none;"> </text>
  </g>
  <rect style="fill:pink;opacity:0.2;stroke:blue;stroke-width:0.3;" x="72.0" y="43.99" height="163.75" width="451.3" title="107"/>
  <text y="43.99" class="image" id="image.107.1" width="451" height="163" x="72.0" style="font-size:5.0px;">image.107.1.72_523.44_208</text>
  <rect style="fill:pink;opacity:0.2;stroke:blue;stroke-width:0.3;" x="72.0" y="334.08" height="173.1" width="451.3" title="107"/>
  <text y="334.08" class="image" id="image.107.2" width="451" height="173" x="72.0" style="font-size:5.0px;">image.107.2.72_523.334_507</text>
  <g begin="text">
   <text y="602.109" transform="matrix(0.70711,-0.70711,0.70711,0.70711,-395.12956,250.29085)" rotateDegrees="-45" matrix="[29.803345,29.803345,-29.803345,29.803345,104.563255,239.8115]" x="104.563" svgx:width="0.67" style="fill:rgb(0,0,0);font-family:Arial;font-size:42.15px;stroke:none;">A</text>
   <text y="582.23" transform="matrix(0.70711,-0.70711,0.70711,0.70711,-375.25056,258.525)" rotateDegrees="-45" matrix="[29.803345,29.803345,-29.803345,29.803345,124.442085,259.6903]" x="124.442" svgx:width="0.72" style="fill:rgb(0,0,0);font-family:Arial;font-size:42.15px;stroke:none;">C</text>
   <text y="560.712" transform="matrix(0.70711,-0.70711,0.70711,0.70711,-353.73256,267.43805)" rotateDegrees="-45" matrix="[29.803345,29.803345,-29.803345,29.803345,145.9601,281.20834]" x="145.96" svgx:width="0.72" style="fill:rgb(0,0,0);font-family:Arial;font-size:42.15px;stroke:none;">C</text>
   <text y="539.194" transform="matrix(0.70711,-0.70711,0.70711,0.70711,-332.21456,276.3511)" rotateDegrees="-45" matrix="[29.803345,29.803345,-29.803345,29.803345,167.47812,302.72635]" x="167.478" svgx:width="0.67" style="fill:rgb(0,0,0);font-family:Arial;font-size:42.15px;stroke:none;">E</text>
   <text y="519.315" transform="matrix(0.70711,-0.70711,0.70711,0.70711,-312.33556,284.58525)" rotateDegrees="-45" matrix="[29.803345,29.803345,-29.803345,29.803345,187.35693,322.60516]" x="187.357" svgx:width="0.67" style="fill:rgb(0,0,0);font-family:Arial;font-size:42.15px;stroke:none;">P</text>
   <text y="499.436" transform="matrix(0.70711,-0.70711,0.70711,0.70711,-292.45656,292.8194)" rotateDegrees="-45" matrix="[29.803345,29.803345,-29.803345,29.803345,207.23578,342.484]" x="207.236" svgx:width="0.61" style="fill:rgb(0,0,0);font-family:Arial;font-size:42.15px;stroke:none;">T</text>
   <text y="481.226" transform="matrix(0.70711,-0.70711,0.70711,0.70711,-274.24656,300.36223)" rotateDegrees="-45" matrix="[29.803345,29.803345,-29.803345,29.803345,225.44562,360.69385]" x="225.446" svgx:width="0.67" style="fill:rgb(0,0,0);font-family:Arial;font-size:42.15px;stroke:none;">E</text>
   <text y="461.347" transform="matrix(0.70711,-0.70711,0.70711,0.70711,-254.36786,308.59567)" rotateDegrees="-45" matrix="[29.803345,29.803345,-29.803345,29.803345,245.32443,380.57266]" x="245.324" svgx:width="0.72" style="fill:rgb(0,0,0);font-family:Arial;font-size:42.15px;stroke:none;">D</text>
   <text y="439.829" transform="matrix(0.70711,-0.70711,0.70711,0.70711,-232.84986,317.50872)" rotateDegrees="-45" matrix="[29.803345,29.803345,-29.803345,29.803345,266.84247,402.0907]" x="266.842" svgx:width="0.28" style="fill:rgb(0,0,0);font-family:Arial;font-size:42.15px;stroke:none;"> </text>
   <text y="431.54" transform="matrix(0.70711,-0.70711,0.70711,0.70711,-224.56056,320.94284)" rotateDegrees="-45" matrix="[29.803345,29.803345,-29.803345,29.803345,275.13153,410.37976]" x="275.132" svgx:width="0.67" style="fill:rgb(0,0,0);font-family:Arial;font-size:42.15px;stroke:none;">V</text>
   <text y="411.661" transform="matrix(0.70711,-0.70711,0.70711,0.70711,-204.68186,329.17629)" rotateDegrees="-45" matrix="[29.803345,29.803345,-29.803345,29.803345,295.0103,430.25858]" x="295.01" svgx:width="0.67" style="fill:rgb(0,0,0);font-family:Arial;font-size:42.15px;stroke:none;">E</text>
   <text y="391.783" transform="matrix(0.70711,-0.70711,0.70711,0.70711,-184.80356,337.41073)" rotateDegrees="-45" matrix="[29.803345,29.803345,-29.803345,29.803345,314.88916,450.1374]" x="314.889" svgx:width="0.72" style="fill:rgb(0,0,0);font-family:Arial;font-size:42.15px;stroke:none;">R</text>
   <text y="370.265" transform="matrix(0.70711,-0.70711,0.70711,0.70711,-163.28556,346.32378)" rotateDegrees="-45" matrix="[29.803345,29.803345,-29.803345,29.803345,336.40717,471.65543]" x="336.407" svgx:width="0.67" style="fill:rgb(0,0,0);font-family:Arial;font-size:42.15px;stroke:none;">S</text>
   <text y="350.386" transform="matrix(0.70711,-0.70711,0.70711,0.70711,-143.40656,354.55793)" rotateDegrees="-45" matrix="[29.803345,29.803345,-29.803345,29.803345,356.286,491.53424]" x="356.286" svgx:width="0.28" style="fill:rgb(0,0,0);font-family:Arial;font-size:42.15px;stroke:none;">I</text>
   <text y="342.1" transform="matrix(0.70711,-0.70711,0.70711,0.70711,-135.12086,357.9894)" rotateDegrees="-45" matrix="[29.803345,29.803345,-29.803345,29.803345,364.57135,499.81958]" x="364.571" svgx:width="0.78" style="fill:rgb(0,0,0);font-family:Arial;font-size:42.15px;stroke:none;">O</text>
   <text y="318.913" transform="matrix(0.70711,-0.70711,0.70711,0.70711,-111.93386,367.59377)" rotateDegrees="-45" matrix="[29.803345,29.803345,-29.803345,29.803345,387.7583,523.0066]" x="387.758" svgx:width="0.72" style="fill:rgb(0,0,0);font-family:Arial;font-size:42.15px;stroke:none;">N</text>
   <text y="297.395" transform="matrix(0.70711,-0.70711,0.70711,0.70711,-90.41586,376.50681)" rotateDegrees="-45" matrix="[29.803345,29.803345,-29.803345,29.803345,409.27637,544.5246]" x="409.276" svgx:width="0.28" style="fill:rgb(0,0,0);font-family:Arial;font-size:42.15px;stroke:none;"> </text>
   <text y="637.872" transform="matrix(0.70711,-0.70711,0.70711,0.70711,-409.94279,286.05456)" rotateDegrees="-45" matrix="[29.803345,29.803345,-29.803345,29.803345,140.32727,204.04747]" x="140.327" svgx:width="0.67" style="fill:rgb(0,0,0);font-family:Arial;font-size:42.15px;stroke:none;">S</text>
   <text y="617.994" transform="matrix(0.70711,-0.70711,0.70711,0.70711,-390.0645,294.289)" rotateDegrees="-45" matrix="[29.803345,29.803345,-29.803345,29.803345,160.2061,223.9263]" x="160.206" svgx:width="0.72" style="fill:rgb(0,0,0);font-family:Arial;font-size:42.15px;stroke:none;">U</text>
   <text y="596.476" transform="matrix(0.70711,-0.70711,0.70711,0.70711,-368.5465,303.20205)" rotateDegrees="-45" matrix="[29.803345,29.803345,-29.803345,29.803345,181.72412,245.4443]" x="181.724" svgx:width="0.67" style="fill:rgb(0,0,0);font-family:Arial;font-size:42.15px;stroke:none;">B</text>
   <text y="576.597" transform="matrix(0.70711,-0.70711,0.70711,0.70711,-348.6675,311.4362)" rotateDegrees="-45" matrix="[29.803345,29.803345,-29.803345,29.803345,201.60294,265.32315]" x="201.603" svgx:width="0.5" style="fill:rgb(0,0,0);font-family:Arial;font-size:42.15px;stroke:none;">J</text>
   <text y="561.695" transform="matrix(0.70711,-0.70711,0.70711,0.70711,-333.7655,317.60881)" rotateDegrees="-45" matrix="[29.803345,29.803345,-29.803345,29.803345,216.50462,280.22482]" x="216.505" svgx:width="0.67" style="fill:rgb(0,0,0);font-family:Arial;font-size:42.15px;stroke:none;">E</text>
   <text y="541.816" transform="matrix(0.70711,-0.70711,0.70711,0.70711,-313.88679,325.84225)" rotateDegrees="-45" matrix="[29.803345,29.803345,-29.803345,29.803345,236.38344,300.10364]" x="236.383" svgx:width="0.72" style="fill:rgb(0,0,0);font-family:Arial;font-size:42.15px;stroke:none;">C</text>
   <text y="520.298" transform="matrix(0.70711,-0.70711,0.70711,0.70711,-292.36879,334.7553)" rotateDegrees="-45" matrix="[29.803345,29.803345,-29.803345,29.803345,257.90146,321.62164]" x="257.901" svgx:width="0.61" style="fill:rgb(0,0,0);font-family:Arial;font-size:42.15px;stroke:none;">T</text>
   <text y="502.089" transform="matrix(0.70711,-0.70711,0.70711,0.70711,-274.1595,342.29842)" rotateDegrees="-45" matrix="[29.803345,29.803345,-29.803345,29.803345,276.1113,339.83148]" x="276.111" svgx:width="0.28" style="fill:rgb(0,0,0);font-family:Arial;font-size:42.15px;stroke:none;"> </text>
   <text y="493.803" transform="matrix(0.70711,-0.70711,0.70711,0.70711,-265.8735,345.7306)" rotateDegrees="-45" matrix="[29.803345,29.803345,-29.803345,29.803345,284.39664,348.11682]" x="284.397" svgx:width="0.61" style="fill:rgb(0,0,0);font-family:Arial;font-size:42.15px;stroke:none;">T</text>
   <text y="475.593" transform="matrix(0.70711,-0.70711,0.70711,0.70711,-247.66379,353.27272)" rotateDegrees="-45" matrix="[29.803345,29.803345,-29.803345,29.803345,302.60648,366.32666]" x="302.606" svgx:width="0.78" style="fill:rgb(0,0,0);font-family:Arial;font-size:42.15px;stroke:none;">O</text>
   <text y="452.406" transform="matrix(0.70711,-0.70711,0.70711,0.70711,-224.47679,362.87709)" rotateDegrees="-45" matrix="[29.803345,29.803345,-29.803345,29.803345,325.79346,389.51367]" x="325.793" svgx:width="0.28" style="fill:rgb(0,0,0);font-family:Arial;font-size:42.15px;stroke:none;"> </text>
   <text y="444.136" transform="matrix(0.70711,-0.70711,0.70711,0.70711,-216.2065,366.30334)" rotateDegrees="-45" matrix="[29.803345,29.803345,-29.803345,29.803345,334.0639,397.78412]" x="334.064" svgx:width="0.61" style="fill:rgb(0,0,0);font-family:Arial;font-size:42.15px;stroke:none;">F</text>
   <text y="425.926" transform="matrix(0.70711,-0.70711,0.70711,0.70711,-197.9965,373.84617)" rotateDegrees="-45" matrix="[29.803345,29.803345,-29.803345,29.803345,352.27374,415.99396]" x="352.274" svgx:width="0.28" style="fill:rgb(0,0,0);font-family:Arial;font-size:42.15px;stroke:none;">I</text>
   <text y="417.641" transform="matrix(0.70711,-0.70711,0.70711,0.70711,-189.7115,377.27793)" rotateDegrees="-45" matrix="[29.803345,29.803345,-29.803345,29.803345,360.55908,424.2793]" x="360.559" svgx:width="0.72" style="fill:rgb(0,0,0);font-family:Arial;font-size:42.15px;stroke:none;">N</text>
   <text y="396.123" transform="matrix(0.70711,-0.70711,0.70711,0.70711,-168.1935,386.19098)" rotateDegrees="-45" matrix="[29.803345,29.803345,-29.803345,29.803345,382.0771,445.7973]" x="382.077" svgx:width="0.67" style="fill:rgb(0,0,0);font-family:Arial;font-size:42.15px;stroke:none;">A</text>
   <text y="376.244" transform="matrix(0.70711,-0.70711,0.70711,0.70711,-148.3145,394.42513)" rotateDegrees="-45" matrix="[29.803345,29.803345,-29.803345,29.803345,401.95593,465.67615]" x="401.956" svgx:width="0.56" style="fill:rgb(0,0,0);font-family:Arial;font-size:42.15px;stroke:none;">L</text>
   <text y="359.673" transform="matrix(0.70711,-0.70711,0.70711,0.70711,-131.7435,401.28906)" rotateDegrees="-45" matrix="[29.803345,29.803345,-29.803345,29.803345,418.5266,482.24677]" x="418.527" svgx:width="0.28" style="fill:rgb(0,0,0);font-family:Arial;font-size:42.15px;stroke:none;"> </text>
   <text y="351.394" transform="matrix(0.70711,-0.70711,0.70711,0.70711,-123.4645,404.71834)" rotateDegrees="-45" matrix="[29.803345,29.803345,-29.803345,29.803345,426.80573,490.52588]" x="426.806" svgx:width="0.67" style="fill:rgb(0,0,0);font-family:Arial;font-size:42.15px;stroke:none;">E</text>
   <text y="331.515" transform="matrix(0.70711,-0.70711,0.70711,0.70711,-103.5855,412.95249)" rotateDegrees="-45" matrix="[29.803345,29.803345,-29.803345,29.803345,446.68457,510.40472]" x="446.685" svgx:width="0.72" style="fill:rgb(0,0,0);font-family:Arial;font-size:42.15px;stroke:none;">D</text>
   <text y="309.997" transform="matrix(0.70711,-0.70711,0.70711,0.70711,-82.0675,421.86554)" rotateDegrees="-45" matrix="[29.803345,29.803345,-29.803345,29.803345,468.2025,531.9227]" x="468.203" svgx:width="0.28" style="fill:rgb(0,0,0);font-family:Arial;font-size:42.15px;stroke:none;">I</text>
   <text y="301.712" transform="matrix(0.70711,-0.70711,0.70711,0.70711,-73.7825,425.29729)" rotateDegrees="-45" matrix="[29.803345,29.803345,-29.803345,29.803345,476.48785,540.20807]" x="476.488" svgx:width="0.61" style="fill:rgb(0,0,0);font-family:Arial;font-size:42.15px;stroke:none;">T</text>
   <text y="283.502" transform="matrix(0.70711,-0.70711,0.70711,0.70711,-55.5725,432.84012)" rotateDegrees="-45" matrix="[29.803345,29.803345,-29.803345,29.803345,494.6977,558.4179]" x="494.698" svgx:width="0.67" style="fill:rgb(0,0,0);font-family:Arial;font-size:42.15px;stroke:none;">S</text>
  </g>
 </g>
</svg>
