<?xml version="1.0" encoding="UTF-8"?>
<svg height="753.16" width="534.46" xmlns="http://www.w3.org/2000/svg">
 <g id="page" xmlns:svgx="http://www.xml-cml.org/schema/svgx">
  <g begin="text">
   <text y="84.18" x="149.34,162.0,170.941,174.114,177.833,181.551,185.27,188.443,194.323,201.824,209.384,214.245,219.225,222.65,230.143,237.636,242.497,245.922,253.423,260.916,264.089,269.01,276.51,279.684,284.543,292.037,299.055,302.228,308.827,312.252,318.671,323.591,331.084,334.258,342.716,348.295,353.874,360.892,366.473,372.053,383.512,390.53,398.023,402.883,406.056,413.913,420.931,428.491,435.992,441.031,445.982" svgx:width="0.91,0.64,0.23,0.27,0.27,0.27,0.23,0.42,0.54,0.54,0.35,0.35,0.25,0.54,0.54,0.35,0.25,0.54,0.54,0.23,0.35,0.54,0.23,0.35,0.54,0.5,0.23,0.47,0.25,0.46,0.35,0.54,0.23,0.61,0.4,0.4,0.5,0.4,0.4,0.81,0.5,0.54,0.35,0.23,0.56,0.5,0.54,0.54,0.35,0.35,0.23" style="fill:rgb(0,0,0);font-family:Calibri-Bold;font-size:13.98px;stroke:none;">WG III contribution to the Sixth Assessment Report </text>
   <text y="99.36" x="205.44,210.54,213.48,218.28,222.42,225.12,231.6,235.38,238.08,243.12,249.6,253.86,258.12,261.06,266.7,272.76,279.18,285.6,291.54,294.24,298.38,304.86,307.56,313.981,320.041,322.741,325.741,335.521,341.941,344.881,350.941,360.721,366.781,373.201,377.341,383.401,389.82" svgx:width="0.42,0.25,0.4,0.35,0.23,0.54,0.32,0.23,0.42,0.54,0.35,0.35,0.25,0.47,0.5,0.54,0.54,0.49,0.23,0.35,0.54,0.23,0.54,0.5,0.23,0.25,0.81,0.54,0.25,0.5,0.81,0.5,0.54,0.35,0.5,0.54,0.23" style="fill:rgb(0,0,0);font-family:Calibri-Bold;font-size:12.0px;stroke:none;">List of corrigenda to be implemented </text>
   <text y="112.92" x="94.92,101.64,107.756,113.871,116.935,122.456,128.572,132.232,135.892,138.351,144.467,150.527,156.643,162.759,168.875,171.938,174.398,176.858,182.378,185.441,191.557,197.673,200.736,206.796,212.912,215.372,221.488,229.407,232.471,240.391,242.85,245.31,247.77,250.834,256.95,263.066,266.065,268.525,277.645,283.761,286.22,292.336,301.456,307.572,313.688,316.751,322.932,329.048,332.111,334.571,340.686,343.75,346.813,352.929,359.045,362.108,370.028,376.144,382.26,388.376,391.439,397.555,401.215,404.278,410.394,416.51,420.169,422.63,428.746,434.862,437.925,443.385,449.501,455.617,461.224,464.88,470.996,477.112,479.571,482.635,485.094,491.21,497.326,500.345" svgx:width="0.61,0.56,0.56,0.28,0.5,0.56,0.33,0.33,0.22,0.56,0.56,0.56,0.56,0.56,0.28,0.22,0.22,0.5,0.28,0.56,0.56,0.28,0.56,0.56,0.22,0.56,0.72,0.28,0.72,0.22,0.22,0.22,0.28,0.56,0.56,0.28,0.22,0.83,0.56,0.22,0.56,0.83,0.56,0.56,0.28,0.56,0.56,0.28,0.22,0.56,0.28,0.28,0.56,0.56,0.28,0.72,0.56,0.56,0.56,0.28,0.56,0.33,0.28,0.56,0.56,0.33,0.22,0.56,0.56,0.28,0.5,0.56,0.56,0.5,0.33,0.56,0.56,0.22,0.28,0.22,0.56,0.56,0.28,0.28" style="fill:rgb(255,0,0);font-family:ArialMT;font-size:10.98px;stroke:none;">The corrigenda listed below will be implemented in the Chapter during copy-editing. </text>
   <text y="125.525" x="297.666" svgx:width="0.28" style="fill:rgb(255,0,0);font-family:ArialMT;font-size:10.98px;stroke:none;"> </text>
   <text y="135.48" x="70.86" svgx:width="0.23" style="fill:rgb(255,0,0);font-family:Calibri;font-size:7.98px;stroke:none;"> </text>
   <text y="150.96" x="70.86,78.241,87.061,95.519,103.02,109.919,116.759,124.616,127.859,134.933" svgx:width="0.53,0.63,0.61,0.53,0.5,0.49,0.56,0.23,0.51,0.23" style="fill:rgb(192,0,0);font-family:Calibri-Bold;font-size:13.98px;stroke:none;">CHAPTER 6 </text>
   <text y="165.24" x="70.86" svgx:width="0.23" style="fill:rgb(0,0,0);font-family:Calibri;font-size:10.98px;stroke:none;"> </text>
  </g>
  <path style="fill:rgb(217,225,242);stroke:none;stroke-width:1.0;" d="M71.340 610.260 L127.560 610.260 L127.560 673.260 L71.340 673.260 L71.340 610.260 "/>
  <path style="fill:rgb(217,225,242);stroke:none;stroke-width:1.0;" d="M76.500 661.020 L122.400 661.020 L122.400 673.260 L76.500 673.260 L76.500 661.020 "/>
  <g begin="text">
   <text y="178.14" x="77.82,84.12,89.52,93.719,99.058,107.215,112.255,117.655,121.074" svgx:width="0.63,0.54,0.42,0.54,0.81,0.5,0.54,0.35,0.23" style="fill:rgb(0,0,0);font-family:Calibri-Bold;font-size:10.02px;stroke:none;">Document </text>
  </g>
  <path style="fill:rgb(217,225,242);stroke:none;stroke-width:1.0;" d="M71.340 610.260 L127.560 610.260 L127.560 673.260 L71.340 673.260 L71.340 610.260 M76.500 648.840 L122.400 648.840 L122.400 661.020 L76.500 661.020 L76.500 648.840 "/>
  <g begin="text">
   <text y="190.38" x="80.04,83.16,88.44,93.841,98.76,104.16,107.637,112.677,116.217,118.797" svgx:width="0.31,0.53,0.54,0.49,0.54,0.35,0.5,0.35,0.26,0.23" style="fill:rgb(0,0,0);font-family:Calibri-Bold;font-size:10.02px;stroke:none;">(Chapter, </text>
  </g>
  <path style="fill:rgb(217,225,242);stroke:none;stroke-width:1.0;" d="M76.500 636.600 L122.400 636.600 L122.400 648.840 L76.500 648.840 L76.500 636.600 "/>
  <g begin="text">
   <text y="202.56" x="84.9,90.96,96.361,101.762,106.742,111.361,113.941" svgx:width="0.61,0.54,0.54,0.5,0.46,0.26,0.23" style="fill:rgb(0,0,0);font-family:Calibri-Bold;font-size:10.02px;stroke:none;">Annex, </text>
  </g>
  <path style="fill:rgb(217,225,242);stroke:none;stroke-width:1.0;" d="M76.500 624.420 L122.400 624.420 L122.400 636.600 L76.500 636.600 L76.500 624.420 "/>
  <g begin="text">
   <text y="214.8" x="87.66,92.4,97.8,103.141,108.541,111.176" svgx:width="0.47,0.54,0.54,0.54,0.27,0.23" style="fill:rgb(0,0,0);font-family:Calibri-Bold;font-size:10.02px;stroke:none;">Supp. </text>
  </g>
  <path style="fill:rgb(217,225,242);stroke:none;stroke-width:1.0;" d="M76.500 612.240 L122.400 612.240 L122.400 624.420 L76.500 624.420 L76.500 612.240 "/>
  <g begin="text">
   <text y="226.98" x="80.1,88.857,93.778,97.255,102.295,105.835,108.295,113.215,115.675,118.797" svgx:width="0.87,0.49,0.35,0.5,0.35,0.25,0.49,0.25,0.31,0.23" style="fill:rgb(0,0,0);font-family:Calibri-Bold;font-size:10.02px;stroke:none;">Material) </text>
  </g>
  <path style="fill:rgb(217,225,242);stroke:none;stroke-width:1.0;" d="M128.040 610.260 L184.260 610.260 L184.260 673.260 L128.040 673.260 L128.040 610.260 "/>
  <path style="fill:rgb(217,225,242);stroke:none;stroke-width:1.0;" d="M133.200 661.020 L179.100 661.020 L179.100 673.260 L133.200 673.260 L133.200 661.020 "/>
  <g begin="text">
   <text y="178.14" x="146.1,151.44,156.359,161.099" svgx:width="0.53,0.49,0.47,0.5" style="fill:rgb(0,0,0);font-family:Calibri-Bold;font-size:10.02px;stroke:none;">Page</text>
  </g>
  <g begin="text">
   <text y="178.14" x="166.14" svgx:width="0.23" style="fill:rgb(0,0,0);font-family:Calibri-Bold;font-size:10.02px;stroke:none;"> </text>
  </g>
  <path style="fill:rgb(217,225,242);stroke:none;stroke-width:1.0;" d="M128.040 610.260 L184.260 610.260 L184.260 673.260 L128.040 673.260 L128.040 610.260 M128.040 610.260 L184.260 610.260 L184.260 673.260 L128.040 673.260 L128.040 610.260 M133.200 648.840 L179.100 648.840 L179.100 661.020 L133.200 661.020 L133.200 648.840 "/>
  <g begin="text">
   <text y="190.38" x="135.6,138.72,144.362,149.281,153.299,158.279,163.68,165.96,171.3,176.701" svgx:width="0.31,0.56,0.49,0.4,0.5,0.54,0.23,0.54,0.54,0.23" style="fill:rgb(0,0,0);font-family:Calibri-Bold;font-size:10.02px;stroke:none;">(Based on </text>
  </g>
  <path style="fill:rgb(217,225,242);stroke:none;stroke-width:1.0;" d="M133.200 636.600 L179.100 636.600 L179.100 648.840 L133.200 648.840 L133.200 636.600 "/>
  <g begin="text">
   <text y="202.56" x="138.84,142.317,147.717,152.757,155.042,158.163,160.622,166.022,170.942,173.402" svgx:width="0.35,0.54,0.5,0.23,0.32,0.25,0.54,0.49,0.25,0.23" style="fill:rgb(0,0,0);font-family:Calibri-Bold;font-size:10.02px;stroke:none;">the final </text>
  </g>
  <path style="fill:rgb(217,225,242);stroke:none;stroke-width:1.0;" d="M133.200 624.420 L179.100 624.420 L179.100 636.600 L133.200 636.600 L133.200 624.420 "/>
  <g begin="text">
   <text y="214.8" x="139.38,144.781,150.182,153.302,155.586,160.206,166.565,172.865" svgx:width="0.54,0.54,0.32,0.23,0.46,0.64,0.63,0.23" style="fill:rgb(0,0,0);font-family:Calibri-Bold;font-size:10.02px;stroke:none;">pdf FGD </text>
  </g>
  <path style="fill:rgb(217,225,242);stroke:none;stroke-width:1.0;" d="M133.200 612.240 L179.100 612.240 L179.100 624.420 L133.200 624.420 L133.200 612.240 "/>
  <g begin="text">
   <text y="226.98" x="139.32,144.059,149.1,152.639,156.659,159.124,164.463,169.863,172.917" svgx:width="0.47,0.5,0.35,0.4,0.25,0.54,0.54,0.31,0.23" style="fill:rgb(0,0,0);font-family:Calibri-Bold;font-size:10.02px;stroke:none;">version) </text>
  </g>
  <path style="fill:rgb(217,225,242);stroke:none;stroke-width:1.0;" d="M184.740 610.260 L253.740 610.260 L253.740 673.260 L184.740 673.260 L184.740 610.260 "/>
  <path style="fill:rgb(217,225,242);stroke:none;stroke-width:1.0;" d="M189.900 661.020 L248.580 661.020 L248.580 673.260 L189.900 673.260 L189.900 661.020 "/>
  <g begin="text">
   <text y="178.14" x="210.66,214.919,217.379,222.78" svgx:width="0.42,0.25,0.54,0.5" style="fill:rgb(0,0,0);font-family:Calibri-Bold;font-size:10.02px;stroke:none;">Line</text>
  </g>
  <g begin="text">
   <text y="178.14" x="227.76" svgx:width="0.23" style="fill:rgb(0,0,0);font-family:Calibri-Bold;font-size:10.02px;stroke:none;"> </text>
  </g>
  <path style="fill:rgb(217,225,242);stroke:none;stroke-width:1.0;" d="M184.740 610.260 L253.740 610.260 L253.740 673.260 L184.740 673.260 L184.740 610.260 M184.740 610.260 L253.740 610.260 L253.740 673.260 L184.740 673.260 L184.740 610.260 "/>
  <g begin="text">
   <text y="178.14" x="298.5,304.8,309.84,313.32,318.239,320.699,323.159,328.199,333.599,335.884,338.283,343.683,346.86,352.26,355.74,363.897,368.816,372.296,374.756,380.157,385.497,387.776,393.116,398.517,400.796,404.935,410.336,413.876,417.415,422.455,426.654,430.134,432.594,437.994,443.334,445.614,449.095,454.434,456.714,464.87,469.79,474.529" svgx:width="0.63,0.5,0.35,0.49,0.25,0.25,0.5,0.54,0.23,0.25,0.54,0.32,0.54,0.35,0.81,0.49,0.35,0.25,0.54,0.54,0.23,0.54,0.54,0.23,0.42,0.54,0.35,0.35,0.5,0.42,0.35,0.25,0.54,0.54,0.23,0.35,0.54,0.23,0.81,0.49,0.48,0.5" style="fill:rgb(0,0,0);font-family:Calibri-Bold;font-size:10.02px;stroke:none;">Detailed information on correction to make</text>
  </g>
  <g begin="text">
   <text y="178.14" x="479.58" svgx:width="0.23" style="fill:rgb(0,0,0);font-family:Calibri-Bold;font-size:10.02px;stroke:none;"> </text>
  </g>
  <path style="fill:rgb(0,0,0);stroke:none;stroke-width:1.0;" d="M70.860 673.260 L71.340 673.260 L71.340 673.740 L70.860 673.740 L70.860 673.260 "/>
  <path style="fill:rgb(0,0,0);stroke:none;stroke-width:1.0;" d="M70.860 673.260 L71.340 673.260 L71.340 673.740 L70.860 673.740 L70.860 673.260 "/>
  <path style="fill:rgb(0,0,0);stroke:none;stroke-width:1.0;" d="M71.340 673.260 L127.560 673.260 L127.560 673.740 L71.340 673.740 L71.340 673.260 "/>
  <path style="fill:rgb(0,0,0);stroke:none;stroke-width:1.0;" d="M127.560 673.260 L128.040 673.260 L128.040 673.740 L127.560 673.740 L127.560 673.260 "/>
  <path style="fill:rgb(0,0,0);stroke:none;stroke-width:1.0;" d="M128.040 673.260 L184.260 673.260 L184.260 673.740 L128.040 673.740 L128.040 673.260 "/>
  <path style="fill:rgb(0,0,0);stroke:none;stroke-width:1.0;" d="M184.260 673.260 L184.740 673.260 L184.740 673.740 L184.260 673.740 L184.260 673.260 "/>
  <path style="fill:rgb(0,0,0);stroke:none;stroke-width:1.0;" d="M184.740 673.260 L253.800 673.260 L253.800 673.740 L184.740 673.740 L184.740 673.260 "/>
  <path style="fill:rgb(0,0,0);stroke:none;stroke-width:1.0;" d="M253.800 673.260 L254.280 673.260 L254.280 673.740 L253.800 673.740 L253.800 673.260 "/>
  <path style="fill:rgb(0,0,0);stroke:none;stroke-width:1.0;" d="M523.980 673.260 L524.460 673.260 L524.460 673.740 L523.980 673.740 L523.980 673.260 "/>
  <path style="fill:rgb(0,0,0);stroke:none;stroke-width:1.0;" d="M523.980 673.260 L524.460 673.260 L524.460 673.740 L523.980 673.740 L523.980 673.260 "/>
  <path style="fill:rgb(0,0,0);stroke:none;stroke-width:1.0;" d="M70.860 610.260 L71.340 610.260 L71.340 673.260 L70.860 673.260 L70.860 610.260 "/>
  <path style="fill:rgb(0,0,0);stroke:none;stroke-width:1.0;" d="M127.560 610.260 L128.040 610.260 L128.040 673.260 L127.560 673.260 L127.560 610.260 "/>
  <path style="fill:rgb(0,0,0);stroke:none;stroke-width:1.0;" d="M184.260 610.260 L184.740 610.260 L184.740 673.260 L184.260 673.260 L184.260 610.260 "/>
  <path style="fill:rgb(0,0,0);stroke:none;stroke-width:1.0;" d="M253.800 610.260 L254.280 610.260 L254.280 673.260 L253.800 673.260 L253.800 610.260 "/>
  <path style="fill:rgb(0,0,0);stroke:none;stroke-width:1.0;" d="M523.980 610.260 L524.460 610.260 L524.460 673.260 L523.980 673.260 L523.980 610.260 "/>
  <g begin="text">
   <text y="241.62" x="76.5,81.841,87.121,91.921,97.201,100.558,105.538,108.958,111.242" svgx:width="0.53,0.52,0.48,0.52,0.34,0.5,0.35,0.23,0.51" style="fill:rgb(0,0,0);font-family:Calibri;font-size:10.02px;stroke:none;">Chapter 6</text>
  </g>
  <g begin="text">
   <text y="241.62" x="116.28" svgx:width="0.23" style="fill:rgb(0,0,0);font-family:Calibri;font-size:10.02px;stroke:none;"> </text>
  </g>
  <g begin="text">
   <text y="241.62" x="133.2,138.3" svgx:width="0.51,0.51" style="fill:rgb(0,0,0);font-family:Calibri;font-size:10.02px;stroke:none;">15</text>
  </g>
  <g begin="text">
   <text y="241.62" x="143.34" svgx:width="0.23" style="fill:rgb(0,0,0);font-family:Calibri;font-size:10.02px;stroke:none;"> </text>
  </g>
  <g begin="text">
   <text y="241.62" x="189.9" svgx:width="0.51" style="fill:rgb(0,0,0);font-family:Calibri;font-size:10.02px;stroke:none;">5</text>
  </g>
  <g begin="text">
   <text y="241.62" x="195.0" svgx:width="0.31" style="fill:rgb(0,0,0);font-family:Calibri;font-size:10.02px;stroke:none;">-</text>
  </g>
  <g begin="text">
   <text y="241.62" x="198.06" svgx:width="0.51" style="fill:rgb(0,0,0);font-family:Calibri;font-size:10.02px;stroke:none;">7</text>
  </g>
  <g begin="text">
   <text y="241.62" x="203.1" svgx:width="0.23" style="fill:rgb(0,0,0);font-family:Calibri;font-size:10.02px;stroke:none;"> </text>
  </g>
  <g begin="text">
   <text y="241.62" x="259.38,264.84,269.82,275.1,277.38,282.181,286.38,291.36" svgx:width="0.54,0.5,0.52,0.23,0.48,0.42,0.5,0.27" style="fill:rgb(0,0,0);font-family:Calibri;font-size:10.02px;stroke:none;">Replace:</text>
  </g>
  <g begin="text">
   <text y="241.62" x="294.0" svgx:width="0.23" style="fill:rgb(0,0,0);font-family:Calibri;font-size:10.02px;stroke:none;"> </text>
  </g>
  <g begin="text">
   <text y="253.86" x="259.38,265.68,269.16,274.44,281.58,284.937,290.217,292.497,294.777,300.057,302.277,306.537,311.818,316.617,318.839,321.895,324.955,327.234,330.714,335.694,340.975,343.259,348.239,350.519,355.499,359.757,363.118,366.598,368.878,373.136,375.416,378.716,383.275,385.555,390.235,395.215,400.496,405.476,408.956,413.756,417.116,419.396,424.616,429.896,432.176,436.376,441.176,446.456,451.256,455.515,457.794,461.095,465.654,467.938,470.218,475.438,477.723,481.083,486.363,491.283,493.503,499.325,503.226,505.505,510.305" svgx:width="0.63,0.35,0.53,0.71,0.34,0.52,0.23,0.23,0.52,0.23,0.42,0.53,0.48,0.23,0.31,0.31,0.23,0.35,0.5,0.52,0.23,0.5,0.23,0.5,0.42,0.34,0.35,0.23,0.42,0.23,0.34,0.45,0.23,0.47,0.5,0.52,0.5,0.35,0.48,0.34,0.23,0.53,0.52,0.23,0.42,0.48,0.52,0.48,0.42,0.23,0.34,0.45,0.23,0.23,0.52,0.23,0.34,0.52,0.5,0.23,0.58,0.39,0.23,0.48,0.23" style="fill:rgb(0,0,0);font-family:Calibri;font-size:10.02px;stroke:none;">Growth in coal-fired electricity generation capacity in the Asia </text>
   <text y="266.044" x="259.37,264.53,269.33,273.59,275.865,278.925,281.2,285.46,287.74,291.217,296.136,300.877,303.157,308.437,313.716,315.937,321.216,326.017,329.915,332.194,337.475,340.535,343.595,347.493,352.473,355.772,358.057,361.534,366.514,369.873,372.154,375.631,380.611,388.591,393.571,398.85,402.21,406.108,408.387,410.668,415.947,418.168,424.648,429.927,433.404,436.705,441.984,444.264,450.085,458.064,463.044,466.521,468.802,473.001,477.802,480.081,484.822,490.101,495.381" svgx:width="0.52,0.48,0.42,0.23,0.31,0.23,0.42,0.23,0.35,0.5,0.47,0.23,0.53,0.52,0.23,0.52,0.48,0.39,0.23,0.53,0.31,0.31,0.39,0.5,0.34,0.23,0.35,0.5,0.34,0.23,0.35,0.5,0.8,0.5,0.52,0.34,0.39,0.23,0.23,0.52,0.23,0.65,0.53,0.35,0.34,0.52,0.23,0.58,0.8,0.5,0.35,0.23,0.42,0.48,0.23,0.48,0.52,0.52,0.23" style="fill:rgb(0,0,0);font-family:Calibri;font-size:10.02px;stroke:none;">Pacific region has offset retirements in North America and </text>
   <text y="278.289" x="259.37,264.29,269.57,273.05,278.27,283.55,288.53,290.81,293.866,297.046,301.786,306.346,311.626,316.846,319.066,324.046,327.406,329.69,334.49,336.77,339.29,341.57,346.61,351.71,356.75,361.85,364.907,367.366,369.59" svgx:width="0.49,0.52,0.35,0.53,0.52,0.5,0.23,0.3,0.32,0.48,0.46,0.53,0.52,0.23,0.5,0.34,0.23,0.48,0.23,0.25,0.23,0.51,0.51,0.51,0.51,0.3,0.25,0.23,0.23" style="fill:rgb(0,0,0);font-family:Calibri;font-size:10.02px;stroke:none;">Europe (Jakob et al. 2020). </text>
   <text y="290.473" x="259.37" svgx:width="0.23" style="fill:rgb(0,0,0);font-family:Calibri;font-size:10.02px;stroke:none;"> </text>
   <text y="302.718" x="259.37,268.31,270.59,273.95,279.171,281.815" svgx:width="0.89,0.23,0.34,0.52,0.27,0.23" style="fill:rgb(0,0,0);font-family:Calibri;font-size:10.02px;stroke:none;">With: </text>
   <text y="314.902" x="259.37,265.67,269.15,274.43,281.57,284.927,290.208,292.487,294.767,300.047,302.267,306.527,311.808,316.607,318.829,321.885,324.945,327.224,330.704,335.684,340.965,343.249,348.229,350.509,355.489,359.747,363.108,366.588,368.868,373.126,375.406,378.706,383.265,385.545,390.225,395.205,400.486,405.466,408.946,413.746,417.106,419.386,424.606,429.886,432.166,436.366,441.166,446.446,451.246,455.505,457.784,461.085,465.644,467.928,470.208,475.428,477.713,481.073,486.353,491.273,493.493,499.315,503.216,505.495,510.295" svgx:width="0.63,0.35,0.53,0.71,0.34,0.52,0.23,0.23,0.52,0.23,0.42,0.53,0.48,0.23,0.31,0.31,0.23,0.35,0.5,0.52,0.23,0.5,0.23,0.5,0.42,0.34,0.35,0.23,0.42,0.23,0.34,0.45,0.23,0.47,0.5,0.52,0.5,0.35,0.48,0.34,0.23,0.53,0.52,0.23,0.42,0.48,0.52,0.48,0.42,0.23,0.34,0.45,0.23,0.23,0.52,0.23,0.34,0.52,0.5,0.23,0.58,0.39,0.23,0.48,0.23" style="fill:rgb(0,0,0);font-family:Calibri;font-size:10.02px;stroke:none;">Growth in coal-fired electricity generation capacity in the Asia </text>
   <text y="327.146" x="259.36,264.52,269.32,273.58,275.86,278.916,281.195,285.456,287.736,291.215,296.136,300.876,303.156,308.437,313.717,315.937,321.216,326.016,329.916,332.2,337.481,340.537,343.593,347.493,352.473,355.773,358.053,361.533,366.513,369.869,372.15,375.642,380.622,388.602,393.582,398.862,402.222,406.122,408.406,410.686,415.967,418.186,424.666,429.946,433.426,436.726,442.007,444.286,450.108,458.088,463.068,466.548,468.827,473.027,477.827,480.112,484.851,490.132,495.412" svgx:width="0.52,0.48,0.42,0.23,0.31,0.23,0.42,0.23,0.35,0.5,0.47,0.23,0.53,0.52,0.23,0.52,0.48,0.39,0.23,0.53,0.31,0.31,0.39,0.5,0.34,0.23,0.35,0.5,0.34,0.23,0.35,0.5,0.8,0.5,0.52,0.34,0.39,0.23,0.23,0.52,0.23,0.65,0.53,0.35,0.34,0.52,0.23,0.58,0.8,0.5,0.35,0.23,0.42,0.48,0.23,0.48,0.52,0.52,0.23" style="fill:rgb(0,0,0);font-family:Calibri;font-size:10.02px;stroke:none;">Pacific region has offset retirements in North America and </text>
  </g>
  <g begin="text">
   <text y="339.3" x="259.38,264.3,269.58,273.06,278.28,283.56,288.54,290.82,293.876,297.056,301.796,306.356,311.636,316.856,319.076,324.056,327.416,329.7,334.5,336.78,339.3,341.58,346.62,351.72,356.76,361.86,364.32,366.6,372.901,375.18,380.461,385.741,390.542,392.821,395.101,399.961,405.242,410.222,413.702,418.382,422.941,425.162,433.741,438.961,444.242,446.521,449.881,455.162,458.642,460.921,465.901,469.262,471.541,476.341,478.621,481.081,483.601,485.886,490.926,495.965,501.065,506.105,509.161" svgx:width="0.49,0.52,0.35,0.53,0.52,0.5,0.23,0.3,0.32,0.48,0.46,0.53,0.52,0.23,0.5,0.34,0.23,0.48,0.23,0.25,0.23,0.51,0.51,0.51,0.51,0.25,0.23,0.63,0.23,0.53,0.52,0.48,0.23,0.23,0.49,0.52,0.5,0.35,0.47,0.45,0.23,0.86,0.53,0.52,0.23,0.34,0.53,0.35,0.23,0.5,0.34,0.23,0.48,0.23,0.25,0.25,0.23,0.51,0.51,0.51,0.51,0.3,0.25" style="fill:rgb(0,0,0);font-family:Calibri;font-size:10.02px;stroke:none;">Europe (Jakob et al. 2020, Global Energy Monitor et al., 2021).</text>
  </g>
  <g begin="text">
   <text y="339.3" x="511.68" svgx:width="0.23" style="fill:rgb(0,0,0);font-family:Calibri;font-size:10.02px;stroke:none;"> </text>
  </g>
  <path style="fill:rgb(0,0,0);stroke:none;stroke-width:1.0;" d="M70.860 609.780 L71.340 609.780 L71.340 610.260 L70.860 610.260 L70.860 609.780 "/>
  <path style="fill:rgb(0,0,0);stroke:none;stroke-width:1.0;" d="M71.340 609.780 L127.560 609.780 L127.560 610.260 L71.340 610.260 L71.340 609.780 "/>
  <path style="fill:rgb(0,0,0);stroke:none;stroke-width:1.0;" d="M127.560 609.780 L128.040 609.780 L128.040 610.260 L127.560 610.260 L127.560 609.780 "/>
  <path style="fill:rgb(0,0,0);stroke:none;stroke-width:1.0;" d="M128.040 609.780 L184.260 609.780 L184.260 610.260 L128.040 610.260 L128.040 609.780 "/>
  <path style="fill:rgb(0,0,0);stroke:none;stroke-width:1.0;" d="M184.260 609.780 L184.740 609.780 L184.740 610.260 L184.260 610.260 L184.260 609.780 "/>
  <path style="fill:rgb(0,0,0);stroke:none;stroke-width:1.0;" d="M184.740 609.780 L253.800 609.780 L253.800 610.260 L184.740 610.260 L184.740 609.780 "/>
  <path style="fill:rgb(0,0,0);stroke:none;stroke-width:1.0;" d="M253.800 609.780 L254.280 609.780 L254.280 610.260 L253.800 610.260 L253.800 609.780 "/>
  <path style="fill:rgb(0,0,0);stroke:none;stroke-width:1.0;" d="M523.980 609.780 L524.460 609.780 L524.460 610.260 L523.980 610.260 L523.980 609.780 "/>
  <g begin="text">
   <text y="352.02" x="76.5,81.841,87.121,91.921,97.201,100.558,105.538,108.958,111.242" svgx:width="0.53,0.52,0.48,0.52,0.34,0.5,0.35,0.23,0.51" style="fill:rgb(0,0,0);font-family:Calibri;font-size:10.02px;stroke:none;">Chapter 6</text>
  </g>
  <g begin="text">
   <text y="352.02" x="116.28" svgx:width="0.23" style="fill:rgb(0,0,0);font-family:Calibri;font-size:10.02px;stroke:none;"> </text>
  </g>
  <g begin="text">
   <text y="352.02" x="133.2,138.3" svgx:width="0.51,0.51" style="fill:rgb(0,0,0);font-family:Calibri;font-size:10.02px;stroke:none;">44</text>
  </g>
  <g begin="text">
   <text y="352.02" x="143.34" svgx:width="0.23" style="fill:rgb(0,0,0);font-family:Calibri;font-size:10.02px;stroke:none;"> </text>
  </g>
  <g begin="text">
   <text y="352.02" x="189.9,195.0" svgx:width="0.51,0.51" style="fill:rgb(0,0,0);font-family:Calibri;font-size:10.02px;stroke:none;">41</text>
  </g>
  <g begin="text">
   <text y="352.02" x="200.1" svgx:width="0.31" style="fill:rgb(0,0,0);font-family:Calibri;font-size:10.02px;stroke:none;">-</text>
  </g>
  <g begin="text">
   <text y="352.02" x="203.1,208.2" svgx:width="0.51,0.51" style="fill:rgb(0,0,0);font-family:Calibri;font-size:10.02px;stroke:none;">43</text>
  </g>
  <g begin="text">
   <text y="352.02" x="213.24" svgx:width="0.23" style="fill:rgb(0,0,0);font-family:Calibri;font-size:10.02px;stroke:none;"> </text>
  </g>
  <g begin="text">
   <text y="352.02" x="259.38,264.84,269.82,275.1,277.38,282.181,286.38,291.36" svgx:width="0.54,0.5,0.52,0.23,0.48,0.42,0.5,0.27" style="fill:rgb(0,0,0);font-family:Calibri;font-size:10.02px;stroke:none;">Replace:</text>
  </g>
  <g begin="text">
   <text y="352.02" x="294.0" svgx:width="0.23" style="fill:rgb(0,0,0);font-family:Calibri;font-size:10.02px;stroke:none;"> </text>
  </g>
  <g begin="text">
   <text y="364.2" x="259.38,264.24,269.52,274.32,277.68,279.964,283.862,288.661,290.942,296.222,298.681,300.966,304.443,309.423,313.683,318.603,323.883,327.242,329.527,334.027,339.007,343.806,347.283,351.181,353.461,358.74,363.541,368.041,372.961,375.245,379.143,384.123,389.103,394.382,396.667,401.466,403.687,408.966,413.946,418.207,421.684,426.603,431.403,435.301,440.281,442.56,444.841,450.12,452.4,455.46,460.741,464.638,468.536,470.817,473.091,475.371,480.231,485.691,492.352,494.812,497.332" svgx:width="0.49,0.52,0.48,0.34,0.23,0.39,0.48,0.23,0.52,0.25,0.23,0.35,0.5,0.42,0.5,0.52,0.34,0.23,0.45,0.5,0.48,0.35,0.39,0.23,0.52,0.48,0.45,0.5,0.23,0.39,0.5,0.5,0.52,0.23,0.48,0.23,0.52,0.5,0.42,0.35,0.5,0.48,0.39,0.5,0.23,0.23,0.52,0.23,0.31,0.53,0.39,0.39,0.23,0.23,0.23,0.49,0.54,0.66,0.25,0.25,0.23" style="fill:rgb(0,0,0);font-family:Calibri;font-size:10.02px;stroke:none;">That said, recent years have seen a decrease in fossil EROI, </text>
   <text y="376.444" x="259.38,264.36,268.26,273.54,278.52,282.779,285.059,289.859,292.139,294.419,298.978,301.263,306.062,309.902,312.186,317.406,322.686,327.967,332.947,336.427,341.166,344.646,349.867,355.147,360.368,365.648,367.869,372.127,377.347,382.147,384.428,386.707,394.687,396.968,402.248,404.529,409.809,414.549,416.768,422.049,426.848,430.748,432.968,437.169,442.448,447.729,451.089,453.368,458.649,463.929,468.849,474.13,476.409,478.69,483.91,486.19,491.529,496.75,499.029,504.31,509.109,511.623" svgx:width="0.5,0.39,0.52,0.5,0.42,0.23,0.48,0.23,0.23,0.45,0.23,0.48,0.39,0.23,0.52,0.52,0.52,0.5,0.35,0.47,0.35,0.53,0.52,0.52,0.52,0.23,0.42,0.53,0.48,0.23,0.23,0.8,0.23,0.52,0.23,0.52,0.47,0.23,0.52,0.48,0.39,0.23,0.42,0.53,0.52,0.34,0.23,0.52,0.52,0.5,0.52,0.23,0.23,0.52,0.23,0.53,0.52,0.23,0.52,0.48,0.25,0.23" style="fill:rgb(0,0,0);font-family:Calibri;font-size:10.02px;stroke:none;">especially as underground coal mining has continued in China. </text>
   <text y="388.629" x="259.38" svgx:width="0.23" style="fill:rgb(0,0,0);font-family:Calibri;font-size:10.02px;stroke:none;"> </text>
   <text y="400.873" x="259.38,268.32,270.6,273.96,279.181,281.825" svgx:width="0.89,0.23,0.34,0.52,0.27,0.23" style="fill:rgb(0,0,0);font-family:Calibri;font-size:10.02px;stroke:none;">With: </text>
   <text y="413.058" x="259.38,264.24,269.52,274.32,277.677,279.961,283.859,288.659,290.934,296.215,298.674,300.954,304.431,309.411,313.671,318.591,323.871,327.23,329.515,334.015,338.995,343.795,347.272,351.17,353.45,358.73,363.53,368.03,372.949,375.234,379.132,384.112,389.092,394.371,396.656,401.455,403.676,408.955,413.935,418.196,421.673,426.592,431.392,435.29,440.27,442.549,444.83,450.109,452.389,455.449,460.73,464.627,468.525,470.806,473.08,475.36,480.22,485.68,492.341,494.8,497.32" svgx:width="0.49,0.52,0.48,0.34,0.23,0.39,0.48,0.23,0.52,0.25,0.23,0.35,0.5,0.42,0.5,0.52,0.34,0.23,0.45,0.5,0.48,0.35,0.39,0.23,0.52,0.48,0.45,0.5,0.23,0.39,0.5,0.5,0.52,0.23,0.48,0.23,0.52,0.5,0.42,0.35,0.5,0.48,0.39,0.5,0.23,0.23,0.52,0.23,0.31,0.53,0.39,0.39,0.23,0.23,0.23,0.49,0.54,0.66,0.25,0.25,0.23" style="fill:rgb(0,0,0);font-family:Calibri;font-size:10.02px;stroke:none;">That said, recent years have seen a decrease in fossil EROI, </text>
   <text y="425.302" x="259.38,264.36,268.258,273.538,278.518,282.778,285.058,289.858,292.138,294.413,298.973,301.252,306.053,309.893,312.172,317.393,322.673,327.953,332.933,336.41,341.15,344.627,349.846,355.127,360.346,365.627,367.846,372.107,377.326,382.127,384.401,386.686,394.666,396.94,402.22,404.5,409.78,414.52,416.805,420.703,424.062,426.337,428.617,430.892,433.177,436.596,441.576,446.856,450.333,455.313,459.21,464.19,469.47,472.83,476.727,479.007,483.747" svgx:width="0.5,0.39,0.52,0.5,0.42,0.23,0.48,0.23,0.23,0.45,0.23,0.48,0.39,0.23,0.52,0.52,0.52,0.5,0.35,0.47,0.35,0.53,0.52,0.52,0.52,0.23,0.42,0.53,0.48,0.23,0.23,0.8,0.23,0.52,0.23,0.52,0.47,0.23,0.39,0.34,0.23,0.23,0.23,0.23,0.35,0.5,0.52,0.35,0.5,0.39,0.5,0.52,0.34,0.39,0.23,0.48,0.23" style="fill:rgb(0,0,0);font-family:Calibri;font-size:10.02px;stroke:none;">especially as underground coal mining still represents a </text>
   <text y="437.486" x="259.38,263.28,268.56,273.84,277.74,281.096,285.896,291.175,294.532,296.812,301.611,303.891,306.115,311.395,316.675,320.095,323.452,325.731,331.012,336.293,338.572,343.853,346.909,349.133,353.873,356.153,361.434,366.714,371.514,373.793,376.018,381.238,384.718,389.999,395.279,400.559,404.759,408.116,410.395,415.676,420.956,423.417" svgx:width="0.39,0.52,0.52,0.39,0.34,0.48,0.52,0.34,0.23,0.48,0.23,0.23,0.52,0.53,0.35,0.34,0.23,0.53,0.52,0.23,0.53,0.31,0.23,0.47,0.23,0.53,0.52,0.48,0.23,0.23,0.52,0.35,0.53,0.52,0.52,0.42,0.34,0.23,0.53,0.52,0.25,0.23" style="fill:rgb(0,0,0);font-family:Calibri;font-size:10.02px;stroke:none;">substantial portion of global production. </text>
  </g>
  <g begin="text">
   <text y="449.64" x="259.38" svgx:width="0.23" style="fill:rgb(0,0,0);font-family:Calibri;font-size:10.02px;stroke:none;"> </text>
  </g>
  <path style="fill:rgb(0,0,0);stroke:none;stroke-width:1.0;" d="M70.860 499.380 L71.340 499.380 L71.340 499.860 L70.860 499.860 L70.860 499.380 "/>
  <path style="fill:rgb(0,0,0);stroke:none;stroke-width:1.0;" d="M71.340 499.380 L127.560 499.380 L127.560 499.860 L71.340 499.860 L71.340 499.380 "/>
  <path style="fill:rgb(0,0,0);stroke:none;stroke-width:1.0;" d="M127.560 499.380 L128.040 499.380 L128.040 499.860 L127.560 499.860 L127.560 499.380 "/>
  <path style="fill:rgb(0,0,0);stroke:none;stroke-width:1.0;" d="M128.040 499.380 L184.260 499.380 L184.260 499.860 L128.040 499.860 L128.040 499.380 "/>
  <path style="fill:rgb(0,0,0);stroke:none;stroke-width:1.0;" d="M184.260 499.380 L184.740 499.380 L184.740 499.860 L184.260 499.860 L184.260 499.380 "/>
  <path style="fill:rgb(0,0,0);stroke:none;stroke-width:1.0;" d="M184.740 499.380 L253.800 499.380 L253.800 499.860 L184.740 499.860 L184.740 499.380 "/>
  <path style="fill:rgb(0,0,0);stroke:none;stroke-width:1.0;" d="M253.800 499.380 L254.280 499.380 L254.280 499.860 L253.800 499.860 L253.800 499.380 "/>
  <path style="fill:rgb(0,0,0);stroke:none;stroke-width:1.0;" d="M523.980 499.380 L524.460 499.380 L524.460 499.860 L523.980 499.860 L523.980 499.380 "/>
  <g begin="text">
   <text y="462.36" x="76.5,81.841,87.121,91.921,97.201,100.558,105.538,108.958,111.242" svgx:width="0.53,0.52,0.48,0.52,0.34,0.5,0.35,0.23,0.51" style="fill:rgb(0,0,0);font-family:Calibri;font-size:10.02px;stroke:none;">Chapter 6</text>
  </g>
  <g begin="text">
   <text y="462.36" x="116.28" svgx:width="0.23" style="fill:rgb(0,0,0);font-family:Calibri;font-size:10.02px;stroke:none;"> </text>
  </g>
  <g begin="text">
   <text y="462.36" x="133.2,138.3,143.34" svgx:width="0.51,0.51,0.51" style="fill:rgb(0,0,0);font-family:Calibri;font-size:10.02px;stroke:none;">121</text>
  </g>
  <g begin="text">
   <text y="462.36" x="148.38" svgx:width="0.23" style="fill:rgb(0,0,0);font-family:Calibri;font-size:10.02px;stroke:none;"> </text>
  </g>
  <g begin="text">
   <text y="462.36" x="189.9,195.0" svgx:width="0.51,0.51" style="fill:rgb(0,0,0);font-family:Calibri;font-size:10.02px;stroke:none;">44</text>
  </g>
  <g begin="text">
   <text y="462.36" x="200.04" svgx:width="0.23" style="fill:rgb(0,0,0);font-family:Calibri;font-size:10.02px;stroke:none;"> </text>
  </g>
  <g begin="text">
   <text y="462.36" x="259.38,264.84,269.82,275.1,277.38,282.181,286.38,291.36" svgx:width="0.54,0.5,0.52,0.23,0.48,0.42,0.5,0.27" style="fill:rgb(0,0,0);font-family:Calibri;font-size:10.02px;stroke:none;">Replace:</text>
  </g>
  <g begin="text">
   <text y="462.36" x="294.0" svgx:width="0.23" style="fill:rgb(0,0,0);font-family:Calibri;font-size:10.02px;stroke:none;"> </text>
  </g>
  <g begin="text">
   <text y="474.6" x="259.38,264.0,266.275,274.255,276.535,278.81,283.61,287.087,289.362,293.922,296.442,298.721,303.522,305.802,309.699,314.92,320.14,324.038,326.312,331.593,336.153,338.433,343.712,347.189,352.47,360.45,365.73,369.03,374.01,379.289,381.51,384.869,390.15,395.13,397.409,399.69,404.969,408.867,412.228,417.027,419.302,421.583,426.382,429.742,432.022,437.243,442.462,444.742,450.022,453.082,455.362,459.26,464.54,466.815,471.615,475.092,477.372,484.516,489.316,492.676,497.656,501.133" svgx:width="0.46,0.23,0.8,0.23,0.23,0.48,0.35,0.23,0.45,0.25,0.23,0.48,0.23,0.39,0.52,0.52,0.39,0.23,0.52,0.45,0.23,0.52,0.35,0.53,0.8,0.53,0.34,0.5,0.52,0.23,0.34,0.52,0.5,0.23,0.23,0.52,0.39,0.34,0.48,0.23,0.23,0.48,0.34,0.23,0.53,0.52,0.23,0.53,0.31,0.23,0.39,0.53,0.23,0.48,0.35,0.23,0.71,0.48,0.34,0.5,0.35,0.23" style="fill:rgb(0,0,0);font-family:Calibri;font-size:10.02px;stroke:none;">Similarly, a subsidy promoted the installation of solar water </text>
   <text y="486.784" x="259.38,264.661,269.641,274.44,277.8,282.78,286.26,290.159,292.439,294.724,300.004,302.216,308.037,311.938,314.217,318.958,321.237,324.294,329.633,334.854,339.653,344.874,349.613,351.893,356.873,360.232,362.453,367.252,369.533,372.053,374.332,379.372,384.473,389.513,394.613,397.669,400.189,402.416" svgx:width="0.52,0.5,0.48,0.34,0.5,0.35,0.39,0.23,0.23,0.52,0.23,0.58,0.39,0.23,0.48,0.23,0.3,0.53,0.52,0.48,0.52,0.47,0.23,0.5,0.34,0.23,0.48,0.23,0.25,0.23,0.51,0.51,0.51,0.51,0.3,0.25,0.23,0.23" style="fill:rgb(0,0,0);font-family:Calibri;font-size:10.02px;stroke:none;">heaters in Asia (Chang et al. 2009). </text>
   <text y="499.029" x="259.38" svgx:width="0.23" style="fill:rgb(0,0,0);font-family:Calibri;font-size:10.02px;stroke:none;"> </text>
   <text y="511.213" x="259.38,268.32,270.6,273.96,279.181,281.825" svgx:width="0.89,0.23,0.34,0.52,0.27,0.23" style="fill:rgb(0,0,0);font-family:Calibri;font-size:10.02px;stroke:none;">With: </text>
   <text y="523.458" x="259.38,264.0,266.275,274.255,276.535,278.81,283.61,287.087,289.362,293.922,296.442,298.721,306.701,311.502,316.721,321.281,323.566,328.846,332.322,337.543,342.282,345.759,350.56,358.54,362.438,364.717,369.938,374.678,379.178,384.158,386.437,391.718,395.195,400.474,408.454,413.735,417.095,422.074,427.294,429.578,432.878,438.159,443.138,445.418,447.699,452.978,456.876,460.237,465.036,467.317,469.591,474.391,477.752,480.026,485.306,490.526,492.746,498.026,501.086" svgx:width="0.46,0.23,0.8,0.23,0.23,0.48,0.35,0.23,0.45,0.25,0.23,0.8,0.48,0.52,0.45,0.23,0.52,0.35,0.53,0.47,0.35,0.48,0.8,0.39,0.23,0.52,0.48,0.45,0.5,0.23,0.52,0.35,0.53,0.8,0.53,0.34,0.5,0.52,0.23,0.34,0.52,0.5,0.23,0.23,0.52,0.39,0.34,0.48,0.23,0.23,0.48,0.34,0.23,0.53,0.52,0.23,0.53,0.31,0.23" style="fill:rgb(0,0,0);font-family:Calibri;font-size:10.02px;stroke:none;">Similarly, many programs have promoted the installation of </text>
   <text y="535.642" x="259.38,261.655,266.935,274.079,279.059,282.536,285.602,289.861,294.661,298.141,303.422,308.702,313.923,316.142,321.423,326.702,331.983,335.884,340.864,346.144,351.425,353.644,358.925,361.204,366.485,371.704,375.065,377.344,382.624,387.904,391.804,394.089,397.989,403.269,407.47,412.75,415.03,419.829,423.67,425.949,431.23,436.15,440.949,444.31,446.59,451.81,457.091,465.071,470.351,474.251,476.771,478.99,484.271,486.55,490.451,493.811,497.291,499.571,503.83,507.19" svgx:width="0.23,0.53,0.71,0.5,0.35,0.31,0.42,0.48,0.35,0.52,0.53,0.52,0.23,0.52,0.53,0.52,0.39,0.5,0.52,0.53,0.23,0.52,0.23,0.53,0.52,0.34,0.23,0.53,0.52,0.39,0.23,0.39,0.52,0.42,0.52,0.23,0.48,0.39,0.23,0.52,0.5,0.48,0.34,0.23,0.52,0.52,0.8,0.52,0.39,0.25,0.23,0.52,0.23,0.39,0.34,0.35,0.23,0.42,0.34,0.23" style="fill:rgb(0,0,0);font-family:Calibri;font-size:10.02px;stroke:none;">lower-carbon household options such as heat pumps, district </text>
   <text y="547.826" x="259.38,264.661,269.641,274.44,277.797,280.077,285.297,290.037,292.557,294.837,300.117,303.537,305.817,309.718,314.998,317.278,322.077,325.557,327.837,334.977,339.777,343.133,348.113,351.593,353.873,359.153,364.073,368.873,372.229,377.149,380.629,384.529,386.813,391.613,395.874,399.353,404.634,408.534,412.435,414.714,419.574,424.854,428.334,433.554,438.834,443.814,446.334,448.614,451.914,457.194,462.174,464.394,470.214,474.114,476.394,481.194,484.259,489.419,494.159,498.419,500.694,503.754,506.034,510.294" svgx:width="0.52,0.5,0.48,0.34,0.23,0.52,0.47,0.25,0.23,0.53,0.35,0.23,0.39,0.53,0.23,0.48,0.35,0.23,0.71,0.48,0.34,0.5,0.35,0.23,0.52,0.5,0.48,0.34,0.5,0.35,0.39,0.23,0.48,0.42,0.35,0.53,0.39,0.39,0.23,0.49,0.52,0.35,0.53,0.52,0.5,0.25,0.23,0.34,0.52,0.5,0.23,0.58,0.39,0.23,0.48,0.31,0.52,0.48,0.42,0.23,0.31,0.23,0.42,0.23" style="fill:rgb(0,0,0);font-family:Calibri;font-size:10.02px;stroke:none;">heating, or solar water heaters across Europe, the Asia-Pacific </text>
   <text y="560.071" x="259.38,264.18,269.46,274.741,276.961,282.783,285.843,289.323,291.603,295.862,300.602,302.882,305.938,312.118,317.399,319.619,324.599,327.959,330.243,335.043,337.324,339.844,342.364,344.583,349.683,354.723,359.824,364.864,367.563,369.848,374.408,379.627,384.127,388.928,393.186,398.467,403.746,406.027,408.306,413.097,418.317,423.598,425.822,434.401,439.142,442.622,445.981,448.262,452.162,456.722,461.521,463.802,469.083,474.062,479.343,481.562,486.663,491.703,496.743,501.843,504.543" svgx:width="0.48,0.52,0.52,0.23,0.58,0.31,0.35,0.23,0.42,0.48,0.23,0.3,0.62,0.52,0.23,0.5,0.34,0.23,0.48,0.23,0.25,0.25,0.23,0.51,0.51,0.51,0.51,0.27,0.23,0.46,0.53,0.45,0.48,0.42,0.53,0.53,0.23,0.23,0.48,0.52,0.52,0.23,0.86,0.48,0.35,0.34,0.23,0.39,0.46,0.48,0.23,0.52,0.5,0.52,0.23,0.51,0.51,0.51,0.51,0.27,0.23" style="fill:rgb(0,0,0);font-family:Calibri;font-size:10.02px;stroke:none;">and Africa (Hu et al,. 2012; Sovacool and Martiskainen 2020; </text>
   <text y="572.255" x="259.38,265.202,270.482,278.462,283.442,288.663,290.942,295.922,299.282,301.566,306.366,308.646,311.166,313.386,318.426,323.526,328.566,333.666,336.722,339.179" svgx:width="0.58,0.52,0.8,0.5,0.52,0.23,0.5,0.34,0.23,0.48,0.23,0.25,0.23,0.51,0.51,0.51,0.51,0.3,0.25,0.23" style="fill:rgb(0,0,0);font-family:Calibri;font-size:10.02px;stroke:none;">Ahmed et al. 2021). </text>
   <text y="584.499" x="259.38" svgx:width="0.23" style="fill:rgb(0,0,0);font-family:Calibri;font-size:10.02px;stroke:none;"> </text>
   <text y="596.684" x="259.38,264.24,269.52,274.5,276.78,279.84,285.12,287.4,289.68,294.96,302.1,304.38,309.66,314.4,316.684,320.104,325.084,328.144,333.124,336.604,341.584,346.865,351.123,356.103,360.003,362.223,365.583,370.864,373.143,378.363,383.343,385.623,390.424,395.704,400.925,405.904,411.185,413.47,416.769,422.05,424.329,427.63,432.91,437.83,440.115,445.395,447.676,452.956,455.237,457.516,462.796,467.535,471.015,475.756,481.036,486.257,490.816,493.437" svgx:width="0.49,0.52,0.5,0.23,0.31,0.53,0.23,0.23,0.53,0.71,0.23,0.52,0.47,0.23,0.35,0.5,0.31,0.5,0.35,0.5,0.52,0.42,0.5,0.39,0.23,0.34,0.53,0.23,0.52,0.5,0.23,0.48,0.52,0.52,0.5,0.52,0.23,0.34,0.53,0.23,0.34,0.52,0.5,0.23,0.52,0.23,0.52,0.23,0.23,0.53,0.47,0.35,0.48,0.52,0.52,0.45,0.27,0.23" style="fill:rgb(0,0,0);font-family:Calibri;font-size:10.02px;stroke:none;">The following references to be added to the bibliography: </text>
   <text y="608.928" x="259.38,264.36,266.645,272.466,277.747,285.727,290.647,295.928,298.448,300.668,305.288,310.568,318.488,323.289,325.568,329.048,331.333,335.952,340.753,343.032,346.932,351.732,354.012,356.532,358.817,367.337,372.616,377.836,382.636,390.616,398.596,403.396,408.677,410.957,416.117,421.397,426.197,428.478,430.757,436.038,438.498,440.777,449.357,454.158,459.377,464.357,468.258,473.538,475.759,481.46,486.261,490.821,495.56,498.02" svgx:width="0.5,0.23,0.58,0.52,0.8,0.5,0.52,0.25,0.23,0.46,0.52,0.8,0.48,0.23,0.35,0.23,0.46,0.48,0.23,0.39,0.48,0.23,0.25,0.23,0.86,0.53,0.52,0.48,0.8,0.8,0.48,0.52,0.23,0.52,0.52,0.48,0.23,0.23,0.52,0.25,0.23,0.86,0.48,0.52,0.5,0.39,0.52,0.23,0.57,0.48,0.46,0.48,0.25,0.23" style="fill:rgb(0,0,0);font-family:Calibri;font-size:10.02px;stroke:none;">• Ahmed, Sumair Faisal, Mohammad Khalid, Mahesh Vaka, </text>
   <text y="621.112" x="259.38,264.841,269.641,273.541,278.822,286.802,289.082,291.302,300.24,305.039,307.319,311.819,316.8,321.359,326.159,329.639,332.159,334.379,340.2,343.68,347.58,352.861,355.14,360.421,362.64,369.12,374.34,382.32,387.12,392.4,394.921,397.14,402.962,408.181,413.462,418.742,421.023,423.242,428.462,433.682,438.482,440.762,443.043,448.323,450.604,456.065,460.864,464.764,470.044,474.964,479.944,485.225,487.685" svgx:width="0.54,0.48,0.39,0.52,0.8,0.23,0.23,0.89,0.48,0.23,0.45,0.5,0.46,0.48,0.35,0.25,0.23,0.58,0.35,0.39,0.52,0.23,0.52,0.23,0.65,0.52,0.8,0.48,0.52,0.25,0.23,0.58,0.52,0.52,0.52,0.23,0.23,0.52,0.52,0.48,0.23,0.23,0.52,0.23,0.54,0.48,0.39,0.52,0.5,0.5,0.52,0.25,0.23" style="fill:rgb(0,0,0);font-family:Calibri;font-size:10.02px;stroke:none;">Rashmi Walvekar, Arshid Numan, Abdul Khaliq Rasheed, </text>
   <text y="633.357" x="259.38,265.86,270.66,275.939,278.219,282.119,286.919,292.139,294.419,302.999,308.219,310.619,315.359,322.499,327.299,330.78,333.059,341.639,346.859,352.139,356.939,360.419,365.218,369.718,372.238,374.458,379.918,384.898,389.158,394.078,399.359,402.715,404.935,410.215,413.695,418.976,423.715,427.195,432.115,436.015,439.916,442.195,444.476,449.755,452.04,455.94,461.22,463.501,468.3,471.78,474.065,481.205,486.004,489.305,494.285,497.765" svgx:width="0.65,0.48,0.52,0.23,0.39,0.48,0.52,0.23,0.86,0.52,0.24,0.48,0.71,0.48,0.35,0.23,0.86,0.52,0.52,0.48,0.35,0.48,0.46,0.25,0.23,0.54,0.5,0.42,0.5,0.52,0.34,0.23,0.52,0.35,0.53,0.47,0.35,0.5,0.39,0.39,0.23,0.23,0.52,0.23,0.39,0.53,0.23,0.48,0.35,0.23,0.71,0.48,0.34,0.5,0.35,0.23" style="fill:rgb(0,0,0);font-family:Calibri;font-size:10.02px;stroke:none;">Nabisab Mujawar Mubarak, Recent progress in solar water </text>
   <text y="645.541" x="259.38,264.661,269.64,274.44,277.8,282.78,286.257,290.154,292.439,297.179,302.459,307.738,310.023,313.921,319.141,321.416,326.215,329.692,331.972,336.232,341.512,343.786,346.067,351.047,355.306,358.667,363.947,367.423,371.321,373.962,376.182,382.002,384.281,388.482,393.762,401.742,407.022,410.498,415.478,420.759,425.679,430.958,434.856,437.137,441.637,446.616,448.896,452.373,457.353,461.853,464.133,469.113,476.258,478.778,481.057,485.917,491.197,496.117,499.594,507.574,512.375,514.649" svgx:width="0.52,0.5,0.48,0.34,0.5,0.35,0.39,0.23,0.48,0.52,0.52,0.23,0.39,0.53,0.23,0.48,0.35,0.23,0.42,0.53,0.23,0.23,0.5,0.42,0.34,0.53,0.35,0.39,0.27,0.23,0.58,0.23,0.42,0.53,0.8,0.52,0.35,0.5,0.52,0.5,0.52,0.39,0.23,0.45,0.5,0.23,0.35,0.5,0.45,0.23,0.5,0.71,0.25,0.23,0.49,0.52,0.5,0.35,0.8,0.48,0.23,0.23" style="fill:rgb(0,0,0);font-family:Calibri;font-size:10.02px;stroke:none;">heaters and solar collectors: A comprehensive review, Thermal </text>
   <text y="657.726" x="259.38,263.999,268.258,270.538,275.518,280.739,284.997,289.977,292.257,296.997,302.278,307.497,309.782,314.641,319.861,324.6,326.881,332.161,337.141,342.121,345.601,347.882,353.101,357.841,360.12,365.28,368.76,374.041,378.72,382.2,387.18,391.08,394.981,397.501,399.78,405.482,410.761,413.042,418.322,426.302,431.282,433.503,438.543,443.643,446.163,448.382,453.483,458.523,463.623,468.663,471.183,473.402,478.503,483.543,488.643,493.683,498.723,503.758" svgx:width="0.46,0.42,0.23,0.5,0.52,0.42,0.5,0.23,0.48,0.52,0.52,0.23,0.49,0.52,0.47,0.23,0.52,0.5,0.5,0.35,0.23,0.52,0.47,0.23,0.52,0.35,0.53,0.47,0.35,0.5,0.39,0.39,0.25,0.23,0.57,0.53,0.23,0.52,0.8,0.5,0.23,0.51,0.51,0.25,0.23,0.51,0.51,0.51,0.51,0.25,0.23,0.51,0.51,0.51,0.51,0.51,0.51,0.23" style="fill:rgb(0,0,0);font-family:Calibri;font-size:10.02px;stroke:none;">Science and Engineering Progress, Volume 25, 2021, 100981 </text>
   <text y="669.97" x="259.38,264.36,266.645,272.884,278.165,280.384,285.844,288.365,290.885,293.104,297.725,302.945,308.225,310.509,315.668,318.183,320.644,322.924,331.864,336.604,341.885,346.564,348.849,353.528,356.043,358.328,364.087,369.368,371.647,376.928,381.367,386.347,389.827,394.328,396.608,401.588,408.728,411.013,416.292,419.352,421.632,424.993,430.272,435.252,437.472,442.693,447.673,452.173,457.153,459.437,464.717,469.997,477.977,482.957,488.237,491.598,493.877,499.158,502.158" svgx:width="0.5,0.23,0.62,0.52,0.23,0.54,0.25,0.25,0.23,0.46,0.52,0.52,0.23,0.52,0.25,0.25,0.23,0.89,0.48,0.52,0.47,0.23,0.47,0.25,0.23,0.58,0.52,0.23,0.53,0.45,0.5,0.35,0.45,0.23,0.5,0.71,0.23,0.53,0.31,0.23,0.34,0.52,0.5,0.23,0.52,0.5,0.45,0.5,0.23,0.53,0.52,0.8,0.5,0.52,0.34,0.23,0.53,0.31,0.23" style="fill:rgb(0,0,0);font-family:Calibri;font-size:10.02px;stroke:none;">• Hu R., Sun P., Wang Z. An overview of the development of </text>
   <text y="682.154" x="259.38,263.28,268.56,270.84,275.64,279.12,281.4,288.54,293.34,296.7,301.68,305.16,307.44,312.72,317.64,322.44,325.801,330.78,334.26,336.54,338.82,344.101,349.321,354.602,358.502,361.863,365.342,369.902,372.181,374.402,379.682,381.967,387.306,392.587,394.806,400.087,404.886,407.406,409.626,414.547,419.827,424.807,428.227,432.907,437.466,439.746,445.026,450.306,452.587,454.866,459.066,463.626,466.086,468.37,473.409,478.509,483.549,488.65,491.11,493.33,498.43,503.53,506.171" svgx:width="0.39,0.53,0.23,0.48,0.35,0.23,0.71,0.48,0.34,0.5,0.35,0.23,0.52,0.5,0.48,0.34,0.5,0.35,0.23,0.23,0.52,0.52,0.52,0.39,0.34,0.35,0.45,0.23,0.23,0.52,0.23,0.53,0.52,0.23,0.52,0.48,0.25,0.23,0.49,0.52,0.5,0.35,0.47,0.45,0.23,0.52,0.53,0.23,0.23,0.42,0.45,0.25,0.23,0.51,0.51,0.51,0.51,0.25,0.23,0.51,0.51,0.27,0.23" style="fill:rgb(0,0,0);font-family:Calibri;font-size:10.02px;stroke:none;">solar water heater industry in China. Energy policy, 2012, 51: </text>
   <text y="694.399" x="259.38,264.48,269.58,272.576,277.677,282.777,285.232" svgx:width="0.51,0.51,0.31,0.51,0.51,0.25,0.23" style="fill:rgb(0,0,0);font-family:Calibri;font-size:10.02px;stroke:none;">46-51. </text>
   <text y="706.583" x="259.37,264.35,266.634,271.254,276.534,281.034,285.834,290.094,295.314,300.594,302.874,305.394,307.678,313.138,318.058,323.338,325.739,330.538,338.518,340.798,346.078,348.299,353.518,356.038,358.558,360.779,369.359,374.158,377.578,379.859,382.138,390.718,395.518,398.998,402.355,404.634,408.534,413.093,417.893,420.172,425.453,430.372,435.652,438.112,440.396,446.639,451.919,455.276" svgx:width="0.5,0.23,0.46,0.53,0.45,0.48,0.42,0.53,0.53,0.23,0.25,0.23,0.54,0.5,0.52,0.24,0.48,0.8,0.23,0.52,0.23,0.52,0.25,0.25,0.23,0.86,0.48,0.35,0.23,0.23,0.86,0.48,0.35,0.34,0.23,0.39,0.46,0.48,0.23,0.52,0.5,0.52,0.25,0.23,0.62,0.53,0.34,0.23" style="fill:rgb(0,0,0);font-family:Calibri;font-size:10.02px;stroke:none;">• Sovacool, Benjamin K., Mari Martiskainen, Hot </text>
   <text y="718.828" x="259.37,262.73,266.21,271.01,276.291,280.192,283.251,288.531,292.011,299.991,304.792,308.151,310.431,315.651,320.932,324.833,327.532,329.813,336.112,341.392,345.892,350.873,354.353,359.633,361.914,367.133,371.873,374.092,377.572,382.372,387.653,389.934,395.214,397.495,402.234,407.515,412.795,415.02,420.3,425.28,430.26,435.48,437.76,443.041,448.32,453.601,457.5,462.42,467.701,472.98,475.261,480.541,482.766,488.046,492.966,497.767,501.126,503.406,508.687,513.426" svgx:width="0.34,0.35,0.48,0.52,0.39,0.31,0.53,0.35,0.8,0.48,0.34,0.23,0.53,0.52,0.39,0.27,0.23,0.63,0.53,0.45,0.5,0.35,0.52,0.23,0.52,0.47,0.23,0.35,0.48,0.52,0.23,0.52,0.23,0.48,0.52,0.52,0.23,0.52,0.5,0.5,0.52,0.23,0.52,0.53,0.52,0.39,0.5,0.52,0.53,0.23,0.52,0.23,0.52,0.5,0.48,0.34,0.23,0.52,0.47,0.23" style="fill:rgb(0,0,0);font-family:Calibri;font-size:10.02px;stroke:none;">transformations: Governing rapid and deep household heating </text>
   <text y="731.012" x="259.37,262.73,266.21,271.01,276.291,280.192,282.471,285.831,288.111,293.391,298.671,302.571,304.851,307.131,312.412,314.632,319.912,325.192,327.472,332.752,337.552,340.012,342.296,348.479,353.399,358.679,366.659,371.46,374.94,379.44,381.96,384.239,388.858,391.139,396.42,398.699,403.44,408.72,414.001,416.22,421.021,426.24,431.521,433.8,437.101,442.381,447.361,449.646,456.066,461.346,463.627,466.986,471.906,477.187,479.406,484.627,486.906,492.187,496.867,502.148,507.428,515.408,517.928" svgx:width="0.34,0.35,0.48,0.52,0.39,0.23,0.34,0.23,0.53,0.52,0.39,0.23,0.23,0.52,0.23,0.53,0.52,0.23,0.52,0.48,0.25,0.23,0.62,0.5,0.52,0.8,0.48,0.35,0.46,0.25,0.23,0.46,0.23,0.52,0.23,0.48,0.52,0.52,0.23,0.48,0.52,0.52,0.23,0.34,0.52,0.5,0.23,0.64,0.52,0.23,0.34,0.5,0.52,0.23,0.52,0.23,0.52,0.47,0.52,0.53,0.8,0.25,0.23" style="fill:rgb(0,0,0);font-family:Calibri;font-size:10.02px;stroke:none;">transitions in China, Denmark, Finland and the United Kingdom, </text>
  </g>
  <g begin="text">
   <text y="743.16" x="259.38,264.3,269.58,274.56,277.98,282.72,287.279,289.559,294.72,299.999,302.28,304.499,308.758,313.259,315.778,318.002,323.703,328.983,331.263,336.544,344.524,349.504,351.728,356.829,361.869,366.969,369.488,371.712,376.752,381.853,386.893,391.993,394.512,396.736,401.836,406.877,411.977,417.017,422.057" svgx:width="0.49,0.52,0.5,0.35,0.47,0.45,0.23,0.52,0.53,0.23,0.23,0.42,0.45,0.25,0.23,0.57,0.53,0.23,0.52,0.8,0.5,0.23,0.51,0.51,0.51,0.25,0.23,0.51,0.51,0.51,0.51,0.25,0.23,0.51,0.51,0.51,0.51,0.51,0.51" style="fill:rgb(0,0,0);font-family:Calibri;font-size:10.02px;stroke:none;">Energy Policy, Volume 139, 2020, 111330</text>
  </g>
  <g begin="text">
   <text y="743.16" x="427.08" svgx:width="0.23" style="fill:rgb(0,0,0);font-family:Calibri;font-size:10.02px;stroke:none;"> </text>
  </g>
  <path style="fill:rgb(0,0,0);stroke:none;stroke-width:1.0;" d="M70.860 389.040 L71.340 389.040 L71.340 389.520 L70.860 389.520 L70.860 389.040 "/>
  <path style="fill:rgb(0,0,0);stroke:none;stroke-width:1.0;" d="M71.340 389.040 L127.560 389.040 L127.560 389.520 L71.340 389.520 L71.340 389.040 "/>
  <path style="fill:rgb(0,0,0);stroke:none;stroke-width:1.0;" d="M127.560 389.040 L128.040 389.040 L128.040 389.520 L127.560 389.520 L127.560 389.040 "/>
  <path style="fill:rgb(0,0,0);stroke:none;stroke-width:1.0;" d="M128.040 389.040 L184.260 389.040 L184.260 389.520 L128.040 389.520 L128.040 389.040 "/>
  <path style="fill:rgb(0,0,0);stroke:none;stroke-width:1.0;" d="M184.260 389.040 L184.740 389.040 L184.740 389.520 L184.260 389.520 L184.260 389.040 "/>
  <path style="fill:rgb(0,0,0);stroke:none;stroke-width:1.0;" d="M184.740 389.040 L253.800 389.040 L253.800 389.520 L184.740 389.520 L184.740 389.040 "/>
  <path style="fill:rgb(0,0,0);stroke:none;stroke-width:1.0;" d="M253.800 389.040 L254.280 389.040 L254.280 389.520 L253.800 389.520 L253.800 389.040 "/>
  <path style="fill:rgb(0,0,0);stroke:none;stroke-width:1.0;" d="M523.980 389.040 L524.460 389.040 L524.460 389.520 L523.980 389.520 L523.980 389.040 "/>
  <path style="fill:rgb(0,0,0);stroke:none;stroke-width:1.0;" d="M70.860 95.580 L71.340 95.580 L71.340 96.060 L70.860 96.060 L70.860 95.580 "/>
  <path style="fill:rgb(0,0,0);stroke:none;stroke-width:1.0;" d="M70.860 95.580 L71.340 95.580 L71.340 96.060 L70.860 96.060 L70.860 95.580 "/>
  <path style="fill:rgb(0,0,0);stroke:none;stroke-width:1.0;" d="M71.340 95.580 L127.560 95.580 L127.560 96.060 L71.340 96.060 L71.340 95.580 "/>
  <path style="fill:rgb(0,0,0);stroke:none;stroke-width:1.0;" d="M127.560 95.580 L128.040 95.580 L128.040 96.060 L127.560 96.060 L127.560 95.580 "/>
  <path style="fill:rgb(0,0,0);stroke:none;stroke-width:1.0;" d="M128.040 95.580 L184.260 95.580 L184.260 96.060 L128.040 96.060 L128.040 95.580 "/>
  <path style="fill:rgb(0,0,0);stroke:none;stroke-width:1.0;" d="M184.260 95.580 L184.740 95.580 L184.740 96.060 L184.260 96.060 L184.260 95.580 "/>
  <path style="fill:rgb(0,0,0);stroke:none;stroke-width:1.0;" d="M184.740 95.580 L253.800 95.580 L253.800 96.060 L184.740 96.060 L184.740 95.580 "/>
  <path style="fill:rgb(0,0,0);stroke:none;stroke-width:1.0;" d="M253.800 95.580 L254.280 95.580 L254.280 96.060 L253.800 96.060 L253.800 95.580 "/>
  <path style="fill:rgb(0,0,0);stroke:none;stroke-width:1.0;" d="M523.980 95.580 L524.460 95.580 L524.460 96.060 L523.980 96.060 L523.980 95.580 "/>
  <path style="fill:rgb(0,0,0);stroke:none;stroke-width:1.0;" d="M523.980 95.580 L524.460 95.580 L524.460 96.060 L523.980 96.060 L523.980 95.580 "/>
 </g>
</svg>
