<?xml version="1.0" encoding="UTF-8"?>
<svg height="812.8" width="2582.05" xmlns="http://www.w3.org/2000/svg">
 <g id="page" xmlns:svgx="http://www.xml-cml.org/schema/svgx">
  <g begin="text">
   <text y="45.72" x="72.024,78.162,81.231,86.751,91.587,94.7,97.46,105.376,110.896,116.416,121.218,124.928,130.448,138.971,143.872,149.392,152.517,155.277,163.082,166.195,170.39,173.504,177.103,180.216,185.736,191.135,194.137,197.251,202.771" svgx:width="0.56,0.28,0.5,0.44,0.28,0.25,0.72,0.5,0.5,0.44,0.33,0.5,0.78,0.44,0.5,0.28,0.25,0.72,0.28,0.39,0.28,0.33,0.28,0.5,0.5,0.28,0.28,0.5,0.5" style="fill:rgb(0,0,0);font-family:TimesNewRomanPSMT;font-size:11.04px;stroke:none;">Final Government Distribution</text>
  </g>
  <g begin="text">
   <text y="45.72" x="208.37" svgx:width="0.25" style="fill:rgb(0,0,0);font-family:TimesNewRomanPSMT;font-size:11.04px;stroke:none;"> </text>
  </g>
  <g begin="text">
   <text y="45.72" x="211.01" svgx:width="0.25" style="fill:rgb(0,0,0);font-family:TimesNewRomanPSMT;font-size:11.04px;stroke:none;"> </text>
  </g>
  <g begin="text">
   <text y="45.72" x="276.17,283.49,289.009,293.911,299.431,302.556,307.358,311.067,313.827" svgx:width="0.67,0.5,0.44,0.5,0.28,0.44,0.33,0.25,0.5" style="fill:rgb(0,0,0);font-family:TimesNewRomanPSMT;font-size:11.04px;stroke:none;">Chapter 6</text>
  </g>
  <g begin="text">
   <text y="45.72" x="319.27" svgx:width="0.25" style="fill:rgb(0,0,0);font-family:TimesNewRomanPSMT;font-size:11.04px;stroke:none;"> </text>
  </g>
  <g begin="text">
   <text y="45.72" x="443.38,446.979,453.117,460.415,467.734" svgx:width="0.33,0.56,0.67,0.67,0.25" style="fill:rgb(0,0,0);font-family:TimesNewRomanPSMT;font-size:11.04px;stroke:none;">IPCC </text>
  </g>
  <g begin="text">
   <text y="45.72" x="470.5,480.922,488.893,492.569,496.179,499.778,502.538,510.454,517.773" svgx:width="0.94,0.72,0.33,0.33,0.33,0.25,0.72,0.67,0.5" style="fill:rgb(0,0,0);font-family:TimesNewRomanPSMT;font-size:11.04px;stroke:none;">WGIII AR6</text>
  </g>
  <g begin="text">
   <text y="45.72" x="523.42" svgx:width="0.25" style="fill:rgb(0,0,0);font-family:TimesNewRomanPSMT;font-size:11.04px;stroke:none;"> </text>
  </g>
  <g begin="text">
   <text y="783.816" x="72.024,79.94,85.46,88.22,96.135,101.655,105.365,108.125,116.04,119.154,122.753,127.655,130.415,133.075,141.708,147.847,153.367,157.043,161.868,164.628,170.148,175.049,177.809,185.78,188.75,192.945,196.655,201.556,204.681,210.819,216.803,220.512" svgx:width="0.72,0.5,0.25,0.72,0.5,0.33,0.25,0.72,0.28,0.33,0.44,0.25,0.25,0.78,0.56,0.5,0.33,0.44,0.25,0.5,0.44,0.25,0.72,0.28,0.39,0.33,0.44,0.28,0.56,0.56,0.33,0.44" style="fill:rgb(0,0,0);font-family:TimesNewRomanPS-BoldMT;font-size:11.04px;stroke:none;">Do Not Cite, Quote or Distribute</text>
  </g>
  <g begin="text">
   <text y="783.816" x="225.41" svgx:width="0.25" style="fill:rgb(0,0,0);font-family:TimesNewRomanPS-BoldMT;font-size:11.04px;stroke:none;"> </text>
  </g>
  <g begin="text">
   <text y="783.816" x="287.57" svgx:width="0.5" style="fill:rgb(0,0,0);font-family:TimesNewRomanPSMT;font-size:11.04px;stroke:none;">6</text>
  </g>
  <g begin="text">
   <text y="783.816" x="293.09" svgx:width="0.33" style="fill:rgb(0,0,0);font-family:TimesNewRomanPS-BoldMT;font-size:11.04px;stroke:none;">-</text>
  </g>
  <g begin="text">
   <text y="783.816" x="296.81,302.33" svgx:width="0.5,0.5" style="fill:rgb(0,0,0);font-family:TimesNewRomanPSMT;font-size:11.04px;stroke:none;">11</text>
  </g>
  <g begin="text">
   <text y="783.816" x="307.85" svgx:width="0.25" style="fill:rgb(0,0,0);font-family:TimesNewRomanPSMT;font-size:11.04px;stroke:none;"> </text>
  </g>
  <g begin="text">
   <text y="783.816" x="310.49" svgx:width="0.25" style="fill:rgb(0,0,0);font-family:TimesNewRomanPSMT;font-size:11.04px;stroke:none;"> </text>
  </g>
  <g begin="text">
   <text y="783.816" x="450.1,456.845,462.365,465.435,470.259,473.372,476.132,481.652,486.554,491.975,496.876,501.204,504.207" svgx:width="0.61,0.5,0.28,0.44,0.28,0.25,0.5,0.44,0.5,0.44,0.39,0.28,0.25" style="fill:rgb(0,0,0);font-family:TimesNewRomanPSMT;font-size:11.04px;stroke:none;">Total pages: </text>
  </g>
  <g begin="text">
   <text y="783.816" x="506.98,512.5,518.02" svgx:width="0.5,0.5,0.5" style="fill:rgb(0,0,0);font-family:TimesNewRomanPSMT;font-size:11.04px;stroke:none;">217</text>
  </g>
  <g begin="text">
   <text y="783.816" x="523.42" svgx:width="0.25" style="fill:rgb(0,0,0);font-family:TimesNewRomanPSMT;font-size:9.96px;stroke:none;"> </text>
  </g>
  <g begin="text">
   <text y="802.8" x="72.024" svgx:width="0.25" style="fill:rgb(0,0,0);font-family:TimesNewRomanPSMT;font-size:9.96px;stroke:none;"> </text>
  </g>
  <g begin="text">
   <text y="523.27" x="523.3" svgx:width="0.25" style="fill:rgb(0,0,0);font-family:TimesNewRomanPS-BoldMT;font-size:9.96px;stroke:none;"> </text>
  </g>
  <g begin="text">
   <text y="523.27" x="48.48" svgx:width="0.5" style="fill:rgb(0,0,0);font-family:TimesNewRomanPSMT;font-size:11.04px;stroke:none;">1</text>
  </g>
  <g begin="text">
   <text y="523.27" x="54.0" svgx:width="0.25" style="fill:rgb(0,0,0);font-family:TimesNewRomanPSMT;font-size:11.04px;stroke:none;"> </text>
  </g>
  <g begin="text">
   <text y="543.79" x="107.3,113.405,116.174,121.194,126.732,131.154,135.576" svgx:width="0.61,0.28,0.5,0.56,0.44,0.44,0.25" style="fill:rgb(0,0,0);font-family:TimesNewRomanPS-BoldMT;font-size:9.96px;stroke:none;">Figure </text>
  </g>
  <g begin="text">
   <text y="543.79" x="138.14" svgx:width="0.5" style="fill:rgb(0,0,0);font-family:TimesNewRomanPS-BoldMT;font-size:9.96px;stroke:none;">6</text>
  </g>
  <g begin="text">
   <text y="543.79" x="143.18" svgx:width="0.25" style="fill:rgb(0,0,0);font-family:TimesNewRomanPS-BoldMT;font-size:9.96px;stroke:none;">.</text>
  </g>
  <g begin="text">
   <text y="543.79" x="145.7" svgx:width="0.5" style="fill:rgb(0,0,0);font-family:TimesNewRomanPS-BoldMT;font-size:9.96px;stroke:none;">4</text>
  </g>
  <g begin="text">
   <text y="543.79" x="150.74" svgx:width="0.25" style="fill:rgb(0,0,0);font-family:TimesNewRomanPS-BoldMT;font-size:9.96px;stroke:none;"> </text>
  </g>
  <g begin="text">
   <text y="543.79" x="153.26,160.451,164.873,167.642,172.692,177.114,181.566,185.411,187.921,192.951,196.188,198.698,203.727,208.15,212.602,217.024,222.562,228.099,233.109,238.647,242.472,246.894,249.424,254.454,259.483,263.328,265.838,270.26,278.666,281.435,285.27,289.115,291.883,296.903,302.441,306.266,308.775,313.805,318.228,322.68,327.71,331.554,335.399,337.909,341.753,346.175,349.064,353.486,357.938,361.285,365.707,371.245,373.755,378.177,382.629,387.659,390.428,395.448,400.985,404.81" svgx:width="0.72,0.44,0.28,0.5,0.44,0.44,0.39,0.25,0.5,0.33,0.25,0.5,0.44,0.44,0.44,0.56,0.56,0.5,0.56,0.39,0.44,0.25,0.5,0.5,0.39,0.25,0.44,0.83,0.28,0.39,0.39,0.28,0.5,0.56,0.39,0.25,0.5,0.44,0.44,0.5,0.39,0.39,0.25,0.39,0.44,0.28,0.44,0.44,0.33,0.44,0.56,0.25,0.44,0.44,0.5,0.28,0.5,0.56,0.39,0.25" style="fill:rgb(0,0,0);font-family:TimesNewRomanPS-BoldMT;font-size:9.96px;stroke:none;">Drivers of greenhouse gas emissions across selected regions </text>
  </g>
  <g begin="text">
   <text y="543.79" x="407.59,410.937,417.54,422.57,430.956,436.494,438.984,443.426,446.773,449.283,454.312,457.081,459.571,461.992,467.021,471.942,476.971,482.001" svgx:width="0.33,0.67,0.5,0.83,0.56,0.25,0.44,0.33,0.25,0.5,0.28,0.25,0.25,0.5,0.5,0.5,0.5,0.33" style="fill:rgb(0,0,0);font-family:TimesNewRomanPS-BoldMT;font-size:9.96px;stroke:none;">(Lamb et al. 2021)</text>
  </g>
  <g begin="text">
   <text y="543.79" x="485.5" svgx:width="0.25" style="fill:rgb(0,0,0);font-family:TimesNewRomanPS-BoldMT;font-size:9.96px;stroke:none;">.</text>
  </g>
  <g begin="text">
   <text y="543.79" x="488.02" svgx:width="0.25" style="fill:rgb(0,0,0);font-family:TimesNewRomanPS-BoldMT;font-size:9.96px;stroke:none;"> </text>
  </g>
  <g begin="text">
   <text y="543.79" x="490.54" svgx:width="0.25" style="fill:rgb(0,0,0);font-family:TimesNewRomanPS-BoldMT;font-size:9.96px;stroke:none;"> </text>
  </g>
  <g begin="text">
   <text y="543.79" x="492.94" svgx:width="0.25" style="fill:rgb(0,0,0);font-family:TimesNewRomanPS-BoldMT;font-size:9.96px;stroke:none;"> </text>
  </g>
  <g begin="text">
   <text y="543.79" x="48.48" svgx:width="0.5" style="fill:rgb(0,0,0);font-family:TimesNewRomanPSMT;font-size:11.04px;stroke:none;">2</text>
  </g>
  <g begin="text">
   <text y="543.79" x="54.0" svgx:width="0.25" style="fill:rgb(0,0,0);font-family:TimesNewRomanPSMT;font-size:11.04px;stroke:none;"> </text>
  </g>
  <g begin="text">
   <text y="567.43" x="72.024,79.94,84.841,89.169,94.689,97.692,100.805,105.707,108.368,111.371,116.891,121.792,124.453,129.973,134.775,139.677,142.691,145.804,151.203,154.316,159.836,165.356,167.995,172.897,178.317,183.219,186.95,192.349,197.869,200.508,203.621,209.141,212.144,217.045,222.565,226.783,229.896,233.009,238.529,241.289,243.806,249.326,252.44,257.838,263.358,268.26,271.384,273.901,278.803,284.323,289.137,292.846,298.366,303.886,306.525,310.72,316.24,320.534,323.67,328.472,337.106,339.744,347.064,354.979,360.499,363.138,367.94,376.573,379.576,383.871,388.099,391.213,396.733,402.253" svgx:width="0.72,0.44,0.39,0.5,0.28,0.28,0.44,0.25,0.28,0.5,0.44,0.25,0.5,0.44,0.44,0.28,0.28,0.5,0.28,0.5,0.5,0.25,0.44,0.5,0.44,0.33,0.5,0.5,0.25,0.28,0.5,0.28,0.44,0.5,0.39,0.28,0.28,0.5,0.25,0.25,0.5,0.28,0.5,0.5,0.44,0.28,0.25,0.44,0.5,0.44,0.33,0.5,0.5,0.25,0.39,0.5,0.39,0.28,0.44,0.78,0.25,0.67,0.72,0.5,0.25,0.44,0.78,0.28,0.39,0.39,0.28,0.5,0.5,0.39" style="fill:rgb(0,0,0);font-family:TimesNewRomanPSMT;font-size:11.04px;stroke:none;">Despite the declining energy intensity, global energy system CO2 emissions</text>
  </g>
  <g begin="text">
   <text y="567.43" x="406.75" svgx:width="0.25" style="fill:rgb(0,0,0);font-family:TimesNewRomanPSMT;font-size:11.04px;stroke:none;"> </text>
  </g>
  <g begin="text">
   <text y="567.43" x="409.39,414.789,419.69,425.21,430.134,432.651,437.553,440.677,446.197,450.393,455.294,458.419,463.939,466.456,469.569,473.168,478.07,482.994,488.514,493.316,498.836,501.475,509.39,517.306,523.301" svgx:width="0.5,0.44,0.5,0.44,0.25,0.44,0.28,0.5,0.39,0.44,0.28,0.5,0.25,0.28,0.33,0.44,0.44,0.5,0.44,0.5,0.25,0.72,0.72,0.56,0.25" style="fill:rgb(0,0,0);font-family:TimesNewRomanPSMT;font-size:11.04px;stroke:none;">have closely tracked GDP </text>
  </g>
  <g begin="text">
   <text y="567.43" x="48.48" svgx:width="0.5" style="fill:rgb(0,0,0);font-family:TimesNewRomanPSMT;font-size:11.04px;stroke:none;">3</text>
  </g>
  <g begin="text">
   <text y="567.43" x="54.0" svgx:width="0.25" style="fill:rgb(0,0,0);font-family:TimesNewRomanPSMT;font-size:11.04px;stroke:none;"> </text>
  </g>
  <g begin="text">
   <text y="581.35" x="72.024,77.544,82.446,86.177,89.401,94.303,99.227,104.625,107.738,110.741,115.643,119.01" svgx:width="0.5,0.44,0.33,0.25,0.44,0.44,0.5,0.28,0.28,0.44,0.25,0.33" style="fill:rgb(0,0,0);font-family:TimesNewRomanPSMT;font-size:11.04px;stroke:none;">per capita (</text>
  </g>
  <g begin="text">
   <text y="581.35" x="122.78,128.775,131.888,137.408,142.807,146.516,151.418" svgx:width="0.56,0.28,0.5,0.5,0.33,0.44,0.25" style="fill:rgb(0,0,0);font-family:TimesNewRomanPSMT;font-size:11.04px;stroke:none;">Figure </text>
  </g>
  <g begin="text">
   <text y="581.35" x="154.7" svgx:width="0.5" style="fill:rgb(0,0,0);font-family:TimesNewRomanPSMT;font-size:11.04px;stroke:none;">6</text>
  </g>
  <g begin="text">
   <text y="581.35" x="160.22" svgx:width="0.25" style="fill:rgb(0,0,0);font-family:TimesNewRomanPSMT;font-size:11.04px;stroke:none;">.</text>
  </g>
  <g begin="text">
   <text y="581.35" x="162.98" svgx:width="0.5" style="fill:rgb(0,0,0);font-family:TimesNewRomanPSMT;font-size:11.04px;stroke:none;">4</text>
  </g>
  <g begin="text">
   <text y="581.35" x="168.5,172.209,174.848,178.193,184.939,190.315,193.318,197.612,200.991,203.994,208.288,211.666,216.469,220.763,226.283,231.218,236.021,239.134,243.936,247.05,250.163,255.561,258.907,261.909,265.619,271.139,275.941,279.286,282.4,287.798,291.143,294.146,299.666,304.568,307.935,315.741,320.035,323.17,328.072,333.493,336.838,341.74,346.553,352.073,357.593,362.992,371.625,374.738,379.541,383.835,386.595,389.973,397.889,403.288,406.401,411.303,416.723,420.068,425.588,430.49,435.911,440.813,444.18,449.082,454.602,460.022,464.924,468.545,471.658,476.56,482.08,486.894,491.795,497.315,500.561,504.271,509.172,514.593,517.706,523.105" svgx:width="0.33,0.25,0.25,0.61,0.5,0.28,0.39,0.25,0.28,0.39,0.25,0.44,0.39,0.5,0.44,0.44,0.28,0.44,0.28,0.28,0.5,0.25,0.28,0.33,0.5,0.44,0.25,0.28,0.5,0.25,0.28,0.5,0.44,0.25,0.72,0.39,0.28,0.44,0.5,0.25,0.44,0.44,0.5,0.5,0.5,0.78,0.28,0.44,0.39,0.25,0.25,0.72,0.5,0.28,0.44,0.5,0.25,0.5,0.44,0.5,0.44,0.25,0.44,0.5,0.5,0.44,0.33,0.28,0.44,0.5,0.44,0.44,0.5,0.25,0.33,0.44,0.5,0.28,0.5,0.25" style="fill:rgb(0,0,0);font-family:TimesNewRomanPSMT;font-size:11.04px;stroke:none;">). This is especially true in the Asian economies, which have experienced rapid </text>
  </g>
  <g begin="text">
   <text y="581.35" x="48.48" svgx:width="0.5" style="fill:rgb(0,0,0);font-family:TimesNewRomanPSMT;font-size:11.04px;stroke:none;">4</text>
  </g>
  <g begin="text">
   <text y="581.35" x="54.0" svgx:width="0.25" style="fill:rgb(0,0,0);font-family:TimesNewRomanPSMT;font-size:11.04px;stroke:none;"> </text>
  </g>
  <g begin="text">
   <text y="595.27" x="72.024,79.94,87.855,93.994,96.963,102.483,107.385,111.117,114.108,119.01,123.934,129.333,132.446,135.449,140.351,143.353,148.873,152.583,158.103,165.908,169.021,174.541,177.533,180.536,186.056,189.048,192.051,197.571,202.473,205.476,210.996,215.897,220.115,223.228,226.22,231.74,236.542,241.444,246.368,251.888,256.69,260.985,263.999,268.9,274.42,279.94,282.943,287.845,290.738,299.371,304.173,308.468,312.696,315.809,321.329,326.231,329.234,332.833,335.946,340.141,345.043,348.046,351.159,356.679,359.55,364.452,369.972,374.895,378.494,384.014,389.534,392.526,398.046,402.849,411.482,416.384,421.804,427.324,430.084,432.955,439.093,442.162,450.718,453.831,456.834,461.736,465.357,468.47,473.99,476.75,479.742,484.545,493.178,496.181,500.475,504.704,507.817" svgx:width="0.72,0.72,0.56,0.25,0.5,0.44,0.33,0.25,0.44,0.44,0.5,0.28,0.28,0.44,0.25,0.5,0.33,0.5,0.72,0.28,0.5,0.25,0.28,0.5,0.25,0.28,0.5,0.44,0.25,0.5,0.44,0.39,0.28,0.25,0.5,0.44,0.44,0.44,0.5,0.44,0.39,0.25,0.44,0.5,0.5,0.25,0.44,0.25,0.78,0.44,0.39,0.39,0.28,0.5,0.44,0.25,0.33,0.28,0.39,0.44,0.25,0.28,0.5,0.25,0.44,0.5,0.44,0.33,0.5,0.5,0.25,0.5,0.44,0.78,0.44,0.5,0.5,0.25,0.25,0.56,0.28,0.78,0.28,0.28,0.44,0.33,0.28,0.5,0.25,0.25,0.44,0.78,0.28,0.39,0.39,0.28,0.5" style="fill:rgb(0,0,0);font-family:TimesNewRomanPSMT;font-size:11.04px;stroke:none;">GDP per capita growth in the past decades and a massive rise in energy demand. Similarly, emissio</text>
  </g>
  <g begin="text">
   <text y="595.27" x="513.7,519.22,523.415" svgx:width="0.5,0.39,0.25" style="fill:rgb(0,0,0);font-family:TimesNewRomanPSMT;font-size:11.04px;stroke:none;">ns </text>
  </g>
  <g begin="text">
   <text y="595.27" x="48.48" svgx:width="0.5" style="fill:rgb(0,0,0);font-family:TimesNewRomanPSMT;font-size:11.04px;stroke:none;">5</text>
  </g>
  <g begin="text">
   <text y="595.27" x="54.0" svgx:width="0.25" style="fill:rgb(0,0,0);font-family:TimesNewRomanPSMT;font-size:11.04px;stroke:none;"> </text>
  </g>
  <g begin="text">
   <text y="609.19" x="72.024,77.544,82.446,87.966,92.89,96.003,101.523,106.425,111.238,114.351,117.354,122.874,127.776,133.296,136.42,139.534,145.054,148.167,151.17,154.173,162.806,167.708,172.035,175.149,180.669,184.378,187.491,192.294,197.195,202.715,208.236,213.756,222.289,225.403,230.305,233.429,238.949,244.469,252.385,257.783,260.896,266.416,270.015,275.535,279.83" svgx:width="0.5,0.44,0.5,0.44,0.25,0.5,0.44,0.44,0.28,0.28,0.5,0.44,0.5,0.25,0.28,0.5,0.25,0.28,0.28,0.78,0.44,0.39,0.25,0.5,0.33,0.25,0.44,0.44,0.5,0.5,0.5,0.78,0.28,0.44,0.25,0.5,0.5,0.72,0.5,0.28,0.5,0.33,0.5,0.39,0.25" style="fill:rgb(0,0,0);font-family:TimesNewRomanPSMT;font-size:11.04px;stroke:none;">have declined in times of economic downturns </text>
  </g>
  <g begin="text">
   <text y="609.19" x="283.13" svgx:width="0.5" style="fill:rgb(0,0,0);font-family:TimesNewRomanPSMT;font-size:11.04px;stroke:none;">–</text>
  </g>
  <g begin="text">
   <text y="609.19" x="288.65" svgx:width="0.25" style="fill:rgb(0,0,0);font-family:TimesNewRomanPSMT;font-size:11.04px;stroke:none;"> </text>
  </g>
  <g begin="text">
   <text y="609.19" x="291.77,295.479,300.999,304.709,307.822,312.625,318.145,323.046,331.691,337.089,340.203,345.104,347.864,350.989,353.992,359.512,362.625,369.37,374.89,378.566,383.49,387.686,390.799,395.701,398.825,401.828,407.348,410.461,413.574,419.094,423.996,427.121,432.519,438.039,443.559,449.079,453.374,456.509,461.411,466.931,472.451,475.575,481.095,484.208,489.607,495.127,500.029,503.042,506.156,511.676,514.789,517.902,523.179" svgx:width="0.33,0.5,0.33,0.25,0.44,0.5,0.44,0.78,0.5,0.28,0.44,0.25,0.25,0.28,0.5,0.25,0.61,0.5,0.33,0.44,0.39,0.28,0.44,0.25,0.28,0.5,0.25,0.28,0.5,0.44,0.25,0.5,0.5,0.5,0.5,0.39,0.25,0.44,0.5,0.5,0.25,0.5,0.28,0.5,0.5,0.44,0.28,0.28,0.5,0.25,0.28,0.5,0.25" style="fill:rgb(0,0,0);font-family:TimesNewRomanPSMT;font-size:11.04px;stroke:none;">for example, in Eurasia in the 1990s and globally in </text>
  </g>
  <g begin="text">
   <text y="609.19" x="48.48" svgx:width="0.5" style="fill:rgb(0,0,0);font-family:TimesNewRomanPSMT;font-size:11.04px;stroke:none;">6</text>
  </g>
  <g begin="text">
   <text y="609.19" x="54.0" svgx:width="0.25" style="fill:rgb(0,0,0);font-family:TimesNewRomanPSMT;font-size:11.04px;stroke:none;"> </text>
  </g>
  <g begin="text">
   <text y="623.02" x="72.024,77.544,83.064,88.584,94.104,96.864,98.531,103.433,108.953,114.473,117.233,118.922,124.442,129.84,135.36,140.88,143.64,146.39999999999998,148.068,154.206,159.726,165.246,170.622,173.736,178.538,181.651,184.765,190.163,195.683,198.44299999999998,200.11,205.63,209.34,214.86,222.775,225.888,231.408,234.16799999999998,235.836,241.234,246.136,250.464,253.224,254.891,259.693,262.806,267.101,272.621,275.381,277.07,281.872,287.392,292.912,295.915,299.625,302.738,308.137,313.656,316.77,321.671,327.191,329.95099999999996,331.519,334.632,340.152,342.912,344.579,349.382,358.015,361.128,365.324,369.618,372.753,378.152,383.672,387.967,390.727,392.416,397.936,401.535,407.055,414.97,418.084,423.604,426.364,427.909,433.429,436.543,442.063,447.583,452.385,455.498,458.501,464.021,466.781,468.448,473.35,478.87,484.39,487.15,488.839,491.842,497.362,500.122,501.789,510.422,515.821,520.016,523.019" svgx:width="0.5,0.5,0.5,0.5,0.25,0.55,0.44,0.5,0.5,0.25,0.55,0.5,0.5,0.5,0.5,0.25,0.25,0.55,0.56,0.5,0.5,0.5,0.28,0.44,0.28,0.28,0.5,0.5,0.25,0.55,0.5,0.33,0.5,0.72,0.28,0.5,0.25,0.55,0.5,0.44,0.39,0.25,0.55,0.44,0.28,0.39,0.5,0.25,0.55,0.44,0.5,0.5,0.28,0.33,0.28,0.5,0.5,0.28,0.44,0.5,0.25,0.55,0.28,0.5,0.25,0.55,0.44,0.78,0.28,0.39,0.39,0.28,0.5,0.5,0.39,0.25,0.55,0.5,0.33,0.5,0.72,0.28,0.5,0.25,0.55,0.5,0.28,0.5,0.5,0.44,0.28,0.28,0.5,0.25,0.55,0.44,0.5,0.5,0.25,0.55,0.28,0.5,0.25,0.55,0.78,0.5,0.39,0.28,0.25" style="fill:rgb(0,0,0);font-family:TimesNewRomanPSMT;font-size:11.04px;stroke:none;">2009 and 2020. Population growth has also contributed to emissions growth globally and in most </text>
  </g>
  <g begin="text">
   <text y="623.02" x="48.48" svgx:width="0.5" style="fill:rgb(0,0,0);font-family:TimesNewRomanPSMT;font-size:11.04px;stroke:none;">7</text>
  </g>
  <g begin="text">
   <text y="623.02" x="54.0" svgx:width="0.25" style="fill:rgb(0,0,0);font-family:TimesNewRomanPSMT;font-size:11.04px;stroke:none;"> </text>
  </g>
  <g begin="text">
   <text y="636.94" x="72.024,75.733,80.635,86.155,89.169,94.689,100.209,104.504,107.264,110.024,110.874,116.394,121.296,124.917,128.03,131.033,135.935,141.455,144.468,149.37,152.991,156.105,161.625,164.385,165.334,173.25,176.849,180.558,183.561,188.463,193.276,196.036,198.796,199.746,205.266,210.786,213.899,217.487,220.6,226.12,230.923,233.683,234.632,239.534,243.155,246.865,251.766,256.58,259.693,262.453,263.402,268.801,272.51,275.27,276.22,281.74,287.26,292.658,298.178,301.292,306.094,309.097,312.1,317.62" svgx:width="0.33,0.44,0.5,0.28,0.5,0.5,0.39,0.25,0.25,0.55,0.5,0.44,0.33,0.28,0.28,0.44,0.5,0.28,0.44,0.33,0.28,0.5,0.25,0.55,0.72,0.33,0.33,0.28,0.44,0.44,0.25,0.25,0.55,0.5,0.5,0.28,0.25,0.28,0.5,0.44,0.25,0.55,0.44,0.33,0.33,0.44,0.44,0.28,0.25,0.55,0.5,0.33,0.25,0.55,0.5,0.5,0.5,0.5,0.28,0.44,0.28,0.28,0.5,0.5" style="fill:rgb(0,0,0);font-family:TimesNewRomanPSMT;font-size:11.04px;stroke:none;">regions, particularly Africa, but the effect of population</text>
  </g>
  <g begin="text">
   <text y="636.94" x="323.35" svgx:width="0.25" style="fill:rgb(0,0,0);font-family:TimesNewRomanPSMT;font-size:11.04px;stroke:none;"> </text>
  </g>
  <g begin="text">
   <text y="636.94" x="327.07,332.59,336.299,341.819,349.625,352.738,358.258,361.018,361.967,367.487,372.29,376.584,379.344,380.316,385.836,390.638,395.54,401.06,403.82,404.67,407.783,412.685,416.902,421.197,423.957,424.929,427.931,433.33,438.232,443.752,446.512,447.483,450.597,455.995,460.897,464.021,467.609,473.129,476.839,479.599,480.427,485.328,490.252,495.772,501.292,506.691,515.214,518.327,523.229" svgx:width="0.5,0.33,0.5,0.72,0.28,0.5,0.25,0.55,0.5,0.44,0.39,0.25,0.55,0.5,0.44,0.44,0.5,0.25,0.55,0.28,0.44,0.39,0.39,0.25,0.55,0.28,0.5,0.44,0.5,0.25,0.55,0.28,0.5,0.44,0.28,0.25,0.5,0.33,0.25,0.55,0.44,0.44,0.5,0.5,0.5,0.78,0.28,0.44,0.25" style="fill:rgb(0,0,0);font-family:TimesNewRomanPSMT;font-size:11.04px;stroke:none;">growth has been less than that of economic </text>
  </g>
  <g begin="text">
   <text y="636.94" x="48.48" svgx:width="0.5" style="fill:rgb(0,0,0);font-family:TimesNewRomanPSMT;font-size:11.04px;stroke:none;">8</text>
  </g>
  <g begin="text">
   <text y="636.94" x="54.0" svgx:width="0.25" style="fill:rgb(0,0,0);font-family:TimesNewRomanPSMT;font-size:11.04px;stroke:none;"> </text>
  </g>
  <g begin="text">
   <text y="650.86" x="72.024,77.544,81.253,86.773,94.689,97.802,103.322,105.961,108.721,114.859,117.928,123.36,128.262,133.186,135.824,141.344,146.864,152.384,157.904,160.543,163.303,168.204,173.724,178.538,182.247,187.767,193.166,195.926,199.039,204.438,207.551,212.453,217.973,222.19,225.303,228.306,233.826,236.586,242.106,246.909,251.203,253.963,259.384,264.286,269.21,274.608,277.368,282.888,287.79,292.603,295.717,298.719,304.239,307.353,312.751,318.271" svgx:width="0.5,0.33,0.5,0.72,0.28,0.5,0.25,0.25,0.56,0.28,0.5,0.44,0.44,0.25,0.5,0.5,0.5,0.5,0.25,0.25,0.44,0.5,0.44,0.33,0.5,0.5,0.25,0.28,0.5,0.28,0.44,0.5,0.39,0.28,0.28,0.5,0.25,0.5,0.44,0.39,0.25,0.5,0.44,0.44,0.5,0.25,0.5,0.44,0.44,0.28,0.28,0.5,0.28,0.5,0.5,0.25" style="fill:rgb(0,0,0);font-family:TimesNewRomanPSMT;font-size:11.04px;stroke:none;">growth. Since 2015, energy intensity has been declining </text>
  </g>
  <g begin="text">
   <text y="650.86" x="321.19,324.899,328.498,335.244,343.138,345.898,351.418,356.938,362.458,367.978,373.376" svgx:width="0.33,0.33,0.61,0.72,0.25,0.5,0.5,0.5,0.5,0.5,0.33" style="fill:rgb(0,0,0);font-family:TimesNewRomanPSMT;font-size:11.04px;stroke:none;">(IEA 2020b)</text>
  </g>
  <g begin="text">
   <text y="650.86" x="377.11,379.87,382.509,385.622,388.625,397.148,400.261,403.264,406.377,411.897,417.417,420.056,423.169,428.689,433.491,436.251,439.254,447.887,453.407,458.309,463.123,466.236,468.996,474.395,478.104,480.743,485.644,490.568,496.088,501.608,507.007,515.53" svgx:width="0.25,0.25,0.28,0.28,0.78,0.28,0.28,0.28,0.5,0.5,0.25,0.28,0.5,0.44,0.25,0.28,0.78,0.5,0.44,0.44,0.28,0.25,0.5,0.33,0.25,0.44,0.44,0.5,0.5,0.5,0.78,0.28" style="fill:rgb(0,0,0);font-family:TimesNewRomanPSMT;font-size:11.04px;stroke:none;">, limiting the impact of economi</text>
  </g>
  <g begin="text">
   <text y="650.86" x="518.62,523.42" svgx:width="0.44,0.25" style="fill:rgb(0,0,0);font-family:TimesNewRomanPSMT;font-size:11.04px;stroke:none;">c </text>
  </g>
  <g begin="text">
   <text y="650.86" x="48.48" svgx:width="0.5" style="fill:rgb(0,0,0);font-family:TimesNewRomanPSMT;font-size:11.04px;stroke:none;">9</text>
  </g>
  <g begin="text">
   <text y="650.86" x="54.0" svgx:width="0.25" style="fill:rgb(0,0,0);font-family:TimesNewRomanPSMT;font-size:11.04px;stroke:none;"> </text>
  </g>
  <g begin="text">
   <text y="664.78" x="72.024,76.926,82.446,87.966,90.626,96.146,101.666,107.186,112.585,115.698,120.6,123.614,126.727,132.247,137.767,140.406,145.804,149.514,155.034,162.95,166.063,171.583,174.343,176.981,184.897,190.296,198.211,203.113,208.633,213.557,217.266,220.026,222.665,225.668,231.188,236.09,239.711,244.612,247.273,250.386,254.681,257.341,262.861,268.381,271.02,274.619,279.521,285.041,288.165,293.564,299.084,301.722,309.638,315.158,320.06,323.791,328.693,331.354,334.357,339.877,342.99,347.284,349.835,353.544,358.446,363.259,366.373,371.893,375.602,378.241,383.043,386.156,391.676,397.075,401.977,404.637,412.553,418.073,423.593,426.706,432.105,434.743,440.263,445.165,450.685,455.609,458.247,463.767,468.669,473.593,479.113,481.752,486.046,491.467,495.176,498.775,501.889,506.691,509.804,514.706,520.127,523.129" svgx:width="0.44,0.5,0.5,0.25,0.5,0.5,0.5,0.5,0.28,0.44,0.28,0.28,0.5,0.5,0.25,0.5,0.33,0.5,0.72,0.28,0.5,0.25,0.25,0.72,0.5,0.72,0.44,0.5,0.44,0.33,0.25,0.25,0.28,0.5,0.44,0.33,0.44,0.25,0.28,0.39,0.25,0.5,0.5,0.25,0.33,0.44,0.5,0.28,0.5,0.5,0.25,0.72,0.5,0.44,0.33,0.44,0.25,0.28,0.5,0.28,0.39,0.25,0.33,0.44,0.44,0.28,0.5,0.33,0.25,0.44,0.28,0.5,0.5,0.44,0.25,0.72,0.5,0.5,0.28,0.5,0.25,0.5,0.44,0.5,0.44,0.25,0.5,0.44,0.44,0.5,0.25,0.39,0.5,0.33,0.33,0.28,0.44,0.28,0.44,0.5,0.28,0.25" style="fill:rgb(0,0,0);font-family:TimesNewRomanPSMT;font-size:11.04px;stroke:none;">and population growth. However, there is no region where this factor alone would have been sufficient </text>
  </g>
  <g begin="text">
   <text y="664.78" x="42.96,48.48" svgx:width="0.5,0.5" style="fill:rgb(0,0,0);font-family:TimesNewRomanPSMT;font-size:11.04px;stroke:none;">10</text>
  </g>
  <g begin="text">
   <text y="664.78" x="54.0" svgx:width="0.25" style="fill:rgb(0,0,0);font-family:TimesNewRomanPSMT;font-size:11.04px;stroke:none;"> </text>
  </g>
  <g begin="text">
   <text y="678.7" x="72.024,75.137,80.657,83.174,88.694,93.497,98.399,102.02,106.921,111.845,116.04,120.942,123.481,130.801" svgx:width="0.28,0.5,0.25,0.5,0.44,0.44,0.33,0.44,0.44,0.39,0.44,0.25,0.67,0.72" style="fill:rgb(0,0,0);font-family:TimesNewRomanPSMT;font-size:11.04px;stroke:none;">to decrease CO</text>
  </g>
  <g begin="text">
   <text y="679.66" x="138.74" svgx:width="0.5" style="fill:rgb(0,0,0);font-family:TimesNewRomanPSMT;font-size:6.96px;stroke:none;">2</text>
  </g>
  <g begin="text">
   <text y="678.7" x="142.22" svgx:width="0.25" style="fill:rgb(0,0,0);font-family:TimesNewRomanPSMT;font-size:11.04px;stroke:none;"> </text>
  </g>
  <g begin="text">
   <text y="678.7" x="144.74,149.542,158.176,161.179,165.473,169.812,172.815,178.335,183.855,188.149,190.578,194.177,197.887,203.407,211.929,214.447,217.56,222.958,227.86,230.399,235.301,240.722,245.624,249.355,254.754,260.274,262.791,267.085,272.506,276.801,279.825,284.727,293.372,296.01,298.527,302.126,307.646,310.163,316.765,322.285,325.995,331.515,337.035,341.837,344.354,349.256,354.776,360.197,362.714,370.63,376.15,379.749,382.862,388.382,390.899,398.815,407.338,412.239,415.86,418.974,423.876,428.689,431.449,433.966,436.969,442.489,447.391,449.93,455.45,460.849,463.962,469.482,471.877,474.991,482.906,488.426,490.944,494.543,499.444,504.964,507.978,513.498,519.018,523.214" svgx:width="0.44,0.78,0.28,0.39,0.39,0.28,0.5,0.5,0.39,0.25,0.33,0.33,0.5,0.78,0.25,0.28,0.5,0.44,0.25,0.44,0.5,0.44,0.33,0.5,0.5,0.25,0.39,0.5,0.39,0.28,0.44,0.78,0.25,0.25,0.33,0.5,0.25,0.61,0.5,0.33,0.5,0.5,0.44,0.25,0.44,0.5,0.5,0.25,0.72,0.5,0.33,0.28,0.5,0.25,0.72,0.78,0.44,0.33,0.28,0.44,0.44,0.25,0.25,0.28,0.5,0.44,0.25,0.5,0.5,0.28,0.5,0.25,0.28,0.72,0.5,0.25,0.33,0.44,0.5,0.28,0.5,0.5,0.39,0.25" style="fill:rgb(0,0,0);font-family:TimesNewRomanPSMT;font-size:11.04px;stroke:none;">emissions from the energy system. In Europe and North America, the only two regions </text>
  </g>
  <g begin="text">
   <text y="678.7" x="42.96,48.48" svgx:width="0.5,0.5" style="fill:rgb(0,0,0);font-family:TimesNewRomanPSMT;font-size:11.04px;stroke:none;">11</text>
  </g>
  <g begin="text">
   <text y="678.7" x="54.0" svgx:width="0.25" style="fill:rgb(0,0,0);font-family:TimesNewRomanPSMT;font-size:11.04px;stroke:none;"> </text>
  </g>
  <g begin="text">
   <text y="692.62" x="72.024,79.94,85.46,90.361,94.093,98.995,101.291,106.093,114.616,117.73,122.024,126.252,129.366,134.886,140.406,144.7,146.886,152.406,157.308,162.121,165.831,170.733,175.546,179.841,184.776,190.296,192.459,201.093,205.994,210.918,216.317,219.43,224.95,230.349,234.058,239.578,242.581,245.694,251.214,253.378,257.673,260.808,266.207,271.108,276.032,278.317,283.837,289.357,294.877,300.276,303.036,305.321" svgx:width="0.72,0.5,0.44,0.33,0.44,0.25,0.44,0.78,0.28,0.39,0.39,0.28,0.5,0.5,0.39,0.25,0.5,0.44,0.44,0.33,0.44,0.44,0.39,0.44,0.5,0.25,0.78,0.44,0.44,0.5,0.28,0.5,0.5,0.33,0.5,0.28,0.28,0.5,0.25,0.39,0.28,0.5,0.44,0.44,0.25,0.5,0.5,0.5,0.5,0.25,0.25,0.44" style="fill:rgb(0,0,0);font-family:TimesNewRomanPSMT;font-size:11.04px;stroke:none;">where emissions decreased meaningfully since 2010, a</text>
  </g>
  <g begin="text">
   <text y="692.62" x="310.37" svgx:width="0.25" style="fill:rgb(0,0,0);font-family:TimesNewRomanPSMT;font-size:11.04px;stroke:none;"> </text>
  </g>
  <g begin="text">
   <text y="692.62" x="312.55,316.845,319.98,324.882,329.695,335.215,340.735,343.02,348.54,353.343,358.245,361.976,366.779,371.68,376.008,380.91,383.085,386.198,391.718,393.882,396.995,402.515,407.417,409.713,414.516,419.417,423.149,428.669,434.067,439.587,441.873,444.986,450.506,453.509,458.411,463.931,468.148,471.261,474.374,479.894,482.058,487.578,491.288,493.573,498.475,503.895,508.797,512.529,517.927,523.326" svgx:width="0.39,0.28,0.44,0.44,0.5,0.5,0.25,0.5,0.44,0.44,0.33,0.44,0.44,0.39,0.44,0.25,0.28,0.5,0.25,0.28,0.5,0.44,0.25,0.44,0.44,0.33,0.5,0.5,0.5,0.25,0.28,0.5,0.28,0.44,0.5,0.39,0.28,0.28,0.5,0.25,0.5,0.33,0.25,0.44,0.5,0.44,0.33,0.5,0.5,0.25" style="fill:rgb(0,0,0);font-family:TimesNewRomanPSMT;font-size:11.04px;stroke:none;">steady decrease in the carbon intensity of energy </text>
  </g>
  <g begin="text">
   <text y="692.62" x="42.96,48.48" svgx:width="0.5,0.5" style="fill:rgb(0,0,0);font-family:TimesNewRomanPSMT;font-size:11.04px;stroke:none;">12</text>
  </g>
  <g begin="text">
   <text y="692.62" x="54.0" svgx:width="0.25" style="fill:rgb(0,0,0);font-family:TimesNewRomanPSMT;font-size:11.04px;stroke:none;"> </text>
  </g>
  <g begin="text">
   <text y="706.54" x="72.024,79.94,84.841,89.169,92.04,96.941,99.834,104.128,107.264,112.784,118.182,121.296,124.895,128.008,132.91,137.723,143.243,146.356,149.227,154.747,160.267,168.182,173.702,181.618,186.42,190.02,195.54,198.41,203.93,207.639,210.753,216.273,221.075,224.785,227.545,230.415,237.16,242.68,247.582,250.441,254.041,258.942,264.462,269.982,274.796,277.909,280.912,286.432,291.952,294.822,297.935,303.455,306.326,311.128,316.03,319.762,325.282,330.802,336.322,339.192,342.195,347.715,350.828,355.631,361.151,365.346,368.459,371.572,377.092,379.963,382.966,388.486,391.356,394.469,399.989,404.891,407.784,414.529,422.423,425.293,428.406,432.601,435.472,440.992,446.512,451.414,454.306,459.826,463.536,466.539,475.172,479.974,483.684,486.686,489.8,495.32,498.19,501.303,506.823,509.694,512.697,518.217,523.019" svgx:width="0.72,0.44,0.39,0.25,0.44,0.25,0.39,0.28,0.5,0.5,0.28,0.33,0.28,0.44,0.44,0.5,0.28,0.25,0.5,0.5,0.72,0.5,0.72,0.44,0.33,0.5,0.25,0.5,0.33,0.28,0.5,0.44,0.33,0.25,0.25,0.61,0.5,0.44,0.25,0.33,0.44,0.5,0.5,0.44,0.28,0.28,0.5,0.5,0.25,0.28,0.5,0.25,0.44,0.44,0.33,0.5,0.5,0.5,0.25,0.28,0.5,0.28,0.44,0.5,0.39,0.28,0.28,0.5,0.25,0.28,0.5,0.25,0.28,0.5,0.44,0.25,0.61,0.72,0.25,0.28,0.39,0.25,0.5,0.5,0.44,0.25,0.5,0.33,0.28,0.78,0.44,0.33,0.28,0.28,0.5,0.25,0.28,0.5,0.25,0.28,0.5,0.44,0.25" style="fill:rgb(0,0,0);font-family:TimesNewRomanPSMT;font-size:11.04px;stroke:none;">was a significant downward driver. The reduction in carbon intensity in the EU is due primarily to the </text>
  </g>
  <g begin="text">
   <text y="706.54" x="42.96,48.48" svgx:width="0.5,0.5" style="fill:rgb(0,0,0);font-family:TimesNewRomanPSMT;font-size:11.04px;stroke:none;">13</text>
  </g>
  <g begin="text">
   <text y="706.54" x="54.0" svgx:width="0.25" style="fill:rgb(0,0,0);font-family:TimesNewRomanPSMT;font-size:11.04px;stroke:none;"> </text>
  </g>
  <g begin="text">
   <text y="720.46" x="72.024,75.137,80.657,85.559,89.18,94.082,99.006,103.201,108.103,110.642,116.162,119.871,122.267,125.976,130.878,136.299,141.201,149.171,154.073,159.593,162.574,167.476,170.015,174.917,177.931,182.832,187.646,190.759,194.358,197.472,202.373,205.387,208.501,214.021,216.538,221.936,225.646,231.166,236.686,242.206,247.008,250.011,253.124,258.644,264.164,266.681,271.583,277.103,282.524,288.044,291.157,295.959,301.479,303.996,311.912,314.915,318.028,323.548,326.066,329.179,334.577,339.479,342.018,345.132,350.652,358.567,360.963,364.076,368.978,374.498,379.311,382.425,386.719,389.27,394.668,398.378,400.895,404.604,410.003,414.297,418.526,421.639,424.752,427.269,430.868,436.267,441.169" svgx:width="0.28,0.5,0.44,0.33,0.44,0.44,0.39,0.44,0.25,0.5,0.33,0.25,0.33,0.44,0.5,0.44,0.72,0.44,0.5,0.28,0.44,0.25,0.44,0.28,0.44,0.44,0.28,0.33,0.28,0.44,0.28,0.28,0.5,0.25,0.5,0.33,0.5,0.5,0.5,0.44,0.28,0.28,0.5,0.5,0.25,0.44,0.5,0.5,0.5,0.28,0.44,0.5,0.25,0.72,0.28,0.28,0.5,0.25,0.28,0.5,0.44,0.25,0.28,0.5,0.72,0.25,0.28,0.44,0.5,0.44,0.28,0.39,0.25,0.5,0.33,0.25,0.33,0.5,0.39,0.39,0.28,0.28,0.25,0.33,0.5,0.44,0.28" style="fill:rgb(0,0,0);font-family:TimesNewRomanPSMT;font-size:11.04px;stroke:none;">increase of renewable electricity production coupled with the low levels of fossil fuel</text>
  </g>
  <g begin="text">
   <text y="720.46" x="444.58" svgx:width="0.33" style="fill:rgb(0,0,0);font-family:TimesNewRomanPSMT;font-size:11.04px;stroke:none;">-</text>
  </g>
  <g begin="text">
   <text y="720.46" x="448.18,453.7,458.602,462.929,467.732,473.252,475.769,481.289,484.998,490.518,495.917,501.437,506.339,509.353" svgx:width="0.5,0.44,0.39,0.44,0.5,0.25,0.5,0.33,0.5,0.5,0.5,0.44,0.28,0.28" style="fill:rgb(0,0,0);font-family:TimesNewRomanPSMT;font-size:11.04px;stroke:none;">based producti</text>
  </g>
  <g begin="text">
   <text y="720.46" x="512.5,518.02,523.419" svgx:width="0.5,0.5,0.25" style="fill:rgb(0,0,0);font-family:TimesNewRomanPSMT;font-size:11.04px;stroke:none;">on </text>
  </g>
  <g begin="text">
   <text y="720.46" x="42.96,48.48" svgx:width="0.5,0.5" style="fill:rgb(0,0,0);font-family:TimesNewRomanPSMT;font-size:11.04px;stroke:none;">14</text>
  </g>
  <g begin="text">
   <text y="720.46" x="54.0" svgx:width="0.25" style="fill:rgb(0,0,0);font-family:TimesNewRomanPSMT;font-size:11.04px;stroke:none;"> </text>
  </g>
  <g begin="text">
   <text y="734.38" x="72.024,75.137,80.657,83.417,86.531,91.929,96.831,99.591,104.515,109.913,114.815,118.547,124.067,129.465,132.225,140.748,143.861,149.381" svgx:width="0.28,0.5,0.25,0.28,0.5,0.44,0.25,0.44,0.5,0.44,0.33,0.5,0.5,0.25,0.78,0.28,0.5,0.25" style="fill:rgb(0,0,0);font-family:TimesNewRomanPSMT;font-size:11.04px;stroke:none;">in the energy mix </text>
  </g>
  <g begin="text">
   <text y="734.38" x="152.18,155.889,163.805,169.204,172.913,177.108,180.222,185.123,190.643,193.304,198.206,201.33,204.09,208.892,212.006,214.766,217.526,223.046,228.566,233.964,239.484" svgx:width="0.33,0.72,0.5,0.33,0.39,0.28,0.44,0.5,0.25,0.44,0.28,0.25,0.44,0.28,0.25,0.25,0.5,0.5,0.5,0.5,0.33" style="fill:rgb(0,0,0);font-family:TimesNewRomanPSMT;font-size:11.04px;stroke:none;">(Dyrstad et al. 2019)</text>
  </g>
  <g begin="text">
   <text y="734.38" x="243.29" svgx:width="0.25" style="fill:rgb(0,0,0);font-family:TimesNewRomanPSMT;font-size:11.04px;stroke:none;">.</text>
  </g>
  <g begin="text">
   <text y="734.38" x="245.93" svgx:width="0.25" style="fill:rgb(0,0,0);font-family:TimesNewRomanPSMT;font-size:11.04px;stroke:none;"> </text>
  </g>
  <g begin="text">
   <text y="734.38" x="42.96,48.48" svgx:width="0.5,0.5" style="fill:rgb(0,0,0);font-family:TimesNewRomanPSMT;font-size:11.04px;stroke:none;">15</text>
  </g>
  <g begin="text">
   <text y="734.38" x="54.0" svgx:width="0.25" style="fill:rgb(0,0,0);font-family:TimesNewRomanPSMT;font-size:11.04px;stroke:none;"> </text>
  </g>
  <g begin="text">
   <text y="754.296" x="72.024" svgx:width="0.25" style="fill:rgb(0,0,0);font-family:TimesNewRomanPSMT;font-size:11.04px;stroke:none;"> </text>
  </g>
  <g begin="text">
   <text y="754.296" x="42.96,48.48" svgx:width="0.5,0.5" style="fill:rgb(0,0,0);font-family:TimesNewRomanPSMT;font-size:11.04px;stroke:none;">16</text>
  </g>
  <g begin="text">
   <text y="754.296" x="54.0" svgx:width="0.25" style="fill:rgb(0,0,0);font-family:TimesNewRomanPSMT;font-size:11.04px;stroke:none;"> </text>
  </g>
  <rect style="fill:pink;opacity:0.2;stroke:blue;stroke-width:0.3;" x="72.05" y="30.08" height="451.2" width="451.2" title="13"/>
  <text y="30.08" class="image" id="image.13.1" width="451" height="451" x="72.05" style="font-size:5.0px;">image.13.1.72_523.30_481</text>
  <g begin="text">
   <text y="602.109" transform="matrix(0.70711,-0.70711,0.70711,0.70711,-395.12956,250.29085)" rotateDegrees="-45" matrix="[29.803345,29.803345,-29.803345,29.803345,104.563255,239.8115]" x="104.563" svgx:width="0.67" style="fill:rgb(0,0,0);font-family:Arial;font-size:42.15px;stroke:none;">A</text>
   <text y="582.23" transform="matrix(0.70711,-0.70711,0.70711,0.70711,-375.25056,258.525)" rotateDegrees="-45" matrix="[29.803345,29.803345,-29.803345,29.803345,124.442085,259.6903]" x="124.442" svgx:width="0.72" style="fill:rgb(0,0,0);font-family:Arial;font-size:42.15px;stroke:none;">C</text>
   <text y="560.712" transform="matrix(0.70711,-0.70711,0.70711,0.70711,-353.73256,267.43805)" rotateDegrees="-45" matrix="[29.803345,29.803345,-29.803345,29.803345,145.9601,281.20834]" x="145.96" svgx:width="0.72" style="fill:rgb(0,0,0);font-family:Arial;font-size:42.15px;stroke:none;">C</text>
   <text y="539.194" transform="matrix(0.70711,-0.70711,0.70711,0.70711,-332.21456,276.3511)" rotateDegrees="-45" matrix="[29.803345,29.803345,-29.803345,29.803345,167.47812,302.72635]" x="167.478" svgx:width="0.67" style="fill:rgb(0,0,0);font-family:Arial;font-size:42.15px;stroke:none;">E</text>
   <text y="519.315" transform="matrix(0.70711,-0.70711,0.70711,0.70711,-312.33556,284.58525)" rotateDegrees="-45" matrix="[29.803345,29.803345,-29.803345,29.803345,187.35693,322.60516]" x="187.357" svgx:width="0.67" style="fill:rgb(0,0,0);font-family:Arial;font-size:42.15px;stroke:none;">P</text>
   <text y="499.436" transform="matrix(0.70711,-0.70711,0.70711,0.70711,-292.45656,292.8194)" rotateDegrees="-45" matrix="[29.803345,29.803345,-29.803345,29.803345,207.23578,342.484]" x="207.236" svgx:width="0.61" style="fill:rgb(0,0,0);font-family:Arial;font-size:42.15px;stroke:none;">T</text>
   <text y="481.226" transform="matrix(0.70711,-0.70711,0.70711,0.70711,-274.24656,300.36223)" rotateDegrees="-45" matrix="[29.803345,29.803345,-29.803345,29.803345,225.44562,360.69385]" x="225.446" svgx:width="0.67" style="fill:rgb(0,0,0);font-family:Arial;font-size:42.15px;stroke:none;">E</text>
   <text y="461.347" transform="matrix(0.70711,-0.70711,0.70711,0.70711,-254.36786,308.59567)" rotateDegrees="-45" matrix="[29.803345,29.803345,-29.803345,29.803345,245.32443,380.57266]" x="245.324" svgx:width="0.72" style="fill:rgb(0,0,0);font-family:Arial;font-size:42.15px;stroke:none;">D</text>
   <text y="439.829" transform="matrix(0.70711,-0.70711,0.70711,0.70711,-232.84986,317.50872)" rotateDegrees="-45" matrix="[29.803345,29.803345,-29.803345,29.803345,266.84247,402.0907]" x="266.842" svgx:width="0.28" style="fill:rgb(0,0,0);font-family:Arial;font-size:42.15px;stroke:none;"> </text>
   <text y="431.54" transform="matrix(0.70711,-0.70711,0.70711,0.70711,-224.56056,320.94284)" rotateDegrees="-45" matrix="[29.803345,29.803345,-29.803345,29.803345,275.13153,410.37976]" x="275.132" svgx:width="0.67" style="fill:rgb(0,0,0);font-family:Arial;font-size:42.15px;stroke:none;">V</text>
   <text y="411.661" transform="matrix(0.70711,-0.70711,0.70711,0.70711,-204.68186,329.17629)" rotateDegrees="-45" matrix="[29.803345,29.803345,-29.803345,29.803345,295.0103,430.25858]" x="295.01" svgx:width="0.67" style="fill:rgb(0,0,0);font-family:Arial;font-size:42.15px;stroke:none;">E</text>
   <text y="391.783" transform="matrix(0.70711,-0.70711,0.70711,0.70711,-184.80356,337.41073)" rotateDegrees="-45" matrix="[29.803345,29.803345,-29.803345,29.803345,314.88916,450.1374]" x="314.889" svgx:width="0.72" style="fill:rgb(0,0,0);font-family:Arial;font-size:42.15px;stroke:none;">R</text>
   <text y="370.265" transform="matrix(0.70711,-0.70711,0.70711,0.70711,-163.28556,346.32378)" rotateDegrees="-45" matrix="[29.803345,29.803345,-29.803345,29.803345,336.40717,471.65543]" x="336.407" svgx:width="0.67" style="fill:rgb(0,0,0);font-family:Arial;font-size:42.15px;stroke:none;">S</text>
   <text y="350.386" transform="matrix(0.70711,-0.70711,0.70711,0.70711,-143.40656,354.55793)" rotateDegrees="-45" matrix="[29.803345,29.803345,-29.803345,29.803345,356.286,491.53424]" x="356.286" svgx:width="0.28" style="fill:rgb(0,0,0);font-family:Arial;font-size:42.15px;stroke:none;">I</text>
   <text y="342.1" transform="matrix(0.70711,-0.70711,0.70711,0.70711,-135.12086,357.9894)" rotateDegrees="-45" matrix="[29.803345,29.803345,-29.803345,29.803345,364.57135,499.81958]" x="364.571" svgx:width="0.78" style="fill:rgb(0,0,0);font-family:Arial;font-size:42.15px;stroke:none;">O</text>
   <text y="318.913" transform="matrix(0.70711,-0.70711,0.70711,0.70711,-111.93386,367.59377)" rotateDegrees="-45" matrix="[29.803345,29.803345,-29.803345,29.803345,387.7583,523.0066]" x="387.758" svgx:width="0.72" style="fill:rgb(0,0,0);font-family:Arial;font-size:42.15px;stroke:none;">N</text>
   <text y="297.395" transform="matrix(0.70711,-0.70711,0.70711,0.70711,-90.41586,376.50681)" rotateDegrees="-45" matrix="[29.803345,29.803345,-29.803345,29.803345,409.27637,544.5246]" x="409.276" svgx:width="0.28" style="fill:rgb(0,0,0);font-family:Arial;font-size:42.15px;stroke:none;"> </text>
   <text y="637.872" transform="matrix(0.70711,-0.70711,0.70711,0.70711,-409.94279,286.05456)" rotateDegrees="-45" matrix="[29.803345,29.803345,-29.803345,29.803345,140.32727,204.04747]" x="140.327" svgx:width="0.67" style="fill:rgb(0,0,0);font-family:Arial;font-size:42.15px;stroke:none;">S</text>
   <text y="617.994" transform="matrix(0.70711,-0.70711,0.70711,0.70711,-390.0645,294.289)" rotateDegrees="-45" matrix="[29.803345,29.803345,-29.803345,29.803345,160.2061,223.9263]" x="160.206" svgx:width="0.72" style="fill:rgb(0,0,0);font-family:Arial;font-size:42.15px;stroke:none;">U</text>
   <text y="596.476" transform="matrix(0.70711,-0.70711,0.70711,0.70711,-368.5465,303.20205)" rotateDegrees="-45" matrix="[29.803345,29.803345,-29.803345,29.803345,181.72412,245.4443]" x="181.724" svgx:width="0.67" style="fill:rgb(0,0,0);font-family:Arial;font-size:42.15px;stroke:none;">B</text>
   <text y="576.597" transform="matrix(0.70711,-0.70711,0.70711,0.70711,-348.6675,311.4362)" rotateDegrees="-45" matrix="[29.803345,29.803345,-29.803345,29.803345,201.60294,265.32315]" x="201.603" svgx:width="0.5" style="fill:rgb(0,0,0);font-family:Arial;font-size:42.15px;stroke:none;">J</text>
   <text y="561.695" transform="matrix(0.70711,-0.70711,0.70711,0.70711,-333.7655,317.60881)" rotateDegrees="-45" matrix="[29.803345,29.803345,-29.803345,29.803345,216.50462,280.22482]" x="216.505" svgx:width="0.67" style="fill:rgb(0,0,0);font-family:Arial;font-size:42.15px;stroke:none;">E</text>
   <text y="541.816" transform="matrix(0.70711,-0.70711,0.70711,0.70711,-313.88679,325.84225)" rotateDegrees="-45" matrix="[29.803345,29.803345,-29.803345,29.803345,236.38344,300.10364]" x="236.383" svgx:width="0.72" style="fill:rgb(0,0,0);font-family:Arial;font-size:42.15px;stroke:none;">C</text>
   <text y="520.298" transform="matrix(0.70711,-0.70711,0.70711,0.70711,-292.36879,334.7553)" rotateDegrees="-45" matrix="[29.803345,29.803345,-29.803345,29.803345,257.90146,321.62164]" x="257.901" svgx:width="0.61" style="fill:rgb(0,0,0);font-family:Arial;font-size:42.15px;stroke:none;">T</text>
   <text y="502.089" transform="matrix(0.70711,-0.70711,0.70711,0.70711,-274.1595,342.29842)" rotateDegrees="-45" matrix="[29.803345,29.803345,-29.803345,29.803345,276.1113,339.83148]" x="276.111" svgx:width="0.28" style="fill:rgb(0,0,0);font-family:Arial;font-size:42.15px;stroke:none;"> </text>
   <text y="493.803" transform="matrix(0.70711,-0.70711,0.70711,0.70711,-265.8735,345.7306)" rotateDegrees="-45" matrix="[29.803345,29.803345,-29.803345,29.803345,284.39664,348.11682]" x="284.397" svgx:width="0.61" style="fill:rgb(0,0,0);font-family:Arial;font-size:42.15px;stroke:none;">T</text>
   <text y="475.593" transform="matrix(0.70711,-0.70711,0.70711,0.70711,-247.66379,353.27272)" rotateDegrees="-45" matrix="[29.803345,29.803345,-29.803345,29.803345,302.60648,366.32666]" x="302.606" svgx:width="0.78" style="fill:rgb(0,0,0);font-family:Arial;font-size:42.15px;stroke:none;">O</text>
   <text y="452.406" transform="matrix(0.70711,-0.70711,0.70711,0.70711,-224.47679,362.87709)" rotateDegrees="-45" matrix="[29.803345,29.803345,-29.803345,29.803345,325.79346,389.51367]" x="325.793" svgx:width="0.28" style="fill:rgb(0,0,0);font-family:Arial;font-size:42.15px;stroke:none;"> </text>
   <text y="444.136" transform="matrix(0.70711,-0.70711,0.70711,0.70711,-216.2065,366.30334)" rotateDegrees="-45" matrix="[29.803345,29.803345,-29.803345,29.803345,334.0639,397.78412]" x="334.064" svgx:width="0.61" style="fill:rgb(0,0,0);font-family:Arial;font-size:42.15px;stroke:none;">F</text>
   <text y="425.926" transform="matrix(0.70711,-0.70711,0.70711,0.70711,-197.9965,373.84617)" rotateDegrees="-45" matrix="[29.803345,29.803345,-29.803345,29.803345,352.27374,415.99396]" x="352.274" svgx:width="0.28" style="fill:rgb(0,0,0);font-family:Arial;font-size:42.15px;stroke:none;">I</text>
   <text y="417.641" transform="matrix(0.70711,-0.70711,0.70711,0.70711,-189.7115,377.27793)" rotateDegrees="-45" matrix="[29.803345,29.803345,-29.803345,29.803345,360.55908,424.2793]" x="360.559" svgx:width="0.72" style="fill:rgb(0,0,0);font-family:Arial;font-size:42.15px;stroke:none;">N</text>
   <text y="396.123" transform="matrix(0.70711,-0.70711,0.70711,0.70711,-168.1935,386.19098)" rotateDegrees="-45" matrix="[29.803345,29.803345,-29.803345,29.803345,382.0771,445.7973]" x="382.077" svgx:width="0.67" style="fill:rgb(0,0,0);font-family:Arial;font-size:42.15px;stroke:none;">A</text>
   <text y="376.244" transform="matrix(0.70711,-0.70711,0.70711,0.70711,-148.3145,394.42513)" rotateDegrees="-45" matrix="[29.803345,29.803345,-29.803345,29.803345,401.95593,465.67615]" x="401.956" svgx:width="0.56" style="fill:rgb(0,0,0);font-family:Arial;font-size:42.15px;stroke:none;">L</text>
   <text y="359.673" transform="matrix(0.70711,-0.70711,0.70711,0.70711,-131.7435,401.28906)" rotateDegrees="-45" matrix="[29.803345,29.803345,-29.803345,29.803345,418.5266,482.24677]" x="418.527" svgx:width="0.28" style="fill:rgb(0,0,0);font-family:Arial;font-size:42.15px;stroke:none;"> </text>
   <text y="351.394" transform="matrix(0.70711,-0.70711,0.70711,0.70711,-123.4645,404.71834)" rotateDegrees="-45" matrix="[29.803345,29.803345,-29.803345,29.803345,426.80573,490.52588]" x="426.806" svgx:width="0.67" style="fill:rgb(0,0,0);font-family:Arial;font-size:42.15px;stroke:none;">E</text>
   <text y="331.515" transform="matrix(0.70711,-0.70711,0.70711,0.70711,-103.5855,412.95249)" rotateDegrees="-45" matrix="[29.803345,29.803345,-29.803345,29.803345,446.68457,510.40472]" x="446.685" svgx:width="0.72" style="fill:rgb(0,0,0);font-family:Arial;font-size:42.15px;stroke:none;">D</text>
   <text y="309.997" transform="matrix(0.70711,-0.70711,0.70711,0.70711,-82.0675,421.86554)" rotateDegrees="-45" matrix="[29.803345,29.803345,-29.803345,29.803345,468.2025,531.9227]" x="468.203" svgx:width="0.28" style="fill:rgb(0,0,0);font-family:Arial;font-size:42.15px;stroke:none;">I</text>
   <text y="301.712" transform="matrix(0.70711,-0.70711,0.70711,0.70711,-73.7825,425.29729)" rotateDegrees="-45" matrix="[29.803345,29.803345,-29.803345,29.803345,476.48785,540.20807]" x="476.488" svgx:width="0.61" style="fill:rgb(0,0,0);font-family:Arial;font-size:42.15px;stroke:none;">T</text>
   <text y="283.502" transform="matrix(0.70711,-0.70711,0.70711,0.70711,-55.5725,432.84012)" rotateDegrees="-45" matrix="[29.803345,29.803345,-29.803345,29.803345,494.6977,558.4179]" x="494.698" svgx:width="0.67" style="fill:rgb(0,0,0);font-family:Arial;font-size:42.15px;stroke:none;">S</text>
  </g>
 </g>
</svg>
