<?xml version="1.0" encoding="UTF-8"?>
<svg height="781.06" width="534.46" xmlns="http://www.w3.org/2000/svg">
 <g id="page" xmlns:svgx="http://www.xml-cml.org/schema/svgx">
  <g begin="text">
   <text y="80.82" x="76.5,81.841,87.121,91.921,97.201,100.558,105.538,108.958,111.242" svgx:width="0.53,0.52,0.48,0.52,0.34,0.5,0.35,0.23,0.51" style="fill:rgb(0,0,0);font-family:Calibri;font-size:10.02px;stroke:none;">Chapter 6</text>
  </g>
  <g begin="text">
   <text y="80.82" x="116.28" svgx:width="0.23" style="fill:rgb(0,0,0);font-family:Calibri;font-size:10.02px;stroke:none;"> </text>
  </g>
  <g begin="text">
   <text y="80.82" x="133.2,138.3" svgx:width="0.51,0.51" style="fill:rgb(0,0,0);font-family:Calibri;font-size:10.02px;stroke:none;">44</text>
  </g>
  <g begin="text">
   <text y="80.82" x="143.34" svgx:width="0.23" style="fill:rgb(0,0,0);font-family:Calibri;font-size:10.02px;stroke:none;"> </text>
  </g>
  <g begin="text">
   <text y="80.82" x="189.9,195.0" svgx:width="0.51,0.51" style="fill:rgb(0,0,0);font-family:Calibri;font-size:10.02px;stroke:none;">41</text>
  </g>
  <g begin="text">
   <text y="80.82" x="200.1" svgx:width="0.31" style="fill:rgb(0,0,0);font-family:Calibri;font-size:10.02px;stroke:none;">-</text>
  </g>
  <g begin="text">
   <text y="80.82" x="203.1,208.2" svgx:width="0.51,0.51" style="fill:rgb(0,0,0);font-family:Calibri;font-size:10.02px;stroke:none;">42</text>
  </g>
  <g begin="text">
   <text y="80.82" x="213.24" svgx:width="0.23" style="fill:rgb(0,0,0);font-family:Calibri;font-size:10.02px;stroke:none;"> </text>
  </g>
  <g begin="text">
   <text y="80.82" x="259.38,264.84,269.82,275.1,277.38,282.181,286.38,291.36" svgx:width="0.54,0.5,0.52,0.23,0.48,0.42,0.5,0.27" style="fill:rgb(0,0,0);font-family:Calibri;font-size:10.02px;stroke:none;">Replace:</text>
  </g>
  <g begin="text">
   <text y="80.82" x="294.0" svgx:width="0.23" style="fill:rgb(0,0,0);font-family:Calibri;font-size:10.02px;stroke:none;"> </text>
  </g>
  <g begin="text">
   <text y="93.06" x="259.38,264.24,269.52,274.32,277.68,279.964,283.862,288.661,290.942,296.222,298.681,300.966,304.446,309.426,313.686,318.606,323.887,327.246,329.526,334.026,339.006,343.806,347.285,351.185,353.47,358.749,363.55,368.05,372.97,375.254,379.154,384.134,389.114,394.395,396.674,401.475,403.694,408.975,413.955,418.215,421.695,426.615,431.414,435.315,440.295,442.575,444.859,450.139,452.423,455.483,460.763,464.664,468.564,470.843,473.128,475.407,480.268,485.728,492.388,494.848,497.368" svgx:width="0.49,0.52,0.48,0.34,0.23,0.39,0.48,0.23,0.52,0.25,0.23,0.35,0.5,0.42,0.5,0.52,0.34,0.23,0.45,0.5,0.48,0.35,0.39,0.23,0.52,0.48,0.45,0.5,0.23,0.39,0.5,0.5,0.52,0.23,0.48,0.23,0.52,0.5,0.42,0.35,0.5,0.48,0.39,0.5,0.23,0.23,0.52,0.23,0.31,0.53,0.39,0.39,0.23,0.23,0.23,0.49,0.54,0.66,0.25,0.25,0.23" style="fill:rgb(0,0,0);font-family:Calibri;font-size:10.02px;stroke:none;">That said, recent years have seen a decrease in fossil EROI, </text>
   <text y="105.244" x="259.38,264.36,268.26,273.54,278.52,282.779,285.059,289.859,292.139,294.419,298.978,301.263,306.062,309.902,312.186,317.406,322.686,327.967,332.947,336.427,341.166,344.646,349.867,355.147,360.368,365.648,367.869,372.127,377.347,382.147,384.428,386.707,394.687,396.968,402.248,404.529,409.809,414.549,416.768,422.049,426.848,430.748,432.968,437.169,442.448,447.729,451.089,453.368,458.649,463.929,468.849,474.13,476.409,478.69,483.91,486.19,491.529,496.75,499.029,504.31,509.109,511.623" svgx:width="0.5,0.39,0.52,0.5,0.42,0.23,0.48,0.23,0.23,0.45,0.23,0.48,0.39,0.23,0.52,0.52,0.52,0.5,0.35,0.47,0.35,0.53,0.52,0.52,0.52,0.23,0.42,0.53,0.48,0.23,0.23,0.8,0.23,0.52,0.23,0.52,0.47,0.23,0.52,0.48,0.39,0.23,0.42,0.53,0.52,0.34,0.23,0.52,0.52,0.5,0.52,0.23,0.23,0.52,0.23,0.53,0.52,0.23,0.52,0.48,0.25,0.23" style="fill:rgb(0,0,0);font-family:Calibri;font-size:10.02px;stroke:none;">especially as underground coal mining has continued in China. </text>
   <text y="117.489" x="259.38" svgx:width="0.23" style="fill:rgb(0,0,0);font-family:Calibri;font-size:10.02px;stroke:none;"> </text>
   <text y="129.673" x="259.38,268.32,270.6,273.96,279.181,281.825" svgx:width="0.89,0.23,0.34,0.52,0.27,0.23" style="fill:rgb(0,0,0);font-family:Calibri;font-size:10.02px;stroke:none;">With: </text>
   <text y="141.857" x="259.38,264.24,269.52,274.32,277.68,279.964,283.862,288.661,290.942,296.222,298.681,300.966,304.443,309.423,313.683,318.603,323.883,327.242,329.527,334.027,339.007,343.806,347.283,351.181,353.461,358.74,363.541,368.041,372.961,375.245,379.143,384.123,389.103,394.382,396.667,401.466,403.687,408.966,413.946,418.207,421.684,426.603,431.403,435.301,440.281,442.56,444.841,450.12,452.4,455.46,460.741,464.638,468.536,470.817,473.091,475.371,480.231,485.691,492.352,494.812,497.332" svgx:width="0.49,0.52,0.48,0.34,0.23,0.39,0.48,0.23,0.52,0.25,0.23,0.35,0.5,0.42,0.5,0.52,0.34,0.23,0.45,0.5,0.48,0.35,0.39,0.23,0.52,0.48,0.45,0.5,0.23,0.39,0.5,0.5,0.52,0.23,0.48,0.23,0.52,0.5,0.42,0.35,0.5,0.48,0.39,0.5,0.23,0.23,0.52,0.23,0.31,0.53,0.39,0.39,0.23,0.23,0.23,0.49,0.54,0.66,0.25,0.25,0.23" style="fill:rgb(0,0,0);font-family:Calibri;font-size:10.02px;stroke:none;">That said, recent years have seen a decrease in fossil EROI, </text>
   <text y="154.102" x="259.38,264.36,268.26,273.54,278.52,282.779,285.059,289.859,292.139,294.419,298.978,301.259,306.058,309.898,312.178,317.398,322.678,327.959,332.939,336.419,341.158,344.638,349.859,355.139,360.36,365.64,367.865,372.123,377.343,382.143,384.424,386.703,394.683,396.964,402.244,404.525,409.805,414.545,416.764,422.045,426.844,430.744,432.968,437.168,442.448,447.729,451.09,453.369,458.65,463.93,468.85,474.131,476.584" svgx:width="0.5,0.39,0.52,0.5,0.42,0.23,0.48,0.23,0.23,0.45,0.23,0.48,0.39,0.23,0.52,0.52,0.52,0.5,0.35,0.47,0.35,0.53,0.52,0.52,0.52,0.23,0.42,0.53,0.48,0.23,0.23,0.8,0.23,0.52,0.23,0.52,0.47,0.23,0.52,0.48,0.39,0.23,0.42,0.53,0.52,0.34,0.23,0.52,0.52,0.5,0.52,0.25,0.23" style="fill:rgb(0,0,0);font-family:Calibri;font-size:10.02px;stroke:none;">especially as underground coal mining has continued. </text>
  </g>
  <path style="fill:rgb(0,0,0);stroke:none;stroke-width:1.0;" d="M71.340 676.080 L127.560 676.080 L127.560 770.580 L71.340 770.580 L71.340 676.080 M71.340 676.080 L127.560 676.080 L127.560 770.580 L71.340 770.580 L71.340 676.080 M128.040 676.080 L184.260 676.080 L184.260 770.580 L128.040 770.580 L128.040 676.080 M128.040 676.080 L184.260 676.080 L184.260 770.580 L128.040 770.580 L128.040 676.080 M184.740 676.080 L253.740 676.080 L253.740 770.580 L184.740 770.580 L184.740 676.080 M184.740 676.080 L253.740 676.080 L253.740 770.580 L184.740 770.580 L184.740 676.080 M184.740 676.080 L253.740 676.080 L253.740 770.580 L184.740 770.580 L184.740 676.080 M184.740 676.080 L253.740 676.080 L253.740 770.580 L184.740 770.580 L184.740 676.080 M70.860 770.580 L71.340 770.580 L71.340 771.060 L70.860 771.060 L70.860 770.580 "/>
  <path style="fill:rgb(0,0,0);stroke:none;stroke-width:1.0;" d="M70.860 770.580 L71.340 770.580 L71.340 771.060 L70.860 771.060 L70.860 770.580 "/>
  <path style="fill:rgb(0,0,0);stroke:none;stroke-width:1.0;" d="M71.340 770.580 L127.560 770.580 L127.560 771.060 L71.340 771.060 L71.340 770.580 "/>
  <path style="fill:rgb(0,0,0);stroke:none;stroke-width:1.0;" d="M127.560 770.580 L128.040 770.580 L128.040 771.060 L127.560 771.060 L127.560 770.580 "/>
  <path style="fill:rgb(0,0,0);stroke:none;stroke-width:1.0;" d="M128.040 770.580 L184.260 770.580 L184.260 771.060 L128.040 771.060 L128.040 770.580 "/>
  <path style="fill:rgb(0,0,0);stroke:none;stroke-width:1.0;" d="M184.260 770.580 L184.740 770.580 L184.740 771.060 L184.260 771.060 L184.260 770.580 "/>
  <path style="fill:rgb(0,0,0);stroke:none;stroke-width:1.0;" d="M184.740 770.580 L253.800 770.580 L253.800 771.060 L184.740 771.060 L184.740 770.580 "/>
  <path style="fill:rgb(0,0,0);stroke:none;stroke-width:1.0;" d="M253.800 770.580 L254.280 770.580 L254.280 771.060 L253.800 771.060 L253.800 770.580 "/>
  <path style="fill:rgb(0,0,0);stroke:none;stroke-width:1.0;" d="M523.980 770.580 L524.460 770.580 L524.460 771.060 L523.980 771.060 L523.980 770.580 "/>
  <path style="fill:rgb(0,0,0);stroke:none;stroke-width:1.0;" d="M523.980 770.580 L524.460 770.580 L524.460 771.060 L523.980 771.060 L523.980 770.580 "/>
  <path style="fill:rgb(0,0,0);stroke:none;stroke-width:1.0;" d="M70.860 676.080 L71.340 676.080 L71.340 770.580 L70.860 770.580 L70.860 676.080 "/>
  <path style="fill:rgb(0,0,0);stroke:none;stroke-width:1.0;" d="M127.560 676.080 L128.040 676.080 L128.040 770.580 L127.560 770.580 L127.560 676.080 "/>
  <path style="fill:rgb(0,0,0);stroke:none;stroke-width:1.0;" d="M184.260 676.080 L184.740 676.080 L184.740 770.580 L184.260 770.580 L184.260 676.080 "/>
  <path style="fill:rgb(0,0,0);stroke:none;stroke-width:1.0;" d="M253.800 676.080 L254.280 676.080 L254.280 770.580 L253.800 770.580 L253.800 676.080 "/>
  <path style="fill:rgb(0,0,0);stroke:none;stroke-width:1.0;" d="M523.980 676.080 L524.460 676.080 L524.460 770.580 L523.980 770.580 L523.980 676.080 "/>
  <g begin="text">
   <text y="175.86" x="76.5,81.841,87.121,91.921,97.201,100.558,105.538,108.958,111.242" svgx:width="0.53,0.52,0.48,0.52,0.34,0.5,0.35,0.23,0.51" style="fill:rgb(0,0,0);font-family:Calibri;font-size:10.02px;stroke:none;">Chapter 6</text>
  </g>
  <g begin="text">
   <text y="175.86" x="116.28" svgx:width="0.23" style="fill:rgb(0,0,0);font-family:Calibri;font-size:10.02px;stroke:none;"> </text>
  </g>
  <g begin="text">
   <text y="175.86" x="133.2" svgx:width="0.23" style="fill:rgb(0,0,0);font-family:Calibri;font-size:10.02px;stroke:none;"> </text>
  </g>
  <g begin="text">
   <text y="175.86" x="135.48" svgx:width="0.23" style="fill:rgb(0,0,0);font-family:Calibri;font-size:10.02px;stroke:none;"> </text>
  </g>
  <g begin="text">
   <text y="175.86" x="189.9,192.96,195.24,199.98,205.261,208.741,213.721,215.945,221.044,223.565" svgx:width="0.31,0.23,0.47,0.52,0.35,0.5,0.23,0.51,0.25,0.51" style="fill:rgb(0,0,0);font-family:Calibri;font-size:10.02px;stroke:none;">figure 6.1</text>
  </g>
  <g begin="text">
   <text y="175.86" x="228.66" svgx:width="0.23" style="fill:rgb(0,0,0);font-family:Calibri;font-size:10.02px;stroke:none;"> </text>
  </g>
  <g begin="text">
   <text y="175.86" x="230.88,235.68,240.9,246.18" svgx:width="0.48,0.52,0.52,0.23" style="fill:rgb(0,0,0);font-family:Calibri;font-size:10.02px;stroke:none;">and </text>
  </g>
  <g begin="text">
   <text y="188.04" x="189.9,194.158,199.439,202.919,206.399,211.379,215.279,220.559,225.839,231.059,236.34,238.62,243.901,248.581" svgx:width="0.42,0.53,0.35,0.35,0.5,0.39,0.52,0.53,0.52,0.52,0.23,0.52,0.47,0.23" style="fill:rgb(0,0,0);font-family:Calibri;font-size:10.02px;stroke:none;">corresponding </text>
   <text y="200.224" x="189.9,194.76,199.379,201.663,204.723,207.003,211.743,217.023,220.503,225.421" svgx:width="0.49,0.46,0.23,0.31,0.23,0.47,0.52,0.35,0.5,0.23" style="fill:rgb(0,0,0);font-family:Calibri;font-size:10.02px;stroke:none;">TS figure </text>
  </g>
  <g begin="text">
   <text y="175.86" x="259.38,264.54,269.34,274.62,279.6,281.88,284.164,288.964,291.184,294.241,299.28,304.38,309.42,314.52,317.52,319.74,325.08,330.361,335.16,340.38,345.119,350.099,352.739,355.019,360.299,365.519,369.777,372.057,376.978,381.777,385.257,387.537,390.598,394.078,399.357,407.337,409.617,414.657,419.757,422.042,425.401,430.622,432.901,437.941,443.042,445.321,450.122,455.341,460.622,462.841,467.581,472.56,477.84,481.141,486.421,491.402,494.822,502.802,507.601,509.882,512.161,517.262" svgx:width="0.52,0.48,0.52,0.5,0.23,0.23,0.48,0.23,0.3,0.51,0.51,0.51,0.51,0.3,0.23,0.53,0.52,0.48,0.52,0.47,0.5,0.27,0.23,0.52,0.52,0.42,0.23,0.5,0.48,0.35,0.23,0.31,0.35,0.53,0.8,0.23,0.51,0.51,0.23,0.34,0.53,0.23,0.51,0.51,0.23,0.48,0.52,0.52,0.23,0.47,0.5,0.53,0.34,0.52,0.5,0.35,0.8,0.48,0.23,0.23,0.51,0.23" style="fill:rgb(0,0,0);font-family:Calibri;font-size:10.02px;stroke:none;">Panel a (2019) Change: nuclear from 30 to 10 and geothermal 4 </text>
  </g>
  <g begin="text">
   <text y="188.04" x="259.38,262.737,268.017,270.297,275.397,277.857,282.897" svgx:width="0.34,0.53,0.23,0.51,0.25,0.51,0.23" style="fill:rgb(0,0,0);font-family:Calibri;font-size:10.02px;stroke:none;">to 1.1 </text>
  </g>
  <path style="fill:rgb(0,0,0);stroke:none;stroke-width:1.0;" d="M71.340 581.040 L127.560 581.040 L127.560 675.540 L71.340 675.540 L71.340 581.040 M71.340 581.040 L127.560 581.040 L127.560 675.540 L71.340 675.540 L71.340 581.040 M128.040 581.040 L184.260 581.040 L184.260 675.540 L128.040 675.540 L128.040 581.040 M128.040 581.040 L184.260 581.040 L184.260 675.540 L128.040 675.540 L128.040 581.040 M184.740 581.040 L253.740 581.040 L253.740 675.540 L184.740 675.540 L184.740 581.040 M184.740 581.040 L253.740 581.040 L253.740 675.540 L184.740 675.540 L184.740 581.040 M184.740 581.040 L253.740 581.040 L253.740 675.540 L184.740 675.540 L184.740 581.040 M70.860 675.600 L71.340 675.600 L71.340 676.080 L70.860 676.080 L70.860 675.600 "/>
  <path style="fill:rgb(0,0,0);stroke:none;stroke-width:1.0;" d="M71.340 675.600 L127.560 675.600 L127.560 676.080 L71.340 676.080 L71.340 675.600 "/>
  <path style="fill:rgb(0,0,0);stroke:none;stroke-width:1.0;" d="M127.560 675.600 L128.040 675.600 L128.040 676.080 L127.560 676.080 L127.560 675.600 "/>
  <path style="fill:rgb(0,0,0);stroke:none;stroke-width:1.0;" d="M128.040 675.600 L184.260 675.600 L184.260 676.080 L128.040 676.080 L128.040 675.600 "/>
  <path style="fill:rgb(0,0,0);stroke:none;stroke-width:1.0;" d="M184.260 675.600 L184.740 675.600 L184.740 676.080 L184.260 676.080 L184.260 675.600 "/>
  <path style="fill:rgb(0,0,0);stroke:none;stroke-width:1.0;" d="M184.740 675.600 L253.800 675.600 L253.800 676.080 L184.740 676.080 L184.740 675.600 "/>
  <path style="fill:rgb(0,0,0);stroke:none;stroke-width:1.0;" d="M253.800 675.600 L254.280 675.600 L254.280 676.080 L253.800 676.080 L253.800 675.600 "/>
  <path style="fill:rgb(0,0,0);stroke:none;stroke-width:1.0;" d="M523.980 675.600 L524.460 675.600 L524.460 676.080 L523.980 676.080 L523.980 675.600 "/>
  <path style="fill:rgb(0,0,0);stroke:none;stroke-width:1.0;" d="M70.860 581.040 L71.340 581.040 L71.340 675.600 L70.860 675.600 L70.860 581.040 "/>
  <path style="fill:rgb(0,0,0);stroke:none;stroke-width:1.0;" d="M70.860 580.560 L71.340 580.560 L71.340 581.040 L70.860 581.040 L70.860 580.560 "/>
  <path style="fill:rgb(0,0,0);stroke:none;stroke-width:1.0;" d="M70.860 580.560 L71.340 580.560 L71.340 581.040 L70.860 581.040 L70.860 580.560 "/>
  <path style="fill:rgb(0,0,0);stroke:none;stroke-width:1.0;" d="M71.340 580.560 L127.560 580.560 L127.560 581.040 L71.340 581.040 L71.340 580.560 "/>
  <path style="fill:rgb(0,0,0);stroke:none;stroke-width:1.0;" d="M127.560 581.040 L128.040 581.040 L128.040 675.600 L127.560 675.600 L127.560 581.040 "/>
  <path style="fill:rgb(0,0,0);stroke:none;stroke-width:1.0;" d="M127.560 580.560 L128.040 580.560 L128.040 581.040 L127.560 581.040 L127.560 580.560 "/>
  <path style="fill:rgb(0,0,0);stroke:none;stroke-width:1.0;" d="M128.040 580.560 L184.260 580.560 L184.260 581.040 L128.040 581.040 L128.040 580.560 "/>
  <path style="fill:rgb(0,0,0);stroke:none;stroke-width:1.0;" d="M184.260 581.040 L184.740 581.040 L184.740 675.600 L184.260 675.600 L184.260 581.040 "/>
  <path style="fill:rgb(0,0,0);stroke:none;stroke-width:1.0;" d="M184.260 580.560 L184.740 580.560 L184.740 581.040 L184.260 581.040 L184.260 580.560 "/>
  <path style="fill:rgb(0,0,0);stroke:none;stroke-width:1.0;" d="M184.740 580.560 L253.800 580.560 L253.800 581.040 L184.740 581.040 L184.740 580.560 "/>
  <path style="fill:rgb(0,0,0);stroke:none;stroke-width:1.0;" d="M253.800 581.040 L254.280 581.040 L254.280 675.600 L253.800 675.600 L253.800 581.040 "/>
  <path style="fill:rgb(0,0,0);stroke:none;stroke-width:1.0;" d="M253.800 580.560 L254.280 580.560 L254.280 581.040 L253.800 581.040 L253.800 580.560 "/>
  <path style="fill:rgb(0,0,0);stroke:none;stroke-width:1.0;" d="M523.980 581.040 L524.460 581.040 L524.460 675.600 L523.980 675.600 L523.980 581.040 "/>
  <path style="fill:rgb(0,0,0);stroke:none;stroke-width:1.0;" d="M523.980 580.560 L524.460 580.560 L524.460 581.040 L523.980 581.040 L523.980 580.560 "/>
  <path style="fill:rgb(0,0,0);stroke:none;stroke-width:1.0;" d="M523.980 580.560 L524.460 580.560 L524.460 581.040 L523.980 581.040 L523.980 580.560 "/>
  <g begin="text">
   <text y="271.86" x="70.86" svgx:width="0.23" style="fill:rgb(0,0,0);font-family:Calibri;font-size:10.98px;stroke:none;"> </text>
  </g>
 </g>
</svg>
