<?xml version="1.0" encoding="UTF-8"?>
<svg height="813.04" width="2582.0" xmlns="http://www.w3.org/2000/svg">
 <g id="page" xmlns:svgx="http://www.xml-cml.org/schema/svgx">
  <g begin="text">
   <text y="46.56" x="72.024,78.624,81.96,87.96,93.288,96.624,99.624,108.288,114.288,120.288,125.652,129.648,135.648,144.984,150.252,156.252,159.588,162.588,171.252,174.588,179.28,182.616,186.612,189.948,195.948,201.948,205.308,208.644,214.644" svgx:width="0.56,0.28,0.5,0.44,0.28,0.25,0.72,0.5,0.5,0.44,0.33,0.5,0.78,0.44,0.5,0.28,0.25,0.72,0.28,0.39,0.28,0.33,0.28,0.5,0.5,0.28,0.28,0.5,0.5" style="fill:rgb(0,0,0);font-family:TimesNewRomanPSMT;font-size:12.0px;stroke:none;">Final Government Distribution</text>
  </g>
  <g begin="text">
   <text y="46.56" x="220.73" svgx:width="0.25" style="fill:rgb(0,0,0);font-family:TimesNewRomanPSMT;font-size:11.04px;stroke:none;"> </text>
  </g>
  <g begin="text">
   <text y="46.56" x="273.41,280.729,286.249,291.151,296.671,299.796,304.598,308.307,311.067,316.587" svgx:width="0.67,0.5,0.44,0.5,0.28,0.44,0.33,0.25,0.5,0.5" style="fill:rgb(0,0,0);font-family:TimesNewRomanPSMT;font-size:11.04px;stroke:none;">Chapter 10</text>
  </g>
  <g begin="text">
   <text y="46.56" x="322.03" svgx:width="0.25" style="fill:rgb(0,0,0);font-family:TimesNewRomanPSMT;font-size:11.04px;stroke:none;"> </text>
  </g>
  <g begin="text">
   <text y="46.56" x="436.03,439.87,446.578,454.606,462.634,465.634,474.298,482.302,488.302,491.302,502.594,511.342,515.338,519.262" svgx:width="0.33,0.56,0.67,0.67,0.25,0.72,0.67,0.5,0.25,0.94,0.72,0.33,0.33,0.33" style="fill:rgb(0,0,0);font-family:TimesNewRomanPSMT;font-size:12.0px;stroke:none;">IPCC AR6 WGIII</text>
  </g>
  <g begin="text">
   <text y="46.56" x="523.42" svgx:width="0.25" style="fill:rgb(0,0,0);font-family:TimesNewRomanPSMT;font-size:12.0px;stroke:none;"> </text>
  </g>
  <g begin="text">
   <text y="803.04" x="72.024,79.94,85.46,88.22,96.135,101.655,105.365,108.125,116.04,119.154,122.753,127.655,130.415,133.075,141.708,147.847,153.367,157.043,161.868,164.628,170.148,175.049,177.809,185.78,188.75,192.945,196.655,201.556,204.681,210.819,216.803,220.512" svgx:width="0.72,0.5,0.25,0.72,0.5,0.33,0.25,0.72,0.28,0.33,0.44,0.25,0.25,0.78,0.56,0.5,0.33,0.44,0.25,0.5,0.44,0.25,0.72,0.28,0.39,0.33,0.44,0.28,0.56,0.56,0.33,0.44" style="fill:rgb(0,0,0);font-family:TimesNewRomanPS-BoldMT;font-size:11.04px;stroke:none;">Do Not Cite, Quote or Distribute</text>
  </g>
  <g begin="text">
   <text y="803.04" x="225.41" svgx:width="0.25" style="fill:rgb(0,0,0);font-family:TimesNewRomanPS-BoldMT;font-size:11.04px;stroke:none;"> </text>
  </g>
  <g begin="text">
   <text y="803.04" x="284.81,290.33" svgx:width="0.5,0.5" style="fill:rgb(0,0,0);font-family:TimesNewRomanPSMT;font-size:11.04px;stroke:none;">10</text>
  </g>
  <g begin="text">
   <text y="803.04" x="295.85" svgx:width="0.33" style="fill:rgb(0,0,0);font-family:TimesNewRomanPS-BoldMT;font-size:11.04px;stroke:none;">-</text>
  </g>
  <g begin="text">
   <text y="803.04" x="299.57,305.09" svgx:width="0.5,0.5" style="fill:rgb(0,0,0);font-family:TimesNewRomanPSMT;font-size:11.04px;stroke:none;">47</text>
  </g>
  <g begin="text">
   <text y="803.04" x="310.61" svgx:width="0.25" style="fill:rgb(0,0,0);font-family:TimesNewRomanPSMT;font-size:11.04px;stroke:none;"> </text>
  </g>
  <g begin="text">
   <text y="803.04" x="313.27" svgx:width="0.25" style="fill:rgb(0,0,0);font-family:TimesNewRomanPSMT;font-size:11.04px;stroke:none;"> </text>
  </g>
  <g begin="text">
   <text y="803.04" x="450.1,456.845,462.365,465.435,470.259,473.372,476.132,481.652,486.554,491.975,496.876,501.204,504.207" svgx:width="0.61,0.5,0.28,0.44,0.28,0.25,0.5,0.44,0.5,0.44,0.39,0.28,0.25" style="fill:rgb(0,0,0);font-family:TimesNewRomanPSMT;font-size:11.04px;stroke:none;">Total pages: </text>
  </g>
  <g begin="text">
   <text y="803.04" x="506.98,512.5,518.02" svgx:width="0.5,0.5,0.5" style="fill:rgb(0,0,0);font-family:TimesNewRomanPSMT;font-size:11.04px;stroke:none;">176</text>
  </g>
  <g begin="text">
   <text y="803.04" x="523.42" svgx:width="0.25" style="fill:rgb(0,0,0);font-family:TimesNewRomanPSMT;font-size:9.96px;stroke:none;"> </text>
  </g>
  <g begin="text">
   <text y="82.32" x="72.024,77.544,80.657,86.177,90.98,94.689,97.449,101.048,104.161,109.681,115.08,118.789,123.691,128.019,130.657,133.771,139.291,141.929,145.043,150.563,153.565,157.86,160.62,164.959,169.761,174.663,177.677,180.79,186.31" svgx:width="0.5,0.28,0.5,0.44,0.33,0.25,0.33,0.28,0.5,0.5,0.33,0.44,0.39,0.25,0.28,0.5,0.25,0.28,0.5,0.28,0.39,0.25,0.39,0.44,0.44,0.28,0.28,0.5,0.5" style="fill:rgb(0,0,0);font-family:TimesNewRomanPSMT;font-size:11.04px;stroke:none;">other figures in this section</text>
  </g>
  <g begin="text">
   <text y="82.32" x="191.93,194.57" svgx:width="0.25,0.25" style="fill:rgb(0,0,0);font-family:TimesNewRomanPSMT;font-size:11.04px;stroke:none;">. </text>
  </g>
  <g begin="text">
   <text y="82.32" x="197.33" svgx:width="0.25" style="fill:rgb(0,0,0);font-family:TimesNewRomanPSMT;font-size:11.04px;stroke:none;"> </text>
  </g>
  <g begin="text">
   <text y="82.32" x="48.0" svgx:width="0.5" style="fill:rgb(0,0,0);font-family:TimesNewRomanPSMT;font-size:12.0px;stroke:none;">1</text>
  </g>
  <g begin="text">
   <text y="82.32" x="54.0" svgx:width="0.25" style="fill:rgb(0,0,0);font-family:TimesNewRomanPSMT;font-size:12.0px;stroke:none;"> </text>
  </g>
  <g begin="text">
   <text y="102.26" x="297.65" svgx:width="0.25" style="fill:rgb(0,0,0);font-family:TimesNewRomanPSMT;font-size:11.04px;stroke:none;"> </text>
  </g>
  <g begin="text">
   <text y="102.26" x="48.0" svgx:width="0.5" style="fill:rgb(0,0,0);font-family:TimesNewRomanPSMT;font-size:12.0px;stroke:none;">2</text>
  </g>
  <g begin="text">
   <text y="102.26" x="54.0" svgx:width="0.25" style="fill:rgb(0,0,0);font-family:TimesNewRomanPSMT;font-size:12.0px;stroke:none;"> </text>
  </g>
  <g begin="text">
   <text y="121.22" x="297.65" svgx:width="0.25" style="fill:rgb(0,0,0);font-family:TimesNewRomanPS-BoldMT;font-size:9.96px;stroke:none;"> </text>
  </g>
  <g begin="text">
   <text y="121.22" x="48.0" svgx:width="0.5" style="fill:rgb(0,0,0);font-family:TimesNewRomanPSMT;font-size:12.0px;stroke:none;">3</text>
  </g>
  <g begin="text">
   <text y="121.22" x="54.0" svgx:width="0.25" style="fill:rgb(0,0,0);font-family:TimesNewRomanPSMT;font-size:12.0px;stroke:none;"> </text>
  </g>
  <g begin="text">
   <text y="414.05" x="48.0" svgx:width="0.5" style="fill:rgb(0,0,0);font-family:TimesNewRomanPSMT;font-size:12.0px;stroke:none;">4</text>
  </g>
  <g begin="text">
   <text y="414.05" x="54.0" svgx:width="0.25" style="fill:rgb(0,0,0);font-family:TimesNewRomanPSMT;font-size:12.0px;stroke:none;"> </text>
  </g>
  <g begin="text">
   <text y="634.78" x="523.54" svgx:width="0.25" style="fill:rgb(0,0,0);font-family:TimesNewRomanPS-BoldMT;font-size:9.96px;stroke:none;"> </text>
  </g>
  <g begin="text">
   <text y="634.78" x="48.0" svgx:width="0.5" style="fill:rgb(0,0,0);font-family:TimesNewRomanPSMT;font-size:12.0px;stroke:none;">5</text>
  </g>
  <g begin="text">
   <text y="634.78" x="54.0" svgx:width="0.25" style="fill:rgb(0,0,0);font-family:TimesNewRomanPSMT;font-size:12.0px;stroke:none;"> </text>
  </g>
  <g begin="text">
   <text y="651.34" x="72.024" svgx:width="0.25" style="fill:rgb(0,0,0);font-family:TimesNewRomanPS-BoldMT;font-size:9.96px;stroke:none;"> </text>
  </g>
  <g begin="text">
   <text y="651.34" x="48.0" svgx:width="0.5" style="fill:rgb(0,0,0);font-family:TimesNewRomanPSMT;font-size:12.0px;stroke:none;">6</text>
  </g>
  <g begin="text">
   <text y="651.34" x="54.0" svgx:width="0.25" style="fill:rgb(0,0,0);font-family:TimesNewRomanPSMT;font-size:12.0px;stroke:none;"> </text>
  </g>
  <g begin="text">
   <text y="669.94" x="81.744,87.849,90.618,95.638,101.176,105.598,110.02,112.55,117.58,122.61,125.12,130.15" svgx:width="0.61,0.28,0.5,0.56,0.44,0.44,0.25,0.5,0.5,0.25,0.5,0.25" style="fill:rgb(0,0,0);font-family:TimesNewRomanPS-BoldMT;font-size:9.96px;stroke:none;">Figure 10.6 </text>
  </g>
  <g begin="text">
   <text y="669.94" x="132.74,139.344,142.112,145.449,149.871,152.401,156.823,161.873,166.295,169.064,173.486,175.917,183.705,191.494,199.283,201.793,204.432,209.97,213.286,217.739,223.276,227.101,229.87,233.206,238.236,240.746,245.776,249.123,251.633,254.401,259.421,264.959" svgx:width="0.67,0.28,0.33,0.44,0.25,0.44,0.5,0.44,0.28,0.44,0.25,0.78,0.78,0.78,0.25,0.28,0.56,0.33,0.44,0.56,0.39,0.28,0.33,0.5,0.25,0.5,0.33,0.25,0.28,0.5,0.56,0.56" style="fill:rgb(0,0,0);font-family:TimesNewRomanPS-BoldMT;font-size:9.96px;stroke:none;">Life cycle GHG intensity of land</text>
  </g>
  <g begin="text">
   <text y="669.94" x="270.65" svgx:width="0.33" style="fill:rgb(0,0,0);font-family:TimesNewRomanPS-BoldMT;font-size:9.96px;stroke:none;">-</text>
  </g>
  <g begin="text">
   <text y="669.94" x="274.01,279.548,284.558,288.402,292.824,298.362,300.872,306.41,312.017,315.862,318.372,323.402,328.939,334.437,336.947,341.37,346.419,349.188,351.957,354.447,357.813,362.236,366.688,372.226,377.723,382.753,385.522,390.542,395.572,398.341,402.763,406.637" svgx:width="0.56,0.5,0.39,0.44,0.56,0.25,0.56,0.56,0.39,0.25,0.5,0.56,0.56,0.25,0.44,0.5,0.28,0.28,0.25,0.33,0.44,0.44,0.56,0.56,0.5,0.28,0.5,0.5,0.28,0.44,0.39,0.25" style="fill:rgb(0,0,0);font-family:TimesNewRomanPS-BoldMT;font-size:9.96px;stroke:none;">based bus and rail technologies.</text>
  </g>
  <g begin="text">
   <text y="669.94" x="409.27" svgx:width="0.25" style="fill:rgb(0,0,0);font-family:TimesNewRomanPS-BoldMT;font-size:9.96px;stroke:none;"> </text>
  </g>
  <g begin="text">
   <text y="669.94" x="411.79,418.394,423.423,427.846,433.383,435.893,441.521,446.55,450.973,453.503,457.925,462.377,467.915,472.337,476.759,480.633,485.056,490.593,493.91,497.785,500.275,503.651,509.189,513.611" svgx:width="0.67,0.5,0.44,0.56,0.25,0.56,0.5,0.44,0.25,0.44,0.44,0.56,0.44,0.44,0.39,0.44,0.56,0.33,0.39,0.25,0.33,0.56,0.44,0.25" style="fill:rgb(0,0,0);font-family:TimesNewRomanPS-BoldMT;font-size:9.96px;stroke:none;">Each bar represents the </text>
  </g>
  <g begin="text">
   <text y="669.94" x="48.0" svgx:width="0.5" style="fill:rgb(0,0,0);font-family:TimesNewRomanPSMT;font-size:12.0px;stroke:none;">7</text>
  </g>
  <g begin="text">
   <text y="669.94" x="54.0" svgx:width="0.25" style="fill:rgb(0,0,0);font-family:TimesNewRomanPSMT;font-size:12.0px;stroke:none;"> </text>
  </g>
  <g begin="text">
   <text y="682.54" x="79.224,83.646,88.696,94.234,99.244,103.666,106.196,111.225,114.572,117.082,120.429,125.966,130.389,132.898,135.667,138.436,141.753,146.205,148.715,153.038,158.067,162.49,165.258,169.681,172.221,176.643,180.517,183.834,186.603,195.009,199.929,203.276,207.698,211.572,214.062,216.582,222.12,227.13,232.668,238.166,243.703,248.126,253.663,256.153,261.691,266.711,269.221,277.607,280.376,285.914,288.643,297.029,302.567,310.943,313.453,318.483,324.021,329.519,332.029,340.415,345.445,350.475,353.244,361.62,367.158,375.425,377.935,382.357,387.895,392.317,396.769,401.799,406.829,409.338,414.876,418.701,423.123,425.653,431.191,435.613,440.035,442.565,448.103,453.71,462.096,464.606,467.007,472.037,475.881,478.391,482.813,487.265,492.803,497.813,502.235,505.602,510.024,515.562" svgx:width="0.44,0.5,0.56,0.5,0.44,0.25,0.5,0.33,0.25,0.33,0.56,0.44,0.25,0.28,0.28,0.33,0.44,0.25,0.44,0.5,0.44,0.28,0.44,0.25,0.44,0.39,0.33,0.28,0.83,0.5,0.33,0.44,0.39,0.25,0.25,0.56,0.5,0.56,0.56,0.56,0.44,0.56,0.25,0.56,0.5,0.25,0.83,0.28,0.56,0.28,0.83,0.56,0.83,0.25,0.5,0.56,0.56,0.25,0.83,0.5,0.5,0.28,0.83,0.56,0.83,0.25,0.44,0.56,0.44,0.44,0.5,0.5,0.25,0.56,0.39,0.44,0.25,0.56,0.44,0.44,0.25,0.56,0.56,0.83,0.25,0.25,0.5,0.39,0.25,0.44,0.44,0.56,0.5,0.44,0.33,0.44,0.56,0.25" style="fill:rgb(0,0,0);font-family:TimesNewRomanPS-BoldMT;font-size:9.96px;stroke:none;">range of the life cycle estimates, bounded by minimum and maximum energy use per pkm, as reported </text>
  </g>
  <g begin="text">
   <text y="682.54" x="48.0" svgx:width="0.5" style="fill:rgb(0,0,0);font-family:TimesNewRomanPSMT;font-size:12.0px;stroke:none;">8</text>
  </g>
  <g begin="text">
   <text y="682.54" x="54.0" svgx:width="0.25" style="fill:rgb(0,0,0);font-family:TimesNewRomanPSMT;font-size:12.0px;stroke:none;"> </text>
  </g>
  <g begin="text">
   <text y="695.26" x="74.064,77.411,82.44,86.863,89.392,93.815,98.864,103.287,108.824,111.334,114.681,120.219,124.641,127.41,130.179,135.677,140.706,147.897,152.32,156.772,160.118,164.541,169.59,172.359,177.897,180.387,184.809,189.749,198.136,203.674,206.442,211.94,216.97,220.317,223.086,228.105,233.643,236.133,238.653,245.257,250.794,255.217,257.726,262.149,267.198,272.736,277.746,282.168,286.043,288.533,293.573,297.995,302.447,304.957,310.495,314.917,317.686,322.706,327.128,332.666,335.175,340.713,345.723,348.233,353.771,356.54,359.856,363.223" svgx:width="0.33,0.5,0.44,0.25,0.44,0.5,0.44,0.56,0.25,0.33,0.56,0.44,0.28,0.28,0.56,0.5,0.72,0.44,0.44,0.33,0.44,0.5,0.28,0.56,0.25,0.44,0.5,0.83,0.56,0.28,0.56,0.5,0.33,0.28,0.5,0.56,0.25,0.25,0.67,0.56,0.44,0.25,0.44,0.5,0.56,0.5,0.44,0.39,0.25,0.5,0.44,0.44,0.25,0.56,0.44,0.28,0.5,0.44,0.56,0.25,0.56,0.5,0.25,0.56,0.28,0.33,0.33,0.44" style="fill:rgb(0,0,0);font-family:TimesNewRomanPS-BoldMT;font-size:9.96px;stroke:none;">for each fuel/powertrain combination. The ranges are driven by diffe</text>
  </g>
  <g begin="text">
   <text y="695.26" x="367.99,372.412,376.864,382.402,386.824,391.247,395.121,397.611,400.38,405.918,408.408,413.457,417.88,423.417,426.186,430.609,433.487,437.909,440.439,444.861,450.399,455.429,459.851,464.901,469.323,472.69,477.112,481.564,484.333,488.167,491.514,494.283,498.705,502.579,505.069,510.099,515.637,521.135" svgx:width="0.44,0.44,0.56,0.44,0.44,0.39,0.25,0.28,0.56,0.25,0.5,0.44,0.56,0.28,0.44,0.28,0.44,0.25,0.44,0.56,0.5,0.44,0.5,0.44,0.33,0.44,0.44,0.28,0.39,0.33,0.28,0.44,0.39,0.25,0.5,0.56,0.56,0.25" style="fill:rgb(0,0,0);font-family:TimesNewRomanPS-BoldMT;font-size:9.96px;stroke:none;">rences in vehicle characteristics and </text>
  </g>
  <g begin="text">
   <text y="695.26" x="48.0" svgx:width="0.5" style="fill:rgb(0,0,0);font-family:TimesNewRomanPSMT;font-size:12.0px;stroke:none;">9</text>
  </g>
  <g begin="text">
   <text y="695.26" x="54.0" svgx:width="0.25" style="fill:rgb(0,0,0);font-family:TimesNewRomanPSMT;font-size:12.0px;stroke:none;"> </text>
  </g>
  <g begin="text">
   <text y="707.86" x="81.144,86.174,91.712,96.134,100.556,105.606,108.952,111.721,117.259,122.259,124.769,129.191,132.557,135.904,138.673,143.095,145.864,150.286,155.824,160.246,165.296,167.806,170.316,176.312,181.342,185.764,188.294,192.716,198.254,202.676,207.128,212.158,217.188,219.698,223.542,228.572,234.11,238.532,242.954,247.406,251.251,253.761,260.952,263.721,267.067,272.605,275.095,280.633,283.402,288.422,293.959,296.728,301.728,304.238,309.268,314.298,318.72,321.489,326.529,332.066,334.835,339.257,341.747,347.285,352.823,356.648,359.994,364.416,368.869,373.898,382.285,384.795,389.217,397.623,400.392,404.227,408.071,410.84,415.86,421.398,425.222,427.732,430.501,435.521,442.832,445.341,447.851,456.238,460.66,466.198,468.967,474.504,482.871,485.381,490.41,495.948,501.446,504.215,509.235,513.657" svgx:width="0.5,0.56,0.44,0.44,0.5,0.33,0.28,0.56,0.5,0.25,0.44,0.33,0.33,0.28,0.44,0.28,0.44,0.56,0.44,0.5,0.25,0.25,0.61,0.5,0.44,0.25,0.44,0.56,0.44,0.44,0.5,0.5,0.25,0.39,0.5,0.56,0.44,0.44,0.44,0.39,0.25,0.72,0.28,0.33,0.56,0.25,0.56,0.28,0.5,0.56,0.28,0.5,0.25,0.5,0.5,0.44,0.28,0.5,0.56,0.28,0.44,0.25,0.56,0.56,0.39,0.33,0.44,0.44,0.5,0.83,0.25,0.44,0.83,0.28,0.39,0.39,0.28,0.5,0.56,0.39,0.25,0.28,0.5,0.72,0.25,0.25,0.83,0.44,0.56,0.28,0.56,0.83,0.25,0.5,0.56,0.56,0.28,0.5,0.44,0.25" style="fill:rgb(0,0,0);font-family:TimesNewRomanPS-BoldMT;font-size:9.96px;stroke:none;">operating efficiency. For energy sources with highly variable upstream emissions low, medium and/or </text>
  </g>
  <g begin="text">
   <text y="707.86" x="42.0,48.0" svgx:width="0.5,0.5" style="fill:rgb(0,0,0);font-family:TimesNewRomanPSMT;font-size:12.0px;stroke:none;">10</text>
  </g>
  <g begin="text">
   <text y="707.86" x="54.0" svgx:width="0.25" style="fill:rgb(0,0,0);font-family:TimesNewRomanPSMT;font-size:12.0px;stroke:none;"> </text>
  </g>
  <g begin="text">
   <text y="720.58" x="91.944,97.482,100.251,105.251,110.788,113.278,117.72,122.143,127.68,132.103,136.555,140.399,144.822,150.359,153.706,158.736,162.082,164.851,169.871,174.293,176.823,181.853,186.883,189.652,195.189,199.612,203.446,205.956,210.986,215.408,219.86,222.37,226.215,231.753,236.762,243.954,249.491,251.981,257.031,260.876,263.385,267.23,271.652,277.19,282.22,286.642,291.692,295.038,299.461,301.99,306.413,311.462,318.654,322.528,325.018,327.528,334.131,339.669,344.091,346.601,352.139,356.561,359.33,367.707,372.736,377.159,382.208,384.718" svgx:width="0.56,0.28,0.5,0.56,0.25,0.44,0.44,0.56,0.44,0.44,0.39,0.44,0.56,0.33,0.5,0.33,0.28,0.5,0.44,0.25,0.5,0.5,0.28,0.56,0.44,0.39,0.25,0.5,0.44,0.44,0.25,0.39,0.56,0.5,0.72,0.56,0.25,0.5,0.39,0.25,0.39,0.44,0.56,0.5,0.44,0.5,0.33,0.44,0.25,0.44,0.5,0.72,0.39,0.25,0.25,0.67,0.56,0.44,0.25,0.56,0.44,0.28,0.83,0.5,0.44,0.5,0.25,0.5" style="fill:rgb(0,0,0);font-family:TimesNewRomanPS-BoldMT;font-size:9.96px;stroke:none;">high representative values are shown as separate rows. The primary x</text>
  </g>
  <g begin="text">
   <text y="720.58" x="390.07" svgx:width="0.33" style="fill:rgb(0,0,0);font-family:TimesNewRomanPS-BoldMT;font-size:9.96px;stroke:none;">-</text>
  </g>
  <g begin="text">
   <text y="720.58" x="393.43,398.46,403.49,406.259,410.093,412.603,416.448,421.985,426.995,434.186,438.061,440.551,443.32,446.089,449.425,453.847,456.377,460.799,465.849,470.272,473.04,477.463,480.002,487.791,495.58,503.369" svgx:width="0.5,0.5,0.28,0.39,0.25,0.39,0.56,0.5,0.72,0.39,0.25,0.28,0.28,0.33,0.44,0.25,0.44,0.5,0.44,0.28,0.44,0.25,0.78,0.78,0.78,0.25" style="fill:rgb(0,0,0);font-family:TimesNewRomanPS-BoldMT;font-size:9.96px;stroke:none;">axis shows life cycle GHG </text>
  </g>
  <g begin="text">
   <text y="720.58" x="42.0,48.0" svgx:width="0.5,0.5" style="fill:rgb(0,0,0);font-family:TimesNewRomanPSMT;font-size:12.0px;stroke:none;">11</text>
  </g>
  <g begin="text">
   <text y="720.58" x="54.0" svgx:width="0.25" style="fill:rgb(0,0,0);font-family:TimesNewRomanPSMT;font-size:12.0px;stroke:none;"> </text>
  </g>
  <g begin="text">
   <text y="733.18" x="96.624,101.046,109.453,112.221,116.056,119.9,122.669,127.689,133.227,137.052,139.562,142.071,144.84,150.378,152.868,157.898,160.408,167.599" svgx:width="0.44,0.83,0.28,0.39,0.39,0.28,0.5,0.56,0.39,0.25,0.25,0.28,0.56,0.25,0.5,0.25,0.72,0.78" style="fill:rgb(0,0,0);font-family:TimesNewRomanPS-BoldMT;font-size:9.96px;stroke:none;">emissions, in g CO</text>
  </g>
  <g begin="text">
   <text y="733.66" x="175.46" svgx:width="0.5" style="fill:rgb(0,0,0);font-family:TimesNewRomanPS-BoldMT;font-size:6.48px;stroke:none;">2</text>
  </g>
  <g begin="text">
   <text y="733.18" x="178.7" svgx:width="0.33" style="fill:rgb(0,0,0);font-family:TimesNewRomanPS-BoldMT;font-size:9.96px;stroke:none;">-</text>
  </g>
  <g begin="text">
   <text y="733.18" x="182.06,186.482,192.02" svgx:width="0.44,0.56,0.25" style="fill:rgb(0,0,0);font-family:TimesNewRomanPS-BoldMT;font-size:9.96px;stroke:none;">eq </text>
  </g>
  <g begin="text">
   <text y="733.18" x="194.57,200.108,204.53,208.952,211.482,217.11,222.737,231.123,233.524,236.033,241.063,244.908,248.752,254.29,262.667,265.435,270.973,275.973,278.483,283.513,288.543,298.503,301.013,306.042,310.465,314.917,320.454,325.952,330.982,336.52,340.942,345.972,349.319,351.829,355.175,360.713,365.135,367.645,371.49,375.912,380.364,385.394,390.931,396.429,401.459,405.881,410.931,413.441" svgx:width="0.56,0.44,0.44,0.25,0.56,0.56,0.83,0.25,0.25,0.5,0.39,0.39,0.56,0.83,0.28,0.56,0.5,0.25,0.5,0.5,1.0,0.25,0.5,0.44,0.44,0.56,0.56,0.5,0.56,0.44,0.5,0.33,0.25,0.33,0.56,0.44,0.25,0.39,0.44,0.44,0.5,0.56,0.56,0.5,0.44,0.5,0.25,0.5" style="fill:rgb(0,0,0);font-family:TimesNewRomanPS-BoldMT;font-size:9.96px;stroke:none;">per pkm, assuming 80% occupancy; the secondary x</text>
  </g>
  <g begin="text">
   <text y="733.18" x="418.75" svgx:width="0.33" style="fill:rgb(0,0,0);font-family:TimesNewRomanPS-BoldMT;font-size:9.96px;stroke:none;">-</text>
  </g>
  <g begin="text">
   <text y="733.18" x="421.99,427.02,432.05,434.819,438.653,441.163,446.193,450.037,453.882,459.42,467.796,472.218,476.093,478.583,483.623,488.652,498.612" svgx:width="0.5,0.5,0.28,0.39,0.25,0.5,0.39,0.39,0.56,0.83,0.44,0.39,0.25,0.5,0.5,1.0,0.25" style="fill:rgb(0,0,0);font-family:TimesNewRomanPS-BoldMT;font-size:9.96px;stroke:none;">axis assumes 20% </text>
  </g>
  <g begin="text">
   <text y="733.18" x="42.0,48.0" svgx:width="0.5,0.5" style="fill:rgb(0,0,0);font-family:TimesNewRomanPSMT;font-size:12.0px;stroke:none;">12</text>
  </g>
  <g begin="text">
   <text y="733.18" x="54.0" svgx:width="0.25" style="fill:rgb(0,0,0);font-family:TimesNewRomanPSMT;font-size:12.0px;stroke:none;"> </text>
  </g>
  <g begin="text">
   <text y="745.776" x="75.024,80.054,84.476,88.928,94.466,99.964,104.994,110.531,114.954,119.983,122.493" svgx:width="0.5,0.44,0.44,0.56,0.56,0.5,0.56,0.44,0.5,0.25,0.25" style="fill:rgb(0,0,0);font-family:TimesNewRomanPS-BoldMT;font-size:9.96px;stroke:none;">occupancy. </text>
  </g>
  <g begin="text">
   <text y="745.776" x="125.06,131.664,137.201,141.624,144.133,149.163,154.193,156.962,162.5,166.922,170.756,173.266,176.035,181.573,184.063,187.42,192.957,197.489,199.999,203.346,206.115,211.134,216.672,221.094,225.517,228.046,232.469,236.921,239.69,244.71,247.219,252.249,257.787,260.277,263.643,269.181,273.603,276.113,281.034,286.063" svgx:width="0.67,0.56,0.44,0.25,0.5,0.5,0.28,0.56,0.44,0.39,0.25,0.28,0.56,0.25,0.33,0.56,0.44,0.25,0.33,0.28,0.5,0.56,0.44,0.44,0.25,0.44,0.44,0.28,0.5,0.25,0.5,0.56,0.25,0.33,0.56,0.44,0.25,0.5,0.5,0.5" style="fill:rgb(0,0,0);font-family:TimesNewRomanPS-BoldMT;font-size:9.96px;stroke:none;">The values in the figure rely on the 100</text>
  </g>
  <g begin="text">
   <text y="745.776" x="291.29" svgx:width="0.33" style="fill:rgb(0,0,0);font-family:TimesNewRomanPS-BoldMT;font-size:9.96px;stroke:none;">-</text>
  </g>
  <g begin="text">
   <text y="745.776" x="294.53,299.56,303.982,309.032,313.454,315.874,323.663,333.623,339.729,342.238,347.268,352.298,355.067,360.605,365.027,367.517,371.969,380.355,385.893,390.315,395.853,401.351,405.773,411.311,413.821,416.59,422.128,424.618,427.974,433.512,438.044,440.553,444.398,449.428,454.966,459.388,463.81,468.262,470.772,476.31,481.32,484.666,489.696,492.206,494.716,501.907,507.445,510.214,514.636,520.174" svgx:width="0.5,0.44,0.5,0.44,0.25,0.78,1.0,0.61,0.25,0.5,0.5,0.28,0.56,0.44,0.25,0.44,0.83,0.56,0.44,0.56,0.56,0.44,0.56,0.25,0.28,0.56,0.25,0.33,0.56,0.44,0.25,0.39,0.5,0.56,0.44,0.44,0.44,0.25,0.56,0.5,0.33,0.5,0.25,0.25,0.72,0.56,0.28,0.44,0.56,0.25" style="fill:rgb(0,0,0);font-family:TimesNewRomanPS-BoldMT;font-size:9.96px;stroke:none;">year GWP value embedded in the source data, which </text>
  </g>
  <g begin="text">
   <text y="745.776" x="42.0,48.0" svgx:width="0.5,0.5" style="fill:rgb(0,0,0);font-family:TimesNewRomanPSMT;font-size:12.0px;stroke:none;">13</text>
  </g>
  <g begin="text">
   <text y="745.776" x="54.0" svgx:width="0.25" style="fill:rgb(0,0,0);font-family:TimesNewRomanPSMT;font-size:12.0px;stroke:none;"> </text>
  </g>
  <g begin="text">
   <text y="758.496" x="73.944,82.33,87.36,92.39,94.9,100.438,103.207,106.523,109.89,114.312,118.654,121.164,125.009,127.778,130.547,135.557,141.094,144.411,147.18,152.23,154.739,161.931,164.699,168.046,173.584,176.074,179.44,184.978,189.4,191.91,197.448,202.946,208.484,213.494,216.84,221.262,226.8,229.31,234.34,239.37" svgx:width="0.83,0.5,0.5,0.25,0.56,0.28,0.33,0.33,0.44,0.44,0.25,0.39,0.28,0.28,0.5,0.56,0.33,0.28,0.5,0.25,0.72,0.28,0.33,0.56,0.25,0.33,0.56,0.44,0.25,0.56,0.56,0.56,0.5,0.33,0.44,0.56,0.25,0.5,0.5,0.5" style="fill:rgb(0,0,0);font-family:TimesNewRomanPS-BoldMT;font-size:9.96px;stroke:none;">may differ slightly with the updated 100</text>
  </g>
  <g begin="text">
   <text y="758.496" x="244.61" svgx:width="0.33" style="fill:rgb(0,0,0);font-family:TimesNewRomanPS-BoldMT;font-size:9.96px;stroke:none;">-</text>
  </g>
  <g begin="text">
   <text y="758.496" x="247.97,253.0,257.422,262.472,266.894,269.314,277.103,287.063,293.168,295.678,300.708,305.738,308.507,313.895,318.317,322.192,324.682,328.048,332.471,337.52,345.907,348.417,358.377,366.165,370.01,372.52" svgx:width="0.5,0.44,0.5,0.44,0.25,0.78,1.0,0.61,0.25,0.5,0.5,0.28,0.56,0.44,0.39,0.25,0.33,0.44,0.5,0.83,0.25,1.0,0.78,0.39,0.25,0.25" style="fill:rgb(0,0,0);font-family:TimesNewRomanPS-BoldMT;font-size:9.96px;stroke:none;">year GWP values from WGI. </text>
  </g>
  <g begin="text">
   <text y="758.496" x="375.19,381.295,386.325,390.748,393.277,398.815,404.313,408.158,412.58,416.454,418.944,421.464,424.811,430.348,434.771,437.281,445.667,450.697,453.466,459.003,461.493" svgx:width="0.61,0.5,0.44,0.25,0.56,0.56,0.39,0.44,0.39,0.25,0.25,0.33,0.56,0.44,0.25,0.83,0.5,0.28,0.56,0.25,0.56" style="fill:rgb(0,0,0);font-family:TimesNewRomanPS-BoldMT;font-size:9.96px;stroke:none;">For buses, the main b</text>
  </g>
  <g begin="text">
   <text y="758.496" x="467.14,472.17,476.592,480.467,482.957,486.831,492.329,497.359,504.55,507.07,510.416,515.954,518.723,521.452" svgx:width="0.5,0.44,0.39,0.25,0.39,0.56,0.5,0.72,0.25,0.33,0.56,0.28,0.28,0.25" style="fill:rgb(0,0,0);font-family:TimesNewRomanPS-BoldMT;font-size:9.96px;stroke:none;">ars show full </text>
  </g>
  <g begin="text">
   <text y="758.496" x="42.0,48.0" svgx:width="0.5,0.5" style="fill:rgb(0,0,0);font-family:TimesNewRomanPSMT;font-size:12.0px;stroke:none;">14</text>
  </g>
  <g begin="text">
   <text y="758.496" x="54.0" svgx:width="0.25" style="fill:rgb(0,0,0);font-family:TimesNewRomanPSMT;font-size:12.0px;stroke:none;"> </text>
  </g>
  <rect style="fill:pink;opacity:0.2;stroke:blue;stroke-width:0.3;" x="72.0" y="88.56" height="283.25" width="451.3" title="48"/>
  <text y="88.56" class="image" id="image.48.1" width="451" height="283" x="72.0" style="font-size:5.0px;">image.48.1.72_523.89_372</text>
  <rect style="fill:pink;opacity:0.2;stroke:blue;stroke-width:0.3;" x="72.0" y="373.21" height="219.55" width="451.3" title="48"/>
  <text y="373.21" class="image" id="image.48.2" width="451" height="219" x="72.0" style="font-size:5.0px;">image.48.2.72_523.373_593</text>
  <g begin="text">
   <text y="602.109" transform="matrix(0.70711,-0.70711,0.70711,0.70711,-395.12956,250.29085)" rotateDegrees="-45" matrix="[29.803345,29.803345,-29.803345,29.803345,104.563255,239.8115]" x="104.563" svgx:width="0.67" style="fill:rgb(0,0,0);font-family:Arial;font-size:42.15px;stroke:none;">A</text>
   <text y="582.23" transform="matrix(0.70711,-0.70711,0.70711,0.70711,-375.25056,258.525)" rotateDegrees="-45" matrix="[29.803345,29.803345,-29.803345,29.803345,124.442085,259.6903]" x="124.442" svgx:width="0.72" style="fill:rgb(0,0,0);font-family:Arial;font-size:42.15px;stroke:none;">C</text>
   <text y="560.712" transform="matrix(0.70711,-0.70711,0.70711,0.70711,-353.73256,267.43805)" rotateDegrees="-45" matrix="[29.803345,29.803345,-29.803345,29.803345,145.9601,281.20834]" x="145.96" svgx:width="0.72" style="fill:rgb(0,0,0);font-family:Arial;font-size:42.15px;stroke:none;">C</text>
   <text y="539.194" transform="matrix(0.70711,-0.70711,0.70711,0.70711,-332.21456,276.3511)" rotateDegrees="-45" matrix="[29.803345,29.803345,-29.803345,29.803345,167.47812,302.72635]" x="167.478" svgx:width="0.67" style="fill:rgb(0,0,0);font-family:Arial;font-size:42.15px;stroke:none;">E</text>
   <text y="519.315" transform="matrix(0.70711,-0.70711,0.70711,0.70711,-312.33556,284.58525)" rotateDegrees="-45" matrix="[29.803345,29.803345,-29.803345,29.803345,187.35693,322.60516]" x="187.357" svgx:width="0.67" style="fill:rgb(0,0,0);font-family:Arial;font-size:42.15px;stroke:none;">P</text>
   <text y="499.436" transform="matrix(0.70711,-0.70711,0.70711,0.70711,-292.45656,292.8194)" rotateDegrees="-45" matrix="[29.803345,29.803345,-29.803345,29.803345,207.23578,342.484]" x="207.236" svgx:width="0.61" style="fill:rgb(0,0,0);font-family:Arial;font-size:42.15px;stroke:none;">T</text>
   <text y="481.226" transform="matrix(0.70711,-0.70711,0.70711,0.70711,-274.24656,300.36223)" rotateDegrees="-45" matrix="[29.803345,29.803345,-29.803345,29.803345,225.44562,360.69385]" x="225.446" svgx:width="0.67" style="fill:rgb(0,0,0);font-family:Arial;font-size:42.15px;stroke:none;">E</text>
   <text y="461.347" transform="matrix(0.70711,-0.70711,0.70711,0.70711,-254.36786,308.59567)" rotateDegrees="-45" matrix="[29.803345,29.803345,-29.803345,29.803345,245.32443,380.57266]" x="245.324" svgx:width="0.72" style="fill:rgb(0,0,0);font-family:Arial;font-size:42.15px;stroke:none;">D</text>
   <text y="439.829" transform="matrix(0.70711,-0.70711,0.70711,0.70711,-232.84986,317.50872)" rotateDegrees="-45" matrix="[29.803345,29.803345,-29.803345,29.803345,266.84247,402.0907]" x="266.842" svgx:width="0.28" style="fill:rgb(0,0,0);font-family:Arial;font-size:42.15px;stroke:none;"> </text>
   <text y="431.54" transform="matrix(0.70711,-0.70711,0.70711,0.70711,-224.56056,320.94284)" rotateDegrees="-45" matrix="[29.803345,29.803345,-29.803345,29.803345,275.13153,410.37976]" x="275.132" svgx:width="0.67" style="fill:rgb(0,0,0);font-family:Arial;font-size:42.15px;stroke:none;">V</text>
   <text y="411.661" transform="matrix(0.70711,-0.70711,0.70711,0.70711,-204.68186,329.17629)" rotateDegrees="-45" matrix="[29.803345,29.803345,-29.803345,29.803345,295.0103,430.25858]" x="295.01" svgx:width="0.67" style="fill:rgb(0,0,0);font-family:Arial;font-size:42.15px;stroke:none;">E</text>
   <text y="391.783" transform="matrix(0.70711,-0.70711,0.70711,0.70711,-184.80356,337.41073)" rotateDegrees="-45" matrix="[29.803345,29.803345,-29.803345,29.803345,314.88916,450.1374]" x="314.889" svgx:width="0.72" style="fill:rgb(0,0,0);font-family:Arial;font-size:42.15px;stroke:none;">R</text>
   <text y="370.265" transform="matrix(0.70711,-0.70711,0.70711,0.70711,-163.28556,346.32378)" rotateDegrees="-45" matrix="[29.803345,29.803345,-29.803345,29.803345,336.40717,471.65543]" x="336.407" svgx:width="0.67" style="fill:rgb(0,0,0);font-family:Arial;font-size:42.15px;stroke:none;">S</text>
   <text y="350.386" transform="matrix(0.70711,-0.70711,0.70711,0.70711,-143.40656,354.55793)" rotateDegrees="-45" matrix="[29.803345,29.803345,-29.803345,29.803345,356.286,491.53424]" x="356.286" svgx:width="0.28" style="fill:rgb(0,0,0);font-family:Arial;font-size:42.15px;stroke:none;">I</text>
   <text y="342.1" transform="matrix(0.70711,-0.70711,0.70711,0.70711,-135.12086,357.9894)" rotateDegrees="-45" matrix="[29.803345,29.803345,-29.803345,29.803345,364.57135,499.81958]" x="364.571" svgx:width="0.78" style="fill:rgb(0,0,0);font-family:Arial;font-size:42.15px;stroke:none;">O</text>
   <text y="318.913" transform="matrix(0.70711,-0.70711,0.70711,0.70711,-111.93386,367.59377)" rotateDegrees="-45" matrix="[29.803345,29.803345,-29.803345,29.803345,387.7583,523.0066]" x="387.758" svgx:width="0.72" style="fill:rgb(0,0,0);font-family:Arial;font-size:42.15px;stroke:none;">N</text>
   <text y="297.395" transform="matrix(0.70711,-0.70711,0.70711,0.70711,-90.41586,376.50681)" rotateDegrees="-45" matrix="[29.803345,29.803345,-29.803345,29.803345,409.27637,544.5246]" x="409.276" svgx:width="0.28" style="fill:rgb(0,0,0);font-family:Arial;font-size:42.15px;stroke:none;"> </text>
   <text y="637.872" transform="matrix(0.70711,-0.70711,0.70711,0.70711,-409.94279,286.05456)" rotateDegrees="-45" matrix="[29.803345,29.803345,-29.803345,29.803345,140.32727,204.04747]" x="140.327" svgx:width="0.67" style="fill:rgb(0,0,0);font-family:Arial;font-size:42.15px;stroke:none;">S</text>
   <text y="617.994" transform="matrix(0.70711,-0.70711,0.70711,0.70711,-390.0645,294.289)" rotateDegrees="-45" matrix="[29.803345,29.803345,-29.803345,29.803345,160.2061,223.9263]" x="160.206" svgx:width="0.72" style="fill:rgb(0,0,0);font-family:Arial;font-size:42.15px;stroke:none;">U</text>
   <text y="596.476" transform="matrix(0.70711,-0.70711,0.70711,0.70711,-368.5465,303.20205)" rotateDegrees="-45" matrix="[29.803345,29.803345,-29.803345,29.803345,181.72412,245.4443]" x="181.724" svgx:width="0.67" style="fill:rgb(0,0,0);font-family:Arial;font-size:42.15px;stroke:none;">B</text>
   <text y="576.597" transform="matrix(0.70711,-0.70711,0.70711,0.70711,-348.6675,311.4362)" rotateDegrees="-45" matrix="[29.803345,29.803345,-29.803345,29.803345,201.60294,265.32315]" x="201.603" svgx:width="0.5" style="fill:rgb(0,0,0);font-family:Arial;font-size:42.15px;stroke:none;">J</text>
   <text y="561.695" transform="matrix(0.70711,-0.70711,0.70711,0.70711,-333.7655,317.60881)" rotateDegrees="-45" matrix="[29.803345,29.803345,-29.803345,29.803345,216.50462,280.22482]" x="216.505" svgx:width="0.67" style="fill:rgb(0,0,0);font-family:Arial;font-size:42.15px;stroke:none;">E</text>
   <text y="541.816" transform="matrix(0.70711,-0.70711,0.70711,0.70711,-313.88679,325.84225)" rotateDegrees="-45" matrix="[29.803345,29.803345,-29.803345,29.803345,236.38344,300.10364]" x="236.383" svgx:width="0.72" style="fill:rgb(0,0,0);font-family:Arial;font-size:42.15px;stroke:none;">C</text>
   <text y="520.298" transform="matrix(0.70711,-0.70711,0.70711,0.70711,-292.36879,334.7553)" rotateDegrees="-45" matrix="[29.803345,29.803345,-29.803345,29.803345,257.90146,321.62164]" x="257.901" svgx:width="0.61" style="fill:rgb(0,0,0);font-family:Arial;font-size:42.15px;stroke:none;">T</text>
   <text y="502.089" transform="matrix(0.70711,-0.70711,0.70711,0.70711,-274.1595,342.29842)" rotateDegrees="-45" matrix="[29.803345,29.803345,-29.803345,29.803345,276.1113,339.83148]" x="276.111" svgx:width="0.28" style="fill:rgb(0,0,0);font-family:Arial;font-size:42.15px;stroke:none;"> </text>
   <text y="493.803" transform="matrix(0.70711,-0.70711,0.70711,0.70711,-265.8735,345.7306)" rotateDegrees="-45" matrix="[29.803345,29.803345,-29.803345,29.803345,284.39664,348.11682]" x="284.397" svgx:width="0.61" style="fill:rgb(0,0,0);font-family:Arial;font-size:42.15px;stroke:none;">T</text>
   <text y="475.593" transform="matrix(0.70711,-0.70711,0.70711,0.70711,-247.66379,353.27272)" rotateDegrees="-45" matrix="[29.803345,29.803345,-29.803345,29.803345,302.60648,366.32666]" x="302.606" svgx:width="0.78" style="fill:rgb(0,0,0);font-family:Arial;font-size:42.15px;stroke:none;">O</text>
   <text y="452.406" transform="matrix(0.70711,-0.70711,0.70711,0.70711,-224.47679,362.87709)" rotateDegrees="-45" matrix="[29.803345,29.803345,-29.803345,29.803345,325.79346,389.51367]" x="325.793" svgx:width="0.28" style="fill:rgb(0,0,0);font-family:Arial;font-size:42.15px;stroke:none;"> </text>
   <text y="444.136" transform="matrix(0.70711,-0.70711,0.70711,0.70711,-216.2065,366.30334)" rotateDegrees="-45" matrix="[29.803345,29.803345,-29.803345,29.803345,334.0639,397.78412]" x="334.064" svgx:width="0.61" style="fill:rgb(0,0,0);font-family:Arial;font-size:42.15px;stroke:none;">F</text>
   <text y="425.926" transform="matrix(0.70711,-0.70711,0.70711,0.70711,-197.9965,373.84617)" rotateDegrees="-45" matrix="[29.803345,29.803345,-29.803345,29.803345,352.27374,415.99396]" x="352.274" svgx:width="0.28" style="fill:rgb(0,0,0);font-family:Arial;font-size:42.15px;stroke:none;">I</text>
   <text y="417.641" transform="matrix(0.70711,-0.70711,0.70711,0.70711,-189.7115,377.27793)" rotateDegrees="-45" matrix="[29.803345,29.803345,-29.803345,29.803345,360.55908,424.2793]" x="360.559" svgx:width="0.72" style="fill:rgb(0,0,0);font-family:Arial;font-size:42.15px;stroke:none;">N</text>
   <text y="396.123" transform="matrix(0.70711,-0.70711,0.70711,0.70711,-168.1935,386.19098)" rotateDegrees="-45" matrix="[29.803345,29.803345,-29.803345,29.803345,382.0771,445.7973]" x="382.077" svgx:width="0.67" style="fill:rgb(0,0,0);font-family:Arial;font-size:42.15px;stroke:none;">A</text>
   <text y="376.244" transform="matrix(0.70711,-0.70711,0.70711,0.70711,-148.3145,394.42513)" rotateDegrees="-45" matrix="[29.803345,29.803345,-29.803345,29.803345,401.95593,465.67615]" x="401.956" svgx:width="0.56" style="fill:rgb(0,0,0);font-family:Arial;font-size:42.15px;stroke:none;">L</text>
   <text y="359.673" transform="matrix(0.70711,-0.70711,0.70711,0.70711,-131.7435,401.28906)" rotateDegrees="-45" matrix="[29.803345,29.803345,-29.803345,29.803345,418.5266,482.24677]" x="418.527" svgx:width="0.28" style="fill:rgb(0,0,0);font-family:Arial;font-size:42.15px;stroke:none;"> </text>
   <text y="351.394" transform="matrix(0.70711,-0.70711,0.70711,0.70711,-123.4645,404.71834)" rotateDegrees="-45" matrix="[29.803345,29.803345,-29.803345,29.803345,426.80573,490.52588]" x="426.806" svgx:width="0.67" style="fill:rgb(0,0,0);font-family:Arial;font-size:42.15px;stroke:none;">E</text>
   <text y="331.515" transform="matrix(0.70711,-0.70711,0.70711,0.70711,-103.5855,412.95249)" rotateDegrees="-45" matrix="[29.803345,29.803345,-29.803345,29.803345,446.68457,510.40472]" x="446.685" svgx:width="0.72" style="fill:rgb(0,0,0);font-family:Arial;font-size:42.15px;stroke:none;">D</text>
   <text y="309.997" transform="matrix(0.70711,-0.70711,0.70711,0.70711,-82.0675,421.86554)" rotateDegrees="-45" matrix="[29.803345,29.803345,-29.803345,29.803345,468.2025,531.9227]" x="468.203" svgx:width="0.28" style="fill:rgb(0,0,0);font-family:Arial;font-size:42.15px;stroke:none;">I</text>
   <text y="301.712" transform="matrix(0.70711,-0.70711,0.70711,0.70711,-73.7825,425.29729)" rotateDegrees="-45" matrix="[29.803345,29.803345,-29.803345,29.803345,476.48785,540.20807]" x="476.488" svgx:width="0.61" style="fill:rgb(0,0,0);font-family:Arial;font-size:42.15px;stroke:none;">T</text>
   <text y="283.502" transform="matrix(0.70711,-0.70711,0.70711,0.70711,-55.5725,432.84012)" rotateDegrees="-45" matrix="[29.803345,29.803345,-29.803345,29.803345,494.6977,558.4179]" x="494.698" svgx:width="0.67" style="fill:rgb(0,0,0);font-family:Arial;font-size:42.15px;stroke:none;">S</text>
  </g>
 </g>
</svg>
