<?xml version="1.0" encoding="UTF-8"?>
<svg height="813.04" width="536.42" xmlns="http://www.w3.org/2000/svg">
 <g id="page" xmlns:svgx="http://www.xml-cml.org/schema/svgx">
  <g begin="text">
   <text y="46.56" x="72.024,78.624,81.96,87.96,93.288,96.624,99.624,108.288,114.288,120.288,125.652,129.648,135.648,144.984,150.252,156.252,159.588,162.588,171.252,174.588,179.28,182.616,186.612,189.948,195.948,201.948,205.308,208.644,214.644" svgx:width="0.56,0.28,0.5,0.44,0.28,0.25,0.72,0.5,0.5,0.44,0.33,0.5,0.78,0.44,0.5,0.28,0.25,0.72,0.28,0.39,0.28,0.33,0.28,0.5,0.5,0.28,0.28,0.5,0.5" style="fill:rgb(0,0,0);font-family:TimesNewRomanPSMT;font-size:12.0px;stroke:none;">Final Government Distribution</text>
  </g>
  <g begin="text">
   <text y="46.56" x="220.73" svgx:width="0.25" style="fill:rgb(0,0,0);font-family:TimesNewRomanPSMT;font-size:11.04px;stroke:none;"> </text>
  </g>
  <g begin="text">
   <text y="46.56" x="273.41,280.729,286.249,291.151,296.671,299.796,304.598,308.307,311.067,316.587" svgx:width="0.67,0.5,0.44,0.5,0.28,0.44,0.33,0.25,0.5,0.5" style="fill:rgb(0,0,0);font-family:TimesNewRomanPSMT;font-size:11.04px;stroke:none;">Chapter 10</text>
  </g>
  <g begin="text">
   <text y="46.56" x="322.03" svgx:width="0.25" style="fill:rgb(0,0,0);font-family:TimesNewRomanPSMT;font-size:11.04px;stroke:none;"> </text>
  </g>
  <g begin="text">
   <text y="46.56" x="436.03,439.87,446.578,454.606,462.634,465.634,474.298,482.302,488.302,491.302,502.594,511.342,515.338,519.262" svgx:width="0.33,0.56,0.67,0.67,0.25,0.72,0.67,0.5,0.25,0.94,0.72,0.33,0.33,0.33" style="fill:rgb(0,0,0);font-family:TimesNewRomanPSMT;font-size:12.0px;stroke:none;">IPCC AR6 WGIII</text>
  </g>
  <g begin="text">
   <text y="46.56" x="523.42" svgx:width="0.25" style="fill:rgb(0,0,0);font-family:TimesNewRomanPSMT;font-size:12.0px;stroke:none;"> </text>
  </g>
  <g begin="text">
   <text y="803.04" x="72.024,79.94,85.46,88.22,96.135,101.655,105.365,108.125,116.04,119.154,122.753,127.655,130.415,133.075,141.708,147.847,153.367,157.043,161.868,164.628,170.148,175.049,177.809,185.78,188.75,192.945,196.655,201.556,204.681,210.819,216.803,220.512" svgx:width="0.72,0.5,0.25,0.72,0.5,0.33,0.25,0.72,0.28,0.33,0.44,0.25,0.25,0.78,0.56,0.5,0.33,0.44,0.25,0.5,0.44,0.25,0.72,0.28,0.39,0.33,0.44,0.28,0.56,0.56,0.33,0.44" style="fill:rgb(0,0,0);font-family:TimesNewRomanPS-BoldMT;font-size:11.04px;stroke:none;">Do Not Cite, Quote or Distribute</text>
  </g>
  <g begin="text">
   <text y="803.04" x="225.41" svgx:width="0.25" style="fill:rgb(0,0,0);font-family:TimesNewRomanPS-BoldMT;font-size:11.04px;stroke:none;"> </text>
  </g>
  <g begin="text">
   <text y="803.04" x="284.81,290.33" svgx:width="0.5,0.5" style="fill:rgb(0,0,0);font-family:TimesNewRomanPSMT;font-size:11.04px;stroke:none;">10</text>
  </g>
  <g begin="text">
   <text y="803.04" x="295.85" svgx:width="0.33" style="fill:rgb(0,0,0);font-family:TimesNewRomanPS-BoldMT;font-size:11.04px;stroke:none;">-</text>
  </g>
  <g begin="text">
   <text y="803.04" x="299.57,305.09" svgx:width="0.5,0.5" style="fill:rgb(0,0,0);font-family:TimesNewRomanPSMT;font-size:11.04px;stroke:none;">22</text>
  </g>
  <g begin="text">
   <text y="803.04" x="310.61" svgx:width="0.25" style="fill:rgb(0,0,0);font-family:TimesNewRomanPSMT;font-size:11.04px;stroke:none;"> </text>
  </g>
  <g begin="text">
   <text y="803.04" x="313.27" svgx:width="0.25" style="fill:rgb(0,0,0);font-family:TimesNewRomanPSMT;font-size:11.04px;stroke:none;"> </text>
  </g>
  <g begin="text">
   <text y="803.04" x="450.1,456.845,462.365,465.435,470.259,473.372,476.132,481.652,486.554,491.975,496.876,501.204,504.207" svgx:width="0.61,0.5,0.28,0.44,0.28,0.25,0.5,0.44,0.5,0.44,0.39,0.28,0.25" style="fill:rgb(0,0,0);font-family:TimesNewRomanPSMT;font-size:11.04px;stroke:none;">Total pages: </text>
  </g>
  <g begin="text">
   <text y="803.04" x="506.98,512.5,518.02" svgx:width="0.5,0.5,0.5" style="fill:rgb(0,0,0);font-family:TimesNewRomanPSMT;font-size:11.04px;stroke:none;">176</text>
  </g>
  <g begin="text">
   <text y="803.04" x="523.42" svgx:width="0.25" style="fill:rgb(0,0,0);font-family:TimesNewRomanPSMT;font-size:9.96px;stroke:none;"> </text>
  </g>
  <g begin="text">
   <text y="87.86" x="77.664,83.202,88.212,92.056,95.403,99.825,108.231,111.0,115.422,117.942,125.133,130.671,135.691,141.229,146.239" svgx:width="0.56,0.5,0.39,0.33,0.44,0.83,0.28,0.44,0.25,0.72,0.56,0.5,0.56,0.5,0.44" style="fill:rgb(0,0,0);font-family:TimesNewRomanPS-BoldMT;font-size:9.96px;stroke:none;">Systemic Change</text>
  </g>
  <g begin="text">
   <text y="87.86" x="150.74" svgx:width="0.25" style="fill:rgb(0,0,0);font-family:TimesNewRomanPS-BoldMT;font-size:9.96px;stroke:none;"> </text>
  </g>
  <g begin="text">
   <text y="87.86" x="198.77,208.132,212.555,217.007,222.544,227.554,233.092,235.941,239.785,248.172,252.016,254.506,256.448,259.795,265.333,269.755,274.785,280.323,285.332,290.87,293.36,295.282,302.474,308.011,310.78,315.202,320.83,323.32,325.262,328.031,331.367,333.857,335.8,340.829,344.066,347.413,351.835,356.287,359.634,363.479,365.969,367.911,372.333,380.739,383.508,387.343,391.187,393.956,398.976,404.514,408.338,410.82800000000003,412.771,415.54,421.077,423.567,425.48,428.826,433.248,438.189,443.726,447.551,453.089,458.099,462.521,465.887,468.377,470.32,474.164,478.586,483.038,486.385,491.415,495.837,498.327,500.289,505.319,510.857,516.355" svgx:width="0.94,0.44,0.44,0.56,0.5,0.56,0.28,0.39,0.83,0.39,0.25,0.55,0.33,0.56,0.44,0.5,0.56,0.5,0.56,0.25,0.55,0.72,0.56,0.28,0.44,0.56,0.25,0.55,0.28,0.33,0.25,0.55,0.5,0.33,0.33,0.44,0.44,0.33,0.39,0.25,0.55,0.44,0.83,0.28,0.39,0.39,0.28,0.5,0.56,0.39,0.25,0.55,0.28,0.56,0.25,0.55,0.33,0.44,0.5,0.56,0.39,0.56,0.5,0.44,0.33,0.25,0.55,0.39,0.44,0.44,0.33,0.5,0.44,0.25,0.55,0.5,0.56,0.56,0.25" style="fill:rgb(0,0,0);font-family:TimesNewRomanPS-BoldMT;font-size:9.96px;stroke:none;">Mechanisms through which it affects emissions in transport sector and </text>
  </g>
  <g begin="text">
   <text y="100.58" x="198.77,201.539,204.308,209.915,214.337,217.106,222.146,224.656,227.425,235.801,241.339,246.349,250.771,254.028,256.538,261.568,267.106,269.596,274.038,282.424,285.193,289.027,292.872,295.641,300.661,306.199" svgx:width="0.28,0.28,0.56,0.44,0.28,0.5,0.25,0.28,0.83,0.56,0.5,0.44,0.33,0.25,0.5,0.56,0.25,0.44,0.83,0.28,0.39,0.39,0.28,0.5,0.56,0.39" style="fill:rgb(0,0,0);font-family:TimesNewRomanPS-BoldMT;font-size:9.96px;stroke:none;">likely impact on emissions</text>
  </g>
  <g begin="text">
   <text y="100.58" x="310.13" svgx:width="0.25" style="fill:rgb(0,0,0);font-family:TimesNewRomanPS-BoldMT;font-size:9.96px;stroke:none;"> </text>
  </g>
  <path style="fill:rgb(0,0,0);stroke:none;stroke-width:1.0;" d="M72.020 769.440 L72.500 769.440 L72.500 769.920 L72.020 769.920 L72.020 769.440 "/>
  <path style="fill:rgb(0,0,0);stroke:none;stroke-width:1.0;" d="M72.020 769.440 L72.500 769.440 L72.500 769.920 L72.020 769.920 L72.020 769.440 "/>
  <path style="fill:rgb(0,0,0);stroke:none;stroke-width:1.0;" d="M193.130 769.440 L193.610 769.440 L193.610 769.920 L193.130 769.920 L193.130 769.440 "/>
  <path style="fill:rgb(0,0,0);stroke:none;stroke-width:1.0;" d="M521.860 769.440 L522.340 769.440 L522.340 769.920 L521.860 769.920 L521.860 769.440 "/>
  <path style="fill:rgb(0,0,0);stroke:none;stroke-width:1.0;" d="M521.860 769.440 L522.340 769.440 L522.340 769.920 L521.860 769.920 L521.860 769.440 "/>
  <path style="fill:rgb(0,0,0);stroke:none;stroke-width:1.0;" d="M72.020 732.100 L72.500 732.100 L72.500 769.440 L72.020 769.440 L72.020 732.100 "/>
  <path style="fill:rgb(0,0,0);stroke:none;stroke-width:1.0;" d="M193.130 732.100 L193.610 732.100 L193.610 769.440 L193.130 769.440 L193.130 732.100 "/>
  <path style="fill:rgb(0,0,0);stroke:none;stroke-width:1.0;" d="M521.860 732.100 L522.340 732.100 L522.340 769.440 L521.860 769.440 L521.860 732.100 "/>
  <g begin="text">
   <text y="125.66" x="77.664,84.268,89.297,93.72,98.769,103.799,108.221,112.096,114.586,117.355,122.384,124.894,129.924,133.271,138.301,142.623,147.653,150.163,153.509,158.43,161.776" svgx:width="0.67,0.5,0.44,0.5,0.5,0.44,0.39,0.25,0.28,0.5,0.25,0.5,0.33,0.5,0.44,0.5,0.25,0.33,0.5,0.33,0.78" style="fill:rgb(0,0,0);font-family:TimesNewRomanPSMT;font-size:9.96px;stroke:none;">Changes in urban form</text>
  </g>
  <g begin="text">
   <text y="125.66" x="169.58" svgx:width="0.25" style="fill:rgb(0,0,0);font-family:TimesNewRomanPSMT;font-size:9.96px;stroke:none;"> </text>
  </g>
  <g begin="text">
   <text y="125.66" x="198.77,205.961,210.383,215.443,219.288,223.71,227.076,229.586,231.509,239.297,244.327,247.674,252.096,254.038,258.46,263.51,271.189,276.219,280.641,285.093,287.862,289.775,294.804,299.834,302.474,307.503,311.926,316.378,321.298,324.067,327.404,330.172,334.595,336.527,340.949,343.718,346.487,349.256,353.678,357.552,359.445,366.636,369.405,372.174,377.194,379.116,386.905,389.674,394.693,399.116,404.165,406.088,408.856,413.279,418.319,423.348,425.271,430.3,434.145,438.567" svgx:width="0.72,0.44,0.5,0.39,0.44,0.33,0.25,0.25,0.78,0.5,0.33,0.44,0.25,0.44,0.5,0.78,0.5,0.44,0.44,0.28,0.25,0.5,0.5,0.28,0.5,0.44,0.44,0.5,0.28,0.33,0.28,0.44,0.25,0.44,0.28,0.28,0.28,0.44,0.39,0.25,0.72,0.28,0.28,0.5,0.25,0.78,0.28,0.5,0.44,0.5,0.25,0.28,0.44,0.5,0.5,0.25,0.5,0.39,0.44,0.25" style="fill:rgb(0,0,0);font-family:TimesNewRomanPSMT;font-size:9.96px;stroke:none;">Denser, more compact polycentric cities with mixed land use </text>
  </g>
  <g begin="text">
   <text y="125.66" x="440.74,445.77,450.192,452.961,455.73,460.152,463.519,468.548,472.393,474.315,478.737,483.19,488.219,490.142,493.488,497.91,502.851,507.88,512.303,516.645" svgx:width="0.5,0.44,0.28,0.28,0.44,0.33,0.5,0.39,0.25,0.44,0.44,0.5,0.25,0.33,0.44,0.5,0.5,0.44,0.44,0.25" style="fill:rgb(0,0,0);font-family:TimesNewRomanPSMT;font-size:9.96px;stroke:none;">patterns can reduce </text>
  </g>
  <g begin="text">
   <text y="138.38" x="198.77,201.539,206.559,210.981,213.471,215.184,220.214,222.983,226.817,229.586,234.008,239.048,243.47,247.923,250.413,252.116,257.146,261.568,264.337,271.528,275.98,280.402,285.452,287.942,289.645,296.727,301.756,306.179,309.545,313.967,316.457,318.051,323.081,327.503,332.553,337.583,340.351,344.774,347.264,348.977,351.746,354.515,359.525,363.947,366.367,368.857,370.56,377.751,382.791,386.138,391.058,393.568,396.058,397.761,402.183,407.123,412.153,414.64300000000003,416.346,421.267,426.296,429.643,433.488,438.408,442.83,445.32,447.033,449.802,454.224,456.993,460.838,465.868,469.214,473.636,476.12600000000003,477.839,482.262,486.714,489.483,492.252,497.262,500.03,502.799,505.568,509.99,513.825,516.335" svgx:width="0.28,0.5,0.44,0.25,0.55,0.5,0.28,0.39,0.28,0.44,0.5,0.44,0.44,0.25,0.55,0.5,0.44,0.28,0.72,0.44,0.44,0.5,0.25,0.55,0.72,0.5,0.44,0.33,0.44,0.25,0.55,0.5,0.44,0.5,0.5,0.28,0.44,0.25,0.55,0.28,0.28,0.5,0.44,0.25,0.25,0.55,0.72,0.5,0.33,0.5,0.25,0.25,0.55,0.44,0.5,0.5,0.25,0.55,0.5,0.5,0.33,0.39,0.5,0.44,0.25,0.55,0.28,0.44,0.28,0.39,0.5,0.33,0.44,0.25,0.55,0.44,0.44,0.28,0.28,0.5,0.28,0.28,0.28,0.44,0.39,0.25,0.25" style="fill:rgb(0,0,0);font-family:TimesNewRomanPSMT;font-size:9.96px;stroke:none;">the distance between where people live, work, and pursue leisure activities, </text>
  </g>
  <g begin="text">
   <text y="150.98" x="198.77,205.961,211.001,213.77,218.192,223.232,225.722,227.186,231.608,236.06,241.09,243.58,245.044,248.391,252.713,257.743,262.773,267.195,271.647,274.137,275.601,278.37,281.707,286.03,291.059,295.482,298.251,300.741,302.205,307.235,311.657,319.356,323.778,328.828,333.858,336.367,338.857,340.322,346.925,351.347,355.222,359.644,362.134,363.598,367.443,370.212,375.231,380.261,383.03,387.452,391.327,393.817,395.251,399.096,404.125,409.155,414.185,418.607,422.482,425.251,427.741,429.175,431.944,436.964,441.386,444.155,446.645,448.109,450.878,455.898,460.32,464.194,468.617,471.107,472.571,476.993,482.043,486.465,491.515,496.544,500.967,504.841,507.331,508.775,511.415,516.335" svgx:width="0.72,0.5,0.28,0.44,0.5,0.25,0.55,0.44,0.44,0.5,0.25,0.55,0.33,0.44,0.5,0.5,0.44,0.44,0.25,0.55,0.28,0.33,0.44,0.5,0.44,0.28,0.25,0.55,0.5,0.44,0.78,0.44,0.5,0.5,0.25,0.25,0.55,0.67,0.44,0.39,0.44,0.25,0.55,0.39,0.28,0.5,0.5,0.28,0.44,0.39,0.25,0.55,0.39,0.5,0.5,0.5,0.44,0.39,0.28,0.25,0.55,0.28,0.5,0.44,0.28,0.25,0.55,0.28,0.5,0.44,0.39,0.44,0.25,0.55,0.44,0.5,0.44,0.5,0.5,0.44,0.39,0.25,0.55,0.28,0.5,0.25" style="fill:rgb(0,0,0);font-family:TimesNewRomanPSMT;font-size:9.96px;stroke:none;">which can reduce travel demand. Case studies suggest that these changes in </text>
  </g>
  <g begin="text">
   <text y="163.58" x="198.77,203.8,207.146,212.176,216.598,221.539,224.029,226.21,229.556,234.586,237.823,245.612,248.102,250.283,254.705,259.755,264.785,267.424,272.454,274.944,277.125,280.472,284.795,289.824,294.854,299.276,303.729,306.219,308.4,311.169,314.505,318.828,323.858,327.702,332.732,337.762,341.109" svgx:width="0.5,0.33,0.5,0.44,0.5,0.25,0.55,0.33,0.5,0.33,0.78,0.25,0.55,0.44,0.5,0.5,0.28,0.5,0.25,0.55,0.33,0.44,0.5,0.5,0.44,0.44,0.25,0.55,0.28,0.33,0.44,0.5,0.39,0.5,0.5,0.33,0.28" style="fill:rgb(0,0,0);font-family:TimesNewRomanPSMT;font-size:9.96px;stroke:none;">urban form could reduce transport</text>
  </g>
  <g begin="text">
   <text y="163.58" x="344.11" svgx:width="0.33" style="fill:rgb(0,0,0);font-family:TimesNewRomanPSMT;font-size:9.96px;stroke:none;">-</text>
  </g>
  <g begin="text">
   <text y="163.58" x="347.47,350.817,355.239,358.008,362.43,365.199,369.651,374.681,377.171,379.352,386.543,393.734,400.925,403.415,405.626,410.049,417.857,420.626,424.461,428.306,431.074,436.094,441.014,444.859,447.349,449.53,454.56,458.982,461.751,468.942,473.395,477.817,482.866,485.356,487.538" svgx:width="0.33,0.44,0.28,0.44,0.28,0.44,0.5,0.25,0.55,0.72,0.72,0.72,0.25,0.55,0.44,0.78,0.28,0.39,0.39,0.28,0.5,0.5,0.39,0.25,0.55,0.5,0.44,0.28,0.72,0.44,0.44,0.5,0.25,0.55,0.5" style="fill:rgb(0,0,0);font-family:TimesNewRomanPSMT;font-size:9.96px;stroke:none;">related GHG emissions between 4</text>
  </g>
  <g begin="text">
   <text y="163.58" x="492.7" svgx:width="0.33" style="fill:rgb(0,0,0);font-family:TimesNewRomanPSMT;font-size:9.96px;stroke:none;">-</text>
  </g>
  <g begin="text">
   <text y="163.58" x="496.06,500.98,506.01,514.307,516.687" svgx:width="0.5,0.5,0.83,0.25,0.25" style="fill:rgb(0,0,0);font-family:TimesNewRomanPSMT;font-size:9.96px;stroke:none;">25%, </text>
  </g>
  <g begin="text">
   <text y="176.3" x="198.77,203.8,208.222,213.272,217.694,222.744,227.773,230.413,235.443,240.473,242.982,247.903,252.932" svgx:width="0.5,0.44,0.5,0.44,0.5,0.5,0.28,0.5,0.5,0.25,0.5,0.5,0.25" style="fill:rgb(0,0,0);font-family:TimesNewRomanPSMT;font-size:9.96px;stroke:none;">depending on </text>
  </g>
  <g begin="text">
   <text y="176.3" x="255.53,258.299,263.319,267.741,270.271,274.115,278.538,281.306,284.075,286.844,291.864" svgx:width="0.28,0.5,0.44,0.25,0.39,0.44,0.28,0.28,0.28,0.5,0.5" style="fill:rgb(0,0,0);font-family:TimesNewRomanPSMT;font-size:9.96px;stroke:none;">the setting</text>
  </g>
  <g begin="text">
   <text y="176.3" x="296.93" svgx:width="0.25" style="fill:rgb(0,0,0);font-family:TimesNewRomanPSMT;font-size:9.96px;stroke:none;"> </text>
  </g>
  <g begin="text">
   <text y="176.3" x="299.45,302.797,309.4,312.747,317.069,322.099,324.868,329.29,332.059" svgx:width="0.33,0.67,0.33,0.44,0.5,0.28,0.44,0.28,0.5" style="fill:rgb(0,0,0);font-family:TimesNewRomanPSMT;font-size:9.96px;stroke:none;">(Creutzig</text>
  </g>
  <g begin="text">
   <text y="176.3" x="337.15" svgx:width="0.25" style="fill:rgb(0,0,0);font-family:TimesNewRomanPSMT;font-size:9.96px;stroke:none;"> </text>
  </g>
  <g begin="text">
   <text y="176.3" x="339.67,344.092,346.861,349.381,353.803,356.572,359.092,361.602,366.632,371.552,376.582,381.612,386.034,388.454,393.484,396.253,398.743,404.281,408.703,413.753,416.262,420.685,423.454,425.973,430.396,433.165,435.684,438.085,443.115,448.145,453.174,458.095" svgx:width="0.44,0.28,0.25,0.44,0.28,0.25,0.25,0.5,0.5,0.5,0.5,0.44,0.25,0.5,0.28,0.25,0.56,0.44,0.5,0.25,0.44,0.28,0.25,0.44,0.28,0.25,0.25,0.5,0.5,0.5,0.5,0.33" style="fill:rgb(0,0,0);font-family:TimesNewRomanPSMT;font-size:9.96px;stroke:none;">et al. 2015a,b; Pan et al. 2020)</text>
  </g>
  <g begin="text">
   <text y="176.3" x="461.62" svgx:width="0.25" style="fill:rgb(0,0,0);font-family:TimesNewRomanPSMT;font-size:9.96px;stroke:none;">.</text>
  </g>
  <g begin="text">
   <text y="176.3" x="464.02" svgx:width="0.25" style="fill:rgb(0,0,0);font-family:TimesNewRomanPSMT;font-size:9.96px;stroke:none;"> </text>
  </g>
  <path style="fill:rgb(0,0,0);stroke:none;stroke-width:1.0;" d="M72.020 731.620 L72.500 731.620 L72.500 732.100 L72.020 732.100 L72.020 731.620 "/>
  <path style="fill:rgb(0,0,0);stroke:none;stroke-width:1.0;" d="M193.130 731.620 L193.610 731.620 L193.610 732.100 L193.130 732.100 L193.130 731.620 "/>
  <path style="fill:rgb(0,0,0);stroke:none;stroke-width:1.0;" d="M521.860 731.620 L522.340 731.620 L522.340 732.100 L521.860 732.100 L521.860 731.620 "/>
  <path style="fill:rgb(0,0,0);stroke:none;stroke-width:1.0;" d="M72.020 656.380 L72.500 656.380 L72.500 731.620 L72.020 731.620 L72.020 656.380 "/>
  <path style="fill:rgb(0,0,0);stroke:none;stroke-width:1.0;" d="M193.130 656.380 L193.610 656.380 L193.610 731.620 L193.130 731.620 L193.130 656.380 "/>
  <path style="fill:rgb(0,0,0);stroke:none;stroke-width:1.0;" d="M521.860 656.380 L522.340 656.380 L522.340 731.620 L521.860 731.620 L521.860 656.380 "/>
  <g begin="text">
   <text y="201.38" x="77.664,81.011,86.04,91.07,95.492,99.367,102.136,109.885,114.337,119.367,122.135,125.97,128.48,131.249,136.269,138.779,141.547,144.884,149.306,154.356,158.201,160.969,163.738,166.228,170.67,175.7,180.73" svgx:width="0.33,0.5,0.5,0.44,0.39,0.28,0.78,0.44,0.5,0.28,0.39,0.25,0.28,0.5,0.25,0.28,0.33,0.44,0.5,0.39,0.28,0.28,0.25,0.44,0.5,0.5,0.25" style="fill:rgb(0,0,0);font-family:TimesNewRomanPSMT;font-size:9.96px;stroke:none;">Investments in transit and </text>
  </g>
  <g begin="text">
   <text y="214.1" x="77.664,82.086,86.538,89.307,92.076,97.086,101.508,104.038,106.807,110.144,114.566,119.616,123.46,128.49,133.52,136.866,139.635" svgx:width="0.44,0.44,0.28,0.28,0.5,0.44,0.25,0.28,0.33,0.44,0.5,0.39,0.5,0.5,0.33,0.28,0.25" style="fill:rgb(0,0,0);font-family:TimesNewRomanPSMT;font-size:9.96px;stroke:none;">active transport </text>
  </g>
  <g begin="text">
   <text y="226.7" x="77.664,80.433,85.453,88.799,92.146,96.568,100.443,103.211,106.528,111.578,116.0,118.769,123.809,127.155" svgx:width="0.28,0.5,0.33,0.33,0.44,0.39,0.28,0.33,0.5,0.44,0.28,0.5,0.33,0.44" style="fill:rgb(0,0,0);font-family:TimesNewRomanPSMT;font-size:9.96px;stroke:none;">infrastructure</text>
  </g>
  <g begin="text">
   <text y="226.7" x="131.54" svgx:width="0.25" style="fill:rgb(0,0,0);font-family:TimesNewRomanPSMT;font-size:9.96px;stroke:none;"> </text>
  </g>
  <g begin="text">
   <text y="201.38" x="198.77,202.117,209.905,214.935,218.282,223.202,228.232,231.001,236.02,240.941,243.431,244.407,249.437,254.357,259.387,262.155,264.924,269.347,271.837,272.813,275.582,278.918,283.34,288.39,292.235,295.004,297.772,300.262,301.229,305.073,310.103,313.947,316.716,321.139,328.937,332.782,335.272,336.248,340.67,345.72,350.75,353.24,354.096,359.126,364.156,366.925,369.694,374.704,377.473,382.383,387.413,389.903,390.879,393.648,398.558,401.904,405.251,409.673,413.548,416.317,419.633,424.683,429.105,431.874,436.914,440.151,444.573,447.063,448.059,450.828,455.848,458.338,459.314,463.159,468.188,473.109,478.138,483.168,486.515,489.154,491.644,492.62,497.043,501.495,504.264,507.033,511.933,516.255" svgx:width="0.33,0.78,0.5,0.33,0.5,0.5,0.28,0.5,0.5,0.25,0.55,0.5,0.5,0.5,0.28,0.28,0.44,0.25,0.55,0.28,0.33,0.44,0.5,0.39,0.28,0.28,0.25,0.55,0.39,0.5,0.39,0.28,0.44,0.78,0.39,0.25,0.55,0.44,0.5,0.5,0.25,0.55,0.5,0.5,0.28,0.28,0.5,0.28,0.5,0.5,0.25,0.55,0.28,0.5,0.33,0.33,0.44,0.39,0.28,0.33,0.5,0.44,0.28,0.5,0.33,0.44,0.25,0.55,0.28,0.5,0.25,0.55,0.39,0.5,0.5,0.5,0.5,0.33,0.28,0.25,0.55,0.44,0.44,0.28,0.28,0.5,0.44,0.25" style="fill:rgb(0,0,0);font-family:TimesNewRomanPSMT;font-size:9.96px;stroke:none;">Improving public transit systems and building infrastructure to support active </text>
  </g>
  <g begin="text">
   <text y="214.1" x="198.77,201.539,204.875,209.298,214.347,218.192,223.222,228.252,231.598,234.367,236.857,238.789,246.468,251.498,256.528,260.95,264.825,267.315,269.237,272.584,279.775,284.197,286.966,292.016,294.655,299.685,304.715,307.205,309.147,313.469,318.39,323.419,325.909,327.852,332.882,335.65,340.67,343.439,348.349,353.379,356.616,359.106,361.048,365.471,370.52,375.55,378.319,383.229,385.719,387.662,391.008,395.43,400.371,405.4,409.823,414.275,416.765,418.707,423.129,427.472,430.818,433.308,435.251,437.89,441.237,445.659,450.708,455.131,457.9,460.419,462.909,464.852,471.455,475.877,479.752,484.174,486.664,488.606,492.451,495.22,500.24,505.269,508.038,512.461,516.335" svgx:width="0.28,0.33,0.44,0.5,0.39,0.5,0.5,0.33,0.28,0.25,0.55,0.78,0.5,0.5,0.44,0.39,0.25,0.55,0.33,0.72,0.44,0.28,0.5,0.28,0.5,0.5,0.25,0.55,0.44,0.5,0.5,0.25,0.55,0.5,0.28,0.5,0.28,0.5,0.5,0.33,0.25,0.55,0.44,0.5,0.5,0.28,0.5,0.25,0.55,0.33,0.44,0.5,0.5,0.44,0.44,0.25,0.55,0.44,0.44,0.33,0.25,0.55,0.28,0.33,0.44,0.5,0.44,0.28,0.25,0.25,0.55,0.67,0.44,0.39,0.44,0.25,0.55,0.39,0.28,0.5,0.5,0.28,0.44,0.39,0.25" style="fill:rgb(0,0,0);font-family:TimesNewRomanPSMT;font-size:9.96px;stroke:none;">transport modes (walking and biking) could reduce car travel. Case studies </text>
  </g>
  <g begin="text">
   <text y="226.7" x="198.77,202.615,207.644,212.674" svgx:width="0.39,0.5,0.5,0.5" style="fill:rgb(0,0,0);font-family:TimesNewRomanPSMT;font-size:9.96px;stroke:none;">sugg</text>
  </g>
  <g begin="text">
   <text y="226.7" x="217.73,222.152,226.027,228.796,230.807,233.576,238.596,243.018,245.787,247.839,252.261,256.713,259.482,262.251,267.261,271.683,273.745,281.534,286.564,291.593,294.362,297.131,299.9,302.629,307.659,309.701,314.123,319.063,324.093,326.862,331.882,333.923,337.27,341.692,346.742,351.772,356.194,360.646,362.688,367.011,374.799,377.568,381.403,385.247,388.016,393.036,398.066,401.911,403.952,407.299,410.645,415.675,423.464,425.506,430.536,433.773,438.693,443.115,448.165,450.206,452.975,456.312,460.734,465.784,469.629,474.658,479.688,483.035,485.804,487.835,492.756,497.786,499.827,504.857" svgx:width="0.44,0.39,0.28,0.25,0.28,0.5,0.44,0.28,0.25,0.44,0.44,0.28,0.28,0.5,0.44,0.25,0.78,0.5,0.5,0.28,0.28,0.28,0.28,0.5,0.25,0.44,0.5,0.5,0.28,0.5,0.25,0.33,0.44,0.5,0.5,0.44,0.44,0.25,0.44,0.78,0.28,0.39,0.39,0.28,0.5,0.5,0.39,0.25,0.33,0.33,0.5,0.78,0.25,0.5,0.33,0.5,0.44,0.5,0.25,0.28,0.33,0.44,0.5,0.39,0.5,0.5,0.33,0.28,0.25,0.5,0.5,0.25,0.5,0.83" style="fill:rgb(0,0,0);font-family:TimesNewRomanPSMT;font-size:9.96px;stroke:none;">est that active mobility could reduce emissions from urban transport by 2%</text>
  </g>
  <g begin="text">
   <text y="226.7" x="513.46" svgx:width="0.33" style="fill:rgb(0,0,0);font-family:TimesNewRomanPSMT;font-size:9.96px;stroke:none;">-</text>
  </g>
  <g begin="text">
   <text y="239.42" x="198.77,203.8,208.83,217.126,219.616,224.656,229.078,234.128,238.55,243.49,248.52,251.289,256.309,261.339,263.849,268.769,273.799,276.309,279.078,284.097,288.52,291.049,294.894,299.316,302.085,304.854,307.623,312.643" svgx:width="0.5,0.5,0.83,0.25,0.5,0.44,0.5,0.44,0.5,0.5,0.28,0.5,0.5,0.25,0.5,0.5,0.25,0.28,0.5,0.44,0.25,0.39,0.44,0.28,0.28,0.28,0.5,0.5" style="fill:rgb(0,0,0);font-family:TimesNewRomanPSMT;font-size:9.96px;stroke:none;">10% depending on the setting</text>
  </g>
  <g begin="text">
   <text y="239.42" x="317.83" svgx:width="0.25" style="fill:rgb(0,0,0);font-family:TimesNewRomanPSMT;font-size:9.96px;stroke:none;"> </text>
  </g>
  <g begin="text">
   <text y="239.42" x="320.23,323.577,330.18,333.527,337.949,342.999,345.767,350.19,352.959,357.988,360.498,364.921,367.69,370.209,374.632,377.4,379.92,382.43,387.46,392.49,397.41,402.44,405.209,407.699,413.834,418.256,423.306,427.728,432.778,435.547,438.037,442.38,445.148,447.638,452.091,454.859,457.349,459.879,464.909,469.939,474.969,479.999,482.767,485.257,492.469,496.891,501.343,504.112,506.881,509.371,513.813,516.452" svgx:width="0.33,0.67,0.33,0.44,0.5,0.28,0.44,0.28,0.5,0.25,0.44,0.28,0.25,0.44,0.28,0.25,0.25,0.5,0.5,0.5,0.5,0.28,0.25,0.61,0.44,0.5,0.44,0.5,0.28,0.25,0.44,0.28,0.25,0.44,0.28,0.25,0.25,0.5,0.5,0.5,0.5,0.28,0.25,0.72,0.44,0.44,0.28,0.28,0.25,0.44,0.28,0.25" style="fill:rgb(0,0,0);font-family:TimesNewRomanPSMT;font-size:9.96px;stroke:none;">(Creutzig et al. 2016; Zahabi et al. 2016; Keall et </text>
  </g>
  <g begin="text">
   <text y="252.02" x="198.77,203.192,205.961,208.481" svgx:width="0.44,0.28,0.25,0.25" style="fill:rgb(0,0,0);font-family:TimesNewRomanPSMT;font-size:9.96px;stroke:none;">al. </text>
  </g>
  <g begin="text">
   <text y="252.02" x="210.89,215.92,220.84,225.87,230.9,233.668,236.059,243.25,246.019,248.788,253.808,258.728,261.128,265.55,268.319,270.73,275.152,277.921,280.331,282.731,287.652,292.681,297.711,302.741,305.38,307.781,314.972,319.394,324.454,328.876,332.751,335.131,339.553,344.603,349.523,351.924,358.527,361.874,366.296,371.346,376.266,378.666,383.696,388.616,393.646,398.676,401.445,403.835,410.439,414.861,419.911,424.94,429.263,432.61,435.379,437.769,442.092,444.861,447.251,451.673,454.442,456.962,459.362,464.283,469.312,474.342,479.372,482.011,484.412,487.758,492.788,497.111,502.141,507.17,512.091,516.413" svgx:width="0.5,0.5,0.5,0.5,0.28,0.25,0.72,0.28,0.28,0.5,0.5,0.25,0.44,0.28,0.25,0.44,0.28,0.25,0.25,0.5,0.5,0.5,0.5,0.28,0.25,0.72,0.44,0.5,0.44,0.39,0.25,0.44,0.5,0.5,0.25,0.67,0.33,0.44,0.5,0.5,0.25,0.5,0.5,0.5,0.5,0.28,0.25,0.67,0.44,0.5,0.5,0.44,0.33,0.28,0.25,0.44,0.28,0.25,0.44,0.28,0.25,0.25,0.5,0.5,0.5,0.5,0.28,0.25,0.33,0.5,0.44,0.5,0.5,0.5,0.44,0.25" style="fill:rgb(0,0,0);font-family:TimesNewRomanPSMT;font-size:9.96px;stroke:none;">2018; Gilby et al. 2019; Neves and Brand 2019; Bagheri et al. 2020; Ivanova </text>
  </g>
  <g begin="text">
   <text y="264.65" x="198.77,203.192,205.961,209.079,213.501,216.27,218.79,221.897,226.927,231.847,236.877,241.907,244.676,247.773,254.377,257.723,262.145,267.086,272.116,275.223,279.645,282.414,285.532,289.954,292.723,295.133,298.241,303.27,308.191,313.22,318.141" svgx:width="0.44,0.28,0.25,0.44,0.28,0.25,0.25,0.5,0.5,0.5,0.5,0.28,0.25,0.67,0.33,0.44,0.5,0.5,0.25,0.44,0.28,0.25,0.44,0.28,0.25,0.25,0.5,0.5,0.5,0.5,0.33" style="fill:rgb(0,0,0);font-family:TimesNewRomanPSMT;font-size:9.96px;stroke:none;">et al. 2020; Brand et al. 2021)</text>
  </g>
  <g begin="text">
   <text y="264.65" x="321.67,324.19" svgx:width="0.25,0.25" style="fill:rgb(0,0,0);font-family:TimesNewRomanPSMT;font-size:9.96px;stroke:none;">. </text>
  </g>
  <g begin="text">
   <text y="264.65" x="327.31,334.501,337.619,341.463,346.493,349.262,352.598,355.367,358.465,361.104,366.134,369.242,374.162,379.192,384.222,386.99,389.759,394.182,397.289,400.058,403.395,407.817,412.867,416.711,419.48,422.249,425.336,433.016,437.936,442.966,447.388,451.262,454.36,458.782,463.234,468.264,471.372,474.141,476.909,481.919,486.342,489.11,494.041,497.148,502.178,505.415,508.762,513.184,516.441" svgx:width="0.72,0.25,0.39,0.5,0.28,0.33,0.28,0.25,0.28,0.5,0.25,0.5,0.5,0.5,0.28,0.28,0.44,0.25,0.28,0.33,0.44,0.5,0.39,0.28,0.28,0.25,0.78,0.5,0.5,0.44,0.39,0.25,0.44,0.44,0.5,0.25,0.28,0.28,0.5,0.44,0.28,0.5,0.25,0.5,0.33,0.33,0.44,0.33,0.25" style="fill:rgb(0,0,0);font-family:TimesNewRomanPSMT;font-size:9.96px;stroke:none;">A shift to public transit modes can likely offer </text>
  </g>
  <g begin="text">
   <text y="277.37" x="198.77,202.615,205.383,210.403,215.433,218.202,221.539,224.307,228.73,233.152,238.212,240.98,243.47,247.923,255.711,258.48,262.315,266.159,268.928,273.948,278.978,282.822,285.332,288.679,293.101,298.151,303.181,307.603,310.372,313.141,318.061,323.091,326.935,329.445,331.955,336.985,342.015,344.784,347.274,351.726,355.57,358.339,361.108,368.877,373.299,376.068,380.49,384.365,386.855,391.307,394.653,399.076,401.606,406.635,411.665,416.087,420.539,423.886,426.655,431.077,433.846,438.766,441.276" svgx:width="0.39,0.28,0.5,0.5,0.28,0.33,0.28,0.44,0.44,0.5,0.28,0.25,0.44,0.78,0.28,0.39,0.39,0.28,0.5,0.5,0.39,0.25,0.33,0.44,0.5,0.5,0.44,0.28,0.28,0.5,0.5,0.39,0.25,0.25,0.5,0.5,0.28,0.25,0.44,0.39,0.28,0.28,0.78,0.44,0.28,0.44,0.39,0.25,0.44,0.33,0.44,0.25,0.5,0.5,0.44,0.44,0.33,0.28,0.44,0.28,0.5,0.25,0.25" style="fill:rgb(0,0,0);font-family:TimesNewRomanPSMT;font-size:9.96px;stroke:none;">significant emissions reductions, but estimates are uncertain. </text>
  </g>
  <g begin="text">
   <text y="277.37" x="444.1" svgx:width="0.25" style="fill:rgb(0,0,0);font-family:TimesNewRomanPSMT;font-size:9.96px;stroke:none;"> </text>
  </g>
  <path style="fill:rgb(0,0,0);stroke:none;stroke-width:1.0;" d="M72.020 655.900 L72.500 655.900 L72.500 656.380 L72.020 656.380 L72.020 655.900 "/>
  <path style="fill:rgb(0,0,0);stroke:none;stroke-width:1.0;" d="M193.130 655.900 L193.610 655.900 L193.610 656.380 L193.130 656.380 L193.130 655.900 "/>
  <path style="fill:rgb(0,0,0);stroke:none;stroke-width:1.0;" d="M521.860 655.900 L522.340 655.900 L522.340 656.380 L521.860 656.380 L521.860 655.900 "/>
  <g begin="text">
   <text y="302.45" x="77.664,84.268,89.297,93.72,98.769,103.799,108.221,112.096,114.586,117.355,122.384,124.894,129.317,133.769,138.799,143.719,148.749,156.537,159.306,163.728" svgx:width="0.67,0.5,0.44,0.5,0.5,0.44,0.39,0.25,0.28,0.5,0.25,0.44,0.44,0.5,0.5,0.5,0.78,0.28,0.44,0.25" style="fill:rgb(0,0,0);font-family:TimesNewRomanPSMT;font-size:9.96px;stroke:none;">Changes in economic </text>
  </g>
  <g begin="text">
   <text y="315.17" x="77.664,81.509,84.277,87.614,92.644,97.066,99.835,104.875,108.221,112.644" svgx:width="0.39,0.28,0.33,0.5,0.44,0.28,0.5,0.33,0.44,0.39" style="fill:rgb(0,0,0);font-family:TimesNewRomanPSMT;font-size:9.96px;stroke:none;">structures</text>
  </g>
  <g begin="text">
   <text y="315.17" x="116.54" svgx:width="0.25" style="fill:rgb(0,0,0);font-family:TimesNewRomanPSMT;font-size:9.96px;stroke:none;"> </text>
  </g>
  <g begin="text">
   <text y="302.45" x="198.77,205.961,208.73,213.76,218.79,223.212,226.578,229.068,232.564,237.594,241.917,249.705,254.128,259.177,264.098,266.588,270.084,274.506,278.38,280.87,284.356,288.779,291.269,294.665,298.012,302.434,306.308,311.318,314.087,316.856,319.346,322.832,327.862,331.099,333.589,337.085,342.114,344.883,349.903,354.933,359.256,362.602,365.092,368.588,371.357,376.377,380.7,385.729,393.518,397.94,401.815,404.305,407.791,412.213,417.153,422.183,424.952,429.972,432.462,435.958,438.597,443.627,448.049,451.416,455.838,460.29,464.135,468.557,471.047,474.563,478.985,486.793,489.562,493.397,497.242,500.01,505.03,510.06,513.905,516.305" svgx:width="0.72,0.28,0.5,0.5,0.44,0.33,0.25,0.55,0.5,0.44,0.78,0.44,0.5,0.5,0.25,0.55,0.44,0.39,0.25,0.55,0.44,0.25,0.55,0.33,0.44,0.39,0.5,0.28,0.28,0.25,0.55,0.5,0.33,0.25,0.55,0.5,0.28,0.5,0.5,0.44,0.33,0.25,0.55,0.28,0.5,0.44,0.5,0.78,0.44,0.39,0.25,0.55,0.44,0.5,0.5,0.28,0.5,0.25,0.55,0.28,0.5,0.44,0.33,0.44,0.44,0.39,0.44,0.25,0.55,0.44,0.78,0.28,0.39,0.39,0.28,0.5,0.5,0.39,0.25,0.25" style="fill:rgb(0,0,0);font-family:TimesNewRomanPSMT;font-size:9.96px;stroke:none;">Higher demand as a result of higher incomes could increase emissions, </text>
  </g>
  <g begin="text">
   <text y="315.17" x="198.77,203.8,208.222,211.589,214.357,217.126,221.549,226.578,229.347,233.769,237.126,239.895,244.915,247.405,249.108,251.877,256.787,259.277,260.98,265.402,270.452,273.221,277.643,280.412,283.181,288.201,293.121,295.611,297.314,301.736,306.786,311.706,314.196,315.9,319.744,324.774,327.543,332.563,337.592,340.361,345.381,350.301,352.811,355.301,357.005,364.196,366.965,371.994,377.024,381.446,384.703,387.193,388.896,393.926,397.273,400.042,404.464,408.886,412.761,415.25100000000003,416.944,421.366,426.306,431.336,434.105,439.015,441.505,443.208,448.238,452.661,457.71,462.132,464.622,466.336,468.975,474.005,478.427,480.91700000000003,482.63,487.55,492.58,497.61,502.64,506.484,509.253,512.022,516.325" svgx:width="0.5,0.44,0.33,0.28,0.28,0.44,0.5,0.28,0.44,0.33,0.28,0.5,0.25,0.55,0.28,0.5,0.25,0.55,0.44,0.5,0.28,0.44,0.28,0.28,0.5,0.5,0.25,0.55,0.44,0.5,0.5,0.25,0.55,0.39,0.5,0.28,0.5,0.5,0.28,0.5,0.5,0.25,0.25,0.55,0.72,0.28,0.5,0.5,0.44,0.33,0.25,0.55,0.5,0.33,0.28,0.44,0.44,0.39,0.25,0.55,0.44,0.5,0.5,0.28,0.5,0.25,0.55,0.5,0.44,0.5,0.44,0.25,0.55,0.28,0.5,0.44,0.25,0.55,0.5,0.5,0.5,0.5,0.39,0.28,0.28,0.44,0.25" style="fill:rgb(0,0,0);font-family:TimesNewRomanPSMT;font-size:9.96px;stroke:none;">particularly in aviation and shipping. Higher prices could have the opposite </text>
  </g>
  <g begin="text">
   <text y="327.77" x="198.77,203.192,206.559,209.905,214.328,218.78,221.549,224.407,228.829,233.769,238.799,241.548,244.895,249.317,254.367,259.397,263.819,268.161,271.03,275.452,283.261,286.03,289.864,293.709,296.478,301.498,306.527,309.037,311.906,317.444,320.063,323.41,328.439,332.862,335.631,340.67,344.017,348.439,351.208,354.086,358.409,363.439,367.861,372.911,377.831,382.253,386.128,388.976,393.399,397.273,401.098,406.127,410.55,413.319,417.741,420.51,424.962,429.992,432.86,440.051,442.701,445.469,450.489,453.358,456.704,459.473,464.493,468.816,473.846,478.268,481.037,485.459,488.228,491.116,495.538,498.905,501.674,505.508,509.931,513.805,516.295" svgx:width="0.44,0.33,0.33,0.44,0.44,0.28,0.25,0.44,0.5,0.5,0.25,0.33,0.44,0.5,0.5,0.44,0.44,0.25,0.44,0.78,0.28,0.39,0.39,0.28,0.5,0.5,0.25,0.25,0.56,0.28,0.33,0.5,0.44,0.28,0.5,0.33,0.44,0.28,0.25,0.44,0.5,0.44,0.5,0.5,0.44,0.39,0.25,0.44,0.39,0.39,0.5,0.44,0.28,0.44,0.28,0.44,0.5,0.25,0.72,0.28,0.28,0.5,0.25,0.33,0.28,0.5,0.44,0.5,0.44,0.28,0.44,0.28,0.25,0.44,0.33,0.28,0.39,0.44,0.39,0.25,0.25" style="fill:rgb(0,0,0);font-family:TimesNewRomanPSMT;font-size:9.96px;stroke:none;">effect and reduce emission. Structural changes associated with financial crises, </text>
  </g>
  <g begin="text">
   <text y="340.49" x="198.77,203.8,208.222,213.272,218.302,222.724,230.532,233.301,237.724,241.598,244.088,246.578,248.879,253.909,257.146,259.636,262.056,264.825,269.845" svgx:width="0.5,0.44,0.5,0.5,0.44,0.78,0.28,0.44,0.39,0.25,0.25,0.55,0.5,0.33,0.25,0.55,0.28,0.5,0.44" style="fill:rgb(0,0,0);font-family:TimesNewRomanPSMT;font-size:9.96px;stroke:none;">pandemics, or the</text>
  </g>
  <g begin="text">
   <text y="340.49" x="274.37" svgx:width="0.25" style="fill:rgb(0,0,0);font-family:TimesNewRomanPSMT;font-size:9.96px;stroke:none;"> </text>
  </g>
  <g begin="text">
   <text y="340.49" x="279.29,282.059,289.728,294.758,299.18,303.632,306.401,310.236,312.726,315.146,320.066,323.413,325.903,328.323,332.745,335.514,338.283,346.072,350.494,353.263,357.685,360.175,362.625,366.948,371.978,376.4,381.45,386.48,390.802,393.29200000000003,395.712,400.135,405.075,410.105,412.874,417.893,420.383,422.804,427.126,430.473,433.82,438.242,442.584,445.353,447.843,450.253,453.022,458.042,462.465,464.955,467.395,471.817,474.586,479.008,482.883,485.651,488.42,492.843,495.611,498.38,503.38,505.87,508.29,513.211,516.448" svgx:width="0.28,0.78,0.5,0.44,0.44,0.28,0.39,0.25,0.55,0.5,0.33,0.25,0.55,0.44,0.28,0.28,0.78,0.44,0.28,0.44,0.25,0.55,0.44,0.5,0.44,0.5,0.5,0.44,0.25,0.55,0.44,0.5,0.5,0.28,0.5,0.25,0.55,0.44,0.33,0.33,0.44,0.44,0.28,0.25,0.55,0.28,0.5,0.44,0.25,0.55,0.44,0.28,0.44,0.39,0.28,0.28,0.44,0.28,0.28,0.5,0.25,0.55,0.5,0.33,0.25" style="fill:rgb(0,0,0);font-family:TimesNewRomanPSMT;font-size:9.96px;stroke:none;">impacts of climate change could affect the elasticity of </text>
  </g>
  <g begin="text">
   <text y="353.09" x="198.77,203.8,208.222,216.031,220.453,225.503,230.532,233.64,236.409,241.429,244.536,249.566,254.596,259.018,263.361,266.707,269.476,273.898,276.667,281.697,284.805,291.996,296.418,301.478,305.322,307.832,310.94,317.045,322.075,327.105,330.949,333.459,336.567,339.336,344.355,348.778,351.905,356.327,359.694,363.04,367.463,371.915,374.684,377.781,382.811,386.158,389.265,393.687,398.737,403.159,408.209,413.239,417.661,421.535,424.633,427.402,432.422,435.41,439.832,444.284,449.314,454.344,459.374,467.162,469.931,474.353,477.471,481.316,484.084,487.421,492.451,496.873,499.642,504.682,508.028,512.45,516.185" svgx:width="0.5,0.44,0.78,0.44,0.5,0.5,0.25,0.28,0.5,0.25,0.5,0.5,0.44,0.44,0.33,0.28,0.44,0.28,0.5,0.25,0.72,0.44,0.5,0.39,0.25,0.25,0.61,0.5,0.5,0.39,0.25,0.25,0.28,0.5,0.44,0.25,0.44,0.33,0.33,0.44,0.44,0.28,0.25,0.5,0.33,0.25,0.44,0.5,0.44,0.5,0.5,0.44,0.39,0.25,0.28,0.5,0.25,0.44,0.44,0.5,0.5,0.5,0.78,0.28,0.44,0.25,0.39,0.28,0.33,0.5,0.44,0.28,0.5,0.33,0.44,0.39,0.25" style="fill:rgb(0,0,0);font-family:TimesNewRomanPSMT;font-size:9.96px;stroke:none;">demand in uncertain ways. Thus, the effect of changes in economic structures </text>
  </g>
  <g begin="text">
   <text y="365.69" x="198.77,203.8,208.83,211.34,214.108,219.128,223.551,226.08,233.271,240.463,247.654,250.193,254.616,262.424,265.193,269.028,272.872,275.641,280.661,285.691,289.536,292.045,295.392,298.739,303.768,311.557,314.067,316.706,321.736,326.159,328.688,331.457,334.794,339.216,344.266,348.11,353.14,358.17,361.517,364.285,366.775,370.65,375.072,379.494,382.263,387.303,390.65,394.494,397.004,399.773,403.608,406.117,411.147,416.177,420.599,424.942,428.288,431.057,435.48,438.249,443.278" svgx:width="0.5,0.5,0.25,0.28,0.5,0.44,0.25,0.72,0.72,0.72,0.25,0.44,0.78,0.28,0.39,0.39,0.28,0.5,0.5,0.39,0.25,0.33,0.33,0.5,0.78,0.25,0.28,0.5,0.44,0.25,0.28,0.33,0.44,0.5,0.39,0.5,0.5,0.33,0.28,0.25,0.39,0.44,0.44,0.28,0.5,0.33,0.39,0.25,0.28,0.39,0.25,0.5,0.5,0.44,0.44,0.33,0.28,0.44,0.28,0.5,0.25" style="fill:rgb(0,0,0);font-family:TimesNewRomanPSMT;font-size:9.96px;stroke:none;">on the GHG emissions from the transport sectors is uncertain.</text>
  </g>
  <g begin="text">
   <text y="365.69" x="446.14" svgx:width="0.25" style="fill:rgb(0,0,0);font-family:TimesNewRomanPSMT;font-size:9.96px;stroke:none;"> </text>
  </g>
  <path style="fill:rgb(0,0,0);stroke:none;stroke-width:1.0;" d="M72.020 554.830 L72.500 554.830 L72.500 555.310 L72.020 555.310 L72.020 554.830 "/>
  <path style="fill:rgb(0,0,0);stroke:none;stroke-width:1.0;" d="M193.130 554.830 L193.610 554.830 L193.610 555.310 L193.130 555.310 L193.130 554.830 "/>
  <path style="fill:rgb(0,0,0);stroke:none;stroke-width:1.0;" d="M521.860 554.830 L522.340 554.830 L522.340 555.310 L521.860 555.310 L521.860 554.830 "/>
  <path style="fill:rgb(0,0,0);stroke:none;stroke-width:1.0;" d="M72.020 466.870 L72.500 466.870 L72.500 554.830 L72.020 554.830 L72.020 466.870 "/>
  <path style="fill:rgb(0,0,0);stroke:none;stroke-width:1.0;" d="M193.130 466.870 L193.610 466.870 L193.610 554.830 L193.130 554.830 L193.130 466.870 "/>
  <path style="fill:rgb(0,0,0);stroke:none;stroke-width:1.0;" d="M521.860 466.870 L522.340 466.870 L522.340 554.830 L521.860 554.830 L521.860 466.870 "/>
  <g begin="text">
   <text y="390.89" x="77.664,83.769,88.192,90.961,95.383,102.604,107.634,110.98,116.01,118.779,123.799" svgx:width="0.61,0.44,0.28,0.44,0.72,0.5,0.33,0.5,0.28,0.5,0.5" style="fill:rgb(0,0,0);font-family:TimesNewRomanPSMT;font-size:9.96px;stroke:none;">Teleworking</text>
  </g>
  <g begin="text">
   <text y="390.89" x="128.78" svgx:width="0.25" style="fill:rgb(0,0,0);font-family:TimesNewRomanPSMT;font-size:9.96px;stroke:none;"> </text>
  </g>
  <g begin="text">
   <text y="390.89" x="198.77,205.961,209.198,216.987,222.017,227.046,231.469,233.959,234.716,237.485,242.504,249.695,254.118,257.385,262.414,266.259,269.486,273.908,276.398,277.155,282.185,284.954,289.974,292.743,295.512,299.934,302.703,305.92,310.342,314.794,319.714,324.744,329.774,337.563,342.592,345.82,348.459,353.489,357.911,360.68,363.917,368.339,371.108,373.877,378.907,386.098,389.972,393.179" svgx:width="0.72,0.25,0.78,0.5,0.5,0.44,0.25,0.55,0.28,0.5,0.72,0.44,0.33,0.5,0.39,0.25,0.44,0.25,0.55,0.5,0.28,0.5,0.28,0.28,0.44,0.28,0.25,0.44,0.44,0.5,0.5,0.5,0.78,0.5,0.25,0.28,0.5,0.44,0.28,0.25,0.44,0.28,0.28,0.5,0.72,0.39,0.25,0.72" style="fill:rgb(0,0,0);font-family:TimesNewRomanPSMT;font-size:9.96px;stroke:none;">A move towards a digital economy that allows w</text>
  </g>
  <g begin="text">
   <text y="390.89" x="400.63,405.66,409.006,414.036,418.458,421.825,425.669,428.896,431.665,436.576,439.683,446.874,451.914,455.261,460.291,463.518,466.864,471.286,478.985,484.015,486.784,491.206,493.975,499.005,502.232,506.654,511.595,516.515" svgx:width="0.5,0.33,0.5,0.44,0.33,0.39,0.25,0.28,0.5,0.25,0.72,0.5,0.33,0.5,0.25,0.33,0.44,0.78,0.5,0.28,0.44,0.28,0.5,0.25,0.44,0.5,0.5,0.25" style="fill:rgb(0,0,0);font-family:TimesNewRomanPSMT;font-size:9.96px;stroke:none;">orkers to work remotely and </text>
  </g>
  <g begin="text">
   <text y="403.49" x="198.77,203.192,207.644,212.067,216.519,220.363,224.208,227.196,229.965,234.985,238.331,243.361,246.707,254.496,258.918,261.687,264.456,269.486,274.516,277.384,280.731,285.153,292.962,297.992,300.761,305.183,307.952,312.872,315.86,320.182,325.212,330.242,333.011,338.031,341.019,344.365,348.688,353.718,358.748,363.17,367.622,370.61,373.249,376.596,381.018,386.068,390.49,393.259,396.257,401.287,405.609,413.398,417.82,422.87,427.9,430.3,433.288,439.892,444.314,448.189,452.611,455.599,459.443,462.212,467.232,472.262,475.031,479.453,483.327,486.295,490.14,495.17,500.2,505.229,509.652,513.526,516.295" svgx:width="0.44,0.44,0.44,0.44,0.39,0.39,0.25,0.28,0.5,0.33,0.5,0.33,0.78,0.44,0.28,0.28,0.5,0.5,0.25,0.33,0.44,0.78,0.5,0.28,0.44,0.28,0.5,0.25,0.44,0.5,0.5,0.28,0.5,0.25,0.33,0.44,0.5,0.5,0.44,0.44,0.25,0.28,0.33,0.44,0.5,0.44,0.28,0.25,0.5,0.44,0.78,0.44,0.5,0.5,0.25,0.25,0.67,0.44,0.39,0.44,0.25,0.39,0.28,0.5,0.5,0.28,0.44,0.39,0.25,0.39,0.5,0.5,0.5,0.44,0.39,0.28,0.25" style="fill:rgb(0,0,0);font-family:TimesNewRomanPSMT;font-size:9.96px;stroke:none;">access information remotely could reduce travel demand. Case studies suggest </text>
  </g>
  <g begin="text">
   <text y="416.21" x="198.77,201.539,206.559,210.981,213.75,215.802,218.57,222.993,225.762,230.184,237.375,242.435,245.781,250.811,253.58,258.6,263.63,265.671,269.994,275.024,280.054,282.822,287.733,289.775,293.121,297.543,302.593,307.623,312.045,316.388,318.429,321.069,324.415,328.838,333.887,337.732,342.762,347.792,351.138,353.907,355.939,360.361,368.17,370.939,374.773,378.618,381.387,386.407,391.436,395.281,397.323,402.353" svgx:width="0.28,0.5,0.44,0.28,0.25,0.28,0.44,0.28,0.44,0.72,0.5,0.33,0.5,0.28,0.5,0.5,0.25,0.44,0.5,0.5,0.28,0.5,0.25,0.33,0.44,0.5,0.5,0.44,0.44,0.25,0.28,0.33,0.44,0.5,0.39,0.5,0.5,0.33,0.28,0.25,0.44,0.78,0.28,0.39,0.39,0.28,0.5,0.5,0.39,0.25,0.5,0.5" style="fill:rgb(0,0,0);font-family:TimesNewRomanPSMT;font-size:9.96px;stroke:none;">that teleworking could reduce transport emissions by</text>
  </g>
  <g begin="text">
   <text y="416.21" x="407.59" svgx:width="0.25" style="fill:rgb(0,0,0);font-family:TimesNewRomanPSMT;font-size:9.96px;stroke:none;"> </text>
  </g>
  <g begin="text">
   <text y="416.21" x="409.51,414.54,419.57,427.866,429.888,432.657,437.677,439.719,443.434,448.464,456.252,460.675,462.736,465.505,470.525,474.37,477.138,481.561,486.6,491.023,495.475,499.319,501.829,503.871,508.901,513.931,516.57" svgx:width="0.5,0.5,0.83,0.25,0.28,0.5,0.25,0.39,0.5,0.78,0.44,0.25,0.28,0.5,0.39,0.28,0.44,0.5,0.44,0.44,0.39,0.25,0.25,0.5,0.5,0.28,0.25" style="fill:rgb(0,0,0);font-family:TimesNewRomanPSMT;font-size:9.96px;stroke:none;">20% in some instances, but </text>
  </g>
  <g begin="text">
   <text y="428.81" x="198.77,203.192,206.559,210.981,213.471,215.065,217.833,220.602,225.612,230.034,232.803" svgx:width="0.44,0.33,0.44,0.25,0.55,0.28,0.28,0.5,0.44,0.28,0.5" style="fill:rgb(0,0,0);font-family:TimesNewRomanPSMT;font-size:9.96px;stroke:none;">are likely</text>
  </g>
  <g begin="text">
   <text y="428.81" x="237.77" svgx:width="0.25" style="fill:rgb(0,0,0);font-family:TimesNewRomanPSMT;font-size:9.96px;stroke:none;"> </text>
  </g>
  <g begin="text">
   <text y="428.81" x="241.85,246.89" svgx:width="0.5,0.83" style="fill:rgb(0,0,0);font-family:TimesNewRomanPSMT;font-size:9.96px;stroke:none;">1%</text>
  </g>
  <g begin="text">
   <text y="428.81" x="255.17,257.68,260.17,261.754,266.176,268.835,271.325,272.909,280.697,285.727,289.572,292.341,294.831,297.321,298.924,303.347,307.689,311.036,316.065,319.781,323.625,326.115,327.699,330.468,335.487,339.91,342.40000000000003,343.993,348.416,353.465,356.234,359.003,362.32,366.662,369.152,370.736,373.505,376.841,381.264,386.313,390.158,395.188,400.108,403.455,406.224,408.714,410.287,414.132,419.162,423.006,425.775,430.197,437.996" svgx:width="0.25,0.25,0.55,0.44,0.28,0.25,0.55,0.78,0.5,0.39,0.28,0.25,0.25,0.55,0.44,0.44,0.33,0.5,0.39,0.39,0.25,0.55,0.28,0.5,0.44,0.25,0.55,0.44,0.5,0.28,0.28,0.33,0.44,0.25,0.55,0.28,0.33,0.44,0.5,0.39,0.5,0.5,0.33,0.28,0.25,0.55,0.39,0.5,0.39,0.28,0.44,0.78,0.25" style="fill:rgb(0,0,0);font-family:TimesNewRomanPSMT;font-size:9.96px;stroke:none;">, at most, across the entire transport system </text>
  </g>
  <g begin="text">
   <text y="428.81" x="442.18,445.527,452.13,457.16,459.929,464.949,467.439,469.022,473.444,476.213,478.70300000000003,480.297,484.719,487.488,489.898,492.38800000000003,493.972,499.002,503.922,508.952,513.982,516.621" svgx:width="0.33,0.67,0.5,0.28,0.5,0.25,0.55,0.44,0.28,0.25,0.55,0.44,0.28,0.25,0.25,0.55,0.5,0.5,0.5,0.5,0.28,0.25" style="fill:rgb(0,0,0);font-family:TimesNewRomanPSMT;font-size:9.96px;stroke:none;">(Roth et al. 2008; </text>
  </g>
  <g begin="text">
   <text y="441.55" x="198.77,205.961,209.318,216.509,220.931,225.383,228.73,233.152,235.682,240.104,242.873,245.393,249.815,252.584,255.104,257.614,262.643,267.564,272.594,277.623,280.392,282.882,288.42,293.45,297.872,302.922,307.244,312.274,317.194,322.224,327.254,330.601,333.111,337.533,340.302,342.822,347.244,350.013,352.533,354.933,359.963,364.993,369.913,374.943,377.712,380.202,387.413,390.759,397.363,400.709,403.478,407.9,412.94,415.45,419.872,424.922,429.842,432.352,439.543,442.312" svgx:width="0.72,0.33,0.72,0.44,0.44,0.33,0.44,0.25,0.44,0.28,0.25,0.44,0.28,0.25,0.25,0.5,0.5,0.5,0.5,0.28,0.25,0.56,0.5,0.44,0.5,0.44,0.5,0.5,0.5,0.5,0.33,0.25,0.44,0.28,0.25,0.44,0.28,0.25,0.25,0.5,0.5,0.5,0.5,0.28,0.25,0.72,0.33,0.67,0.33,0.28,0.44,0.5,0.25,0.44,0.5,0.5,0.25,0.72,0.28,0.28" style="fill:rgb(0,0,0);font-family:TimesNewRomanPSMT;font-size:9.96px;stroke:none;">O’Keefe et al. 2016; Shabanpour et al. 2018; O’Brien and Ali</text>
  </g>
  <g begin="text">
   <text y="441.55" x="445.42,449.842,454.892,459.314,464.364,467.133,469.623,474.673,479.702,484.623,489.652" svgx:width="0.44,0.5,0.44,0.5,0.28,0.25,0.5,0.5,0.5,0.5,0.33" style="fill:rgb(0,0,0);font-family:TimesNewRomanPSMT;font-size:9.96px;stroke:none;">abadi 2020)</text>
  </g>
  <g begin="text">
   <text y="441.55" x="493.06,495.58" svgx:width="0.25,0.25" style="fill:rgb(0,0,0);font-family:TimesNewRomanPSMT;font-size:9.96px;stroke:none;">. </text>
  </g>
  <g begin="text">
   <text y="441.55" x="497.98" svgx:width="0.25" style="fill:rgb(0,0,0);font-family:TimesNewRomanPSMT;font-size:9.96px;stroke:none;"> </text>
  </g>
  <path style="fill:rgb(0,0,0);stroke:none;stroke-width:1.0;" d="M72.020 466.390 L72.500 466.390 L72.500 466.870 L72.020 466.870 L72.020 466.390 "/>
  <path style="fill:rgb(0,0,0);stroke:none;stroke-width:1.0;" d="M193.130 466.390 L193.610 466.390 L193.610 466.870 L193.130 466.870 L193.130 466.390 "/>
  <path style="fill:rgb(0,0,0);stroke:none;stroke-width:1.0;" d="M521.860 466.390 L522.340 466.390 L522.340 466.870 L521.860 466.870 L521.860 466.390 "/>
  <path style="fill:rgb(0,0,0);stroke:none;stroke-width:1.0;" d="M72.020 386.330 L72.500 386.330 L72.500 466.390 L72.020 466.390 L72.020 386.330 "/>
  <path style="fill:rgb(0,0,0);stroke:none;stroke-width:1.0;" d="M193.130 386.330 L193.610 386.330 L193.610 466.390 L193.130 466.390 L193.130 386.330 "/>
  <path style="fill:rgb(0,0,0);stroke:none;stroke-width:1.0;" d="M521.860 386.330 L522.340 386.330 L522.340 466.390 L521.860 466.390 L521.860 386.330 "/>
  <g begin="text">
   <text y="471.43" x="77.664,84.855,89.277,97.096,101.518,104.287,108.709,112.086,114.855,119.277,122.046,124.815,128.649,133.071,135.84,138.609,143.639,148.669,151.179,156.209,159.555,162.065,164.834,169.854,174.276" svgx:width="0.72,0.44,0.78,0.44,0.28,0.44,0.33,0.28,0.44,0.28,0.28,0.39,0.44,0.28,0.28,0.5,0.5,0.25,0.5,0.33,0.25,0.28,0.5,0.44,0.25" style="fill:rgb(0,0,0);font-family:TimesNewRomanPSMT;font-size:9.96px;stroke:none;">Dematerialisation of the </text>
  </g>
  <g begin="text">
   <text y="484.15" x="77.664,82.086,86.538,91.568,96.598,101.628,109.307" svgx:width="0.44,0.44,0.5,0.5,0.5,0.78,0.5" style="fill:rgb(0,0,0);font-family:TimesNewRomanPSMT;font-size:9.96px;stroke:none;">economy</text>
  </g>
  <g begin="text">
   <text y="484.15" x="114.26" svgx:width="0.25" style="fill:rgb(0,0,0);font-family:TimesNewRomanPSMT;font-size:9.96px;stroke:none;"> </text>
  </g>
  <g begin="text">
   <text y="471.43" x="198.77,205.961,208.45100000000002,210.284,213.63,218.053,223.102,228.132,232.554,235.323,238.092,243.122,248.152,250.642,252.464,255.233,260.144,262.634,264.456,269.486,274.406,279.436,284.466,288.31,290.8,292.623,297.653,302.075,306.527,311.557,315.88,320.8,323.29,325.113,330.142,335.172,339.595,342.08500000000004,343.927,346.696,351.716,354.206,356.029,360.451,365.391,373.18,378.21,380.978,385.998,388.767,393.677,398.707,401.197,403.02,410.809,415.838,418.607,421.376,424.145,429.145,431.914,436.336,438.826,440.539,443.886,448.916,453.945,458.368,461.137,463.905,468.935,473.965,477.81,480.3,482.122,484.891,489.911,492.68,497.7,500.19,501.893,506.923,511.953,516.275" svgx:width="0.72,0.25,0.55,0.33,0.44,0.5,0.5,0.44,0.28,0.28,0.5,0.5,0.25,0.55,0.28,0.5,0.25,0.55,0.5,0.5,0.5,0.5,0.39,0.25,0.55,0.5,0.44,0.44,0.5,0.44,0.5,0.25,0.55,0.5,0.5,0.44,0.25,0.55,0.28,0.5,0.25,0.55,0.44,0.5,0.78,0.5,0.28,0.5,0.28,0.5,0.5,0.25,0.55,0.78,0.5,0.28,0.28,0.28,0.5,0.28,0.44,0.25,0.55,0.33,0.5,0.5,0.44,0.28,0.28,0.5,0.5,0.39,0.25,0.55,0.28,0.5,0.28,0.5,0.25,0.55,0.5,0.5,0.44,0.25" style="fill:rgb(0,0,0);font-family:TimesNewRomanPSMT;font-size:9.96px;stroke:none;">A reduction in goods needed due to combining multiple functions into one </text>
  </g>
  <g begin="text">
   <text y="484.15" x="198.77,203.8,208.222,213.272,216.041,220.463,224.885,227.375,228.381,235.572,240.612,245.642,248.281,253.311,255.80100000000002,256.777,260.124,264.546,269.486,274.516,278.938,283.39,285.88,286.856,289.625,294.645,298.968,301.458,302.434,307.464,311.886,316.338,321.258,323.748,324.724,328.071,333.101,336.447,338.937,339.913,342.553,345.899,350.321,355.371,359.216,364.246,369.275,372.622,375.391,377.781,380.271,381.247,387.851,392.273,397.323,402.353,406.775,411.227,416.147,418.637,419.613,426.804,431.227,433.996,438.936,443.966,446.734,450.569,453.059,454.035,458.457,462.332,466.156,471.186,475.609,478.377,482.8,485.569,490.021,495.051,497.541,498.517,505.708,508.477,511.246,516.265" svgx:width="0.5,0.44,0.5,0.28,0.44,0.44,0.25,0.55,0.72,0.5,0.5,0.28,0.5,0.25,0.55,0.33,0.44,0.5,0.5,0.44,0.44,0.25,0.55,0.28,0.5,0.44,0.25,0.55,0.5,0.44,0.44,0.5,0.25,0.55,0.33,0.5,0.33,0.25,0.55,0.28,0.33,0.44,0.5,0.39,0.5,0.5,0.33,0.28,0.25,0.25,0.55,0.67,0.44,0.5,0.5,0.44,0.44,0.5,0.25,0.55,0.72,0.44,0.28,0.5,0.5,0.28,0.39,0.25,0.55,0.44,0.39,0.39,0.5,0.44,0.28,0.44,0.28,0.44,0.5,0.25,0.55,0.72,0.28,0.28,0.5,0.25" style="fill:rgb(0,0,0);font-family:TimesNewRomanPSMT;font-size:9.96px;stroke:none;">device would reduce the need for transport. Reduced weights associated with </text>
  </g>
  <g begin="text">
   <text y="496.75" x="198.77,203.8,208.222,216.031,220.453,223.222,227.644,231.02,233.789,238.212,240.98,243.749,247.584,252.006,254.775,257.544,262.574,267.604,270.094,270.95,278.141,283.181,288.211,290.98,295.89,298.38,299.237,302.005,309.784,314.814,318.051,323.081,328.111,332.533,335.023,335.899,338.668,343.688,348.011,350.50100000000003,351.357,355.78,359.146,362.493,365.262,369.684,372.453,376.775,381.805,386.227,391.277,394.504,399.534,402.771" svgx:width="0.5,0.44,0.78,0.44,0.28,0.44,0.33,0.28,0.44,0.28,0.28,0.39,0.44,0.28,0.28,0.5,0.5,0.25,0.55,0.72,0.5,0.5,0.28,0.5,0.25,0.55,0.28,0.78,0.5,0.33,0.5,0.5,0.44,0.25,0.55,0.28,0.5,0.44,0.25,0.55,0.44,0.33,0.33,0.28,0.44,0.28,0.44,0.5,0.44,0.5,0.25,0.5,0.33,0.25" style="fill:rgb(0,0,0);font-family:TimesNewRomanPSMT;font-size:9.96px;stroke:none;">dematerialisation would improve the efficiency of </text>
  </g>
  <g begin="text">
   <text y="496.75" x="406.39,409.737,413.083,417.505,420.274,425.205,430.234,433.003,435.493,436.34,438.979,442.326,446.748,451.798,455.642,460.672,465.702,469.049,471.817,474.208,476.69800000000004,477.554,484.745,489.785,496.976,501.399,506.458,510.881,514.247,516.528" svgx:width="0.33,0.33,0.44,0.28,0.5,0.5,0.28,0.25,0.55,0.28,0.33,0.44,0.5,0.39,0.5,0.5,0.33,0.28,0.25,0.25,0.55,0.72,0.5,0.72,0.44,0.5,0.44,0.33,0.25,0.25" style="fill:rgb(0,0,0);font-family:TimesNewRomanPSMT;font-size:9.96px;stroke:none;">freight transport. However, </text>
  </g>
  <g begin="text">
   <text y="509.35" x="198.77,203.192,211.001,213.77,217.604,221.449,224.218,229.238,234.267,238.112,240.602,244.217,247.564,251.986,257.036,262.066,266.488,269.257,272.026,277.056,282.085,285.93,288.42,292.036,295.382,298.729,303.759,311.547,314.03700000000003,317.653,320.292,325.322,329.744,333.619,338.041,340.531,344.156,348.578,351.945,355.292,360.321,363.668,366.437,370.271,372.761,376.377,380.799,384.166,388.588,391.07800000000003,394.713,397.482,400.251,405.261,409.683,412.452,417.492,419.982,423.597,428.627,435.818,440.151,443.497,446.844,451.266,456.316,458.806,462.422,467.451,472.481,474.971,478.587,481.356,486.375,490.698,494.045,498.467,502.919,506.763,511.186,516.235" svgx:width="0.44,0.78,0.28,0.39,0.39,0.28,0.5,0.5,0.39,0.25,0.55,0.33,0.44,0.5,0.5,0.44,0.28,0.28,0.5,0.5,0.39,0.25,0.55,0.33,0.33,0.5,0.78,0.25,0.55,0.28,0.5,0.44,0.39,0.44,0.25,0.55,0.44,0.33,0.33,0.5,0.33,0.28,0.39,0.25,0.55,0.44,0.33,0.44,0.25,0.55,0.28,0.28,0.5,0.44,0.28,0.5,0.25,0.55,0.5,0.72,0.44,0.33,0.33,0.44,0.5,0.25,0.55,0.5,0.5,0.25,0.55,0.28,0.5,0.44,0.33,0.44,0.44,0.39,0.44,0.5,0.25" style="fill:rgb(0,0,0);font-family:TimesNewRomanPSMT;font-size:9.96px;stroke:none;">emissions reductions from these efforts are likely dwarfed by increased </text>
  </g>
  <g begin="text">
   <text y="522.07" x="198.77,203.192,208.242,213.272,217.116,222.146,229.935,234.965,237.734,240.502,245.512,250.433,252.942,257.972,261.319,263.719,268.749,273.779,278.699,283.729,287.573" svgx:width="0.44,0.5,0.5,0.39,0.5,0.78,0.5,0.28,0.28,0.5,0.5,0.25,0.5,0.33,0.25,0.5,0.5,0.5,0.5,0.39,0.25" style="fill:rgb(0,0,0);font-family:TimesNewRomanPSMT;font-size:9.96px;stroke:none;">consumption of goods.</text>
  </g>
  <g begin="text">
   <text y="522.07" x="290.21" svgx:width="0.25" style="fill:rgb(0,0,0);font-family:TimesNewRomanPSMT;font-size:9.96px;stroke:none;"> </text>
  </g>
  <path style="fill:rgb(0,0,0);stroke:none;stroke-width:1.0;" d="M72.020 385.850 L72.500 385.850 L72.500 386.330 L72.020 386.330 L72.020 385.850 "/>
  <path style="fill:rgb(0,0,0);stroke:none;stroke-width:1.0;" d="M193.130 385.850 L193.610 385.850 L193.610 386.330 L193.130 386.330 L193.130 385.850 "/>
  <path style="fill:rgb(0,0,0);stroke:none;stroke-width:1.0;" d="M521.860 385.850 L522.340 385.850 L522.340 386.330 L521.860 386.330 L521.860 385.850 "/>
  <path style="fill:rgb(0,0,0);stroke:none;stroke-width:1.0;" d="M72.020 310.610 L72.500 310.610 L72.500 385.850 L72.020 385.850 L72.020 310.610 "/>
  <path style="fill:rgb(0,0,0);stroke:none;stroke-width:1.0;" d="M193.130 310.610 L193.610 310.610 L193.610 385.850 L193.130 385.850 L193.130 310.610 "/>
  <path style="fill:rgb(0,0,0);stroke:none;stroke-width:1.0;" d="M521.860 310.610 L522.340 310.610 L522.340 385.850 L521.860 385.850 L521.860 310.610 "/>
  <g begin="text">
   <text y="547.15" x="77.664,83.202,88.212,93.241,98.271,101.04,106.06,108.57,112.992,118.042,122.464,125.123,130.153,132.663,140.452,144.874,149.924,154.247,159.276,163.699,171.507,175.929,180.979" svgx:width="0.56,0.5,0.5,0.5,0.28,0.5,0.25,0.44,0.5,0.44,0.28,0.5,0.25,0.78,0.44,0.5,0.44,0.5,0.44,0.78,0.44,0.5,0.28" style="fill:rgb(0,0,0);font-family:TimesNewRomanPSMT;font-size:9.96px;stroke:none;">Supply chain management</text>
  </g>
  <g begin="text">
   <text y="547.15" x="183.74" svgx:width="0.25" style="fill:rgb(0,0,0);font-family:TimesNewRomanPSMT;font-size:9.96px;stroke:none;"> </text>
  </g>
  <g begin="text">
   <text y="547.15" x="198.77,204.308,209.318,214.347,219.377,222.146,227.166,229.795,234.218,239.267,243.69,246.458,251.498,255.343,257.972,262.394,267.444,272.474,275.243,280.263,282.773,287.802,292.225,294.874,299.904,304.934,307.703,310.471,318.24,320.88,324.724,329.146,334.196,336.826,339.595,344.614,347.244,350.59,355.013,360.062,365.092,369.514,373.967,376.596,379.365,384.385,388.807,391.456,399.245,404.275,409.195,413.617,421.426,425.848,430.898,433.667,436.286,441.206,444.553,447.183,449.951,453.288,457.71,462.76,467.182,469.951,472.59,477.62,480.389,484.224,486.993,491.415,496.455,500.877,505.329,507.958,512.988,516.225" svgx:width="0.56,0.5,0.5,0.5,0.28,0.5,0.25,0.44,0.5,0.44,0.28,0.5,0.39,0.25,0.44,0.5,0.5,0.28,0.5,0.25,0.5,0.44,0.25,0.5,0.5,0.28,0.28,0.78,0.28,0.39,0.44,0.5,0.25,0.28,0.5,0.25,0.33,0.44,0.5,0.5,0.44,0.44,0.25,0.28,0.5,0.44,0.25,0.78,0.5,0.5,0.44,0.78,0.44,0.5,0.28,0.25,0.5,0.33,0.25,0.28,0.33,0.44,0.5,0.44,0.28,0.25,0.5,0.28,0.39,0.28,0.44,0.5,0.44,0.44,0.25,0.5,0.33,0.25" style="fill:rgb(0,0,0);font-family:TimesNewRomanPSMT;font-size:9.96px;stroke:none;">Supply chains could be optimised to reduce the movement or travel distance of </text>
  </g>
  <g begin="text">
   <text y="559.87" x="198.77,203.8,207.146,212.176,217.096,222.126,226.548,229.317,231.80700000000002,233.64,238.062,243.112,250.901,255.821,260.851,265.881,270.303,275.353,278.121,281.956,284.466,286.956,288.779,294.884,299.804,304.834,307.603,311.438,314.207,316.975,321.398,325.242,327.732,329.555" svgx:width="0.5,0.33,0.5,0.5,0.5,0.44,0.28,0.25,0.55,0.44,0.5,0.78,0.5,0.5,0.5,0.44,0.5,0.28,0.39,0.25,0.25,0.55,0.61,0.5,0.5,0.28,0.39,0.28,0.28,0.44,0.39,0.25,0.55,0.5" style="fill:rgb(0,0,0);font-family:TimesNewRomanPSMT;font-size:9.96px;stroke:none;">product components. Logistics p</text>
  </g>
  <g begin="text">
   <text y="559.87" x="334.75,337.519,341.941,346.981,352.011,354.78,359.799,364.829,367.319,369.142,373.564,378.504,383.534,386.303,391.323,393.813,395.636,400.556,405.586,408.355,411.123,418.892,421.661,425.496,429.918,432.408,434.251,437.019,442.039,446.461,448.951,450.794,455.824,459.669,464.091,466.581,468.423,473.453,476.8,479.29,481.112,483.881,487.218,491.64,496.69,500.534,505.564,510.484,513.831,516.47" svgx:width="0.28,0.44,0.5,0.5,0.28,0.5,0.5,0.25,0.55,0.44,0.5,0.5,0.28,0.5,0.25,0.55,0.5,0.5,0.28,0.28,0.78,0.28,0.39,0.44,0.25,0.55,0.28,0.5,0.44,0.25,0.55,0.5,0.39,0.44,0.25,0.55,0.5,0.33,0.25,0.55,0.28,0.33,0.44,0.5,0.39,0.5,0.5,0.33,0.28,0.25" style="fill:rgb(0,0,0);font-family:TimesNewRomanPSMT;font-size:9.96px;stroke:none;">lanning could optimise the use of transport </text>
  </g>
  <g begin="text">
   <text y="572.47" x="198.77,201.539,206.559,209.905,213.252,217.674,221.549,224.317,227.634,232.684,237.106,239.875,244.915,248.261,252.684,254.745,257.514,262.534,264.576,267.345,272.364,276.787,280.153,284.575,289.027,292.872,297.294,299.356,304.386,307.155,309.924,312.693,315.422,319.844,324.296,327.065,329.834,334.844,339.873,341.915,345.262,349.684,352.453,356.875,360.75,362.781,367.204,372.253,377.283,379.325,384.355,388.777,393.229,396.576,400.998,405.45,409.295,413.717,415.779,418.548,421.884,426.306,431.356,435.778,438.547,441.067,443.109,449.214,454.244,458.666,460.728,465.15,468.517,471.863,476.286,480.738,483.507,485.538,490.568,493.915,495.957,498.726,503.745,508.168,512.042,516.345" svgx:width="0.28,0.5,0.33,0.33,0.44,0.39,0.28,0.33,0.5,0.44,0.28,0.5,0.33,0.44,0.25,0.28,0.5,0.25,0.28,0.5,0.44,0.33,0.44,0.44,0.39,0.44,0.25,0.5,0.28,0.28,0.28,0.28,0.44,0.44,0.28,0.28,0.5,0.5,0.25,0.33,0.44,0.28,0.44,0.39,0.25,0.44,0.5,0.5,0.25,0.5,0.44,0.44,0.33,0.44,0.44,0.39,0.44,0.25,0.28,0.33,0.44,0.5,0.44,0.28,0.25,0.25,0.61,0.5,0.44,0.25,0.44,0.33,0.33,0.44,0.44,0.28,0.25,0.5,0.33,0.25,0.28,0.5,0.44,0.39,0.44,0.25" style="fill:rgb(0,0,0);font-family:TimesNewRomanPSMT;font-size:9.96px;stroke:none;">infrastructure to increase utilization rates and decrease travel. The effect of these </text>
  </g>
  <g begin="text">
   <text y="585.19" x="198.77,202.615,205.383,208.72,213.142,215.911,220.333,225.393,228.162,232.584,236.459,238.949,243.978,249.008,251.518,254.287,259.307,263.729,266.259,273.45,280.641,287.832,290.372,294.794,302.603,305.372,309.206,313.051,315.82,320.84,325.87,329.714,332.224,335.571,338.917,343.947,351.736,354.246,357.015,362.034,366.357,368.867,371.636,374.972,379.395,384.444,388.289,393.319,398.349,401.695,404.464,406.954,410.829,415.251,419.673,422.442,427.372,430.719,433.229,435.997,439.832,442.342,447.372,452.402,456.824,461.276,464.622,467.391,471.814,474.583,479.612" svgx:width="0.39,0.28,0.33,0.44,0.28,0.44,0.5,0.28,0.44,0.39,0.25,0.5,0.5,0.25,0.28,0.5,0.44,0.25,0.72,0.72,0.72,0.25,0.44,0.78,0.28,0.39,0.39,0.28,0.5,0.5,0.39,0.25,0.33,0.33,0.5,0.78,0.25,0.28,0.5,0.44,0.25,0.28,0.33,0.44,0.5,0.39,0.5,0.5,0.33,0.28,0.25,0.39,0.44,0.44,0.28,0.5,0.33,0.25,0.28,0.39,0.25,0.5,0.5,0.44,0.44,0.33,0.28,0.44,0.28,0.5,0.25" style="fill:rgb(0,0,0);font-family:TimesNewRomanPSMT;font-size:9.96px;stroke:none;">strategies on the GHG emissions from the transport sector is uncertain.</text>
  </g>
  <g begin="text">
   <text y="585.19" x="482.38" svgx:width="0.25" style="fill:rgb(0,0,0);font-family:TimesNewRomanPSMT;font-size:9.96px;stroke:none;"> </text>
  </g>
  <path style="fill:rgb(0,0,0);stroke:none;stroke-width:1.0;" d="M72.020 310.130 L72.500 310.130 L72.500 310.610 L72.020 310.610 L72.020 310.130 "/>
  <path style="fill:rgb(0,0,0);stroke:none;stroke-width:1.0;" d="M193.130 310.130 L193.610 310.130 L193.610 310.610 L193.130 310.610 L193.130 310.130 "/>
  <path style="fill:rgb(0,0,0);stroke:none;stroke-width:1.0;" d="M521.860 310.130 L522.340 310.130 L522.340 310.610 L521.860 310.610 L521.860 310.130 "/>
  <path style="fill:rgb(0,0,0);stroke:none;stroke-width:1.0;" d="M72.020 247.490 L72.500 247.490 L72.500 310.130 L72.020 310.130 L72.020 247.490 "/>
  <path style="fill:rgb(0,0,0);stroke:none;stroke-width:1.0;" d="M193.130 247.490 L193.610 247.490 L193.610 310.130 L193.130 310.130 L193.130 247.490 "/>
  <path style="fill:rgb(0,0,0);stroke:none;stroke-width:1.0;" d="M521.860 247.490 L522.340 247.490 L522.340 310.130 L521.860 310.130 L521.860 247.490 "/>
  <g begin="text">
   <text y="610.27" x="77.664" svgx:width="0.44" style="fill:rgb(0,0,0);font-family:TimesNewRomanPSMT;font-size:9.96px;stroke:none;">e</text>
  </g>
  <g begin="text">
   <text y="610.27" x="82.104" svgx:width="0.33" style="fill:rgb(0,0,0);font-family:TimesNewRomanPSMT;font-size:9.96px;stroke:none;">-</text>
  </g>
  <g begin="text">
   <text y="610.27" x="85.464,89.886,94.936,102.725,110.513,114.936,118.302,122.724" svgx:width="0.44,0.5,0.78,0.78,0.44,0.33,0.44,0.44" style="fill:rgb(0,0,0);font-family:TimesNewRomanPSMT;font-size:9.96px;stroke:none;">commerce</text>
  </g>
  <g begin="text">
   <text y="610.27" x="127.1" svgx:width="0.25" style="fill:rgb(0,0,0);font-family:TimesNewRomanPSMT;font-size:9.96px;stroke:none;"> </text>
  </g>
  <g begin="text">
   <text y="610.27" x="198.77,204.875,209.905,214.327,216.817,218.78,223.202,226.568,229.915,234.337,238.789,241.558,244.048,245.98,251.01,254.357,256.847,258.789" svgx:width="0.61,0.5,0.44,0.25,0.55,0.44,0.33,0.33,0.44,0.44,0.28,0.25,0.55,0.5,0.33,0.25,0.55,0.44" style="fill:rgb(0,0,0);font-family:TimesNewRomanPSMT;font-size:9.96px;stroke:none;">The effect of e</text>
  </g>
  <g begin="text">
   <text y="610.27" x="263.21" svgx:width="0.33" style="fill:rgb(0,0,0);font-family:TimesNewRomanPSMT;font-size:9.96px;stroke:none;">-</text>
  </g>
  <g begin="text">
   <text y="610.27" x="266.57,270.992,276.042,283.831,291.619,295.942,299.289,303.711,308.163,310.653,312.595,317.515,322.545" svgx:width="0.44,0.5,0.78,0.78,0.44,0.33,0.44,0.44,0.25,0.55,0.5,0.5,0.25" style="fill:rgb(0,0,0);font-family:TimesNewRomanPSMT;font-size:9.96px;stroke:none;">commerce on </text>
  </g>
  <g begin="text">
   <text y="610.27" x="327.07,329.839,333.175,337.598,342.647,346.492,351.522,356.552,359.898,362.667,365.157,367.089,371.512,379.32,382.089,385.924,389.768,392.537,397.557,402.587,406.431,408.921,410.864,413.633,417.467,419.957,421.899,426.929,431.959,436.381,440.833,444.18,446.949,451.371,454.14,459.17,461.68,464.17,466.112,469.458,474.488,478.91,482.277,486.699,491.151,494.996,499.418,504.468,506.958,508.9" svgx:width="0.28,0.33,0.44,0.5,0.39,0.5,0.5,0.33,0.28,0.25,0.55,0.44,0.78,0.28,0.39,0.39,0.28,0.5,0.5,0.39,0.25,0.55,0.28,0.39,0.25,0.55,0.5,0.5,0.44,0.44,0.33,0.28,0.44,0.28,0.5,0.25,0.25,0.55,0.33,0.5,0.44,0.33,0.44,0.44,0.39,0.44,0.5,0.25,0.55,0.44" style="fill:rgb(0,0,0);font-family:TimesNewRomanPSMT;font-size:9.96px;stroke:none;">transport emissions is uncertain. Increased e</text>
  </g>
  <g begin="text">
   <text y="610.27" x="513.58" svgx:width="0.33" style="fill:rgb(0,0,0);font-family:TimesNewRomanPSMT;font-size:9.96px;stroke:none;">-</text>
  </g>
  <g begin="text">
   <text y="623.02" x="198.77,203.192,208.242,216.031,223.819,228.242,231.608,236.03,240.483,243.471,250.662,255.701,260.731,263.371,268.4,271.388,274.735,279.157,284.097,289.127,293.549,298.002,300.99,306.019,310.442,318.141,322.563,327.613,332.642,335.63,338.977,344.007,347.353,350.341,352.981,356.327,359.096,364.116,367.961,370.949,373.717,378.737,381.725,385.57,388.339,393.359,396.705,401.127,405.002,407.98,413.01,418.04,420.808,423.786,428.209,433.258,438.179,440.948,445.967,448.955,451.724,456.744,461.166,464.533,468.955,473.407,477.252,481.674,484.682,489.712,494.134,501.943,506.365,511.415,516.215" svgx:width="0.44,0.5,0.78,0.78,0.44,0.33,0.44,0.44,0.25,0.72,0.5,0.5,0.28,0.5,0.25,0.33,0.44,0.5,0.5,0.44,0.44,0.25,0.5,0.44,0.78,0.44,0.5,0.5,0.25,0.33,0.5,0.33,0.25,0.28,0.33,0.28,0.5,0.39,0.25,0.28,0.5,0.25,0.39,0.28,0.5,0.33,0.44,0.39,0.25,0.5,0.5,0.28,0.25,0.44,0.5,0.5,0.28,0.5,0.25,0.28,0.5,0.44,0.33,0.44,0.44,0.39,0.44,0.25,0.5,0.44,0.78,0.44,0.5,0.5,0.25" style="fill:rgb(0,0,0);font-family:TimesNewRomanPSMT;font-size:9.96px;stroke:none;">commerce would reduce demand for trips to stores but could increase demand </text>
  </g>
  <g begin="text">
   <text y="635.62" x="198.77,202.117,207.146" svgx:width="0.33,0.5,0.33" style="fill:rgb(0,0,0);font-family:TimesNewRomanPSMT;font-size:9.96px;stroke:none;">for</text>
  </g>
  <g begin="text">
   <text y="635.62" x="210.53" svgx:width="0.25" style="fill:rgb(0,0,0);font-family:TimesNewRomanPSMT;font-size:9.96px;stroke:none;"> </text>
  </g>
  <g begin="text">
   <text y="635.62" x="212.93,216.277,219.623,224.045,226.814,231.744,236.774,239.543,241.934,244.702,248.039,252.461,257.511,261.355,266.385,271.415,274.762,277.531,279.921,283.158,288.188,292.61,295.977,298.745,301.514,305.937,310.966,313.735,318.157,321.404,324.173,329.193,331.594,334.362,338.785,342.659" svgx:width="0.33,0.33,0.44,0.28,0.5,0.5,0.28,0.25,0.28,0.33,0.44,0.5,0.39,0.5,0.5,0.33,0.28,0.25,0.33,0.5,0.44,0.33,0.28,0.28,0.44,0.5,0.28,0.44,0.33,0.28,0.5,0.25,0.28,0.44,0.39,0.28" style="fill:rgb(0,0,0);font-family:TimesNewRomanPSMT;font-size:9.96px;stroke:none;">freight transport (particularly last</text>
  </g>
  <g begin="text">
   <text y="635.62" x="345.55" svgx:width="0.33" style="fill:rgb(0,0,0);font-family:TimesNewRomanPSMT;font-size:9.96px;stroke:none;">-</text>
  </g>
  <g begin="text">
   <text y="635.62" x="348.91,356.699,359.468,362.236,366.659,369.059,374.089,378.511,381.28,384.049,389.079,393.501,396.867,401.897,405.244" svgx:width="0.78,0.28,0.28,0.44,0.25,0.5,0.44,0.28,0.28,0.5,0.44,0.33,0.5,0.33,0.25" style="fill:rgb(0,0,0);font-family:TimesNewRomanPSMT;font-size:9.96px;stroke:none;">mile delivery) </text>
  </g>
  <g begin="text">
   <text y="635.62" x="407.71,411.057,414.901,419.323,422.092,424.861,429.283,432.65,435.05,439.473,444.522,449.552,451.952,457.49,461.912,466.942,474.133,478.556,480.986,486.016,491.045,495.966,500.995,503.764,506.155,512.26,516.583" svgx:width="0.33,0.39,0.44,0.28,0.28,0.44,0.33,0.25,0.44,0.5,0.5,0.25,0.56,0.44,0.5,0.72,0.44,0.25,0.5,0.5,0.5,0.5,0.28,0.25,0.61,0.44,0.25" style="fill:rgb(0,0,0);font-family:TimesNewRomanPSMT;font-size:9.96px;stroke:none;">(Jaller and Pahwa 2020; Le </text>
  </g>
  <g begin="text">
   <text y="648.22" x="198.77,203.192,205.961,208.481,212.903,215.672,218.192,220.702,225.732,230.762,235.682,240.712" svgx:width="0.44,0.28,0.25,0.44,0.28,0.25,0.25,0.5,0.5,0.5,0.5,0.33" style="fill:rgb(0,0,0);font-family:TimesNewRomanPSMT;font-size:9.96px;stroke:none;">et al. 2021)</text>
  </g>
  <g begin="text">
   <text y="648.22" x="244.13" svgx:width="0.25" style="fill:rgb(0,0,0);font-family:TimesNewRomanPSMT;font-size:9.96px;stroke:none;">.</text>
  </g>
  <g begin="text">
   <text y="648.22" x="246.53" svgx:width="0.25" style="fill:rgb(0,0,0);font-family:TimesNewRomanPSMT;font-size:9.96px;stroke:none;"> </text>
  </g>
  <path style="fill:rgb(0,0,0);stroke:none;stroke-width:1.0;" d="M72.020 247.010 L72.500 247.010 L72.500 247.490 L72.020 247.490 L72.020 247.010 "/>
  <path style="fill:rgb(0,0,0);stroke:none;stroke-width:1.0;" d="M193.130 247.010 L193.610 247.010 L193.610 247.490 L193.130 247.490 L193.130 247.010 "/>
  <path style="fill:rgb(0,0,0);stroke:none;stroke-width:1.0;" d="M521.860 247.010 L522.340 247.010 L522.340 247.490 L521.860 247.490 L521.860 247.010 "/>
  <path style="fill:rgb(0,0,0);stroke:none;stroke-width:1.0;" d="M72.020 184.340 L72.500 184.340 L72.500 247.000 L72.020 247.000 L72.020 184.340 "/>
  <path style="fill:rgb(0,0,0);stroke:none;stroke-width:1.0;" d="M193.130 184.340 L193.610 184.340 L193.610 247.000 L193.130 247.000 L193.130 184.340 "/>
  <path style="fill:rgb(0,0,0);stroke:none;stroke-width:1.0;" d="M521.860 184.340 L522.340 184.340 L522.340 247.000 L521.860 247.000 L521.860 184.340 "/>
  <g begin="text">
   <text y="673.42" x="77.664,83.202,90.971,95.393,98.759,101.528,104.018,111.827,116.857,121.886,124.655,127.424,130.193,132.922,137.952" svgx:width="0.56,0.78,0.44,0.33,0.28,0.25,0.78,0.5,0.5,0.28,0.28,0.28,0.28,0.5,0.25" style="fill:rgb(0,0,0);font-family:TimesNewRomanPSMT;font-size:9.96px;stroke:none;">Smart mobility </text>
  </g>
  <g begin="text">
   <text y="673.42" x="140.42" svgx:width="0.25" style="fill:rgb(0,0,0);font-family:TimesNewRomanPSMT;font-size:9.96px;stroke:none;"> </text>
  </g>
  <g begin="text">
   <text y="673.42" x="198.77,202.117,208.72,214.826,217.316,219.497,223.919,228.969,233.999,236.489,238.67,242.514,250.303,254.725,258.092,260.861,263.351,265.522,269.944,272.713,275.482,280.512,283.002,285.183,287.952,292.374,296.796,301.856,306.886,311.916,314.685,319.595,324.625,327.394,331.816,335.69,338.18,340.332,344.754,349.206,354.236,356.726,358.907,363.937,368.359,370.849,373.05,378.08,381.925,386.347,391.397,393.887,396.068,398.837,403.857,406.34700000000004,408.528,411.297,419.076,424.105,427.452,432.482,437.402,441.725,444.21500000000003,446.396,449.165,454.185,458.607,461.09700000000004,463.298,467.72,471.087,474.433,477.202,481.624,484.393,488.815,493.865,498.287,503.337,505.827,508.008,513.038,516.275" svgx:width="0.33,0.67,0.61,0.25,0.55,0.44,0.5,0.5,0.25,0.55,0.39,0.78,0.44,0.33,0.28,0.25,0.55,0.44,0.28,0.28,0.5,0.25,0.55,0.28,0.44,0.44,0.5,0.5,0.5,0.28,0.5,0.5,0.28,0.44,0.39,0.25,0.55,0.44,0.44,0.5,0.25,0.55,0.5,0.44,0.25,0.55,0.5,0.39,0.44,0.5,0.25,0.55,0.28,0.5,0.25,0.55,0.28,0.78,0.5,0.33,0.5,0.5,0.44,0.25,0.55,0.28,0.5,0.44,0.25,0.55,0.44,0.33,0.33,0.28,0.44,0.28,0.44,0.5,0.44,0.5,0.25,0.55,0.5,0.33,0.25" style="fill:rgb(0,0,0);font-family:TimesNewRomanPSMT;font-size:9.96px;stroke:none;">ICT and smart city technologies can be used to improve the efficiency of </text>
  </g>
  <g begin="text">
   <text y="686.02" x="198.77,203.8,208.83,213.252,216.618,221.041,223.809,226.578,231.608,236.638,239.12800000000001,240.343,242.982,248.012,252.434,254.924,256.16,258.928,262.265,266.687,271.737,275.582,280.611,285.532,288.878,291.647,294.137,295.352,299.197,304.227,308.071,310.84,315.262,323.061,325.571,328.06100000000004,329.276,334.814,339.824,343.17,345.939,350.959,355.381,358.748,366.427,371.457,374.803,379.225,381.755,384.245,385.46" svgx:width="0.5,0.5,0.44,0.33,0.44,0.28,0.28,0.5,0.5,0.25,0.55,0.28,0.5,0.44,0.25,0.55,0.28,0.33,0.44,0.5,0.39,0.5,0.5,0.33,0.28,0.25,0.55,0.39,0.5,0.39,0.28,0.44,0.78,0.25,0.25,0.55,0.56,0.5,0.33,0.28,0.5,0.44,0.33,0.78,0.5,0.33,0.44,0.25,0.25,0.55,0.39" style="fill:rgb(0,0,0);font-family:TimesNewRomanPSMT;font-size:9.96px;stroke:none;">operating the transport system. Furthermore, s</text>
  </g>
  <g begin="text">
   <text y="686.02" x="389.59,397.379,401.801,405.167,407.936,410.426,411.641,414.41,418.833,423.255,428.205,433.235,438.155,440.924,445.944,450.974,453.742,458.165,462.039,464.529,465.724,470.147,474.599,479.628,482.118,483.334,486.103,493.881,498.911,502.258,507.178,512.208,516.53" svgx:width="0.78,0.44,0.33,0.28,0.25,0.55,0.28,0.44,0.44,0.5,0.5,0.5,0.28,0.5,0.5,0.28,0.44,0.39,0.25,0.55,0.44,0.44,0.5,0.25,0.55,0.28,0.78,0.5,0.33,0.5,0.5,0.44,0.25" style="fill:rgb(0,0,0);font-family:TimesNewRomanPSMT;font-size:9.96px;stroke:none;">mart technologies can improve </text>
  </g>
  <g begin="text">
   <text y="698.74" x="198.77,203.192,208.242,216.031,221.061,225.483,228.252,231.021,233.789,236.558,241.568,245.99,251.04,255.462,259.337,263.161,265.651,267.474,272.504,275.741,278.231,280.054,282.822,286.159,290.581,295.631,299.476,302.244,305.013,307.503,309.306,313.629,318.549,323.579,326.069,327.891,332.314,336.766,339.535,342.304,347.314,351.636,354.12600000000003,355.949,358.718,362.054,366.477,371.526,375.371,380.401,385.321,388.667,391.436,393.926,395.739,400.659,405.689,410.111,413.368,415.858,417.681,422.711,427.133,430.5,434.344,439.264,444.294,448.716,451.485,453.975,455.808,460.838,465.26,470.31,473.079,477.501,480.27,484.592,487.082,488.905,493.935,497.779,502.202,504.692,506.405,511.435,516.355" svgx:width="0.44,0.5,0.78,0.5,0.44,0.28,0.28,0.28,0.28,0.5,0.44,0.5,0.44,0.39,0.39,0.25,0.55,0.5,0.33,0.25,0.55,0.28,0.33,0.44,0.5,0.39,0.28,0.28,0.25,0.55,0.44,0.5,0.5,0.25,0.55,0.44,0.44,0.28,0.28,0.5,0.44,0.25,0.55,0.28,0.33,0.44,0.5,0.39,0.5,0.5,0.33,0.28,0.25,0.55,0.5,0.5,0.44,0.33,0.25,0.55,0.5,0.44,0.33,0.39,0.5,0.5,0.44,0.28,0.25,0.55,0.5,0.44,0.5,0.28,0.44,0.28,0.44,0.25,0.55,0.5,0.39,0.44,0.25,0.55,0.5,0.5,0.25" style="fill:rgb(0,0,0);font-family:TimesNewRomanPSMT;font-size:9.96px;stroke:none;">competitiveness of transit and active transport over personal vehicle use by </text>
  </g>
  <g begin="text">
   <text y="711.34" x="198.77,202.615,205.383,208.72,213.142,217.594,225.383,228.152,230.921,235.931,238.7,243.719,248.749,251.498,259.287,264.207,269.237,272.006,274.775,277.544,280.273,285.303,288.051,293.081,298.111,300.88,303.649,308.549,313.579,317.424,320.173,322.941,327.961,330.71,335.132,340.182,347.971,353.001,357.423,360.192,364.525,367.273,374.465,377.233,380.002,385.022,387.771,392.801,396.148,398.916,403.936,408.358,411.127,415.46,418.209,422.631,427.083,430.43,434.274,436.784,439.414,445.519,450.549,454.971,457.74,462.162,465.529,468.876,473.298,477.75,480.519,483.138,488.168,491.515,494.264,498.108,505.897,510.319,513.576,516.215" svgx:width="0.39,0.28,0.33,0.44,0.44,0.78,0.28,0.28,0.5,0.28,0.5,0.5,0.25,0.78,0.5,0.5,0.28,0.28,0.28,0.28,0.5,0.25,0.5,0.5,0.28,0.28,0.5,0.5,0.39,0.25,0.28,0.5,0.25,0.44,0.5,0.78,0.5,0.44,0.28,0.44,0.25,0.72,0.28,0.28,0.5,0.25,0.5,0.33,0.28,0.5,0.44,0.28,0.44,0.25,0.44,0.44,0.33,0.39,0.25,0.25,0.61,0.5,0.44,0.25,0.44,0.33,0.33,0.44,0.44,0.28,0.25,0.5,0.33,0.25,0.39,0.78,0.44,0.33,0.28,0.25" style="fill:rgb(0,0,0);font-family:TimesNewRomanPSMT;font-size:9.96px;stroke:none;">streamlining mobility options to compete with private cars. The effect of smart </text>
  </g>
  <g begin="text">
   <text y="724.06" x="198.77,206.559,211.588,216.618,219.387,222.156,224.925,227.654,232.684,235.194,240.223,245.253,247.763,250.532,255.552,259.974,262.504,269.695,276.886,284.077,286.617,291.039,298.848,301.617,305.452,309.296,312.065,317.204,322.234,326.079,328.589,331.935,335.282,340.312,348.1,350.61,353.379,358.399,362.821,365.351,368.12,371.457,375.879,380.929,384.773,389.803,394.833,398.179,400.948,403.438,407.313,411.735,416.157,418.926,423.966,427.312,429.822,432.591,436.426,438.936,443.965,448.995,453.417,457.87,461.216,463.985,468.407,471.176" svgx:width="0.78,0.5,0.5,0.28,0.28,0.28,0.28,0.5,0.25,0.5,0.5,0.25,0.28,0.5,0.44,0.25,0.72,0.72,0.72,0.25,0.44,0.78,0.28,0.39,0.39,0.28,0.5,0.5,0.39,0.25,0.33,0.33,0.5,0.78,0.25,0.28,0.5,0.44,0.25,0.28,0.33,0.44,0.5,0.39,0.5,0.5,0.33,0.28,0.25,0.39,0.44,0.44,0.28,0.5,0.33,0.25,0.28,0.39,0.25,0.5,0.5,0.44,0.44,0.33,0.28,0.44,0.28,0.5" style="fill:rgb(0,0,0);font-family:TimesNewRomanPSMT;font-size:9.96px;stroke:none;">mobility on the GHG emissions from the transport sector is uncertain</text>
  </g>
  <g begin="text">
   <text y="724.06" x="476.62" svgx:width="0.25" style="fill:rgb(0,0,0);font-family:TimesNewRomanPSMT;font-size:9.96px;stroke:none;"> </text>
  </g>
  <g begin="text">
   <text y="724.06" x="479.14,482.487,489.09,492.437,496.859,501.909,504.677,509.1,511.749,516.669" svgx:width="0.33,0.67,0.33,0.44,0.5,0.28,0.44,0.28,0.5,0.25" style="fill:rgb(0,0,0);font-family:TimesNewRomanPSMT;font-size:9.96px;stroke:none;">(Creutzig </text>
  </g>
  <g begin="text">
   <text y="736.66" x="198.77,203.8,208.83,213.859,218.78" svgx:width="0.5,0.5,0.5,0.5,0.33" style="fill:rgb(0,0,0);font-family:TimesNewRomanPSMT;font-size:9.96px;stroke:none;">2021)</text>
  </g>
  <g begin="text">
   <text y="736.66" x="222.17" svgx:width="0.25" style="fill:rgb(0,0,0);font-family:TimesNewRomanPSMT;font-size:9.96px;stroke:none;">.</text>
  </g>
  <g begin="text">
   <text y="736.66" x="224.57" svgx:width="0.25" style="fill:rgb(0,0,0);font-family:TimesNewRomanPSMT;font-size:9.96px;stroke:none;"> </text>
  </g>
  <path style="fill:rgb(0,0,0);stroke:none;stroke-width:1.0;" d="M72.020 183.860 L72.500 183.860 L72.500 184.340 L72.020 184.340 L72.020 183.860 "/>
  <path style="fill:rgb(0,0,0);stroke:none;stroke-width:1.0;" d="M193.130 183.860 L193.610 183.860 L193.610 184.340 L193.130 184.340 L193.130 183.860 "/>
  <path style="fill:rgb(0,0,0);stroke:none;stroke-width:1.0;" d="M521.860 183.860 L522.340 183.860 L522.340 184.340 L521.860 184.340 L521.860 183.860 "/>
  <path style="fill:rgb(0,0,0);stroke:none;stroke-width:1.0;" d="M72.020 95.900 L72.500 95.900 L72.500 183.860 L72.020 183.860 L72.020 95.900 "/>
  <path style="fill:rgb(0,0,0);stroke:none;stroke-width:1.0;" d="M72.020 95.420 L72.500 95.420 L72.500 95.900 L72.020 95.900 L72.020 95.420 "/>
  <path style="fill:rgb(0,0,0);stroke:none;stroke-width:1.0;" d="M72.020 95.420 L72.500 95.420 L72.500 95.900 L72.020 95.900 L72.020 95.420 "/>
  <path style="fill:rgb(0,0,0);stroke:none;stroke-width:1.0;" d="M193.130 95.900 L193.610 95.900 L193.610 183.860 L193.130 183.860 L193.130 95.900 "/>
  <path style="fill:rgb(0,0,0);stroke:none;stroke-width:1.0;" d="M193.130 95.420 L193.610 95.420 L193.610 95.900 L193.130 95.900 L193.130 95.420 "/>
  <path style="fill:rgb(0,0,0);stroke:none;stroke-width:1.0;" d="M521.860 95.900 L522.340 95.900 L522.340 183.860 L521.860 183.860 L521.860 95.900 "/>
  <path style="fill:rgb(0,0,0);stroke:none;stroke-width:1.0;" d="M521.860 95.420 L522.340 95.420 L522.340 95.900 L521.860 95.900 L521.860 95.420 "/>
  <path style="fill:rgb(0,0,0);stroke:none;stroke-width:1.0;" d="M521.860 95.420 L522.340 95.420 L522.340 95.900 L521.860 95.900 L521.860 95.420 "/>
  <g begin="text">
   <text y="602.109" transform="matrix(0.70711,-0.70711,0.70711,0.70711,-395.12956,250.29085)" rotateDegrees="-45" matrix="[29.803345,29.803345,-29.803345,29.803345,104.563255,239.8115]" x="104.563" svgx:width="0.67" style="fill:rgb(0,0,0);font-family:Arial;font-size:42.15px;stroke:none;">A</text>
   <text y="582.23" transform="matrix(0.70711,-0.70711,0.70711,0.70711,-375.25056,258.525)" rotateDegrees="-45" matrix="[29.803345,29.803345,-29.803345,29.803345,124.442085,259.6903]" x="124.442" svgx:width="0.72" style="fill:rgb(0,0,0);font-family:Arial;font-size:42.15px;stroke:none;">C</text>
   <text y="560.712" transform="matrix(0.70711,-0.70711,0.70711,0.70711,-353.73256,267.43805)" rotateDegrees="-45" matrix="[29.803345,29.803345,-29.803345,29.803345,145.9601,281.20834]" x="145.96" svgx:width="0.72" style="fill:rgb(0,0,0);font-family:Arial;font-size:42.15px;stroke:none;">C</text>
   <text y="539.194" transform="matrix(0.70711,-0.70711,0.70711,0.70711,-332.21456,276.3511)" rotateDegrees="-45" matrix="[29.803345,29.803345,-29.803345,29.803345,167.47812,302.72635]" x="167.478" svgx:width="0.67" style="fill:rgb(0,0,0);font-family:Arial;font-size:42.15px;stroke:none;">E</text>
   <text y="519.315" transform="matrix(0.70711,-0.70711,0.70711,0.70711,-312.33556,284.58525)" rotateDegrees="-45" matrix="[29.803345,29.803345,-29.803345,29.803345,187.35693,322.60516]" x="187.357" svgx:width="0.67" style="fill:rgb(0,0,0);font-family:Arial;font-size:42.15px;stroke:none;">P</text>
   <text y="499.436" transform="matrix(0.70711,-0.70711,0.70711,0.70711,-292.45656,292.8194)" rotateDegrees="-45" matrix="[29.803345,29.803345,-29.803345,29.803345,207.23578,342.484]" x="207.236" svgx:width="0.61" style="fill:rgb(0,0,0);font-family:Arial;font-size:42.15px;stroke:none;">T</text>
   <text y="481.226" transform="matrix(0.70711,-0.70711,0.70711,0.70711,-274.24656,300.36223)" rotateDegrees="-45" matrix="[29.803345,29.803345,-29.803345,29.803345,225.44562,360.69385]" x="225.446" svgx:width="0.67" style="fill:rgb(0,0,0);font-family:Arial;font-size:42.15px;stroke:none;">E</text>
   <text y="461.347" transform="matrix(0.70711,-0.70711,0.70711,0.70711,-254.36786,308.59567)" rotateDegrees="-45" matrix="[29.803345,29.803345,-29.803345,29.803345,245.32443,380.57266]" x="245.324" svgx:width="0.72" style="fill:rgb(0,0,0);font-family:Arial;font-size:42.15px;stroke:none;">D</text>
   <text y="439.829" transform="matrix(0.70711,-0.70711,0.70711,0.70711,-232.84986,317.50872)" rotateDegrees="-45" matrix="[29.803345,29.803345,-29.803345,29.803345,266.84247,402.0907]" x="266.842" svgx:width="0.28" style="fill:rgb(0,0,0);font-family:Arial;font-size:42.15px;stroke:none;"> </text>
   <text y="431.54" transform="matrix(0.70711,-0.70711,0.70711,0.70711,-224.56056,320.94284)" rotateDegrees="-45" matrix="[29.803345,29.803345,-29.803345,29.803345,275.13153,410.37976]" x="275.132" svgx:width="0.67" style="fill:rgb(0,0,0);font-family:Arial;font-size:42.15px;stroke:none;">V</text>
   <text y="411.661" transform="matrix(0.70711,-0.70711,0.70711,0.70711,-204.68186,329.17629)" rotateDegrees="-45" matrix="[29.803345,29.803345,-29.803345,29.803345,295.0103,430.25858]" x="295.01" svgx:width="0.67" style="fill:rgb(0,0,0);font-family:Arial;font-size:42.15px;stroke:none;">E</text>
   <text y="391.783" transform="matrix(0.70711,-0.70711,0.70711,0.70711,-184.80356,337.41073)" rotateDegrees="-45" matrix="[29.803345,29.803345,-29.803345,29.803345,314.88916,450.1374]" x="314.889" svgx:width="0.72" style="fill:rgb(0,0,0);font-family:Arial;font-size:42.15px;stroke:none;">R</text>
   <text y="370.265" transform="matrix(0.70711,-0.70711,0.70711,0.70711,-163.28556,346.32378)" rotateDegrees="-45" matrix="[29.803345,29.803345,-29.803345,29.803345,336.40717,471.65543]" x="336.407" svgx:width="0.67" style="fill:rgb(0,0,0);font-family:Arial;font-size:42.15px;stroke:none;">S</text>
   <text y="350.386" transform="matrix(0.70711,-0.70711,0.70711,0.70711,-143.40656,354.55793)" rotateDegrees="-45" matrix="[29.803345,29.803345,-29.803345,29.803345,356.286,491.53424]" x="356.286" svgx:width="0.28" style="fill:rgb(0,0,0);font-family:Arial;font-size:42.15px;stroke:none;">I</text>
   <text y="342.1" transform="matrix(0.70711,-0.70711,0.70711,0.70711,-135.12086,357.9894)" rotateDegrees="-45" matrix="[29.803345,29.803345,-29.803345,29.803345,364.57135,499.81958]" x="364.571" svgx:width="0.78" style="fill:rgb(0,0,0);font-family:Arial;font-size:42.15px;stroke:none;">O</text>
   <text y="318.913" transform="matrix(0.70711,-0.70711,0.70711,0.70711,-111.93386,367.59377)" rotateDegrees="-45" matrix="[29.803345,29.803345,-29.803345,29.803345,387.7583,523.0066]" x="387.758" svgx:width="0.72" style="fill:rgb(0,0,0);font-family:Arial;font-size:42.15px;stroke:none;">N</text>
   <text y="297.395" transform="matrix(0.70711,-0.70711,0.70711,0.70711,-90.41586,376.50681)" rotateDegrees="-45" matrix="[29.803345,29.803345,-29.803345,29.803345,409.27637,544.5246]" x="409.276" svgx:width="0.28" style="fill:rgb(0,0,0);font-family:Arial;font-size:42.15px;stroke:none;"> </text>
   <text y="637.872" transform="matrix(0.70711,-0.70711,0.70711,0.70711,-409.94279,286.05456)" rotateDegrees="-45" matrix="[29.803345,29.803345,-29.803345,29.803345,140.32727,204.04747]" x="140.327" svgx:width="0.67" style="fill:rgb(0,0,0);font-family:Arial;font-size:42.15px;stroke:none;">S</text>
   <text y="617.994" transform="matrix(0.70711,-0.70711,0.70711,0.70711,-390.0645,294.289)" rotateDegrees="-45" matrix="[29.803345,29.803345,-29.803345,29.803345,160.2061,223.9263]" x="160.206" svgx:width="0.72" style="fill:rgb(0,0,0);font-family:Arial;font-size:42.15px;stroke:none;">U</text>
   <text y="596.476" transform="matrix(0.70711,-0.70711,0.70711,0.70711,-368.5465,303.20205)" rotateDegrees="-45" matrix="[29.803345,29.803345,-29.803345,29.803345,181.72412,245.4443]" x="181.724" svgx:width="0.67" style="fill:rgb(0,0,0);font-family:Arial;font-size:42.15px;stroke:none;">B</text>
   <text y="576.597" transform="matrix(0.70711,-0.70711,0.70711,0.70711,-348.6675,311.4362)" rotateDegrees="-45" matrix="[29.803345,29.803345,-29.803345,29.803345,201.60294,265.32315]" x="201.603" svgx:width="0.5" style="fill:rgb(0,0,0);font-family:Arial;font-size:42.15px;stroke:none;">J</text>
   <text y="561.695" transform="matrix(0.70711,-0.70711,0.70711,0.70711,-333.7655,317.60881)" rotateDegrees="-45" matrix="[29.803345,29.803345,-29.803345,29.803345,216.50462,280.22482]" x="216.505" svgx:width="0.67" style="fill:rgb(0,0,0);font-family:Arial;font-size:42.15px;stroke:none;">E</text>
   <text y="541.816" transform="matrix(0.70711,-0.70711,0.70711,0.70711,-313.88679,325.84225)" rotateDegrees="-45" matrix="[29.803345,29.803345,-29.803345,29.803345,236.38344,300.10364]" x="236.383" svgx:width="0.72" style="fill:rgb(0,0,0);font-family:Arial;font-size:42.15px;stroke:none;">C</text>
   <text y="520.298" transform="matrix(0.70711,-0.70711,0.70711,0.70711,-292.36879,334.7553)" rotateDegrees="-45" matrix="[29.803345,29.803345,-29.803345,29.803345,257.90146,321.62164]" x="257.901" svgx:width="0.61" style="fill:rgb(0,0,0);font-family:Arial;font-size:42.15px;stroke:none;">T</text>
   <text y="502.089" transform="matrix(0.70711,-0.70711,0.70711,0.70711,-274.1595,342.29842)" rotateDegrees="-45" matrix="[29.803345,29.803345,-29.803345,29.803345,276.1113,339.83148]" x="276.111" svgx:width="0.28" style="fill:rgb(0,0,0);font-family:Arial;font-size:42.15px;stroke:none;"> </text>
   <text y="493.803" transform="matrix(0.70711,-0.70711,0.70711,0.70711,-265.8735,345.7306)" rotateDegrees="-45" matrix="[29.803345,29.803345,-29.803345,29.803345,284.39664,348.11682]" x="284.397" svgx:width="0.61" style="fill:rgb(0,0,0);font-family:Arial;font-size:42.15px;stroke:none;">T</text>
   <text y="475.593" transform="matrix(0.70711,-0.70711,0.70711,0.70711,-247.66379,353.27272)" rotateDegrees="-45" matrix="[29.803345,29.803345,-29.803345,29.803345,302.60648,366.32666]" x="302.606" svgx:width="0.78" style="fill:rgb(0,0,0);font-family:Arial;font-size:42.15px;stroke:none;">O</text>
   <text y="452.406" transform="matrix(0.70711,-0.70711,0.70711,0.70711,-224.47679,362.87709)" rotateDegrees="-45" matrix="[29.803345,29.803345,-29.803345,29.803345,325.79346,389.51367]" x="325.793" svgx:width="0.28" style="fill:rgb(0,0,0);font-family:Arial;font-size:42.15px;stroke:none;"> </text>
   <text y="444.136" transform="matrix(0.70711,-0.70711,0.70711,0.70711,-216.2065,366.30334)" rotateDegrees="-45" matrix="[29.803345,29.803345,-29.803345,29.803345,334.0639,397.78412]" x="334.064" svgx:width="0.61" style="fill:rgb(0,0,0);font-family:Arial;font-size:42.15px;stroke:none;">F</text>
   <text y="425.926" transform="matrix(0.70711,-0.70711,0.70711,0.70711,-197.9965,373.84617)" rotateDegrees="-45" matrix="[29.803345,29.803345,-29.803345,29.803345,352.27374,415.99396]" x="352.274" svgx:width="0.28" style="fill:rgb(0,0,0);font-family:Arial;font-size:42.15px;stroke:none;">I</text>
   <text y="417.641" transform="matrix(0.70711,-0.70711,0.70711,0.70711,-189.7115,377.27793)" rotateDegrees="-45" matrix="[29.803345,29.803345,-29.803345,29.803345,360.55908,424.2793]" x="360.559" svgx:width="0.72" style="fill:rgb(0,0,0);font-family:Arial;font-size:42.15px;stroke:none;">N</text>
   <text y="396.123" transform="matrix(0.70711,-0.70711,0.70711,0.70711,-168.1935,386.19098)" rotateDegrees="-45" matrix="[29.803345,29.803345,-29.803345,29.803345,382.0771,445.7973]" x="382.077" svgx:width="0.67" style="fill:rgb(0,0,0);font-family:Arial;font-size:42.15px;stroke:none;">A</text>
   <text y="376.244" transform="matrix(0.70711,-0.70711,0.70711,0.70711,-148.3145,394.42513)" rotateDegrees="-45" matrix="[29.803345,29.803345,-29.803345,29.803345,401.95593,465.67615]" x="401.956" svgx:width="0.56" style="fill:rgb(0,0,0);font-family:Arial;font-size:42.15px;stroke:none;">L</text>
   <text y="359.673" transform="matrix(0.70711,-0.70711,0.70711,0.70711,-131.7435,401.28906)" rotateDegrees="-45" matrix="[29.803345,29.803345,-29.803345,29.803345,418.5266,482.24677]" x="418.527" svgx:width="0.28" style="fill:rgb(0,0,0);font-family:Arial;font-size:42.15px;stroke:none;"> </text>
   <text y="351.394" transform="matrix(0.70711,-0.70711,0.70711,0.70711,-123.4645,404.71834)" rotateDegrees="-45" matrix="[29.803345,29.803345,-29.803345,29.803345,426.80573,490.52588]" x="426.806" svgx:width="0.67" style="fill:rgb(0,0,0);font-family:Arial;font-size:42.15px;stroke:none;">E</text>
   <text y="331.515" transform="matrix(0.70711,-0.70711,0.70711,0.70711,-103.5855,412.95249)" rotateDegrees="-45" matrix="[29.803345,29.803345,-29.803345,29.803345,446.68457,510.40472]" x="446.685" svgx:width="0.72" style="fill:rgb(0,0,0);font-family:Arial;font-size:42.15px;stroke:none;">D</text>
   <text y="309.997" transform="matrix(0.70711,-0.70711,0.70711,0.70711,-82.0675,421.86554)" rotateDegrees="-45" matrix="[29.803345,29.803345,-29.803345,29.803345,468.2025,531.9227]" x="468.203" svgx:width="0.28" style="fill:rgb(0,0,0);font-family:Arial;font-size:42.15px;stroke:none;">I</text>
   <text y="301.712" transform="matrix(0.70711,-0.70711,0.70711,0.70711,-73.7825,425.29729)" rotateDegrees="-45" matrix="[29.803345,29.803345,-29.803345,29.803345,476.48785,540.20807]" x="476.488" svgx:width="0.61" style="fill:rgb(0,0,0);font-family:Arial;font-size:42.15px;stroke:none;">T</text>
   <text y="283.502" transform="matrix(0.70711,-0.70711,0.70711,0.70711,-55.5725,432.84012)" rotateDegrees="-45" matrix="[29.803345,29.803345,-29.803345,29.803345,494.6977,558.4179]" x="494.698" svgx:width="0.67" style="fill:rgb(0,0,0);font-family:Arial;font-size:42.15px;stroke:none;">S</text>
  </g>
 </g>
</svg>
