<?xml version="1.0" encoding="UTF-8"?>
<svg height="813.04" width="536.42" xmlns="http://www.w3.org/2000/svg">
 <g id="page" xmlns:svgx="http://www.xml-cml.org/schema/svgx">
  <g begin="text">
   <text y="46.56" x="72.024,78.624,81.96,87.96,93.288,96.624,99.624,108.288,114.288,120.288,125.652,129.648,135.648,144.984,150.252,156.252,159.588,162.588,171.252,174.588,179.28,182.616,186.612,189.948,195.948,201.948,205.308,208.644,214.644" svgx:width="0.56,0.28,0.5,0.44,0.28,0.25,0.72,0.5,0.5,0.44,0.33,0.5,0.78,0.44,0.5,0.28,0.25,0.72,0.28,0.39,0.28,0.33,0.28,0.5,0.5,0.28,0.28,0.5,0.5" style="fill:rgb(0,0,0);font-family:TimesNewRomanPSMT;font-size:12.0px;stroke:none;">Final Government Distribution</text>
  </g>
  <g begin="text">
   <text y="46.56" x="220.73" svgx:width="0.25" style="fill:rgb(0,0,0);font-family:TimesNewRomanPSMT;font-size:11.04px;stroke:none;"> </text>
  </g>
  <g begin="text">
   <text y="46.56" x="273.41,280.729,286.249,291.151,296.671,299.796,304.598,308.307,311.067,316.587" svgx:width="0.67,0.5,0.44,0.5,0.28,0.44,0.33,0.25,0.5,0.5" style="fill:rgb(0,0,0);font-family:TimesNewRomanPSMT;font-size:11.04px;stroke:none;">Chapter 10</text>
  </g>
  <g begin="text">
   <text y="46.56" x="322.03" svgx:width="0.25" style="fill:rgb(0,0,0);font-family:TimesNewRomanPSMT;font-size:11.04px;stroke:none;"> </text>
  </g>
  <g begin="text">
   <text y="46.56" x="436.03,439.87,446.578,454.606,462.634,465.634,474.298,482.302,488.302,491.302,502.594,511.342,515.338,519.262" svgx:width="0.33,0.56,0.67,0.67,0.25,0.72,0.67,0.5,0.25,0.94,0.72,0.33,0.33,0.33" style="fill:rgb(0,0,0);font-family:TimesNewRomanPSMT;font-size:12.0px;stroke:none;">IPCC AR6 WGIII</text>
  </g>
  <g begin="text">
   <text y="46.56" x="523.42" svgx:width="0.25" style="fill:rgb(0,0,0);font-family:TimesNewRomanPSMT;font-size:12.0px;stroke:none;"> </text>
  </g>
  <g begin="text">
   <text y="803.04" x="72.024,79.94,85.46,88.22,96.135,101.655,105.365,108.125,116.04,119.154,122.753,127.655,130.415,133.075,141.708,147.847,153.367,157.043,161.868,164.628,170.148,175.049,177.809,185.78,188.75,192.945,196.655,201.556,204.681,210.819,216.803,220.512" svgx:width="0.72,0.5,0.25,0.72,0.5,0.33,0.25,0.72,0.28,0.33,0.44,0.25,0.25,0.78,0.56,0.5,0.33,0.44,0.25,0.5,0.44,0.25,0.72,0.28,0.39,0.33,0.44,0.28,0.56,0.56,0.33,0.44" style="fill:rgb(0,0,0);font-family:TimesNewRomanPS-BoldMT;font-size:11.04px;stroke:none;">Do Not Cite, Quote or Distribute</text>
  </g>
  <g begin="text">
   <text y="803.04" x="225.41" svgx:width="0.25" style="fill:rgb(0,0,0);font-family:TimesNewRomanPS-BoldMT;font-size:11.04px;stroke:none;"> </text>
  </g>
  <g begin="text">
   <text y="803.04" x="282.05,287.57" svgx:width="0.5,0.5" style="fill:rgb(0,0,0);font-family:TimesNewRomanPSMT;font-size:11.04px;stroke:none;">10</text>
  </g>
  <g begin="text">
   <text y="803.04" x="293.09" svgx:width="0.33" style="fill:rgb(0,0,0);font-family:TimesNewRomanPS-BoldMT;font-size:11.04px;stroke:none;">-</text>
  </g>
  <g begin="text">
   <text y="803.04" x="296.81,302.33,307.85" svgx:width="0.5,0.5,0.5" style="fill:rgb(0,0,0);font-family:TimesNewRomanPSMT;font-size:11.04px;stroke:none;">160</text>
  </g>
  <g begin="text">
   <text y="803.04" x="313.39" svgx:width="0.25" style="fill:rgb(0,0,0);font-family:TimesNewRomanPSMT;font-size:11.04px;stroke:none;"> </text>
  </g>
  <g begin="text">
   <text y="803.04" x="316.03" svgx:width="0.25" style="fill:rgb(0,0,0);font-family:TimesNewRomanPSMT;font-size:11.04px;stroke:none;"> </text>
  </g>
  <g begin="text">
   <text y="803.04" x="450.1,456.845,462.365,465.435,470.259,473.372,476.132,481.652,486.554,491.975,496.876,501.204,504.207" svgx:width="0.61,0.5,0.28,0.44,0.28,0.25,0.5,0.44,0.5,0.44,0.39,0.28,0.25" style="fill:rgb(0,0,0);font-family:TimesNewRomanPSMT;font-size:11.04px;stroke:none;">Total pages: </text>
  </g>
  <g begin="text">
   <text y="803.04" x="506.98,512.5,518.02" svgx:width="0.5,0.5,0.5" style="fill:rgb(0,0,0);font-family:TimesNewRomanPSMT;font-size:11.04px;stroke:none;">176</text>
  </g>
  <g begin="text">
   <text y="803.04" x="523.42" svgx:width="0.25" style="fill:rgb(0,0,0);font-family:TimesNewRomanPSMT;font-size:9.96px;stroke:none;"> </text>
  </g>
  <g begin="text">
   <text y="82.32" x="72.024,76.319,79.454,84.974,90.494,95.892" svgx:width="0.39,0.28,0.5,0.5,0.5,0.25" style="fill:rgb(0,0,0);font-family:TimesNewRomanPSMT;font-size:11.04px;stroke:none;">study </text>
  </g>
  <g begin="text">
   <text y="82.32" x="98.664,102.373,109.693,115.091,118.801,124.321,129.841,134.643,143.277,145.915,150.817,153.941,156.58,161.482,164.606,167.244,170.004,175.524,181.044,186.564,191.963" svgx:width="0.33,0.67,0.5,0.33,0.5,0.5,0.44,0.78,0.25,0.44,0.28,0.25,0.44,0.28,0.25,0.25,0.5,0.5,0.5,0.5,0.33" style="fill:rgb(0,0,0);font-family:TimesNewRomanPSMT;font-size:11.04px;stroke:none;">(Burnham et al. 2021)</text>
  </g>
  <g begin="text">
   <text y="82.32" x="195.77,198.53,201.29,208.035,213.555,218.325,222.619,227.554,230.314,235.713,240.614,243.739,249.137,254.039,258.367,261.005,265.3,270.82,275.755,281.153,283.913,287.027,292.425,297.327,300.087,303.708,309.228,312.231,315.344,318.104,321.703,326.605,332.125,337.645,342.459,345.219,348.928,353.73,359.25,364.77,368.369,371.483,376.384,381.904,384.565,390.085,395.605" svgx:width="0.25,0.25,0.61,0.5,0.44,0.39,0.44,0.25,0.5,0.44,0.28,0.5,0.44,0.39,0.25,0.39,0.5,0.44,0.5,0.25,0.28,0.5,0.44,0.25,0.33,0.5,0.28,0.28,0.25,0.33,0.44,0.5,0.5,0.44,0.25,0.33,0.44,0.5,0.5,0.33,0.28,0.44,0.5,0.25,0.5,0.5,0.25" style="fill:rgb(0,0,0);font-family:TimesNewRomanPSMT;font-size:11.04px;stroke:none;">. These values span the full range reported by </text>
  </g>
  <g begin="text">
   <text y="82.32" x="398.35,402.059,411.874,417.394,422.815,425.928,428.931,433.733,439.253,442.013,446.915,449.929,452.689,457.591,460.605,463.365,466.125,471.645,477.165,482.563,488.083" svgx:width="0.33,0.89,0.5,0.5,0.28,0.28,0.44,0.5,0.25,0.44,0.28,0.25,0.44,0.28,0.25,0.25,0.5,0.5,0.5,0.5,0.33" style="fill:rgb(0,0,0);font-family:TimesNewRomanPSMT;font-size:11.04px;stroke:none;">(Moultak et al. 2017)</text>
  </g>
  <g begin="text">
   <text y="82.32" x="491.86" svgx:width="0.25" style="fill:rgb(0,0,0);font-family:TimesNewRomanPSMT;font-size:11.04px;stroke:none;"> </text>
  </g>
  <g begin="text">
   <text y="82.32" x="494.5,498.209,503.729,507.328,510.088,513.202,518.6,523.403" svgx:width="0.33,0.5,0.33,0.25,0.28,0.5,0.44,0.25" style="fill:rgb(0,0,0);font-family:TimesNewRomanPSMT;font-size:11.04px;stroke:none;">for the </text>
  </g>
  <g begin="text">
   <text y="82.32" x="48.0" svgx:width="0.5" style="fill:rgb(0,0,0);font-family:TimesNewRomanPSMT;font-size:12.0px;stroke:none;">1</text>
  </g>
  <g begin="text">
   <text y="82.32" x="54.0" svgx:width="0.25" style="fill:rgb(0,0,0);font-family:TimesNewRomanPSMT;font-size:12.0px;stroke:none;"> </text>
  </g>
  <g begin="text">
   <text y="96.26" x="72.024,79.94,86.078,88.838,91.598,98.299,103.819,107.529,113.049,118.569,123.47,126.131,131.033,136.553,142.073,144.833,152.196,157.573,160.686,166.206,171.108,173.769,177.478,181.187,186.586,195.219,197.979,203.499,209.019,214.539" svgx:width="0.72,0.56,0.25,0.25,0.61,0.5,0.33,0.5,0.5,0.44,0.25,0.44,0.5,0.5,0.25,0.67,0.5,0.28,0.5,0.44,0.25,0.33,0.33,0.5,0.78,0.25,0.5,0.5,0.5,0.5" style="fill:rgb(0,0,0);font-family:TimesNewRomanPSMT;font-size:11.04px;stroke:none;">US, Europe and China from 2020</text>
  </g>
  <g begin="text">
   <text y="96.26" x="220.13" svgx:width="0.33" style="fill:rgb(0,0,0);font-family:TimesNewRomanPSMT;font-size:11.04px;stroke:none;">-</text>
  </g>
  <g begin="text">
   <text y="96.26" x="223.73,229.25,234.77,240.169,245.689,248.449" svgx:width="0.5,0.5,0.5,0.5,0.25,0.25" style="fill:rgb(0,0,0);font-family:TimesNewRomanPSMT;font-size:11.04px;stroke:none;">2030. </text>
  </g>
  <g begin="text">
   <text y="96.26" x="251.09" svgx:width="0.25" style="fill:rgb(0,0,0);font-family:TimesNewRomanPS-ItalicMT;font-size:11.04px;stroke:none;"> </text>
  </g>
  <g begin="text">
   <text y="96.26" x="48.0" svgx:width="0.5" style="fill:rgb(0,0,0);font-family:TimesNewRomanPSMT;font-size:12.0px;stroke:none;">2</text>
  </g>
  <g begin="text">
   <text y="96.26" x="54.0" svgx:width="0.25" style="fill:rgb(0,0,0);font-family:TimesNewRomanPSMT;font-size:12.0px;stroke:none;"> </text>
  </g>
  <g begin="text">
   <text y="116.18" x="72.024,78.769,84.289,89.191,91.819,96.72,102.24,107.054,110.167,115.687,119.882,122.996,127.29,129.84,135.36,139.655,144.48,148.774,151.435,156.337,158.876,161.989,165.698,171.097,175.999,181.519,184.058,187.171,190.174,193.773,198.675,201.799,204.802,213.435,218.238,220.876,226.396,230.106,232.744,238.143,243.663,246.302,251.822,256.624,261.526,265.257,269.452,272.091,276.993,282.513,288.033,290.572,295.474,300.994,306.514,311.934,316.836,319.96,322.478,331.111,334.114,337.227,342.129,346.942,352.462,357.364,360.025,365.423,369.133,371.771,377.291,382.811,388.331,390.97,396.49,402.01,407.53,410.168,415.567,424.2,426.839,432.237,437.139,441.467,446.368,451.888,454.549,459.948,465.468" svgx:width="0.61,0.5,0.44,0.25,0.44,0.5,0.44,0.28,0.5,0.39,0.28,0.39,0.25,0.5,0.39,0.44,0.39,0.25,0.44,0.25,0.28,0.33,0.5,0.44,0.5,0.25,0.28,0.28,0.33,0.44,0.28,0.28,0.78,0.44,0.25,0.5,0.33,0.25,0.5,0.5,0.25,0.5,0.44,0.44,0.33,0.39,0.25,0.44,0.5,0.5,0.25,0.44,0.5,0.5,0.5,0.44,0.28,0.25,0.78,0.28,0.28,0.44,0.44,0.5,0.44,0.25,0.5,0.33,0.25,0.5,0.5,0.5,0.25,0.5,0.5,0.5,0.25,0.5,0.78,0.25,0.5,0.44,0.39,0.44,0.5,0.25,0.5,0.5,0.25" style="fill:rgb(0,0,0);font-family:TimesNewRomanPSMT;font-size:11.04px;stroke:none;">The analysis uses a truck lifetime of 10 years and annual mileage of 140,000 km based on </text>
  </g>
  <g begin="text">
   <text y="116.18" x="468.34,472.049,479.369,484.768,488.477,493.997,499.517,504.319,512.953,515.47,520.372,523.385" svgx:width="0.33,0.67,0.5,0.33,0.5,0.5,0.44,0.78,0.25,0.44,0.28,0.25" style="fill:rgb(0,0,0);font-family:TimesNewRomanPSMT;font-size:11.04px;stroke:none;">(Burnham et </text>
  </g>
  <g begin="text">
   <text y="116.18" x="48.0" svgx:width="0.5" style="fill:rgb(0,0,0);font-family:TimesNewRomanPSMT;font-size:12.0px;stroke:none;">3</text>
  </g>
  <g begin="text">
   <text y="116.18" x="54.0" svgx:width="0.25" style="fill:rgb(0,0,0);font-family:TimesNewRomanPSMT;font-size:12.0px;stroke:none;"> </text>
  </g>
  <g begin="text">
   <text y="130.1" x="72.024,76.926,80.05,82.81,85.206,90.726,96.246,101.766,107.164" svgx:width="0.44,0.28,0.25,0.25,0.5,0.5,0.5,0.5,0.33" style="fill:rgb(0,0,0);font-family:TimesNewRomanPSMT;font-size:11.04px;stroke:none;">al. 2021)</text>
  </g>
  <g begin="text">
   <text y="130.1" x="110.9,113.66,116.056,123.971,129.491,131.887,136.789,140.41,144.119,149.021,153.835,156.948,160.061,165.46,170.361,172.779,178.299,183.201,188.622,191.625,197.145,202.046,207.566,209.984,215.504,219.214,221.609,227.129,232.649,235.045,238.158,243.557,249.077,254.597,259.499,263.826,266.111,269.821,275.341,280.739,289.969,292.365,297.885,301.594,303.99,312.513,317.414,322.934,325.948,334.582,339.98,348.613,351.009,356.529,361.431,366.951,369.965,375.485,380.386,385.906,388.324,393.844,397.554,399.949,405.469,410.989,413.275,416.388,421.908,427.428,432.826,437.728,442.056,445.765,448.161,451.164,455.458,457.887,462.789,467.117,471.312,476.832,485.355,490.257,495.777,498.194,503.714,508.616,512.833,517.735,523.156" svgx:width="0.25,0.25,0.72,0.5,0.25,0.44,0.33,0.33,0.44,0.44,0.28,0.28,0.5,0.44,0.25,0.5,0.44,0.5,0.28,0.5,0.44,0.5,0.25,0.5,0.33,0.25,0.5,0.5,0.25,0.28,0.5,0.5,0.5,0.44,0.39,0.25,0.33,0.5,0.5,0.83,0.25,0.5,0.33,0.25,0.78,0.44,0.5,0.28,0.78,0.5,0.78,0.25,0.5,0.44,0.5,0.28,0.5,0.44,0.5,0.25,0.5,0.33,0.25,0.5,0.5,0.25,0.28,0.5,0.5,0.5,0.44,0.39,0.33,0.25,0.28,0.39,0.25,0.44,0.39,0.39,0.5,0.78,0.44,0.5,0.25,0.5,0.44,0.39,0.44,0.5,0.25" style="fill:rgb(0,0,0);font-family:TimesNewRomanPSMT;font-size:11.04px;stroke:none;">. An effective payload of 17 tonnes (80% of maximum payload of 21 tonnes) is assumed based </text>
  </g>
  <g begin="text">
   <text y="130.1" x="48.0" svgx:width="0.5" style="fill:rgb(0,0,0);font-family:TimesNewRomanPSMT;font-size:12.0px;stroke:none;">4</text>
  </g>
  <g begin="text">
   <text y="130.1" x="54.0" svgx:width="0.25" style="fill:rgb(0,0,0);font-family:TimesNewRomanPSMT;font-size:12.0px;stroke:none;"> </text>
  </g>
  <g begin="text">
   <text y="144.02" x="72.024,77.544,83.064,85.824,86.773,90.373,95.274,100.794,106.314,109.935,113.049,117.95,123.371,126.131,127.08,131.982,137.403,142.305,145.926,150.827,156.347,161.161,163.921,164.87,169.772,173.393,177.103,182.004,186.818,189.821,192.824,198.344,203.245,206.005,206.977,212.497,217.299,222.819,225.933,231.331,236.233,241.753,244.51299999999998,245.363,249.658,255.178,260.598,269.231,272.234,275.348,278.351,283.252,288.772,291.532,292.504,297.902,303.422,306.182,307.132,314.937,318.647,324.167,329.687,335.207,340.727,345.529,348.289,349.238,357.154,361.956,365.07,368.183,373.703,379.102" svgx:width="0.5,0.5,0.25,0.55,0.33,0.44,0.5,0.5,0.33,0.28,0.44,0.5,0.25,0.55,0.44,0.5,0.44,0.33,0.44,0.5,0.44,0.25,0.55,0.44,0.33,0.33,0.44,0.44,0.28,0.28,0.5,0.44,0.25,0.55,0.5,0.44,0.5,0.28,0.5,0.44,0.5,0.25,0.55,0.39,0.5,0.5,0.78,0.28,0.28,0.28,0.44,0.5,0.25,0.55,0.5,0.5,0.25,0.55,0.72,0.33,0.5,0.5,0.5,0.5,0.44,0.25,0.55,0.72,0.44,0.28,0.28,0.5,0.5,0.44" style="fill:rgb(0,0,0);font-family:TimesNewRomanPSMT;font-size:11.04px;stroke:none;">on reported average effective payload submitted by Argonne Nationa</text>
  </g>
  <g begin="text">
   <text y="144.02" x="384.19,387.193,389.953,390.902,397.648,402.55,408.07,413.457,417.166,421.969,425.082,430.602,434.201,439.721,442.481,443.431,446.544,451.942,454.702,455.652,459.251,464.153,468.48,474.0,479.399,484.919,489.214,494.038,496.798,497.747,500.861,506.259,509.019,509.969,512.972,518.492,523.294" svgx:width="0.28,0.25,0.55,0.61,0.44,0.5,0.5,0.33,0.44,0.28,0.5,0.33,0.5,0.25,0.55,0.28,0.5,0.25,0.55,0.33,0.44,0.39,0.5,0.5,0.5,0.39,0.44,0.25,0.55,0.28,0.5,0.25,0.55,0.28,0.5,0.44,0.25" style="fill:rgb(0,0,0);font-family:TimesNewRomanPSMT;font-size:11.04px;stroke:none;">l Laboratory in response to the </text>
  </g>
  <g begin="text">
   <text y="144.02" x="48.0" svgx:width="0.5" style="fill:rgb(0,0,0);font-family:TimesNewRomanPSMT;font-size:12.0px;stroke:none;">5</text>
  </g>
  <g begin="text">
   <text y="144.02" x="54.0" svgx:width="0.25" style="fill:rgb(0,0,0);font-family:TimesNewRomanPSMT;font-size:12.0px;stroke:none;"> </text>
  </g>
  <g begin="text">
   <text y="157.94" x="72.024,75.623,81.761,89.059,96.378,99.138,100.209,106.955,114.252,122.168,124.92800000000001,125.999,131.519,136.42,139.545,144.347,147.107,148.178,153.08,158.5,161.614,164.616,169.518,174.442,177.445,180.558,186.078,191.477,194.237,195.308,200.21,205.023,208.136,211.25,213.888,216.648,217.719,225.635,228.39499999999998,229.466,234.864,237.977,242.173,247.074,252.594,258.114,263.535,266.648,269.408,270.358,274.067,278.969,281.983,286.885,289.645,290.727,296.125,299.835,302.59499999999997,303.544,308.943,318.172,320.932,321.881,324.995,329.19,331.95,333.021,338.541,342.835,347.66,353.18,355.94,358.7,359.771,365.169,370.071,374.399,379.3,384.721,387.481,388.552,394.072,399.471" svgx:width="0.33,0.56,0.67,0.67,0.25,0.55,0.61,0.67,0.72,0.25,0.55,0.5,0.44,0.28,0.44,0.25,0.55,0.44,0.5,0.28,0.28,0.44,0.44,0.28,0.28,0.5,0.5,0.25,0.55,0.44,0.44,0.28,0.28,0.25,0.25,0.55,0.72,0.25,0.55,0.5,0.28,0.39,0.44,0.5,0.5,0.5,0.28,0.25,0.55,0.33,0.44,0.28,0.44,0.25,0.55,0.5,0.33,0.25,0.55,0.5,0.83,0.25,0.55,0.28,0.39,0.25,0.55,0.5,0.39,0.44,0.5,0.25,0.25,0.55,0.5,0.44,0.39,0.44,0.5,0.25,0.55,0.5,0.5,0.25" style="fill:rgb(0,0,0);font-family:TimesNewRomanPSMT;font-size:11.04px;stroke:none;">IPCC LCA data collection call. A discount rate of 3% is used, based on </text>
  </g>
  <g begin="text">
   <text y="157.94" x="403.63,407.339,414.659,420.058,423.767,429.166,434.686,439.587,448.121,450.881,451.952,456.754,459.868,462.628,463.699,468.501,471.614,474.253,477.013,478.084,483.604,489.124,494.644,500.042" svgx:width="0.33,0.67,0.5,0.33,0.5,0.5,0.44,0.78,0.25,0.55,0.44,0.28,0.25,0.55,0.44,0.28,0.25,0.25,0.55,0.5,0.5,0.5,0.5,0.33" style="fill:rgb(0,0,0);font-family:TimesNewRomanPSMT;font-size:11.04px;stroke:none;">(Burnham et al. 2021)</text>
  </g>
  <g begin="text">
   <text y="157.94" x="503.86" svgx:width="0.25" style="fill:rgb(0,0,0);font-family:TimesNewRomanPSMT;font-size:11.04px;stroke:none;"> </text>
  </g>
  <g begin="text">
   <text y="157.94" x="507.58,512.482,518.002,523.422" svgx:width="0.44,0.5,0.5,0.25" style="fill:rgb(0,0,0);font-family:TimesNewRomanPSMT;font-size:11.04px;stroke:none;">and </text>
  </g>
  <g begin="text">
   <text y="157.94" x="48.0" svgx:width="0.5" style="fill:rgb(0,0,0);font-family:TimesNewRomanPSMT;font-size:12.0px;stroke:none;">6</text>
  </g>
  <g begin="text">
   <text y="157.94" x="54.0" svgx:width="0.25" style="fill:rgb(0,0,0);font-family:TimesNewRomanPSMT;font-size:12.0px;stroke:none;"> </text>
  </g>
  <g begin="text">
   <text y="171.86" x="72.024,76.926,82.446,87.966,92.293,95.296,99.591,102.616,107.518,113.038,116.052,118.81200000000001,120.236,128.151,131.154,134.268,139.788,142.548,143.861,146.975,152.495,157.297,160.057,161.481,165.776,171.196,176.098,179.222,184.025,187.138,189.898,191.212,196.732,199.845" svgx:width="0.44,0.5,0.5,0.39,0.28,0.39,0.28,0.44,0.5,0.28,0.25,0.55,0.72,0.28,0.28,0.5,0.25,0.55,0.28,0.5,0.44,0.25,0.55,0.39,0.5,0.44,0.28,0.44,0.28,0.25,0.55,0.5,0.28,0.39" style="fill:rgb(0,0,0);font-family:TimesNewRomanPSMT;font-size:11.04px;stroke:none;">consistent with the social dis</text>
  </g>
  <g begin="text">
   <text y="171.86" x="204.29,209.192,214.612,220.132,225.652,228.655,231.415,232.839,236.439,241.34,244.465,249.267,252.027,253.451,257.05,260.76,266.158,274.791,277.551,278.976,286.295,291.694,296.595,302.115,305.129,310.031,313.652,316.412,317.836,323.356,326.116,328.876,330.19,340.005,344.829,347.942,353.462,356.465,361.367,366.887,371.811,377.331,382.133,387.035,389.795,391.12,396.022,401.542,405.759,408.872,413.167,415.92699999999996,417.263,422.164,425.896,430.698,433.45799999999997,434.772,439.674,444.002,448.296,453.717,462.35,467.252,472.672,475.432,476.857,479.97,485.368,488.128,489.553,495.073,499.875,502.635,504.059,509.579,512.339,517.859,523.136" svgx:width="0.44,0.5,0.5,0.5,0.28,0.25,0.55,0.33,0.44,0.28,0.44,0.25,0.55,0.33,0.33,0.5,0.78,0.25,0.55,0.67,0.5,0.44,0.5,0.28,0.44,0.33,0.25,0.55,0.5,0.25,0.25,0.55,0.89,0.44,0.28,0.5,0.28,0.44,0.5,0.44,0.5,0.44,0.44,0.25,0.55,0.44,0.5,0.39,0.28,0.39,0.25,0.55,0.44,0.33,0.44,0.25,0.55,0.44,0.39,0.39,0.5,0.78,0.44,0.5,0.25,0.55,0.28,0.5,0.25,0.55,0.5,0.44,0.25,0.55,0.5,0.25,0.5,0.5,0.25" style="fill:rgb(0,0,0);font-family:TimesNewRomanPSMT;font-size:11.04px;stroke:none;">count rate from Chapter 3. Maintenance costs are assumed to be 0.15 </text>
  </g>
  <g begin="text">
   <text y="171.86" x="48.0" svgx:width="0.5" style="fill:rgb(0,0,0);font-family:TimesNewRomanPSMT;font-size:12.0px;stroke:none;">7</text>
  </g>
  <g begin="text">
   <text y="171.86" x="54.0" svgx:width="0.25" style="fill:rgb(0,0,0);font-family:TimesNewRomanPSMT;font-size:12.0px;stroke:none;"> </text>
  </g>
  <g begin="text">
   <text y="185.78" x="72.024,79.94,86.078,93.983,97.096,102.616,111.249,114.362,117.961,123.481,127.191,130.304,133.903,141.223,147.968,155.862,158.975,162.088,165.798,171.318,176.12,181.64,185.935,189.07,193.873,199.393,204.913,208.026,213.546,216.306,221.826,227.346,230.459,238.375,244.513,252.418,255.531,260.929,269.563,272.676,276.385,281.784,285.493,288.607,295.926,302.672,310.565,313.679,318.58,324.1,329.62,332.745,338.883,346.18,354.096,357.209,360.323,364.032,369.431,374.332,379.852,384.18,386.94,390.053,394.856,399.15,402.286,405.995,410.798,416.318,421.838,425.437,428.55,433.352,438.872,441.986,445.099,450.619" svgx:width="0.72,0.56,0.72,0.28,0.5,0.78,0.25,0.33,0.5,0.33,0.25,0.33,0.67,0.61,0.72,0.25,0.28,0.33,0.5,0.44,0.5,0.39,0.25,0.44,0.5,0.5,0.25,0.5,0.25,0.5,0.5,0.25,0.72,0.56,0.72,0.28,0.5,0.78,0.25,0.33,0.5,0.33,0.25,0.67,0.61,0.72,0.25,0.44,0.5,0.5,0.25,0.56,0.67,0.72,0.25,0.28,0.33,0.5,0.44,0.5,0.39,0.25,0.25,0.44,0.39,0.25,0.33,0.44,0.5,0.5,0.33,0.28,0.44,0.5,0.25,0.28,0.5,0.25" style="fill:rgb(0,0,0);font-family:TimesNewRomanPSMT;font-size:11.04px;stroke:none;">USD/km for ICEV trucks and 0.09 USD/km for BEV and FCV trucks, as reported in </text>
  </g>
  <g begin="text">
   <text y="185.78" x="454.06,457.769,465.089,470.488,474.197,479.717,485.237,490.039,498.673,501.786,506.588,509.702,512.815,517.717,520.731,523.369" svgx:width="0.33,0.67,0.5,0.33,0.5,0.5,0.44,0.78,0.25,0.44,0.28,0.25,0.44,0.28,0.25,0.25" style="fill:rgb(0,0,0);font-family:TimesNewRomanPSMT;font-size:11.04px;stroke:none;">(Burnham et al. </text>
  </g>
  <g begin="text">
   <text y="185.78" x="48.0" svgx:width="0.5" style="fill:rgb(0,0,0);font-family:TimesNewRomanPSMT;font-size:12.0px;stroke:none;">8</text>
  </g>
  <g begin="text">
   <text y="185.78" x="54.0" svgx:width="0.25" style="fill:rgb(0,0,0);font-family:TimesNewRomanPSMT;font-size:12.0px;stroke:none;"> </text>
  </g>
  <g begin="text">
   <text y="199.7" x="72.024,77.544,83.064,88.584,94.104" svgx:width="0.5,0.5,0.5,0.5,0.33" style="fill:rgb(0,0,0);font-family:TimesNewRomanPSMT;font-size:11.04px;stroke:none;">2021)</text>
  </g>
  <g begin="text">
   <text y="199.7" x="97.824" svgx:width="0.25" style="fill:rgb(0,0,0);font-family:TimesNewRomanPSMT;font-size:11.04px;stroke:none;">.</text>
  </g>
  <g begin="text">
   <text y="199.7" x="100.46" svgx:width="0.25" style="fill:rgb(0,0,0);font-family:TimesNewRomanPSMT;font-size:11.04px;stroke:none;"> </text>
  </g>
  <g begin="text">
   <text y="199.7" x="48.0" svgx:width="0.5" style="fill:rgb(0,0,0);font-family:TimesNewRomanPSMT;font-size:12.0px;stroke:none;">9</text>
  </g>
  <g begin="text">
   <text y="199.7" x="54.0" svgx:width="0.25" style="fill:rgb(0,0,0);font-family:TimesNewRomanPSMT;font-size:12.0px;stroke:none;"> </text>
  </g>
  <g begin="text">
   <text y="602.109" transform="matrix(0.70711,-0.70711,0.70711,0.70711,-395.12956,250.29085)" rotateDegrees="-45" matrix="[29.803345,29.803345,-29.803345,29.803345,104.563255,239.8115]" x="104.563" svgx:width="0.67" style="fill:rgb(0,0,0);font-family:Arial;font-size:42.15px;stroke:none;">A</text>
   <text y="582.23" transform="matrix(0.70711,-0.70711,0.70711,0.70711,-375.25056,258.525)" rotateDegrees="-45" matrix="[29.803345,29.803345,-29.803345,29.803345,124.442085,259.6903]" x="124.442" svgx:width="0.72" style="fill:rgb(0,0,0);font-family:Arial;font-size:42.15px;stroke:none;">C</text>
   <text y="560.712" transform="matrix(0.70711,-0.70711,0.70711,0.70711,-353.73256,267.43805)" rotateDegrees="-45" matrix="[29.803345,29.803345,-29.803345,29.803345,145.9601,281.20834]" x="145.96" svgx:width="0.72" style="fill:rgb(0,0,0);font-family:Arial;font-size:42.15px;stroke:none;">C</text>
   <text y="539.194" transform="matrix(0.70711,-0.70711,0.70711,0.70711,-332.21456,276.3511)" rotateDegrees="-45" matrix="[29.803345,29.803345,-29.803345,29.803345,167.47812,302.72635]" x="167.478" svgx:width="0.67" style="fill:rgb(0,0,0);font-family:Arial;font-size:42.15px;stroke:none;">E</text>
   <text y="519.315" transform="matrix(0.70711,-0.70711,0.70711,0.70711,-312.33556,284.58525)" rotateDegrees="-45" matrix="[29.803345,29.803345,-29.803345,29.803345,187.35693,322.60516]" x="187.357" svgx:width="0.67" style="fill:rgb(0,0,0);font-family:Arial;font-size:42.15px;stroke:none;">P</text>
   <text y="499.436" transform="matrix(0.70711,-0.70711,0.70711,0.70711,-292.45656,292.8194)" rotateDegrees="-45" matrix="[29.803345,29.803345,-29.803345,29.803345,207.23578,342.484]" x="207.236" svgx:width="0.61" style="fill:rgb(0,0,0);font-family:Arial;font-size:42.15px;stroke:none;">T</text>
   <text y="481.226" transform="matrix(0.70711,-0.70711,0.70711,0.70711,-274.24656,300.36223)" rotateDegrees="-45" matrix="[29.803345,29.803345,-29.803345,29.803345,225.44562,360.69385]" x="225.446" svgx:width="0.67" style="fill:rgb(0,0,0);font-family:Arial;font-size:42.15px;stroke:none;">E</text>
   <text y="461.347" transform="matrix(0.70711,-0.70711,0.70711,0.70711,-254.36786,308.59567)" rotateDegrees="-45" matrix="[29.803345,29.803345,-29.803345,29.803345,245.32443,380.57266]" x="245.324" svgx:width="0.72" style="fill:rgb(0,0,0);font-family:Arial;font-size:42.15px;stroke:none;">D</text>
   <text y="439.829" transform="matrix(0.70711,-0.70711,0.70711,0.70711,-232.84986,317.50872)" rotateDegrees="-45" matrix="[29.803345,29.803345,-29.803345,29.803345,266.84247,402.0907]" x="266.842" svgx:width="0.28" style="fill:rgb(0,0,0);font-family:Arial;font-size:42.15px;stroke:none;"> </text>
   <text y="431.54" transform="matrix(0.70711,-0.70711,0.70711,0.70711,-224.56056,320.94284)" rotateDegrees="-45" matrix="[29.803345,29.803345,-29.803345,29.803345,275.13153,410.37976]" x="275.132" svgx:width="0.67" style="fill:rgb(0,0,0);font-family:Arial;font-size:42.15px;stroke:none;">V</text>
   <text y="411.661" transform="matrix(0.70711,-0.70711,0.70711,0.70711,-204.68186,329.17629)" rotateDegrees="-45" matrix="[29.803345,29.803345,-29.803345,29.803345,295.0103,430.25858]" x="295.01" svgx:width="0.67" style="fill:rgb(0,0,0);font-family:Arial;font-size:42.15px;stroke:none;">E</text>
   <text y="391.783" transform="matrix(0.70711,-0.70711,0.70711,0.70711,-184.80356,337.41073)" rotateDegrees="-45" matrix="[29.803345,29.803345,-29.803345,29.803345,314.88916,450.1374]" x="314.889" svgx:width="0.72" style="fill:rgb(0,0,0);font-family:Arial;font-size:42.15px;stroke:none;">R</text>
   <text y="370.265" transform="matrix(0.70711,-0.70711,0.70711,0.70711,-163.28556,346.32378)" rotateDegrees="-45" matrix="[29.803345,29.803345,-29.803345,29.803345,336.40717,471.65543]" x="336.407" svgx:width="0.67" style="fill:rgb(0,0,0);font-family:Arial;font-size:42.15px;stroke:none;">S</text>
   <text y="350.386" transform="matrix(0.70711,-0.70711,0.70711,0.70711,-143.40656,354.55793)" rotateDegrees="-45" matrix="[29.803345,29.803345,-29.803345,29.803345,356.286,491.53424]" x="356.286" svgx:width="0.28" style="fill:rgb(0,0,0);font-family:Arial;font-size:42.15px;stroke:none;">I</text>
   <text y="342.1" transform="matrix(0.70711,-0.70711,0.70711,0.70711,-135.12086,357.9894)" rotateDegrees="-45" matrix="[29.803345,29.803345,-29.803345,29.803345,364.57135,499.81958]" x="364.571" svgx:width="0.78" style="fill:rgb(0,0,0);font-family:Arial;font-size:42.15px;stroke:none;">O</text>
   <text y="318.913" transform="matrix(0.70711,-0.70711,0.70711,0.70711,-111.93386,367.59377)" rotateDegrees="-45" matrix="[29.803345,29.803345,-29.803345,29.803345,387.7583,523.0066]" x="387.758" svgx:width="0.72" style="fill:rgb(0,0,0);font-family:Arial;font-size:42.15px;stroke:none;">N</text>
   <text y="297.395" transform="matrix(0.70711,-0.70711,0.70711,0.70711,-90.41586,376.50681)" rotateDegrees="-45" matrix="[29.803345,29.803345,-29.803345,29.803345,409.27637,544.5246]" x="409.276" svgx:width="0.28" style="fill:rgb(0,0,0);font-family:Arial;font-size:42.15px;stroke:none;"> </text>
   <text y="637.872" transform="matrix(0.70711,-0.70711,0.70711,0.70711,-409.94279,286.05456)" rotateDegrees="-45" matrix="[29.803345,29.803345,-29.803345,29.803345,140.32727,204.04747]" x="140.327" svgx:width="0.67" style="fill:rgb(0,0,0);font-family:Arial;font-size:42.15px;stroke:none;">S</text>
   <text y="617.994" transform="matrix(0.70711,-0.70711,0.70711,0.70711,-390.0645,294.289)" rotateDegrees="-45" matrix="[29.803345,29.803345,-29.803345,29.803345,160.2061,223.9263]" x="160.206" svgx:width="0.72" style="fill:rgb(0,0,0);font-family:Arial;font-size:42.15px;stroke:none;">U</text>
   <text y="596.476" transform="matrix(0.70711,-0.70711,0.70711,0.70711,-368.5465,303.20205)" rotateDegrees="-45" matrix="[29.803345,29.803345,-29.803345,29.803345,181.72412,245.4443]" x="181.724" svgx:width="0.67" style="fill:rgb(0,0,0);font-family:Arial;font-size:42.15px;stroke:none;">B</text>
   <text y="576.597" transform="matrix(0.70711,-0.70711,0.70711,0.70711,-348.6675,311.4362)" rotateDegrees="-45" matrix="[29.803345,29.803345,-29.803345,29.803345,201.60294,265.32315]" x="201.603" svgx:width="0.5" style="fill:rgb(0,0,0);font-family:Arial;font-size:42.15px;stroke:none;">J</text>
   <text y="561.695" transform="matrix(0.70711,-0.70711,0.70711,0.70711,-333.7655,317.60881)" rotateDegrees="-45" matrix="[29.803345,29.803345,-29.803345,29.803345,216.50462,280.22482]" x="216.505" svgx:width="0.67" style="fill:rgb(0,0,0);font-family:Arial;font-size:42.15px;stroke:none;">E</text>
   <text y="541.816" transform="matrix(0.70711,-0.70711,0.70711,0.70711,-313.88679,325.84225)" rotateDegrees="-45" matrix="[29.803345,29.803345,-29.803345,29.803345,236.38344,300.10364]" x="236.383" svgx:width="0.72" style="fill:rgb(0,0,0);font-family:Arial;font-size:42.15px;stroke:none;">C</text>
   <text y="520.298" transform="matrix(0.70711,-0.70711,0.70711,0.70711,-292.36879,334.7553)" rotateDegrees="-45" matrix="[29.803345,29.803345,-29.803345,29.803345,257.90146,321.62164]" x="257.901" svgx:width="0.61" style="fill:rgb(0,0,0);font-family:Arial;font-size:42.15px;stroke:none;">T</text>
   <text y="502.089" transform="matrix(0.70711,-0.70711,0.70711,0.70711,-274.1595,342.29842)" rotateDegrees="-45" matrix="[29.803345,29.803345,-29.803345,29.803345,276.1113,339.83148]" x="276.111" svgx:width="0.28" style="fill:rgb(0,0,0);font-family:Arial;font-size:42.15px;stroke:none;"> </text>
   <text y="493.803" transform="matrix(0.70711,-0.70711,0.70711,0.70711,-265.8735,345.7306)" rotateDegrees="-45" matrix="[29.803345,29.803345,-29.803345,29.803345,284.39664,348.11682]" x="284.397" svgx:width="0.61" style="fill:rgb(0,0,0);font-family:Arial;font-size:42.15px;stroke:none;">T</text>
   <text y="475.593" transform="matrix(0.70711,-0.70711,0.70711,0.70711,-247.66379,353.27272)" rotateDegrees="-45" matrix="[29.803345,29.803345,-29.803345,29.803345,302.60648,366.32666]" x="302.606" svgx:width="0.78" style="fill:rgb(0,0,0);font-family:Arial;font-size:42.15px;stroke:none;">O</text>
   <text y="452.406" transform="matrix(0.70711,-0.70711,0.70711,0.70711,-224.47679,362.87709)" rotateDegrees="-45" matrix="[29.803345,29.803345,-29.803345,29.803345,325.79346,389.51367]" x="325.793" svgx:width="0.28" style="fill:rgb(0,0,0);font-family:Arial;font-size:42.15px;stroke:none;"> </text>
   <text y="444.136" transform="matrix(0.70711,-0.70711,0.70711,0.70711,-216.2065,366.30334)" rotateDegrees="-45" matrix="[29.803345,29.803345,-29.803345,29.803345,334.0639,397.78412]" x="334.064" svgx:width="0.61" style="fill:rgb(0,0,0);font-family:Arial;font-size:42.15px;stroke:none;">F</text>
   <text y="425.926" transform="matrix(0.70711,-0.70711,0.70711,0.70711,-197.9965,373.84617)" rotateDegrees="-45" matrix="[29.803345,29.803345,-29.803345,29.803345,352.27374,415.99396]" x="352.274" svgx:width="0.28" style="fill:rgb(0,0,0);font-family:Arial;font-size:42.15px;stroke:none;">I</text>
   <text y="417.641" transform="matrix(0.70711,-0.70711,0.70711,0.70711,-189.7115,377.27793)" rotateDegrees="-45" matrix="[29.803345,29.803345,-29.803345,29.803345,360.55908,424.2793]" x="360.559" svgx:width="0.72" style="fill:rgb(0,0,0);font-family:Arial;font-size:42.15px;stroke:none;">N</text>
   <text y="396.123" transform="matrix(0.70711,-0.70711,0.70711,0.70711,-168.1935,386.19098)" rotateDegrees="-45" matrix="[29.803345,29.803345,-29.803345,29.803345,382.0771,445.7973]" x="382.077" svgx:width="0.67" style="fill:rgb(0,0,0);font-family:Arial;font-size:42.15px;stroke:none;">A</text>
   <text y="376.244" transform="matrix(0.70711,-0.70711,0.70711,0.70711,-148.3145,394.42513)" rotateDegrees="-45" matrix="[29.803345,29.803345,-29.803345,29.803345,401.95593,465.67615]" x="401.956" svgx:width="0.56" style="fill:rgb(0,0,0);font-family:Arial;font-size:42.15px;stroke:none;">L</text>
   <text y="359.673" transform="matrix(0.70711,-0.70711,0.70711,0.70711,-131.7435,401.28906)" rotateDegrees="-45" matrix="[29.803345,29.803345,-29.803345,29.803345,418.5266,482.24677]" x="418.527" svgx:width="0.28" style="fill:rgb(0,0,0);font-family:Arial;font-size:42.15px;stroke:none;"> </text>
   <text y="351.394" transform="matrix(0.70711,-0.70711,0.70711,0.70711,-123.4645,404.71834)" rotateDegrees="-45" matrix="[29.803345,29.803345,-29.803345,29.803345,426.80573,490.52588]" x="426.806" svgx:width="0.67" style="fill:rgb(0,0,0);font-family:Arial;font-size:42.15px;stroke:none;">E</text>
   <text y="331.515" transform="matrix(0.70711,-0.70711,0.70711,0.70711,-103.5855,412.95249)" rotateDegrees="-45" matrix="[29.803345,29.803345,-29.803345,29.803345,446.68457,510.40472]" x="446.685" svgx:width="0.72" style="fill:rgb(0,0,0);font-family:Arial;font-size:42.15px;stroke:none;">D</text>
   <text y="309.997" transform="matrix(0.70711,-0.70711,0.70711,0.70711,-82.0675,421.86554)" rotateDegrees="-45" matrix="[29.803345,29.803345,-29.803345,29.803345,468.2025,531.9227]" x="468.203" svgx:width="0.28" style="fill:rgb(0,0,0);font-family:Arial;font-size:42.15px;stroke:none;">I</text>
   <text y="301.712" transform="matrix(0.70711,-0.70711,0.70711,0.70711,-73.7825,425.29729)" rotateDegrees="-45" matrix="[29.803345,29.803345,-29.803345,29.803345,476.48785,540.20807]" x="476.488" svgx:width="0.61" style="fill:rgb(0,0,0);font-family:Arial;font-size:42.15px;stroke:none;">T</text>
   <text y="283.502" transform="matrix(0.70711,-0.70711,0.70711,0.70711,-55.5725,432.84012)" rotateDegrees="-45" matrix="[29.803345,29.803345,-29.803345,29.803345,494.6977,558.4179]" x="494.698" svgx:width="0.67" style="fill:rgb(0,0,0);font-family:Arial;font-size:42.15px;stroke:none;">S</text>
  </g>
 </g>
</svg>
