<?xml version="1.0" encoding="UTF-8"?>
<svg height="683.74" width="699.0646" xmlns="http://www.w3.org/2000/svg">
 <g id="page" xmlns:svgx="http://www.xml-cml.org/schema/svgx">
  <g begin="text">
   <text y="84.18" x="149.34,162.0,170.941,174.114,177.833,181.551,185.27,188.443,194.323,201.824,209.384,214.245,219.225,222.65,230.143,237.636,242.497,245.922,253.423,260.916,264.089,269.01,276.51,279.684,284.543,292.037,299.055,302.228,308.827,312.252,318.671,323.591,331.084,334.258,342.716,348.295,353.874,360.892,366.473,372.053,383.512,390.53,398.023,402.883,406.056,413.913,420.931,428.491,435.992,441.031,445.982" svgx:width="0.91,0.64,0.23,0.27,0.27,0.27,0.23,0.42,0.54,0.54,0.35,0.35,0.25,0.54,0.54,0.35,0.25,0.54,0.54,0.23,0.35,0.54,0.23,0.35,0.54,0.5,0.23,0.47,0.25,0.46,0.35,0.54,0.23,0.61,0.4,0.4,0.5,0.4,0.4,0.81,0.5,0.54,0.35,0.23,0.56,0.5,0.54,0.54,0.35,0.35,0.23" style="fill:rgb(0,0,0);font-family:Calibri-Bold;font-size:13.98px;stroke:none;">WG III contribution to the Sixth Assessment Report </text>
   <text y="99.36" x="205.44,210.54,213.48,218.28,222.42,225.12,231.6,235.38,238.08,243.12,249.6,253.86,258.12,261.06,266.7,272.76,279.18,285.6,291.54,294.24,298.38,304.86,307.56,313.981,320.041,322.741,325.741,335.521,341.941,344.881,350.941,360.721,366.781,373.201,377.341,383.401,389.82" svgx:width="0.42,0.25,0.4,0.35,0.23,0.54,0.32,0.23,0.42,0.54,0.35,0.35,0.25,0.47,0.5,0.54,0.54,0.49,0.23,0.35,0.54,0.23,0.54,0.5,0.23,0.25,0.81,0.54,0.25,0.5,0.81,0.5,0.54,0.35,0.5,0.54,0.23" style="fill:rgb(0,0,0);font-family:Calibri-Bold;font-size:12.0px;stroke:none;">List of corrigenda to be implemented </text>
   <text y="112.92" x="94.92,101.64,107.756,113.871,116.935,122.456,128.572,132.232,135.892,138.351,144.467,150.527,156.643,162.759,168.875,171.938,174.398,176.858,182.378,185.441,191.557,197.673,200.736,206.796,212.912,215.372,221.488,229.407,232.471,240.391,242.85,245.31,247.77,250.834,256.95,263.066,266.065,268.525,277.645,283.761,286.22,292.336,301.456,307.572,313.688,316.751,322.932,329.048,332.111,334.571,340.686,343.75,346.813,352.929,359.045,362.108,370.028,376.144,382.26,388.376,391.439,397.555,401.215,404.278,410.394,416.51,420.169,422.63,428.746,434.862,437.925,443.385,449.501,455.617,461.224,464.88,470.996,477.112,479.571,482.635,485.094,491.21,497.326,500.345" svgx:width="0.61,0.56,0.56,0.28,0.5,0.56,0.33,0.33,0.22,0.56,0.56,0.56,0.56,0.56,0.28,0.22,0.22,0.5,0.28,0.56,0.56,0.28,0.56,0.56,0.22,0.56,0.72,0.28,0.72,0.22,0.22,0.22,0.28,0.56,0.56,0.28,0.22,0.83,0.56,0.22,0.56,0.83,0.56,0.56,0.28,0.56,0.56,0.28,0.22,0.56,0.28,0.28,0.56,0.56,0.28,0.72,0.56,0.56,0.56,0.28,0.56,0.33,0.28,0.56,0.56,0.33,0.22,0.56,0.56,0.28,0.5,0.56,0.56,0.5,0.33,0.56,0.56,0.22,0.28,0.22,0.56,0.56,0.28,0.28" style="fill:rgb(255,0,0);font-family:ArialMT;font-size:10.98px;stroke:none;">The corrigenda listed below will be implemented in the Chapter during copy-editing. </text>
   <text y="125.525" x="297.666" svgx:width="0.28" style="fill:rgb(255,0,0);font-family:ArialMT;font-size:10.98px;stroke:none;"> </text>
   <text y="135.48" x="70.86" svgx:width="0.23" style="fill:rgb(255,0,0);font-family:Calibri;font-size:7.98px;stroke:none;"> </text>
   <text y="150.96" x="70.86,78.241,87.061,95.519,103.02,109.919,116.759,124.616,127.859,134.933,142.074" svgx:width="0.53,0.63,0.61,0.53,0.5,0.49,0.56,0.23,0.51,0.51,0.23" style="fill:rgb(192,0,0);font-family:Calibri-Bold;font-size:13.98px;stroke:none;">CHAPTER 10 </text>
   <text y="165.24" x="70.86" svgx:width="0.23" style="fill:rgb(0,0,0);font-family:Calibri;font-size:10.98px;stroke:none;"> </text>
  </g>
  <path style="fill:rgb(217,225,242);stroke:none;stroke-width:1.0;" d="M71.340 610.260 L127.560 610.260 L127.560 673.260 L71.340 673.260 L71.340 610.260 "/>
  <path style="fill:rgb(217,225,242);stroke:none;stroke-width:1.0;" d="M76.500 661.020 L122.400 661.020 L122.400 673.260 L76.500 673.260 L76.500 661.020 "/>
  <g begin="text">
   <text y="178.14" x="77.82,84.12,89.52,93.719,99.058,107.215,112.255,117.655,121.074" svgx:width="0.63,0.54,0.42,0.54,0.81,0.5,0.54,0.35,0.23" style="fill:rgb(0,0,0);font-family:Calibri-Bold;font-size:10.02px;stroke:none;">Document </text>
  </g>
  <path style="fill:rgb(217,225,242);stroke:none;stroke-width:1.0;" d="M71.340 610.260 L127.560 610.260 L127.560 673.260 L71.340 673.260 L71.340 610.260 M76.500 648.840 L122.400 648.840 L122.400 661.020 L76.500 661.020 L76.500 648.840 "/>
  <g begin="text">
   <text y="190.38" x="80.04,83.16,88.44,93.841,98.76,104.16,107.637,112.677,116.217,118.797" svgx:width="0.31,0.53,0.54,0.49,0.54,0.35,0.5,0.35,0.26,0.23" style="fill:rgb(0,0,0);font-family:Calibri-Bold;font-size:10.02px;stroke:none;">(Chapter, </text>
  </g>
  <path style="fill:rgb(217,225,242);stroke:none;stroke-width:1.0;" d="M76.500 636.600 L122.400 636.600 L122.400 648.840 L76.500 648.840 L76.500 636.600 "/>
  <g begin="text">
   <text y="202.56" x="84.9,90.96,96.361,101.762,106.742,111.361,113.941" svgx:width="0.61,0.54,0.54,0.5,0.46,0.26,0.23" style="fill:rgb(0,0,0);font-family:Calibri-Bold;font-size:10.02px;stroke:none;">Annex, </text>
  </g>
  <path style="fill:rgb(217,225,242);stroke:none;stroke-width:1.0;" d="M76.500 624.420 L122.400 624.420 L122.400 636.600 L76.500 636.600 L76.500 624.420 "/>
  <g begin="text">
   <text y="214.8" x="87.66,92.4,97.8,103.141,108.541,111.176" svgx:width="0.47,0.54,0.54,0.54,0.27,0.23" style="fill:rgb(0,0,0);font-family:Calibri-Bold;font-size:10.02px;stroke:none;">Supp. </text>
  </g>
  <path style="fill:rgb(217,225,242);stroke:none;stroke-width:1.0;" d="M76.500 612.240 L122.400 612.240 L122.400 624.420 L76.500 624.420 L76.500 612.240 "/>
  <g begin="text">
   <text y="226.98" x="80.1,88.857,93.778,97.255,102.295,105.835,108.295,113.215,115.675,118.797" svgx:width="0.87,0.49,0.35,0.5,0.35,0.25,0.49,0.25,0.31,0.23" style="fill:rgb(0,0,0);font-family:Calibri-Bold;font-size:10.02px;stroke:none;">Material) </text>
  </g>
  <path style="fill:rgb(217,225,242);stroke:none;stroke-width:1.0;" d="M128.040 610.260 L184.260 610.260 L184.260 673.260 L128.040 673.260 L128.040 610.260 "/>
  <path style="fill:rgb(217,225,242);stroke:none;stroke-width:1.0;" d="M133.200 661.020 L179.100 661.020 L179.100 673.260 L133.200 673.260 L133.200 661.020 "/>
  <g begin="text">
   <text y="178.14" x="146.1,151.44,156.359,161.099" svgx:width="0.53,0.49,0.47,0.5" style="fill:rgb(0,0,0);font-family:Calibri-Bold;font-size:10.02px;stroke:none;">Page</text>
  </g>
  <g begin="text">
   <text y="178.14" x="166.14" svgx:width="0.23" style="fill:rgb(0,0,0);font-family:Calibri-Bold;font-size:10.02px;stroke:none;"> </text>
  </g>
  <path style="fill:rgb(217,225,242);stroke:none;stroke-width:1.0;" d="M128.040 610.260 L184.260 610.260 L184.260 673.260 L128.040 673.260 L128.040 610.260 M128.040 610.260 L184.260 610.260 L184.260 673.260 L128.040 673.260 L128.040 610.260 M133.200 648.840 L179.100 648.840 L179.100 661.020 L133.200 661.020 L133.200 648.840 "/>
  <g begin="text">
   <text y="190.38" x="135.6,138.72,144.362,149.281,153.299,158.279,163.68,165.96,171.3,176.701" svgx:width="0.31,0.56,0.49,0.4,0.5,0.54,0.23,0.54,0.54,0.23" style="fill:rgb(0,0,0);font-family:Calibri-Bold;font-size:10.02px;stroke:none;">(Based on </text>
  </g>
  <path style="fill:rgb(217,225,242);stroke:none;stroke-width:1.0;" d="M133.200 636.600 L179.100 636.600 L179.100 648.840 L133.200 648.840 L133.200 636.600 "/>
  <g begin="text">
   <text y="202.56" x="138.84,142.317,147.717,152.757,155.042,158.163,160.622,166.022,170.942,173.402" svgx:width="0.35,0.54,0.5,0.23,0.32,0.25,0.54,0.49,0.25,0.23" style="fill:rgb(0,0,0);font-family:Calibri-Bold;font-size:10.02px;stroke:none;">the final </text>
  </g>
  <path style="fill:rgb(217,225,242);stroke:none;stroke-width:1.0;" d="M133.200 624.420 L179.100 624.420 L179.100 636.600 L133.200 636.600 L133.200 624.420 "/>
  <g begin="text">
   <text y="214.8" x="139.38,144.781,150.182,153.302,155.586,160.206,166.565,172.865" svgx:width="0.54,0.54,0.32,0.23,0.46,0.64,0.63,0.23" style="fill:rgb(0,0,0);font-family:Calibri-Bold;font-size:10.02px;stroke:none;">pdf FGD </text>
  </g>
  <path style="fill:rgb(217,225,242);stroke:none;stroke-width:1.0;" d="M133.200 612.240 L179.100 612.240 L179.100 624.420 L133.200 624.420 L133.200 612.240 "/>
  <g begin="text">
   <text y="226.98" x="139.32,144.059,149.1,152.639,156.659,159.124,164.463,169.863,172.917" svgx:width="0.47,0.5,0.35,0.4,0.25,0.54,0.54,0.31,0.23" style="fill:rgb(0,0,0);font-family:Calibri-Bold;font-size:10.02px;stroke:none;">version) </text>
  </g>
  <path style="fill:rgb(217,225,242);stroke:none;stroke-width:1.0;" d="M184.740 610.260 L240.960 610.260 L240.960 673.260 L184.740 673.260 L184.740 610.260 "/>
  <path style="fill:rgb(217,225,242);stroke:none;stroke-width:1.0;" d="M189.900 661.020 L235.800 661.020 L235.800 673.260 L189.900 673.260 L189.900 661.020 "/>
  <g begin="text">
   <text y="178.14" x="204.3,208.559,211.019,216.42" svgx:width="0.42,0.25,0.54,0.5" style="fill:rgb(0,0,0);font-family:Calibri-Bold;font-size:10.02px;stroke:none;">Line</text>
  </g>
  <g begin="text">
   <text y="178.14" x="221.4" svgx:width="0.23" style="fill:rgb(0,0,0);font-family:Calibri-Bold;font-size:10.02px;stroke:none;"> </text>
  </g>
  <path style="fill:rgb(217,225,242);stroke:none;stroke-width:1.0;" d="M184.740 610.260 L240.960 610.260 L240.960 673.260 L184.740 673.260 L184.740 610.260 M184.740 610.260 L240.960 610.260 L240.960 673.260 L184.740 673.260 L184.740 610.260 "/>
  <g begin="text">
   <text y="178.14" x="292.14,298.44,303.48,306.96,311.879,314.339,316.799,321.839,327.239,329.524,331.923,337.323,340.5,345.9,349.38,357.537,362.456,365.936,368.396,373.797,379.137,381.416,386.756,392.157,394.436,398.575,403.976,407.516,411.055,416.095,420.294,423.774,426.234,431.634,436.974,439.254,442.735,448.074,450.354,458.51,463.43,468.169" svgx:width="0.63,0.5,0.35,0.49,0.25,0.25,0.5,0.54,0.23,0.25,0.54,0.32,0.54,0.35,0.81,0.49,0.35,0.25,0.54,0.54,0.23,0.54,0.54,0.23,0.42,0.54,0.35,0.35,0.5,0.42,0.35,0.25,0.54,0.54,0.23,0.35,0.54,0.23,0.81,0.49,0.48,0.5" style="fill:rgb(0,0,0);font-family:Calibri-Bold;font-size:10.02px;stroke:none;">Detailed information on correction to make</text>
  </g>
  <g begin="text">
   <text y="178.14" x="473.22" svgx:width="0.23" style="fill:rgb(0,0,0);font-family:Calibri-Bold;font-size:10.02px;stroke:none;"> </text>
  </g>
  <path style="fill:rgb(0,0,0);stroke:none;stroke-width:1.0;" d="M70.860 673.260 L71.340 673.260 L71.340 673.740 L70.860 673.740 L70.860 673.260 "/>
  <path style="fill:rgb(0,0,0);stroke:none;stroke-width:1.0;" d="M70.860 673.260 L71.340 673.260 L71.340 673.740 L70.860 673.740 L70.860 673.260 "/>
  <path style="fill:rgb(0,0,0);stroke:none;stroke-width:1.0;" d="M71.340 673.260 L127.560 673.260 L127.560 673.740 L71.340 673.740 L71.340 673.260 "/>
  <path style="fill:rgb(0,0,0);stroke:none;stroke-width:1.0;" d="M127.560 673.260 L128.040 673.260 L128.040 673.740 L127.560 673.740 L127.560 673.260 "/>
  <path style="fill:rgb(0,0,0);stroke:none;stroke-width:1.0;" d="M128.040 673.260 L184.260 673.260 L184.260 673.740 L128.040 673.740 L128.040 673.260 "/>
  <path style="fill:rgb(0,0,0);stroke:none;stroke-width:1.0;" d="M184.260 673.260 L184.740 673.260 L184.740 673.740 L184.260 673.740 L184.260 673.260 "/>
  <path style="fill:rgb(0,0,0);stroke:none;stroke-width:1.0;" d="M184.740 673.260 L240.960 673.260 L240.960 673.740 L184.740 673.740 L184.740 673.260 "/>
  <path style="fill:rgb(0,0,0);stroke:none;stroke-width:1.0;" d="M240.960 673.260 L241.440 673.260 L241.440 673.740 L240.960 673.740 L240.960 673.260 "/>
  <path style="fill:rgb(0,0,0);stroke:none;stroke-width:1.0;" d="M523.980 673.260 L524.460 673.260 L524.460 673.740 L523.980 673.740 L523.980 673.260 "/>
  <path style="fill:rgb(0,0,0);stroke:none;stroke-width:1.0;" d="M523.980 673.260 L524.460 673.260 L524.460 673.740 L523.980 673.740 L523.980 673.260 "/>
  <path style="fill:rgb(0,0,0);stroke:none;stroke-width:1.0;" d="M70.860 610.260 L71.340 610.260 L71.340 673.260 L70.860 673.260 L70.860 610.260 "/>
  <path style="fill:rgb(0,0,0);stroke:none;stroke-width:1.0;" d="M127.560 610.260 L128.040 610.260 L128.040 673.260 L127.560 673.260 L127.560 610.260 "/>
  <path style="fill:rgb(0,0,0);stroke:none;stroke-width:1.0;" d="M184.260 610.260 L184.740 610.260 L184.740 673.260 L184.260 673.260 L184.260 610.260 "/>
  <path style="fill:rgb(0,0,0);stroke:none;stroke-width:1.0;" d="M240.960 610.260 L241.440 610.260 L241.440 673.260 L240.960 673.260 L240.960 610.260 "/>
  <path style="fill:rgb(0,0,0);stroke:none;stroke-width:1.0;" d="M523.980 610.260 L524.460 610.260 L524.460 673.260 L523.980 673.260 L523.980 610.260 "/>
  <g begin="text">
   <text y="241.62" x="76.5,81.841,87.121,91.921,97.201,100.558,105.538,108.958,111.242,116.282" svgx:width="0.53,0.52,0.48,0.52,0.34,0.5,0.35,0.23,0.51,0.51" style="fill:rgb(0,0,0);font-family:Calibri;font-size:10.02px;stroke:none;">Chapter 10</text>
  </g>
  <g begin="text">
   <text y="241.62" x="121.32" svgx:width="0.23" style="fill:rgb(0,0,0);font-family:Calibri;font-size:10.02px;stroke:none;"> </text>
  </g>
  <g begin="text">
   <text y="241.62" x="133.2" svgx:width="0.51" style="fill:rgb(0,0,0);font-family:Calibri;font-size:10.02px;stroke:none;">6</text>
  </g>
  <g begin="text">
   <text y="241.62" x="138.24" svgx:width="0.23" style="fill:rgb(0,0,0);font-family:Calibri;font-size:10.02px;stroke:none;"> </text>
  </g>
  <g begin="text">
   <text y="241.62" x="189.9,195.0" svgx:width="0.51,0.51" style="fill:rgb(0,0,0);font-family:Calibri;font-size:10.02px;stroke:none;">12</text>
  </g>
  <g begin="text">
   <text y="241.62" x="200.1" svgx:width="0.31" style="fill:rgb(0,0,0);font-family:Calibri;font-size:10.02px;stroke:none;">-</text>
  </g>
  <g begin="text">
   <text y="241.62" x="203.1,208.2" svgx:width="0.51,0.51" style="fill:rgb(0,0,0);font-family:Calibri;font-size:10.02px;stroke:none;">14</text>
  </g>
  <g begin="text">
   <text y="241.62" x="213.24" svgx:width="0.23" style="fill:rgb(0,0,0);font-family:Calibri;font-size:10.02px;stroke:none;"> </text>
  </g>
  <g begin="text">
   <text y="241.62" x="246.6,252.06,257.04,262.32,264.595,269.394,273.595,278.575,281.275,283.495,288.115,293.394,301.375,306.295,308.575,310.855,313.13,316.489,321.469,324.946,329.747,333.107,338.387,341.864,346.844,349.123,353.021,358.242,362.982,367.661,372.641,376.539,379.9,383.798,386.077,389.438,394.717,399.517,402.878,405.097,410.077,414.396,419.675,421.956,424.23,428.431,430.705,434.065,436.345,440.906,443.185,445.466,450.745,455.005,457.285,462.505,467.785,470.06,475.28,480.019" svgx:width="0.54,0.5,0.52,0.23,0.48,0.42,0.5,0.27,0.23,0.46,0.53,0.8,0.5,0.23,0.23,0.23,0.34,0.5,0.35,0.48,0.34,0.52,0.35,0.5,0.23,0.39,0.52,0.47,0.47,0.5,0.39,0.34,0.39,0.23,0.34,0.52,0.48,0.34,0.23,0.5,0.43,0.52,0.23,0.23,0.42,0.23,0.34,0.23,0.45,0.23,0.23,0.52,0.42,0.23,0.52,0.52,0.23,0.52,0.47,0.23" style="fill:rgb(0,0,0);font-family:Calibri;font-size:10.02px;stroke:none;">Replace: Some literature suggests that explicitly including </text>
  </g>
  <g begin="text">
   <text y="253.86" x="246.6,248.88,254.16,257.52,262.5,265.98,271.26,276.06,279.421,281.7,286.98,292.2,297.001,299.28,301.565,305.464,310.745,313.026,318.306,323.587,325.867,331.088,335.827,338.112,342.851,348.132,353.351,355.636,360.435,364.935,367.216,372.015,375.375,377.655,382.935,388.216,390.495,395.716,400.996,406.277,411.257,414.737,416.956,420.317,425.536,430.516,432.801,437.54,442.821,447.321,452.3,455.78,461.061,465.8,471.081,475.339,480.259,482.48,487.759,490.819,493.104,496.464,501.744,506.665" svgx:width="0.23,0.52,0.34,0.5,0.35,0.52,0.48,0.34,0.23,0.53,0.52,0.48,0.23,0.23,0.39,0.52,0.23,0.52,0.52,0.23,0.52,0.47,0.23,0.48,0.52,0.52,0.23,0.48,0.45,0.23,0.48,0.34,0.23,0.53,0.52,0.23,0.52,0.52,0.52,0.5,0.35,0.23,0.34,0.52,0.5,0.23,0.47,0.53,0.45,0.5,0.35,0.52,0.48,0.52,0.42,0.5,0.23,0.53,0.31,0.23,0.34,0.52,0.5,0.23" style="fill:rgb(0,0,0);font-family:Calibri;font-size:10.02px;stroke:none;">international shipping and aviation under the governance of the </text>
   <text y="266.044" x="246.6,251.76,256.56,260.04,262.32,266.22,268.5,274.32,279.06,282.54,287.52,292.5,300.48,305.4,310.68,314.037,316.321,320.522,325.802,331.082,333.362,338.582,340.866,344.766,350.045,355.326,358.806,361.091,364.93,368.287,371.767,377.047,382.327,387.067,392.047,395.527,397.747,403.027,407.947,412.208,417.007,420.487,425.708,430.988,436.269,438.548,442.448,447.248,450.604,452.884,458.164,463.444,465.728,470.708,473.764,476.764,482.045,485.525,488.882,492.782,495.062,497.342,502.622" svgx:width="0.52,0.48,0.35,0.23,0.39,0.23,0.58,0.47,0.35,0.5,0.5,0.8,0.5,0.52,0.34,0.23,0.42,0.53,0.52,0.23,0.52,0.23,0.39,0.52,0.52,0.35,0.23,0.39,0.34,0.35,0.53,0.52,0.47,0.5,0.35,0.23,0.52,0.5,0.42,0.48,0.35,0.52,0.53,0.52,0.23,0.39,0.48,0.34,0.23,0.53,0.52,0.23,0.5,0.31,0.31,0.53,0.35,0.34,0.39,0.23,0.23,0.52,0.23" style="fill:rgb(0,0,0);font-family:Calibri;font-size:10.02px;stroke:none;">Paris Agreement could spur stronger decarbonisation efforts in </text>
   <text y="278.289" x="246.6,249.96,255.24,260.22,264.118,269.098,271.382,275.28,280.26,285.0,292.979,297.899,303.18,306.479,310.377,312.897,315.177" svgx:width="0.34,0.52,0.5,0.39,0.5,0.23,0.39,0.5,0.47,0.8,0.5,0.52,0.34,0.39,0.25,0.23,0.23" style="fill:rgb(0,0,0);font-family:Calibri;font-size:10.02px;stroke:none;">these segments. </text>
   <text y="290.473" x="246.6,253.744,256.019,259.38,264.659,267.301" svgx:width="0.71,0.23,0.34,0.52,0.27,0.23" style="fill:rgb(0,0,0);font-family:Calibri;font-size:10.02px;stroke:none;">with: </text>
   <text y="302.718" x="246.6,251.22,256.501,264.481,269.461,271.745,276.545,281.765,285.122,290.402,295.683,299.163,303.063,305.347,307.567,309.847,315.127,317.411,320.768,326.048,330.968,333.248,335.528,337.808,341.165,346.145,349.626,354.425,357.782,363.062,366.482,371.462,373.742,379.022,383.822,388.322,393.302,395.586,400.386,403.806,408.546,413.826,418.747,424.026,426.246,429.602,434.876,439.675,443.036,445.316,447.596,452.817,457.077,459.357,464.577,469.857,472.137,477.417,482.096,484.376" svgx:width="0.46,0.53,0.8,0.5,0.23,0.48,0.52,0.34,0.52,0.53,0.35,0.39,0.23,0.23,0.23,0.52,0.23,0.34,0.52,0.5,0.23,0.23,0.23,0.34,0.5,0.35,0.48,0.34,0.52,0.35,0.5,0.23,0.52,0.48,0.45,0.5,0.23,0.48,0.35,0.47,0.52,0.5,0.52,0.23,0.34,0.52,0.48,0.34,0.23,0.23,0.52,0.42,0.23,0.52,0.52,0.23,0.52,0.47,0.23,0.23" style="fill:rgb(0,0,0);font-family:Calibri;font-size:10.02px;stroke:none;">Some authors in the literature have argued that including </text>
   <text y="314.902" x="246.6,248.88,254.16,257.52,262.5,265.98,271.26,276.06,279.421,281.7,286.98,292.2,297.001,299.28,301.565,305.464,310.745,313.026,318.306,323.587,325.866,331.087,335.826,338.111,342.85,348.131,353.35,355.635,360.434,364.934,367.215,372.014,375.374,377.654,382.934,388.215,390.494,395.715,400.995,406.276,411.256,414.736,416.955,420.316,425.535,430.516,432.796,436.155,441.436,446.416,448.695,453.856,458.655,462.135,464.416,468.315,470.536,476.358,481.097,484.517,489.497,494.477,502.457,507.437,512.717,516.077" svgx:width="0.23,0.52,0.34,0.5,0.35,0.52,0.48,0.34,0.23,0.53,0.52,0.48,0.23,0.23,0.39,0.52,0.23,0.52,0.52,0.23,0.52,0.47,0.23,0.48,0.52,0.52,0.23,0.48,0.45,0.23,0.48,0.34,0.23,0.53,0.52,0.23,0.52,0.52,0.52,0.5,0.35,0.23,0.34,0.52,0.5,0.23,0.34,0.52,0.5,0.23,0.52,0.48,0.35,0.23,0.39,0.23,0.58,0.47,0.35,0.5,0.5,0.8,0.5,0.52,0.34,0.23" style="fill:rgb(0,0,0);font-family:Calibri;font-size:10.02px;stroke:none;">international shipping and aviation under the the Paris Agreement </text>
  </g>
  <g begin="text">
   <text y="327.12" x="246.6,250.859,256.139,261.42,263.7,268.92,271.204,275.104,280.384,285.665,289.085,291.369,295.269,298.629,302.109,307.329,312.61,317.349,322.329,325.809,328.03,333.31,338.29,342.549,347.348,350.768,356.048,361.328,366.548,368.828,372.729,377.528,380.888,383.169,388.448,393.729,396.008,400.988,404.048,407.108,412.389,415.869,419.229,423.128,425.413,427.632,432.913,435.192,438.552,443.833,448.813,452.712,457.632,459.917,463.817,468.796,473.536,481.516,486.436,491.716,495.077,498.977,501.497" svgx:width="0.42,0.53,0.52,0.23,0.52,0.23,0.39,0.52,0.52,0.35,0.23,0.39,0.34,0.35,0.53,0.52,0.47,0.5,0.35,0.23,0.52,0.5,0.42,0.48,0.35,0.52,0.53,0.52,0.23,0.39,0.48,0.34,0.23,0.53,0.52,0.23,0.5,0.31,0.31,0.53,0.35,0.34,0.39,0.23,0.23,0.52,0.23,0.34,0.52,0.5,0.39,0.5,0.23,0.39,0.5,0.47,0.8,0.5,0.52,0.34,0.39,0.25,0.23" style="fill:rgb(0,0,0);font-family:Calibri;font-size:10.02px;stroke:none;">could spur stronger decarbonisation efforts in these segments. </text>
  </g>
  <g begin="text">
   <text y="327.12" x="503.7" svgx:width="0.23" style="fill:rgb(0,0,0);font-family:Calibri;font-size:10.02px;stroke:none;"> </text>
  </g>
  <path style="fill:rgb(0,0,0);stroke:none;stroke-width:1.0;" d="M71.340 512.100 L127.560 512.100 L127.560 609.780 L71.340 609.780 L71.340 512.100 M71.340 512.100 L127.560 512.100 L127.560 609.780 L71.340 609.780 L71.340 512.100 M128.040 512.100 L184.260 512.100 L184.260 609.780 L128.040 609.780 L128.040 512.100 M128.040 512.100 L184.260 512.100 L184.260 609.780 L128.040 609.780 L128.040 512.100 M184.740 512.100 L240.960 512.100 L240.960 609.780 L184.740 609.780 L184.740 512.100 M184.740 512.100 L240.960 512.100 L240.960 609.780 L184.740 609.780 L184.740 512.100 M184.740 512.100 L240.960 512.100 L240.960 609.780 L184.740 609.780 L184.740 512.100 M184.740 512.100 L240.960 512.100 L240.960 609.780 L184.740 609.780 L184.740 512.100 M70.860 609.780 L71.340 609.780 L71.340 610.260 L70.860 610.260 L70.860 609.780 "/>
  <path style="fill:rgb(0,0,0);stroke:none;stroke-width:1.0;" d="M71.340 609.780 L127.560 609.780 L127.560 610.260 L71.340 610.260 L71.340 609.780 "/>
  <path style="fill:rgb(0,0,0);stroke:none;stroke-width:1.0;" d="M127.560 609.780 L128.040 609.780 L128.040 610.260 L127.560 610.260 L127.560 609.780 "/>
  <path style="fill:rgb(0,0,0);stroke:none;stroke-width:1.0;" d="M128.040 609.780 L184.260 609.780 L184.260 610.260 L128.040 610.260 L128.040 609.780 "/>
  <path style="fill:rgb(0,0,0);stroke:none;stroke-width:1.0;" d="M184.260 609.780 L184.740 609.780 L184.740 610.260 L184.260 610.260 L184.260 609.780 "/>
  <path style="fill:rgb(0,0,0);stroke:none;stroke-width:1.0;" d="M184.740 609.780 L240.960 609.780 L240.960 610.260 L184.740 610.260 L184.740 609.780 "/>
  <path style="fill:rgb(0,0,0);stroke:none;stroke-width:1.0;" d="M240.960 609.780 L241.440 609.780 L241.440 610.260 L240.960 610.260 L240.960 609.780 "/>
  <path style="fill:rgb(0,0,0);stroke:none;stroke-width:1.0;" d="M523.980 609.780 L524.460 609.780 L524.460 610.260 L523.980 610.260 L523.980 609.780 "/>
  <path style="fill:rgb(0,0,0);stroke:none;stroke-width:1.0;" d="M70.860 512.100 L71.340 512.100 L71.340 609.780 L70.860 609.780 L70.860 512.100 "/>
  <path style="fill:rgb(0,0,0);stroke:none;stroke-width:1.0;" d="M127.560 512.100 L128.040 512.100 L128.040 609.780 L127.560 609.780 L127.560 512.100 "/>
  <path style="fill:rgb(0,0,0);stroke:none;stroke-width:1.0;" d="M184.260 512.100 L184.740 512.100 L184.740 609.780 L184.260 609.780 L184.260 512.100 "/>
  <path style="fill:rgb(0,0,0);stroke:none;stroke-width:1.0;" d="M240.960 512.100 L241.440 512.100 L241.440 609.780 L240.960 609.780 L240.960 512.100 "/>
  <path style="fill:rgb(0,0,0);stroke:none;stroke-width:1.0;" d="M523.980 512.100 L524.460 512.100 L524.460 609.780 L523.980 609.780 L523.980 512.100 "/>
  <g begin="text">
   <text y="339.78" x="76.5,81.841,87.121,91.921,97.201,100.558,105.538,108.958,111.242,116.282" svgx:width="0.53,0.52,0.48,0.52,0.34,0.5,0.35,0.23,0.51,0.51" style="fill:rgb(0,0,0);font-family:Calibri;font-size:10.02px;stroke:none;">Chapter 10</text>
  </g>
  <g begin="text">
   <text y="339.78" x="121.32" svgx:width="0.23" style="fill:rgb(0,0,0);font-family:Calibri;font-size:10.02px;stroke:none;"> </text>
  </g>
  <g begin="text">
   <text y="339.78" x="133.2,138.3" svgx:width="0.51,0.51" style="fill:rgb(0,0,0);font-family:Calibri;font-size:10.02px;stroke:none;">96</text>
  </g>
  <g begin="text">
   <text y="339.78" x="143.34" svgx:width="0.23" style="fill:rgb(0,0,0);font-family:Calibri;font-size:10.02px;stroke:none;"> </text>
  </g>
  <g begin="text">
   <text y="339.78" x="189.9" svgx:width="0.51" style="fill:rgb(0,0,0);font-family:Calibri;font-size:10.02px;stroke:none;">3</text>
  </g>
  <g begin="text">
   <text y="339.78" x="195.0" svgx:width="0.31" style="fill:rgb(0,0,0);font-family:Calibri;font-size:10.02px;stroke:none;">-</text>
  </g>
  <g begin="text">
   <text y="339.78" x="198.06" svgx:width="0.51" style="fill:rgb(0,0,0);font-family:Calibri;font-size:10.02px;stroke:none;">5</text>
  </g>
  <g begin="text">
   <text y="339.78" x="203.1" svgx:width="0.23" style="fill:rgb(0,0,0);font-family:Calibri;font-size:10.02px;stroke:none;"> </text>
  </g>
  <g begin="text">
   <text y="339.78" x="246.6,252.06,257.04,262.32,264.6,269.4,273.599,278.579,281.279,283.499,288.119,293.399,301.379,306.299,308.579,310.859,313.139,316.496,321.474,324.955,329.755,333.112,338.392,341.872,346.852,349.132,353.033,358.252,362.992,367.672,372.652,376.552,379.909,383.809,386.094,389.45,394.73,399.529,402.886,405.106,408.463,413.743,418.663,420.943,425.623,430.904,435.404,440.384,443.864,449.144,453.944,459.224,463.484,468.404,470.688,475.969,479.025,481.245,484.545,489.826,494.806" svgx:width="0.54,0.5,0.52,0.23,0.48,0.42,0.5,0.27,0.23,0.46,0.53,0.8,0.5,0.23,0.23,0.23,0.34,0.5,0.35,0.48,0.34,0.52,0.35,0.5,0.23,0.39,0.52,0.47,0.47,0.5,0.39,0.34,0.39,0.23,0.34,0.52,0.48,0.34,0.23,0.34,0.52,0.5,0.23,0.47,0.53,0.45,0.5,0.35,0.52,0.48,0.52,0.42,0.5,0.23,0.53,0.31,0.23,0.34,0.52,0.5,0.23" style="fill:rgb(0,0,0);font-family:Calibri;font-size:10.02px;stroke:none;">Replace: Some literature suggests that the governance of the </text>
  </g>
  <g begin="text">
   <text y="352.02" x="246.6,248.88,254.16,257.517,262.497,265.977,271.257,276.057,279.414,281.693,286.974,292.194,296.994,299.274,301.554,304.854,308.334,313.134,318.414,322.314,327.594,332.874,336.354,339.711,341.995,345.835,350.395,354.295,357.652,362.572,370.552,374.452,376.74,380.998,386.279,391.559,393.84,399.06,401.34,406.62,411.6,413.88,416.1,421.32,425.578,427.858,433.138,438.419,443.339,448.619,450.899,454.199,459.48,464.46,466.744,471.904,476.704,480.184,482.404,486.305" svgx:width="0.23,0.52,0.34,0.5,0.35,0.52,0.48,0.34,0.23,0.53,0.52,0.48,0.23,0.23,0.34,0.35,0.48,0.52,0.39,0.52,0.53,0.35,0.34,0.23,0.39,0.45,0.39,0.34,0.5,0.8,0.39,0.23,0.42,0.53,0.52,0.23,0.52,0.23,0.52,0.5,0.23,0.23,0.52,0.42,0.23,0.52,0.52,0.5,0.52,0.23,0.34,0.52,0.5,0.23,0.52,0.48,0.35,0.23,0.39,0.23" style="fill:rgb(0,0,0);font-family:Calibri;font-size:10.02px;stroke:none;">international transport systems could be included the Paris </text>
   <text y="364.204" x="246.6,252.422,257.161,260.641,265.621,270.601,278.581,283.501,288.781,292.141,294.426,299.706,303.126,308.406,312.665,317.645,321.546,325.445,327.662" svgx:width="0.58,0.47,0.35,0.5,0.5,0.8,0.5,0.52,0.34,0.23,0.52,0.35,0.53,0.42,0.5,0.39,0.39,0.23,0.23" style="fill:rgb(0,0,0);font-family:Calibri;font-size:10.02px;stroke:none;">Agreement process </text>
   <text y="376.449" x="246.6,255.54,257.82,261.18,266.46,268.684" svgx:width="0.89,0.23,0.34,0.52,0.23,0.23" style="fill:rgb(0,0,0);font-family:Calibri;font-size:10.02px;stroke:none;">With </text>
   <text y="388.633" x="246.6,251.22,256.501,264.481,269.461,271.745,276.545,281.765,285.122,290.402,295.683,299.163,303.063,305.347,307.567,312.847,315.127,318.483,323.763,328.683,330.967,333.247,335.526,338.883,343.863,347.343,352.143,355.499,360.779,364.199,369.179,371.463,376.743,381.542,386.042,391.022,393.302,398.101,401.521,406.261,411.541,416.461,421.742,423.961,427.318,432.598,437.398,440.755,443.034,446.334,451.614,456.594,458.814,463.554,468.835,473.336,478.316,481.735,487.015,491.815,497.034,501.294,506.274,508.554,513.834,516.834" svgx:width="0.46,0.53,0.8,0.5,0.23,0.48,0.52,0.34,0.52,0.53,0.35,0.39,0.23,0.23,0.52,0.23,0.34,0.52,0.5,0.23,0.23,0.23,0.34,0.5,0.35,0.48,0.34,0.52,0.35,0.5,0.23,0.52,0.48,0.45,0.5,0.23,0.48,0.35,0.47,0.52,0.5,0.52,0.23,0.34,0.52,0.48,0.34,0.23,0.34,0.52,0.5,0.23,0.47,0.53,0.45,0.5,0.35,0.52,0.48,0.52,0.42,0.5,0.23,0.53,0.31,0.23" style="fill:rgb(0,0,0);font-family:Calibri;font-size:10.02px;stroke:none;">Some authors in the literature have argued that the governance of </text>
   <text y="400.878" x="246.6,249.96,255.24,260.22,262.5,264.78,270.061,273.422,278.401,281.821,287.102,291.902,295.262,297.542,302.762,308.043,312.842,315.122,317.406,320.766,324.246,329.047,334.327,338.168,343.448,348.729,352.208,355.568,357.848,361.689,366.248,370.149,373.508,378.488,386.468,390.368,392.652,396.911,402.131,407.412,409.691,414.972,417.192,422.413,427.393,429.672,431.953,437.233,441.492,443.772,448.992,454.273,459.252,464.473,466.752,469.033,474.314,476.598,479.898,485.178,490.159,492.439,497.599,502.399,505.879,508.159,512.059" svgx:width="0.34,0.52,0.5,0.23,0.23,0.52,0.34,0.5,0.35,0.52,0.48,0.34,0.23,0.53,0.52,0.48,0.23,0.23,0.34,0.35,0.48,0.52,0.39,0.52,0.53,0.35,0.34,0.23,0.39,0.45,0.39,0.34,0.5,0.8,0.39,0.23,0.42,0.53,0.52,0.23,0.52,0.23,0.52,0.5,0.23,0.23,0.52,0.42,0.23,0.52,0.52,0.5,0.52,0.23,0.23,0.52,0.23,0.34,0.52,0.5,0.23,0.52,0.48,0.35,0.23,0.39,0.23" style="fill:rgb(0,0,0);font-family:Calibri;font-size:10.02px;stroke:none;">the international transport systems could be included in the Paris </text>
   <text y="413.062" x="246.6,252.422,257.161,260.641,265.621,270.601,278.581,283.501,288.781,292.141,294.426,299.706,303.126,308.406,312.665,317.645,321.546,325.445,327.662" svgx:width="0.58,0.47,0.35,0.5,0.5,0.8,0.5,0.52,0.34,0.23,0.52,0.35,0.53,0.42,0.5,0.39,0.39,0.23,0.23" style="fill:rgb(0,0,0);font-family:Calibri;font-size:10.02px;stroke:none;">Agreement process </text>
  </g>
  <path style="fill:rgb(0,0,0);stroke:none;stroke-width:1.0;" d="M71.340 417.120 L127.560 417.120 L127.560 511.620 L71.340 511.620 L71.340 417.120 M71.340 417.120 L127.560 417.120 L127.560 511.620 L71.340 511.620 L71.340 417.120 M128.040 417.120 L184.260 417.120 L184.260 511.620 L128.040 511.620 L128.040 417.120 M128.040 417.120 L184.260 417.120 L184.260 511.620 L128.040 511.620 L128.040 417.120 M184.740 417.120 L240.960 417.120 L240.960 511.620 L184.740 511.620 L184.740 417.120 M184.740 417.120 L240.960 417.120 L240.960 511.620 L184.740 511.620 L184.740 417.120 M184.740 417.120 L240.960 417.120 L240.960 511.620 L184.740 511.620 L184.740 417.120 M184.740 417.120 L240.960 417.120 L240.960 511.620 L184.740 511.620 L184.740 417.120 M70.860 511.620 L71.340 511.620 L71.340 512.100 L70.860 512.100 L70.860 511.620 "/>
  <path style="fill:rgb(0,0,0);stroke:none;stroke-width:1.0;" d="M71.340 511.620 L127.560 511.620 L127.560 512.100 L71.340 512.100 L71.340 511.620 "/>
  <path style="fill:rgb(0,0,0);stroke:none;stroke-width:1.0;" d="M127.560 511.620 L128.040 511.620 L128.040 512.100 L127.560 512.100 L127.560 511.620 "/>
  <path style="fill:rgb(0,0,0);stroke:none;stroke-width:1.0;" d="M128.040 511.620 L184.260 511.620 L184.260 512.100 L128.040 512.100 L128.040 511.620 "/>
  <path style="fill:rgb(0,0,0);stroke:none;stroke-width:1.0;" d="M184.260 511.620 L184.740 511.620 L184.740 512.100 L184.260 512.100 L184.260 511.620 "/>
  <path style="fill:rgb(0,0,0);stroke:none;stroke-width:1.0;" d="M184.740 511.620 L240.960 511.620 L240.960 512.100 L184.740 512.100 L184.740 511.620 "/>
  <path style="fill:rgb(0,0,0);stroke:none;stroke-width:1.0;" d="M240.960 511.620 L241.440 511.620 L241.440 512.100 L240.960 512.100 L240.960 511.620 "/>
  <path style="fill:rgb(0,0,0);stroke:none;stroke-width:1.0;" d="M523.980 511.620 L524.460 511.620 L524.460 512.100 L523.980 512.100 L523.980 511.620 "/>
  <path style="fill:rgb(0,0,0);stroke:none;stroke-width:1.0;" d="M70.860 417.120 L71.340 417.120 L71.340 511.620 L70.860 511.620 L70.860 417.120 "/>
  <path style="fill:rgb(0,0,0);stroke:none;stroke-width:1.0;" d="M127.560 417.120 L128.040 417.120 L128.040 511.620 L127.560 511.620 L127.560 417.120 "/>
  <path style="fill:rgb(0,0,0);stroke:none;stroke-width:1.0;" d="M184.260 417.120 L184.740 417.120 L184.740 511.620 L184.260 511.620 L184.260 417.120 "/>
  <path style="fill:rgb(0,0,0);stroke:none;stroke-width:1.0;" d="M240.960 417.120 L241.440 417.120 L241.440 511.620 L240.960 511.620 L240.960 417.120 "/>
  <path style="fill:rgb(0,0,0);stroke:none;stroke-width:1.0;" d="M523.980 417.120 L524.460 417.120 L524.460 511.620 L523.980 511.620 L523.980 417.120 "/>
  <g begin="text">
   <text y="434.82" x="76.5,81.841,87.121,91.921,97.201,100.558,105.538,108.958,111.242,116.282" svgx:width="0.53,0.52,0.48,0.52,0.34,0.5,0.35,0.23,0.51,0.51" style="fill:rgb(0,0,0);font-family:Calibri;font-size:10.02px;stroke:none;">Chapter 10</text>
  </g>
  <g begin="text">
   <text y="434.82" x="121.32" svgx:width="0.23" style="fill:rgb(0,0,0);font-family:Calibri;font-size:10.02px;stroke:none;"> </text>
  </g>
  <g begin="text">
   <text y="434.82" x="133.2,138.3" svgx:width="0.51,0.51" style="fill:rgb(0,0,0);font-family:Calibri;font-size:10.02px;stroke:none;">96</text>
  </g>
  <g begin="text">
   <text y="434.82" x="143.34" svgx:width="0.23" style="fill:rgb(0,0,0);font-family:Calibri;font-size:10.02px;stroke:none;"> </text>
  </g>
  <g begin="text">
   <text y="434.82" x="189.9,195.0" svgx:width="0.51,0.51" style="fill:rgb(0,0,0);font-family:Calibri;font-size:10.02px;stroke:none;">36</text>
  </g>
  <g begin="text">
   <text y="434.82" x="200.1" svgx:width="0.31" style="fill:rgb(0,0,0);font-family:Calibri;font-size:10.02px;stroke:none;">-</text>
  </g>
  <g begin="text">
   <text y="434.82" x="203.1,208.2" svgx:width="0.51,0.51" style="fill:rgb(0,0,0);font-family:Calibri;font-size:10.02px;stroke:none;">43</text>
  </g>
  <g begin="text">
   <text y="434.82" x="213.24" svgx:width="0.23" style="fill:rgb(0,0,0);font-family:Calibri;font-size:10.02px;stroke:none;"> </text>
  </g>
  <g begin="text">
   <text y="434.82" x="246.6,251.22,256.501,264.481,269.461,271.745,276.005,281.285,289.265,297.245,302.165,307.385,310.742,315.542,318.898,324.179,327.659,331.559,333.843,339.123,343.922,348.422,353.402,355.682,359.522,364.742,369.482,374.222,379.202,383.103" svgx:width="0.46,0.53,0.8,0.5,0.23,0.42,0.53,0.8,0.8,0.5,0.52,0.34,0.48,0.34,0.53,0.35,0.39,0.23,0.52,0.48,0.45,0.5,0.23,0.39,0.52,0.47,0.47,0.5,0.39,0.34" style="fill:rgb(0,0,0);font-family:Calibri;font-size:10.02px;stroke:none;">Some commentators have suggest</text>
  </g>
  <g begin="text">
   <text y="434.82" x="386.46,391.38,396.66,398.94,402.24,407.52,412.32,415.68,417.96,422.88,430.86,433.14,437.038,440.936,443.216,448.496,453.775,457.673,459.953,463.013,466.49,471.77,479.75" svgx:width="0.5,0.52,0.23,0.34,0.52,0.48,0.34,0.23,0.5,0.8,0.23,0.39,0.39,0.23,0.53,0.52,0.39,0.23,0.31,0.35,0.53,0.8,0.23" style="fill:rgb(0,0,0);font-family:Calibri;font-size:10.02px;stroke:none;">ed that emissions from </text>
  </g>
  <g begin="text">
   <text y="447.0" x="246.6,248.88,254.16,257.52,262.5,265.98,271.26,276.06,279.421,281.7,286.98,292.2,297.001,299.28,301.565,306.304,310.804,313.085,317.884,321.244,323.524,328.804,334.085,336.364,341.165,346.445,351.666,353.945,357.845,363.125,365.345,370.625,375.906,378.187,383.406,388.145,390.425,394.325,399.605,404.826,410.106,412.387,417.667,419.888,425.107,430.076" svgx:width="0.23,0.52,0.34,0.5,0.35,0.52,0.48,0.34,0.23,0.53,0.52,0.48,0.23,0.23,0.48,0.45,0.23,0.48,0.34,0.23,0.53,0.52,0.23,0.48,0.52,0.52,0.23,0.39,0.52,0.23,0.52,0.52,0.23,0.52,0.47,0.23,0.39,0.52,0.53,0.52,0.23,0.52,0.23,0.52,0.5,0.23" style="fill:rgb(0,0,0);font-family:Calibri;font-size:10.02px;stroke:none;">international aviation and shipping should be </text>
   <text y="459.244" x="246.6,251.881,256.68,260.16,263.517,265.801,271.082,274.082,276.366,279.723,285.003,289.922,292.207,297.367,302.167,305.647,307.927,311.827,314.107,319.927,324.667,328.147,333.127,338.107,346.087,351.007,356.287,359.644,361.864,364.085" svgx:width="0.52,0.48,0.35,0.34,0.23,0.53,0.31,0.23,0.34,0.52,0.5,0.23,0.52,0.48,0.35,0.23,0.39,0.23,0.58,0.47,0.35,0.5,0.5,0.8,0.5,0.52,0.34,0.23,0.23,0.23" style="fill:rgb(0,0,0);font-family:Calibri;font-size:10.02px;stroke:none;">part of the Paris Agreement </text>
  </g>
  <g begin="text">
   <text y="471.42" x="246.6,255.54,257.82,261.18,266.46,268.68,270.96,273.244,275.464,277.748,280.028,282.248,284.528,286.812,289.032,291.316,293.596,295.816,298.096,300.38,302.6,304.884,307.104,309.388,311.668,313.952,316.172,318.456,320.736,322.956,325.236,327.52,329.74,332.024,334.304,336.524,338.804,341.088,343.368,345.588,347.868,350.152,352.372,354.656,356.936,359.156,361.436,363.72,365.94,368.16,370.44,372.724,375.004,377.224,379.504,381.788,384.008,386.292,388.572,390.792,393.072,395.356,397.576,399.86,402.14,404.424,406.644,408.928,411.208,413.428,415.708,417.992,420.212,422.496,424.776,426.996,429.216,431.5,433.78,436.064,438.284,440.568,442.848,445.068,447.348,449.632,451.852,454.136,456.416,458.636,460.916,463.201,465.48,467.7,469.98,472.265,474.484,476.769,479.048,481.268,483.548,485.833,488.052,490.272,492.552,494.837,497.116,499.336,501.616,503.901,506.12,508.405,510.684,512.904,515.184,517.469,519.688,521.973,524.252,526.537,528.756,531.041,533.32,535.541,537.82" svgx:width="0.89,0.23,0.34,0.52,0.23,0.23,0.23,0.23,0.23,0.23,0.23,0.23,0.23,0.23,0.23,0.23,0.23,0.23,0.23,0.23,0.23,0.23,0.23,0.23,0.23,0.23,0.23,0.23,0.23,0.23,0.23,0.23,0.23,0.23,0.23,0.23,0.23,0.23,0.23,0.23,0.23,0.23,0.23,0.23,0.23,0.23,0.23,0.23,0.23,0.23,0.23,0.23,0.23,0.23,0.23,0.23,0.23,0.23,0.23,0.23,0.23,0.23,0.23,0.23,0.23,0.23,0.23,0.23,0.23,0.23,0.23,0.23,0.23,0.23,0.23,0.23,0.23,0.23,0.23,0.23,0.23,0.23,0.23,0.23,0.23,0.23,0.23,0.23,0.23,0.23,0.23,0.23,0.23,0.23,0.23,0.23,0.23,0.23,0.23,0.23,0.23,0.23,0.23,0.23,0.23,0.23,0.23,0.23,0.23,0.23,0.23,0.23,0.23,0.23,0.23,0.23,0.23,0.23,0.23,0.23,0.23,0.23,0.23,0.23,0.23" style="fill:rgb(0,0,0);font-family:Calibri;font-size:10.02px;stroke:none;">With </text>
  </g>
  <g begin="text">
   <text y="471.42" x="539.94,542.159,544.444,546.724,548.944,551.164,553.444,555.728,558.008,560.228,562.508,564.787,567.008,569.292,571.572,573.792,576.072,578.356,580.576,582.86,585.14,587.424,589.644,591.928,594.208,596.428,598.708,600.987,603.208,605.492,607.772,609.992" svgx:width="0.23,0.23,0.23,0.23,0.23,0.23,0.23,0.23,0.23,0.23,0.23,0.23,0.23,0.23,0.23,0.23,0.23,0.23,0.23,0.23,0.23,0.23,0.23,0.23,0.23,0.23,0.23,0.23,0.23,0.23,0.23,0.23" style="fill:rgb(0,0,0);font-family:Calibri;font-size:10.02px;stroke:none;"> </text>
  </g>
  <g begin="text">
   <text y="471.42" x="612.18,614.46,616.744,619.024,621.244,623.524,625.808,628.028,630.312,632.592,634.812,637.092,639.376,641.596,643.88,646.16,648.444,650.664,652.948,655.228,657.448,659.728,662.012,664.232,666.516,668.796,671.016,673.235,675.52,677.8,680.084,682.304,684.588" svgx:width="0.23,0.23,0.23,0.23,0.23,0.23,0.23,0.23,0.23,0.23,0.23,0.23,0.23,0.23,0.23,0.23,0.23,0.23,0.23,0.23,0.23,0.23,0.23,0.23,0.23,0.23,0.23,0.23,0.23,0.23,0.23,0.23,0.23" style="fill:rgb(0,0,0);font-family:Calibri;font-size:10.02px;stroke:none;"> </text>
  </g>
  <g begin="text">
   <text y="471.42" x="686.76" svgx:width="0.23" style="fill:rgb(0,0,0);font-family:Calibri;font-size:10.02px;stroke:none;"> </text>
  </g>
  <g begin="text">
   <text y="483.66" x="246.6,251.22,256.501,264.481,269.461,271.745,276.545,281.765,285.122,290.402,295.683,299.163,303.063,305.347,307.567,309.847,315.127,317.411,320.768,326.048,330.968,333.248,335.528,337.808,341.165,346.145,349.626,354.425,357.782,363.062,366.482,371.462,373.742,379.022,383.822,388.322,393.302,395.586,400.386,403.806,408.546,413.826,418.747,424.026,426.246,429.602,434.882,439.681,443.038,445.259,447.538,452.518,460.498,462.778,466.678,470.578,472.858,478.138,483.418,487.318,489.598,492.654,496.134,501.415,509.396" svgx:width="0.46,0.53,0.8,0.5,0.23,0.48,0.52,0.34,0.52,0.53,0.35,0.39,0.23,0.23,0.23,0.52,0.23,0.34,0.52,0.5,0.23,0.23,0.23,0.34,0.5,0.35,0.48,0.34,0.52,0.35,0.5,0.23,0.52,0.48,0.45,0.5,0.23,0.48,0.35,0.47,0.52,0.5,0.52,0.23,0.34,0.52,0.48,0.34,0.23,0.23,0.5,0.8,0.23,0.39,0.39,0.23,0.53,0.52,0.39,0.23,0.31,0.35,0.53,0.8,0.23" style="fill:rgb(0,0,0);font-family:Calibri;font-size:10.02px;stroke:none;">Some authors in the literature have argued that emissions from </text>
   <text y="495.844" x="246.6,248.88,254.16,257.52,262.5,265.98,271.26,276.06,279.421,281.7,286.98,292.2,297.001,299.28,301.565,306.304,310.804,313.085,317.884,321.244,323.524,328.804,334.085,336.364,341.165,346.445,351.666,353.945,357.845,363.125,365.345,370.625,375.906,378.187,383.406,388.145,390.425,394.325,399.605,404.826,410.106,412.387,417.667,419.888,425.107,430.076" svgx:width="0.23,0.52,0.34,0.5,0.35,0.52,0.48,0.34,0.23,0.53,0.52,0.48,0.23,0.23,0.48,0.45,0.23,0.48,0.34,0.23,0.53,0.52,0.23,0.48,0.52,0.52,0.23,0.39,0.52,0.23,0.52,0.52,0.23,0.52,0.47,0.23,0.39,0.52,0.53,0.52,0.23,0.52,0.23,0.52,0.5,0.23" style="fill:rgb(0,0,0);font-family:Calibri;font-size:10.02px;stroke:none;">international aviation and shipping should be </text>
   <text y="508.029" x="246.6,251.881,256.68,260.16,263.517,265.801,271.082,274.082,276.366,279.723,285.003,289.922,292.207,297.367,302.167,305.647,307.927,311.827,314.107,319.927,324.667,328.147,333.127,338.107,346.087,351.007,356.287,359.644,361.864,364.085" svgx:width="0.52,0.48,0.35,0.34,0.23,0.53,0.31,0.23,0.34,0.52,0.5,0.23,0.52,0.48,0.35,0.23,0.39,0.23,0.58,0.47,0.35,0.5,0.5,0.8,0.5,0.52,0.34,0.23,0.23,0.23" style="fill:rgb(0,0,0);font-family:Calibri;font-size:10.02px;stroke:none;">part of the Paris Agreement </text>
  </g>
  <path style="fill:rgb(0,0,0);stroke:none;stroke-width:1.0;" d="M71.340 322.080 L127.560 322.080 L127.560 416.580 L71.340 416.580 L71.340 322.080 M71.340 322.080 L127.560 322.080 L127.560 416.580 L71.340 416.580 L71.340 322.080 M128.040 322.080 L184.260 322.080 L184.260 416.580 L128.040 416.580 L128.040 322.080 M128.040 322.080 L184.260 322.080 L184.260 416.580 L128.040 416.580 L128.040 322.080 M184.740 322.080 L240.960 322.080 L240.960 416.580 L184.740 416.580 L184.740 322.080 M184.740 322.080 L240.960 322.080 L240.960 416.580 L184.740 416.580 L184.740 322.080 M184.740 322.080 L240.960 322.080 L240.960 416.580 L184.740 416.580 L184.740 322.080 M184.740 322.080 L240.960 322.080 L240.960 416.580 L184.740 416.580 L184.740 322.080 M70.860 416.640 L71.340 416.640 L71.340 417.120 L70.860 417.120 L70.860 416.640 "/>
  <path style="fill:rgb(0,0,0);stroke:none;stroke-width:1.0;" d="M71.340 416.640 L127.560 416.640 L127.560 417.120 L71.340 417.120 L71.340 416.640 "/>
  <path style="fill:rgb(0,0,0);stroke:none;stroke-width:1.0;" d="M127.560 416.640 L128.040 416.640 L128.040 417.120 L127.560 417.120 L127.560 416.640 "/>
  <path style="fill:rgb(0,0,0);stroke:none;stroke-width:1.0;" d="M128.040 416.640 L184.260 416.640 L184.260 417.120 L128.040 417.120 L128.040 416.640 "/>
  <path style="fill:rgb(0,0,0);stroke:none;stroke-width:1.0;" d="M184.260 416.640 L184.740 416.640 L184.740 417.120 L184.260 417.120 L184.260 416.640 "/>
  <path style="fill:rgb(0,0,0);stroke:none;stroke-width:1.0;" d="M184.740 416.640 L240.960 416.640 L240.960 417.120 L184.740 417.120 L184.740 416.640 "/>
  <path style="fill:rgb(0,0,0);stroke:none;stroke-width:1.0;" d="M240.960 416.640 L241.440 416.640 L241.440 417.120 L240.960 417.120 L240.960 416.640 "/>
  <path style="fill:rgb(0,0,0);stroke:none;stroke-width:1.0;" d="M523.980 416.640 L524.460 416.640 L524.460 417.120 L523.980 417.120 L523.980 416.640 "/>
  <path style="fill:rgb(0,0,0);stroke:none;stroke-width:1.0;" d="M70.860 322.080 L71.340 322.080 L71.340 416.640 L70.860 416.640 L70.860 322.080 "/>
  <path style="fill:rgb(0,0,0);stroke:none;stroke-width:1.0;" d="M127.560 322.080 L128.040 322.080 L128.040 416.640 L127.560 416.640 L127.560 322.080 "/>
  <path style="fill:rgb(0,0,0);stroke:none;stroke-width:1.0;" d="M184.260 322.080 L184.740 322.080 L184.740 416.640 L184.260 416.640 L184.260 322.080 "/>
  <path style="fill:rgb(0,0,0);stroke:none;stroke-width:1.0;" d="M240.960 322.080 L241.440 322.080 L241.440 416.640 L240.960 416.640 L240.960 322.080 "/>
  <path style="fill:rgb(0,0,0);stroke:none;stroke-width:1.0;" d="M523.980 322.080 L524.460 322.080 L524.460 416.640 L523.980 416.640 L523.980 322.080 "/>
  <g begin="text">
   <text y="529.8" x="76.5,81.841,87.121,91.921,97.201,100.558,105.538,108.958,111.242,116.282" svgx:width="0.53,0.52,0.48,0.52,0.34,0.5,0.35,0.23,0.51,0.51" style="fill:rgb(0,0,0);font-family:Calibri;font-size:10.02px;stroke:none;">Chapter 10</text>
  </g>
  <g begin="text">
   <text y="529.8" x="121.32" svgx:width="0.23" style="fill:rgb(0,0,0);font-family:Calibri;font-size:10.02px;stroke:none;"> </text>
  </g>
  <g begin="text">
   <text y="529.8" x="133.2,137.819,141.299,146.579,151.859" svgx:width="0.46,0.35,0.53,0.52,0.34" style="fill:rgb(0,0,0);font-family:Calibri;font-size:10.02px;stroke:none;">Front</text>
  </g>
  <g begin="text">
   <text y="529.8" x="155.16" svgx:width="0.23" style="fill:rgb(0,0,0);font-family:Calibri;font-size:10.02px;stroke:none;"> </text>
  </g>
  <g begin="text">
   <text y="529.8" x="189.9" svgx:width="0.51" style="fill:rgb(0,0,0);font-family:Calibri;font-size:10.02px;stroke:none;">5</text>
  </g>
  <g begin="text">
   <text y="529.8" x="194.94" svgx:width="0.23" style="fill:rgb(0,0,0);font-family:Calibri;font-size:10.02px;stroke:none;"> </text>
  </g>
  <g begin="text">
   <text y="529.8" x="246.6,253.26,257.94,263.22,268.2,273.481,278.462,281.881,287.162,292.443,297.723,302.464,304.683,309.603,312.123,314.403,320.586,322.866,327.846,335.826,341.047,346.326,351.607,356.587,361.147" svgx:width="0.66,0.47,0.52,0.5,0.52,0.5,0.35,0.52,0.53,0.52,0.48,0.23,0.49,0.25,0.23,0.62,0.23,0.5,0.8,0.52,0.53,0.52,0.5,0.46,0.5" style="fill:rgb(0,0,0);font-family:Calibri;font-size:10.02px;stroke:none;">Ogheneruona E. Diemuodeke</text>
  </g>
  <g begin="text">
   <text y="529.8" x="366.06" svgx:width="0.23" style="fill:rgb(0,0,0);font-family:Calibri;font-size:10.02px;stroke:none;"> </text>
  </g>
  <path style="fill:rgb(0,0,0);stroke:none;stroke-width:1.0;" d="M71.340 227.100 L127.560 227.100 L127.560 321.600 L71.340 321.600 L71.340 227.100 M71.340 227.100 L127.560 227.100 L127.560 321.600 L71.340 321.600 L71.340 227.100 M128.040 227.100 L184.260 227.100 L184.260 321.600 L128.040 321.600 L128.040 227.100 M128.040 227.100 L184.260 227.100 L184.260 321.600 L128.040 321.600 L128.040 227.100 M184.740 227.100 L240.960 227.100 L240.960 321.600 L184.740 321.600 L184.740 227.100 M184.740 227.100 L240.960 227.100 L240.960 321.600 L184.740 321.600 L184.740 227.100 M70.860 321.600 L71.340 321.600 L71.340 322.080 L70.860 322.080 L70.860 321.600 "/>
  <path style="fill:rgb(0,0,0);stroke:none;stroke-width:1.0;" d="M71.340 321.600 L127.560 321.600 L127.560 322.080 L71.340 322.080 L71.340 321.600 "/>
  <path style="fill:rgb(0,0,0);stroke:none;stroke-width:1.0;" d="M127.560 321.600 L128.040 321.600 L128.040 322.080 L127.560 322.080 L127.560 321.600 "/>
  <path style="fill:rgb(0,0,0);stroke:none;stroke-width:1.0;" d="M128.040 321.600 L184.260 321.600 L184.260 322.080 L128.040 322.080 L128.040 321.600 "/>
  <path style="fill:rgb(0,0,0);stroke:none;stroke-width:1.0;" d="M184.260 321.600 L184.740 321.600 L184.740 322.080 L184.260 322.080 L184.260 321.600 "/>
  <path style="fill:rgb(0,0,0);stroke:none;stroke-width:1.0;" d="M184.740 321.600 L240.960 321.600 L240.960 322.080 L184.740 322.080 L184.740 321.600 "/>
  <path style="fill:rgb(0,0,0);stroke:none;stroke-width:1.0;" d="M240.960 321.600 L241.440 321.600 L241.440 322.080 L240.960 322.080 L240.960 321.600 "/>
  <path style="fill:rgb(0,0,0);stroke:none;stroke-width:1.0;" d="M523.980 321.600 L524.460 321.600 L524.460 322.080 L523.980 322.080 L523.980 321.600 "/>
  <path style="fill:rgb(0,0,0);stroke:none;stroke-width:1.0;" d="M70.860 227.100 L71.340 227.100 L71.340 321.600 L70.860 321.600 L70.860 227.100 "/>
  <path style="fill:rgb(0,0,0);stroke:none;stroke-width:1.0;" d="M70.860 226.620 L71.340 226.620 L71.340 227.100 L70.860 227.100 L70.860 226.620 "/>
  <path style="fill:rgb(0,0,0);stroke:none;stroke-width:1.0;" d="M70.860 226.620 L71.340 226.620 L71.340 227.100 L70.860 227.100 L70.860 226.620 "/>
  <path style="fill:rgb(0,0,0);stroke:none;stroke-width:1.0;" d="M71.340 226.620 L127.560 226.620 L127.560 227.100 L71.340 227.100 L71.340 226.620 "/>
  <path style="fill:rgb(0,0,0);stroke:none;stroke-width:1.0;" d="M127.560 227.100 L128.040 227.100 L128.040 321.600 L127.560 321.600 L127.560 227.100 "/>
  <path style="fill:rgb(0,0,0);stroke:none;stroke-width:1.0;" d="M127.560 226.620 L128.040 226.620 L128.040 227.100 L127.560 227.100 L127.560 226.620 "/>
  <path style="fill:rgb(0,0,0);stroke:none;stroke-width:1.0;" d="M128.040 226.620 L184.260 226.620 L184.260 227.100 L128.040 227.100 L128.040 226.620 "/>
  <path style="fill:rgb(0,0,0);stroke:none;stroke-width:1.0;" d="M184.260 227.100 L184.740 227.100 L184.740 321.600 L184.260 321.600 L184.260 227.100 "/>
  <path style="fill:rgb(0,0,0);stroke:none;stroke-width:1.0;" d="M184.260 226.620 L184.740 226.620 L184.740 227.100 L184.260 227.100 L184.260 226.620 "/>
  <path style="fill:rgb(0,0,0);stroke:none;stroke-width:1.0;" d="M184.740 226.620 L240.960 226.620 L240.960 227.100 L184.740 227.100 L184.740 226.620 "/>
  <path style="fill:rgb(0,0,0);stroke:none;stroke-width:1.0;" d="M240.960 227.100 L241.440 227.100 L241.440 321.600 L240.960 321.600 L240.960 227.100 "/>
  <path style="fill:rgb(0,0,0);stroke:none;stroke-width:1.0;" d="M240.960 226.620 L241.440 226.620 L241.440 227.100 L240.960 227.100 L240.960 226.620 "/>
  <path style="fill:rgb(0,0,0);stroke:none;stroke-width:1.0;" d="M523.980 227.100 L524.460 227.100 L524.460 321.600 L523.980 321.600 L523.980 227.100 "/>
  <path style="fill:rgb(0,0,0);stroke:none;stroke-width:1.0;" d="M523.980 226.620 L524.460 226.620 L524.460 227.100 L523.980 227.100 L523.980 226.620 "/>
  <path style="fill:rgb(0,0,0);stroke:none;stroke-width:1.0;" d="M523.980 226.620 L524.460 226.620 L524.460 227.100 L523.980 227.100 L523.980 226.620 "/>
  <g begin="text">
   <text y="625.8" x="70.86" svgx:width="0.23" style="fill:rgb(0,0,0);font-family:Calibri;font-size:10.98px;stroke:none;"> </text>
  </g>
 </g>
</svg>
