<?xml version="1.0" encoding="UTF-8"?>
<svg height="813.04" width="2628.77" xmlns="http://www.w3.org/2000/svg">
 <g id="page" xmlns:svgx="http://www.xml-cml.org/schema/svgx">
  <g begin="text">
   <text y="46.56" x="72.024,78.624,81.96,87.96,93.288,96.624,99.624,108.288,114.288,120.288,125.652,129.648,135.648,144.984,150.252,156.252,159.588,162.588,171.252,174.588,179.28,182.616,186.612,189.948,195.948,201.948,205.308,208.644,214.644" svgx:width="0.56,0.28,0.5,0.44,0.28,0.25,0.72,0.5,0.5,0.44,0.33,0.5,0.78,0.44,0.5,0.28,0.25,0.72,0.28,0.39,0.28,0.33,0.28,0.5,0.5,0.28,0.28,0.5,0.5" style="fill:rgb(0,0,0);font-family:TimesNewRomanPSMT;font-size:12.0px;stroke:none;">Final Government Distribution</text>
  </g>
  <g begin="text">
   <text y="46.56" x="220.73" svgx:width="0.25" style="fill:rgb(0,0,0);font-family:TimesNewRomanPSMT;font-size:11.04px;stroke:none;"> </text>
  </g>
  <g begin="text">
   <text y="46.56" x="273.41,280.729,286.249,291.151,296.671,299.796,304.598,308.307,311.067,316.587" svgx:width="0.67,0.5,0.44,0.5,0.28,0.44,0.33,0.25,0.5,0.5" style="fill:rgb(0,0,0);font-family:TimesNewRomanPSMT;font-size:11.04px;stroke:none;">Chapter 10</text>
  </g>
  <g begin="text">
   <text y="46.56" x="322.03" svgx:width="0.25" style="fill:rgb(0,0,0);font-family:TimesNewRomanPSMT;font-size:11.04px;stroke:none;"> </text>
  </g>
  <g begin="text">
   <text y="46.56" x="436.03,439.87,446.578,454.606,462.634,465.634,474.298,482.302,488.302,491.302,502.594,511.342,515.338,519.262" svgx:width="0.33,0.56,0.67,0.67,0.25,0.72,0.67,0.5,0.25,0.94,0.72,0.33,0.33,0.33" style="fill:rgb(0,0,0);font-family:TimesNewRomanPSMT;font-size:12.0px;stroke:none;">IPCC AR6 WGIII</text>
  </g>
  <g begin="text">
   <text y="46.56" x="523.42" svgx:width="0.25" style="fill:rgb(0,0,0);font-family:TimesNewRomanPSMT;font-size:12.0px;stroke:none;"> </text>
  </g>
  <g begin="text">
   <text y="803.04" x="72.024,79.94,85.46,88.22,96.135,101.655,105.365,108.125,116.04,119.154,122.753,127.655,130.415,133.075,141.708,147.847,153.367,157.043,161.868,164.628,170.148,175.049,177.809,185.78,188.75,192.945,196.655,201.556,204.681,210.819,216.803,220.512" svgx:width="0.72,0.5,0.25,0.72,0.5,0.33,0.25,0.72,0.28,0.33,0.44,0.25,0.25,0.78,0.56,0.5,0.33,0.44,0.25,0.5,0.44,0.25,0.72,0.28,0.39,0.33,0.44,0.28,0.56,0.56,0.33,0.44" style="fill:rgb(0,0,0);font-family:TimesNewRomanPS-BoldMT;font-size:11.04px;stroke:none;">Do Not Cite, Quote or Distribute</text>
  </g>
  <g begin="text">
   <text y="803.04" x="225.41" svgx:width="0.25" style="fill:rgb(0,0,0);font-family:TimesNewRomanPS-BoldMT;font-size:11.04px;stroke:none;"> </text>
  </g>
  <g begin="text">
   <text y="803.04" x="284.81,290.33" svgx:width="0.5,0.5" style="fill:rgb(0,0,0);font-family:TimesNewRomanPSMT;font-size:11.04px;stroke:none;">10</text>
  </g>
  <g begin="text">
   <text y="803.04" x="295.85" svgx:width="0.33" style="fill:rgb(0,0,0);font-family:TimesNewRomanPS-BoldMT;font-size:11.04px;stroke:none;">-</text>
  </g>
  <g begin="text">
   <text y="803.04" x="299.57,305.09" svgx:width="0.5,0.5" style="fill:rgb(0,0,0);font-family:TimesNewRomanPSMT;font-size:11.04px;stroke:none;">53</text>
  </g>
  <g begin="text">
   <text y="803.04" x="310.61" svgx:width="0.25" style="fill:rgb(0,0,0);font-family:TimesNewRomanPSMT;font-size:11.04px;stroke:none;"> </text>
  </g>
  <g begin="text">
   <text y="803.04" x="313.27" svgx:width="0.25" style="fill:rgb(0,0,0);font-family:TimesNewRomanPSMT;font-size:11.04px;stroke:none;"> </text>
  </g>
  <g begin="text">
   <text y="803.04" x="450.1,456.845,462.365,465.435,470.259,473.372,476.132,481.652,486.554,491.975,496.876,501.204,504.207" svgx:width="0.61,0.5,0.28,0.44,0.28,0.25,0.5,0.44,0.5,0.44,0.39,0.28,0.25" style="fill:rgb(0,0,0);font-family:TimesNewRomanPSMT;font-size:11.04px;stroke:none;">Total pages: </text>
  </g>
  <g begin="text">
   <text y="803.04" x="506.98,512.5,518.02" svgx:width="0.5,0.5,0.5" style="fill:rgb(0,0,0);font-family:TimesNewRomanPSMT;font-size:11.04px;stroke:none;">176</text>
  </g>
  <g begin="text">
   <text y="803.04" x="523.42" svgx:width="0.25" style="fill:rgb(0,0,0);font-family:TimesNewRomanPSMT;font-size:9.96px;stroke:none;"> </text>
  </g>
  <g begin="text">
   <text y="305.09" x="48.0" svgx:width="0.5" style="fill:rgb(0,0,0);font-family:TimesNewRomanPSMT;font-size:12.0px;stroke:none;">1</text>
  </g>
  <g begin="text">
   <text y="305.09" x="54.0" svgx:width="0.25" style="fill:rgb(0,0,0);font-family:TimesNewRomanPSMT;font-size:12.0px;stroke:none;"> </text>
  </g>
  <g begin="text">
   <text y="531.19" x="48.0" svgx:width="0.5" style="fill:rgb(0,0,0);font-family:TimesNewRomanPSMT;font-size:12.0px;stroke:none;">2</text>
  </g>
  <g begin="text">
   <text y="531.19" x="54.0" svgx:width="0.25" style="fill:rgb(0,0,0);font-family:TimesNewRomanPSMT;font-size:12.0px;stroke:none;"> </text>
  </g>
  <g begin="text">
   <text y="693.22" x="476.62" svgx:width="0.25" style="fill:rgb(0,0,0);font-family:TimesNewRomanPSMT;font-size:9.96px;stroke:none;"> </text>
  </g>
  <g begin="text">
   <text y="693.22" x="48.0" svgx:width="0.5" style="fill:rgb(0,0,0);font-family:TimesNewRomanPSMT;font-size:12.0px;stroke:none;">3</text>
  </g>
  <g begin="text">
   <text y="693.22" x="54.0" svgx:width="0.25" style="fill:rgb(0,0,0);font-family:TimesNewRomanPSMT;font-size:12.0px;stroke:none;"> </text>
  </g>
  <g begin="text">
   <text y="709.66" x="93.264,99.369,102.138,107.158,112.696,117.118,121.54,124.07,129.1,134.13,136.64" svgx:width="0.61,0.28,0.5,0.56,0.44,0.44,0.25,0.5,0.5,0.25,0.5" style="fill:rgb(0,0,0);font-family:TimesNewRomanPS-BoldMT;font-size:9.96px;stroke:none;">Figure 10.8</text>
  </g>
  <g begin="text">
   <text y="709.66" x="141.74" svgx:width="0.25" style="fill:rgb(0,0,0);font-family:TimesNewRomanPS-BoldItalicMT;font-size:9.96px;stroke:none;"> </text>
  </g>
  <g begin="text">
   <text y="709.66" x="144.26,150.864,153.632,156.969,161.391,163.921,168.343,173.393,177.815,180.584,185.006,187.437,195.225,203.014,210.803,213.313,215.952,221.49,224.806,229.259,234.796,238.621,241.39,244.726,249.756,252.266,257.296,260.643,263.153,265.921,270.941,276.479" svgx:width="0.67,0.28,0.33,0.44,0.25,0.44,0.5,0.44,0.28,0.44,0.25,0.78,0.78,0.78,0.25,0.28,0.56,0.33,0.44,0.56,0.39,0.28,0.33,0.5,0.25,0.5,0.33,0.25,0.28,0.5,0.56,0.56" style="fill:rgb(0,0,0);font-family:TimesNewRomanPS-BoldMT;font-size:9.96px;stroke:none;">Life cycle GHG intensity of land</text>
  </g>
  <g begin="text">
   <text y="709.66" x="282.17" svgx:width="0.33" style="fill:rgb(0,0,0);font-family:TimesNewRomanPS-BoldMT;font-size:9.96px;stroke:none;">-</text>
  </g>
  <g begin="text">
   <text y="709.66" x="285.53,291.068,296.078,299.922,304.344,309.882,312.392,315.739,320.161,324.613,327.382,332.402,337.94,341.256,343.796,347.143,351.565,356.017,361.555,367.053,372.082,374.851,379.871,384.901,387.67,392.092,395.967,398.457,403.486,409.024,414.522,417.032,420.378,425.916,430.338,433.107,435.597,438.964,443.994,449.531,453.954,457.798,460.308,462.818,469.422,474.451,478.874,484.411,486.921,492.459,497.469,501.891" svgx:width="0.56,0.5,0.39,0.44,0.56,0.25,0.33,0.44,0.44,0.28,0.5,0.56,0.33,0.25,0.33,0.44,0.44,0.56,0.56,0.5,0.28,0.5,0.5,0.28,0.44,0.39,0.25,0.5,0.56,0.56,0.25,0.33,0.56,0.44,0.28,0.25,0.33,0.5,0.56,0.44,0.39,0.25,0.25,0.67,0.5,0.44,0.56,0.25,0.56,0.5,0.44,0.25" style="fill:rgb(0,0,0);font-family:TimesNewRomanPS-BoldMT;font-size:9.96px;stroke:none;">based freight technologies and fuel types. Each bar </text>
  </g>
  <g begin="text">
   <text y="709.66" x="48.0" svgx:width="0.5" style="fill:rgb(0,0,0);font-family:TimesNewRomanPSMT;font-size:12.0px;stroke:none;">4</text>
  </g>
  <g begin="text">
   <text y="709.66" x="54.0" svgx:width="0.25" style="fill:rgb(0,0,0);font-family:TimesNewRomanPSMT;font-size:12.0px;stroke:none;"> </text>
  </g>
  <g begin="text">
   <text y="722.38" x="74.544,78.966,83.418,88.956,93.378,97.801,101.675,106.097,111.635,114.952,118.826,121.316,124.693,130.23,134.653,137.163,141.585,146.635,152.172,157.182,161.604,164.134,169.164,172.511,175.021,178.367,183.905,188.327,190.837,193.606,196.375,199.691,204.144,206.654,211.076,216.125,220.548,223.317,227.739,230.279,234.701,238.575,241.892,244.661,253.067,257.987,261.334,265.756,269.631,272.121,274.64,280.178,285.188,290.726,296.224,301.762,306.184,311.721,314.331,319.869,324.879,327.389,335.775,338.544,344.082,346.811,355.197,360.735,369.111,371.621,376.651,382.189,387.686,390.196,398.493,403.503,408.533,411.302,419.678,425.076,433.463,435.863,440.285,445.823,450.245,454.697,459.727,464.757,467.267,472.805,476.629,481.052,483.581,489.119,493.541,497.964,500.493,503.84,509.467,517.854,520.254" svgx:width="0.44,0.44,0.56,0.44,0.44,0.39,0.44,0.56,0.33,0.39,0.25,0.33,0.56,0.44,0.25,0.44,0.5,0.56,0.5,0.44,0.25,0.5,0.33,0.25,0.33,0.56,0.44,0.25,0.28,0.28,0.33,0.44,0.25,0.44,0.5,0.44,0.28,0.44,0.25,0.44,0.39,0.33,0.28,0.83,0.5,0.33,0.44,0.39,0.25,0.25,0.56,0.5,0.56,0.56,0.56,0.44,0.56,0.25,0.56,0.5,0.25,0.83,0.28,0.56,0.28,0.83,0.56,0.83,0.25,0.5,0.56,0.56,0.25,0.83,0.5,0.5,0.28,0.83,0.56,0.83,0.25,0.44,0.56,0.44,0.44,0.5,0.5,0.25,0.56,0.39,0.44,0.25,0.56,0.44,0.44,0.25,0.33,0.56,0.83,0.25,0.25" style="fill:rgb(0,0,0);font-family:TimesNewRomanPS-BoldMT;font-size:9.96px;stroke:none;">represents the range of the life cycle estimates, bounded by minimum and maximum energy use per tkm, </text>
  </g>
  <g begin="text">
   <text y="722.38" x="48.0" svgx:width="0.5" style="fill:rgb(0,0,0);font-family:TimesNewRomanPSMT;font-size:12.0px;stroke:none;">5</text>
  </g>
  <g begin="text">
   <text y="722.38" x="54.0" svgx:width="0.25" style="fill:rgb(0,0,0);font-family:TimesNewRomanPSMT;font-size:12.0px;stroke:none;"> </text>
  </g>
  <g begin="text">
   <text y="734.98" x="90.264,95.294,99.138,101.648,106.07,110.523,116.06,121.07,125.493,128.859,133.281,138.819,141.329,144.676,149.705,154.128,156.657,161.08,166.129,170.552,176.089,178.599,181.946,187.484,191.906,194.675,197.444,202.941,207.862,215.053,219.475,223.927,227.274,231.696,236.746,239.515,245.052,247.542,251.965,257.014,265.401,270.938,273.707,279.205,284.235,287.582,290.35,295.37,300.908,303.398,305.918,312.521,318.059,322.481,324.991,329.414,334.463,340.001,345.011,349.433,353.308,355.798,360.837,365.26,369.712,372.222,377.759,382.182,384.951,389.97" svgx:width="0.5,0.39,0.25,0.44,0.44,0.56,0.5,0.44,0.33,0.44,0.56,0.25,0.33,0.5,0.44,0.25,0.44,0.5,0.44,0.56,0.25,0.33,0.56,0.44,0.28,0.28,0.56,0.5,0.72,0.44,0.44,0.33,0.44,0.5,0.28,0.56,0.25,0.44,0.5,0.83,0.56,0.28,0.56,0.5,0.33,0.28,0.5,0.56,0.25,0.25,0.67,0.56,0.44,0.25,0.44,0.5,0.56,0.5,0.44,0.39,0.25,0.5,0.44,0.44,0.25,0.56,0.44,0.28,0.5,0.44" style="fill:rgb(0,0,0);font-family:TimesNewRomanPS-BoldMT;font-size:9.96px;stroke:none;">as reported for each fuel/powertrain combination. The ranges are drive</text>
  </g>
  <g begin="text">
   <text y="734.98" x="394.75,400.288,402.778,408.315,413.335,415.845,421.383,424.152,427.469,430.835,435.257,439.709,444.132,449.669,454.092,458.544,462.388,464.898,467.667,473.205,475.695,480.725,485.147,490.685,493.454,497.876,500.645,505.067" svgx:width="0.56,0.25,0.56,0.5,0.25,0.56,0.28,0.33,0.33,0.44,0.44,0.44,0.56,0.44,0.44,0.39,0.25,0.28,0.56,0.25,0.5,0.44,0.56,0.28,0.44,0.28,0.44,0.25" style="fill:rgb(0,0,0);font-family:TimesNewRomanPS-BoldMT;font-size:9.96px;stroke:none;">n by differences in vehicle </text>
  </g>
  <g begin="text">
   <text y="734.98" x="48.0" svgx:width="0.5" style="fill:rgb(0,0,0);font-family:TimesNewRomanPSMT;font-size:12.0px;stroke:none;">6</text>
  </g>
  <g begin="text">
   <text y="734.98" x="54.0" svgx:width="0.25" style="fill:rgb(0,0,0);font-family:TimesNewRomanPSMT;font-size:12.0px;stroke:none;"> </text>
  </g>
  <g begin="text">
   <text y="747.696" x="72.624,77.046,82.584,87.614,92.036,97.086,101.508,104.874,109.297,113.749,116.518,120.352,123.699,126.468,130.89,134.764,137.254,142.284,147.822,153.32,155.83,160.86,166.397,170.82,175.242,180.292,183.638,186.407,191.945,196.945,199.455,203.877,207.243,210.59,213.359,217.781,220.55,224.972,230.51,234.932,239.982,242.492,245.002,251.107,256.137,260.46,262.97,267.392,272.93,277.352,281.804,286.834,291.864,294.373,298.218,303.248,308.786,313.088,317.511,321.963,325.807,328.317,335.508,338.277,341.624,347.161,349.651,355.189,357.958,362.978,368.516,371.285,376.285,378.794,383.824,388.854,393.276,396.045,401.085,406.623,409.392,413.814,416.304,421.842,427.379,431.204,434.67,439.092,443.545,448.574,456.961,459.471,463.793,472.18,474.948,478.783,482.628,485.396,490.416,495.954,499.779,502.289,504.798,507.567,512.587,519.778,522.298" svgx:width="0.44,0.56,0.5,0.44,0.5,0.44,0.33,0.44,0.44,0.28,0.39,0.33,0.28,0.44,0.39,0.25,0.5,0.56,0.56,0.25,0.5,0.56,0.44,0.44,0.5,0.33,0.28,0.56,0.5,0.25,0.44,0.33,0.33,0.28,0.44,0.28,0.44,0.56,0.44,0.5,0.25,0.25,0.61,0.5,0.44,0.25,0.44,0.56,0.44,0.44,0.5,0.5,0.25,0.39,0.5,0.56,0.44,0.44,0.44,0.39,0.25,0.72,0.28,0.33,0.56,0.25,0.56,0.28,0.5,0.56,0.28,0.5,0.25,0.5,0.5,0.44,0.28,0.5,0.56,0.28,0.44,0.25,0.56,0.56,0.39,0.33,0.44,0.44,0.5,0.83,0.25,0.44,0.83,0.28,0.39,0.39,0.28,0.5,0.56,0.39,0.25,0.25,0.28,0.5,0.72,0.25,0.25" style="fill:rgb(0,0,0);font-family:TimesNewRomanPS-BoldMT;font-size:9.96px;stroke:none;">characteristics and operating efficiency. For energy sources with highly variable upstream emissions, low, </text>
  </g>
  <g begin="text">
   <text y="747.696" x="48.0" svgx:width="0.5" style="fill:rgb(0,0,0);font-family:TimesNewRomanPSMT;font-size:12.0px;stroke:none;">7</text>
  </g>
  <g begin="text">
   <text y="747.696" x="54.0" svgx:width="0.25" style="fill:rgb(0,0,0);font-family:TimesNewRomanPSMT;font-size:12.0px;stroke:none;"> </text>
  </g>
  <g begin="text">
   <text y="760.296" x="80.904,89.29,93.713,99.25,102.019,107.557,115.923,118.433,123.463,129.001,134.499,137.268,142.288,146.71,149.24,154.777,157.546,162.546,168.084,170.574,175.016,179.438,184.976,189.398,193.85,197.695,202.247,207.784,211.101,216.161,219.507,222.276,227.296,231.718,234.248,239.278,244.308,247.077,252.614,257.037,260.871,263.381,268.411,272.833,277.285,279.795,283.64,289.178,294.188,301.379,306.916,309.406,314.456,318.301,320.811,324.655,329.077,334.615,339.645,344.067,349.117,352.463,356.886,359.415,363.838,368.887,376.079,379.953,382.443,384.953,391.058,396.088,400.51,402.931,406.277,410.7,416.237,420.66,426.307,430.151,432.661,435.171,438.518,443.916,448.338,450.868,456.406,460.828,463.597,471.973,477.003,481.426,486.475,488.985" svgx:width="0.83,0.44,0.56,0.28,0.56,0.83,0.25,0.5,0.56,0.56,0.28,0.5,0.44,0.25,0.56,0.28,0.5,0.56,0.25,0.44,0.44,0.56,0.44,0.44,0.39,0.44,0.56,0.33,0.5,0.33,0.28,0.5,0.44,0.25,0.5,0.5,0.28,0.56,0.44,0.39,0.25,0.5,0.44,0.44,0.25,0.39,0.56,0.5,0.72,0.56,0.25,0.5,0.39,0.25,0.39,0.44,0.56,0.5,0.44,0.5,0.33,0.44,0.25,0.44,0.5,0.72,0.39,0.25,0.25,0.61,0.5,0.44,0.25,0.33,0.44,0.56,0.44,0.56,0.39,0.25,0.25,0.33,0.56,0.44,0.25,0.56,0.44,0.28,0.83,0.5,0.44,0.5,0.25,0.5" style="fill:rgb(0,0,0);font-family:TimesNewRomanPS-BoldMT;font-size:9.96px;stroke:none;">medium and/or high representative values are shown as separate rows. For trucks, the primary x</text>
  </g>
  <g begin="text">
   <text y="760.296" x="494.38" svgx:width="0.33" style="fill:rgb(0,0,0);font-family:TimesNewRomanPS-BoldMT;font-size:9.96px;stroke:none;">-</text>
  </g>
  <g begin="text">
   <text y="760.296" x="497.74,502.77,507.8,510.569,514.403" svgx:width="0.5,0.5,0.28,0.39,0.25" style="fill:rgb(0,0,0);font-family:TimesNewRomanPS-BoldMT;font-size:9.96px;stroke:none;">axis </text>
  </g>
  <g begin="text">
   <text y="760.296" x="48.0" svgx:width="0.5" style="fill:rgb(0,0,0);font-family:TimesNewRomanPSMT;font-size:12.0px;stroke:none;">8</text>
  </g>
  <g begin="text">
   <text y="760.296" x="54.0" svgx:width="0.25" style="fill:rgb(0,0,0);font-family:TimesNewRomanPSMT;font-size:12.0px;stroke:none;"> </text>
  </g>
  <rect style="fill:pink;opacity:0.2;stroke:blue;stroke-width:0.3;" x="112.02" y="30.08" height="233.0" width="371.24" title="54"/>
  <text y="30.08" class="image" id="image.54.1" width="371" height="233" x="112.02" style="font-size:5.0px;">image.54.1.112_483.30_263</text>
  <rect style="fill:pink;opacity:0.2;stroke:blue;stroke-width:0.3;" x="118.4" y="264.23" height="225.0" width="358.49" title="54"/>
  <text y="264.23" class="image" id="image.54.2" width="358" height="225" x="118.4" style="font-size:5.0px;">image.54.2.118_477.264_489</text>
  <rect style="fill:pink;opacity:0.2;stroke:blue;stroke-width:0.3;" x="118.77" y="490.38" height="160.8" width="357.66" title="54"/>
  <text y="490.38" class="image" id="image.54.3" width="357" height="160" x="118.77" style="font-size:5.0px;">image.54.3.119_476.490_651</text>
  <g begin="text">
   <text y="602.109" transform="matrix(0.70711,-0.70711,0.70711,0.70711,-395.12956,250.29085)" rotateDegrees="-45" matrix="[29.803345,29.803345,-29.803345,29.803345,104.563255,239.8115]" x="104.563" svgx:width="0.67" style="fill:rgb(0,0,0);font-family:Arial;font-size:42.15px;stroke:none;">A</text>
   <text y="582.23" transform="matrix(0.70711,-0.70711,0.70711,0.70711,-375.25056,258.525)" rotateDegrees="-45" matrix="[29.803345,29.803345,-29.803345,29.803345,124.442085,259.6903]" x="124.442" svgx:width="0.72" style="fill:rgb(0,0,0);font-family:Arial;font-size:42.15px;stroke:none;">C</text>
   <text y="560.712" transform="matrix(0.70711,-0.70711,0.70711,0.70711,-353.73256,267.43805)" rotateDegrees="-45" matrix="[29.803345,29.803345,-29.803345,29.803345,145.9601,281.20834]" x="145.96" svgx:width="0.72" style="fill:rgb(0,0,0);font-family:Arial;font-size:42.15px;stroke:none;">C</text>
   <text y="539.194" transform="matrix(0.70711,-0.70711,0.70711,0.70711,-332.21456,276.3511)" rotateDegrees="-45" matrix="[29.803345,29.803345,-29.803345,29.803345,167.47812,302.72635]" x="167.478" svgx:width="0.67" style="fill:rgb(0,0,0);font-family:Arial;font-size:42.15px;stroke:none;">E</text>
   <text y="519.315" transform="matrix(0.70711,-0.70711,0.70711,0.70711,-312.33556,284.58525)" rotateDegrees="-45" matrix="[29.803345,29.803345,-29.803345,29.803345,187.35693,322.60516]" x="187.357" svgx:width="0.67" style="fill:rgb(0,0,0);font-family:Arial;font-size:42.15px;stroke:none;">P</text>
   <text y="499.436" transform="matrix(0.70711,-0.70711,0.70711,0.70711,-292.45656,292.8194)" rotateDegrees="-45" matrix="[29.803345,29.803345,-29.803345,29.803345,207.23578,342.484]" x="207.236" svgx:width="0.61" style="fill:rgb(0,0,0);font-family:Arial;font-size:42.15px;stroke:none;">T</text>
   <text y="481.226" transform="matrix(0.70711,-0.70711,0.70711,0.70711,-274.24656,300.36223)" rotateDegrees="-45" matrix="[29.803345,29.803345,-29.803345,29.803345,225.44562,360.69385]" x="225.446" svgx:width="0.67" style="fill:rgb(0,0,0);font-family:Arial;font-size:42.15px;stroke:none;">E</text>
   <text y="461.347" transform="matrix(0.70711,-0.70711,0.70711,0.70711,-254.36786,308.59567)" rotateDegrees="-45" matrix="[29.803345,29.803345,-29.803345,29.803345,245.32443,380.57266]" x="245.324" svgx:width="0.72" style="fill:rgb(0,0,0);font-family:Arial;font-size:42.15px;stroke:none;">D</text>
   <text y="439.829" transform="matrix(0.70711,-0.70711,0.70711,0.70711,-232.84986,317.50872)" rotateDegrees="-45" matrix="[29.803345,29.803345,-29.803345,29.803345,266.84247,402.0907]" x="266.842" svgx:width="0.28" style="fill:rgb(0,0,0);font-family:Arial;font-size:42.15px;stroke:none;"> </text>
   <text y="431.54" transform="matrix(0.70711,-0.70711,0.70711,0.70711,-224.56056,320.94284)" rotateDegrees="-45" matrix="[29.803345,29.803345,-29.803345,29.803345,275.13153,410.37976]" x="275.132" svgx:width="0.67" style="fill:rgb(0,0,0);font-family:Arial;font-size:42.15px;stroke:none;">V</text>
   <text y="411.661" transform="matrix(0.70711,-0.70711,0.70711,0.70711,-204.68186,329.17629)" rotateDegrees="-45" matrix="[29.803345,29.803345,-29.803345,29.803345,295.0103,430.25858]" x="295.01" svgx:width="0.67" style="fill:rgb(0,0,0);font-family:Arial;font-size:42.15px;stroke:none;">E</text>
   <text y="391.783" transform="matrix(0.70711,-0.70711,0.70711,0.70711,-184.80356,337.41073)" rotateDegrees="-45" matrix="[29.803345,29.803345,-29.803345,29.803345,314.88916,450.1374]" x="314.889" svgx:width="0.72" style="fill:rgb(0,0,0);font-family:Arial;font-size:42.15px;stroke:none;">R</text>
   <text y="370.265" transform="matrix(0.70711,-0.70711,0.70711,0.70711,-163.28556,346.32378)" rotateDegrees="-45" matrix="[29.803345,29.803345,-29.803345,29.803345,336.40717,471.65543]" x="336.407" svgx:width="0.67" style="fill:rgb(0,0,0);font-family:Arial;font-size:42.15px;stroke:none;">S</text>
   <text y="350.386" transform="matrix(0.70711,-0.70711,0.70711,0.70711,-143.40656,354.55793)" rotateDegrees="-45" matrix="[29.803345,29.803345,-29.803345,29.803345,356.286,491.53424]" x="356.286" svgx:width="0.28" style="fill:rgb(0,0,0);font-family:Arial;font-size:42.15px;stroke:none;">I</text>
   <text y="342.1" transform="matrix(0.70711,-0.70711,0.70711,0.70711,-135.12086,357.9894)" rotateDegrees="-45" matrix="[29.803345,29.803345,-29.803345,29.803345,364.57135,499.81958]" x="364.571" svgx:width="0.78" style="fill:rgb(0,0,0);font-family:Arial;font-size:42.15px;stroke:none;">O</text>
   <text y="318.913" transform="matrix(0.70711,-0.70711,0.70711,0.70711,-111.93386,367.59377)" rotateDegrees="-45" matrix="[29.803345,29.803345,-29.803345,29.803345,387.7583,523.0066]" x="387.758" svgx:width="0.72" style="fill:rgb(0,0,0);font-family:Arial;font-size:42.15px;stroke:none;">N</text>
   <text y="297.395" transform="matrix(0.70711,-0.70711,0.70711,0.70711,-90.41586,376.50681)" rotateDegrees="-45" matrix="[29.803345,29.803345,-29.803345,29.803345,409.27637,544.5246]" x="409.276" svgx:width="0.28" style="fill:rgb(0,0,0);font-family:Arial;font-size:42.15px;stroke:none;"> </text>
   <text y="637.872" transform="matrix(0.70711,-0.70711,0.70711,0.70711,-409.94279,286.05456)" rotateDegrees="-45" matrix="[29.803345,29.803345,-29.803345,29.803345,140.32727,204.04747]" x="140.327" svgx:width="0.67" style="fill:rgb(0,0,0);font-family:Arial;font-size:42.15px;stroke:none;">S</text>
   <text y="617.994" transform="matrix(0.70711,-0.70711,0.70711,0.70711,-390.0645,294.289)" rotateDegrees="-45" matrix="[29.803345,29.803345,-29.803345,29.803345,160.2061,223.9263]" x="160.206" svgx:width="0.72" style="fill:rgb(0,0,0);font-family:Arial;font-size:42.15px;stroke:none;">U</text>
   <text y="596.476" transform="matrix(0.70711,-0.70711,0.70711,0.70711,-368.5465,303.20205)" rotateDegrees="-45" matrix="[29.803345,29.803345,-29.803345,29.803345,181.72412,245.4443]" x="181.724" svgx:width="0.67" style="fill:rgb(0,0,0);font-family:Arial;font-size:42.15px;stroke:none;">B</text>
   <text y="576.597" transform="matrix(0.70711,-0.70711,0.70711,0.70711,-348.6675,311.4362)" rotateDegrees="-45" matrix="[29.803345,29.803345,-29.803345,29.803345,201.60294,265.32315]" x="201.603" svgx:width="0.5" style="fill:rgb(0,0,0);font-family:Arial;font-size:42.15px;stroke:none;">J</text>
   <text y="561.695" transform="matrix(0.70711,-0.70711,0.70711,0.70711,-333.7655,317.60881)" rotateDegrees="-45" matrix="[29.803345,29.803345,-29.803345,29.803345,216.50462,280.22482]" x="216.505" svgx:width="0.67" style="fill:rgb(0,0,0);font-family:Arial;font-size:42.15px;stroke:none;">E</text>
   <text y="541.816" transform="matrix(0.70711,-0.70711,0.70711,0.70711,-313.88679,325.84225)" rotateDegrees="-45" matrix="[29.803345,29.803345,-29.803345,29.803345,236.38344,300.10364]" x="236.383" svgx:width="0.72" style="fill:rgb(0,0,0);font-family:Arial;font-size:42.15px;stroke:none;">C</text>
   <text y="520.298" transform="matrix(0.70711,-0.70711,0.70711,0.70711,-292.36879,334.7553)" rotateDegrees="-45" matrix="[29.803345,29.803345,-29.803345,29.803345,257.90146,321.62164]" x="257.901" svgx:width="0.61" style="fill:rgb(0,0,0);font-family:Arial;font-size:42.15px;stroke:none;">T</text>
   <text y="502.089" transform="matrix(0.70711,-0.70711,0.70711,0.70711,-274.1595,342.29842)" rotateDegrees="-45" matrix="[29.803345,29.803345,-29.803345,29.803345,276.1113,339.83148]" x="276.111" svgx:width="0.28" style="fill:rgb(0,0,0);font-family:Arial;font-size:42.15px;stroke:none;"> </text>
   <text y="493.803" transform="matrix(0.70711,-0.70711,0.70711,0.70711,-265.8735,345.7306)" rotateDegrees="-45" matrix="[29.803345,29.803345,-29.803345,29.803345,284.39664,348.11682]" x="284.397" svgx:width="0.61" style="fill:rgb(0,0,0);font-family:Arial;font-size:42.15px;stroke:none;">T</text>
   <text y="475.593" transform="matrix(0.70711,-0.70711,0.70711,0.70711,-247.66379,353.27272)" rotateDegrees="-45" matrix="[29.803345,29.803345,-29.803345,29.803345,302.60648,366.32666]" x="302.606" svgx:width="0.78" style="fill:rgb(0,0,0);font-family:Arial;font-size:42.15px;stroke:none;">O</text>
   <text y="452.406" transform="matrix(0.70711,-0.70711,0.70711,0.70711,-224.47679,362.87709)" rotateDegrees="-45" matrix="[29.803345,29.803345,-29.803345,29.803345,325.79346,389.51367]" x="325.793" svgx:width="0.28" style="fill:rgb(0,0,0);font-family:Arial;font-size:42.15px;stroke:none;"> </text>
   <text y="444.136" transform="matrix(0.70711,-0.70711,0.70711,0.70711,-216.2065,366.30334)" rotateDegrees="-45" matrix="[29.803345,29.803345,-29.803345,29.803345,334.0639,397.78412]" x="334.064" svgx:width="0.61" style="fill:rgb(0,0,0);font-family:Arial;font-size:42.15px;stroke:none;">F</text>
   <text y="425.926" transform="matrix(0.70711,-0.70711,0.70711,0.70711,-197.9965,373.84617)" rotateDegrees="-45" matrix="[29.803345,29.803345,-29.803345,29.803345,352.27374,415.99396]" x="352.274" svgx:width="0.28" style="fill:rgb(0,0,0);font-family:Arial;font-size:42.15px;stroke:none;">I</text>
   <text y="417.641" transform="matrix(0.70711,-0.70711,0.70711,0.70711,-189.7115,377.27793)" rotateDegrees="-45" matrix="[29.803345,29.803345,-29.803345,29.803345,360.55908,424.2793]" x="360.559" svgx:width="0.72" style="fill:rgb(0,0,0);font-family:Arial;font-size:42.15px;stroke:none;">N</text>
   <text y="396.123" transform="matrix(0.70711,-0.70711,0.70711,0.70711,-168.1935,386.19098)" rotateDegrees="-45" matrix="[29.803345,29.803345,-29.803345,29.803345,382.0771,445.7973]" x="382.077" svgx:width="0.67" style="fill:rgb(0,0,0);font-family:Arial;font-size:42.15px;stroke:none;">A</text>
   <text y="376.244" transform="matrix(0.70711,-0.70711,0.70711,0.70711,-148.3145,394.42513)" rotateDegrees="-45" matrix="[29.803345,29.803345,-29.803345,29.803345,401.95593,465.67615]" x="401.956" svgx:width="0.56" style="fill:rgb(0,0,0);font-family:Arial;font-size:42.15px;stroke:none;">L</text>
   <text y="359.673" transform="matrix(0.70711,-0.70711,0.70711,0.70711,-131.7435,401.28906)" rotateDegrees="-45" matrix="[29.803345,29.803345,-29.803345,29.803345,418.5266,482.24677]" x="418.527" svgx:width="0.28" style="fill:rgb(0,0,0);font-family:Arial;font-size:42.15px;stroke:none;"> </text>
   <text y="351.394" transform="matrix(0.70711,-0.70711,0.70711,0.70711,-123.4645,404.71834)" rotateDegrees="-45" matrix="[29.803345,29.803345,-29.803345,29.803345,426.80573,490.52588]" x="426.806" svgx:width="0.67" style="fill:rgb(0,0,0);font-family:Arial;font-size:42.15px;stroke:none;">E</text>
   <text y="331.515" transform="matrix(0.70711,-0.70711,0.70711,0.70711,-103.5855,412.95249)" rotateDegrees="-45" matrix="[29.803345,29.803345,-29.803345,29.803345,446.68457,510.40472]" x="446.685" svgx:width="0.72" style="fill:rgb(0,0,0);font-family:Arial;font-size:42.15px;stroke:none;">D</text>
   <text y="309.997" transform="matrix(0.70711,-0.70711,0.70711,0.70711,-82.0675,421.86554)" rotateDegrees="-45" matrix="[29.803345,29.803345,-29.803345,29.803345,468.2025,531.9227]" x="468.203" svgx:width="0.28" style="fill:rgb(0,0,0);font-family:Arial;font-size:42.15px;stroke:none;">I</text>
   <text y="301.712" transform="matrix(0.70711,-0.70711,0.70711,0.70711,-73.7825,425.29729)" rotateDegrees="-45" matrix="[29.803345,29.803345,-29.803345,29.803345,476.48785,540.20807]" x="476.488" svgx:width="0.61" style="fill:rgb(0,0,0);font-family:Arial;font-size:42.15px;stroke:none;">T</text>
   <text y="283.502" transform="matrix(0.70711,-0.70711,0.70711,0.70711,-55.5725,432.84012)" rotateDegrees="-45" matrix="[29.803345,29.803345,-29.803345,29.803345,494.6977,558.4179]" x="494.698" svgx:width="0.67" style="fill:rgb(0,0,0);font-family:Arial;font-size:42.15px;stroke:none;">S</text>
  </g>
 </g>
</svg>
