<?xml version="1.0" encoding="UTF-8"?>
<svg height="813.04" width="2582.0" xmlns="http://www.w3.org/2000/svg">
 <g id="page" xmlns:svgx="http://www.xml-cml.org/schema/svgx">
  <g begin="text">
   <text y="46.56" x="72.024,78.624,81.96,87.96,93.288,96.624,99.624,108.288,114.288,120.288,125.652,129.648,135.648,144.984,150.252,156.252,159.588,162.588,171.252,174.588,179.28,182.616,186.612,189.948,195.948,201.948,205.308,208.644,214.644" svgx:width="0.56,0.28,0.5,0.44,0.28,0.25,0.72,0.5,0.5,0.44,0.33,0.5,0.78,0.44,0.5,0.28,0.25,0.72,0.28,0.39,0.28,0.33,0.28,0.5,0.5,0.28,0.28,0.5,0.5" style="fill:rgb(0,0,0);font-family:TimesNewRomanPSMT;font-size:12.0px;stroke:none;">Final Government Distribution</text>
  </g>
  <g begin="text">
   <text y="46.56" x="220.73" svgx:width="0.25" style="fill:rgb(0,0,0);font-family:TimesNewRomanPSMT;font-size:11.04px;stroke:none;"> </text>
  </g>
  <g begin="text">
   <text y="46.56" x="273.41,280.729,286.249,291.151,296.671,299.796,304.598,308.307,311.067,316.587" svgx:width="0.67,0.5,0.44,0.5,0.28,0.44,0.33,0.25,0.5,0.5" style="fill:rgb(0,0,0);font-family:TimesNewRomanPSMT;font-size:11.04px;stroke:none;">Chapter 10</text>
  </g>
  <g begin="text">
   <text y="46.56" x="322.03" svgx:width="0.25" style="fill:rgb(0,0,0);font-family:TimesNewRomanPSMT;font-size:11.04px;stroke:none;"> </text>
  </g>
  <g begin="text">
   <text y="46.56" x="436.03,439.87,446.578,454.606,462.634,465.634,474.298,482.302,488.302,491.302,502.594,511.342,515.338,519.262" svgx:width="0.33,0.56,0.67,0.67,0.25,0.72,0.67,0.5,0.25,0.94,0.72,0.33,0.33,0.33" style="fill:rgb(0,0,0);font-family:TimesNewRomanPSMT;font-size:12.0px;stroke:none;">IPCC AR6 WGIII</text>
  </g>
  <g begin="text">
   <text y="46.56" x="523.42" svgx:width="0.25" style="fill:rgb(0,0,0);font-family:TimesNewRomanPSMT;font-size:12.0px;stroke:none;"> </text>
  </g>
  <g begin="text">
   <text y="803.04" x="72.024,79.94,85.46,88.22,96.135,101.655,105.365,108.125,116.04,119.154,122.753,127.655,130.415,133.075,141.708,147.847,153.367,157.043,161.868,164.628,170.148,175.049,177.809,185.78,188.75,192.945,196.655,201.556,204.681,210.819,216.803,220.512" svgx:width="0.72,0.5,0.25,0.72,0.5,0.33,0.25,0.72,0.28,0.33,0.44,0.25,0.25,0.78,0.56,0.5,0.33,0.44,0.25,0.5,0.44,0.25,0.72,0.28,0.39,0.33,0.44,0.28,0.56,0.56,0.33,0.44" style="fill:rgb(0,0,0);font-family:TimesNewRomanPS-BoldMT;font-size:11.04px;stroke:none;">Do Not Cite, Quote or Distribute</text>
  </g>
  <g begin="text">
   <text y="803.04" x="225.41" svgx:width="0.25" style="fill:rgb(0,0,0);font-family:TimesNewRomanPS-BoldMT;font-size:11.04px;stroke:none;"> </text>
  </g>
  <g begin="text">
   <text y="803.04" x="284.81,290.33" svgx:width="0.5,0.5" style="fill:rgb(0,0,0);font-family:TimesNewRomanPSMT;font-size:11.04px;stroke:none;">10</text>
  </g>
  <g begin="text">
   <text y="803.04" x="295.85" svgx:width="0.33" style="fill:rgb(0,0,0);font-family:TimesNewRomanPS-BoldMT;font-size:11.04px;stroke:none;">-</text>
  </g>
  <g begin="text">
   <text y="803.04" x="299.57,305.09" svgx:width="0.5,0.5" style="fill:rgb(0,0,0);font-family:TimesNewRomanPSMT;font-size:11.04px;stroke:none;">39</text>
  </g>
  <g begin="text">
   <text y="803.04" x="310.61" svgx:width="0.25" style="fill:rgb(0,0,0);font-family:TimesNewRomanPSMT;font-size:11.04px;stroke:none;"> </text>
  </g>
  <g begin="text">
   <text y="803.04" x="313.27" svgx:width="0.25" style="fill:rgb(0,0,0);font-family:TimesNewRomanPSMT;font-size:11.04px;stroke:none;"> </text>
  </g>
  <g begin="text">
   <text y="803.04" x="450.1,456.845,462.365,465.435,470.259,473.372,476.132,481.652,486.554,491.975,496.876,501.204,504.207" svgx:width="0.61,0.5,0.28,0.44,0.28,0.25,0.5,0.44,0.5,0.44,0.39,0.28,0.25" style="fill:rgb(0,0,0);font-family:TimesNewRomanPSMT;font-size:11.04px;stroke:none;">Total pages: </text>
  </g>
  <g begin="text">
   <text y="803.04" x="506.98,512.5,518.02" svgx:width="0.5,0.5,0.5" style="fill:rgb(0,0,0);font-family:TimesNewRomanPSMT;font-size:11.04px;stroke:none;">176</text>
  </g>
  <g begin="text">
   <text y="803.04" x="523.42" svgx:width="0.25" style="fill:rgb(0,0,0);font-family:TimesNewRomanPSMT;font-size:9.96px;stroke:none;"> </text>
  </g>
  <g begin="text">
   <text y="646.78" x="523.54" svgx:width="0.25" style="fill:rgb(0,0,0);font-family:TimesNewRomanPSMT;font-size:12.0px;stroke:none;"> </text>
  </g>
  <g begin="text">
   <text y="646.78" x="48.0" svgx:width="0.5" style="fill:rgb(0,0,0);font-family:TimesNewRomanPSMT;font-size:12.0px;stroke:none;">1</text>
  </g>
  <g begin="text">
   <text y="646.78" x="54.0" svgx:width="0.25" style="fill:rgb(0,0,0);font-family:TimesNewRomanPSMT;font-size:12.0px;stroke:none;"> </text>
  </g>
  <g begin="text">
   <text y="656.14" x="81.024,87.129,89.898,94.918,100.456,104.878,109.3,111.83,116.86,121.89" svgx:width="0.61,0.28,0.5,0.56,0.44,0.44,0.25,0.5,0.5,0.25" style="fill:rgb(0,0,0);font-family:TimesNewRomanPS-BoldMT;font-size:9.96px;stroke:none;">Figure 10.</text>
  </g>
  <g begin="text">
   <text y="656.14" x="124.46" svgx:width="0.5" style="fill:rgb(0,0,0);font-family:TimesNewRomanPS-BoldMT;font-size:9.96px;stroke:none;">4</text>
  </g>
  <g begin="text">
   <text y="656.14" x="129.5" svgx:width="0.25" style="fill:rgb(0,0,0);font-family:TimesNewRomanPS-BoldMT;font-size:9.96px;stroke:none;"> </text>
  </g>
  <g begin="text">
   <text y="656.14" x="132.02,138.624,141.392,144.729,149.151,151.681,156.103,161.153,165.575,168.344,172.766,175.197,182.985,190.774,198.563,200.963,205.385,213.792,216.56,220.395,224.24,227.009,232.028,237.566,241.391,243.901,246.67,252.207,255.524,259.966,265.594,269.438,272.207,275.544,278.313,282.735,286.609,289.099,292.456,297.485,301.908,304.438,312.824,315.593" svgx:width="0.67,0.28,0.33,0.44,0.25,0.44,0.5,0.44,0.28,0.44,0.25,0.78,0.78,0.78,0.25,0.44,0.83,0.28,0.39,0.39,0.28,0.5,0.56,0.39,0.25,0.28,0.56,0.33,0.44,0.56,0.39,0.28,0.33,0.28,0.44,0.39,0.25,0.33,0.5,0.44,0.25,0.83,0.28,0.56" style="fill:rgb(0,0,0);font-family:TimesNewRomanPS-BoldMT;font-size:9.96px;stroke:none;">Life cycle GHG emissions intensities for mid</text>
  </g>
  <g begin="text">
   <text y="656.14" x="321.31" svgx:width="0.33" style="fill:rgb(0,0,0);font-family:TimesNewRomanPS-BoldMT;font-size:9.96px;stroke:none;">-</text>
  </g>
  <g begin="text">
   <text y="656.14" x="324.67,328.515,331.283,335.706,340.128,345.666,348.186,350.954,353.723,358.733,364.271" svgx:width="0.39,0.28,0.44,0.44,0.56,0.25,0.28,0.28,0.5,0.56,0.33" style="fill:rgb(0,0,0);font-family:TimesNewRomanPS-BoldMT;font-size:9.96px;stroke:none;">sized light</text>
  </g>
  <g begin="text">
   <text y="656.14" x="367.63" svgx:width="0.33" style="fill:rgb(0,0,0);font-family:TimesNewRomanPS-BoldMT;font-size:9.96px;stroke:none;">-</text>
  </g>
  <g begin="text">
   <text y="656.14" x="370.99,376.528,382.026,385.372,390.402,392.912,397.942,402.364,407.902,410.671,415.093,417.862,422.284,424.814,429.844,435.381,440.879,443.509,446.855,452.393,456.815,459.584,462.074,465.441,469.863,474.315,479.853,485.351,490.38,493.149,498.169,503.199,505.968,510.39,514.265" svgx:width="0.56,0.56,0.33,0.5,0.25,0.5,0.44,0.56,0.28,0.44,0.28,0.44,0.25,0.5,0.56,0.56,0.25,0.33,0.56,0.44,0.28,0.25,0.33,0.44,0.44,0.56,0.56,0.5,0.28,0.5,0.5,0.28,0.44,0.39,0.25" style="fill:rgb(0,0,0);font-family:TimesNewRomanPS-BoldMT;font-size:9.96px;stroke:none;">duty vehicle and fuel technologies </text>
  </g>
  <g begin="text">
   <text y="656.14" x="48.0" svgx:width="0.5" style="fill:rgb(0,0,0);font-family:TimesNewRomanPSMT;font-size:12.0px;stroke:none;">2</text>
  </g>
  <g begin="text">
   <text y="656.14" x="54.0" svgx:width="0.25" style="fill:rgb(0,0,0);font-family:TimesNewRomanPSMT;font-size:12.0px;stroke:none;"> </text>
  </g>
  <g begin="text">
   <text y="668.86" x="72.744,76.091,80.513,85.563,93.949,96.349,99.696,105.234,109.656,112.166,114.935,117.703,121.02,125.472,129.895,134.944,138.291,143.829,148.251,152.673,155.203,157.713,164.316,169.854,174.276,176.786,182.324,186.746,189.515,197.891,202.921,207.343,212.393,214.794" svgx:width="0.33,0.44,0.5,0.83,0.25,0.33,0.56,0.44,0.25,0.28,0.28,0.33,0.44,0.44,0.5,0.33,0.56,0.44,0.44,0.25,0.25,0.67,0.56,0.44,0.25,0.56,0.44,0.28,0.83,0.5,0.44,0.5,0.25,0.5" style="fill:rgb(0,0,0);font-family:TimesNewRomanPS-BoldMT;font-size:9.96px;stroke:none;">from the literature. The primary x</text>
  </g>
  <g begin="text">
   <text y="668.86" x="220.01" svgx:width="0.33" style="fill:rgb(0,0,0);font-family:TimesNewRomanPS-BoldMT;font-size:9.96px;stroke:none;">-</text>
  </g>
  <g begin="text">
   <text y="668.86" x="223.37,228.29,233.32,236.089,239.924,242.433,246.856,251.308,256.846,261.855,266.278,269.644,273.489,275.999,281.536,287.034,289.803,293.14,296.984,299.494,302.263,307.801,310.4,315.43,317.94,325.131" svgx:width="0.5,0.5,0.28,0.39,0.25,0.44,0.44,0.56,0.5,0.44,0.33,0.39,0.25,0.56,0.56,0.28,0.33,0.39,0.25,0.28,0.56,0.25,0.5,0.25,0.72,0.78" style="fill:rgb(0,0,0);font-family:TimesNewRomanPS-BoldMT;font-size:9.96px;stroke:none;">axis reports units in g CO</text>
  </g>
  <g begin="text">
   <text y="669.34" x="333.07" svgx:width="0.5" style="fill:rgb(0,0,0);font-family:TimesNewRomanPS-BoldMT;font-size:6.48px;stroke:none;">2</text>
  </g>
  <g begin="text">
   <text y="668.86" x="336.31" svgx:width="0.33" style="fill:rgb(0,0,0);font-family:TimesNewRomanPS-BoldMT;font-size:9.96px;stroke:none;">-</text>
  </g>
  <g begin="text">
   <text y="668.86" x="339.67,344.11" svgx:width="0.44,0.56" style="fill:rgb(0,0,0);font-family:TimesNewRomanPS-BoldMT;font-size:9.96px;stroke:none;">eq</text>
  </g>
  <g begin="text">
   <text y="668.86" x="349.63" svgx:width="0.25" style="fill:rgb(0,0,0);font-family:TimesNewRomanPS-BoldMT;font-size:9.96px;stroke:none;"> </text>
  </g>
  <g begin="text">
   <text y="668.86" x="352.15,357.18,362.718" svgx:width="0.5,0.56,0.83" style="fill:rgb(0,0,0);font-family:TimesNewRomanPS-BoldMT;font-size:9.96px;stroke:none;">vkm</text>
  </g>
  <g begin="text">
   <text y="665.38" x="371.11" svgx:width="0.33" style="fill:rgb(0,0,0);font-family:TimesNewRomanPS-BoldMT;font-size:6.48px;stroke:none;">-</text>
  </g>
  <g begin="text">
   <text y="665.38" x="373.27" svgx:width="0.5" style="fill:rgb(0,0,0);font-family:TimesNewRomanPS-BoldMT;font-size:6.48px;stroke:none;">1</text>
  </g>
  <g begin="text">
   <text y="668.86" x="376.51,379.02,381.42,386.45,390.295,394.139,399.677,408.053,410.822,416.36,421.36,423.87,428.9,431.41,436.439,440.862,446.399,449.168,453.591,456.359,460.782,463.311,466.08,468.849,472.166,476.618,479.128,484.158,487.504" svgx:width="0.25,0.25,0.5,0.39,0.39,0.56,0.83,0.28,0.56,0.5,0.25,0.5,0.25,0.5,0.44,0.56,0.28,0.44,0.28,0.44,0.25,0.28,0.28,0.33,0.44,0.25,0.5,0.33,0.25" style="fill:rgb(0,0,0);font-family:TimesNewRomanPS-BoldMT;font-size:9.96px;stroke:none;">, assuming a vehicle life of </text>
  </g>
  <g begin="text">
   <text y="668.86" x="490.18,495.21,500.13,505.16,507.67,512.59,517.62,522.65" svgx:width="0.5,0.5,0.5,0.25,0.5,0.5,0.5,0.25" style="fill:rgb(0,0,0);font-family:TimesNewRomanPS-BoldMT;font-size:9.96px;stroke:none;">180,000 </text>
  </g>
  <g begin="text">
   <text y="668.86" x="48.0" svgx:width="0.5" style="fill:rgb(0,0,0);font-family:TimesNewRomanPSMT;font-size:12.0px;stroke:none;">3</text>
  </g>
  <g begin="text">
   <text y="668.86" x="54.0" svgx:width="0.25" style="fill:rgb(0,0,0);font-family:TimesNewRomanPSMT;font-size:12.0px;stroke:none;"> </text>
  </g>
  <g begin="text">
   <text y="681.46" x="75.264,80.891,89.278,91.678,94.188,100.791,106.329,110.751,113.261,117.106,121.528,125.98,131.01,136.548,142.046,147.076,151.498,156.548,159.057" svgx:width="0.56,0.83,0.25,0.25,0.67,0.56,0.44,0.25,0.39,0.44,0.44,0.5,0.56,0.56,0.5,0.44,0.5,0.25,0.5" style="fill:rgb(0,0,0);font-family:TimesNewRomanPS-BoldMT;font-size:9.96px;stroke:none;">km. The secondary x</text>
  </g>
  <g begin="text">
   <text y="681.46" x="164.18" svgx:width="0.33" style="fill:rgb(0,0,0);font-family:TimesNewRomanPS-BoldMT;font-size:9.96px;stroke:none;">-</text>
  </g>
  <g begin="text">
   <text y="681.46" x="167.54,172.57,177.6,180.368,184.203,186.713,192.251,196.075,200.498,204.372,206.862,212.4,217.938,220.677,224.023,227.868,230.378,235.407,238.754,241.264,246.294,248.804,255.995" svgx:width="0.5,0.5,0.28,0.39,0.25,0.56,0.39,0.44,0.39,0.25,0.56,0.56,0.28,0.33,0.39,0.25,0.5,0.33,0.25,0.5,0.25,0.72,0.78" style="fill:rgb(0,0,0);font-family:TimesNewRomanPS-BoldMT;font-size:9.96px;stroke:none;">axis uses units of g CO</text>
  </g>
  <g begin="text">
   <text y="681.94" x="263.93" svgx:width="0.5" style="fill:rgb(0,0,0);font-family:TimesNewRomanPS-BoldMT;font-size:6.48px;stroke:none;">2</text>
  </g>
  <g begin="text">
   <text y="681.46" x="267.17" svgx:width="0.33" style="fill:rgb(0,0,0);font-family:TimesNewRomanPS-BoldMT;font-size:9.96px;stroke:none;">-</text>
  </g>
  <g begin="text">
   <text y="681.46" x="270.53,274.97" svgx:width="0.44,0.56" style="fill:rgb(0,0,0);font-family:TimesNewRomanPS-BoldMT;font-size:9.96px;stroke:none;">eq</text>
  </g>
  <g begin="text">
   <text y="681.46" x="280.49" svgx:width="0.25" style="fill:rgb(0,0,0);font-family:TimesNewRomanPS-BoldMT;font-size:9.96px;stroke:none;"> </text>
  </g>
  <g begin="text">
   <text y="681.46" x="283.01,288.548,294.155" svgx:width="0.56,0.56,0.83" style="fill:rgb(0,0,0);font-family:TimesNewRomanPS-BoldMT;font-size:9.96px;stroke:none;">pkm</text>
  </g>
  <g begin="text">
   <text y="677.98" x="302.57" svgx:width="0.33" style="fill:rgb(0,0,0);font-family:TimesNewRomanPS-BoldMT;font-size:6.48px;stroke:none;">-</text>
  </g>
  <g begin="text">
   <text y="677.98" x="304.73" svgx:width="0.5" style="fill:rgb(0,0,0);font-family:TimesNewRomanPS-BoldMT;font-size:6.48px;stroke:none;">1</text>
  </g>
  <g begin="text">
   <text y="681.46" x="307.97,310.48,312.99,317.91,321.755,325.599,331.137,339.513,342.282,347.82,352.82,355.33,360.36,362.87,367.899,370.409,375.439,377.949,382.979,387.401,391.853,397.391,402.889,407.919,413.456,417.879,422.908,425.418,429.841,434.781,438.018,442.44,444.97,447.48,454.083,459.621,464.043,466.553,471.583,476.613,479.382,484.919,489.342,493.176,495.686,498.455,503.993,506.483,509.839,515.377,519.799" svgx:width="0.25,0.25,0.5,0.39,0.39,0.56,0.83,0.28,0.56,0.5,0.25,0.5,0.25,0.5,0.25,0.5,0.25,0.5,0.44,0.44,0.56,0.56,0.5,0.56,0.44,0.5,0.25,0.44,0.5,0.33,0.44,0.25,0.25,0.67,0.56,0.44,0.25,0.5,0.5,0.28,0.56,0.44,0.39,0.25,0.28,0.56,0.25,0.33,0.56,0.44,0.25" style="fill:rgb(0,0,0);font-family:TimesNewRomanPS-BoldMT;font-size:9.96px;stroke:none;">, assuming a 1.5 occupancy rate. The values in the </text>
  </g>
  <g begin="text">
   <text y="681.46" x="48.0" svgx:width="0.5" style="fill:rgb(0,0,0);font-family:TimesNewRomanPSMT;font-size:12.0px;stroke:none;">4</text>
  </g>
  <g begin="text">
   <text y="681.46" x="54.0" svgx:width="0.25" style="fill:rgb(0,0,0);font-family:TimesNewRomanPSMT;font-size:12.0px;stroke:none;"> </text>
  </g>
  <g begin="text">
   <text y="694.06" x="78.504,81.851,84.619,89.639,95.177,99.599,104.022,106.551,110.974,115.426,118.195,123.214,125.724,130.754,136.292,138.782,142.148,147.686,152.108,154.618,159.648,164.568" svgx:width="0.33,0.28,0.5,0.56,0.44,0.44,0.25,0.44,0.44,0.28,0.5,0.25,0.5,0.56,0.25,0.33,0.56,0.44,0.25,0.5,0.5,0.5" style="fill:rgb(0,0,0);font-family:TimesNewRomanPS-BoldMT;font-size:9.96px;stroke:none;">figure rely on the 100</text>
  </g>
  <g begin="text">
   <text y="694.06" x="169.7" svgx:width="0.33" style="fill:rgb(0,0,0);font-family:TimesNewRomanPS-BoldMT;font-size:9.96px;stroke:none;">-</text>
  </g>
  <g begin="text">
   <text y="694.06" x="173.06,178.09,182.412,187.442,191.864,194.285,202.073,212.033,218.139,220.649,225.679,230.709,233.477,239.015,243.437,245.927,250.379,258.766,264.304,268.726,274.264,279.761,284.184,289.721,292.231,295.0,300.538,303.028,306.385,311.922,316.454,318.964,322.809,327.838,333.376,337.798,342.221,346.673,349.183,354.72,359.73,363.077,368.107,370.617,373.126,380.318,385.855,388.624,393.046,398.584,401.074,409.48,414.51,419.54,422.05,427.588,430.357,433.673,436.93,441.352,445.805,448.314,452.159,454.928,457.697,462.707,468.244,471.561,474.33,479.38,481.89,489.081,491.85,495.196,500.734,503.224,506.59,512.128,516.55" svgx:width="0.5,0.44,0.5,0.44,0.25,0.78,1.0,0.61,0.25,0.5,0.5,0.28,0.56,0.44,0.25,0.44,0.83,0.56,0.44,0.56,0.56,0.44,0.56,0.25,0.28,0.56,0.25,0.33,0.56,0.44,0.25,0.39,0.5,0.56,0.44,0.44,0.44,0.25,0.56,0.5,0.33,0.5,0.25,0.25,0.72,0.56,0.28,0.44,0.56,0.25,0.83,0.5,0.5,0.25,0.56,0.28,0.33,0.33,0.44,0.44,0.25,0.39,0.28,0.28,0.5,0.56,0.33,0.28,0.5,0.25,0.72,0.28,0.33,0.56,0.25,0.33,0.56,0.44,0.25" style="fill:rgb(0,0,0);font-family:TimesNewRomanPS-BoldMT;font-size:9.96px;stroke:none;">year GWP value embedded in the source data, which may differ slightly with the </text>
  </g>
  <g begin="text">
   <text y="694.06" x="48.0" svgx:width="0.5" style="fill:rgb(0,0,0);font-family:TimesNewRomanPSMT;font-size:12.0px;stroke:none;">5</text>
  </g>
  <g begin="text">
   <text y="694.06" x="54.0" svgx:width="0.25" style="fill:rgb(0,0,0);font-family:TimesNewRomanPSMT;font-size:12.0px;stroke:none;"> </text>
  </g>
  <g begin="text">
   <text y="706.78" x="89.784,95.322,100.82,106.357,111.367,114.714,119.136,124.674,127.184,132.214,137.243" svgx:width="0.56,0.56,0.56,0.5,0.33,0.44,0.56,0.25,0.5,0.5,0.5" style="fill:rgb(0,0,0);font-family:TimesNewRomanPS-BoldMT;font-size:9.96px;stroke:none;">updated 100</text>
  </g>
  <g begin="text">
   <text y="706.78" x="142.34" svgx:width="0.33" style="fill:rgb(0,0,0);font-family:TimesNewRomanPS-BoldMT;font-size:9.96px;stroke:none;">-</text>
  </g>
  <g begin="text">
   <text y="706.78" x="145.7,150.73,155.152,160.202,164.624,167.044,174.833,184.793,190.899,193.408,198.438,203.468,206.237,211.625,216.048,219.922,222.412,225.778,230.201,235.25,243.637,246.147,256.107,263.895" svgx:width="0.5,0.44,0.5,0.44,0.25,0.78,1.0,0.61,0.25,0.5,0.5,0.28,0.56,0.44,0.39,0.25,0.33,0.44,0.5,0.83,0.25,1.0,0.78,0.39" style="fill:rgb(0,0,0);font-family:TimesNewRomanPS-BoldMT;font-size:9.96px;stroke:none;">year GWP values from WGI</text>
  </g>
  <g begin="text">
   <text y="706.78" x="267.89,270.41" svgx:width="0.25,0.25" style="fill:rgb(0,0,0);font-family:TimesNewRomanPS-BoldMT;font-size:9.96px;stroke:none;">. </text>
  </g>
  <g begin="text">
   <text y="706.78" x="272.93,279.534,285.071" svgx:width="0.67,0.56,0.44" style="fill:rgb(0,0,0);font-family:TimesNewRomanPS-BoldMT;font-size:9.96px;stroke:none;">The</text>
  </g>
  <g begin="text">
   <text y="706.78" x="289.49" svgx:width="0.25" style="fill:rgb(0,0,0);font-family:TimesNewRomanPS-BoldMT;font-size:9.96px;stroke:none;"> </text>
  </g>
  <g begin="text">
   <text y="706.78" x="292.01,295.855,301.392,306.402,311.94,316.362,321.9,324.39,329.43,333.981,338.404,343.453,345.963,350.386,354.838,360.375,364.798,369.22,373.094,377.517,383.054,386.371,390.246,392.736,396.112,401.65,406.072,408.582,411.351,416.888,420.205,424.647,429.07,434.607,440.145,445.155,449.577,452.944,455.812,458.581,463.003,465.523,469.945,474.995,480.533,485.543,489.965,492.495,495.841,500.871,505.293" svgx:width="0.39,0.56,0.5,0.56,0.44,0.56,0.25,0.5,0.44,0.44,0.5,0.25,0.44,0.44,0.56,0.44,0.44,0.39,0.44,0.56,0.33,0.39,0.25,0.33,0.56,0.44,0.25,0.28,0.56,0.33,0.44,0.44,0.56,0.56,0.5,0.44,0.33,0.28,0.28,0.44,0.25,0.44,0.5,0.56,0.5,0.44,0.25,0.33,0.5,0.44,0.25" style="fill:rgb(0,0,0);font-family:TimesNewRomanPS-BoldMT;font-size:9.96px;stroke:none;">shaded area represents the interquartile range for </text>
  </g>
  <g begin="text">
   <text y="706.78" x="48.0" svgx:width="0.5" style="fill:rgb(0,0,0);font-family:TimesNewRomanPSMT;font-size:12.0px;stroke:none;">6</text>
  </g>
  <g begin="text">
   <text y="706.78" x="54.0" svgx:width="0.25" style="fill:rgb(0,0,0);font-family:TimesNewRomanPSMT;font-size:12.0px;stroke:none;"> </text>
  </g>
  <g begin="text">
   <text y="719.38" x="72.984,77.406,82.456,90.842,96.38,99.149,104.647,109.069,114.607,117.117,122.147,126.569,132.107,134.875,139.298,142.067,146.489,149.019,157.405,162.435,167.973,173.47,176.817,181.847,186.269,189.636,195.173,199.596,202.364,207.902,212.902,215.412,220.442,225.98,231.478,233.987,238.41,243.947" svgx:width="0.44,0.5,0.83,0.56,0.28,0.56,0.44,0.56,0.25,0.5,0.44,0.56,0.28,0.44,0.28,0.44,0.25,0.83,0.5,0.56,0.56,0.33,0.5,0.44,0.33,0.56,0.44,0.28,0.56,0.5,0.25,0.5,0.56,0.56,0.25,0.44,0.56,0.56" style="fill:rgb(0,0,0);font-family:TimesNewRomanPS-BoldMT;font-size:9.96px;stroke:none;">combined vehicle manufacturing and end</text>
  </g>
  <g begin="text">
   <text y="719.38" x="249.65" svgx:width="0.33" style="fill:rgb(0,0,0);font-family:TimesNewRomanPS-BoldMT;font-size:9.96px;stroke:none;">-</text>
  </g>
  <g begin="text">
   <text y="719.38" x="253.01,258.05" svgx:width="0.5,0.33" style="fill:rgb(0,0,0);font-family:TimesNewRomanPS-BoldMT;font-size:9.96px;stroke:none;">of</text>
  </g>
  <g begin="text">
   <text y="719.38" x="261.41" svgx:width="0.33" style="fill:rgb(0,0,0);font-family:TimesNewRomanPS-BoldMT;font-size:9.96px;stroke:none;">-</text>
  </g>
  <g begin="text">
   <text y="719.38" x="264.77,267.539,270.308,273.624,278.077,280.586,286.124,291.622,296.652,300.497,304.919,308.793,311.283,313.923,320.526,326.064,330.486,332.996,335.765,340.187,345.725,350.745,354.091,359.629,362.119,367.159,370.505,373.015,376.362,381.9,386.322,388.832,394.369,399.379,404.409,406.919,411.949,417.487,422.985,425.494,432.686,438.223,440.992,444.817,450.444,454.867,459.319,463.163,465.673,470.095,474.548,480.085,484.508,488.93,492.804,497.336,502.874,506.19,508.73,512.077,517.615,522.037" svgx:width="0.28,0.28,0.33,0.44,0.25,0.56,0.56,0.5,0.39,0.44,0.39,0.25,0.25,0.67,0.56,0.44,0.25,0.28,0.44,0.56,0.5,0.33,0.56,0.25,0.5,0.33,0.25,0.33,0.56,0.44,0.25,0.56,0.5,0.5,0.25,0.5,0.56,0.56,0.25,0.72,0.56,0.28,0.39,0.56,0.44,0.44,0.39,0.25,0.44,0.44,0.56,0.44,0.44,0.39,0.44,0.56,0.33,0.25,0.33,0.56,0.44,0.25" style="fill:rgb(0,0,0);font-family:TimesNewRomanPS-BoldMT;font-size:9.96px;stroke:none;">life phases. The length of the box and whiskers represent the </text>
  </g>
  <g begin="text">
   <text y="719.38" x="48.0" svgx:width="0.5" style="fill:rgb(0,0,0);font-family:TimesNewRomanPSMT;font-size:12.0px;stroke:none;">7</text>
  </g>
  <g begin="text">
   <text y="719.38" x="54.0" svgx:width="0.25" style="fill:rgb(0,0,0);font-family:TimesNewRomanPSMT;font-size:12.0px;stroke:none;"> </text>
  </g>
  <g begin="text">
   <text y="732.1" x="79.824,82.593,88.131,91.447,95.889,100.312,105.849,111.387,116.397,120.819,124.186,126.955,129.724,134.146,136.656,141.078,146.128,151.665,156.675,161.098,163.628,168.657,172.004,174.514,177.86,183.398,187.82,190.33,195.36,200.758,205.181,209.633,214.663,218.009,220.778,225.798,231.336,233.826,239.363,244.901,249.911,253.756,258.178,260.708,264.054,269.084,273.506,276.036,281.574,284.343,287.659,291.026,295.448,299.9,304.322,309.86,313.207,315.717,318.954,324.491,328.914,331.683,334.173,338.625,344.162,349.172,351.941,357.479,361.294,363.803,366.313,373.505,379.142,381.911,384.68,389.102,391.612,394.958,400.496,404.918,407.687,412.109,414.629,420.167,422.936,427.936,432.358,436.93,445.316,449.738,455.276,458.623,461.133,466.162,471.7,474.19,477.557,483.094,487.517,490.027" svgx:width="0.28,0.56,0.33,0.44,0.44,0.56,0.56,0.5,0.44,0.33,0.28,0.28,0.44,0.25,0.44,0.5,0.56,0.5,0.44,0.25,0.5,0.33,0.25,0.33,0.56,0.44,0.25,0.5,0.56,0.44,0.44,0.5,0.33,0.28,0.5,0.56,0.25,0.56,0.56,0.5,0.39,0.44,0.25,0.33,0.5,0.44,0.25,0.56,0.28,0.33,0.33,0.44,0.44,0.44,0.56,0.33,0.25,0.33,0.56,0.44,0.28,0.25,0.44,0.56,0.5,0.28,0.56,0.39,0.25,0.25,0.72,0.56,0.28,0.28,0.44,0.25,0.33,0.56,0.44,0.28,0.44,0.25,0.56,0.28,0.5,0.44,0.44,0.83,0.44,0.56,0.33,0.25,0.5,0.56,0.25,0.33,0.56,0.44,0.25,0.5" style="fill:rgb(0,0,0);font-family:TimesNewRomanPS-BoldMT;font-size:9.96px;stroke:none;">interquartile range of the operation phase for different fuel chains, while their placement on the x</text>
  </g>
  <g begin="text">
   <text y="732.1" x="495.58" svgx:width="0.33" style="fill:rgb(0,0,0);font-family:TimesNewRomanPS-BoldMT;font-size:9.96px;stroke:none;">-</text>
  </g>
  <g begin="text">
   <text y="732.1" x="498.82,503.85,508.88,511.649,515.483" svgx:width="0.5,0.5,0.28,0.39,0.25" style="fill:rgb(0,0,0);font-family:TimesNewRomanPS-BoldMT;font-size:9.96px;stroke:none;">axis </text>
  </g>
  <g begin="text">
   <text y="732.1" x="48.0" svgx:width="0.5" style="fill:rgb(0,0,0);font-family:TimesNewRomanPSMT;font-size:12.0px;stroke:none;">8</text>
  </g>
  <g begin="text">
   <text y="732.1" x="54.0" svgx:width="0.25" style="fill:rgb(0,0,0);font-family:TimesNewRomanPSMT;font-size:12.0px;stroke:none;"> </text>
  </g>
  <g begin="text">
   <text y="744.696" x="74.304,78.726,83.178,88.716,93.138,97.561,101.435,105.857,111.395,114.712,118.586,121.076,124.453,129.99,134.413,136.923,141.952,147.49,151.315,156.345,159.213,164.751,168.067,172.52,175.03,177.798,180.567,183.884,188.336,190.846,195.268,200.318,204.74,207.509,211.931,214.471,218.893,221.662,224.431,232.817,237.847,241.194,245.616,248.146,250.915,256.452,259.769,264.211,269.749,273.574,276.343,279.679,284.709,287.219,289.729,293.075,298.613,303.513,306.86,309.37,312.139,315.973,318.483,320.993,323.762,329.3,333.722,336.491,341.989,347.527,351.949,355.794,358.303,366.69,371.72,377.257,382.755,386.102,391.132,395.554,398.92,404.458,408.88,411.649,417.187,422.187,424.697,429.727,435.354,440.892,443.382,447.824,453.362" svgx:width="0.44,0.44,0.56,0.44,0.44,0.39,0.44,0.56,0.33,0.39,0.25,0.33,0.56,0.44,0.25,0.5,0.56,0.39,0.5,0.28,0.56,0.33,0.44,0.25,0.28,0.28,0.33,0.44,0.25,0.44,0.5,0.44,0.28,0.44,0.25,0.44,0.28,0.28,0.83,0.5,0.33,0.44,0.25,0.28,0.56,0.33,0.44,0.56,0.39,0.28,0.33,0.5,0.25,0.25,0.33,0.56,0.5,0.33,0.25,0.28,0.39,0.25,0.25,0.28,0.56,0.44,0.28,0.56,0.56,0.44,0.39,0.25,0.83,0.5,0.56,0.56,0.33,0.5,0.44,0.33,0.56,0.44,0.28,0.56,0.5,0.25,0.5,0.56,0.56,0.25,0.44,0.56,0.56" style="fill:rgb(0,0,0);font-family:TimesNewRomanPS-BoldMT;font-size:9.96px;stroke:none;">represents the absolute life cycle climate intensity, that is, includes manufacturing and end</text>
  </g>
  <g begin="text">
   <text y="744.696" x="459.34" svgx:width="0.33" style="fill:rgb(0,0,0);font-family:TimesNewRomanPS-BoldMT;font-size:9.96px;stroke:none;">-</text>
  </g>
  <g begin="text">
   <text y="744.696" x="462.7,467.74" svgx:width="0.5,0.33" style="fill:rgb(0,0,0);font-family:TimesNewRomanPS-BoldMT;font-size:9.96px;stroke:none;">of</text>
  </g>
  <g begin="text">
   <text y="744.696" x="471.1" svgx:width="0.33" style="fill:rgb(0,0,0);font-family:TimesNewRomanPS-BoldMT;font-size:9.96px;stroke:none;">-</text>
  </g>
  <g begin="text">
   <text y="744.696" x="474.46,477.229,479.998,483.314,487.767,490.276,495.814,501.312,506.342,510.187,514.609,518.483,520.973" svgx:width="0.28,0.28,0.33,0.44,0.25,0.56,0.56,0.5,0.39,0.44,0.39,0.25,0.25" style="fill:rgb(0,0,0);font-family:TimesNewRomanPS-BoldMT;font-size:9.96px;stroke:none;">life phases. </text>
  </g>
  <g begin="text">
   <text y="744.696" x="48.0" svgx:width="0.5" style="fill:rgb(0,0,0);font-family:TimesNewRomanPSMT;font-size:12.0px;stroke:none;">9</text>
  </g>
  <g begin="text">
   <text y="744.696" x="54.0" svgx:width="0.25" style="fill:rgb(0,0,0);font-family:TimesNewRomanPSMT;font-size:12.0px;stroke:none;"> </text>
  </g>
  <g begin="text">
   <text y="757.296" x="75.144,81.748,86.777,91.2,96.737,99.247,102.016,107.554,113.052,115.821,120.84,123.709,129.247,134.745,139.774,142.543,145.033,153.44,158.469,162.892,168.539,172.961,177.413,179.923,182.692,188.23,193.728,196.497,200.919,205.959,209.305,213.728,217.602,220.092,225.132,227.642,233.179,238.189,241.536,246.456,248.966,254.504,259.514,262.282,267.82,271.137" svgx:width="0.67,0.5,0.44,0.56,0.25,0.28,0.56,0.56,0.28,0.5,0.28,0.56,0.56,0.5,0.28,0.25,0.83,0.5,0.44,0.56,0.44,0.44,0.25,0.28,0.56,0.56,0.28,0.44,0.5,0.33,0.44,0.39,0.25,0.5,0.25,0.56,0.5,0.33,0.5,0.25,0.56,0.5,0.28,0.56,0.33,0.25" style="fill:rgb(0,0,0);font-family:TimesNewRomanPS-BoldMT;font-size:9.96px;stroke:none;">Each individual marker indicates a data point.</text>
  </g>
  <g begin="text">
   <text y="757.296" x="273.89" svgx:width="0.25" style="fill:rgb(0,0,0);font-family:TimesNewRomanPS-BoldMT;font-size:9.96px;stroke:none;"> </text>
  </g>
  <g begin="text">
   <text y="757.296" x="276.41,279.757,286.948,292.485,297.505,300.015,302.525,309.129,311.897,316.808,320.154,325.692,330.114,332.883,336.718,340.064,342.574,345.343,347.833,352.285,354.795,357.305,359.815,364.845,370.383,375.393,380.422,385.96,390.382,394.805,400.342,402.852,408.39,411.159,416.159,419.505,425.043,429.465,432.234,436.069,438.579,441.089,445.511,449.963,453.31,457.732,462.184,466.028,468.538,471.885,476.915,479.425,482.771,488.309,492.731,495.241,500.779,504.604,509.026,511.556,516.585,519.932" svgx:width="0.33,0.72,0.56,0.5,0.25,0.25,0.67,0.28,0.5,0.33,0.56,0.44,0.28,0.39,0.33,0.25,0.28,0.25,0.44,0.25,0.25,0.25,0.5,0.56,0.5,0.5,0.56,0.44,0.44,0.56,0.25,0.56,0.28,0.5,0.33,0.56,0.44,0.28,0.39,0.25,0.25,0.44,0.44,0.33,0.44,0.44,0.39,0.25,0.33,0.5,0.25,0.33,0.56,0.44,0.25,0.56,0.39,0.44,0.25,0.5,0.33,0.25" style="fill:rgb(0,0,0);font-family:TimesNewRomanPS-BoldMT;font-size:9.96px;stroke:none;">‘Adv. Biofuels’ i.e., advanced biofuels, refers to the use of </text>
  </g>
  <g begin="text">
   <text y="757.296" x="42.0,48.0" svgx:width="0.5,0.5" style="fill:rgb(0,0,0);font-family:TimesNewRomanPSMT;font-size:12.0px;stroke:none;">10</text>
  </g>
  <g begin="text">
   <text y="757.296" x="54.0" svgx:width="0.25" style="fill:rgb(0,0,0);font-family:TimesNewRomanPSMT;font-size:12.0px;stroke:none;"> </text>
  </g>
  <rect style="fill:pink;opacity:0.2;stroke:blue;stroke-width:0.3;" x="72.0" y="30.08" height="574.7" width="451.3" title="40"/>
  <text y="30.08" class="image" id="image.40.1" width="451" height="574" x="72.0" style="font-size:5.0px;">image.40.1.72_523.30_605</text>
  <g begin="text">
   <text y="602.109" transform="matrix(0.70711,-0.70711,0.70711,0.70711,-395.12956,250.29085)" rotateDegrees="-45" matrix="[29.803345,29.803345,-29.803345,29.803345,104.563255,239.8115]" x="104.563" svgx:width="0.67" style="fill:rgb(0,0,0);font-family:Arial;font-size:42.15px;stroke:none;">A</text>
   <text y="582.23" transform="matrix(0.70711,-0.70711,0.70711,0.70711,-375.25056,258.525)" rotateDegrees="-45" matrix="[29.803345,29.803345,-29.803345,29.803345,124.442085,259.6903]" x="124.442" svgx:width="0.72" style="fill:rgb(0,0,0);font-family:Arial;font-size:42.15px;stroke:none;">C</text>
   <text y="560.712" transform="matrix(0.70711,-0.70711,0.70711,0.70711,-353.73256,267.43805)" rotateDegrees="-45" matrix="[29.803345,29.803345,-29.803345,29.803345,145.9601,281.20834]" x="145.96" svgx:width="0.72" style="fill:rgb(0,0,0);font-family:Arial;font-size:42.15px;stroke:none;">C</text>
   <text y="539.194" transform="matrix(0.70711,-0.70711,0.70711,0.70711,-332.21456,276.3511)" rotateDegrees="-45" matrix="[29.803345,29.803345,-29.803345,29.803345,167.47812,302.72635]" x="167.478" svgx:width="0.67" style="fill:rgb(0,0,0);font-family:Arial;font-size:42.15px;stroke:none;">E</text>
   <text y="519.315" transform="matrix(0.70711,-0.70711,0.70711,0.70711,-312.33556,284.58525)" rotateDegrees="-45" matrix="[29.803345,29.803345,-29.803345,29.803345,187.35693,322.60516]" x="187.357" svgx:width="0.67" style="fill:rgb(0,0,0);font-family:Arial;font-size:42.15px;stroke:none;">P</text>
   <text y="499.436" transform="matrix(0.70711,-0.70711,0.70711,0.70711,-292.45656,292.8194)" rotateDegrees="-45" matrix="[29.803345,29.803345,-29.803345,29.803345,207.23578,342.484]" x="207.236" svgx:width="0.61" style="fill:rgb(0,0,0);font-family:Arial;font-size:42.15px;stroke:none;">T</text>
   <text y="481.226" transform="matrix(0.70711,-0.70711,0.70711,0.70711,-274.24656,300.36223)" rotateDegrees="-45" matrix="[29.803345,29.803345,-29.803345,29.803345,225.44562,360.69385]" x="225.446" svgx:width="0.67" style="fill:rgb(0,0,0);font-family:Arial;font-size:42.15px;stroke:none;">E</text>
   <text y="461.347" transform="matrix(0.70711,-0.70711,0.70711,0.70711,-254.36786,308.59567)" rotateDegrees="-45" matrix="[29.803345,29.803345,-29.803345,29.803345,245.32443,380.57266]" x="245.324" svgx:width="0.72" style="fill:rgb(0,0,0);font-family:Arial;font-size:42.15px;stroke:none;">D</text>
   <text y="439.829" transform="matrix(0.70711,-0.70711,0.70711,0.70711,-232.84986,317.50872)" rotateDegrees="-45" matrix="[29.803345,29.803345,-29.803345,29.803345,266.84247,402.0907]" x="266.842" svgx:width="0.28" style="fill:rgb(0,0,0);font-family:Arial;font-size:42.15px;stroke:none;"> </text>
   <text y="431.54" transform="matrix(0.70711,-0.70711,0.70711,0.70711,-224.56056,320.94284)" rotateDegrees="-45" matrix="[29.803345,29.803345,-29.803345,29.803345,275.13153,410.37976]" x="275.132" svgx:width="0.67" style="fill:rgb(0,0,0);font-family:Arial;font-size:42.15px;stroke:none;">V</text>
   <text y="411.661" transform="matrix(0.70711,-0.70711,0.70711,0.70711,-204.68186,329.17629)" rotateDegrees="-45" matrix="[29.803345,29.803345,-29.803345,29.803345,295.0103,430.25858]" x="295.01" svgx:width="0.67" style="fill:rgb(0,0,0);font-family:Arial;font-size:42.15px;stroke:none;">E</text>
   <text y="391.783" transform="matrix(0.70711,-0.70711,0.70711,0.70711,-184.80356,337.41073)" rotateDegrees="-45" matrix="[29.803345,29.803345,-29.803345,29.803345,314.88916,450.1374]" x="314.889" svgx:width="0.72" style="fill:rgb(0,0,0);font-family:Arial;font-size:42.15px;stroke:none;">R</text>
   <text y="370.265" transform="matrix(0.70711,-0.70711,0.70711,0.70711,-163.28556,346.32378)" rotateDegrees="-45" matrix="[29.803345,29.803345,-29.803345,29.803345,336.40717,471.65543]" x="336.407" svgx:width="0.67" style="fill:rgb(0,0,0);font-family:Arial;font-size:42.15px;stroke:none;">S</text>
   <text y="350.386" transform="matrix(0.70711,-0.70711,0.70711,0.70711,-143.40656,354.55793)" rotateDegrees="-45" matrix="[29.803345,29.803345,-29.803345,29.803345,356.286,491.53424]" x="356.286" svgx:width="0.28" style="fill:rgb(0,0,0);font-family:Arial;font-size:42.15px;stroke:none;">I</text>
   <text y="342.1" transform="matrix(0.70711,-0.70711,0.70711,0.70711,-135.12086,357.9894)" rotateDegrees="-45" matrix="[29.803345,29.803345,-29.803345,29.803345,364.57135,499.81958]" x="364.571" svgx:width="0.78" style="fill:rgb(0,0,0);font-family:Arial;font-size:42.15px;stroke:none;">O</text>
   <text y="318.913" transform="matrix(0.70711,-0.70711,0.70711,0.70711,-111.93386,367.59377)" rotateDegrees="-45" matrix="[29.803345,29.803345,-29.803345,29.803345,387.7583,523.0066]" x="387.758" svgx:width="0.72" style="fill:rgb(0,0,0);font-family:Arial;font-size:42.15px;stroke:none;">N</text>
   <text y="297.395" transform="matrix(0.70711,-0.70711,0.70711,0.70711,-90.41586,376.50681)" rotateDegrees="-45" matrix="[29.803345,29.803345,-29.803345,29.803345,409.27637,544.5246]" x="409.276" svgx:width="0.28" style="fill:rgb(0,0,0);font-family:Arial;font-size:42.15px;stroke:none;"> </text>
   <text y="637.872" transform="matrix(0.70711,-0.70711,0.70711,0.70711,-409.94279,286.05456)" rotateDegrees="-45" matrix="[29.803345,29.803345,-29.803345,29.803345,140.32727,204.04747]" x="140.327" svgx:width="0.67" style="fill:rgb(0,0,0);font-family:Arial;font-size:42.15px;stroke:none;">S</text>
   <text y="617.994" transform="matrix(0.70711,-0.70711,0.70711,0.70711,-390.0645,294.289)" rotateDegrees="-45" matrix="[29.803345,29.803345,-29.803345,29.803345,160.2061,223.9263]" x="160.206" svgx:width="0.72" style="fill:rgb(0,0,0);font-family:Arial;font-size:42.15px;stroke:none;">U</text>
   <text y="596.476" transform="matrix(0.70711,-0.70711,0.70711,0.70711,-368.5465,303.20205)" rotateDegrees="-45" matrix="[29.803345,29.803345,-29.803345,29.803345,181.72412,245.4443]" x="181.724" svgx:width="0.67" style="fill:rgb(0,0,0);font-family:Arial;font-size:42.15px;stroke:none;">B</text>
   <text y="576.597" transform="matrix(0.70711,-0.70711,0.70711,0.70711,-348.6675,311.4362)" rotateDegrees="-45" matrix="[29.803345,29.803345,-29.803345,29.803345,201.60294,265.32315]" x="201.603" svgx:width="0.5" style="fill:rgb(0,0,0);font-family:Arial;font-size:42.15px;stroke:none;">J</text>
   <text y="561.695" transform="matrix(0.70711,-0.70711,0.70711,0.70711,-333.7655,317.60881)" rotateDegrees="-45" matrix="[29.803345,29.803345,-29.803345,29.803345,216.50462,280.22482]" x="216.505" svgx:width="0.67" style="fill:rgb(0,0,0);font-family:Arial;font-size:42.15px;stroke:none;">E</text>
   <text y="541.816" transform="matrix(0.70711,-0.70711,0.70711,0.70711,-313.88679,325.84225)" rotateDegrees="-45" matrix="[29.803345,29.803345,-29.803345,29.803345,236.38344,300.10364]" x="236.383" svgx:width="0.72" style="fill:rgb(0,0,0);font-family:Arial;font-size:42.15px;stroke:none;">C</text>
   <text y="520.298" transform="matrix(0.70711,-0.70711,0.70711,0.70711,-292.36879,334.7553)" rotateDegrees="-45" matrix="[29.803345,29.803345,-29.803345,29.803345,257.90146,321.62164]" x="257.901" svgx:width="0.61" style="fill:rgb(0,0,0);font-family:Arial;font-size:42.15px;stroke:none;">T</text>
   <text y="502.089" transform="matrix(0.70711,-0.70711,0.70711,0.70711,-274.1595,342.29842)" rotateDegrees="-45" matrix="[29.803345,29.803345,-29.803345,29.803345,276.1113,339.83148]" x="276.111" svgx:width="0.28" style="fill:rgb(0,0,0);font-family:Arial;font-size:42.15px;stroke:none;"> </text>
   <text y="493.803" transform="matrix(0.70711,-0.70711,0.70711,0.70711,-265.8735,345.7306)" rotateDegrees="-45" matrix="[29.803345,29.803345,-29.803345,29.803345,284.39664,348.11682]" x="284.397" svgx:width="0.61" style="fill:rgb(0,0,0);font-family:Arial;font-size:42.15px;stroke:none;">T</text>
   <text y="475.593" transform="matrix(0.70711,-0.70711,0.70711,0.70711,-247.66379,353.27272)" rotateDegrees="-45" matrix="[29.803345,29.803345,-29.803345,29.803345,302.60648,366.32666]" x="302.606" svgx:width="0.78" style="fill:rgb(0,0,0);font-family:Arial;font-size:42.15px;stroke:none;">O</text>
   <text y="452.406" transform="matrix(0.70711,-0.70711,0.70711,0.70711,-224.47679,362.87709)" rotateDegrees="-45" matrix="[29.803345,29.803345,-29.803345,29.803345,325.79346,389.51367]" x="325.793" svgx:width="0.28" style="fill:rgb(0,0,0);font-family:Arial;font-size:42.15px;stroke:none;"> </text>
   <text y="444.136" transform="matrix(0.70711,-0.70711,0.70711,0.70711,-216.2065,366.30334)" rotateDegrees="-45" matrix="[29.803345,29.803345,-29.803345,29.803345,334.0639,397.78412]" x="334.064" svgx:width="0.61" style="fill:rgb(0,0,0);font-family:Arial;font-size:42.15px;stroke:none;">F</text>
   <text y="425.926" transform="matrix(0.70711,-0.70711,0.70711,0.70711,-197.9965,373.84617)" rotateDegrees="-45" matrix="[29.803345,29.803345,-29.803345,29.803345,352.27374,415.99396]" x="352.274" svgx:width="0.28" style="fill:rgb(0,0,0);font-family:Arial;font-size:42.15px;stroke:none;">I</text>
   <text y="417.641" transform="matrix(0.70711,-0.70711,0.70711,0.70711,-189.7115,377.27793)" rotateDegrees="-45" matrix="[29.803345,29.803345,-29.803345,29.803345,360.55908,424.2793]" x="360.559" svgx:width="0.72" style="fill:rgb(0,0,0);font-family:Arial;font-size:42.15px;stroke:none;">N</text>
   <text y="396.123" transform="matrix(0.70711,-0.70711,0.70711,0.70711,-168.1935,386.19098)" rotateDegrees="-45" matrix="[29.803345,29.803345,-29.803345,29.803345,382.0771,445.7973]" x="382.077" svgx:width="0.67" style="fill:rgb(0,0,0);font-family:Arial;font-size:42.15px;stroke:none;">A</text>
   <text y="376.244" transform="matrix(0.70711,-0.70711,0.70711,0.70711,-148.3145,394.42513)" rotateDegrees="-45" matrix="[29.803345,29.803345,-29.803345,29.803345,401.95593,465.67615]" x="401.956" svgx:width="0.56" style="fill:rgb(0,0,0);font-family:Arial;font-size:42.15px;stroke:none;">L</text>
   <text y="359.673" transform="matrix(0.70711,-0.70711,0.70711,0.70711,-131.7435,401.28906)" rotateDegrees="-45" matrix="[29.803345,29.803345,-29.803345,29.803345,418.5266,482.24677]" x="418.527" svgx:width="0.28" style="fill:rgb(0,0,0);font-family:Arial;font-size:42.15px;stroke:none;"> </text>
   <text y="351.394" transform="matrix(0.70711,-0.70711,0.70711,0.70711,-123.4645,404.71834)" rotateDegrees="-45" matrix="[29.803345,29.803345,-29.803345,29.803345,426.80573,490.52588]" x="426.806" svgx:width="0.67" style="fill:rgb(0,0,0);font-family:Arial;font-size:42.15px;stroke:none;">E</text>
   <text y="331.515" transform="matrix(0.70711,-0.70711,0.70711,0.70711,-103.5855,412.95249)" rotateDegrees="-45" matrix="[29.803345,29.803345,-29.803345,29.803345,446.68457,510.40472]" x="446.685" svgx:width="0.72" style="fill:rgb(0,0,0);font-family:Arial;font-size:42.15px;stroke:none;">D</text>
   <text y="309.997" transform="matrix(0.70711,-0.70711,0.70711,0.70711,-82.0675,421.86554)" rotateDegrees="-45" matrix="[29.803345,29.803345,-29.803345,29.803345,468.2025,531.9227]" x="468.203" svgx:width="0.28" style="fill:rgb(0,0,0);font-family:Arial;font-size:42.15px;stroke:none;">I</text>
   <text y="301.712" transform="matrix(0.70711,-0.70711,0.70711,0.70711,-73.7825,425.29729)" rotateDegrees="-45" matrix="[29.803345,29.803345,-29.803345,29.803345,476.48785,540.20807]" x="476.488" svgx:width="0.61" style="fill:rgb(0,0,0);font-family:Arial;font-size:42.15px;stroke:none;">T</text>
   <text y="283.502" transform="matrix(0.70711,-0.70711,0.70711,0.70711,-55.5725,432.84012)" rotateDegrees="-45" matrix="[29.803345,29.803345,-29.803345,29.803345,494.6977,558.4179]" x="494.698" svgx:width="0.67" style="fill:rgb(0,0,0);font-family:Arial;font-size:42.15px;stroke:none;">S</text>
  </g>
 </g>
</svg>
