<?xml version="1.0" encoding="UTF-8"?>
<svg height="813.04" width="2651.35" xmlns="http://www.w3.org/2000/svg">
 <g id="page" xmlns:svgx="http://www.xml-cml.org/schema/svgx">
  <g begin="text">
   <text y="46.56" x="72.024,78.624,81.96,87.96,93.288,96.624,99.624,108.288,114.288,120.288,125.652,129.648,135.648,144.984,150.252,156.252,159.588,162.588,171.252,174.588,179.28,182.616,186.612,189.948,195.948,201.948,205.308,208.644,214.644" svgx:width="0.56,0.28,0.5,0.44,0.28,0.25,0.72,0.5,0.5,0.44,0.33,0.5,0.78,0.44,0.5,0.28,0.25,0.72,0.28,0.39,0.28,0.33,0.28,0.5,0.5,0.28,0.28,0.5,0.5" style="fill:rgb(0,0,0);font-family:TimesNewRomanPSMT;font-size:12.0px;stroke:none;">Final Government Distribution</text>
  </g>
  <g begin="text">
   <text y="46.56" x="220.73" svgx:width="0.25" style="fill:rgb(0,0,0);font-family:TimesNewRomanPSMT;font-size:11.04px;stroke:none;"> </text>
  </g>
  <g begin="text">
   <text y="46.56" x="273.41,280.729,286.249,291.151,296.671,299.796,304.598,308.307,311.067,316.587" svgx:width="0.67,0.5,0.44,0.5,0.28,0.44,0.33,0.25,0.5,0.5" style="fill:rgb(0,0,0);font-family:TimesNewRomanPSMT;font-size:11.04px;stroke:none;">Chapter 10</text>
  </g>
  <g begin="text">
   <text y="46.56" x="322.03" svgx:width="0.25" style="fill:rgb(0,0,0);font-family:TimesNewRomanPSMT;font-size:11.04px;stroke:none;"> </text>
  </g>
  <g begin="text">
   <text y="46.56" x="436.03,439.87,446.578,454.606,462.634,465.634,474.298,482.302,488.302,491.302,502.594,511.342,515.338,519.262" svgx:width="0.33,0.56,0.67,0.67,0.25,0.72,0.67,0.5,0.25,0.94,0.72,0.33,0.33,0.33" style="fill:rgb(0,0,0);font-family:TimesNewRomanPSMT;font-size:12.0px;stroke:none;">IPCC AR6 WGIII</text>
  </g>
  <g begin="text">
   <text y="46.56" x="523.42" svgx:width="0.25" style="fill:rgb(0,0,0);font-family:TimesNewRomanPSMT;font-size:12.0px;stroke:none;"> </text>
  </g>
  <g begin="text">
   <text y="803.04" x="72.024,79.94,85.46,88.22,96.135,101.655,105.365,108.125,116.04,119.154,122.753,127.655,130.415,133.075,141.708,147.847,153.367,157.043,161.868,164.628,170.148,175.049,177.809,185.78,188.75,192.945,196.655,201.556,204.681,210.819,216.803,220.512" svgx:width="0.72,0.5,0.25,0.72,0.5,0.33,0.25,0.72,0.28,0.33,0.44,0.25,0.25,0.78,0.56,0.5,0.33,0.44,0.25,0.5,0.44,0.25,0.72,0.28,0.39,0.33,0.44,0.28,0.56,0.56,0.33,0.44" style="fill:rgb(0,0,0);font-family:TimesNewRomanPS-BoldMT;font-size:11.04px;stroke:none;">Do Not Cite, Quote or Distribute</text>
  </g>
  <g begin="text">
   <text y="803.04" x="225.41" svgx:width="0.25" style="fill:rgb(0,0,0);font-family:TimesNewRomanPS-BoldMT;font-size:11.04px;stroke:none;"> </text>
  </g>
  <g begin="text">
   <text y="803.04" x="284.81,290.33" svgx:width="0.5,0.5" style="fill:rgb(0,0,0);font-family:TimesNewRomanPSMT;font-size:11.04px;stroke:none;">10</text>
  </g>
  <g begin="text">
   <text y="803.04" x="295.85" svgx:width="0.33" style="fill:rgb(0,0,0);font-family:TimesNewRomanPS-BoldMT;font-size:11.04px;stroke:none;">-</text>
  </g>
  <g begin="text">
   <text y="803.04" x="299.57,305.09" svgx:width="0.5,0.5" style="fill:rgb(0,0,0);font-family:TimesNewRomanPSMT;font-size:11.04px;stroke:none;">51</text>
  </g>
  <g begin="text">
   <text y="803.04" x="310.61" svgx:width="0.25" style="fill:rgb(0,0,0);font-family:TimesNewRomanPSMT;font-size:11.04px;stroke:none;"> </text>
  </g>
  <g begin="text">
   <text y="803.04" x="313.27" svgx:width="0.25" style="fill:rgb(0,0,0);font-family:TimesNewRomanPSMT;font-size:11.04px;stroke:none;"> </text>
  </g>
  <g begin="text">
   <text y="803.04" x="450.1,456.845,462.365,465.435,470.259,473.372,476.132,481.652,486.554,491.975,496.876,501.204,504.207" svgx:width="0.61,0.5,0.28,0.44,0.28,0.25,0.5,0.44,0.5,0.44,0.39,0.28,0.25" style="fill:rgb(0,0,0);font-family:TimesNewRomanPSMT;font-size:11.04px;stroke:none;">Total pages: </text>
  </g>
  <g begin="text">
   <text y="803.04" x="506.98,512.5,518.02" svgx:width="0.5,0.5,0.5" style="fill:rgb(0,0,0);font-family:TimesNewRomanPSMT;font-size:11.04px;stroke:none;">176</text>
  </g>
  <g begin="text">
   <text y="803.04" x="523.42" svgx:width="0.25" style="fill:rgb(0,0,0);font-family:TimesNewRomanPSMT;font-size:9.96px;stroke:none;"> </text>
  </g>
  <g begin="text">
   <text y="259.46" x="48.0" svgx:width="0.5" style="fill:rgb(0,0,0);font-family:TimesNewRomanPSMT;font-size:12.0px;stroke:none;">1</text>
  </g>
  <g begin="text">
   <text y="259.46" x="54.0" svgx:width="0.25" style="fill:rgb(0,0,0);font-family:TimesNewRomanPSMT;font-size:12.0px;stroke:none;"> </text>
  </g>
  <g begin="text">
   <text y="435.05" x="48.0" svgx:width="0.5" style="fill:rgb(0,0,0);font-family:TimesNewRomanPSMT;font-size:12.0px;stroke:none;">2</text>
  </g>
  <g begin="text">
   <text y="435.05" x="54.0" svgx:width="0.25" style="fill:rgb(0,0,0);font-family:TimesNewRomanPSMT;font-size:12.0px;stroke:none;"> </text>
  </g>
  <g begin="text">
   <text y="615.07" x="454.06" svgx:width="0.25" style="fill:rgb(0,0,0);font-family:TimesNewRomanPSMT;font-size:12.0px;stroke:none;"> </text>
  </g>
  <g begin="text">
   <text y="615.07" x="48.0" svgx:width="0.5" style="fill:rgb(0,0,0);font-family:TimesNewRomanPSMT;font-size:12.0px;stroke:none;">3</text>
  </g>
  <g begin="text">
   <text y="615.07" x="54.0" svgx:width="0.25" style="fill:rgb(0,0,0);font-family:TimesNewRomanPSMT;font-size:12.0px;stroke:none;"> </text>
  </g>
  <g begin="text">
   <text y="624.46" x="297.65" svgx:width="0.25" style="fill:rgb(0,0,0);font-family:TimesNewRomanPS-BoldMT;font-size:9.96px;stroke:none;"> </text>
  </g>
  <g begin="text">
   <text y="624.46" x="48.0" svgx:width="0.5" style="fill:rgb(0,0,0);font-family:TimesNewRomanPSMT;font-size:12.0px;stroke:none;">4</text>
  </g>
  <g begin="text">
   <text y="624.46" x="54.0" svgx:width="0.25" style="fill:rgb(0,0,0);font-family:TimesNewRomanPSMT;font-size:12.0px;stroke:none;"> </text>
  </g>
  <g begin="text">
   <text y="643.06" x="73.104,79.209,81.978,86.998,92.536,96.958,101.38,103.91,108.94,113.97,116.48,121.51" svgx:width="0.61,0.28,0.5,0.56,0.44,0.44,0.25,0.5,0.5,0.25,0.5,0.25" style="fill:rgb(0,0,0);font-family:TimesNewRomanPS-BoldMT;font-size:9.96px;stroke:none;">Figure 10.7 </text>
  </g>
  <g begin="text">
   <text y="643.06" x="124.1,130.704,133.472,136.809,141.231,143.761,148.183,153.233,157.655,160.424,164.846,167.386,171.709,176.739,180.583,183.93,187.774,190.284,193.521,198.551,202.973,205.503,208.272,213.81,217.126,221.569,225.991,231.529,236.558,239.327,241.817,246.269,251.299,259.686,265.223,270.721,274.566,277.912,280.681,285.701,291.239,293.729,298.171,303.709,308.719,311.487,317.025,321.447,323.937,328.987,333.409,338.947,341.716,346.138,348.907,353.329,357.204,359.694,363.568,370.859,377.463,384.654,387.173,389.683,396.396,403.0,410.191,412.711,415.221,420.251,425.788,431.286" svgx:width="0.67,0.28,0.33,0.44,0.25,0.44,0.5,0.44,0.28,0.44,0.25,0.44,0.5,0.39,0.33,0.39,0.25,0.33,0.5,0.44,0.25,0.28,0.56,0.33,0.44,0.44,0.56,0.5,0.28,0.25,0.44,0.5,0.83,0.56,0.56,0.39,0.33,0.28,0.5,0.56,0.25,0.44,0.56,0.5,0.28,0.56,0.44,0.25,0.5,0.44,0.56,0.28,0.44,0.28,0.44,0.39,0.25,0.39,0.72,0.67,0.72,0.25,0.25,0.67,0.67,0.72,0.25,0.25,0.5,0.56,0.56,0.25" style="fill:rgb(0,0,0);font-family:TimesNewRomanPS-BoldMT;font-size:9.96px;stroke:none;">Life cycle costs for internal combustion engine vehicles ICEV, BEV, and </text>
  </g>
  <g begin="text">
   <text y="643.06" x="434.23" svgx:width="0.78" style="fill:rgb(0,0,0);font-family:TimesNewRomanPS-BoldMT;font-size:9.96px;stroke:none;">H</text>
  </g>
  <g begin="text">
   <text y="643.06" x="442.06,448.165,455.357,462.548,465.078,468.424,473.454,477.876,480.406,485.944,491.442,495.286,499.709,503.583,506.073,511.113,516.65,522.148" svgx:width="0.61,0.72,0.72,0.25,0.33,0.5,0.44,0.25,0.56,0.56,0.39,0.44,0.39,0.25,0.5,0.56,0.56,0.25" style="fill:rgb(0,0,0);font-family:TimesNewRomanPS-BoldMT;font-size:9.96px;stroke:none;">FCV for buses and </text>
  </g>
  <g begin="text">
   <text y="643.06" x="48.0" svgx:width="0.5" style="fill:rgb(0,0,0);font-family:TimesNewRomanPSMT;font-size:12.0px;stroke:none;">5</text>
  </g>
  <g begin="text">
   <text y="643.06" x="54.0" svgx:width="0.25" style="fill:rgb(0,0,0);font-family:TimesNewRomanPSMT;font-size:12.0px;stroke:none;"> </text>
  </g>
  <g begin="text">
   <text y="655.66" x="75.864,81.402,86.412,90.256,94.101,98.523,104.061,109.091,113.513,117.965,120.475,124.897,129.947,132.716,135.485,137.975,140.494,147.098,152.636,157.058,159.568,163.99,169.04,174.578,179.587,184.01,186.54,191.569,194.916,197.426,201.848,205.215,208.561,211.33,215.752,218.521,222.943,228.481,232.903,235.672,240.094,243.969,246.459,249.835,254.865,259.287,261.817,266.239,271.289,275.711,281.249,283.759,288.789,293.211,298.749,301.518,305.94,308.709,313.131,315.661,319.008,324.037,329.575,333.997,336.507,341.537,345.959,350.411,352.921,357.344,362.393,367.931,371.756,374.525,378.359,381.706,386.128,391.666,395.012,397.522,404.713,407.482,410.829,416.367,418.857,422.223,427.761,432.183,434.693,439.115,444.165,449.703,454.713,459.135,461.665,466.694,470.041,472.551,476.973,480.23,483.577,486.346,490.768,493.537,497.959,503.497,507.919,510.688,515.11,518.984" svgx:width="0.56,0.5,0.39,0.39,0.44,0.56,0.5,0.44,0.44,0.25,0.44,0.5,0.28,0.28,0.25,0.25,0.67,0.56,0.44,0.25,0.44,0.5,0.56,0.5,0.44,0.25,0.5,0.33,0.25,0.44,0.33,0.33,0.28,0.44,0.28,0.44,0.56,0.44,0.28,0.44,0.39,0.25,0.33,0.5,0.44,0.25,0.44,0.5,0.44,0.56,0.25,0.5,0.44,0.56,0.28,0.44,0.28,0.44,0.25,0.33,0.5,0.56,0.44,0.25,0.5,0.44,0.44,0.25,0.44,0.5,0.56,0.39,0.28,0.39,0.33,0.44,0.56,0.33,0.25,0.72,0.28,0.33,0.56,0.25,0.33,0.56,0.44,0.25,0.44,0.5,0.56,0.5,0.44,0.25,0.5,0.33,0.25,0.44,0.33,0.33,0.28,0.44,0.28,0.44,0.56,0.44,0.28,0.44,0.39,0.25" style="fill:rgb(0,0,0);font-family:TimesNewRomanPS-BoldMT;font-size:9.96px;stroke:none;">passenger rail. The range of efficiencies for each vehicle type are consistent with the range of efficiencies </text>
  </g>
  <g begin="text">
   <text y="655.66" x="48.0" svgx:width="0.5" style="fill:rgb(0,0,0);font-family:TimesNewRomanPSMT;font-size:12.0px;stroke:none;">6</text>
  </g>
  <g begin="text">
   <text y="655.66" x="54.0" svgx:width="0.25" style="fill:rgb(0,0,0);font-family:TimesNewRomanPSMT;font-size:12.0px;stroke:none;"> </text>
  </g>
  <g begin="text">
   <text y="668.38" x="79.104,81.864,87.393" svgx:width="0.28,0.56,0.25" style="fill:rgb(0,0,0);font-family:TimesNewRomanPS-BoldMT;font-size:9.96px;stroke:none;">in </text>
  </g>
  <g begin="text">
   <text y="668.38" x="89.904,96.009,98.778,103.798,109.336,113.758,118.18,120.71,125.74,130.77,133.28" svgx:width="0.61,0.28,0.5,0.56,0.44,0.44,0.25,0.5,0.5,0.25,0.5" style="fill:rgb(0,0,0);font-family:TimesNewRomanPS-BoldMT;font-size:9.96px;stroke:none;">Figure 10.6</text>
  </g>
  <g begin="text">
   <text y="668.38" x="138.38" svgx:width="0.25" style="fill:rgb(0,0,0);font-family:TimesNewRomanPS-BoldMT;font-size:9.96px;stroke:none;"> </text>
  </g>
  <g begin="text">
   <text y="668.38" x="140.9,144.137,149.167,154.197,164.157,166.666,171.696,176.119,180.571,186.108,191.606,196.527,202.064,206.487,211.516,214.863,217.373,219.883,226.486,232.024,236.446,238.956,243.378,247.831,251.675,257.213,259.982,263.298,267.173,269.663,273.029,278.059,282.481,285.011,288.358,293.896,298.318,300.828,304.672,311.983" svgx:width="0.33,0.5,0.5,1.0,0.25,0.5,0.44,0.44,0.56,0.56,0.5,0.56,0.44,0.5,0.33,0.25,0.25,0.67,0.56,0.44,0.25,0.44,0.44,0.39,0.56,0.28,0.33,0.39,0.25,0.33,0.5,0.44,0.25,0.33,0.56,0.44,0.25,0.39,0.72,0.67" style="fill:rgb(0,0,0);font-family:TimesNewRomanPS-BoldMT;font-size:9.96px;stroke:none;">(80% occupancy). The results for the ICE</text>
  </g>
  <g begin="text">
   <text y="668.38" x="318.91,326.101,328.621,333.043,338.093,343.631,346.121,351.658,356.081,358.601,364.138,367.963,372.385,377.923,380.433,383.779,388.809,391.319,395.741,400.791,405.821,408.59,414.128,419.128,422.474,426.896,429.426,432.773,438.171,442.593,445.123,447.892,450.661,453.978,458.43,460.94,465.362,470.412,474.834,477.603,482.025,484.565,488.987,494.037,497.881,501.228,505.072,507.582,512.612,515.959" svgx:width="0.72,0.25,0.44,0.5,0.56,0.25,0.56,0.44,0.25,0.56,0.39,0.44,0.56,0.25,0.33,0.5,0.25,0.44,0.5,0.5,0.28,0.56,0.5,0.33,0.44,0.25,0.33,0.56,0.44,0.25,0.28,0.28,0.33,0.44,0.25,0.44,0.5,0.44,0.28,0.44,0.25,0.44,0.5,0.39,0.33,0.39,0.25,0.5,0.33,0.25" style="fill:rgb(0,0,0);font-family:TimesNewRomanPS-BoldMT;font-size:9.96px;stroke:none;">V can be used to evaluate the life cycle costs of </text>
  </g>
  <g begin="text">
   <text y="668.38" x="48.0" svgx:width="0.5" style="fill:rgb(0,0,0);font-family:TimesNewRomanPSMT;font-size:12.0px;stroke:none;">7</text>
  </g>
  <g begin="text">
   <text y="668.38" x="54.0" svgx:width="0.25" style="fill:rgb(0,0,0);font-family:TimesNewRomanPSMT;font-size:12.0px;stroke:none;"> </text>
  </g>
  <g begin="text">
   <text y="680.98" x="88.464,92.309,99.5,106.113,108.623,114.25,119.788,123.613,128.165,132.009,134.519,139.549,145.087,150.585,153.094,158.632,163.642,167.596,171.441,175.863,181.401,186.431,190.853,195.305,197.815,202.237,207.287,210.056,212.825,215.315,220.354,225.892,230.314,234.737,239.786,243.133,247.555,253.093,255.603,262.794,265.563,268.909,274.447,276.937,281.977,287.515,292.525,295.034,298.381,303.411,307.733,316.12,318.63,323.55,326.897,329.297,334.835,337.603,342.026,345.86,350.283,353.051,355.571,358.081,365.272,370.81,375.232,378.589,384.127,388.549,392.971,395.501,398.848,403.27,408.32,416.706,419.216,424.753,429.176,432.522,436.945,441.994,444.763,449.185,454.723,463.1,465.609,468.119,471.964,476.994,482.531,485.848,491.386,495.808,499.185,501.953,506.376" svgx:width="0.39,0.72,0.67,0.25,0.56,0.56,0.39,0.44,0.39,0.25,0.5,0.56,0.56,0.25,0.56,0.5,0.39,0.39,0.44,0.56,0.5,0.44,0.44,0.25,0.44,0.5,0.28,0.28,0.25,0.5,0.56,0.44,0.44,0.5,0.33,0.44,0.56,0.25,0.72,0.28,0.33,0.56,0.25,0.5,0.56,0.5,0.25,0.33,0.5,0.44,0.83,0.25,0.5,0.33,0.25,0.56,0.28,0.44,0.39,0.44,0.28,0.25,0.25,0.72,0.56,0.44,0.33,0.56,0.44,0.44,0.25,0.33,0.44,0.5,0.83,0.25,0.56,0.44,0.33,0.44,0.5,0.28,0.44,0.56,0.83,0.25,0.25,0.39,0.5,0.56,0.33,0.56,0.44,0.33,0.28,0.44,0.25" style="fill:rgb(0,0,0);font-family:TimesNewRomanPS-BoldMT;font-size:9.96px;stroke:none;">ICE buses and passenger rail operated with any form of diesel, whether from petroleum, synthetic </text>
  </g>
  <g begin="text">
   <text y="680.98" x="48.0" svgx:width="0.5" style="fill:rgb(0,0,0);font-family:TimesNewRomanPSMT;font-size:12.0px;stroke:none;">8</text>
  </g>
  <g begin="text">
   <text y="680.98" x="54.0" svgx:width="0.25" style="fill:rgb(0,0,0);font-family:TimesNewRomanPSMT;font-size:12.0px;stroke:none;"> </text>
  </g>
  <g begin="text">
   <text y="693.7" x="78.624,84.162,89.172,94.709,99.132,104.161,108.584,113.633,118.056,123.593,128.623,134.161,137.986,140.496,143.005,148.035,152.457,154.987,160.525,163.294,168.294,171.64,177.178,181.6,184.369,186.859,189.389,194.419,198.264,200.774,204.12,209.658,214.08,216.59,221.012,226.062,231.6,236.61,241.032,243.562,248.591,251.938,254.448,258.771,262.117,265.464,268.233,272.655,275.424,279.846,285.384,289.806,292.575,296.997,300.872,303.362,308.411,311.758,314.268,319.188,323.61,329.148,331.917,336.339,339.108,343.53,347.405,349.895,354.934,360.472,364.894,369.317,374.366,377.713,380.482,386.02,391.02,393.529,400.721,403.489,406.836,412.374,414.864,419.904,422.673,425.441,427.931,431.298,436.836,441.367,445.212,449.634,452.164,455.511,461.048,465.471,468.24,472.074,474.584,477.353,481.188,483.817,487.662,490.43,498.807,501.576,504.345,509.354,513.777" svgx:width="0.56,0.5,0.56,0.44,0.5,0.44,0.5,0.44,0.56,0.5,0.56,0.39,0.25,0.25,0.5,0.44,0.25,0.56,0.28,0.5,0.33,0.56,0.44,0.28,0.25,0.25,0.5,0.39,0.25,0.33,0.56,0.44,0.25,0.44,0.5,0.56,0.5,0.44,0.25,0.5,0.33,0.25,0.44,0.33,0.33,0.28,0.44,0.28,0.44,0.56,0.44,0.28,0.44,0.39,0.25,0.5,0.33,0.25,0.5,0.44,0.56,0.28,0.44,0.28,0.44,0.39,0.25,0.5,0.56,0.44,0.44,0.5,0.33,0.28,0.56,0.5,0.25,0.72,0.28,0.33,0.56,0.25,0.5,0.28,0.28,0.25,0.33,0.56,0.44,0.39,0.44,0.25,0.33,0.56,0.44,0.28,0.39,0.25,0.28,0.39,0.25,0.39,0.28,0.83,0.28,0.28,0.5,0.44,0.25" style="fill:rgb(0,0,0);font-family:TimesNewRomanPS-BoldMT;font-size:9.96px;stroke:none;">hydrocarbons, or biofuel, as the range of efficiencies of vehicles operating with all these fuels is similar.</text>
  </g>
  <g begin="text">
   <text y="693.7" x="516.82" svgx:width="0.25" style="fill:rgb(0,0,0);font-family:TimesNewRomanPS-BoldMT;font-size:9.96px;stroke:none;"> </text>
  </g>
  <g begin="text">
   <text y="693.7" x="48.0" svgx:width="0.5" style="fill:rgb(0,0,0);font-family:TimesNewRomanPSMT;font-size:12.0px;stroke:none;">9</text>
  </g>
  <g begin="text">
   <text y="693.7" x="54.0" svgx:width="0.25" style="fill:rgb(0,0,0);font-family:TimesNewRomanPSMT;font-size:12.0px;stroke:none;"> </text>
  </g>
  <g begin="text">
   <text y="706.3" x="80.544,87.148,92.685,97.108,99.617,103.462,107.884,112.336,117.366,122.993,128.531,133.541,137.963,143.013,145.523" svgx:width="0.67,0.56,0.44,0.25,0.39,0.44,0.44,0.5,0.56,0.56,0.5,0.44,0.5,0.25,0.5" style="fill:rgb(0,0,0);font-family:TimesNewRomanPS-BoldMT;font-size:9.96px;stroke:none;">The secondary y</text>
  </g>
  <g begin="text">
   <text y="706.3" x="150.62" svgx:width="0.33" style="fill:rgb(0,0,0);font-family:TimesNewRomanPS-BoldMT;font-size:9.96px;stroke:none;">-</text>
  </g>
  <g begin="text">
   <text y="706.3" x="153.98,158.9,163.93,166.699,170.534,173.043,178.581,183.003,188.541,191.31,195.732,199.069,203.023,205.533,208.88,214.417,218.84,221.349,225.772,230.821,234.666,238.013,240.522,245.552,248.899,251.299,254.646,260.184,264.606,267.116,272.653,275.422,278.739,282.105,286.528,290.98,295.402,300.94,304.286,306.796,311.219,316.756,321.179,325.631,330.66,335.69,338.2,342.622,347.672,352.094,356.547,359.315,363.738,368.16,372.034,374.524,380.062,385.092,389.514,397.811,402.841,405.61,408.378,412.801,417.223,422.761,425.271,428.039,433.577,436.067,443.258,448.796,455.987,458.756,466.545,471.575,474.085,477.431,482.461,486.883,489.413,493.835,498.885,502.729,505.498,509.921,514.343" svgx:width="0.5,0.5,0.28,0.39,0.25,0.56,0.44,0.56,0.28,0.44,0.33,0.39,0.25,0.33,0.56,0.44,0.25,0.44,0.5,0.39,0.33,0.25,0.5,0.33,0.25,0.33,0.56,0.44,0.25,0.56,0.28,0.33,0.33,0.44,0.44,0.44,0.56,0.33,0.25,0.44,0.56,0.44,0.44,0.5,0.5,0.25,0.44,0.5,0.44,0.44,0.28,0.44,0.44,0.39,0.25,0.56,0.5,0.44,0.83,0.5,0.28,0.28,0.44,0.44,0.56,0.25,0.28,0.56,0.25,0.72,0.56,0.72,0.28,0.78,0.5,0.25,0.33,0.5,0.44,0.25,0.44,0.5,0.39,0.28,0.44,0.44,0.25" style="fill:rgb(0,0,0);font-family:TimesNewRomanPS-BoldMT;font-size:9.96px;stroke:none;">axis depicts the cost of the different energy carriers normalized in USD/GJ for easier </text>
  </g>
  <g begin="text">
   <text y="706.3" x="42.0,48.0" svgx:width="0.5,0.5" style="fill:rgb(0,0,0);font-family:TimesNewRomanPSMT;font-size:12.0px;stroke:none;">10</text>
  </g>
  <g begin="text">
   <text y="706.3" x="54.0" svgx:width="0.25" style="fill:rgb(0,0,0);font-family:TimesNewRomanPSMT;font-size:12.0px;stroke:none;"> </text>
  </g>
  <g begin="text">
   <text y="718.9" x="253.97,258.392,262.844,267.874,271.719" svgx:width="0.44,0.44,0.5,0.39,0.39" style="fill:rgb(0,0,0);font-family:TimesNewRomanPS-BoldMT;font-size:9.96px;stroke:none;">cross</text>
  </g>
  <g begin="text">
   <text y="718.9" x="275.57" svgx:width="0.33" style="fill:rgb(0,0,0);font-family:TimesNewRomanPS-BoldMT;font-size:9.96px;stroke:none;">-</text>
  </g>
  <g begin="text">
   <text y="718.9" x="278.93,283.352,288.402,296.788,302.326,307.336,311.758,316.808,322.346,325.115,327.844,330.612,333.949,338.979" svgx:width="0.44,0.5,0.83,0.56,0.5,0.44,0.5,0.56,0.28,0.28,0.28,0.33,0.5,0.25" style="fill:rgb(0,0,0);font-family:TimesNewRomanPS-BoldMT;font-size:9.96px;stroke:none;">comparability.</text>
  </g>
  <g begin="text">
   <text y="718.9" x="341.47" svgx:width="0.25" style="fill:rgb(0,0,0);font-family:TimesNewRomanPS-BoldMT;font-size:9.96px;stroke:none;"> </text>
  </g>
  <g begin="text">
   <text y="718.9" x="42.0,48.0" svgx:width="0.5,0.5" style="fill:rgb(0,0,0);font-family:TimesNewRomanPSMT;font-size:12.0px;stroke:none;">11</text>
  </g>
  <g begin="text">
   <text y="718.9" x="54.0" svgx:width="0.25" style="fill:rgb(0,0,0);font-family:TimesNewRomanPSMT;font-size:12.0px;stroke:none;"> </text>
  </g>
  <g begin="text">
   <text y="739.42" x="72.024" svgx:width="0.25" style="fill:rgb(0,0,0);font-family:TimesNewRomanPSMT;font-size:12.0px;stroke:none;"> </text>
  </g>
  <g begin="text">
   <text y="739.42" x="42.0,48.0" svgx:width="0.5,0.5" style="fill:rgb(0,0,0);font-family:TimesNewRomanPSMT;font-size:12.0px;stroke:none;">12</text>
  </g>
  <g begin="text">
   <text y="739.42" x="54.0" svgx:width="0.25" style="fill:rgb(0,0,0);font-family:TimesNewRomanPSMT;font-size:12.0px;stroke:none;"> </text>
  </g>
  <rect style="fill:pink;opacity:0.2;stroke:blue;stroke-width:0.3;" x="136.85" y="30.08" height="187.45" width="321.54" title="52"/>
  <text y="30.08" class="image" id="image.52.1" width="321" height="187" x="136.85" style="font-size:5.0px;">image.52.1.137_458.30_218</text>
  <rect style="fill:pink;opacity:0.2;stroke:blue;stroke-width:0.3;" x="72.0" y="217.53" height="175.5" width="451.3" title="52"/>
  <text y="217.53" class="image" id="image.52.2" width="451" height="175" x="72.0" style="font-size:5.0px;">image.52.2.72_523.218_393</text>
  <rect style="fill:pink;opacity:0.2;stroke:blue;stroke-width:0.3;" x="141.35" y="393.03" height="179.95" width="312.6" title="52"/>
  <text y="393.03" class="image" id="image.52.3" width="312" height="179" x="141.35" style="font-size:5.0px;">image.52.3.141_454.393_573</text>
  <g begin="text">
   <text y="602.109" transform="matrix(0.70711,-0.70711,0.70711,0.70711,-395.12956,250.29085)" rotateDegrees="-45" matrix="[29.803345,29.803345,-29.803345,29.803345,104.563255,239.8115]" x="104.563" svgx:width="0.67" style="fill:rgb(0,0,0);font-family:Arial;font-size:42.15px;stroke:none;">A</text>
   <text y="582.23" transform="matrix(0.70711,-0.70711,0.70711,0.70711,-375.25056,258.525)" rotateDegrees="-45" matrix="[29.803345,29.803345,-29.803345,29.803345,124.442085,259.6903]" x="124.442" svgx:width="0.72" style="fill:rgb(0,0,0);font-family:Arial;font-size:42.15px;stroke:none;">C</text>
   <text y="560.712" transform="matrix(0.70711,-0.70711,0.70711,0.70711,-353.73256,267.43805)" rotateDegrees="-45" matrix="[29.803345,29.803345,-29.803345,29.803345,145.9601,281.20834]" x="145.96" svgx:width="0.72" style="fill:rgb(0,0,0);font-family:Arial;font-size:42.15px;stroke:none;">C</text>
   <text y="539.194" transform="matrix(0.70711,-0.70711,0.70711,0.70711,-332.21456,276.3511)" rotateDegrees="-45" matrix="[29.803345,29.803345,-29.803345,29.803345,167.47812,302.72635]" x="167.478" svgx:width="0.67" style="fill:rgb(0,0,0);font-family:Arial;font-size:42.15px;stroke:none;">E</text>
   <text y="519.315" transform="matrix(0.70711,-0.70711,0.70711,0.70711,-312.33556,284.58525)" rotateDegrees="-45" matrix="[29.803345,29.803345,-29.803345,29.803345,187.35693,322.60516]" x="187.357" svgx:width="0.67" style="fill:rgb(0,0,0);font-family:Arial;font-size:42.15px;stroke:none;">P</text>
   <text y="499.436" transform="matrix(0.70711,-0.70711,0.70711,0.70711,-292.45656,292.8194)" rotateDegrees="-45" matrix="[29.803345,29.803345,-29.803345,29.803345,207.23578,342.484]" x="207.236" svgx:width="0.61" style="fill:rgb(0,0,0);font-family:Arial;font-size:42.15px;stroke:none;">T</text>
   <text y="481.226" transform="matrix(0.70711,-0.70711,0.70711,0.70711,-274.24656,300.36223)" rotateDegrees="-45" matrix="[29.803345,29.803345,-29.803345,29.803345,225.44562,360.69385]" x="225.446" svgx:width="0.67" style="fill:rgb(0,0,0);font-family:Arial;font-size:42.15px;stroke:none;">E</text>
   <text y="461.347" transform="matrix(0.70711,-0.70711,0.70711,0.70711,-254.36786,308.59567)" rotateDegrees="-45" matrix="[29.803345,29.803345,-29.803345,29.803345,245.32443,380.57266]" x="245.324" svgx:width="0.72" style="fill:rgb(0,0,0);font-family:Arial;font-size:42.15px;stroke:none;">D</text>
   <text y="439.829" transform="matrix(0.70711,-0.70711,0.70711,0.70711,-232.84986,317.50872)" rotateDegrees="-45" matrix="[29.803345,29.803345,-29.803345,29.803345,266.84247,402.0907]" x="266.842" svgx:width="0.28" style="fill:rgb(0,0,0);font-family:Arial;font-size:42.15px;stroke:none;"> </text>
   <text y="431.54" transform="matrix(0.70711,-0.70711,0.70711,0.70711,-224.56056,320.94284)" rotateDegrees="-45" matrix="[29.803345,29.803345,-29.803345,29.803345,275.13153,410.37976]" x="275.132" svgx:width="0.67" style="fill:rgb(0,0,0);font-family:Arial;font-size:42.15px;stroke:none;">V</text>
   <text y="411.661" transform="matrix(0.70711,-0.70711,0.70711,0.70711,-204.68186,329.17629)" rotateDegrees="-45" matrix="[29.803345,29.803345,-29.803345,29.803345,295.0103,430.25858]" x="295.01" svgx:width="0.67" style="fill:rgb(0,0,0);font-family:Arial;font-size:42.15px;stroke:none;">E</text>
   <text y="391.783" transform="matrix(0.70711,-0.70711,0.70711,0.70711,-184.80356,337.41073)" rotateDegrees="-45" matrix="[29.803345,29.803345,-29.803345,29.803345,314.88916,450.1374]" x="314.889" svgx:width="0.72" style="fill:rgb(0,0,0);font-family:Arial;font-size:42.15px;stroke:none;">R</text>
   <text y="370.265" transform="matrix(0.70711,-0.70711,0.70711,0.70711,-163.28556,346.32378)" rotateDegrees="-45" matrix="[29.803345,29.803345,-29.803345,29.803345,336.40717,471.65543]" x="336.407" svgx:width="0.67" style="fill:rgb(0,0,0);font-family:Arial;font-size:42.15px;stroke:none;">S</text>
   <text y="350.386" transform="matrix(0.70711,-0.70711,0.70711,0.70711,-143.40656,354.55793)" rotateDegrees="-45" matrix="[29.803345,29.803345,-29.803345,29.803345,356.286,491.53424]" x="356.286" svgx:width="0.28" style="fill:rgb(0,0,0);font-family:Arial;font-size:42.15px;stroke:none;">I</text>
   <text y="342.1" transform="matrix(0.70711,-0.70711,0.70711,0.70711,-135.12086,357.9894)" rotateDegrees="-45" matrix="[29.803345,29.803345,-29.803345,29.803345,364.57135,499.81958]" x="364.571" svgx:width="0.78" style="fill:rgb(0,0,0);font-family:Arial;font-size:42.15px;stroke:none;">O</text>
   <text y="318.913" transform="matrix(0.70711,-0.70711,0.70711,0.70711,-111.93386,367.59377)" rotateDegrees="-45" matrix="[29.803345,29.803345,-29.803345,29.803345,387.7583,523.0066]" x="387.758" svgx:width="0.72" style="fill:rgb(0,0,0);font-family:Arial;font-size:42.15px;stroke:none;">N</text>
   <text y="297.395" transform="matrix(0.70711,-0.70711,0.70711,0.70711,-90.41586,376.50681)" rotateDegrees="-45" matrix="[29.803345,29.803345,-29.803345,29.803345,409.27637,544.5246]" x="409.276" svgx:width="0.28" style="fill:rgb(0,0,0);font-family:Arial;font-size:42.15px;stroke:none;"> </text>
   <text y="637.872" transform="matrix(0.70711,-0.70711,0.70711,0.70711,-409.94279,286.05456)" rotateDegrees="-45" matrix="[29.803345,29.803345,-29.803345,29.803345,140.32727,204.04747]" x="140.327" svgx:width="0.67" style="fill:rgb(0,0,0);font-family:Arial;font-size:42.15px;stroke:none;">S</text>
   <text y="617.994" transform="matrix(0.70711,-0.70711,0.70711,0.70711,-390.0645,294.289)" rotateDegrees="-45" matrix="[29.803345,29.803345,-29.803345,29.803345,160.2061,223.9263]" x="160.206" svgx:width="0.72" style="fill:rgb(0,0,0);font-family:Arial;font-size:42.15px;stroke:none;">U</text>
   <text y="596.476" transform="matrix(0.70711,-0.70711,0.70711,0.70711,-368.5465,303.20205)" rotateDegrees="-45" matrix="[29.803345,29.803345,-29.803345,29.803345,181.72412,245.4443]" x="181.724" svgx:width="0.67" style="fill:rgb(0,0,0);font-family:Arial;font-size:42.15px;stroke:none;">B</text>
   <text y="576.597" transform="matrix(0.70711,-0.70711,0.70711,0.70711,-348.6675,311.4362)" rotateDegrees="-45" matrix="[29.803345,29.803345,-29.803345,29.803345,201.60294,265.32315]" x="201.603" svgx:width="0.5" style="fill:rgb(0,0,0);font-family:Arial;font-size:42.15px;stroke:none;">J</text>
   <text y="561.695" transform="matrix(0.70711,-0.70711,0.70711,0.70711,-333.7655,317.60881)" rotateDegrees="-45" matrix="[29.803345,29.803345,-29.803345,29.803345,216.50462,280.22482]" x="216.505" svgx:width="0.67" style="fill:rgb(0,0,0);font-family:Arial;font-size:42.15px;stroke:none;">E</text>
   <text y="541.816" transform="matrix(0.70711,-0.70711,0.70711,0.70711,-313.88679,325.84225)" rotateDegrees="-45" matrix="[29.803345,29.803345,-29.803345,29.803345,236.38344,300.10364]" x="236.383" svgx:width="0.72" style="fill:rgb(0,0,0);font-family:Arial;font-size:42.15px;stroke:none;">C</text>
   <text y="520.298" transform="matrix(0.70711,-0.70711,0.70711,0.70711,-292.36879,334.7553)" rotateDegrees="-45" matrix="[29.803345,29.803345,-29.803345,29.803345,257.90146,321.62164]" x="257.901" svgx:width="0.61" style="fill:rgb(0,0,0);font-family:Arial;font-size:42.15px;stroke:none;">T</text>
   <text y="502.089" transform="matrix(0.70711,-0.70711,0.70711,0.70711,-274.1595,342.29842)" rotateDegrees="-45" matrix="[29.803345,29.803345,-29.803345,29.803345,276.1113,339.83148]" x="276.111" svgx:width="0.28" style="fill:rgb(0,0,0);font-family:Arial;font-size:42.15px;stroke:none;"> </text>
   <text y="493.803" transform="matrix(0.70711,-0.70711,0.70711,0.70711,-265.8735,345.7306)" rotateDegrees="-45" matrix="[29.803345,29.803345,-29.803345,29.803345,284.39664,348.11682]" x="284.397" svgx:width="0.61" style="fill:rgb(0,0,0);font-family:Arial;font-size:42.15px;stroke:none;">T</text>
   <text y="475.593" transform="matrix(0.70711,-0.70711,0.70711,0.70711,-247.66379,353.27272)" rotateDegrees="-45" matrix="[29.803345,29.803345,-29.803345,29.803345,302.60648,366.32666]" x="302.606" svgx:width="0.78" style="fill:rgb(0,0,0);font-family:Arial;font-size:42.15px;stroke:none;">O</text>
   <text y="452.406" transform="matrix(0.70711,-0.70711,0.70711,0.70711,-224.47679,362.87709)" rotateDegrees="-45" matrix="[29.803345,29.803345,-29.803345,29.803345,325.79346,389.51367]" x="325.793" svgx:width="0.28" style="fill:rgb(0,0,0);font-family:Arial;font-size:42.15px;stroke:none;"> </text>
   <text y="444.136" transform="matrix(0.70711,-0.70711,0.70711,0.70711,-216.2065,366.30334)" rotateDegrees="-45" matrix="[29.803345,29.803345,-29.803345,29.803345,334.0639,397.78412]" x="334.064" svgx:width="0.61" style="fill:rgb(0,0,0);font-family:Arial;font-size:42.15px;stroke:none;">F</text>
   <text y="425.926" transform="matrix(0.70711,-0.70711,0.70711,0.70711,-197.9965,373.84617)" rotateDegrees="-45" matrix="[29.803345,29.803345,-29.803345,29.803345,352.27374,415.99396]" x="352.274" svgx:width="0.28" style="fill:rgb(0,0,0);font-family:Arial;font-size:42.15px;stroke:none;">I</text>
   <text y="417.641" transform="matrix(0.70711,-0.70711,0.70711,0.70711,-189.7115,377.27793)" rotateDegrees="-45" matrix="[29.803345,29.803345,-29.803345,29.803345,360.55908,424.2793]" x="360.559" svgx:width="0.72" style="fill:rgb(0,0,0);font-family:Arial;font-size:42.15px;stroke:none;">N</text>
   <text y="396.123" transform="matrix(0.70711,-0.70711,0.70711,0.70711,-168.1935,386.19098)" rotateDegrees="-45" matrix="[29.803345,29.803345,-29.803345,29.803345,382.0771,445.7973]" x="382.077" svgx:width="0.67" style="fill:rgb(0,0,0);font-family:Arial;font-size:42.15px;stroke:none;">A</text>
   <text y="376.244" transform="matrix(0.70711,-0.70711,0.70711,0.70711,-148.3145,394.42513)" rotateDegrees="-45" matrix="[29.803345,29.803345,-29.803345,29.803345,401.95593,465.67615]" x="401.956" svgx:width="0.56" style="fill:rgb(0,0,0);font-family:Arial;font-size:42.15px;stroke:none;">L</text>
   <text y="359.673" transform="matrix(0.70711,-0.70711,0.70711,0.70711,-131.7435,401.28906)" rotateDegrees="-45" matrix="[29.803345,29.803345,-29.803345,29.803345,418.5266,482.24677]" x="418.527" svgx:width="0.28" style="fill:rgb(0,0,0);font-family:Arial;font-size:42.15px;stroke:none;"> </text>
   <text y="351.394" transform="matrix(0.70711,-0.70711,0.70711,0.70711,-123.4645,404.71834)" rotateDegrees="-45" matrix="[29.803345,29.803345,-29.803345,29.803345,426.80573,490.52588]" x="426.806" svgx:width="0.67" style="fill:rgb(0,0,0);font-family:Arial;font-size:42.15px;stroke:none;">E</text>
   <text y="331.515" transform="matrix(0.70711,-0.70711,0.70711,0.70711,-103.5855,412.95249)" rotateDegrees="-45" matrix="[29.803345,29.803345,-29.803345,29.803345,446.68457,510.40472]" x="446.685" svgx:width="0.72" style="fill:rgb(0,0,0);font-family:Arial;font-size:42.15px;stroke:none;">D</text>
   <text y="309.997" transform="matrix(0.70711,-0.70711,0.70711,0.70711,-82.0675,421.86554)" rotateDegrees="-45" matrix="[29.803345,29.803345,-29.803345,29.803345,468.2025,531.9227]" x="468.203" svgx:width="0.28" style="fill:rgb(0,0,0);font-family:Arial;font-size:42.15px;stroke:none;">I</text>
   <text y="301.712" transform="matrix(0.70711,-0.70711,0.70711,0.70711,-73.7825,425.29729)" rotateDegrees="-45" matrix="[29.803345,29.803345,-29.803345,29.803345,476.48785,540.20807]" x="476.488" svgx:width="0.61" style="fill:rgb(0,0,0);font-family:Arial;font-size:42.15px;stroke:none;">T</text>
   <text y="283.502" transform="matrix(0.70711,-0.70711,0.70711,0.70711,-55.5725,432.84012)" rotateDegrees="-45" matrix="[29.803345,29.803345,-29.803345,29.803345,494.6977,558.4179]" x="494.698" svgx:width="0.67" style="fill:rgb(0,0,0);font-family:Arial;font-size:42.15px;stroke:none;">S</text>
  </g>
 </g>
</svg>
