<?xml version="1.0" encoding="UTF-8"?>
<svg height="813.04" width="572.18" xmlns="http://www.w3.org/2000/svg">
 <g id="page" xmlns:svgx="http://www.xml-cml.org/schema/svgx">
  <g begin="text">
   <text y="46.56" x="72.024,78.624,81.96,87.96,93.288,96.624,99.624,108.288,114.288,120.288,125.652,129.648,135.648,144.984,150.252,156.252,159.588,162.588,171.252,174.588,179.28,182.616,186.612,189.948,195.948,201.948,205.308,208.644,214.644" svgx:width="0.56,0.28,0.5,0.44,0.28,0.25,0.72,0.5,0.5,0.44,0.33,0.5,0.78,0.44,0.5,0.28,0.25,0.72,0.28,0.39,0.28,0.33,0.28,0.5,0.5,0.28,0.28,0.5,0.5" style="fill:rgb(0,0,0);font-family:TimesNewRomanPSMT;font-size:12.0px;stroke:none;">Final Government Distribution</text>
  </g>
  <g begin="text">
   <text y="46.56" x="220.73" svgx:width="0.25" style="fill:rgb(0,0,0);font-family:TimesNewRomanPSMT;font-size:11.04px;stroke:none;"> </text>
  </g>
  <g begin="text">
   <text y="46.56" x="273.41,280.729,286.249,291.151,296.671,299.796,304.598,308.307,311.067,316.587" svgx:width="0.67,0.5,0.44,0.5,0.28,0.44,0.33,0.25,0.5,0.5" style="fill:rgb(0,0,0);font-family:TimesNewRomanPSMT;font-size:11.04px;stroke:none;">Chapter 10</text>
  </g>
  <g begin="text">
   <text y="46.56" x="322.03" svgx:width="0.25" style="fill:rgb(0,0,0);font-family:TimesNewRomanPSMT;font-size:11.04px;stroke:none;"> </text>
  </g>
  <g begin="text">
   <text y="46.56" x="436.03,439.87,446.578,454.606,462.634,465.634,474.298,482.302,488.302,491.302,502.594,511.342,515.338,519.262" svgx:width="0.33,0.56,0.67,0.67,0.25,0.72,0.67,0.5,0.25,0.94,0.72,0.33,0.33,0.33" style="fill:rgb(0,0,0);font-family:TimesNewRomanPSMT;font-size:12.0px;stroke:none;">IPCC AR6 WGIII</text>
  </g>
  <g begin="text">
   <text y="46.56" x="523.42" svgx:width="0.25" style="fill:rgb(0,0,0);font-family:TimesNewRomanPSMT;font-size:12.0px;stroke:none;"> </text>
  </g>
  <g begin="text">
   <text y="803.04" x="72.024,79.94,85.46,88.22,96.135,101.655,105.365,108.125,116.04,119.154,122.753,127.655,130.415,133.075,141.708,147.847,153.367,157.043,161.868,164.628,170.148,175.049,177.809,185.78,188.75,192.945,196.655,201.556,204.681,210.819,216.803,220.512" svgx:width="0.72,0.5,0.25,0.72,0.5,0.33,0.25,0.72,0.28,0.33,0.44,0.25,0.25,0.78,0.56,0.5,0.33,0.44,0.25,0.5,0.44,0.25,0.72,0.28,0.39,0.33,0.44,0.28,0.56,0.56,0.33,0.44" style="fill:rgb(0,0,0);font-family:TimesNewRomanPS-BoldMT;font-size:11.04px;stroke:none;">Do Not Cite, Quote or Distribute</text>
  </g>
  <g begin="text">
   <text y="803.04" x="225.41" svgx:width="0.25" style="fill:rgb(0,0,0);font-family:TimesNewRomanPS-BoldMT;font-size:11.04px;stroke:none;"> </text>
  </g>
  <g begin="text">
   <text y="803.04" x="282.05,287.57" svgx:width="0.5,0.5" style="fill:rgb(0,0,0);font-family:TimesNewRomanPSMT;font-size:11.04px;stroke:none;">10</text>
  </g>
  <g begin="text">
   <text y="803.04" x="293.09" svgx:width="0.33" style="fill:rgb(0,0,0);font-family:TimesNewRomanPS-BoldMT;font-size:11.04px;stroke:none;">-</text>
  </g>
  <g begin="text">
   <text y="803.04" x="296.81,302.33,307.85" svgx:width="0.5,0.5,0.5" style="fill:rgb(0,0,0);font-family:TimesNewRomanPSMT;font-size:11.04px;stroke:none;">102</text>
  </g>
  <g begin="text">
   <text y="803.04" x="313.39" svgx:width="0.25" style="fill:rgb(0,0,0);font-family:TimesNewRomanPSMT;font-size:11.04px;stroke:none;"> </text>
  </g>
  <g begin="text">
   <text y="803.04" x="316.03" svgx:width="0.25" style="fill:rgb(0,0,0);font-family:TimesNewRomanPSMT;font-size:11.04px;stroke:none;"> </text>
  </g>
  <g begin="text">
   <text y="803.04" x="450.1,456.845,462.365,465.435,470.259,473.372,476.132,481.652,486.554,491.975,496.876,501.204,504.207" svgx:width="0.61,0.5,0.28,0.44,0.28,0.25,0.5,0.44,0.5,0.44,0.39,0.28,0.25" style="fill:rgb(0,0,0);font-family:TimesNewRomanPSMT;font-size:11.04px;stroke:none;">Total pages: </text>
  </g>
  <g begin="text">
   <text y="803.04" x="506.98,512.5,518.02" svgx:width="0.5,0.5,0.5" style="fill:rgb(0,0,0);font-family:TimesNewRomanPSMT;font-size:11.04px;stroke:none;">176</text>
  </g>
  <g begin="text">
   <text y="803.04" x="523.42" svgx:width="0.25" style="fill:rgb(0,0,0);font-family:TimesNewRomanPSMT;font-size:9.96px;stroke:none;"> </text>
  </g>
  <g begin="text">
   <text y="81.84" x="184.34,187.687,194.878,199.3,206.521,214.31,218.732,223.782,226.27200000000002,233.971,238.393,243.333,248.363,250.853,258.552,265.743,270.165,275.225,282.416,287.346,290.693,293.462,298.482,303.402" svgx:width="0.33,0.72,0.44,0.72,0.78,0.44,0.5,0.25,0.55,0.44,0.5,0.5,0.25,0.55,0.72,0.44,0.5,0.72,0.5,0.33,0.28,0.5,0.5,0.25" style="fill:rgb(0,0,0);font-family:TimesNewRomanPSMT;font-size:9.96px;stroke:none;">(Newman and Kenworthy </text>
  </g>
  <g begin="text">
   <text y="94.58" x="184.34,189.37,194.4,199.429,204.35" svgx:width="0.5,0.5,0.5,0.5,0.33" style="fill:rgb(0,0,0);font-family:TimesNewRomanPSMT;font-size:9.96px;stroke:none;">2015)</text>
  </g>
  <g begin="text">
   <text y="94.58" x="207.77" svgx:width="0.25" style="fill:rgb(0,0,0);font-family:TimesNewRomanPSMT;font-size:9.96px;stroke:none;">.</text>
  </g>
  <g begin="text">
   <text y="94.58" x="210.17" svgx:width="0.25" style="fill:rgb(0,0,0);font-family:TimesNewRomanPSMT;font-size:9.96px;stroke:none;"> </text>
  </g>
  <g begin="text">
   <text y="113.18" x="184.34,190.944,194.29,198.712,203.164,205.933,208.702,213.712,218.742,221.232,230.614,233.383,236.72,241.142,246.192,250.036,252.805,255.574,258.064,267.426,271.849,276.301,279.07,281.839,286.848,291.271,294.04,298.462,303.412" svgx:width="0.67,0.33,0.44,0.44,0.28,0.28,0.5,0.5,0.25,0.55,0.28,0.33,0.44,0.5,0.39,0.28,0.28,0.25,0.55,0.44,0.44,0.28,0.28,0.5,0.44,0.28,0.44,0.5,0.25" style="fill:rgb(0,0,0);font-family:TimesNewRomanPSMT;font-size:9.96px;stroke:none;">Creating transit activated </text>
  </g>
  <g begin="text">
   <text y="125.78" x="184.34,188.762,193.812,197.159,200.505,203.274,208.294,213.214,216.561,220.405,222.895,225.315,230.345,233.692,236.18200000000002,238.602,244.708,251.899" svgx:width="0.44,0.5,0.33,0.33,0.28,0.5,0.5,0.33,0.39,0.25,0.55,0.5,0.33,0.25,0.55,0.61,0.72,0.72" style="fill:rgb(0,0,0);font-family:TimesNewRomanPSMT;font-size:9.96px;stroke:none;">corridors of TOD</text>
  </g>
  <g begin="text">
   <text y="125.78" x="259.25" svgx:width="0.33" style="fill:rgb(0,0,0);font-family:TimesNewRomanPSMT;font-size:9.96px;stroke:none;">-</text>
  </g>
  <g begin="text">
   <text y="125.78" x="262.61,267.64,272.062,275.936,280.359,285.389,287.879,290.299,293.645,298.068,300.837,303.486" svgx:width="0.5,0.44,0.39,0.44,0.5,0.25,0.55,0.33,0.44,0.28,0.28,0.25" style="fill:rgb(0,0,0);font-family:TimesNewRomanPSMT;font-size:9.96px;stroke:none;">based rail </text>
  </g>
  <g begin="text">
   <text y="138.5" x="184.34,189.37,192.716,195.346,203.135,205.903" svgx:width="0.5,0.33,0.25,0.78,0.28,0.5" style="fill:rgb(0,0,0);font-family:TimesNewRomanPSMT;font-size:9.96px;stroke:none;">or mid</text>
  </g>
  <g begin="text">
   <text y="138.5" x="210.89" svgx:width="0.33" style="fill:rgb(0,0,0);font-family:TimesNewRomanPSMT;font-size:9.96px;stroke:none;">-</text>
  </g>
  <g begin="text">
   <text y="138.5" x="214.25,217.019,219.788,224.21,227.557,230.186,232.955,236.291,240.614,245.644,249.489,252.257,255.026,257.636,262.666,266.51,269.279,274.299,279.329,281.839,286.868,291.291,294.06,299.099,303.422" svgx:width="0.28,0.28,0.44,0.33,0.25,0.28,0.33,0.44,0.5,0.39,0.28,0.28,0.25,0.5,0.39,0.28,0.5,0.5,0.25,0.5,0.44,0.28,0.5,0.44,0.25" style="fill:rgb(0,0,0);font-family:TimesNewRomanPSMT;font-size:9.96px;stroke:none;">tier transit using value </text>
  </g>
  <g begin="text">
   <text y="151.1" x="184.34,188.762,193.214,198.244,201.013,206.033,209.379,213.802,216.292,222.088,225.325,230.355,233.702,236.192,241.969,245.315,247.955,252.984,257.407,262.456,266.879,269.647,274.687,279.608,282.098,287.874,295.065,297.834,300.603,303.372" svgx:width="0.44,0.44,0.5,0.28,0.5,0.33,0.44,0.25,0.55,0.33,0.5,0.33,0.25,0.55,0.33,0.28,0.5,0.44,0.5,0.44,0.28,0.5,0.5,0.25,0.55,0.72,0.28,0.28,0.28,0.25" style="fill:rgb(0,0,0);font-family:TimesNewRomanPSMT;font-size:9.96px;stroke:none;">capture for financing will </text>
  </g>
  <g begin="text">
   <text y="163.82" x="184.34,188.762,192.129,196.551,201.003,203.772,208.194,210.684,217.437,220.206,225.226,230.256,234.678,238.044,242.367,247.397,250.166,252.935,257.944,260.434,267.177,269.946,274.368,278.243" svgx:width="0.44,0.33,0.44,0.44,0.28,0.44,0.25,0.55,0.28,0.5,0.5,0.44,0.33,0.44,0.5,0.28,0.28,0.5,0.25,0.55,0.28,0.44,0.39,0.39" style="fill:rgb(0,0,0);font-family:TimesNewRomanPSMT;font-size:9.96px;stroke:none;">create inherently less</text>
  </g>
  <g begin="text">
   <text y="163.82" x="282.17" svgx:width="0.25" style="fill:rgb(0,0,0);font-family:TimesNewRomanPSMT;font-size:9.96px;stroke:none;"> </text>
  </g>
  <g begin="text">
   <text y="163.82" x="291.41,295.832,300.284,303.521" svgx:width="0.44,0.44,0.33,0.25" style="fill:rgb(0,0,0);font-family:TimesNewRomanPSMT;font-size:9.96px;stroke:none;">car </text>
  </g>
  <g begin="text">
   <text y="176.42" x="184.34,189.37,193.792,198.842,203.264,208.314,213.343,217.666,222.696,227.118,231.57" svgx:width="0.5,0.44,0.5,0.44,0.5,0.5,0.44,0.5,0.44,0.44,0.25" style="fill:rgb(0,0,0);font-family:TimesNewRomanPSMT;font-size:9.96px;stroke:none;">dependence </text>
  </g>
  <g begin="text">
   <text y="176.42" x="236.09,239.437,248.291,252.743,256.09,261.119,263.888,268.908,272.753,277.783,280.273,282.215,286.637,289.406,291.896,293.848,298.27,301.039,303.45" svgx:width="0.33,0.89,0.44,0.33,0.5,0.28,0.5,0.39,0.5,0.25,0.55,0.44,0.28,0.25,0.55,0.44,0.28,0.25,0.25" style="fill:rgb(0,0,0);font-family:TimesNewRomanPSMT;font-size:9.96px;stroke:none;">(McIntosh et al. </text>
  </g>
  <g begin="text">
   <text y="189.02" x="184.34,189.37,194.4,199.429,204.459,207.228,209.718,216.929,221.351,228.542,236.361,240.783,245.723,248.233,252.656,255.424,257.944,262.367,265.136,267.655,270.165,275.086,280.115,285.145,290.175" svgx:width="0.5,0.5,0.5,0.5,0.28,0.25,0.72,0.44,0.72,0.78,0.44,0.5,0.25,0.44,0.28,0.25,0.44,0.28,0.25,0.25,0.5,0.5,0.5,0.5,0.33" style="fill:rgb(0,0,0);font-family:TimesNewRomanPSMT;font-size:9.96px;stroke:none;">2017; Newman et al. 2019)</text>
  </g>
  <g begin="text">
   <text y="189.02" x="293.57" svgx:width="0.25" style="fill:rgb(0,0,0);font-family:TimesNewRomanPSMT;font-size:9.96px;stroke:none;"> </text>
  </g>
  <g begin="text">
   <text y="81.84" x="433.15,436.995,442.024,447.054,449.823,454.843,459.265,462.034,464.803,469.225,471.71500000000003,474.992,478.339,483.368,487.791,490.56,494.434,496.924,499.414,502.681,505.45,510.47,513.707,517.053,521.475,525.35,528.119,531.435,536.485,540.907,543.676,548.716,551.953,556.375" svgx:width="0.39,0.5,0.5,0.28,0.5,0.44,0.28,0.28,0.44,0.25,0.55,0.33,0.5,0.44,0.28,0.39,0.25,0.25,0.55,0.28,0.5,0.33,0.33,0.44,0.39,0.28,0.33,0.5,0.44,0.28,0.5,0.33,0.44,0.25" style="fill:rgb(0,0,0);font-family:TimesNewRomanPSMT;font-size:9.96px;stroke:none;">synthetic fuels, infrastructure </text>
  </g>
  <g begin="text">
   <text y="94.58" x="433.15,435.919,439.754,442.244,445.62,450.65,455.072,459.524,464.554,468.976,474.026,476.516,479.892,482.661,487.681,490.171,493.547,497.392,502.312,507.342,512.372,517.292,520.639,523.408,525.898,529.264,533.686,538.138,541.485,546.405,551.325,556.355" svgx:width="0.28,0.39,0.25,0.55,0.5,0.44,0.44,0.5,0.44,0.5,0.25,0.55,0.28,0.5,0.25,0.55,0.39,0.5,0.5,0.5,0.5,0.33,0.28,0.25,0.55,0.44,0.44,0.33,0.5,0.5,0.5,0.25" style="fill:rgb(0,0,0);font-family:TimesNewRomanPSMT;font-size:9.96px;stroke:none;">is needed to support carbon </text>
  </g>
  <g begin="text">
   <text y="107.18" x="433.15,437.572,442.024,447.054,449.823,454.843,458.189,462.612,465.10200000000003,467.422,471.845,476.785,481.815,484.305,486.605,493.209" svgx:width="0.44,0.44,0.5,0.28,0.5,0.33,0.44,0.25,0.55,0.44,0.5,0.5,0.25,0.55,0.67,0.72" style="fill:rgb(0,0,0);font-family:TimesNewRomanPSMT;font-size:9.96px;stroke:none;">capture and CO</text>
  </g>
  <g begin="text">
   <text y="108.14" x="500.5" svgx:width="0.5" style="fill:rgb(0,0,0);font-family:TimesNewRomanPSMT;font-size:6.48px;stroke:none;">2</text>
  </g>
  <g begin="text">
   <text y="107.18" x="503.74" svgx:width="0.25" style="fill:rgb(0,0,0);font-family:TimesNewRomanPSMT;font-size:9.96px;stroke:none;"> </text>
  </g>
  <g begin="text">
   <text y="107.18" x="508.54,511.309,514.645,519.068,524.117,527.962,532.992,537.912,541.259,544.027,546.517,548.808,551.448,556.477" svgx:width="0.28,0.33,0.44,0.5,0.39,0.5,0.5,0.33,0.28,0.25,0.55,0.28,0.5,0.25" style="fill:rgb(0,0,0);font-family:TimesNewRomanPSMT;font-size:9.96px;stroke:none;">transport to </text>
  </g>
  <g begin="text">
   <text y="119.78" x="433.15,436.497,441.526,445.949,448.718,451.208,463.717,468.747,472.094,477.123,482.044,487.074,491.496,494.265,497.034,502.063,507.093,509.583,522.083,525.43,529.852,534.304,537.073,539.842,542.61,545.339,548.108,552.531,556.405" svgx:width="0.33,0.5,0.44,0.28,0.25,0.55,0.5,0.33,0.5,0.5,0.5,0.44,0.28,0.28,0.5,0.5,0.25,0.55,0.33,0.44,0.44,0.28,0.28,0.28,0.28,0.28,0.44,0.39,0.25" style="fill:rgb(0,0,0);font-family:TimesNewRomanPSMT;font-size:9.96px;stroke:none;">fuel production facilities </text>
  </g>
  <g begin="text">
   <text y="132.5" x="433.15,436.497,442.602,447.632,454.823,459.245,462.622,467.652,471.496,474.006,478.428,483.478,488.398,490.908,497.512,501.934,504.703,507.472,511.894,514.424,519.454,524.483,529.513,534.543" svgx:width="0.33,0.61,0.5,0.72,0.44,0.33,0.5,0.39,0.25,0.44,0.5,0.5,0.25,0.67,0.44,0.28,0.28,0.44,0.25,0.5,0.5,0.5,0.5,0.33" style="fill:rgb(0,0,0);font-family:TimesNewRomanPSMT;font-size:9.96px;stroke:none;">(Edwards and Celia 2018)</text>
  </g>
  <g begin="text">
   <text y="132.5" x="537.94,540.46" svgx:width="0.25,0.25" style="fill:rgb(0,0,0);font-family:TimesNewRomanPSMT;font-size:9.96px;stroke:none;">. </text>
  </g>
  <g begin="text">
   <text y="132.5" x="542.86" svgx:width="0.25" style="fill:rgb(0,0,0);font-family:TimesNewRomanPSMT;font-size:9.96px;stroke:none;"> </text>
  </g>
  <path style="fill:rgb(0,0,0);stroke:none;stroke-width:1.0;" d="M64.460 769.440 L64.940 769.440 L64.940 769.920 L64.460 769.920 L64.460 769.440 "/>
  <path style="fill:rgb(0,0,0);stroke:none;stroke-width:1.0;" d="M64.460 769.440 L64.940 769.440 L64.940 769.920 L64.460 769.920 L64.460 769.440 "/>
  <path style="fill:rgb(0,0,0);stroke:none;stroke-width:1.0;" d="M183.860 769.440 L184.340 769.440 L184.340 769.920 L183.860 769.920 L183.860 769.440 "/>
  <path style="fill:rgb(0,0,0);stroke:none;stroke-width:1.0;" d="M303.530 769.440 L304.010 769.440 L304.010 769.920 L303.530 769.920 L303.530 769.440 "/>
  <path style="fill:rgb(0,0,0);stroke:none;stroke-width:1.0;" d="M427.510 769.440 L427.990 769.440 L427.990 769.920 L427.510 769.920 L427.510 769.440 "/>
  <path style="fill:rgb(0,0,0);stroke:none;stroke-width:1.0;" d="M561.700 769.440 L562.180 769.440 L562.180 769.920 L561.700 769.920 L561.700 769.440 "/>
  <path style="fill:rgb(0,0,0);stroke:none;stroke-width:1.0;" d="M561.700 769.440 L562.180 769.440 L562.180 769.920 L561.700 769.920 L561.700 769.440 "/>
  <path style="fill:rgb(0,0,0);stroke:none;stroke-width:1.0;" d="M64.460 643.060 L64.940 643.060 L64.940 643.540 L64.460 643.540 L64.460 643.060 "/>
  <path style="fill:rgb(0,0,0);stroke:none;stroke-width:1.0;" d="M64.460 643.060 L64.940 643.060 L64.940 643.540 L64.460 643.540 L64.460 643.060 "/>
  <path style="fill:rgb(0,0,0);stroke:none;stroke-width:1.0;" d="M183.860 643.060 L184.340 643.060 L184.340 643.540 L183.860 643.540 L183.860 643.060 "/>
  <path style="fill:rgb(0,0,0);stroke:none;stroke-width:1.0;" d="M303.530 643.060 L304.010 643.060 L304.010 643.540 L303.530 643.540 L303.530 643.060 "/>
  <path style="fill:rgb(0,0,0);stroke:none;stroke-width:1.0;" d="M427.510 643.060 L427.990 643.060 L427.990 643.540 L427.510 643.540 L427.510 643.060 "/>
  <path style="fill:rgb(0,0,0);stroke:none;stroke-width:1.0;" d="M561.700 643.060 L562.180 643.060 L562.180 643.540 L561.700 643.540 L561.700 643.060 "/>
  <path style="fill:rgb(0,0,0);stroke:none;stroke-width:1.0;" d="M561.700 643.060 L562.180 643.060 L562.180 643.540 L561.700 643.540 L561.700 643.060 "/>
  <g begin="text">
   <text y="210.02" x="72.024" svgx:width="0.25" style="fill:rgb(0,0,0);font-family:TimesNewRomanPSMT;font-size:12.0px;stroke:none;"> </text>
  </g>
  <g begin="text">
   <text y="210.02" x="48.0" svgx:width="0.5" style="fill:rgb(0,0,0);font-family:TimesNewRomanPSMT;font-size:12.0px;stroke:none;">1</text>
  </g>
  <g begin="text">
   <text y="210.02" x="54.0" svgx:width="0.25" style="fill:rgb(0,0,0);font-family:TimesNewRomanPSMT;font-size:12.0px;stroke:none;"> </text>
  </g>
  <g begin="text">
   <text y="230.3" x="72.024" svgx:width="0.25" style="fill:rgb(0,0,0);font-family:TimesNewRomanPSMT;font-size:12.0px;stroke:none;"> </text>
  </g>
  <g begin="text">
   <text y="230.3" x="216.05" svgx:width="0.25" style="fill:rgb(0,0,0);font-family:TimesNewRomanPSMT;font-size:11.04px;stroke:none;"> </text>
  </g>
  <g begin="text">
   <text y="230.3" x="48.0" svgx:width="0.5" style="fill:rgb(0,0,0);font-family:TimesNewRomanPSMT;font-size:12.0px;stroke:none;">2</text>
  </g>
  <g begin="text">
   <text y="230.3" x="54.0" svgx:width="0.25" style="fill:rgb(0,0,0);font-family:TimesNewRomanPSMT;font-size:12.0px;stroke:none;"> </text>
  </g>
  <g begin="text">
   <text y="602.109" transform="matrix(0.70711,-0.70711,0.70711,0.70711,-395.12956,250.29085)" rotateDegrees="-45" matrix="[29.803345,29.803345,-29.803345,29.803345,104.563255,239.8115]" x="104.563" svgx:width="0.67" style="fill:rgb(0,0,0);font-family:Arial;font-size:42.15px;stroke:none;">A</text>
   <text y="582.23" transform="matrix(0.70711,-0.70711,0.70711,0.70711,-375.25056,258.525)" rotateDegrees="-45" matrix="[29.803345,29.803345,-29.803345,29.803345,124.442085,259.6903]" x="124.442" svgx:width="0.72" style="fill:rgb(0,0,0);font-family:Arial;font-size:42.15px;stroke:none;">C</text>
   <text y="560.712" transform="matrix(0.70711,-0.70711,0.70711,0.70711,-353.73256,267.43805)" rotateDegrees="-45" matrix="[29.803345,29.803345,-29.803345,29.803345,145.9601,281.20834]" x="145.96" svgx:width="0.72" style="fill:rgb(0,0,0);font-family:Arial;font-size:42.15px;stroke:none;">C</text>
   <text y="539.194" transform="matrix(0.70711,-0.70711,0.70711,0.70711,-332.21456,276.3511)" rotateDegrees="-45" matrix="[29.803345,29.803345,-29.803345,29.803345,167.47812,302.72635]" x="167.478" svgx:width="0.67" style="fill:rgb(0,0,0);font-family:Arial;font-size:42.15px;stroke:none;">E</text>
   <text y="519.315" transform="matrix(0.70711,-0.70711,0.70711,0.70711,-312.33556,284.58525)" rotateDegrees="-45" matrix="[29.803345,29.803345,-29.803345,29.803345,187.35693,322.60516]" x="187.357" svgx:width="0.67" style="fill:rgb(0,0,0);font-family:Arial;font-size:42.15px;stroke:none;">P</text>
   <text y="499.436" transform="matrix(0.70711,-0.70711,0.70711,0.70711,-292.45656,292.8194)" rotateDegrees="-45" matrix="[29.803345,29.803345,-29.803345,29.803345,207.23578,342.484]" x="207.236" svgx:width="0.61" style="fill:rgb(0,0,0);font-family:Arial;font-size:42.15px;stroke:none;">T</text>
   <text y="481.226" transform="matrix(0.70711,-0.70711,0.70711,0.70711,-274.24656,300.36223)" rotateDegrees="-45" matrix="[29.803345,29.803345,-29.803345,29.803345,225.44562,360.69385]" x="225.446" svgx:width="0.67" style="fill:rgb(0,0,0);font-family:Arial;font-size:42.15px;stroke:none;">E</text>
   <text y="461.347" transform="matrix(0.70711,-0.70711,0.70711,0.70711,-254.36786,308.59567)" rotateDegrees="-45" matrix="[29.803345,29.803345,-29.803345,29.803345,245.32443,380.57266]" x="245.324" svgx:width="0.72" style="fill:rgb(0,0,0);font-family:Arial;font-size:42.15px;stroke:none;">D</text>
   <text y="439.829" transform="matrix(0.70711,-0.70711,0.70711,0.70711,-232.84986,317.50872)" rotateDegrees="-45" matrix="[29.803345,29.803345,-29.803345,29.803345,266.84247,402.0907]" x="266.842" svgx:width="0.28" style="fill:rgb(0,0,0);font-family:Arial;font-size:42.15px;stroke:none;"> </text>
   <text y="431.54" transform="matrix(0.70711,-0.70711,0.70711,0.70711,-224.56056,320.94284)" rotateDegrees="-45" matrix="[29.803345,29.803345,-29.803345,29.803345,275.13153,410.37976]" x="275.132" svgx:width="0.67" style="fill:rgb(0,0,0);font-family:Arial;font-size:42.15px;stroke:none;">V</text>
   <text y="411.661" transform="matrix(0.70711,-0.70711,0.70711,0.70711,-204.68186,329.17629)" rotateDegrees="-45" matrix="[29.803345,29.803345,-29.803345,29.803345,295.0103,430.25858]" x="295.01" svgx:width="0.67" style="fill:rgb(0,0,0);font-family:Arial;font-size:42.15px;stroke:none;">E</text>
   <text y="391.783" transform="matrix(0.70711,-0.70711,0.70711,0.70711,-184.80356,337.41073)" rotateDegrees="-45" matrix="[29.803345,29.803345,-29.803345,29.803345,314.88916,450.1374]" x="314.889" svgx:width="0.72" style="fill:rgb(0,0,0);font-family:Arial;font-size:42.15px;stroke:none;">R</text>
   <text y="370.265" transform="matrix(0.70711,-0.70711,0.70711,0.70711,-163.28556,346.32378)" rotateDegrees="-45" matrix="[29.803345,29.803345,-29.803345,29.803345,336.40717,471.65543]" x="336.407" svgx:width="0.67" style="fill:rgb(0,0,0);font-family:Arial;font-size:42.15px;stroke:none;">S</text>
   <text y="350.386" transform="matrix(0.70711,-0.70711,0.70711,0.70711,-143.40656,354.55793)" rotateDegrees="-45" matrix="[29.803345,29.803345,-29.803345,29.803345,356.286,491.53424]" x="356.286" svgx:width="0.28" style="fill:rgb(0,0,0);font-family:Arial;font-size:42.15px;stroke:none;">I</text>
   <text y="342.1" transform="matrix(0.70711,-0.70711,0.70711,0.70711,-135.12086,357.9894)" rotateDegrees="-45" matrix="[29.803345,29.803345,-29.803345,29.803345,364.57135,499.81958]" x="364.571" svgx:width="0.78" style="fill:rgb(0,0,0);font-family:Arial;font-size:42.15px;stroke:none;">O</text>
   <text y="318.913" transform="matrix(0.70711,-0.70711,0.70711,0.70711,-111.93386,367.59377)" rotateDegrees="-45" matrix="[29.803345,29.803345,-29.803345,29.803345,387.7583,523.0066]" x="387.758" svgx:width="0.72" style="fill:rgb(0,0,0);font-family:Arial;font-size:42.15px;stroke:none;">N</text>
   <text y="297.395" transform="matrix(0.70711,-0.70711,0.70711,0.70711,-90.41586,376.50681)" rotateDegrees="-45" matrix="[29.803345,29.803345,-29.803345,29.803345,409.27637,544.5246]" x="409.276" svgx:width="0.28" style="fill:rgb(0,0,0);font-family:Arial;font-size:42.15px;stroke:none;"> </text>
   <text y="637.872" transform="matrix(0.70711,-0.70711,0.70711,0.70711,-409.94279,286.05456)" rotateDegrees="-45" matrix="[29.803345,29.803345,-29.803345,29.803345,140.32727,204.04747]" x="140.327" svgx:width="0.67" style="fill:rgb(0,0,0);font-family:Arial;font-size:42.15px;stroke:none;">S</text>
   <text y="617.994" transform="matrix(0.70711,-0.70711,0.70711,0.70711,-390.0645,294.289)" rotateDegrees="-45" matrix="[29.803345,29.803345,-29.803345,29.803345,160.2061,223.9263]" x="160.206" svgx:width="0.72" style="fill:rgb(0,0,0);font-family:Arial;font-size:42.15px;stroke:none;">U</text>
   <text y="596.476" transform="matrix(0.70711,-0.70711,0.70711,0.70711,-368.5465,303.20205)" rotateDegrees="-45" matrix="[29.803345,29.803345,-29.803345,29.803345,181.72412,245.4443]" x="181.724" svgx:width="0.67" style="fill:rgb(0,0,0);font-family:Arial;font-size:42.15px;stroke:none;">B</text>
   <text y="576.597" transform="matrix(0.70711,-0.70711,0.70711,0.70711,-348.6675,311.4362)" rotateDegrees="-45" matrix="[29.803345,29.803345,-29.803345,29.803345,201.60294,265.32315]" x="201.603" svgx:width="0.5" style="fill:rgb(0,0,0);font-family:Arial;font-size:42.15px;stroke:none;">J</text>
   <text y="561.695" transform="matrix(0.70711,-0.70711,0.70711,0.70711,-333.7655,317.60881)" rotateDegrees="-45" matrix="[29.803345,29.803345,-29.803345,29.803345,216.50462,280.22482]" x="216.505" svgx:width="0.67" style="fill:rgb(0,0,0);font-family:Arial;font-size:42.15px;stroke:none;">E</text>
   <text y="541.816" transform="matrix(0.70711,-0.70711,0.70711,0.70711,-313.88679,325.84225)" rotateDegrees="-45" matrix="[29.803345,29.803345,-29.803345,29.803345,236.38344,300.10364]" x="236.383" svgx:width="0.72" style="fill:rgb(0,0,0);font-family:Arial;font-size:42.15px;stroke:none;">C</text>
   <text y="520.298" transform="matrix(0.70711,-0.70711,0.70711,0.70711,-292.36879,334.7553)" rotateDegrees="-45" matrix="[29.803345,29.803345,-29.803345,29.803345,257.90146,321.62164]" x="257.901" svgx:width="0.61" style="fill:rgb(0,0,0);font-family:Arial;font-size:42.15px;stroke:none;">T</text>
   <text y="502.089" transform="matrix(0.70711,-0.70711,0.70711,0.70711,-274.1595,342.29842)" rotateDegrees="-45" matrix="[29.803345,29.803345,-29.803345,29.803345,276.1113,339.83148]" x="276.111" svgx:width="0.28" style="fill:rgb(0,0,0);font-family:Arial;font-size:42.15px;stroke:none;"> </text>
   <text y="493.803" transform="matrix(0.70711,-0.70711,0.70711,0.70711,-265.8735,345.7306)" rotateDegrees="-45" matrix="[29.803345,29.803345,-29.803345,29.803345,284.39664,348.11682]" x="284.397" svgx:width="0.61" style="fill:rgb(0,0,0);font-family:Arial;font-size:42.15px;stroke:none;">T</text>
   <text y="475.593" transform="matrix(0.70711,-0.70711,0.70711,0.70711,-247.66379,353.27272)" rotateDegrees="-45" matrix="[29.803345,29.803345,-29.803345,29.803345,302.60648,366.32666]" x="302.606" svgx:width="0.78" style="fill:rgb(0,0,0);font-family:Arial;font-size:42.15px;stroke:none;">O</text>
   <text y="452.406" transform="matrix(0.70711,-0.70711,0.70711,0.70711,-224.47679,362.87709)" rotateDegrees="-45" matrix="[29.803345,29.803345,-29.803345,29.803345,325.79346,389.51367]" x="325.793" svgx:width="0.28" style="fill:rgb(0,0,0);font-family:Arial;font-size:42.15px;stroke:none;"> </text>
   <text y="444.136" transform="matrix(0.70711,-0.70711,0.70711,0.70711,-216.2065,366.30334)" rotateDegrees="-45" matrix="[29.803345,29.803345,-29.803345,29.803345,334.0639,397.78412]" x="334.064" svgx:width="0.61" style="fill:rgb(0,0,0);font-family:Arial;font-size:42.15px;stroke:none;">F</text>
   <text y="425.926" transform="matrix(0.70711,-0.70711,0.70711,0.70711,-197.9965,373.84617)" rotateDegrees="-45" matrix="[29.803345,29.803345,-29.803345,29.803345,352.27374,415.99396]" x="352.274" svgx:width="0.28" style="fill:rgb(0,0,0);font-family:Arial;font-size:42.15px;stroke:none;">I</text>
   <text y="417.641" transform="matrix(0.70711,-0.70711,0.70711,0.70711,-189.7115,377.27793)" rotateDegrees="-45" matrix="[29.803345,29.803345,-29.803345,29.803345,360.55908,424.2793]" x="360.559" svgx:width="0.72" style="fill:rgb(0,0,0);font-family:Arial;font-size:42.15px;stroke:none;">N</text>
   <text y="396.123" transform="matrix(0.70711,-0.70711,0.70711,0.70711,-168.1935,386.19098)" rotateDegrees="-45" matrix="[29.803345,29.803345,-29.803345,29.803345,382.0771,445.7973]" x="382.077" svgx:width="0.67" style="fill:rgb(0,0,0);font-family:Arial;font-size:42.15px;stroke:none;">A</text>
   <text y="376.244" transform="matrix(0.70711,-0.70711,0.70711,0.70711,-148.3145,394.42513)" rotateDegrees="-45" matrix="[29.803345,29.803345,-29.803345,29.803345,401.95593,465.67615]" x="401.956" svgx:width="0.56" style="fill:rgb(0,0,0);font-family:Arial;font-size:42.15px;stroke:none;">L</text>
   <text y="359.673" transform="matrix(0.70711,-0.70711,0.70711,0.70711,-131.7435,401.28906)" rotateDegrees="-45" matrix="[29.803345,29.803345,-29.803345,29.803345,418.5266,482.24677]" x="418.527" svgx:width="0.28" style="fill:rgb(0,0,0);font-family:Arial;font-size:42.15px;stroke:none;"> </text>
   <text y="351.394" transform="matrix(0.70711,-0.70711,0.70711,0.70711,-123.4645,404.71834)" rotateDegrees="-45" matrix="[29.803345,29.803345,-29.803345,29.803345,426.80573,490.52588]" x="426.806" svgx:width="0.67" style="fill:rgb(0,0,0);font-family:Arial;font-size:42.15px;stroke:none;">E</text>
   <text y="331.515" transform="matrix(0.70711,-0.70711,0.70711,0.70711,-103.5855,412.95249)" rotateDegrees="-45" matrix="[29.803345,29.803345,-29.803345,29.803345,446.68457,510.40472]" x="446.685" svgx:width="0.72" style="fill:rgb(0,0,0);font-family:Arial;font-size:42.15px;stroke:none;">D</text>
   <text y="309.997" transform="matrix(0.70711,-0.70711,0.70711,0.70711,-82.0675,421.86554)" rotateDegrees="-45" matrix="[29.803345,29.803345,-29.803345,29.803345,468.2025,531.9227]" x="468.203" svgx:width="0.28" style="fill:rgb(0,0,0);font-family:Arial;font-size:42.15px;stroke:none;">I</text>
   <text y="301.712" transform="matrix(0.70711,-0.70711,0.70711,0.70711,-73.7825,425.29729)" rotateDegrees="-45" matrix="[29.803345,29.803345,-29.803345,29.803345,476.48785,540.20807]" x="476.488" svgx:width="0.61" style="fill:rgb(0,0,0);font-family:Arial;font-size:42.15px;stroke:none;">T</text>
   <text y="283.502" transform="matrix(0.70711,-0.70711,0.70711,0.70711,-55.5725,432.84012)" rotateDegrees="-45" matrix="[29.803345,29.803345,-29.803345,29.803345,494.6977,558.4179]" x="494.698" svgx:width="0.67" style="fill:rgb(0,0,0);font-family:Arial;font-size:42.15px;stroke:none;">S</text>
  </g>
 </g>
</svg>
