<?xml version="1.0" encoding="UTF-8" standalone="no"?>
<!DOCTYPE svg PUBLIC "-//W3C//DTD SVG 1.1//EN"
 "http://www.w3.org/Graphics/SVG/1.1/DTD/svg11.dtd">
<!-- Generated by graphviz version 9.0.0 (20230911.1827)
 -->
<!-- Title: dependencies Pages: 1 -->
<svg width="3217pt" height="2658pt"
 viewBox="0.00 0.00 1544.36 1276.00" xmlns="http://www.w3.org/2000/svg" xmlns:xlink="http://www.w3.org/1999/xlink">
<g id="graph0" class="graph" transform="scale(2.08333 2.08333) rotate(0) translate(4 1272)">
<title>dependencies</title>
<polygon fill="white" stroke="none" points="-4,4 -4,-1272 1540.36,-1272 1540.36,4 -4,4"/>
<!-- nltk -->
<g id="node1" class="node">
<title>nltk</title>
<ellipse fill="none" stroke="black" cx="739.91" cy="-708" rx="27" ry="18"/>
<text text-anchor="middle" x="739.91" y="-702.2" font-family="Consolas" font-size="14.00">nltk</text>
</g>
<!-- docanalysis.entity_extraction -->
<g id="node2" class="node">
<title>docanalysis.entity_extraction</title>
<ellipse fill="none" stroke="black" cx="1020.45" cy="-605" rx="122.51" ry="18"/>
<text text-anchor="middle" x="1020.45" y="-599.2" font-family="Consolas" font-size="14.00">docanalysis.entity_extraction</text>
</g>
<!-- nltk&#45;&gt;docanalysis.entity_extraction -->
<g id="edge1" class="edge">
<title>nltk&#45;&gt;docanalysis.entity_extraction</title>
<path fill="none" stroke="black" d="M765.84,-702.68C790.57,-697.1 829.37,-687.56 861.93,-676 900.92,-662.17 943.61,-642.63 974.71,-627.55"/>
<polygon fill="black" stroke="black" points="975.98,-630.83 983.42,-623.29 972.9,-624.54 975.98,-630.83"/>
</g>
<!-- docanalysis -->
<g id="node28" class="node">
<title>docanalysis</title>
<ellipse fill="none" stroke="black" cx="1480.14" cy="-233" rx="56.22" ry="18"/>
<text text-anchor="middle" x="1480.14" y="-227.2" font-family="Consolas" font-size="14.00">docanalysis</text>
</g>
<!-- docanalysis.entity_extraction&#45;&gt;docanalysis -->
<g id="edge30" class="edge">
<title>docanalysis.entity_extraction&#45;&gt;docanalysis</title>
<path fill="none" stroke="black" d="M1043.52,-587.06C1118.56,-526.07 1363.89,-326.67 1449.41,-257.16"/>
<polygon fill="black" stroke="black" points="1451.61,-259.88 1457.16,-250.86 1447.2,-254.45 1451.61,-259.88"/>
</g>
<!-- docanalysis.docanalysis -->
<g id="node29" class="node">
<title>docanalysis.docanalysis</title>
<ellipse fill="none" stroke="black" cx="1283.44" cy="-210" rx="104.48" ry="18"/>
<text text-anchor="middle" x="1283.44" y="-204.2" font-family="Consolas" font-size="14.00">docanalysis.docanalysis</text>
</g>
<!-- docanalysis.entity_extraction&#45;&gt;docanalysis.docanalysis -->
<g id="edge44" class="edge">
<title>docanalysis.entity_extraction&#45;&gt;docanalysis.docanalysis</title>
<path fill="none" stroke="black" d="M1033.51,-586.74C1075.34,-523.43 1214.32,-313.09 1264.32,-237.42"/>
<polygon fill="black" stroke="black" points="1267.08,-239.6 1269.67,-229.33 1261.24,-235.74 1267.08,-239.6"/>
</g>
<!-- re -->
<g id="node3" class="node">
<title>re</title>
<ellipse fill="none" stroke="black" cx="58.66" cy="-540" rx="27" ry="18"/>
<text text-anchor="middle" x="58.66" y="-534.2" font-family="Consolas" font-size="14.00">re</text>
</g>
<!-- re&#45;&gt;docanalysis.entity_extraction -->
<g id="edge2" class="edge">
<title>re&#45;&gt;docanalysis.entity_extraction</title>
<path fill="none" stroke="black" d="M73,-555.53C89.65,-573.6 120.04,-602.44 153.31,-614 288.63,-661.01 702.27,-633.06 905.01,-615.69"/>
<polygon fill="black" stroke="black" points="905.11,-619.2 914.77,-614.85 904.5,-612.22 905.11,-619.2"/>
</g>
<!-- docanalysis.file_lib -->
<g id="node32" class="node">
<title>docanalysis.file_lib</title>
<ellipse fill="none" stroke="black" cx="256.82" cy="-332" rx="83.52" ry="18"/>
<text text-anchor="middle" x="256.82" y="-326.2" font-family="Consolas" font-size="14.00">docanalysis.file_lib</text>
</g>
<!-- re&#45;&gt;docanalysis.file_lib -->
<g id="edge51" class="edge">
<title>re&#45;&gt;docanalysis.file_lib</title>
<path fill="none" stroke="black" d="M76.56,-526.15C89.1,-515.2 105.91,-498.97 117.31,-482 140.19,-447.94 126.79,-428.3 153.31,-397 168.51,-379.07 189.93,-364.42 209.26,-353.6"/>
<polygon fill="black" stroke="black" points="210.65,-356.83 217.8,-349.01 207.34,-350.66 210.65,-356.83"/>
</g>
<!-- spacy.cli -->
<g id="node4" class="node">
<title>spacy.cli</title>
<ellipse fill="none" stroke="black" cx="739.91" cy="-486" rx="43.55" ry="18"/>
<text text-anchor="middle" x="739.91" y="-480.2" font-family="Consolas" font-size="14.00">spacy.cli</text>
</g>
<!-- spacy.cli&#45;&gt;docanalysis.entity_extraction -->
<g id="edge3" class="edge">
<title>spacy.cli&#45;&gt;docanalysis.entity_extraction</title>
<path fill="none" stroke="black" d="M781.62,-491.85C805.55,-496.08 836.08,-502.85 861.93,-513 906.75,-530.59 953.9,-559.74 984.79,-580.51"/>
<polygon fill="black" stroke="black" points="982.74,-583.35 992.98,-586.09 986.68,-577.56 982.74,-583.35"/>
</g>
<!-- tqdm -->
<g id="node5" class="node">
<title>tqdm</title>
<ellipse fill="none" stroke="black" cx="739.91" cy="-164" rx="30.38" ry="18"/>
<text text-anchor="middle" x="739.91" y="-158.2" font-family="Consolas" font-size="14.00">tqdm</text>
</g>
<!-- tqdm&#45;&gt;docanalysis.entity_extraction -->
<g id="edge4" class="edge">
<title>tqdm&#45;&gt;docanalysis.entity_extraction</title>
<path fill="none" stroke="black" d="M770.61,-164.46C797.57,-166.43 836.83,-173.37 861.93,-196 895.47,-226.23 881.79,-248.83 897.93,-291 938.22,-396.2 986.72,-520.96 1008.23,-576.21"/>
<polygon fill="black" stroke="black" points="1004.84,-577.16 1011.73,-585.2 1011.36,-574.61 1004.84,-577.16"/>
</g>
<!-- tqdm&#45;&gt;docanalysis.docanalysis -->
<g id="edge47" class="edge">
<title>tqdm&#45;&gt;docanalysis.docanalysis</title>
<path fill="none" stroke="black" d="M770.79,-163.95C837.69,-164.14 1004.54,-166.42 1142.96,-183 1163.83,-185.5 1186.26,-189.33 1206.9,-193.32"/>
<polygon fill="black" stroke="black" points="1206.19,-196.75 1216.68,-195.26 1207.55,-189.88 1206.19,-196.75"/>
</g>
<!-- requests -->
<g id="node6" class="node">
<title>requests</title>
<ellipse fill="none" stroke="black" cx="739.91" cy="-432" rx="44.03" ry="18"/>
<text text-anchor="middle" x="739.91" y="-426.2" font-family="Consolas" font-size="14.00">requests</text>
</g>
<!-- requests&#45;&gt;docanalysis.entity_extraction -->
<g id="edge5" class="edge">
<title>requests&#45;&gt;docanalysis.entity_extraction</title>
<path fill="none" stroke="black" d="M783.41,-435.93C807.52,-439.49 837.63,-446.24 861.93,-459 918.97,-488.94 970.76,-544.96 998.41,-578.23"/>
<polygon fill="black" stroke="black" points="995.55,-580.27 1004.59,-585.79 1000.97,-575.84 995.55,-580.27"/>
</g>
<!-- pip -->
<g id="node7" class="node">
<title>pip</title>
<ellipse fill="none" stroke="black" cx="739.91" cy="-378" rx="27" ry="18"/>
<text text-anchor="middle" x="739.91" y="-372.2" font-family="Consolas" font-size="14.00">pip</text>
</g>
<!-- pip&#45;&gt;docanalysis.entity_extraction -->
<g id="edge6" class="edge">
<title>pip&#45;&gt;docanalysis.entity_extraction</title>
<path fill="none" stroke="black" d="M766.9,-378.8C792.79,-380.7 832.78,-386.66 861.93,-405 930.71,-448.27 981.94,-532.54 1005.35,-576.6"/>
<polygon fill="black" stroke="black" points="1002.15,-578.04 1009.87,-585.29 1008.36,-574.81 1002.15,-578.04"/>
</g>
<!-- lxml -->
<g id="node8" class="node">
<title>lxml</title>
<ellipse fill="none" stroke="black" cx="256.82" cy="-776" rx="27" ry="18"/>
<text text-anchor="middle" x="256.82" y="-770.2" font-family="Consolas" font-size="14.00">lxml</text>
</g>
<!-- lxml&#45;&gt;docanalysis.entity_extraction -->
<g id="edge7" class="edge">
<title>lxml&#45;&gt;docanalysis.entity_extraction</title>
<path fill="none" stroke="black" d="M282.1,-768.84C339.89,-751.97 490.33,-709.01 617.88,-681 725.45,-657.37 753.79,-658.85 861.93,-638 886.91,-633.18 914.05,-627.62 938.65,-622.45"/>
<polygon fill="black" stroke="black" points="939.22,-625.91 948.28,-620.42 937.77,-619.06 939.22,-625.91"/>
</g>
<!-- docanalysis.ami_sections -->
<g id="node14" class="node">
<title>docanalysis.ami_sections</title>
<ellipse fill="none" stroke="black" cx="739.91" cy="-540" rx="110.33" ry="18"/>
<text text-anchor="middle" x="739.91" y="-534.2" font-family="Consolas" font-size="14.00">docanalysis.ami_sections</text>
</g>
<!-- lxml&#45;&gt;docanalysis.ami_sections -->
<g id="edge24" class="edge">
<title>lxml&#45;&gt;docanalysis.ami_sections</title>
<path fill="none" stroke="black" d="M284.06,-774.01C306.83,-770.98 339.34,-763.33 360.32,-744 391.7,-715.09 365.25,-684.25 396.32,-655 461.28,-593.85 559.78,-565.15 634.51,-551.72"/>
<polygon fill="black" stroke="black" points="635.07,-555.18 644.33,-550.03 633.89,-548.28 635.07,-555.18"/>
</g>
<!-- docanalysis.xml_lib -->
<g id="node25" class="node">
<title>docanalysis.xml_lib</title>
<ellipse fill="none" stroke="black" cx="489.1" cy="-455" rx="86.44" ry="18"/>
<text text-anchor="middle" x="489.1" y="-449.2" font-family="Consolas" font-size="14.00">docanalysis.xml_lib</text>
</g>
<!-- lxml&#45;&gt;docanalysis.xml_lib -->
<g id="edge32" class="edge">
<title>lxml&#45;&gt;docanalysis.xml_lib</title>
<path fill="none" stroke="black" d="M283.92,-775.33C307.58,-773.23 341.53,-766.2 360.32,-744 436.25,-654.28 319.65,-571.09 396.32,-482 399.92,-477.81 404.14,-474.26 408.75,-471.24"/>
<polygon fill="black" stroke="black" points="410.28,-474.39 417.36,-466.51 406.91,-468.26 410.28,-474.39"/>
</g>
<!-- docanalysis.get_html -->
<g id="node41" class="node">
<title>docanalysis.get_html</title>
<ellipse fill="none" stroke="black" cx="489.1" cy="-1054" rx="92.78" ry="18"/>
<text text-anchor="middle" x="489.1" y="-1048.2" font-family="Consolas" font-size="14.00">docanalysis.get_html</text>
</g>
<!-- lxml&#45;&gt;docanalysis.get_html -->
<g id="edge56" class="edge">
<title>lxml&#45;&gt;docanalysis.get_html</title>
<path fill="none" stroke="black" d="M270.86,-791.74C308.62,-837.33 418.39,-969.84 465.83,-1027.11"/>
<polygon fill="black" stroke="black" points="463.11,-1029.31 472.18,-1034.78 468.5,-1024.85 463.11,-1029.31"/>
</g>
<!-- os -->
<g id="node9" class="node">
<title>os</title>
<ellipse fill="none" stroke="black" cx="58.66" cy="-989" rx="27" ry="18"/>
<text text-anchor="middle" x="58.66" y="-983.2" font-family="Consolas" font-size="14.00">os</text>
</g>
<!-- os&#45;&gt;docanalysis.entity_extraction -->
<g id="edge8" class="edge">
<title>os&#45;&gt;docanalysis.entity_extraction</title>
<path fill="none" stroke="black" d="M77.14,-975.52C95.14,-962.5 124.52,-943.54 153.31,-935 304.5,-890.16 728.73,-981.41 861.93,-897 957.95,-836.15 999.53,-695.6 1013.55,-634.38"/>
<polygon fill="black" stroke="black" points="1016.95,-635.24 1015.67,-624.72 1010.11,-633.74 1016.95,-635.24"/>
</g>
<!-- docanalysis.convert_file -->
<g id="node22" class="node">
<title>docanalysis.convert_file</title>
<ellipse fill="none" stroke="black" cx="256.82" cy="-1146" rx="103.5" ry="18"/>
<text text-anchor="middle" x="256.82" y="-1140.2" font-family="Consolas" font-size="14.00">docanalysis.convert_file</text>
</g>
<!-- os&#45;&gt;docanalysis.convert_file -->
<g id="edge21" class="edge">
<title>os&#45;&gt;docanalysis.convert_file</title>
<path fill="none" stroke="black" d="M68.05,-1006.27C82.01,-1033.23 112.57,-1085.2 153.31,-1114 161.08,-1119.49 169.83,-1124.06 178.85,-1127.87"/>
<polygon fill="black" stroke="black" points="177.53,-1131.11 188.12,-1131.44 180.05,-1124.58 177.53,-1131.11"/>
</g>
<!-- os&#45;&gt;docanalysis.xml_lib -->
<g id="edge33" class="edge">
<title>os&#45;&gt;docanalysis.xml_lib</title>
<path fill="none" stroke="black" d="M60.94,-970.84C65.17,-925.58 82.78,-807.23 153.31,-749 225.45,-689.45 295.03,-777.98 360.32,-711 432.23,-637.22 328.36,-559.44 396.32,-482 400.13,-477.66 404.59,-474.01 409.46,-470.93"/>
<polygon fill="black" stroke="black" points="410.76,-474.2 417.93,-466.4 407.46,-468.03 410.76,-474.2"/>
</g>
<!-- docanalysis.glob_trail -->
<g id="node26" class="node">
<title>docanalysis.glob_trail</title>
<ellipse fill="none" stroke="black" cx="256.82" cy="-684" rx="94.24" ry="18"/>
<text text-anchor="middle" x="256.82" y="-678.2" font-family="Consolas" font-size="14.00">docanalysis.glob_trail</text>
</g>
<!-- os&#45;&gt;docanalysis.glob_trail -->
<g id="edge28" class="edge">
<title>os&#45;&gt;docanalysis.glob_trail</title>
<path fill="none" stroke="black" d="M60.46,-970.77C63.61,-922.18 78.96,-788.31 153.31,-716 159.7,-709.79 167.28,-704.78 175.38,-700.74"/>
<polygon fill="black" stroke="black" points="176.74,-703.96 184.49,-696.74 173.92,-697.56 176.74,-703.96"/>
</g>
<!-- os&#45;&gt;docanalysis.docanalysis -->
<g id="edge43" class="edge">
<title>os&#45;&gt;docanalysis.docanalysis</title>
<path fill="none" stroke="black" d="M73.06,-1004.72C89.78,-1023.13 120.22,-1052.89 153.31,-1067 225.94,-1097.96 793.57,-1158.48 861.93,-1119 1199.6,-924 1268.36,-373.13 1280.22,-239.48"/>
<polygon fill="black" stroke="black" points="1283.69,-239.97 1281.04,-229.72 1276.72,-239.39 1283.69,-239.97"/>
</g>
<!-- os&#45;&gt;docanalysis.file_lib -->
<g id="edge49" class="edge">
<title>os&#45;&gt;docanalysis.file_lib</title>
<path fill="none" stroke="black" d="M62.9,-971.07C71.96,-920.71 98.17,-773.63 117.31,-651 134.9,-538.35 91.48,-492.79 153.31,-397 165.57,-378.02 185.54,-363.53 204.62,-353.11"/>
<polygon fill="black" stroke="black" points="206.13,-356.26 213.42,-348.57 202.93,-350.04 206.13,-356.26"/>
</g>
<!-- os&#45;&gt;docanalysis.get_html -->
<g id="edge57" class="edge">
<title>os&#45;&gt;docanalysis.get_html</title>
<path fill="none" stroke="black" d="M77.11,-1002.61C95.07,-1015.73 124.44,-1034.76 153.31,-1043 232.51,-1065.6 326.54,-1066.56 394.75,-1062.91"/>
<polygon fill="black" stroke="black" points="394.6,-1066.42 404.38,-1062.35 394.2,-1059.43 394.6,-1066.42"/>
</g>
<!-- docanalysis.gui -->
<g id="node43" class="node">
<title>docanalysis.gui</title>
<ellipse fill="none" stroke="black" cx="256.82" cy="-1200" rx="70.36" ry="18"/>
<text text-anchor="middle" x="256.82" y="-1194.2" font-family="Consolas" font-size="14.00">docanalysis.gui</text>
</g>
<!-- os&#45;&gt;docanalysis.gui -->
<g id="edge60" class="edge">
<title>os&#45;&gt;docanalysis.gui</title>
<path fill="none" stroke="black" d="M67.48,-1006.31C87.31,-1049.87 138.98,-1161.44 153.31,-1173 161.71,-1179.77 171.64,-1184.86 181.96,-1188.68"/>
<polygon fill="black" stroke="black" points="180.77,-1191.97 191.36,-1191.75 182.94,-1185.32 180.77,-1191.97"/>
</g>
<!-- pandas -->
<g id="node10" class="node">
<title>pandas</title>
<ellipse fill="none" stroke="black" cx="739.91" cy="-324" rx="39.16" ry="18"/>
<text text-anchor="middle" x="739.91" y="-318.2" font-family="Consolas" font-size="14.00">pandas</text>
</g>
<!-- pandas&#45;&gt;docanalysis.entity_extraction -->
<g id="edge9" class="edge">
<title>pandas&#45;&gt;docanalysis.entity_extraction</title>
<path fill="none" stroke="black" d="M779.46,-325.01C804.92,-327.39 837.89,-333.92 861.93,-351 943.12,-408.67 991.1,-522.62 1010.04,-576.06"/>
<polygon fill="black" stroke="black" points="1006.68,-577.06 1013.25,-585.37 1013.3,-574.77 1006.68,-577.06"/>
</g>
<!-- pathlib -->
<g id="node11" class="node">
<title>pathlib</title>
<ellipse fill="none" stroke="black" cx="58.66" cy="-455" rx="36.23" ry="18"/>
<text text-anchor="middle" x="58.66" y="-449.2" font-family="Consolas" font-size="14.00">pathlib</text>
</g>
<!-- pathlib&#45;&gt;docanalysis.entity_extraction -->
<g id="edge10" class="edge">
<title>pathlib&#45;&gt;docanalysis.entity_extraction</title>
<path fill="none" stroke="black" d="M77.71,-470.55C89.85,-481.6 105.7,-497.22 117.31,-513 137.59,-540.54 124.27,-562.96 153.31,-581 213.99,-618.68 661.33,-613.66 888.24,-608.56"/>
<polygon fill="black" stroke="black" points="888.11,-612.06 898.02,-608.34 887.95,-605.07 888.11,-612.06"/>
</g>
<!-- pathlib&#45;&gt;docanalysis.ami_sections -->
<g id="edge27" class="edge">
<title>pathlib&#45;&gt;docanalysis.ami_sections</title>
<path fill="none" stroke="black" d="M80.18,-440.43C102.78,-424.72 137.95,-401.37 153.31,-397 241.8,-371.82 268.54,-390.61 360.32,-397 459.51,-403.91 503,-367.46 581.88,-428 614.43,-452.98 586.36,-486.73 617.88,-513 623.77,-517.91 630.36,-521.97 637.35,-525.34"/>
<polygon fill="black" stroke="black" points="635.86,-528.51 646.43,-529.18 638.59,-522.06 635.86,-528.51"/>
</g>
<!-- pathlib&#45;&gt;docanalysis.xml_lib -->
<g id="edge38" class="edge">
<title>pathlib&#45;&gt;docanalysis.xml_lib</title>
<path fill="none" stroke="black" d="M95.08,-455C159.33,-455 297.13,-455 391.23,-455"/>
<polygon fill="black" stroke="black" points="390.97,-458.5 400.97,-455 390.97,-451.5 390.97,-458.5"/>
</g>
<!-- pathlib&#45;&gt;docanalysis.file_lib -->
<g id="edge54" class="edge">
<title>pathlib&#45;&gt;docanalysis.file_lib</title>
<path fill="none" stroke="black" d="M82.27,-440.91C93.46,-433.37 106.78,-423.49 117.31,-413 136.46,-393.93 131.32,-379.7 153.31,-364 162.42,-357.5 172.89,-352.29 183.58,-348.12"/>
<polygon fill="black" stroke="black" points="184.64,-351.46 192.88,-344.8 182.28,-344.87 184.64,-351.46"/>
</g>
<!-- spacy -->
<g id="node12" class="node">
<title>spacy</title>
<ellipse fill="none" stroke="black" cx="739.91" cy="-270" rx="33.31" ry="18"/>
<text text-anchor="middle" x="739.91" y="-264.2" font-family="Consolas" font-size="14.00">spacy</text>
</g>
<!-- spacy&#45;&gt;docanalysis.entity_extraction -->
<g id="edge11" class="edge">
<title>spacy&#45;&gt;docanalysis.entity_extraction</title>
<path fill="none" stroke="black" d="M773.63,-269.93C799.98,-271.48 836.65,-277.43 861.93,-297 955.85,-369.71 998.66,-513.88 1013.28,-575.71"/>
<polygon fill="black" stroke="black" points="1009.79,-576.16 1015.43,-585.13 1016.62,-574.6 1009.79,-576.16"/>
</g>
<!-- spacy.matcher -->
<g id="node13" class="node">
<title>spacy.matcher</title>
<ellipse fill="none" stroke="black" cx="739.91" cy="-1092" rx="67.43" ry="18"/>
<text text-anchor="middle" x="739.91" y="-1086.2" font-family="Consolas" font-size="14.00">spacy.matcher</text>
</g>
<!-- spacy.matcher&#45;&gt;docanalysis.entity_extraction -->
<g id="edge12" class="edge">
<title>spacy.matcher&#45;&gt;docanalysis.entity_extraction</title>
<path fill="none" stroke="black" d="M805.09,-1086.9C825.36,-1082.41 846.48,-1074.34 861.93,-1060 989.29,-941.83 1013.67,-715.65 1018.34,-634.71"/>
<polygon fill="black" stroke="black" points="1021.83,-635.11 1018.84,-624.94 1014.84,-634.75 1021.83,-635.11"/>
</g>
<!-- docanalysis.ami_sections&#45;&gt;docanalysis.entity_extraction -->
<g id="edge13" class="edge">
<title>docanalysis.ami_sections&#45;&gt;docanalysis.entity_extraction</title>
<path fill="none" stroke="black" d="M804.81,-554.91C845.74,-564.46 899.09,-576.91 942.36,-587.01"/>
<polygon fill="black" stroke="black" points="941.41,-590.38 951.95,-589.25 943,-583.57 941.41,-590.38"/>
</g>
<!-- pygetpapers.download_tools -->
<g id="node15" class="node">
<title>pygetpapers.download_tools</title>
<ellipse fill="none" stroke="black" cx="739.91" cy="-962" rx="122.03" ry="18"/>
<text text-anchor="middle" x="739.91" y="-956.2" font-family="Consolas" font-size="14.00">pygetpapers.download_tools</text>
</g>
<!-- pygetpapers.download_tools&#45;&gt;docanalysis.entity_extraction -->
<g id="edge14" class="edge">
<title>pygetpapers.download_tools&#45;&gt;docanalysis.entity_extraction</title>
<path fill="none" stroke="black" d="M827.09,-949.14C839.67,-944.56 851.78,-938.36 861.93,-930 958.1,-850.79 999.87,-698.76 1013.76,-634.66"/>
<polygon fill="black" stroke="black" points="1017.18,-635.39 1015.79,-624.89 1010.33,-633.96 1017.18,-635.39"/>
</g>
<!-- collections -->
<g id="node16" class="node">
<title>collections</title>
<ellipse fill="none" stroke="black" cx="739.91" cy="-870" rx="51.35" ry="18"/>
<text text-anchor="middle" x="739.91" y="-864.2" font-family="Consolas" font-size="14.00">collections</text>
</g>
<!-- collections&#45;&gt;docanalysis.entity_extraction -->
<g id="edge15" class="edge">
<title>collections&#45;&gt;docanalysis.entity_extraction</title>
<path fill="none" stroke="black" d="M791.15,-867.35C814.35,-864.09 841.27,-857.22 861.93,-843 939.34,-789.72 988.51,-684.76 1008.79,-633.93"/>
<polygon fill="black" stroke="black" points="1011.98,-635.38 1012.35,-624.79 1005.46,-632.84 1011.98,-635.38"/>
</g>
<!-- logging -->
<g id="node17" class="node">
<title>logging</title>
<ellipse fill="none" stroke="black" cx="58.66" cy="-194" rx="38.67" ry="18"/>
<text text-anchor="middle" x="58.66" y="-188.2" font-family="Consolas" font-size="14.00">logging</text>
</g>
<!-- logging&#45;&gt;docanalysis.entity_extraction -->
<g id="edge16" class="edge">
<title>logging&#45;&gt;docanalysis.entity_extraction</title>
<path fill="none" stroke="black" d="M94.63,-187.05C112.17,-183.9 133.78,-180.55 153.31,-179 245.03,-171.7 268.5,-173.17 360.32,-179 416.39,-182.56 816.99,-209.28 861.93,-243 890.73,-264.61 978.37,-494.61 1008.86,-576.36"/>
<polygon fill="black" stroke="black" points="1005.47,-577.31 1012.24,-585.46 1012.03,-574.87 1005.47,-577.31"/>
</g>
<!-- logging&#45;&gt;docanalysis.ami_sections -->
<g id="edge26" class="edge">
<title>logging&#45;&gt;docanalysis.ami_sections</title>
<path fill="none" stroke="black" d="M95.84,-188.63C153.83,-181.54 270.24,-173.64 360.32,-208 478.86,-253.22 511.88,-282.19 581.88,-388 613.78,-436.22 575.77,-473.38 617.88,-513 623.13,-517.94 629.07,-522.05 635.44,-525.46"/>
<polygon fill="black" stroke="black" points="633.84,-528.57 644.39,-529.62 636.8,-522.23 633.84,-528.57"/>
</g>
<!-- logging&#45;&gt;docanalysis.xml_lib -->
<g id="edge37" class="edge">
<title>logging&#45;&gt;docanalysis.xml_lib</title>
<path fill="none" stroke="black" d="M95.53,-200.01C172.9,-213.09 349.38,-243.53 360.32,-251 423.81,-294.37 462.04,-380.77 478.53,-425.95"/>
<polygon fill="black" stroke="black" points="475.21,-427.06 481.84,-435.33 481.81,-424.73 475.21,-427.06"/>
</g>
<!-- logging&#45;&gt;docanalysis.docanalysis -->
<g id="edge45" class="edge">
<title>logging&#45;&gt;docanalysis.docanalysis</title>
<path fill="none" stroke="black" d="M91.83,-184.3C162.7,-163.81 337.96,-118 488.1,-118 488.1,-118 488.1,-118 740.91,-118 920.71,-118 967.42,-124.07 1142.96,-163 1172.21,-169.49 1203.93,-179.89 1229.71,-189.26"/>
<polygon fill="black" stroke="black" points="1228.36,-192.5 1238.96,-192.68 1230.79,-185.93 1228.36,-192.5"/>
</g>
<!-- logging&#45;&gt;docanalysis.file_lib -->
<g id="edge53" class="edge">
<title>logging&#45;&gt;docanalysis.file_lib</title>
<path fill="none" stroke="black" d="M77.76,-210.1C89.62,-221.07 105.14,-236.23 117.31,-251 135.67,-273.25 129.84,-288.24 153.31,-305 160.53,-310.15 168.65,-314.32 177.1,-317.69"/>
<polygon fill="black" stroke="black" points="175.89,-320.98 186.49,-321.05 178.25,-314.39 175.89,-320.98"/>
</g>
<!-- abbreviations -->
<g id="node18" class="node">
<title>abbreviations</title>
<ellipse fill="none" stroke="black" cx="256.82" cy="-962" rx="62.56" ry="18"/>
<text text-anchor="middle" x="256.82" y="-956.2" font-family="Consolas" font-size="14.00">abbreviations</text>
</g>
<!-- abbreviations&#45;&gt;docanalysis.entity_extraction -->
<g id="edge17" class="edge">
<title>abbreviations&#45;&gt;docanalysis.entity_extraction</title>
<path fill="none" stroke="black" d="M309.55,-971.92C438.93,-995.57 772.56,-1048.94 861.93,-989 984.66,-906.69 1011.84,-709.82 1017.8,-634.76"/>
<polygon fill="black" stroke="black" points="1021.28,-635.13 1018.5,-624.91 1014.3,-634.63 1021.28,-635.13"/>
</g>
<!-- abbreviations&#45;&gt;docanalysis.get_html -->
<g id="edge59" class="edge">
<title>abbreviations&#45;&gt;docanalysis.get_html</title>
<path fill="none" stroke="black" d="M311.56,-970.99C327.85,-975.06 345.38,-980.84 360.32,-989 379.37,-999.4 377.69,-1010.86 396.32,-1022 404.74,-1027.03 414.07,-1031.43 423.46,-1035.22"/>
<polygon fill="black" stroke="black" points="422.03,-1038.42 432.62,-1038.7 424.52,-1031.88 422.03,-1038.42"/>
</g>
<!-- distutils.log -->
<g id="node19" class="node">
<title>distutils.log</title>
<ellipse fill="none" stroke="black" cx="739.91" cy="-816" rx="53.78" ry="18"/>
<text text-anchor="middle" x="739.91" y="-810.2" font-family="Consolas" font-size="14.00">distutils.log</text>
</g>
<!-- distutils.log&#45;&gt;docanalysis.entity_extraction -->
<g id="edge18" class="edge">
<title>distutils.log&#45;&gt;docanalysis.entity_extraction</title>
<path fill="none" stroke="black" d="M792.49,-811.87C815.06,-808.26 841.08,-801.53 861.93,-789 927.09,-749.84 978.76,-674.24 1003.51,-633.19"/>
<polygon fill="black" stroke="black" points="1006.51,-634.99 1008.58,-624.6 1000.48,-631.43 1006.51,-634.99"/>
</g>
<!-- pygetpapers -->
<g id="node20" class="node">
<title>pygetpapers</title>
<ellipse fill="none" stroke="black" cx="58.66" cy="-1250" rx="58.66" ry="18"/>
<text text-anchor="middle" x="58.66" y="-1244.2" font-family="Consolas" font-size="14.00">pygetpapers</text>
</g>
<!-- pygetpapers&#45;&gt;docanalysis.entity_extraction -->
<g id="edge19" class="edge">
<title>pygetpapers&#45;&gt;docanalysis.entity_extraction</title>
<path fill="none" stroke="black" d="M116.37,-1253.64C178.02,-1255.79 278.67,-1253.96 360.32,-1227 488.73,-1184.6 492.29,-1115.13 617.88,-1065 720.63,-1023.98 777.42,-1087.4 861.93,-1016 982.17,-914.42 1010.89,-710.22 1017.53,-634.31"/>
<polygon fill="black" stroke="black" points="1020.98,-635.02 1018.29,-624.77 1014,-634.46 1020.98,-635.02"/>
</g>
<!-- pygetpapers&#45;&gt;docanalysis.gui -->
<g id="edge62" class="edge">
<title>pygetpapers&#45;&gt;docanalysis.gui</title>
<path fill="none" stroke="black" d="M104.66,-1238.53C131.44,-1231.7 165.77,-1222.95 194.95,-1215.51"/>
<polygon fill="black" stroke="black" points="195.56,-1218.97 204.39,-1213.11 193.83,-1212.19 195.56,-1218.97"/>
</g>
<!-- xml.etree.ElementTree -->
<g id="node21" class="node">
<title>xml.etree.ElementTree</title>
<ellipse fill="none" stroke="black" cx="739.91" cy="-762" rx="100.09" ry="18"/>
<text text-anchor="middle" x="739.91" y="-756.2" font-family="Consolas" font-size="14.00">xml.etree.ElementTree</text>
</g>
<!-- xml.etree.ElementTree&#45;&gt;docanalysis.entity_extraction -->
<g id="edge20" class="edge">
<title>xml.etree.ElementTree&#45;&gt;docanalysis.entity_extraction</title>
<path fill="none" stroke="black" d="M818.29,-750.43C833.21,-746.64 848.39,-741.62 861.93,-735 915.28,-708.92 966.24,-661.33 995.1,-631.53"/>
<polygon fill="black" stroke="black" points="997.57,-634.01 1001.94,-624.36 992.51,-629.18 997.57,-634.01"/>
</g>
<!-- chardet -->
<g id="node23" class="node">
<title>chardet</title>
<ellipse fill="none" stroke="black" cx="58.66" cy="-1142" rx="39.65" ry="18"/>
<text text-anchor="middle" x="58.66" y="-1136.2" font-family="Consolas" font-size="14.00">chardet</text>
</g>
<!-- chardet&#45;&gt;docanalysis.convert_file -->
<g id="edge22" class="edge">
<title>chardet&#45;&gt;docanalysis.convert_file</title>
<path fill="none" stroke="black" d="M98.41,-1142.79C111.35,-1143.05 126.49,-1143.36 142.18,-1143.68"/>
<polygon fill="black" stroke="black" points="142.1,-1147.18 152.17,-1143.89 142.24,-1140.18 142.1,-1147.18"/>
</g>
<!-- abc -->
<g id="node24" class="node">
<title>abc</title>
<ellipse fill="none" stroke="black" cx="489.1" cy="-509" rx="27" ry="18"/>
<text text-anchor="middle" x="489.1" y="-503.2" font-family="Consolas" font-size="14.00">abc</text>
</g>
<!-- abc&#45;&gt;docanalysis.ami_sections -->
<g id="edge23" class="edge">
<title>abc&#45;&gt;docanalysis.ami_sections</title>
<path fill="none" stroke="black" d="M515.79,-512.2C545.03,-515.84 594.59,-522.02 639.58,-527.62"/>
<polygon fill="black" stroke="black" points="639.05,-531.09 649.4,-528.85 639.91,-524.14 639.05,-531.09"/>
</g>
<!-- docanalysis.xml_lib&#45;&gt;docanalysis.ami_sections -->
<g id="edge25" class="edge">
<title>docanalysis.xml_lib&#45;&gt;docanalysis.ami_sections</title>
<path fill="none" stroke="black" d="M548.87,-468.24C560.18,-471.9 571.67,-476.44 581.88,-482 600.42,-492.1 599.01,-503.53 617.88,-513 626.92,-517.54 636.72,-521.32 646.7,-524.47"/>
<polygon fill="black" stroke="black" points="645.54,-527.78 656.12,-527.22 647.5,-521.06 645.54,-527.78"/>
</g>
<!-- pprint -->
<g id="node27" class="node">
<title>pprint</title>
<ellipse fill="none" stroke="black" cx="58.66" cy="-624" rx="32.33" ry="18"/>
<text text-anchor="middle" x="58.66" y="-618.2" font-family="Consolas" font-size="14.00">pprint</text>
</g>
<!-- pprint&#45;&gt;docanalysis.xml_lib -->
<g id="edge39" class="edge">
<title>pprint&#45;&gt;docanalysis.xml_lib</title>
<path fill="none" stroke="black" d="M75.57,-608.76C87.29,-597.42 103.52,-581.46 117.31,-567 133.83,-549.7 132.62,-538.99 153.31,-527 195.41,-502.62 320.5,-479.99 405.27,-466.83"/>
<polygon fill="black" stroke="black" points="405.58,-470.32 414.94,-465.35 404.52,-463.41 405.58,-470.32"/>
</g>
<!-- pprint&#45;&gt;docanalysis.glob_trail -->
<g id="edge29" class="edge">
<title>pprint&#45;&gt;docanalysis.glob_trail</title>
<path fill="none" stroke="black" d="M87.35,-632.47C115.01,-640.93 158.45,-654.22 194.3,-665.18"/>
<polygon fill="black" stroke="black" points="193.12,-668.48 203.7,-668.06 195.16,-661.79 193.12,-668.48"/>
</g>
<!-- docanalysis.docanalysis&#45;&gt;docanalysis -->
<g id="edge31" class="edge">
<title>docanalysis.docanalysis&#45;&gt;docanalysis</title>
<path fill="none" stroke="black" d="M1370.69,-220.19C1385.78,-221.97 1401.23,-223.8 1415.56,-225.49"/>
<polygon fill="black" stroke="black" points="1414.94,-228.94 1425.29,-226.64 1415.76,-221.99 1414.94,-228.94"/>
</g>
<!-- tkinterweb -->
<g id="node30" class="node">
<title>tkinterweb</title>
<ellipse fill="none" stroke="black" cx="256.82" cy="-554" rx="50.37" ry="18"/>
<text text-anchor="middle" x="256.82" y="-548.2" font-family="Consolas" font-size="14.00">tkinterweb</text>
</g>
<!-- tkinterweb&#45;&gt;docanalysis.xml_lib -->
<g id="edge34" class="edge">
<title>tkinterweb&#45;&gt;docanalysis.xml_lib</title>
<path fill="none" stroke="black" d="M302.2,-545.65C321.12,-540.74 342.82,-533.22 360.32,-522 380.45,-509.09 376.08,-494.75 396.32,-482 402.55,-478.07 409.38,-474.7 416.41,-471.8"/>
<polygon fill="black" stroke="black" points="417.26,-475.22 425.39,-468.42 414.8,-468.67 417.26,-475.22"/>
</g>
<!-- io -->
<g id="node31" class="node">
<title>io</title>
<ellipse fill="none" stroke="black" cx="256.82" cy="-424" rx="27" ry="18"/>
<text text-anchor="middle" x="256.82" y="-418.2" font-family="Consolas" font-size="14.00">io</text>
</g>
<!-- io&#45;&gt;docanalysis.xml_lib -->
<g id="edge35" class="edge">
<title>io&#45;&gt;docanalysis.xml_lib</title>
<path fill="none" stroke="black" d="M283.79,-427.5C312.89,-431.41 361.57,-437.97 404.11,-443.69"/>
<polygon fill="black" stroke="black" points="403.47,-447.14 413.85,-445 404.41,-440.2 403.47,-447.14"/>
</g>
<!-- docanalysis.file_lib&#45;&gt;docanalysis.xml_lib -->
<g id="edge36" class="edge">
<title>docanalysis.file_lib&#45;&gt;docanalysis.xml_lib</title>
<path fill="none" stroke="black" d="M289.35,-348.84C330.04,-370.57 400.93,-408.44 446.14,-432.59"/>
<polygon fill="black" stroke="black" points="444.4,-435.63 454.87,-437.25 447.7,-429.45 444.4,-435.63"/>
</g>
<!-- tkinter -->
<g id="node33" class="node">
<title>tkinter</title>
<ellipse fill="none" stroke="black" cx="256.82" cy="-278" rx="34.28" ry="18"/>
<text text-anchor="middle" x="256.82" y="-272.2" font-family="Consolas" font-size="14.00">tkinter</text>
</g>
<!-- tkinter&#45;&gt;docanalysis.xml_lib -->
<g id="edge40" class="edge">
<title>tkinter&#45;&gt;docanalysis.xml_lib</title>
<path fill="none" stroke="black" d="M290.77,-281.53C311.94,-284.99 339.29,-291.77 360.32,-305 410.05,-336.28 450.56,-393.09 471.85,-427.11"/>
<polygon fill="black" stroke="black" points="468.83,-428.88 477.03,-435.59 474.8,-425.23 468.83,-428.88"/>
</g>
<!-- sys -->
<g id="node34" class="node">
<title>sys</title>
<ellipse fill="none" stroke="black" cx="1020.45" cy="-18" rx="27" ry="18"/>
<text text-anchor="middle" x="1020.45" y="-12.2" font-family="Consolas" font-size="14.00">sys</text>
</g>
<!-- sys&#45;&gt;docanalysis.docanalysis -->
<g id="edge41" class="edge">
<title>sys&#45;&gt;docanalysis.docanalysis</title>
<path fill="none" stroke="black" d="M1047.9,-19.03C1073.8,-21.11 1113.56,-27.22 1142.96,-45 1199.59,-79.24 1244.4,-144.64 1266.8,-182"/>
<polygon fill="black" stroke="black" points="1263.67,-183.58 1271.75,-190.44 1269.71,-180.04 1263.67,-183.58"/>
</g>
<!-- coloredlogs -->
<g id="node35" class="node">
<title>coloredlogs</title>
<ellipse fill="none" stroke="black" cx="1020.45" cy="-264" rx="55.25" ry="18"/>
<text text-anchor="middle" x="1020.45" y="-258.2" font-family="Consolas" font-size="14.00">coloredlogs</text>
</g>
<!-- coloredlogs&#45;&gt;docanalysis.docanalysis -->
<g id="edge42" class="edge">
<title>coloredlogs&#45;&gt;docanalysis.docanalysis</title>
<path fill="none" stroke="black" d="M1067.81,-254.41C1105.48,-246.61 1159.47,-235.44 1203.87,-226.26"/>
<polygon fill="black" stroke="black" points="1204.37,-229.73 1213.46,-224.27 1202.95,-222.87 1204.37,-229.73"/>
</g>
<!-- time -->
<g id="node36" class="node">
<title>time</title>
<ellipse fill="none" stroke="black" cx="1020.45" cy="-210" rx="27.46" ry="18"/>
<text text-anchor="middle" x="1020.45" y="-204.2" font-family="Consolas" font-size="14.00">time</text>
</g>
<!-- time&#45;&gt;docanalysis.docanalysis -->
<g id="edge46" class="edge">
<title>time&#45;&gt;docanalysis.docanalysis</title>
<path fill="none" stroke="black" d="M1048.39,-210C1076.67,-210 1123.05,-210 1167.09,-210"/>
<polygon fill="black" stroke="black" points="1167.01,-213.5 1177.01,-210 1167.01,-206.5 1167.01,-213.5"/>
</g>
<!-- configargparse -->
<g id="node37" class="node">
<title>configargparse</title>
<ellipse fill="none" stroke="black" cx="1020.45" cy="-72" rx="68.41" ry="18"/>
<text text-anchor="middle" x="1020.45" y="-66.2" font-family="Consolas" font-size="14.00">configargparse</text>
</g>
<!-- configargparse&#45;&gt;docanalysis.docanalysis -->
<g id="edge48" class="edge">
<title>configargparse&#45;&gt;docanalysis.docanalysis</title>
<path fill="none" stroke="black" d="M1078.14,-82.08C1099.15,-87.05 1122.76,-94.15 1142.96,-104 1185.94,-124.96 1228.74,-160.16 1255.37,-184.2"/>
<polygon fill="black" stroke="black" points="1252.9,-186.69 1262.64,-190.86 1257.63,-181.53 1252.9,-186.69"/>
</g>
<!-- shutil -->
<g id="node38" class="node">
<title>shutil</title>
<ellipse fill="none" stroke="black" cx="58.66" cy="-278" rx="30.87" ry="18"/>
<text text-anchor="middle" x="58.66" y="-272.2" font-family="Consolas" font-size="14.00">shutil</text>
</g>
<!-- shutil&#45;&gt;docanalysis.file_lib -->
<g id="edge50" class="edge">
<title>shutil&#45;&gt;docanalysis.file_lib</title>
<path fill="none" stroke="black" d="M86.66,-285.96C105.35,-291.43 130.8,-298.79 153.31,-305 165.53,-308.37 178.58,-311.88 191.14,-315.21"/>
<polygon fill="black" stroke="black" points="190,-318.52 200.56,-317.69 191.79,-311.76 190,-318.52"/>
</g>
<!-- ast -->
<g id="node39" class="node">
<title>ast</title>
<ellipse fill="none" stroke="black" cx="58.66" cy="-386" rx="27" ry="18"/>
<text text-anchor="middle" x="58.66" y="-380.2" font-family="Consolas" font-size="14.00">ast</text>
</g>
<!-- ast&#45;&gt;docanalysis.file_lib -->
<g id="edge52" class="edge">
<title>ast&#45;&gt;docanalysis.file_lib</title>
<path fill="none" stroke="black" d="M84.1,-379.27C111.21,-371.81 156.01,-359.48 193.05,-349.28"/>
<polygon fill="black" stroke="black" points="193.59,-352.76 202.3,-346.73 191.73,-346.01 193.59,-352.76"/>
</g>
<!-- copy -->
<g id="node40" class="node">
<title>copy</title>
<ellipse fill="none" stroke="black" cx="58.66" cy="-332" rx="28.92" ry="18"/>
<text text-anchor="middle" x="58.66" y="-326.2" font-family="Consolas" font-size="14.00">copy</text>
</g>
<!-- copy&#45;&gt;docanalysis.file_lib -->
<g id="edge55" class="edge">
<title>copy&#45;&gt;docanalysis.file_lib</title>
<path fill="none" stroke="black" d="M87.76,-332C107.32,-332 134.63,-332 161.55,-332"/>
<polygon fill="black" stroke="black" points="161.53,-335.5 171.53,-332 161.53,-328.5 161.53,-335.5"/>
</g>
<!-- yake -->
<g id="node42" class="node">
<title>yake</title>
<ellipse fill="none" stroke="black" cx="256.82" cy="-1016" rx="28.92" ry="18"/>
<text text-anchor="middle" x="256.82" y="-1010.2" font-family="Consolas" font-size="14.00">yake</text>
</g>
<!-- yake&#45;&gt;docanalysis.get_html -->
<g id="edge58" class="edge">
<title>yake&#45;&gt;docanalysis.get_html</title>
<path fill="none" stroke="black" d="M285.14,-1020.51C314.78,-1025.4 363.53,-1033.44 405.82,-1040.42"/>
<polygon fill="black" stroke="black" points="405.06,-1043.84 415.5,-1042.02 406.2,-1036.94 405.06,-1043.84"/>
</g>
<!-- eel -->
<g id="node44" class="node">
<title>eel</title>
<ellipse fill="none" stroke="black" cx="58.66" cy="-1196" rx="27" ry="18"/>
<text text-anchor="middle" x="58.66" y="-1190.2" font-family="Consolas" font-size="14.00">eel</text>
</g>
<!-- eel&#45;&gt;docanalysis.gui -->
<g id="edge61" class="edge">
<title>eel&#45;&gt;docanalysis.gui</title>
<path fill="none" stroke="black" d="M86.11,-1196.54C109.03,-1197.01 143.42,-1197.71 175.27,-1198.36"/>
<polygon fill="black" stroke="black" points="174.82,-1201.85 184.89,-1198.55 174.96,-1194.85 174.82,-1201.85"/>
</g>
</g>
</svg>
