<?xml version="1.0" encoding="UTF-8" standalone="no"?>
<!DOCTYPE svg PUBLIC "-//W3C//DTD SVG 1.1//EN"
 "http://www.w3.org/Graphics/SVG/1.1/DTD/svg11.dtd">
<!-- Generated by graphviz version 9.0.0 (20230911.1827)
 -->
<!-- Title: semantic Pages: 1 -->
<svg width="237pt" height="116pt"
 viewBox="0.00 0.00 236.88 116.00" xmlns="http://www.w3.org/2000/svg" xmlns:xlink="http://www.w3.org/1999/xlink">
<g id="graph0" class="graph" transform="scale(1 1) rotate(0) translate(4 112)">
<title>semantic</title>
<polygon fill="white" stroke="none" points="-4,4 -4,-112 232.88,-112 232.88,4 -4,4"/>
<!-- semantic -->
<g id="node1" class="node">
<title>semantic</title>
<ellipse fill="none" stroke="black" cx="67.34" cy="-18" rx="44.19" ry="18"/>
<text text-anchor="middle" x="67.34" y="-12.95" font-family="Times,serif" font-size="14.00">semantic</text>
</g>
<!-- filtered -->
<g id="node2" class="node">
<title>filtered</title>
<ellipse fill="none" stroke="black" cx="191.34" cy="-90" rx="37.53" ry="18"/>
<text text-anchor="middle" x="191.34" y="-84.95" font-family="Times,serif" font-size="14.00">filtered</text>
</g>
<!-- dict1 -->
<g id="node3" class="node">
<title>dict1</title>
<ellipse fill="none" stroke="black" cx="29.34" cy="-90" rx="29.34" ry="18"/>
<text text-anchor="middle" x="29.34" y="-84.95" font-family="Times,serif" font-size="14.00">dict1</text>
</g>
<!-- dict1&#45;&gt;semantic -->
<g id="edge1" class="edge">
<title>dict1&#45;&gt;semantic</title>
<path fill="none" stroke="black" d="M38.35,-72.41C42.64,-64.51 47.88,-54.85 52.72,-45.94"/>
<polygon fill="black" stroke="black" points="55.72,-47.74 57.42,-37.29 49.57,-44.41 55.72,-47.74"/>
</g>
<!-- dict2 -->
<g id="node4" class="node">
<title>dict2</title>
<ellipse fill="none" stroke="black" cx="106.34" cy="-90" rx="29.34" ry="18"/>
<text text-anchor="middle" x="106.34" y="-84.95" font-family="Times,serif" font-size="14.00">dict2</text>
</g>
<!-- dict2&#45;&gt;semantic -->
<g id="edge2" class="edge">
<title>dict2&#45;&gt;semantic</title>
<path fill="none" stroke="black" d="M97.1,-72.41C92.7,-64.51 87.32,-54.85 82.35,-45.94"/>
<polygon fill="black" stroke="black" points="85.45,-44.31 77.53,-37.28 79.34,-47.72 85.45,-44.31"/>
</g>
</g>
</svg>
