<?xml version="1.0" encoding="UTF-8"?>
<svg height="814.0" width="2582.0" xmlns="http://www.w3.org/2000/svg">
 <g id="page" xmlns:svgx="http://www.xml-cml.org/schema/svgx">
  <g begin="text">
   <text y="46.56" x="72.024,78.624,81.96,87.96,93.288,96.624,99.624,108.288,114.288,120.288,125.652,129.648,135.648,144.984,150.252,156.252,159.588,162.588,171.252,174.588,179.28,182.616,186.612,189.948,195.948,201.948,205.308,208.644,214.644" svgx:width="0.56,0.28,0.5,0.44,0.28,0.25,0.72,0.5,0.5,0.44,0.33,0.5,0.78,0.44,0.5,0.28,0.25,0.72,0.28,0.39,0.28,0.33,0.28,0.5,0.5,0.28,0.28,0.5,0.5" style="fill:rgb(0,0,0);font-family:TimesNewRomanPSMT;font-size:12.0px;stroke:none;">Final Government Distribution</text>
  </g>
  <g begin="text">
   <text y="46.56" x="220.73" svgx:width="0.25" style="fill:rgb(0,0,0);font-family:TimesNewRomanPSMT;font-size:12.0px;stroke:none;"> </text>
  </g>
  <g begin="text">
   <text y="46.56" x="223.73" svgx:width="0.25" style="fill:rgb(0,0,0);font-family:TimesNewRomanPSMT;font-size:12.0px;stroke:none;"> </text>
  </g>
  <g begin="text">
   <text y="46.56" x="256.13,259.13,262.13,265.13,268.13,271.13,274.13,277.13,280.13,283.13" svgx:width="0.25,0.25,0.25,0.25,0.25,0.25,0.25,0.25,0.25,0.25" style="fill:rgb(0,0,0);font-family:TimesNewRomanPSMT;font-size:12.0px;stroke:none;"> </text>
  </g>
  <g begin="text">
   <text y="46.56" x="286.15,294.178,300.178,305.458,311.458,314.794,320.122,324.058,327.058,333.058" svgx:width="0.67,0.5,0.44,0.5,0.28,0.44,0.33,0.25,0.5,0.5" style="fill:rgb(0,0,0);font-family:TimesNewRomanPSMT;font-size:12.0px;stroke:none;">Chapter 17</text>
  </g>
  <g begin="text">
   <text y="46.56" x="339.19" svgx:width="0.25" style="fill:rgb(0,0,0);font-family:TimesNewRomanPSMT;font-size:12.0px;stroke:none;"> </text>
  </g>
  <g begin="text">
   <text y="46.56" x="436.06,439.9,446.608,454.636,462.664" svgx:width="0.33,0.56,0.67,0.67,0.25" style="fill:rgb(0,0,0);font-family:TimesNewRomanPSMT;font-size:12.0px;stroke:none;">IPCC </text>
  </g>
  <g begin="text">
   <text y="46.56" x="465.7,474.364,482.368,488.368,491.368,502.66,511.408,515.404,519.328" svgx:width="0.72,0.67,0.5,0.25,0.94,0.72,0.33,0.33,0.33" style="fill:rgb(0,0,0);font-family:TimesNewRomanPSMT;font-size:12.0px;stroke:none;">AR6 WGIII</text>
  </g>
  <g begin="text">
   <text y="46.56" x="523.44" svgx:width="0.25" style="fill:rgb(0,0,0);font-family:TimesNewRomanPSMT;font-size:12.0px;stroke:none;"> </text>
  </g>
  <g begin="text">
   <text y="804.0" x="72.024,80.688,86.688,89.688,98.304,104.304,108.3,111.3,119.904,123.24,127.236,132.504,135.504,138.504,147.84,154.572,160.572,164.64,169.92,172.92,178.92,184.2,187.308,195.972,199.308,203.976,207.972,213.228,216.564,223.296,230.004,234.0" svgx:width="0.72,0.5,0.25,0.72,0.5,0.33,0.25,0.72,0.28,0.33,0.44,0.25,0.25,0.78,0.56,0.5,0.33,0.44,0.25,0.5,0.44,0.25,0.72,0.28,0.39,0.33,0.44,0.28,0.56,0.56,0.33,0.44" style="fill:rgb(0,0,0);font-family:TimesNewRomanPS-BoldMT;font-size:12.0px;stroke:none;">Do Not Cite, Quote or Distribute</text>
  </g>
  <g begin="text">
   <text y="804.0" x="239.33" svgx:width="0.25" style="fill:rgb(0,0,0);font-family:TimesNewRomanPS-BoldMT;font-size:12.0px;stroke:none;"> </text>
  </g>
  <g begin="text">
   <text y="804.0" x="283.75,289.75" svgx:width="0.5,0.5" style="fill:rgb(0,0,0);font-family:TimesNewRomanPSMT;font-size:12.0px;stroke:none;">17</text>
  </g>
  <g begin="text">
   <text y="804.0" x="295.75" svgx:width="0.33" style="fill:rgb(0,0,0);font-family:TimesNewRomanPSMT;font-size:12.0px;stroke:none;">-</text>
  </g>
  <g begin="text">
   <text y="804.0" x="299.71,305.71" svgx:width="0.5,0.5" style="fill:rgb(0,0,0);font-family:TimesNewRomanPSMT;font-size:12.0px;stroke:none;">51</text>
  </g>
  <g begin="text">
   <text y="804.0" x="311.71" svgx:width="0.25" style="fill:rgb(0,0,0);font-family:TimesNewRomanPSMT;font-size:12.0px;stroke:none;"> </text>
  </g>
  <g begin="text">
   <text y="804.0" x="314.71" svgx:width="0.25" style="fill:rgb(0,0,0);font-family:TimesNewRomanPSMT;font-size:12.0px;stroke:none;"> </text>
  </g>
  <g begin="text">
   <text y="804.0" x="449.38,456.712,462.712,466.048,471.34,474.676,477.676,483.676,489.004,495.004,500.26,504.928,508.264" svgx:width="0.61,0.5,0.28,0.44,0.28,0.25,0.5,0.44,0.5,0.44,0.39,0.28,0.25" style="fill:rgb(0,0,0);font-family:TimesNewRomanPSMT;font-size:12.0px;stroke:none;">Total pages: </text>
  </g>
  <g begin="text">
   <text y="804.0" x="511.32,517.32" svgx:width="0.5,0.5" style="fill:rgb(0,0,0);font-family:TimesNewRomanPSMT;font-size:12.0px;stroke:none;">99</text>
  </g>
  <g begin="text">
   <text y="804.0" x="523.44" svgx:width="0.25" style="fill:rgb(0,0,0);font-family:TimesNewRomanPSMT;font-size:9.96px;stroke:none;"> </text>
  </g>
  <g begin="text">
   <text y="634.66" x="533.28" svgx:width="0.25" style="fill:rgb(0,0,0);font-family:TimesNewRomanPSMT;font-size:11.04px;stroke:none;"> </text>
  </g>
  <g begin="text">
   <text y="634.66" x="48.0" svgx:width="0.5" style="fill:rgb(0,0,0);font-family:TimesNewRomanPSMT;font-size:12.0px;stroke:none;">1</text>
  </g>
  <g begin="text">
   <text y="634.66" x="54.024" svgx:width="0.25" style="fill:rgb(0,0,0);font-family:TimesNewRomanPSMT;font-size:12.0px;stroke:none;"> </text>
  </g>
  <g begin="text">
   <text y="644.86" x="72.024" svgx:width="0.25" style="fill:rgb(0,0,0);font-family:TimesNewRomanPSMT;font-size:11.04px;stroke:none;"> </text>
  </g>
  <g begin="text">
   <text y="644.86" x="48.0" svgx:width="0.5" style="fill:rgb(0,0,0);font-family:TimesNewRomanPSMT;font-size:12.0px;stroke:none;">2</text>
  </g>
  <g begin="text">
   <text y="644.86" x="54.024" svgx:width="0.25" style="fill:rgb(0,0,0);font-family:TimesNewRomanPSMT;font-size:12.0px;stroke:none;"> </text>
  </g>
  <g begin="text">
   <text y="656.62" x="112.1,118.205,120.974,125.994,131.532,135.954,140.376,142.906" svgx:width="0.61,0.28,0.5,0.56,0.44,0.44,0.25,0.5" style="fill:rgb(0,0,0);font-family:TimesNewRomanPS-BoldMT;font-size:9.96px;stroke:none;">Figure 1</text>
  </g>
  <g begin="text">
   <text y="656.62" x="147.98,153.01,155.52" svgx:width="0.5,0.25,0.5" style="fill:rgb(0,0,0);font-family:TimesNewRomanPS-BoldMT;font-size:9.96px;stroke:none;">7.1</text>
  </g>
  <g begin="text">
   <text y="656.62" x="160.58" svgx:width="0.25" style="fill:rgb(0,0,0);font-family:TimesNewRomanPS-BoldMT;font-size:9.96px;stroke:none;"> </text>
  </g>
  <g begin="text">
   <text y="656.62" x="163.1,169.704,174.126,179.175,184.713" svgx:width="0.67,0.44,0.5,0.56,0.44" style="fill:rgb(0,0,0);font-family:TimesNewRomanPS-BoldMT;font-size:9.96px;stroke:none;">Trade</text>
  </g>
  <g begin="text">
   <text y="656.62" x="189.17" svgx:width="0.33" style="fill:rgb(0,0,0);font-family:TimesNewRomanPS-BoldMT;font-size:9.96px;stroke:none;">-</text>
  </g>
  <g begin="text">
   <text y="656.62" x="192.53,197.45,200.797,204.143,207.988,210.498,215.528,221.065,226.563,229.073,232.918,237.948,243.485,247.908,252.33,257.38,260.148,264.571,268.445,270.935,276.473,280.895,284.252,291.443,295.865,300.317,305.855,308.345,312.219,316.642,321.064,324.43,329.46,333.882,338.932,341.701,344.191,352.597,355.366,358.703,361.472,366.491,371.521,374.868,377.637,382.657,388.194,390.684,395.724,401.262,404.579,407.347,412.397,417.935,421.76,424.269,429.299,434.837,440.335,442.845,446.191,451.729,456.151,458.661,464.199,471.39,479.169" svgx:width="0.5,0.33,0.33,0.39,0.25,0.5,0.56,0.56,0.25,0.39,0.5,0.56,0.44,0.44,0.5,0.28,0.44,0.39,0.25,0.56,0.44,0.33,0.72,0.44,0.44,0.56,0.25,0.39,0.44,0.44,0.33,0.5,0.44,0.5,0.28,0.25,0.83,0.28,0.33,0.28,0.5,0.5,0.33,0.28,0.5,0.56,0.25,0.5,0.56,0.33,0.28,0.5,0.56,0.39,0.25,0.5,0.56,0.56,0.25,0.33,0.56,0.44,0.25,0.56,0.72,0.78,0.39" style="fill:rgb(0,0,0);font-family:TimesNewRomanPS-BoldMT;font-size:9.96px;stroke:none;">offs and synergies between sectoral mitigation options and the SDGs</text>
  </g>
  <g begin="text">
   <text y="656.62" x="483.34" svgx:width="0.25" style="fill:rgb(0,0,0);font-family:TimesNewRomanPS-BoldMT;font-size:9.96px;stroke:none;"> </text>
  </g>
  <g begin="text">
   <text y="656.62" x="48.0" svgx:width="0.5" style="fill:rgb(0,0,0);font-family:TimesNewRomanPSMT;font-size:12.0px;stroke:none;">3</text>
  </g>
  <g begin="text">
   <text y="656.62" x="54.024" svgx:width="0.25" style="fill:rgb(0,0,0);font-family:TimesNewRomanPSMT;font-size:12.0px;stroke:none;"> </text>
  </g>
  <g begin="text">
   <text y="668.14" x="297.67" svgx:width="0.25" style="fill:rgb(0,0,0);font-family:TimesNewRomanPSMT;font-size:9.96px;stroke:none;"> </text>
  </g>
  <g begin="text">
   <text y="668.14" x="48.0" svgx:width="0.5" style="fill:rgb(0,0,0);font-family:TimesNewRomanPSMT;font-size:12.0px;stroke:none;">4</text>
  </g>
  <g begin="text">
   <text y="668.14" x="54.024" svgx:width="0.25" style="fill:rgb(0,0,0);font-family:TimesNewRomanPSMT;font-size:12.0px;stroke:none;"> </text>
  </g>
  <g begin="text">
   <text y="679.54" x="72.024" svgx:width="0.25" style="fill:rgb(0,0,0);font-family:TimesNewRomanPSMT;font-size:9.96px;stroke:none;"> </text>
  </g>
  <g begin="text">
   <text y="679.54" x="48.0" svgx:width="0.5" style="fill:rgb(0,0,0);font-family:TimesNewRomanPSMT;font-size:12.0px;stroke:none;">5</text>
  </g>
  <g begin="text">
   <text y="679.54" x="54.024" svgx:width="0.25" style="fill:rgb(0,0,0);font-family:TimesNewRomanPSMT;font-size:12.0px;stroke:none;"> </text>
  </g>
  <g begin="text">
   <text y="691.9" x="72.024,81.839,87.359,91.587,94.7,97.571,103.091,106.8,109.56,112.673,118.193,123.095,125.855,130.779,136.299,141.101,144.811,150.331,155.851,158.721,162.916,167.818,172.632,175.745,181.265,184.974,187.845,193.243,198.763,201.877,204.99,210.388,215.908,220.203,223.095,227.898,231.607,236.509,239.401,244.204,248.498,252.837,257.639,261.934,266.273,271.075,276.595" svgx:width="0.89,0.5,0.39,0.28,0.25,0.5,0.33,0.25,0.28,0.5,0.44,0.25,0.44,0.5,0.44,0.33,0.5,0.5,0.25,0.39,0.44,0.44,0.28,0.5,0.33,0.25,0.5,0.5,0.28,0.28,0.5,0.5,0.39,0.25,0.44,0.33,0.44,0.25,0.44,0.39,0.39,0.44,0.39,0.39,0.44,0.5,0.25" style="fill:rgb(0,0,0);font-family:TimesNewRomanPSMT;font-size:11.04px;stroke:none;">Most of the energy sector options are assessed </text>
  </g>
  <g begin="text">
   <text y="691.9" x="279.65,284.552,288.879,291.75,297.148,302.05,307.57,310.584,315.983,321.503" svgx:width="0.44,0.39,0.25,0.5,0.44,0.5,0.28,0.5,0.5,0.25" style="fill:rgb(0,0,0);font-family:TimesNewRomanPSMT;font-size:11.04px;stroke:none;">as having </text>
  </g>
  <g begin="text">
   <text y="691.9" x="324.43,328.725,334.245,339.765,344.589,348.298,353.818,356.821,361.723,366.051,368.921,376.837,379.84,382.953,388.473,391.343,395.539,400.44,405.96,410.774,414.483,419.286,422.399,425.269,431.264,439.18,447.096,451.39,454.15,457.043,462.563,468.083,471.196,473.956,477.069,482.589,487.491,491.112,496.014,498.906,503.808,509.229,514.749,517.862,523.261" svgx:width="0.39,0.5,0.5,0.44,0.33,0.5,0.28,0.44,0.39,0.25,0.72,0.28,0.28,0.5,0.25,0.39,0.44,0.5,0.44,0.33,0.44,0.28,0.25,0.56,0.72,0.72,0.39,0.25,0.25,0.5,0.5,0.28,0.25,0.28,0.5,0.44,0.33,0.44,0.25,0.44,0.5,0.5,0.28,0.5,0.25" style="fill:rgb(0,0,0);font-family:TimesNewRomanPSMT;font-size:11.04px;stroke:none;">synergies with several SDGs, but there could </text>
  </g>
  <g begin="text">
   <text y="691.9" x="48.0" svgx:width="0.5" style="fill:rgb(0,0,0);font-family:TimesNewRomanPSMT;font-size:12.0px;stroke:none;">6</text>
  </g>
  <g begin="text">
   <text y="691.9" x="54.024" svgx:width="0.25" style="fill:rgb(0,0,0);font-family:TimesNewRomanPSMT;font-size:12.0px;stroke:none;"> </text>
  </g>
  <g begin="text">
   <text y="704.62" x="72.024,77.544,82.446,85.206,86.056,94.689,97.802,103.201,108.103,113.623,116.38300000000001,117.354,121.549,127.069,132.589,137.491,141.112,146.632,149.635,154.537,158.865,162.453,167.354,172.874,178.394" svgx:width="0.5,0.44,0.25,0.55,0.78,0.28,0.5,0.44,0.5,0.25,0.55,0.39,0.5,0.5,0.44,0.33,0.5,0.28,0.44,0.39,0.25,0.44,0.5,0.5,0.25" style="fill:rgb(0,0,0);font-family:TimesNewRomanPSMT;font-size:11.04px;stroke:none;">be mixed synergies and </text>
  </g>
  <g begin="text">
   <text y="704.62" x="182.09,185.203,188.802,193.605,199.125" svgx:width="0.28,0.33,0.44,0.5,0.44" style="fill:rgb(0,0,0);font-family:TimesNewRomanPSMT;font-size:11.04px;stroke:none;">trade</text>
  </g>
  <g begin="text">
   <text y="704.62" x="204.05" svgx:width="0.33" style="fill:rgb(0,0,0);font-family:TimesNewRomanPSMT;font-size:11.04px;stroke:none;">-</text>
  </g>
  <g begin="text">
   <text y="704.62" x="207.65,213.17,216.879" svgx:width="0.5,0.33,0.33" style="fill:rgb(0,0,0);font-family:TimesNewRomanPSMT;font-size:11.04px;stroke:none;">off</text>
  </g>
  <g begin="text">
   <text y="704.62" x="220.61,224.805,227.565,228.515,234.035,238.837,241.95,249.866,254.768,259.692,265.09,267.84999999999997,268.8,274.938,282.842,290.758,293.518,294.468,299.988" svgx:width="0.39,0.25,0.55,0.5,0.44,0.28,0.72,0.44,0.44,0.5,0.25,0.55,0.56,0.72,0.72,0.25,0.55,0.5,0.25" style="fill:rgb(0,0,0);font-family:TimesNewRomanPSMT;font-size:11.04px;stroke:none;">s between SDG 2 </text>
  </g>
  <g begin="text">
   <text y="704.62" x="303.67,307.39" svgx:width="0.33,0.44" style="fill:rgb(0,0,0);font-family:TimesNewRomanPSMT;font-size:11.04px;stroke:none;">‘z</text>
  </g>
  <g begin="text">
   <text y="704.62" x="312.19,317.092,320.823,326.343,329.103,330.053,335.451,340.971,346.491,352.011,356.814" svgx:width="0.44,0.33,0.5,0.25,0.55,0.5,0.5,0.5,0.5,0.44,0.33" style="fill:rgb(0,0,0);font-family:TimesNewRomanPSMT;font-size:11.04px;stroke:none;">ero hunger</text>
  </g>
  <g begin="text">
   <text y="704.62" x="360.55" svgx:width="0.33" style="fill:rgb(0,0,0);font-family:TimesNewRomanPSMT;font-size:11.04px;stroke:none;">’</text>
  </g>
  <g begin="text">
   <text y="704.62" x="364.15" svgx:width="0.25" style="fill:rgb(0,0,0);font-family:TimesNewRomanPSMT;font-size:11.04px;stroke:none;"> </text>
  </g>
  <g begin="text">
   <text y="704.62" x="367.87,371.579,376.978,380.687,383.447,384.397,392.313,395.315,400.835,406.355,409.115,410.065,414.867,420.387,425.907,428.667,429.617,433.812" svgx:width="0.33,0.5,0.33,0.25,0.55,0.72,0.28,0.5,0.5,0.25,0.55,0.44,0.5,0.5,0.25,0.55,0.39,0.5" style="fill:rgb(0,0,0);font-family:TimesNewRomanPSMT;font-size:11.04px;stroke:none;">for wind and so</text>
  </g>
  <g begin="text">
   <text y="704.62" x="439.42,442.533,447.435,451.056,453.816,454.766,459.667,465.088,469.99,473.721,479.241,484.64,487.4,490.15999999999997,491.109,496.011,501.432,506.952,509.712,510.661,514.26,519.78,523.379" svgx:width="0.28,0.44,0.33,0.25,0.55,0.44,0.5,0.44,0.33,0.5,0.5,0.25,0.25,0.55,0.44,0.5,0.5,0.25,0.55,0.33,0.5,0.33,0.25" style="fill:rgb(0,0,0);font-family:TimesNewRomanPSMT;font-size:11.04px;stroke:none;">lar energy, and for </text>
  </g>
  <g begin="text">
   <text y="704.62" x="48.0" svgx:width="0.5" style="fill:rgb(0,0,0);font-family:TimesNewRomanPSMT;font-size:12.0px;stroke:none;">7</text>
  </g>
  <g begin="text">
   <text y="704.62" x="54.024" svgx:width="0.25" style="fill:rgb(0,0,0);font-family:TimesNewRomanPSMT;font-size:12.0px;stroke:none;"> </text>
  </g>
  <g begin="text">
   <text y="717.24" x="72.024,77.544,83.064,88.584,92.293,97.813,103.333,108.853,116.659,121.56,125.292,127.456,132.976,138.374,143.276,145.451,148.454,153.974,156.138,159.141,164.042,169.562" svgx:width="0.5,0.5,0.5,0.33,0.5,0.5,0.5,0.72,0.44,0.33,0.25,0.5,0.5,0.44,0.25,0.28,0.5,0.25,0.28,0.44,0.5,0.5" style="fill:rgb(0,0,0);font-family:TimesNewRomanPSMT;font-size:11.04px;stroke:none;">hydropower due to land</text>
  </g>
  <g begin="text">
   <text y="717.24" x="175.13" svgx:width="0.33" style="fill:rgb(0,0,0);font-family:TimesNewRomanPSMT;font-size:11.04px;stroke:none;">-</text>
  </g>
  <g begin="text">
   <text y="717.24" x="178.73,184.25,188.545,193.369,195.533,200.435,205.955,211.475,215.096,218.209,221.212,226.114,229.238,233.433,235.597,240.499,246.019,251.539,253.592,257.302,260.305,264.599,270.119,274.944,278.653,284.173,286.337,291.857,296.659,305.293,310.194,315.615,320.517,323.277,325.452,333.367,337.077,340.676,344.97,350.49,356.01,359.631,364.533,366.708,374.624,377.737,383.257,388.656,390.82,395.721,401.241,406.662,409.775,415.295,417.459,422.261,425.375,429.669,435.189,437.254,442.774,447.676,453.195,458.119,460.283,465.803,471.202,474.315,479.835,481.999,486.194,491.714,497.234,502.036,505.746,511.266,514.269,519.071,523.266" svgx:width="0.5,0.39,0.44,0.25,0.44,0.5,0.5,0.33,0.28,0.28,0.44,0.28,0.39,0.25,0.44,0.5,0.5,0.25,0.33,0.28,0.39,0.5,0.44,0.33,0.5,0.25,0.5,0.44,0.78,0.44,0.5,0.44,0.25,0.25,0.72,0.33,0.33,0.39,0.5,0.5,0.33,0.44,0.25,0.72,0.28,0.5,0.5,0.25,0.44,0.5,0.5,0.28,0.5,0.25,0.44,0.28,0.39,0.5,0.25,0.5,0.44,0.5,0.44,0.25,0.5,0.5,0.28,0.5,0.25,0.39,0.5,0.5,0.44,0.33,0.5,0.28,0.44,0.39,0.25" style="fill:rgb(0,0,0);font-family:TimesNewRomanPSMT;font-size:11.04px;stroke:none;">use conflicts and fishery damage. Offshore wind could also have both synergies </text>
  </g>
  <g begin="text">
   <text y="717.24" x="48.0" svgx:width="0.5" style="fill:rgb(0,0,0);font-family:TimesNewRomanPSMT;font-size:12.0px;stroke:none;">8</text>
  </g>
  <g begin="text">
   <text y="717.24" x="54.024" svgx:width="0.25" style="fill:rgb(0,0,0);font-family:TimesNewRomanPSMT;font-size:12.0px;stroke:none;"> </text>
  </g>
  <g begin="text">
   <text y="729.96" x="72.024,76.926,82.446,87.966" svgx:width="0.44,0.5,0.5,0.25" style="fill:rgb(0,0,0);font-family:TimesNewRomanPSMT;font-size:11.04px;stroke:none;">and </text>
  </g>
  <g begin="text">
   <text y="729.96" x="91.464,94.577,98.176,103.078,108.598" svgx:width="0.28,0.33,0.44,0.5,0.44" style="fill:rgb(0,0,0);font-family:TimesNewRomanPSMT;font-size:11.04px;stroke:none;">trade</text>
  </g>
  <g begin="text">
   <text y="729.96" x="113.54" svgx:width="0.33" style="fill:rgb(0,0,0);font-family:TimesNewRomanPSMT;font-size:11.04px;stroke:none;">-</text>
  </g>
  <g begin="text">
   <text y="729.96" x="117.14,122.66,126.259" svgx:width="0.5,0.33,0.33" style="fill:rgb(0,0,0);font-family:TimesNewRomanPSMT;font-size:11.04px;stroke:none;">off</text>
  </g>
  <g begin="text">
   <text y="729.96" x="129.98,134.275,137.774,145.69,148.803,151.806,157.326,160.793,166.931,174.836,182.751,186.218,191.738,197.258" svgx:width="0.39,0.25,0.72,0.28,0.28,0.5,0.25,0.56,0.72,0.72,0.25,0.5,0.5,0.25" style="fill:rgb(0,0,0);font-family:TimesNewRomanPSMT;font-size:11.04px;stroke:none;">s with SDG 14 </text>
  </g>
  <g begin="text">
   <text y="729.96" x="200.81" svgx:width="0.33" style="fill:rgb(0,0,0);font-family:TimesNewRomanPSMT;font-size:11.04px;stroke:none;">‘</text>
  </g>
  <g begin="text">
   <text y="729.96" x="204.53,207.643,210.646,214.356,219.257,222.746,228.266,233.068,236.182,241.702,249.617,253.084,261.0,265.901,269.026,273.828" svgx:width="0.28,0.28,0.33,0.44,0.25,0.5,0.44,0.28,0.5,0.72,0.25,0.72,0.44,0.28,0.44,0.33" style="fill:rgb(0,0,0);font-family:TimesNewRomanPSMT;font-size:11.04px;stroke:none;">life below water</text>
  </g>
  <g begin="text">
   <text y="729.96" x="277.61" svgx:width="0.33" style="fill:rgb(0,0,0);font-family:TimesNewRomanPSMT;font-size:11.04px;stroke:none;">’</text>
  </g>
  <g begin="text">
   <text y="729.96" x="281.33" svgx:width="0.25" style="fill:rgb(0,0,0);font-family:TimesNewRomanPSMT;font-size:11.04px;stroke:none;"> </text>
  </g>
  <g begin="text">
   <text y="729.96" x="284.83,290.35,295.152,300.672,305.574,310.995,316.515,321.417,326.937,330.061,333.527,339.047,344.567,348.034,352.329,357.153,362.055,365.069,369.97,373.459,378.361,383.881,389.401,392.889,395.892,404.526,410.046,413.049,417.95,426.484,431.287,436.807,439.92,444.722,447.836,450.949,456.469,461.989,465.455,469.651,472.764,475.767,480.669,483.429,486.917,491.819,497.339,502.859,506.348,509.35,512.464,515.93,519.044,523.239" svgx:width="0.5,0.44,0.5,0.44,0.5,0.5,0.44,0.5,0.28,0.25,0.5,0.5,0.25,0.39,0.44,0.44,0.28,0.44,0.25,0.44,0.5,0.5,0.25,0.28,0.78,0.5,0.28,0.44,0.78,0.44,0.5,0.28,0.44,0.28,0.28,0.5,0.5,0.25,0.39,0.28,0.28,0.44,0.25,0.25,0.44,0.5,0.5,0.25,0.28,0.28,0.25,0.28,0.39,0.25" style="fill:rgb(0,0,0);font-family:TimesNewRomanPSMT;font-size:11.04px;stroke:none;">dependent on scale and implementation site, and it is </text>
  </g>
  <g begin="text">
   <text y="729.96" x="48.0" svgx:width="0.5" style="fill:rgb(0,0,0);font-family:TimesNewRomanPSMT;font-size:12.0px;stroke:none;">9</text>
  </g>
  <g begin="text">
   <text y="729.96" x="54.024" svgx:width="0.25" style="fill:rgb(0,0,0);font-family:TimesNewRomanPSMT;font-size:12.0px;stroke:none;"> </text>
  </g>
  <g begin="text">
   <text y="742.56" x="72.024,76.926,85.57,91.09,96.489,101.39,105.718,108.721,113.623,118.547,124.067,126.23,129.344,134.864,139.666,142.779,144.943,148.056,152.958,158.478" svgx:width="0.44,0.78,0.5,0.5,0.44,0.39,0.28,0.44,0.44,0.5,0.25,0.28,0.5,0.44,0.28,0.25,0.28,0.44,0.5,0.5" style="fill:rgb(0,0,0);font-family:TimesNewRomanPSMT;font-size:11.04px;stroke:none;">emphasized that land</text>
  </g>
  <g begin="text">
   <text y="742.56" x="164.06" svgx:width="0.33" style="fill:rgb(0,0,0);font-family:TimesNewRomanPSMT;font-size:11.04px;stroke:none;">-</text>
  </g>
  <g begin="text">
   <text y="742.56" x="167.66,173.18,177.475,182.299,184.584,188.879,194.299,199.819,205.339,208.453,213.973,216.258,221.657" svgx:width="0.5,0.39,0.44,0.25,0.39,0.5,0.5,0.5,0.28,0.5,0.25,0.5,0.44" style="fill:rgb(0,0,0);font-family:TimesNewRomanPSMT;font-size:11.04px;stroke:none;">use should be</text>
  </g>
  <g begin="text">
   <text y="742.56" x="226.61" svgx:width="0.25" style="fill:rgb(0,0,0);font-family:TimesNewRomanPSMT;font-size:11.04px;stroke:none;"> </text>
  </g>
  <g begin="text">
   <text y="742.56" x="228.89,233.792,239.312,244.732,248.442,253.84,256.954,262.474,267.276,270.389,275.291,280.811,283.107,291.023,294.026,297.139,302.659,304.945,310.343,313.346,318.866,324.386,327.499,333.019,337.822,341.531,345.726,348.84,351.953,357.473,359.637,364.538,370.058,375.578,380.392,385.294,389.025,394.424,398.718,401.478,403.786,411.105,416.625,419.628,425.148,427.433,435.239,438.352,443.872,449.392,451.677,456.579,462.0,467.52,469.805,474.099,479.52,482.633,487.436,491.145,493.43,498.332,503.852,508.666,512.375,517.895,523.294" svgx:width="0.44,0.5,0.5,0.33,0.5,0.28,0.5,0.44,0.28,0.44,0.5,0.25,0.72,0.28,0.28,0.5,0.25,0.5,0.28,0.5,0.5,0.28,0.5,0.44,0.33,0.39,0.28,0.28,0.5,0.25,0.44,0.5,0.5,0.44,0.44,0.33,0.5,0.39,0.25,0.25,0.67,0.5,0.28,0.5,0.25,0.72,0.28,0.5,0.5,0.25,0.44,0.5,0.5,0.25,0.39,0.5,0.28,0.44,0.33,0.25,0.44,0.5,0.44,0.33,0.5,0.5,0.25" style="fill:rgb(0,0,0);font-family:TimesNewRomanPSMT;font-size:11.04px;stroke:none;">coordinated with biodiversity concerns. Both wind and solar energy </text>
  </g>
  <g begin="text">
   <text y="742.56" x="42.0,48.0" svgx:width="0.5,0.5" style="fill:rgb(0,0,0);font-family:TimesNewRomanPSMT;font-size:12.0px;stroke:none;">10</text>
  </g>
  <g begin="text">
   <text y="742.56" x="54.024" svgx:width="0.25" style="fill:rgb(0,0,0);font-family:TimesNewRomanPSMT;font-size:12.0px;stroke:none;"> </text>
  </g>
  <rect style="fill:pink;opacity:0.2;stroke:blue;stroke-width:0.3;" x="72.0" y="30.08" height="562.47" width="461.2" title="52"/>
  <text y="30.08" class="image" id="image.52.1" width="461" height="562" x="72.0" style="font-size:5.0px;">image.52.1.72_533.30_593</text>
  <g begin="text">
   <text y="602.109" transform="matrix(0.70711,-0.70711,0.70711,0.70711,-395.12956,250.29085)" rotateDegrees="-45" matrix="[29.803345,29.803345,-29.803345,29.803345,104.563255,239.8115]" x="104.563" svgx:width="0.67" style="fill:rgb(0,0,0);font-family:Arial;font-size:42.15px;stroke:none;">A</text>
   <text y="582.23" transform="matrix(0.70711,-0.70711,0.70711,0.70711,-375.25056,258.525)" rotateDegrees="-45" matrix="[29.803345,29.803345,-29.803345,29.803345,124.442085,259.6903]" x="124.442" svgx:width="0.72" style="fill:rgb(0,0,0);font-family:Arial;font-size:42.15px;stroke:none;">C</text>
   <text y="560.712" transform="matrix(0.70711,-0.70711,0.70711,0.70711,-353.73256,267.43805)" rotateDegrees="-45" matrix="[29.803345,29.803345,-29.803345,29.803345,145.9601,281.20834]" x="145.96" svgx:width="0.72" style="fill:rgb(0,0,0);font-family:Arial;font-size:42.15px;stroke:none;">C</text>
   <text y="539.194" transform="matrix(0.70711,-0.70711,0.70711,0.70711,-332.21456,276.3511)" rotateDegrees="-45" matrix="[29.803345,29.803345,-29.803345,29.803345,167.47812,302.72635]" x="167.478" svgx:width="0.67" style="fill:rgb(0,0,0);font-family:Arial;font-size:42.15px;stroke:none;">E</text>
   <text y="519.315" transform="matrix(0.70711,-0.70711,0.70711,0.70711,-312.33556,284.58525)" rotateDegrees="-45" matrix="[29.803345,29.803345,-29.803345,29.803345,187.35693,322.60516]" x="187.357" svgx:width="0.67" style="fill:rgb(0,0,0);font-family:Arial;font-size:42.15px;stroke:none;">P</text>
   <text y="499.436" transform="matrix(0.70711,-0.70711,0.70711,0.70711,-292.45656,292.8194)" rotateDegrees="-45" matrix="[29.803345,29.803345,-29.803345,29.803345,207.23578,342.484]" x="207.236" svgx:width="0.61" style="fill:rgb(0,0,0);font-family:Arial;font-size:42.15px;stroke:none;">T</text>
   <text y="481.226" transform="matrix(0.70711,-0.70711,0.70711,0.70711,-274.24656,300.36223)" rotateDegrees="-45" matrix="[29.803345,29.803345,-29.803345,29.803345,225.44562,360.69385]" x="225.446" svgx:width="0.67" style="fill:rgb(0,0,0);font-family:Arial;font-size:42.15px;stroke:none;">E</text>
   <text y="461.347" transform="matrix(0.70711,-0.70711,0.70711,0.70711,-254.36786,308.59567)" rotateDegrees="-45" matrix="[29.803345,29.803345,-29.803345,29.803345,245.32443,380.57266]" x="245.324" svgx:width="0.72" style="fill:rgb(0,0,0);font-family:Arial;font-size:42.15px;stroke:none;">D</text>
   <text y="439.829" transform="matrix(0.70711,-0.70711,0.70711,0.70711,-232.84986,317.50872)" rotateDegrees="-45" matrix="[29.803345,29.803345,-29.803345,29.803345,266.84247,402.0907]" x="266.842" svgx:width="0.28" style="fill:rgb(0,0,0);font-family:Arial;font-size:42.15px;stroke:none;"> </text>
   <text y="431.54" transform="matrix(0.70711,-0.70711,0.70711,0.70711,-224.56056,320.94284)" rotateDegrees="-45" matrix="[29.803345,29.803345,-29.803345,29.803345,275.13153,410.37976]" x="275.132" svgx:width="0.67" style="fill:rgb(0,0,0);font-family:Arial;font-size:42.15px;stroke:none;">V</text>
   <text y="411.661" transform="matrix(0.70711,-0.70711,0.70711,0.70711,-204.68186,329.17629)" rotateDegrees="-45" matrix="[29.803345,29.803345,-29.803345,29.803345,295.0103,430.25858]" x="295.01" svgx:width="0.67" style="fill:rgb(0,0,0);font-family:Arial;font-size:42.15px;stroke:none;">E</text>
   <text y="391.783" transform="matrix(0.70711,-0.70711,0.70711,0.70711,-184.80356,337.41073)" rotateDegrees="-45" matrix="[29.803345,29.803345,-29.803345,29.803345,314.88916,450.1374]" x="314.889" svgx:width="0.72" style="fill:rgb(0,0,0);font-family:Arial;font-size:42.15px;stroke:none;">R</text>
   <text y="370.265" transform="matrix(0.70711,-0.70711,0.70711,0.70711,-163.28556,346.32378)" rotateDegrees="-45" matrix="[29.803345,29.803345,-29.803345,29.803345,336.40717,471.65543]" x="336.407" svgx:width="0.67" style="fill:rgb(0,0,0);font-family:Arial;font-size:42.15px;stroke:none;">S</text>
   <text y="350.386" transform="matrix(0.70711,-0.70711,0.70711,0.70711,-143.40656,354.55793)" rotateDegrees="-45" matrix="[29.803345,29.803345,-29.803345,29.803345,356.286,491.53424]" x="356.286" svgx:width="0.28" style="fill:rgb(0,0,0);font-family:Arial;font-size:42.15px;stroke:none;">I</text>
   <text y="342.1" transform="matrix(0.70711,-0.70711,0.70711,0.70711,-135.12086,357.9894)" rotateDegrees="-45" matrix="[29.803345,29.803345,-29.803345,29.803345,364.57135,499.81958]" x="364.571" svgx:width="0.78" style="fill:rgb(0,0,0);font-family:Arial;font-size:42.15px;stroke:none;">O</text>
   <text y="318.913" transform="matrix(0.70711,-0.70711,0.70711,0.70711,-111.93386,367.59377)" rotateDegrees="-45" matrix="[29.803345,29.803345,-29.803345,29.803345,387.7583,523.0066]" x="387.758" svgx:width="0.72" style="fill:rgb(0,0,0);font-family:Arial;font-size:42.15px;stroke:none;">N</text>
   <text y="297.395" transform="matrix(0.70711,-0.70711,0.70711,0.70711,-90.41586,376.50681)" rotateDegrees="-45" matrix="[29.803345,29.803345,-29.803345,29.803345,409.27637,544.5246]" x="409.276" svgx:width="0.28" style="fill:rgb(0,0,0);font-family:Arial;font-size:42.15px;stroke:none;"> </text>
   <text y="637.872" transform="matrix(0.70711,-0.70711,0.70711,0.70711,-409.94279,286.05456)" rotateDegrees="-45" matrix="[29.803345,29.803345,-29.803345,29.803345,140.32727,204.04747]" x="140.327" svgx:width="0.67" style="fill:rgb(0,0,0);font-family:Arial;font-size:42.15px;stroke:none;">S</text>
   <text y="617.994" transform="matrix(0.70711,-0.70711,0.70711,0.70711,-390.0645,294.289)" rotateDegrees="-45" matrix="[29.803345,29.803345,-29.803345,29.803345,160.2061,223.9263]" x="160.206" svgx:width="0.72" style="fill:rgb(0,0,0);font-family:Arial;font-size:42.15px;stroke:none;">U</text>
   <text y="596.476" transform="matrix(0.70711,-0.70711,0.70711,0.70711,-368.5465,303.20205)" rotateDegrees="-45" matrix="[29.803345,29.803345,-29.803345,29.803345,181.72412,245.4443]" x="181.724" svgx:width="0.67" style="fill:rgb(0,0,0);font-family:Arial;font-size:42.15px;stroke:none;">B</text>
   <text y="576.597" transform="matrix(0.70711,-0.70711,0.70711,0.70711,-348.6675,311.4362)" rotateDegrees="-45" matrix="[29.803345,29.803345,-29.803345,29.803345,201.60294,265.32315]" x="201.603" svgx:width="0.5" style="fill:rgb(0,0,0);font-family:Arial;font-size:42.15px;stroke:none;">J</text>
   <text y="561.695" transform="matrix(0.70711,-0.70711,0.70711,0.70711,-333.7655,317.60881)" rotateDegrees="-45" matrix="[29.803345,29.803345,-29.803345,29.803345,216.50462,280.22482]" x="216.505" svgx:width="0.67" style="fill:rgb(0,0,0);font-family:Arial;font-size:42.15px;stroke:none;">E</text>
   <text y="541.816" transform="matrix(0.70711,-0.70711,0.70711,0.70711,-313.88679,325.84225)" rotateDegrees="-45" matrix="[29.803345,29.803345,-29.803345,29.803345,236.38344,300.10364]" x="236.383" svgx:width="0.72" style="fill:rgb(0,0,0);font-family:Arial;font-size:42.15px;stroke:none;">C</text>
   <text y="520.298" transform="matrix(0.70711,-0.70711,0.70711,0.70711,-292.36879,334.7553)" rotateDegrees="-45" matrix="[29.803345,29.803345,-29.803345,29.803345,257.90146,321.62164]" x="257.901" svgx:width="0.61" style="fill:rgb(0,0,0);font-family:Arial;font-size:42.15px;stroke:none;">T</text>
   <text y="502.089" transform="matrix(0.70711,-0.70711,0.70711,0.70711,-274.1595,342.29842)" rotateDegrees="-45" matrix="[29.803345,29.803345,-29.803345,29.803345,276.1113,339.83148]" x="276.111" svgx:width="0.28" style="fill:rgb(0,0,0);font-family:Arial;font-size:42.15px;stroke:none;"> </text>
   <text y="493.803" transform="matrix(0.70711,-0.70711,0.70711,0.70711,-265.8735,345.7306)" rotateDegrees="-45" matrix="[29.803345,29.803345,-29.803345,29.803345,284.39664,348.11682]" x="284.397" svgx:width="0.61" style="fill:rgb(0,0,0);font-family:Arial;font-size:42.15px;stroke:none;">T</text>
   <text y="475.593" transform="matrix(0.70711,-0.70711,0.70711,0.70711,-247.66379,353.27272)" rotateDegrees="-45" matrix="[29.803345,29.803345,-29.803345,29.803345,302.60648,366.32666]" x="302.606" svgx:width="0.78" style="fill:rgb(0,0,0);font-family:Arial;font-size:42.15px;stroke:none;">O</text>
   <text y="452.406" transform="matrix(0.70711,-0.70711,0.70711,0.70711,-224.47679,362.87709)" rotateDegrees="-45" matrix="[29.803345,29.803345,-29.803345,29.803345,325.79346,389.51367]" x="325.793" svgx:width="0.28" style="fill:rgb(0,0,0);font-family:Arial;font-size:42.15px;stroke:none;"> </text>
   <text y="444.136" transform="matrix(0.70711,-0.70711,0.70711,0.70711,-216.2065,366.30334)" rotateDegrees="-45" matrix="[29.803345,29.803345,-29.803345,29.803345,334.0639,397.78412]" x="334.064" svgx:width="0.61" style="fill:rgb(0,0,0);font-family:Arial;font-size:42.15px;stroke:none;">F</text>
   <text y="425.926" transform="matrix(0.70711,-0.70711,0.70711,0.70711,-197.9965,373.84617)" rotateDegrees="-45" matrix="[29.803345,29.803345,-29.803345,29.803345,352.27374,415.99396]" x="352.274" svgx:width="0.28" style="fill:rgb(0,0,0);font-family:Arial;font-size:42.15px;stroke:none;">I</text>
   <text y="417.641" transform="matrix(0.70711,-0.70711,0.70711,0.70711,-189.7115,377.27793)" rotateDegrees="-45" matrix="[29.803345,29.803345,-29.803345,29.803345,360.55908,424.2793]" x="360.559" svgx:width="0.72" style="fill:rgb(0,0,0);font-family:Arial;font-size:42.15px;stroke:none;">N</text>
   <text y="396.123" transform="matrix(0.70711,-0.70711,0.70711,0.70711,-168.1935,386.19098)" rotateDegrees="-45" matrix="[29.803345,29.803345,-29.803345,29.803345,382.0771,445.7973]" x="382.077" svgx:width="0.67" style="fill:rgb(0,0,0);font-family:Arial;font-size:42.15px;stroke:none;">A</text>
   <text y="376.244" transform="matrix(0.70711,-0.70711,0.70711,0.70711,-148.3145,394.42513)" rotateDegrees="-45" matrix="[29.803345,29.803345,-29.803345,29.803345,401.95593,465.67615]" x="401.956" svgx:width="0.56" style="fill:rgb(0,0,0);font-family:Arial;font-size:42.15px;stroke:none;">L</text>
   <text y="359.673" transform="matrix(0.70711,-0.70711,0.70711,0.70711,-131.7435,401.28906)" rotateDegrees="-45" matrix="[29.803345,29.803345,-29.803345,29.803345,418.5266,482.24677]" x="418.527" svgx:width="0.28" style="fill:rgb(0,0,0);font-family:Arial;font-size:42.15px;stroke:none;"> </text>
   <text y="351.394" transform="matrix(0.70711,-0.70711,0.70711,0.70711,-123.4645,404.71834)" rotateDegrees="-45" matrix="[29.803345,29.803345,-29.803345,29.803345,426.80573,490.52588]" x="426.806" svgx:width="0.67" style="fill:rgb(0,0,0);font-family:Arial;font-size:42.15px;stroke:none;">E</text>
   <text y="331.515" transform="matrix(0.70711,-0.70711,0.70711,0.70711,-103.5855,412.95249)" rotateDegrees="-45" matrix="[29.803345,29.803345,-29.803345,29.803345,446.68457,510.40472]" x="446.685" svgx:width="0.72" style="fill:rgb(0,0,0);font-family:Arial;font-size:42.15px;stroke:none;">D</text>
   <text y="309.997" transform="matrix(0.70711,-0.70711,0.70711,0.70711,-82.0675,421.86554)" rotateDegrees="-45" matrix="[29.803345,29.803345,-29.803345,29.803345,468.2025,531.9227]" x="468.203" svgx:width="0.28" style="fill:rgb(0,0,0);font-family:Arial;font-size:42.15px;stroke:none;">I</text>
   <text y="301.712" transform="matrix(0.70711,-0.70711,0.70711,0.70711,-73.7825,425.29729)" rotateDegrees="-45" matrix="[29.803345,29.803345,-29.803345,29.803345,476.48785,540.20807]" x="476.488" svgx:width="0.61" style="fill:rgb(0,0,0);font-family:Arial;font-size:42.15px;stroke:none;">T</text>
   <text y="283.502" transform="matrix(0.70711,-0.70711,0.70711,0.70711,-55.5725,432.84012)" rotateDegrees="-45" matrix="[29.803345,29.803345,-29.803345,29.803345,494.6977,558.4179]" x="494.698" svgx:width="0.67" style="fill:rgb(0,0,0);font-family:Arial;font-size:42.15px;stroke:none;">S</text>
  </g>
 </g>
</svg>
