<?xml version="1.0" encoding="UTF-8"?>
<svg height="814.0" width="536.44" xmlns="http://www.w3.org/2000/svg">
 <g id="page" xmlns:svgx="http://www.xml-cml.org/schema/svgx">
  <g begin="text">
   <text y="46.56" x="72.024,78.624,81.96,87.96,93.288,96.624,99.624,108.288,114.288,120.288,125.652,129.648,135.648,144.984,150.252,156.252,159.588,162.588,171.252,174.588,179.28,182.616,186.612,189.948,195.948,201.948,205.308,208.644,214.644" svgx:width="0.56,0.28,0.5,0.44,0.28,0.25,0.72,0.5,0.5,0.44,0.33,0.5,0.78,0.44,0.5,0.28,0.25,0.72,0.28,0.39,0.28,0.33,0.28,0.5,0.5,0.28,0.28,0.5,0.5" style="fill:rgb(0,0,0);font-family:TimesNewRomanPSMT;font-size:12.0px;stroke:none;">Final Government Distribution</text>
  </g>
  <g begin="text">
   <text y="46.56" x="220.73" svgx:width="0.25" style="fill:rgb(0,0,0);font-family:TimesNewRomanPSMT;font-size:12.0px;stroke:none;"> </text>
  </g>
  <g begin="text">
   <text y="46.56" x="223.73" svgx:width="0.25" style="fill:rgb(0,0,0);font-family:TimesNewRomanPSMT;font-size:12.0px;stroke:none;"> </text>
  </g>
  <g begin="text">
   <text y="46.56" x="256.13,259.13,262.13,265.13,268.13,271.13,274.13,277.13,280.13,283.13" svgx:width="0.25,0.25,0.25,0.25,0.25,0.25,0.25,0.25,0.25,0.25" style="fill:rgb(0,0,0);font-family:TimesNewRomanPSMT;font-size:12.0px;stroke:none;"> </text>
  </g>
  <g begin="text">
   <text y="46.56" x="286.15,294.178,300.178,305.458,311.458,314.794,320.122,324.058,327.058,333.058" svgx:width="0.67,0.5,0.44,0.5,0.28,0.44,0.33,0.25,0.5,0.5" style="fill:rgb(0,0,0);font-family:TimesNewRomanPSMT;font-size:12.0px;stroke:none;">Chapter 17</text>
  </g>
  <g begin="text">
   <text y="46.56" x="339.19" svgx:width="0.25" style="fill:rgb(0,0,0);font-family:TimesNewRomanPSMT;font-size:12.0px;stroke:none;"> </text>
  </g>
  <g begin="text">
   <text y="46.56" x="436.06,439.9,446.608,454.636,462.664" svgx:width="0.33,0.56,0.67,0.67,0.25" style="fill:rgb(0,0,0);font-family:TimesNewRomanPSMT;font-size:12.0px;stroke:none;">IPCC </text>
  </g>
  <g begin="text">
   <text y="46.56" x="465.7,474.364,482.368,488.368,491.368,502.66,511.408,515.404,519.328" svgx:width="0.72,0.67,0.5,0.25,0.94,0.72,0.33,0.33,0.33" style="fill:rgb(0,0,0);font-family:TimesNewRomanPSMT;font-size:12.0px;stroke:none;">AR6 WGIII</text>
  </g>
  <g begin="text">
   <text y="46.56" x="523.44" svgx:width="0.25" style="fill:rgb(0,0,0);font-family:TimesNewRomanPSMT;font-size:12.0px;stroke:none;"> </text>
  </g>
  <g begin="text">
   <text y="804.0" x="72.024,80.688,86.688,89.688,98.304,104.304,108.3,111.3,119.904,123.24,127.236,132.504,135.504,138.504,147.84,154.572,160.572,164.64,169.92,172.92,178.92,184.2,187.308,195.972,199.308,203.976,207.972,213.228,216.564,223.296,230.004,234.0" svgx:width="0.72,0.5,0.25,0.72,0.5,0.33,0.25,0.72,0.28,0.33,0.44,0.25,0.25,0.78,0.56,0.5,0.33,0.44,0.25,0.5,0.44,0.25,0.72,0.28,0.39,0.33,0.44,0.28,0.56,0.56,0.33,0.44" style="fill:rgb(0,0,0);font-family:TimesNewRomanPS-BoldMT;font-size:12.0px;stroke:none;">Do Not Cite, Quote or Distribute</text>
  </g>
  <g begin="text">
   <text y="804.0" x="239.33" svgx:width="0.25" style="fill:rgb(0,0,0);font-family:TimesNewRomanPS-BoldMT;font-size:12.0px;stroke:none;"> </text>
  </g>
  <g begin="text">
   <text y="804.0" x="283.75,289.75" svgx:width="0.5,0.5" style="fill:rgb(0,0,0);font-family:TimesNewRomanPSMT;font-size:12.0px;stroke:none;">17</text>
  </g>
  <g begin="text">
   <text y="804.0" x="295.75" svgx:width="0.33" style="fill:rgb(0,0,0);font-family:TimesNewRomanPSMT;font-size:12.0px;stroke:none;">-</text>
  </g>
  <g begin="text">
   <text y="804.0" x="299.71,305.71" svgx:width="0.5,0.5" style="fill:rgb(0,0,0);font-family:TimesNewRomanPSMT;font-size:12.0px;stroke:none;">99</text>
  </g>
  <g begin="text">
   <text y="804.0" x="311.71" svgx:width="0.25" style="fill:rgb(0,0,0);font-family:TimesNewRomanPSMT;font-size:12.0px;stroke:none;"> </text>
  </g>
  <g begin="text">
   <text y="804.0" x="314.71" svgx:width="0.25" style="fill:rgb(0,0,0);font-family:TimesNewRomanPSMT;font-size:12.0px;stroke:none;"> </text>
  </g>
  <g begin="text">
   <text y="804.0" x="449.38,456.712,462.712,466.048,471.34,474.676,477.676,483.676,489.004,495.004,500.26,504.928,508.264" svgx:width="0.61,0.5,0.28,0.44,0.28,0.25,0.5,0.44,0.5,0.44,0.39,0.28,0.25" style="fill:rgb(0,0,0);font-family:TimesNewRomanPSMT;font-size:12.0px;stroke:none;">Total pages: </text>
  </g>
  <g begin="text">
   <text y="804.0" x="511.32,517.32" svgx:width="0.5,0.5" style="fill:rgb(0,0,0);font-family:TimesNewRomanPSMT;font-size:12.0px;stroke:none;">99</text>
  </g>
  <g begin="text">
   <text y="804.0" x="523.44" svgx:width="0.25" style="fill:rgb(0,0,0);font-family:TimesNewRomanPSMT;font-size:9.96px;stroke:none;"> </text>
  </g>
  <g begin="text">
   <text y="82.22" x="96.024,101.544,107.064,110.177,113.18,118.7,124.22,126.98,132.5,138.02,143.54,148.939,151.942,155.055,157.815,162.717,168.237,173.05,178.57,183.472,187.203,192.602,198.122,200.882,206.402,211.922,217.321,222.841,225.601,231.121,236.641,239.401,244.921,250.441,255.961" svgx:width="0.5,0.5,0.28,0.28,0.5,0.5,0.25,0.5,0.5,0.5,0.5,0.28,0.28,0.25,0.44,0.5,0.44,0.5,0.44,0.33,0.5,0.5,0.25,0.5,0.5,0.5,0.5,0.25,0.5,0.5,0.25,0.5,0.5,0.5,0.25" style="fill:rgb(0,0,0);font-family:TimesNewRomanPSMT;font-size:11.04px;stroke:none;">doi:10.1016/j.apenergy.2017.07.036.</text>
  </g>
  <g begin="text">
   <text y="82.22" x="258.65" svgx:width="0.25" style="fill:rgb(0,0,0);font-family:TimesNewRomanPSMT;font-size:11.04px;stroke:none;"> </text>
  </g>
  <g begin="text">
   <text y="82.22" x="48.0" svgx:width="0.5" style="fill:rgb(0,0,0);font-family:TimesNewRomanPSMT;font-size:12.0px;stroke:none;">1</text>
  </g>
  <g begin="text">
   <text y="82.22" x="54.024" svgx:width="0.25" style="fill:rgb(0,0,0);font-family:TimesNewRomanPSMT;font-size:12.0px;stroke:none;"> </text>
  </g>
  <g begin="text">
   <text y="94.82" x="72.024,78.769,84.289,89.191,94.711,100.231,102.991,105.751,106.69,114.009,116.769,119.52900000000001,120.479,125.38,128.505,131.265,132.214,137.116,140.24,143.0,145.76,148.51999999999998,149.47,154.99,160.388,165.908,171.428,174.541,177.301,178.251,186.167,188.927,189.876,197.196,202.097,207.617,210.742,215.643,223.614,226.374,227.291,232.811,236.52,239.28,240.229,243.343,248.741,253.643,256.403,257.375,264.694,270.214,273.327,278.229,280.989,281.961,287.481,291.19,293.95,294.778,297.891,303.411,308.313,311.073,311.923,319.839,322.952,326.065,330.967,336.388,339.501,342.504,347.406,350.166,351.137,360.952,365.776,369.486,372.599,377.998,381.111,386.631,392.151,396.953,400.067,402.827,403.776,411.692,417.212,422.113,425.735,428.848,434.246,437.956,443.476,446.589,452.109,457.629,460.389,461.339,468.658,471.661,475.37,480.272,485.693,488.806,493.609,496.722,499.835,505.234,510.754,513.514,514.463,517.576,522.975" svgx:width="0.61,0.5,0.44,0.5,0.5,0.25,0.25,0.55,0.67,0.25,0.25,0.55,0.44,0.28,0.25,0.55,0.44,0.28,0.25,0.25,0.25,0.55,0.5,0.5,0.5,0.5,0.28,0.25,0.55,0.72,0.25,0.55,0.67,0.44,0.5,0.28,0.44,0.72,0.25,0.55,0.5,0.33,0.25,0.55,0.28,0.5,0.44,0.25,0.55,0.67,0.5,0.28,0.44,0.25,0.55,0.5,0.33,0.25,0.55,0.28,0.5,0.44,0.25,0.55,0.72,0.28,0.28,0.44,0.5,0.28,0.28,0.44,0.25,0.55,0.89,0.44,0.33,0.28,0.5,0.28,0.5,0.5,0.44,0.28,0.25,0.55,0.72,0.5,0.44,0.33,0.28,0.5,0.33,0.5,0.28,0.5,0.5,0.25,0.55,0.67,0.28,0.33,0.44,0.5,0.28,0.44,0.28,0.28,0.5,0.5,0.25,0.55,0.28,0.5,0.25" style="fill:rgb(0,0,0);font-family:TimesNewRomanPSMT;font-size:11.04px;stroke:none;">Zhang, R. et al., 2019: A Review of the Role of the Atlantic Meridional Overturning Circulation in </text>
  </g>
  <g begin="text">
   <text y="94.82" x="48.0" svgx:width="0.5" style="fill:rgb(0,0,0);font-family:TimesNewRomanPSMT;font-size:12.0px;stroke:none;">2</text>
  </g>
  <g begin="text">
   <text y="94.82" x="54.024" svgx:width="0.25" style="fill:rgb(0,0,0);font-family:TimesNewRomanPSMT;font-size:12.0px;stroke:none;"> </text>
  </g>
  <g begin="text">
   <text y="107.54" x="96.024,103.94,107.053,110.166,115.068,120.489,123.602,126.605,131.507,134.267,135.238,145.053,150.573,153.598,156.711,159.714,165.234,170.136,174.949,179.851,185.371,190.184,193.298,196.058,197.128,205.044,209.846,213.556,216.559,221.461,226.981,229.994,233.108,236.111,239.224,244.744,247.504,248.453" svgx:width="0.72,0.28,0.28,0.44,0.5,0.28,0.28,0.44,0.25,0.55,0.89,0.5,0.28,0.28,0.28,0.5,0.44,0.44,0.44,0.5,0.44,0.28,0.25,0.55,0.72,0.44,0.33,0.28,0.44,0.5,0.28,0.28,0.28,0.28,0.5,0.25,0.55,0.44" style="fill:rgb(0,0,0);font-family:TimesNewRomanPSMT;font-size:11.04px;stroke:none;">Atlantic Multidecadal Variability a</text>
  </g>
  <g begin="text">
   <text y="107.54" x="253.49,259.01,264.53,267.28999999999996,268.361,276.277,280.472,284.766,290.286,295.111,298.224,303.026,306.14,311.042,316.462,319.222,320.293,327.613,330.726,333.729,342.362,347.164,350.278,355.179,357.93899999999996,359.021,362.62,371.143,376.663,381.565,386.378,389.492,393.786,396.447" svgx:width="0.5,0.5,0.25,0.55,0.72,0.39,0.39,0.5,0.44,0.28,0.44,0.28,0.44,0.5,0.25,0.55,0.67,0.28,0.28,0.78,0.44,0.28,0.44,0.25,0.55,0.33,0.78,0.5,0.44,0.44,0.28,0.39,0.25,0.25" style="fill:rgb(0,0,0);font-family:TimesNewRomanPSMT;font-size:11.04px;stroke:none;">nd Associated Climate Impacts. </text>
  </g>
  <g begin="text">
   <text y="107.54" x="400.42,407.165,412.067,416.969,419.619,422.379,423.449,431.365,436.267,441.787,447.307,452.728,457.629,461.957" svgx:width="0.61,0.44,0.44,0.25,0.25,0.55,0.72,0.44,0.5,0.5,0.5,0.44,0.39,0.25" style="fill:rgb(0,0,0);font-family:TimesNewRomanPS-ItalicMT;font-size:11.04px;stroke:none;">Rev. Geophys.</text>
  </g>
  <g begin="text">
   <text y="107.54" x="464.74,467.5" svgx:width="0.25,0.25" style="fill:rgb(0,0,0);font-family:TimesNewRomanPSMT;font-size:11.04px;stroke:none;">, </text>
  </g>
  <g begin="text">
   <text y="107.54" x="471.34,476.74" svgx:width="0.5,0.5" style="fill:rgb(0,0,0);font-family:TimesNewRomanPS-BoldMT;font-size:11.04px;stroke:none;">57</text>
  </g>
  <g begin="text">
   <text y="107.54" x="482.26,485.969,491.368,495.077,497.837,500.597,501.668,507.067,512.587" svgx:width="0.33,0.5,0.33,0.25,0.25,0.55,0.5,0.5,0.5" style="fill:rgb(0,0,0);font-family:TimesNewRomanPSMT;font-size:11.04px;stroke:none;">(2), 316</text>
  </g>
  <g begin="text">
   <text y="107.54" x="518.16" svgx:width="0.5" style="fill:rgb(0,0,0);font-family:TimesNewRomanPSMT;font-size:11.04px;stroke:none;">–</text>
  </g>
  <g begin="text">
   <text y="107.54" x="48.0" svgx:width="0.5" style="fill:rgb(0,0,0);font-family:TimesNewRomanPSMT;font-size:12.0px;stroke:none;">3</text>
  </g>
  <g begin="text">
   <text y="107.54" x="54.024" svgx:width="0.25" style="fill:rgb(0,0,0);font-family:TimesNewRomanPSMT;font-size:12.0px;stroke:none;"> </text>
  </g>
  <g begin="text">
   <text y="120.14" x="96.024,101.544,107.064,112.584,115.344,118.104,123.624,129.023,132.136,135.249,140.769,146.289,148.928,154.448,159.968,165.488,170.886,174.0,179.52,185.04,190.56,196.08,203.399,211.315,216.713,222.233,227.753,233.273,238.793,244.313" svgx:width="0.5,0.5,0.5,0.25,0.25,0.5,0.5,0.28,0.28,0.5,0.5,0.25,0.5,0.5,0.5,0.5,0.28,0.5,0.5,0.5,0.5,0.67,0.72,0.5,0.5,0.5,0.5,0.5,0.5,0.25" style="fill:rgb(0,0,0);font-family:TimesNewRomanPSMT;font-size:11.04px;stroke:none;">375, doi:10.1029/2019RG000644.</text>
  </g>
  <g begin="text">
   <text y="120.14" x="247.01" svgx:width="0.25" style="fill:rgb(0,0,0);font-family:TimesNewRomanPSMT;font-size:11.04px;stroke:none;"> </text>
  </g>
  <g begin="text">
   <text y="120.14" x="48.0" svgx:width="0.5" style="fill:rgb(0,0,0);font-family:TimesNewRomanPSMT;font-size:12.0px;stroke:none;">4</text>
  </g>
  <g begin="text">
   <text y="120.14" x="54.024" svgx:width="0.25" style="fill:rgb(0,0,0);font-family:TimesNewRomanPSMT;font-size:12.0px;stroke:none;"> </text>
  </g>
  <g begin="text">
   <text y="132.86" x="72.024,78.769,84.289,89.191,94.711,97.471,100.23100000000001,101.291,109.207,111.967,114.727,117.48700000000001,118.558,124.696,127.456,130.216,131.265,138.01,143.53,148.432,153.952,159.472,162.232,164.992,166.052,173.967,176.727,179.487,180.558,187.304,192.68,198.2,200.96,203.72,204.791,209.693,215.213,220.733,223.493,224.575,228.869,231.629,234.38899999999998,235.482,243.398,248.3,253.82,256.58,259.34,260.422,265.82,271.34,276.86,282.38,285.493,288.253,289.324,296.07,301.59,304.34999999999997,305.399,313.204,318.724,323.626,326.75,329.51,330.581,335.483,340.903,344.016,348.918,354.339,357.452,360.212,361.283,366.803,372.323,377.125,381.42,384.18,385.273,393.189,396.302,401.822,407.342,410.102,411.173,416.571,422.091,430.007,434.809,438.519,441.279,442.35,447.87,452.771,458.192,461.305,466.825,472.224,480.857,485.759,491.18,494.293,497.053,498.124,503.026,506.647,510.356,515.258,520.071,523.074" svgx:width="0.61,0.5,0.44,0.5,0.25,0.25,0.55,0.72,0.25,0.25,0.25,0.55,0.56,0.25,0.25,0.55,0.61,0.5,0.44,0.5,0.5,0.25,0.25,0.55,0.72,0.25,0.25,0.55,0.61,0.5,0.5,0.25,0.25,0.55,0.44,0.5,0.5,0.25,0.55,0.39,0.25,0.25,0.55,0.72,0.44,0.5,0.25,0.25,0.55,0.5,0.5,0.5,0.5,0.28,0.25,0.55,0.61,0.5,0.25,0.55,0.72,0.5,0.44,0.28,0.25,0.55,0.44,0.5,0.28,0.44,0.5,0.28,0.25,0.55,0.5,0.5,0.44,0.39,0.25,0.55,0.72,0.28,0.5,0.5,0.25,0.55,0.5,0.5,0.72,0.44,0.33,0.25,0.55,0.5,0.44,0.5,0.28,0.5,0.5,0.78,0.44,0.5,0.28,0.25,0.55,0.44,0.33,0.33,0.44,0.44,0.28,0.25" style="fill:rgb(0,0,0);font-family:TimesNewRomanPSMT;font-size:11.04px;stroke:none;">Zhao, X., S. Zhang, Y. Zou, and J. Yao, 2013: To what extent does wind power deployment affect </text>
  </g>
  <g begin="text">
   <text y="132.86" x="48.0" svgx:width="0.5" style="fill:rgb(0,0,0);font-family:TimesNewRomanPSMT;font-size:12.0px;stroke:none;">5</text>
  </g>
  <g begin="text">
   <text y="132.86" x="54.024" svgx:width="0.25" style="fill:rgb(0,0,0);font-family:TimesNewRomanPSMT;font-size:12.0px;stroke:none;"> </text>
  </g>
  <g begin="text">
   <text y="145.46" x="96.024,101.544,106.446,110.773,113.776,118.678,124.198,126.958,133.803,136.916,142.436,145.439,150.341,153.962,158.864,163.191,166.194,170.489,175.424,178.184,185.128,192.933,195.69299999999998,202.637,207.539,212.352,216.548,221.449,224.209,231.176,235.371,238.484,244.004,249.524,255.044,257.80400000000003,264.638,270.158,273.757,276.517,283.461,286.574,291.973,296.875,299.635,306.601,314.517,320.037,323.636,326.749,332.269,337.071,341.973,346.301,349.304,352.06399999999996,359.008,366.327,371.847,374.961,380.359,385.261,388.021,394.987,402.903,406.502,409.615,415.135,417.895" svgx:width="0.5,0.44,0.39,0.28,0.44,0.5,0.25,0.55,0.28,0.5,0.28,0.44,0.33,0.44,0.39,0.28,0.39,0.44,0.25,0.55,0.72,0.25,0.55,0.44,0.44,0.39,0.44,0.25,0.55,0.39,0.28,0.5,0.5,0.5,0.25,0.55,0.5,0.33,0.25,0.55,0.28,0.5,0.44,0.25,0.55,0.72,0.5,0.33,0.28,0.5,0.44,0.44,0.39,0.28,0.25,0.55,0.67,0.5,0.28,0.5,0.44,0.25,0.55,0.72,0.33,0.28,0.5,0.25,0.25" style="fill:rgb(0,0,0);font-family:TimesNewRomanPSMT;font-size:11.04px;stroke:none;">vested interests? A case study of the Northeast China Grid. </text>
  </g>
  <g begin="text">
   <text y="145.46" x="427.9,434.502,440.022,444.924,449.251,454.65,459.452,462.212,469.157,475.902,481.422,484.392,487.505,492.407" svgx:width="0.61,0.5,0.44,0.39,0.5,0.44,0.25,0.55,0.61,0.5,0.28,0.28,0.44,0.44" style="fill:rgb(0,0,0);font-family:TimesNewRomanPS-ItalicMT;font-size:11.04px;stroke:none;">Energy Policy</text>
  </g>
  <g begin="text">
   <text y="145.46" x="497.38,500.02" svgx:width="0.25,0.25" style="fill:rgb(0,0,0);font-family:TimesNewRomanPSMT;font-size:11.04px;stroke:none;">, </text>
  </g>
  <g begin="text">
   <text y="145.46" x="509.74,515.26" svgx:width="0.5,0.5" style="fill:rgb(0,0,0);font-family:TimesNewRomanPS-BoldMT;font-size:11.04px;stroke:none;">63</text>
  </g>
  <g begin="text">
   <text y="145.46" x="520.8,523.44" svgx:width="0.25,0.25" style="fill:rgb(0,0,0);font-family:TimesNewRomanPSMT;font-size:11.04px;stroke:none;">, </text>
  </g>
  <g begin="text">
   <text y="145.46" x="48.0" svgx:width="0.5" style="fill:rgb(0,0,0);font-family:TimesNewRomanPSMT;font-size:12.0px;stroke:none;">6</text>
  </g>
  <g begin="text">
   <text y="145.46" x="54.024" svgx:width="0.25" style="fill:rgb(0,0,0);font-family:TimesNewRomanPSMT;font-size:12.0px;stroke:none;"> </text>
  </g>
  <g begin="text">
   <text y="158.06" x="96.024,101.544,107.064,110.177,113.18,118.7,124.22,126.98,132.5,138.02,143.54,148.939,151.942,155.055,157.815,162.717,168.237,173.757,179.177,182.291,185.051,190.571,196.091,201.489,207.009,209.769,215.168,220.688,223.448,228.968,234.488,240.008" svgx:width="0.5,0.5,0.28,0.28,0.5,0.5,0.25,0.5,0.5,0.5,0.5,0.28,0.28,0.25,0.44,0.5,0.5,0.5,0.28,0.25,0.5,0.5,0.5,0.5,0.25,0.5,0.5,0.25,0.5,0.5,0.5,0.25" style="fill:rgb(0,0,0);font-family:TimesNewRomanPSMT;font-size:11.04px;stroke:none;">doi:10.1016/j.enpol.2013.08.092.</text>
  </g>
  <g begin="text">
   <text y="158.06" x="242.69" svgx:width="0.25" style="fill:rgb(0,0,0);font-family:TimesNewRomanPSMT;font-size:11.04px;stroke:none;"> </text>
  </g>
  <g begin="text">
   <text y="158.06" x="48.0" svgx:width="0.5" style="fill:rgb(0,0,0);font-family:TimesNewRomanPSMT;font-size:12.0px;stroke:none;">7</text>
  </g>
  <g begin="text">
   <text y="158.06" x="54.024" svgx:width="0.25" style="fill:rgb(0,0,0);font-family:TimesNewRomanPSMT;font-size:12.0px;stroke:none;"> </text>
  </g>
  <g begin="text">
   <text y="170.78" x="72.024,78.769,84.289,89.191,94.711,103.223,106.336,111.856,114.616,117.961,124.707,127.467,130.227,133.55,138.452,143.972,149.492,152.859,158.997,161.757,165.091,171.837,176.131,181.53,184.643,190.042,195.562,199.856,204.791,207.551,210.896,216.416,221.936,227.456,232.855,235.968,239.313,246.059,250.96,255.862,261.272,264.385,267.498,272.897,278.417,281.762,286.664,289.678,292.791,301.314,306.215,309.229,314.131,317.498,322.4,327.92,332.844,338.364,343.884,348.786,352.031,355.145,360.665,364.01,368.912,373.835,378.638,383.54,386.553,391.455,395.187,399.989,403.102,408.004,411.371,415.666,421.087,425.381,428.406,433.308,436.432,441.952,446.854,452.275,455.388,460.29,463.657,469.177,473.979,479.499,484.401,487.415,492.935,498.455,506.978,511.88,517.4,520.414,523.052" svgx:width="0.61,0.5,0.44,0.5,0.78,0.28,0.5,0.25,0.25,0.61,0.25,0.25,0.25,0.44,0.5,0.5,0.25,0.56,0.25,0.25,0.61,0.39,0.5,0.28,0.5,0.5,0.39,0.44,0.25,0.25,0.5,0.5,0.5,0.5,0.28,0.25,0.61,0.44,0.44,0.5,0.28,0.28,0.5,0.5,0.25,0.44,0.28,0.28,0.78,0.44,0.28,0.44,0.25,0.44,0.5,0.44,0.5,0.5,0.44,0.25,0.28,0.5,0.25,0.44,0.44,0.44,0.44,0.28,0.44,0.33,0.44,0.28,0.44,0.25,0.39,0.5,0.39,0.28,0.44,0.28,0.5,0.44,0.5,0.28,0.44,0.25,0.5,0.44,0.5,0.44,0.28,0.5,0.5,0.78,0.44,0.5,0.28,0.25,0.25" style="fill:rgb(0,0,0);font-family:TimesNewRomanPSMT;font-size:11.04px;stroke:none;">Zhenmin, L., and P. Espinosa, 2019: Tackling climate change to accelerate sustainable development. </text>
  </g>
  <g begin="text">
   <text y="170.78" x="48.0" svgx:width="0.5" style="fill:rgb(0,0,0);font-family:TimesNewRomanPSMT;font-size:12.0px;stroke:none;">8</text>
  </g>
  <g begin="text">
   <text y="170.78" x="54.024" svgx:width="0.25" style="fill:rgb(0,0,0);font-family:TimesNewRomanPSMT;font-size:12.0px;stroke:none;"> </text>
  </g>
  <g begin="text">
   <text y="183.38" x="96.024,103.343,108.863,111.977,114.737,117.497,124.816,127.819,130.933,138.848,141.608,144.368,151.688,157.208,162.728,168.248,173.768" svgx:width="0.67,0.5,0.28,0.25,0.25,0.67,0.28,0.28,0.72,0.25,0.25,0.67,0.5,0.5,0.5,0.5,0.25" style="fill:rgb(0,0,0);font-family:TimesNewRomanPS-ItalicMT;font-size:11.04px;stroke:none;">Nat. Clim. Chang.</text>
  </g>
  <g begin="text">
   <text y="183.38" x="176.57,179.33" svgx:width="0.25,0.25" style="fill:rgb(0,0,0);font-family:TimesNewRomanPSMT;font-size:11.04px;stroke:none;">, </text>
  </g>
  <g begin="text">
   <text y="183.38" x="182.09" svgx:width="0.5" style="fill:rgb(0,0,0);font-family:TimesNewRomanPS-BoldMT;font-size:11.04px;stroke:none;">9</text>
  </g>
  <g begin="text">
   <text y="183.38" x="187.49,191.199,196.598,200.307,203.067,205.827,211.347,216.746" svgx:width="0.33,0.5,0.33,0.25,0.25,0.5,0.5,0.5" style="fill:rgb(0,0,0);font-family:TimesNewRomanPSMT;font-size:11.04px;stroke:none;">(7), 494</text>
  </g>
  <g begin="text">
   <text y="183.38" x="222.29" svgx:width="0.5" style="fill:rgb(0,0,0);font-family:TimesNewRomanPSMT;font-size:11.04px;stroke:none;">–</text>
  </g>
  <g begin="text">
   <text y="183.38" x="227.81,233.33,238.85,244.37,247.13,249.89,255.41,260.809,263.922,266.925,272.445,277.965,280.725,286.245,291.765,297.285,302.683,305.797,310.091,315.512,321.032,326.552,332.072" svgx:width="0.5,0.5,0.5,0.25,0.25,0.5,0.5,0.28,0.28,0.5,0.5,0.25,0.5,0.5,0.5,0.5,0.28,0.39,0.5,0.5,0.5,0.5,0.5" style="fill:rgb(0,0,0);font-family:TimesNewRomanPSMT;font-size:11.04px;stroke:none;">496, doi:10.1038/s41558</text>
  </g>
  <g begin="text">
   <text y="183.38" x="337.51" svgx:width="0.33" style="fill:rgb(0,0,0);font-family:TimesNewRomanPSMT;font-size:11.04px;stroke:none;">-</text>
  </g>
  <g begin="text">
   <text y="183.38" x="341.11,346.63,352.15" svgx:width="0.5,0.5,0.5" style="fill:rgb(0,0,0);font-family:TimesNewRomanPSMT;font-size:11.04px;stroke:none;">019</text>
  </g>
  <g begin="text">
   <text y="183.38" x="357.67" svgx:width="0.33" style="fill:rgb(0,0,0);font-family:TimesNewRomanPSMT;font-size:11.04px;stroke:none;">-</text>
  </g>
  <g begin="text">
   <text y="183.38" x="361.27,366.79,372.31,377.83" svgx:width="0.5,0.5,0.5,0.5" style="fill:rgb(0,0,0);font-family:TimesNewRomanPSMT;font-size:11.04px;stroke:none;">0519</text>
  </g>
  <g begin="text">
   <text y="183.38" x="383.35" svgx:width="0.33" style="fill:rgb(0,0,0);font-family:TimesNewRomanPSMT;font-size:11.04px;stroke:none;">-</text>
  </g>
  <g begin="text">
   <text y="183.38" x="386.95,392.47" svgx:width="0.5,0.25" style="fill:rgb(0,0,0);font-family:TimesNewRomanPSMT;font-size:11.04px;stroke:none;">4.</text>
  </g>
  <g begin="text">
   <text y="183.38" x="395.23" svgx:width="0.25" style="fill:rgb(0,0,0);font-family:TimesNewRomanPSMT;font-size:11.04px;stroke:none;"> </text>
  </g>
  <g begin="text">
   <text y="183.38" x="48.0" svgx:width="0.5" style="fill:rgb(0,0,0);font-family:TimesNewRomanPSMT;font-size:12.0px;stroke:none;">9</text>
  </g>
  <g begin="text">
   <text y="183.38" x="54.024" svgx:width="0.25" style="fill:rgb(0,0,0);font-family:TimesNewRomanPSMT;font-size:12.0px;stroke:none;"> </text>
  </g>
  <g begin="text">
   <text y="196.1" x="72.024,78.769,84.289,88.584,97.217,102.02,107.54,110.3,113.06,115.809,122.554,125.314,128.074,130.834,133.561,141.477,144.237,146.99699999999999,149.746,155.74,159.45,162.563,167.962,171.075,176.595,181.397,185.692,190.516,196.036,198.796,201.55599999999998,204.305,209.207,214.727,220.247,223.007,225.778,231.916,234.676,237.43599999999998,240.163,248.079,253.477,258.379,263.899,268.713,271.826,274.586,277.346,280.095,285.615,291.135,296.533,302.053,305.167" svgx:width="0.61,0.5,0.39,0.78,0.44,0.5,0.25,0.25,0.55,0.61,0.25,0.25,0.25,0.55,0.72,0.25,0.25,0.55,0.56,0.33,0.28,0.5,0.28,0.5,0.44,0.39,0.44,0.5,0.25,0.25,0.55,0.44,0.5,0.5,0.25,0.55,0.56,0.25,0.25,0.55,0.72,0.5,0.44,0.5,0.44,0.28,0.25,0.25,0.55,0.5,0.5,0.5,0.5,0.28,0.25" style="fill:rgb(0,0,0);font-family:TimesNewRomanPSMT;font-size:11.04px;stroke:none;">Zusman, E., A. Srinivasan, and S. Dhakal, 2011: </text>
  </g>
  <g begin="text">
   <text y="196.1" x="310.75,316.888,322.408,329.706,332.466,335.215" svgx:width="0.56,0.5,0.67,0.25,0.55,0.44" style="fill:rgb(0,0,0);font-family:TimesNewRomanPS-ItalicMT;font-size:11.04px;stroke:none;">Low c</text>
  </g>
  <g begin="text">
   <text y="196.1" x="340.15,345.67,349.965,355.485,361.005,366.425,369.185,371.934,375.047,379.243,384.763,390.283,394.577,400.097,405.518,409.812,412.948,415.70799999999997,418.335,421.448,426.968,429.728,432.356,439.101,443.396,446.509,452.029,455.628,458.388,461.137,466.657,469.66,473.955,479.475,482.5,487.401,492.921,495.935,500.837,505.165,507.925,510.552,513.666,519.064,523.259" svgx:width="0.5,0.39,0.5,0.5,0.5,0.25,0.55,0.28,0.39,0.5,0.5,0.39,0.5,0.5,0.39,0.28,0.25,0.55,0.28,0.5,0.25,0.55,0.61,0.39,0.28,0.5,0.33,0.25,0.55,0.5,0.28,0.39,0.5,0.28,0.44,0.5,0.28,0.44,0.39,0.25,0.55,0.28,0.5,0.39,0.25" style="fill:rgb(0,0,0);font-family:TimesNewRomanPS-ItalicMT;font-size:11.04px;stroke:none;">arbon transport in Asia: Strategies for </text>
  </g>
  <g begin="text">
   <text y="196.1" x="42.0,48.0" svgx:width="0.5,0.5" style="fill:rgb(0,0,0);font-family:TimesNewRomanPSMT;font-size:12.0px;stroke:none;">10</text>
  </g>
  <g begin="text">
   <text y="196.1" x="54.024" svgx:width="0.25" style="fill:rgb(0,0,0);font-family:TimesNewRomanPSMT;font-size:12.0px;stroke:none;"> </text>
  </g>
  <g begin="text">
   <text y="208.7" x="96.024,101.544,107.064,110.177,113.291,121.096,124.209,128.404,131.518,137.038,142.558,145.318,150.219" svgx:width="0.5,0.5,0.28,0.28,0.72,0.28,0.39,0.28,0.5,0.5,0.25,0.44,0.5" style="fill:rgb(0,0,0);font-family:TimesNewRomanPS-ItalicMT;font-size:11.04px;stroke:none;">optimizing co</text>
  </g>
  <g begin="text">
   <text y="208.7" x="155.66" svgx:width="0.33" style="fill:rgb(0,0,0);font-family:TimesNewRomanPS-ItalicMT;font-size:11.04px;stroke:none;">-</text>
  </g>
  <g begin="text">
   <text y="208.7" x="159.38,164.9,169.702,175.222,180.124,183.138,186.251,189.254" svgx:width="0.5,0.44,0.5,0.44,0.28,0.28,0.28,0.39" style="fill:rgb(0,0,0);font-family:TimesNewRomanPS-ItalicMT;font-size:11.04px;stroke:none;">benefits</text>
  </g>
  <g begin="text">
   <text y="208.7" x="193.61,196.37,199.13,204.65,208.845,211.958,214.597,219.499,225.019,227.779,230.539,234.27,241.016,246.392,250.687,259.232,264.134,269.654,272.414,275.174,281.919,284.679,287.439,290.199,298.115,300.875,303.635,309.629,313.339,316.452,321.851,324.964,330.484,335.286,339.581,344.516,350.036,352.796,355.556,360.458,365.878,371.398,374.158,380.297,383.057,385.817,391.922,397.442,402.962,408.36,413.88,418.782,424.302,429.115,432.825,435.585,438.345,441.944,446.846,452.366,456.583,459.343,463.052,466.762,469.522,472.282,477.68,483.2,488.72,491.48,497.0,502.52" svgx:width="0.25,0.25,0.5,0.39,0.28,0.25,0.44,0.5,0.25,0.25,0.33,0.61,0.5,0.39,0.78,0.44,0.5,0.25,0.25,0.61,0.25,0.25,0.25,0.72,0.25,0.25,0.56,0.33,0.28,0.5,0.28,0.5,0.44,0.39,0.44,0.5,0.25,0.25,0.44,0.5,0.5,0.25,0.56,0.25,0.25,0.56,0.5,0.5,0.5,0.5,0.44,0.5,0.44,0.33,0.25,0.25,0.33,0.44,0.5,0.39,0.25,0.33,0.33,0.25,0.25,0.5,0.5,0.5,0.25,0.5,0.5,0.25" style="fill:rgb(0,0,0);font-family:TimesNewRomanPSMT;font-size:11.04px;stroke:none;">. 1st ed. [Zusman, E., A. Srinivasan, and S. Shobhakar, (eds.)]. 296 pp.</text>
  </g>
  <g begin="text">
   <text y="208.7" x="505.3" svgx:width="0.25" style="fill:rgb(0,0,0);font-family:TimesNewRomanPSMT;font-size:11.04px;stroke:none;"> </text>
  </g>
  <g begin="text">
   <text y="208.7" x="42.0,48.0" svgx:width="0.5,0.5" style="fill:rgb(0,0,0);font-family:TimesNewRomanPSMT;font-size:12.0px;stroke:none;">11</text>
  </g>
  <g begin="text">
   <text y="208.7" x="54.024" svgx:width="0.25" style="fill:rgb(0,0,0);font-family:TimesNewRomanPSMT;font-size:12.0px;stroke:none;"> </text>
  </g>
  <g begin="text">
   <text y="221.3" x="72.024" svgx:width="0.25" style="fill:rgb(0,0,0);font-family:TimesNewRomanPS-BoldMT;font-size:11.04px;stroke:none;"> </text>
  </g>
  <g begin="text">
   <text y="221.3" x="42.0,48.0" svgx:width="0.5,0.5" style="fill:rgb(0,0,0);font-family:TimesNewRomanPSMT;font-size:12.0px;stroke:none;">12</text>
  </g>
  <g begin="text">
   <text y="221.3" x="54.024" svgx:width="0.25" style="fill:rgb(0,0,0);font-family:TimesNewRomanPSMT;font-size:12.0px;stroke:none;"> </text>
  </g>
  <g begin="text">
   <text y="602.109" transform="matrix(0.70711,-0.70711,0.70711,0.70711,-395.12956,250.29085)" rotateDegrees="-45" matrix="[29.803345,29.803345,-29.803345,29.803345,104.563255,239.8115]" x="104.563" svgx:width="0.67" style="fill:rgb(0,0,0);font-family:Arial;font-size:42.15px;stroke:none;">A</text>
   <text y="582.23" transform="matrix(0.70711,-0.70711,0.70711,0.70711,-375.25056,258.525)" rotateDegrees="-45" matrix="[29.803345,29.803345,-29.803345,29.803345,124.442085,259.6903]" x="124.442" svgx:width="0.72" style="fill:rgb(0,0,0);font-family:Arial;font-size:42.15px;stroke:none;">C</text>
   <text y="560.712" transform="matrix(0.70711,-0.70711,0.70711,0.70711,-353.73256,267.43805)" rotateDegrees="-45" matrix="[29.803345,29.803345,-29.803345,29.803345,145.9601,281.20834]" x="145.96" svgx:width="0.72" style="fill:rgb(0,0,0);font-family:Arial;font-size:42.15px;stroke:none;">C</text>
   <text y="539.194" transform="matrix(0.70711,-0.70711,0.70711,0.70711,-332.21456,276.3511)" rotateDegrees="-45" matrix="[29.803345,29.803345,-29.803345,29.803345,167.47812,302.72635]" x="167.478" svgx:width="0.67" style="fill:rgb(0,0,0);font-family:Arial;font-size:42.15px;stroke:none;">E</text>
   <text y="519.315" transform="matrix(0.70711,-0.70711,0.70711,0.70711,-312.33556,284.58525)" rotateDegrees="-45" matrix="[29.803345,29.803345,-29.803345,29.803345,187.35693,322.60516]" x="187.357" svgx:width="0.67" style="fill:rgb(0,0,0);font-family:Arial;font-size:42.15px;stroke:none;">P</text>
   <text y="499.436" transform="matrix(0.70711,-0.70711,0.70711,0.70711,-292.45656,292.8194)" rotateDegrees="-45" matrix="[29.803345,29.803345,-29.803345,29.803345,207.23578,342.484]" x="207.236" svgx:width="0.61" style="fill:rgb(0,0,0);font-family:Arial;font-size:42.15px;stroke:none;">T</text>
   <text y="481.226" transform="matrix(0.70711,-0.70711,0.70711,0.70711,-274.24656,300.36223)" rotateDegrees="-45" matrix="[29.803345,29.803345,-29.803345,29.803345,225.44562,360.69385]" x="225.446" svgx:width="0.67" style="fill:rgb(0,0,0);font-family:Arial;font-size:42.15px;stroke:none;">E</text>
   <text y="461.347" transform="matrix(0.70711,-0.70711,0.70711,0.70711,-254.36786,308.59567)" rotateDegrees="-45" matrix="[29.803345,29.803345,-29.803345,29.803345,245.32443,380.57266]" x="245.324" svgx:width="0.72" style="fill:rgb(0,0,0);font-family:Arial;font-size:42.15px;stroke:none;">D</text>
   <text y="439.829" transform="matrix(0.70711,-0.70711,0.70711,0.70711,-232.84986,317.50872)" rotateDegrees="-45" matrix="[29.803345,29.803345,-29.803345,29.803345,266.84247,402.0907]" x="266.842" svgx:width="0.28" style="fill:rgb(0,0,0);font-family:Arial;font-size:42.15px;stroke:none;"> </text>
   <text y="431.54" transform="matrix(0.70711,-0.70711,0.70711,0.70711,-224.56056,320.94284)" rotateDegrees="-45" matrix="[29.803345,29.803345,-29.803345,29.803345,275.13153,410.37976]" x="275.132" svgx:width="0.67" style="fill:rgb(0,0,0);font-family:Arial;font-size:42.15px;stroke:none;">V</text>
   <text y="411.661" transform="matrix(0.70711,-0.70711,0.70711,0.70711,-204.68186,329.17629)" rotateDegrees="-45" matrix="[29.803345,29.803345,-29.803345,29.803345,295.0103,430.25858]" x="295.01" svgx:width="0.67" style="fill:rgb(0,0,0);font-family:Arial;font-size:42.15px;stroke:none;">E</text>
   <text y="391.783" transform="matrix(0.70711,-0.70711,0.70711,0.70711,-184.80356,337.41073)" rotateDegrees="-45" matrix="[29.803345,29.803345,-29.803345,29.803345,314.88916,450.1374]" x="314.889" svgx:width="0.72" style="fill:rgb(0,0,0);font-family:Arial;font-size:42.15px;stroke:none;">R</text>
   <text y="370.265" transform="matrix(0.70711,-0.70711,0.70711,0.70711,-163.28556,346.32378)" rotateDegrees="-45" matrix="[29.803345,29.803345,-29.803345,29.803345,336.40717,471.65543]" x="336.407" svgx:width="0.67" style="fill:rgb(0,0,0);font-family:Arial;font-size:42.15px;stroke:none;">S</text>
   <text y="350.386" transform="matrix(0.70711,-0.70711,0.70711,0.70711,-143.40656,354.55793)" rotateDegrees="-45" matrix="[29.803345,29.803345,-29.803345,29.803345,356.286,491.53424]" x="356.286" svgx:width="0.28" style="fill:rgb(0,0,0);font-family:Arial;font-size:42.15px;stroke:none;">I</text>
   <text y="342.1" transform="matrix(0.70711,-0.70711,0.70711,0.70711,-135.12086,357.9894)" rotateDegrees="-45" matrix="[29.803345,29.803345,-29.803345,29.803345,364.57135,499.81958]" x="364.571" svgx:width="0.78" style="fill:rgb(0,0,0);font-family:Arial;font-size:42.15px;stroke:none;">O</text>
   <text y="318.913" transform="matrix(0.70711,-0.70711,0.70711,0.70711,-111.93386,367.59377)" rotateDegrees="-45" matrix="[29.803345,29.803345,-29.803345,29.803345,387.7583,523.0066]" x="387.758" svgx:width="0.72" style="fill:rgb(0,0,0);font-family:Arial;font-size:42.15px;stroke:none;">N</text>
   <text y="297.395" transform="matrix(0.70711,-0.70711,0.70711,0.70711,-90.41586,376.50681)" rotateDegrees="-45" matrix="[29.803345,29.803345,-29.803345,29.803345,409.27637,544.5246]" x="409.276" svgx:width="0.28" style="fill:rgb(0,0,0);font-family:Arial;font-size:42.15px;stroke:none;"> </text>
   <text y="637.872" transform="matrix(0.70711,-0.70711,0.70711,0.70711,-409.94279,286.05456)" rotateDegrees="-45" matrix="[29.803345,29.803345,-29.803345,29.803345,140.32727,204.04747]" x="140.327" svgx:width="0.67" style="fill:rgb(0,0,0);font-family:Arial;font-size:42.15px;stroke:none;">S</text>
   <text y="617.994" transform="matrix(0.70711,-0.70711,0.70711,0.70711,-390.0645,294.289)" rotateDegrees="-45" matrix="[29.803345,29.803345,-29.803345,29.803345,160.2061,223.9263]" x="160.206" svgx:width="0.72" style="fill:rgb(0,0,0);font-family:Arial;font-size:42.15px;stroke:none;">U</text>
   <text y="596.476" transform="matrix(0.70711,-0.70711,0.70711,0.70711,-368.5465,303.20205)" rotateDegrees="-45" matrix="[29.803345,29.803345,-29.803345,29.803345,181.72412,245.4443]" x="181.724" svgx:width="0.67" style="fill:rgb(0,0,0);font-family:Arial;font-size:42.15px;stroke:none;">B</text>
   <text y="576.597" transform="matrix(0.70711,-0.70711,0.70711,0.70711,-348.6675,311.4362)" rotateDegrees="-45" matrix="[29.803345,29.803345,-29.803345,29.803345,201.60294,265.32315]" x="201.603" svgx:width="0.5" style="fill:rgb(0,0,0);font-family:Arial;font-size:42.15px;stroke:none;">J</text>
   <text y="561.695" transform="matrix(0.70711,-0.70711,0.70711,0.70711,-333.7655,317.60881)" rotateDegrees="-45" matrix="[29.803345,29.803345,-29.803345,29.803345,216.50462,280.22482]" x="216.505" svgx:width="0.67" style="fill:rgb(0,0,0);font-family:Arial;font-size:42.15px;stroke:none;">E</text>
   <text y="541.816" transform="matrix(0.70711,-0.70711,0.70711,0.70711,-313.88679,325.84225)" rotateDegrees="-45" matrix="[29.803345,29.803345,-29.803345,29.803345,236.38344,300.10364]" x="236.383" svgx:width="0.72" style="fill:rgb(0,0,0);font-family:Arial;font-size:42.15px;stroke:none;">C</text>
   <text y="520.298" transform="matrix(0.70711,-0.70711,0.70711,0.70711,-292.36879,334.7553)" rotateDegrees="-45" matrix="[29.803345,29.803345,-29.803345,29.803345,257.90146,321.62164]" x="257.901" svgx:width="0.61" style="fill:rgb(0,0,0);font-family:Arial;font-size:42.15px;stroke:none;">T</text>
   <text y="502.089" transform="matrix(0.70711,-0.70711,0.70711,0.70711,-274.1595,342.29842)" rotateDegrees="-45" matrix="[29.803345,29.803345,-29.803345,29.803345,276.1113,339.83148]" x="276.111" svgx:width="0.28" style="fill:rgb(0,0,0);font-family:Arial;font-size:42.15px;stroke:none;"> </text>
   <text y="493.803" transform="matrix(0.70711,-0.70711,0.70711,0.70711,-265.8735,345.7306)" rotateDegrees="-45" matrix="[29.803345,29.803345,-29.803345,29.803345,284.39664,348.11682]" x="284.397" svgx:width="0.61" style="fill:rgb(0,0,0);font-family:Arial;font-size:42.15px;stroke:none;">T</text>
   <text y="475.593" transform="matrix(0.70711,-0.70711,0.70711,0.70711,-247.66379,353.27272)" rotateDegrees="-45" matrix="[29.803345,29.803345,-29.803345,29.803345,302.60648,366.32666]" x="302.606" svgx:width="0.78" style="fill:rgb(0,0,0);font-family:Arial;font-size:42.15px;stroke:none;">O</text>
   <text y="452.406" transform="matrix(0.70711,-0.70711,0.70711,0.70711,-224.47679,362.87709)" rotateDegrees="-45" matrix="[29.803345,29.803345,-29.803345,29.803345,325.79346,389.51367]" x="325.793" svgx:width="0.28" style="fill:rgb(0,0,0);font-family:Arial;font-size:42.15px;stroke:none;"> </text>
   <text y="444.136" transform="matrix(0.70711,-0.70711,0.70711,0.70711,-216.2065,366.30334)" rotateDegrees="-45" matrix="[29.803345,29.803345,-29.803345,29.803345,334.0639,397.78412]" x="334.064" svgx:width="0.61" style="fill:rgb(0,0,0);font-family:Arial;font-size:42.15px;stroke:none;">F</text>
   <text y="425.926" transform="matrix(0.70711,-0.70711,0.70711,0.70711,-197.9965,373.84617)" rotateDegrees="-45" matrix="[29.803345,29.803345,-29.803345,29.803345,352.27374,415.99396]" x="352.274" svgx:width="0.28" style="fill:rgb(0,0,0);font-family:Arial;font-size:42.15px;stroke:none;">I</text>
   <text y="417.641" transform="matrix(0.70711,-0.70711,0.70711,0.70711,-189.7115,377.27793)" rotateDegrees="-45" matrix="[29.803345,29.803345,-29.803345,29.803345,360.55908,424.2793]" x="360.559" svgx:width="0.72" style="fill:rgb(0,0,0);font-family:Arial;font-size:42.15px;stroke:none;">N</text>
   <text y="396.123" transform="matrix(0.70711,-0.70711,0.70711,0.70711,-168.1935,386.19098)" rotateDegrees="-45" matrix="[29.803345,29.803345,-29.803345,29.803345,382.0771,445.7973]" x="382.077" svgx:width="0.67" style="fill:rgb(0,0,0);font-family:Arial;font-size:42.15px;stroke:none;">A</text>
   <text y="376.244" transform="matrix(0.70711,-0.70711,0.70711,0.70711,-148.3145,394.42513)" rotateDegrees="-45" matrix="[29.803345,29.803345,-29.803345,29.803345,401.95593,465.67615]" x="401.956" svgx:width="0.56" style="fill:rgb(0,0,0);font-family:Arial;font-size:42.15px;stroke:none;">L</text>
   <text y="359.673" transform="matrix(0.70711,-0.70711,0.70711,0.70711,-131.7435,401.28906)" rotateDegrees="-45" matrix="[29.803345,29.803345,-29.803345,29.803345,418.5266,482.24677]" x="418.527" svgx:width="0.28" style="fill:rgb(0,0,0);font-family:Arial;font-size:42.15px;stroke:none;"> </text>
   <text y="351.394" transform="matrix(0.70711,-0.70711,0.70711,0.70711,-123.4645,404.71834)" rotateDegrees="-45" matrix="[29.803345,29.803345,-29.803345,29.803345,426.80573,490.52588]" x="426.806" svgx:width="0.67" style="fill:rgb(0,0,0);font-family:Arial;font-size:42.15px;stroke:none;">E</text>
   <text y="331.515" transform="matrix(0.70711,-0.70711,0.70711,0.70711,-103.5855,412.95249)" rotateDegrees="-45" matrix="[29.803345,29.803345,-29.803345,29.803345,446.68457,510.40472]" x="446.685" svgx:width="0.72" style="fill:rgb(0,0,0);font-family:Arial;font-size:42.15px;stroke:none;">D</text>
   <text y="309.997" transform="matrix(0.70711,-0.70711,0.70711,0.70711,-82.0675,421.86554)" rotateDegrees="-45" matrix="[29.803345,29.803345,-29.803345,29.803345,468.2025,531.9227]" x="468.203" svgx:width="0.28" style="fill:rgb(0,0,0);font-family:Arial;font-size:42.15px;stroke:none;">I</text>
   <text y="301.712" transform="matrix(0.70711,-0.70711,0.70711,0.70711,-73.7825,425.29729)" rotateDegrees="-45" matrix="[29.803345,29.803345,-29.803345,29.803345,476.48785,540.20807]" x="476.488" svgx:width="0.61" style="fill:rgb(0,0,0);font-family:Arial;font-size:42.15px;stroke:none;">T</text>
   <text y="283.502" transform="matrix(0.70711,-0.70711,0.70711,0.70711,-55.5725,432.84012)" rotateDegrees="-45" matrix="[29.803345,29.803345,-29.803345,29.803345,494.6977,558.4179]" x="494.698" svgx:width="0.67" style="fill:rgb(0,0,0);font-family:Arial;font-size:42.15px;stroke:none;">S</text>
  </g>
 </g>
</svg>
