<?xml version="1.0" encoding="UTF-8"?>
<svg height="814.0" width="536.44" xmlns="http://www.w3.org/2000/svg">
 <g id="page" xmlns:svgx="http://www.xml-cml.org/schema/svgx">
  <g begin="text">
   <text y="46.56" x="72.024,78.624,81.96,87.96,93.288,96.624,99.624,108.288,114.288,120.288,125.652,129.648,135.648,144.984,150.252,156.252,159.588,162.588,171.252,174.588,179.28,182.616,186.612,189.948,195.948,201.948,205.308,208.644,214.644" svgx:width="0.56,0.28,0.5,0.44,0.28,0.25,0.72,0.5,0.5,0.44,0.33,0.5,0.78,0.44,0.5,0.28,0.25,0.72,0.28,0.39,0.28,0.33,0.28,0.5,0.5,0.28,0.28,0.5,0.5" style="fill:rgb(0,0,0);font-family:TimesNewRomanPSMT;font-size:12.0px;stroke:none;">Final Government Distribution</text>
  </g>
  <g begin="text">
   <text y="46.56" x="220.73" svgx:width="0.25" style="fill:rgb(0,0,0);font-family:TimesNewRomanPSMT;font-size:12.0px;stroke:none;"> </text>
  </g>
  <g begin="text">
   <text y="46.56" x="256.13,259.13,262.13,265.13,268.13,271.13,274.13,277.13,280.13,283.13" svgx:width="0.25,0.25,0.25,0.25,0.25,0.25,0.25,0.25,0.25,0.25" style="fill:rgb(0,0,0);font-family:TimesNewRomanPSMT;font-size:12.0px;stroke:none;"> </text>
  </g>
  <g begin="text">
   <text y="46.56" x="286.15,294.178,300.178,305.458,311.458,314.794,320.122,324.058,327.058,333.058" svgx:width="0.67,0.5,0.44,0.5,0.28,0.44,0.33,0.25,0.5,0.5" style="fill:rgb(0,0,0);font-family:TimesNewRomanPSMT;font-size:12.0px;stroke:none;">Chapter 17</text>
  </g>
  <g begin="text">
   <text y="46.56" x="339.19" svgx:width="0.25" style="fill:rgb(0,0,0);font-family:TimesNewRomanPSMT;font-size:12.0px;stroke:none;"> </text>
  </g>
  <g begin="text">
   <text y="46.56" x="436.06,439.9,446.608,454.636,462.664" svgx:width="0.33,0.56,0.67,0.67,0.25" style="fill:rgb(0,0,0);font-family:TimesNewRomanPSMT;font-size:12.0px;stroke:none;">IPCC </text>
  </g>
  <g begin="text">
   <text y="46.56" x="465.7,474.364,482.368,488.368,491.368,502.66,511.408,515.404,519.328" svgx:width="0.72,0.67,0.5,0.25,0.94,0.72,0.33,0.33,0.33" style="fill:rgb(0,0,0);font-family:TimesNewRomanPSMT;font-size:12.0px;stroke:none;">AR6 WGIII</text>
  </g>
  <g begin="text">
   <text y="46.56" x="523.44" svgx:width="0.25" style="fill:rgb(0,0,0);font-family:TimesNewRomanPSMT;font-size:12.0px;stroke:none;"> </text>
  </g>
  <g begin="text">
   <text y="804.0" x="72.024,80.688,86.688,89.688,98.304,104.304,108.3,111.3,119.904,123.24,127.236,132.504,135.504,138.504,147.84,154.572,160.572,164.64,169.92,172.92,178.92,184.2,187.308,195.972,199.308,203.976,207.972,213.228,216.564,223.296,230.004,234.0" svgx:width="0.72,0.5,0.25,0.72,0.5,0.33,0.25,0.72,0.28,0.33,0.44,0.25,0.25,0.78,0.56,0.5,0.33,0.44,0.25,0.5,0.44,0.25,0.72,0.28,0.39,0.33,0.44,0.28,0.56,0.56,0.33,0.44" style="fill:rgb(0,0,0);font-family:TimesNewRomanPS-BoldMT;font-size:12.0px;stroke:none;">Do Not Cite, Quote or Distribute</text>
  </g>
  <g begin="text">
   <text y="804.0" x="239.33" svgx:width="0.25" style="fill:rgb(0,0,0);font-family:TimesNewRomanPS-BoldMT;font-size:12.0px;stroke:none;"> </text>
  </g>
  <g begin="text">
   <text y="804.0" x="286.75,292.75" svgx:width="0.5,0.5" style="fill:rgb(0,0,0);font-family:TimesNewRomanPSMT;font-size:12.0px;stroke:none;">17</text>
  </g>
  <g begin="text">
   <text y="804.0" x="298.75" svgx:width="0.33" style="fill:rgb(0,0,0);font-family:TimesNewRomanPSMT;font-size:12.0px;stroke:none;">-</text>
  </g>
  <g begin="text">
   <text y="804.0" x="302.71" svgx:width="0.5" style="fill:rgb(0,0,0);font-family:TimesNewRomanPSMT;font-size:12.0px;stroke:none;">1</text>
  </g>
  <g begin="text">
   <text y="804.0" x="449.38,456.712,462.712,466.048,471.34,474.676,477.676,483.676,489.004,495.004,500.26,504.928,508.264" svgx:width="0.61,0.5,0.28,0.44,0.28,0.25,0.5,0.44,0.5,0.44,0.39,0.28,0.25" style="fill:rgb(0,0,0);font-family:TimesNewRomanPSMT;font-size:12.0px;stroke:none;">Total pages: </text>
  </g>
  <g begin="text">
   <text y="804.0" x="511.32,517.32" svgx:width="0.5,0.5" style="fill:rgb(0,0,0);font-family:TimesNewRomanPSMT;font-size:12.0px;stroke:none;">99</text>
  </g>
  <g begin="text">
   <text y="804.0" x="523.44" svgx:width="0.25" style="fill:rgb(0,0,0);font-family:TimesNewRomanPSMT;font-size:9.96px;stroke:none;"> </text>
  </g>
  <g begin="text">
   <text y="99.02" x="115.58,127.103,135.977,144.005,152.879,158.193,165.279,172.366,176.292,184.32,192.348,197.662" svgx:width="0.72,0.56,0.5,0.56,0.33,0.44,0.44,0.25,0.5,0.5,0.33,0.25" style="fill:rgb(0,0,0);font-family:TimesNewRomanPS-BoldMT;font-size:15.96px;stroke:none;">Chapter 17: </text>
  </g>
  <g begin="text">
   <text y="99.02" x="201.77,213.293,220.379,227.466,234.632,239.069,246.155,253.241,261.253,266.568,271.004,279.878,287.858,291.848,297.163,306.037,313.203,317.193,322.444,329.53,337.542,346.415,352.624,357.204,362.519,366.956,374.936,383.81,387.8,392.237,401.11,405.196,410.511,419.384,426.471,430.397,437.483,445.495,454.481,459.795,466.945,474.973,480.288,484.214,492.242,497.557" svgx:width="0.72,0.44,0.44,0.44,0.28,0.44,0.44,0.5,0.33,0.28,0.56,0.5,0.25,0.33,0.56,0.44,0.25,0.33,0.44,0.5,0.56,0.39,0.28,0.33,0.28,0.5,0.56,0.25,0.28,0.56,0.25,0.33,0.56,0.44,0.25,0.44,0.5,0.56,0.33,0.44,0.5,0.33,0.25,0.5,0.33,0.25" style="fill:rgb(0,0,0);font-family:TimesNewRomanPS-BoldMT;font-size:15.96px;stroke:none;">Accelerating the transition in the context of </text>
  </g>
  <g begin="text">
   <text y="99.02" x="48.0" svgx:width="0.5" style="fill:rgb(0,0,0);font-family:TimesNewRomanPSMT;font-size:12.0px;stroke:none;">1</text>
  </g>
  <g begin="text">
   <text y="99.02" x="54.024" svgx:width="0.25" style="fill:rgb(0,0,0);font-family:TimesNewRomanPSMT;font-size:12.0px;stroke:none;"> </text>
  </g>
  <g begin="text">
   <text y="119.3" x="222.89,229.098,237.972,244.229,249.543,257.523,261.96,270.834,278.894,287.767,292.204,299.291,303.281,312.154,319.241,327.221,334.307,338.871,346.899,355.773,369.068,376.154,385.028" svgx:width="0.39,0.56,0.39,0.33,0.5,0.28,0.56,0.5,0.56,0.28,0.44,0.25,0.56,0.44,0.5,0.44,0.28,0.5,0.56,0.83,0.44,0.56,0.33" style="fill:rgb(0,0,0);font-family:TimesNewRomanPS-BoldMT;font-size:15.96px;stroke:none;">sustainable development</text>
  </g>
  <g begin="text">
   <text y="119.3" x="390.55" svgx:width="0.25" style="fill:rgb(0,0,0);font-family:TimesNewRomanPS-BoldMT;font-size:15.96px;stroke:none;"> </text>
  </g>
  <g begin="text">
   <text y="119.3" x="48.0" svgx:width="0.5" style="fill:rgb(0,0,0);font-family:TimesNewRomanPSMT;font-size:12.0px;stroke:none;">2</text>
  </g>
  <g begin="text">
   <text y="119.3" x="54.024" svgx:width="0.25" style="fill:rgb(0,0,0);font-family:TimesNewRomanPSMT;font-size:12.0px;stroke:none;"> </text>
  </g>
  <g begin="text">
   <text y="141.62" x="48.0" svgx:width="0.5" style="fill:rgb(0,0,0);font-family:TimesNewRomanPSMT;font-size:12.0px;stroke:none;">3</text>
  </g>
  <g begin="text">
   <text y="141.62" x="54.024" svgx:width="0.25" style="fill:rgb(0,0,0);font-family:TimesNewRomanPSMT;font-size:12.0px;stroke:none;"> </text>
  </g>
  <g begin="text">
   <text y="154.46" x="72.024,79.94,85.46,90.98,95.881,102.02,105.133,111.271,116.648,120.357,123.47,129.609,135.129,137.889,145.076,149.977,155.497,161.636,164.396,172.311,178.45,182.126,188.264,193.674,198.576,202.903" svgx:width="0.72,0.5,0.5,0.44,0.56,0.28,0.56,0.5,0.33,0.28,0.56,0.5,0.25,0.67,0.44,0.5,0.56,0.25,0.72,0.56,0.33,0.56,0.5,0.44,0.39,0.33" style="fill:rgb(0,0,0);font-family:TimesNewRomanPS-BoldMT;font-size:11.04px;stroke:none;">Coordinating Lead Authors:</text>
  </g>
  <g begin="text">
   <text y="154.46" x="206.69" svgx:width="0.25" style="fill:rgb(0,0,0);font-family:TimesNewRomanPSMT;font-size:11.04px;stroke:none;"> </text>
  </g>
  <g begin="text">
   <text y="154.46" x="209.45,215.445,220.347,223.36,226.474,234.997,239.898,242.658" svgx:width="0.56,0.44,0.28,0.28,0.78,0.44,0.25,0.72" style="fill:rgb(0,0,0);font-family:TimesNewRomanPSMT;font-size:11.04px;stroke:none;">Fatima D</text>
  </g>
  <g begin="text">
   <text y="154.46" x="250.61,255.512,261.032,264.046,269.566,275.086,277.846" svgx:width="0.44,0.5,0.28,0.5,0.5,0.25,0.33" style="fill:rgb(0,0,0);font-family:TimesNewRomanPSMT;font-size:11.04px;stroke:none;">enton (</text>
  </g>
  <g begin="text">
   <text y="154.46" x="281.45" svgx:width="0.28" style="fill:rgb(0,0,0);font-family:TimesNewRomanPSMT;font-size:11.04px;stroke:none;">t</text>
  </g>
  <g begin="text">
   <text y="154.46" x="284.59,290.11,295.012" svgx:width="0.5,0.44,0.25" style="fill:rgb(0,0,0);font-family:TimesNewRomanPSMT;font-size:11.04px;stroke:none;">he </text>
  </g>
  <g begin="text">
   <text y="154.46" x="297.79,305.595,310.398,319.031,324.551,327.554,332.456,336.187,338.947,341.707,349.513,352.626,356.335,360.53,363.644,368.545,373.966,376.726,384.642,389.544,392.557,396.852,402.372,409.736" svgx:width="0.72,0.44,0.78,0.5,0.28,0.44,0.33,0.25,0.25,0.72,0.28,0.33,0.39,0.28,0.44,0.5,0.25,0.72,0.44,0.28,0.39,0.5,0.67,0.39" style="fill:rgb(0,0,0);font-family:TimesNewRomanPSMT;font-size:11.04px;stroke:none;">Gambia), Kirsten Halsnæs</text>
  </g>
  <g begin="text">
   <text y="154.46" x="414.1" svgx:width="0.25" style="fill:rgb(0,0,0);font-family:TimesNewRomanPSMT;font-size:11.04px;stroke:none;"> </text>
  </g>
  <g begin="text">
   <text y="154.46" x="416.86,420.569,428.375,433.177,438.697,447.33,452.133,455.842,461.362" svgx:width="0.33,0.72,0.44,0.5,0.78,0.44,0.33,0.5,0.33" style="fill:rgb(0,0,0);font-family:TimesNewRomanPSMT;font-size:11.04px;stroke:none;">(Denmark)</text>
  </g>
  <g begin="text">
   <text y="154.46" x="464.98" svgx:width="0.25" style="fill:rgb(0,0,0);font-family:TimesNewRomanPSMT;font-size:11.04px;stroke:none;"> </text>
  </g>
  <g begin="text">
   <text y="154.46" x="48.0" svgx:width="0.5" style="fill:rgb(0,0,0);font-family:TimesNewRomanPSMT;font-size:12.0px;stroke:none;">4</text>
  </g>
  <g begin="text">
   <text y="154.46" x="54.024" svgx:width="0.25" style="fill:rgb(0,0,0);font-family:TimesNewRomanPSMT;font-size:12.0px;stroke:none;"> </text>
  </g>
  <g begin="text">
   <text y="167.18" x="48.0" svgx:width="0.5" style="fill:rgb(0,0,0);font-family:TimesNewRomanPSMT;font-size:12.0px;stroke:none;">5</text>
  </g>
  <g begin="text">
   <text y="167.18" x="54.024" svgx:width="0.25" style="fill:rgb(0,0,0);font-family:TimesNewRomanPSMT;font-size:12.0px;stroke:none;"> </text>
  </g>
  <g begin="text">
   <text y="179.78" x="72.024,79.343,84.245,89.765,95.903,98.66300000000001,101.17,109.085,115.223,118.9,125.038,130.448,135.349" svgx:width="0.67,0.44,0.5,0.56,0.25,0.55,0.72,0.56,0.33,0.56,0.5,0.44,0.39" style="fill:rgb(0,0,0);font-family:TimesNewRomanPS-BoldMT;font-size:11.04px;stroke:none;">Lead Authors</text>
  </g>
  <g begin="text">
   <text y="179.78" x="139.7,142.703,145.463,147.969,155.885,160.786,163.8,169.32,174.84,177.6,180.106,188.022,193.421,196.534,205.167,210.566,213.679,219.199,221.959,224.344,228.053,232.248,237.15,242.67,247.594,252.993,256.702,259.462,262.222,264.728,270.723,275.625,279.356,284.258,289.678,292.438,294.945,302.264,307.784,311.383,316.285,321.805,324.565,327.093,330.803,338.001,342.902,348.422,353.346,358.866,363.669,367.378,370.138,372.89799999999997,375.404,382.602,386.312,389.315,393.609,396.744,402.264,407.663,412.565,415.579,418.339,420.845,428.761,431.763,436.665,441.589,444.349,446.734,456.548,462.068,465.8,470.602,473.715,479.235,484.634,487.394,489.9,493.61,500.929,506.449,511.848,516.749,520.37,523.009" svgx:width="0.28,0.25,0.55,0.72,0.44,0.28,0.5,0.5,0.25,0.55,0.72,0.5,0.28,0.78,0.5,0.28,0.5,0.25,0.55,0.33,0.39,0.44,0.5,0.44,0.5,0.33,0.25,0.25,0.55,0.56,0.44,0.33,0.44,0.5,0.25,0.55,0.67,0.5,0.33,0.44,0.5,0.25,0.55,0.33,0.67,0.44,0.5,0.44,0.5,0.44,0.33,0.25,0.25,0.55,0.67,0.33,0.28,0.39,0.28,0.5,0.5,0.44,0.28,0.25,0.55,0.72,0.28,0.44,0.44,0.25,0.55,0.89,0.5,0.33,0.44,0.28,0.5,0.5,0.25,0.55,0.33,0.67,0.5,0.5,0.44,0.33,0.25,0.25" style="fill:rgb(0,0,0);font-family:TimesNewRomanPSMT;font-size:11.04px;stroke:none;">: Keigo Akimoto (Japan), Sarah Burch (Canada), Cristobal Diaz Morejon (Cuba), </text>
  </g>
  <g begin="text">
   <text y="179.78" x="48.0" svgx:width="0.5" style="fill:rgb(0,0,0);font-family:TimesNewRomanPSMT;font-size:12.0px;stroke:none;">6</text>
  </g>
  <g begin="text">
   <text y="179.78" x="54.024" svgx:width="0.25" style="fill:rgb(0,0,0);font-family:TimesNewRomanPSMT;font-size:12.0px;stroke:none;"> </text>
  </g>
  <g begin="text">
   <text y="192.5" x="72.024,78.162,83.064,86.773,92.293,97.195,102.616,108.136,113.656,116.41600000000001,119.165,125.303,130.083,133.793,136.906,141.708,146.003,148.76299999999998,151.534,155.244,162.563,167.962,171.075,174.078,178.98,182.711,185.471,188.231,190.859,195.153,200.673,206.193,209.328,212.088,214.716,219.011,224.531,230.051,234.875,239.17,242.305,247.207,249.96699999999998,252.616,256.326,259.925,265.445,270.965,276.485,282.005,286.807,291.102,294.127,299.028,302.76,305.52" svgx:width="0.56,0.44,0.33,0.5,0.44,0.5,0.5,0.5,0.25,0.55,0.56,0.44,0.33,0.28,0.44,0.39,0.25,0.55,0.33,0.67,0.5,0.28,0.28,0.44,0.33,0.25,0.25,0.55,0.39,0.5,0.5,0.28,0.25,0.55,0.39,0.5,0.5,0.44,0.39,0.28,0.44,0.25,0.55,0.33,0.33,0.5,0.5,0.5,0.5,0.44,0.39,0.28,0.44,0.33,0.25,0.25" style="fill:rgb(0,0,0);font-family:TimesNewRomanPSMT;font-size:11.04px;stroke:none;">Fernando Farias (Chile), Joni Jupesta (Indonesia), </text>
  </g>
  <g begin="text">
   <text y="192.5" x="311.11,319.026,322.139,325.252,328.012,330.761,336.899,342.419,347.2,350.909,355.712,360.613,364.345,367.105,369.732,373.442,383.256,388.081,391.194,396.593,399.706,405.226,410.128,414.345,418.055,420.815" svgx:width="0.72,0.28,0.28,0.25,0.55,0.56,0.5,0.44,0.33,0.44,0.44,0.33,0.25,0.55,0.33,0.89,0.44,0.28,0.5,0.28,0.5,0.44,0.39,0.33,0.25,0.25" style="fill:rgb(0,0,0);font-family:TimesNewRomanPSMT;font-size:11.04px;stroke:none;">Ali Shareef (Maldives), </text>
  </g>
  <g begin="text">
   <text y="192.5" x="426.46,432.455,437.357,440.481,444.08,448.982,451.742,454.513,460.651,465.553,471.073,478.988,483.791,486.904,491.806,496.619" svgx:width="0.56,0.44,0.28,0.33,0.44,0.25,0.55,0.56,0.44,0.5,0.72,0.44,0.28,0.44,0.44,0.33" style="fill:rgb(0,0,0);font-family:TimesNewRomanPSMT;font-size:11.04px;stroke:none;">Petra Schweizer</text>
  </g>
  <g begin="text">
   <text y="192.5" x="500.38" svgx:width="0.33" style="fill:rgb(0,0,0);font-family:TimesNewRomanPSMT;font-size:11.04px;stroke:none;">-</text>
  </g>
  <g begin="text">
   <text y="192.5" x="503.98,511.299,514.413,519.215,523.41" svgx:width="0.67,0.28,0.44,0.39,0.25" style="fill:rgb(0,0,0);font-family:TimesNewRomanPSMT;font-size:11.04px;stroke:none;">Ries </text>
  </g>
  <g begin="text">
   <text y="192.5" x="48.0" svgx:width="0.5" style="fill:rgb(0,0,0);font-family:TimesNewRomanPSMT;font-size:12.0px;stroke:none;">7</text>
  </g>
  <g begin="text">
   <text y="192.5" x="54.024" svgx:width="0.25" style="fill:rgb(0,0,0);font-family:TimesNewRomanPSMT;font-size:12.0px;stroke:none;"> </text>
  </g>
  <g begin="text">
   <text y="205.1" x="72.024,75.733,83.649,88.551,92.172,100.805,105.707,111.227,116.648,120.357,123.117,125.877,132.015,136.796,139.909,142.669,149.414,154.316,159.704,165.224,167.984,171.693,179.013,184.411,187.525,192.923,197.825,201.556,204.316,207.076,213.822,217.399,220.512,225.414,228.174,234.787,240.307,244.502,253.135,258.037,263.557,266.218" svgx:width="0.33,0.72,0.44,0.33,0.78,0.44,0.5,0.5,0.33,0.25,0.25,0.56,0.44,0.28,0.25,0.61,0.44,0.5,0.5,0.25,0.33,0.67,0.5,0.28,0.5,0.44,0.33,0.25,0.25,0.61,0.33,0.28,0.44,0.25,0.61,0.5,0.39,0.78,0.44,0.5,0.25,0.33" style="fill:rgb(0,0,0);font-family:TimesNewRomanPSMT;font-size:11.04px;stroke:none;">(Germany), Fei Teng (China), Eric Zusman (</text>
  </g>
  <g begin="text">
   <text y="205.1" x="270.05" svgx:width="0.28" style="fill:rgb(0,0,0);font-family:TimesNewRomanPSMT;font-size:11.04px;stroke:none;">t</text>
  </g>
  <g begin="text">
   <text y="205.1" x="273.17,278.569,283.47,286.23,294.201,299.721,302.691,305.804,310.607,316.127,318.887,325.025,328.094,332.93,336.043,340.945,345.272,347.911,353.431,357.14,359.9,367.706,376.339,381.241,384.862,387.975,392.877" svgx:width="0.5,0.44,0.25,0.72,0.5,0.28,0.28,0.44,0.5,0.25,0.56,0.28,0.44,0.28,0.44,0.39,0.25,0.5,0.33,0.25,0.72,0.78,0.44,0.33,0.28,0.44,0.44" style="fill:rgb(0,0,0);font-family:TimesNewRomanPSMT;font-size:11.04px;stroke:none;">he United States of America</text>
  </g>
  <g begin="text">
   <text y="205.1" x="397.78" svgx:width="0.33" style="fill:rgb(0,0,0);font-family:TimesNewRomanPSMT;font-size:11.04px;stroke:none;">)</text>
  </g>
  <g begin="text">
   <text y="205.1" x="401.38" svgx:width="0.25" style="fill:rgb(0,0,0);font-family:TimesNewRomanPSMT;font-size:11.04px;stroke:none;"> </text>
  </g>
  <g begin="text">
   <text y="205.1" x="48.0" svgx:width="0.5" style="fill:rgb(0,0,0);font-family:TimesNewRomanPSMT;font-size:12.0px;stroke:none;">8</text>
  </g>
  <g begin="text">
   <text y="205.1" x="54.024" svgx:width="0.25" style="fill:rgb(0,0,0);font-family:TimesNewRomanPSMT;font-size:12.0px;stroke:none;"> </text>
  </g>
  <g begin="text">
   <text y="217.7" x="48.0" svgx:width="0.5" style="fill:rgb(0,0,0);font-family:TimesNewRomanPSMT;font-size:12.0px;stroke:none;">9</text>
  </g>
  <g begin="text">
   <text y="217.7" x="54.024" svgx:width="0.25" style="fill:rgb(0,0,0);font-family:TimesNewRomanPSMT;font-size:12.0px;stroke:none;"> </text>
  </g>
  <g begin="text">
   <text y="230.42" x="72.024,79.94,85.46,91.598,95.274,100.209,103.322,109.461,115.444" svgx:width="0.72,0.5,0.56,0.33,0.44,0.28,0.56,0.56,0.33" style="fill:rgb(0,0,0);font-family:TimesNewRomanPS-BoldMT;font-size:11.04px;stroke:none;">Contribut</text>
  </g>
  <g begin="text">
   <text y="230.42" x="119.18,122.293,128.432,133.952,136.921,144.837,150.975,154.552,160.69,166.21,171.112,175.307" svgx:width="0.28,0.56,0.5,0.25,0.72,0.56,0.33,0.56,0.5,0.44,0.39,0.33" style="fill:rgb(0,0,0);font-family:TimesNewRomanPS-BoldMT;font-size:11.04px;stroke:none;">ing Authors:</text>
  </g>
  <g begin="text">
   <text y="230.42" x="179.09" svgx:width="0.25" style="fill:rgb(0,0,0);font-family:TimesNewRomanPSMT;font-size:11.04px;stroke:none;"> </text>
  </g>
  <g begin="text">
   <text y="230.42" x="182.09,190.006,195.526,198.639,204.159,209.679,214.481,217.595,223.115,228.016,231.019,238.339,243.141,247.436,250.571,255.374,260.894,265.795,271.315,276.239,279.11,282.819,290.735,296.255,301.156,304.17,308.973,317.606,322.408,325.522,330.423,334.155,336.915" svgx:width="0.72,0.5,0.28,0.5,0.5,0.44,0.28,0.5,0.44,0.25,0.67,0.44,0.39,0.28,0.44,0.5,0.44,0.5,0.44,0.25,0.33,0.72,0.5,0.44,0.28,0.44,0.78,0.44,0.28,0.44,0.33,0.25,0.25" style="fill:rgb(0,0,0);font-family:TimesNewRomanPSMT;font-size:11.04px;stroke:none;">Antonethe Castaneda (Guatemala), </text>
  </g>
  <g begin="text">
   <text y="230.42" x="339.91,349.725,355.245,358.866,361.979,366.881,372.401,375.404,383.319,388.839,394.238,397.947,402.849,407.773,412.067,415.081,422.997,427.799,433.319,436.433,439.425,446.17,451.072,454.66,458.954,463.889,469.409,472.401,476.11,484.026,488.928,494.349,502.982,507.784,511.494,516.892,520.602" svgx:width="0.89,0.5,0.33,0.28,0.44,0.5,0.25,0.72,0.5,0.5,0.33,0.44,0.44,0.39,0.25,0.72,0.44,0.5,0.28,0.25,0.61,0.44,0.33,0.39,0.44,0.5,0.25,0.33,0.72,0.44,0.5,0.78,0.44,0.33,0.5,0.33,0.25" style="fill:rgb(0,0,0);font-family:TimesNewRomanPSMT;font-size:11.04px;stroke:none;">Morten Andreas Dahl Larsen (Denmark),</text>
  </g>
  <g begin="text">
   <text y="230.42" x="523.44" svgx:width="0.25" style="fill:rgb(0,0,0);font-family:TimesNewRomanPSMT;font-size:11.04px;stroke:none;"> </text>
  </g>
  <g begin="text">
   <text y="230.42" x="42.0,48.0" svgx:width="0.5,0.5" style="fill:rgb(0,0,0);font-family:TimesNewRomanPSMT;font-size:12.0px;stroke:none;">10</text>
  </g>
  <g begin="text">
   <text y="230.42" x="54.024" svgx:width="0.25" style="fill:rgb(0,0,0);font-family:TimesNewRomanPSMT;font-size:12.0px;stroke:none;"> </text>
  </g>
  <g begin="text">
   <text y="243.05" x="72.024,78.162,83.682,87.359,92.293,97.813,102.616,105.376,111.514,117.034,125.535,130.437,133.197,136.928,140.527,146.047,151.446,154.559,159.461,163.192" svgx:width="0.56,0.5,0.33,0.44,0.5,0.44,0.25,0.56,0.5,0.78,0.44,0.25,0.33,0.33,0.5,0.5,0.28,0.44,0.33,0.25" style="fill:rgb(0,0,0);font-family:TimesNewRomanPSMT;font-size:11.04px;stroke:none;">Shreya Some (India) </text>
  </g>
  <g begin="text">
   <text y="243.05" x="165.86" svgx:width="0.25" style="fill:rgb(0,0,0);font-family:TimesNewRomanPSMT;font-size:11.04px;stroke:none;"> </text>
  </g>
  <g begin="text">
   <text y="243.05" x="42.0,48.0" svgx:width="0.5,0.5" style="fill:rgb(0,0,0);font-family:TimesNewRomanPSMT;font-size:12.0px;stroke:none;">11</text>
  </g>
  <g begin="text">
   <text y="243.05" x="54.024" svgx:width="0.25" style="fill:rgb(0,0,0);font-family:TimesNewRomanPSMT;font-size:12.0px;stroke:none;"> </text>
  </g>
  <g begin="text">
   <text y="255.77" x="42.0,48.0" svgx:width="0.5,0.5" style="fill:rgb(0,0,0);font-family:TimesNewRomanPSMT;font-size:12.0px;stroke:none;">12</text>
  </g>
  <g begin="text">
   <text y="255.77" x="54.024" svgx:width="0.25" style="fill:rgb(0,0,0);font-family:TimesNewRomanPSMT;font-size:12.0px;stroke:none;"> </text>
  </g>
  <g begin="text">
   <text y="268.37" x="72.024,79.94,84.841,90.361,93.486,98.288,106.314,109.074,116.394,122.532,125.513,129.222,134.742,139.545" svgx:width="0.72,0.44,0.5,0.28,0.44,0.72,0.25,0.67,0.56,0.28,0.33,0.5,0.44,0.39" style="fill:rgb(0,0,0);font-family:TimesNewRomanPS-BoldMT;font-size:11.04px;stroke:none;">Review Editors</text>
  </g>
  <g begin="text">
   <text y="268.37" x="143.9,147.02" svgx:width="0.28,0.25" style="fill:rgb(0,0,0);font-family:TimesNewRomanPSMT;font-size:11.04px;stroke:none;">: </text>
  </g>
  <g begin="text">
   <text y="268.37" x="149.78,157.585,160.699,164.298,167.411,172.931,177.833,180.593,188.563,193.929,197.638,202.54,207.464,212.863,217.764,220.524,228.495,233.397,238.917,241.898,244.658,248.367,254.969,258.082,263.602,266.716,272.114,277.634,280.748,285.55" svgx:width="0.72,0.28,0.33,0.28,0.5,0.44,0.25,0.72,0.5,0.33,0.44,0.44,0.5,0.44,0.25,0.72,0.44,0.5,0.28,0.25,0.33,0.61,0.28,0.5,0.28,0.5,0.5,0.28,0.44,0.33" style="fill:rgb(0,0,0);font-family:TimesNewRomanPSMT;font-size:11.04px;stroke:none;">Diriba Korecha Dadi (Ethiopia)</text>
  </g>
  <g begin="text">
   <text y="268.37" x="289.39,292.15" svgx:width="0.25,0.25" style="fill:rgb(0,0,0);font-family:TimesNewRomanPSMT;font-size:11.04px;stroke:none;">, </text>
  </g>
  <g begin="text">
   <text y="268.37" x="294.91,302.826,307.628,311.227,319.86,324.762,330.282,335.802,338.562,346.379,351.28,354.405,359.925,362.563,366.273,374.188,379.09,382.711,391.344,396.147,401.667" svgx:width="0.72,0.44,0.33,0.78,0.44,0.5,0.5,0.25,0.72,0.44,0.28,0.5,0.25,0.33,0.72,0.44,0.33,0.78,0.44,0.5,0.5" style="fill:rgb(0,0,0);font-family:TimesNewRomanPSMT;font-size:11.04px;stroke:none;">Hermann Held (Germany</text>
  </g>
  <g begin="text">
   <text y="268.37" x="407.26" svgx:width="0.33" style="fill:rgb(0,0,0);font-family:TimesNewRomanPSMT;font-size:11.04px;stroke:none;">)</text>
  </g>
  <g begin="text">
   <text y="268.37" x="410.98" svgx:width="0.25" style="fill:rgb(0,0,0);font-family:TimesNewRomanPSMT;font-size:11.04px;stroke:none;"> </text>
  </g>
  <g begin="text">
   <text y="268.37" x="42.0,48.0" svgx:width="0.5,0.5" style="fill:rgb(0,0,0);font-family:TimesNewRomanPSMT;font-size:12.0px;stroke:none;">13</text>
  </g>
  <g begin="text">
   <text y="268.37" x="54.024" svgx:width="0.25" style="fill:rgb(0,0,0);font-family:TimesNewRomanPSMT;font-size:12.0px;stroke:none;"> </text>
  </g>
  <g begin="text">
   <text y="280.97" x="42.0,48.0" svgx:width="0.5,0.5" style="fill:rgb(0,0,0);font-family:TimesNewRomanPSMT;font-size:12.0px;stroke:none;">14</text>
  </g>
  <g begin="text">
   <text y="280.97" x="54.024" svgx:width="0.25" style="fill:rgb(0,0,0);font-family:TimesNewRomanPSMT;font-size:12.0px;stroke:none;"> </text>
  </g>
  <g begin="text">
   <text y="293.69" x="72.024,79.94,86.078,91.598,97.703,101.412,106.314,111.238,113.998,120.136,124.917,128.03,132.932,138.949,142.658,145.661,149.955,153.576" svgx:width="0.72,0.56,0.5,0.56,0.33,0.44,0.44,0.25,0.56,0.44,0.28,0.44,0.56,0.33,0.28,0.39,0.33,0.33" style="fill:rgb(0,0,0);font-family:TimesNewRomanPS-BoldMT;font-size:11.04px;stroke:none;">Chapter Scientist:</text>
  </g>
  <g begin="text">
   <text y="293.69" x="157.34" svgx:width="0.25" style="fill:rgb(0,0,0);font-family:TimesNewRomanPSMT;font-size:11.04px;stroke:none;"> </text>
  </g>
  <g begin="text">
   <text y="293.69" x="160.1,168.016,173.536,176.649,182.048,187.568,192.37,195.483,201.003,205.905,208.665,216.029,220.798,225.092,228.228,233.03,238.55,243.452,248.972,253.896,256.534,260.244,268.16,273.68,278.482,281.595,286.398,295.031,299.833,302.947" svgx:width="0.72,0.5,0.28,0.5,0.5,0.44,0.28,0.5,0.44,0.25,0.67,0.44,0.39,0.28,0.44,0.5,0.44,0.5,0.44,0.25,0.33,0.72,0.5,0.44,0.28,0.44,0.78,0.44,0.28,0.44" style="fill:rgb(0,0,0);font-family:TimesNewRomanPSMT;font-size:11.04px;stroke:none;">Antonethe Castaneda (Guatemala</text>
  </g>
  <g begin="text">
   <text y="293.69" x="307.99" svgx:width="0.33" style="fill:rgb(0,0,0);font-family:TimesNewRomanPSMT;font-size:11.04px;stroke:none;">)</text>
  </g>
  <g begin="text">
   <text y="293.69" x="311.59" svgx:width="0.25" style="fill:rgb(0,0,0);font-family:TimesNewRomanPS-BoldMT;font-size:11.04px;stroke:none;"> </text>
  </g>
  <g begin="text">
   <text y="293.69" x="42.0,48.0" svgx:width="0.5,0.5" style="fill:rgb(0,0,0);font-family:TimesNewRomanPSMT;font-size:12.0px;stroke:none;">15</text>
  </g>
  <g begin="text">
   <text y="293.69" x="54.024" svgx:width="0.25" style="fill:rgb(0,0,0);font-family:TimesNewRomanPSMT;font-size:12.0px;stroke:none;"> </text>
  </g>
  <g begin="text">
   <text y="306.29" x="42.0,48.0" svgx:width="0.5,0.5" style="fill:rgb(0,0,0);font-family:TimesNewRomanPSMT;font-size:12.0px;stroke:none;">16</text>
  </g>
  <g begin="text">
   <text y="306.29" x="54.024" svgx:width="0.25" style="fill:rgb(0,0,0);font-family:TimesNewRomanPSMT;font-size:12.0px;stroke:none;"> </text>
  </g>
  <g begin="text">
   <text y="319.01" x="72.024,79.94,85.46,89.169,94.071,96.831,102.351,105.972,108.732,116.648,121.549,127.069,130.691" svgx:width="0.72,0.5,0.33,0.44,0.25,0.5,0.33,0.25,0.72,0.44,0.5,0.33,0.33" style="fill:rgb(0,0,0);font-family:TimesNewRomanPS-BoldMT;font-size:11.04px;stroke:none;">Date of Draft</text>
  </g>
  <g begin="text">
   <text y="319.01" x="134.42,137.54" svgx:width="0.28,0.25" style="fill:rgb(0,0,0);font-family:TimesNewRomanPSMT;font-size:11.04px;stroke:none;">: </text>
  </g>
  <g begin="text">
   <text y="319.01" x="140.18,145.7,151.22,154.333,159.732,165.252,168.365,173.885,179.284,184.804" svgx:width="0.5,0.5,0.28,0.5,0.5,0.28,0.5,0.5,0.5,0.5" style="fill:rgb(0,0,0);font-family:TimesNewRomanPSMT;font-size:11.04px;stroke:none;">28/11/2021</text>
  </g>
  <g begin="text">
   <text y="319.01" x="190.25" svgx:width="0.25" style="fill:rgb(0,0,0);font-family:TimesNewRomanPSMT;font-size:11.04px;stroke:none;"> </text>
  </g>
  <g begin="text">
   <text y="319.01" x="42.0,48.0" svgx:width="0.5,0.5" style="fill:rgb(0,0,0);font-family:TimesNewRomanPSMT;font-size:12.0px;stroke:none;">17</text>
  </g>
  <g begin="text">
   <text y="319.01" x="54.024" svgx:width="0.25" style="fill:rgb(0,0,0);font-family:TimesNewRomanPSMT;font-size:12.0px;stroke:none;"> </text>
  </g>
  <g begin="text">
   <text y="332.57" x="42.0,48.0" svgx:width="0.5,0.5" style="fill:rgb(0,0,0);font-family:TimesNewRomanPSMT;font-size:12.0px;stroke:none;">18</text>
  </g>
  <g begin="text">
   <text y="332.57" x="54.024" svgx:width="0.25" style="fill:rgb(0,0,0);font-family:TimesNewRomanPSMT;font-size:12.0px;stroke:none;"> </text>
  </g>
  <g begin="text">
   <text y="602.109" transform="matrix(0.70711,-0.70711,0.70711,0.70711,-395.12956,250.29085)" rotateDegrees="-45" matrix="[29.803345,29.803345,-29.803345,29.803345,104.563255,239.8115]" x="104.563" svgx:width="0.67" style="fill:rgb(0,0,0);font-family:Arial;font-size:42.15px;stroke:none;">A</text>
   <text y="582.23" transform="matrix(0.70711,-0.70711,0.70711,0.70711,-375.25056,258.525)" rotateDegrees="-45" matrix="[29.803345,29.803345,-29.803345,29.803345,124.442085,259.6903]" x="124.442" svgx:width="0.72" style="fill:rgb(0,0,0);font-family:Arial;font-size:42.15px;stroke:none;">C</text>
   <text y="560.712" transform="matrix(0.70711,-0.70711,0.70711,0.70711,-353.73256,267.43805)" rotateDegrees="-45" matrix="[29.803345,29.803345,-29.803345,29.803345,145.9601,281.20834]" x="145.96" svgx:width="0.72" style="fill:rgb(0,0,0);font-family:Arial;font-size:42.15px;stroke:none;">C</text>
   <text y="539.194" transform="matrix(0.70711,-0.70711,0.70711,0.70711,-332.21456,276.3511)" rotateDegrees="-45" matrix="[29.803345,29.803345,-29.803345,29.803345,167.47812,302.72635]" x="167.478" svgx:width="0.67" style="fill:rgb(0,0,0);font-family:Arial;font-size:42.15px;stroke:none;">E</text>
   <text y="519.315" transform="matrix(0.70711,-0.70711,0.70711,0.70711,-312.33556,284.58525)" rotateDegrees="-45" matrix="[29.803345,29.803345,-29.803345,29.803345,187.35693,322.60516]" x="187.357" svgx:width="0.67" style="fill:rgb(0,0,0);font-family:Arial;font-size:42.15px;stroke:none;">P</text>
   <text y="499.436" transform="matrix(0.70711,-0.70711,0.70711,0.70711,-292.45656,292.8194)" rotateDegrees="-45" matrix="[29.803345,29.803345,-29.803345,29.803345,207.23578,342.484]" x="207.236" svgx:width="0.61" style="fill:rgb(0,0,0);font-family:Arial;font-size:42.15px;stroke:none;">T</text>
   <text y="481.226" transform="matrix(0.70711,-0.70711,0.70711,0.70711,-274.24656,300.36223)" rotateDegrees="-45" matrix="[29.803345,29.803345,-29.803345,29.803345,225.44562,360.69385]" x="225.446" svgx:width="0.67" style="fill:rgb(0,0,0);font-family:Arial;font-size:42.15px;stroke:none;">E</text>
   <text y="461.347" transform="matrix(0.70711,-0.70711,0.70711,0.70711,-254.36786,308.59567)" rotateDegrees="-45" matrix="[29.803345,29.803345,-29.803345,29.803345,245.32443,380.57266]" x="245.324" svgx:width="0.72" style="fill:rgb(0,0,0);font-family:Arial;font-size:42.15px;stroke:none;">D</text>
   <text y="439.829" transform="matrix(0.70711,-0.70711,0.70711,0.70711,-232.84986,317.50872)" rotateDegrees="-45" matrix="[29.803345,29.803345,-29.803345,29.803345,266.84247,402.0907]" x="266.842" svgx:width="0.28" style="fill:rgb(0,0,0);font-family:Arial;font-size:42.15px;stroke:none;"> </text>
   <text y="431.544" transform="matrix(0.70711,-0.70711,0.70711,0.70711,-224.56456,320.94119)" rotateDegrees="-45" matrix="[29.803345,29.803345,-29.803345,29.803345,275.12778,410.37604]" x="275.128" svgx:width="0.67" style="fill:rgb(0,0,0);font-family:Arial;font-size:42.15px;stroke:none;">V</text>
   <text y="411.665" transform="matrix(0.70711,-0.70711,0.70711,0.70711,-204.68556,329.17534)" rotateDegrees="-45" matrix="[29.803345,29.803345,-29.803345,29.803345,295.0066,430.25485]" x="295.007" svgx:width="0.67" style="fill:rgb(0,0,0);font-family:Arial;font-size:42.15px;stroke:none;">E</text>
   <text y="391.786" transform="matrix(0.70711,-0.70711,0.70711,0.70711,-184.80686,337.40878)" rotateDegrees="-45" matrix="[29.803345,29.803345,-29.803345,29.803345,314.88544,450.13367]" x="314.885" svgx:width="0.72" style="fill:rgb(0,0,0);font-family:Arial;font-size:42.15px;stroke:none;">R</text>
   <text y="370.268" transform="matrix(0.70711,-0.70711,0.70711,0.70711,-163.28886,346.32183)" rotateDegrees="-45" matrix="[29.803345,29.803345,-29.803345,29.803345,336.40344,471.65167]" x="336.403" svgx:width="0.67" style="fill:rgb(0,0,0);font-family:Arial;font-size:42.15px;stroke:none;">S</text>
   <text y="350.389" transform="matrix(0.70711,-0.70711,0.70711,0.70711,-143.40986,354.55598)" rotateDegrees="-45" matrix="[29.803345,29.803345,-29.803345,29.803345,356.2823,491.53052]" x="356.282" svgx:width="0.28" style="fill:rgb(0,0,0);font-family:Arial;font-size:42.15px;stroke:none;">I</text>
   <text y="342.104" transform="matrix(0.70711,-0.70711,0.70711,0.70711,-135.12456,357.98845)" rotateDegrees="-45" matrix="[29.803345,29.803345,-29.803345,29.803345,364.56763,499.81586]" x="364.568" svgx:width="0.78" style="fill:rgb(0,0,0);font-family:Arial;font-size:42.15px;stroke:none;">O</text>
   <text y="318.917" transform="matrix(0.70711,-0.70711,0.70711,0.70711,-111.93756,367.59282)" rotateDegrees="-45" matrix="[29.803345,29.803345,-29.803345,29.803345,387.75458,523.0028]" x="387.755" svgx:width="0.72" style="fill:rgb(0,0,0);font-family:Arial;font-size:42.15px;stroke:none;">N</text>
   <text y="297.399" transform="matrix(0.70711,-0.70711,0.70711,0.70711,-90.41956,376.50586)" rotateDegrees="-45" matrix="[29.803345,29.803345,-29.803345,29.803345,409.27264,544.5209]" x="409.273" svgx:width="0.28" style="fill:rgb(0,0,0);font-family:Arial;font-size:42.15px;stroke:none;"> </text>
   <text y="637.872" transform="matrix(0.70711,-0.70711,0.70711,0.70711,-409.94279,286.05456)" rotateDegrees="-45" matrix="[29.803345,29.803345,-29.803345,29.803345,140.32727,204.04747]" x="140.327" svgx:width="0.67" style="fill:rgb(0,0,0);font-family:Arial;font-size:42.15px;stroke:none;">S</text>
   <text y="617.994" transform="matrix(0.70711,-0.70711,0.70711,0.70711,-390.0645,294.289)" rotateDegrees="-45" matrix="[29.803345,29.803345,-29.803345,29.803345,160.2061,223.9263]" x="160.206" svgx:width="0.72" style="fill:rgb(0,0,0);font-family:Arial;font-size:42.15px;stroke:none;">U</text>
   <text y="596.476" transform="matrix(0.70711,-0.70711,0.70711,0.70711,-368.5465,303.20205)" rotateDegrees="-45" matrix="[29.803345,29.803345,-29.803345,29.803345,181.72412,245.4443]" x="181.724" svgx:width="0.67" style="fill:rgb(0,0,0);font-family:Arial;font-size:42.15px;stroke:none;">B</text>
   <text y="576.597" transform="matrix(0.70711,-0.70711,0.70711,0.70711,-348.6675,311.4362)" rotateDegrees="-45" matrix="[29.803345,29.803345,-29.803345,29.803345,201.60294,265.32315]" x="201.603" svgx:width="0.5" style="fill:rgb(0,0,0);font-family:Arial;font-size:42.15px;stroke:none;">J</text>
   <text y="561.695" transform="matrix(0.70711,-0.70711,0.70711,0.70711,-333.7655,317.60881)" rotateDegrees="-45" matrix="[29.803345,29.803345,-29.803345,29.803345,216.50462,280.22482]" x="216.505" svgx:width="0.67" style="fill:rgb(0,0,0);font-family:Arial;font-size:42.15px;stroke:none;">E</text>
   <text y="541.816" transform="matrix(0.70711,-0.70711,0.70711,0.70711,-313.88679,325.84225)" rotateDegrees="-45" matrix="[29.803345,29.803345,-29.803345,29.803345,236.38344,300.10364]" x="236.383" svgx:width="0.72" style="fill:rgb(0,0,0);font-family:Arial;font-size:42.15px;stroke:none;">C</text>
   <text y="520.298" transform="matrix(0.70711,-0.70711,0.70711,0.70711,-292.36879,334.7553)" rotateDegrees="-45" matrix="[29.803345,29.803345,-29.803345,29.803345,257.90146,321.62164]" x="257.901" svgx:width="0.61" style="fill:rgb(0,0,0);font-family:Arial;font-size:42.15px;stroke:none;">T</text>
   <text y="502.089" transform="matrix(0.70711,-0.70711,0.70711,0.70711,-274.1595,342.29842)" rotateDegrees="-45" matrix="[29.803345,29.803345,-29.803345,29.803345,276.1113,339.83148]" x="276.111" svgx:width="0.28" style="fill:rgb(0,0,0);font-family:Arial;font-size:42.15px;stroke:none;"> </text>
   <text y="493.803" transform="matrix(0.70711,-0.70711,0.70711,0.70711,-265.8735,345.7306)" rotateDegrees="-45" matrix="[29.803345,29.803345,-29.803345,29.803345,284.3966,348.11682]" x="284.397" svgx:width="0.61" style="fill:rgb(0,0,0);font-family:Arial;font-size:42.15px;stroke:none;">T</text>
   <text y="475.593" transform="matrix(0.70711,-0.70711,0.70711,0.70711,-247.66379,353.27272)" rotateDegrees="-45" matrix="[29.803345,29.803345,-29.803345,29.803345,302.60648,366.32666]" x="302.606" svgx:width="0.78" style="fill:rgb(0,0,0);font-family:Arial;font-size:42.15px;stroke:none;">O</text>
   <text y="452.406" transform="matrix(0.70711,-0.70711,0.70711,0.70711,-224.47679,362.87709)" rotateDegrees="-45" matrix="[29.803345,29.803345,-29.803345,29.803345,325.79346,389.51367]" x="325.793" svgx:width="0.28" style="fill:rgb(0,0,0);font-family:Arial;font-size:42.15px;stroke:none;"> </text>
   <text y="444.136" transform="matrix(0.70711,-0.70711,0.70711,0.70711,-216.2065,366.30334)" rotateDegrees="-45" matrix="[29.803345,29.803345,-29.803345,29.803345,334.0639,397.78412]" x="334.064" svgx:width="0.61" style="fill:rgb(0,0,0);font-family:Arial;font-size:42.15px;stroke:none;">F</text>
   <text y="425.926" transform="matrix(0.70711,-0.70711,0.70711,0.70711,-197.9965,373.84617)" rotateDegrees="-45" matrix="[29.803345,29.803345,-29.803345,29.803345,352.27374,415.99396]" x="352.274" svgx:width="0.28" style="fill:rgb(0,0,0);font-family:Arial;font-size:42.15px;stroke:none;">I</text>
   <text y="417.641" transform="matrix(0.70711,-0.70711,0.70711,0.70711,-189.7115,377.27793)" rotateDegrees="-45" matrix="[29.803345,29.803345,-29.803345,29.803345,360.55908,424.2793]" x="360.559" svgx:width="0.72" style="fill:rgb(0,0,0);font-family:Arial;font-size:42.15px;stroke:none;">N</text>
   <text y="396.123" transform="matrix(0.70711,-0.70711,0.70711,0.70711,-168.1935,386.19098)" rotateDegrees="-45" matrix="[29.803345,29.803345,-29.803345,29.803345,382.0771,445.7973]" x="382.077" svgx:width="0.67" style="fill:rgb(0,0,0);font-family:Arial;font-size:42.15px;stroke:none;">A</text>
   <text y="376.244" transform="matrix(0.70711,-0.70711,0.70711,0.70711,-148.3145,394.42513)" rotateDegrees="-45" matrix="[29.803345,29.803345,-29.803345,29.803345,401.95593,465.67615]" x="401.956" svgx:width="0.56" style="fill:rgb(0,0,0);font-family:Arial;font-size:42.15px;stroke:none;">L</text>
   <text y="359.673" transform="matrix(0.70711,-0.70711,0.70711,0.70711,-131.7435,401.28906)" rotateDegrees="-45" matrix="[29.803345,29.803345,-29.803345,29.803345,418.5266,482.24677]" x="418.527" svgx:width="0.28" style="fill:rgb(0,0,0);font-family:Arial;font-size:42.15px;stroke:none;"> </text>
   <text y="351.388" transform="matrix(0.70711,-0.70711,0.70711,0.70711,-123.4585,404.72082)" rotateDegrees="-45" matrix="[29.803345,29.803345,-29.803345,29.803345,426.8119,490.5321]" x="426.812" svgx:width="0.67" style="fill:rgb(0,0,0);font-family:Arial;font-size:42.15px;stroke:none;">E</text>
   <text y="331.509" transform="matrix(0.70711,-0.70711,0.70711,0.70711,-103.5795,412.95497)" rotateDegrees="-45" matrix="[29.803345,29.803345,-29.803345,29.803345,446.69073,510.41095]" x="446.691" svgx:width="0.72" style="fill:rgb(0,0,0);font-family:Arial;font-size:42.15px;stroke:none;">D</text>
   <text y="309.991" transform="matrix(0.70711,-0.70711,0.70711,0.70711,-82.0615,421.86802)" rotateDegrees="-45" matrix="[29.803345,29.803345,-29.803345,29.803345,468.20874,531.92896]" x="468.209" svgx:width="0.28" style="fill:rgb(0,0,0);font-family:Arial;font-size:42.15px;stroke:none;">I</text>
   <text y="301.706" transform="matrix(0.70711,-0.70711,0.70711,0.70711,-73.7765,425.29978)" rotateDegrees="-45" matrix="[29.803345,29.803345,-29.803345,29.803345,476.49408,540.2143]" x="476.494" svgx:width="0.61" style="fill:rgb(0,0,0);font-family:Arial;font-size:42.15px;stroke:none;">T</text>
   <text y="283.496" transform="matrix(0.70711,-0.70711,0.70711,0.70711,-55.5665,432.84261)" rotateDegrees="-45" matrix="[29.803345,29.803345,-29.803345,29.803345,494.70392,558.42413]" x="494.704" svgx:width="0.67" style="fill:rgb(0,0,0);font-family:Arial;font-size:42.15px;stroke:none;">S</text>
  </g>
 </g>
</svg>
