<?xml version="1.0" encoding="UTF-8"?>
<svg height="683.74" width="534.46" xmlns="http://www.w3.org/2000/svg">
 <g id="page" xmlns:svgx="http://www.xml-cml.org/schema/svgx">
  <g begin="text">
   <text y="84.18" x="149.34,162.0,170.941,174.114,177.833,181.551,185.27,188.443,194.323,201.824,209.384,214.245,219.225,222.65,230.143,237.636,242.497,245.922,253.423,260.916,264.089,269.01,276.51,279.684,284.543,292.037,299.055,302.228,308.827,312.252,318.671,323.591,331.084,334.258,342.716,348.295,353.874,360.892,366.473,372.053,383.512,390.53,398.023,402.883,406.056,413.913,420.931,428.491,435.992,441.031,445.982" svgx:width="0.91,0.64,0.23,0.27,0.27,0.27,0.23,0.42,0.54,0.54,0.35,0.35,0.25,0.54,0.54,0.35,0.25,0.54,0.54,0.23,0.35,0.54,0.23,0.35,0.54,0.5,0.23,0.47,0.25,0.46,0.35,0.54,0.23,0.61,0.4,0.4,0.5,0.4,0.4,0.81,0.5,0.54,0.35,0.23,0.56,0.5,0.54,0.54,0.35,0.35,0.23" style="fill:rgb(0,0,0);font-family:Calibri-Bold;font-size:13.98px;stroke:none;">WG III contribution to the Sixth Assessment Report </text>
   <text y="99.36" x="205.44,210.54,213.48,218.28,222.42,225.12,231.6,235.38,238.08,243.12,249.6,253.86,258.12,261.06,266.7,272.76,279.18,285.6,291.54,294.24,298.38,304.86,307.56,313.981,320.041,322.741,325.741,335.521,341.941,344.881,350.941,360.721,366.781,373.201,377.341,383.401,389.82" svgx:width="0.42,0.25,0.4,0.35,0.23,0.54,0.32,0.23,0.42,0.54,0.35,0.35,0.25,0.47,0.5,0.54,0.54,0.49,0.23,0.35,0.54,0.23,0.54,0.5,0.23,0.25,0.81,0.54,0.25,0.5,0.81,0.5,0.54,0.35,0.5,0.54,0.23" style="fill:rgb(0,0,0);font-family:Calibri-Bold;font-size:12.0px;stroke:none;">List of corrigenda to be implemented </text>
   <text y="112.92" x="94.92,101.64,107.756,113.871,116.935,122.456,128.572,132.232,135.892,138.351,144.467,150.527,156.643,162.759,168.875,171.938,174.398,176.858,182.378,185.441,191.557,197.673,200.736,206.796,212.912,215.372,221.488,229.407,232.471,240.391,242.85,245.31,247.77,250.834,256.95,263.066,266.065,268.525,277.645,283.761,286.22,292.336,301.456,307.572,313.688,316.751,322.932,329.048,332.111,334.571,340.686,343.75,346.813,352.929,359.045,362.108,370.028,376.144,382.26,388.376,391.439,397.555,401.215,404.278,410.394,416.51,420.169,422.63,428.746,434.862,437.925,443.385,449.501,455.617,461.224,464.88,470.996,477.112,479.571,482.635,485.094,491.21,497.326,500.345" svgx:width="0.61,0.56,0.56,0.28,0.5,0.56,0.33,0.33,0.22,0.56,0.56,0.56,0.56,0.56,0.28,0.22,0.22,0.5,0.28,0.56,0.56,0.28,0.56,0.56,0.22,0.56,0.72,0.28,0.72,0.22,0.22,0.22,0.28,0.56,0.56,0.28,0.22,0.83,0.56,0.22,0.56,0.83,0.56,0.56,0.28,0.56,0.56,0.28,0.22,0.56,0.28,0.28,0.56,0.56,0.28,0.72,0.56,0.56,0.56,0.28,0.56,0.33,0.28,0.56,0.56,0.33,0.22,0.56,0.56,0.28,0.5,0.56,0.56,0.5,0.33,0.56,0.56,0.22,0.28,0.22,0.56,0.56,0.28,0.28" style="fill:rgb(255,0,0);font-family:ArialMT;font-size:10.98px;stroke:none;">The corrigenda listed below will be implemented in the Chapter during copy-editing. </text>
   <text y="125.525" x="297.666" svgx:width="0.28" style="fill:rgb(255,0,0);font-family:ArialMT;font-size:10.98px;stroke:none;"> </text>
   <text y="135.48" x="70.86" svgx:width="0.23" style="fill:rgb(255,0,0);font-family:Calibri;font-size:7.98px;stroke:none;"> </text>
   <text y="150.96" x="70.86,78.241,87.061,95.519,103.02,109.919,116.759,124.616,127.859,134.933,142.074" svgx:width="0.53,0.63,0.61,0.53,0.5,0.49,0.56,0.23,0.51,0.51,0.23" style="fill:rgb(192,0,0);font-family:Calibri-Bold;font-size:13.98px;stroke:none;">CHAPTER 17 </text>
   <text y="165.24" x="70.86" svgx:width="0.23" style="fill:rgb(0,0,0);font-family:Calibri;font-size:10.98px;stroke:none;"> </text>
  </g>
  <path style="fill:rgb(217,225,242);stroke:none;stroke-width:1.0;" d="M71.340 610.260 L127.560 610.260 L127.560 673.260 L71.340 673.260 L71.340 610.260 "/>
  <path style="fill:rgb(217,225,242);stroke:none;stroke-width:1.0;" d="M76.500 661.020 L122.400 661.020 L122.400 673.260 L76.500 673.260 L76.500 661.020 "/>
  <g begin="text">
   <text y="178.14" x="77.82,84.12,89.52,93.719,99.058,107.215,112.255,117.655,121.074" svgx:width="0.63,0.54,0.42,0.54,0.81,0.5,0.54,0.35,0.23" style="fill:rgb(0,0,0);font-family:Calibri-Bold;font-size:10.02px;stroke:none;">Document </text>
  </g>
  <path style="fill:rgb(217,225,242);stroke:none;stroke-width:1.0;" d="M71.340 610.260 L127.560 610.260 L127.560 673.260 L71.340 673.260 L71.340 610.260 M76.500 648.840 L122.400 648.840 L122.400 661.020 L76.500 661.020 L76.500 648.840 "/>
  <g begin="text">
   <text y="190.38" x="80.04,83.16,88.44,93.841,98.76,104.16,107.637,112.677,116.217,118.797" svgx:width="0.31,0.53,0.54,0.49,0.54,0.35,0.5,0.35,0.26,0.23" style="fill:rgb(0,0,0);font-family:Calibri-Bold;font-size:10.02px;stroke:none;">(Chapter, </text>
  </g>
  <path style="fill:rgb(217,225,242);stroke:none;stroke-width:1.0;" d="M76.500 636.600 L122.400 636.600 L122.400 648.840 L76.500 648.840 L76.500 636.600 "/>
  <g begin="text">
   <text y="202.56" x="84.9,90.96,96.361,101.762,106.742,111.361,113.941" svgx:width="0.61,0.54,0.54,0.5,0.46,0.26,0.23" style="fill:rgb(0,0,0);font-family:Calibri-Bold;font-size:10.02px;stroke:none;">Annex, </text>
  </g>
  <path style="fill:rgb(217,225,242);stroke:none;stroke-width:1.0;" d="M76.500 624.420 L122.400 624.420 L122.400 636.600 L76.500 636.600 L76.500 624.420 "/>
  <g begin="text">
   <text y="214.8" x="87.66,92.4,97.8,103.141,108.541,111.176" svgx:width="0.47,0.54,0.54,0.54,0.27,0.23" style="fill:rgb(0,0,0);font-family:Calibri-Bold;font-size:10.02px;stroke:none;">Supp. </text>
  </g>
  <path style="fill:rgb(217,225,242);stroke:none;stroke-width:1.0;" d="M76.500 612.240 L122.400 612.240 L122.400 624.420 L76.500 624.420 L76.500 612.240 "/>
  <g begin="text">
   <text y="226.98" x="80.1,88.857,93.778,97.255,102.295,105.835,108.295,113.215,115.675,118.797" svgx:width="0.87,0.49,0.35,0.5,0.35,0.25,0.49,0.25,0.31,0.23" style="fill:rgb(0,0,0);font-family:Calibri-Bold;font-size:10.02px;stroke:none;">Material) </text>
  </g>
  <path style="fill:rgb(217,225,242);stroke:none;stroke-width:1.0;" d="M127.800 610.260 L184.260 610.260 L184.260 673.260 L127.800 673.260 L127.800 610.260 "/>
  <path style="fill:rgb(217,225,242);stroke:none;stroke-width:1.0;" d="M133.200 661.020 L179.100 661.020 L179.100 673.260 L133.200 673.260 L133.200 661.020 "/>
  <g begin="text">
   <text y="178.14" x="146.1,151.44,156.359,161.099" svgx:width="0.53,0.49,0.47,0.5" style="fill:rgb(0,0,0);font-family:Calibri-Bold;font-size:10.02px;stroke:none;">Page</text>
  </g>
  <g begin="text">
   <text y="178.14" x="166.14" svgx:width="0.23" style="fill:rgb(0,0,0);font-family:Calibri-Bold;font-size:10.02px;stroke:none;"> </text>
  </g>
  <path style="fill:rgb(217,225,242);stroke:none;stroke-width:1.0;" d="M127.800 610.260 L184.260 610.260 L184.260 673.260 L127.800 673.260 L127.800 610.260 M127.800 610.260 L184.260 610.260 L184.260 673.260 L127.800 673.260 L127.800 610.260 M133.200 648.840 L179.100 648.840 L179.100 661.020 L133.200 661.020 L133.200 648.840 "/>
  <g begin="text">
   <text y="190.38" x="135.6,138.72,144.362,149.281,153.299,158.279,163.68,165.96,171.3,176.701" svgx:width="0.31,0.56,0.49,0.4,0.5,0.54,0.23,0.54,0.54,0.23" style="fill:rgb(0,0,0);font-family:Calibri-Bold;font-size:10.02px;stroke:none;">(Based on </text>
  </g>
  <path style="fill:rgb(217,225,242);stroke:none;stroke-width:1.0;" d="M133.200 636.600 L179.100 636.600 L179.100 648.840 L133.200 648.840 L133.200 636.600 "/>
  <g begin="text">
   <text y="202.56" x="138.84,142.317,147.717,152.757,155.042,158.163,160.622,166.022,170.942,173.402" svgx:width="0.35,0.54,0.5,0.23,0.32,0.25,0.54,0.49,0.25,0.23" style="fill:rgb(0,0,0);font-family:Calibri-Bold;font-size:10.02px;stroke:none;">the final </text>
  </g>
  <path style="fill:rgb(217,225,242);stroke:none;stroke-width:1.0;" d="M133.200 624.420 L179.100 624.420 L179.100 636.600 L133.200 636.600 L133.200 624.420 "/>
  <g begin="text">
   <text y="214.8" x="139.38,144.781,150.182,153.302,155.586,160.206,166.565,172.865" svgx:width="0.54,0.54,0.32,0.23,0.46,0.64,0.63,0.23" style="fill:rgb(0,0,0);font-family:Calibri-Bold;font-size:10.02px;stroke:none;">pdf FGD </text>
  </g>
  <path style="fill:rgb(217,225,242);stroke:none;stroke-width:1.0;" d="M133.200 612.240 L179.100 612.240 L179.100 624.420 L133.200 624.420 L133.200 612.240 "/>
  <g begin="text">
   <text y="226.98" x="139.32,144.059,149.1,152.639,156.659,159.124,164.463,169.863,172.917" svgx:width="0.47,0.5,0.35,0.4,0.25,0.54,0.54,0.31,0.23" style="fill:rgb(0,0,0);font-family:Calibri-Bold;font-size:10.02px;stroke:none;">version) </text>
  </g>
  <path style="fill:rgb(217,225,242);stroke:none;stroke-width:1.0;" d="M184.500 610.260 L240.960 610.260 L240.960 673.260 L184.500 673.260 L184.500 610.260 "/>
  <path style="fill:rgb(217,225,242);stroke:none;stroke-width:1.0;" d="M189.900 661.020 L235.800 661.020 L235.800 673.260 L189.900 673.260 L189.900 661.020 "/>
  <g begin="text">
   <text y="178.14" x="204.3,208.559,211.019,216.42" svgx:width="0.42,0.25,0.54,0.5" style="fill:rgb(0,0,0);font-family:Calibri-Bold;font-size:10.02px;stroke:none;">Line</text>
  </g>
  <g begin="text">
   <text y="178.14" x="221.4" svgx:width="0.23" style="fill:rgb(0,0,0);font-family:Calibri-Bold;font-size:10.02px;stroke:none;"> </text>
  </g>
  <path style="fill:rgb(217,225,242);stroke:none;stroke-width:1.0;" d="M184.500 610.260 L240.960 610.260 L240.960 673.260 L184.500 673.260 L184.500 610.260 M184.500 610.260 L240.960 610.260 L240.960 673.260 L184.500 673.260 L184.500 610.260 "/>
  <g begin="text">
   <text y="178.14" x="292.14,298.44,303.48,306.96,311.879,314.339,316.799,321.839,327.239,329.524,331.923,337.323,340.5,345.9,349.38,357.537,362.456,365.936,368.396,373.797,379.137,381.416,386.756,392.157,394.436,398.575,403.976,407.516,411.055,416.095,420.294,423.774,426.234,431.634,436.974,439.254,442.735,448.074,450.354,458.51,463.43,468.169" svgx:width="0.63,0.5,0.35,0.49,0.25,0.25,0.5,0.54,0.23,0.25,0.54,0.32,0.54,0.35,0.81,0.49,0.35,0.25,0.54,0.54,0.23,0.54,0.54,0.23,0.42,0.54,0.35,0.35,0.5,0.42,0.35,0.25,0.54,0.54,0.23,0.35,0.54,0.23,0.81,0.49,0.48,0.5" style="fill:rgb(0,0,0);font-family:Calibri-Bold;font-size:10.02px;stroke:none;">Detailed information on correction to make</text>
  </g>
  <g begin="text">
   <text y="178.14" x="473.22" svgx:width="0.23" style="fill:rgb(0,0,0);font-family:Calibri-Bold;font-size:10.02px;stroke:none;"> </text>
  </g>
  <path style="fill:rgb(0,0,0);stroke:none;stroke-width:1.0;" d="M70.860 673.260 L71.340 673.260 L71.340 673.740 L70.860 673.740 L70.860 673.260 "/>
  <path style="fill:rgb(0,0,0);stroke:none;stroke-width:1.0;" d="M70.860 673.260 L71.340 673.260 L71.340 673.740 L70.860 673.740 L70.860 673.260 "/>
  <path style="fill:rgb(0,0,0);stroke:none;stroke-width:1.0;" d="M71.340 673.260 L127.560 673.260 L127.560 673.740 L71.340 673.740 L71.340 673.260 "/>
  <path style="fill:rgb(0,0,0);stroke:none;stroke-width:1.0;" d="M127.560 673.260 L128.040 673.260 L128.040 673.740 L127.560 673.740 L127.560 673.260 "/>
  <path style="fill:rgb(0,0,0);stroke:none;stroke-width:1.0;" d="M128.040 673.260 L184.260 673.260 L184.260 673.740 L128.040 673.740 L128.040 673.260 "/>
  <path style="fill:rgb(0,0,0);stroke:none;stroke-width:1.0;" d="M184.260 673.260 L184.740 673.260 L184.740 673.740 L184.260 673.740 L184.260 673.260 "/>
  <path style="fill:rgb(0,0,0);stroke:none;stroke-width:1.0;" d="M184.740 673.260 L240.960 673.260 L240.960 673.740 L184.740 673.740 L184.740 673.260 "/>
  <path style="fill:rgb(0,0,0);stroke:none;stroke-width:1.0;" d="M240.960 673.260 L241.440 673.260 L241.440 673.740 L240.960 673.740 L240.960 673.260 "/>
  <path style="fill:rgb(0,0,0);stroke:none;stroke-width:1.0;" d="M523.980 673.260 L524.460 673.260 L524.460 673.740 L523.980 673.740 L523.980 673.260 "/>
  <path style="fill:rgb(0,0,0);stroke:none;stroke-width:1.0;" d="M523.980 673.260 L524.460 673.260 L524.460 673.740 L523.980 673.740 L523.980 673.260 "/>
  <path style="fill:rgb(0,0,0);stroke:none;stroke-width:1.0;" d="M70.860 610.260 L71.340 610.260 L71.340 673.260 L70.860 673.260 L70.860 610.260 "/>
  <path style="fill:rgb(0,0,0);stroke:none;stroke-width:1.0;" d="M127.560 610.260 L128.040 610.260 L128.040 673.260 L127.560 673.260 L127.560 610.260 "/>
  <path style="fill:rgb(0,0,0);stroke:none;stroke-width:1.0;" d="M184.260 610.260 L184.740 610.260 L184.740 673.260 L184.260 673.260 L184.260 610.260 "/>
  <path style="fill:rgb(0,0,0);stroke:none;stroke-width:1.0;" d="M240.960 610.260 L241.440 610.260 L241.440 673.260 L240.960 673.260 L240.960 610.260 "/>
  <path style="fill:rgb(0,0,0);stroke:none;stroke-width:1.0;" d="M523.980 610.260 L524.460 610.260 L524.460 673.260 L523.980 673.260 L523.980 610.260 "/>
  <g begin="text">
   <text y="241.62" x="76.5,81.841,87.121,91.921,97.201,100.558,105.538,108.958,111.242,116.282" svgx:width="0.53,0.52,0.48,0.52,0.34,0.5,0.35,0.23,0.51,0.51" style="fill:rgb(0,0,0);font-family:Calibri;font-size:10.02px;stroke:none;">Chapter 17</text>
  </g>
  <g begin="text">
   <text y="241.62" x="121.32" svgx:width="0.23" style="fill:rgb(0,0,0);font-family:Calibri;font-size:10.02px;stroke:none;"> </text>
  </g>
  <g begin="text">
   <text y="241.62" x="133.2,138.3" svgx:width="0.51,0.51" style="fill:rgb(0,0,0);font-family:Calibri;font-size:10.02px;stroke:none;">24</text>
  </g>
  <g begin="text">
   <text y="241.62" x="143.34" svgx:width="0.23" style="fill:rgb(0,0,0);font-family:Calibri;font-size:10.02px;stroke:none;"> </text>
  </g>
  <g begin="text">
   <text y="241.62" x="189.9,195.0" svgx:width="0.51,0.51" style="fill:rgb(0,0,0);font-family:Calibri;font-size:10.02px;stroke:none;">51</text>
  </g>
  <g begin="text">
   <text y="241.62" x="200.1" svgx:width="0.31" style="fill:rgb(0,0,0);font-family:Calibri;font-size:10.02px;stroke:none;">-</text>
  </g>
  <g begin="text">
   <text y="241.62" x="203.1,208.2" svgx:width="0.51,0.51" style="fill:rgb(0,0,0);font-family:Calibri;font-size:10.02px;stroke:none;">53</text>
  </g>
  <g begin="text">
   <text y="241.62" x="213.24" svgx:width="0.23" style="fill:rgb(0,0,0);font-family:Calibri;font-size:10.02px;stroke:none;"> </text>
  </g>
  <g begin="text">
   <text y="241.62" x="246.6,251.94,257.22,262.02,264.3,266.58,271.86,276.66,280.56,282.78,288.061,290.341,293.701,298.982,303.961,307.381,310.741,316.022,318.301,323.582,328.563,333.482,338.763,341.047,344.347,349.628,354.608,356.887,362.108,367.327,375.307,377.587,382.868,387.669,392.949,396.31,398.589,403.509,408.79,413.77,417.25,421.93,426.489,428.709,432.608,437.889,443.169,446.649,450.908,455.888,458.167,460.448,465.667,467.952,473.291,478.572,480.852,486.072,490.872,493.156,497.956,503.176,508.457" svgx:width="0.53,0.53,0.48,0.23,0.23,0.52,0.48,0.39,0.23,0.52,0.23,0.34,0.52,0.5,0.35,0.34,0.53,0.23,0.52,0.5,0.5,0.52,0.23,0.34,0.52,0.5,0.23,0.52,0.53,0.8,0.23,0.52,0.48,0.52,0.34,0.23,0.5,0.52,0.5,0.35,0.47,0.45,0.23,0.39,0.53,0.52,0.35,0.42,0.5,0.23,0.23,0.52,0.23,0.53,0.52,0.23,0.52,0.48,0.23,0.48,0.52,0.52,0.23" style="fill:rgb(0,0,0);font-family:Calibri;font-size:10.02px;stroke:none;">Coal has hitherto been the dominant energy source in China and </text>
  </g>
  <g begin="text">
   <text y="253.86" x="246.6,251.881,256.68,260.58,262.859,267.659,271.859,276.119,281.339,286.619,291.899,295.256,300.176,305.456,307.676,310.732,316.013,319.494,321.773,329.753,335.034,338.513,343.493,345.773,349.13,354.35,359.15,364.43,366.65,371.75,376.85,383.99,386.27,391.55,394.555" svgx:width="0.52,0.48,0.39,0.23,0.48,0.42,0.42,0.53,0.52,0.52,0.34,0.5,0.52,0.23,0.31,0.53,0.35,0.23,0.8,0.53,0.35,0.5,0.23,0.34,0.52,0.48,0.52,0.23,0.51,0.51,0.71,0.23,0.53,0.31,0.23" style="fill:rgb(0,0,0);font-family:Calibri;font-size:10.02px;stroke:none;">has accounted for more than 70% of </text>
   <text y="266.044" x="246.6,248.88,252.236,256.136,258.416,261.772,267.053,270.41,275.209,277.489,279.773,284.753,290.033,295.013,298.433,303.173,307.673,309.952,314.213,319.493,324.773,328.613,333.893,341.873,347.153,350.509,352.789,358.069,363.289,365.568,368.569,373.85,377.33,379.614,382.971,388.251,393.231,395.451,400.731,405.53,409.43,412.787,415.071,418.428,425.508,430.488,435.769,439.125,443.625,445.905,450.465,455.445,460.244,463.724,467.564,470.084,472.381,475.437,480.236,482.517,484.736,487.017,492.296,497.037,499.316,502.673,507.893" svgx:width="0.23,0.34,0.39,0.23,0.34,0.53,0.34,0.48,0.23,0.23,0.5,0.52,0.5,0.35,0.47,0.45,0.23,0.42,0.53,0.52,0.39,0.52,0.8,0.52,0.34,0.23,0.53,0.52,0.23,0.31,0.53,0.35,0.23,0.34,0.52,0.5,0.23,0.52,0.48,0.39,0.34,0.23,0.34,0.71,0.5,0.52,0.34,0.45,0.23,0.45,0.5,0.48,0.35,0.39,0.25,0.23,0.31,0.48,0.23,0.23,0.23,0.52,0.47,0.23,0.34,0.53,0.23" style="fill:rgb(0,0,0);font-family:Calibri;font-size:10.02px;stroke:none;">its total energy consumption for the past twenty years, falling to </text>
   <text y="278.289" x="246.6,251.7,256.8,263.94,266.224,268.504,273.724,276.004,281.044,286.144,291.184,296.284,298.504,301.56,306.42,311.701,316.681,318.965,325.445,330.185,333.545,335.825,341.106,346.386,351.187,353.466,355.746,361.147,363.606,372.187,374.466,379.927,384.847,390.127,395.407,398.887,402.181" svgx:width="0.51,0.51,0.71,0.23,0.23,0.52,0.23,0.51,0.51,0.51,0.51,0.23,0.3,0.49,0.52,0.5,0.23,0.65,0.48,0.34,0.23,0.53,0.52,0.48,0.23,0.23,0.54,0.25,0.86,0.23,0.54,0.5,0.52,0.53,0.35,0.34,0.23" style="fill:rgb(0,0,0);font-family:Calibri;font-size:10.02px;stroke:none;">64% in 2015 (The National BIM Report </text>
   <text y="290.473" x="246.6,251.7,256.74,261.84,266.88,269.937,272.456,274.74,277.26,282.48,284.764,288.124,293.404,298.324,300.604,305.644,310.744,314.105,319.385,321.605,326.224,328.504,333.004,337.984,340.264,345.125,350.105,354.904,358.384,360.669,365.769,368.048,372.848,378.128,380.408,383.408,388.508,393.548,398.648,403.749,406.74,411.84,416.88,421.98,427.02,430.079,432.599,434.884,437.94,443.22,446.64,448.925,452.282,457.562,462.482,464.761,467.818,470.097,473.578,477.478,480.835,483.119,486.419,488.698,496.679,501.659" svgx:width="0.51,0.51,0.51,0.51,0.3,0.25,0.23,0.25,0.52,0.23,0.34,0.52,0.5,0.23,0.51,0.51,0.34,0.52,0.23,0.46,0.23,0.45,0.5,0.23,0.49,0.5,0.48,0.35,0.23,0.52,0.23,0.48,0.52,0.23,0.3,0.51,0.51,0.51,0.51,0.31,0.51,0.51,0.51,0.51,0.3,0.25,0.23,0.31,0.53,0.35,0.23,0.34,0.52,0.5,0.23,0.31,0.23,0.35,0.39,0.34,0.23,0.34,0.23,0.8,0.5,0.23" style="fill:rgb(0,0,0);font-family:Calibri;font-size:10.02px;stroke:none;">2018). In the 13th Five Year Plan (2016-2020), for the first time </text>
   <text y="302.718" x="246.6,251.941,257.221,259.501,264.781,269.581,271.865,274.145,279.365,283.625,285.905,291.125,296.405,301.385,306.605,308.889,312.246,317.526,322.506,324.726,328.083,332.882,336.362,341.102,346.082,349.382,351.662,356.942,359.998,362.278,367.018,369.298,374.578,379.378,382.735,385.015,390.296,395.516,400.316,402.596,404.876,409.136,414.417,419.217,421.436,423.721,427.92,433.2,438.48,442.38,447.66,455.64,460.92,464.276,466.556,471.776,477.056,479.341,483.54,488.28,493.56,495.844,501.125,504.181" svgx:width="0.53,0.52,0.23,0.52,0.48,0.23,0.23,0.52,0.42,0.23,0.52,0.52,0.5,0.52,0.23,0.34,0.52,0.5,0.23,0.34,0.48,0.35,0.47,0.5,0.34,0.23,0.53,0.31,0.23,0.48,0.23,0.52,0.48,0.34,0.23,0.53,0.52,0.48,0.23,0.23,0.42,0.53,0.48,0.23,0.23,0.42,0.53,0.52,0.39,0.52,0.8,0.52,0.34,0.23,0.53,0.52,0.23,0.42,0.48,0.52,0.23,0.53,0.31,0.23" style="fill:rgb(0,0,0);font-family:Calibri;font-size:10.02px;stroke:none;">China included the target of a national coal consumption cap of </text>
   <text y="314.902" x="246.6,251.7,254.22,259.32,261.54,266.82,269.1,271.38,273.66,275.94,281.22,286.501,288.78,292.14,297.42,302.701,306.542,308.821,311.881,317.161,320.641,322.925,327.965,333.065,338.106,343.206,345.666,347.945,352.745,356.646,358.925,366.005,370.985,373.266,375.545,377.83,382.629,386.529,388.814,393.613,395.893,400.632,405.853,410.652,412.932,415.216,420.496,423.556,425.776,429.256,434.236,439.517,444.797,449.056,451.276,456.557,461.296,463.517,466.876,472.157,477.138,479.357,484.578,488.058,490.337,498.317,503.118,506.598,511.157" svgx:width="0.51,0.25,0.51,0.23,0.52,0.23,0.23,0.23,0.23,0.53,0.52,0.23,0.34,0.53,0.52,0.39,0.23,0.31,0.53,0.35,0.23,0.51,0.51,0.51,0.51,0.25,0.23,0.48,0.39,0.23,0.71,0.5,0.23,0.23,0.23,0.48,0.39,0.23,0.48,0.23,0.47,0.53,0.48,0.23,0.23,0.53,0.31,0.23,0.35,0.5,0.52,0.52,0.42,0.23,0.52,0.47,0.23,0.34,0.52,0.5,0.23,0.52,0.35,0.23,0.8,0.48,0.35,0.45,0.23" style="fill:rgb(0,0,0);font-family:Calibri;font-size:10.02px;stroke:none;">4.1 billion tons for 2020, as well as a goal of reducing the primary </text>
   <text y="327.146" x="246.6,251.58,256.86,261.84,265.32,270.001,274.561,276.84,280.74,286.019,290.818,294.299,299.219,301.499,306.719,309.775,312.055,316.315,321.596,326.395,328.676,330.895,334.252,339.532,341.817,346.857,351.956,359.097,361.317,366.536,371.096,373.381,378.421,383.52,388.561,393.661,395.945,399.001,402.481,407.762,415.681,417.966,421.323,426.543,431.523,433.803,436.083,441.063,445.563,450.543,452.823,455.107,460.388,463.444,465.723,470.763,475.864,483.004,485.283,487.504,492.783,495.068,500.108,505.208,510.248,515.347" svgx:width="0.5,0.52,0.5,0.35,0.47,0.45,0.23,0.39,0.52,0.48,0.35,0.5,0.23,0.53,0.31,0.23,0.42,0.53,0.48,0.23,0.23,0.34,0.53,0.23,0.51,0.51,0.71,0.23,0.52,0.45,0.23,0.51,0.51,0.51,0.51,0.23,0.31,0.35,0.53,0.8,0.23,0.34,0.52,0.5,0.23,0.23,0.5,0.45,0.5,0.23,0.23,0.53,0.31,0.23,0.51,0.51,0.71,0.23,0.23,0.52,0.23,0.51,0.51,0.51,0.51,0.23" style="fill:rgb(0,0,0);font-family:Calibri;font-size:10.02px;stroke:none;">energy share of coal to 58% by 2020 from the level of 64% in 2015 </text>
   <text y="339.331" x="246.6,249.656,254.516,259.796,264.776,266.996,273.477,278.276,281.636,283.916,289.196,294.476,299.276,301.556,303.776,308.936,313.916,319.196,324.476,326.756,331.736,334.256,338.156,340.44,345.78,351.0,356.281,361.02,364.44,369.42,373.32,377.221,379.5,384.781,387.841,390.12,393.48,398.761,403.68,405.96,411.12,416.1,421.321,426.601,428.882,433.862,436.382,440.281,442.561,448.022,452.942,458.222,463.443,468.723,471.004,473.283,477.542,479.761,485.042,488.102,490.381,495.721,501.002,503.281,508.502,513.301" svgx:width="0.3,0.49,0.52,0.5,0.23,0.65,0.48,0.34,0.23,0.53,0.52,0.48,0.23,0.23,0.52,0.5,0.53,0.52,0.23,0.5,0.25,0.39,0.23,0.53,0.53,0.52,0.47,0.35,0.5,0.39,0.39,0.23,0.53,0.31,0.23,0.34,0.52,0.5,0.23,0.52,0.5,0.53,0.52,0.23,0.5,0.25,0.39,0.23,0.54,0.5,0.52,0.52,0.52,0.23,0.23,0.42,0.23,0.53,0.31,0.23,0.53,0.52,0.23,0.52,0.48,0.23" style="fill:rgb(0,0,0);font-family:Calibri;font-size:10.02px;stroke:none;">(The National People’s Congress of the People’s Republic of China </text>
   <text y="351.575" x="246.6,251.7,256.74,261.84,266.88,269.937,272.456,274.676" svgx:width="0.51,0.51,0.51,0.51,0.3,0.25,0.23,0.23" style="fill:rgb(0,0,0);font-family:Calibri;font-size:10.02px;stroke:none;">2016). </text>
   <text y="363.759" x="246.6" svgx:width="0.23" style="fill:rgb(0,0,0);font-family:Calibri;font-size:10.02px;stroke:none;"> </text>
  </g>
  <g begin="text">
   <text y="375.9" x="246.6,252.78,257.76,260.04,265.02,268.38,273.36,275.64,280.86,285.661,289.141,293.94,298.681,302.161,306.9,312.181" svgx:width="0.62,0.5,0.23,0.5,0.34,0.5,0.23,0.52,0.48,0.35,0.48,0.47,0.35,0.48,0.52,0.52" style="fill:rgb(0,0,0);font-family:Calibri;font-size:10.02px;stroke:none;">Delete paragraph</text>
  </g>
  <g begin="text">
   <text y="375.9" x="317.4" svgx:width="0.23" style="fill:rgb(0,0,0);font-family:Calibri;font-size:10.02px;stroke:none;"> </text>
  </g>
  <path style="fill:rgb(0,0,0);stroke:none;stroke-width:1.0;" d="M70.860 609.780 L71.340 609.780 L71.340 610.260 L70.860 610.260 L70.860 609.780 "/>
  <path style="fill:rgb(0,0,0);stroke:none;stroke-width:1.0;" d="M71.340 609.780 L127.560 609.780 L127.560 610.260 L71.340 610.260 L71.340 609.780 "/>
  <path style="fill:rgb(0,0,0);stroke:none;stroke-width:1.0;" d="M127.560 609.780 L128.040 609.780 L128.040 610.260 L127.560 610.260 L127.560 609.780 "/>
  <path style="fill:rgb(0,0,0);stroke:none;stroke-width:1.0;" d="M128.040 609.780 L184.260 609.780 L184.260 610.260 L128.040 610.260 L128.040 609.780 "/>
  <path style="fill:rgb(0,0,0);stroke:none;stroke-width:1.0;" d="M184.260 609.780 L184.740 609.780 L184.740 610.260 L184.260 610.260 L184.260 609.780 "/>
  <path style="fill:rgb(0,0,0);stroke:none;stroke-width:1.0;" d="M184.740 609.780 L240.960 609.780 L240.960 610.260 L184.740 610.260 L184.740 609.780 "/>
  <path style="fill:rgb(0,0,0);stroke:none;stroke-width:1.0;" d="M240.960 609.780 L241.440 609.780 L241.440 610.260 L240.960 610.260 L240.960 609.780 "/>
  <path style="fill:rgb(0,0,0);stroke:none;stroke-width:1.0;" d="M523.980 609.780 L524.460 609.780 L524.460 610.260 L523.980 610.260 L523.980 609.780 "/>
  <g begin="text">
   <text y="388.62" x="76.5,81.841,87.121,91.921,97.201,100.558,105.538,108.958,111.242,116.282" svgx:width="0.53,0.52,0.48,0.52,0.34,0.5,0.35,0.23,0.51,0.51" style="fill:rgb(0,0,0);font-family:Calibri;font-size:10.02px;stroke:none;">Chapter 17</text>
  </g>
  <g begin="text">
   <text y="388.62" x="121.32" svgx:width="0.23" style="fill:rgb(0,0,0);font-family:Calibri;font-size:10.02px;stroke:none;"> </text>
  </g>
  <g begin="text">
   <text y="388.62" x="133.2,138.3" svgx:width="0.51,0.51" style="fill:rgb(0,0,0);font-family:Calibri;font-size:10.02px;stroke:none;">55</text>
  </g>
  <g begin="text">
   <text y="388.62" x="143.34" svgx:width="0.23" style="fill:rgb(0,0,0);font-family:Calibri;font-size:10.02px;stroke:none;"> </text>
  </g>
  <g begin="text">
   <text y="388.62" x="189.9" svgx:width="0.51" style="fill:rgb(0,0,0);font-family:Calibri;font-size:10.02px;stroke:none;">7</text>
  </g>
  <g begin="text">
   <text y="388.62" x="195.0" svgx:width="0.31" style="fill:rgb(0,0,0);font-family:Calibri;font-size:10.02px;stroke:none;">-</text>
  </g>
  <g begin="text">
   <text y="388.62" x="198.06" svgx:width="0.51" style="fill:rgb(0,0,0);font-family:Calibri;font-size:10.02px;stroke:none;">9</text>
  </g>
  <g begin="text">
   <text y="388.62" x="203.1" svgx:width="0.23" style="fill:rgb(0,0,0);font-family:Calibri;font-size:10.02px;stroke:none;"> </text>
  </g>
  <g begin="text">
   <text y="388.62" x="246.6,252.06,257.04,262.32,264.6,269.4,273.599,278.579,281.279,283.499,288.119,293.399,296.879,299.159,304.079,308.399,313.199,321.179,326.459,328.739,333.719,336.239,338.524,341.88,347.1,352.08,354.364,358.565,363.304,367.204,372.184,374.468,379.749,382.805,385.089,389.349,394.569,399.369" svgx:width="0.54,0.5,0.52,0.23,0.48,0.42,0.5,0.27,0.23,0.46,0.53,0.35,0.23,0.5,0.43,0.48,0.8,0.52,0.23,0.5,0.25,0.23,0.34,0.52,0.5,0.23,0.42,0.48,0.39,0.5,0.23,0.53,0.31,0.23,0.42,0.53,0.48,0.23" style="fill:rgb(0,0,0);font-family:Calibri;font-size:10.02px;stroke:none;">Replace: For example, the case of coal</text>
  </g>
  <g begin="text">
   <text y="388.62" x="401.64" svgx:width="0.31" style="fill:rgb(0,0,0);font-family:Calibri;font-size:10.02px;stroke:none;">-</text>
  </g>
  <g begin="text">
   <text y="388.62" x="404.7,407.76,410.035,413.512,418.492,423.712,425.996,431.276,436.556,443.7,448.68,452.157,454.441,456.716,461.936,464.216,469.555,474.836,477.11,482.331,487.13" svgx:width="0.31,0.23,0.35,0.5,0.52,0.23,0.52,0.53,0.71,0.5,0.35,0.23,0.23,0.52,0.23,0.53,0.52,0.23,0.52,0.48,0.23" style="fill:rgb(0,0,0);font-family:Calibri;font-size:10.02px;stroke:none;">fired power in China </text>
  </g>
  <g begin="text">
   <text y="400.86" x="246.6,249.66,253.56,258.54,262.8,266.157,268.437,273.717,278.938,281.217,286.257,291.357,293.877,298.917,301.977,304.197,308.097,313.377,318.658,325.798,329.698,331.982,335.339,340.619,345.418,348.718,351.002,355.802,358.087,360.297,363.596,367.076,371.876,377.156,381.056,383.336,386.693,388.973,394.254,399.534,401.814,405.17,410.451,412.67,417.47,419.75,421.97,427.251,434.391,439.371,442.851,445.135,449.395,454.194,457.675,462.955,468.175,473.455,475.739,479.579,484.139,488.039,491.396,496.376,504.357,506.636,508.916,512.816" svgx:width="0.3,0.39,0.5,0.42,0.34,0.23,0.53,0.52,0.23,0.51,0.51,0.25,0.51,0.3,0.23,0.39,0.52,0.53,0.71,0.39,0.23,0.34,0.52,0.48,0.34,0.23,0.48,0.23,0.23,0.34,0.35,0.48,0.52,0.39,0.23,0.34,0.23,0.53,0.52,0.23,0.34,0.53,0.23,0.48,0.23,0.23,0.53,0.71,0.5,0.35,0.23,0.42,0.48,0.35,0.52,0.53,0.52,0.23,0.39,0.45,0.39,0.34,0.5,0.8,0.23,0.23,0.39,0.23" style="fill:rgb(0,0,0);font-family:Calibri;font-size:10.02px;stroke:none;">(section 17.3) shows that a transition to a lower carbon system is </text>
   <text y="413.044" x="246.6,251.881,257.16,259.435,261.715,266.275,271.255,273.53,278.09,280.31,283.67,288.95,291.234,296.453,301.254,306.473,311.754,316.734,322.013,324.298,329.278,333.778,338.698,343.977,346.262,348.536,351.596,353.881,361.861,367.08,372.361,377.341,379.615,383.513,385.798,388.858,391.132,396.413,401.692,403.977,406.251,409.551,411.836,415.195,420.115,424.315,429.595,434.875,437.15,441.41,446.21,448.491,450.765,455.265,457.545,460.605,465.586,470.385,474.283,476.564,481.843,484.064,489.044,491.323,496.123,501.403,506.624" svgx:width="0.52,0.52,0.23,0.23,0.46,0.5,0.23,0.45,0.23,0.34,0.53,0.23,0.52,0.48,0.52,0.52,0.5,0.52,0.23,0.5,0.45,0.5,0.52,0.23,0.23,0.31,0.23,0.8,0.53,0.52,0.5,0.23,0.39,0.23,0.31,0.23,0.52,0.52,0.23,0.23,0.34,0.23,0.34,0.5,0.42,0.52,0.52,0.23,0.42,0.48,0.23,0.23,0.45,0.23,0.31,0.5,0.48,0.39,0.23,0.52,0.23,0.5,0.23,0.48,0.52,0.52,0.23" style="fill:rgb(0,0,0);font-family:Calibri;font-size:10.02px;stroke:none;">unlikely to happen even if models find it technically feasible and </text>
   <text y="425.289" x="246.6,250.859,256.14,260.038,263.404,266.46,271.44,274.5,277.56,282.48,286.74,290.1,292.384,296.884,301.864,304.379,306.6" svgx:width="0.42,0.53,0.39,0.34,0.31,0.5,0.31,0.31,0.5,0.42,0.34,0.23,0.45,0.5,0.25,0.23,0.23" style="fill:rgb(0,0,0);font-family:Calibri;font-size:10.02px;stroke:none;">cost-effective. </text>
   <text y="437.473" x="246.6" svgx:width="0.23" style="fill:rgb(0,0,0);font-family:Calibri;font-size:10.02px;stroke:none;"> </text>
   <text y="449.657" x="246.6,255.54,257.82,261.18,266.46,268.68,270.96,274.921,280.74,283.02,286.38,289.857,294.597,299.877,303.775,306.05,309.409,311.69,316.969,322.25,324.529,327.89,333.17,335.39,340.19,342.474,344.749,350.028,357.173,362.153,365.572,367.857,372.116,376.917,380.394,385.673,390.894,396.173,398.458,402.298,406.858,410.755,414.115,419.035,427.016,429.295,431.576,435.474,437.753,443.034,448.313,450.588,452.868,457.429,462.409,464.683,469.243,471.464,474.823,480.044,482.323,487.603,492.403,497.623,502.903,507.883,513.103" svgx:width="0.89,0.23,0.34,0.52,0.23,0.23,0.4,0.58,0.23,0.34,0.35,0.48,0.52,0.39,0.23,0.34,0.23,0.53,0.52,0.23,0.34,0.53,0.23,0.48,0.23,0.23,0.53,0.71,0.5,0.35,0.23,0.42,0.48,0.35,0.52,0.53,0.52,0.23,0.39,0.45,0.39,0.34,0.5,0.8,0.23,0.23,0.39,0.23,0.52,0.52,0.23,0.23,0.46,0.5,0.23,0.45,0.23,0.34,0.53,0.23,0.52,0.48,0.52,0.52,0.5,0.52,0.23" style="fill:rgb(0,0,0);font-family:Calibri;font-size:10.02px;stroke:none;">With "A transition to a lower carbon system is unlikely to happen </text>
   <text y="461.902" x="246.6,251.58,256.08,261.06,266.34,268.62,270.9,273.96,276.244,284.224,289.504,294.784,299.764,302.039,305.879,308.159,311.219,313.493,318.774,324.053,326.338,328.612,331.912,334.197,337.556,342.536,346.737,352.016,357.297,359.516,363.716,368.516,370.797,373.071,377.631,379.916,382.975,387.956,392.755,396.653,398.934,404.213,406.494,411.474,413.753,418.494,423.713,428.994,431.273,435.534,440.813,444.711,448.082,451.138,456.058,459.118,462.178,467.158,471.359,474.718,477.003,481.503,486.483,488.998,493.022" svgx:width="0.5,0.45,0.5,0.52,0.23,0.23,0.31,0.23,0.8,0.53,0.52,0.5,0.23,0.39,0.23,0.31,0.23,0.52,0.52,0.23,0.23,0.34,0.23,0.34,0.5,0.42,0.52,0.52,0.23,0.42,0.48,0.23,0.23,0.45,0.23,0.31,0.5,0.48,0.39,0.23,0.52,0.23,0.5,0.23,0.48,0.52,0.52,0.23,0.42,0.53,0.39,0.34,0.31,0.5,0.31,0.31,0.5,0.42,0.34,0.23,0.45,0.5,0.25,0.4,0.23" style="fill:rgb(0,0,0);font-family:Calibri;font-size:10.02px;stroke:none;">even if models find it technically feasible and cost-effective." </text>
  </g>
  <path style="fill:rgb(0,0,0);stroke:none;stroke-width:1.0;" d="M71.340 368.280 L127.560 368.280 L127.560 462.780 L71.340 462.780 L71.340 368.280 M71.340 368.280 L127.560 368.280 L127.560 462.780 L71.340 462.780 L71.340 368.280 M127.800 368.280 L184.260 368.280 L184.260 462.780 L127.800 462.780 L127.800 368.280 M127.800 368.280 L184.260 368.280 L184.260 462.780 L127.800 462.780 L127.800 368.280 M184.500 368.280 L240.960 368.280 L240.960 462.780 L184.500 462.780 L184.500 368.280 M184.500 368.280 L240.960 368.280 L240.960 462.780 L184.500 462.780 L184.500 368.280 M184.500 368.280 L240.960 368.280 L240.960 462.780 L184.500 462.780 L184.500 368.280 M184.500 368.280 L240.960 368.280 L240.960 462.780 L184.500 462.780 L184.500 368.280 M70.860 462.780 L71.340 462.780 L71.340 463.260 L70.860 463.260 L70.860 462.780 "/>
  <path style="fill:rgb(0,0,0);stroke:none;stroke-width:1.0;" d="M71.340 462.780 L127.560 462.780 L127.560 463.260 L71.340 463.260 L71.340 462.780 "/>
  <path style="fill:rgb(0,0,0);stroke:none;stroke-width:1.0;" d="M127.560 462.780 L128.040 462.780 L128.040 463.260 L127.560 463.260 L127.560 462.780 "/>
  <path style="fill:rgb(0,0,0);stroke:none;stroke-width:1.0;" d="M128.040 462.780 L184.260 462.780 L184.260 463.260 L128.040 463.260 L128.040 462.780 "/>
  <path style="fill:rgb(0,0,0);stroke:none;stroke-width:1.0;" d="M184.260 462.780 L184.740 462.780 L184.740 463.260 L184.260 463.260 L184.260 462.780 "/>
  <path style="fill:rgb(0,0,0);stroke:none;stroke-width:1.0;" d="M184.740 462.780 L240.960 462.780 L240.960 463.260 L184.740 463.260 L184.740 462.780 "/>
  <path style="fill:rgb(0,0,0);stroke:none;stroke-width:1.0;" d="M240.960 462.780 L241.440 462.780 L241.440 463.260 L240.960 463.260 L240.960 462.780 "/>
  <path style="fill:rgb(0,0,0);stroke:none;stroke-width:1.0;" d="M523.980 462.780 L524.460 462.780 L524.460 463.260 L523.980 463.260 L523.980 462.780 "/>
  <path style="fill:rgb(0,0,0);stroke:none;stroke-width:1.0;" d="M70.860 368.220 L71.340 368.220 L71.340 462.780 L70.860 462.780 L70.860 368.220 "/>
  <path style="fill:rgb(0,0,0);stroke:none;stroke-width:1.0;" d="M70.860 367.740 L71.340 367.740 L71.340 368.220 L70.860 368.220 L70.860 367.740 "/>
  <path style="fill:rgb(0,0,0);stroke:none;stroke-width:1.0;" d="M70.860 367.740 L71.340 367.740 L71.340 368.220 L70.860 368.220 L70.860 367.740 "/>
  <path style="fill:rgb(0,0,0);stroke:none;stroke-width:1.0;" d="M71.340 367.740 L127.560 367.740 L127.560 368.220 L71.340 368.220 L71.340 367.740 "/>
  <path style="fill:rgb(0,0,0);stroke:none;stroke-width:1.0;" d="M127.560 368.220 L128.040 368.220 L128.040 462.780 L127.560 462.780 L127.560 368.220 "/>
  <path style="fill:rgb(0,0,0);stroke:none;stroke-width:1.0;" d="M127.560 367.740 L128.040 367.740 L128.040 368.220 L127.560 368.220 L127.560 367.740 "/>
  <path style="fill:rgb(0,0,0);stroke:none;stroke-width:1.0;" d="M128.040 367.740 L184.260 367.740 L184.260 368.220 L128.040 368.220 L128.040 367.740 "/>
  <path style="fill:rgb(0,0,0);stroke:none;stroke-width:1.0;" d="M184.260 368.220 L184.740 368.220 L184.740 462.780 L184.260 462.780 L184.260 368.220 "/>
  <path style="fill:rgb(0,0,0);stroke:none;stroke-width:1.0;" d="M184.260 367.740 L184.740 367.740 L184.740 368.220 L184.260 368.220 L184.260 367.740 "/>
  <path style="fill:rgb(0,0,0);stroke:none;stroke-width:1.0;" d="M184.740 367.740 L240.960 367.740 L240.960 368.220 L184.740 368.220 L184.740 367.740 "/>
  <path style="fill:rgb(0,0,0);stroke:none;stroke-width:1.0;" d="M240.960 368.220 L241.440 368.220 L241.440 462.780 L240.960 462.780 L240.960 368.220 "/>
  <path style="fill:rgb(0,0,0);stroke:none;stroke-width:1.0;" d="M240.960 367.740 L241.440 367.740 L241.440 368.220 L240.960 368.220 L240.960 367.740 "/>
  <path style="fill:rgb(0,0,0);stroke:none;stroke-width:1.0;" d="M523.980 368.220 L524.460 368.220 L524.460 462.780 L523.980 462.780 L523.980 368.220 "/>
  <path style="fill:rgb(0,0,0);stroke:none;stroke-width:1.0;" d="M523.980 367.740 L524.460 367.740 L524.460 368.220 L523.980 368.220 L523.980 367.740 "/>
  <path style="fill:rgb(0,0,0);stroke:none;stroke-width:1.0;" d="M523.980 367.740 L524.460 367.740 L524.460 368.220 L523.980 368.220 L523.980 367.740 "/>
  <g begin="text">
   <text y="484.68" x="70.86" svgx:width="0.23" style="fill:rgb(0,0,0);font-family:Calibri;font-size:10.98px;stroke:none;"> </text>
  </g>
 </g>
</svg>
