<?xml version="1.0" encoding="UTF-8" standalone="no"?>
<!DOCTYPE svg PUBLIC "-//W3C//DTD SVG 1.1//EN"
 "http://www.w3.org/Graphics/SVG/1.1/DTD/svg11.dtd">
<!-- Generated by graphviz version 9.0.0 (20230911.1827)
 -->
<!-- Title: metabolism Pages: 1 -->
<svg width="364pt" height="620pt"
 viewBox="0.00 0.00 364.27 620.00" xmlns="http://www.w3.org/2000/svg" xmlns:xlink="http://www.w3.org/1999/xlink">
<g id="graph0" class="graph" transform="scale(1 1) rotate(0) translate(4 616)">
<title>metabolism</title>
<polygon fill="white" stroke="none" points="-4,4 -4,-616 360.27,-616 360.27,4 -4,4"/>
<!-- C_TOT -->
<g id="node1" class="node">
<title>C_TOT</title>
<ellipse fill="none" stroke="black" cx="172.97" cy="-594" rx="39.58" ry="18"/>
<text text-anchor="middle" x="172.97" y="-588.95" font-family="Times,serif" font-size="14.00">C_TOT</text>
</g>
<!-- C_I -->
<g id="node2" class="node">
<title>C_I</title>
<ellipse fill="none" stroke="black" cx="172.97" cy="-522" rx="27" ry="18"/>
<text text-anchor="middle" x="172.97" y="-516.95" font-family="Times,serif" font-size="14.00">C_I</text>
</g>
<!-- C_TOT&#45;&gt;C_I -->
<g id="edge1" class="edge">
<title>C_TOT&#45;&gt;C_I</title>
<path fill="none" stroke="black" d="M172.97,-575.7C172.97,-568.41 172.97,-559.73 172.97,-551.54"/>
<polygon fill="black" stroke="black" points="176.47,-551.62 172.97,-541.62 169.47,-551.62 176.47,-551.62"/>
</g>
<!-- C_C -->
<g id="node3" class="node">
<title>C_C</title>
<ellipse fill="none" stroke="black" cx="172.97" cy="-450" rx="27.81" ry="18"/>
<text text-anchor="middle" x="172.97" y="-444.95" font-family="Times,serif" font-size="14.00">C_C</text>
</g>
<!-- C_I&#45;&gt;C_C -->
<g id="escape" class="edge">
<title>C_I&#45;&gt;C_C</title>
<path fill="none" stroke="black" d="M172.97,-503.7C172.97,-496.41 172.97,-487.73 172.97,-479.54"/>
<polygon fill="black" stroke="black" points="176.47,-479.62 172.97,-469.62 169.47,-479.62 176.47,-479.62"/>
</g>
<!-- CB_C -->
<g id="node4" class="node">
<title>CB_C</title>
<ellipse fill="none" stroke="black" cx="87.97" cy="-378" rx="33.95" ry="18"/>
<text text-anchor="middle" x="87.97" y="-372.95" font-family="Times,serif" font-size="14.00">CB_C</text>
</g>
<!-- C_C&#45;&gt;CB_C -->
<g id="edge3" class="edge">
<title>C_C&#45;&gt;CB_C</title>
<path fill="none" stroke="black" d="M156.18,-435.17C144.27,-425.36 128.06,-412.01 114.42,-400.78"/>
<polygon fill="black" stroke="black" points="117.02,-398.39 107.07,-394.73 112.57,-403.79 117.02,-398.39"/>
</g>
<!-- V_C -->
<g id="node5" class="node">
<title>V_C</title>
<ellipse fill="none" stroke="black" cx="172.97" cy="-378" rx="28.32" ry="18"/>
<text text-anchor="middle" x="172.97" y="-372.95" font-family="Times,serif" font-size="14.00">V_C</text>
</g>
<!-- C_C&#45;&gt;V_C -->
<g id="edge4" class="edge">
<title>C_C&#45;&gt;V_C</title>
<path fill="none" stroke="black" d="M172.97,-431.7C172.97,-424.41 172.97,-415.73 172.97,-407.54"/>
<polygon fill="black" stroke="black" points="176.47,-407.62 172.97,-397.62 169.47,-407.62 176.47,-407.62"/>
</g>
<!-- P_C -->
<g id="node6" class="node">
<title>P_C</title>
<ellipse fill="none" stroke="black" cx="250.97" cy="-378" rx="27" ry="18"/>
<text text-anchor="middle" x="250.97" y="-372.95" font-family="Times,serif" font-size="14.00">P_C</text>
</g>
<!-- C_C&#45;&gt;P_C -->
<g id="edge5" class="edge">
<title>C_C&#45;&gt;P_C</title>
<path fill="none" stroke="black" d="M188.76,-434.83C199.65,-425.06 214.33,-411.88 226.7,-400.78"/>
<polygon fill="black" stroke="black" points="228.98,-403.44 234.09,-394.16 224.31,-398.23 228.98,-403.44"/>
</g>
<!-- CB_NPC -->
<g id="node7" class="node">
<title>CB_NPC</title>
<ellipse fill="none" stroke="black" cx="81.97" cy="-306" rx="45.72" ry="18"/>
<text text-anchor="middle" x="81.97" y="-300.95" font-family="Times,serif" font-size="14.00">CB_NPC</text>
</g>
<!-- CB_C&#45;&gt;CB_NPC -->
<g id="edge6" class="edge">
<title>CB_C&#45;&gt;CB_NPC</title>
<path fill="none" stroke="black" d="M86.49,-359.7C85.87,-352.41 85.12,-343.73 84.42,-335.54"/>
<polygon fill="black" stroke="black" points="87.91,-335.28 83.57,-325.61 80.94,-335.87 87.91,-335.28"/>
</g>
<!-- V? -->
<g id="node13" class="node">
<title>V?</title>
<ellipse fill="none" stroke="black" cx="172.97" cy="-306" rx="27" ry="18"/>
<text text-anchor="middle" x="172.97" y="-300.95" font-family="Times,serif" font-size="14.00">V?</text>
</g>
<!-- V_C&#45;&gt;V? -->
<g id="edge12" class="edge">
<title>V_C&#45;&gt;V?</title>
<path fill="none" stroke="black" d="M172.97,-359.7C172.97,-352.41 172.97,-343.73 172.97,-335.54"/>
<polygon fill="black" stroke="black" points="176.47,-335.62 172.97,-325.62 169.47,-335.62 176.47,-335.62"/>
</g>
<!-- PB_C -->
<g id="node14" class="node">
<title>PB_C</title>
<ellipse fill="none" stroke="black" cx="250.97" cy="-306" rx="32.93" ry="18"/>
<text text-anchor="middle" x="250.97" y="-300.95" font-family="Times,serif" font-size="14.00">PB_C</text>
</g>
<!-- P_C&#45;&gt;PB_C -->
<g id="edge13" class="edge">
<title>P_C&#45;&gt;PB_C</title>
<path fill="none" stroke="black" d="M250.97,-359.7C250.97,-352.41 250.97,-343.73 250.97,-335.54"/>
<polygon fill="black" stroke="black" points="254.47,-335.62 250.97,-325.62 247.47,-335.62 254.47,-335.62"/>
</g>
<!-- X_P -->
<g id="node15" class="node">
<title>X_P</title>
<ellipse fill="none" stroke="black" cx="328.97" cy="-306" rx="27.3" ry="18"/>
<text text-anchor="middle" x="328.97" y="-300.95" font-family="Times,serif" font-size="14.00">X_P</text>
</g>
<!-- P_C&#45;&gt;X_P -->
<g id="edge14" class="edge">
<title>P_C&#45;&gt;X_P</title>
<path fill="none" stroke="black" d="M266.38,-363.17C277.42,-353.26 292.5,-339.73 305.09,-328.43"/>
<polygon fill="black" stroke="black" points="307.1,-331.34 312.2,-322.05 302.42,-326.13 307.1,-331.34"/>
</g>
<!-- CB_N -->
<g id="node8" class="node">
<title>CB_N</title>
<ellipse fill="none" stroke="black" cx="96.97" cy="-234" rx="34.46" ry="18"/>
<text text-anchor="middle" x="96.97" y="-228.95" font-family="Times,serif" font-size="14.00">CB_N</text>
</g>
<!-- CB_NPC&#45;&gt;CB_N -->
<g id="edge7" class="edge">
<title>CB_NPC&#45;&gt;CB_N</title>
<path fill="none" stroke="black" d="M85.68,-287.7C87.26,-280.32 89.15,-271.52 90.92,-263.25"/>
<polygon fill="black" stroke="black" points="94.32,-264.1 92.99,-253.58 87.47,-262.63 94.32,-264.1"/>
</g>
<!-- C_N -->
<g id="node9" class="node">
<title>C_N</title>
<ellipse fill="none" stroke="black" cx="115.97" cy="-162" rx="28.32" ry="18"/>
<text text-anchor="middle" x="115.97" y="-156.95" font-family="Times,serif" font-size="14.00">C_N</text>
</g>
<!-- CB_N&#45;&gt;C_N -->
<g id="edge8" class="edge">
<title>CB_N&#45;&gt;C_N</title>
<path fill="none" stroke="black" d="M101.67,-215.7C103.69,-208.24 106.11,-199.32 108.38,-190.97"/>
<polygon fill="black" stroke="black" points="111.69,-192.13 110.93,-181.57 104.94,-190.3 111.69,-192.13"/>
</g>
<!-- V_N -->
<g id="node10" class="node">
<title>V_N</title>
<ellipse fill="none" stroke="black" cx="76.97" cy="-90" rx="28.83" ry="18"/>
<text text-anchor="middle" x="76.97" y="-84.95" font-family="Times,serif" font-size="14.00">V_N</text>
</g>
<!-- C_N&#45;&gt;V_N -->
<g id="edge9" class="edge">
<title>C_N&#45;&gt;V_N</title>
<path fill="none" stroke="black" d="M106.93,-144.76C102.35,-136.55 96.68,-126.37 91.51,-117.09"/>
<polygon fill="black" stroke="black" points="94.63,-115.5 86.71,-108.47 88.52,-118.91 94.63,-115.5"/>
</g>
<!-- P_N -->
<g id="node11" class="node">
<title>P_N</title>
<ellipse fill="none" stroke="black" cx="153.97" cy="-90" rx="27.3" ry="18"/>
<text text-anchor="middle" x="153.97" y="-84.95" font-family="Times,serif" font-size="14.00">P_N</text>
</g>
<!-- C_N&#45;&gt;P_N -->
<g id="edge10" class="edge">
<title>C_N&#45;&gt;P_N</title>
<path fill="none" stroke="black" d="M124.79,-144.76C129.25,-136.55 134.77,-126.37 139.81,-117.09"/>
<polygon fill="black" stroke="black" points="142.79,-118.94 144.49,-108.48 136.64,-115.6 142.79,-118.94"/>
</g>
<!-- Protein -->
<g id="node12" class="node">
<title>Protein</title>
<ellipse fill="none" stroke="black" cx="153.97" cy="-18" rx="37.53" ry="18"/>
<text text-anchor="middle" x="153.97" y="-12.95" font-family="Times,serif" font-size="14.00">Protein</text>
</g>
<!-- P_N&#45;&gt;Protein -->
<g id="edge11" class="edge">
<title>P_N&#45;&gt;Protein</title>
<path fill="none" stroke="black" d="M153.97,-71.7C153.97,-64.41 153.97,-55.73 153.97,-47.54"/>
<polygon fill="black" stroke="black" points="157.47,-47.62 153.97,-37.62 150.47,-47.62 157.47,-47.62"/>
</g>
<!-- PB_NPC -->
<g id="node17" class="node">
<title>PB_NPC</title>
<ellipse fill="none" stroke="black" cx="223.97" cy="-234" rx="44.7" ry="18"/>
<text text-anchor="middle" x="223.97" y="-228.95" font-family="Times,serif" font-size="14.00">PB_NPC</text>
</g>
<!-- PB_C&#45;&gt;PB_NPC -->
<g id="edge16" class="edge">
<title>PB_C&#45;&gt;PB_NPC</title>
<path fill="none" stroke="black" d="M244.44,-288.05C241.53,-280.52 238.03,-271.44 234.75,-262.94"/>
<polygon fill="black" stroke="black" points="238.05,-261.76 231.18,-253.69 231.51,-264.28 238.05,-261.76"/>
</g>
<!-- X? -->
<g id="node16" class="node">
<title>X?</title>
<ellipse fill="none" stroke="black" cx="328.97" cy="-234" rx="27" ry="18"/>
<text text-anchor="middle" x="328.97" y="-228.95" font-family="Times,serif" font-size="14.00">X?</text>
</g>
<!-- X_P&#45;&gt;X? -->
<g id="edge15" class="edge">
<title>X_P&#45;&gt;X?</title>
<path fill="none" stroke="black" d="M328.97,-287.7C328.97,-280.41 328.97,-271.73 328.97,-263.54"/>
<polygon fill="black" stroke="black" points="332.47,-263.62 328.97,-253.62 325.47,-263.62 332.47,-263.62"/>
</g>
<!-- PB_N -->
<g id="node18" class="node">
<title>PB_N</title>
<ellipse fill="none" stroke="black" cx="203.97" cy="-162" rx="33.44" ry="18"/>
<text text-anchor="middle" x="203.97" y="-156.95" font-family="Times,serif" font-size="14.00">PB_N</text>
</g>
<!-- PB_NPC&#45;&gt;PB_N -->
<g id="edge17" class="edge">
<title>PB_NPC&#45;&gt;PB_N</title>
<path fill="none" stroke="black" d="M219.03,-215.7C216.9,-208.24 214.35,-199.32 211.96,-190.97"/>
<polygon fill="black" stroke="black" points="215.39,-190.21 209.28,-181.56 208.66,-192.14 215.39,-190.21"/>
</g>
<!-- PB_N&#45;&gt;P_N -->
<g id="edge18" class="edge">
<title>PB_N&#45;&gt;P_N</title>
<path fill="none" stroke="black" d="M192.38,-144.76C186.23,-136.16 178.55,-125.41 171.68,-115.79"/>
<polygon fill="black" stroke="black" points="174.7,-114 166.04,-107.9 169.01,-118.07 174.7,-114"/>
</g>
<!-- VB_N -->
<g id="node19" class="node">
<title>VB_N</title>
<ellipse fill="none" stroke="black" cx="34.97" cy="-162" rx="34.97" ry="18"/>
<text text-anchor="middle" x="34.97" y="-156.95" font-family="Times,serif" font-size="14.00">VB_N</text>
</g>
<!-- VB_N&#45;&gt;V_N -->
<g id="edge19" class="edge">
<title>VB_N&#45;&gt;V_N</title>
<path fill="none" stroke="black" d="M44.93,-144.41C49.86,-136.19 55.93,-126.06 61.46,-116.85"/>
<polygon fill="black" stroke="black" points="64.46,-118.66 66.6,-108.29 58.46,-115.06 64.46,-118.66"/>
</g>
</g>
</svg>
