<?xml version="1.0" encoding="UTF-8" standalone="no"?>
<!DOCTYPE svg PUBLIC "-//W3C//DTD SVG 1.1//EN"
 "http://www.w3.org/Graphics/SVG/1.1/DTD/svg11.dtd">
<!-- Generated by graphviz version 9.0.0 (20230911.1827)
 -->
<!-- Title: prenorma Pages: 1 -->
<svg width="674pt" height="310pt"
 viewBox="0.00 0.00 674.18 309.50" xmlns="http://www.w3.org/2000/svg" xmlns:xlink="http://www.w3.org/1999/xlink">
<g id="graph0" class="graph" transform="scale(1 1) rotate(0) translate(4 305.5)">
<title>prenorma</title>
<polygon fill="white" stroke="none" points="-4,4 -4,-305.5 670.18,-305.5 670.18,4 -4,4"/>
<!-- pdf -->
<g id="node1" class="node">
<title>pdf</title>
<ellipse fill="yellow" stroke="yellow" cx="167.15" cy="-283.5" rx="27" ry="18"/>
<text text-anchor="middle" x="167.15" y="-278.45" font-family="Times,serif" font-size="14.00">pdf</text>
</g>
<!-- pdf.svg -->
<g id="node4" class="node">
<title>pdf.svg</title>
<ellipse fill="none" stroke="black" cx="167.15" cy="-195" rx="67.22" ry="18"/>
<text text-anchor="middle" x="167.15" y="-189.95" font-family="Times,serif" font-size="14.00">pdf2svg&#45;output</text>
</g>
<!-- pdf&#45;&gt;pdf.svg -->
<g id="edge1" class="edge">
<title>pdf&#45;&gt;pdf.svg</title>
<path fill="none" stroke="black" d="M167.15,-265.41C167.15,-253.76 167.15,-238.05 167.15,-224.52"/>
<polygon fill="black" stroke="black" points="170.65,-224.86 167.15,-214.86 163.65,-224.86 170.65,-224.86"/>
<text text-anchor="middle" x="188.9" y="-234.2" font-family="Times,serif" font-size="14.00">pdf2svg</text>
</g>
<!-- png -->
<g id="node2" class="node">
<title>png</title>
<ellipse fill="yellow" stroke="yellow" cx="549.15" cy="-283.5" rx="27" ry="18"/>
<text text-anchor="middle" x="549.15" y="-278.45" font-family="Times,serif" font-size="14.00">png</text>
</g>
<!-- png.pixels -->
<g id="node8" class="node">
<title>png.pixels</title>
<ellipse fill="none" stroke="black" cx="514.15" cy="-195" rx="32.93" ry="18"/>
<text text-anchor="middle" x="514.15" y="-189.95" font-family="Times,serif" font-size="14.00">pixels</text>
</g>
<!-- png&#45;&gt;png.pixels -->
<g id="edge4" class="edge">
<title>png&#45;&gt;png.pixels</title>
<path fill="none" stroke="black" d="M531.58,-269.43C525.07,-263.53 518.43,-255.98 514.9,-247.5 511.96,-240.46 510.9,-232.39 510.79,-224.76"/>
<polygon fill="black" stroke="black" points="514.28,-225 511.2,-214.86 507.29,-224.71 514.28,-225"/>
<text text-anchor="middle" x="542.27" y="-234.2" font-family="Times,serif" font-size="14.00">imageanal</text>
</g>
<!-- png.pixels.text.svg -->
<g id="node9" class="node">
<title>png.pixels.text.svg</title>
<ellipse fill="none" stroke="black" cx="585.15" cy="-106.5" rx="81.04" ry="18"/>
<text text-anchor="middle" x="585.15" y="-101.45" font-family="Times,serif" font-size="14.00">png.pixels.text.svg</text>
</g>
<!-- png&#45;&gt;png.pixels.text.svg -->
<g id="edge6" class="edge">
<title>png&#45;&gt;png.pixels.text.svg</title>
<path fill="none" stroke="black" d="M561.1,-266.91C564.95,-261.11 568.82,-254.29 571.15,-247.5 583.84,-210.5 586.13,-165.01 586.07,-136.13"/>
<polygon fill="black" stroke="black" points="589.57,-136.31 585.94,-126.36 582.57,-136.4 589.57,-136.31"/>
<text text-anchor="middle" x="607.4" y="-189.95" font-family="Times,serif" font-size="14.00">tesseract</text>
</g>
<!-- svg -->
<g id="node3" class="node">
<title>svg</title>
<ellipse fill="yellow" stroke="yellow" cx="346.15" cy="-106.5" rx="27" ry="18"/>
<text text-anchor="middle" x="346.15" y="-101.45" font-family="Times,serif" font-size="14.00">svg</text>
</g>
<!-- diagrams.svg -->
<g id="node7" class="node">
<title>diagrams.svg</title>
<ellipse fill="pink" stroke="pink" cx="382.15" cy="-18" rx="105.6" ry="18"/>
<text text-anchor="middle" x="382.15" y="-12.95" font-family="Times,serif" font-size="14.00">structured SVG diagrams</text>
</g>
<!-- svg&#45;&gt;diagrams.svg -->
<g id="edge10" class="edge">
<title>svg&#45;&gt;diagrams.svg</title>
<path fill="none" stroke="black" d="M343.33,-88.13C342.41,-77.81 342.59,-64.7 347.15,-54 348.59,-50.6 350.54,-47.35 352.78,-44.31"/>
<polygon fill="black" stroke="black" points="355.26,-46.79 359.18,-36.95 349.98,-42.2 355.26,-46.79"/>
<text text-anchor="middle" x="375.65" y="-57.2" font-family="Times,serif" font-size="14.00">svgbuilder</text>
</g>
<!-- svg2xml.svg -->
<g id="node5" class="node">
<title>svg2xml.svg</title>
<ellipse fill="none" stroke="black" cx="64.15" cy="-106.5" rx="64.15" ry="18"/>
<text text-anchor="middle" x="64.15" y="-101.45" font-family="Times,serif" font-size="14.00">svg2xml SVG</text>
</g>
<!-- pdf.svg&#45;&gt;svg2xml.svg -->
<g id="edge2" class="edge">
<title>pdf.svg&#45;&gt;svg2xml.svg</title>
<path fill="none" stroke="black" d="M147.29,-177.32C131.66,-164.19 109.68,-145.74 92.24,-131.09"/>
<polygon fill="black" stroke="black" points="94.66,-128.56 84.75,-124.81 90.16,-133.92 94.66,-128.56"/>
<text text-anchor="middle" x="148.77" y="-145.7" font-family="Times,serif" font-size="14.00">svg2xml</text>
</g>
<!-- fulltext.html -->
<g id="node6" class="node">
<title>fulltext.html</title>
<ellipse fill="pink" stroke="pink" cx="224.15" cy="-106.5" rx="77.45" ry="18"/>
<text text-anchor="middle" x="224.15" y="-101.45" font-family="Times,serif" font-size="14.00">structured&#45;HTML</text>
</g>
<!-- pdf.svg&#45;&gt;fulltext.html -->
<g id="edge3" class="edge">
<title>pdf.svg&#45;&gt;fulltext.html</title>
<path fill="none" stroke="black" d="M178.41,-176.91C186.45,-164.71 197.42,-148.05 206.61,-134.12"/>
<polygon fill="black" stroke="black" points="209.5,-136.09 212.08,-125.82 203.65,-132.24 209.5,-136.09"/>
<text text-anchor="middle" x="224.77" y="-145.7" font-family="Times,serif" font-size="14.00">svg2xml</text>
</g>
<!-- svg2xml.svg&#45;&gt;diagrams.svg -->
<g id="edge9" class="edge">
<title>svg2xml.svg&#45;&gt;diagrams.svg</title>
<path fill="none" stroke="black" d="M109.03,-93.29C163.22,-78.55 254.78,-53.65 316.8,-36.78"/>
<polygon fill="black" stroke="black" points="317.44,-40.23 326.17,-34.23 315.61,-33.47 317.44,-40.23"/>
<text text-anchor="middle" x="279.65" y="-57.2" font-family="Times,serif" font-size="14.00">svgbuilder</text>
</g>
<!-- png.pixels&#45;&gt;diagrams.svg -->
<g id="edge8" class="edge">
<title>png.pixels&#45;&gt;diagrams.svg</title>
<path fill="none" stroke="black" d="M491.96,-181.29C472.45,-169.06 444.59,-148.85 427.65,-124.5 408.78,-97.39 418.26,-83.86 404.15,-54 402.91,-51.39 401.52,-48.73 400.06,-46.11"/>
<polygon fill="black" stroke="black" points="403.12,-44.41 394.97,-37.64 397.11,-48.01 403.12,-44.41"/>
<text text-anchor="middle" x="460.9" y="-101.45" font-family="Times,serif" font-size="14.00">diagramanal</text>
</g>
<!-- png.pixels&#45;&gt;png.pixels.text.svg -->
<g id="edge5" class="edge">
<title>png.pixels&#45;&gt;png.pixels.text.svg</title>
<path fill="none" stroke="black" d="M516.9,-176.87C519.3,-166.14 523.67,-152.49 531.4,-142.5 534.93,-137.94 539.23,-133.79 543.84,-130.07"/>
<polygon fill="black" stroke="black" points="545.71,-133.04 551.76,-124.35 541.61,-127.37 545.71,-133.04"/>
<text text-anchor="middle" x="551.02" y="-145.7" font-family="Times,serif" font-size="14.00">javaocr</text>
</g>
<!-- png.pixels.text.svg&#45;&gt;diagrams.svg -->
<g id="edge7" class="edge">
<title>png.pixels.text.svg&#45;&gt;diagrams.svg</title>
<path fill="none" stroke="black" d="M548.85,-90.04C515.85,-75.97 466.88,-55.11 430.55,-39.63"/>
<polygon fill="black" stroke="black" points="432.16,-36.5 421.58,-35.8 429.41,-42.94 432.16,-36.5"/>
<text text-anchor="middle" x="534.9" y="-57.2" font-family="Times,serif" font-size="14.00">diagramanal</text>
</g>
</g>
</svg>
