<?xml version="1.0" encoding="UTF-8"?>
<svg height="576.496" width="681.74" xmlns="http://www.w3.org/2000/svg">
 <g id="page" xmlns:svgx="http://www.xml-cml.org/schema/svgx">
  <g begin="text">
   <text y="46.32" x="72.0,78.138,81.207,86.727,91.563,94.676,97.436,105.352,110.872,116.392,121.194,124.904,130.424,138.947,143.848,149.368,152.493,155.253,163.058,166.171,170.366,173.48,177.079,180.192,185.712,191.111,194.113,197.227,202.747" svgx:width="0.56,0.28,0.5,0.44,0.28,0.25,0.72,0.5,0.5,0.44,0.33,0.5,0.78,0.44,0.5,0.28,0.25,0.72,0.28,0.39,0.28,0.33,0.28,0.5,0.5,0.28,0.28,0.5,0.5" style="fill:rgb(0,0,0);font-family:TimesNewRomanPSMT;font-size:11.04px;stroke:none;">Final Government Distribution</text>
  </g>
  <g begin="text">
   <text y="46.32" x="208.34" svgx:width="0.25" style="fill:rgb(0,0,0);font-family:TimesNewRomanPSMT;font-size:11.04px;stroke:none;"> </text>
  </g>
  <g begin="text">
   <text y="46.32" x="210.98" svgx:width="0.25" style="fill:rgb(0,0,0);font-family:TimesNewRomanPSMT;font-size:11.04px;stroke:none;"> </text>
  </g>
  <g begin="text">
   <text y="46.32" x="216.02,218.78,221.54,224.3,227.06,229.82,232.58,235.34,238.1" svgx:width="0.25,0.25,0.25,0.25,0.25,0.25,0.25,0.25,0.25" style="fill:rgb(0,0,0);font-family:TimesNewRomanPSMT;font-size:11.04px;stroke:none;"> </text>
  </g>
  <g begin="text">
   <text y="46.32" x="240.86,243.62,246.38,249.14,251.9,254.66,257.42,260.18,262.94,265.579,268.339,271.099,273.859,276.619,279.379,282.139" svgx:width="0.25,0.25,0.25,0.25,0.25,0.25,0.25,0.25,0.25,0.25,0.25,0.25,0.25,0.25,0.25,0.25" style="fill:rgb(0,0,0);font-family:TimesNewRomanPSMT;font-size:11.04px;stroke:none;"> </text>
  </g>
  <g begin="text">
   <text y="46.32" x="284.93,287.69" svgx:width="0.25,0.25" style="fill:rgb(0,0,0);font-family:TimesNewRomanPSMT;font-size:11.04px;stroke:none;"> </text>
  </g>
  <g begin="text">
   <text y="46.32" x="290.45" svgx:width="0.25" style="fill:rgb(0,0,0);font-family:TimesNewRomanPSMT;font-size:11.04px;stroke:none;"> </text>
  </g>
  <g begin="text">
   <text y="46.32" x="293.21,300.529,305.928,310.83,316.35,319.364,324.266,327.997,330.757" svgx:width="0.67,0.5,0.44,0.5,0.28,0.44,0.33,0.25,0.5" style="fill:rgb(0,0,0);font-family:TimesNewRomanPSMT;font-size:11.04px;stroke:none;">Chapter 1</text>
  </g>
  <g begin="text">
   <text y="46.32" x="336.17" svgx:width="0.25" style="fill:rgb(0,0,0);font-family:TimesNewRomanPSMT;font-size:11.04px;stroke:none;"> </text>
  </g>
  <g begin="text">
   <text y="46.32" x="360.05,362.81,365.57,368.33,371.09,373.85,376.61,379.37,382.13,384.89,387.65,390.41,393.17" svgx:width="0.25,0.25,0.25,0.25,0.25,0.25,0.25,0.25,0.25,0.25,0.25,0.25,0.25" style="fill:rgb(0,0,0);font-family:TimesNewRomanPSMT;font-size:11.04px;stroke:none;"> </text>
  </g>
  <g begin="text">
   <text y="46.32" x="395.93,398.69,401.45,404.21,406.97,409.609,412.369,415.129,417.889,420.649,423.409,426.169,428.929,431.689,434.449,437.209" svgx:width="0.25,0.25,0.25,0.25,0.25,0.25,0.25,0.25,0.25,0.25,0.25,0.25,0.25,0.25,0.25,0.25" style="fill:rgb(0,0,0);font-family:TimesNewRomanPSMT;font-size:11.04px;stroke:none;"> </text>
  </g>
  <g begin="text">
   <text y="46.32" x="439.99,443.589,449.727,457.025,464.344" svgx:width="0.33,0.56,0.67,0.67,0.25" style="fill:rgb(0,0,0);font-family:TimesNewRomanPSMT;font-size:11.04px;stroke:none;">IPCC </text>
  </g>
  <g begin="text">
   <text y="46.32" x="467.11,475.026,482.345,487.865,490.625,501.047,509.018,512.584,516.183" svgx:width="0.72,0.67,0.5,0.25,0.94,0.72,0.33,0.33,0.33" style="fill:rgb(0,0,0);font-family:TimesNewRomanPSMT;font-size:11.04px;stroke:none;">AR6 WGIII</text>
  </g>
  <g begin="text">
   <text y="46.32" x="519.91" svgx:width="0.25" style="fill:rgb(0,0,0);font-family:TimesNewRomanPSMT;font-size:11.04px;stroke:none;"> </text>
  </g>
  <g begin="text">
   <text y="66.26" x="72.0" svgx:width="0.25" style="fill:rgb(0,0,0);font-family:TimesNewRomanPSMT;font-size:11.04px;stroke:none;"> </text>
  </g>
  <g begin="text">
   <text y="546.576" x="72.0" svgx:width="0.25" style="fill:rgb(0,0,0);font-family:TimesNewRomanPS-BoldMT;font-size:11.04px;stroke:none;"> </text>
  </g>
  <g begin="text">
   <text y="566.496" x="72.0,79.916,85.436,88.196,96.111,101.631,105.341,108.101,116.016,119.13,122.729,127.631,130.391,133.051,141.684,147.823,153.343,157.019,161.844,164.604,170.124,175.025,177.785,185.756,188.726,192.921,196.631,201.532,204.657,210.795,216.779,220.488" svgx:width="0.72,0.5,0.25,0.72,0.5,0.33,0.25,0.72,0.28,0.33,0.44,0.25,0.25,0.78,0.56,0.5,0.33,0.44,0.25,0.5,0.44,0.25,0.72,0.28,0.39,0.33,0.44,0.28,0.56,0.56,0.33,0.44" style="fill:rgb(0,0,0);font-family:TimesNewRomanPS-BoldMT;font-size:11.04px;stroke:none;">Do Not Cite, Quote or Distribute</text>
  </g>
  <g begin="text">
   <text y="566.496" x="225.38" svgx:width="0.25" style="fill:rgb(0,0,0);font-family:TimesNewRomanPS-BoldMT;font-size:11.04px;stroke:none;"> </text>
  </g>
  <g begin="text">
   <text y="566.496" x="288.05" svgx:width="0.25" style="fill:rgb(0,0,0);font-family:TimesNewRomanPS-BoldMT;font-size:11.04px;stroke:none;"> </text>
  </g>
  <g begin="text">
   <text y="566.496" x="324.05" svgx:width="0.5" style="fill:rgb(0,0,0);font-family:TimesNewRomanPSMT;font-size:11.04px;stroke:none;">1</text>
  </g>
  <g begin="text">
   <text y="566.496" x="329.57" svgx:width="0.33" style="fill:rgb(0,0,0);font-family:TimesNewRomanPSMT;font-size:11.04px;stroke:none;">-</text>
  </g>
  <g begin="text">
   <text y="566.496" x="333.17,338.69" svgx:width="0.5,0.5" style="fill:rgb(0,0,0);font-family:TimesNewRomanPSMT;font-size:11.04px;stroke:none;">37</text>
  </g>
  <g begin="text">
   <text y="566.496" x="344.21,346.97" svgx:width="0.25,0.25" style="fill:rgb(0,0,0);font-family:TimesNewRomanPSMT;font-size:11.04px;stroke:none;"> </text>
  </g>
  <g begin="text">
   <text y="566.496" x="349.73" svgx:width="0.25" style="fill:rgb(0,0,0);font-family:TimesNewRomanPSMT;font-size:11.04px;stroke:none;"> </text>
  </g>
  <g begin="text">
   <text y="566.496" x="360.05,362.81,365.57,368.33,371.09,373.85,376.61,379.37,382.13,384.89,387.65,390.41,393.17,395.93,398.69,401.45,404.21,406.97,409.609,412.369,415.129,417.889,420.649,423.409,426.169,428.929,431.689,434.449,437.209,439.969,442.607,445.367,448.127" svgx:width="0.25,0.25,0.25,0.25,0.25,0.25,0.25,0.25,0.25,0.25,0.25,0.25,0.25,0.25,0.25,0.25,0.25,0.25,0.25,0.25,0.25,0.25,0.25,0.25,0.25,0.25,0.25,0.25,0.25,0.25,0.25,0.25,0.25" style="fill:rgb(0,0,0);font-family:TimesNewRomanPSMT;font-size:11.04px;stroke:none;"> </text>
  </g>
  <g begin="text">
   <text y="566.496" x="450.91,457.655,463.175,466.145,471.047,474.171,476.931,482.33,487.232,492.752,497.675,501.871,504.984" svgx:width="0.61,0.5,0.28,0.44,0.28,0.25,0.5,0.44,0.5,0.44,0.39,0.28,0.25" style="fill:rgb(0,0,0);font-family:TimesNewRomanPSMT;font-size:11.04px;stroke:none;">Total pages: </text>
  </g>
  <g begin="text">
   <text y="566.496" x="507.79,513.31,518.83" svgx:width="0.5,0.5,0.5" style="fill:rgb(0,0,0);font-family:TimesNewRomanPSMT;font-size:11.04px;stroke:none;">106</text>
  </g>
  <g begin="text">
   <text y="566.496" x="524.23" svgx:width="0.25" style="fill:rgb(0,0,0);font-family:TimesNewRomanPSMT;font-size:11.04px;stroke:none;"> </text>
  </g>
  <g begin="text">
   <text y="85.22" x="278.45,285.054,290.083,295.621,298.39,302.812,305.302,310.352,312.862,317.892" svgx:width="0.67,0.5,0.56,0.28,0.44,0.25,0.5,0.25,0.5,0.25" style="fill:rgb(0,0,0);font-family:TimesNewRomanPS-BoldMT;font-size:9.96px;stroke:none;">Table 1.1 </text>
  </g>
  <g begin="text">
   <text y="85.22" x="320.45,324.295,327.063,329.832,335.33,339.175,342.521,346.944,351.993,355.34,358.109,363.129,367.551,370.081,379.443,382.212,385.549,388.318,393.337,398.367,401.714,404.483,409.503,415.04,417.53,423.656,428.685,432.032,437.57,444.761,449.781,454.811,458.655,461.165,466.703,470.527,474.95,480.487,482.997,485.766,491.304,493.794,500.985,508.176" svgx:width="0.39,0.28,0.28,0.56,0.39,0.33,0.44,0.5,0.33,0.28,0.5,0.44,0.25,0.94,0.28,0.33,0.28,0.5,0.5,0.33,0.28,0.5,0.56,0.25,0.61,0.5,0.33,0.56,0.72,0.5,0.5,0.39,0.25,0.56,0.39,0.44,0.56,0.25,0.28,0.56,0.25,0.72,0.72,0.5" style="fill:rgb(0,0,0);font-family:TimesNewRomanPS-BoldMT;font-size:9.96px;stroke:none;">Illustrative Mitigation Pathways used in AR6</text>
  </g>
  <g begin="text">
   <text y="85.22" x="513.55" svgx:width="0.25" style="fill:rgb(0,0,0);font-family:TimesNewRomanPS-BoldMT;font-size:9.96px;stroke:none;"> </text>
  </g>
  <path style="fill:rgb(68,114,196);stroke:none;stroke-width:1.0;" d="M122.060 476.140 L198.500 476.140 L198.500 512.500 L122.060 512.500 L122.060 476.140 "/>
  <path style="fill:rgb(68,114,196);stroke:none;stroke-width:1.0;" d="M122.060 479.740 L198.500 479.740 L198.500 508.900 L122.060 508.900 L122.060 479.740 M128.660 494.980 L191.780 494.980 L191.780 508.900 L128.660 508.900 L128.660 494.980 "/>
  <g begin="text">
   <text y="113.42" x="128.66,134.798,139.7,144.602,150.74,156.26,161.062,164.176,169.696" svgx:width="0.56,0.44,0.44,0.56,0.5,0.44,0.28,0.5,0.39" style="fill:rgb(0,0,0);font-family:TimesNewRomanPS-BoldMT;font-size:11.04px;stroke:none;">Scenarios</text>
  </g>
  <g begin="text">
   <text y="113.42" x="173.9" svgx:width="0.25" style="fill:rgb(0,0,0);font-family:TimesNewRomanPS-BoldMT;font-size:11.04px;stroke:none;"> </text>
  </g>
  <path style="fill:rgb(68,114,196);stroke:none;stroke-width:1.0;" d="M122.060 479.740 L198.500 479.740 L198.500 508.900 L122.060 508.900 L122.060 479.740 M122.060 479.740 L198.500 479.740 L198.500 508.900 L122.060 508.900 L122.060 479.740 M199.580 476.140 L269.440 476.140 L269.440 512.500 L199.580 512.500 L199.580 476.140 "/>
  <path style="fill:rgb(68,114,196);stroke:none;stroke-width:1.0;" d="M199.580 479.740 L269.440 479.740 L269.440 508.900 L199.580 508.900 L199.580 479.740 M206.180 494.980 L262.720 494.980 L262.720 508.900 L206.180 508.900 L206.180 494.980 "/>
  <g begin="text">
   <text y="113.42" x="206.18,212.925,219.019,222.133,225.246,228.006,235.922,241.32,250.55" svgx:width="0.61,0.56,0.28,0.28,0.25,0.72,0.5,0.83,0.44" style="fill:rgb(0,0,0);font-family:TimesNewRomanPS-BoldMT;font-size:11.04px;stroke:none;">Full Name</text>
  </g>
  <g begin="text">
   <text y="113.42" x="255.41" svgx:width="0.25" style="fill:rgb(0,0,0);font-family:TimesNewRomanPS-BoldMT;font-size:11.04px;stroke:none;"> </text>
  </g>
  <path style="fill:rgb(68,114,196);stroke:none;stroke-width:1.0;" d="M199.580 479.740 L269.440 479.740 L269.440 508.900 L199.580 508.900 L199.580 479.740 M199.580 479.740 L269.440 479.740 L269.440 508.900 L199.580 508.900 L199.580 479.740 "/>
  <g begin="text">
   <text y="113.42" x="277.13,287.552,293.072,296.196,302.334,305.094,311.796,317.194,320.307,323.31,328.212,333.732,336.492,344.463,350.546,356.066,360.968,366.388,371.29,374.911,379.813,384.737,387.74,392.034,395.655,398.658,403.56" svgx:width="0.94,0.5,0.28,0.56,0.25,0.61,0.5,0.28,0.28,0.44,0.5,0.25,0.72,0.56,0.5,0.44,0.5,0.44,0.33,0.44,0.44,0.28,0.39,0.33,0.28,0.44,0.39" style="fill:rgb(0,0,0);font-family:TimesNewRomanPS-BoldMT;font-size:11.04px;stroke:none;">Main Policy Characteristics</text>
  </g>
  <g begin="text">
   <text y="113.42" x="407.81" svgx:width="0.25" style="fill:rgb(0,0,0);font-family:TimesNewRomanPS-BoldMT;font-size:11.04px;stroke:none;"> </text>
  </g>
  <path style="fill:rgb(255,255,255);stroke:none;stroke-width:1.0;" d="M121.100 508.900 L122.060 508.900 L122.060 513.460 L121.100 513.460 L121.100 508.900 "/>
  <path style="fill:rgb(255,255,255);stroke:none;stroke-width:1.0;" d="M121.100 512.500 L122.060 512.500 L122.060 513.460 L121.100 513.460 L121.100 512.500 "/>
  <path style="fill:rgb(255,255,255);stroke:none;stroke-width:1.0;" d="M122.060 512.500 L198.500 512.500 L198.500 513.460 L122.060 513.460 L122.060 512.500 "/>
  <path style="fill:rgb(68,114,196);stroke:none;stroke-width:1.0;" d="M122.060 508.900 L198.500 508.900 L198.500 512.500 L122.060 512.500 L122.060 508.900 "/>
  <path style="fill:rgb(255,255,255);stroke:none;stroke-width:1.0;" d="M198.500 508.900 L199.460 508.900 L199.460 512.500 L198.500 512.500 L198.500 508.900 "/>
  <path style="fill:rgb(255,255,255);stroke:none;stroke-width:1.0;" d="M198.500 512.500 L199.460 512.500 L199.460 513.460 L198.500 513.460 L198.500 512.500 "/>
  <path style="fill:rgb(255,255,255);stroke:none;stroke-width:1.0;" d="M199.460 512.500 L269.440 512.500 L269.440 513.460 L199.460 513.460 L199.460 512.500 "/>
  <path style="fill:rgb(68,114,196);stroke:none;stroke-width:1.0;" d="M199.460 508.900 L269.440 508.900 L269.440 512.500 L199.460 512.500 L199.460 508.900 "/>
  <path style="fill:rgb(255,255,255);stroke:none;stroke-width:1.0;" d="M269.450 508.900 L270.410 508.900 L270.410 512.500 L269.450 512.500 L269.450 508.900 "/>
  <path style="fill:rgb(255,255,255);stroke:none;stroke-width:1.0;" d="M269.450 512.500 L270.410 512.500 L270.410 513.460 L269.450 513.460 L269.450 512.500 "/>
  <path style="fill:rgb(255,255,255);stroke:none;stroke-width:1.0;" d="M670.780 508.900 L671.740 508.900 L671.740 513.460 L670.780 513.460 L670.780 508.900 "/>
  <path style="fill:rgb(255,255,255);stroke:none;stroke-width:1.0;" d="M670.780 512.500 L671.740 512.500 L671.740 513.460 L670.780 513.460 L670.780 512.500 "/>
  <path style="fill:rgb(68,114,196);stroke:none;stroke-width:1.0;" d="M121.580 476.140 L198.980 476.140 L198.980 479.740 L121.580 479.740 L121.580 476.140 "/>
  <path style="fill:rgb(255,255,255);stroke:none;stroke-width:1.0;" d="M121.100 476.140 L122.060 476.140 L122.060 508.900 L121.100 508.900 L121.100 476.140 "/>
  <path style="fill:rgb(68,114,196);stroke:none;stroke-width:1.0;" d="M198.980 476.140 L269.920 476.140 L269.920 479.740 L198.980 479.740 L198.980 476.140 "/>
  <path style="fill:rgb(255,255,255);stroke:none;stroke-width:1.0;" d="M198.500 476.140 L199.460 476.140 L199.460 508.900 L198.500 508.900 L198.500 476.140 "/>
  <path style="fill:rgb(255,255,255);stroke:none;stroke-width:1.0;" d="M269.450 476.140 L270.410 476.140 L270.410 508.900 L269.450 508.900 L269.450 476.140 "/>
  <path style="fill:rgb(255,255,255);stroke:none;stroke-width:1.0;" d="M670.780 476.140 L671.740 476.140 L671.740 508.900 L670.780 508.900 L670.780 476.140 "/>
  <path style="fill:rgb(207,213,234);stroke:none;stroke-width:1.0;" d="M122.060 427.900 L198.500 427.900 L198.500 473.140 L122.060 473.140 L122.060 427.900 "/>
  <path style="fill:rgb(207,213,234);stroke:none;stroke-width:1.0;" d="M122.060 431.500 L198.500 431.500 L198.500 469.540 L122.060 469.540 L122.060 431.500 M128.660 456.820 L191.780 456.820 L191.780 469.540 L128.660 469.540 L128.660 456.820 "/>
  <g begin="text">
   <text y="151.82" x="128.66,135.851,141.389,145.811,151.927,156.956" svgx:width="0.72,0.56,0.44,0.61,0.5,0.28" style="fill:rgb(0,0,0);font-family:TimesNewRomanPS-BoldMT;font-size:9.96px;stroke:none;">CurPol</text>
  </g>
  <g begin="text">
   <text y="151.82" x="159.74" svgx:width="0.25" style="fill:rgb(0,0,0);font-family:TimesNewRomanPS-BoldMT;font-size:9.96px;stroke:none;"> </text>
  </g>
  <path style="fill:rgb(207,213,234);stroke:none;stroke-width:1.0;" d="M122.060 431.500 L198.500 431.500 L198.500 469.540 L122.060 469.540 L122.060 431.500 M122.060 431.500 L198.500 431.500 L198.500 469.540 L122.060 469.540 L122.060 431.500 M199.580 427.900 L269.440 427.900 L269.440 473.140 L199.580 473.140 L199.580 427.900 "/>
  <path style="fill:rgb(207,213,234);stroke:none;stroke-width:1.0;" d="M199.580 431.500 L269.440 431.500 L269.440 469.540 L199.580 469.540 L199.580 431.500 M206.180 458.020 L262.720 458.020 L262.720 469.540 L206.180 469.540 L206.180 458.020 "/>
  <g begin="text">
   <text y="151.82" x="206.18,212.784,217.813,221.16,224.506,228.929,233.978,236.747" svgx:width="0.67,0.5,0.33,0.33,0.44,0.5,0.28,0.25" style="fill:rgb(0,0,0);font-family:TimesNewRomanPSMT;font-size:9.96px;stroke:none;">Current </text>
  </g>
  <path style="fill:rgb(207,213,234);stroke:none;stroke-width:1.0;" d="M199.580 431.500 L269.440 431.500 L269.440 469.540 L199.580 469.540 L199.580 431.500 M206.180 446.500 L262.720 446.500 L262.720 458.020 L206.180 458.020 L206.180 446.500 "/>
  <g begin="text">
   <text y="163.34" x="206.18,211.718,216.728,219.497,222.265,226.688,229.457,233.879" svgx:width="0.56,0.5,0.28,0.28,0.44,0.28,0.44,0.39" style="fill:rgb(0,0,0);font-family:TimesNewRomanPSMT;font-size:9.96px;stroke:none;">Policies</text>
  </g>
  <g begin="text">
   <text y="163.34" x="237.86" svgx:width="0.25" style="fill:rgb(0,0,0);font-family:TimesNewRomanPSMT;font-size:9.96px;stroke:none;"> </text>
  </g>
  <path style="fill:rgb(207,213,234);stroke:none;stroke-width:1.0;" d="M199.580 431.500 L269.440 431.500 L269.440 469.540 L199.580 469.540 L199.580 431.500 M199.580 431.500 L269.440 431.500 L269.440 469.540 L199.580 469.540 L199.580 431.500 "/>
  <g begin="text">
   <text y="151.82" x="277.13,280.477,288.265,293.295,296.064,300.486,308.285,312.707,317.757,320.526,324.948,327.717,330.486,335.506,340.535,343.02500000000003,345.087,350.007,353.354,355.844,357.906,362.328,367.378,370.724,374.071,378.493,383.543,386.312,388.802,390.853,395.276,397.935,400.704,408.483,412.905,415.674" svgx:width="0.33,0.78,0.5,0.28,0.44,0.78,0.44,0.5,0.28,0.44,0.28,0.28,0.5,0.5,0.25,0.55,0.5,0.33,0.25,0.55,0.44,0.5,0.33,0.33,0.44,0.5,0.28,0.25,0.55,0.44,0.28,0.28,0.78,0.44,0.28,0.44" style="fill:rgb(0,0,0);font-family:TimesNewRomanPSMT;font-size:9.96px;stroke:none;">Implementation of current climate</text>
  </g>
  <g begin="text">
   <text y="151.82" x="420.31" svgx:width="0.25" style="fill:rgb(0,0,0);font-family:TimesNewRomanPS-ItalicMT;font-size:9.96px;stroke:none;"> </text>
  </g>
  <g begin="text">
   <text y="151.82" x="424.87,429.9,434.93,437.699,440.467,444.89,447.659,452.081" svgx:width="0.5,0.5,0.28,0.28,0.44,0.28,0.44,0.39" style="fill:rgb(0,0,0);font-family:TimesNewRomanPS-ItalicMT;font-size:9.96px;stroke:none;">policies</text>
  </g>
  <g begin="text">
   <text y="151.82" x="455.95" svgx:width="0.25" style="fill:rgb(0,0,0);font-family:TimesNewRomanPSMT;font-size:9.96px;stroke:none;"> </text>
  </g>
  <g begin="text">
   <text y="151.82" x="460.51,463.857,471.645,476.675,480.52,483.289,486.057,491.067,493.557,495.619,500.041,504.005,506.495,508.557,511.904,516.326,521.376,526.405,529.752,532.521,536.943,541.983,544.473,546.535,549.303,554.323,556.813,558.875,566.066,573.257,579.9,583.715,587.062,589.572" svgx:width="0.33,0.78,0.5,0.39,0.28,0.28,0.5,0.25,0.55,0.44,0.39,0.25,0.55,0.33,0.44,0.5,0.5,0.33,0.28,0.44,0.5,0.25,0.55,0.28,0.5,0.25,0.55,0.72,0.72,0.67,0.39,0.33,0.25,0.25" style="fill:rgb(0,0,0);font-family:TimesNewRomanPSMT;font-size:9.96px;stroke:none;">(mostly as reported in NDCs), </text>
  </g>
  <g begin="text">
   <text y="151.82" x="594.34,599.37,603.792,608.842,611.611,616.033,620.455,623.224,625.993,631.033,636.062,638.552,640.614,644.459,647.227,651.65,654.419,658.841,664.01" svgx:width="0.5,0.44,0.5,0.28,0.44,0.44,0.28,0.28,0.5,0.5,0.25,0.55,0.39,0.28,0.44,0.28,0.44,0.5,0.25" style="fill:rgb(0,0,0);font-family:TimesNewRomanPSMT;font-size:9.96px;stroke:none;">neglecting stated </text>
  </g>
  <g begin="text">
   <text y="164.54" x="277.13,280.975,286.004,291.034,294.879,299.301,304.351,309.381,313.803,318.853,321.621,324.111,325.566,330.595,335.625,340.047,342.816,346.691,349.181,350.615,355.037,360.087,365.117,367.607,368.951,373.981,379.011,381.78,386.202,390.624,393.393,396.053,401.082,405.505,409.379,411.869,413.313,416.66,421.082,423.612,428.642,431.152,433.642,435.106,438.452,443.373,446.719,449.209,450.673,455.703,460.623,465.653,470.683,474.03" svgx:width="0.39,0.5,0.5,0.39,0.44,0.5,0.5,0.44,0.5,0.28,0.25,0.55,0.5,0.5,0.44,0.28,0.39,0.25,0.55,0.44,0.5,0.5,0.25,0.55,0.5,0.5,0.28,0.44,0.44,0.28,0.28,0.5,0.44,0.39,0.25,0.55,0.33,0.44,0.25,0.5,0.25,0.25,0.55,0.33,0.5,0.33,0.25,0.55,0.5,0.5,0.5,0.5,0.33,0.28" style="fill:rgb(0,0,0);font-family:TimesNewRomanPSMT;font-size:9.96px;stroke:none;">subsequent goals and objectives (e.g. for 2030);</text>
  </g>
  <g begin="text">
   <text y="164.54" x="477.07" svgx:width="0.25" style="fill:rgb(0,0,0);font-family:TimesNewRomanPSMT;font-size:9.96px;stroke:none;"> </text>
  </g>
  <g begin="text">
   <text y="164.54" x="481.03,485.95,490.98,493.749,498.769,501.259,502.723,507.643,510.99,515.312,520.342,525.372,529.794,532.563,535.053,536.517,540.362,543.131,546.467,550.889,555.939,560.969,563.738,568.758,573.18,578.23,580.869,585.899,590.928,593.418,594.883,599.305,602.671,605.44,609.862,613.219,615.7090000000001,617.053,622.083,627.113,632.033,636.953,639.722" svgx:width="0.5,0.5,0.28,0.5,0.25,0.55,0.5,0.33,0.44,0.5,0.5,0.44,0.28,0.25,0.55,0.39,0.28,0.33,0.44,0.5,0.5,0.28,0.5,0.44,0.5,0.28,0.5,0.5,0.25,0.55,0.44,0.33,0.28,0.44,0.33,0.25,0.55,0.5,0.5,0.5,0.5,0.28,0.25" style="fill:rgb(0,0,0);font-family:TimesNewRomanPSMT;font-size:9.96px;stroke:none;">only gradual strengthening after 2030; </text>
  </g>
  <g begin="text">
   <text y="164.54" x="643.9,651.091,654.448,658.87,664.039" svgx:width="0.72,0.33,0.44,0.5,0.25" style="fill:rgb(0,0,0);font-family:TimesNewRomanPSMT;font-size:9.96px;stroke:none;">Grey </text>
  </g>
  <g begin="text">
   <text y="177.14" x="277.13,283.734,288.763,293.793,296.562,301.582,304.092,307.438,311.861,316.313,321.343,326.372,330.695,334.042,339.071" svgx:width="0.67,0.5,0.5,0.28,0.5,0.25,0.33,0.44,0.44,0.5,0.5,0.44,0.33,0.5,0.25" style="fill:rgb(0,0,0);font-family:TimesNewRomanPSMT;font-size:9.96px;stroke:none;">Covid recovery.</text>
  </g>
  <g begin="text">
   <text y="177.14" x="341.57" svgx:width="0.25" style="fill:rgb(0,0,0);font-family:TimesNewRomanPSMT;font-size:9.96px;stroke:none;"> </text>
  </g>
  <path style="fill:rgb(255,255,255);stroke:none;stroke-width:1.0;" d="M121.100 469.540 L122.060 469.540 L122.060 476.140 L121.100 476.140 L121.100 469.540 "/>
  <path style="fill:rgb(255,255,255);stroke:none;stroke-width:1.0;" d="M122.060 473.140 L198.500 473.140 L198.500 476.140 L122.060 476.140 L122.060 473.140 "/>
  <path style="fill:rgb(207,213,234);stroke:none;stroke-width:1.0;" d="M122.060 469.540 L198.500 469.540 L198.500 473.140 L122.060 473.140 L122.060 469.540 "/>
  <path style="fill:rgb(207,213,234);stroke:none;stroke-width:1.0;" d="M199.460 469.540 L201.500 469.540 L201.500 473.140 L199.460 473.140 L199.460 469.540 "/>
  <path style="fill:rgb(255,255,255);stroke:none;stroke-width:1.0;" d="M198.500 469.540 L199.460 469.540 L199.460 473.140 L198.500 473.140 L198.500 469.540 "/>
  <path style="fill:rgb(255,255,255);stroke:none;stroke-width:1.0;" d="M198.500 473.140 L201.500 473.140 L201.500 476.140 L198.500 476.140 L198.500 473.140 "/>
  <path style="fill:rgb(255,255,255);stroke:none;stroke-width:1.0;" d="M201.500 473.140 L269.440 473.140 L269.440 476.140 L201.500 476.140 L201.500 473.140 "/>
  <path style="fill:rgb(207,213,234);stroke:none;stroke-width:1.0;" d="M201.500 469.540 L269.440 469.540 L269.440 473.140 L201.500 473.140 L201.500 469.540 "/>
  <path style="fill:rgb(207,213,234);stroke:none;stroke-width:1.0;" d="M270.410 469.540 L272.450 469.540 L272.450 473.140 L270.410 473.140 L270.410 469.540 "/>
  <path style="fill:rgb(255,255,255);stroke:none;stroke-width:1.0;" d="M269.450 469.540 L270.410 469.540 L270.410 473.140 L269.450 473.140 L269.450 469.540 "/>
  <path style="fill:rgb(255,255,255);stroke:none;stroke-width:1.0;" d="M269.450 473.140 L272.450 473.140 L272.450 476.140 L269.450 476.140 L269.450 473.140 "/>
  <path style="fill:rgb(255,255,255);stroke:none;stroke-width:1.0;" d="M670.780 469.540 L671.740 469.540 L671.740 476.140 L670.780 476.140 L670.780 469.540 "/>
  <path style="fill:rgb(207,213,234);stroke:none;stroke-width:1.0;" d="M121.580 427.900 L198.980 427.900 L198.980 431.500 L121.580 431.500 L121.580 427.900 "/>
  <path style="fill:rgb(255,255,255);stroke:none;stroke-width:1.0;" d="M121.100 427.900 L122.060 427.900 L122.060 469.540 L121.100 469.540 L121.100 427.900 "/>
  <path style="fill:rgb(207,213,234);stroke:none;stroke-width:1.0;" d="M198.980 427.900 L269.920 427.900 L269.920 431.500 L198.980 431.500 L198.980 427.900 "/>
  <path style="fill:rgb(255,255,255);stroke:none;stroke-width:1.0;" d="M198.500 427.900 L199.460 427.900 L199.460 469.540 L198.500 469.540 L198.500 427.900 "/>
  <path style="fill:rgb(255,255,255);stroke:none;stroke-width:1.0;" d="M269.450 427.900 L270.410 427.900 L270.410 469.540 L269.450 469.540 L269.450 427.900 "/>
  <path style="fill:rgb(255,255,255);stroke:none;stroke-width:1.0;" d="M670.780 427.900 L671.740 427.900 L671.740 469.540 L670.780 469.540 L670.780 427.900 "/>
  <path style="fill:rgb(233,235,245);stroke:none;stroke-width:1.0;" d="M122.060 381.790 L198.500 381.790 L198.500 426.930 L122.060 426.930 L122.060 381.790 "/>
  <path style="fill:rgb(233,235,245);stroke:none;stroke-width:1.0;" d="M122.060 385.390 L198.500 385.390 L198.500 423.330 L122.060 423.330 L122.060 385.390 M128.660 410.710 L191.780 410.710 L191.780 423.330 L128.660 423.330 L128.660 410.710 "/>
  <g begin="text">
   <text y="198.05" x="128.66,138.022,143.052,148.59,155.781,160.203" svgx:width="0.94,0.5,0.56,0.72,0.44,0.33" style="fill:rgb(0,0,0);font-family:TimesNewRomanPS-BoldMT;font-size:9.96px;stroke:none;">ModAct</text>
  </g>
  <g begin="text">
   <text y="198.05" x="163.7" svgx:width="0.25" style="fill:rgb(0,0,0);font-family:TimesNewRomanPS-BoldMT;font-size:9.96px;stroke:none;"> </text>
  </g>
  <path style="fill:rgb(233,235,245);stroke:none;stroke-width:1.0;" d="M122.060 385.390 L198.500 385.390 L198.500 423.330 L122.060 423.330 L122.060 385.390 M122.060 385.390 L198.500 385.390 L198.500 423.330 L122.060 423.330 L122.060 385.390 M199.580 381.790 L269.440 381.790 L269.440 426.930 L199.580 426.930 L199.580 381.790 "/>
  <path style="fill:rgb(233,235,245);stroke:none;stroke-width:1.0;" d="M199.580 385.390 L269.440 385.390 L269.440 423.330 L199.580 423.330 L199.580 385.390 M206.180 410.710 L262.720 410.710 L262.720 423.330 L206.180 423.330 L206.180 410.710 "/>
  <g begin="text">
   <text y="198.05" x="206.18,215.034,220.094,225.124,229.546,232.913,237.335,240.104,244.526" svgx:width="0.89,0.5,0.5,0.44,0.33,0.44,0.28,0.44,0.25" style="fill:rgb(0,0,0);font-family:TimesNewRomanPSMT;font-size:9.96px;stroke:none;">Moderate </text>
  </g>
  <path style="fill:rgb(233,235,245);stroke:none;stroke-width:1.0;" d="M199.580 385.390 L269.440 385.390 L269.440 423.330 L199.580 423.330 L199.580 385.390 M206.180 397.990 L262.720 397.990 L262.720 410.710 L206.180 410.710 L206.180 397.990 "/>
  <g begin="text">
   <text y="210.65" x="206.18,213.371,217.793,220.562,223.331,228.371,233.401,235.911" svgx:width="0.72,0.44,0.28,0.28,0.5,0.5,0.25,0.25" style="fill:rgb(0,0,0);font-family:TimesNewRomanPSMT;font-size:9.96px;stroke:none;">Action </text>
  </g>
  <g begin="text">
   <text y="210.65" x="238.34" svgx:width="0.25" style="fill:rgb(0,0,0);font-family:TimesNewRomanPSMT;font-size:9.96px;stroke:none;"> </text>
  </g>
  <path style="fill:rgb(233,235,245);stroke:none;stroke-width:1.0;" d="M199.580 385.390 L269.440 385.390 L269.440 423.330 L199.580 423.330 L199.580 385.390 M199.580 385.390 L269.440 385.390 L269.440 423.330 L199.580 423.330 L199.580 385.390 "/>
  <g begin="text">
   <text y="198.05" x="277.13,280.477,288.265,293.295,296.064,300.486,308.285,312.707,317.757,320.526,324.948,327.717,330.486,335.506,340.426,343.653,348.683,351.92,355.147,359.569,364.619,367.856,371.202,375.624,380.674,383.443,386.541,391.57,396.6,399.24,402.009,406.431,409.2,413.622,417.496" svgx:width="0.33,0.78,0.5,0.28,0.44,0.78,0.44,0.5,0.28,0.44,0.28,0.28,0.5,0.5,0.25,0.5,0.33,0.25,0.44,0.5,0.33,0.33,0.44,0.5,0.28,0.25,0.5,0.5,0.28,0.28,0.44,0.28,0.44,0.39,0.25" style="fill:rgb(0,0,0);font-family:TimesNewRomanPSMT;font-size:9.96px;stroke:none;">Implementation of current policies </text>
  </g>
  <g begin="text">
   <text y="198.05" x="420.91,425.95,430.99" svgx:width="0.5,0.5,0.5" style="fill:rgb(0,0,0);font-family:TimesNewRomanPS-ItalicMT;font-size:9.96px;stroke:none;">and</text>
  </g>
  <g begin="text">
   <text y="198.05" x="436.03" svgx:width="0.25" style="fill:rgb(0,0,0);font-family:TimesNewRomanPSMT;font-size:9.96px;stroke:none;"> </text>
  </g>
  <g begin="text">
   <text y="198.05" x="439.27,443.692,448.035,453.065,455.833,460.256,465.296,469.718,477.526,481.949,486.998,489.638,492.865,497.895,501.132,504.359,509.388,514.309,519.229,524.259,527.486,534.677,541.868,548.511,552.326,554.836,558.063,565.254,568.023,570.792,575.811,579.039,582.385,587.415,590.761,593.53,598.55,602.873,606.219,609.446,613.291,616.06,619.396,623.818,628.868,633.898,636.537,641.458,645.88,650.93,653.698,658.718,663.748" svgx:width="0.44,0.44,0.5,0.28,0.44,0.5,0.44,0.78,0.44,0.5,0.28,0.25,0.5,0.33,0.25,0.5,0.5,0.5,0.5,0.25,0.72,0.72,0.67,0.39,0.25,0.25,0.72,0.28,0.28,0.5,0.25,0.33,0.5,0.33,0.28,0.5,0.44,0.33,0.25,0.39,0.28,0.33,0.44,0.5,0.5,0.28,0.5,0.44,0.5,0.28,0.5,0.5,0.25" style="fill:rgb(0,0,0);font-family:TimesNewRomanPSMT;font-size:9.96px;stroke:none;">achievement of 2030 NDCs, with further strengthening </text>
  </g>
  <g begin="text">
   <text y="210.65" x="277.13,282.16,287.19,291.034" svgx:width="0.5,0.5,0.39,0.28" style="fill:rgb(0,0,0);font-family:TimesNewRomanPSMT;font-size:9.96px;stroke:none;">post</text>
  </g>
  <g begin="text">
   <text y="210.65" x="293.81" svgx:width="0.33" style="fill:rgb(0,0,0);font-family:TimesNewRomanPSMT;font-size:9.96px;stroke:none;">-</text>
  </g>
  <g begin="text">
   <text y="210.65" x="297.17,302.2,307.23,312.15,317.18,319.69,321.97,327.508,330.277,338.026,340.795,343.564,347.986,351.362,354.131" svgx:width="0.5,0.5,0.5,0.5,0.25,0.25,0.56,0.28,0.78,0.28,0.28,0.44,0.33,0.28,0.5" style="fill:rgb(0,0,0);font-family:TimesNewRomanPSMT;font-size:9.96px;stroke:none;">2030. Similarly</text>
  </g>
  <g begin="text">
   <text y="210.65" x="359.21" svgx:width="0.25" style="fill:rgb(0,0,0);font-family:TimesNewRomanPSMT;font-size:9.96px;stroke:none;"> </text>
  </g>
  <g begin="text">
   <text y="210.65" x="361.49,364.259,369.279,371.56,374.328,379.348,383.771,386.071,389.916,392.685,395.543,400.573,404.995,407.764,410.533,415.563,420.593,422.874,425.642,433.421,438.451,441.22,443.989,448.411,453.441,455.722,460.751,465.781,468.062,470.831,475.851,480.273,482.574,487.604,490.373,495.392,499.815,503.181,507.026,509.795,512.563,517.464,519.745,524.774,528.121,530.402,537.593,544.784,551.427,555.352,557.632,560.979,566.009,571.038,573.807,578.827,581.108,586.138,591.167,593.936,596.705,601.127,603.896,608.319,612.193,614.444,618.866,623.916,628.946,631.227,636.256,639.025,643.447,648.487,653.517,657.939,661.306,663.706" svgx:width="0.28,0.5,0.25,0.28,0.5,0.44,0.25,0.39,0.28,0.28,0.5,0.44,0.28,0.28,0.5,0.5,0.25,0.28,0.78,0.5,0.28,0.28,0.44,0.5,0.25,0.5,0.5,0.25,0.28,0.5,0.44,0.25,0.5,0.28,0.5,0.44,0.33,0.39,0.28,0.28,0.5,0.25,0.5,0.33,0.25,0.72,0.72,0.67,0.39,0.25,0.33,0.5,0.5,0.28,0.5,0.25,0.5,0.5,0.28,0.28,0.44,0.28,0.44,0.39,0.25,0.44,0.5,0.5,0.25,0.5,0.28,0.44,0.5,0.5,0.44,0.33,0.25,0.25" style="fill:rgb(0,0,0);font-family:TimesNewRomanPSMT;font-size:9.96px;stroke:none;">to the situation implied by the diversity of NDCs (both policies and pledge), </text>
  </g>
  <g begin="text">
   <text y="223.37" x="277.13,281.552,284.082,287.429,290.775,295.197,300.247,308.036,312.359,317.388,320.157,324.579,329.619,332.129,337.049,342.079,344.848,347.617,352.039,357.069,359.579,362.348,366.77,371.81,376.84,380.684,385.107,389.559,394.588,398.911,401.421,404.768,409.19,416.998,421.421,424.19,429.229,433.074,435.843,438.333,446.141,448.91,453.93,458.352,463.402,465.912,472.516,477.545,482.575,485.344,490.254,492.764,496.111,500.533,504.985,509.905,514.935,519.258,522.604,527.634" svgx:width="0.44,0.25,0.33,0.33,0.44,0.5,0.78,0.44,0.5,0.28,0.44,0.5,0.25,0.5,0.5,0.28,0.28,0.44,0.5,0.25,0.28,0.44,0.5,0.5,0.39,0.44,0.44,0.5,0.44,0.25,0.33,0.44,0.78,0.44,0.28,0.5,0.39,0.28,0.25,0.78,0.28,0.5,0.44,0.5,0.25,0.67,0.5,0.5,0.28,0.5,0.25,0.33,0.44,0.44,0.5,0.5,0.44,0.33,0.5,0.25" style="fill:rgb(0,0,0);font-family:TimesNewRomanPSMT;font-size:9.96px;stroke:none;">a fragmented policy landscape remains; mixed Covid recovery.</text>
  </g>
  <g begin="text">
   <text y="223.37" x="530.35" svgx:width="0.25" style="fill:rgb(0,0,0);font-family:TimesNewRomanPSMT;font-size:9.96px;stroke:none;"> </text>
  </g>
  <path style="fill:rgb(255,255,255);stroke:none;stroke-width:1.0;" d="M121.100 423.340 L122.060 423.340 L122.060 427.900 L121.100 427.900 L121.100 423.340 "/>
  <path style="fill:rgb(255,255,255);stroke:none;stroke-width:1.0;" d="M122.060 426.940 L198.500 426.940 L198.500 427.900 L122.060 427.900 L122.060 426.940 "/>
  <path style="fill:rgb(233,235,245);stroke:none;stroke-width:1.0;" d="M122.060 423.340 L198.500 423.340 L198.500 426.940 L122.060 426.940 L122.060 423.340 "/>
  <path style="fill:rgb(255,255,255);stroke:none;stroke-width:1.0;" d="M198.500 423.340 L199.460 423.340 L199.460 427.900 L198.500 427.900 L198.500 423.340 "/>
  <path style="fill:rgb(255,255,255);stroke:none;stroke-width:1.0;" d="M199.460 426.940 L269.440 426.940 L269.440 427.900 L199.460 427.900 L199.460 426.940 "/>
  <path style="fill:rgb(233,235,245);stroke:none;stroke-width:1.0;" d="M199.460 423.340 L269.440 423.340 L269.440 426.940 L199.460 426.940 L199.460 423.340 "/>
  <path style="fill:rgb(255,255,255);stroke:none;stroke-width:1.0;" d="M269.450 423.340 L270.410 423.340 L270.410 427.900 L269.450 427.900 L269.450 423.340 "/>
  <path style="fill:rgb(255,255,255);stroke:none;stroke-width:1.0;" d="M670.780 423.340 L671.740 423.340 L671.740 427.900 L670.780 427.900 L670.780 423.340 "/>
  <path style="fill:rgb(233,235,245);stroke:none;stroke-width:1.0;" d="M121.580 381.790 L198.980 381.790 L198.980 385.390 L121.580 385.390 L121.580 381.790 "/>
  <path style="fill:rgb(255,255,255);stroke:none;stroke-width:1.0;" d="M121.100 381.790 L122.060 381.790 L122.060 423.330 L121.100 423.330 L121.100 381.790 "/>
  <path style="fill:rgb(233,235,245);stroke:none;stroke-width:1.0;" d="M198.980 381.790 L269.920 381.790 L269.920 385.390 L198.980 385.390 L198.980 381.790 "/>
  <path style="fill:rgb(255,255,255);stroke:none;stroke-width:1.0;" d="M198.500 381.790 L199.460 381.790 L199.460 423.330 L198.500 423.330 L198.500 381.790 "/>
  <path style="fill:rgb(255,255,255);stroke:none;stroke-width:1.0;" d="M269.450 381.790 L270.410 381.790 L270.410 423.330 L269.450 423.330 L269.450 381.790 "/>
  <path style="fill:rgb(255,255,255);stroke:none;stroke-width:1.0;" d="M670.780 381.790 L671.740 381.790 L671.740 423.330 L670.780 423.330 L670.780 381.790 "/>
  <g begin="text">
   <text y="378.79" transform="matrix(0.0,-1.0,1.0,0.0,-240.65,516.93)" rotateDegrees="-90" matrix="[0.0,9.96,-9.96,0.0,138.14,233.21]" x="138.14,141.985,151.34699999999998,157.452" svgx:width="0.39,0.94,0.61,0.39" style="fill:rgb(0,0,0);font-family:TimesNewRomanPS-BoldMT;font-size:9.96px;stroke:none;">IMPs</text>
  </g>
  <g begin="text">
   <text y="355.51" transform="matrix(0.0,-1.0,1.0,0.0,-217.37,493.65)" rotateDegrees="-90" matrix="[0.0,9.96,-9.96,0.0,138.14,256.49]" x="138.14" svgx:width="0.25" style="fill:rgb(0,0,0);font-family:TimesNewRomanPS-BoldMT;font-size:9.96px;stroke:none;"> </text>
  </g>
  <path style="fill:rgb(207,213,234);stroke:none;stroke-width:1.0;" d="M140.060 244.970 L163.100 244.970 L163.100 257.570 L140.060 257.570 L140.060 244.970 "/>
  <g begin="text">
   <text y="363.79" x="141.02,146.05,148.56,153.59,156.358" svgx:width="0.5,0.25,0.5,0.28,0.57" style="fill:rgb(0,0,0);font-family:TimesNewRomanPS-BoldMT;font-size:9.96px;stroke:none;">1.5/&lt;</text>
  </g>
  <path style="fill:rgb(207,213,234);stroke:none;stroke-width:1.0;" d="M140.060 232.370 L163.100 232.370 L163.100 244.970 L140.060 244.970 L140.060 232.370 "/>
  <g begin="text">
   <text y="376.39" x="149.06" svgx:width="0.5" style="fill:rgb(0,0,0);font-family:TimesNewRomanPS-BoldMT;font-size:9.96px;stroke:none;">2</text>
  </g>
  <g begin="text">
   <text y="376.39" x="154.1" svgx:width="0.25" style="fill:rgb(0,0,0);font-family:TimesNewRomanPS-BoldMT;font-size:9.96px;stroke:none;"> </text>
  </g>
  <path style="fill:rgb(207,213,234);stroke:none;stroke-width:1.0;" d="M164.060 344.350 L198.500 344.350 L198.500 380.830 L164.060 380.830 L164.060 344.350 "/>
  <path style="fill:rgb(207,213,234);stroke:none;stroke-width:1.0;" d="M164.060 347.950 L198.500 347.950 L198.500 377.230 L164.060 377.230 L164.060 347.950 M170.780 364.510 L191.780 364.510 L191.780 377.230 L170.780 377.230 L170.780 364.510 "/>
  <g begin="text">
   <text y="244.13" x="170.78,178.58" svgx:width="0.78,0.56" style="fill:rgb(0,0,0);font-family:TimesNewRomanPS-BoldMT;font-size:9.96px;stroke:none;">GS</text>
  </g>
  <g begin="text">
   <text y="244.13" x="184.1" svgx:width="0.25" style="fill:rgb(0,0,0);font-family:TimesNewRomanPS-BoldMT;font-size:9.96px;stroke:none;"> </text>
  </g>
  <path style="fill:rgb(207,213,234);stroke:none;stroke-width:1.0;" d="M164.060 347.950 L198.500 347.950 L198.500 377.230 L164.060 377.230 L164.060 347.950 M164.060 347.950 L198.500 347.950 L198.500 377.230 L164.060 377.230 L164.060 347.950 M199.580 344.350 L269.440 344.350 L269.440 380.830 L199.580 380.830 L199.580 344.350 "/>
  <path style="fill:rgb(207,213,234);stroke:none;stroke-width:1.0;" d="M199.580 347.950 L269.440 347.950 L269.440 377.230 L199.580 377.230 L199.580 347.950 M206.180 364.510 L262.720 364.510 L262.720 377.230 L206.180 377.230 L206.180 364.510 "/>
  <g begin="text">
   <text y="244.13" x="206.18,213.371,216.728,221.15,226.2,231.229,235.652,238.421" svgx:width="0.72,0.33,0.44,0.5,0.5,0.44,0.28,0.25" style="fill:rgb(0,0,0);font-family:TimesNewRomanPSMT;font-size:9.96px;stroke:none;">Gradual </text>
  </g>
  <path style="fill:rgb(207,213,234);stroke:none;stroke-width:1.0;" d="M199.580 347.950 L269.440 347.950 L269.440 377.230 L199.580 377.230 L199.580 347.950 M206.180 351.910 L262.720 351.910 L262.720 364.510 L206.180 364.510 L206.180 351.910 "/>
  <g begin="text">
   <text y="256.85" x="206.18,211.718,214.487,217.803,222.245,227.275,232.305,235.074,240.094,244.516,249.566,252.335,257.354" svgx:width="0.56,0.28,0.33,0.44,0.5,0.5,0.28,0.5,0.44,0.5,0.28,0.5,0.5" style="fill:rgb(0,0,0);font-family:TimesNewRomanPSMT;font-size:9.96px;stroke:none;">Strengthening</text>
  </g>
  <g begin="text">
   <text y="256.85" x="262.37" svgx:width="0.25" style="fill:rgb(0,0,0);font-family:TimesNewRomanPSMT;font-size:9.96px;stroke:none;"> </text>
  </g>
  <path style="fill:rgb(207,213,234);stroke:none;stroke-width:1.0;" d="M199.580 347.950 L269.440 347.950 L269.440 377.230 L199.580 377.230 L199.580 347.950 M199.580 347.950 L269.440 347.950 L269.440 377.230 L199.580 377.230 L199.580 347.950 "/>
  <g begin="text">
   <text y="244.13" x="277.13,284.321,289.361,292.13,294.899,297.668,300.387,305.416,310.446,315.476,320.506,323.016,325.645,330.675,334.022,336.791,344.569,348.992,352.358,355.127,357.896,362.906,365.655,370.077,375.017,378.364,381.71,386.132,391.182,393.951,396.57,403.762,410.953,417.596,421.411,424.16,428.582,431.948,436.371,439.14,441.908,449.687,454.717,457.486,461.908,469.707,474.129,479.179,481.948,486.37,491.41,494.179,496.918,501.34,504.706,507.475,511.897,515.254,518.003,520.772,525.792,530.214,532.983,535.742,540.164" svgx:width="0.72,0.5,0.28,0.28,0.28,0.25,0.5,0.5,0.5,0.5,0.25,0.25,0.5,0.33,0.28,0.78,0.44,0.33,0.28,0.28,0.5,0.25,0.44,0.5,0.33,0.33,0.44,0.5,0.28,0.25,0.72,0.72,0.67,0.39,0.25,0.44,0.33,0.44,0.25,0.28,0.78,0.5,0.28,0.44,0.78,0.44,0.5,0.28,0.44,0.5,0.28,0.25,0.44,0.33,0.28,0.44,0.33,0.25,0.28,0.5,0.44,0.28,0.25,0.44,0.25" style="fill:rgb(0,0,0);font-family:TimesNewRomanPSMT;font-size:9.96px;stroke:none;">Until 2030, primarily current NDCs are implemented; after that a </text>
  </g>
  <g begin="text">
   <text y="244.13" x="543.31,547.155,549.923,553.26,558.29,563.32,568.349,570.859,573.608,578.529,583.558,586.327,591.347,595.769,599.136,602.98,607.402,610.171,612.93,616.277,620.699,625.749,628.518,636.296,640.619,643.368,646.137,650.559,654.981,660.041,663.885" svgx:width="0.39,0.28,0.33,0.5,0.5,0.5,0.25,0.25,0.5,0.5,0.28,0.5,0.44,0.33,0.39,0.44,0.28,0.25,0.33,0.44,0.5,0.28,0.78,0.44,0.25,0.28,0.44,0.44,0.5,0.39,0.25" style="fill:rgb(0,0,0);font-family:TimesNewRomanPSMT;font-size:9.96px;stroke:none;">strong, universal regime leads </text>
  </g>
  <g begin="text">
   <text y="256.85" x="277.13,279.899,284.919,287.429,291.851,296.901,301.93,305.167,310.197,312.966,317.986,322.408,325.177,329.599,334.659,337.169,341.591,346.531,351.561,354.071,357.418,361.74,366.77,369.539,374.559,377.069,382.099,386.521,390.973,395.395,398.652,403.682,408.712,413.742,416.51,420.345,424.767,427.536,430.305,435.335,440.365,442.875,447.297,451.749,454.518,457.287,462.297,467.326,471.171" svgx:width="0.28,0.5,0.25,0.44,0.5,0.5,0.33,0.5,0.28,0.5,0.44,0.28,0.44,0.5,0.25,0.44,0.5,0.5,0.25,0.33,0.44,0.5,0.28,0.5,0.25,0.5,0.44,0.44,0.44,0.33,0.5,0.5,0.5,0.28,0.39,0.44,0.28,0.28,0.5,0.5,0.25,0.44,0.44,0.28,0.28,0.5,0.5,0.39,0.25" style="fill:rgb(0,0,0);font-family:TimesNewRomanPSMT;font-size:9.96px;stroke:none;">to coordinated and rapid decarbonisation actions.</text>
  </g>
  <g begin="text">
   <text y="256.85" x="473.83" svgx:width="0.25" style="fill:rgb(0,0,0);font-family:TimesNewRomanPSMT;font-size:9.96px;stroke:none;"> </text>
  </g>
  <path style="fill:rgb(255,255,255);stroke:none;stroke-width:1.0;" d="M121.100 377.230 L122.060 377.230 L122.060 381.790 L121.100 381.790 L121.100 377.230 "/>
  <path style="fill:rgb(255,255,255);stroke:none;stroke-width:1.0;" d="M122.060 380.830 L139.100 380.830 L139.100 381.790 L122.060 381.790 L122.060 380.830 "/>
  <path style="fill:rgb(207,213,234);stroke:none;stroke-width:1.0;" d="M122.060 377.230 L139.100 377.230 L139.100 380.830 L122.060 380.830 L122.060 377.230 "/>
  <path style="fill:rgb(255,255,255);stroke:none;stroke-width:1.0;" d="M139.100 377.230 L140.060 377.230 L140.060 380.830 L139.100 380.830 L139.100 377.230 "/>
  <path style="fill:rgb(255,255,255);stroke:none;stroke-width:1.0;" d="M139.100 380.830 L140.060 380.830 L140.060 381.790 L139.100 381.790 L139.100 380.830 "/>
  <path style="fill:rgb(255,255,255);stroke:none;stroke-width:1.0;" d="M140.060 380.830 L163.100 380.830 L163.100 381.790 L140.060 381.790 L140.060 380.830 "/>
  <path style="fill:rgb(207,213,234);stroke:none;stroke-width:1.0;" d="M140.060 377.230 L163.100 377.230 L163.100 380.830 L140.060 380.830 L140.060 377.230 "/>
  <path style="fill:rgb(255,255,255);stroke:none;stroke-width:1.0;" d="M163.100 377.230 L164.060 377.230 L164.060 380.830 L163.100 380.830 L163.100 377.230 "/>
  <path style="fill:rgb(255,255,255);stroke:none;stroke-width:1.0;" d="M163.100 380.830 L164.060 380.830 L164.060 381.790 L163.100 381.790 L163.100 380.830 "/>
  <path style="fill:rgb(255,255,255);stroke:none;stroke-width:1.0;" d="M164.060 380.830 L198.500 380.830 L198.500 381.790 L164.060 381.790 L164.060 380.830 "/>
  <path style="fill:rgb(207,213,234);stroke:none;stroke-width:1.0;" d="M164.060 377.230 L198.500 377.230 L198.500 380.830 L164.060 380.830 L164.060 377.230 "/>
  <path style="fill:rgb(255,255,255);stroke:none;stroke-width:1.0;" d="M198.500 377.230 L199.460 377.230 L199.460 381.790 L198.500 381.790 L198.500 377.230 "/>
  <path style="fill:rgb(255,255,255);stroke:none;stroke-width:1.0;" d="M199.460 380.830 L269.440 380.830 L269.440 381.790 L199.460 381.790 L199.460 380.830 "/>
  <path style="fill:rgb(207,213,234);stroke:none;stroke-width:1.0;" d="M199.460 377.230 L269.440 377.230 L269.440 380.830 L199.460 380.830 L199.460 377.230 "/>
  <path style="fill:rgb(255,255,255);stroke:none;stroke-width:1.0;" d="M269.450 377.230 L270.410 377.230 L270.410 381.790 L269.450 381.790 L269.450 377.230 "/>
  <path style="fill:rgb(255,255,255);stroke:none;stroke-width:1.0;" d="M670.780 377.230 L671.740 377.230 L671.740 381.790 L670.780 381.790 L670.780 377.230 "/>
  <path style="fill:rgb(255,255,255);stroke:none;stroke-width:1.0;" d="M121.100 344.350 L122.060 344.350 L122.060 377.230 L121.100 377.230 L121.100 344.350 "/>
  <path style="fill:rgb(255,255,255);stroke:none;stroke-width:1.0;" d="M139.100 344.350 L140.060 344.350 L140.060 377.230 L139.100 377.230 L139.100 344.350 "/>
  <path style="fill:rgb(207,213,234);stroke:none;stroke-width:1.0;" d="M163.580 344.350 L198.980 344.350 L198.980 347.950 L163.580 347.950 L163.580 344.350 "/>
  <path style="fill:rgb(255,255,255);stroke:none;stroke-width:1.0;" d="M163.100 344.350 L164.060 344.350 L164.060 377.230 L163.100 377.230 L163.100 344.350 "/>
  <path style="fill:rgb(207,213,234);stroke:none;stroke-width:1.0;" d="M198.980 344.350 L269.920 344.350 L269.920 347.950 L198.980 347.950 L198.980 344.350 "/>
  <path style="fill:rgb(255,255,255);stroke:none;stroke-width:1.0;" d="M198.500 344.350 L199.460 344.350 L199.460 377.230 L198.500 377.230 L198.500 344.350 "/>
  <path style="fill:rgb(255,255,255);stroke:none;stroke-width:1.0;" d="M269.450 344.350 L270.410 344.350 L270.410 377.230 L269.450 377.230 L269.450 344.350 "/>
  <path style="fill:rgb(255,255,255);stroke:none;stroke-width:1.0;" d="M670.780 344.350 L671.740 344.350 L671.740 377.230 L670.780 377.230 L670.780 344.350 "/>
  <path style="fill:rgb(207,213,234);stroke:none;stroke-width:1.0;" d="M164.060 272.930 L198.500 272.930 L198.500 343.390 L164.060 343.390 L164.060 272.930 "/>
  <path style="fill:rgb(207,213,234);stroke:none;stroke-width:1.0;" d="M164.060 276.530 L198.500 276.530 L198.500 339.790 L164.060 339.790 L164.060 276.530 M170.780 327.190 L191.780 327.190 L191.780 339.790 L170.780 339.790 L170.780 327.190 "/>
  <g begin="text">
   <text y="281.57" x="170.78,177.98,182.411" svgx:width="0.72,0.44,0.5" style="fill:rgb(0,0,0);font-family:TimesNewRomanPS-BoldMT;font-size:9.96px;stroke:none;">Neg</text>
  </g>
  <g begin="text">
   <text y="281.57" x="187.46" svgx:width="0.25" style="fill:rgb(0,0,0);font-family:TimesNewRomanPS-BoldMT;font-size:9.96px;stroke:none;"> </text>
  </g>
  <path style="fill:rgb(207,213,234);stroke:none;stroke-width:1.0;" d="M164.060 276.530 L198.500 276.530 L198.500 339.790 L164.060 339.790 L164.060 276.530 M164.060 276.530 L198.500 276.530 L198.500 339.790 L164.060 339.790 L164.060 276.530 M199.580 272.930 L269.440 272.930 L269.440 343.390 L199.580 343.390 L199.580 272.930 "/>
  <path style="fill:rgb(207,213,234);stroke:none;stroke-width:1.0;" d="M199.580 276.530 L269.440 276.530 L269.440 339.790 L199.580 339.790 L199.580 276.530 M206.180 327.190 L262.720 327.190 L262.720 339.790 L206.180 339.790 L206.180 327.190 "/>
  <g begin="text">
   <text y="281.57" x="206.18,213.371,217.793,220.562,223.092,230.283,234.705,239.765,244.187,246.956,249.725,254.755,259.177" svgx:width="0.72,0.44,0.28,0.25,0.72,0.44,0.5,0.44,0.28,0.28,0.5,0.44,0.25" style="fill:rgb(0,0,0);font-family:TimesNewRomanPSMT;font-size:9.96px;stroke:none;">Net Negative </text>
  </g>
  <path style="fill:rgb(207,213,234);stroke:none;stroke-width:1.0;" d="M199.580 276.530 L269.440 276.530 L269.440 339.790 L199.580 339.790 L199.580 276.530 M206.180 314.470 L262.720 314.470 L262.720 327.190 L206.180 327.190 L206.180 314.470 "/>
  <g begin="text">
   <text y="294.17" x="206.18,212.285,220.074,222.843,226.678,230.522,233.291,238.311,243.341" svgx:width="0.61,0.78,0.28,0.39,0.39,0.28,0.5,0.5,0.39" style="fill:rgb(0,0,0);font-family:TimesNewRomanPSMT;font-size:9.96px;stroke:none;">Emissions</text>
  </g>
  <g begin="text">
   <text y="294.17" x="247.37" svgx:width="0.25" style="fill:rgb(0,0,0);font-family:TimesNewRomanPSMT;font-size:9.96px;stroke:none;"> </text>
  </g>
  <path style="fill:rgb(207,213,234);stroke:none;stroke-width:1.0;" d="M199.580 276.530 L269.440 276.530 L269.440 339.790 L199.580 339.790 L199.580 276.530 M199.580 276.530 L269.440 276.530 L269.440 339.790 L199.580 339.790 L199.580 276.530 "/>
  <g begin="text">
   <text y="281.57" x="277.13,282.668,287.678,292.1,296.552,300.974,304.849,308.673,312.02,317.05,319.819,322.558,325.326,330.346,333.115,337.537,340.894,345.924,350.346,353.115,355.884,360.914,365.943,370.366,373.025,375.774,380.196,382.965,385.734,393.523,397.845,400.614,405.036,407.795,412.825,417.855,420.624,423.393,427.815,432.735,435.484,438.831,443.253,448.303,451.072,458.85,463.173,465.922,469.269,473.591,478.621,483.651,488.073,492.525,496.37,499.119,503.541,511.35,514.118,517.834,521.678,524.447,529.467,534.497,538.341,541.09,546.12,550.542,553.311,558.351,565.542,568.301,577.155,582.105,587.135,594.326,598.748" svgx:width="0.56,0.5,0.44,0.44,0.44,0.39,0.39,0.33,0.5,0.28,0.25,0.28,0.5,0.28,0.44,0.33,0.5,0.44,0.28,0.28,0.5,0.5,0.44,0.28,0.25,0.44,0.28,0.28,0.78,0.44,0.28,0.44,0.25,0.5,0.5,0.28,0.28,0.44,0.5,0.25,0.33,0.44,0.5,0.28,0.78,0.44,0.25,0.33,0.44,0.5,0.5,0.44,0.44,0.39,0.25,0.44,0.78,0.28,0.39,0.39,0.28,0.5,0.5,0.39,0.25,0.5,0.44,0.28,0.5,0.72,0.25,0.89,0.5,0.5,0.72,0.44,0.28" style="fill:rgb(0,0,0);font-family:TimesNewRomanPSMT;font-size:9.96px;stroke:none;">Successful international climate policy regime reduces emissions below ModAct</text>
  </g>
  <g begin="text">
   <text y="281.57" x="601.9" svgx:width="0.25" style="fill:rgb(0,0,0);font-family:TimesNewRomanPSMT;font-size:9.96px;stroke:none;"> </text>
  </g>
  <g begin="text">
   <text y="281.57" x="604.66,609.58,612.927,615.676,622.867,628.405,631.144,633.783,638.703,641.452,646.482,651.402,656.432,661.462,663.972" svgx:width="0.5,0.33,0.25,0.72,0.56,0.25,0.28,0.5,0.25,0.5,0.5,0.5,0.5,0.25,0.25" style="fill:rgb(0,0,0);font-family:TimesNewRomanPSMT;font-size:9.96px;stroke:none;">or GS to 2030, </text>
  </g>
  <g begin="text">
   <text y="294.17" x="277.13,282.16,287.19,289.959,292.449,299.66,302.428,305.197,310.207,312.717,317.139,319.669,323.016,328.046,332.468,337.518,341.362,343.872,348.902,353.932,356.442,359.21,364.23,368.653,371.182,373.951,378.971,384.001" svgx:width="0.5,0.5,0.28,0.25,0.72,0.28,0.28,0.5,0.25,0.44,0.25,0.33,0.5,0.44,0.5,0.39,0.25,0.5,0.5,0.25,0.28,0.5,0.44,0.25,0.28,0.5,0.5,0.5" style="fill:rgb(0,0,0);font-family:TimesNewRomanPSMT;font-size:9.96px;stroke:none;">but with a focus on the long</text>
  </g>
  <g begin="text">
   <text y="294.17" x="389.21" svgx:width="0.33" style="fill:rgb(0,0,0);font-family:TimesNewRomanPSMT;font-size:9.96px;stroke:none;">-</text>
  </g>
  <g begin="text">
   <text y="294.17" x="392.57,395.339,399.652,402.998,410.787,413.297,416.066,420.488,428.287,433.316,437.739,441.105,445.527,448.296,453.336,456.683,461.105,463.635,468.555,473.585,478.007,480.776,483.296,485.806,490.835,495.258,500.307,504.73,507.499,510.267,515.297,519.719,522.14,526.562,534.371,537.14,540.974,544.819,547.587,552.607,557.637,561.482,563.992,569.021,571.79,576.212,581.252,583.762,586.531,591.551,594.061,598.483,601.252,603.772,608.801,612.148,617.178,624.369,627.138,632.168,637.197,639.707,643.661,648.084,652.536,655.305,659.727,663.681" svgx:width="0.28,0.44,0.33,0.78,0.25,0.28,0.44,0.78,0.5,0.44,0.33,0.44,0.28,0.5,0.33,0.44,0.25,0.5,0.5,0.44,0.28,0.25,0.25,0.5,0.44,0.5,0.44,0.28,0.28,0.5,0.44,0.25,0.44,0.78,0.28,0.39,0.39,0.28,0.5,0.5,0.39,0.25,0.5,0.28,0.44,0.5,0.25,0.28,0.5,0.25,0.44,0.28,0.25,0.5,0.33,0.5,0.72,0.28,0.5,0.5,0.25,0.39,0.44,0.44,0.28,0.44,0.39,0.25" style="fill:rgb(0,0,0);font-family:TimesNewRomanPSMT;font-size:9.96px;stroke:none;">term temperature goal, negative emissions kick in at growing scales </text>
  </g>
  <g begin="text">
   <text y="306.89" x="277.13,279.899,284.919,289.341,292.707,297.13,301.582,304.928,307.697,312.12,315.476,317.986,320.974,324.819,329.848,332.836,335.605,340.625,345.047,347.816,350.695,358.483,361.252,364.021,366.79,371.79,376.212,378.981,381.75,386.78,391.81,394.797,397.437,402.467,405.455,409.877,412.646,415.415,418.403,422.247,426.67,431.122,433.891,438.91,442.257,446.102,449.09,453.512,456.281,460.155,465.155,468.143,470.912,475.932,480.354,483.123,488.163,493.192,497.615,501.489,504.467,508.889,511.897,516.818,520.164,525.194,532.385,535.154,540.184,545.213,548.201,552.624,557.564,562.594,565.581,570.611,573.38,576.149,578.918,586.667,591.119,593.888,598.31,601.079,606.109,609.097,611.865,616.288,619.535,624.564,628.987,631.995,635.232,639.654,642.423,645.192,649.614,654.664,659.086,663.538" svgx:width="0.28,0.5,0.44,0.33,0.44,0.44,0.33,0.28,0.44,0.33,0.25,0.25,0.39,0.5,0.25,0.28,0.5,0.44,0.28,0.25,0.78,0.28,0.28,0.28,0.5,0.44,0.28,0.28,0.5,0.5,0.25,0.28,0.5,0.25,0.44,0.28,0.28,0.25,0.39,0.44,0.44,0.28,0.5,0.33,0.39,0.25,0.44,0.28,0.39,0.5,0.25,0.28,0.5,0.44,0.28,0.5,0.5,0.44,0.39,0.25,0.44,0.25,0.5,0.33,0.5,0.72,0.28,0.5,0.5,0.25,0.44,0.5,0.5,0.25,0.5,0.28,0.28,0.28,0.78,0.44,0.28,0.44,0.28,0.5,0.25,0.28,0.44,0.33,0.5,0.44,0.25,0.33,0.44,0.28,0.28,0.44,0.5,0.44,0.44,0.25" style="fill:rgb(0,0,0);font-family:TimesNewRomanPSMT;font-size:9.96px;stroke:none;">thereafter, so that mitigation in all sectors also includes a growing and ultimately large reliance </text>
  </g>
  <g begin="text">
   <text y="319.49" x="277.13,282.16,287.19,290.058,295.088,299.51,304.56,308.982,311.751,314.52,319.55,323.972,326.86,331.183,338.972,341.741,345.575,349.42,352.189,357.209,362.238,366.083,368.593,371.461,378.652,381.421,384.19,389.21,392.079,394.847,399.27,402.626,407.656,412.078,414.967,418.313,423.343,427.765,430.534,433.413,438.442,441.082,446.112" svgx:width="0.5,0.5,0.25,0.5,0.44,0.5,0.44,0.28,0.28,0.5,0.44,0.25,0.44,0.78,0.28,0.39,0.39,0.28,0.5,0.5,0.39,0.25,0.25,0.72,0.28,0.28,0.5,0.25,0.28,0.44,0.33,0.5,0.44,0.25,0.33,0.5,0.44,0.28,0.25,0.5,0.28,0.5,0.5" style="fill:rgb(0,0,0);font-family:TimesNewRomanPSMT;font-size:9.96px;stroke:none;">on negative emissions, with large net glob</text>
  </g>
  <g begin="text">
   <text y="319.49" x="451.39,455.812,458.581,461.46,466.489,470.912,475.961,480.384,483.153,485.921,490.951,495.274,498.62,501.489,505.911,509.278,512.046,516.469,519.716,522.584,527.614,532.644,537.673,542.703,545.572,548.211,553.241,556.109,563.898,568.32,572.772,575.541,578.4,583.43,585.939,590.969,597.573,600.441,604.863,608.23,610.999,615.421,618.777,621.646,625.49,628.259,633.279,638.309,640.948,644.295,647.064,651.486,655.908,660.968,663.737" svgx:width="0.44,0.28,0.25,0.5,0.44,0.5,0.44,0.28,0.28,0.5,0.44,0.33,0.25,0.44,0.33,0.28,0.44,0.33,0.25,0.5,0.5,0.5,0.5,0.25,0.28,0.5,0.25,0.78,0.44,0.44,0.28,0.25,0.5,0.25,0.5,0.67,0.25,0.44,0.33,0.28,0.44,0.33,0.25,0.39,0.28,0.5,0.5,0.28,0.33,0.28,0.44,0.44,0.5,0.28,0.25" style="fill:rgb(0,0,0);font-family:TimesNewRomanPSMT;font-size:9.96px;stroke:none;">al negative after 2050 to meet 1.5C after significant </text>
  </g>
  <g begin="text">
   <text y="332.23" x="277.13,282.16,287.19,291.612,294.978,298.823,303.853,308.883,313.912,316.681,319.072,321.582" svgx:width="0.5,0.5,0.44,0.33,0.39,0.5,0.5,0.5,0.28,0.25,0.25,0.25" style="fill:rgb(0,0,0);font-family:TimesNewRomanPSMT;font-size:9.96px;stroke:none;">overshoot </text>
  </g>
  <g begin="text">
   <text y="332.23" x="324.05" svgx:width="0.25" style="fill:rgb(0,0,0);font-family:TimesNewRomanPSMT;font-size:9.96px;stroke:none;"> </text>
  </g>
  <path style="fill:rgb(255,255,255);stroke:none;stroke-width:1.0;" d="M121.100 343.390 L122.060 343.390 L122.060 344.350 L121.100 344.350 L121.100 343.390 "/>
  <path style="fill:rgb(255,255,255);stroke:none;stroke-width:1.0;" d="M121.100 343.390 L122.060 343.390 L122.060 344.350 L121.100 344.350 L121.100 343.390 "/>
  <path style="fill:rgb(255,255,255);stroke:none;stroke-width:1.0;" d="M163.100 339.790 L164.060 339.790 L164.060 344.350 L163.100 344.350 L163.100 339.790 "/>
  <path style="fill:rgb(255,255,255);stroke:none;stroke-width:1.0;" d="M164.060 343.390 L198.500 343.390 L198.500 344.350 L164.060 344.350 L164.060 343.390 "/>
  <path style="fill:rgb(207,213,234);stroke:none;stroke-width:1.0;" d="M164.060 339.790 L198.500 339.790 L198.500 343.390 L164.060 343.390 L164.060 339.790 "/>
  <path style="fill:rgb(255,255,255);stroke:none;stroke-width:1.0;" d="M198.500 339.790 L199.460 339.790 L199.460 344.350 L198.500 344.350 L198.500 339.790 "/>
  <path style="fill:rgb(255,255,255);stroke:none;stroke-width:1.0;" d="M199.460 343.390 L269.440 343.390 L269.440 344.350 L199.460 344.350 L199.460 343.390 "/>
  <path style="fill:rgb(207,213,234);stroke:none;stroke-width:1.0;" d="M199.460 339.790 L269.440 339.790 L269.440 343.390 L199.460 343.390 L199.460 339.790 "/>
  <path style="fill:rgb(255,255,255);stroke:none;stroke-width:1.0;" d="M269.450 339.790 L270.410 339.790 L270.410 344.350 L269.450 344.350 L269.450 339.790 "/>
  <path style="fill:rgb(255,255,255);stroke:none;stroke-width:1.0;" d="M670.780 339.790 L671.740 339.790 L671.740 344.350 L670.780 344.350 L670.780 339.790 "/>
  <path style="fill:rgb(207,213,234);stroke:none;stroke-width:1.0;" d="M163.580 272.930 L198.980 272.930 L198.980 276.530 L163.580 276.530 L163.580 272.930 "/>
  <path style="fill:rgb(255,255,255);stroke:none;stroke-width:1.0;" d="M163.100 272.930 L164.060 272.930 L164.060 339.790 L163.100 339.790 L163.100 272.930 "/>
  <path style="fill:rgb(207,213,234);stroke:none;stroke-width:1.0;" d="M198.980 272.930 L269.920 272.930 L269.920 276.530 L198.980 276.530 L198.980 272.930 "/>
  <path style="fill:rgb(255,255,255);stroke:none;stroke-width:1.0;" d="M198.500 272.930 L199.460 272.930 L199.460 339.790 L198.500 339.790 L198.500 272.930 "/>
  <path style="fill:rgb(255,255,255);stroke:none;stroke-width:1.0;" d="M269.450 272.930 L270.410 272.930 L270.410 339.790 L269.450 339.790 L269.450 272.930 "/>
  <path style="fill:rgb(255,255,255);stroke:none;stroke-width:1.0;" d="M670.780 272.930 L671.740 272.930 L671.740 339.790 L670.780 339.790 L670.780 272.930 "/>
  <path style="fill:rgb(233,235,245);stroke:none;stroke-width:1.0;" d="M164.060 214.130 L198.500 214.130 L198.500 271.970 L164.060 271.970 L164.060 214.130 "/>
  <path style="fill:rgb(233,235,245);stroke:none;stroke-width:1.0;" d="M164.060 217.730 L198.500 217.730 L198.500 268.370 L164.060 268.370 L164.060 217.730 M170.780 255.650 L191.780 255.650 L191.780 268.370 L170.780 268.370 L170.780 255.650 "/>
  <g begin="text">
   <text y="352.99" x="170.78,177.98,182.411" svgx:width="0.72,0.44,0.56" style="fill:rgb(0,0,0);font-family:TimesNewRomanPS-BoldMT;font-size:9.96px;stroke:none;">Ren</text>
  </g>
  <g begin="text">
   <text y="352.99" x="188.06" svgx:width="0.25" style="fill:rgb(0,0,0);font-family:TimesNewRomanPS-BoldMT;font-size:9.96px;stroke:none;"> </text>
  </g>
  <path style="fill:rgb(233,235,245);stroke:none;stroke-width:1.0;" d="M164.060 217.730 L198.500 217.730 L198.500 268.370 L164.060 268.370 L164.060 217.730 M164.060 217.730 L198.500 217.730 L198.500 268.370 L164.060 268.370 L164.060 217.730 M199.580 214.130 L269.440 214.130 L269.440 271.970 L199.580 271.970 L199.580 214.130 "/>
  <path style="fill:rgb(233,235,245);stroke:none;stroke-width:1.0;" d="M199.580 217.730 L269.440 217.730 L269.440 268.370 L199.580 268.370 L199.580 217.730 M206.180 255.650 L262.720 255.650 L262.720 268.370 L206.180 268.370 L206.180 255.650 "/>
  <g begin="text">
   <text y="352.99" x="206.18,212.784,217.206,222.255,226.678,233.869,238.321,243.351,246.12,250.542" svgx:width="0.67,0.44,0.5,0.44,0.72,0.44,0.5,0.28,0.44,0.39" style="fill:rgb(0,0,0);font-family:TimesNewRomanPSMT;font-size:9.96px;stroke:none;">Renewables</text>
  </g>
  <g begin="text">
   <text y="352.99" x="254.57" svgx:width="0.25" style="fill:rgb(0,0,0);font-family:TimesNewRomanPSMT;font-size:9.96px;stroke:none;"> </text>
  </g>
  <path style="fill:rgb(233,235,245);stroke:none;stroke-width:1.0;" d="M199.580 217.730 L269.440 217.730 L269.440 268.370 L199.580 268.370 L199.580 217.730 M199.580 217.730 L269.440 217.730 L269.440 268.370 L199.580 268.370 L199.580 217.730 "/>
  <g begin="text">
   <text y="352.99" x="277.13,282.668,287.678,292.1,296.552,300.974,304.849,308.673,312.02,317.05,319.819,322.309,323.404,326.173,331.193,333.962,338.384,341.741,346.77,351.193,353.962,356.73,361.76,366.79,371.212,373.872,376.362,377.457,381.88,384.648,387.417,395.206,399.628,402.397,406.819,409.309,410.435,415.465,420.494,423.263,426.032,430.454,435.375,437.865,438.96,442.307,446.729,451.779,454.548,462.326,466.649,469.139,470.235,477.426,480.195,482.964,487.983,490.473,491.569,494.338,502.117,509.796,514.218,519.268,521.907,526.329,529.098,533.52,536.01,537.136,541.558,546.01,548.779,551.548,556.558,561.588,564.078,565.054,570.084,574.506,577.872,580.641,583.41,587.832,592.862,595.631,600.053,603.41,606.178,611.089,613.5790000000001,614.674,619.594,624.624,627.393,630.162,634.584,637.353,641.775,645.65,648.14,649.215,653.638,658.687,663.608" svgx:width="0.56,0.5,0.44,0.44,0.44,0.39,0.39,0.33,0.5,0.28,0.25,0.55,0.28,0.5,0.28,0.44,0.33,0.5,0.44,0.28,0.28,0.5,0.5,0.44,0.28,0.25,0.55,0.44,0.28,0.28,0.78,0.44,0.28,0.44,0.25,0.55,0.5,0.5,0.28,0.28,0.44,0.5,0.25,0.55,0.33,0.44,0.5,0.28,0.78,0.44,0.25,0.55,0.72,0.28,0.28,0.5,0.25,0.55,0.28,0.78,0.78,0.44,0.5,0.28,0.44,0.28,0.44,0.25,0.55,0.44,0.44,0.28,0.28,0.5,0.5,0.25,0.55,0.5,0.44,0.33,0.28,0.28,0.44,0.5,0.28,0.44,0.33,0.28,0.5,0.25,0.55,0.5,0.5,0.28,0.28,0.44,0.28,0.44,0.39,0.25,0.55,0.44,0.5,0.5,0.25" style="fill:rgb(0,0,0);font-family:TimesNewRomanPSMT;font-size:9.96px;stroke:none;">Successful international climate policy regime with immediate action particularly policies and </text>
  </g>
  <g begin="text">
   <text y="365.71" x="277.13,279.899,284.919,289.341,293.793,298.823,301.592,304.361,309.371,313.793,317.667,320.157,322.797,326.143,328.912,333.932,338.354,341.123,346.163,351.193,353.962,358.872,363.902,366.392,369.051,371.82,376.84,379.609,384.031,387.387,392.417,396.84,399.499,402.268,407.288,412.317,416.74,419.508,421.998,424.668,428.014,430.783,435.803,440.225,445.275,449.697,454.149,457.496,459.986,462.526,465.872,470.295,475.344,480.265,485.294,488.641,491.41,496.43,501.46,503.95,506.489,509.836,514.258,519.198,523.62,530.812,535.264,540.293,543.062,547.485" svgx:width="0.28,0.5,0.44,0.44,0.5,0.28,0.28,0.5,0.44,0.39,0.25,0.55,0.33,0.28,0.5,0.44,0.28,0.5,0.5,0.28,0.5,0.5,0.25,0.55,0.28,0.5,0.28,0.44,0.33,0.5,0.44,0.28,0.28,0.5,0.5,0.44,0.28,0.25,0.55,0.33,0.28,0.5,0.44,0.5,0.44,0.44,0.33,0.25,0.55,0.33,0.44,0.5,0.5,0.5,0.33,0.28,0.5,0.5,0.25,0.55,0.33,0.44,0.5,0.44,0.72,0.44,0.5,0.28,0.44,0.25" style="fill:rgb(0,0,0);font-family:TimesNewRomanPSMT;font-size:9.96px;stroke:none;">incentives (including international finance) favouring renewable </text>
  </g>
  <g begin="text">
   <text y="365.71" x="553.03,557.452,562.502,566.924,570.291,575.32,580.35,583.119,585.609,588.258,594.364,598.786,602.661,606.485,608.975,611.635,616.057,623.866,628.895,633.925,638.347,642.082,644.851,648.686,651.176,653.835,658.865,663.895" svgx:width="0.44,0.5,0.44,0.33,0.5,0.5,0.28,0.25,0.55,0.61,0.44,0.39,0.39,0.25,0.55,0.44,0.78,0.5,0.5,0.44,0.39,0.28,0.39,0.25,0.55,0.5,0.5,0.25" style="fill:rgb(0,0,0);font-family:TimesNewRomanPSMT;font-size:9.96px;stroke:none;">energy; Less emphasis on </text>
  </g>
  <g begin="text">
   <text y="378.31" x="277.13,282.16,286.582,291.632,296.054,298.823,301.592,306.622" svgx:width="0.5,0.44,0.5,0.44,0.28,0.28,0.5,0.44" style="fill:rgb(0,0,0);font-family:TimesNewRomanPSMT;font-size:9.96px;stroke:none;">negative</text>
  </g>
  <g begin="text">
   <text y="378.31" x="311.09" svgx:width="0.33" style="fill:rgb(0,0,0);font-family:TimesNewRomanPSMT;font-size:9.96px;stroke:none;">-</text>
  </g>
  <g begin="text">
   <text y="378.31" x="314.45,318.872,326.681,329.45,333.284,337.129,339.898,344.918,349.948,352.438,353.294,356.063,360.485,364.907,369.967,374.997,380.027,382.796,387.706,392.736,395.505,399.817,403.662,406.172,408.66200000000003,409.518,416.122,420.544,425.594,428.363,433.383,435.873,436.729,441.759,446.181,451.231,454.0,459.02,464.049,471.838,476.26,481.31,484.079,486.569,487.416,491.838,496.888,501.917,504.407,505.264,508.033,513.053,517.973,523.003,528.032,532.455,535.224,537.992,543.022,548.052,550.542,551.399,556.428,559.775,562.265,563.121,566.468,570.791,575.82,580.243,587.434,591.886,596.916,599.685,604.107,607.981,610.471,611.308,615.73,620.78,625.81,628.3,629.156,633.001,638.031,641.875,644.644,649.066,656.865,660.71,663.578" svgx:width="0.44,0.78,0.28,0.39,0.39,0.28,0.5,0.5,0.25,0.55,0.28,0.44,0.44,0.5,0.5,0.5,0.28,0.5,0.5,0.28,0.44,0.39,0.25,0.25,0.55,0.67,0.44,0.5,0.28,0.5,0.25,0.55,0.5,0.44,0.5,0.28,0.5,0.5,0.78,0.44,0.5,0.28,0.25,0.55,0.44,0.5,0.5,0.25,0.55,0.28,0.5,0.5,0.5,0.5,0.44,0.28,0.28,0.5,0.5,0.25,0.55,0.5,0.33,0.25,0.55,0.33,0.44,0.5,0.44,0.72,0.44,0.5,0.28,0.44,0.39,0.25,0.55,0.44,0.5,0.5,0.25,0.55,0.39,0.5,0.39,0.28,0.44,0.78,0.39,0.28,0.25" style="fill:rgb(0,0,0);font-family:TimesNewRomanPSMT;font-size:9.96px;stroke:none;">emission technologies. Rapid deployment and innovation of renewables and systems; </text>
  </g>
  <g begin="text">
   <text y="391.03" x="277.13,281.552,284.321,288.743,293.196,295.964,299.301,302.07,305.406,308.175,312.598,317.02,319.789,322.558,327.597,332.627,335.137,340.167,343.514,346.023,350.446,353.215,355.983,358.493,362.916,367.856" svgx:width="0.44,0.28,0.44,0.44,0.28,0.33,0.28,0.33,0.28,0.44,0.44,0.28,0.28,0.5,0.5,0.25,0.5,0.33,0.25,0.44,0.28,0.28,0.25,0.44,0.5,0.5" style="fill:rgb(0,0,0);font-family:TimesNewRomanPSMT;font-size:9.96px;stroke:none;">electrification of all end</text>
  </g>
  <g begin="text">
   <text y="391.03" x="373.01" svgx:width="0.33" style="fill:rgb(0,0,0);font-family:TimesNewRomanPSMT;font-size:9.96px;stroke:none;">-</text>
  </g>
  <g begin="text">
   <text y="391.03" x="376.37,381.4,385.244,389.667" svgx:width="0.5,0.39,0.44,0.25" style="fill:rgb(0,0,0);font-family:TimesNewRomanPSMT;font-size:9.96px;stroke:none;">use.</text>
  </g>
  <g begin="text">
   <text y="391.03" x="392.09" svgx:width="0.25" style="fill:rgb(0,0,0);font-family:TimesNewRomanPSMT;font-size:9.96px;stroke:none;"> </text>
  </g>
  <path style="fill:rgb(255,255,255);stroke:none;stroke-width:1.0;" d="M163.100 268.370 L164.060 268.370 L164.060 272.930 L163.100 272.930 L163.100 268.370 "/>
  <path style="fill:rgb(255,255,255);stroke:none;stroke-width:1.0;" d="M164.060 271.970 L198.500 271.970 L198.500 272.930 L164.060 272.930 L164.060 271.970 "/>
  <path style="fill:rgb(233,235,245);stroke:none;stroke-width:1.0;" d="M164.060 268.370 L198.500 268.370 L198.500 271.970 L164.060 271.970 L164.060 268.370 "/>
  <path style="fill:rgb(255,255,255);stroke:none;stroke-width:1.0;" d="M198.500 268.370 L199.460 268.370 L199.460 272.930 L198.500 272.930 L198.500 268.370 "/>
  <path style="fill:rgb(255,255,255);stroke:none;stroke-width:1.0;" d="M199.460 271.970 L269.440 271.970 L269.440 272.930 L199.460 272.930 L199.460 271.970 "/>
  <path style="fill:rgb(233,235,245);stroke:none;stroke-width:1.0;" d="M199.460 268.370 L269.440 268.370 L269.440 271.970 L199.460 271.970 L199.460 268.370 "/>
  <path style="fill:rgb(255,255,255);stroke:none;stroke-width:1.0;" d="M269.450 268.370 L270.410 268.370 L270.410 272.930 L269.450 272.930 L269.450 268.370 "/>
  <path style="fill:rgb(255,255,255);stroke:none;stroke-width:1.0;" d="M670.780 268.370 L671.740 268.370 L671.740 272.930 L670.780 272.930 L670.780 268.370 "/>
  <path style="fill:rgb(233,235,245);stroke:none;stroke-width:1.0;" d="M163.580 214.130 L198.980 214.130 L198.980 217.730 L163.580 217.730 L163.580 214.130 "/>
  <path style="fill:rgb(255,255,255);stroke:none;stroke-width:1.0;" d="M163.100 214.130 L164.060 214.130 L164.060 268.370 L163.100 268.370 L163.100 214.130 "/>
  <path style="fill:rgb(233,235,245);stroke:none;stroke-width:1.0;" d="M198.980 214.130 L269.920 214.130 L269.920 217.730 L198.980 217.730 L198.980 214.130 "/>
  <path style="fill:rgb(255,255,255);stroke:none;stroke-width:1.0;" d="M198.500 214.130 L199.460 214.130 L199.460 268.370 L198.500 268.370 L198.500 214.130 "/>
  <path style="fill:rgb(255,255,255);stroke:none;stroke-width:1.0;" d="M269.450 214.130 L270.410 214.130 L270.410 268.370 L269.450 268.370 L269.450 214.130 "/>
  <path style="fill:rgb(255,255,255);stroke:none;stroke-width:1.0;" d="M670.780 214.130 L671.740 214.130 L671.740 268.370 L670.780 268.370 L670.780 214.130 "/>
  <path style="fill:rgb(233,235,245);stroke:none;stroke-width:1.0;" d="M164.060 167.930 L198.500 167.930 L198.500 213.170 L164.060 213.170 L164.060 167.930 "/>
  <path style="fill:rgb(233,235,245);stroke:none;stroke-width:1.0;" d="M164.060 171.530 L198.500 171.530 L198.500 209.570 L164.060 209.570 L164.060 171.530 M170.780 196.850 L191.780 196.850 L191.780 209.570 L170.780 209.570 L170.780 196.850 "/>
  <g begin="text">
   <text y="411.79" x="170.78,177.38" svgx:width="0.67,0.72" style="fill:rgb(0,0,0);font-family:TimesNewRomanPS-BoldMT;font-size:9.96px;stroke:none;">LD</text>
  </g>
  <g begin="text">
   <text y="411.79" x="184.7" svgx:width="0.25" style="fill:rgb(0,0,0);font-family:TimesNewRomanPS-BoldMT;font-size:9.96px;stroke:none;"> </text>
  </g>
  <path style="fill:rgb(233,235,245);stroke:none;stroke-width:1.0;" d="M164.060 171.530 L198.500 171.530 L198.500 209.570 L164.060 209.570 L164.060 171.530 M164.060 171.530 L198.500 171.530 L198.500 209.570 L164.060 209.570 L164.060 171.530 M199.580 167.930 L269.440 167.930 L269.440 213.170 L199.580 213.170 L199.580 167.930 "/>
  <path style="fill:rgb(233,235,245);stroke:none;stroke-width:1.0;" d="M199.580 171.530 L269.440 171.530 L269.440 209.570 L199.580 209.570 L199.580 171.530 M206.180 196.850 L262.720 196.850 L262.720 209.570 L206.180 209.570 L206.180 196.850 "/>
  <g begin="text">
   <text y="411.79" x="206.18,212.285,217.315,224.506,227.026,234.217,238.64,246.458,250.88,255.93" svgx:width="0.61,0.5,0.72,0.25,0.72,0.44,0.78,0.44,0.5,0.5" style="fill:rgb(0,0,0);font-family:TimesNewRomanPSMT;font-size:9.96px;stroke:none;">Low Demand</text>
  </g>
  <g begin="text">
   <text y="411.79" x="260.93" svgx:width="0.25" style="fill:rgb(0,0,0);font-family:TimesNewRomanPSMT;font-size:9.96px;stroke:none;"> </text>
  </g>
  <path style="fill:rgb(233,235,245);stroke:none;stroke-width:1.0;" d="M199.580 171.530 L269.440 171.530 L269.440 209.570 L199.580 209.570 L199.580 171.530 M199.580 171.530 L269.440 171.530 L269.440 209.570 L199.580 209.570 L199.580 171.530 "/>
  <g begin="text">
   <text y="411.79" x="277.13,282.668,287.678,292.1,296.552,300.974,304.849,308.673,312.02,317.05,319.819,321.731,324.5,329.52,332.289,336.711,340.067,345.097,349.519,352.288,355.057,360.087,365.117,369.539,372.308,374.24,378.662,381.431,384.2,391.989,396.411,399.18,403.602,405.544,410.574,415.604,418.373,421.142,425.564,430.594,432.516,435.863,440.285,445.335,448.104,455.882,460.305,462.247,469.438,472.207,474.976,479.996,481.918,484.687,492.466,500.254,504.577,509.607,512.375,516.798,519.567,523.989,525.931,530.353,534.805,537.574,540.343,545.353,550.383,552.305,557.335,562.365,564.287,567.056,572.076,576.498,578.44,583.47,587.792,595.581,600.003,605.053,610.083" svgx:width="0.56,0.5,0.44,0.44,0.44,0.39,0.39,0.33,0.5,0.28,0.25,0.28,0.5,0.28,0.44,0.33,0.5,0.44,0.28,0.28,0.5,0.5,0.44,0.28,0.25,0.44,0.28,0.28,0.78,0.44,0.28,0.44,0.25,0.5,0.5,0.28,0.28,0.44,0.5,0.25,0.33,0.44,0.5,0.28,0.78,0.44,0.25,0.72,0.28,0.28,0.5,0.25,0.28,0.78,0.78,0.44,0.5,0.28,0.44,0.28,0.44,0.25,0.44,0.44,0.28,0.28,0.5,0.5,0.25,0.5,0.5,0.25,0.28,0.5,0.44,0.25,0.5,0.44,0.78,0.44,0.5,0.5,0.25" style="fill:rgb(0,0,0);font-family:TimesNewRomanPSMT;font-size:9.96px;stroke:none;">Successful international climate policy regime with immediate action on the demand </text>
  </g>
  <g begin="text">
   <text y="411.79" x="612.34,616.185,618.953,623.973,628.396,631.164,633.097,638.017,643.047,645.815,648.584,653.007,655.775,660.198,664.072" svgx:width="0.39,0.28,0.5,0.44,0.28,0.25,0.5,0.5,0.28,0.28,0.44,0.28,0.44,0.39,0.25" style="fill:rgb(0,0,0);font-family:TimesNewRomanPSMT;font-size:9.96px;stroke:none;">side; policies </text>
  </g>
  <g begin="text">
   <text y="424.51" x="277.13,281.552,286.602,291.632,293.793,297.14,299.909,304.928,309.251,314.281,318.703,321.472,325.894,328.663,330.844,333.613,338.633,343.055,347.507,352.537,355.306,358.075,363.085,367.507,371.382,373.404,376.75,381.172,386.222,391.142,396.172,399.409,402.178,407.198,412.228,414.389,417.736,422.158,427.098,432.128,436.55,441.002,446.032,448.074,453.103,457.526,465.334,469.757,474.697,479.727,481.888,484.657,489.677,494.099,496.868,499.039,501.678,506.708,508.87,511.638,516.658,519.895,524.925,527.086,529.855,534.278,538.7,543.759,547.604,549.765,552.534,557.554,559.715,564.138,568.48,571.827,574.596,579.615,581.777,586.199,594.008,596.776,600.611,604.456,607.225,612.244,617.274,619.435,622.782,627.105,632.134,637.164,641.487,644.256,647.025,652.034,657.064,660.909,663.678" svgx:width="0.44,0.5,0.5,0.25,0.33,0.28,0.5,0.44,0.5,0.44,0.28,0.44,0.28,0.25,0.28,0.5,0.44,0.44,0.5,0.28,0.28,0.5,0.44,0.39,0.25,0.33,0.44,0.5,0.5,0.5,0.33,0.28,0.5,0.5,0.25,0.33,0.44,0.5,0.5,0.44,0.44,0.5,0.25,0.5,0.44,0.78,0.44,0.5,0.5,0.25,0.28,0.5,0.44,0.28,0.25,0.28,0.5,0.25,0.28,0.5,0.33,0.5,0.25,0.28,0.44,0.44,0.5,0.39,0.25,0.28,0.5,0.25,0.44,0.44,0.33,0.28,0.5,0.25,0.44,0.78,0.28,0.39,0.39,0.28,0.5,0.5,0.25,0.33,0.44,0.5,0.5,0.44,0.28,0.28,0.5,0.5,0.39,0.28,0.25" style="fill:rgb(0,0,0);font-family:TimesNewRomanPSMT;font-size:9.96px;stroke:none;">and financial incentives favouring reduced demand that in turn leads to early emission reductions; </text>
  </g>
  <g begin="text">
   <text y="437.11" x="277.13,279.899,284.919,287.688,291.522,294.032,297.379,301.801,306.851,311.88,316.303,320.755,324.599,327.109,329.878,334.898,339.32,341.85,346.88,351.302,355.754,360.177,363.433,368.463,373.493,378.523,381.292,385.126,389.549,392.318,395.086,400.116,405.146,407.656,412.078,415.445,418.682,423.711,427.058,429.827,432.317,437.257,442.287,444.797,447.566,452.586,457.008,459.538,463.382,468.412,473.332,478.362,481.131,486.151,488.661,492.505,495.274,500.294,504.716" svgx:width="0.28,0.5,0.28,0.39,0.25,0.33,0.44,0.5,0.5,0.44,0.44,0.39,0.25,0.28,0.5,0.44,0.25,0.5,0.44,0.44,0.44,0.33,0.5,0.5,0.5,0.28,0.39,0.44,0.28,0.28,0.5,0.5,0.25,0.44,0.33,0.33,0.5,0.33,0.28,0.25,0.5,0.5,0.25,0.28,0.5,0.44,0.25,0.39,0.5,0.5,0.5,0.28,0.5,0.25,0.39,0.28,0.5,0.44,0.25" style="fill:rgb(0,0,0);font-family:TimesNewRomanPSMT;font-size:9.96px;stroke:none;">this reduces the decarbonisation effort on the supply side.</text>
  </g>
  <g begin="text">
   <text y="437.11" x="507.43" svgx:width="0.25" style="fill:rgb(0,0,0);font-family:TimesNewRomanPSMT;font-size:9.96px;stroke:none;"> </text>
  </g>
  <path style="fill:rgb(255,255,255);stroke:none;stroke-width:1.0;" d="M163.100 209.570 L164.060 209.570 L164.060 214.130 L163.100 214.130 L163.100 209.570 "/>
  <path style="fill:rgb(255,255,255);stroke:none;stroke-width:1.0;" d="M164.060 213.170 L198.500 213.170 L198.500 214.130 L164.060 214.130 L164.060 213.170 "/>
  <path style="fill:rgb(233,235,245);stroke:none;stroke-width:1.0;" d="M164.060 209.570 L198.500 209.570 L198.500 213.170 L164.060 213.170 L164.060 209.570 "/>
  <path style="fill:rgb(255,255,255);stroke:none;stroke-width:1.0;" d="M198.500 209.570 L199.460 209.570 L199.460 214.130 L198.500 214.130 L198.500 209.570 "/>
  <path style="fill:rgb(255,255,255);stroke:none;stroke-width:1.0;" d="M199.460 213.170 L269.440 213.170 L269.440 214.130 L199.460 214.130 L199.460 213.170 "/>
  <path style="fill:rgb(233,235,245);stroke:none;stroke-width:1.0;" d="M199.460 209.570 L269.440 209.570 L269.440 213.170 L199.460 213.170 L199.460 209.570 "/>
  <path style="fill:rgb(255,255,255);stroke:none;stroke-width:1.0;" d="M269.450 209.570 L270.410 209.570 L270.410 214.130 L269.450 214.130 L269.450 209.570 "/>
  <path style="fill:rgb(255,255,255);stroke:none;stroke-width:1.0;" d="M670.780 209.570 L671.740 209.570 L671.740 214.130 L670.780 214.130 L670.780 209.570 "/>
  <path style="fill:rgb(233,235,245);stroke:none;stroke-width:1.0;" d="M163.580 167.930 L198.980 167.930 L198.980 171.530 L163.580 171.530 L163.580 167.930 "/>
  <path style="fill:rgb(255,255,255);stroke:none;stroke-width:1.0;" d="M163.100 167.930 L164.060 167.930 L164.060 209.570 L163.100 209.570 L163.100 167.930 "/>
  <path style="fill:rgb(233,235,245);stroke:none;stroke-width:1.0;" d="M198.980 167.930 L269.920 167.930 L269.920 171.530 L198.980 171.530 L198.980 167.930 "/>
  <path style="fill:rgb(255,255,255);stroke:none;stroke-width:1.0;" d="M198.500 167.930 L199.460 167.930 L199.460 209.570 L198.500 209.570 L198.500 167.930 "/>
  <path style="fill:rgb(255,255,255);stroke:none;stroke-width:1.0;" d="M269.450 167.930 L270.410 167.930 L270.410 209.570 L269.450 209.570 L269.450 167.930 "/>
  <path style="fill:rgb(255,255,255);stroke:none;stroke-width:1.0;" d="M670.780 167.930 L671.740 167.930 L671.740 209.570 L670.780 209.570 L670.780 167.930 "/>
  <path style="fill:rgb(233,235,245);stroke:none;stroke-width:1.0;" d="M164.060 109.100 L198.500 109.100 L198.500 166.960 L164.060 166.960 L164.060 109.100 "/>
  <path style="fill:rgb(233,235,245);stroke:none;stroke-width:1.0;" d="M164.060 112.700 L198.500 112.700 L198.500 163.360 L164.060 163.360 L164.060 112.700 M170.780 150.740 L191.780 150.740 L191.780 163.360 L170.780 163.360 L170.780 150.740 "/>
  <g begin="text">
   <text y="458.02" x="170.78,176.3" svgx:width="0.56,0.61" style="fill:rgb(0,0,0);font-family:TimesNewRomanPS-BoldMT;font-size:9.96px;stroke:none;">SP</text>
  </g>
  <g begin="text">
   <text y="458.02" x="182.42" svgx:width="0.25" style="fill:rgb(0,0,0);font-family:TimesNewRomanPS-BoldMT;font-size:9.96px;stroke:none;"> </text>
  </g>
  <path style="fill:rgb(233,235,245);stroke:none;stroke-width:1.0;" d="M164.060 112.700 L198.500 112.700 L198.500 163.360 L164.060 163.360 L164.060 112.700 M164.060 112.700 L198.500 112.700 L198.500 163.360 L164.060 163.360 L164.060 112.700 M199.580 109.100 L269.440 109.100 L269.440 166.960 L199.580 166.960 L199.580 109.100 "/>
  <path style="fill:rgb(233,235,245);stroke:none;stroke-width:1.0;" d="M199.580 112.700 L269.440 112.700 L269.440 163.360 L199.580 163.360 L199.580 112.700 M206.180 150.740 L262.720 150.740 L262.720 163.360 L206.180 163.360 L206.180 150.740 "/>
  <g begin="text">
   <text y="458.02" x="206.18,211.718,216.728,219.497,222.833,225.602,228.371,233.381,238.411" svgx:width="0.56,0.5,0.28,0.33,0.28,0.28,0.5,0.5,0.25" style="fill:rgb(0,0,0);font-family:TimesNewRomanPSMT;font-size:9.96px;stroke:none;">Shifting </text>
  </g>
  <path style="fill:rgb(233,235,245);stroke:none;stroke-width:1.0;" d="M199.580 112.700 L269.440 112.700 L269.440 163.360 L199.580 163.360 L199.580 112.700 M206.180 138.020 L262.720 138.020 L262.720 150.740 L206.180 150.740 L206.180 138.020 "/>
  <g begin="text">
   <text y="470.62" x="206.18,211.718,216.14,218.909,223.929,231.12,235.542,240.602" svgx:width="0.56,0.44,0.28,0.5,0.72,0.44,0.5,0.39" style="fill:rgb(0,0,0);font-family:TimesNewRomanPSMT;font-size:9.96px;stroke:none;">Pathways</text>
  </g>
  <g begin="text">
   <text y="470.62" x="244.46" svgx:width="0.25" style="fill:rgb(0,0,0);font-family:TimesNewRomanPSMT;font-size:9.96px;stroke:none;"> </text>
  </g>
  <path style="fill:rgb(233,235,245);stroke:none;stroke-width:1.0;" d="M199.580 112.700 L269.440 112.700 L269.440 163.360 L199.580 163.360 L199.580 112.700 M199.580 112.700 L269.440 112.700 L269.440 163.360 L199.580 163.360 L199.580 112.700 "/>
  <g begin="text">
   <text y="458.02" x="277.13,282.668,287.678,292.1,296.552,300.974,304.849,308.673,312.02,317.05,319.819,322.797,325.566,330.585,333.354,337.776,341.133,346.163,350.585,353.354,356.123,361.153,366.183,370.605,373.374,376.372,380.794,383.563,386.332,394.12,398.543,401.311,405.734,408.751,413.781,418.811,421.58,424.349,428.771,433.801,436.789,440.136,444.558,449.607,452.376,460.155,464.577,467.585,474.776,477.545,480.314,485.334,488.322,492.744" svgx:width="0.56,0.5,0.44,0.44,0.44,0.39,0.39,0.33,0.5,0.28,0.25,0.28,0.5,0.28,0.44,0.33,0.5,0.44,0.28,0.28,0.5,0.5,0.44,0.28,0.25,0.44,0.28,0.28,0.78,0.44,0.28,0.44,0.25,0.5,0.5,0.28,0.28,0.44,0.5,0.25,0.33,0.44,0.5,0.28,0.78,0.44,0.25,0.72,0.28,0.28,0.5,0.25,0.44,0.25" style="fill:rgb(0,0,0);font-family:TimesNewRomanPSMT;font-size:9.96px;stroke:none;">Successful international climate policy regime with a </text>
  </g>
  <g begin="text">
   <text y="458.02" x="496.03,499.377,504.406,508.729,513.759,517.603,520.591,525.621,530.651,533.639,538.061,543.111,548.141,550.909,553.678,556.447,561.447,566.477,570.899,573.668,576.666,582.204,589.395,596.586,599.574,604.604,609.633,612.402,615.171,619.593,622.362,626.785,630.659,633.627,638.049,640.818,648.617,651.386,656.406,661.435,663.836" svgx:width="0.33,0.5,0.44,0.5,0.39,0.25,0.5,0.5,0.25,0.44,0.5,0.5,0.28,0.28,0.28,0.5,0.5,0.44,0.28,0.25,0.56,0.72,0.72,0.25,0.5,0.5,0.28,0.28,0.44,0.28,0.44,0.39,0.25,0.44,0.28,0.78,0.28,0.5,0.5,0.25,0.25" style="fill:rgb(0,0,0);font-family:TimesNewRomanPSMT;font-size:9.96px;stroke:none;">focus on additional SDG policies aiming, </text>
  </g>
  <g begin="text">
   <text y="470.62" x="277.13,280.477,285.506,288.853,291.841,296.263,301.313,305.735,313.544,318.574,321.342,325.765,328.285,331.273,335.695,338.464,341.462,346.491,351.412,356.441,360.864,364.23,366.999,372.019,375.007,378.353,382.676,387.706,392.736,397.058,399.827,402.596,407.606,412.636,415.624,420.046,425.096,430.126,433.114,438.143,441.49,446.52,450.842,455.872,460.294,463.661,466.649,471.071,476.121,481.151,483.79,487.137,492.167,497.196,504.985,509.308,514.338,516.977,521.399,524.168,527.166,532.196,535.542,540.572,543.341,547.763,552.185,554.954,557.723,562.763,567.793" svgx:width="0.33,0.5,0.33,0.25,0.44,0.5,0.44,0.78,0.5,0.28,0.44,0.25,0.25,0.44,0.28,0.25,0.5,0.5,0.5,0.44,0.33,0.28,0.5,0.25,0.33,0.44,0.5,0.5,0.44,0.28,0.28,0.5,0.5,0.25,0.44,0.5,0.5,0.25,0.5,0.33,0.5,0.44,0.5,0.44,0.33,0.25,0.44,0.5,0.5,0.28,0.33,0.5,0.5,0.78,0.44,0.5,0.28,0.44,0.28,0.25,0.5,0.33,0.5,0.28,0.44,0.44,0.28,0.28,0.5,0.5,0.25" style="fill:rgb(0,0,0);font-family:TimesNewRomanPSMT;font-size:9.96px;stroke:none;">for example, at poverty reduction and broader environmental protection.</text>
  </g>
  <g begin="text">
   <text y="470.62" x="570.79" svgx:width="0.25" style="fill:rgb(0,0,0);font-family:TimesNewRomanPSMT;font-size:9.96px;stroke:none;"> </text>
  </g>
  <g begin="text">
   <text y="470.62" x="573.79,582.644,587.097,589.865,594.885,598.232,601.22,603.989,607.325,611.747,616.797,620.642,623.988,628.908,632.255,639.934,644.356,647.125,649.894,654.924,659.954,663.908" svgx:width="0.89,0.44,0.28,0.5,0.33,0.25,0.28,0.33,0.44,0.5,0.39,0.33,0.5,0.33,0.78,0.44,0.28,0.28,0.5,0.5,0.39,0.25" style="fill:rgb(0,0,0);font-family:TimesNewRomanPSMT;font-size:9.96px;stroke:none;">Major transformations </text>
  </g>
  <g begin="text">
   <text y="483.34" x="277.13,280.975,286.004,288.773,292.11,294.879,297.498,302.528,306.95,312.0,316.422,319.191,324.231,329.261,337.049,341.372,346.402,349.171,351.79,354.559,359.579,366.77,371.192,374.569,379.599,383.443,386.073,389.917,394.947,398.662,401.431,405.853,408.622,413.652,418.074,423.124,425.893,428.662,431.431,434.16,439.189,441.819,446.241,451.291,456.321,458.831,462.177,466.599,471.649,476.679,481.101,485.444,490.473,493.103,495.872,500.892,505.314,510.254,515.284,519.607,522.375,525.144,527.913,532.913,535.423,538.052,540.821,545.841,550.263,553.032,558.072,563.102,565.87,570.89,575.811,578.44,583.47,587.892,592.344,597.264,599.894,607.085,614.276,621.467,624.126,628.549,636.357,639.126,642.961,646.805,649.574,654.594,659.624,663.578" svgx:width="0.39,0.5,0.28,0.33,0.28,0.25,0.5,0.44,0.5,0.44,0.28,0.5,0.5,0.78,0.44,0.5,0.28,0.25,0.28,0.5,0.72,0.44,0.33,0.5,0.39,0.25,0.39,0.5,0.39,0.28,0.44,0.28,0.5,0.44,0.5,0.28,0.28,0.28,0.28,0.5,0.25,0.44,0.5,0.5,0.25,0.33,0.44,0.5,0.5,0.44,0.44,0.5,0.25,0.28,0.5,0.44,0.5,0.5,0.44,0.28,0.28,0.28,0.5,0.25,0.25,0.28,0.5,0.44,0.28,0.5,0.5,0.28,0.5,0.5,0.25,0.5,0.44,0.44,0.5,0.25,0.72,0.72,0.72,0.25,0.44,0.78,0.28,0.39,0.39,0.28,0.5,0.5,0.39,0.25" style="fill:rgb(0,0,0);font-family:TimesNewRomanPSMT;font-size:9.96px;stroke:none;">shift development towards sustainability and reduced inequality, including deep GHG emissions </text>
  </g>
  <g begin="text">
   <text y="495.94" x="277.13,280.477,284.899,289.949,294.978,299.401,302.169,304.938,309.968,314.998" svgx:width="0.33,0.44,0.5,0.5,0.44,0.28,0.28,0.5,0.5,0.25" style="fill:rgb(0,0,0);font-family:TimesNewRomanPSMT;font-size:9.96px;stroke:none;">reduction.</text>
  </g>
  <g begin="text">
   <text y="495.94" x="317.45" svgx:width="0.25" style="fill:rgb(0,0,0);font-family:TimesNewRomanPSMT;font-size:9.96px;stroke:none;"> </text>
  </g>
  <path style="fill:rgb(255,255,255);stroke:none;stroke-width:1.0;" d="M163.100 163.370 L164.060 163.370 L164.060 167.930 L163.100 167.930 L163.100 163.370 "/>
  <path style="fill:rgb(255,255,255);stroke:none;stroke-width:1.0;" d="M164.060 166.970 L198.500 166.970 L198.500 167.930 L164.060 167.930 L164.060 166.970 "/>
  <path style="fill:rgb(233,235,245);stroke:none;stroke-width:1.0;" d="M164.060 163.370 L198.500 163.370 L198.500 166.970 L164.060 166.970 L164.060 163.370 "/>
  <path style="fill:rgb(255,255,255);stroke:none;stroke-width:1.0;" d="M198.500 163.370 L199.460 163.370 L199.460 167.930 L198.500 167.930 L198.500 163.370 "/>
  <path style="fill:rgb(255,255,255);stroke:none;stroke-width:1.0;" d="M199.460 166.970 L269.440 166.970 L269.440 167.930 L199.460 167.930 L199.460 166.970 "/>
  <path style="fill:rgb(233,235,245);stroke:none;stroke-width:1.0;" d="M199.460 163.370 L269.440 163.370 L269.440 166.970 L199.460 166.970 L199.460 163.370 "/>
  <path style="fill:rgb(255,255,255);stroke:none;stroke-width:1.0;" d="M269.450 163.370 L270.410 163.370 L270.410 167.930 L269.450 167.930 L269.450 163.370 "/>
  <path style="fill:rgb(255,255,255);stroke:none;stroke-width:1.0;" d="M670.780 163.370 L671.740 163.370 L671.740 167.930 L670.780 167.930 L670.780 163.370 "/>
  <path style="fill:rgb(233,235,245);stroke:none;stroke-width:1.0;" d="M163.580 109.100 L198.980 109.100 L198.980 112.700 L163.580 112.700 L163.580 109.100 "/>
  <path style="fill:rgb(255,255,255);stroke:none;stroke-width:1.0;" d="M163.100 109.100 L164.060 109.100 L164.060 163.360 L163.100 163.360 L163.100 109.100 "/>
  <path style="fill:rgb(255,255,255);stroke:none;stroke-width:1.0;" d="M163.100 108.140 L164.060 108.140 L164.060 109.100 L163.100 109.100 L163.100 108.140 "/>
  <path style="fill:rgb(255,255,255);stroke:none;stroke-width:1.0;" d="M163.100 108.140 L164.060 108.140 L164.060 109.100 L163.100 109.100 L163.100 108.140 "/>
  <path style="fill:rgb(255,255,255);stroke:none;stroke-width:1.0;" d="M164.060 108.140 L198.500 108.140 L198.500 109.100 L164.060 109.100 L164.060 108.140 "/>
  <path style="fill:rgb(233,235,245);stroke:none;stroke-width:1.0;" d="M198.980 109.100 L269.920 109.100 L269.920 112.700 L198.980 112.700 L198.980 109.100 "/>
  <path style="fill:rgb(255,255,255);stroke:none;stroke-width:1.0;" d="M198.500 109.100 L199.460 109.100 L199.460 163.360 L198.500 163.360 L198.500 109.100 "/>
  <path style="fill:rgb(255,255,255);stroke:none;stroke-width:1.0;" d="M198.500 108.140 L199.460 108.140 L199.460 109.100 L198.500 109.100 L198.500 108.140 "/>
  <path style="fill:rgb(255,255,255);stroke:none;stroke-width:1.0;" d="M199.460 108.140 L269.440 108.140 L269.440 109.100 L199.460 109.100 L199.460 108.140 "/>
  <path style="fill:rgb(255,255,255);stroke:none;stroke-width:1.0;" d="M269.450 109.100 L270.410 109.100 L270.410 163.360 L269.450 163.360 L269.450 109.100 "/>
  <path style="fill:rgb(255,255,255);stroke:none;stroke-width:1.0;" d="M269.450 108.140 L270.410 108.140 L270.410 109.100 L269.450 109.100 L269.450 108.140 "/>
  <path style="fill:rgb(255,255,255);stroke:none;stroke-width:1.0;" d="M670.780 109.100 L671.740 109.100 L671.740 163.360 L670.780 163.360 L670.780 109.100 "/>
  <path style="fill:rgb(255,255,255);stroke:none;stroke-width:1.0;" d="M670.780 108.140 L671.740 108.140 L671.740 109.100 L670.780 109.100 L670.780 108.140 "/>
  <path style="fill:rgb(255,255,255);stroke:none;stroke-width:1.0;" d="M670.780 108.140 L671.740 108.140 L671.740 109.100 L670.780 109.100 L670.780 108.140 "/>
  <g begin="text">
   <text y="492.324" transform="matrix(0.70711,-0.70711,0.70711,0.70711,-290.31262,283.77134)" rotateDegrees="-45" matrix="[30.654785,30.654785,-30.654785,30.654785,197.38582,119.675644]" x="197.386" svgx:width="0.67" style="fill:rgb(0,0,0);font-family:Arial;font-size:43.35px;stroke:none;">A</text>
   <text y="471.878" transform="matrix(0.70711,-0.70711,0.70711,0.70711,-269.86633,292.24106)" rotateDegrees="-45" matrix="[30.654785,30.654785,-30.654785,30.654785,217.83255,140.12239]" x="217.833" svgx:width="0.72" style="fill:rgb(0,0,0);font-family:Arial;font-size:43.35px;stroke:none;">C</text>
   <text y="449.745" transform="matrix(0.70711,-0.70711,0.70711,0.70711,-247.73362,301.40814)" rotateDegrees="-45" matrix="[30.654785,30.654785,-30.654785,30.654785,239.9653,162.25514]" x="239.965" svgx:width="0.72" style="fill:rgb(0,0,0);font-family:Arial;font-size:43.35px;stroke:none;">C</text>
   <text y="427.612" transform="matrix(0.70711,-0.70711,0.70711,0.70711,-225.60062,310.57593)" rotateDegrees="-45" matrix="[30.654785,30.654785,-30.654785,30.654785,262.09808,184.3879]" x="262.098" svgx:width="0.67" style="fill:rgb(0,0,0);font-family:Arial;font-size:43.35px;stroke:none;">E</text>
   <text y="407.165" transform="matrix(0.70711,-0.70711,0.70711,0.70711,-205.15362,319.04535)" rotateDegrees="-45" matrix="[30.654785,30.654785,-30.654785,30.654785,282.5448,204.83463]" x="282.545" svgx:width="0.67" style="fill:rgb(0,0,0);font-family:Arial;font-size:43.35px;stroke:none;">P</text>
   <text y="386.719" transform="matrix(0.70711,-0.70711,0.70711,0.70711,-184.70733,327.51507)" rotateDegrees="-45" matrix="[30.654785,30.654785,-30.654785,30.654785,302.99155,225.28137]" x="302.992" svgx:width="0.61" style="fill:rgb(0,0,0);font-family:Arial;font-size:43.35px;stroke:none;">T</text>
   <text y="367.989" transform="matrix(0.70711,-0.70711,0.70711,0.70711,-165.97733,335.27329)" rotateDegrees="-45" matrix="[30.654785,30.654785,-30.654785,30.654785,321.72162,244.01144]" x="321.722" svgx:width="0.67" style="fill:rgb(0,0,0);font-family:Arial;font-size:43.35px;stroke:none;">E</text>
   <text y="347.542" transform="matrix(0.70711,-0.70711,0.70711,0.70711,-145.53062,343.74201)" rotateDegrees="-45" matrix="[30.654785,30.654785,-30.654785,30.654785,342.16833,264.4582]" x="342.168" svgx:width="0.72" style="fill:rgb(0,0,0);font-family:Arial;font-size:43.35px;stroke:none;">D</text>
   <text y="325.409" transform="matrix(0.70711,-0.70711,0.70711,0.70711,-123.39762,352.9098)" rotateDegrees="-45" matrix="[30.654785,30.654785,-30.654785,30.654785,364.30112,286.59094]" x="364.301" svgx:width="0.28" style="fill:rgb(0,0,0);font-family:Arial;font-size:43.35px;stroke:none;"> </text>
   <text y="316.883" transform="matrix(0.70711,-0.70711,0.70711,0.70711,-114.87162,356.44138)" rotateDegrees="-45" matrix="[30.654785,30.654785,-30.654785,30.654785,372.82697,295.11682]" x="372.827" svgx:width="0.67" style="fill:rgb(0,0,0);font-family:Arial;font-size:43.35px;stroke:none;">V</text>
   <text y="296.436" transform="matrix(0.70711,-0.70711,0.70711,0.70711,-94.42462,364.91081)" rotateDegrees="-45" matrix="[30.654785,30.654785,-30.654785,30.654785,393.2737,315.56354]" x="393.274" svgx:width="0.67" style="fill:rgb(0,0,0);font-family:Arial;font-size:43.35px;stroke:none;">E</text>
   <text y="275.99" transform="matrix(0.70711,-0.70711,0.70711,0.70711,-73.97862,373.37982)" rotateDegrees="-45" matrix="[30.654785,30.654785,-30.654785,30.654785,413.72046,336.01028]" x="413.72" svgx:width="0.72" style="fill:rgb(0,0,0);font-family:Arial;font-size:43.35px;stroke:none;">R</text>
   <text y="253.857" transform="matrix(0.70711,-0.70711,0.70711,0.70711,-51.84562,382.54761)" rotateDegrees="-45" matrix="[30.654785,30.654785,-30.654785,30.654785,435.8532,358.14304]" x="435.853" svgx:width="0.67" style="fill:rgb(0,0,0);font-family:Arial;font-size:43.35px;stroke:none;">S</text>
   <text y="233.41" transform="matrix(0.70711,-0.70711,0.70711,0.70711,-31.39862,391.01703)" rotateDegrees="-45" matrix="[30.654785,30.654785,-30.654785,30.654785,456.29993,378.58978]" x="456.3" svgx:width="0.28" style="fill:rgb(0,0,0);font-family:Arial;font-size:43.35px;stroke:none;">I</text>
   <text y="224.888" transform="matrix(0.70711,-0.70711,0.70711,0.70711,-22.87662,394.54696)" rotateDegrees="-45" matrix="[30.654785,30.654785,-30.654785,30.654785,464.82196,387.11182]" x="464.822" svgx:width="0.78" style="fill:rgb(0,0,0);font-family:Arial;font-size:43.35px;stroke:none;">O</text>
   <text y="201.039" transform="matrix(0.70711,-0.70711,0.70711,0.70711,0.97238,404.42554)" rotateDegrees="-45" matrix="[30.654785,30.654785,-30.654785,30.654785,488.6714,410.96124]" x="488.671" svgx:width="0.72" style="fill:rgb(0,0,0);font-family:Arial;font-size:43.35px;stroke:none;">N</text>
   <text y="178.906" transform="matrix(0.70711,-0.70711,0.70711,0.70711,23.10538,413.59333)" rotateDegrees="-45" matrix="[30.654785,30.654785,-30.654785,30.654785,510.80414,433.094]" x="510.804" svgx:width="0.28" style="fill:rgb(0,0,0);font-family:Arial;font-size:43.35px;stroke:none;"> </text>
   <text y="529.11" transform="matrix(0.70711,-0.70711,0.70711,0.70711,-305.54988,320.55734)" rotateDegrees="-45" matrix="[30.654785,30.654785,-30.654785,30.654785,234.17155,82.88991]" x="234.172" svgx:width="0.67" style="fill:rgb(0,0,0);font-family:Arial;font-size:43.35px;stroke:none;">S</text>
   <text y="508.663" transform="matrix(0.70711,-0.70711,0.70711,0.70711,-285.10317,329.02606)" rotateDegrees="-45" matrix="[30.654785,30.654785,-30.654785,30.654785,254.6183,103.33665]" x="254.618" svgx:width="0.72" style="fill:rgb(0,0,0);font-family:Arial;font-size:43.35px;stroke:none;">U</text>
   <text y="486.531" transform="matrix(0.70711,-0.70711,0.70711,0.70711,-262.97088,338.19414)" rotateDegrees="-45" matrix="[30.654785,30.654785,-30.654785,30.654785,276.75104,125.4694]" x="276.751" svgx:width="0.67" style="fill:rgb(0,0,0);font-family:Arial;font-size:43.35px;stroke:none;">B</text>
   <text y="466.084" transform="matrix(0.70711,-0.70711,0.70711,0.70711,-242.52388,346.66356)" rotateDegrees="-45" matrix="[30.654785,30.654785,-30.654785,30.654785,297.1978,145.91614]" x="297.198" svgx:width="0.5" style="fill:rgb(0,0,0);font-family:Arial;font-size:43.35px;stroke:none;">J</text>
   <text y="450.756" transform="matrix(0.70711,-0.70711,0.70711,0.70711,-227.19617,353.01192)" rotateDegrees="-45" matrix="[30.654785,30.654785,-30.654785,30.654785,312.5252,161.24353]" x="312.525" svgx:width="0.67" style="fill:rgb(0,0,0);font-family:Arial;font-size:43.35px;stroke:none;">E</text>
   <text y="430.31" transform="matrix(0.70711,-0.70711,0.70711,0.70711,-206.74988,361.48164)" rotateDegrees="-45" matrix="[30.654785,30.654785,-30.654785,30.654785,332.97192,181.69028]" x="332.972" svgx:width="0.72" style="fill:rgb(0,0,0);font-family:Arial;font-size:43.35px;stroke:none;">C</text>
   <text y="408.177" transform="matrix(0.70711,-0.70711,0.70711,0.70711,-184.61688,370.64943)" rotateDegrees="-45" matrix="[30.654785,30.654785,-30.654785,30.654785,355.10468,203.82303]" x="355.105" svgx:width="0.61" style="fill:rgb(0,0,0);font-family:Arial;font-size:43.35px;stroke:none;">T</text>
   <text y="389.447" transform="matrix(0.70711,-0.70711,0.70711,0.70711,-165.88688,378.40765)" rotateDegrees="-45" matrix="[30.654785,30.654785,-30.654785,30.654785,373.83475,222.5531]" x="373.835" svgx:width="0.28" style="fill:rgb(0,0,0);font-family:Arial;font-size:43.35px;stroke:none;"> </text>
   <text y="380.925" transform="matrix(0.70711,-0.70711,0.70711,0.70711,-157.36488,381.93758)" rotateDegrees="-45" matrix="[30.654785,30.654785,-30.654785,30.654785,382.35678,231.07513]" x="382.357" svgx:width="0.61" style="fill:rgb(0,0,0);font-family:Arial;font-size:43.35px;stroke:none;">T</text>
   <text y="362.195" transform="matrix(0.70711,-0.70711,0.70711,0.70711,-138.63488,389.6958)" rotateDegrees="-45" matrix="[30.654785,30.654785,-30.654785,30.654785,401.08685,249.8052]" x="401.087" svgx:width="0.78" style="fill:rgb(0,0,0);font-family:Arial;font-size:43.35px;stroke:none;">O</text>
   <text y="338.345" transform="matrix(0.70711,-0.70711,0.70711,0.70711,-114.78517,399.57408)" rotateDegrees="-45" matrix="[30.654785,30.654785,-30.654785,30.654785,424.93628,273.6546]" x="424.936" svgx:width="0.28" style="fill:rgb(0,0,0);font-family:Arial;font-size:43.35px;stroke:none;"> </text>
   <text y="329.839" transform="matrix(0.70711,-0.70711,0.70711,0.70711,-106.27888,403.09809)" rotateDegrees="-45" matrix="[30.654785,30.654785,-30.654785,30.654785,433.443,282.16132]" x="433.443" svgx:width="0.61" style="fill:rgb(0,0,0);font-family:Arial;font-size:43.35px;stroke:none;">F</text>
   <text y="311.109" transform="matrix(0.70711,-0.70711,0.70711,0.70711,-87.54888,410.85631)" rotateDegrees="-45" matrix="[30.654785,30.654785,-30.654785,30.654785,452.17307,300.89142]" x="452.173" svgx:width="0.28" style="fill:rgb(0,0,0);font-family:Arial;font-size:43.35px;stroke:none;">I</text>
   <text y="302.587" transform="matrix(0.70711,-0.70711,0.70711,0.70711,-79.02688,414.38624)" rotateDegrees="-45" matrix="[30.654785,30.654785,-30.654785,30.654785,460.6951,309.41345]" x="460.695" svgx:width="0.72" style="fill:rgb(0,0,0);font-family:Arial;font-size:43.35px;stroke:none;">N</text>
   <text y="280.454" transform="matrix(0.70711,-0.70711,0.70711,0.70711,-56.89388,423.55403)" rotateDegrees="-45" matrix="[30.654785,30.654785,-30.654785,30.654785,482.82785,331.5462]" x="482.828" svgx:width="0.67" style="fill:rgb(0,0,0);font-family:Arial;font-size:43.35px;stroke:none;">A</text>
   <text y="260.007" transform="matrix(0.70711,-0.70711,0.70711,0.70711,-36.44688,432.02345)" rotateDegrees="-45" matrix="[30.654785,30.654785,-30.654785,30.654785,503.2746,351.99292]" x="503.275" svgx:width="0.56" style="fill:rgb(0,0,0);font-family:Arial;font-size:43.35px;stroke:none;">L</text>
   <text y="242.963" transform="matrix(0.70711,-0.70711,0.70711,0.70711,-19.40288,439.08331)" rotateDegrees="-45" matrix="[30.654785,30.654785,-30.654785,30.654785,520.3186,369.037]" x="520.319" svgx:width="0.28" style="fill:rgb(0,0,0);font-family:Arial;font-size:43.35px;stroke:none;"> </text>
   <text y="234.447" transform="matrix(0.70711,-0.70711,0.70711,0.70711,-10.88717,442.61004)" rotateDegrees="-45" matrix="[30.654785,30.654785,-30.654785,30.654785,528.8343,377.5526]" x="528.834" svgx:width="0.67" style="fill:rgb(0,0,0);font-family:Arial;font-size:43.35px;stroke:none;">E</text>
   <text y="214.001" transform="matrix(0.70711,-0.70711,0.70711,0.70711,9.55912,451.07976)" rotateDegrees="-45" matrix="[30.654785,30.654785,-30.654785,30.654785,549.281,397.9994]" x="549.281" svgx:width="0.72" style="fill:rgb(0,0,0);font-family:Arial;font-size:43.35px;stroke:none;">D</text>
   <text y="191.868" transform="matrix(0.70711,-0.70711,0.70711,0.70711,31.69212,460.24755)" rotateDegrees="-45" matrix="[30.654785,30.654785,-30.654785,30.654785,571.41376,420.13208]" x="571.414" svgx:width="0.28" style="fill:rgb(0,0,0);font-family:Arial;font-size:43.35px;stroke:none;">I</text>
   <text y="183.346" transform="matrix(0.70711,-0.70711,0.70711,0.70711,40.21412,463.77748)" rotateDegrees="-45" matrix="[30.654785,30.654785,-30.654785,30.654785,579.9358,428.6541]" x="579.936" svgx:width="0.61" style="fill:rgb(0,0,0);font-family:Arial;font-size:43.35px;stroke:none;">T</text>
   <text y="164.616" transform="matrix(0.70711,-0.70711,0.70711,0.70711,58.94412,471.5357)" rotateDegrees="-45" matrix="[30.654785,30.654785,-30.654785,30.654785,598.6659,447.3842]" x="598.666" svgx:width="0.67" style="fill:rgb(0,0,0);font-family:Arial;font-size:43.35px;stroke:none;">S</text>
  </g>
 </g>
</svg>
