<?xml version="1.0" encoding="UTF-8"?>
<svg height="807.04" width="536.18" xmlns="http://www.w3.org/2000/svg">
 <g id="page" xmlns:svgx="http://www.xml-cml.org/schema/svgx">
  <g begin="text">
   <text y="45.72" x="72.024,78.162,81.231,86.751,91.587,94.7,97.46,105.376,110.896,116.416,121.218,124.928,130.448,138.971,143.872,149.392,152.517,155.277,163.082,166.195,170.39,173.504,177.103,180.216,185.736,191.135,194.137,197.251,202.771" svgx:width="0.56,0.28,0.5,0.44,0.28,0.25,0.72,0.5,0.5,0.44,0.33,0.5,0.78,0.44,0.5,0.28,0.25,0.72,0.28,0.39,0.28,0.33,0.28,0.5,0.5,0.28,0.28,0.5,0.5" style="fill:rgb(0,0,0);font-family:TimesNewRomanPSMT;font-size:11.04px;stroke:none;">Final Government Distribution</text>
  </g>
  <g begin="text">
   <text y="45.72" x="208.37" svgx:width="0.25" style="fill:rgb(0,0,0);font-family:TimesNewRomanPSMT;font-size:11.04px;stroke:none;"> </text>
  </g>
  <g begin="text">
   <text y="45.72" x="211.01" svgx:width="0.25" style="fill:rgb(0,0,0);font-family:TimesNewRomanPSMT;font-size:11.04px;stroke:none;"> </text>
  </g>
  <g begin="text">
   <text y="45.72" x="216.05,218.81,221.57,224.33,227.09,229.85,232.61,235.37,238.13" svgx:width="0.25,0.25,0.25,0.25,0.25,0.25,0.25,0.25,0.25" style="fill:rgb(0,0,0);font-family:TimesNewRomanPSMT;font-size:11.04px;stroke:none;"> </text>
  </g>
  <g begin="text">
   <text y="45.72" x="240.89,243.65,246.41,249.17,251.93,254.69,257.45,260.21,262.97,265.609,268.369,271.129,273.889,276.649,279.409,282.169" svgx:width="0.25,0.25,0.25,0.25,0.25,0.25,0.25,0.25,0.25,0.25,0.25,0.25,0.25,0.25,0.25,0.25" style="fill:rgb(0,0,0);font-family:TimesNewRomanPSMT;font-size:11.04px;stroke:none;"> </text>
  </g>
  <g begin="text">
   <text y="45.72" x="284.93,287.69" svgx:width="0.25,0.25" style="fill:rgb(0,0,0);font-family:TimesNewRomanPSMT;font-size:11.04px;stroke:none;"> </text>
  </g>
  <g begin="text">
   <text y="45.72" x="290.45" svgx:width="0.25" style="fill:rgb(0,0,0);font-family:TimesNewRomanPSMT;font-size:11.04px;stroke:none;"> </text>
  </g>
  <g begin="text">
   <text y="45.72" x="293.21,300.529,305.928,310.83,316.35,319.364,324.266,327.997,330.757" svgx:width="0.67,0.5,0.44,0.5,0.28,0.44,0.33,0.25,0.5" style="fill:rgb(0,0,0);font-family:TimesNewRomanPSMT;font-size:11.04px;stroke:none;">Chapter 1</text>
  </g>
  <g begin="text">
   <text y="45.72" x="336.19" svgx:width="0.25" style="fill:rgb(0,0,0);font-family:TimesNewRomanPSMT;font-size:11.04px;stroke:none;"> </text>
  </g>
  <g begin="text">
   <text y="45.72" x="360.07,362.83,365.59,368.35,371.11,373.87,376.63,379.39,382.15,384.91,387.67,390.43,393.19" svgx:width="0.25,0.25,0.25,0.25,0.25,0.25,0.25,0.25,0.25,0.25,0.25,0.25,0.25" style="fill:rgb(0,0,0);font-family:TimesNewRomanPSMT;font-size:11.04px;stroke:none;"> </text>
  </g>
  <g begin="text">
   <text y="45.72" x="395.95,398.71,401.47,404.23,406.99,409.629,412.389,415.149,417.909,420.669,423.429,426.189,428.949,431.709,434.469,437.229" svgx:width="0.25,0.25,0.25,0.25,0.25,0.25,0.25,0.25,0.25,0.25,0.25,0.25,0.25,0.25,0.25,0.25" style="fill:rgb(0,0,0);font-family:TimesNewRomanPSMT;font-size:11.04px;stroke:none;"> </text>
  </g>
  <g begin="text">
   <text y="45.72" x="440.02,443.619,449.757,457.055,464.374" svgx:width="0.33,0.56,0.67,0.67,0.25" style="fill:rgb(0,0,0);font-family:TimesNewRomanPSMT;font-size:11.04px;stroke:none;">IPCC </text>
  </g>
  <g begin="text">
   <text y="45.72" x="467.14,475.056,482.375,487.895,490.655,501.077,509.048,512.614,516.213" svgx:width="0.72,0.67,0.5,0.25,0.94,0.72,0.33,0.33,0.33" style="fill:rgb(0,0,0);font-family:TimesNewRomanPSMT;font-size:11.04px;stroke:none;">AR6 WGIII</text>
  </g>
  <g begin="text">
   <text y="45.72" x="519.94" svgx:width="0.25" style="fill:rgb(0,0,0);font-family:TimesNewRomanPSMT;font-size:11.04px;stroke:none;"> </text>
  </g>
  <g begin="text">
   <text y="65.64" x="72.024" svgx:width="0.25" style="fill:rgb(0,0,0);font-family:TimesNewRomanPSMT;font-size:11.04px;stroke:none;"> </text>
  </g>
  <g begin="text">
   <text y="777.096" x="72.024" svgx:width="0.25" style="fill:rgb(0,0,0);font-family:TimesNewRomanPS-BoldMT;font-size:11.04px;stroke:none;"> </text>
  </g>
  <g begin="text">
   <text y="797.04" x="72.024,79.94,85.46,88.22,96.135,101.655,105.365,108.125,116.04,119.154,122.753,127.655,130.415,133.075,141.708,147.847,153.367,157.043,161.868,164.628,170.148,175.049,177.809,185.78,188.75,192.945,196.655,201.556,204.681,210.819,216.803,220.512" svgx:width="0.72,0.5,0.25,0.72,0.5,0.33,0.25,0.72,0.28,0.33,0.44,0.25,0.25,0.78,0.56,0.5,0.33,0.44,0.25,0.5,0.44,0.25,0.72,0.28,0.39,0.33,0.44,0.28,0.56,0.56,0.33,0.44" style="fill:rgb(0,0,0);font-family:TimesNewRomanPS-BoldMT;font-size:11.04px;stroke:none;">Do Not Cite, Quote or Distribute</text>
  </g>
  <g begin="text">
   <text y="797.04" x="225.41" svgx:width="0.25" style="fill:rgb(0,0,0);font-family:TimesNewRomanPS-BoldMT;font-size:11.04px;stroke:none;"> </text>
  </g>
  <g begin="text">
   <text y="797.04" x="288.05" svgx:width="0.25" style="fill:rgb(0,0,0);font-family:TimesNewRomanPS-BoldMT;font-size:11.04px;stroke:none;"> </text>
  </g>
  <g begin="text">
   <text y="797.04" x="324.07" svgx:width="0.5" style="fill:rgb(0,0,0);font-family:TimesNewRomanPSMT;font-size:11.04px;stroke:none;">1</text>
  </g>
  <g begin="text">
   <text y="797.04" x="329.59" svgx:width="0.33" style="fill:rgb(0,0,0);font-family:TimesNewRomanPSMT;font-size:11.04px;stroke:none;">-</text>
  </g>
  <g begin="text">
   <text y="797.04" x="333.19" svgx:width="0.5" style="fill:rgb(0,0,0);font-family:TimesNewRomanPSMT;font-size:11.04px;stroke:none;">3</text>
  </g>
  <g begin="text">
   <text y="797.04" x="338.71,341.47" svgx:width="0.25,0.25" style="fill:rgb(0,0,0);font-family:TimesNewRomanPSMT;font-size:11.04px;stroke:none;"> </text>
  </g>
  <g begin="text">
   <text y="797.04" x="344.23" svgx:width="0.25" style="fill:rgb(0,0,0);font-family:TimesNewRomanPSMT;font-size:11.04px;stroke:none;"> </text>
  </g>
  <g begin="text">
   <text y="797.04" x="360.07,362.83,365.59,368.35,371.11,373.87,376.63,379.39,382.15,384.91,387.67,390.43,393.19,395.95,398.71,401.47,404.23,406.99,409.629,412.389,415.149,417.909,420.669,423.429,426.189,428.949,431.709,434.469,437.229,439.989,442.627,445.387,448.147" svgx:width="0.25,0.25,0.25,0.25,0.25,0.25,0.25,0.25,0.25,0.25,0.25,0.25,0.25,0.25,0.25,0.25,0.25,0.25,0.25,0.25,0.25,0.25,0.25,0.25,0.25,0.25,0.25,0.25,0.25,0.25,0.25,0.25,0.25" style="fill:rgb(0,0,0);font-family:TimesNewRomanPSMT;font-size:11.04px;stroke:none;"> </text>
  </g>
  <g begin="text">
   <text y="797.04" x="450.94,457.685,463.205,466.175,471.077,474.201,476.487,481.885,486.787,492.307,497.231,501.426,504.539" svgx:width="0.61,0.5,0.28,0.44,0.28,0.25,0.5,0.44,0.5,0.44,0.39,0.28,0.25" style="fill:rgb(0,0,0);font-family:TimesNewRomanPSMT;font-size:11.04px;stroke:none;">Total pages: </text>
  </g>
  <g begin="text">
   <text y="797.04" x="506.98,512.5,518.02" svgx:width="0.5,0.5,0.5" style="fill:rgb(0,0,0);font-family:TimesNewRomanPSMT;font-size:11.04px;stroke:none;">106</text>
  </g>
  <g begin="text">
   <text y="797.04" x="523.42" svgx:width="0.25" style="fill:rgb(0,0,0);font-family:TimesNewRomanPSMT;font-size:11.04px;stroke:none;"> </text>
  </g>
  <g begin="text">
   <text y="85.58" x="93.984,99.504,102.264,107.784,110.544" svgx:width="0.5,0.25,0.5,0.25,0.5" style="fill:rgb(0,0,0);font-family:TimesNewRomanPSMT;font-size:11.04px;stroke:none;">1.8.2</text>
  </g>
  <g begin="text">
   <text y="85.58" x="115.94" svgx:width="0.23" style="fill:rgb(0,0,0);font-family:Calibri;font-size:11.04px;stroke:none;"> </text>
  </g>
  <g begin="text">
   <text y="85.58" x="138.02,141.619,144.732,147.846,153.366,157.561,160.674,164.384,169.186,172.299,175.302,180.822,186.342,190.637,193.397,198.817,202.527,205.165,213.799,219.319,222.322,225.435" svgx:width="0.33,0.28,0.28,0.5,0.39,0.28,0.33,0.44,0.28,0.28,0.5,0.5,0.39,0.25,0.5,0.33,0.25,0.78,0.5,0.28,0.28,0.28" style="fill:rgb(0,0,0);font-family:TimesNewRomanPSMT;font-size:11.04px;stroke:none;">Illustrations of multi</text>
  </g>
  <g begin="text">
   <text y="85.58" x="228.65" svgx:width="0.33" style="fill:rgb(0,0,0);font-family:TimesNewRomanPSMT;font-size:11.04px;stroke:none;">-</text>
  </g>
  <g begin="text">
   <text y="85.58" x="232.25,237.77,240.773,249.406,254.209,259.607,263.902,267.037,272.557,278.077,282.879,285.993,288.753,293.555,297.85,302.188,306.991,311.285,315.514,324.147,329.049,334.469,337.583,340.696,343.334,346.448,351.968,356.869" svgx:width="0.5,0.28,0.78,0.44,0.5,0.39,0.28,0.5,0.5,0.44,0.28,0.25,0.44,0.39,0.39,0.44,0.39,0.39,0.78,0.44,0.5,0.28,0.28,0.25,0.28,0.5,0.44,0.5" style="fill:rgb(0,0,0);font-family:TimesNewRomanPSMT;font-size:11.04px;stroke:none;">dimensional assessment: lock</text>
  </g>
  <g begin="text">
   <text y="85.58" x="362.47" svgx:width="0.33" style="fill:rgb(0,0,0);font-family:TimesNewRomanPSMT;font-size:11.04px;stroke:none;">-</text>
  </g>
  <g begin="text">
   <text y="85.58" x="366.07,369.073,374.593,377.353,379.991,385.511,391.031,394.145,397.148,402.049,405.063,409.965,414.293,417.053,421.955,427.375,432.895,435.655,439.95,445.47,449.698,452.811,455.571,462.173,465.883,470.784,476.304,480.522,483.635,486.638,489.751,495.271" svgx:width="0.28,0.5,0.25,0.25,0.5,0.5,0.28,0.28,0.44,0.28,0.44,0.39,0.25,0.44,0.5,0.5,0.25,0.39,0.5,0.39,0.28,0.25,0.61,0.33,0.44,0.5,0.39,0.28,0.28,0.28,0.5,0.5" style="fill:rgb(0,0,0);font-family:TimesNewRomanPSMT;font-size:11.04px;stroke:none;">in, policies and Just Transition</text>
  </g>
  <g begin="text">
   <text y="85.58" x="500.74" svgx:width="0.25" style="fill:rgb(0,0,0);font-family:TimesNewRomanPSMT;font-size:11.04px;stroke:none;"> </text>
  </g>
  <g begin="text">
   <text y="85.58" x="502.78" svgx:width="0.5" style="fill:rgb(0,0,0);font-family:TimesNewRomanPSMT;font-size:11.04px;stroke:none;">1</text>
  </g>
  <g begin="text">
   <text y="85.58" x="508.3" svgx:width="0.33" style="fill:rgb(0,0,0);font-family:TimesNewRomanPSMT;font-size:11.04px;stroke:none;">-</text>
  </g>
  <g begin="text">
   <text y="85.58" x="511.9,517.42" svgx:width="0.5,0.5" style="fill:rgb(0,0,0);font-family:TimesNewRomanPSMT;font-size:11.04px;stroke:none;">57</text>
  </g>
  <g begin="text">
   <text y="85.58" x="522.94" svgx:width="0.23" style="fill:rgb(0,0,0);font-family:Calibri;font-size:11.04px;stroke:none;"> </text>
  </g>
  <g begin="text">
   <text y="85.58" x="48.48" svgx:width="0.5" style="fill:rgb(0,0,0);font-family:TimesNewRomanPSMT;font-size:11.04px;stroke:none;">1</text>
  </g>
  <g begin="text">
   <text y="85.58" x="54.0" svgx:width="0.25" style="fill:rgb(0,0,0);font-family:TimesNewRomanPSMT;font-size:11.04px;stroke:none;"> </text>
  </g>
  <g begin="text">
   <text y="104.54" x="83.064,88.584,91.344" svgx:width="0.5,0.25,0.5" style="fill:rgb(0,0,0);font-family:TimesNewRomanPSMT;font-size:11.04px;stroke:none;">1.9</text>
  </g>
  <g begin="text">
   <text y="104.54" x="96.864" svgx:width="0.23" style="fill:rgb(0,0,0);font-family:Calibri;font-size:11.04px;stroke:none;"> </text>
  </g>
  <g begin="text">
   <text y="104.54" x="116.06,123.976,129.496,135.016,139.917,143.649,149.048,152.161,157.681,163.201,165.961,170.763,173.876,176.879,185.513,190.315,193.428,198.33,200.991,205.893,211.413,216.336,221.856,227.255" svgx:width="0.72,0.5,0.5,0.44,0.33,0.5,0.28,0.5,0.5,0.25,0.44,0.28,0.28,0.78,0.44,0.28,0.44,0.25,0.44,0.5,0.44,0.5,0.5,0.44" style="fill:rgb(0,0,0);font-family:TimesNewRomanPSMT;font-size:11.04px;stroke:none;">Governing climate change</text>
  </g>
  <g begin="text">
   <text y="104.54" x="232.13" svgx:width="0.25" style="fill:rgb(0,0,0);font-family:TimesNewRomanPSMT;font-size:11.04px;stroke:none;"> </text>
  </g>
  <g begin="text">
   <text y="104.54" x="234.65,237.41,240.17,242.93,245.69,248.45,251.21,253.97,256.73,259.49,262.25,265.01,267.77,270.53,273.29,276.05,278.81,281.57,284.33,287.09,289.85,292.61,295.37,298.13,300.89,303.65,306.41,309.17,311.93,314.69,317.45,320.21" svgx:width="0.25,0.25,0.25,0.25,0.25,0.25,0.25,0.25,0.25,0.25,0.25,0.25,0.25,0.25,0.25,0.25,0.25,0.25,0.25,0.25,0.25,0.25,0.25,0.25,0.25,0.25,0.25,0.25,0.25,0.25,0.25,0.25" style="fill:rgb(0,0,0);font-family:TimesNewRomanPSMT;font-size:11.04px;stroke:none;">................................</text>
  </g>
  <g begin="text">
   <text y="104.54" x="322.99,325.75,328.51,331.27,334.03,336.79,339.55,342.31,345.07,347.83,350.59,353.35,356.11,358.87,361.63,364.39,367.15,369.91,372.67,375.43,378.19,380.95,383.71,386.47,389.23,391.99,394.75,397.51,400.27,403.03,405.79,408.55" svgx:width="0.25,0.25,0.25,0.25,0.25,0.25,0.25,0.25,0.25,0.25,0.25,0.25,0.25,0.25,0.25,0.25,0.25,0.25,0.25,0.25,0.25,0.25,0.25,0.25,0.25,0.25,0.25,0.25,0.25,0.25,0.25,0.25" style="fill:rgb(0,0,0);font-family:TimesNewRomanPSMT;font-size:11.04px;stroke:none;">................................</text>
  </g>
  <g begin="text">
   <text y="104.54" x="411.31,414.07,416.83,419.59,422.35,425.11,427.87,430.63,433.39,436.15,438.91,441.67,444.43,447.19,449.95,452.71,455.47,458.23,460.99,463.75,466.51,469.27,472.03,474.79,477.55,480.31,483.07,485.83,488.59,491.35,494.11,496.87" svgx:width="0.25,0.25,0.25,0.25,0.25,0.25,0.25,0.25,0.25,0.25,0.25,0.25,0.25,0.25,0.25,0.25,0.25,0.25,0.25,0.25,0.25,0.25,0.25,0.25,0.25,0.25,0.25,0.25,0.25,0.25,0.25,0.25" style="fill:rgb(0,0,0);font-family:TimesNewRomanPSMT;font-size:11.04px;stroke:none;">................................</text>
  </g>
  <g begin="text">
   <text y="104.54" x="499.66" svgx:width="0.25" style="fill:rgb(0,0,0);font-family:TimesNewRomanPSMT;font-size:11.04px;stroke:none;">.</text>
  </g>
  <g begin="text">
   <text y="104.54" x="502.42" svgx:width="0.25" style="fill:rgb(0,0,0);font-family:TimesNewRomanPSMT;font-size:11.04px;stroke:none;"> </text>
  </g>
  <g begin="text">
   <text y="104.54" x="502.78" svgx:width="0.5" style="fill:rgb(0,0,0);font-family:TimesNewRomanPSMT;font-size:11.04px;stroke:none;">1</text>
  </g>
  <g begin="text">
   <text y="104.54" x="508.3" svgx:width="0.33" style="fill:rgb(0,0,0);font-family:TimesNewRomanPSMT;font-size:11.04px;stroke:none;">-</text>
  </g>
  <g begin="text">
   <text y="104.54" x="511.9,517.42" svgx:width="0.5,0.5" style="fill:rgb(0,0,0);font-family:TimesNewRomanPSMT;font-size:11.04px;stroke:none;">59</text>
  </g>
  <g begin="text">
   <text y="104.54" x="522.94" svgx:width="0.23" style="fill:rgb(0,0,0);font-family:Calibri;font-size:11.04px;stroke:none;"> </text>
  </g>
  <g begin="text">
   <text y="104.54" x="48.48" svgx:width="0.5" style="fill:rgb(0,0,0);font-family:TimesNewRomanPSMT;font-size:11.04px;stroke:none;">2</text>
  </g>
  <g begin="text">
   <text y="104.54" x="54.0" svgx:width="0.25" style="fill:rgb(0,0,0);font-family:TimesNewRomanPSMT;font-size:11.04px;stroke:none;"> </text>
  </g>
  <g begin="text">
   <text y="123.38" x="83.064,88.584,91.344,96.864" svgx:width="0.5,0.25,0.5,0.5" style="fill:rgb(0,0,0);font-family:TimesNewRomanPSMT;font-size:11.04px;stroke:none;">1.10</text>
  </g>
  <g begin="text">
   <text y="123.38" x="102.26" svgx:width="0.23" style="fill:rgb(0,0,0);font-family:Calibri;font-size:11.04px;stroke:none;"> </text>
  </g>
  <g begin="text">
   <text y="123.38" x="116.06,123.379,128.899,134.419,139.321,142.446,147.844,152.139,155.274,160.794,166.193" svgx:width="0.67,0.5,0.5,0.44,0.28,0.5,0.39,0.28,0.5,0.5,0.39" style="fill:rgb(0,0,0);font-family:TimesNewRomanPSMT;font-size:11.04px;stroke:none;">Conclusions</text>
  </g>
  <g begin="text">
   <text y="123.38" x="170.42" svgx:width="0.25" style="fill:rgb(0,0,0);font-family:TimesNewRomanPSMT;font-size:11.04px;stroke:none;"> </text>
  </g>
  <g begin="text">
   <text y="123.38" x="171.14,173.9,176.66,179.42,182.18,184.94,187.7,190.46,193.22,195.98,198.74,201.5,204.26,207.02,209.78,212.54,215.3,218.06,220.82,223.58,226.34,229.1,231.86,234.62,237.38,240.14,242.9,245.66,248.42,251.18,253.94,256.7" svgx:width="0.25,0.25,0.25,0.25,0.25,0.25,0.25,0.25,0.25,0.25,0.25,0.25,0.25,0.25,0.25,0.25,0.25,0.25,0.25,0.25,0.25,0.25,0.25,0.25,0.25,0.25,0.25,0.25,0.25,0.25,0.25,0.25" style="fill:rgb(0,0,0);font-family:TimesNewRomanPSMT;font-size:11.04px;stroke:none;">................................</text>
  </g>
  <g begin="text">
   <text y="123.38" x="259.49,262.25,265.01,267.77,270.53,273.29,276.05,278.81,281.57,284.33,287.09,289.85,292.61,295.37,298.13,300.89,303.65,306.41,309.17,311.93,314.69,317.45,320.21,322.97,325.73,328.49,331.25,334.01,336.77,339.53,342.29,345.05" svgx:width="0.25,0.25,0.25,0.25,0.25,0.25,0.25,0.25,0.25,0.25,0.25,0.25,0.25,0.25,0.25,0.25,0.25,0.25,0.25,0.25,0.25,0.25,0.25,0.25,0.25,0.25,0.25,0.25,0.25,0.25,0.25,0.25" style="fill:rgb(0,0,0);font-family:TimesNewRomanPSMT;font-size:11.04px;stroke:none;">................................</text>
  </g>
  <g begin="text">
   <text y="123.38" x="347.83,350.59,353.35,356.11,358.87,361.63,364.39,367.15,369.91,372.67,375.43,378.19,380.95,383.71,386.47,389.23,391.99,394.75,397.51,400.27,403.03,405.79,408.55,411.31,414.07,416.83,419.59,422.35,425.11,427.87,430.63,433.39" svgx:width="0.25,0.25,0.25,0.25,0.25,0.25,0.25,0.25,0.25,0.25,0.25,0.25,0.25,0.25,0.25,0.25,0.25,0.25,0.25,0.25,0.25,0.25,0.25,0.25,0.25,0.25,0.25,0.25,0.25,0.25,0.25,0.25" style="fill:rgb(0,0,0);font-family:TimesNewRomanPSMT;font-size:11.04px;stroke:none;">................................</text>
  </g>
  <g begin="text">
   <text y="123.38" x="436.15,438.91,441.67,444.43,447.19,449.95,452.71,455.47,458.23,460.99,463.75,466.51,469.27,472.03,474.79,477.55,480.31,483.07,485.83,488.59,491.35,494.11,496.87,499.63" svgx:width="0.25,0.25,0.25,0.25,0.25,0.25,0.25,0.25,0.25,0.25,0.25,0.25,0.25,0.25,0.25,0.25,0.25,0.25,0.25,0.25,0.25,0.25,0.25,0.25" style="fill:rgb(0,0,0);font-family:TimesNewRomanPSMT;font-size:11.04px;stroke:none;">........................</text>
  </g>
  <g begin="text">
   <text y="123.38" x="502.42" svgx:width="0.25" style="fill:rgb(0,0,0);font-family:TimesNewRomanPSMT;font-size:11.04px;stroke:none;"> </text>
  </g>
  <g begin="text">
   <text y="123.38" x="502.78" svgx:width="0.5" style="fill:rgb(0,0,0);font-family:TimesNewRomanPSMT;font-size:11.04px;stroke:none;">1</text>
  </g>
  <g begin="text">
   <text y="123.38" x="508.3" svgx:width="0.33" style="fill:rgb(0,0,0);font-family:TimesNewRomanPSMT;font-size:11.04px;stroke:none;">-</text>
  </g>
  <g begin="text">
   <text y="123.38" x="511.9,517.42" svgx:width="0.5,0.5" style="fill:rgb(0,0,0);font-family:TimesNewRomanPSMT;font-size:11.04px;stroke:none;">61</text>
  </g>
  <g begin="text">
   <text y="123.38" x="522.94" svgx:width="0.23" style="fill:rgb(0,0,0);font-family:Calibri;font-size:11.04px;stroke:none;"> </text>
  </g>
  <g begin="text">
   <text y="123.38" x="48.48" svgx:width="0.5" style="fill:rgb(0,0,0);font-family:TimesNewRomanPSMT;font-size:11.04px;stroke:none;">3</text>
  </g>
  <g begin="text">
   <text y="123.38" x="54.0" svgx:width="0.25" style="fill:rgb(0,0,0);font-family:TimesNewRomanPSMT;font-size:11.04px;stroke:none;"> </text>
  </g>
  <g begin="text">
   <text y="142.34" x="83.064,88.584,91.344,96.864" svgx:width="0.5,0.25,0.5,0.5" style="fill:rgb(0,0,0);font-family:TimesNewRomanPSMT;font-size:11.04px;stroke:none;">1.11</text>
  </g>
  <g begin="text">
   <text y="142.34" x="102.26" svgx:width="0.23" style="fill:rgb(0,0,0);font-family:Calibri;font-size:11.04px;stroke:none;"> </text>
  </g>
  <g begin="text">
   <text y="142.34" x="116.06,123.976,129.496,135.016,142.931,146.045,150.946,156.466,161.986,166.91,169.549,175.069,179.971,185.491" svgx:width="0.72,0.5,0.5,0.72,0.28,0.44,0.5,0.5,0.44,0.25,0.5,0.44,0.5,0.39" style="fill:rgb(0,0,0);font-family:TimesNewRomanPSMT;font-size:11.04px;stroke:none;">Knowledge gaps</text>
  </g>
  <g begin="text">
   <text y="142.34" x="189.77" svgx:width="0.25" style="fill:rgb(0,0,0);font-family:TimesNewRomanPSMT;font-size:11.04px;stroke:none;"> </text>
  </g>
  <g begin="text">
   <text y="142.34" x="190.49,193.25,196.01,198.77,201.53,204.29,207.05,209.81,212.57,215.33,218.09,220.85,223.61,226.37,229.13,231.89,234.65,237.41,240.17,242.93,245.69,248.45,251.21,253.97,256.73,259.49,262.25,265.01,267.77,270.53,273.29,276.05" svgx:width="0.25,0.25,0.25,0.25,0.25,0.25,0.25,0.25,0.25,0.25,0.25,0.25,0.25,0.25,0.25,0.25,0.25,0.25,0.25,0.25,0.25,0.25,0.25,0.25,0.25,0.25,0.25,0.25,0.25,0.25,0.25,0.25" style="fill:rgb(0,0,0);font-family:TimesNewRomanPSMT;font-size:11.04px;stroke:none;">................................</text>
  </g>
  <g begin="text">
   <text y="142.34" x="278.81,281.57,284.33,287.09,289.85,292.61,295.37,298.13,300.89,303.65,306.41,309.17,311.93,314.69,317.45,320.21,322.97,325.73,328.49,331.25,334.01,336.77,339.53,342.29,345.05,347.81,350.57,353.33,356.09,358.85,361.61,364.37" svgx:width="0.25,0.25,0.25,0.25,0.25,0.25,0.25,0.25,0.25,0.25,0.25,0.25,0.25,0.25,0.25,0.25,0.25,0.25,0.25,0.25,0.25,0.25,0.25,0.25,0.25,0.25,0.25,0.25,0.25,0.25,0.25,0.25" style="fill:rgb(0,0,0);font-family:TimesNewRomanPSMT;font-size:11.04px;stroke:none;">................................</text>
  </g>
  <g begin="text">
   <text y="142.34" x="367.15,369.91,372.67,375.43,378.19,380.95,383.71,386.47,389.23,391.99,394.75,397.51,400.27,403.03,405.79,408.55,411.31,414.07,416.83,419.59,422.35,425.11,427.87,430.63,433.39,436.15,438.91,441.67,444.43,447.19,449.95,452.71" svgx:width="0.25,0.25,0.25,0.25,0.25,0.25,0.25,0.25,0.25,0.25,0.25,0.25,0.25,0.25,0.25,0.25,0.25,0.25,0.25,0.25,0.25,0.25,0.25,0.25,0.25,0.25,0.25,0.25,0.25,0.25,0.25,0.25" style="fill:rgb(0,0,0);font-family:TimesNewRomanPSMT;font-size:11.04px;stroke:none;">................................</text>
  </g>
  <g begin="text">
   <text y="142.34" x="455.5,458.26,461.02,463.78,466.54,469.3,472.06,474.82,477.58,480.34,483.1,485.86,488.62,491.38,494.14,496.9,499.66" svgx:width="0.25,0.25,0.25,0.25,0.25,0.25,0.25,0.25,0.25,0.25,0.25,0.25,0.25,0.25,0.25,0.25,0.25" style="fill:rgb(0,0,0);font-family:TimesNewRomanPSMT;font-size:11.04px;stroke:none;">.................</text>
  </g>
  <g begin="text">
   <text y="142.34" x="502.42" svgx:width="0.25" style="fill:rgb(0,0,0);font-family:TimesNewRomanPSMT;font-size:11.04px;stroke:none;"> </text>
  </g>
  <g begin="text">
   <text y="142.34" x="502.78" svgx:width="0.5" style="fill:rgb(0,0,0);font-family:TimesNewRomanPSMT;font-size:11.04px;stroke:none;">1</text>
  </g>
  <g begin="text">
   <text y="142.34" x="508.3" svgx:width="0.33" style="fill:rgb(0,0,0);font-family:TimesNewRomanPSMT;font-size:11.04px;stroke:none;">-</text>
  </g>
  <g begin="text">
   <text y="142.34" x="511.9,517.42" svgx:width="0.5,0.5" style="fill:rgb(0,0,0);font-family:TimesNewRomanPSMT;font-size:11.04px;stroke:none;">62</text>
  </g>
  <g begin="text">
   <text y="142.34" x="522.94" svgx:width="0.23" style="fill:rgb(0,0,0);font-family:Calibri;font-size:11.04px;stroke:none;"> </text>
  </g>
  <g begin="text">
   <text y="142.34" x="48.48" svgx:width="0.5" style="fill:rgb(0,0,0);font-family:TimesNewRomanPSMT;font-size:11.04px;stroke:none;">4</text>
  </g>
  <g begin="text">
   <text y="142.34" x="54.0" svgx:width="0.25" style="fill:rgb(0,0,0);font-family:TimesNewRomanPSMT;font-size:11.04px;stroke:none;"> </text>
  </g>
  <g begin="text">
   <text y="161.18" x="83.064,88.584,91.344,96.864" svgx:width="0.5,0.25,0.5,0.5" style="fill:rgb(0,0,0);font-family:TimesNewRomanPSMT;font-size:11.04px;stroke:none;">1.12</text>
  </g>
  <g begin="text">
   <text y="161.18" x="102.26" svgx:width="0.23" style="fill:rgb(0,0,0);font-family:Calibri;font-size:11.04px;stroke:none;"> </text>
  </g>
  <g begin="text">
   <text y="161.18" x="116.06,123.379,128.899,133.801,139.321,147.966,152.768,158.288,161.048,164.161,169.56,172.32,175.433,180.832,185.733,188.493,195.857,200.759,206.279,211.666,215.376" svgx:width="0.67,0.5,0.44,0.5,0.78,0.44,0.5,0.25,0.28,0.5,0.25,0.28,0.5,0.44,0.25,0.67,0.44,0.5,0.5,0.33,0.28" style="fill:rgb(0,0,0);font-family:TimesNewRomanPSMT;font-size:11.04px;stroke:none;">Roadmap to the Report</text>
  </g>
  <g begin="text">
   <text y="161.18" x="218.45" svgx:width="0.25" style="fill:rgb(0,0,0);font-family:TimesNewRomanPSMT;font-size:11.04px;stroke:none;"> </text>
  </g>
  <g begin="text">
   <text y="161.18" x="220.85,223.61,226.37,229.13,231.89,234.65,237.41,240.17,242.93,245.69,248.45,251.21,253.97,256.73,259.49,262.25,265.01,267.77,270.53,273.29,276.05,278.81,281.57,284.33,287.09,289.85,292.61,295.37,298.13,300.89,303.65,306.41" svgx:width="0.25,0.25,0.25,0.25,0.25,0.25,0.25,0.25,0.25,0.25,0.25,0.25,0.25,0.25,0.25,0.25,0.25,0.25,0.25,0.25,0.25,0.25,0.25,0.25,0.25,0.25,0.25,0.25,0.25,0.25,0.25,0.25" style="fill:rgb(0,0,0);font-family:TimesNewRomanPSMT;font-size:11.04px;stroke:none;">................................</text>
  </g>
  <g begin="text">
   <text y="161.18" x="309.17,311.93,314.69,317.45,320.21,322.97,325.73,328.49,331.25,334.01,336.77,339.53,342.29,345.05,347.81,350.57,353.33,356.09,358.85,361.61,364.37,367.13,369.89,372.65,375.41,378.17,380.93,383.69,386.45,389.21,391.97,394.73" svgx:width="0.25,0.25,0.25,0.25,0.25,0.25,0.25,0.25,0.25,0.25,0.25,0.25,0.25,0.25,0.25,0.25,0.25,0.25,0.25,0.25,0.25,0.25,0.25,0.25,0.25,0.25,0.25,0.25,0.25,0.25,0.25,0.25" style="fill:rgb(0,0,0);font-family:TimesNewRomanPSMT;font-size:11.04px;stroke:none;">................................</text>
  </g>
  <g begin="text">
   <text y="161.18" x="397.51,400.27,403.03,405.79,408.55,411.31,414.07,416.83,419.59,422.35,425.11,427.87,430.63,433.39,436.15,438.91,441.67,444.43,447.19,449.95,452.71,455.47,458.23,460.99,463.75,466.51,469.27,472.03,474.79,477.55,480.31,483.07" svgx:width="0.25,0.25,0.25,0.25,0.25,0.25,0.25,0.25,0.25,0.25,0.25,0.25,0.25,0.25,0.25,0.25,0.25,0.25,0.25,0.25,0.25,0.25,0.25,0.25,0.25,0.25,0.25,0.25,0.25,0.25,0.25,0.25" style="fill:rgb(0,0,0);font-family:TimesNewRomanPSMT;font-size:11.04px;stroke:none;">................................</text>
  </g>
  <g begin="text">
   <text y="161.18" x="485.86,488.62,491.38,494.14,496.9,499.66" svgx:width="0.25,0.25,0.25,0.25,0.25,0.25" style="fill:rgb(0,0,0);font-family:TimesNewRomanPSMT;font-size:11.04px;stroke:none;">......</text>
  </g>
  <g begin="text">
   <text y="161.18" x="502.42" svgx:width="0.25" style="fill:rgb(0,0,0);font-family:TimesNewRomanPSMT;font-size:11.04px;stroke:none;"> </text>
  </g>
  <g begin="text">
   <text y="161.18" x="502.78" svgx:width="0.5" style="fill:rgb(0,0,0);font-family:TimesNewRomanPSMT;font-size:11.04px;stroke:none;">1</text>
  </g>
  <g begin="text">
   <text y="161.18" x="508.3" svgx:width="0.33" style="fill:rgb(0,0,0);font-family:TimesNewRomanPSMT;font-size:11.04px;stroke:none;">-</text>
  </g>
  <g begin="text">
   <text y="161.18" x="511.9,517.42" svgx:width="0.5,0.5" style="fill:rgb(0,0,0);font-family:TimesNewRomanPSMT;font-size:11.04px;stroke:none;">63</text>
  </g>
  <g begin="text">
   <text y="161.18" x="522.94" svgx:width="0.23" style="fill:rgb(0,0,0);font-family:Calibri;font-size:11.04px;stroke:none;"> </text>
  </g>
  <g begin="text">
   <text y="161.18" x="48.48" svgx:width="0.5" style="fill:rgb(0,0,0);font-family:TimesNewRomanPSMT;font-size:11.04px;stroke:none;">5</text>
  </g>
  <g begin="text">
   <text y="161.18" x="54.0" svgx:width="0.25" style="fill:rgb(0,0,0);font-family:TimesNewRomanPSMT;font-size:11.04px;stroke:none;"> </text>
  </g>
  <g begin="text">
   <text y="180.14" x="83.064,89.202,92.879,97.813,103.333,108.853,113.656,119.176,122.179,125.292,130.812" svgx:width="0.56,0.33,0.44,0.5,0.5,0.44,0.5,0.28,0.28,0.5,0.25" style="fill:rgb(0,0,0);font-family:TimesNewRomanPSMT;font-size:11.04px;stroke:none;">Frequently </text>
  </g>
  <g begin="text">
   <text y="180.14" x="133.58" svgx:width="0.72" style="fill:rgb(0,0,0);font-family:TimesNewRomanPSMT;font-size:11.04px;stroke:none;">A</text>
  </g>
  <g begin="text">
   <text y="180.14" x="141.5,145.795,151.315,156.139,161.659" svgx:width="0.39,0.5,0.44,0.5,0.25" style="fill:rgb(0,0,0);font-family:TimesNewRomanPSMT;font-size:11.04px;stroke:none;">sked </text>
  </g>
  <g begin="text">
   <text y="180.14" x="164.42" svgx:width="0.72" style="fill:rgb(0,0,0);font-family:TimesNewRomanPSMT;font-size:11.04px;stroke:none;">Q</text>
  </g>
  <g begin="text">
   <text y="180.14" x="172.34,177.86,182.762,186.979,190.092,193.095,198.615,204.014" svgx:width="0.5,0.44,0.39,0.28,0.28,0.5,0.5,0.39" style="fill:rgb(0,0,0);font-family:TimesNewRomanPSMT;font-size:11.04px;stroke:none;">uestions</text>
  </g>
  <g begin="text">
   <text y="180.14" x="208.37" svgx:width="0.25" style="fill:rgb(0,0,0);font-family:TimesNewRomanPSMT;font-size:11.04px;stroke:none;"> </text>
  </g>
  <g begin="text">
   <text y="180.14" x="211.13,214.839,220.978,228.882,236.798,241.093" svgx:width="0.33,0.56,0.72,0.72,0.39,0.33" style="fill:rgb(0,0,0);font-family:TimesNewRomanPSMT;font-size:11.04px;stroke:none;">(FAQs)</text>
  </g>
  <g begin="text">
   <text y="180.14" x="244.73" svgx:width="0.25" style="fill:rgb(0,0,0);font-family:TimesNewRomanPSMT;font-size:11.04px;stroke:none;"> </text>
  </g>
  <g begin="text">
   <text y="180.14" x="245.69,248.45,251.21,253.97,256.73,259.49,262.25,265.01,267.77,270.53,273.29,276.05,278.81,281.57,284.33,287.09,289.85,292.61,295.37,298.13,300.89,303.65,306.41,309.17,311.93,314.69,317.45,320.21,322.97,325.73,328.49,331.25" svgx:width="0.25,0.25,0.25,0.25,0.25,0.25,0.25,0.25,0.25,0.25,0.25,0.25,0.25,0.25,0.25,0.25,0.25,0.25,0.25,0.25,0.25,0.25,0.25,0.25,0.25,0.25,0.25,0.25,0.25,0.25,0.25,0.25" style="fill:rgb(0,0,0);font-family:TimesNewRomanPSMT;font-size:11.04px;stroke:none;">................................</text>
  </g>
  <g begin="text">
   <text y="180.14" x="334.03,336.79,339.55,342.31,345.07,347.83,350.59,353.35,356.11,358.87,361.63,364.39,367.15,369.91,372.67,375.43,378.19,380.95,383.71,386.47,389.23,391.99,394.75,397.51,400.27,403.03,405.79,408.55,411.31,414.07,416.83,419.59" svgx:width="0.25,0.25,0.25,0.25,0.25,0.25,0.25,0.25,0.25,0.25,0.25,0.25,0.25,0.25,0.25,0.25,0.25,0.25,0.25,0.25,0.25,0.25,0.25,0.25,0.25,0.25,0.25,0.25,0.25,0.25,0.25,0.25" style="fill:rgb(0,0,0);font-family:TimesNewRomanPSMT;font-size:11.04px;stroke:none;">................................</text>
  </g>
  <g begin="text">
   <text y="180.14" x="422.35,425.11,427.87,430.63,433.39,436.15,438.91,441.67,444.43,447.19,449.95,452.71,455.47,458.23,460.99,463.75,466.51,469.27,472.03,474.79,477.55,480.31,483.07,485.83,488.59,491.35,494.11,496.87,499.63" svgx:width="0.25,0.25,0.25,0.25,0.25,0.25,0.25,0.25,0.25,0.25,0.25,0.25,0.25,0.25,0.25,0.25,0.25,0.25,0.25,0.25,0.25,0.25,0.25,0.25,0.25,0.25,0.25,0.25,0.25" style="fill:rgb(0,0,0);font-family:TimesNewRomanPSMT;font-size:11.04px;stroke:none;">.............................</text>
  </g>
  <g begin="text">
   <text y="180.14" x="502.42" svgx:width="0.25" style="fill:rgb(0,0,0);font-family:TimesNewRomanPSMT;font-size:11.04px;stroke:none;"> </text>
  </g>
  <g begin="text">
   <text y="180.14" x="502.78" svgx:width="0.5" style="fill:rgb(0,0,0);font-family:TimesNewRomanPSMT;font-size:11.04px;stroke:none;">1</text>
  </g>
  <g begin="text">
   <text y="180.14" x="508.3" svgx:width="0.33" style="fill:rgb(0,0,0);font-family:TimesNewRomanPSMT;font-size:11.04px;stroke:none;">-</text>
  </g>
  <g begin="text">
   <text y="180.14" x="511.9,517.42" svgx:width="0.5,0.5" style="fill:rgb(0,0,0);font-family:TimesNewRomanPSMT;font-size:11.04px;stroke:none;">64</text>
  </g>
  <g begin="text">
   <text y="180.14" x="522.94" svgx:width="0.23" style="fill:rgb(0,0,0);font-family:Calibri;font-size:11.04px;stroke:none;"> </text>
  </g>
  <g begin="text">
   <text y="180.14" x="48.48" svgx:width="0.5" style="fill:rgb(0,0,0);font-family:TimesNewRomanPSMT;font-size:11.04px;stroke:none;">6</text>
  </g>
  <g begin="text">
   <text y="180.14" x="54.0" svgx:width="0.25" style="fill:rgb(0,0,0);font-family:TimesNewRomanPSMT;font-size:11.04px;stroke:none;"> </text>
  </g>
  <g begin="text">
   <text y="199.1" x="83.064,90.383,95.285,99.017,103.919,107.54,112.441,117.961,122.775,127.677" svgx:width="0.67,0.44,0.33,0.44,0.33,0.44,0.5,0.44,0.44,0.39" style="fill:rgb(0,0,0);font-family:TimesNewRomanPSMT;font-size:11.04px;stroke:none;">References</text>
  </g>
  <g begin="text">
   <text y="199.1" x="131.9" svgx:width="0.25" style="fill:rgb(0,0,0);font-family:TimesNewRomanPSMT;font-size:11.04px;stroke:none;"> </text>
  </g>
  <g begin="text">
   <text y="199.1" x="132.5,135.26,138.02,140.78,143.54,146.3,149.06,151.82,154.58,157.34,160.1,162.86,165.62,168.38,171.14,173.9,176.66,179.42,182.18,184.94,187.7,190.46,193.22,195.98,198.74,201.5,204.26,207.02,209.78,212.54,215.3,218.06" svgx:width="0.25,0.25,0.25,0.25,0.25,0.25,0.25,0.25,0.25,0.25,0.25,0.25,0.25,0.25,0.25,0.25,0.25,0.25,0.25,0.25,0.25,0.25,0.25,0.25,0.25,0.25,0.25,0.25,0.25,0.25,0.25,0.25" style="fill:rgb(0,0,0);font-family:TimesNewRomanPSMT;font-size:11.04px;stroke:none;">................................</text>
  </g>
  <g begin="text">
   <text y="199.1" x="220.85,223.61,226.37,229.13,231.89,234.65,237.41,240.17,242.93,245.69,248.45,251.21,253.97,256.73,259.49,262.25,265.01,267.77,270.53,273.29,276.05,278.81,281.57,284.33,287.09,289.85,292.61,295.37,298.13,300.89,303.65,306.41" svgx:width="0.25,0.25,0.25,0.25,0.25,0.25,0.25,0.25,0.25,0.25,0.25,0.25,0.25,0.25,0.25,0.25,0.25,0.25,0.25,0.25,0.25,0.25,0.25,0.25,0.25,0.25,0.25,0.25,0.25,0.25,0.25,0.25" style="fill:rgb(0,0,0);font-family:TimesNewRomanPSMT;font-size:11.04px;stroke:none;">................................</text>
  </g>
  <g begin="text">
   <text y="199.1" x="309.17,311.93,314.69,317.45,320.21,322.97,325.73,328.49,331.25,334.01,336.77,339.53,342.29,345.05,347.81,350.57,353.33,356.09,358.85,361.61,364.37,367.13,369.89,372.65,375.41,378.17,380.93,383.69,386.45,389.21,391.97,394.73" svgx:width="0.25,0.25,0.25,0.25,0.25,0.25,0.25,0.25,0.25,0.25,0.25,0.25,0.25,0.25,0.25,0.25,0.25,0.25,0.25,0.25,0.25,0.25,0.25,0.25,0.25,0.25,0.25,0.25,0.25,0.25,0.25,0.25" style="fill:rgb(0,0,0);font-family:TimesNewRomanPSMT;font-size:11.04px;stroke:none;">................................</text>
  </g>
  <g begin="text">
   <text y="199.1" x="397.51,400.27,403.03,405.79,408.55,411.31,414.07,416.83,419.59,422.35,425.11,427.87,430.63,433.39,436.15,438.91,441.67,444.43,447.19,449.95,452.71,455.47,458.23,460.99,463.75,466.51,469.27,472.03,474.79,477.55,480.31,483.07" svgx:width="0.25,0.25,0.25,0.25,0.25,0.25,0.25,0.25,0.25,0.25,0.25,0.25,0.25,0.25,0.25,0.25,0.25,0.25,0.25,0.25,0.25,0.25,0.25,0.25,0.25,0.25,0.25,0.25,0.25,0.25,0.25,0.25" style="fill:rgb(0,0,0);font-family:TimesNewRomanPSMT;font-size:11.04px;stroke:none;">................................</text>
  </g>
  <g begin="text">
   <text y="199.1" x="485.86,488.62,491.38,494.14,496.9,499.66" svgx:width="0.25,0.25,0.25,0.25,0.25,0.25" style="fill:rgb(0,0,0);font-family:TimesNewRomanPSMT;font-size:11.04px;stroke:none;">......</text>
  </g>
  <g begin="text">
   <text y="199.1" x="502.42" svgx:width="0.25" style="fill:rgb(0,0,0);font-family:TimesNewRomanPSMT;font-size:11.04px;stroke:none;"> </text>
  </g>
  <g begin="text">
   <text y="199.1" x="502.78" svgx:width="0.5" style="fill:rgb(0,0,0);font-family:TimesNewRomanPSMT;font-size:11.04px;stroke:none;">1</text>
  </g>
  <g begin="text">
   <text y="199.1" x="508.3" svgx:width="0.33" style="fill:rgb(0,0,0);font-family:TimesNewRomanPSMT;font-size:11.04px;stroke:none;">-</text>
  </g>
  <g begin="text">
   <text y="199.1" x="511.9,517.42" svgx:width="0.5,0.5" style="fill:rgb(0,0,0);font-family:TimesNewRomanPSMT;font-size:11.04px;stroke:none;">66</text>
  </g>
  <g begin="text">
   <text y="199.1" x="522.94" svgx:width="0.23" style="fill:rgb(0,0,0);font-family:Calibri;font-size:11.04px;stroke:none;"> </text>
  </g>
  <g begin="text">
   <text y="199.1" x="48.48" svgx:width="0.5" style="fill:rgb(0,0,0);font-family:TimesNewRomanPSMT;font-size:11.04px;stroke:none;">7</text>
  </g>
  <g begin="text">
   <text y="199.1" x="54.0" svgx:width="0.25" style="fill:rgb(0,0,0);font-family:TimesNewRomanPSMT;font-size:11.04px;stroke:none;"> </text>
  </g>
  <g begin="text">
   <text y="217.94" x="72.024" svgx:width="0.25" style="fill:rgb(0,0,0);font-family:TimesNewRomanPS-BoldMT;font-size:11.04px;stroke:none;"> </text>
  </g>
  <g begin="text">
   <text y="217.94" x="48.48" svgx:width="0.5" style="fill:rgb(0,0,0);font-family:TimesNewRomanPSMT;font-size:11.04px;stroke:none;">8</text>
  </g>
  <g begin="text">
   <text y="217.94" x="54.0" svgx:width="0.25" style="fill:rgb(0,0,0);font-family:TimesNewRomanPSMT;font-size:11.04px;stroke:none;"> </text>
  </g>
  <g begin="text">
   <text y="242.54" x="72.024" svgx:width="0.25" style="fill:rgb(0,0,0);font-family:TimesNewRomanPS-BoldMT;font-size:15.96px;stroke:none;"> </text>
  </g>
  <g begin="text">
   <text y="242.54" x="48.48" svgx:width="0.5" style="fill:rgb(0,0,0);font-family:TimesNewRomanPSMT;font-size:11.04px;stroke:none;">9</text>
  </g>
  <g begin="text">
   <text y="242.54" x="54.0" svgx:width="0.25" style="fill:rgb(0,0,0);font-family:TimesNewRomanPSMT;font-size:11.04px;stroke:none;"> </text>
  </g>
  <g begin="text">
   <text y="262.85" x="72.024" svgx:width="0.25" style="fill:rgb(0,0,0);font-family:TimesNewRomanPS-BoldMT;font-size:15.96px;stroke:none;"> </text>
  </g>
  <g begin="text">
   <text y="262.85" x="42.96,48.48" svgx:width="0.5,0.5" style="fill:rgb(0,0,0);font-family:TimesNewRomanPSMT;font-size:11.04px;stroke:none;">10</text>
  </g>
  <g begin="text">
   <text y="262.85" x="54.0" svgx:width="0.25" style="fill:rgb(0,0,0);font-family:TimesNewRomanPSMT;font-size:11.04px;stroke:none;"> </text>
  </g>
  <g begin="text">
   <text y="288.89" x="72.024" svgx:width="0.25" style="fill:rgb(0,0,0);font-family:TimesNewRomanPS-BoldMT;font-size:15.96px;stroke:none;"> </text>
  </g>
  <g begin="text">
   <text y="288.89" x="216.05" svgx:width="0.25" style="fill:rgb(0,0,0);font-family:TimesNewRomanPS-BoldMT;font-size:15.96px;stroke:none;"> </text>
  </g>
  <g begin="text">
   <text y="288.89" x="42.96,48.48" svgx:width="0.5,0.5" style="fill:rgb(0,0,0);font-family:TimesNewRomanPSMT;font-size:11.04px;stroke:none;">11</text>
  </g>
  <g begin="text">
   <text y="288.89" x="54.0" svgx:width="0.25" style="fill:rgb(0,0,0);font-family:TimesNewRomanPSMT;font-size:11.04px;stroke:none;"> </text>
  </g>
  <g begin="text">
   <text y="602.109" transform="matrix(0.70711,-0.70711,0.70711,0.70711,-395.12956,250.29085)" rotateDegrees="-45" matrix="[29.803345,29.803345,-29.803345,29.803345,104.563255,239.8115]" x="104.563" svgx:width="0.67" style="fill:rgb(0,0,0);font-family:Arial;font-size:42.15px;stroke:none;">A</text>
   <text y="582.23" transform="matrix(0.70711,-0.70711,0.70711,0.70711,-375.25056,258.525)" rotateDegrees="-45" matrix="[29.803345,29.803345,-29.803345,29.803345,124.442085,259.6903]" x="124.442" svgx:width="0.72" style="fill:rgb(0,0,0);font-family:Arial;font-size:42.15px;stroke:none;">C</text>
   <text y="560.712" transform="matrix(0.70711,-0.70711,0.70711,0.70711,-353.73256,267.43805)" rotateDegrees="-45" matrix="[29.803345,29.803345,-29.803345,29.803345,145.9601,281.20834]" x="145.96" svgx:width="0.72" style="fill:rgb(0,0,0);font-family:Arial;font-size:42.15px;stroke:none;">C</text>
   <text y="539.194" transform="matrix(0.70711,-0.70711,0.70711,0.70711,-332.21456,276.3511)" rotateDegrees="-45" matrix="[29.803345,29.803345,-29.803345,29.803345,167.47812,302.72635]" x="167.478" svgx:width="0.67" style="fill:rgb(0,0,0);font-family:Arial;font-size:42.15px;stroke:none;">E</text>
   <text y="519.315" transform="matrix(0.70711,-0.70711,0.70711,0.70711,-312.33556,284.58525)" rotateDegrees="-45" matrix="[29.803345,29.803345,-29.803345,29.803345,187.35693,322.60516]" x="187.357" svgx:width="0.67" style="fill:rgb(0,0,0);font-family:Arial;font-size:42.15px;stroke:none;">P</text>
   <text y="499.436" transform="matrix(0.70711,-0.70711,0.70711,0.70711,-292.45656,292.8194)" rotateDegrees="-45" matrix="[29.803345,29.803345,-29.803345,29.803345,207.23578,342.484]" x="207.236" svgx:width="0.61" style="fill:rgb(0,0,0);font-family:Arial;font-size:42.15px;stroke:none;">T</text>
   <text y="481.226" transform="matrix(0.70711,-0.70711,0.70711,0.70711,-274.24656,300.36223)" rotateDegrees="-45" matrix="[29.803345,29.803345,-29.803345,29.803345,225.44562,360.69385]" x="225.446" svgx:width="0.67" style="fill:rgb(0,0,0);font-family:Arial;font-size:42.15px;stroke:none;">E</text>
   <text y="461.347" transform="matrix(0.70711,-0.70711,0.70711,0.70711,-254.36786,308.59567)" rotateDegrees="-45" matrix="[29.803345,29.803345,-29.803345,29.803345,245.32443,380.57266]" x="245.324" svgx:width="0.72" style="fill:rgb(0,0,0);font-family:Arial;font-size:42.15px;stroke:none;">D</text>
   <text y="439.829" transform="matrix(0.70711,-0.70711,0.70711,0.70711,-232.84986,317.50872)" rotateDegrees="-45" matrix="[29.803345,29.803345,-29.803345,29.803345,266.84247,402.0907]" x="266.842" svgx:width="0.28" style="fill:rgb(0,0,0);font-family:Arial;font-size:42.15px;stroke:none;"> </text>
   <text y="431.54" transform="matrix(0.70711,-0.70711,0.70711,0.70711,-224.56056,320.94284)" rotateDegrees="-45" matrix="[29.803345,29.803345,-29.803345,29.803345,275.13153,410.37976]" x="275.132" svgx:width="0.67" style="fill:rgb(0,0,0);font-family:Arial;font-size:42.15px;stroke:none;">V</text>
   <text y="411.661" transform="matrix(0.70711,-0.70711,0.70711,0.70711,-204.68186,329.17629)" rotateDegrees="-45" matrix="[29.803345,29.803345,-29.803345,29.803345,295.0103,430.25858]" x="295.01" svgx:width="0.67" style="fill:rgb(0,0,0);font-family:Arial;font-size:42.15px;stroke:none;">E</text>
   <text y="391.783" transform="matrix(0.70711,-0.70711,0.70711,0.70711,-184.80356,337.41073)" rotateDegrees="-45" matrix="[29.803345,29.803345,-29.803345,29.803345,314.88916,450.1374]" x="314.889" svgx:width="0.72" style="fill:rgb(0,0,0);font-family:Arial;font-size:42.15px;stroke:none;">R</text>
   <text y="370.265" transform="matrix(0.70711,-0.70711,0.70711,0.70711,-163.28556,346.32378)" rotateDegrees="-45" matrix="[29.803345,29.803345,-29.803345,29.803345,336.40717,471.65543]" x="336.407" svgx:width="0.67" style="fill:rgb(0,0,0);font-family:Arial;font-size:42.15px;stroke:none;">S</text>
   <text y="350.386" transform="matrix(0.70711,-0.70711,0.70711,0.70711,-143.40656,354.55793)" rotateDegrees="-45" matrix="[29.803345,29.803345,-29.803345,29.803345,356.286,491.53424]" x="356.286" svgx:width="0.28" style="fill:rgb(0,0,0);font-family:Arial;font-size:42.15px;stroke:none;">I</text>
   <text y="342.1" transform="matrix(0.70711,-0.70711,0.70711,0.70711,-135.12086,357.9894)" rotateDegrees="-45" matrix="[29.803345,29.803345,-29.803345,29.803345,364.57135,499.81958]" x="364.571" svgx:width="0.78" style="fill:rgb(0,0,0);font-family:Arial;font-size:42.15px;stroke:none;">O</text>
   <text y="318.913" transform="matrix(0.70711,-0.70711,0.70711,0.70711,-111.93386,367.59377)" rotateDegrees="-45" matrix="[29.803345,29.803345,-29.803345,29.803345,387.7583,523.0066]" x="387.758" svgx:width="0.72" style="fill:rgb(0,0,0);font-family:Arial;font-size:42.15px;stroke:none;">N</text>
   <text y="297.395" transform="matrix(0.70711,-0.70711,0.70711,0.70711,-90.41586,376.50681)" rotateDegrees="-45" matrix="[29.803345,29.803345,-29.803345,29.803345,409.27637,544.5246]" x="409.276" svgx:width="0.28" style="fill:rgb(0,0,0);font-family:Arial;font-size:42.15px;stroke:none;"> </text>
   <text y="637.872" transform="matrix(0.70711,-0.70711,0.70711,0.70711,-409.94279,286.05456)" rotateDegrees="-45" matrix="[29.803345,29.803345,-29.803345,29.803345,140.32727,204.04747]" x="140.327" svgx:width="0.67" style="fill:rgb(0,0,0);font-family:Arial;font-size:42.15px;stroke:none;">S</text>
   <text y="617.994" transform="matrix(0.70711,-0.70711,0.70711,0.70711,-390.0645,294.289)" rotateDegrees="-45" matrix="[29.803345,29.803345,-29.803345,29.803345,160.2061,223.9263]" x="160.206" svgx:width="0.72" style="fill:rgb(0,0,0);font-family:Arial;font-size:42.15px;stroke:none;">U</text>
   <text y="596.476" transform="matrix(0.70711,-0.70711,0.70711,0.70711,-368.5465,303.20205)" rotateDegrees="-45" matrix="[29.803345,29.803345,-29.803345,29.803345,181.72412,245.4443]" x="181.724" svgx:width="0.67" style="fill:rgb(0,0,0);font-family:Arial;font-size:42.15px;stroke:none;">B</text>
   <text y="576.597" transform="matrix(0.70711,-0.70711,0.70711,0.70711,-348.6675,311.4362)" rotateDegrees="-45" matrix="[29.803345,29.803345,-29.803345,29.803345,201.60294,265.32315]" x="201.603" svgx:width="0.5" style="fill:rgb(0,0,0);font-family:Arial;font-size:42.15px;stroke:none;">J</text>
   <text y="561.695" transform="matrix(0.70711,-0.70711,0.70711,0.70711,-333.7655,317.60881)" rotateDegrees="-45" matrix="[29.803345,29.803345,-29.803345,29.803345,216.50462,280.22482]" x="216.505" svgx:width="0.67" style="fill:rgb(0,0,0);font-family:Arial;font-size:42.15px;stroke:none;">E</text>
   <text y="541.816" transform="matrix(0.70711,-0.70711,0.70711,0.70711,-313.88679,325.84225)" rotateDegrees="-45" matrix="[29.803345,29.803345,-29.803345,29.803345,236.38344,300.10364]" x="236.383" svgx:width="0.72" style="fill:rgb(0,0,0);font-family:Arial;font-size:42.15px;stroke:none;">C</text>
   <text y="520.298" transform="matrix(0.70711,-0.70711,0.70711,0.70711,-292.36879,334.7553)" rotateDegrees="-45" matrix="[29.803345,29.803345,-29.803345,29.803345,257.90146,321.62164]" x="257.901" svgx:width="0.61" style="fill:rgb(0,0,0);font-family:Arial;font-size:42.15px;stroke:none;">T</text>
   <text y="502.089" transform="matrix(0.70711,-0.70711,0.70711,0.70711,-274.1595,342.29842)" rotateDegrees="-45" matrix="[29.803345,29.803345,-29.803345,29.803345,276.1113,339.83148]" x="276.111" svgx:width="0.28" style="fill:rgb(0,0,0);font-family:Arial;font-size:42.15px;stroke:none;"> </text>
   <text y="493.803" transform="matrix(0.70711,-0.70711,0.70711,0.70711,-265.8735,345.7306)" rotateDegrees="-45" matrix="[29.803345,29.803345,-29.803345,29.803345,284.39664,348.11682]" x="284.397" svgx:width="0.61" style="fill:rgb(0,0,0);font-family:Arial;font-size:42.15px;stroke:none;">T</text>
   <text y="475.593" transform="matrix(0.70711,-0.70711,0.70711,0.70711,-247.66379,353.27272)" rotateDegrees="-45" matrix="[29.803345,29.803345,-29.803345,29.803345,302.60648,366.32666]" x="302.606" svgx:width="0.78" style="fill:rgb(0,0,0);font-family:Arial;font-size:42.15px;stroke:none;">O</text>
   <text y="452.406" transform="matrix(0.70711,-0.70711,0.70711,0.70711,-224.47679,362.87709)" rotateDegrees="-45" matrix="[29.803345,29.803345,-29.803345,29.803345,325.79346,389.51367]" x="325.793" svgx:width="0.28" style="fill:rgb(0,0,0);font-family:Arial;font-size:42.15px;stroke:none;"> </text>
   <text y="444.136" transform="matrix(0.70711,-0.70711,0.70711,0.70711,-216.2065,366.30334)" rotateDegrees="-45" matrix="[29.803345,29.803345,-29.803345,29.803345,334.0639,397.78412]" x="334.064" svgx:width="0.61" style="fill:rgb(0,0,0);font-family:Arial;font-size:42.15px;stroke:none;">F</text>
   <text y="425.926" transform="matrix(0.70711,-0.70711,0.70711,0.70711,-197.9965,373.84617)" rotateDegrees="-45" matrix="[29.803345,29.803345,-29.803345,29.803345,352.27374,415.99396]" x="352.274" svgx:width="0.28" style="fill:rgb(0,0,0);font-family:Arial;font-size:42.15px;stroke:none;">I</text>
   <text y="417.641" transform="matrix(0.70711,-0.70711,0.70711,0.70711,-189.7115,377.27793)" rotateDegrees="-45" matrix="[29.803345,29.803345,-29.803345,29.803345,360.55908,424.2793]" x="360.559" svgx:width="0.72" style="fill:rgb(0,0,0);font-family:Arial;font-size:42.15px;stroke:none;">N</text>
   <text y="396.123" transform="matrix(0.70711,-0.70711,0.70711,0.70711,-168.1935,386.19098)" rotateDegrees="-45" matrix="[29.803345,29.803345,-29.803345,29.803345,382.0771,445.7973]" x="382.077" svgx:width="0.67" style="fill:rgb(0,0,0);font-family:Arial;font-size:42.15px;stroke:none;">A</text>
   <text y="376.244" transform="matrix(0.70711,-0.70711,0.70711,0.70711,-148.3145,394.42513)" rotateDegrees="-45" matrix="[29.803345,29.803345,-29.803345,29.803345,401.95593,465.67615]" x="401.956" svgx:width="0.56" style="fill:rgb(0,0,0);font-family:Arial;font-size:42.15px;stroke:none;">L</text>
   <text y="359.673" transform="matrix(0.70711,-0.70711,0.70711,0.70711,-131.7435,401.28906)" rotateDegrees="-45" matrix="[29.803345,29.803345,-29.803345,29.803345,418.5266,482.24677]" x="418.527" svgx:width="0.28" style="fill:rgb(0,0,0);font-family:Arial;font-size:42.15px;stroke:none;"> </text>
   <text y="351.394" transform="matrix(0.70711,-0.70711,0.70711,0.70711,-123.4645,404.71834)" rotateDegrees="-45" matrix="[29.803345,29.803345,-29.803345,29.803345,426.80573,490.52588]" x="426.806" svgx:width="0.67" style="fill:rgb(0,0,0);font-family:Arial;font-size:42.15px;stroke:none;">E</text>
   <text y="331.515" transform="matrix(0.70711,-0.70711,0.70711,0.70711,-103.5855,412.95249)" rotateDegrees="-45" matrix="[29.803345,29.803345,-29.803345,29.803345,446.68457,510.40472]" x="446.685" svgx:width="0.72" style="fill:rgb(0,0,0);font-family:Arial;font-size:42.15px;stroke:none;">D</text>
   <text y="309.997" transform="matrix(0.70711,-0.70711,0.70711,0.70711,-82.0675,421.86554)" rotateDegrees="-45" matrix="[29.803345,29.803345,-29.803345,29.803345,468.2025,531.9227]" x="468.203" svgx:width="0.28" style="fill:rgb(0,0,0);font-family:Arial;font-size:42.15px;stroke:none;">I</text>
   <text y="301.712" transform="matrix(0.70711,-0.70711,0.70711,0.70711,-73.7825,425.29729)" rotateDegrees="-45" matrix="[29.803345,29.803345,-29.803345,29.803345,476.48785,540.20807]" x="476.488" svgx:width="0.61" style="fill:rgb(0,0,0);font-family:Arial;font-size:42.15px;stroke:none;">T</text>
   <text y="283.502" transform="matrix(0.70711,-0.70711,0.70711,0.70711,-55.5725,432.84012)" rotateDegrees="-45" matrix="[29.803345,29.803345,-29.803345,29.803345,494.6977,558.4179]" x="494.698" svgx:width="0.67" style="fill:rgb(0,0,0);font-family:Arial;font-size:42.15px;stroke:none;">S</text>
  </g>
 </g>
</svg>
