<?xml version="1.0" encoding="UTF-8"?>
<svg height="807.04" width="2582.0" xmlns="http://www.w3.org/2000/svg">
 <g id="page" xmlns:svgx="http://www.xml-cml.org/schema/svgx">
  <g begin="text">
   <text y="45.72" x="72.024,78.162,81.231,86.751,91.587,94.7,97.46,105.376,110.896,116.416,121.218,124.928,130.448,138.971,143.872,149.392,152.517,155.277,163.082,166.195,170.39,173.504,177.103,180.216,185.736,191.135,194.137,197.251,202.771" svgx:width="0.56,0.28,0.5,0.44,0.28,0.25,0.72,0.5,0.5,0.44,0.33,0.5,0.78,0.44,0.5,0.28,0.25,0.72,0.28,0.39,0.28,0.33,0.28,0.5,0.5,0.28,0.28,0.5,0.5" style="fill:rgb(0,0,0);font-family:TimesNewRomanPSMT;font-size:11.04px;stroke:none;">Final Government Distribution</text>
  </g>
  <g begin="text">
   <text y="45.72" x="208.37" svgx:width="0.25" style="fill:rgb(0,0,0);font-family:TimesNewRomanPSMT;font-size:11.04px;stroke:none;"> </text>
  </g>
  <g begin="text">
   <text y="45.72" x="211.01" svgx:width="0.25" style="fill:rgb(0,0,0);font-family:TimesNewRomanPSMT;font-size:11.04px;stroke:none;"> </text>
  </g>
  <g begin="text">
   <text y="45.72" x="216.05,218.81" svgx:width="0.25,0.25" style="fill:rgb(0,0,0);font-family:TimesNewRomanPSMT;font-size:11.04px;stroke:none;"> </text>
  </g>
  <g begin="text">
   <text y="45.72" x="221.57,224.33,227.09,229.85,232.61,235.37,238.13,240.89,243.65,246.41,249.17,251.93,254.69,257.45,260.21,262.97,265.609,268.369,271.129,273.889,276.649,279.409,282.169,284.929,287.689,290.449" svgx:width="0.25,0.25,0.25,0.25,0.25,0.25,0.25,0.25,0.25,0.25,0.25,0.25,0.25,0.25,0.25,0.25,0.25,0.25,0.25,0.25,0.25,0.25,0.25,0.25,0.25,0.25" style="fill:rgb(0,0,0);font-family:TimesNewRomanPSMT;font-size:11.04px;stroke:none;"> </text>
  </g>
  <g begin="text">
   <text y="45.72" x="293.21,300.529,305.928,310.83,316.35,319.364,324.266,327.997,330.757" svgx:width="0.67,0.5,0.44,0.5,0.28,0.44,0.33,0.25,0.5" style="fill:rgb(0,0,0);font-family:TimesNewRomanPSMT;font-size:11.04px;stroke:none;">Chapter 1</text>
  </g>
  <g begin="text">
   <text y="45.72" x="336.19" svgx:width="0.25" style="fill:rgb(0,0,0);font-family:TimesNewRomanPSMT;font-size:11.04px;stroke:none;"> </text>
  </g>
  <g begin="text">
   <text y="45.72" x="360.07,362.83,365.59,368.35,371.11,373.87,376.63,379.39,382.15,384.91,387.67,390.43,393.19,395.95,398.71,401.47,404.23,406.99,409.629,412.389,415.149,417.909,420.669,423.429,426.189,428.949,431.709,434.469,437.229" svgx:width="0.25,0.25,0.25,0.25,0.25,0.25,0.25,0.25,0.25,0.25,0.25,0.25,0.25,0.25,0.25,0.25,0.25,0.25,0.25,0.25,0.25,0.25,0.25,0.25,0.25,0.25,0.25,0.25,0.25" style="fill:rgb(0,0,0);font-family:TimesNewRomanPSMT;font-size:11.04px;stroke:none;"> </text>
  </g>
  <g begin="text">
   <text y="45.72" x="440.02,443.619,449.757,457.055,464.374" svgx:width="0.33,0.56,0.67,0.67,0.25" style="fill:rgb(0,0,0);font-family:TimesNewRomanPSMT;font-size:11.04px;stroke:none;">IPCC </text>
  </g>
  <g begin="text">
   <text y="45.72" x="467.14,475.056,482.375,487.895,490.655,501.077,509.048,512.614,516.213" svgx:width="0.72,0.67,0.5,0.25,0.94,0.72,0.33,0.33,0.33" style="fill:rgb(0,0,0);font-family:TimesNewRomanPSMT;font-size:11.04px;stroke:none;">AR6 WGIII</text>
  </g>
  <g begin="text">
   <text y="45.72" x="519.94" svgx:width="0.25" style="fill:rgb(0,0,0);font-family:TimesNewRomanPSMT;font-size:11.04px;stroke:none;"> </text>
  </g>
  <g begin="text">
   <text y="65.64" x="72.024" svgx:width="0.25" style="fill:rgb(0,0,0);font-family:TimesNewRomanPSMT;font-size:11.04px;stroke:none;"> </text>
  </g>
  <g begin="text">
   <text y="757.176" x="72.024,79.94,85.46,88.22,96.135,101.655,105.365,108.125,116.04,119.154,122.753,127.655,130.415,133.075,141.708,147.847,153.367,157.043,161.868,164.628,170.148,175.049,177.809,185.78,188.75,192.945,196.655,201.556,204.681,210.819,216.803,220.512" svgx:width="0.72,0.5,0.25,0.72,0.5,0.33,0.25,0.72,0.28,0.33,0.44,0.25,0.25,0.78,0.56,0.5,0.33,0.44,0.25,0.5,0.44,0.25,0.72,0.28,0.39,0.33,0.44,0.28,0.56,0.56,0.33,0.44" style="fill:rgb(0,0,0);font-family:TimesNewRomanPS-BoldMT;font-size:11.04px;stroke:none;">Do Not Cite, Quote or Distribute</text>
  </g>
  <g begin="text">
   <text y="757.176" x="225.41" svgx:width="0.25" style="fill:rgb(0,0,0);font-family:TimesNewRomanPS-BoldMT;font-size:11.04px;stroke:none;"> </text>
  </g>
  <g begin="text">
   <text y="757.176" x="288.05" svgx:width="0.25" style="fill:rgb(0,0,0);font-family:TimesNewRomanPS-BoldMT;font-size:11.04px;stroke:none;"> </text>
  </g>
  <g begin="text">
   <text y="757.176" x="324.07" svgx:width="0.5" style="fill:rgb(0,0,0);font-family:TimesNewRomanPSMT;font-size:11.04px;stroke:none;">1</text>
  </g>
  <g begin="text">
   <text y="757.176" x="329.59" svgx:width="0.33" style="fill:rgb(0,0,0);font-family:TimesNewRomanPSMT;font-size:11.04px;stroke:none;">-</text>
  </g>
  <g begin="text">
   <text y="757.176" x="333.19,338.71" svgx:width="0.5,0.5" style="fill:rgb(0,0,0);font-family:TimesNewRomanPSMT;font-size:11.04px;stroke:none;">50</text>
  </g>
  <g begin="text">
   <text y="757.176" x="344.23,346.99" svgx:width="0.25,0.25" style="fill:rgb(0,0,0);font-family:TimesNewRomanPSMT;font-size:11.04px;stroke:none;"> </text>
  </g>
  <g begin="text">
   <text y="757.176" x="349.75" svgx:width="0.25" style="fill:rgb(0,0,0);font-family:TimesNewRomanPSMT;font-size:11.04px;stroke:none;"> </text>
  </g>
  <g begin="text">
   <text y="757.176" x="360.07,362.83,365.59,368.35,371.11,373.87,376.63,379.39,382.15,384.91,387.67,390.43,393.19,395.95,398.71,401.47,404.23,406.99,409.629,412.389,415.149,417.909,420.669,423.429,426.189,428.949,431.709,434.469,437.229,439.989,442.627,445.387,448.147" svgx:width="0.25,0.25,0.25,0.25,0.25,0.25,0.25,0.25,0.25,0.25,0.25,0.25,0.25,0.25,0.25,0.25,0.25,0.25,0.25,0.25,0.25,0.25,0.25,0.25,0.25,0.25,0.25,0.25,0.25,0.25,0.25,0.25,0.25" style="fill:rgb(0,0,0);font-family:TimesNewRomanPSMT;font-size:11.04px;stroke:none;"> </text>
  </g>
  <g begin="text">
   <text y="757.176" x="450.94,457.685,463.205,466.175,471.077,474.201,476.487,481.885,486.787,492.307,497.231,501.426,504.539" svgx:width="0.61,0.5,0.28,0.44,0.28,0.25,0.5,0.44,0.5,0.44,0.39,0.28,0.25" style="fill:rgb(0,0,0);font-family:TimesNewRomanPSMT;font-size:11.04px;stroke:none;">Total pages: </text>
  </g>
  <g begin="text">
   <text y="757.176" x="506.98,512.5,518.02" svgx:width="0.5,0.5,0.5" style="fill:rgb(0,0,0);font-family:TimesNewRomanPSMT;font-size:11.04px;stroke:none;">106</text>
  </g>
  <g begin="text">
   <text y="757.176" x="523.42" svgx:width="0.25" style="fill:rgb(0,0,0);font-family:TimesNewRomanPSMT;font-size:9.96px;stroke:none;"> </text>
  </g>
  <g begin="text">
   <text y="777.096" x="72.024" svgx:width="0.25" style="fill:rgb(0,0,0);font-family:TimesNewRomanPSMT;font-size:11.04px;stroke:none;"> </text>
  </g>
  <g begin="text">
   <text y="797.04" x="72.024" svgx:width="0.25" style="fill:rgb(0,0,0);font-family:TimesNewRomanPSMT;font-size:11.04px;stroke:none;"> </text>
  </g>
  <g begin="text">
   <text y="85.58" x="72.024,77.544,80.657,86.177,90.98,94.689,97.449,99.359,104.879,108.589,114.109,118.911,124.431,127.544,131.739,136.641,139.655,142.768,148.288,153.808,158.003,161.713,164.473,167.233,169.143,177.666,182.567,186.299,191.698,196.599,199.724,204.018,206.778,209.53799999999998,211.47,214.473,219.993,223.592,227.302,232.203,236.421,239.534,243.243,248.642,253.544,256.668,262.067,265.776,270.678,273.438,275.37,280.272,285.792,291.312,294.072,295.882,298.995,304.515,308.711,311.713,314.827,317.94,323.339,326.452,329.565,334.964,340.484,344.778,347.538,350.298,352.23,357.033,360.146,362.906,364.816,373.449,378.848,381.961,384.964,388.077,393.597,396.6,401.502,404.262,406.194,409.307,414.209,419.629,424.531,427.656,431.851" svgx:width="0.5,0.28,0.5,0.44,0.33,0.25,0.55,0.5,0.33,0.5,0.44,0.5,0.28,0.39,0.44,0.28,0.28,0.5,0.5,0.39,0.33,0.25,0.25,0.55,0.78,0.44,0.33,0.5,0.44,0.28,0.39,0.25,0.25,0.55,0.28,0.5,0.33,0.33,0.44,0.39,0.28,0.33,0.5,0.44,0.28,0.5,0.33,0.44,0.25,0.55,0.44,0.5,0.5,0.25,0.55,0.28,0.5,0.39,0.28,0.28,0.28,0.5,0.28,0.28,0.5,0.5,0.39,0.25,0.25,0.55,0.44,0.28,0.25,0.55,0.78,0.5,0.28,0.28,0.28,0.5,0.28,0.44,0.25,0.55,0.28,0.44,0.5,0.44,0.28,0.39,0.25" style="fill:rgb(0,0,0);font-family:TimesNewRomanPSMT;font-size:11.04px;stroke:none;">other organisations), markets, infrastructure and institutions, at multiple levels </text>
  </g>
  <g begin="text">
   <text y="85.58" x="436.9,440.609,448.525,453.427,458.351,461.464,465.759,468.519,470.451,475.253,478.366,481.126,483.036,487.938,490.952,493.712,496.472,498.382,503.902,509.422,514.942,520.34,523.343" svgx:width="0.33,0.72,0.44,0.44,0.28,0.39,0.25,0.55,0.44,0.28,0.25,0.55,0.44,0.28,0.25,0.25,0.55,0.5,0.5,0.5,0.5,0.28,0.25" style="fill:rgb(0,0,0);font-family:TimesNewRomanPSMT;font-size:11.04px;stroke:none;">(Geels et al. 2017; </text>
  </g>
  <g begin="text">
   <text y="85.58" x="48.48" svgx:width="0.5" style="fill:rgb(0,0,0);font-family:TimesNewRomanPSMT;font-size:11.04px;stroke:none;">1</text>
  </g>
  <g begin="text">
   <text y="85.58" x="54.0" svgx:width="0.25" style="fill:rgb(0,0,0);font-family:TimesNewRomanPSMT;font-size:11.04px;stroke:none;"> </text>
  </g>
  <g begin="text">
   <text y="99.5" x="72.024,79.944" svgx:width="0.72,0.33" style="fill:rgb(0,0,0);font-family:TimesNewRomanPSMT;font-size:11.04px;stroke:none;">Kr</text>
  </g>
  <g begin="text">
   <text y="99.5" x="83.664,88.566,97.1,102.001,105.733,108.372,113.77,119.29,124.81,130.33" svgx:width="0.44,0.78,0.44,0.33,0.25,0.5,0.5,0.5,0.5,0.33" style="fill:rgb(0,0,0);font-family:TimesNewRomanPSMT;font-size:11.04px;stroke:none;">amer 2018)</text>
  </g>
  <g begin="text">
   <text y="99.5" x="133.94" svgx:width="0.25" style="fill:rgb(0,0,0);font-family:TimesNewRomanPSMT;font-size:11.04px;stroke:none;">.</text>
  </g>
  <g begin="text">
   <text y="99.5" x="136.7" svgx:width="0.25" style="fill:rgb(0,0,0);font-family:TimesNewRomanPSMT;font-size:11.04px;stroke:none;"> </text>
  </g>
  <g begin="text">
   <text y="99.5" x="139.34,146.659,152.179,157.699,161.895,166.796,172.316,177.837,182.76,188.159,191.272,194.275,199.795,202.555" svgx:width="0.67,0.5,0.5,0.39,0.44,0.5,0.5,0.44,0.5,0.28,0.28,0.5,0.25,0.25" style="fill:rgb(0,0,0);font-family:TimesNewRomanPSMT;font-size:11.04px;stroke:none;">Consequently, </text>
  </g>
  <g begin="text">
   <text y="99.5" x="205.25,208.363,213.762,216.875,221.678" svgx:width="0.28,0.5,0.28,0.44,0.33" style="fill:rgb(0,0,0);font-family:TimesNewRomanPSMT;font-size:11.04px;stroke:none;">inter</text>
  </g>
  <g begin="text">
   <text y="99.5" x="225.41,230.93,233.933,238.227,243.162,246.165,251.685,254.688,257.801,263.321,268.124,271.833,277.353,279.992,285.512,290.314,294.024,298.318,303.739,308.641,313.454,316.457,319.57,325.09,329.992,334.209,336.848,341.75,345.371,350.273,352.933,358.453,363.255,368.157,373.677,378.601,384.0" svgx:width="0.5,0.28,0.39,0.44,0.28,0.5,0.28,0.28,0.5,0.44,0.33,0.5,0.25,0.5,0.44,0.33,0.39,0.5,0.44,0.44,0.28,0.28,0.5,0.44,0.39,0.25,0.44,0.33,0.44,0.25,0.5,0.44,0.44,0.5,0.44,0.5,0.25" style="fill:rgb(0,0,0);font-family:TimesNewRomanPSMT;font-size:11.04px;stroke:none;">disciplinary perspectives are needed </text>
  </g>
  <g begin="text">
   <text y="99.5" x="386.71,390.419,397.165,402.541,406.251,411.771,417.291,422.093,425.096,433.729,436.247,441.148,444.273,446.911,451.714,454.827,457.587,460.225,465.624,471.144,476.664,482.184,485.187,487.825,495.741,500.643,505.456,508.57,512.864,515.414,520.316,523.33" svgx:width="0.33,0.61,0.5,0.33,0.5,0.5,0.44,0.28,0.78,0.25,0.44,0.28,0.25,0.44,0.28,0.25,0.25,0.5,0.5,0.5,0.5,0.28,0.25,0.72,0.44,0.44,0.28,0.39,0.25,0.44,0.28,0.25" style="fill:rgb(0,0,0);font-family:TimesNewRomanPSMT;font-size:11.04px;stroke:none;">(Turnheim et al. 2015; Geels et </text>
  </g>
  <g begin="text">
   <text y="99.5" x="48.48" svgx:width="0.5" style="fill:rgb(0,0,0);font-family:TimesNewRomanPSMT;font-size:11.04px;stroke:none;">2</text>
  </g>
  <g begin="text">
   <text y="99.5" x="54.0" svgx:width="0.25" style="fill:rgb(0,0,0);font-family:TimesNewRomanPSMT;font-size:11.04px;stroke:none;"> </text>
  </g>
  <g begin="text">
   <text y="113.42" x="72.024,76.926,80.05,82.81,85.57000000000001,87.116,92.514,98.034,103.554,109.074,112.077,114.837,116.383,124.298,129.818,133.528,136.28799999999998,137.712,142.614,145.738,148.498,149.922,154.824,157.948,160.587,163.34699999999998,164.892,170.412,175.932,181.452,186.851" svgx:width="0.44,0.28,0.25,0.25,0.55,0.5,0.5,0.5,0.5,0.28,0.25,0.55,0.72,0.5,0.33,0.25,0.55,0.44,0.28,0.25,0.55,0.44,0.28,0.25,0.25,0.55,0.5,0.5,0.5,0.5,0.33" style="fill:rgb(0,0,0);font-family:TimesNewRomanPSMT;font-size:11.04px;stroke:none;">al. 2016; Hof et al. 2020)</text>
  </g>
  <g begin="text">
   <text y="113.42" x="190.73,193.369,196.129,197.674,204.994,209.895,215.415,220.935,226.455,231.975" svgx:width="0.25,0.25,0.55,0.67,0.44,0.5,0.5,0.5,0.5,0.25" style="fill:rgb(0,0,0);font-family:TimesNewRomanPSMT;font-size:11.04px;stroke:none;">. Beyond </text>
  </g>
  <g begin="text">
   <text y="113.42" x="236.21,241.112,246.632,252.152,255.773,260.675,266.195,271.008,274.121,279.023,284.444" svgx:width="0.44,0.5,0.5,0.33,0.44,0.5,0.44,0.28,0.44,0.5,0.25" style="fill:rgb(0,0,0);font-family:TimesNewRomanPSMT;font-size:11.04px;stroke:none;">aggregated </text>
  </g>
  <g begin="text">
   <text y="113.42" x="288.77,293.672,298.596,304.116,309.514,314.913,323.546,326.549,331.451,334.211,335.778,341.298,346.101,349.81,354.105,359.525,364.427,369.351,372.354,375.467,380.987,385.789,390.084" svgx:width="0.44,0.44,0.5,0.5,0.5,0.78,0.28,0.44,0.25,0.55,0.5,0.44,0.33,0.39,0.5,0.44,0.44,0.28,0.28,0.5,0.44,0.39,0.25" style="fill:rgb(0,0,0);font-family:TimesNewRomanPSMT;font-size:11.04px;stroke:none;">economic perspectives </text>
  </g>
  <g begin="text">
   <text y="113.42" x="394.51,400.03,405.429,408.18899999999996,409.734,415.254,420.774,426.294,431.097,439.73,442.733,447.634,451.962" svgx:width="0.5,0.5,0.25,0.55,0.5,0.5,0.5,0.44,0.78,0.28,0.44,0.39,0.25" style="fill:rgb(0,0,0);font-family:TimesNewRomanPSMT;font-size:11.04px;stroke:none;">on dynamics </text>
  </g>
  <g begin="text">
   <text y="113.42" x="456.22" svgx:width="0.33" style="fill:rgb(0,0,0);font-family:TimesNewRomanPSMT;font-size:11.04px;stroke:none;">(</text>
  </g>
  <g begin="text">
   <text y="113.42" x="459.94,465.46,468.22,473.74,476.5" svgx:width="0.5,0.25,0.5,0.25,0.5" style="fill:rgb(0,0,0);font-family:TimesNewRomanPSMT;font-size:11.04px;stroke:none;">1.7.1</text>
  </g>
  <g begin="text">
   <text y="113.42" x="482.02,484.659,490.179,493.888,496.648" svgx:width="0.25,0.5,0.33,0.25,0.25" style="fill:rgb(0,0,0);font-family:TimesNewRomanPSMT;font-size:11.04px;stroke:none;">.2), </text>
  </g>
  <g begin="text">
   <text y="113.42" x="500.86,503.973,509.493,514.296,518.59,523.415" svgx:width="0.28,0.5,0.44,0.39,0.44,0.25" style="fill:rgb(0,0,0);font-family:TimesNewRomanPSMT;font-size:11.04px;stroke:none;">these </text>
  </g>
  <g begin="text">
   <text y="113.42" x="48.48" svgx:width="0.5" style="fill:rgb(0,0,0);font-family:TimesNewRomanPSMT;font-size:11.04px;stroke:none;">3</text>
  </g>
  <g begin="text">
   <text y="113.42" x="54.0" svgx:width="0.25" style="fill:rgb(0,0,0);font-family:TimesNewRomanPSMT;font-size:11.04px;stroke:none;"> </text>
  </g>
  <g begin="text">
   <text y="127.34" x="72.024,76.926,85.57,91.09,96.489,101.39,105.718,108.721,113.015,117.95,120.589,123.702,129.222,134.124" svgx:width="0.44,0.78,0.5,0.5,0.44,0.39,0.28,0.39,0.44,0.25,0.28,0.5,0.44,0.25" style="fill:rgb(0,0,0);font-family:TimesNewRomanPSMT;font-size:11.04px;stroke:none;">emphasise the </text>
  </g>
  <g begin="text">
   <text y="127.34" x="136.82,145.453,150.852,153.965,156.968,160.081,165.601,168.604,173.506" svgx:width="0.78,0.5,0.28,0.28,0.28,0.5,0.28,0.44,0.25" style="fill:rgb(0,0,0);font-family:TimesNewRomanPSMT;font-size:11.04px;stroke:none;">multiple </text>
  </g>
  <g begin="text">
   <text y="127.34" x="176.3,181.202,186.015,189.128,194.527,198.236,202.531" svgx:width="0.44,0.44,0.28,0.5,0.33,0.39,0.25" style="fill:rgb(0,0,0);font-family:TimesNewRomanPSMT;font-size:11.04px;stroke:none;">actors </text>
  </g>
  <g begin="text">
   <text y="127.34" x="205.37,210.272,215.692,221.212,223.972,229.492,233.202,238.6,243.502,248.426,252.621,256.916,261.851,266.145,268.806,271.919,277.439,282.959,288.358,291.471,296.991,301.793" svgx:width="0.44,0.5,0.5,0.25,0.5,0.33,0.5,0.44,0.44,0.39,0.39,0.44,0.39,0.25,0.28,0.5,0.5,0.5,0.28,0.5,0.44,0.5" style="fill:rgb(0,0,0);font-family:TimesNewRomanPSMT;font-size:11.04px;stroke:none;">and processes involved</text>
  </g>
  <g begin="text">
   <text y="127.34" x="307.37,310.13" svgx:width="0.25,0.25" style="fill:rgb(0,0,0);font-family:TimesNewRomanPSMT;font-size:11.04px;stroke:none;">. </text>
  </g>
  <g begin="text">
   <text y="127.34" x="312.79" svgx:width="0.25" style="fill:rgb(0,0,0);font-family:TimesNewRomanPSMT;font-size:11.04px;stroke:none;"> </text>
  </g>
  <g begin="text">
   <text y="127.34" x="48.48" svgx:width="0.5" style="fill:rgb(0,0,0);font-family:TimesNewRomanPSMT;font-size:11.04px;stroke:none;">4</text>
  </g>
  <g begin="text">
   <text y="127.34" x="54.0" svgx:width="0.25" style="fill:rgb(0,0,0);font-family:TimesNewRomanPSMT;font-size:11.04px;stroke:none;"> </text>
  </g>
  <g begin="text">
   <text y="147.26" x="72.024" svgx:width="0.25" style="fill:rgb(0,0,0);font-family:TimesNewRomanPSMT;font-size:11.04px;stroke:none;"> </text>
  </g>
  <g begin="text">
   <text y="147.26" x="48.48" svgx:width="0.5" style="fill:rgb(0,0,0);font-family:TimesNewRomanPSMT;font-size:11.04px;stroke:none;">5</text>
  </g>
  <g begin="text">
   <text y="147.26" x="54.0" svgx:width="0.25" style="fill:rgb(0,0,0);font-family:TimesNewRomanPSMT;font-size:11.04px;stroke:none;"> </text>
  </g>
  <g begin="text">
   <text y="642.1" x="523.54" svgx:width="0.25" style="fill:rgb(0,0,0);font-family:TimesNewRomanPSMT;font-size:11.04px;stroke:none;"> </text>
  </g>
  <g begin="text">
   <text y="642.1" x="48.48" svgx:width="0.5" style="fill:rgb(0,0,0);font-family:TimesNewRomanPSMT;font-size:11.04px;stroke:none;">6</text>
  </g>
  <g begin="text">
   <text y="642.1" x="54.0" svgx:width="0.25" style="fill:rgb(0,0,0);font-family:TimesNewRomanPSMT;font-size:11.04px;stroke:none;"> </text>
  </g>
  <g begin="text">
   <text y="658.66" x="165.5,171.605,174.374,179.394,184.932,189.354,193.776,196.306,201.336" svgx:width="0.61,0.28,0.5,0.56,0.44,0.44,0.25,0.5,0.25" style="fill:rgb(0,0,0);font-family:TimesNewRomanPS-BoldMT;font-size:9.96px;stroke:none;">Figure 1.</text>
  </g>
  <g begin="text">
   <text y="658.66" x="203.93" svgx:width="0.5" style="fill:rgb(0,0,0);font-family:TimesNewRomanPS-BoldMT;font-size:9.96px;stroke:none;">6</text>
  </g>
  <g begin="text">
   <text y="658.66" x="208.97" svgx:width="0.33" style="fill:rgb(0,0,0);font-family:TimesNewRomanPS-BoldMT;font-size:9.96px;stroke:none;">:</text>
  </g>
  <g begin="text">
   <text y="658.66" x="212.33" svgx:width="0.25" style="fill:rgb(0,0,0);font-family:TimesNewRomanPS-BoldMT;font-size:9.96px;stroke:none;"> </text>
  </g>
  <g begin="text">
   <text y="658.66" x="214.85,221.454,225.876,230.925,236.463,240.288,243.057,246.393,249.162,254.182,259.72,262.21,267.747,272.767,278.305,283.315,291.701,294.47,298.892,302.767,306.084,308.613,311.382,315.805,320.844,325.267,328.035,331.91,334.4,336.91,342.448,347.457,350.226,352.995,357.418,360.186,364.609,368.483,370.973,376.003,381.541,387.039,389.548,395.086,399.508,404.658,409.08,413.532,417.377,421.221,425.644" svgx:width="0.67,0.44,0.5,0.56,0.39,0.28,0.33,0.28,0.5,0.56,0.25,0.56,0.5,0.56,0.5,0.83,0.28,0.44,0.39,0.33,0.25,0.28,0.44,0.5,0.44,0.28,0.39,0.25,0.25,0.56,0.5,0.28,0.28,0.44,0.28,0.44,0.39,0.25,0.5,0.56,0.56,0.25,0.56,0.44,0.5,0.44,0.44,0.39,0.39,0.44,0.39" style="fill:rgb(0,0,0);font-family:TimesNewRomanPS-BoldMT;font-size:9.96px;stroke:none;">Transition dynamics: levels, policies and processes</text>
  </g>
  <g begin="text">
   <text y="658.66" x="429.79" svgx:width="0.25" style="fill:rgb(0,0,0);font-family:TimesNewRomanPS-BoldMT;font-size:9.96px;stroke:none;"> </text>
  </g>
  <g begin="text">
   <text y="658.66" x="48.48" svgx:width="0.5" style="fill:rgb(0,0,0);font-family:TimesNewRomanPSMT;font-size:11.04px;stroke:none;">7</text>
  </g>
  <g begin="text">
   <text y="658.66" x="54.0" svgx:width="0.25" style="fill:rgb(0,0,0);font-family:TimesNewRomanPSMT;font-size:11.04px;stroke:none;"> </text>
  </g>
  <g begin="text">
   <text y="677.26" x="86.904,94.095,99.135,102.481,106.904,110.27,112.78,119.384,124.921,129.344" svgx:width="0.72,0.5,0.33,0.44,0.33,0.25,0.67,0.56,0.44,0.25" style="fill:rgb(0,0,0);font-family:TimesNewRomanPS-BoldMT;font-size:9.96px;stroke:none;">Note: The </text>
  </g>
  <g begin="text">
   <text y="677.26" x="131.9,134.669,139.689,146.88,151.302" svgx:width="0.28,0.5,0.72,0.44,0.44" style="fill:rgb(0,0,0);font-family:TimesNewRomanPS-BoldMT;font-size:9.96px;stroke:none;">lower</text>
  </g>
  <g begin="text">
   <text y="677.26" x="155.78" svgx:width="0.25" style="fill:rgb(0,0,0);font-family:TimesNewRomanPS-BoldMT;font-size:9.96px;stroke:none;"> </text>
  </g>
  <g begin="text">
   <text y="677.26" x="158.3,163.838,168.848,174.385,178.808,181.577,184.067,186.835,189.604,192.373,197.911,201.726,205.072,209.624,214.654,218.0,222.423,226.297,228.787,233.827,238.249,243.299,250.49,253.846,259.384,261.874,266.914,270.151,272.661,275.43,280.967,286.465,291.495,296.525,301.555,304.901,307.67,312.69,317.112,319.533,322.879,327.301,331.644,337.182,342.68,347.709,350.478,355.498,360.528,363.297,367.719,371.594,374.083,379.113,383.536,386.065,391.603,396.025,401.055,405.477,408.844,411.613,416.035,420.457,424.332,426.822,429.352,436.543,442.08,444.849,449.272,454.809,457.299,460.068,463.425,465.935,469.779,475.317,479.739,484.161,488.614,492.568,496.412,499.759,505.297,508.066" svgx:width="0.56,0.5,0.56,0.44,0.28,0.25,0.28,0.28,0.28,0.56,0.39,0.33,0.44,0.5,0.33,0.44,0.39,0.25,0.5,0.44,0.5,0.72,0.33,0.56,0.25,0.5,0.33,0.25,0.28,0.56,0.56,0.5,0.5,0.5,0.33,0.28,0.5,0.44,0.25,0.33,0.44,0.44,0.56,0.56,0.5,0.28,0.5,0.5,0.28,0.44,0.39,0.25,0.5,0.44,0.25,0.56,0.44,0.5,0.44,0.33,0.28,0.44,0.44,0.39,0.25,0.25,0.72,0.56,0.28,0.44,0.56,0.25,0.28,0.33,0.25,0.39,0.56,0.44,0.44,0.44,0.39,0.39,0.33,0.56,0.28,0.25" style="fill:rgb(0,0,0);font-family:TimesNewRomanPS-BoldMT;font-size:9.96px;stroke:none;">panel illustrates growth of innovative technologies or practices, which if successful </text>
  </g>
  <g begin="text">
   <text y="677.26" x="48.48" svgx:width="0.5" style="fill:rgb(0,0,0);font-family:TimesNewRomanPSMT;font-size:11.04px;stroke:none;">8</text>
  </g>
  <g begin="text">
   <text y="677.26" x="54.0" svgx:width="0.25" style="fill:rgb(0,0,0);font-family:TimesNewRomanPSMT;font-size:11.04px;stroke:none;"> </text>
  </g>
  <g begin="text">
   <text y="689.86" x="80.544,84.966,93.373,97.795,102.247,107.277,111.699,114.229,117.575,121.898,126.928,135.314,137.824,143.362,146.131,150.553,156.091,160.513,164.347,166.857,169.626,175.164,178.481,183.53,186.04,191.07,196.608,198.988" svgx:width="0.44,0.83,0.44,0.44,0.5,0.44,0.25,0.33,0.44,0.5,0.83,0.25,0.56,0.28,0.44,0.56,0.44,0.39,0.25,0.28,0.56,0.33,0.5,0.25,0.5,0.56,0.25,0.56" style="fill:rgb(0,0,0);font-family:TimesNewRomanPS-BoldMT;font-size:9.96px;stroke:none;">emerge from niches into an S</text>
  </g>
  <g begin="text">
   <text y="689.86" x="204.65" svgx:width="0.33" style="fill:rgb(0,0,0);font-family:TimesNewRomanPS-BoldMT;font-size:9.96px;stroke:none;">-</text>
  </g>
  <g begin="text">
   <text y="689.86" x="208.01,211.855,217.392,222.402,227.94,232.362,234.872,240.41,245.42,250.958,255.967,264.354,267.123,271.545,274.065,279.095,282.441,284.951,289.373,294.423,299.961,304.971,310.508,314.931,320.468,323.785,326.554,331.604,334.373,336.863,341.912,346.335,351.384,358.575,361.932,367.47,369.96,372.48,379.083,384.621,389.043,391.553,397.091,399.86,403.176,406.543,412.081,415.905,418.674,423.694,429.232,431.722,435.596,439.042,444.072,449.102,453.524,456.054,461.084,464.321,467.667,472.09,477.627,480.137,482.906,488.444,493.444,498.474,501.242,506.262,510.685,514.559" svgx:width="0.39,0.56,0.5,0.56,0.44,0.25,0.56,0.5,0.56,0.5,0.83,0.28,0.44,0.25,0.5,0.33,0.25,0.44,0.5,0.56,0.5,0.56,0.44,0.56,0.33,0.28,0.5,0.28,0.25,0.5,0.44,0.5,0.72,0.33,0.56,0.25,0.25,0.67,0.56,0.44,0.25,0.56,0.28,0.33,0.33,0.56,0.39,0.28,0.5,0.56,0.25,0.39,0.33,0.5,0.5,0.44,0.25,0.5,0.33,0.33,0.44,0.56,0.25,0.28,0.56,0.5,0.5,0.28,0.5,0.44,0.39,0.25" style="fill:rgb(0,0,0);font-family:TimesNewRomanPS-BoldMT;font-size:9.96px;stroke:none;">shape dynamic of exponential growth. The diffusion stage often involves </text>
  </g>
  <g begin="text">
   <text y="689.86" x="48.48" svgx:width="0.5" style="fill:rgb(0,0,0);font-family:TimesNewRomanPSMT;font-size:11.04px;stroke:none;">9</text>
  </g>
  <g begin="text">
   <text y="689.86" x="54.0" svgx:width="0.25" style="fill:rgb(0,0,0);font-family:TimesNewRomanPSMT;font-size:11.04px;stroke:none;"> </text>
  </g>
  <g begin="text">
   <text y="702.58" x="87.144,92.682,97.104,104.295,106.815,109.584,115.122,118.438,122.88,127.91,131.755,135.101,139.524,145.061,149.484,152.85,158.388,162.81,167.232,169.762,174.792,180.33,185.828,188.338,192.76,197.212,201.634,206.803,212.341,215.658,218.427,223.477,229.014,233.437,238.466,241.813,244.582,249.602,255.139,257.629,262.669,266.016,268.526,272.948,277.998,280.766,284.601,287.948,290.717,296.254,301.254,303.655,312.041,317.071,321.393,326.931,331.353,334.7,337.21,342.24,347.777,353.275,355.785,360.207,364.66,369.689,375.227,377.996" svgx:width="0.56,0.44,0.72,0.25,0.28,0.56,0.33,0.44,0.5,0.39,0.33,0.44,0.56,0.44,0.33,0.56,0.44,0.44,0.25,0.5,0.56,0.56,0.25,0.44,0.44,0.44,0.5,0.56,0.33,0.28,0.5,0.56,0.44,0.5,0.33,0.28,0.5,0.56,0.25,0.5,0.33,0.25,0.44,0.5,0.28,0.39,0.33,0.28,0.56,0.5,0.25,0.83,0.5,0.44,0.56,0.44,0.33,0.25,0.5,0.56,0.56,0.25,0.44,0.44,0.5,0.56,0.28,0.5" style="fill:rgb(0,0,0);font-family:TimesNewRomanPS-BoldMT;font-size:9.96px;stroke:none;">new infrastructure and reconfiguration of existing market and regula</text>
  </g>
  <g begin="text">
   <text y="702.58" x="383.35,386.697,391.726,396.149,401.198,403.708,407.553,410.899,415.322,420.859,425.282,428.648,434.186,438.608,443.03,446.905,449.285,452.632,458.259,463.797,468.807,475.998,481.536,484.026,486.795,492.332,494.822,498.199,503.736,508.159" svgx:width="0.33,0.5,0.44,0.5,0.25,0.39,0.33,0.44,0.56,0.44,0.33,0.56,0.44,0.44,0.39,0.25,0.33,0.56,0.56,0.5,0.72,0.56,0.25,0.28,0.56,0.25,0.33,0.56,0.44,0.25" style="fill:rgb(0,0,0);font-family:TimesNewRomanPS-BoldMT;font-size:9.96px;stroke:none;">tory structures (known in the </text>
  </g>
  <g begin="text">
   <text y="702.58" x="42.96,48.48" svgx:width="0.5,0.5" style="fill:rgb(0,0,0);font-family:TimesNewRomanPSMT;font-size:11.04px;stroke:none;">10</text>
  </g>
  <g begin="text">
   <text y="702.58" x="54.0" svgx:width="0.25" style="fill:rgb(0,0,0);font-family:TimesNewRomanPSMT;font-size:11.04px;stroke:none;"> </text>
  </g>
  <g begin="text">
   <text y="715.18" x="74.664,77.433,80.202,83.518,87.971,92.393,97.443,100.789,106.327,110.749,115.171,117.701,122.731,126.576,129.086,132.432,137.97,142.392,144.902,149.932,153.776,158.806,163.228,165.997" svgx:width="0.28,0.28,0.33,0.44,0.44,0.5,0.33,0.56,0.44,0.44,0.25,0.5,0.39,0.25,0.33,0.56,0.44,0.25,0.5,0.39,0.5,0.44,0.28,0.5" style="fill:rgb(0,0,0);font-family:TimesNewRomanPS-BoldMT;font-size:9.96px;stroke:none;">literature as the “socio</text>
  </g>
  <g begin="text">
   <text y="715.18" x="171.14" svgx:width="0.33" style="fill:rgb(0,0,0);font-family:TimesNewRomanPS-BoldMT;font-size:9.96px;stroke:none;">-</text>
  </g>
  <g begin="text">
   <text y="715.18" x="174.5,177.847,182.269,186.721,192.119,197.657,200.426,204.848,209.868,212.637,215.127,219.579,224.001,229.051,231.82,240.196,244.618,249.668,253.015,255.415,257.925,265.116,270.654,275.076,277.845,283.383,288.393,290.903,294.249,299.787,304.209,306.719,312.257,317.755,322.785,326.629,331.051,333.581,338.611,341.957,344.467,352.854,357.884,362.306,366.648,369.158,376.349,379.118,384.656,389.078,392.923,398.461,402.883,407.305,412.355,417.893,420.383,425.92,428.689,432.145,435.492,441.03,444.854,447.623,452.643,458.181,461.497,464.037,469.067,473.489,478.539,485.73,489.087,494.624,497.114,499.883,504.306,509.355,513.777,516.546,520.421" svgx:width="0.33,0.44,0.44,0.56,0.56,0.28,0.44,0.5,0.28,0.25,0.44,0.44,0.5,0.28,0.83,0.44,0.5,0.33,0.25,0.25,0.72,0.56,0.44,0.28,0.56,0.5,0.25,0.33,0.56,0.44,0.25,0.56,0.56,0.5,0.39,0.44,0.25,0.5,0.33,0.25,0.83,0.5,0.44,0.44,0.25,0.72,0.28,0.56,0.44,0.39,0.56,0.44,0.44,0.5,0.56,0.25,0.56,0.28,0.33,0.33,0.56,0.39,0.28,0.5,0.56,0.33,0.25,0.5,0.44,0.5,0.72,0.33,0.56,0.25,0.28,0.44,0.5,0.44,0.28,0.39,0.25" style="fill:rgb(0,0,0);font-family:TimesNewRomanPS-BoldMT;font-size:9.96px;stroke:none;">technical regime”). During the phase of more widespread diffusion; growth levels </text>
  </g>
  <g begin="text">
   <text y="715.18" x="42.96,48.48" svgx:width="0.5,0.5" style="fill:rgb(0,0,0);font-family:TimesNewRomanPSMT;font-size:11.04px;stroke:none;">11</text>
  </g>
  <g begin="text">
   <text y="715.18" x="54.0" svgx:width="0.25" style="fill:rgb(0,0,0);font-family:TimesNewRomanPSMT;font-size:11.04px;stroke:none;"> </text>
  </g>
  <g begin="text">
   <text y="727.9" x="95.784,100.814,104.16,107.507,110.017,113.254,118.284,120.794,123.562,126.331,131.829,136.252,141.301,145.723,148.253,150.763,154.11,159.648,164.07,169.608,172.098,175.972,178.711,183.741,190.932,194.806,197.296,202.326,206.171,208.681,212.027,217.565,221.987,224.497,227.266,232.804,238.302,243.839,247.664,251.011,255.433,260.483,262.993,268.022,273.56,279.058,281.568,289.954,294.984,299.406,305.054,309.476,312.842,315.243,323.629,328.659,332.005,337.404,341.826,346.278,350.123,352.632,355.142,361.746,367.284,371.706,374.216,379.754,384.176,389.206,393.628,398.08,402.034,405.879,410.301,414.175,416.665,422.203,425.072,428.916,434.454,437.223,442.223,446.645,451.097,453.607,456.475,462.013,466.435,471.973,480.35,485.887,490.31,495.847,499.164" svgx:width="0.5,0.33,0.33,0.25,0.33,0.5,0.25,0.28,0.28,0.56,0.44,0.5,0.44,0.25,0.25,0.33,0.56,0.44,0.56,0.25,0.39,0.28,0.5,0.72,0.39,0.25,0.5,0.39,0.25,0.33,0.56,0.44,0.25,0.28,0.56,0.56,0.56,0.39,0.33,0.44,0.5,0.25,0.5,0.56,0.56,0.25,0.83,0.5,0.44,0.56,0.44,0.33,0.25,0.83,0.5,0.33,0.56,0.44,0.44,0.39,0.25,0.25,0.67,0.56,0.44,0.25,0.56,0.44,0.5,0.44,0.44,0.39,0.39,0.44,0.39,0.25,0.56,0.28,0.39,0.56,0.28,0.5,0.44,0.44,0.25,0.28,0.56,0.44,0.56,0.83,0.56,0.44,0.56,0.33,0.25" style="fill:rgb(0,0,0);font-family:TimesNewRomanPS-BoldMT;font-size:9.96px;stroke:none;">off to linear, then slows as the industry and market matures. The processes displace incumbent </text>
  </g>
  <g begin="text">
   <text y="727.9" x="42.96,48.48" svgx:width="0.5,0.5" style="fill:rgb(0,0,0);font-family:TimesNewRomanPSMT;font-size:11.04px;stroke:none;">12</text>
  </g>
  <g begin="text">
   <text y="727.9" x="54.0" svgx:width="0.25" style="fill:rgb(0,0,0);font-family:TimesNewRomanPSMT;font-size:11.04px;stroke:none;"> </text>
  </g>
  <g begin="text">
   <text y="740.5" x="86.784,90.131,94.553,99.005,104.543,110.041,115.07,117.839,122.859,127.889,130.658,135.08,138.955,141.693,147.231,151.653,156.683,161.106,164.472,167.241,171.663,176.085,179.96,182.45,189.661" svgx:width="0.33,0.44,0.44,0.56,0.56,0.5,0.28,0.5,0.5,0.28,0.44,0.39,0.28,0.56,0.44,0.5,0.44,0.33,0.28,0.44,0.44,0.39,0.25,0.72,0.56" style="fill:rgb(0,0,0);font-family:TimesNewRomanPS-BoldMT;font-size:9.96px;stroke:none;">technologies/practices wh</text>
  </g>
  <g begin="text">
   <text y="740.5" x="195.29,198.059,202.601,208.228,210.738,216.276,220.698,225.12,227.889,230.658,236.196,240.618,243.128,245.638,248.407,253.944,256.674,260.02,262.789,267.809,270.578,273.347,278.357,280.866,284.711,287.48,292.5,299.691,302.46,307.49,309.999,315.537,321.035,324.382,326.892,330.358,335.895,340.318,345.855,348.345,353.385,356.732,359.242,364.271,369.809,372.299,377.339,381.761,386.213,390.636,393.404,397.827,402.279,407.309,410.655,413.424,418.962,423.962,426.472,432.009,437.019,441.442,445.894,448.404,450.804,460.166,465.196,470.734,475.744,478.254,482.676,487.128,489.897,494.917,498.263,502.686,508.223" svgx:width="0.28,0.44,0.56,0.25,0.56,0.44,0.44,0.28,0.28,0.56,0.44,0.25,0.25,0.28,0.56,0.28,0.33,0.28,0.5,0.28,0.28,0.5,0.25,0.39,0.28,0.5,0.72,0.28,0.5,0.25,0.56,0.56,0.33,0.25,0.33,0.56,0.44,0.56,0.25,0.5,0.33,0.25,0.5,0.56,0.25,0.5,0.44,0.44,0.44,0.28,0.44,0.44,0.5,0.33,0.28,0.56,0.5,0.25,0.56,0.5,0.44,0.44,0.25,0.25,0.94,0.5,0.56,0.5,0.25,0.44,0.44,0.28,0.5,0.33,0.44,0.56,0.25" style="fill:rgb(0,0,0);font-family:TimesNewRomanPS-BoldMT;font-size:9.96px;stroke:none;">ich decline, initially slowly but then at an accelerating pace. Many related </text>
  </g>
  <g begin="text">
   <text y="740.5" x="42.96,48.48" svgx:width="0.5,0.5" style="fill:rgb(0,0,0);font-family:TimesNewRomanPSMT;font-size:11.04px;stroke:none;">13</text>
  </g>
  <g begin="text">
   <text y="740.5" x="54.0" svgx:width="0.25" style="fill:rgb(0,0,0);font-family:TimesNewRomanPSMT;font-size:11.04px;stroke:none;"> </text>
  </g>
  <rect style="fill:pink;opacity:0.2;stroke:blue;stroke-width:0.3;" x="72.0" y="114.88" height="485.1" width="451.3" title="51"/>
  <text y="114.88" class="image" id="image.51.1" width="451" height="485" x="72.0" style="font-size:5.0px;">image.51.1.72_523.115_600</text>
  <g begin="text">
   <text y="602.109" transform="matrix(0.70711,-0.70711,0.70711,0.70711,-395.12956,250.29085)" rotateDegrees="-45" matrix="[29.803345,29.803345,-29.803345,29.803345,104.563255,239.8115]" x="104.563" svgx:width="0.67" style="fill:rgb(0,0,0);font-family:Arial;font-size:42.15px;stroke:none;">A</text>
   <text y="582.23" transform="matrix(0.70711,-0.70711,0.70711,0.70711,-375.25056,258.525)" rotateDegrees="-45" matrix="[29.803345,29.803345,-29.803345,29.803345,124.442085,259.6903]" x="124.442" svgx:width="0.72" style="fill:rgb(0,0,0);font-family:Arial;font-size:42.15px;stroke:none;">C</text>
   <text y="560.712" transform="matrix(0.70711,-0.70711,0.70711,0.70711,-353.73256,267.43805)" rotateDegrees="-45" matrix="[29.803345,29.803345,-29.803345,29.803345,145.9601,281.20834]" x="145.96" svgx:width="0.72" style="fill:rgb(0,0,0);font-family:Arial;font-size:42.15px;stroke:none;">C</text>
   <text y="539.194" transform="matrix(0.70711,-0.70711,0.70711,0.70711,-332.21456,276.3511)" rotateDegrees="-45" matrix="[29.803345,29.803345,-29.803345,29.803345,167.47812,302.72635]" x="167.478" svgx:width="0.67" style="fill:rgb(0,0,0);font-family:Arial;font-size:42.15px;stroke:none;">E</text>
   <text y="519.315" transform="matrix(0.70711,-0.70711,0.70711,0.70711,-312.33556,284.58525)" rotateDegrees="-45" matrix="[29.803345,29.803345,-29.803345,29.803345,187.35693,322.60516]" x="187.357" svgx:width="0.67" style="fill:rgb(0,0,0);font-family:Arial;font-size:42.15px;stroke:none;">P</text>
   <text y="499.436" transform="matrix(0.70711,-0.70711,0.70711,0.70711,-292.45656,292.8194)" rotateDegrees="-45" matrix="[29.803345,29.803345,-29.803345,29.803345,207.23578,342.484]" x="207.236" svgx:width="0.61" style="fill:rgb(0,0,0);font-family:Arial;font-size:42.15px;stroke:none;">T</text>
   <text y="481.226" transform="matrix(0.70711,-0.70711,0.70711,0.70711,-274.24656,300.36223)" rotateDegrees="-45" matrix="[29.803345,29.803345,-29.803345,29.803345,225.44562,360.69385]" x="225.446" svgx:width="0.67" style="fill:rgb(0,0,0);font-family:Arial;font-size:42.15px;stroke:none;">E</text>
   <text y="461.347" transform="matrix(0.70711,-0.70711,0.70711,0.70711,-254.36786,308.59567)" rotateDegrees="-45" matrix="[29.803345,29.803345,-29.803345,29.803345,245.32443,380.57266]" x="245.324" svgx:width="0.72" style="fill:rgb(0,0,0);font-family:Arial;font-size:42.15px;stroke:none;">D</text>
   <text y="439.829" transform="matrix(0.70711,-0.70711,0.70711,0.70711,-232.84986,317.50872)" rotateDegrees="-45" matrix="[29.803345,29.803345,-29.803345,29.803345,266.84247,402.0907]" x="266.842" svgx:width="0.28" style="fill:rgb(0,0,0);font-family:Arial;font-size:42.15px;stroke:none;"> </text>
   <text y="431.54" transform="matrix(0.70711,-0.70711,0.70711,0.70711,-224.56056,320.94284)" rotateDegrees="-45" matrix="[29.803345,29.803345,-29.803345,29.803345,275.13153,410.37976]" x="275.132" svgx:width="0.67" style="fill:rgb(0,0,0);font-family:Arial;font-size:42.15px;stroke:none;">V</text>
   <text y="411.661" transform="matrix(0.70711,-0.70711,0.70711,0.70711,-204.68186,329.17629)" rotateDegrees="-45" matrix="[29.803345,29.803345,-29.803345,29.803345,295.0103,430.25858]" x="295.01" svgx:width="0.67" style="fill:rgb(0,0,0);font-family:Arial;font-size:42.15px;stroke:none;">E</text>
   <text y="391.783" transform="matrix(0.70711,-0.70711,0.70711,0.70711,-184.80356,337.41073)" rotateDegrees="-45" matrix="[29.803345,29.803345,-29.803345,29.803345,314.88916,450.1374]" x="314.889" svgx:width="0.72" style="fill:rgb(0,0,0);font-family:Arial;font-size:42.15px;stroke:none;">R</text>
   <text y="370.265" transform="matrix(0.70711,-0.70711,0.70711,0.70711,-163.28556,346.32378)" rotateDegrees="-45" matrix="[29.803345,29.803345,-29.803345,29.803345,336.40717,471.65543]" x="336.407" svgx:width="0.67" style="fill:rgb(0,0,0);font-family:Arial;font-size:42.15px;stroke:none;">S</text>
   <text y="350.386" transform="matrix(0.70711,-0.70711,0.70711,0.70711,-143.40656,354.55793)" rotateDegrees="-45" matrix="[29.803345,29.803345,-29.803345,29.803345,356.286,491.53424]" x="356.286" svgx:width="0.28" style="fill:rgb(0,0,0);font-family:Arial;font-size:42.15px;stroke:none;">I</text>
   <text y="342.1" transform="matrix(0.70711,-0.70711,0.70711,0.70711,-135.12086,357.9894)" rotateDegrees="-45" matrix="[29.803345,29.803345,-29.803345,29.803345,364.57135,499.81958]" x="364.571" svgx:width="0.78" style="fill:rgb(0,0,0);font-family:Arial;font-size:42.15px;stroke:none;">O</text>
   <text y="318.913" transform="matrix(0.70711,-0.70711,0.70711,0.70711,-111.93386,367.59377)" rotateDegrees="-45" matrix="[29.803345,29.803345,-29.803345,29.803345,387.7583,523.0066]" x="387.758" svgx:width="0.72" style="fill:rgb(0,0,0);font-family:Arial;font-size:42.15px;stroke:none;">N</text>
   <text y="297.395" transform="matrix(0.70711,-0.70711,0.70711,0.70711,-90.41586,376.50681)" rotateDegrees="-45" matrix="[29.803345,29.803345,-29.803345,29.803345,409.27637,544.5246]" x="409.276" svgx:width="0.28" style="fill:rgb(0,0,0);font-family:Arial;font-size:42.15px;stroke:none;"> </text>
   <text y="637.872" transform="matrix(0.70711,-0.70711,0.70711,0.70711,-409.94279,286.05456)" rotateDegrees="-45" matrix="[29.803345,29.803345,-29.803345,29.803345,140.32727,204.04747]" x="140.327" svgx:width="0.67" style="fill:rgb(0,0,0);font-family:Arial;font-size:42.15px;stroke:none;">S</text>
   <text y="617.994" transform="matrix(0.70711,-0.70711,0.70711,0.70711,-390.0645,294.289)" rotateDegrees="-45" matrix="[29.803345,29.803345,-29.803345,29.803345,160.2061,223.9263]" x="160.206" svgx:width="0.72" style="fill:rgb(0,0,0);font-family:Arial;font-size:42.15px;stroke:none;">U</text>
   <text y="596.476" transform="matrix(0.70711,-0.70711,0.70711,0.70711,-368.5465,303.20205)" rotateDegrees="-45" matrix="[29.803345,29.803345,-29.803345,29.803345,181.72412,245.4443]" x="181.724" svgx:width="0.67" style="fill:rgb(0,0,0);font-family:Arial;font-size:42.15px;stroke:none;">B</text>
   <text y="576.597" transform="matrix(0.70711,-0.70711,0.70711,0.70711,-348.6675,311.4362)" rotateDegrees="-45" matrix="[29.803345,29.803345,-29.803345,29.803345,201.60294,265.32315]" x="201.603" svgx:width="0.5" style="fill:rgb(0,0,0);font-family:Arial;font-size:42.15px;stroke:none;">J</text>
   <text y="561.695" transform="matrix(0.70711,-0.70711,0.70711,0.70711,-333.7655,317.60881)" rotateDegrees="-45" matrix="[29.803345,29.803345,-29.803345,29.803345,216.50462,280.22482]" x="216.505" svgx:width="0.67" style="fill:rgb(0,0,0);font-family:Arial;font-size:42.15px;stroke:none;">E</text>
   <text y="541.816" transform="matrix(0.70711,-0.70711,0.70711,0.70711,-313.88679,325.84225)" rotateDegrees="-45" matrix="[29.803345,29.803345,-29.803345,29.803345,236.38344,300.10364]" x="236.383" svgx:width="0.72" style="fill:rgb(0,0,0);font-family:Arial;font-size:42.15px;stroke:none;">C</text>
   <text y="520.298" transform="matrix(0.70711,-0.70711,0.70711,0.70711,-292.36879,334.7553)" rotateDegrees="-45" matrix="[29.803345,29.803345,-29.803345,29.803345,257.90146,321.62164]" x="257.901" svgx:width="0.61" style="fill:rgb(0,0,0);font-family:Arial;font-size:42.15px;stroke:none;">T</text>
   <text y="502.089" transform="matrix(0.70711,-0.70711,0.70711,0.70711,-274.1595,342.29842)" rotateDegrees="-45" matrix="[29.803345,29.803345,-29.803345,29.803345,276.1113,339.83148]" x="276.111" svgx:width="0.28" style="fill:rgb(0,0,0);font-family:Arial;font-size:42.15px;stroke:none;"> </text>
   <text y="493.803" transform="matrix(0.70711,-0.70711,0.70711,0.70711,-265.8735,345.7306)" rotateDegrees="-45" matrix="[29.803345,29.803345,-29.803345,29.803345,284.39664,348.11682]" x="284.397" svgx:width="0.61" style="fill:rgb(0,0,0);font-family:Arial;font-size:42.15px;stroke:none;">T</text>
   <text y="475.593" transform="matrix(0.70711,-0.70711,0.70711,0.70711,-247.66379,353.27272)" rotateDegrees="-45" matrix="[29.803345,29.803345,-29.803345,29.803345,302.60648,366.32666]" x="302.606" svgx:width="0.78" style="fill:rgb(0,0,0);font-family:Arial;font-size:42.15px;stroke:none;">O</text>
   <text y="452.406" transform="matrix(0.70711,-0.70711,0.70711,0.70711,-224.47679,362.87709)" rotateDegrees="-45" matrix="[29.803345,29.803345,-29.803345,29.803345,325.79346,389.51367]" x="325.793" svgx:width="0.28" style="fill:rgb(0,0,0);font-family:Arial;font-size:42.15px;stroke:none;"> </text>
   <text y="444.136" transform="matrix(0.70711,-0.70711,0.70711,0.70711,-216.2065,366.30334)" rotateDegrees="-45" matrix="[29.803345,29.803345,-29.803345,29.803345,334.0639,397.78412]" x="334.064" svgx:width="0.61" style="fill:rgb(0,0,0);font-family:Arial;font-size:42.15px;stroke:none;">F</text>
   <text y="425.926" transform="matrix(0.70711,-0.70711,0.70711,0.70711,-197.9965,373.84617)" rotateDegrees="-45" matrix="[29.803345,29.803345,-29.803345,29.803345,352.27374,415.99396]" x="352.274" svgx:width="0.28" style="fill:rgb(0,0,0);font-family:Arial;font-size:42.15px;stroke:none;">I</text>
   <text y="417.641" transform="matrix(0.70711,-0.70711,0.70711,0.70711,-189.7115,377.27793)" rotateDegrees="-45" matrix="[29.803345,29.803345,-29.803345,29.803345,360.55908,424.2793]" x="360.559" svgx:width="0.72" style="fill:rgb(0,0,0);font-family:Arial;font-size:42.15px;stroke:none;">N</text>
   <text y="396.123" transform="matrix(0.70711,-0.70711,0.70711,0.70711,-168.1935,386.19098)" rotateDegrees="-45" matrix="[29.803345,29.803345,-29.803345,29.803345,382.0771,445.7973]" x="382.077" svgx:width="0.67" style="fill:rgb(0,0,0);font-family:Arial;font-size:42.15px;stroke:none;">A</text>
   <text y="376.244" transform="matrix(0.70711,-0.70711,0.70711,0.70711,-148.3145,394.42513)" rotateDegrees="-45" matrix="[29.803345,29.803345,-29.803345,29.803345,401.95593,465.67615]" x="401.956" svgx:width="0.56" style="fill:rgb(0,0,0);font-family:Arial;font-size:42.15px;stroke:none;">L</text>
   <text y="359.673" transform="matrix(0.70711,-0.70711,0.70711,0.70711,-131.7435,401.28906)" rotateDegrees="-45" matrix="[29.803345,29.803345,-29.803345,29.803345,418.5266,482.24677]" x="418.527" svgx:width="0.28" style="fill:rgb(0,0,0);font-family:Arial;font-size:42.15px;stroke:none;"> </text>
   <text y="351.394" transform="matrix(0.70711,-0.70711,0.70711,0.70711,-123.4645,404.71834)" rotateDegrees="-45" matrix="[29.803345,29.803345,-29.803345,29.803345,426.80573,490.52588]" x="426.806" svgx:width="0.67" style="fill:rgb(0,0,0);font-family:Arial;font-size:42.15px;stroke:none;">E</text>
   <text y="331.515" transform="matrix(0.70711,-0.70711,0.70711,0.70711,-103.5855,412.95249)" rotateDegrees="-45" matrix="[29.803345,29.803345,-29.803345,29.803345,446.68457,510.40472]" x="446.685" svgx:width="0.72" style="fill:rgb(0,0,0);font-family:Arial;font-size:42.15px;stroke:none;">D</text>
   <text y="309.997" transform="matrix(0.70711,-0.70711,0.70711,0.70711,-82.0675,421.86554)" rotateDegrees="-45" matrix="[29.803345,29.803345,-29.803345,29.803345,468.2025,531.9227]" x="468.203" svgx:width="0.28" style="fill:rgb(0,0,0);font-family:Arial;font-size:42.15px;stroke:none;">I</text>
   <text y="301.712" transform="matrix(0.70711,-0.70711,0.70711,0.70711,-73.7825,425.29729)" rotateDegrees="-45" matrix="[29.803345,29.803345,-29.803345,29.803345,476.48785,540.20807]" x="476.488" svgx:width="0.61" style="fill:rgb(0,0,0);font-family:Arial;font-size:42.15px;stroke:none;">T</text>
   <text y="283.502" transform="matrix(0.70711,-0.70711,0.70711,0.70711,-55.5725,432.84012)" rotateDegrees="-45" matrix="[29.803345,29.803345,-29.803345,29.803345,494.6977,558.4179]" x="494.698" svgx:width="0.67" style="fill:rgb(0,0,0);font-family:Arial;font-size:42.15px;stroke:none;">S</text>
  </g>
 </g>
</svg>
