<?xml version="1.0" encoding="UTF-8"?>
<svg height="813.04" width="2582.0" xmlns="http://www.w3.org/2000/svg">
 <g id="page" xmlns:svgx="http://www.xml-cml.org/schema/svgx">
  <g begin="text">
   <text y="45.72" x="72.024,78.162,81.231,86.751,91.587,94.7,97.46,105.376,110.896,116.416,121.218,124.928,130.448,138.971,143.872,149.392,152.517,155.277,163.082,166.195,170.39,173.504,177.103,180.216,185.736,191.135,194.137,197.251,202.771" svgx:width="0.56,0.28,0.5,0.44,0.28,0.25,0.72,0.5,0.5,0.44,0.33,0.5,0.78,0.44,0.5,0.28,0.25,0.72,0.28,0.39,0.28,0.33,0.28,0.5,0.5,0.28,0.28,0.5,0.5" style="fill:rgb(0,0,0);font-family:TimesNewRomanPSMT;font-size:11.04px;stroke:none;">Final Government Distribution</text>
  </g>
  <g begin="text">
   <text y="45.72" x="208.37" svgx:width="0.25" style="fill:rgb(0,0,0);font-family:TimesNewRomanPSMT;font-size:11.04px;stroke:none;"> </text>
  </g>
  <g begin="text">
   <text y="45.72" x="211.01" svgx:width="0.25" style="fill:rgb(0,0,0);font-family:TimesNewRomanPSMT;font-size:11.04px;stroke:none;"> </text>
  </g>
  <g begin="text">
   <text y="45.72" x="216.05,218.81,221.57,224.33,227.09,229.85,232.61,235.37,238.13,240.89,243.65,246.41,249.17,251.93,254.69,257.45,260.21,262.97,265.609,268.369,271.129,273.889,276.649,279.409,282.169,284.929,287.689,290.449" svgx:width="0.25,0.25,0.25,0.25,0.25,0.25,0.25,0.25,0.25,0.25,0.25,0.25,0.25,0.25,0.25,0.25,0.25,0.25,0.25,0.25,0.25,0.25,0.25,0.25,0.25,0.25,0.25,0.25" style="fill:rgb(0,0,0);font-family:TimesNewRomanPSMT;font-size:11.04px;stroke:none;"> </text>
  </g>
  <g begin="text">
   <text y="45.72" x="293.21,300.529,305.928,310.83,316.35,319.364,324.266,327.997,330.757" svgx:width="0.67,0.5,0.44,0.5,0.28,0.44,0.33,0.25,0.5" style="fill:rgb(0,0,0);font-family:TimesNewRomanPSMT;font-size:11.04px;stroke:none;">Chapter 1</text>
  </g>
  <g begin="text">
   <text y="45.72" x="336.19" svgx:width="0.25" style="fill:rgb(0,0,0);font-family:TimesNewRomanPSMT;font-size:11.04px;stroke:none;"> </text>
  </g>
  <g begin="text">
   <text y="45.72" x="360.07,362.83,365.59,368.35,371.11,373.87,376.63,379.39,382.15,384.91,387.67,390.43,393.19,395.95,398.71,401.47,404.23,406.99,409.629,412.389,415.149,417.909,420.669,423.429,426.189,428.949,431.709,434.469,437.229" svgx:width="0.25,0.25,0.25,0.25,0.25,0.25,0.25,0.25,0.25,0.25,0.25,0.25,0.25,0.25,0.25,0.25,0.25,0.25,0.25,0.25,0.25,0.25,0.25,0.25,0.25,0.25,0.25,0.25,0.25" style="fill:rgb(0,0,0);font-family:TimesNewRomanPSMT;font-size:11.04px;stroke:none;"> </text>
  </g>
  <g begin="text">
   <text y="45.72" x="440.02,443.619,449.757,457.055,464.374" svgx:width="0.33,0.56,0.67,0.67,0.25" style="fill:rgb(0,0,0);font-family:TimesNewRomanPSMT;font-size:11.04px;stroke:none;">IPCC </text>
  </g>
  <g begin="text">
   <text y="45.72" x="467.14,475.056,482.375,487.895,490.655,501.077,509.048,512.614,516.213" svgx:width="0.72,0.67,0.5,0.25,0.94,0.72,0.33,0.33,0.33" style="fill:rgb(0,0,0);font-family:TimesNewRomanPSMT;font-size:11.04px;stroke:none;">AR6 WGIII</text>
  </g>
  <g begin="text">
   <text y="45.72" x="519.94" svgx:width="0.25" style="fill:rgb(0,0,0);font-family:TimesNewRomanPSMT;font-size:11.04px;stroke:none;"> </text>
  </g>
  <g begin="text">
   <text y="65.64" x="72.024" svgx:width="0.25" style="fill:rgb(0,0,0);font-family:TimesNewRomanPSMT;font-size:11.04px;stroke:none;"> </text>
  </g>
  <g begin="text">
   <text y="783.096" x="72.024,79.94,85.46,88.22,96.135,101.655,105.365,108.125,116.04,119.154,122.753,127.655,130.415,133.075,141.708,147.847,153.367,157.043,161.868,164.628,170.148,175.049,177.809,185.78,188.75,192.945,196.655,201.556,204.681,210.819,216.803,220.512" svgx:width="0.72,0.5,0.25,0.72,0.5,0.33,0.25,0.72,0.28,0.33,0.44,0.25,0.25,0.78,0.56,0.5,0.33,0.44,0.25,0.5,0.44,0.25,0.72,0.28,0.39,0.33,0.44,0.28,0.56,0.56,0.33,0.44" style="fill:rgb(0,0,0);font-family:TimesNewRomanPS-BoldMT;font-size:11.04px;stroke:none;">Do Not Cite, Quote or Distribute</text>
  </g>
  <g begin="text">
   <text y="783.096" x="225.41" svgx:width="0.25" style="fill:rgb(0,0,0);font-family:TimesNewRomanPS-BoldMT;font-size:11.04px;stroke:none;"> </text>
  </g>
  <g begin="text">
   <text y="783.096" x="288.05" svgx:width="0.25" style="fill:rgb(0,0,0);font-family:TimesNewRomanPS-BoldMT;font-size:11.04px;stroke:none;"> </text>
  </g>
  <g begin="text">
   <text y="783.096" x="324.07" svgx:width="0.5" style="fill:rgb(0,0,0);font-family:TimesNewRomanPSMT;font-size:11.04px;stroke:none;">1</text>
  </g>
  <g begin="text">
   <text y="783.096" x="329.59" svgx:width="0.33" style="fill:rgb(0,0,0);font-family:TimesNewRomanPSMT;font-size:11.04px;stroke:none;">-</text>
  </g>
  <g begin="text">
   <text y="783.096" x="333.19,338.71" svgx:width="0.5,0.5" style="fill:rgb(0,0,0);font-family:TimesNewRomanPSMT;font-size:11.04px;stroke:none;">43</text>
  </g>
  <g begin="text">
   <text y="783.096" x="344.23,346.99" svgx:width="0.25,0.25" style="fill:rgb(0,0,0);font-family:TimesNewRomanPSMT;font-size:11.04px;stroke:none;"> </text>
  </g>
  <g begin="text">
   <text y="783.096" x="349.75" svgx:width="0.25" style="fill:rgb(0,0,0);font-family:TimesNewRomanPSMT;font-size:11.04px;stroke:none;"> </text>
  </g>
  <g begin="text">
   <text y="783.096" x="360.07,362.83,365.59,368.35,371.11,373.87,376.63,379.39,382.15,384.91,387.67,390.43,393.19,395.95,398.71,401.47,404.23,406.99,409.629,412.389,415.149,417.909,420.669,423.429,426.189,428.949,431.709,434.469,437.229,439.989,442.627,445.387,448.147" svgx:width="0.25,0.25,0.25,0.25,0.25,0.25,0.25,0.25,0.25,0.25,0.25,0.25,0.25,0.25,0.25,0.25,0.25,0.25,0.25,0.25,0.25,0.25,0.25,0.25,0.25,0.25,0.25,0.25,0.25,0.25,0.25,0.25,0.25" style="fill:rgb(0,0,0);font-family:TimesNewRomanPSMT;font-size:11.04px;stroke:none;"> </text>
  </g>
  <g begin="text">
   <text y="783.096" x="450.94,457.685,463.205,466.175,471.077,474.201,476.487,481.885,486.787,492.307,497.231,501.426,504.539" svgx:width="0.61,0.5,0.28,0.44,0.28,0.25,0.5,0.44,0.5,0.44,0.39,0.28,0.25" style="fill:rgb(0,0,0);font-family:TimesNewRomanPSMT;font-size:11.04px;stroke:none;">Total pages: </text>
  </g>
  <g begin="text">
   <text y="783.096" x="506.98,512.5,518.02" svgx:width="0.5,0.5,0.5" style="fill:rgb(0,0,0);font-family:TimesNewRomanPSMT;font-size:11.04px;stroke:none;">106</text>
  </g>
  <g begin="text">
   <text y="783.096" x="523.42" svgx:width="0.25" style="fill:rgb(0,0,0);font-family:TimesNewRomanPSMT;font-size:9.96px;stroke:none;"> </text>
  </g>
  <g begin="text">
   <text y="803.04" x="72.024" svgx:width="0.25" style="fill:rgb(0,0,0);font-family:TimesNewRomanPSMT;font-size:11.04px;stroke:none;"> </text>
  </g>
  <g begin="text">
   <text y="463.63" x="523.54" svgx:width="0.25" style="fill:rgb(0,0,0);font-family:TimesNewRomanPSMT;font-size:8.04px;stroke:none;"> </text>
  </g>
  <g begin="text">
   <text y="463.63" x="48.48" svgx:width="0.5" style="fill:rgb(0,0,0);font-family:TimesNewRomanPSMT;font-size:11.04px;stroke:none;">1</text>
  </g>
  <g begin="text">
   <text y="463.63" x="54.0" svgx:width="0.25" style="fill:rgb(0,0,0);font-family:TimesNewRomanPSMT;font-size:11.04px;stroke:none;"> </text>
  </g>
  <g begin="text">
   <text y="480.19" x="137.66,143.765,146.534,151.554,157.092,161.514,165.936,168.466,173.496" svgx:width="0.61,0.28,0.5,0.56,0.44,0.44,0.25,0.5,0.25" style="fill:rgb(0,0,0);font-family:TimesNewRomanPS-BoldMT;font-size:9.96px;stroke:none;">Figure 1.</text>
  </g>
  <g begin="text">
   <text y="480.19" x="176.06" svgx:width="0.5" style="fill:rgb(0,0,0);font-family:TimesNewRomanPS-BoldMT;font-size:9.96px;stroke:none;">5</text>
  </g>
  <g begin="text">
   <text y="480.19" x="181.1" svgx:width="0.33" style="fill:rgb(0,0,0);font-family:TimesNewRomanPS-BoldMT;font-size:9.96px;stroke:none;">:</text>
  </g>
  <g begin="text">
   <text y="480.19" x="184.46" svgx:width="0.25" style="fill:rgb(0,0,0);font-family:TimesNewRomanPS-BoldMT;font-size:9.96px;stroke:none;"> </text>
  </g>
  <g begin="text">
   <text y="480.19" x="187.01,192.548,198.046,201.89,205.237,210.267,213.036,218.573,223.573,229.111,231.88,236.302,238.792,244.33,248.752,253.802,258.224,260.993,266.033,271.57,279.947,284.369,289.907,293.253,295.763,301.301,306.311,309.657,315.195,322.386,327.406,332.436,336.281,338.791,342.137,347.167,354.358,359.398,363.82,369.358,373.202,375.712,378.949,384.487,387.256,390.573,393.341,396.11,398.879,401.648,407.146,412.176,414.686,418.032,423.57,427.992,430.502,436.04,443.231,451.01" svgx:width="0.56,0.56,0.39,0.33,0.5,0.28,0.56,0.5,0.56,0.28,0.44,0.25,0.56,0.44,0.5,0.44,0.28,0.5,0.56,0.83,0.44,0.56,0.33,0.25,0.56,0.5,0.33,0.56,0.72,0.5,0.5,0.39,0.25,0.33,0.5,0.72,0.5,0.44,0.56,0.39,0.25,0.33,0.56,0.28,0.33,0.28,0.28,0.28,0.28,0.56,0.5,0.25,0.33,0.56,0.44,0.25,0.56,0.72,0.78,0.39" style="fill:rgb(0,0,0);font-family:TimesNewRomanPS-BoldMT;font-size:9.96px;stroke:none;">Sustainable development pathways towards fulfilling the SDGs</text>
  </g>
  <g begin="text">
   <text y="480.19" x="455.14" svgx:width="0.25" style="fill:rgb(0,0,0);font-family:TimesNewRomanPS-BoldMT;font-size:9.96px;stroke:none;">.</text>
  </g>
  <g begin="text">
   <text y="480.19" x="457.78" svgx:width="0.25" style="fill:rgb(0,0,0);font-family:TimesNewRomanPS-BoldMT;font-size:9.96px;stroke:none;"> </text>
  </g>
  <g begin="text">
   <text y="480.19" x="48.48" svgx:width="0.5" style="fill:rgb(0,0,0);font-family:TimesNewRomanPSMT;font-size:11.04px;stroke:none;">2</text>
  </g>
  <g begin="text">
   <text y="480.19" x="54.0" svgx:width="0.25" style="fill:rgb(0,0,0);font-family:TimesNewRomanPSMT;font-size:11.04px;stroke:none;"> </text>
  </g>
  <g begin="text">
   <text y="492.79" x="74.784,81.388,86.925,91.348,93.857,98.887,103.309,108.359,113.897,119.395,121.905,125.749,131.287,136.297,143.608,147.452" svgx:width="0.67,0.56,0.44,0.25,0.5,0.44,0.5,0.56,0.56,0.25,0.39,0.56,0.5,0.72,0.39,0.25" style="fill:rgb(0,0,0);font-family:TimesNewRomanPS-BoldMT;font-size:9.96px;stroke:none;">The graph shows </text>
  </g>
  <g begin="text">
   <text y="492.79" x="150.02,155.05,157.819,162.838,168.376,173.386,176.155,178.645,183.695,188.725,193.147,197.489,202.519,207.549,211.971" svgx:width="0.5,0.28,0.5,0.56,0.5,0.28,0.25,0.5,0.5,0.44,0.44,0.5,0.5,0.44,0.25" style="fill:rgb(0,0,0);font-family:TimesNewRomanPS-BoldMT;font-size:9.96px;stroke:none;">global average </text>
  </g>
  <g begin="text">
   <text y="492.79" x="214.61,220.148,224.57,228.992,231.522,235.944,240.994,246.532,249.301,252.617,257.667,260.177,267.856,275.645,283.434,285.943,290.266,298.652,301.421,305.256,309.1,311.869,316.889,322.427,326.252" svgx:width="0.56,0.44,0.44,0.25,0.44,0.5,0.56,0.28,0.33,0.5,0.25,0.78,0.78,0.78,0.25,0.44,0.83,0.28,0.39,0.39,0.28,0.5,0.56,0.39,0.25" style="fill:rgb(0,0,0);font-family:TimesNewRomanPS-BoldMT;font-size:9.96px;stroke:none;">per capita GHG emissions </text>
  </g>
  <g begin="text">
   <text y="492.79" x="328.87,332.217,337.246,341.669,346.121,349.467,352.236,356.658,361.698,364.467,366.957,372.007,377.037,379.806,383.64,386.987" svgx:width="0.33,0.5,0.44,0.44,0.33,0.28,0.44,0.5,0.28,0.25,0.5,0.5,0.28,0.39,0.33,0.25" style="fill:rgb(0,0,0);font-family:TimesNewRomanPS-BoldMT;font-size:9.96px;stroke:none;">(vertical axis) </text>
  </g>
  <g begin="text">
   <text y="492.79" x="389.59,394.62,400.158,405.656" svgx:width="0.5,0.56,0.56,0.25" style="fill:rgb(0,0,0);font-family:TimesNewRomanPS-BoldMT;font-size:9.96px;stroke:none;">and </text>
  </g>
  <g begin="text">
   <text y="492.79" x="408.19,412.612,417.064,419.833,424.853,428.2,430.969,435.879,440.301" svgx:width="0.44,0.44,0.28,0.5,0.33,0.28,0.5,0.44,0.25" style="fill:rgb(0,0,0);font-family:TimesNewRomanPS-BoldMT;font-size:9.96px;stroke:none;">relative </text>
  </g>
  <g begin="text">
   <text y="492.79" x="442.9,448.428,456.207,458.975,462.81,466.157,471.186,475.609,478.378,482.8,485.34,489.184,494.722,500.22,504.642,509.692,512.202,517.232,520.578" svgx:width="0.56,0.78,0.28,0.39,0.33,0.5,0.44,0.28,0.44,0.25,0.39,0.56,0.56,0.44,0.5,0.25,0.5,0.33,0.25" style="fill:rgb(0,0,0);font-family:TimesNewRomanPS-BoldMT;font-size:9.96px;stroke:none;">"Historic Index of </text>
  </g>
  <g begin="text">
   <text y="492.79" x="48.48" svgx:width="0.5" style="fill:rgb(0,0,0);font-family:TimesNewRomanPSMT;font-size:11.04px;stroke:none;">3</text>
  </g>
  <g begin="text">
   <text y="492.79" x="54.0" svgx:width="0.25" style="fill:rgb(0,0,0);font-family:TimesNewRomanPSMT;font-size:11.04px;stroke:none;"> </text>
  </g>
  <g begin="text">
   <text y="505.51" x="77.784,85.573,91.11,99.487,104.517,110.054,112.544,119.735,124.188,129.217,133.64,136.409,141.448,146.986,155.362,159.785,165.322,168.669,174.197,176.687,180.063,187.852,191.696,199.376,206.567,209.923,212.433,215.202,219.624,224.664,229.086,231.855,235.73" svgx:width="0.78,0.56,0.83,0.5,0.56,0.25,0.72,0.44,0.5,0.44,0.28,0.5,0.56,0.83,0.44,0.56,0.33,0.56,0.25,0.33,0.78,0.39,0.78,0.72,0.33,0.25,0.28,0.44,0.5,0.44,0.28,0.39,0.25" style="fill:rgb(0,0,0);font-family:TimesNewRomanPS-BoldMT;font-size:9.96px;stroke:none;">Human Development" (HIHD) levels </text>
  </g>
  <g begin="text">
   <text y="505.51" x="238.37,241.717,247.254,252.264,256.686,259.455,263.878,268.937,274.475,279.485,282.254,285.59" svgx:width="0.33,0.56,0.5,0.44,0.28,0.44,0.5,0.56,0.5,0.28,0.33,0.25" style="fill:rgb(0,0,0);font-family:TimesNewRomanPS-BoldMT;font-size:9.96px;stroke:none;">(horizonal) </text>
  </g>
  <g begin="text">
   <text y="505.51" x="288.17,293.708,298.718,303.747,308.17,310.7,313.468,318.857,323.279,327.731,332.153,337.203,341.048,345.47,351.008,353.518,358.547,361.316,366.336,371.874,376.884,379.653,382.422,387.431,389.941,393.786,396.555,402.093,406.515,410.937,413.457,416.804,422.341,426.764,429.273,432.042,437.66,443.198,448.695,452.54,455.887,460.309,463.078,468.117,470.886,473.376,477.828,482.251,487.3,492.33,495.099,500.637,503.954,506.722,511.762,517.3" svgx:width="0.56,0.5,0.5,0.44,0.25,0.28,0.56,0.44,0.44,0.44,0.5,0.39,0.44,0.56,0.25,0.5,0.28,0.5,0.56,0.5,0.28,0.28,0.5,0.25,0.39,0.28,0.56,0.44,0.44,0.25,0.33,0.56,0.44,0.25,0.28,0.56,0.56,0.56,0.39,0.33,0.44,0.28,0.5,0.28,0.25,0.44,0.44,0.5,0.5,0.28,0.56,0.33,0.28,0.5,0.56,0.25" style="fill:rgb(0,0,0);font-family:TimesNewRomanPS-BoldMT;font-size:9.96px;stroke:none;">have increased globally since the industrial revolution </text>
  </g>
  <g begin="text">
   <text y="505.51" x="48.48" svgx:width="0.5" style="fill:rgb(0,0,0);font-family:TimesNewRomanPSMT;font-size:11.04px;stroke:none;">4</text>
  </g>
  <g begin="text">
   <text y="505.51" x="54.0" svgx:width="0.25" style="fill:rgb(0,0,0);font-family:TimesNewRomanPSMT;font-size:11.04px;stroke:none;"> </text>
  </g>
  <g begin="text">
   <text y="518.11" x="76.464,79.811,84.84,89.263,93.715,98.745,101.254,104.023,106.792,112.29,116.712,120.079,122.589,125.099,131.702,137.24,141.662,144.172,149.71,155.208,160.746,166.243,169.012,173.554,177.399,179.909,184.938,190.476,192.966,196.333,201.87,206.293,208.803,213.832,218.255,223.304,228.842,234.34,236.85,240.695,246.232,251.242,258.433,260.953,265.375,269.827,274.857,277.626,282.646,288.184,293.194,295.963,298.453,303.99,308.413,312.865,315.375,319.797,324.847,330.384,333.153,336.47,341.52,344.03,351.818,359.607,367.396,369.905,374.228,382.615,385.383,389.218,393.063,395.832,400.851,406.389,410.214,412.724,417.753,423.291,428.789,431.299,436.926,442.464,450.841,455.87,461.408,463.898,469.436,473.858,478.898,483.32,486.089,491.129,496.666,505.043,509.465,515.003,518.349" svgx:width="0.33,0.5,0.44,0.44,0.5,0.25,0.28,0.28,0.56,0.44,0.33,0.25,0.25,0.67,0.56,0.44,0.25,0.56,0.56,0.56,0.56,0.28,0.44,0.39,0.25,0.5,0.56,0.25,0.33,0.56,0.44,0.25,0.5,0.44,0.5,0.56,0.56,0.25,0.39,0.56,0.5,0.72,0.25,0.44,0.44,0.5,0.28,0.5,0.56,0.5,0.28,0.25,0.56,0.44,0.44,0.25,0.44,0.5,0.56,0.28,0.33,0.5,0.25,0.78,0.78,0.78,0.25,0.44,0.83,0.28,0.39,0.39,0.28,0.5,0.56,0.39,0.25,0.5,0.56,0.56,0.25,0.56,0.56,0.83,0.5,0.56,0.25,0.56,0.44,0.5,0.44,0.28,0.5,0.56,0.83,0.44,0.56,0.33,0.25" style="fill:rgb(0,0,0);font-family:TimesNewRomanPS-BoldMT;font-size:9.96px;stroke:none;">(grey line). The bubbles on the graph show regional per capita GHG emissions and human development </text>
  </g>
  <g begin="text">
   <text y="518.11" x="48.48" svgx:width="0.5" style="fill:rgb(0,0,0);font-family:TimesNewRomanPSMT;font-size:11.04px;stroke:none;">5</text>
  </g>
  <g begin="text">
   <text y="518.11" x="54.0" svgx:width="0.25" style="fill:rgb(0,0,0);font-family:TimesNewRomanPSMT;font-size:11.04px;stroke:none;"> </text>
  </g>
  <g begin="text">
   <text y="530.83" x="82.704,85.473,89.895,94.935,99.357,102.126,106.0,108.49,111.259,116.797,119.287,122.644,128.181,132.604,135.114,140.143,144.566,149.615,154.038,156.567,161.597,166.627,171.547" svgx:width="0.28,0.44,0.5,0.44,0.28,0.39,0.25,0.28,0.56,0.25,0.33,0.56,0.44,0.25,0.5,0.44,0.5,0.44,0.25,0.5,0.5,0.5,0.5" style="fill:rgb(0,0,0);font-family:TimesNewRomanPS-BoldMT;font-size:9.96px;stroke:none;">levels in the year 2015</text>
  </g>
  <g begin="text">
   <text y="530.83" x="176.66,179.17,181.68,184.449,187.218,189.986,195.484,199.329,202.676,207.098,212.147,215.494,218.263,223.801" svgx:width="0.25,0.25,0.28,0.28,0.28,0.56,0.39,0.33,0.44,0.5,0.33,0.28,0.56,0.5" style="fill:rgb(0,0,0);font-family:TimesNewRomanPS-BoldMT;font-size:9.96px;stroke:none;">, illustrating</text>
  </g>
  <g begin="text">
   <text y="530.83" x="228.89" svgx:width="0.25" style="fill:rgb(0,0,0);font-family:TimesNewRomanPS-BoldMT;font-size:9.96px;stroke:none;"> </text>
  </g>
  <g begin="text">
   <text y="530.83" x="231.41,234.179,239.199,243.621,248.671,253.093,255.623,261.16,263.929,267.744,273.282,278.292,282.714,285.483,288.839,291.608,296.031" svgx:width="0.28,0.5,0.44,0.5,0.44,0.25,0.56,0.28,0.39,0.56,0.5,0.44,0.28,0.33,0.28,0.44,0.39" style="fill:rgb(0,0,0);font-family:TimesNewRomanPS-BoldMT;font-size:9.96px;stroke:none;">large disparities</text>
  </g>
  <g begin="text">
   <text y="530.83" x="299.93,302.45" svgx:width="0.25,0.25" style="fill:rgb(0,0,0);font-family:TimesNewRomanPS-BoldMT;font-size:9.96px;stroke:none;">. </text>
  </g>
  <g begin="text">
   <text y="530.83" x="304.97" svgx:width="0.61" style="fill:rgb(0,0,0);font-family:TimesNewRomanPS-BoldMT;font-size:9.96px;stroke:none;">P</text>
  </g>
  <g begin="text">
   <text y="530.83" x="311.11,316.14,319.486" svgx:width="0.5,0.33,0.56" style="fill:rgb(0,0,0);font-family:TimesNewRomanPS-BoldMT;font-size:9.96px;stroke:none;">ath</text>
  </g>
  <g begin="text">
   <text y="530.83" x="325.03,332.221,337.261,342.291" svgx:width="0.72,0.5,0.5,0.39" style="fill:rgb(0,0,0);font-family:TimesNewRomanPS-BoldMT;font-size:9.96px;stroke:none;">ways</text>
  </g>
  <g begin="text">
   <text y="530.83" x="346.15" svgx:width="0.25" style="fill:rgb(0,0,0);font-family:TimesNewRomanPS-BoldMT;font-size:9.96px;stroke:none;"> </text>
  </g>
  <g begin="text">
   <text y="530.83" x="348.67,352.017,357.046,364.238,369.277,373.699,379.237,383.082,385.592,388.938,394.476,397.245,400.562,403.331,406.099,408.868,411.637,417.135,422.165,424.675,428.021,433.559,437.981,440.491,446.597,451.627,456.049,458.818,462.692,465.182,472.373,477.413,481.835,486.287,490.71,499.116,503.538,509.076" svgx:width="0.33,0.5,0.72,0.5,0.44,0.56,0.39,0.25,0.33,0.56,0.28,0.33,0.28,0.28,0.28,0.28,0.56,0.5,0.25,0.33,0.56,0.44,0.25,0.61,0.5,0.44,0.28,0.39,0.25,0.72,0.5,0.44,0.44,0.44,0.83,0.44,0.56,0.33" style="fill:rgb(0,0,0);font-family:TimesNewRomanPS-BoldMT;font-size:9.96px;stroke:none;">towards fulfilling the Paris Agreement</text>
  </g>
  <g begin="text">
   <text y="530.83" x="512.62" svgx:width="0.25" style="fill:rgb(0,0,0);font-family:TimesNewRomanPS-BoldMT;font-size:9.96px;stroke:none;"> </text>
  </g>
  <g begin="text">
   <text y="530.83" x="48.48" svgx:width="0.5" style="fill:rgb(0,0,0);font-family:TimesNewRomanPSMT;font-size:11.04px;stroke:none;">6</text>
  </g>
  <g begin="text">
   <text y="530.83" x="54.0" svgx:width="0.25" style="fill:rgb(0,0,0);font-family:TimesNewRomanPSMT;font-size:11.04px;stroke:none;"> </text>
  </g>
  <g begin="text">
   <text y="543.43" x="76.824" svgx:width="0.33" style="fill:rgb(0,0,0);font-family:TimesNewRomanPS-BoldMT;font-size:9.96px;stroke:none;">(</text>
  </g>
  <g begin="text">
   <text y="543.43" x="80.184,85.214,90.752,96.25,98.759,104.297,111.488,119.267,121.777,126.807" svgx:width="0.5,0.56,0.56,0.25,0.56,0.72,0.78,0.25,0.5,0.5" style="fill:rgb(0,0,0);font-family:TimesNewRomanPS-BoldMT;font-size:9.96px;stroke:none;">and SDG 13</text>
  </g>
  <g begin="text">
   <text y="543.43" x="131.9" svgx:width="0.33" style="fill:rgb(0,0,0);font-family:TimesNewRomanPS-BoldMT;font-size:9.96px;stroke:none;">)</text>
  </g>
  <g begin="text">
   <text y="543.43" x="135.26" svgx:width="0.25" style="fill:rgb(0,0,0);font-family:TimesNewRomanPS-BoldMT;font-size:9.96px;stroke:none;"> </text>
  </g>
  <g begin="text">
   <text y="543.43" x="137.78,140.549,146.087,151.087,156.116,158.885,163.905" svgx:width="0.28,0.56,0.5,0.5,0.28,0.5,0.44" style="fill:rgb(0,0,0);font-family:TimesNewRomanPS-BoldMT;font-size:9.96px;stroke:none;">involve</text>
  </g>
  <g begin="text">
   <text y="543.43" x="168.38" svgx:width="0.25" style="fill:rgb(0,0,0);font-family:TimesNewRomanPS-BoldMT;font-size:9.96px;stroke:none;"> </text>
  </g>
  <g begin="text">
   <text y="543.43" x="170.78,175.81,178.579,183.598,189.136,194.146,196.915" svgx:width="0.5,0.28,0.5,0.56,0.5,0.28,0.25" style="fill:rgb(0,0,0);font-family:TimesNewRomanPS-BoldMT;font-size:9.96px;stroke:none;">global </text>
  </g>
  <g begin="text">
   <text y="543.43" x="199.37,204.4,209.43,213.852,218.304,223.334,228.364,232.686" svgx:width="0.5,0.5,0.44,0.44,0.5,0.5,0.44,0.25" style="fill:rgb(0,0,0);font-family:TimesNewRomanPS-BoldMT;font-size:9.96px;stroke:none;">average </text>
  </g>
  <g begin="text">
   <text y="543.43" x="235.25,240.788,245.21,249.632,252.162,256.584,261.634,267.172,269.941,273.257,278.307,280.817,288.606,296.394,304.074,306.583,311.006,319.412,322.051,325.896,329.741,332.509,337.529,343.067,346.892" svgx:width="0.56,0.44,0.44,0.25,0.44,0.5,0.56,0.28,0.33,0.5,0.25,0.78,0.78,0.78,0.25,0.44,0.83,0.28,0.39,0.39,0.28,0.5,0.56,0.39,0.25" style="fill:rgb(0,0,0);font-family:TimesNewRomanPS-BoldMT;font-size:9.96px;stroke:none;">per capita GHG emissions </text>
  </g>
  <g begin="text">
   <text y="543.43" x="349.63,355.168,359.59,362.359,367.379,374.57,377.09,382.12,387.657,392.667,398.205,401.522,404.061" svgx:width="0.56,0.44,0.28,0.5,0.72,0.25,0.5,0.56,0.5,0.56,0.33,0.25,0.5" style="fill:rgb(0,0,0);font-family:TimesNewRomanPS-BoldMT;font-size:9.96px;stroke:none;">below about 5</text>
  </g>
  <g begin="text">
   <text y="543.43" x="409.15" svgx:width="0.25" style="fill:rgb(0,0,0);font-family:TimesNewRomanPS-BoldMT;font-size:9.96px;stroke:none;"> </text>
  </g>
  <g begin="text">
   <text y="543.43" x="411.67,415.017,422.208" svgx:width="0.33,0.72,0.78" style="fill:rgb(0,0,0);font-family:TimesNewRomanPS-BoldMT;font-size:9.96px;stroke:none;">tCO</text>
  </g>
  <g begin="text">
   <text y="543.91" x="430.03" svgx:width="0.5" style="fill:rgb(0,0,0);font-family:TimesNewRomanPS-BoldMT;font-size:6.48px;stroke:none;">2</text>
  </g>
  <g begin="text">
   <text y="543.43" x="433.27,437.71" svgx:width="0.44,0.25" style="fill:rgb(0,0,0);font-family:TimesNewRomanPS-BoldMT;font-size:9.96px;stroke:none;">e </text>
  </g>
  <g begin="text">
   <text y="543.43" x="440.14,445.678,450.688" svgx:width="0.56,0.5,0.25" style="fill:rgb(0,0,0);font-family:TimesNewRomanPS-BoldMT;font-size:9.96px;stroke:none;">by </text>
  </g>
  <g begin="text">
   <text y="543.43" x="453.22,458.25,463.28,468.309,473.23,475.74,478.25,484.853,487.622,493.239,497.662,504.853,507.622,511.496,515.918,518.428" svgx:width="0.5,0.5,0.5,0.5,0.25,0.25,0.67,0.28,0.56,0.44,0.72,0.28,0.39,0.44,0.25,0.25" style="fill:rgb(0,0,0);font-family:TimesNewRomanPS-BoldMT;font-size:9.96px;stroke:none;">2030. Likewise, </text>
  </g>
  <g begin="text">
   <text y="543.43" x="48.48" svgx:width="0.5" style="fill:rgb(0,0,0);font-family:TimesNewRomanPSMT;font-size:11.04px;stroke:none;">7</text>
  </g>
  <g begin="text">
   <text y="543.43" x="54.0" svgx:width="0.25" style="fill:rgb(0,0,0);font-family:TimesNewRomanPSMT;font-size:11.04px;stroke:none;"> </text>
  </g>
  <g begin="text">
   <text y="556.03" x="80.424,83.771,88.8,91.31,94.657,100.195,102.964,106.28,109.049,111.818,114.308,119.846,127.037,134.845,138.69,141.2,146.23,148.74,151.25,156.279,158.789,163.819,169.357,174.855,177.365,182.395,184.795,187.305,195.093,198.938,206.727,213.918,216.438,219.207,223.629,228.669,233.091,235.86" svgx:width="0.33,0.5,0.25,0.33,0.56,0.28,0.33,0.28,0.28,0.25,0.56,0.72,0.78,0.39,0.25,0.5,0.25,0.25,0.5,0.25,0.5,0.56,0.56,0.25,0.5,0.25,0.25,0.78,0.39,0.78,0.72,0.25,0.28,0.44,0.5,0.44,0.28,0.39" style="fill:rgb(0,0,0);font-family:TimesNewRomanPS-BoldMT;font-size:9.96px;stroke:none;">to fulfil SDGs 3, 4 and 8, HIHD levels</text>
  </g>
  <g begin="text">
   <text y="556.03" x="239.93" svgx:width="0.25" style="fill:rgb(0,0,0);font-family:TimesNewRomanPS-BoldMT;font-size:9.96px;stroke:none;"> </text>
  </g>
  <g begin="text">
   <text y="556.03" x="242.45,245.797,249.641,254.063,258.516,261.025,264.372,269.402,274.432,277.778,283.316,288.326,291.672,296.095,298.515,303.545" svgx:width="0.33,0.39,0.44,0.44,0.25,0.33,0.5,0.5,0.33,0.56,0.5,0.33,0.44,0.25,0.5,0.33" style="fill:rgb(0,0,0);font-family:TimesNewRomanPS-BoldMT;font-size:9.96px;stroke:none;">(see footnote 7)</text>
  </g>
  <g begin="text">
   <text y="556.03" x="307.01" svgx:width="0.25" style="fill:rgb(0,0,0);font-family:TimesNewRomanPS-BoldMT;font-size:9.96px;stroke:none;"> </text>
  </g>
  <g begin="text">
   <text y="556.03" x="309.53,315.068,319.37,323.793,329.33,331.84,335.187,340.217,342.727,348.264,352.687,355.197,360.226,363.573,366.083,368.852,373.274,378.314,382.158,385.505,387.905,392.935,395.445,400.475,402.875,407.905,412.327,414.857,419.887,424.309,428.761,433.681,437.028,441.351,445.773,448.303" svgx:width="0.56,0.44,0.44,0.56,0.25,0.33,0.5,0.25,0.56,0.44,0.25,0.5,0.33,0.25,0.28,0.44,0.5,0.39,0.33,0.25,0.5,0.25,0.5,0.25,0.5,0.44,0.25,0.5,0.44,0.44,0.5,0.33,0.44,0.44,0.25,0.25" style="fill:rgb(0,0,0);font-family:TimesNewRomanPS-BoldMT;font-size:9.96px;stroke:none;">need to be at least 0.5 or greater. </text>
  </g>
  <g begin="text">
   <text y="556.03" x="451.06,457.664,463.201,465.97,469.785,472.295,476.249,481.787,486.797,491.826,496.249,500.123,503.44,507.314" svgx:width="0.67,0.56,0.28,0.39,0.25,0.39,0.56,0.5,0.5,0.44,0.39,0.33,0.39,0.25" style="fill:rgb(0,0,0);font-family:TimesNewRomanPS-BoldMT;font-size:9.96px;stroke:none;">This suggests </text>
  </g>
  <g begin="text">
   <text y="556.03" x="509.86,514.9" svgx:width="0.5,0.25" style="fill:rgb(0,0,0);font-family:TimesNewRomanPS-BoldMT;font-size:9.96px;stroke:none;">a </text>
  </g>
  <g begin="text">
   <text y="556.03" x="48.48" svgx:width="0.5" style="fill:rgb(0,0,0);font-family:TimesNewRomanPSMT;font-size:11.04px;stroke:none;">8</text>
  </g>
  <g begin="text">
   <text y="556.03" x="54.0" svgx:width="0.25" style="fill:rgb(0,0,0);font-family:TimesNewRomanPSMT;font-size:11.04px;stroke:none;"> </text>
  </g>
  <g begin="text">
   <text y="568.75" x="83.544" svgx:width="0.33" style="fill:rgb(0,0,0);font-family:TimesNewRomanPS-BoldMT;font-size:9.96px;stroke:none;">‘</text>
  </g>
  <g begin="text">
   <text y="568.75" x="86.904,90.749,96.286,100.111,103.458,108.487,111.256,116.794,121.794,127.332,130.101,134.523,137.013,142.551,146.973,152.022,156.445,159.214,164.253,169.791,178.168,182.59,188.128,191.474,193.984,198.406,203.456,208.994" svgx:width="0.39,0.56,0.39,0.33,0.5,0.28,0.56,0.5,0.56,0.28,0.44,0.25,0.56,0.44,0.5,0.44,0.28,0.5,0.56,0.83,0.44,0.56,0.33,0.25,0.44,0.5,0.56,0.44" style="fill:rgb(0,0,0);font-family:TimesNewRomanPS-BoldMT;font-size:9.96px;stroke:none;">sustainable development zone</text>
  </g>
  <g begin="text">
   <text y="568.75" x="213.53" svgx:width="0.33" style="fill:rgb(0,0,0);font-family:TimesNewRomanPS-BoldMT;font-size:9.96px;stroke:none;">’</text>
  </g>
  <g begin="text">
   <text y="568.75" x="216.89" svgx:width="0.25" style="fill:rgb(0,0,0);font-family:TimesNewRomanPS-BoldMT;font-size:9.96px;stroke:none;"> </text>
  </g>
  <g begin="text">
   <text y="568.75" x="219.41,222.757,227.786,232.209,234.738,239.768,244.19,249.131,253.553,256.083,261.113,266.033,271.063,276.092,278.602,281.949,284.718,290.256,292.746,297.775,302.198,306.65,311.072,316.61" svgx:width="0.33,0.5,0.44,0.25,0.5,0.44,0.5,0.44,0.25,0.5,0.5,0.5,0.5,0.25,0.33,0.28,0.56,0.25,0.5,0.44,0.44,0.44,0.56,0.33" style="fill:rgb(0,0,0);font-family:TimesNewRomanPS-BoldMT;font-size:9.96px;stroke:none;">for year 2030 (in green)</text>
  </g>
  <g begin="text">
   <text y="568.75" x="319.99,323.337,325.737,329.083,334.621,339.043,341.553,344.322" svgx:width="0.33,0.25,0.33,0.56,0.44,0.25,0.28,0.56" style="fill:rgb(0,0,0);font-family:TimesNewRomanPS-BoldMT;font-size:9.96px;stroke:none;">; the in</text>
  </g>
  <g begin="text">
   <text y="568.75" x="349.87" svgx:width="0.33" style="fill:rgb(0,0,0);font-family:TimesNewRomanPS-BoldMT;font-size:9.96px;stroke:none;">-</text>
  </g>
  <g begin="text">
   <text y="568.75" x="353.23,356.577,359.345,364.365,369.903,374.325,378.748,381.277,384.624,389.046,394.096,397.442,399.952,404.982,407.751,411.586,416.615,419.125,422.97,428.508,433.518,438.547,442.97,446.705,450.051,453.896,456.406,461.435" svgx:width="0.33,0.28,0.5,0.56,0.44,0.44,0.25,0.33,0.44,0.5,0.33,0.25,0.5,0.28,0.39,0.5,0.25,0.39,0.56,0.5,0.5,0.44,0.39,0.33,0.39,0.25,0.5,0.25" style="fill:rgb(0,0,0);font-family:TimesNewRomanPS-BoldMT;font-size:9.96px;stroke:none;">figure text also suggests a </text>
  </g>
  <g begin="text">
   <text y="568.75" x="464.14,467.985,473.522,477.347,480.694,485.723,488.492,494.03,499.03,504.568,507.337,511.759" svgx:width="0.39,0.56,0.39,0.33,0.5,0.28,0.56,0.5,0.56,0.28,0.44,0.25" style="fill:rgb(0,0,0);font-family:TimesNewRomanPS-BoldMT;font-size:9.96px;stroke:none;">sustainable </text>
  </g>
  <g begin="text">
   <text y="568.75" x="48.48" svgx:width="0.5" style="fill:rgb(0,0,0);font-family:TimesNewRomanPSMT;font-size:11.04px;stroke:none;">9</text>
  </g>
  <g begin="text">
   <text y="568.75" x="54.0" svgx:width="0.25" style="fill:rgb(0,0,0);font-family:TimesNewRomanPSMT;font-size:11.04px;stroke:none;"> </text>
  </g>
  <g begin="text">
   <text y="581.35" x="75.384,80.922,85.344,90.374,94.796,97.565,102.605,108.142,116.519,120.941,126.479,129.825,132.335,136.757,141.807,146.23,150.682,153.45,158.988,163.988,168.41,170.94,173.45,180.641,186.179,190.601,195.024,199.476,201.986,206.408,211.458,216.995,222.493,225.84,230.262,233.031,237.453,241.328,243.818,246.587,249.355,257.752,260.521,263.857,266.367,271.905,276.327,280.749,283.279,287.701,292.751,298.289,301.058,304.374,309.424,311.825,319.613,327.402,335.191,337.701,342.123,350.529,353.298,357.132,360.977,363.746,368.766,374.304,378.128,380.638,387.829,393.367,396.136,398.905,403.327,405.817,408.586,416.992,422.53,426.952,431.982,437.012,439.781,445.318,450.318,452.828,455.597,460.019,465.059,469.481,472.25,476.125,478.615,483.645,486.991,489.501,495.039,500.537,508.923" svgx:width="0.56,0.44,0.5,0.44,0.28,0.5,0.56,0.83,0.44,0.56,0.33,0.25,0.44,0.5,0.44,0.44,0.28,0.56,0.5,0.44,0.25,0.25,0.72,0.56,0.44,0.44,0.44,0.25,0.44,0.5,0.56,0.56,0.33,0.44,0.28,0.44,0.39,0.25,0.28,0.28,0.83,0.28,0.33,0.25,0.56,0.44,0.44,0.25,0.44,0.5,0.56,0.28,0.33,0.5,0.25,0.78,0.78,0.78,0.25,0.44,0.83,0.28,0.39,0.39,0.28,0.5,0.56,0.39,0.25,0.72,0.56,0.28,0.28,0.44,0.25,0.28,0.83,0.56,0.44,0.5,0.5,0.28,0.56,0.5,0.25,0.28,0.44,0.5,0.44,0.28,0.39,0.25,0.5,0.33,0.25,0.56,0.56,0.83,0.5" style="fill:rgb(0,0,0);font-family:TimesNewRomanPS-BoldMT;font-size:9.96px;stroke:none;">development corridor, where countries limit per capita GHG emissions while improving levels of huma</text>
  </g>
  <g begin="text">
   <text y="581.35" x="514.42,519.94" svgx:width="0.56,0.25" style="fill:rgb(0,0,0);font-family:TimesNewRomanPS-BoldMT;font-size:9.96px;stroke:none;">n </text>
  </g>
  <g begin="text">
   <text y="581.35" x="42.96,48.48" svgx:width="0.5,0.5" style="fill:rgb(0,0,0);font-family:TimesNewRomanPSMT;font-size:11.04px;stroke:none;">10</text>
  </g>
  <g begin="text">
   <text y="581.35" x="54.0" svgx:width="0.25" style="fill:rgb(0,0,0);font-family:TimesNewRomanPSMT;font-size:11.04px;stroke:none;"> </text>
  </g>
  <g begin="text">
   <text y="594.07" x="78.864,84.402,88.824,93.854,98.276,101.045,106.085,111.622,119.999,124.421,129.959,133.305,135.815,140.845,145.875,150.297,154.749,157.15,160.496,163.265,171.641,176.064,178.594,181.103,183.613,190.217,195.755,200.057" svgx:width="0.56,0.44,0.5,0.44,0.28,0.5,0.56,0.83,0.44,0.56,0.33,0.25,0.5,0.5,0.44,0.44,0.25,0.33,0.28,0.83,0.44,0.25,0.25,0.25,0.67,0.56,0.44,0.25" style="fill:rgb(0,0,0);font-family:TimesNewRomanPS-BoldMT;font-size:9.96px;stroke:none;">development over time. The </text>
  </g>
  <g begin="text">
   <text y="594.07" x="202.73,207.152,215.559,221.096,226.594,231.624,235.468,238.237,242.072,244.582,249.612,252.958,255.468,261.006,266.016,269.362,274.9,282.091,287.111,292.141,295.986" svgx:width="0.44,0.83,0.56,0.56,0.5,0.39,0.28,0.39,0.25,0.5,0.33,0.25,0.56,0.5,0.33,0.56,0.72,0.5,0.5,0.39,0.25" style="fill:rgb(0,0,0);font-family:TimesNewRomanPS-BoldMT;font-size:9.96px;stroke:none;">emphasis of pathways </text>
  </g>
  <g begin="text">
   <text y="594.07" x="298.61,301.379,306.917,310.233,315.283" svgx:width="0.28,0.56,0.33,0.5,0.25" style="fill:rgb(0,0,0);font-family:TimesNewRomanPS-BoldMT;font-size:9.96px;stroke:none;">into </text>
  </g>
  <g begin="text">
   <text y="594.07" x="317.83,321.067,326.605,331.027" svgx:width="0.33,0.56,0.44,0.25" style="fill:rgb(0,0,0);font-family:TimesNewRomanPS-BoldMT;font-size:9.96px;stroke:none;">the </text>
  </g>
  <g begin="text">
   <text y="594.07" x="333.55,337.395,342.932,346.757,350.104,355.133,357.902,363.44,368.44,373.978,376.747,381.169,383.788,389.326,393.748,398.778,403.2,405.969,411.009,416.547,424.923,429.345,434.883,438.23,440.74,445.162,450.212,455.749,460.172,462.681,468.219,470.988,474.305,477.671,482.093,486.546,489.056" svgx:width="0.39,0.56,0.39,0.33,0.5,0.28,0.56,0.5,0.56,0.28,0.44,0.25,0.56,0.44,0.5,0.44,0.28,0.5,0.56,0.83,0.44,0.56,0.33,0.25,0.44,0.5,0.56,0.44,0.25,0.56,0.28,0.33,0.33,0.44,0.44,0.25,0.33" style="fill:rgb(0,0,0);font-family:TimesNewRomanPS-BoldMT;font-size:9.96px;stroke:none;">sustainable development zone differ (</text>
  </g>
  <g begin="text">
   <text y="594.07" x="492.58,497.61,502.032,506.484,510.906,516.444" svgx:width="0.5,0.44,0.44,0.44,0.56,0.25" style="fill:rgb(0,0,0);font-family:TimesNewRomanPS-BoldMT;font-size:9.96px;stroke:none;">green </text>
  </g>
  <g begin="text">
   <text y="594.07" x="42.96,48.48" svgx:width="0.5,0.5" style="fill:rgb(0,0,0);font-family:TimesNewRomanPSMT;font-size:11.04px;stroke:none;">11</text>
  </g>
  <g begin="text">
   <text y="594.07" x="54.0" svgx:width="0.25" style="fill:rgb(0,0,0);font-family:TimesNewRomanPSMT;font-size:11.04px;stroke:none;"> </text>
  </g>
  <g begin="text">
   <text y="606.67" x="89.664,94.694,99.116,103.568,108.598,115.789,119.664,122.98,125.51,131.048,136.546,139.892,142.402,145.171,150.709,153.199,157.621,162.671,167.093,172.631,175.141,179.563,184.613,188.457,192.88,195.409,198.756,203.178,208.118,213.656,217.481,220.827,225.857,230.279,238.686,243.715,247.062,249.831,254.851,260.388,264.213,266.723,271.753,276.175,280.627,283.137,288.675,293.097,297.519,303.057,307.479,313.017,315.527,318.296,323.834,326.324,331.861,336.881,344.072,346.592,352.13,357.628,366.014,371.044,376.582,379.072,384.609,389.032,394.071,398.494,401.263,406.302,411.84,420.217,424.639,430.177,433.523,436.033,438.802,442.636,445.146,450.176,453.523,456.869,461.899,464.668,470.206,474.628,480.166,482.656,489.847,495.385,498.154,500.922,505.345" svgx:width="0.5,0.44,0.44,0.5,0.72,0.39,0.33,0.25,0.56,0.56,0.33,0.25,0.28,0.56,0.25,0.44,0.5,0.44,0.56,0.25,0.44,0.5,0.39,0.44,0.25,0.33,0.44,0.5,0.56,0.39,0.33,0.5,0.44,0.83,0.5,0.33,0.28,0.5,0.56,0.39,0.25,0.5,0.44,0.44,0.25,0.56,0.44,0.44,0.56,0.44,0.56,0.25,0.28,0.56,0.25,0.56,0.5,0.72,0.25,0.56,0.56,0.83,0.5,0.56,0.25,0.56,0.44,0.5,0.44,0.28,0.5,0.56,0.83,0.44,0.56,0.33,0.25,0.28,0.39,0.25,0.5,0.33,0.33,0.5,0.28,0.56,0.44,0.56,0.25,0.72,0.56,0.28,0.28,0.44,0.25" style="fill:rgb(0,0,0);font-family:TimesNewRomanPS-BoldMT;font-size:9.96px;stroke:none;">arrows) but in each case transformations are needed in how human development is attained while </text>
  </g>
  <g begin="text">
   <text y="606.67" x="42.96,48.48" svgx:width="0.5,0.5" style="fill:rgb(0,0,0);font-family:TimesNewRomanPSMT;font-size:11.04px;stroke:none;">12</text>
  </g>
  <g begin="text">
   <text y="606.67" x="54.0" svgx:width="0.25" style="fill:rgb(0,0,0);font-family:TimesNewRomanPSMT;font-size:11.04px;stroke:none;"> </text>
  </g>
  <g begin="text">
   <text y="619.42" x="245.33,248.099,250.868,259.244,262.013,265.35,268.118,273.656,278.656,281.166,288.955,296.743,304.532,307.042,311.365,319.751,322.52,326.355,330.199,332.968,337.988,343.526,347.35" svgx:width="0.28,0.28,0.83,0.28,0.33,0.28,0.56,0.5,0.25,0.78,0.78,0.78,0.25,0.44,0.83,0.28,0.39,0.39,0.28,0.5,0.56,0.39,0.25" style="fill:rgb(0,0,0);font-family:TimesNewRomanPS-BoldMT;font-size:9.96px;stroke:none;">limiting GHG emissions.</text>
  </g>
  <g begin="text">
   <text y="619.42" x="350.11" svgx:width="0.25" style="fill:rgb(0,0,0);font-family:TimesNewRomanPS-BoldMT;font-size:9.96px;stroke:none;"> </text>
  </g>
  <g begin="text">
   <text y="619.42" x="42.96,48.48" svgx:width="0.5,0.5" style="fill:rgb(0,0,0);font-family:TimesNewRomanPSMT;font-size:11.04px;stroke:none;">13</text>
  </g>
  <g begin="text">
   <text y="619.42" x="54.0" svgx:width="0.25" style="fill:rgb(0,0,0);font-family:TimesNewRomanPSMT;font-size:11.04px;stroke:none;"> </text>
  </g>
  <rect style="fill:pink;opacity:0.2;stroke:blue;stroke-width:0.3;" x="72.0" y="30.08" height="391.3" width="451.3" title="44"/>
  <text y="30.08" class="image" id="image.44.1" width="451" height="391" x="72.0" style="font-size:5.0px;">image.44.1.72_523.30_421</text>
  <g begin="text">
   <text y="602.109" transform="matrix(0.70711,-0.70711,0.70711,0.70711,-395.12956,250.29085)" rotateDegrees="-45" matrix="[29.803345,29.803345,-29.803345,29.803345,104.563255,239.8115]" x="104.563" svgx:width="0.67" style="fill:rgb(0,0,0);font-family:Arial;font-size:42.15px;stroke:none;">A</text>
   <text y="582.23" transform="matrix(0.70711,-0.70711,0.70711,0.70711,-375.25056,258.525)" rotateDegrees="-45" matrix="[29.803345,29.803345,-29.803345,29.803345,124.442085,259.6903]" x="124.442" svgx:width="0.72" style="fill:rgb(0,0,0);font-family:Arial;font-size:42.15px;stroke:none;">C</text>
   <text y="560.712" transform="matrix(0.70711,-0.70711,0.70711,0.70711,-353.73256,267.43805)" rotateDegrees="-45" matrix="[29.803345,29.803345,-29.803345,29.803345,145.9601,281.20834]" x="145.96" svgx:width="0.72" style="fill:rgb(0,0,0);font-family:Arial;font-size:42.15px;stroke:none;">C</text>
   <text y="539.194" transform="matrix(0.70711,-0.70711,0.70711,0.70711,-332.21456,276.3511)" rotateDegrees="-45" matrix="[29.803345,29.803345,-29.803345,29.803345,167.47812,302.72635]" x="167.478" svgx:width="0.67" style="fill:rgb(0,0,0);font-family:Arial;font-size:42.15px;stroke:none;">E</text>
   <text y="519.315" transform="matrix(0.70711,-0.70711,0.70711,0.70711,-312.33556,284.58525)" rotateDegrees="-45" matrix="[29.803345,29.803345,-29.803345,29.803345,187.35693,322.60516]" x="187.357" svgx:width="0.67" style="fill:rgb(0,0,0);font-family:Arial;font-size:42.15px;stroke:none;">P</text>
   <text y="499.436" transform="matrix(0.70711,-0.70711,0.70711,0.70711,-292.45656,292.8194)" rotateDegrees="-45" matrix="[29.803345,29.803345,-29.803345,29.803345,207.23578,342.484]" x="207.236" svgx:width="0.61" style="fill:rgb(0,0,0);font-family:Arial;font-size:42.15px;stroke:none;">T</text>
   <text y="481.226" transform="matrix(0.70711,-0.70711,0.70711,0.70711,-274.24656,300.36223)" rotateDegrees="-45" matrix="[29.803345,29.803345,-29.803345,29.803345,225.44562,360.69385]" x="225.446" svgx:width="0.67" style="fill:rgb(0,0,0);font-family:Arial;font-size:42.15px;stroke:none;">E</text>
   <text y="461.347" transform="matrix(0.70711,-0.70711,0.70711,0.70711,-254.36786,308.59567)" rotateDegrees="-45" matrix="[29.803345,29.803345,-29.803345,29.803345,245.32443,380.57266]" x="245.324" svgx:width="0.72" style="fill:rgb(0,0,0);font-family:Arial;font-size:42.15px;stroke:none;">D</text>
   <text y="439.829" transform="matrix(0.70711,-0.70711,0.70711,0.70711,-232.84986,317.50872)" rotateDegrees="-45" matrix="[29.803345,29.803345,-29.803345,29.803345,266.84247,402.0907]" x="266.842" svgx:width="0.28" style="fill:rgb(0,0,0);font-family:Arial;font-size:42.15px;stroke:none;"> </text>
   <text y="431.54" transform="matrix(0.70711,-0.70711,0.70711,0.70711,-224.56056,320.94284)" rotateDegrees="-45" matrix="[29.803345,29.803345,-29.803345,29.803345,275.13153,410.37976]" x="275.132" svgx:width="0.67" style="fill:rgb(0,0,0);font-family:Arial;font-size:42.15px;stroke:none;">V</text>
   <text y="411.661" transform="matrix(0.70711,-0.70711,0.70711,0.70711,-204.68186,329.17629)" rotateDegrees="-45" matrix="[29.803345,29.803345,-29.803345,29.803345,295.0103,430.25858]" x="295.01" svgx:width="0.67" style="fill:rgb(0,0,0);font-family:Arial;font-size:42.15px;stroke:none;">E</text>
   <text y="391.783" transform="matrix(0.70711,-0.70711,0.70711,0.70711,-184.80356,337.41073)" rotateDegrees="-45" matrix="[29.803345,29.803345,-29.803345,29.803345,314.88916,450.1374]" x="314.889" svgx:width="0.72" style="fill:rgb(0,0,0);font-family:Arial;font-size:42.15px;stroke:none;">R</text>
   <text y="370.265" transform="matrix(0.70711,-0.70711,0.70711,0.70711,-163.28556,346.32378)" rotateDegrees="-45" matrix="[29.803345,29.803345,-29.803345,29.803345,336.40717,471.65543]" x="336.407" svgx:width="0.67" style="fill:rgb(0,0,0);font-family:Arial;font-size:42.15px;stroke:none;">S</text>
   <text y="350.386" transform="matrix(0.70711,-0.70711,0.70711,0.70711,-143.40656,354.55793)" rotateDegrees="-45" matrix="[29.803345,29.803345,-29.803345,29.803345,356.286,491.53424]" x="356.286" svgx:width="0.28" style="fill:rgb(0,0,0);font-family:Arial;font-size:42.15px;stroke:none;">I</text>
   <text y="342.1" transform="matrix(0.70711,-0.70711,0.70711,0.70711,-135.12086,357.9894)" rotateDegrees="-45" matrix="[29.803345,29.803345,-29.803345,29.803345,364.57135,499.81958]" x="364.571" svgx:width="0.78" style="fill:rgb(0,0,0);font-family:Arial;font-size:42.15px;stroke:none;">O</text>
   <text y="318.913" transform="matrix(0.70711,-0.70711,0.70711,0.70711,-111.93386,367.59377)" rotateDegrees="-45" matrix="[29.803345,29.803345,-29.803345,29.803345,387.7583,523.0066]" x="387.758" svgx:width="0.72" style="fill:rgb(0,0,0);font-family:Arial;font-size:42.15px;stroke:none;">N</text>
   <text y="297.395" transform="matrix(0.70711,-0.70711,0.70711,0.70711,-90.41586,376.50681)" rotateDegrees="-45" matrix="[29.803345,29.803345,-29.803345,29.803345,409.27637,544.5246]" x="409.276" svgx:width="0.28" style="fill:rgb(0,0,0);font-family:Arial;font-size:42.15px;stroke:none;"> </text>
   <text y="637.872" transform="matrix(0.70711,-0.70711,0.70711,0.70711,-409.94279,286.05456)" rotateDegrees="-45" matrix="[29.803345,29.803345,-29.803345,29.803345,140.32727,204.04747]" x="140.327" svgx:width="0.67" style="fill:rgb(0,0,0);font-family:Arial;font-size:42.15px;stroke:none;">S</text>
   <text y="617.994" transform="matrix(0.70711,-0.70711,0.70711,0.70711,-390.0645,294.289)" rotateDegrees="-45" matrix="[29.803345,29.803345,-29.803345,29.803345,160.2061,223.9263]" x="160.206" svgx:width="0.72" style="fill:rgb(0,0,0);font-family:Arial;font-size:42.15px;stroke:none;">U</text>
   <text y="596.476" transform="matrix(0.70711,-0.70711,0.70711,0.70711,-368.5465,303.20205)" rotateDegrees="-45" matrix="[29.803345,29.803345,-29.803345,29.803345,181.72412,245.4443]" x="181.724" svgx:width="0.67" style="fill:rgb(0,0,0);font-family:Arial;font-size:42.15px;stroke:none;">B</text>
   <text y="576.597" transform="matrix(0.70711,-0.70711,0.70711,0.70711,-348.6675,311.4362)" rotateDegrees="-45" matrix="[29.803345,29.803345,-29.803345,29.803345,201.60294,265.32315]" x="201.603" svgx:width="0.5" style="fill:rgb(0,0,0);font-family:Arial;font-size:42.15px;stroke:none;">J</text>
   <text y="561.695" transform="matrix(0.70711,-0.70711,0.70711,0.70711,-333.7655,317.60881)" rotateDegrees="-45" matrix="[29.803345,29.803345,-29.803345,29.803345,216.50462,280.22482]" x="216.505" svgx:width="0.67" style="fill:rgb(0,0,0);font-family:Arial;font-size:42.15px;stroke:none;">E</text>
   <text y="541.816" transform="matrix(0.70711,-0.70711,0.70711,0.70711,-313.88679,325.84225)" rotateDegrees="-45" matrix="[29.803345,29.803345,-29.803345,29.803345,236.38344,300.10364]" x="236.383" svgx:width="0.72" style="fill:rgb(0,0,0);font-family:Arial;font-size:42.15px;stroke:none;">C</text>
   <text y="520.298" transform="matrix(0.70711,-0.70711,0.70711,0.70711,-292.36879,334.7553)" rotateDegrees="-45" matrix="[29.803345,29.803345,-29.803345,29.803345,257.90146,321.62164]" x="257.901" svgx:width="0.61" style="fill:rgb(0,0,0);font-family:Arial;font-size:42.15px;stroke:none;">T</text>
   <text y="502.089" transform="matrix(0.70711,-0.70711,0.70711,0.70711,-274.1595,342.29842)" rotateDegrees="-45" matrix="[29.803345,29.803345,-29.803345,29.803345,276.1113,339.83148]" x="276.111" svgx:width="0.28" style="fill:rgb(0,0,0);font-family:Arial;font-size:42.15px;stroke:none;"> </text>
   <text y="493.803" transform="matrix(0.70711,-0.70711,0.70711,0.70711,-265.8735,345.7306)" rotateDegrees="-45" matrix="[29.803345,29.803345,-29.803345,29.803345,284.39664,348.11682]" x="284.397" svgx:width="0.61" style="fill:rgb(0,0,0);font-family:Arial;font-size:42.15px;stroke:none;">T</text>
   <text y="475.593" transform="matrix(0.70711,-0.70711,0.70711,0.70711,-247.66379,353.27272)" rotateDegrees="-45" matrix="[29.803345,29.803345,-29.803345,29.803345,302.60648,366.32666]" x="302.606" svgx:width="0.78" style="fill:rgb(0,0,0);font-family:Arial;font-size:42.15px;stroke:none;">O</text>
   <text y="452.406" transform="matrix(0.70711,-0.70711,0.70711,0.70711,-224.47679,362.87709)" rotateDegrees="-45" matrix="[29.803345,29.803345,-29.803345,29.803345,325.79346,389.51367]" x="325.793" svgx:width="0.28" style="fill:rgb(0,0,0);font-family:Arial;font-size:42.15px;stroke:none;"> </text>
   <text y="444.136" transform="matrix(0.70711,-0.70711,0.70711,0.70711,-216.2065,366.30334)" rotateDegrees="-45" matrix="[29.803345,29.803345,-29.803345,29.803345,334.0639,397.78412]" x="334.064" svgx:width="0.61" style="fill:rgb(0,0,0);font-family:Arial;font-size:42.15px;stroke:none;">F</text>
   <text y="425.926" transform="matrix(0.70711,-0.70711,0.70711,0.70711,-197.9965,373.84617)" rotateDegrees="-45" matrix="[29.803345,29.803345,-29.803345,29.803345,352.27374,415.99396]" x="352.274" svgx:width="0.28" style="fill:rgb(0,0,0);font-family:Arial;font-size:42.15px;stroke:none;">I</text>
   <text y="417.641" transform="matrix(0.70711,-0.70711,0.70711,0.70711,-189.7115,377.27793)" rotateDegrees="-45" matrix="[29.803345,29.803345,-29.803345,29.803345,360.55908,424.2793]" x="360.559" svgx:width="0.72" style="fill:rgb(0,0,0);font-family:Arial;font-size:42.15px;stroke:none;">N</text>
   <text y="396.123" transform="matrix(0.70711,-0.70711,0.70711,0.70711,-168.1935,386.19098)" rotateDegrees="-45" matrix="[29.803345,29.803345,-29.803345,29.803345,382.0771,445.7973]" x="382.077" svgx:width="0.67" style="fill:rgb(0,0,0);font-family:Arial;font-size:42.15px;stroke:none;">A</text>
   <text y="376.244" transform="matrix(0.70711,-0.70711,0.70711,0.70711,-148.3145,394.42513)" rotateDegrees="-45" matrix="[29.803345,29.803345,-29.803345,29.803345,401.95593,465.67615]" x="401.956" svgx:width="0.56" style="fill:rgb(0,0,0);font-family:Arial;font-size:42.15px;stroke:none;">L</text>
   <text y="359.673" transform="matrix(0.70711,-0.70711,0.70711,0.70711,-131.7435,401.28906)" rotateDegrees="-45" matrix="[29.803345,29.803345,-29.803345,29.803345,418.5266,482.24677]" x="418.527" svgx:width="0.28" style="fill:rgb(0,0,0);font-family:Arial;font-size:42.15px;stroke:none;"> </text>
   <text y="351.394" transform="matrix(0.70711,-0.70711,0.70711,0.70711,-123.4645,404.71834)" rotateDegrees="-45" matrix="[29.803345,29.803345,-29.803345,29.803345,426.80573,490.52588]" x="426.806" svgx:width="0.67" style="fill:rgb(0,0,0);font-family:Arial;font-size:42.15px;stroke:none;">E</text>
   <text y="331.515" transform="matrix(0.70711,-0.70711,0.70711,0.70711,-103.5855,412.95249)" rotateDegrees="-45" matrix="[29.803345,29.803345,-29.803345,29.803345,446.68457,510.40472]" x="446.685" svgx:width="0.72" style="fill:rgb(0,0,0);font-family:Arial;font-size:42.15px;stroke:none;">D</text>
   <text y="309.997" transform="matrix(0.70711,-0.70711,0.70711,0.70711,-82.0675,421.86554)" rotateDegrees="-45" matrix="[29.803345,29.803345,-29.803345,29.803345,468.2025,531.9227]" x="468.203" svgx:width="0.28" style="fill:rgb(0,0,0);font-family:Arial;font-size:42.15px;stroke:none;">I</text>
   <text y="301.712" transform="matrix(0.70711,-0.70711,0.70711,0.70711,-73.7825,425.29729)" rotateDegrees="-45" matrix="[29.803345,29.803345,-29.803345,29.803345,476.48785,540.20807]" x="476.488" svgx:width="0.61" style="fill:rgb(0,0,0);font-family:Arial;font-size:42.15px;stroke:none;">T</text>
   <text y="283.502" transform="matrix(0.70711,-0.70711,0.70711,0.70711,-55.5725,432.84012)" rotateDegrees="-45" matrix="[29.803345,29.803345,-29.803345,29.803345,494.6977,558.4179]" x="494.698" svgx:width="0.67" style="fill:rgb(0,0,0);font-family:Arial;font-size:42.15px;stroke:none;">S</text>
  </g>
 </g>
</svg>
