<?xml version="1.0" encoding="UTF-8"?>
<svg height="807.04" width="2582.0" xmlns="http://www.w3.org/2000/svg">
 <g id="page" xmlns:svgx="http://www.xml-cml.org/schema/svgx">
  <g begin="text">
   <text y="45.72" x="72.024,78.162,81.231,86.751,91.587,94.7,97.46,105.376,110.896,116.416,121.218,124.928,130.448,138.971,143.872,149.392,152.517,155.277,163.082,166.195,170.39,173.504,177.103,180.216,185.736,191.135,194.137,197.251,202.771" svgx:width="0.56,0.28,0.5,0.44,0.28,0.25,0.72,0.5,0.5,0.44,0.33,0.5,0.78,0.44,0.5,0.28,0.25,0.72,0.28,0.39,0.28,0.33,0.28,0.5,0.5,0.28,0.28,0.5,0.5" style="fill:rgb(0,0,0);font-family:TimesNewRomanPSMT;font-size:11.04px;stroke:none;">Final Government Distribution</text>
  </g>
  <g begin="text">
   <text y="45.72" x="208.37" svgx:width="0.25" style="fill:rgb(0,0,0);font-family:TimesNewRomanPSMT;font-size:11.04px;stroke:none;"> </text>
  </g>
  <g begin="text">
   <text y="45.72" x="211.01" svgx:width="0.25" style="fill:rgb(0,0,0);font-family:TimesNewRomanPSMT;font-size:11.04px;stroke:none;"> </text>
  </g>
  <g begin="text">
   <text y="45.72" x="216.05,218.81" svgx:width="0.25,0.25" style="fill:rgb(0,0,0);font-family:TimesNewRomanPSMT;font-size:11.04px;stroke:none;"> </text>
  </g>
  <g begin="text">
   <text y="45.72" x="221.57,224.33,227.09,229.85,232.61,235.37,238.13,240.89,243.65,246.41,249.17,251.93,254.69,257.45,260.21,262.97,265.609,268.369,271.129,273.889,276.649,279.409,282.169,284.929,287.689,290.449" svgx:width="0.25,0.25,0.25,0.25,0.25,0.25,0.25,0.25,0.25,0.25,0.25,0.25,0.25,0.25,0.25,0.25,0.25,0.25,0.25,0.25,0.25,0.25,0.25,0.25,0.25,0.25" style="fill:rgb(0,0,0);font-family:TimesNewRomanPSMT;font-size:11.04px;stroke:none;"> </text>
  </g>
  <g begin="text">
   <text y="45.72" x="293.21,300.529,305.928,310.83,316.35,319.364,324.266,327.997,330.757" svgx:width="0.67,0.5,0.44,0.5,0.28,0.44,0.33,0.25,0.5" style="fill:rgb(0,0,0);font-family:TimesNewRomanPSMT;font-size:11.04px;stroke:none;">Chapter 1</text>
  </g>
  <g begin="text">
   <text y="45.72" x="336.19" svgx:width="0.25" style="fill:rgb(0,0,0);font-family:TimesNewRomanPSMT;font-size:11.04px;stroke:none;"> </text>
  </g>
  <g begin="text">
   <text y="45.72" x="360.07,362.83,365.59,368.35,371.11,373.87,376.63,379.39,382.15,384.91,387.67,390.43,393.19,395.95,398.71,401.47,404.23,406.99,409.629,412.389,415.149,417.909,420.669,423.429,426.189,428.949,431.709,434.469,437.229" svgx:width="0.25,0.25,0.25,0.25,0.25,0.25,0.25,0.25,0.25,0.25,0.25,0.25,0.25,0.25,0.25,0.25,0.25,0.25,0.25,0.25,0.25,0.25,0.25,0.25,0.25,0.25,0.25,0.25,0.25" style="fill:rgb(0,0,0);font-family:TimesNewRomanPSMT;font-size:11.04px;stroke:none;"> </text>
  </g>
  <g begin="text">
   <text y="45.72" x="440.02,443.619,449.757,457.055,464.374" svgx:width="0.33,0.56,0.67,0.67,0.25" style="fill:rgb(0,0,0);font-family:TimesNewRomanPSMT;font-size:11.04px;stroke:none;">IPCC </text>
  </g>
  <g begin="text">
   <text y="45.72" x="467.14,475.056,482.375,487.895,490.655,501.077,509.048,512.614,516.213" svgx:width="0.72,0.67,0.5,0.25,0.94,0.72,0.33,0.33,0.33" style="fill:rgb(0,0,0);font-family:TimesNewRomanPSMT;font-size:11.04px;stroke:none;">AR6 WGIII</text>
  </g>
  <g begin="text">
   <text y="45.72" x="519.94" svgx:width="0.25" style="fill:rgb(0,0,0);font-family:TimesNewRomanPSMT;font-size:11.04px;stroke:none;"> </text>
  </g>
  <g begin="text">
   <text y="65.64" x="72.024" svgx:width="0.25" style="fill:rgb(0,0,0);font-family:TimesNewRomanPSMT;font-size:11.04px;stroke:none;"> </text>
  </g>
  <g begin="text">
   <text y="757.176" x="72.024,79.94,85.46,88.22,96.135,101.655,105.365,108.125,116.04,119.154,122.753,127.655,130.415,133.075,141.708,147.847,153.367,157.043,161.868,164.628,170.148,175.049,177.809,185.78,188.75,192.945,196.655,201.556,204.681,210.819,216.803,220.512" svgx:width="0.72,0.5,0.25,0.72,0.5,0.33,0.25,0.72,0.28,0.33,0.44,0.25,0.25,0.78,0.56,0.5,0.33,0.44,0.25,0.5,0.44,0.25,0.72,0.28,0.39,0.33,0.44,0.28,0.56,0.56,0.33,0.44" style="fill:rgb(0,0,0);font-family:TimesNewRomanPS-BoldMT;font-size:11.04px;stroke:none;">Do Not Cite, Quote or Distribute</text>
  </g>
  <g begin="text">
   <text y="757.176" x="225.41" svgx:width="0.25" style="fill:rgb(0,0,0);font-family:TimesNewRomanPS-BoldMT;font-size:11.04px;stroke:none;"> </text>
  </g>
  <g begin="text">
   <text y="757.176" x="288.05" svgx:width="0.25" style="fill:rgb(0,0,0);font-family:TimesNewRomanPS-BoldMT;font-size:11.04px;stroke:none;"> </text>
  </g>
  <g begin="text">
   <text y="757.176" x="324.07" svgx:width="0.5" style="fill:rgb(0,0,0);font-family:TimesNewRomanPSMT;font-size:11.04px;stroke:none;">1</text>
  </g>
  <g begin="text">
   <text y="757.176" x="329.59" svgx:width="0.33" style="fill:rgb(0,0,0);font-family:TimesNewRomanPSMT;font-size:11.04px;stroke:none;">-</text>
  </g>
  <g begin="text">
   <text y="757.176" x="333.19,338.71" svgx:width="0.5,0.5" style="fill:rgb(0,0,0);font-family:TimesNewRomanPSMT;font-size:11.04px;stroke:none;">63</text>
  </g>
  <g begin="text">
   <text y="757.176" x="344.23,346.99" svgx:width="0.25,0.25" style="fill:rgb(0,0,0);font-family:TimesNewRomanPSMT;font-size:11.04px;stroke:none;"> </text>
  </g>
  <g begin="text">
   <text y="757.176" x="349.75" svgx:width="0.25" style="fill:rgb(0,0,0);font-family:TimesNewRomanPSMT;font-size:11.04px;stroke:none;"> </text>
  </g>
  <g begin="text">
   <text y="757.176" x="360.07,362.83,365.59,368.35,371.11,373.87,376.63,379.39,382.15,384.91,387.67,390.43,393.19,395.95,398.71,401.47,404.23,406.99,409.629,412.389,415.149,417.909,420.669,423.429,426.189,428.949,431.709,434.469,437.229,439.989,442.627,445.387,448.147" svgx:width="0.25,0.25,0.25,0.25,0.25,0.25,0.25,0.25,0.25,0.25,0.25,0.25,0.25,0.25,0.25,0.25,0.25,0.25,0.25,0.25,0.25,0.25,0.25,0.25,0.25,0.25,0.25,0.25,0.25,0.25,0.25,0.25,0.25" style="fill:rgb(0,0,0);font-family:TimesNewRomanPSMT;font-size:11.04px;stroke:none;"> </text>
  </g>
  <g begin="text">
   <text y="757.176" x="450.94,457.685,463.205,466.175,471.077,474.201,476.487,481.885,486.787,492.307,497.231,501.426,504.539" svgx:width="0.61,0.5,0.28,0.44,0.28,0.25,0.5,0.44,0.5,0.44,0.39,0.28,0.25" style="fill:rgb(0,0,0);font-family:TimesNewRomanPSMT;font-size:11.04px;stroke:none;">Total pages: </text>
  </g>
  <g begin="text">
   <text y="757.176" x="506.98,512.5,518.02" svgx:width="0.5,0.5,0.5" style="fill:rgb(0,0,0);font-family:TimesNewRomanPSMT;font-size:11.04px;stroke:none;">106</text>
  </g>
  <g begin="text">
   <text y="757.176" x="523.42" svgx:width="0.25" style="fill:rgb(0,0,0);font-family:TimesNewRomanPSMT;font-size:9.96px;stroke:none;"> </text>
  </g>
  <g begin="text">
   <text y="777.096" x="72.024" svgx:width="0.25" style="fill:rgb(0,0,0);font-family:TimesNewRomanPSMT;font-size:11.04px;stroke:none;"> </text>
  </g>
  <g begin="text">
   <text y="797.04" x="72.024" svgx:width="0.25" style="fill:rgb(0,0,0);font-family:TimesNewRomanPSMT;font-size:11.04px;stroke:none;"> </text>
  </g>
  <g begin="text">
   <text y="88.46" x="72.024,79.086,82.596,89.532" svgx:width="0.5,0.25,0.5,0.5" style="fill:rgb(0,0,0);font-family:TimesNewRomanPS-BoldMT;font-size:14.04px;stroke:none;">1.12</text>
  </g>
  <g begin="text">
   <text y="88.46" x="96.504" svgx:width="0.28" style="fill:rgb(0,0,0);font-family:Arial-BoldMT;font-size:14.04px;stroke:none;"> </text>
  </g>
  <g begin="text">
   <text y="88.46" x="100.82,110.999,117.963,125.025,132.831,144.344,151.406,159.212,162.722,167.398,174.418,177.928,182.603,190.283,196.517,200.027,210.164,216.327,224.133,231.195,237.429,242.105,245.615" svgx:width="0.72,0.5,0.5,0.56,0.83,0.5,0.56,0.25,0.33,0.5,0.25,0.33,0.56,0.44,0.25,0.72,0.44,0.56,0.5,0.44,0.33,0.25,0.25" style="fill:rgb(0,0,0);font-family:TimesNewRomanPS-BoldMT;font-size:14.04px;stroke:none;">Roadmap to the Report </text>
  </g>
  <g begin="text">
   <text y="88.46" x="249.05" svgx:width="0.25" style="fill:rgb(0,0,0);font-family:TimesNewRomanPS-BoldMT;font-size:14.04px;stroke:none;"> </text>
  </g>
  <g begin="text">
   <text y="88.46" x="48.48" svgx:width="0.5" style="fill:rgb(0,0,0);font-family:TimesNewRomanPSMT;font-size:11.04px;stroke:none;">1</text>
  </g>
  <g begin="text">
   <text y="88.46" x="54.0" svgx:width="0.25" style="fill:rgb(0,0,0);font-family:TimesNewRomanPSMT;font-size:11.04px;stroke:none;"> </text>
  </g>
  <g begin="text">
   <text y="115.22" x="72.024,78.769,84.289,87.359,91.697,94.921,101.059,104.128,109.56,112.673,118.193,121.417,129.333,133.627,137.855,142.757,147.085,151.28,159.913,164.815,170.236,173.349,176.573,183.892,188.794,194.215,199.735,203.444,206.557,209.781,214.683,220.203,225.624,230.525,234.146,238.441,241.698,251.512,254.537,257.651,260.764,266.162,271.064,274.078,277.191,282.711,288.231,291.455,294.458,299.978,303.202,306.911,310.024,315.423,320.325,323.57,332.204,337.006,340.119,345.639,348.863,354.383,359.285,362.906,366.019" svgx:width="0.61,0.5,0.28,0.39,0.25,0.56,0.28,0.5,0.28,0.5,0.25,0.72,0.39,0.39,0.44,0.39,0.39,0.78,0.44,0.5,0.28,0.25,0.67,0.44,0.5,0.5,0.33,0.28,0.25,0.44,0.5,0.5,0.44,0.33,0.39,0.25,0.89,0.28,0.28,0.28,0.5,0.44,0.28,0.28,0.5,0.5,0.25,0.28,0.5,0.25,0.33,0.28,0.5,0.44,0.25,0.78,0.44,0.28,0.5,0.25,0.5,0.44,0.33,0.28,0.39" style="fill:rgb(0,0,0);font-family:TimesNewRomanPSMT;font-size:11.04px;stroke:none;">This Sixth Assessment Report covers Mitigation in five main parts</text>
  </g>
  <g begin="text">
   <text y="115.22" x="370.63" svgx:width="0.25" style="fill:rgb(0,0,0);font-family:TimesNewRomanPSMT;font-size:11.04px;stroke:none;"> </text>
  </g>
  <g begin="text">
   <text y="115.22" x="373.87" svgx:width="0.33" style="fill:rgb(0,0,0);font-family:TimesNewRomanPSMT;font-size:11.04px;stroke:none;">(</text>
  </g>
  <g begin="text">
   <text y="115.22" x="377.59,383.695,386.335,391.365,396.902,401.325,405.747,408.755,413.785" svgx:width="0.61,0.28,0.5,0.56,0.44,0.44,0.25,0.5,0.25" style="fill:rgb(0,0,0);font-family:TimesNewRomanPS-BoldMT;font-size:9.96px;stroke:none;">Figure 1.</text>
  </g>
  <g begin="text">
   <text y="115.22" x="416.35" svgx:width="0.5" style="fill:rgb(0,0,0);font-family:TimesNewRomanPS-BoldMT;font-size:9.96px;stroke:none;">8</text>
  </g>
  <g begin="text">
   <text y="115.22" x="421.27" svgx:width="0.33" style="fill:rgb(0,0,0);font-family:TimesNewRomanPSMT;font-size:11.04px;stroke:none;">)</text>
  </g>
  <g begin="text">
   <text y="115.22" x="424.99,427.75,430.974,436.372,441.274,449.918,454.721,457.834,463.233,466.346,469.569,472.683,478.203,481.206,484.915,490.435,495.955,501.354,506.255,509.269,512.383,517.903,523.301" svgx:width="0.25,0.25,0.5,0.44,0.78,0.44,0.28,0.5,0.28,0.25,0.28,0.5,0.28,0.33,0.5,0.5,0.5,0.44,0.28,0.28,0.5,0.5,0.25" style="fill:rgb(0,0,0);font-family:TimesNewRomanPSMT;font-size:11.04px;stroke:none;">, namely: introduction </text>
  </g>
  <g begin="text">
   <text y="115.22" x="48.48" svgx:width="0.5" style="fill:rgb(0,0,0);font-family:TimesNewRomanPSMT;font-size:11.04px;stroke:none;">2</text>
  </g>
  <g begin="text">
   <text y="115.22" x="54.0" svgx:width="0.25" style="fill:rgb(0,0,0);font-family:TimesNewRomanPSMT;font-size:11.04px;stroke:none;"> </text>
  </g>
  <g begin="text">
   <text y="129.14" x="72.024,76.926,82.446,87.966,91.09,94.799,98.509,103.311,111.945,116.846,124.817,130.183,133.892,139.412" svgx:width="0.44,0.5,0.5,0.25,0.33,0.33,0.44,0.78,0.44,0.72,0.5,0.33,0.5,0.39" style="fill:rgb(0,0,0);font-family:TimesNewRomanPSMT;font-size:11.04px;stroke:none;">and frameworks</text>
  </g>
  <g begin="text">
   <text y="129.14" x="143.66" svgx:width="0.28" style="fill:rgb(0,0,0);font-family:TimesNewRomanPSMT;font-size:11.04px;stroke:none;">;</text>
  </g>
  <g begin="text">
   <text y="129.14" x="146.78" svgx:width="0.25" style="fill:rgb(0,0,0);font-family:TimesNewRomanPSMT;font-size:11.04px;stroke:none;"> </text>
  </g>
  <g begin="text">
   <text y="129.14" x="149.9,154.802,163.336,166.449,170.744,174.972,178.085,183.605,189.004,192.117,195.23,198.94,203.841,209.262,214.782,219.077,221.737,224.961,229.256,234.19,238.993,244.513,249.415,253.036,256.149,261.669,265.864,269.088,273.99,279.41,284.93,288.154,293.674,298.476,301.59,306.988,314.904,319.806,325.326" svgx:width="0.44,0.78,0.28,0.39,0.39,0.28,0.5,0.5,0.25,0.28,0.33,0.44,0.5,0.5,0.39,0.25,0.25,0.39,0.44,0.44,0.5,0.44,0.33,0.28,0.5,0.39,0.25,0.44,0.5,0.5,0.25,0.5,0.44,0.28,0.5,0.72,0.44,0.5,0.39" style="fill:rgb(0,0,0);font-family:TimesNewRomanPSMT;font-size:11.04px;stroke:none;">emission trends, scenarios and pathways</text>
  </g>
  <g begin="text">
   <text y="129.14" x="329.83" svgx:width="0.28" style="fill:rgb(0,0,0);font-family:TimesNewRomanPSMT;font-size:11.04px;stroke:none;">;</text>
  </g>
  <g begin="text">
   <text y="129.14" x="332.83" svgx:width="0.25" style="fill:rgb(0,0,0);font-family:TimesNewRomanPSMT;font-size:11.04px;stroke:none;"> </text>
  </g>
  <g begin="text">
   <text y="129.14" x="336.07,340.365,345.189,350.091,353.215,358.614,362.323" svgx:width="0.39,0.44,0.44,0.28,0.5,0.33,0.39" style="fill:rgb(0,0,0);font-family:TimesNewRomanPSMT;font-size:11.04px;stroke:none;">sectors</text>
  </g>
  <g begin="text">
   <text y="129.14" x="366.55" svgx:width="0.28" style="fill:rgb(0,0,0);font-family:TimesNewRomanPSMT;font-size:11.04px;stroke:none;">;</text>
  </g>
  <g begin="text">
   <text y="129.14" x="369.67" svgx:width="0.25" style="fill:rgb(0,0,0);font-family:TimesNewRomanPSMT;font-size:11.04px;stroke:none;"> </text>
  </g>
  <g begin="text">
   <text y="129.14" x="372.79,375.903,381.423,385.618,388.732,391.735,394.848,400.368,403.371,406.484,412.004,417.524,422.326" svgx:width="0.28,0.5,0.39,0.28,0.28,0.28,0.5,0.28,0.28,0.5,0.5,0.44,0.28" style="fill:rgb(0,0,0);font-family:TimesNewRomanPSMT;font-size:11.04px;stroke:none;">institutional</text>
  </g>
  <g begin="text">
   <text y="129.14" x="425.47" svgx:width="0.25" style="fill:rgb(0,0,0);font-family:TimesNewRomanPSMT;font-size:11.04px;stroke:none;"> </text>
  </g>
  <g begin="text">
   <text y="129.14" x="428.59,434.11,437.223,445.746,450.648,456.168,460.385,463.498,469.018,474.538,478.734,481.957,484.96,490.48,495.382,498.396,503.916,509.436,512.549,517.948,523.346" svgx:width="0.5,0.28,0.78,0.44,0.5,0.39,0.28,0.5,0.5,0.39,0.25,0.28,0.5,0.44,0.28,0.5,0.5,0.28,0.5,0.5,0.25" style="fill:rgb(0,0,0);font-family:TimesNewRomanPSMT;font-size:11.04px;stroke:none;">dimensions including </text>
  </g>
  <g begin="text">
   <text y="129.14" x="48.48" svgx:width="0.5" style="fill:rgb(0,0,0);font-family:TimesNewRomanPSMT;font-size:11.04px;stroke:none;">3</text>
  </g>
  <g begin="text">
   <text y="129.14" x="54.0" svgx:width="0.25" style="fill:rgb(0,0,0);font-family:TimesNewRomanPSMT;font-size:11.04px;stroke:none;"> </text>
  </g>
  <g begin="text">
   <text y="143.06" x="72.024,77.544,82.446,85.46,88.573,94.093,99.613,104.415,107.529,110.289,115.19,120.71,126.131,128.891,132.004,137.403,140.516,145.319,149.028,154.548,159.35,162.464,165.577,171.097,176.496,181.397,184.522,187.282,192.68,198.2,201.314,204.316,209.218" svgx:width="0.5,0.44,0.28,0.28,0.5,0.5,0.44,0.28,0.25,0.44,0.5,0.5,0.25,0.28,0.5,0.28,0.44,0.33,0.5,0.44,0.28,0.28,0.5,0.5,0.44,0.28,0.25,0.5,0.5,0.28,0.28,0.44,0.5" style="fill:rgb(0,0,0);font-family:TimesNewRomanPSMT;font-size:11.04px;stroke:none;">national and international policy</text>
  </g>
  <g begin="text">
   <text y="143.06" x="214.85,217.61,220.37,223.969,227.082,232.602,237.504,242.925,247.826,250.84,255.742,258.866,261.505,266.407,271.927,277.447,280.107,283.221,288.122,293.046,298.566,303.965,309.485,312.488,318.008,323.528,326.641,331.543,336.356,339.47,342.108,350.741,353.744,356.857,359.86" svgx:width="0.25,0.25,0.33,0.28,0.5,0.44,0.5,0.44,0.28,0.44,0.28,0.25,0.44,0.5,0.5,0.25,0.28,0.44,0.44,0.5,0.5,0.5,0.28,0.5,0.5,0.28,0.44,0.44,0.28,0.25,0.78,0.28,0.28,0.28,0.5" style="fill:rgb(0,0,0);font-family:TimesNewRomanPSMT;font-size:11.04px;stroke:none;">, financial and technological mitig</text>
  </g>
  <g begin="text">
   <text y="143.06" x="365.47,370.372,373.386,376.499,382.019,387.539,390.299,395.697,399.407,402.41,407.93,412.832,416.453" svgx:width="0.44,0.28,0.28,0.5,0.5,0.25,0.5,0.33,0.28,0.5,0.44,0.33,0.39" style="fill:rgb(0,0,0);font-family:TimesNewRomanPSMT;font-size:11.04px;stroke:none;">ation drivers</text>
  </g>
  <g begin="text">
   <text y="143.06" x="420.79" svgx:width="0.28" style="fill:rgb(0,0,0);font-family:TimesNewRomanPSMT;font-size:11.04px;stroke:none;">;</text>
  </g>
  <g begin="text">
   <text y="143.06" x="423.91" svgx:width="0.25" style="fill:rgb(0,0,0);font-family:TimesNewRomanPSMT;font-size:11.04px;stroke:none;"> </text>
  </g>
  <g begin="text">
   <text y="143.06" x="426.55,431.352,436.872,442.392,445.152,450.054,455.574,461.094,465.908,469.021,474.541,478.736,481.849,487.369,492.768,497.062,499.822" svgx:width="0.44,0.5,0.5,0.25,0.44,0.5,0.5,0.44,0.28,0.5,0.39,0.28,0.5,0.5,0.39,0.25,0.25" style="fill:rgb(0,0,0);font-family:TimesNewRomanPSMT;font-size:11.04px;stroke:none;">and conclusions. </text>
  </g>
  <g begin="text">
   <text y="143.06" x="502.54" svgx:width="0.25" style="fill:rgb(0,0,0);font-family:TimesNewRomanPSMT;font-size:11.04px;stroke:none;"> </text>
  </g>
  <g begin="text">
   <text y="143.06" x="48.48" svgx:width="0.5" style="fill:rgb(0,0,0);font-family:TimesNewRomanPSMT;font-size:11.04px;stroke:none;">4</text>
  </g>
  <g begin="text">
   <text y="143.06" x="54.0" svgx:width="0.25" style="fill:rgb(0,0,0);font-family:TimesNewRomanPSMT;font-size:11.04px;stroke:none;"> </text>
  </g>
  <g begin="text">
   <text y="162.98" x="72.024" svgx:width="0.25" style="fill:rgb(0,0,0);font-family:TimesNewRomanPSMT;font-size:11.04px;stroke:none;"> </text>
  </g>
  <g begin="text">
   <text y="162.98" x="48.48" svgx:width="0.5" style="fill:rgb(0,0,0);font-family:TimesNewRomanPSMT;font-size:11.04px;stroke:none;">5</text>
  </g>
  <g begin="text">
   <text y="162.98" x="54.0" svgx:width="0.25" style="fill:rgb(0,0,0);font-family:TimesNewRomanPSMT;font-size:11.04px;stroke:none;"> </text>
  </g>
  <g begin="text">
   <text y="616.63" x="523.54" svgx:width="0.25" style="fill:rgb(0,0,0);font-family:TimesNewRomanPS-BoldMT;font-size:11.04px;stroke:none;"> </text>
  </g>
  <g begin="text">
   <text y="616.63" x="48.48" svgx:width="0.5" style="fill:rgb(0,0,0);font-family:TimesNewRomanPSMT;font-size:11.04px;stroke:none;">6</text>
  </g>
  <g begin="text">
   <text y="616.63" x="54.0" svgx:width="0.25" style="fill:rgb(0,0,0);font-family:TimesNewRomanPSMT;font-size:11.04px;stroke:none;"> </text>
  </g>
  <g begin="text">
   <text y="633.34" x="186.53,192.635,195.404,200.424,205.962,210.384,214.806,217.336,222.366" svgx:width="0.61,0.28,0.5,0.56,0.44,0.44,0.25,0.5,0.25" style="fill:rgb(0,0,0);font-family:TimesNewRomanPS-BoldMT;font-size:9.96px;stroke:none;">Figure 1.</text>
  </g>
  <g begin="text">
   <text y="633.34" x="224.93" svgx:width="0.5" style="fill:rgb(0,0,0);font-family:TimesNewRomanPS-BoldMT;font-size:9.96px;stroke:none;">8</text>
  </g>
  <g begin="text">
   <text y="633.34" x="229.97" svgx:width="0.33" style="fill:rgb(0,0,0);font-family:TimesNewRomanPS-BoldMT;font-size:9.96px;stroke:none;">:</text>
  </g>
  <g begin="text">
   <text y="633.34" x="233.33" svgx:width="0.25" style="fill:rgb(0,0,0);font-family:TimesNewRomanPS-BoldMT;font-size:9.96px;stroke:none;"> </text>
  </g>
  <g begin="text">
   <text y="633.34" x="235.85,242.454,247.991,252.414,254.923,260.461,263.778,268.23,273.768,278.19,281.536,287.074,291.496,295.919,298.449,303.478,306.825,309.225,316.416,323.608,328.657,331.167,340.53,343.299,346.635,349.404,354.424,359.454,362.8,365.569,370.589,376.127,378.617,385.808,390.26,395.798,400.808,405.23" svgx:width="0.67,0.56,0.44,0.25,0.56,0.33,0.44,0.56,0.44,0.33,0.56,0.44,0.44,0.25,0.5,0.33,0.25,0.72,0.72,0.5,0.25,0.94,0.28,0.33,0.28,0.5,0.5,0.33,0.28,0.5,0.56,0.25,0.72,0.44,0.56,0.5,0.44,0.33" style="fill:rgb(0,0,0);font-family:TimesNewRomanPS-BoldMT;font-size:9.96px;stroke:none;">The Structure of AR6 Mitigation Report</text>
  </g>
  <g begin="text">
   <text y="633.34" x="408.79" svgx:width="0.25" style="fill:rgb(0,0,0);font-family:TimesNewRomanPS-BoldMT;font-size:9.96px;stroke:none;"> </text>
  </g>
  <g begin="text">
   <text y="633.34" x="48.48" svgx:width="0.5" style="fill:rgb(0,0,0);font-family:TimesNewRomanPSMT;font-size:11.04px;stroke:none;">7</text>
  </g>
  <g begin="text">
   <text y="633.34" x="54.0" svgx:width="0.25" style="fill:rgb(0,0,0);font-family:TimesNewRomanPSMT;font-size:11.04px;stroke:none;"> </text>
  </g>
  <g begin="text">
   <text y="652.9" x="72.024,79.343,84.863,89.765,95.285,98.41,103.212,106.921,111.117,113.87700000000001,115.301" svgx:width="0.67,0.5,0.44,0.5,0.28,0.44,0.33,0.39,0.25,0.55,0.5" style="fill:rgb(0,0,0);font-family:TimesNewRomanPSMT;font-size:11.04px;stroke:none;">Chapters 2</text>
  </g>
  <g begin="text">
   <text y="652.9" x="120.86" svgx:width="0.33" style="fill:rgb(0,0,0);font-family:TimesNewRomanPSMT;font-size:11.04px;stroke:none;">-</text>
  </g>
  <g begin="text">
   <text y="652.9" x="124.46,129.98,132.73999999999998,134.164,139.066,144.586,150.007,154.908,158.529,161.289,162.714,165.827,171.225,176.127,178.887,180.333,185.732,188.845,194.244,197.004,198.428,203.948,207.061,211.864,214.977,220.376,224.085,228.987,231.74699999999999,233.072,236.185,239.784,244.686,250.206,255.726,260.053,262.692,265.452,266.876,272.275,275.984,279.097,284.496,289.398,293.129" svgx:width="0.5,0.25,0.55,0.44,0.5,0.5,0.44,0.33,0.25,0.55,0.28,0.5,0.44,0.25,0.55,0.5,0.28,0.5,0.25,0.55,0.5,0.28,0.44,0.28,0.5,0.33,0.44,0.25,0.55,0.28,0.33,0.44,0.5,0.5,0.39,0.25,0.25,0.55,0.5,0.33,0.28,0.5,0.44,0.33,0.39" style="fill:rgb(0,0,0);font-family:TimesNewRomanPSMT;font-size:11.04px;stroke:none;">5 cover the big picture trends, drivers</text>
  </g>
  <g begin="text">
   <text y="652.9" x="297.53" svgx:width="0.25" style="fill:rgb(0,0,0);font-family:TimesNewRomanPSMT;font-size:11.04px;stroke:none;"> </text>
  </g>
  <g begin="text">
   <text y="652.9" x="301.73,306.632,312.052,317.572,320.332,321.757,327.277,330.986,336.385,339.498,344.3,349.202,352.216,355.329,360.849,366.369,370.564,373.324,374.749,379.551,382.664,385.424,386.848,392.247,397.149,400.163,403.276,408.796,414.316,419.118,422.232,424.992,426.305,431.108,436.628,442.148,444.908,446.332,451.852,454.855,460.375,465.895,470.697,473.81,476.57,477.884,480.998,485.899,491.419,496.233,499.346" svgx:width="0.44,0.5,0.5,0.25,0.55,0.5,0.33,0.5,0.28,0.44,0.44,0.28,0.28,0.5,0.5,0.39,0.25,0.55,0.44,0.28,0.25,0.55,0.5,0.44,0.28,0.28,0.5,0.5,0.44,0.28,0.25,0.55,0.44,0.5,0.5,0.25,0.55,0.5,0.28,0.5,0.5,0.44,0.28,0.25,0.55,0.28,0.44,0.5,0.44,0.28,0.39" style="fill:rgb(0,0,0);font-family:TimesNewRomanPSMT;font-size:11.04px;stroke:none;">and projections at national and global levels</text>
  </g>
  <g begin="text">
   <text y="652.9" x="503.86,506.499,509.259,510.683" svgx:width="0.25,0.25,0.55,0.33" style="fill:rgb(0,0,0);font-family:TimesNewRomanPSMT;font-size:11.04px;stroke:none;">. (</text>
  </g>
  <g begin="text">
   <text y="652.9" x="514.42" svgx:width="0.5" style="fill:rgb(0,0,0);font-family:TimesNewRomanPSMT;font-size:11.04px;stroke:none;">2</text>
  </g>
  <g begin="text">
   <text y="652.9" x="519.82" svgx:width="0.33" style="fill:rgb(0,0,0);font-family:TimesNewRomanPSMT;font-size:11.04px;stroke:none;">)</text>
  </g>
  <g begin="text">
   <text y="652.9" x="523.42" svgx:width="0.25" style="fill:rgb(0,0,0);font-family:TimesNewRomanPSMT;font-size:11.04px;stroke:none;"> </text>
  </g>
  <g begin="text">
   <text y="652.9" x="48.48" svgx:width="0.5" style="fill:rgb(0,0,0);font-family:TimesNewRomanPSMT;font-size:11.04px;stroke:none;">8</text>
  </g>
  <g begin="text">
   <text y="652.9" x="54.0" svgx:width="0.25" style="fill:rgb(0,0,0);font-family:TimesNewRomanPSMT;font-size:11.04px;stroke:none;"> </text>
  </g>
  <g begin="text">
   <text y="666.82" x="72.024,76.926,82.446,87.37,90.483,95.881,100.176,105.111,109.405,112.165,113.501,118.304,126.827,129.94,134.234,138.463,141.576,147.096,152.616,155.376,156.69,159.693,163.402,168.304,173.824,179.244,183.539,186.29899999999998,187.635,192.437,197.957,203.477,206.237,207.551,213.071,216.781,219.894,225.292,230.194,233.926,238.22,240.98,242.195,245.308,250.828,253.588,254.902,260.422,265.323,268.337,273.239,275.999" svgx:width="0.44,0.5,0.44,0.28,0.5,0.39,0.44,0.39,0.25,0.55,0.44,0.78,0.28,0.39,0.39,0.28,0.5,0.5,0.25,0.55,0.28,0.33,0.44,0.5,0.5,0.39,0.25,0.55,0.44,0.5,0.5,0.25,0.55,0.5,0.33,0.28,0.5,0.44,0.33,0.39,0.25,0.55,0.28,0.5,0.25,0.55,0.5,0.44,0.28,0.44,0.25,0.25" style="fill:rgb(0,0,0);font-family:TimesNewRomanPSMT;font-size:11.04px;stroke:none;">analyses emission trends and drivers to date. </text>
  </g>
  <g begin="text">
   <text y="666.82" x="280.25" svgx:width="0.33" style="fill:rgb(0,0,0);font-family:TimesNewRomanPSMT;font-size:11.04px;stroke:none;">(</text>
  </g>
  <g begin="text">
   <text y="666.82" x="283.97" svgx:width="0.5" style="fill:rgb(0,0,0);font-family:TimesNewRomanPSMT;font-size:11.04px;stroke:none;">3</text>
  </g>
  <g begin="text">
   <text y="666.82" x="289.37" svgx:width="0.33" style="fill:rgb(0,0,0);font-family:TimesNewRomanPSMT;font-size:11.04px;stroke:none;">)</text>
  </g>
  <g begin="text">
   <text y="666.82" x="293.09" svgx:width="0.25" style="fill:rgb(0,0,0);font-family:TimesNewRomanPSMT;font-size:11.04px;stroke:none;"> </text>
  </g>
  <g begin="text">
   <text y="666.82" x="297.17,302.69,306.399,311.202,315.496,320.431,325.951,328.954,333.249,336.009,337.345,340.458,345.978,351.498" svgx:width="0.5,0.33,0.44,0.39,0.44,0.5,0.28,0.39,0.25,0.55,0.28,0.5,0.5,0.5" style="fill:rgb(0,0,0);font-family:TimesNewRomanPSMT;font-size:11.04px;stroke:none;">presents long</text>
  </g>
  <g begin="text">
   <text y="666.82" x="357.07" svgx:width="0.33" style="fill:rgb(0,0,0);font-family:TimesNewRomanPSMT;font-size:11.04px;stroke:none;">-</text>
  </g>
  <g begin="text">
   <text y="666.82" x="360.67,363.673,368.575,372.196,380.829,383.589,384.903,390.423,393.536,399.056,404.455,409.356,412.481,415.241,416.555,420.75,425.651,430.465,435.985,440.887,444.618,447.621,453.141,457.436,460.196,462.956,464.292,467.405,472.803,477.705,480.829,486.228,491.748,494.861,500.381,505.901,508.661,509.854,512.967,518.487,523.289" svgx:width="0.28,0.44,0.33,0.78,0.25,0.55,0.5,0.28,0.5,0.5,0.44,0.28,0.25,0.55,0.39,0.44,0.44,0.5,0.44,0.33,0.28,0.5,0.39,0.25,0.25,0.55,0.28,0.5,0.44,0.28,0.5,0.5,0.28,0.5,0.5,0.25,0.55,0.28,0.5,0.44,0.25" style="fill:rgb(0,0,0);font-family:TimesNewRomanPSMT;font-size:11.04px;stroke:none;">term global scenarios, including the </text>
  </g>
  <g begin="text">
   <text y="666.82" x="48.48" svgx:width="0.5" style="fill:rgb(0,0,0);font-family:TimesNewRomanPSMT;font-size:11.04px;stroke:none;">9</text>
  </g>
  <g begin="text">
   <text y="666.82" x="54.0" svgx:width="0.25" style="fill:rgb(0,0,0);font-family:TimesNewRomanPSMT;font-size:11.04px;stroke:none;"> </text>
  </g>
  <g begin="text">
   <text y="680.74" x="72.024,77.544,81.253,86.773,89.776,94.678,99.602,102.605,107.507,113.027,116.515,121.417,126.341,131.739,137.259,142.779,151.302,154.416,159.317,162.806,167.608,173.128,178.648,182.115,187.635,190.638,196.158,201.06,204.791,208.258,213.159,218.679,223.493,227.202,232.005,236.906,240.031,244.833,248.543,251.545,255.84,258.865,261.978,266.88,271.208,274.674,280.073,283.782,287.249,295.772,298.885,301.888,305.001,310.4,315.302,318.426,321.429,326.949,332.469,335.935,339.049,344.447,348.157,353.677,359.197,364.717,370.237,373.582,376.695,382.215,385.682,391.202,396.103,399.117,404.019,409.539,414.352,417.466,422.986,428.506,431.851,437.371,441.08,444.547,448.841,454.361,459.881,463.502,468.404,473.328,477.623,481.122,485.925,491.445,496.965,500.431,504.726,507.751,513.271,518.791,522.986" svgx:width="0.5,0.33,0.5,0.28,0.44,0.44,0.28,0.44,0.5,0.25,0.44,0.44,0.5,0.5,0.5,0.78,0.28,0.44,0.25,0.44,0.5,0.5,0.25,0.5,0.28,0.5,0.44,0.33,0.25,0.44,0.5,0.44,0.33,0.44,0.44,0.28,0.44,0.33,0.28,0.39,0.28,0.28,0.44,0.39,0.25,0.5,0.33,0.25,0.78,0.28,0.28,0.28,0.5,0.44,0.28,0.28,0.5,0.5,0.25,0.28,0.5,0.33,0.5,0.5,0.5,0.5,0.25,0.28,0.5,0.25,0.5,0.44,0.28,0.44,0.5,0.44,0.28,0.5,0.5,0.25,0.5,0.33,0.25,0.39,0.5,0.5,0.33,0.44,0.44,0.39,0.25,0.44,0.5,0.5,0.25,0.39,0.28,0.5,0.5,0.39,0.25" style="fill:rgb(0,0,0);font-family:TimesNewRomanPSMT;font-size:11.04px;stroke:none;">projected economic and other characteristics of mitigation through to balancing of sources and sinks </text>
  </g>
  <g begin="text">
   <text y="680.74" x="42.96,48.48" svgx:width="0.5,0.5" style="fill:rgb(0,0,0);font-family:TimesNewRomanPSMT;font-size:11.04px;stroke:none;">10</text>
  </g>
  <g begin="text">
   <text y="680.74" x="54.0" svgx:width="0.25" style="fill:rgb(0,0,0);font-family:TimesNewRomanPSMT;font-size:11.04px;stroke:none;"> </text>
  </g>
  <g begin="text">
   <text y="694.66" x="72.024,75.144" svgx:width="0.28,0.5" style="fill:rgb(0,0,0);font-family:TimesNewRomanPSMT;font-size:11.04px;stroke:none;">th</text>
  </g>
  <g begin="text">
   <text y="694.66" x="80.664,84.373,89.893,95.292,100.812,106.332,109.202,112.316,117.836,122.737,125.63,129.924,134.859,139.662,145.182,150.702,156.222,159.214,164.612,169.514,172.528,176.237,179.108,182.221,187.741,190.744,195.038,198.052,202.954,207.878,213.276,216.39,221.788,225.498,231.018,233.778,236.77,241.572,247.092,252.612,255.482,258.596,264.116,269.017,271.91,274.913,283.546,289.066,292.069,295.182,300.084,304.897,307.9,310.903,316.423,321.943,326.238,329.252,332.851,338.371,342.08,344.951,350.471,353.584,359.104,364.502,369.404,372.418,375.41,378.523,383.326,391.959,397.357,402.259,405.991,410.793,413.906,419.305,423.014,427.916,430.809,435.71,441.23,446.154,451.674,457.194,461.997,464.988,469.89,475.41,480.831,483.823,487.422,490.535,494.83,500.35,504.578,507.338" svgx:width="0.33,0.5,0.5,0.5,0.5,0.25,0.28,0.5,0.44,0.25,0.39,0.44,0.44,0.5,0.5,0.5,0.25,0.5,0.44,0.28,0.33,0.25,0.28,0.5,0.28,0.39,0.25,0.44,0.44,0.5,0.28,0.5,0.33,0.5,0.25,0.25,0.44,0.5,0.5,0.25,0.28,0.5,0.44,0.25,0.28,0.78,0.5,0.28,0.28,0.44,0.44,0.28,0.28,0.5,0.5,0.39,0.25,0.33,0.5,0.33,0.25,0.5,0.28,0.5,0.5,0.44,0.28,0.25,0.28,0.44,0.78,0.5,0.44,0.33,0.44,0.28,0.5,0.33,0.44,0.25,0.44,0.5,0.44,0.5,0.5,0.44,0.25,0.44,0.5,0.5,0.25,0.33,0.28,0.39,0.5,0.39,0.25,0.25" style="fill:rgb(0,0,0);font-family:TimesNewRomanPSMT;font-size:11.04px;stroke:none;">rough the second half this century, and the implications for global temperature change and risks. </text>
  </g>
  <g begin="text">
   <text y="694.66" x="510.7" svgx:width="0.33" style="fill:rgb(0,0,0);font-family:TimesNewRomanPSMT;font-size:11.04px;stroke:none;">(</text>
  </g>
  <g begin="text">
   <text y="694.66" x="514.3" svgx:width="0.5" style="fill:rgb(0,0,0);font-family:TimesNewRomanPSMT;font-size:11.04px;stroke:none;">4</text>
  </g>
  <g begin="text">
   <text y="694.66" x="519.82" svgx:width="0.33" style="fill:rgb(0,0,0);font-family:TimesNewRomanPSMT;font-size:11.04px;stroke:none;">)</text>
  </g>
  <g begin="text">
   <text y="694.66" x="523.42" svgx:width="0.25" style="fill:rgb(0,0,0);font-family:TimesNewRomanPSMT;font-size:11.04px;stroke:none;"> </text>
  </g>
  <g begin="text">
   <text y="694.66" x="42.96,48.48" svgx:width="0.5,0.5" style="fill:rgb(0,0,0);font-family:TimesNewRomanPSMT;font-size:11.04px;stroke:none;">11</text>
  </g>
  <g begin="text">
   <text y="694.66" x="54.0" svgx:width="0.25" style="fill:rgb(0,0,0);font-family:TimesNewRomanPSMT;font-size:11.04px;stroke:none;"> </text>
  </g>
  <g begin="text">
   <text y="708.58" x="72.024,76.926,82.446,87.966,91.09,96.489,100.198,105.1,109.428,112.894,116.007,121.527,126.429,129.189,130.039,134.234,139.754,145.274,148.873,151.987,156.789" svgx:width="0.44,0.5,0.5,0.28,0.5,0.33,0.44,0.39,0.25,0.28,0.5,0.44,0.25,0.55,0.39,0.5,0.5,0.33,0.28,0.44,0.33" style="fill:rgb(0,0,0);font-family:TimesNewRomanPSMT;font-size:11.04px;stroke:none;">explores the shorter</text>
  </g>
  <g begin="text">
   <text y="708.58" x="160.58" svgx:width="0.33" style="fill:rgb(0,0,0);font-family:TimesNewRomanPSMT;font-size:11.04px;stroke:none;">-</text>
  </g>
  <g begin="text">
   <text y="708.58" x="164.18,167.293,172.195,175.816,184.449,188.037,193.436,197.145,202.665,206.96,212.48,217.304,222.206,225.22,229.515,232.27499999999998,233.125,236.238,241.758,246.56,249.674,255.194,260.592,263.706,269.226,274.746,277.506,278.334,286.249,294.165,301.484,305.779,308.539,312.039,316.941,322.461,327.98,330.74,331.591,334.704,340.224,345.126,347.88599999999997,348.736,354.134,359.654,363.949,368.177,371.29,376.81,379.813,382.816,385.929,388.932,392.046,396.947,401.275,404.742,408.451,413.971,417.681,420.441,421.269,426.071,430.873,435.775,440.699,443.812,448.615,452.324,457.126,460.24,463.353,468.752,474.272,477.032,477.86,486.383,489.496,492.499,495.612,501.132,505.934,509.048,512.161,517.56,523.08" svgx:width="0.28,0.44,0.33,0.78,0.25,0.5,0.33,0.5,0.39,0.5,0.44,0.44,0.28,0.39,0.25,0.55,0.28,0.5,0.44,0.28,0.5,0.5,0.28,0.5,0.5,0.25,0.55,0.72,0.72,0.67,0.39,0.25,0.25,0.44,0.5,0.5,0.25,0.55,0.28,0.5,0.44,0.25,0.55,0.5,0.5,0.39,0.39,0.28,0.5,0.28,0.28,0.28,0.28,0.28,0.44,0.39,0.25,0.33,0.5,0.33,0.25,0.55,0.44,0.44,0.44,0.44,0.28,0.44,0.33,0.44,0.28,0.28,0.5,0.5,0.25,0.55,0.78,0.28,0.28,0.28,0.5,0.44,0.28,0.28,0.5,0.5,0.25" style="fill:rgb(0,0,0);font-family:TimesNewRomanPSMT;font-size:11.04px;stroke:none;">term prospects including NDCs, and the possibilities for accelerating mitigation </text>
  </g>
  <g begin="text">
   <text y="708.58" x="42.96,48.48" svgx:width="0.5,0.5" style="fill:rgb(0,0,0);font-family:TimesNewRomanPSMT;font-size:11.04px;stroke:none;">12</text>
  </g>
  <g begin="text">
   <text y="708.58" x="54.0" svgx:width="0.25" style="fill:rgb(0,0,0);font-family:TimesNewRomanPSMT;font-size:11.04px;stroke:none;"> </text>
  </g>
  <g begin="text">
   <text y="722.5" x="72.024,77.544,83.064,86.177,88.937,91.94,97.46,100.22,105.74,111.26,116.78,122.3,124.939,128.052,133.572,136.332,139.335,144.855,149.757,152.517,157.441,162.839,168.359,171.472,176.275,181.795,184.908,187.668,193.067,196.776,199.536,203.831,209.351,213.579,216.692,221.495,224.608,230.128,235.03,240.45,243.564,248.465,251.225,256.646,261.548,267.068,271.881,274.994,280.514,285.913,294.546,299.448" svgx:width="0.5,0.5,0.28,0.25,0.28,0.5,0.25,0.5,0.5,0.5,0.5,0.25,0.28,0.5,0.25,0.28,0.5,0.44,0.25,0.44,0.5,0.5,0.28,0.44,0.5,0.28,0.25,0.5,0.33,0.25,0.39,0.5,0.39,0.28,0.44,0.28,0.5,0.44,0.5,0.28,0.44,0.25,0.5,0.44,0.5,0.44,0.28,0.5,0.5,0.78,0.44,0.5" style="fill:rgb(0,0,0);font-family:TimesNewRomanPSMT;font-size:11.04px;stroke:none;">out to 2050 in the context of sustainable developmen</text>
  </g>
  <g begin="text">
   <text y="722.5" x="304.97,308.083,310.843,315.646,318.759,321.519,324.632,330.031,334.933,337.693,343.213,348.026,351.139,354.253,359.773,365.171,370.073,373.197,375.957,378.596,382.305,387.207,392.628,395.741,401.261,406.781,411.583,414.697,417.457,422.358,427.779,433.299,435.938,439.051,444.571,447.574,452.475,456.207,461.727,466.529,469.532,472.646,478.166,483.686,488.488,491.601,494.361,498.656,503.48,508.382,511.396,516.298,520.625,523.264" svgx:width="0.28,0.25,0.44,0.28,0.25,0.28,0.5,0.44,0.25,0.5,0.44,0.28,0.28,0.5,0.5,0.44,0.28,0.25,0.25,0.33,0.44,0.5,0.28,0.5,0.5,0.44,0.28,0.25,0.44,0.5,0.5,0.25,0.28,0.5,0.28,0.44,0.33,0.5,0.44,0.28,0.28,0.5,0.5,0.44,0.28,0.25,0.39,0.44,0.44,0.28,0.44,0.39,0.25,0.25" style="fill:rgb(0,0,0);font-family:TimesNewRomanPSMT;font-size:11.04px;stroke:none;">t at the national, regional and international scales. </text>
  </g>
  <g begin="text">
   <text y="722.5" x="42.96,48.48" svgx:width="0.5,0.5" style="fill:rgb(0,0,0);font-family:TimesNewRomanPSMT;font-size:11.04px;stroke:none;">13</text>
  </g>
  <g begin="text">
   <text y="722.5" x="54.0" svgx:width="0.25" style="fill:rgb(0,0,0);font-family:TimesNewRomanPSMT;font-size:11.04px;stroke:none;"> </text>
  </g>
  <rect style="fill:pink;opacity:0.2;stroke:blue;stroke-width:0.3;" x="72.0" y="130.67" height="443.5" width="451.3" title="64"/>
  <text y="130.67" class="image" id="image.64.1" width="451" height="443" x="72.0" style="font-size:5.0px;">image.64.1.72_523.131_574</text>
  <g begin="text">
   <text y="602.109" transform="matrix(0.70711,-0.70711,0.70711,0.70711,-395.12956,250.29085)" rotateDegrees="-45" matrix="[29.803345,29.803345,-29.803345,29.803345,104.563255,239.8115]" x="104.563" svgx:width="0.67" style="fill:rgb(0,0,0);font-family:Arial;font-size:42.15px;stroke:none;">A</text>
   <text y="582.23" transform="matrix(0.70711,-0.70711,0.70711,0.70711,-375.25056,258.525)" rotateDegrees="-45" matrix="[29.803345,29.803345,-29.803345,29.803345,124.442085,259.6903]" x="124.442" svgx:width="0.72" style="fill:rgb(0,0,0);font-family:Arial;font-size:42.15px;stroke:none;">C</text>
   <text y="560.712" transform="matrix(0.70711,-0.70711,0.70711,0.70711,-353.73256,267.43805)" rotateDegrees="-45" matrix="[29.803345,29.803345,-29.803345,29.803345,145.9601,281.20834]" x="145.96" svgx:width="0.72" style="fill:rgb(0,0,0);font-family:Arial;font-size:42.15px;stroke:none;">C</text>
   <text y="539.194" transform="matrix(0.70711,-0.70711,0.70711,0.70711,-332.21456,276.3511)" rotateDegrees="-45" matrix="[29.803345,29.803345,-29.803345,29.803345,167.47812,302.72635]" x="167.478" svgx:width="0.67" style="fill:rgb(0,0,0);font-family:Arial;font-size:42.15px;stroke:none;">E</text>
   <text y="519.315" transform="matrix(0.70711,-0.70711,0.70711,0.70711,-312.33556,284.58525)" rotateDegrees="-45" matrix="[29.803345,29.803345,-29.803345,29.803345,187.35693,322.60516]" x="187.357" svgx:width="0.67" style="fill:rgb(0,0,0);font-family:Arial;font-size:42.15px;stroke:none;">P</text>
   <text y="499.436" transform="matrix(0.70711,-0.70711,0.70711,0.70711,-292.45656,292.8194)" rotateDegrees="-45" matrix="[29.803345,29.803345,-29.803345,29.803345,207.23578,342.484]" x="207.236" svgx:width="0.61" style="fill:rgb(0,0,0);font-family:Arial;font-size:42.15px;stroke:none;">T</text>
   <text y="481.226" transform="matrix(0.70711,-0.70711,0.70711,0.70711,-274.24656,300.36223)" rotateDegrees="-45" matrix="[29.803345,29.803345,-29.803345,29.803345,225.44562,360.69385]" x="225.446" svgx:width="0.67" style="fill:rgb(0,0,0);font-family:Arial;font-size:42.15px;stroke:none;">E</text>
   <text y="461.347" transform="matrix(0.70711,-0.70711,0.70711,0.70711,-254.36786,308.59567)" rotateDegrees="-45" matrix="[29.803345,29.803345,-29.803345,29.803345,245.32443,380.57266]" x="245.324" svgx:width="0.72" style="fill:rgb(0,0,0);font-family:Arial;font-size:42.15px;stroke:none;">D</text>
   <text y="439.829" transform="matrix(0.70711,-0.70711,0.70711,0.70711,-232.84986,317.50872)" rotateDegrees="-45" matrix="[29.803345,29.803345,-29.803345,29.803345,266.84247,402.0907]" x="266.842" svgx:width="0.28" style="fill:rgb(0,0,0);font-family:Arial;font-size:42.15px;stroke:none;"> </text>
   <text y="431.54" transform="matrix(0.70711,-0.70711,0.70711,0.70711,-224.56056,320.94284)" rotateDegrees="-45" matrix="[29.803345,29.803345,-29.803345,29.803345,275.13153,410.37976]" x="275.132" svgx:width="0.67" style="fill:rgb(0,0,0);font-family:Arial;font-size:42.15px;stroke:none;">V</text>
   <text y="411.661" transform="matrix(0.70711,-0.70711,0.70711,0.70711,-204.68186,329.17629)" rotateDegrees="-45" matrix="[29.803345,29.803345,-29.803345,29.803345,295.0103,430.25858]" x="295.01" svgx:width="0.67" style="fill:rgb(0,0,0);font-family:Arial;font-size:42.15px;stroke:none;">E</text>
   <text y="391.783" transform="matrix(0.70711,-0.70711,0.70711,0.70711,-184.80356,337.41073)" rotateDegrees="-45" matrix="[29.803345,29.803345,-29.803345,29.803345,314.88916,450.1374]" x="314.889" svgx:width="0.72" style="fill:rgb(0,0,0);font-family:Arial;font-size:42.15px;stroke:none;">R</text>
   <text y="370.265" transform="matrix(0.70711,-0.70711,0.70711,0.70711,-163.28556,346.32378)" rotateDegrees="-45" matrix="[29.803345,29.803345,-29.803345,29.803345,336.40717,471.65543]" x="336.407" svgx:width="0.67" style="fill:rgb(0,0,0);font-family:Arial;font-size:42.15px;stroke:none;">S</text>
   <text y="350.386" transform="matrix(0.70711,-0.70711,0.70711,0.70711,-143.40656,354.55793)" rotateDegrees="-45" matrix="[29.803345,29.803345,-29.803345,29.803345,356.286,491.53424]" x="356.286" svgx:width="0.28" style="fill:rgb(0,0,0);font-family:Arial;font-size:42.15px;stroke:none;">I</text>
   <text y="342.1" transform="matrix(0.70711,-0.70711,0.70711,0.70711,-135.12086,357.9894)" rotateDegrees="-45" matrix="[29.803345,29.803345,-29.803345,29.803345,364.57135,499.81958]" x="364.571" svgx:width="0.78" style="fill:rgb(0,0,0);font-family:Arial;font-size:42.15px;stroke:none;">O</text>
   <text y="318.913" transform="matrix(0.70711,-0.70711,0.70711,0.70711,-111.93386,367.59377)" rotateDegrees="-45" matrix="[29.803345,29.803345,-29.803345,29.803345,387.7583,523.0066]" x="387.758" svgx:width="0.72" style="fill:rgb(0,0,0);font-family:Arial;font-size:42.15px;stroke:none;">N</text>
   <text y="297.395" transform="matrix(0.70711,-0.70711,0.70711,0.70711,-90.41586,376.50681)" rotateDegrees="-45" matrix="[29.803345,29.803345,-29.803345,29.803345,409.27637,544.5246]" x="409.276" svgx:width="0.28" style="fill:rgb(0,0,0);font-family:Arial;font-size:42.15px;stroke:none;"> </text>
   <text y="637.872" transform="matrix(0.70711,-0.70711,0.70711,0.70711,-409.94279,286.05456)" rotateDegrees="-45" matrix="[29.803345,29.803345,-29.803345,29.803345,140.32727,204.04747]" x="140.327" svgx:width="0.67" style="fill:rgb(0,0,0);font-family:Arial;font-size:42.15px;stroke:none;">S</text>
   <text y="617.994" transform="matrix(0.70711,-0.70711,0.70711,0.70711,-390.0645,294.289)" rotateDegrees="-45" matrix="[29.803345,29.803345,-29.803345,29.803345,160.2061,223.9263]" x="160.206" svgx:width="0.72" style="fill:rgb(0,0,0);font-family:Arial;font-size:42.15px;stroke:none;">U</text>
   <text y="596.476" transform="matrix(0.70711,-0.70711,0.70711,0.70711,-368.5465,303.20205)" rotateDegrees="-45" matrix="[29.803345,29.803345,-29.803345,29.803345,181.72412,245.4443]" x="181.724" svgx:width="0.67" style="fill:rgb(0,0,0);font-family:Arial;font-size:42.15px;stroke:none;">B</text>
   <text y="576.597" transform="matrix(0.70711,-0.70711,0.70711,0.70711,-348.6675,311.4362)" rotateDegrees="-45" matrix="[29.803345,29.803345,-29.803345,29.803345,201.60294,265.32315]" x="201.603" svgx:width="0.5" style="fill:rgb(0,0,0);font-family:Arial;font-size:42.15px;stroke:none;">J</text>
   <text y="561.695" transform="matrix(0.70711,-0.70711,0.70711,0.70711,-333.7655,317.60881)" rotateDegrees="-45" matrix="[29.803345,29.803345,-29.803345,29.803345,216.50462,280.22482]" x="216.505" svgx:width="0.67" style="fill:rgb(0,0,0);font-family:Arial;font-size:42.15px;stroke:none;">E</text>
   <text y="541.816" transform="matrix(0.70711,-0.70711,0.70711,0.70711,-313.88679,325.84225)" rotateDegrees="-45" matrix="[29.803345,29.803345,-29.803345,29.803345,236.38344,300.10364]" x="236.383" svgx:width="0.72" style="fill:rgb(0,0,0);font-family:Arial;font-size:42.15px;stroke:none;">C</text>
   <text y="520.298" transform="matrix(0.70711,-0.70711,0.70711,0.70711,-292.36879,334.7553)" rotateDegrees="-45" matrix="[29.803345,29.803345,-29.803345,29.803345,257.90146,321.62164]" x="257.901" svgx:width="0.61" style="fill:rgb(0,0,0);font-family:Arial;font-size:42.15px;stroke:none;">T</text>
   <text y="502.089" transform="matrix(0.70711,-0.70711,0.70711,0.70711,-274.1595,342.29842)" rotateDegrees="-45" matrix="[29.803345,29.803345,-29.803345,29.803345,276.1113,339.83148]" x="276.111" svgx:width="0.28" style="fill:rgb(0,0,0);font-family:Arial;font-size:42.15px;stroke:none;"> </text>
   <text y="493.803" transform="matrix(0.70711,-0.70711,0.70711,0.70711,-265.8735,345.7306)" rotateDegrees="-45" matrix="[29.803345,29.803345,-29.803345,29.803345,284.39664,348.11682]" x="284.397" svgx:width="0.61" style="fill:rgb(0,0,0);font-family:Arial;font-size:42.15px;stroke:none;">T</text>
   <text y="475.593" transform="matrix(0.70711,-0.70711,0.70711,0.70711,-247.66379,353.27272)" rotateDegrees="-45" matrix="[29.803345,29.803345,-29.803345,29.803345,302.60648,366.32666]" x="302.606" svgx:width="0.78" style="fill:rgb(0,0,0);font-family:Arial;font-size:42.15px;stroke:none;">O</text>
   <text y="452.406" transform="matrix(0.70711,-0.70711,0.70711,0.70711,-224.47679,362.87709)" rotateDegrees="-45" matrix="[29.803345,29.803345,-29.803345,29.803345,325.79346,389.51367]" x="325.793" svgx:width="0.28" style="fill:rgb(0,0,0);font-family:Arial;font-size:42.15px;stroke:none;"> </text>
   <text y="444.136" transform="matrix(0.70711,-0.70711,0.70711,0.70711,-216.2065,366.30334)" rotateDegrees="-45" matrix="[29.803345,29.803345,-29.803345,29.803345,334.0639,397.78412]" x="334.064" svgx:width="0.61" style="fill:rgb(0,0,0);font-family:Arial;font-size:42.15px;stroke:none;">F</text>
   <text y="425.926" transform="matrix(0.70711,-0.70711,0.70711,0.70711,-197.9965,373.84617)" rotateDegrees="-45" matrix="[29.803345,29.803345,-29.803345,29.803345,352.27374,415.99396]" x="352.274" svgx:width="0.28" style="fill:rgb(0,0,0);font-family:Arial;font-size:42.15px;stroke:none;">I</text>
   <text y="417.641" transform="matrix(0.70711,-0.70711,0.70711,0.70711,-189.7115,377.27793)" rotateDegrees="-45" matrix="[29.803345,29.803345,-29.803345,29.803345,360.55908,424.2793]" x="360.559" svgx:width="0.72" style="fill:rgb(0,0,0);font-family:Arial;font-size:42.15px;stroke:none;">N</text>
   <text y="396.123" transform="matrix(0.70711,-0.70711,0.70711,0.70711,-168.1935,386.19098)" rotateDegrees="-45" matrix="[29.803345,29.803345,-29.803345,29.803345,382.0771,445.7973]" x="382.077" svgx:width="0.67" style="fill:rgb(0,0,0);font-family:Arial;font-size:42.15px;stroke:none;">A</text>
   <text y="376.244" transform="matrix(0.70711,-0.70711,0.70711,0.70711,-148.3145,394.42513)" rotateDegrees="-45" matrix="[29.803345,29.803345,-29.803345,29.803345,401.95593,465.67615]" x="401.956" svgx:width="0.56" style="fill:rgb(0,0,0);font-family:Arial;font-size:42.15px;stroke:none;">L</text>
   <text y="359.673" transform="matrix(0.70711,-0.70711,0.70711,0.70711,-131.7435,401.28906)" rotateDegrees="-45" matrix="[29.803345,29.803345,-29.803345,29.803345,418.5266,482.24677]" x="418.527" svgx:width="0.28" style="fill:rgb(0,0,0);font-family:Arial;font-size:42.15px;stroke:none;"> </text>
   <text y="351.394" transform="matrix(0.70711,-0.70711,0.70711,0.70711,-123.4645,404.71834)" rotateDegrees="-45" matrix="[29.803345,29.803345,-29.803345,29.803345,426.80573,490.52588]" x="426.806" svgx:width="0.67" style="fill:rgb(0,0,0);font-family:Arial;font-size:42.15px;stroke:none;">E</text>
   <text y="331.515" transform="matrix(0.70711,-0.70711,0.70711,0.70711,-103.5855,412.95249)" rotateDegrees="-45" matrix="[29.803345,29.803345,-29.803345,29.803345,446.68457,510.40472]" x="446.685" svgx:width="0.72" style="fill:rgb(0,0,0);font-family:Arial;font-size:42.15px;stroke:none;">D</text>
   <text y="309.997" transform="matrix(0.70711,-0.70711,0.70711,0.70711,-82.0675,421.86554)" rotateDegrees="-45" matrix="[29.803345,29.803345,-29.803345,29.803345,468.2025,531.9227]" x="468.203" svgx:width="0.28" style="fill:rgb(0,0,0);font-family:Arial;font-size:42.15px;stroke:none;">I</text>
   <text y="301.712" transform="matrix(0.70711,-0.70711,0.70711,0.70711,-73.7825,425.29729)" rotateDegrees="-45" matrix="[29.803345,29.803345,-29.803345,29.803345,476.48785,540.20807]" x="476.488" svgx:width="0.61" style="fill:rgb(0,0,0);font-family:Arial;font-size:42.15px;stroke:none;">T</text>
   <text y="283.502" transform="matrix(0.70711,-0.70711,0.70711,0.70711,-55.5725,432.84012)" rotateDegrees="-45" matrix="[29.803345,29.803345,-29.803345,29.803345,494.6977,558.4179]" x="494.698" svgx:width="0.67" style="fill:rgb(0,0,0);font-family:Arial;font-size:42.15px;stroke:none;">S</text>
  </g>
 </g>
</svg>
