<?xml version="1.0" encoding="UTF-8"?>
<svg height="657.8399999999999" width="2715.7" xmlns="http://www.w3.org/2000/svg">
 <g id="page" xmlns:svgx="http://www.xml-cml.org/schema/svgx">
  <g begin="text">
   <text y="45.72" x="72.0,78.138,81.207,86.727,91.563,94.676,97.436,105.352,110.872,116.392,121.194,124.904,130.424,138.947,143.848,149.368,152.493,155.253,163.058,166.171,170.366,173.48,177.079,180.192,185.712,191.111,194.113,197.227,202.747" svgx:width="0.56,0.28,0.5,0.44,0.28,0.25,0.72,0.5,0.5,0.44,0.33,0.5,0.78,0.44,0.5,0.28,0.25,0.72,0.28,0.39,0.28,0.33,0.28,0.5,0.5,0.28,0.28,0.5,0.5" style="fill:rgb(0,0,0);font-family:TimesNewRomanPSMT;font-size:11.04px;stroke:none;">Final Government Distribution</text>
  </g>
  <g begin="text">
   <text y="45.72" x="208.34" svgx:width="0.25" style="fill:rgb(0,0,0);font-family:TimesNewRomanPSMT;font-size:11.04px;stroke:none;"> </text>
  </g>
  <g begin="text">
   <text y="45.72" x="210.98" svgx:width="0.25" style="fill:rgb(0,0,0);font-family:TimesNewRomanPSMT;font-size:11.04px;stroke:none;"> </text>
  </g>
  <g begin="text">
   <text y="45.72" x="216.02,218.78,221.54,224.3,227.06,229.82,232.58,235.34,238.1,240.86,243.62,246.38,249.14,251.9,254.66,257.42,260.18,262.94,265.579,268.339,271.099,273.859,276.619,279.379,282.139,284.899,287.659,290.419" svgx:width="0.25,0.25,0.25,0.25,0.25,0.25,0.25,0.25,0.25,0.25,0.25,0.25,0.25,0.25,0.25,0.25,0.25,0.25,0.25,0.25,0.25,0.25,0.25,0.25,0.25,0.25,0.25,0.25" style="fill:rgb(0,0,0);font-family:TimesNewRomanPSMT;font-size:11.04px;stroke:none;"> </text>
  </g>
  <g begin="text">
   <text y="45.72" x="293.21,300.529,305.928,310.83,316.35,319.364,324.266,327.997,330.757" svgx:width="0.67,0.5,0.44,0.5,0.28,0.44,0.33,0.25,0.5" style="fill:rgb(0,0,0);font-family:TimesNewRomanPSMT;font-size:11.04px;stroke:none;">Chapter 1</text>
  </g>
  <g begin="text">
   <text y="45.72" x="336.17" svgx:width="0.25" style="fill:rgb(0,0,0);font-family:TimesNewRomanPSMT;font-size:11.04px;stroke:none;"> </text>
  </g>
  <g begin="text">
   <text y="45.72" x="360.05,362.81,365.57,368.33,371.09,373.85,376.61,379.37,382.13,384.89,387.65,390.41,393.17,395.93,398.69,401.45,404.21,406.97,409.609,412.369,415.129,417.889,420.649,423.409,426.169,428.929,431.689,434.449,437.209" svgx:width="0.25,0.25,0.25,0.25,0.25,0.25,0.25,0.25,0.25,0.25,0.25,0.25,0.25,0.25,0.25,0.25,0.25,0.25,0.25,0.25,0.25,0.25,0.25,0.25,0.25,0.25,0.25,0.25,0.25" style="fill:rgb(0,0,0);font-family:TimesNewRomanPSMT;font-size:11.04px;stroke:none;"> </text>
  </g>
  <g begin="text">
   <text y="45.72" x="439.99,443.589,449.727,457.025,464.344" svgx:width="0.33,0.56,0.67,0.67,0.25" style="fill:rgb(0,0,0);font-family:TimesNewRomanPSMT;font-size:11.04px;stroke:none;">IPCC </text>
  </g>
  <g begin="text">
   <text y="45.72" x="467.11,475.026,482.345,487.865,490.625,501.047,509.018,512.584,516.183" svgx:width="0.72,0.67,0.5,0.25,0.94,0.72,0.33,0.33,0.33" style="fill:rgb(0,0,0);font-family:TimesNewRomanPSMT;font-size:11.04px;stroke:none;">AR6 WGIII</text>
  </g>
  <g begin="text">
   <text y="45.72" x="519.91" svgx:width="0.25" style="fill:rgb(0,0,0);font-family:TimesNewRomanPSMT;font-size:11.04px;stroke:none;"> </text>
  </g>
  <g begin="text">
   <text y="65.66" x="72.0" svgx:width="0.25" style="fill:rgb(0,0,0);font-family:TimesNewRomanPSMT;font-size:11.04px;stroke:none;"> </text>
  </g>
  <g begin="text">
   <text y="530.496" x="72.0,79.916,85.436,88.196,96.111,101.631,105.341,108.101,116.016,119.13,122.729,127.631,130.391,133.051,141.684,147.823,153.343,157.019,161.844,164.604,170.124,175.025,177.785,185.756,188.726,192.921,196.631,201.532,204.657,210.795,216.779,220.488" svgx:width="0.72,0.5,0.25,0.72,0.5,0.33,0.25,0.72,0.28,0.33,0.44,0.25,0.25,0.78,0.56,0.5,0.33,0.44,0.25,0.5,0.44,0.25,0.72,0.28,0.39,0.33,0.44,0.28,0.56,0.56,0.33,0.44" style="fill:rgb(0,0,0);font-family:TimesNewRomanPS-BoldMT;font-size:11.04px;stroke:none;">Do Not Cite, Quote or Distribute</text>
  </g>
  <g begin="text">
   <text y="530.496" x="225.38" svgx:width="0.25" style="fill:rgb(0,0,0);font-family:TimesNewRomanPS-BoldMT;font-size:11.04px;stroke:none;"> </text>
  </g>
  <g begin="text">
   <text y="530.496" x="252.02" svgx:width="0.25" style="fill:rgb(0,0,0);font-family:TimesNewRomanPS-BoldMT;font-size:11.04px;stroke:none;"> </text>
  </g>
  <g begin="text">
   <text y="530.496" x="288.05" svgx:width="0.5" style="fill:rgb(0,0,0);font-family:TimesNewRomanPS-BoldMT;font-size:11.04px;stroke:none;">1</text>
  </g>
  <g begin="text">
   <text y="530.496" x="293.57" svgx:width="0.33" style="fill:rgb(0,0,0);font-family:TimesNewRomanPS-BoldMT;font-size:11.04px;stroke:none;">-</text>
  </g>
  <g begin="text">
   <text y="530.496" x="297.29,302.81" svgx:width="0.5,0.5" style="fill:rgb(0,0,0);font-family:TimesNewRomanPSMT;font-size:11.04px;stroke:none;">14</text>
  </g>
  <g begin="text">
   <text y="530.496" x="308.33" svgx:width="0.25" style="fill:rgb(0,0,0);font-family:TimesNewRomanPSMT;font-size:11.04px;stroke:none;"> </text>
  </g>
  <g begin="text">
   <text y="530.496" x="310.97" svgx:width="0.25" style="fill:rgb(0,0,0);font-family:TimesNewRomanPSMT;font-size:11.04px;stroke:none;"> </text>
  </g>
  <g begin="text">
   <text y="530.496" x="324.05" svgx:width="0.25" style="fill:rgb(0,0,0);font-family:TimesNewRomanPSMT;font-size:11.04px;stroke:none;"> </text>
  </g>
  <g begin="text">
   <text y="530.496" x="360.05" svgx:width="0.25" style="fill:rgb(0,0,0);font-family:TimesNewRomanPSMT;font-size:11.04px;stroke:none;"> </text>
  </g>
  <g begin="text">
   <text y="530.496" x="396.05,402.795,408.315,411.385,416.209,419.322,422.082,427.602,432.504,437.925,442.826,447.154,450.157" svgx:width="0.61,0.5,0.28,0.44,0.28,0.25,0.5,0.44,0.5,0.44,0.39,0.28,0.25" style="fill:rgb(0,0,0);font-family:TimesNewRomanPSMT;font-size:11.04px;stroke:none;">Total pages: </text>
  </g>
  <g begin="text">
   <text y="530.496" x="452.95,458.47,463.99" svgx:width="0.5,0.5,0.5" style="fill:rgb(0,0,0);font-family:TimesNewRomanPSMT;font-size:11.04px;stroke:none;">106</text>
  </g>
  <g begin="text">
   <text y="530.496" x="469.39" svgx:width="0.25" style="fill:rgb(0,0,0);font-family:TimesNewRomanPSMT;font-size:9.96px;stroke:none;"> </text>
  </g>
  <g begin="text">
   <text y="550.416" x="72.0" svgx:width="0.25" style="fill:rgb(0,0,0);font-family:TimesNewRomanPSMT;font-size:11.04px;stroke:none;"> </text>
  </g>
  <g begin="text">
   <text y="82.34" x="77.4" svgx:width="0.25" style="fill:rgb(0,0,0);font-family:TimesNewRomanPSMT;font-size:11.04px;stroke:none;"> </text>
  </g>
  <g begin="text">
   <text y="82.34" x="302.81" svgx:width="0.25" style="fill:rgb(0,0,0);font-family:TimesNewRomanPSMT;font-size:11.04px;stroke:none;"> </text>
  </g>
  <g begin="text">
   <text y="443.26" x="636.22" svgx:width="0.25" style="fill:rgb(0,0,0);font-family:TimesNewRomanPS-BoldMT;font-size:11.04px;stroke:none;"> </text>
  </g>
  <g begin="text">
   <text y="443.26" x="48.48" svgx:width="0.5" style="fill:rgb(0,0,0);font-family:TimesNewRomanPSMT;font-size:11.04px;stroke:none;">1</text>
  </g>
  <g begin="text">
   <text y="443.26" x="54.0" svgx:width="0.25" style="fill:rgb(0,0,0);font-family:TimesNewRomanPSMT;font-size:11.04px;stroke:none;"> </text>
  </g>
  <g begin="text">
   <text y="459.94" x="208.82,214.925,217.694,222.714,228.252,232.674,237.096,239.626,244.656" svgx:width="0.61,0.28,0.5,0.56,0.44,0.44,0.25,0.5,0.25" style="fill:rgb(0,0,0);font-family:TimesNewRomanPS-BoldMT;font-size:9.96px;stroke:none;">Figure 1.</text>
  </g>
  <g begin="text">
   <text y="459.94" x="247.22,252.26" svgx:width="0.5,0.33" style="fill:rgb(0,0,0);font-family:TimesNewRomanPS-BoldMT;font-size:9.96px;stroke:none;">1:</text>
  </g>
  <g begin="text">
   <text y="459.94" x="255.62" svgx:width="0.25" style="fill:rgb(0,0,0);font-family:TimesNewRomanPS-BoldMT;font-size:9.96px;stroke:none;"> </text>
  </g>
  <g begin="text">
   <text y="459.94" x="258.02,265.809,268.578,273.597,279.135,284.145,286.914,289.404,293.856,302.242,305.011,308.846,312.691,315.459,320.479,326.017,328.507,331.873,336.296,340.748,346.286,351.783,355.628,358.138,361.983,364.851,370.389,374.811,379.233" svgx:width="0.78,0.28,0.5,0.56,0.5,0.28,0.25,0.44,0.83,0.28,0.39,0.39,0.28,0.5,0.56,0.25,0.33,0.44,0.44,0.56,0.56,0.39,0.25,0.39,0.28,0.56,0.44,0.44,0.25" style="fill:rgb(0,0,0);font-family:TimesNewRomanPS-BoldMT;font-size:9.96px;stroke:none;">Global emission trends since </text>
  </g>
  <g begin="text">
   <text y="459.94" x="381.89,386.93,391.97,397.01,402.05" svgx:width="0.5,0.5,0.5,0.5,0.25" style="fill:rgb(0,0,0);font-family:TimesNewRomanPS-BoldMT;font-size:9.96px;stroke:none;">2000 </text>
  </g>
  <g begin="text">
   <text y="459.94" x="404.57,410.108,415.118,417.518,422.548,426.97,432.02,437.558,443.055,446.9,449.41,454.44,457.786,460.296,465.326,470.356,474.2,478.623" svgx:width="0.56,0.5,0.25,0.5,0.44,0.5,0.56,0.56,0.39,0.25,0.5,0.33,0.25,0.5,0.5,0.39,0.44,0.39" style="fill:rgb(0,0,0);font-family:TimesNewRomanPS-BoldMT;font-size:9.96px;stroke:none;">by groups of gases</text>
  </g>
  <g begin="text">
   <text y="459.94" x="482.59,485.937,488.446,493.476,499.014,502.839,507.868,510.637,516.175,519.492,523.934,526.444,528.954,534.492,538.914" svgx:width="0.33,0.25,0.5,0.56,0.39,0.5,0.28,0.56,0.33,0.44,0.25,0.25,0.56,0.44,0.44" style="fill:rgb(0,0,0);font-family:TimesNewRomanPS-BoldMT;font-size:9.96px;stroke:none;">: absolute, per</text>
  </g>
  <g begin="text">
   <text y="459.94" x="543.43" svgx:width="0.33" style="fill:rgb(0,0,0);font-family:TimesNewRomanPS-BoldMT;font-size:9.96px;stroke:none;">-</text>
  </g>
  <g begin="text">
   <text y="459.94" x="546.79,551.212,556.262,561.8,564.569,567.786,572.815,575.325,577.835,582.865,588.403,593.901,596.411,599.179,604.717,608.034,612.476,618.014,621.839,624.607,627.944" svgx:width="0.44,0.5,0.56,0.28,0.33,0.5,0.25,0.25,0.5,0.56,0.56,0.25,0.28,0.56,0.33,0.44,0.56,0.39,0.28,0.33,0.5" style="fill:rgb(0,0,0);font-family:TimesNewRomanPS-BoldMT;font-size:9.96px;stroke:none;">capita, and intensity</text>
  </g>
  <g begin="text">
   <text y="459.94" x="633.1" svgx:width="0.25" style="fill:rgb(0,0,0);font-family:TimesNewRomanPS-BoldMT;font-size:9.96px;stroke:none;"> </text>
  </g>
  <g begin="text">
   <text y="459.94" x="48.48" svgx:width="0.5" style="fill:rgb(0,0,0);font-family:TimesNewRomanPSMT;font-size:11.04px;stroke:none;">2</text>
  </g>
  <g begin="text">
   <text y="459.94" x="54.0" svgx:width="0.25" style="fill:rgb(0,0,0);font-family:TimesNewRomanPSMT;font-size:11.04px;stroke:none;"> </text>
  </g>
  <g begin="text">
   <text y="472.54" x="72.0,79.191,84.231,87.0,91.422" svgx:width="0.72,0.5,0.28,0.44,0.28" style="fill:rgb(0,0,0);font-family:TimesNewRomanPSMT;font-size:9.96px;stroke:none;">Note:</text>
  </g>
  <g begin="text">
   <text y="472.54" x="94.224" svgx:width="0.25" style="fill:rgb(0,0,0);font-family:TimesNewRomanPSMT;font-size:9.96px;stroke:none;"> </text>
  </g>
  <g begin="text">
   <text y="472.54" x="96.744,102.282,107.292,112.321,119.513,123.387" svgx:width="0.56,0.5,0.5,0.72,0.39,0.25" style="fill:rgb(0,0,0);font-family:TimesNewRomanPSMT;font-size:9.96px;stroke:none;">Shows </text>
  </g>
  <g begin="text">
   <text y="472.54" x="125.9,132.5" svgx:width="0.67,0.72" style="fill:rgb(0,0,0);font-family:TimesNewRomanPSMT;font-size:9.96px;stroke:none;">CO</text>
  </g>
  <g begin="text">
   <text y="473.5" x="139.7" svgx:width="0.5" style="fill:rgb(0,0,0);font-family:TimesNewRomanPSMT;font-size:6.48px;stroke:none;">2</text>
  </g>
  <g begin="text">
   <text y="472.54" x="142.94" svgx:width="0.25" style="fill:rgb(0,0,0);font-family:TimesNewRomanPSMT;font-size:9.96px;stroke:none;"> </text>
  </g>
  <g begin="text">
   <text y="472.54" x="145.46,148.807,152.153,157.183,164.972,167.482,170.828,175.858,179.702,183.547,186.316,189.085,191.575,194.941,199.971,204.393,207.162,209.682,214.104,219.154,226.943,231.863,236.893,240.737,243.506,246.275,251.285,256.315,258.825,263.247,268.187,273.217,275.727,278.496,283.516,288.436,293.466,297.31,300.079,303.416,306.185,310.607,313.376,315.886,320.915,324.262,329.292,333.714,338.166,342.011,345.855,350.278,354.152,356.642,360.009,365.546,371.044,374.391,377.737,380.506,382.996,389.639" svgx:width="0.33,0.33,0.5,0.78,0.25,0.33,0.5,0.39,0.39,0.28,0.28,0.25,0.33,0.5,0.44,0.28,0.25,0.44,0.5,0.78,0.5,0.5,0.39,0.28,0.28,0.5,0.5,0.25,0.44,0.5,0.5,0.25,0.28,0.5,0.5,0.5,0.39,0.28,0.33,0.28,0.44,0.28,0.25,0.5,0.33,0.5,0.44,0.44,0.39,0.39,0.44,0.39,0.25,0.33,0.56,0.56,0.33,0.33,0.28,0.25,0.67,0.72" style="fill:rgb(0,0,0);font-family:TimesNewRomanPSMT;font-size:9.96px;stroke:none;">from fossil fuel combustion and industrial processes (FFI); CO</text>
  </g>
  <g begin="text">
   <text y="473.5" x="397.13" svgx:width="0.5" style="fill:rgb(0,0,0);font-family:TimesNewRomanPSMT;font-size:6.48px;stroke:none;">2</text>
  </g>
  <g begin="text">
   <text y="472.54" x="400.37" svgx:width="0.25" style="fill:rgb(0,0,0);font-family:TimesNewRomanPSMT;font-size:9.96px;stroke:none;"> </text>
  </g>
  <g begin="text">
   <text y="472.54" x="402.89,406.237,409.583,414.613,422.402" svgx:width="0.33,0.33,0.5,0.78,0.25" style="fill:rgb(0,0,0);font-family:TimesNewRomanPSMT;font-size:9.96px;stroke:none;">from </text>
  </g>
  <g begin="text">
   <text y="472.54" x="424.97,432.161,437.201,440.547,443.316,447.739,452.778,455.547,458.316,463.326,466.673,471.095,473.625" svgx:width="0.72,0.5,0.33,0.28,0.44,0.5,0.28,0.28,0.5,0.33,0.44,0.25,0.25" style="fill:rgb(0,0,0);font-family:TimesNewRomanPSMT;font-size:9.96px;stroke:none;">Agriculture, </text>
  </g>
  <g begin="text">
   <text y="472.54" x="476.23,481.768,486.668,490.015,494.437,498.311,501.08,504.397,509.447,511.957,516.379,521.429,526.349,528.859,536.05,538.819,543.848,548.271,551.637,554.037,560.143,564.565,569.615,574.645,577.154,582.184,586.029,590.451,592.981" svgx:width="0.56,0.5,0.33,0.44,0.39,0.28,0.33,0.5,0.25,0.44,0.5,0.5,0.25,0.72,0.28,0.5,0.44,0.33,0.25,0.61,0.44,0.5,0.5,0.25,0.5,0.39,0.44,0.25,0.33" style="fill:rgb(0,0,0);font-family:TimesNewRomanPSMT;font-size:9.96px;stroke:none;">Forestry and Other Land use (</text>
  </g>
  <g begin="text">
   <text y="472.54" x="596.47,603.661,609.199,616.39,622.495" svgx:width="0.72,0.56,0.72,0.61,0.72" style="fill:rgb(0,0,0);font-family:TimesNewRomanPSMT;font-size:9.96px;stroke:none;">AFOLU</text>
  </g>
  <g begin="text">
   <text y="472.54" x="629.74,633.087,635.855,638.345,646.154,650.576,653.345,658.385,662.807,667.857,672.179,674.58,677.926,684.53" svgx:width="0.33,0.28,0.25,0.78,0.44,0.28,0.5,0.44,0.5,0.44,0.25,0.33,0.67,0.72" style="fill:rgb(0,0,0);font-family:TimesNewRomanPSMT;font-size:9.96px;stroke:none;">); methane (CH</text>
  </g>
  <g begin="text">
   <text y="473.5" x="691.78" svgx:width="0.5" style="fill:rgb(0,0,0);font-family:TimesNewRomanPSMT;font-size:6.48px;stroke:none;">4</text>
  </g>
  <g begin="text">
   <text y="472.54" x="695.02,698.367,701.135,703.625,708.675,711.444,714.213,717.529,722.589,727.619,731.464,733.973,739.003,744.033,746.802,751.822,756.244" svgx:width="0.33,0.28,0.25,0.5,0.28,0.28,0.33,0.5,0.5,0.39,0.25,0.5,0.5,0.28,0.5,0.44,0.25" style="fill:rgb(0,0,0);font-family:TimesNewRomanPSMT;font-size:9.96px;stroke:none;">); nitrous oxide </text>
  </g>
  <g begin="text">
   <text y="472.54" x="48.48" svgx:width="0.5" style="fill:rgb(0,0,0);font-family:TimesNewRomanPSMT;font-size:11.04px;stroke:none;">3</text>
  </g>
  <g begin="text">
   <text y="472.54" x="54.0" svgx:width="0.25" style="fill:rgb(0,0,0);font-family:TimesNewRomanPSMT;font-size:11.04px;stroke:none;"> </text>
  </g>
  <g begin="text">
   <text y="485.14" x="72.0,75.36" svgx:width="0.33,0.72" style="fill:rgb(0,0,0);font-family:TimesNewRomanPSMT;font-size:9.96px;stroke:none;">(N</text>
  </g>
  <g begin="text">
   <text y="486.1" x="82.56" svgx:width="0.5" style="fill:rgb(0,0,0);font-family:TimesNewRomanPSMT;font-size:6.48px;stroke:none;">2</text>
  </g>
  <g begin="text">
   <text y="485.14" x="85.824,93.015,96.372,99.14,101.63,104.997,107.766,112.786,117.816,121.162,123.931,128.951,133.373,136.142,140.564,145.514,148.024,153.054,157.476,161.351,165.773,169.618,172.127,175.474" svgx:width="0.72,0.33,0.28,0.25,0.33,0.28,0.5,0.5,0.33,0.28,0.5,0.44,0.28,0.44,0.5,0.25,0.5,0.44,0.39,0.44,0.39,0.25,0.33,0.56" style="fill:rgb(0,0,0);font-family:TimesNewRomanPSMT;font-size:9.96px;stroke:none;">O); fluorinated gases (F</text>
  </g>
  <g begin="text">
   <text y="485.14" x="181.1" svgx:width="0.33" style="fill:rgb(0,0,0);font-family:TimesNewRomanPSMT;font-size:9.96px;stroke:none;">-</text>
  </g>
  <g begin="text">
   <text y="485.14" x="184.46,189.49,193.812,197.657,202.079,205.954,209.27" svgx:width="0.5,0.44,0.39,0.44,0.39,0.33,0.25" style="fill:rgb(0,0,0);font-family:TimesNewRomanPSMT;font-size:9.96px;stroke:none;">gases).</text>
  </g>
  <g begin="text">
   <text y="485.14" x="211.82" svgx:width="0.25" style="fill:rgb(0,0,0);font-family:TimesNewRomanPS-ItalicMT;font-size:9.96px;stroke:none;"> </text>
  </g>
  <g begin="text">
   <text y="485.14" x="214.34,221.531,225.953,229.828,234.25,238.124,240.614,243.971,248.393,253.443,258.473,261.819,264.588,269.01,274.05,276.56,279.329,284.349,286.859,294.05,296.819,299.329,305.932" svgx:width="0.72,0.44,0.39,0.44,0.39,0.25,0.33,0.44,0.5,0.5,0.33,0.28,0.44,0.5,0.25,0.28,0.5,0.25,0.72,0.28,0.25,0.67,0.72" style="fill:rgb(0,0,0);font-family:TimesNewRomanPSMT;font-size:9.96px;stroke:none;">Gases reported in Gt CO</text>
  </g>
  <g begin="text">
   <text y="486.1" x="313.25" svgx:width="0.5" style="fill:rgb(0,0,0);font-family:TimesNewRomanPSMT;font-size:6.48px;stroke:none;">2</text>
  </g>
  <g begin="text">
   <text y="485.14" x="316.49,320.912,325.962,328.472,332.894,337.944,342.864,347.894,352.316,355.683,358.452,362.874,367.914,370.423,375.453,379.876,383.75,388.172,393.092,395.602,400.632,405.662" svgx:width="0.44,0.5,0.25,0.44,0.5,0.5,0.5,0.44,0.33,0.28,0.44,0.5,0.25,0.5,0.44,0.39,0.44,0.5,0.25,0.5,0.5,0.25" style="fill:rgb(0,0,0);font-family:TimesNewRomanPSMT;font-size:9.96px;stroke:none;">eq converted based on </text>
  </g>
  <g begin="text">
   <text y="485.14" x="408.29,415.481,422.095" svgx:width="0.72,0.67,0.5" style="fill:rgb(0,0,0);font-family:TimesNewRomanPSMT;font-size:9.96px;stroke:none;">AR6</text>
  </g>
  <g begin="text">
   <text y="485.14" x="427.13" svgx:width="0.25" style="fill:rgb(0,0,0);font-family:TimesNewRomanPSMT;font-size:9.96px;stroke:none;"> </text>
  </g>
  <g begin="text">
   <text y="485.14" x="429.65,434.68,437.319,442.349,447.379,451.801,454.57,457.09,464.281,468.703,472.08,479.868,482.637,487.657,492.577,495.087,500.117,505.147,507.916,512.338,517.378" svgx:width="0.5,0.28,0.5,0.5,0.44,0.28,0.25,0.72,0.44,0.33,0.78,0.28,0.5,0.5,0.25,0.5,0.5,0.28,0.44,0.5,0.28" style="fill:rgb(0,0,0);font-family:TimesNewRomanPSMT;font-size:9.96px;stroke:none;">global warming potent</text>
  </g>
  <g begin="text">
   <text y="485.14" x="520.27,523.039,527.461,530.23,534.075,536.584,543.776,546.544,549.313,554.333,556.733,561.763,566.793" svgx:width="0.28,0.44,0.28,0.39,0.25,0.72,0.28,0.28,0.5,0.25,0.5,0.5,0.5" style="fill:rgb(0,0,0);font-family:TimesNewRomanPSMT;font-size:9.96px;stroke:none;">ials with 100</text>
  </g>
  <g begin="text">
   <text y="485.14" x="571.87" svgx:width="0.33" style="fill:rgb(0,0,0);font-family:TimesNewRomanPSMT;font-size:9.96px;stroke:none;">-</text>
  </g>
  <g begin="text">
   <text y="485.14" x="575.11,580.14,584.562,589.014,592.361,594.871,597.639,600.408,608.177,612.599,615.129,620.049,625.079,628.426,631.195,635.617,640.657,645.577,648.087,651.433,658.624,667.997" svgx:width="0.5,0.44,0.44,0.33,0.25,0.28,0.28,0.78,0.44,0.25,0.5,0.5,0.33,0.28,0.44,0.5,0.5,0.25,0.33,0.72,0.94,0.56" style="fill:rgb(0,0,0);font-family:TimesNewRomanPSMT;font-size:9.96px;stroke:none;">year time horizon (GWP</text>
  </g>
  <g begin="text">
   <text y="485.14" x="673.66" svgx:width="0.33" style="fill:rgb(0,0,0);font-family:TimesNewRomanPSMT;font-size:9.96px;stroke:none;">-</text>
  </g>
  <g begin="text">
   <text y="485.14" x="677.02,682.05,687.08,692.109,695.456" svgx:width="0.5,0.5,0.5,0.33,0.25" style="fill:rgb(0,0,0);font-family:TimesNewRomanPSMT;font-size:9.96px;stroke:none;">100).</text>
  </g>
  <g begin="text">
   <text y="485.14" x="48.48" svgx:width="0.5" style="fill:rgb(0,0,0);font-family:TimesNewRomanPSMT;font-size:11.04px;stroke:none;">4</text>
  </g>
  <g begin="text">
   <text y="485.14" x="54.0" svgx:width="0.25" style="fill:rgb(0,0,0);font-family:TimesNewRomanPSMT;font-size:11.04px;stroke:none;"> </text>
  </g>
  <rect style="fill:pink;opacity:0.2;stroke:blue;stroke-width:0.3;" x="205.7" y="296.59" height="351.25" width="430.48" title="15"/>
  <text y="296.59" class="image" id="image.15.1" width="430" height="351" x="205.7" style="font-size:5.0px;">image.15.1.206_636.297_648</text>
  <g begin="text">
   <text y="478.906" transform="matrix(0.70711,-0.70711,0.70711,0.70711,-271.92861,301.31825)" rotateDegrees="-45" matrix="[29.819458,29.819458,-29.819458,29.819458,227.75916,116.41376]" x="227.759" svgx:width="0.67" style="fill:rgb(0,0,0);font-family:Arial;font-size:42.17px;stroke:none;">A</text>
   <text y="459.017" transform="matrix(0.70711,-0.70711,0.70711,0.70711,-252.03932,309.55725)" rotateDegrees="-45" matrix="[29.819458,29.819458,-29.819458,29.819458,247.64874,136.30333]" x="247.649" svgx:width="0.72" style="fill:rgb(0,0,0);font-family:Arial;font-size:42.17px;stroke:none;">C</text>
   <text y="437.487" transform="matrix(0.70711,-0.70711,0.70711,0.70711,-230.50961,318.47456)" rotateDegrees="-45" matrix="[29.819458,29.819458,-29.819458,29.819458,269.17838,157.83298]" x="269.178" svgx:width="0.72" style="fill:rgb(0,0,0);font-family:Arial;font-size:42.17px;stroke:none;">C</text>
   <text y="415.957" transform="matrix(0.70711,-0.70711,0.70711,0.70711,-208.97961,327.39258)" rotateDegrees="-45" matrix="[29.819458,29.819458,-29.819458,29.819458,290.70804,179.36263]" x="290.708" svgx:width="0.67" style="fill:rgb(0,0,0);font-family:Arial;font-size:42.17px;stroke:none;">E</text>
   <text y="396.068" transform="matrix(0.70711,-0.70711,0.70711,0.70711,-189.09032,335.63158)" rotateDegrees="-45" matrix="[29.819458,29.819458,-29.819458,29.819458,310.5976,199.2522]" x="310.598" svgx:width="0.67" style="fill:rgb(0,0,0);font-family:Arial;font-size:42.17px;stroke:none;">P</text>
   <text y="376.178" transform="matrix(0.70711,-0.70711,0.70711,0.70711,-169.20061,343.86958)" rotateDegrees="-45" matrix="[29.819458,29.819458,-29.819458,29.819458,330.48718,219.14178]" x="330.487" svgx:width="0.61" style="fill:rgb(0,0,0);font-family:Arial;font-size:42.17px;stroke:none;">T</text>
   <text y="357.959" transform="matrix(0.70711,-0.70711,0.70711,0.70711,-150.98132,351.41685)" rotateDegrees="-45" matrix="[29.819458,29.819458,-29.819458,29.819458,348.70688,237.36148]" x="348.707" svgx:width="0.67" style="fill:rgb(0,0,0);font-family:Arial;font-size:42.17px;stroke:none;">E</text>
   <text y="338.069" transform="matrix(0.70711,-0.70711,0.70711,0.70711,-131.09161,359.65485)" rotateDegrees="-45" matrix="[29.819458,29.819458,-29.819458,29.819458,368.59644,257.25104]" x="368.596" svgx:width="0.72" style="fill:rgb(0,0,0);font-family:Arial;font-size:42.17px;stroke:none;">D</text>
   <text y="316.539" transform="matrix(0.70711,-0.70711,0.70711,0.70711,-109.56161,368.57287)" rotateDegrees="-45" matrix="[29.819458,29.819458,-29.819458,29.819458,390.1261,278.7807]" x="390.126" svgx:width="0.28" style="fill:rgb(0,0,0);font-family:Arial;font-size:42.17px;stroke:none;"> </text>
   <text y="308.246" transform="matrix(0.70711,-0.70711,0.70711,0.70711,-101.26832,372.00865)" rotateDegrees="-45" matrix="[29.819458,29.819458,-29.819458,29.819458,398.41962,287.07422]" x="398.42" svgx:width="0.67" style="fill:rgb(0,0,0);font-family:Arial;font-size:42.17px;stroke:none;">V</text>
   <text y="288.356" transform="matrix(0.70711,-0.70711,0.70711,0.70711,-81.37861,380.24665)" rotateDegrees="-45" matrix="[29.819458,29.819458,-29.819458,29.819458,418.3092,306.9638]" x="418.309" svgx:width="0.67" style="fill:rgb(0,0,0);font-family:Arial;font-size:42.17px;stroke:none;">E</text>
   <text y="268.467" transform="matrix(0.70711,-0.70711,0.70711,0.70711,-61.48932,388.48565)" rotateDegrees="-45" matrix="[29.819458,29.819458,-29.819458,29.819458,438.1988,326.8534]" x="438.199" svgx:width="0.72" style="fill:rgb(0,0,0);font-family:Arial;font-size:42.17px;stroke:none;">R</text>
   <text y="246.937" transform="matrix(0.70711,-0.70711,0.70711,0.70711,-39.95961,397.40296)" rotateDegrees="-45" matrix="[29.819458,29.819458,-29.819458,29.819458,459.72845,348.38306]" x="459.728" svgx:width="0.67" style="fill:rgb(0,0,0);font-family:Arial;font-size:42.17px;stroke:none;">S</text>
   <text y="227.047" transform="matrix(0.70711,-0.70711,0.70711,0.70711,-20.06961,405.64167)" rotateDegrees="-45" matrix="[29.819458,29.819458,-29.819458,29.819458,479.618,368.2726]" x="479.618" svgx:width="0.28" style="fill:rgb(0,0,0);font-family:Arial;font-size:42.17px;stroke:none;">I</text>
   <text y="218.758" transform="matrix(0.70711,-0.70711,0.70711,0.70711,-11.78032,409.07579)" rotateDegrees="-45" matrix="[29.819458,29.819458,-29.819458,29.819458,487.9078,376.5624]" x="487.908" svgx:width="0.78" style="fill:rgb(0,0,0);font-family:Arial;font-size:42.17px;stroke:none;">O</text>
   <text y="195.558" transform="matrix(0.70711,-0.70711,0.70711,0.70711,11.41939,418.68484)" rotateDegrees="-45" matrix="[29.819458,29.819458,-29.819458,29.819458,511.10736,399.76196]" x="511.107" svgx:width="0.72" style="fill:rgb(0,0,0);font-family:Arial;font-size:42.17px;stroke:none;">N</text>
   <text y="174.028" transform="matrix(0.70711,-0.70711,0.70711,0.70711,32.94939,427.60286)" rotateDegrees="-45" matrix="[29.819458,29.819458,-29.819458,29.819458,532.63696,421.2916]" x="532.637" svgx:width="0.28" style="fill:rgb(0,0,0);font-family:Arial;font-size:42.17px;stroke:none;"> </text>
   <text y="514.69" transform="matrix(0.70711,-0.70711,0.70711,0.70711,-286.75083,337.10225)" rotateDegrees="-45" matrix="[29.819458,29.819458,-29.819458,29.819458,263.5425,80.6304]" x="263.543" svgx:width="0.67" style="fill:rgb(0,0,0);font-family:Arial;font-size:42.17px;stroke:none;">S</text>
   <text y="494.8" transform="matrix(0.70711,-0.70711,0.70711,0.70711,-266.86112,345.34025)" rotateDegrees="-45" matrix="[29.819458,29.819458,-29.819458,29.819458,283.43207,100.51998]" x="283.432" svgx:width="0.72" style="fill:rgb(0,0,0);font-family:Arial;font-size:42.17px;stroke:none;">U</text>
   <text y="473.27" transform="matrix(0.70711,-0.70711,0.70711,0.70711,-245.33112,354.25827)" rotateDegrees="-45" matrix="[29.819458,29.819458,-29.819458,29.819458,304.96173,122.04963]" x="304.962" svgx:width="0.67" style="fill:rgb(0,0,0);font-family:Arial;font-size:42.17px;stroke:none;">B</text>
   <text y="453.381" transform="matrix(0.70711,-0.70711,0.70711,0.70711,-225.44212,362.49657)" rotateDegrees="-45" matrix="[29.819458,29.819458,-29.819458,29.819458,324.85132,141.93921]" x="324.851" svgx:width="0.5" style="fill:rgb(0,0,0);font-family:Arial;font-size:42.17px;stroke:none;">J</text>
   <text y="438.471" transform="matrix(0.70711,-0.70711,0.70711,0.70711,-210.53212,368.67249)" rotateDegrees="-45" matrix="[29.819458,29.819458,-29.819458,29.819458,339.76105,156.84894]" x="339.761" svgx:width="0.67" style="fill:rgb(0,0,0);font-family:Arial;font-size:42.17px;stroke:none;">E</text>
   <text y="418.581" transform="matrix(0.70711,-0.70711,0.70711,0.70711,-190.64212,376.9112)" rotateDegrees="-45" matrix="[29.819458,29.819458,-29.819458,29.819458,359.65063,176.73851]" x="359.651" svgx:width="0.72" style="fill:rgb(0,0,0);font-family:Arial;font-size:42.17px;stroke:none;">C</text>
   <text y="397.052" transform="matrix(0.70711,-0.70711,0.70711,0.70711,-169.11312,385.8288)" rotateDegrees="-45" matrix="[29.819458,29.819458,-29.819458,29.819458,381.18027,198.26816]" x="381.18" svgx:width="0.61" style="fill:rgb(0,0,0);font-family:Arial;font-size:42.17px;stroke:none;">T</text>
   <text y="378.832" transform="matrix(0.70711,-0.70711,0.70711,0.70711,-150.89312,393.37577)" rotateDegrees="-45" matrix="[29.819458,29.819458,-29.819458,29.819458,399.39996,216.48784]" x="399.4" svgx:width="0.28" style="fill:rgb(0,0,0);font-family:Arial;font-size:42.17px;stroke:none;"> </text>
   <text y="370.542" transform="matrix(0.70711,-0.70711,0.70711,0.70711,-142.60312,396.8096)" rotateDegrees="-45" matrix="[29.819458,29.819458,-29.819458,29.819458,407.68976,224.77766]" x="407.69" svgx:width="0.61" style="fill:rgb(0,0,0);font-family:Arial;font-size:42.17px;stroke:none;">T</text>
   <text y="352.323" transform="matrix(0.70711,-0.70711,0.70711,0.70711,-124.38412,404.35616)" rotateDegrees="-45" matrix="[29.819458,29.819458,-29.819458,29.819458,425.90945,242.99734]" x="425.909" svgx:width="0.78" style="fill:rgb(0,0,0);font-family:Arial;font-size:42.17px;stroke:none;">O</text>
   <text y="329.123" transform="matrix(0.70711,-0.70711,0.70711,0.70711,-101.18412,413.96591)" rotateDegrees="-45" matrix="[29.819458,29.819458,-29.819458,29.819458,449.10898,266.19687]" x="449.109" svgx:width="0.28" style="fill:rgb(0,0,0);font-family:Arial;font-size:42.17px;stroke:none;"> </text>
   <text y="320.848" transform="matrix(0.70711,-0.70711,0.70711,0.70711,-92.90912,417.39353)" rotateDegrees="-45" matrix="[29.819458,29.819458,-29.819458,29.819458,457.3839,274.4718]" x="457.384" svgx:width="0.61" style="fill:rgb(0,0,0);font-family:Arial;font-size:42.17px;stroke:none;">F</text>
   <text y="302.629" transform="matrix(0.70711,-0.70711,0.70711,0.70711,-74.68983,424.9408)" rotateDegrees="-45" matrix="[29.819458,29.819458,-29.819458,29.819458,475.60358,292.69147]" x="475.604" svgx:width="0.28" style="fill:rgb(0,0,0);font-family:Arial;font-size:42.17px;stroke:none;">I</text>
   <text y="294.339" transform="matrix(0.70711,-0.70711,0.70711,0.70711,-66.40012,428.37392)" rotateDegrees="-45" matrix="[29.819458,29.819458,-29.819458,29.819458,483.89337,300.98126]" x="483.893" svgx:width="0.72" style="fill:rgb(0,0,0);font-family:Arial;font-size:42.17px;stroke:none;">N</text>
   <text y="272.809" transform="matrix(0.70711,-0.70711,0.70711,0.70711,-44.87012,437.29194)" rotateDegrees="-45" matrix="[29.819458,29.819458,-29.819458,29.819458,505.42303,322.51093]" x="505.423" svgx:width="0.67" style="fill:rgb(0,0,0);font-family:Arial;font-size:42.17px;stroke:none;">A</text>
   <text y="252.919" transform="matrix(0.70711,-0.70711,0.70711,0.70711,-24.98012,445.53064)" rotateDegrees="-45" matrix="[29.819458,29.819458,-29.819458,29.819458,525.3126,342.4005]" x="525.313" svgx:width="0.56" style="fill:rgb(0,0,0);font-family:Arial;font-size:42.17px;stroke:none;">L</text>
   <text y="236.34" transform="matrix(0.70711,-0.70711,0.70711,0.70711,-8.40112,452.39789)" rotateDegrees="-45" matrix="[29.819458,29.819458,-29.819458,29.819458,541.8922,358.9801]" x="541.892" svgx:width="0.28" style="fill:rgb(0,0,0);font-family:Arial;font-size:42.17px;stroke:none;"> </text>
   <text y="228.056" transform="matrix(0.70711,-0.70711,0.70711,0.70711,-0.11712,455.82924)" rotateDegrees="-45" matrix="[29.819458,29.819458,-29.819458,29.819458,550.17584,367.26373]" x="550.176" svgx:width="0.67" style="fill:rgb(0,0,0);font-family:Arial;font-size:42.17px;stroke:none;">E</text>
   <text y="208.167" transform="matrix(0.70711,-0.70711,0.70711,0.70711,19.77188,464.06753)" rotateDegrees="-45" matrix="[29.819458,29.819458,-29.819458,29.819458,570.0654,387.1533]" x="570.065" svgx:width="0.72" style="fill:rgb(0,0,0);font-family:Arial;font-size:42.17px;stroke:none;">D</text>
   <text y="186.637" transform="matrix(0.70711,-0.70711,0.70711,0.70711,41.30188,472.98555)" rotateDegrees="-45" matrix="[29.819458,29.819458,-29.819458,29.819458,591.59503,408.68292]" x="591.595" svgx:width="0.28" style="fill:rgb(0,0,0);font-family:Arial;font-size:42.17px;stroke:none;">I</text>
   <text y="178.347" transform="matrix(0.70711,-0.70711,0.70711,0.70711,49.59188,476.41938)" rotateDegrees="-45" matrix="[29.819458,29.819458,-29.819458,29.819458,599.8848,416.97272]" x="599.885" svgx:width="0.61" style="fill:rgb(0,0,0);font-family:Arial;font-size:42.17px;stroke:none;">T</text>
   <text y="160.128" transform="matrix(0.70711,-0.70711,0.70711,0.70711,67.81088,483.96594)" rotateDegrees="-45" matrix="[29.819458,29.819458,-29.819458,29.819458,618.1045,435.1924]" x="618.104" svgx:width="0.67" style="fill:rgb(0,0,0);font-family:Arial;font-size:42.17px;stroke:none;">S</text>
  </g>
 </g>
</svg>
