<?xml version="1.0" encoding="UTF-8"?>
<svg height="807.04" width="536.177" xmlns="http://www.w3.org/2000/svg">
 <g id="page" xmlns:svgx="http://www.xml-cml.org/schema/svgx">
  <g begin="text">
   <text y="45.72" x="72.024,78.162,81.231,86.751,91.587,94.7,97.46,105.376,110.896,116.416,121.218,124.928,130.448,138.971,143.872,149.392,152.517,155.277,163.082,166.195,170.39,173.504,177.103,180.216,185.736,191.135,194.137,197.251,202.771" svgx:width="0.56,0.28,0.5,0.44,0.28,0.25,0.72,0.5,0.5,0.44,0.33,0.5,0.78,0.44,0.5,0.28,0.25,0.72,0.28,0.39,0.28,0.33,0.28,0.5,0.5,0.28,0.28,0.5,0.5" style="fill:rgb(0,0,0);font-family:TimesNewRomanPSMT;font-size:11.04px;stroke:none;">Final Government Distribution</text>
  </g>
  <g begin="text">
   <text y="45.72" x="208.37" svgx:width="0.25" style="fill:rgb(0,0,0);font-family:TimesNewRomanPSMT;font-size:11.04px;stroke:none;"> </text>
  </g>
  <g begin="text">
   <text y="45.72" x="211.01" svgx:width="0.25" style="fill:rgb(0,0,0);font-family:TimesNewRomanPSMT;font-size:11.04px;stroke:none;"> </text>
  </g>
  <g begin="text">
   <text y="45.72" x="216.05,218.81" svgx:width="0.25,0.25" style="fill:rgb(0,0,0);font-family:TimesNewRomanPSMT;font-size:11.04px;stroke:none;"> </text>
  </g>
  <g begin="text">
   <text y="45.72" x="221.57,224.33,227.09,229.85,232.61,235.37,238.13,240.89,243.65,246.41,249.17,251.93,254.69,257.45,260.21,262.97,265.609,268.369,271.129,273.889,276.649,279.409,282.169,284.929,287.689,290.449" svgx:width="0.25,0.25,0.25,0.25,0.25,0.25,0.25,0.25,0.25,0.25,0.25,0.25,0.25,0.25,0.25,0.25,0.25,0.25,0.25,0.25,0.25,0.25,0.25,0.25,0.25,0.25" style="fill:rgb(0,0,0);font-family:TimesNewRomanPSMT;font-size:11.04px;stroke:none;"> </text>
  </g>
  <g begin="text">
   <text y="45.72" x="293.21,300.529,305.928,310.83,316.35,319.364,324.266,327.997,330.757" svgx:width="0.67,0.5,0.44,0.5,0.28,0.44,0.33,0.25,0.5" style="fill:rgb(0,0,0);font-family:TimesNewRomanPSMT;font-size:11.04px;stroke:none;">Chapter 1</text>
  </g>
  <g begin="text">
   <text y="45.72" x="336.19" svgx:width="0.25" style="fill:rgb(0,0,0);font-family:TimesNewRomanPSMT;font-size:11.04px;stroke:none;"> </text>
  </g>
  <g begin="text">
   <text y="45.72" x="360.07,362.83,365.59,368.35,371.11,373.87,376.63,379.39,382.15,384.91,387.67,390.43,393.19,395.95,398.71,401.47,404.23,406.99,409.629,412.389,415.149,417.909,420.669,423.429,426.189,428.949,431.709,434.469,437.229" svgx:width="0.25,0.25,0.25,0.25,0.25,0.25,0.25,0.25,0.25,0.25,0.25,0.25,0.25,0.25,0.25,0.25,0.25,0.25,0.25,0.25,0.25,0.25,0.25,0.25,0.25,0.25,0.25,0.25,0.25" style="fill:rgb(0,0,0);font-family:TimesNewRomanPSMT;font-size:11.04px;stroke:none;"> </text>
  </g>
  <g begin="text">
   <text y="45.72" x="440.02,443.619,449.757,457.055,464.374" svgx:width="0.33,0.56,0.67,0.67,0.25" style="fill:rgb(0,0,0);font-family:TimesNewRomanPSMT;font-size:11.04px;stroke:none;">IPCC </text>
  </g>
  <g begin="text">
   <text y="45.72" x="467.14,475.056,482.375,487.895,490.655,501.077,509.048,512.614,516.213" svgx:width="0.72,0.67,0.5,0.25,0.94,0.72,0.33,0.33,0.33" style="fill:rgb(0,0,0);font-family:TimesNewRomanPSMT;font-size:11.04px;stroke:none;">AR6 WGIII</text>
  </g>
  <g begin="text">
   <text y="45.72" x="519.94" svgx:width="0.25" style="fill:rgb(0,0,0);font-family:TimesNewRomanPSMT;font-size:11.04px;stroke:none;"> </text>
  </g>
  <g begin="text">
   <text y="65.64" x="72.024" svgx:width="0.25" style="fill:rgb(0,0,0);font-family:TimesNewRomanPSMT;font-size:11.04px;stroke:none;"> </text>
  </g>
  <g begin="text">
   <text y="757.176" x="72.024,79.94,85.46,88.22,96.135,101.655,105.365,108.125,116.04,119.154,122.753,127.655,130.415,133.075,141.708,147.847,153.367,157.043,161.868,164.628,170.148,175.049,177.809,185.78,188.75,192.945,196.655,201.556,204.681,210.819,216.803,220.512" svgx:width="0.72,0.5,0.25,0.72,0.5,0.33,0.25,0.72,0.28,0.33,0.44,0.25,0.25,0.78,0.56,0.5,0.33,0.44,0.25,0.5,0.44,0.25,0.72,0.28,0.39,0.33,0.44,0.28,0.56,0.56,0.33,0.44" style="fill:rgb(0,0,0);font-family:TimesNewRomanPS-BoldMT;font-size:11.04px;stroke:none;">Do Not Cite, Quote or Distribute</text>
  </g>
  <g begin="text">
   <text y="757.176" x="225.41" svgx:width="0.25" style="fill:rgb(0,0,0);font-family:TimesNewRomanPS-BoldMT;font-size:11.04px;stroke:none;"> </text>
  </g>
  <g begin="text">
   <text y="757.176" x="288.05" svgx:width="0.25" style="fill:rgb(0,0,0);font-family:TimesNewRomanPS-BoldMT;font-size:11.04px;stroke:none;"> </text>
  </g>
  <g begin="text">
   <text y="757.176" x="324.07" svgx:width="0.5" style="fill:rgb(0,0,0);font-family:TimesNewRomanPSMT;font-size:11.04px;stroke:none;">1</text>
  </g>
  <g begin="text">
   <text y="757.176" x="329.59" svgx:width="0.33" style="fill:rgb(0,0,0);font-family:TimesNewRomanPSMT;font-size:11.04px;stroke:none;">-</text>
  </g>
  <g begin="text">
   <text y="757.176" x="333.19,338.71,344.23" svgx:width="0.5,0.5,0.5" style="fill:rgb(0,0,0);font-family:TimesNewRomanPSMT;font-size:11.04px;stroke:none;">106</text>
  </g>
  <g begin="text">
   <text y="757.176" x="349.75,352.51" svgx:width="0.25,0.25" style="fill:rgb(0,0,0);font-family:TimesNewRomanPSMT;font-size:11.04px;stroke:none;"> </text>
  </g>
  <g begin="text">
   <text y="757.176" x="355.27" svgx:width="0.25" style="fill:rgb(0,0,0);font-family:TimesNewRomanPSMT;font-size:11.04px;stroke:none;"> </text>
  </g>
  <g begin="text">
   <text y="757.176" x="360.07,362.83,365.59,368.35,371.11,373.87,376.63,379.39,382.15,384.91,387.67,390.43,393.19,395.95,398.71,401.47,404.23,406.99,409.629,412.389,415.149,417.909,420.669,423.429,426.189,428.949,431.709,434.469,437.229,439.989,442.627,445.387,448.147" svgx:width="0.25,0.25,0.25,0.25,0.25,0.25,0.25,0.25,0.25,0.25,0.25,0.25,0.25,0.25,0.25,0.25,0.25,0.25,0.25,0.25,0.25,0.25,0.25,0.25,0.25,0.25,0.25,0.25,0.25,0.25,0.25,0.25,0.25" style="fill:rgb(0,0,0);font-family:TimesNewRomanPSMT;font-size:11.04px;stroke:none;"> </text>
  </g>
  <g begin="text">
   <text y="757.176" x="450.94,457.685,463.205,466.175,471.077,474.201,476.487,481.885,486.787,492.307,497.231,501.426,504.539" svgx:width="0.61,0.5,0.28,0.44,0.28,0.25,0.5,0.44,0.5,0.44,0.39,0.28,0.25" style="fill:rgb(0,0,0);font-family:TimesNewRomanPSMT;font-size:11.04px;stroke:none;">Total pages: </text>
  </g>
  <g begin="text">
   <text y="757.176" x="506.98,512.5,518.02" svgx:width="0.5,0.5,0.5" style="fill:rgb(0,0,0);font-family:TimesNewRomanPSMT;font-size:11.04px;stroke:none;">106</text>
  </g>
  <g begin="text">
   <text y="757.176" x="523.42" svgx:width="0.25" style="fill:rgb(0,0,0);font-family:TimesNewRomanPSMT;font-size:9.96px;stroke:none;"> </text>
  </g>
  <g begin="text">
   <text y="777.096" x="72.024" svgx:width="0.25" style="fill:rgb(0,0,0);font-family:TimesNewRomanPSMT;font-size:11.04px;stroke:none;"> </text>
  </g>
  <g begin="text">
   <text y="797.04" x="72.024" svgx:width="0.25" style="fill:rgb(0,0,0);font-family:TimesNewRomanPSMT;font-size:11.04px;stroke:none;"> </text>
  </g>
  <g begin="text">
   <text y="85.58" x="96.024,101.544,107.064,110.177,113.18,118.7,124.22,126.98,132.5,138.02,143.54,148.939,151.942,155.055,157.815,162.717,168.237,173.05,178.57,183.472,187.203,192.602,198.122,200.882,206.402,211.922,217.321,222.841,225.601,231.121,236.641,239.401,244.921,250.441,255.961" svgx:width="0.5,0.5,0.28,0.28,0.5,0.5,0.25,0.5,0.5,0.5,0.5,0.28,0.28,0.25,0.44,0.5,0.44,0.5,0.44,0.33,0.5,0.5,0.25,0.5,0.5,0.5,0.5,0.25,0.5,0.5,0.25,0.5,0.5,0.5,0.25" style="fill:rgb(0,0,0);font-family:TimesNewRomanPSMT;font-size:11.04px;stroke:none;">doi:10.1016/j.apenergy.2018.10.051.</text>
  </g>
  <g begin="text">
   <text y="85.58" x="258.65" svgx:width="0.25" style="fill:rgb(0,0,0);font-family:TimesNewRomanPSMT;font-size:11.04px;stroke:none;"> </text>
  </g>
  <g begin="text">
   <text y="85.58" x="48.48" svgx:width="0.5" style="fill:rgb(0,0,0);font-family:TimesNewRomanPSMT;font-size:11.04px;stroke:none;">1</text>
  </g>
  <g begin="text">
   <text y="85.58" x="54.0" svgx:width="0.25" style="fill:rgb(0,0,0);font-family:TimesNewRomanPSMT;font-size:11.04px;stroke:none;"> </text>
  </g>
  <g begin="text">
   <text y="104.06" x="72.024,78.769,84.289,89.191,94.711,103.223,106.336,111.856,114.616,117.961,124.707,127.467,130.227,133.55,138.452,143.972,149.492,152.859,158.997,161.757,165.091,171.837,176.131,181.53,184.643,190.042,195.562,199.856,204.791,207.551,210.896,216.416,221.936,227.456,232.855,235.968,239.313,246.059,250.96,255.862,261.272,264.385,267.498,272.897,278.417,281.762,286.664,289.678,292.791,301.314,306.215,309.229,314.131,317.498,322.4,327.92,332.844,338.364,343.884,348.786,352.031,355.145,360.665,364.01,368.912,373.835,378.638,383.54,386.553,391.455,395.187,399.989,403.102,408.004,411.371,415.666,421.087,425.381,428.406,433.308,436.432,441.952,446.854,452.275,455.388,460.29,463.657,469.177,473.979,479.499,484.401,487.415,492.935,498.455,506.978,511.88,517.4,520.414,523.052" svgx:width="0.61,0.5,0.44,0.5,0.78,0.28,0.5,0.25,0.25,0.61,0.25,0.25,0.25,0.44,0.5,0.5,0.25,0.56,0.25,0.25,0.61,0.39,0.5,0.28,0.5,0.5,0.39,0.44,0.25,0.25,0.5,0.5,0.5,0.5,0.28,0.25,0.61,0.44,0.44,0.5,0.28,0.28,0.5,0.5,0.25,0.44,0.28,0.28,0.78,0.44,0.28,0.44,0.25,0.44,0.5,0.44,0.5,0.5,0.44,0.25,0.28,0.5,0.25,0.44,0.44,0.44,0.44,0.28,0.44,0.33,0.44,0.28,0.44,0.25,0.39,0.5,0.39,0.28,0.44,0.28,0.5,0.44,0.5,0.28,0.44,0.25,0.5,0.44,0.5,0.44,0.28,0.5,0.5,0.78,0.44,0.5,0.28,0.25,0.25" style="fill:rgb(0,0,0);font-family:TimesNewRomanPSMT;font-size:11.04px;stroke:none;">Zhenmin, L., and P. Espinosa, 2019: Tackling climate change to accelerate sustainable development. </text>
  </g>
  <g begin="text">
   <text y="104.06" x="48.48" svgx:width="0.5" style="fill:rgb(0,0,0);font-family:TimesNewRomanPSMT;font-size:11.04px;stroke:none;">2</text>
  </g>
  <g begin="text">
   <text y="104.06" x="54.0" svgx:width="0.25" style="fill:rgb(0,0,0);font-family:TimesNewRomanPSMT;font-size:11.04px;stroke:none;"> </text>
  </g>
  <g begin="text">
   <text y="116.9" x="96.024,103.343,108.863,111.977,114.737,117.497,124.816,127.819,130.933,138.848,141.608,144.368,151.688,157.208,162.728,168.248,173.768" svgx:width="0.67,0.5,0.28,0.25,0.25,0.67,0.28,0.28,0.72,0.25,0.25,0.67,0.5,0.5,0.5,0.5,0.25" style="fill:rgb(0,0,0);font-family:TimesNewRomanPS-ItalicMT;font-size:11.04px;stroke:none;">Nat. Clim. Chang.</text>
  </g>
  <g begin="text">
   <text y="116.9" x="176.54,179.3" svgx:width="0.25,0.25" style="fill:rgb(0,0,0);font-family:TimesNewRomanPSMT;font-size:11.04px;stroke:none;">, </text>
  </g>
  <g begin="text">
   <text y="116.9" x="182.06" svgx:width="0.5" style="fill:rgb(0,0,0);font-family:TimesNewRomanPS-BoldMT;font-size:11.04px;stroke:none;">9</text>
  </g>
  <g begin="text">
   <text y="116.9" x="187.49,191.199,196.598,200.307,203.067,205.827,211.347,216.746" svgx:width="0.33,0.5,0.33,0.25,0.25,0.5,0.5,0.5" style="fill:rgb(0,0,0);font-family:TimesNewRomanPSMT;font-size:11.04px;stroke:none;">(7), 494</text>
  </g>
  <g begin="text">
   <text y="116.9" x="222.29" svgx:width="0.5" style="fill:rgb(0,0,0);font-family:TimesNewRomanPSMT;font-size:11.04px;stroke:none;">–</text>
  </g>
  <g begin="text">
   <text y="116.9" x="227.81,233.33,238.85,244.37,247.13,249.89,255.41,260.809,263.922,266.925,272.445,277.965,280.725,286.245,291.765,297.285,302.683,305.797,310.091,315.512,321.032,326.552,332.072" svgx:width="0.5,0.5,0.5,0.25,0.25,0.5,0.5,0.28,0.28,0.5,0.5,0.25,0.5,0.5,0.5,0.5,0.28,0.39,0.5,0.5,0.5,0.5,0.5" style="fill:rgb(0,0,0);font-family:TimesNewRomanPSMT;font-size:11.04px;stroke:none;">496, doi:10.1038/s41558</text>
  </g>
  <g begin="text">
   <text y="116.9" x="337.51" svgx:width="0.33" style="fill:rgb(0,0,0);font-family:TimesNewRomanPSMT;font-size:11.04px;stroke:none;">-</text>
  </g>
  <g begin="text">
   <text y="116.9" x="341.11,346.63,352.15" svgx:width="0.5,0.5,0.5" style="fill:rgb(0,0,0);font-family:TimesNewRomanPSMT;font-size:11.04px;stroke:none;">019</text>
  </g>
  <g begin="text">
   <text y="116.9" x="357.67" svgx:width="0.33" style="fill:rgb(0,0,0);font-family:TimesNewRomanPSMT;font-size:11.04px;stroke:none;">-</text>
  </g>
  <g begin="text">
   <text y="116.9" x="361.27,366.79,372.31,377.83" svgx:width="0.5,0.5,0.5,0.5" style="fill:rgb(0,0,0);font-family:TimesNewRomanPSMT;font-size:11.04px;stroke:none;">0519</text>
  </g>
  <g begin="text">
   <text y="116.9" x="383.35" svgx:width="0.33" style="fill:rgb(0,0,0);font-family:TimesNewRomanPSMT;font-size:11.04px;stroke:none;">-</text>
  </g>
  <g begin="text">
   <text y="116.9" x="386.95,392.47" svgx:width="0.5,0.25" style="fill:rgb(0,0,0);font-family:TimesNewRomanPSMT;font-size:11.04px;stroke:none;">4.</text>
  </g>
  <g begin="text">
   <text y="116.9" x="395.23" svgx:width="0.25" style="fill:rgb(0,0,0);font-family:TimesNewRomanPSMT;font-size:11.04px;stroke:none;"> </text>
  </g>
  <g begin="text">
   <text y="116.9" x="48.48" svgx:width="0.5" style="fill:rgb(0,0,0);font-family:TimesNewRomanPSMT;font-size:11.04px;stroke:none;">3</text>
  </g>
  <g begin="text">
   <text y="116.9" x="54.0" svgx:width="0.25" style="fill:rgb(0,0,0);font-family:TimesNewRomanPSMT;font-size:11.04px;stroke:none;"> </text>
  </g>
  <g begin="text">
   <text y="135.38" x="72.024,78.769,84.289,89.809,95.329,98.089,100.849,107.54,110.3,113.06,115.82,121.958,124.574,127.334,135.25,138.253,141.366,146.886,151.689,155.398,158.511,161.271,164.031,171.947,174.586,177.346,184.091,186.851,189.468,199.889,204.813,210.333,215.853,218.492,221.252,231.066,233.826,236.487,246.301,249.061,251.821,259.185,263.965,269.485,273.195,278.097,280.757,283.517,288.419,293.939,299.36,302.12,309.925,312.685,315.445,321.583,324.343,327.103,335.008,339.91,342.924,346.037,350.939,356.359,361.879,366.781,370.513,373.151,375.911,381.431,386.951,392.471,397.87,400.983" svgx:width="0.61,0.5,0.5,0.5,0.25,0.25,0.61,0.25,0.25,0.25,0.56,0.25,0.25,0.72,0.28,0.28,0.5,0.44,0.33,0.28,0.25,0.25,0.72,0.25,0.25,0.61,0.25,0.25,0.94,0.44,0.5,0.5,0.25,0.25,0.89,0.25,0.25,0.89,0.25,0.25,0.67,0.44,0.5,0.33,0.44,0.25,0.25,0.44,0.5,0.5,0.25,0.72,0.25,0.25,0.56,0.25,0.25,0.72,0.44,0.28,0.28,0.44,0.5,0.5,0.44,0.33,0.25,0.25,0.5,0.5,0.5,0.5,0.28,0.25" style="fill:rgb(0,0,0);font-family:TimesNewRomanPSMT;font-size:11.04px;stroke:none;">Zhou, L., S. Gilbert, Y. E. Wang, M. M. Cabré, and K. P. Gallagher, 2018: </text>
  </g>
  <g begin="text">
   <text y="135.38" x="403.75,412.979,418.499,423.302,426.415,431.814,437.334,440.094,443.207,448.727,453.529,456.289,464.205,468.5,473.324,478.226,483.746,486.506" svgx:width="0.83,0.5,0.44,0.28,0.5,0.5,0.25,0.28,0.5,0.44,0.25,0.72,0.39,0.44,0.44,0.5,0.25,0.61" style="fill:rgb(0,0,0);font-family:TimesNewRomanPS-ItalicMT;font-size:11.04px;stroke:none;">Moving the Green B</text>
  </g>
  <g begin="text">
   <text y="135.38" x="493.3,498.102,501.216,504.219,506.979,512.499,518.019,523.417" svgx:width="0.44,0.28,0.28,0.25,0.5,0.5,0.5,0.25" style="fill:rgb(0,0,0);font-family:TimesNewRomanPS-ItalicMT;font-size:11.04px;stroke:none;">elt and </text>
  </g>
  <g begin="text">
   <text y="135.38" x="48.48" svgx:width="0.5" style="fill:rgb(0,0,0);font-family:TimesNewRomanPSMT;font-size:11.04px;stroke:none;">4</text>
  </g>
  <g begin="text">
   <text y="135.38" x="54.0" svgx:width="0.25" style="fill:rgb(0,0,0);font-family:TimesNewRomanPSMT;font-size:11.04px;stroke:none;"> </text>
  </g>
  <g begin="text">
   <text y="148.1" x="96.024,102.769,108.289,113.809,119.329,122.089,142.569,146.278,151.798,154.801,157.914,160.917,166.437,169.44,172.553,177.455,182.269,185.978,188.738,209.25,215.996,220.29,225.81,233.726,236.486,256.998,266.228,271.748,276.042,281.463,285.757,288.517,309.052,312.165,317.564,320.324,340.836,347.581,352.483,355.585,358.699,364.219,369.617" svgx:width="0.61,0.5,0.5,0.5,0.25,0.55,0.33,0.5,0.28,0.28,0.28,0.5,0.28,0.28,0.44,0.44,0.33,0.25,0.55,0.61,0.39,0.5,0.72,0.25,0.55,0.83,0.5,0.39,0.5,0.39,0.25,0.55,0.28,0.5,0.25,0.55,0.61,0.44,0.28,0.28,0.5,0.5,0.39" style="fill:rgb(0,0,0);font-family:TimesNewRomanPS-ItalicMT;font-size:11.04px;stroke:none;">Road Initiative: From Words to Actions</text>
  </g>
  <g begin="text">
   <text y="148.1" x="374.11,376.87,379.63,400.142,402.902,405.662,426.175,436.497,441.399,445.727,451.246,454.36,459.758,465.278,468.392,473.79,479.31,482.07,484.83,505.342,513.258,520.578,523.338" svgx:width="0.25,0.25,0.55,0.25,0.25,0.55,0.94,0.44,0.39,0.5,0.28,0.5,0.5,0.28,0.5,0.5,0.25,0.25,0.55,0.72,0.67,0.25,0.25" style="fill:rgb(0,0,0);font-family:TimesNewRomanPSMT;font-size:11.04px;stroke:none;">. , Washington, DC, </text>
  </g>
  <g begin="text">
   <text y="148.1" x="48.48" svgx:width="0.5" style="fill:rgb(0,0,0);font-family:TimesNewRomanPSMT;font-size:11.04px;stroke:none;">5</text>
  </g>
  <g begin="text">
   <text y="148.1" x="54.0" svgx:width="0.25" style="fill:rgb(0,0,0);font-family:TimesNewRomanPSMT;font-size:11.04px;stroke:none;"> </text>
  </g>
  <g begin="text">
   <text y="160.82" x="96.024,101.544,104.657,107.771,113.169,117.464,120.489,123.602,126.715,134.631,142.547,150.462,153.222,161.138,164.737,167.85,170.61,176.13,179.84,185.238,188.352,191.951,196.852,201.18,205.982,210.884,214.505,219.407,224.927,227.941,236.574,242.094,247.493,250.606,256.126" svgx:width="0.5,0.28,0.28,0.5,0.39,0.28,0.28,0.28,0.72,0.72,0.72,0.25,0.72,0.33,0.28,0.25,0.5,0.33,0.5,0.28,0.33,0.44,0.39,0.44,0.44,0.33,0.44,0.5,0.28,0.78,0.5,0.5,0.28,0.5,0.5" style="fill:rgb(0,0,0);font-family:TimesNewRomanPSMT;font-size:11.04px;stroke:none;">https://www.wri.org/research/moving</text>
  </g>
  <g begin="text">
   <text y="160.82" x="261.77" svgx:width="0.33" style="fill:rgb(0,0,0);font-family:TimesNewRomanPSMT;font-size:11.04px;stroke:none;">-</text>
  </g>
  <g begin="text">
   <text y="160.82" x="265.37,270.89,274.599,279.402,284.304" svgx:width="0.5,0.33,0.44,0.44,0.5" style="fill:rgb(0,0,0);font-family:TimesNewRomanPSMT;font-size:11.04px;stroke:none;">green</text>
  </g>
  <g begin="text">
   <text y="160.82" x="289.85" svgx:width="0.33" style="fill:rgb(0,0,0);font-family:TimesNewRomanPSMT;font-size:11.04px;stroke:none;">-</text>
  </g>
  <g begin="text">
   <text y="160.82" x="293.45,298.97,303.872,306.886" svgx:width="0.5,0.44,0.28,0.28" style="fill:rgb(0,0,0);font-family:TimesNewRomanPSMT;font-size:11.04px;stroke:none;">belt</text>
  </g>
  <g begin="text">
   <text y="160.82" x="310.01" svgx:width="0.33" style="fill:rgb(0,0,0);font-family:TimesNewRomanPSMT;font-size:11.04px;stroke:none;">-</text>
  </g>
  <g begin="text">
   <text y="160.82" x="313.63,318.532,324.052" svgx:width="0.44,0.5,0.5" style="fill:rgb(0,0,0);font-family:TimesNewRomanPSMT;font-size:11.04px;stroke:none;">and</text>
  </g>
  <g begin="text">
   <text y="160.82" x="329.59" svgx:width="0.33" style="fill:rgb(0,0,0);font-family:TimesNewRomanPSMT;font-size:11.04px;stroke:none;">-</text>
  </g>
  <g begin="text">
   <text y="160.82" x="333.19,336.789,342.309,347.211" svgx:width="0.33,0.5,0.44,0.5" style="fill:rgb(0,0,0);font-family:TimesNewRomanPSMT;font-size:11.04px;stroke:none;">road</text>
  </g>
  <g begin="text">
   <text y="160.82" x="352.75" svgx:width="0.33" style="fill:rgb(0,0,0);font-family:TimesNewRomanPSMT;font-size:11.04px;stroke:none;">-</text>
  </g>
  <g begin="text">
   <text y="160.82" x="356.35,359.463,364.983,367.986,371.099,374.102,379.004,382.018,385.131,390.651" svgx:width="0.28,0.5,0.28,0.28,0.28,0.44,0.28,0.28,0.5,0.44" style="fill:rgb(0,0,0);font-family:TimesNewRomanPSMT;font-size:11.04px;stroke:none;">initiative</text>
  </g>
  <g begin="text">
   <text y="160.82" x="395.59" svgx:width="0.33" style="fill:rgb(0,0,0);font-family:TimesNewRomanPSMT;font-size:11.04px;stroke:none;">-</text>
  </g>
  <g begin="text">
   <text y="160.82" x="399.19,407.106,412.626,416.335,421.734" svgx:width="0.72,0.5,0.33,0.5,0.39" style="fill:rgb(0,0,0);font-family:TimesNewRomanPSMT;font-size:11.04px;stroke:none;">words</text>
  </g>
  <g begin="text">
   <text y="160.82" x="426.07" svgx:width="0.33" style="fill:rgb(0,0,0);font-family:TimesNewRomanPSMT;font-size:11.04px;stroke:none;">-</text>
  </g>
  <g begin="text">
   <text y="160.82" x="429.67,434.572,439.496,442.498,445.612,451.132,456.53,460.825" svgx:width="0.44,0.44,0.28,0.28,0.5,0.5,0.39,0.25" style="fill:rgb(0,0,0);font-family:TimesNewRomanPSMT;font-size:11.04px;stroke:none;">actions.</text>
  </g>
  <g begin="text">
   <text y="160.82" x="463.66" svgx:width="0.25" style="fill:rgb(0,0,0);font-family:TimesNewRomanPSMT;font-size:11.04px;stroke:none;"> </text>
  </g>
  <g begin="text">
   <text y="160.82" x="48.48" svgx:width="0.5" style="fill:rgb(0,0,0);font-family:TimesNewRomanPSMT;font-size:11.04px;stroke:none;">6</text>
  </g>
  <g begin="text">
   <text y="160.82" x="54.0" svgx:width="0.25" style="fill:rgb(0,0,0);font-family:TimesNewRomanPSMT;font-size:11.04px;stroke:none;"> </text>
  </g>
  <g begin="text">
   <text y="179.3" x="72.024,78.769,84.289,89.809,95.329,98.089,100.342,106.48,109.24,112.0,114.263,119.065,124.585,130.105,132.391,142.812,145.473,147.758,158.18,163.104,168.502,171.262,173.548,179.068,184.588,189.986,195.506,198.62,200.905,208.224,213.126,216.747,222.267,227.787" svgx:width="0.61,0.5,0.5,0.5,0.25,0.25,0.56,0.25,0.25,0.25,0.44,0.5,0.5,0.25,0.94,0.25,0.25,0.94,0.44,0.5,0.25,0.25,0.5,0.5,0.5,0.5,0.28,0.25,0.67,0.44,0.33,0.5,0.5,0.5" style="fill:rgb(0,0,0);font-family:TimesNewRomanPSMT;font-size:11.04px;stroke:none;">Zhou, P., and W. Wen, 2020: Carbon</text>
  </g>
  <g begin="text">
   <text y="179.3" x="233.33" svgx:width="0.33" style="fill:rgb(0,0,0);font-family:TimesNewRomanPSMT;font-size:11.04px;stroke:none;">-</text>
  </g>
  <g begin="text">
   <text y="179.3" x="236.93,241.832,247.352,252.872,257.089,260.202,263.801,268.703,271.827,277.226,282.128,287.648,289.944,293.543,296.656,300.255,308.889,311.053,316.573,321.474,326.398,329.401,333.696,336.831,342.351,347.749,352.044,355.179,357.343,363.482,367.158,372.578,381.212,383.497,389.017,394.416,398.71,401.845,407.244,412.146,416.474,420.768,422.954,427.249,430.273,433.983,438.885,441.899,446.8,452.32,455.334,460.236,464.564,466.728,469.841,475.361,477.646,483.166,488.565,493.466,497.198,502.0,505.114,508.117,513.637,519.035,523.23" svgx:width="0.44,0.5,0.5,0.39,0.28,0.33,0.44,0.28,0.5,0.44,0.5,0.25,0.33,0.28,0.33,0.78,0.25,0.5,0.44,0.44,0.28,0.39,0.28,0.5,0.5,0.39,0.28,0.25,0.56,0.33,0.5,0.78,0.25,0.5,0.5,0.39,0.28,0.5,0.44,0.39,0.39,0.25,0.39,0.28,0.33,0.44,0.28,0.44,0.5,0.28,0.44,0.39,0.25,0.28,0.5,0.25,0.5,0.5,0.44,0.33,0.44,0.28,0.28,0.5,0.5,0.39,0.25" style="fill:rgb(0,0,0);font-family:TimesNewRomanPSMT;font-size:11.04px;stroke:none;">constrained firm decisions: From business strategies to operations </text>
  </g>
  <g begin="text">
   <text y="179.3" x="48.48" svgx:width="0.5" style="fill:rgb(0,0,0);font-family:TimesNewRomanPSMT;font-size:11.04px;stroke:none;">7</text>
  </g>
  <g begin="text">
   <text y="179.3" x="54.0" svgx:width="0.25" style="fill:rgb(0,0,0);font-family:TimesNewRomanPSMT;font-size:11.04px;stroke:none;"> </text>
  </g>
  <g begin="text">
   <text y="192.14" x="96.024,104.657,110.177,115.697,120.5,123.613" svgx:width="0.78,0.5,0.5,0.44,0.28,0.28" style="fill:rgb(0,0,0);font-family:TimesNewRomanPSMT;font-size:11.04px;stroke:none;">modeli</text>
  </g>
  <g begin="text">
   <text y="192.14" x="126.62,132.14,137.66,140.42" svgx:width="0.5,0.5,0.25,0.25" style="fill:rgb(0,0,0);font-family:TimesNewRomanPSMT;font-size:11.04px;stroke:none;">ng. </text>
  </g>
  <g begin="text">
   <text y="192.14" x="143.18,149.925,155.445,159.74,162.379,165.139,170.04,172.8,175.56,183.531,189.051,193.82,198.115,200.875,203.635,210.38,215.183,219.477" svgx:width="0.61,0.5,0.39,0.25,0.25,0.44,0.25,0.25,0.72,0.5,0.44,0.39,0.25,0.25,0.61,0.44,0.39,0.25" style="fill:rgb(0,0,0);font-family:TimesNewRomanPS-ItalicMT;font-size:11.04px;stroke:none;">Eur. J. Oper. Res.</text>
  </g>
  <g begin="text">
   <text y="192.14" x="222.29,225.05" svgx:width="0.25,0.25" style="fill:rgb(0,0,0);font-family:TimesNewRomanPSMT;font-size:11.04px;stroke:none;">, </text>
  </g>
  <g begin="text">
   <text y="192.14" x="227.81,233.33,238.85" svgx:width="0.5,0.5,0.5" style="fill:rgb(0,0,0);font-family:TimesNewRomanPS-BoldMT;font-size:11.04px;stroke:none;">281</text>
  </g>
  <g begin="text">
   <text y="192.14" x="244.25,247.959,253.479,257.189,259.949,262.709" svgx:width="0.33,0.5,0.33,0.25,0.25,0.5" style="fill:rgb(0,0,0);font-family:TimesNewRomanPSMT;font-size:11.04px;stroke:none;">(1), 1</text>
  </g>
  <g begin="text">
   <text y="192.14" x="268.13" svgx:width="0.5" style="fill:rgb(0,0,0);font-family:TimesNewRomanPSMT;font-size:11.04px;stroke:none;">–</text>
  </g>
  <g begin="text">
   <text y="192.14" x="273.65,279.17,284.69,287.45,290.21,295.73,301.129,304.131,307.245,312.765,318.285,321.045,326.565,332.085,337.483,343.003,346.116,349.23,351.868,356.77,359.894,365.293,369.002,371.762,377.282,382.802,388.201,393.721,396.481,402.001,407.521,410.281,415.801,421.321,426.719" svgx:width="0.5,0.5,0.25,0.25,0.5,0.5,0.28,0.28,0.5,0.5,0.25,0.5,0.5,0.5,0.5,0.28,0.28,0.25,0.44,0.28,0.5,0.33,0.25,0.5,0.5,0.5,0.5,0.25,0.5,0.5,0.25,0.5,0.5,0.5,0.25" style="fill:rgb(0,0,0);font-family:TimesNewRomanPSMT;font-size:11.04px;stroke:none;">15, doi:10.1016/j.ejor.2019.02.050.</text>
  </g>
  <g begin="text">
   <text y="192.14" x="429.43" svgx:width="0.25" style="fill:rgb(0,0,0);font-family:TimesNewRomanPSMT;font-size:11.04px;stroke:none;"> </text>
  </g>
  <g begin="text">
   <text y="192.14" x="48.48" svgx:width="0.5" style="fill:rgb(0,0,0);font-family:TimesNewRomanPSMT;font-size:11.04px;stroke:none;">8</text>
  </g>
  <g begin="text">
   <text y="192.14" x="54.0" svgx:width="0.25" style="fill:rgb(0,0,0);font-family:TimesNewRomanPSMT;font-size:11.04px;stroke:none;"> </text>
  </g>
  <g begin="text">
   <text y="210.62" x="72.024,78.769,84.289,89.809,92.569,95.329,102.627,105.387,108.147,110.907,118.823,121.461,124.221,130.967,136.487,141.388,146.908,149.536,152.296,160.211,162.971,165.731,172.477,177.853,182.755,188.275,193.696,196.456,199.216,204.118,209.638,215.058,217.818,225.138,227.898,230.658,238.573,241.687,247.085,252.605,258.125,260.885,263.524,269.044,274.564,280.084,285.482,288.596,291.356,298.101,303.621,308.39,311.989,317.509,323.029,325.789,329.388,334.29,339.81,345.33,348.344,353.864,356.867,359.98,365.5,371.02,374.023,376.783,382.921,386.498,392.018,400.541,403.301,408.203,410.864,414.573,420.093,424.288,428.583,431.608,434.611,437.371,442.273,447.793,452.606,456.315,461.835,467.355,469.994,474.896,478.517,483.419,486.079,489.193,494.712,497.473,502.275,505.035,510.555,515.457,523.273" svgx:width="0.61,0.5,0.5,0.25,0.25,0.67,0.25,0.25,0.25,0.72,0.25,0.25,0.61,0.5,0.44,0.5,0.25,0.25,0.72,0.25,0.25,0.61,0.5,0.44,0.5,0.5,0.25,0.25,0.44,0.5,0.5,0.25,0.67,0.25,0.25,0.72,0.28,0.5,0.5,0.5,0.25,0.25,0.5,0.5,0.5,0.5,0.28,0.25,0.61,0.5,0.44,0.33,0.5,0.5,0.25,0.33,0.44,0.5,0.5,0.28,0.5,0.28,0.28,0.5,0.5,0.28,0.25,0.56,0.33,0.5,0.78,0.25,0.44,0.25,0.33,0.5,0.39,0.39,0.28,0.28,0.25,0.44,0.5,0.44,0.33,0.5,0.5,0.25,0.44,0.33,0.44,0.25,0.28,0.5,0.25,0.44,0.25,0.5,0.44,0.72,0.25" style="fill:rgb(0,0,0);font-family:TimesNewRomanPSMT;font-size:11.04px;stroke:none;">Zou, C., Q. Zhao, G. Zhang, and B. Xiong, 2016: Energy revolution: From a fossil energy era to a new </text>
  </g>
  <g begin="text">
   <text y="210.62" x="48.48" svgx:width="0.5" style="fill:rgb(0,0,0);font-family:TimesNewRomanPSMT;font-size:11.04px;stroke:none;">9</text>
  </g>
  <g begin="text">
   <text y="210.62" x="54.0" svgx:width="0.25" style="fill:rgb(0,0,0);font-family:TimesNewRomanPSMT;font-size:11.04px;stroke:none;"> </text>
  </g>
  <g begin="text">
   <text y="223.46" x="96.024,100.926,106.446,111.37,115.079,120.478,125.998,128.758,133.659,137.281,142.182,144.942" svgx:width="0.44,0.5,0.44,0.33,0.5,0.5,0.25,0.44,0.33,0.44,0.25,0.25" style="fill:rgb(0,0,0);font-family:TimesNewRomanPSMT;font-size:11.04px;stroke:none;">energy era. </text>
  </g>
  <g begin="text">
   <text y="223.46" x="147.74,155.059,160.579,163.582,166.342,169.102,177.018,182.538,186.833,189.593,193.214,198.734,204.254,207.014,209.774" svgx:width="0.67,0.5,0.28,0.25,0.25,0.72,0.5,0.39,0.25,0.33,0.5,0.5,0.25,0.25,0.61" style="fill:rgb(0,0,0);font-family:TimesNewRomanPS-ItalicMT;font-size:11.04px;stroke:none;">Nat. Gas Ind. B</text>
  </g>
  <g begin="text">
   <text y="223.46" x="216.41,219.17" svgx:width="0.25,0.25" style="fill:rgb(0,0,0);font-family:TimesNewRomanPSMT;font-size:11.04px;stroke:none;">, </text>
  </g>
  <g begin="text">
   <text y="223.46" x="221.93" svgx:width="0.5" style="fill:rgb(0,0,0);font-family:TimesNewRomanPS-BoldMT;font-size:11.04px;stroke:none;">3</text>
  </g>
  <g begin="text">
   <text y="223.46" x="227.45,231.159,236.679,240.278,243.038,245.798" svgx:width="0.33,0.5,0.33,0.25,0.25,0.5" style="fill:rgb(0,0,0);font-family:TimesNewRomanPSMT;font-size:11.04px;stroke:none;">(1), 1</text>
  </g>
  <g begin="text">
   <text y="223.46" x="251.33" svgx:width="0.5" style="fill:rgb(0,0,0);font-family:TimesNewRomanPSMT;font-size:11.04px;stroke:none;">–</text>
  </g>
  <g begin="text">
   <text y="223.46" x="256.85,262.37,267.89,270.65" svgx:width="0.5,0.5,0.25,0.25" style="fill:rgb(0,0,0);font-family:TimesNewRomanPSMT;font-size:11.04px;stroke:none;">11, </text>
  </g>
  <g begin="text">
   <text y="223.46" x="273.29,278.81,284.33,287.333,290.446,295.966,301.486,304.246,309.645,315.165,320.685,326.205,329.208,332.321,334.959,340.479,345.999,349.113,354.633,357.393,362.913,368.311,373.831,379.351,382.111,387.631,393.151,395.911,401.31,406.83,412.35" svgx:width="0.5,0.5,0.28,0.28,0.5,0.5,0.25,0.5,0.5,0.5,0.5,0.28,0.28,0.25,0.5,0.5,0.28,0.5,0.25,0.5,0.5,0.5,0.5,0.25,0.5,0.5,0.25,0.5,0.5,0.5,0.25" style="fill:rgb(0,0,0);font-family:TimesNewRomanPSMT;font-size:11.04px;stroke:none;">doi:10.1016/j.ngib.2016.02.001.</text>
  </g>
  <g begin="text">
   <text y="223.46" x="415.03" svgx:width="0.25" style="fill:rgb(0,0,0);font-family:TimesNewRomanPSMT;font-size:11.04px;stroke:none;"> </text>
  </g>
  <g begin="text">
   <text y="223.46" x="42.96,48.48" svgx:width="0.5,0.5" style="fill:rgb(0,0,0);font-family:TimesNewRomanPSMT;font-size:11.04px;stroke:none;">10</text>
  </g>
  <g begin="text">
   <text y="223.46" x="54.0" svgx:width="0.25" style="fill:rgb(0,0,0);font-family:TimesNewRomanPSMT;font-size:11.04px;stroke:none;"> </text>
  </g>
  <g begin="text">
   <text y="241.94" x="72.024,78.769,84.289,92.779,101.412,106.932,109.692,112.684,119.43,122.19,124.95,127.909,134.654,137.414,140.373,148.178,153.08,156.811,162.21,165.919,171.439,176.242,179.355,184.157,187.271,190.031,192.901,197.803,203.323,208.843,211.846,219.761,222.521,225.513,233.429,238.331,241.952,246.853,249.867,254.769,257.529,260.532,266.052,271.572,277.092,282.49,285.604,288.596,296.511,302.031,307.43,310.433,315.953,318.945,324.465,329.985,333.098,337.9,342.802,345.805,351.325,356.845,359.715,364.617,367.631,370.744,379.267,384.169,387.183,392.085,395.087,399.989,405.41,410.312,415.832,421.352,426.165,429.278,432.149,437.669,441.963,445.099,450.619,456.139,459.009,462.718,467.521,472.423,475.547,480.946,484.655,487.647,492.549,497.969,502.871,505.995,511.394,515.688,518.713,523.008" svgx:width="0.61,0.5,0.78,0.78,0.5,0.25,0.25,0.61,0.25,0.25,0.25,0.61,0.25,0.25,0.72,0.44,0.33,0.5,0.33,0.5,0.44,0.28,0.44,0.28,0.25,0.25,0.44,0.5,0.5,0.25,0.72,0.25,0.25,0.72,0.44,0.33,0.44,0.28,0.44,0.25,0.25,0.5,0.5,0.5,0.5,0.28,0.25,0.72,0.5,0.5,0.28,0.5,0.25,0.5,0.5,0.28,0.44,0.44,0.25,0.5,0.5,0.25,0.44,0.28,0.28,0.78,0.44,0.28,0.44,0.25,0.44,0.5,0.44,0.5,0.5,0.44,0.28,0.25,0.5,0.39,0.28,0.5,0.5,0.25,0.33,0.44,0.44,0.28,0.5,0.33,0.25,0.44,0.5,0.44,0.28,0.5,0.39,0.28,0.39,0.25" style="fill:rgb(0,0,0);font-family:TimesNewRomanPSMT;font-size:11.04px;stroke:none;">Zummo, L., E. Gargroetzi, and A. Garcia, 2020: Youth voice on climate change: using factor analysis </text>
  </g>
  <g begin="text">
   <text y="241.94" x="42.96,48.48" svgx:width="0.5,0.5" style="fill:rgb(0,0,0);font-family:TimesNewRomanPSMT;font-size:11.04px;stroke:none;">11</text>
  </g>
  <g begin="text">
   <text y="241.94" x="54.0" svgx:width="0.25" style="fill:rgb(0,0,0);font-family:TimesNewRomanPSMT;font-size:11.04px;stroke:none;"> </text>
  </g>
  <g begin="text">
   <text y="254.54" x="96.024,99.137,104.657,107.174,112.694,118.214,123.613,128.515,132.246,136.441,139.555,144.456,149.877,155.397,157.914,161.028,166.426,171.328,173.867,176.98,182.379,185.492,190.295,194.004,198.299,203.123,208.025,211.039,214.042,219.562,225.082,227.599,233.119,236.828,239.345,243.54,248.442,251.456,256.358,261.878,266.802,271.703,274.364,276.881,282.401,287.921,290.924,294.037,297.04,300.154,304.956,309.251,312.011,314.561,319.463,324.983,330.403,332.799,337.701,346.345,351.744,354.857,357.97,363.369,368.889,371.649" svgx:width="0.28,0.5,0.25,0.5,0.5,0.5,0.44,0.33,0.39,0.28,0.44,0.5,0.5,0.25,0.28,0.5,0.44,0.25,0.28,0.5,0.28,0.44,0.33,0.39,0.44,0.44,0.28,0.28,0.5,0.5,0.25,0.5,0.33,0.25,0.39,0.44,0.28,0.44,0.5,0.44,0.44,0.25,0.25,0.5,0.5,0.28,0.28,0.28,0.28,0.44,0.39,0.25,0.25,0.44,0.5,0.5,0.25,0.44,0.78,0.5,0.28,0.28,0.5,0.5,0.25,0.25" style="fill:rgb(0,0,0);font-family:TimesNewRomanPSMT;font-size:11.04px;stroke:none;">to understand the intersection of science, politics, and emotion. </text>
  </g>
  <g begin="text">
   <text y="254.54" x="374.35,381.095,386.615,391.385,394.498,398.793,404.313,409.833,412.493,415.01,421.756,427.276,432.796,437.697,440.457,442.975,449.577,454.379,458.674" svgx:width="0.61,0.5,0.44,0.28,0.39,0.5,0.5,0.25,0.25,0.61,0.5,0.5,0.44,0.25,0.25,0.61,0.44,0.39,0.25" style="fill:rgb(0,0,0);font-family:TimesNewRomanPS-ItalicMT;font-size:11.04px;stroke:none;">Environ. Educ. Res.</text>
  </g>
  <g begin="text">
   <text y="254.54" x="461.5,464.26" svgx:width="0.25,0.25" style="fill:rgb(0,0,0);font-family:TimesNewRomanPSMT;font-size:11.04px;stroke:none;">, </text>
  </g>
  <g begin="text">
   <text y="254.54" x="466.78,472.3" svgx:width="0.5,0.5" style="fill:rgb(0,0,0);font-family:TimesNewRomanPS-BoldMT;font-size:11.04px;stroke:none;">26</text>
  </g>
  <g begin="text">
   <text y="254.54" x="477.82,481.419,486.939,490.648,493.408,495.926,501.446,506.844,512.364" svgx:width="0.33,0.5,0.33,0.25,0.25,0.5,0.5,0.5,0.5" style="fill:rgb(0,0,0);font-family:TimesNewRomanPSMT;font-size:11.04px;stroke:none;">(8), 1207</text>
  </g>
  <g begin="text">
   <text y="254.54" x="517.9" svgx:width="0.5" style="fill:rgb(0,0,0);font-family:TimesNewRomanPSMT;font-size:11.04px;stroke:none;">–</text>
  </g>
  <g begin="text">
   <text y="254.54" x="42.96,48.48" svgx:width="0.5,0.5" style="fill:rgb(0,0,0);font-family:TimesNewRomanPSMT;font-size:11.04px;stroke:none;">12</text>
  </g>
  <g begin="text">
   <text y="254.54" x="54.0" svgx:width="0.25" style="fill:rgb(0,0,0);font-family:TimesNewRomanPSMT;font-size:11.04px;stroke:none;"> </text>
  </g>
  <g begin="text">
   <text y="267.41" x="96.024,101.544,107.064,112.584,118.104,120.864,123.624,129.144,134.543,137.656,140.769,146.168,151.688,154.448,159.968,165.488,171.008,176.406,179.52,185.04,190.56,196.08,201.478,206.998,212.518" svgx:width="0.5,0.5,0.5,0.5,0.25,0.25,0.5,0.5,0.28,0.28,0.5,0.5,0.25,0.5,0.5,0.5,0.5,0.28,0.5,0.5,0.5,0.5,0.5,0.5,0.5" style="fill:rgb(0,0,0);font-family:TimesNewRomanPSMT;font-size:11.04px;stroke:none;">1226, doi:10.1080/1350462</text>
  </g>
  <g begin="text">
   <text y="267.41" x="217.97,223.49,226.25,231.77,237.29,242.81,248.33,251.09,256.61,262.13,267.529,273.049,278.569,284.089,289.609" svgx:width="0.5,0.25,0.5,0.5,0.5,0.5,0.25,0.5,0.5,0.5,0.5,0.5,0.5,0.5,0.25" style="fill:rgb(0,0,0);font-family:TimesNewRomanPSMT;font-size:11.04px;stroke:none;">2.2020.1771288.</text>
  </g>
  <g begin="text">
   <text y="267.41" x="292.25" svgx:width="0.25" style="fill:rgb(0,0,0);font-family:TimesNewRomanPSMT;font-size:11.04px;stroke:none;"> </text>
  </g>
  <g begin="text">
   <text y="267.41" x="42.96,48.48" svgx:width="0.5,0.5" style="fill:rgb(0,0,0);font-family:TimesNewRomanPSMT;font-size:11.04px;stroke:none;">13</text>
  </g>
  <g begin="text">
   <text y="267.41" x="54.0" svgx:width="0.25" style="fill:rgb(0,0,0);font-family:TimesNewRomanPSMT;font-size:11.04px;stroke:none;"> </text>
  </g>
  <g begin="text">
   <text y="286.01" x="72.024" svgx:width="0.25" style="fill:rgb(0,0,0);font-family:TimesNewRomanPSMT;font-size:11.04px;stroke:none;"> </text>
  </g>
  <g begin="text">
   <text y="286.01" x="42.96,48.48" svgx:width="0.5,0.5" style="fill:rgb(0,0,0);font-family:TimesNewRomanPSMT;font-size:11.04px;stroke:none;">14</text>
  </g>
  <g begin="text">
   <text y="286.01" x="54.0" svgx:width="0.25" style="fill:rgb(0,0,0);font-family:TimesNewRomanPSMT;font-size:11.04px;stroke:none;"> </text>
  </g>
  <g begin="text">
   <text y="602.109" transform="matrix(0.70711,-0.70711,0.70711,0.70711,-395.12956,250.29085)" rotateDegrees="-45" matrix="[29.803345,29.803345,-29.803345,29.803345,104.563255,239.8115]" x="104.563" svgx:width="0.67" style="fill:rgb(0,0,0);font-family:Arial;font-size:42.15px;stroke:none;">A</text>
   <text y="582.23" transform="matrix(0.70711,-0.70711,0.70711,0.70711,-375.25056,258.525)" rotateDegrees="-45" matrix="[29.803345,29.803345,-29.803345,29.803345,124.442085,259.6903]" x="124.442" svgx:width="0.72" style="fill:rgb(0,0,0);font-family:Arial;font-size:42.15px;stroke:none;">C</text>
   <text y="560.712" transform="matrix(0.70711,-0.70711,0.70711,0.70711,-353.73256,267.43805)" rotateDegrees="-45" matrix="[29.803345,29.803345,-29.803345,29.803345,145.9601,281.20834]" x="145.96" svgx:width="0.72" style="fill:rgb(0,0,0);font-family:Arial;font-size:42.15px;stroke:none;">C</text>
   <text y="539.194" transform="matrix(0.70711,-0.70711,0.70711,0.70711,-332.21456,276.3511)" rotateDegrees="-45" matrix="[29.803345,29.803345,-29.803345,29.803345,167.47812,302.72635]" x="167.478" svgx:width="0.67" style="fill:rgb(0,0,0);font-family:Arial;font-size:42.15px;stroke:none;">E</text>
   <text y="519.315" transform="matrix(0.70711,-0.70711,0.70711,0.70711,-312.33556,284.58525)" rotateDegrees="-45" matrix="[29.803345,29.803345,-29.803345,29.803345,187.35693,322.60516]" x="187.357" svgx:width="0.67" style="fill:rgb(0,0,0);font-family:Arial;font-size:42.15px;stroke:none;">P</text>
   <text y="499.436" transform="matrix(0.70711,-0.70711,0.70711,0.70711,-292.45656,292.8194)" rotateDegrees="-45" matrix="[29.803345,29.803345,-29.803345,29.803345,207.23578,342.484]" x="207.236" svgx:width="0.61" style="fill:rgb(0,0,0);font-family:Arial;font-size:42.15px;stroke:none;">T</text>
   <text y="481.226" transform="matrix(0.70711,-0.70711,0.70711,0.70711,-274.24656,300.36223)" rotateDegrees="-45" matrix="[29.803345,29.803345,-29.803345,29.803345,225.44562,360.69385]" x="225.446" svgx:width="0.67" style="fill:rgb(0,0,0);font-family:Arial;font-size:42.15px;stroke:none;">E</text>
   <text y="461.347" transform="matrix(0.70711,-0.70711,0.70711,0.70711,-254.36786,308.59567)" rotateDegrees="-45" matrix="[29.803345,29.803345,-29.803345,29.803345,245.32443,380.57266]" x="245.324" svgx:width="0.72" style="fill:rgb(0,0,0);font-family:Arial;font-size:42.15px;stroke:none;">D</text>
   <text y="439.829" transform="matrix(0.70711,-0.70711,0.70711,0.70711,-232.84986,317.50872)" rotateDegrees="-45" matrix="[29.803345,29.803345,-29.803345,29.803345,266.84247,402.0907]" x="266.842" svgx:width="0.28" style="fill:rgb(0,0,0);font-family:Arial;font-size:42.15px;stroke:none;"> </text>
   <text y="431.54" transform="matrix(0.70711,-0.70711,0.70711,0.70711,-224.56056,320.94284)" rotateDegrees="-45" matrix="[29.803345,29.803345,-29.803345,29.803345,275.13153,410.37976]" x="275.132" svgx:width="0.67" style="fill:rgb(0,0,0);font-family:Arial;font-size:42.15px;stroke:none;">V</text>
   <text y="411.661" transform="matrix(0.70711,-0.70711,0.70711,0.70711,-204.68186,329.17629)" rotateDegrees="-45" matrix="[29.803345,29.803345,-29.803345,29.803345,295.0103,430.25858]" x="295.01" svgx:width="0.67" style="fill:rgb(0,0,0);font-family:Arial;font-size:42.15px;stroke:none;">E</text>
   <text y="391.783" transform="matrix(0.70711,-0.70711,0.70711,0.70711,-184.80356,337.41073)" rotateDegrees="-45" matrix="[29.803345,29.803345,-29.803345,29.803345,314.88916,450.1374]" x="314.889" svgx:width="0.72" style="fill:rgb(0,0,0);font-family:Arial;font-size:42.15px;stroke:none;">R</text>
   <text y="370.265" transform="matrix(0.70711,-0.70711,0.70711,0.70711,-163.28556,346.32378)" rotateDegrees="-45" matrix="[29.803345,29.803345,-29.803345,29.803345,336.40717,471.65543]" x="336.407" svgx:width="0.67" style="fill:rgb(0,0,0);font-family:Arial;font-size:42.15px;stroke:none;">S</text>
   <text y="350.386" transform="matrix(0.70711,-0.70711,0.70711,0.70711,-143.40656,354.55793)" rotateDegrees="-45" matrix="[29.803345,29.803345,-29.803345,29.803345,356.286,491.53424]" x="356.286" svgx:width="0.28" style="fill:rgb(0,0,0);font-family:Arial;font-size:42.15px;stroke:none;">I</text>
   <text y="342.1" transform="matrix(0.70711,-0.70711,0.70711,0.70711,-135.12086,357.9894)" rotateDegrees="-45" matrix="[29.803345,29.803345,-29.803345,29.803345,364.57135,499.81958]" x="364.571" svgx:width="0.78" style="fill:rgb(0,0,0);font-family:Arial;font-size:42.15px;stroke:none;">O</text>
   <text y="318.913" transform="matrix(0.70711,-0.70711,0.70711,0.70711,-111.93386,367.59377)" rotateDegrees="-45" matrix="[29.803345,29.803345,-29.803345,29.803345,387.7583,523.0066]" x="387.758" svgx:width="0.72" style="fill:rgb(0,0,0);font-family:Arial;font-size:42.15px;stroke:none;">N</text>
   <text y="297.395" transform="matrix(0.70711,-0.70711,0.70711,0.70711,-90.41586,376.50681)" rotateDegrees="-45" matrix="[29.803345,29.803345,-29.803345,29.803345,409.27637,544.5246]" x="409.276" svgx:width="0.28" style="fill:rgb(0,0,0);font-family:Arial;font-size:42.15px;stroke:none;"> </text>
   <text y="637.872" transform="matrix(0.70711,-0.70711,0.70711,0.70711,-409.94279,286.05456)" rotateDegrees="-45" matrix="[29.803345,29.803345,-29.803345,29.803345,140.32727,204.04747]" x="140.327" svgx:width="0.67" style="fill:rgb(0,0,0);font-family:Arial;font-size:42.15px;stroke:none;">S</text>
   <text y="617.994" transform="matrix(0.70711,-0.70711,0.70711,0.70711,-390.0645,294.289)" rotateDegrees="-45" matrix="[29.803345,29.803345,-29.803345,29.803345,160.2061,223.9263]" x="160.206" svgx:width="0.72" style="fill:rgb(0,0,0);font-family:Arial;font-size:42.15px;stroke:none;">U</text>
   <text y="596.476" transform="matrix(0.70711,-0.70711,0.70711,0.70711,-368.5465,303.20205)" rotateDegrees="-45" matrix="[29.803345,29.803345,-29.803345,29.803345,181.72412,245.4443]" x="181.724" svgx:width="0.67" style="fill:rgb(0,0,0);font-family:Arial;font-size:42.15px;stroke:none;">B</text>
   <text y="576.597" transform="matrix(0.70711,-0.70711,0.70711,0.70711,-348.6675,311.4362)" rotateDegrees="-45" matrix="[29.803345,29.803345,-29.803345,29.803345,201.60294,265.32315]" x="201.603" svgx:width="0.5" style="fill:rgb(0,0,0);font-family:Arial;font-size:42.15px;stroke:none;">J</text>
   <text y="561.695" transform="matrix(0.70711,-0.70711,0.70711,0.70711,-333.7655,317.60881)" rotateDegrees="-45" matrix="[29.803345,29.803345,-29.803345,29.803345,216.50462,280.22482]" x="216.505" svgx:width="0.67" style="fill:rgb(0,0,0);font-family:Arial;font-size:42.15px;stroke:none;">E</text>
   <text y="541.816" transform="matrix(0.70711,-0.70711,0.70711,0.70711,-313.88679,325.84225)" rotateDegrees="-45" matrix="[29.803345,29.803345,-29.803345,29.803345,236.38344,300.10364]" x="236.383" svgx:width="0.72" style="fill:rgb(0,0,0);font-family:Arial;font-size:42.15px;stroke:none;">C</text>
   <text y="520.298" transform="matrix(0.70711,-0.70711,0.70711,0.70711,-292.36879,334.7553)" rotateDegrees="-45" matrix="[29.803345,29.803345,-29.803345,29.803345,257.90146,321.62164]" x="257.901" svgx:width="0.61" style="fill:rgb(0,0,0);font-family:Arial;font-size:42.15px;stroke:none;">T</text>
   <text y="502.089" transform="matrix(0.70711,-0.70711,0.70711,0.70711,-274.1595,342.29842)" rotateDegrees="-45" matrix="[29.803345,29.803345,-29.803345,29.803345,276.1113,339.83148]" x="276.111" svgx:width="0.28" style="fill:rgb(0,0,0);font-family:Arial;font-size:42.15px;stroke:none;"> </text>
   <text y="493.803" transform="matrix(0.70711,-0.70711,0.70711,0.70711,-265.8735,345.7306)" rotateDegrees="-45" matrix="[29.803345,29.803345,-29.803345,29.803345,284.39664,348.11682]" x="284.397" svgx:width="0.61" style="fill:rgb(0,0,0);font-family:Arial;font-size:42.15px;stroke:none;">T</text>
   <text y="475.593" transform="matrix(0.70711,-0.70711,0.70711,0.70711,-247.66379,353.27272)" rotateDegrees="-45" matrix="[29.803345,29.803345,-29.803345,29.803345,302.60648,366.32666]" x="302.606" svgx:width="0.78" style="fill:rgb(0,0,0);font-family:Arial;font-size:42.15px;stroke:none;">O</text>
   <text y="452.406" transform="matrix(0.70711,-0.70711,0.70711,0.70711,-224.47679,362.87709)" rotateDegrees="-45" matrix="[29.803345,29.803345,-29.803345,29.803345,325.79346,389.51367]" x="325.793" svgx:width="0.28" style="fill:rgb(0,0,0);font-family:Arial;font-size:42.15px;stroke:none;"> </text>
   <text y="444.136" transform="matrix(0.70711,-0.70711,0.70711,0.70711,-216.2065,366.30334)" rotateDegrees="-45" matrix="[29.803345,29.803345,-29.803345,29.803345,334.0639,397.78412]" x="334.064" svgx:width="0.61" style="fill:rgb(0,0,0);font-family:Arial;font-size:42.15px;stroke:none;">F</text>
   <text y="425.926" transform="matrix(0.70711,-0.70711,0.70711,0.70711,-197.9965,373.84617)" rotateDegrees="-45" matrix="[29.803345,29.803345,-29.803345,29.803345,352.27374,415.99396]" x="352.274" svgx:width="0.28" style="fill:rgb(0,0,0);font-family:Arial;font-size:42.15px;stroke:none;">I</text>
   <text y="417.641" transform="matrix(0.70711,-0.70711,0.70711,0.70711,-189.7115,377.27793)" rotateDegrees="-45" matrix="[29.803345,29.803345,-29.803345,29.803345,360.55908,424.2793]" x="360.559" svgx:width="0.72" style="fill:rgb(0,0,0);font-family:Arial;font-size:42.15px;stroke:none;">N</text>
   <text y="396.123" transform="matrix(0.70711,-0.70711,0.70711,0.70711,-168.1935,386.19098)" rotateDegrees="-45" matrix="[29.803345,29.803345,-29.803345,29.803345,382.0771,445.7973]" x="382.077" svgx:width="0.67" style="fill:rgb(0,0,0);font-family:Arial;font-size:42.15px;stroke:none;">A</text>
   <text y="376.244" transform="matrix(0.70711,-0.70711,0.70711,0.70711,-148.3145,394.42513)" rotateDegrees="-45" matrix="[29.803345,29.803345,-29.803345,29.803345,401.95593,465.67615]" x="401.956" svgx:width="0.56" style="fill:rgb(0,0,0);font-family:Arial;font-size:42.15px;stroke:none;">L</text>
   <text y="359.673" transform="matrix(0.70711,-0.70711,0.70711,0.70711,-131.7435,401.28906)" rotateDegrees="-45" matrix="[29.803345,29.803345,-29.803345,29.803345,418.5266,482.24677]" x="418.527" svgx:width="0.28" style="fill:rgb(0,0,0);font-family:Arial;font-size:42.15px;stroke:none;"> </text>
   <text y="351.394" transform="matrix(0.70711,-0.70711,0.70711,0.70711,-123.4645,404.71834)" rotateDegrees="-45" matrix="[29.803345,29.803345,-29.803345,29.803345,426.80573,490.52588]" x="426.806" svgx:width="0.67" style="fill:rgb(0,0,0);font-family:Arial;font-size:42.15px;stroke:none;">E</text>
   <text y="331.515" transform="matrix(0.70711,-0.70711,0.70711,0.70711,-103.5855,412.95249)" rotateDegrees="-45" matrix="[29.803345,29.803345,-29.803345,29.803345,446.68457,510.40472]" x="446.685" svgx:width="0.72" style="fill:rgb(0,0,0);font-family:Arial;font-size:42.15px;stroke:none;">D</text>
   <text y="309.997" transform="matrix(0.70711,-0.70711,0.70711,0.70711,-82.0675,421.86554)" rotateDegrees="-45" matrix="[29.803345,29.803345,-29.803345,29.803345,468.2025,531.9227]" x="468.203" svgx:width="0.28" style="fill:rgb(0,0,0);font-family:Arial;font-size:42.15px;stroke:none;">I</text>
   <text y="301.712" transform="matrix(0.70711,-0.70711,0.70711,0.70711,-73.7825,425.29729)" rotateDegrees="-45" matrix="[29.803345,29.803345,-29.803345,29.803345,476.48785,540.20807]" x="476.488" svgx:width="0.61" style="fill:rgb(0,0,0);font-family:Arial;font-size:42.15px;stroke:none;">T</text>
   <text y="283.502" transform="matrix(0.70711,-0.70711,0.70711,0.70711,-55.5725,432.84012)" rotateDegrees="-45" matrix="[29.803345,29.803345,-29.803345,29.803345,494.6977,558.4179]" x="494.698" svgx:width="0.67" style="fill:rgb(0,0,0);font-family:Arial;font-size:42.15px;stroke:none;">S</text>
  </g>
 </g>
</svg>
