<?xml version="1.0" encoding="UTF-8"?>
<svg height="683.74" width="534.46" xmlns="http://www.w3.org/2000/svg">
 <g id="page" xmlns:svgx="http://www.xml-cml.org/schema/svgx">
  <g begin="text">
   <text y="84.18" x="149.34,162.0,170.941,174.114,177.833,181.551,185.27,188.443,194.323,201.824,209.384,214.245,219.225,222.65,230.143,237.636,242.497,245.922,253.423,260.916,264.089,269.01,276.51,279.684,284.543,292.037,299.055,302.228,308.827,312.252,318.671,323.591,331.084,334.258,342.716,348.295,353.874,360.892,366.473,372.053,383.512,390.53,398.023,402.883,406.056,413.913,420.931,428.491,435.992,441.031,445.982" svgx:width="0.91,0.64,0.23,0.27,0.27,0.27,0.23,0.42,0.54,0.54,0.35,0.35,0.25,0.54,0.54,0.35,0.25,0.54,0.54,0.23,0.35,0.54,0.23,0.35,0.54,0.5,0.23,0.47,0.25,0.46,0.35,0.54,0.23,0.61,0.4,0.4,0.5,0.4,0.4,0.81,0.5,0.54,0.35,0.23,0.56,0.5,0.54,0.54,0.35,0.35,0.23" style="fill:rgb(0,0,0);font-family:Calibri-Bold;font-size:13.98px;stroke:none;">WG III contribution to the Sixth Assessment Report </text>
   <text y="99.36" x="205.44,210.54,213.48,218.28,222.42,225.12,231.6,235.38,238.08,243.12,249.6,253.86,258.12,261.06,266.7,272.76,279.18,285.6,291.54,294.24,298.38,304.86,307.56,313.981,320.041,322.741,325.741,335.521,341.941,344.881,350.941,360.721,366.781,373.201,377.341,383.401,389.82" svgx:width="0.42,0.25,0.4,0.35,0.23,0.54,0.32,0.23,0.42,0.54,0.35,0.35,0.25,0.47,0.5,0.54,0.54,0.49,0.23,0.35,0.54,0.23,0.54,0.5,0.23,0.25,0.81,0.54,0.25,0.5,0.81,0.5,0.54,0.35,0.5,0.54,0.23" style="fill:rgb(0,0,0);font-family:Calibri-Bold;font-size:12.0px;stroke:none;">List of corrigenda to be implemented </text>
   <text y="112.92" x="94.92,101.64,107.756,113.871,116.935,122.456,128.572,132.232,135.892,138.351,144.467,150.527,156.643,162.759,168.875,171.938,174.398,176.858,182.378,185.441,191.557,197.673,200.736,206.796,212.912,215.372,221.488,229.407,232.471,240.391,242.85,245.31,247.77,250.834,256.95,263.066,266.065,268.525,277.645,283.761,286.22,292.336,301.456,307.572,313.688,316.751,322.932,329.048,332.111,334.571,340.686,343.75,346.813,352.929,359.045,362.108,370.028,376.144,382.26,388.376,391.439,397.555,401.215,404.278,410.394,416.51,420.169,422.63,428.746,434.862,437.925,443.385,449.501,455.617,461.224,464.88,470.996,477.112,479.571,482.635,485.094,491.21,497.326,500.345" svgx:width="0.61,0.56,0.56,0.28,0.5,0.56,0.33,0.33,0.22,0.56,0.56,0.56,0.56,0.56,0.28,0.22,0.22,0.5,0.28,0.56,0.56,0.28,0.56,0.56,0.22,0.56,0.72,0.28,0.72,0.22,0.22,0.22,0.28,0.56,0.56,0.28,0.22,0.83,0.56,0.22,0.56,0.83,0.56,0.56,0.28,0.56,0.56,0.28,0.22,0.56,0.28,0.28,0.56,0.56,0.28,0.72,0.56,0.56,0.56,0.28,0.56,0.33,0.28,0.56,0.56,0.33,0.22,0.56,0.56,0.28,0.5,0.56,0.56,0.5,0.33,0.56,0.56,0.22,0.28,0.22,0.56,0.56,0.28,0.28" style="fill:rgb(255,0,0);font-family:ArialMT;font-size:10.98px;stroke:none;">The corrigenda listed below will be implemented in the Chapter during copy-editing. </text>
   <text y="125.525" x="297.666" svgx:width="0.28" style="fill:rgb(255,0,0);font-family:ArialMT;font-size:10.98px;stroke:none;"> </text>
   <text y="135.48" x="70.86" svgx:width="0.23" style="fill:rgb(255,0,0);font-family:Calibri;font-size:7.98px;stroke:none;"> </text>
   <text y="150.96" x="70.86,78.241,87.061,95.519,103.02,109.919,116.759,124.616,127.859,134.933" svgx:width="0.53,0.63,0.61,0.53,0.5,0.49,0.56,0.23,0.51,0.23" style="fill:rgb(192,0,0);font-family:Calibri-Bold;font-size:13.98px;stroke:none;">CHAPTER 1 </text>
   <text y="165.24" x="70.86" svgx:width="0.23" style="fill:rgb(0,0,0);font-family:Calibri;font-size:10.98px;stroke:none;"> </text>
  </g>
  <path style="fill:rgb(217,225,242);stroke:none;stroke-width:1.0;" d="M71.340 610.260 L127.560 610.260 L127.560 673.260 L71.340 673.260 L71.340 610.260 "/>
  <path style="fill:rgb(217,225,242);stroke:none;stroke-width:1.0;" d="M76.500 661.020 L122.400 661.020 L122.400 673.260 L76.500 673.260 L76.500 661.020 "/>
  <g begin="text">
   <text y="178.14" x="77.82,84.12,89.52,93.719,99.058,107.215,112.255,117.655,121.074" svgx:width="0.63,0.54,0.42,0.54,0.81,0.5,0.54,0.35,0.23" style="fill:rgb(0,0,0);font-family:Calibri-Bold;font-size:10.02px;stroke:none;">Document </text>
  </g>
  <path style="fill:rgb(217,225,242);stroke:none;stroke-width:1.0;" d="M71.340 610.260 L127.560 610.260 L127.560 673.260 L71.340 673.260 L71.340 610.260 M76.500 648.840 L122.400 648.840 L122.400 661.020 L76.500 661.020 L76.500 648.840 "/>
  <g begin="text">
   <text y="190.38" x="80.04,83.16,88.44,93.841,98.76,104.16,107.637,112.677,116.217,118.797" svgx:width="0.31,0.53,0.54,0.49,0.54,0.35,0.5,0.35,0.26,0.23" style="fill:rgb(0,0,0);font-family:Calibri-Bold;font-size:10.02px;stroke:none;">(Chapter, </text>
  </g>
  <path style="fill:rgb(217,225,242);stroke:none;stroke-width:1.0;" d="M76.500 636.600 L122.400 636.600 L122.400 648.840 L76.500 648.840 L76.500 636.600 "/>
  <g begin="text">
   <text y="202.56" x="84.9,90.96,96.361,101.762,106.742,111.361,113.941" svgx:width="0.61,0.54,0.54,0.5,0.46,0.26,0.23" style="fill:rgb(0,0,0);font-family:Calibri-Bold;font-size:10.02px;stroke:none;">Annex, </text>
  </g>
  <path style="fill:rgb(217,225,242);stroke:none;stroke-width:1.0;" d="M76.500 624.420 L122.400 624.420 L122.400 636.600 L76.500 636.600 L76.500 624.420 "/>
  <g begin="text">
   <text y="214.8" x="87.66,92.4,97.8,103.141,108.541,111.176" svgx:width="0.47,0.54,0.54,0.54,0.27,0.23" style="fill:rgb(0,0,0);font-family:Calibri-Bold;font-size:10.02px;stroke:none;">Supp. </text>
  </g>
  <path style="fill:rgb(217,225,242);stroke:none;stroke-width:1.0;" d="M76.500 612.240 L122.400 612.240 L122.400 624.420 L76.500 624.420 L76.500 612.240 "/>
  <g begin="text">
   <text y="226.98" x="80.1,88.857,93.778,97.255,102.295,105.835,108.295,113.215,115.675,118.797" svgx:width="0.87,0.49,0.35,0.5,0.35,0.25,0.49,0.25,0.31,0.23" style="fill:rgb(0,0,0);font-family:Calibri-Bold;font-size:10.02px;stroke:none;">Material) </text>
  </g>
  <path style="fill:rgb(217,225,242);stroke:none;stroke-width:1.0;" d="M127.800 610.260 L184.260 610.260 L184.260 673.260 L127.800 673.260 L127.800 610.260 "/>
  <path style="fill:rgb(217,225,242);stroke:none;stroke-width:1.0;" d="M133.200 661.020 L179.100 661.020 L179.100 673.260 L133.200 673.260 L133.200 661.020 "/>
  <g begin="text">
   <text y="178.14" x="146.1,151.44,156.359,161.099" svgx:width="0.53,0.49,0.47,0.5" style="fill:rgb(0,0,0);font-family:Calibri-Bold;font-size:10.02px;stroke:none;">Page</text>
  </g>
  <g begin="text">
   <text y="178.14" x="166.14" svgx:width="0.23" style="fill:rgb(0,0,0);font-family:Calibri-Bold;font-size:10.02px;stroke:none;"> </text>
  </g>
  <path style="fill:rgb(217,225,242);stroke:none;stroke-width:1.0;" d="M127.800 610.260 L184.260 610.260 L184.260 673.260 L127.800 673.260 L127.800 610.260 M127.800 610.260 L184.260 610.260 L184.260 673.260 L127.800 673.260 L127.800 610.260 M133.200 648.840 L179.100 648.840 L179.100 661.020 L133.200 661.020 L133.200 648.840 "/>
  <g begin="text">
   <text y="190.38" x="135.6,138.72,144.362,149.281,153.299,158.279,163.68,165.96,171.3,176.701" svgx:width="0.31,0.56,0.49,0.4,0.5,0.54,0.23,0.54,0.54,0.23" style="fill:rgb(0,0,0);font-family:Calibri-Bold;font-size:10.02px;stroke:none;">(Based on </text>
  </g>
  <path style="fill:rgb(217,225,242);stroke:none;stroke-width:1.0;" d="M133.200 636.600 L179.100 636.600 L179.100 648.840 L133.200 648.840 L133.200 636.600 "/>
  <g begin="text">
   <text y="202.56" x="138.84,142.317,147.717,152.757,155.042,158.163,160.622,166.022,170.942,173.402" svgx:width="0.35,0.54,0.5,0.23,0.32,0.25,0.54,0.49,0.25,0.23" style="fill:rgb(0,0,0);font-family:Calibri-Bold;font-size:10.02px;stroke:none;">the final </text>
  </g>
  <path style="fill:rgb(217,225,242);stroke:none;stroke-width:1.0;" d="M133.200 624.420 L179.100 624.420 L179.100 636.600 L133.200 636.600 L133.200 624.420 "/>
  <g begin="text">
   <text y="214.8" x="139.38,144.781,150.182,153.302,155.586,160.206,166.565,172.865" svgx:width="0.54,0.54,0.32,0.23,0.46,0.64,0.63,0.23" style="fill:rgb(0,0,0);font-family:Calibri-Bold;font-size:10.02px;stroke:none;">pdf FGD </text>
  </g>
  <path style="fill:rgb(217,225,242);stroke:none;stroke-width:1.0;" d="M133.200 612.240 L179.100 612.240 L179.100 624.420 L133.200 624.420 L133.200 612.240 "/>
  <g begin="text">
   <text y="226.98" x="139.32,144.059,149.1,152.639,156.659,159.124,164.463,169.863,172.917" svgx:width="0.47,0.5,0.35,0.4,0.25,0.54,0.54,0.31,0.23" style="fill:rgb(0,0,0);font-family:Calibri-Bold;font-size:10.02px;stroke:none;">version) </text>
  </g>
  <path style="fill:rgb(217,225,242);stroke:none;stroke-width:1.0;" d="M184.500 610.260 L246.180 610.260 L246.180 673.260 L184.500 673.260 L184.500 610.260 "/>
  <path style="fill:rgb(217,225,242);stroke:none;stroke-width:1.0;" d="M189.900 661.020 L241.020 661.020 L241.020 673.260 L189.900 673.260 L189.900 661.020 "/>
  <g begin="text">
   <text y="178.14" x="206.88,211.139,213.599,219.0" svgx:width="0.42,0.25,0.54,0.5" style="fill:rgb(0,0,0);font-family:Calibri-Bold;font-size:10.02px;stroke:none;">Line</text>
  </g>
  <g begin="text">
   <text y="178.14" x="223.98" svgx:width="0.23" style="fill:rgb(0,0,0);font-family:Calibri-Bold;font-size:10.02px;stroke:none;"> </text>
  </g>
  <path style="fill:rgb(217,225,242);stroke:none;stroke-width:1.0;" d="M184.500 610.260 L246.180 610.260 L246.180 673.260 L184.500 673.260 L184.500 610.260 M184.500 610.260 L246.180 610.260 L246.180 673.260 L184.500 673.260 L184.500 610.260 "/>
  <g begin="text">
   <text y="178.14" x="294.78,301.08,306.12,309.6,314.519,316.979,319.439,324.479,329.879,332.164,334.563,339.963,343.14,348.54,352.02,360.177,365.096,368.576,371.036,376.437,381.777,384.056,389.396,394.797,397.076,401.215,406.616,410.156,413.695,418.735,422.934,426.414,428.874,434.274,439.614,441.894,445.375,450.714,452.994,461.15,466.07,470.809" svgx:width="0.63,0.5,0.35,0.49,0.25,0.25,0.5,0.54,0.23,0.25,0.54,0.32,0.54,0.35,0.81,0.49,0.35,0.25,0.54,0.54,0.23,0.54,0.54,0.23,0.42,0.54,0.35,0.35,0.5,0.42,0.35,0.25,0.54,0.54,0.23,0.35,0.54,0.23,0.81,0.49,0.48,0.5" style="fill:rgb(0,0,0);font-family:Calibri-Bold;font-size:10.02px;stroke:none;">Detailed information on correction to make</text>
  </g>
  <g begin="text">
   <text y="178.14" x="475.86" svgx:width="0.23" style="fill:rgb(0,0,0);font-family:Calibri-Bold;font-size:10.02px;stroke:none;"> </text>
  </g>
  <path style="fill:rgb(0,0,0);stroke:none;stroke-width:1.0;" d="M70.860 673.260 L71.340 673.260 L71.340 673.740 L70.860 673.740 L70.860 673.260 "/>
  <path style="fill:rgb(0,0,0);stroke:none;stroke-width:1.0;" d="M70.860 673.260 L71.340 673.260 L71.340 673.740 L70.860 673.740 L70.860 673.260 "/>
  <path style="fill:rgb(0,0,0);stroke:none;stroke-width:1.0;" d="M71.340 673.260 L127.560 673.260 L127.560 673.740 L71.340 673.740 L71.340 673.260 "/>
  <path style="fill:rgb(0,0,0);stroke:none;stroke-width:1.0;" d="M127.560 673.260 L128.040 673.260 L128.040 673.740 L127.560 673.740 L127.560 673.260 "/>
  <path style="fill:rgb(0,0,0);stroke:none;stroke-width:1.0;" d="M128.040 673.260 L184.260 673.260 L184.260 673.740 L128.040 673.740 L128.040 673.260 "/>
  <path style="fill:rgb(0,0,0);stroke:none;stroke-width:1.0;" d="M184.260 673.260 L184.740 673.260 L184.740 673.740 L184.260 673.740 L184.260 673.260 "/>
  <path style="fill:rgb(0,0,0);stroke:none;stroke-width:1.0;" d="M184.740 673.260 L246.240 673.260 L246.240 673.740 L184.740 673.740 L184.740 673.260 "/>
  <path style="fill:rgb(0,0,0);stroke:none;stroke-width:1.0;" d="M246.240 673.260 L246.720 673.260 L246.720 673.740 L246.240 673.740 L246.240 673.260 "/>
  <path style="fill:rgb(0,0,0);stroke:none;stroke-width:1.0;" d="M523.980 673.260 L524.460 673.260 L524.460 673.740 L523.980 673.740 L523.980 673.260 "/>
  <path style="fill:rgb(0,0,0);stroke:none;stroke-width:1.0;" d="M523.980 673.260 L524.460 673.260 L524.460 673.740 L523.980 673.740 L523.980 673.260 "/>
  <path style="fill:rgb(0,0,0);stroke:none;stroke-width:1.0;" d="M70.860 610.260 L71.340 610.260 L71.340 673.260 L70.860 673.260 L70.860 610.260 "/>
  <path style="fill:rgb(0,0,0);stroke:none;stroke-width:1.0;" d="M127.560 610.260 L128.040 610.260 L128.040 673.260 L127.560 673.260 L127.560 610.260 "/>
  <path style="fill:rgb(0,0,0);stroke:none;stroke-width:1.0;" d="M184.260 610.260 L184.740 610.260 L184.740 673.260 L184.260 673.260 L184.260 610.260 "/>
  <path style="fill:rgb(0,0,0);stroke:none;stroke-width:1.0;" d="M246.240 610.260 L246.720 610.260 L246.720 673.260 L246.240 673.260 L246.240 610.260 "/>
  <path style="fill:rgb(0,0,0);stroke:none;stroke-width:1.0;" d="M523.980 610.260 L524.460 610.260 L524.460 673.260 L523.980 673.260 L523.980 610.260 "/>
  <g begin="text">
   <text y="241.62" x="76.5,81.841,87.121,91.921,97.201,100.558,105.538,108.958,111.242" svgx:width="0.53,0.52,0.48,0.52,0.34,0.5,0.35,0.23,0.51" style="fill:rgb(0,0,0);font-family:Calibri;font-size:10.02px;stroke:none;">Chapter 1</text>
  </g>
  <g begin="text">
   <text y="241.62" x="116.28" svgx:width="0.23" style="fill:rgb(0,0,0);font-family:Calibri;font-size:10.02px;stroke:none;"> </text>
  </g>
  <g begin="text">
   <text y="241.62" x="133.2,137.819,141.299,146.579,151.859,155.219,157.443,162.724,167.464,172.204" svgx:width="0.46,0.35,0.53,0.52,0.34,0.23,0.52,0.48,0.47,0.5" style="fill:rgb(0,0,0);font-family:Calibri;font-size:10.02px;stroke:none;">Front page</text>
  </g>
  <g begin="text">
   <text y="241.62" x="177.12" svgx:width="0.23" style="fill:rgb(0,0,0);font-family:Calibri;font-size:10.02px;stroke:none;"> </text>
  </g>
  <g begin="text">
   <text y="241.62" x="189.9,195.241,200.521,205.801,209.157,212.637,214.917,220.197,225.417,228.774,231.054,236.334,241.014" svgx:width="0.53,0.53,0.52,0.34,0.35,0.23,0.52,0.52,0.34,0.23,0.52,0.47,0.23" style="fill:rgb(0,0,0);font-family:Calibri;font-size:10.02px;stroke:none;">Contributing </text>
  </g>
  <g begin="text">
   <text y="253.86" x="189.9,195.722,201.002,204.302,209.582,214.862,218.342" svgx:width="0.58,0.52,0.34,0.52,0.53,0.35,0.39" style="fill:rgb(0,0,0);font-family:Calibri;font-size:10.02px;stroke:none;">Authors</text>
  </g>
  <g begin="text">
   <text y="253.86" x="222.24" svgx:width="0.23" style="fill:rgb(0,0,0);font-family:Calibri;font-size:10.02px;stroke:none;"> </text>
  </g>
  <g begin="text">
   <text y="241.62" x="251.88,257.7,259.98,264.96,269.279,274.079,279.359,284.639,288.116,293.036,295.316,300.536,305.756,310.976,315.956,319.433,321.707,326.687,328.972,331.246,335.144,337.424,342.223,344.508,348.707,354.528,356.988,359.267,364.068,366.342,370.24,375.521,377.8,380.081,382.355,386.253,389.614,394.594,399.873,402.158,406.957,410.855,413.14,418.419,424.24,426.7,428.919,434.2,439.18,444.16,449.439,453.337,455.621,458.981,464.202,466.481,471.762,476.681,478.961,482.438,487.358,495.339,500.618,505.118,510.098,515.378" svgx:width="0.58,0.23,0.5,0.43,0.48,0.52,0.52,0.35,0.5,0.23,0.52,0.53,0.52,0.5,0.35,0.23,0.5,0.23,0.23,0.39,0.23,0.48,0.23,0.42,0.58,0.25,0.23,0.48,0.23,0.39,0.53,0.23,0.23,0.23,0.39,0.34,0.5,0.52,0.23,0.48,0.39,0.23,0.53,0.58,0.25,0.23,0.52,0.5,0.5,0.52,0.39,0.23,0.34,0.53,0.23,0.52,0.5,0.23,0.35,0.5,0.8,0.53,0.45,0.5,0.52,0.23" style="fill:rgb(0,0,0);font-family:Calibri;font-size:10.02px;stroke:none;">Alexandre Koberle is a LA, also listed as CA, needs to be removed </text>
  </g>
  <g begin="text">
   <text y="253.86" x="251.88,254.94,258.417,263.697,271.678,273.957,279.297,285.117,287.397,289.677,291.952,295.85,299.209,301.73,303.95,309.709,314.99,320.27,322.554,327.834,333.654,335.934,338.214,340.489,344.387,347.746,350.031,355.25,360.231,365.211,370.431,374.328,376.613,379.973,385.253,387.533,392.812,397.733,400.013,402.293,407.573,409.852,414.653,416.927,422.148,427.367,432.168,437.447,442.427,445.788,448.062,452.323,457.122,459.397,461.682,466.961,470.381,475.661,480.641,484.118" svgx:width="0.31,0.35,0.53,0.8,0.23,0.53,0.58,0.23,0.23,0.23,0.39,0.34,0.25,0.23,0.58,0.52,0.52,0.23,0.53,0.58,0.23,0.23,0.23,0.39,0.34,0.23,0.52,0.5,0.5,0.52,0.39,0.23,0.34,0.53,0.23,0.52,0.5,0.23,0.23,0.52,0.23,0.48,0.23,0.52,0.52,0.48,0.52,0.5,0.34,0.23,0.42,0.48,0.23,0.23,0.53,0.35,0.52,0.5,0.35,0.25" style="fill:rgb(0,0,0);font-family:Calibri;font-size:10.02px;stroke:none;">from CA list. And CA list needs to be in alphabetical order.</text>
  </g>
  <g begin="text">
   <text y="253.86" x="486.6" svgx:width="0.23" style="fill:rgb(0,0,0);font-family:Calibri;font-size:10.02px;stroke:none;"> </text>
  </g>
  <path style="fill:rgb(0,0,0);stroke:none;stroke-width:1.0;" d="M71.340 585.360 L127.560 585.360 L127.560 609.780 L71.340 609.780 L71.340 585.360 M71.340 585.360 L127.560 585.360 L127.560 609.780 L71.340 609.780 L71.340 585.360 M127.800 585.360 L184.260 585.360 L184.260 609.780 L127.800 609.780 L127.800 585.360 M127.800 585.360 L184.260 585.360 L184.260 609.780 L127.800 609.780 L127.800 585.360 M184.500 585.360 L246.180 585.360 L246.180 609.780 L184.500 609.780 L184.500 585.360 M184.500 585.360 L246.180 585.360 L246.180 609.780 L184.500 609.780 L184.500 585.360 M184.500 585.360 L246.180 585.360 L246.180 609.780 L184.500 609.780 L184.500 585.360 M70.860 609.780 L71.340 609.780 L71.340 610.260 L70.860 610.260 L70.860 609.780 "/>
  <path style="fill:rgb(0,0,0);stroke:none;stroke-width:1.0;" d="M71.340 609.780 L127.560 609.780 L127.560 610.260 L71.340 610.260 L71.340 609.780 "/>
  <path style="fill:rgb(0,0,0);stroke:none;stroke-width:1.0;" d="M127.560 609.780 L128.040 609.780 L128.040 610.260 L127.560 610.260 L127.560 609.780 "/>
  <path style="fill:rgb(0,0,0);stroke:none;stroke-width:1.0;" d="M128.040 609.780 L184.260 609.780 L184.260 610.260 L128.040 610.260 L128.040 609.780 "/>
  <path style="fill:rgb(0,0,0);stroke:none;stroke-width:1.0;" d="M184.260 609.780 L184.740 609.780 L184.740 610.260 L184.260 610.260 L184.260 609.780 "/>
  <path style="fill:rgb(0,0,0);stroke:none;stroke-width:1.0;" d="M184.740 609.780 L246.240 609.780 L246.240 610.260 L184.740 610.260 L184.740 609.780 "/>
  <path style="fill:rgb(0,0,0);stroke:none;stroke-width:1.0;" d="M246.240 609.780 L246.720 609.780 L246.720 610.260 L246.240 610.260 L246.240 609.780 "/>
  <path style="fill:rgb(0,0,0);stroke:none;stroke-width:1.0;" d="M523.980 609.780 L524.460 609.780 L524.460 610.260 L523.980 610.260 L523.980 609.780 "/>
  <path style="fill:rgb(0,0,0);stroke:none;stroke-width:1.0;" d="M70.860 585.300 L71.340 585.300 L71.340 609.780 L70.860 609.780 L70.860 585.300 "/>
  <path style="fill:rgb(0,0,0);stroke:none;stroke-width:1.0;" d="M70.860 584.820 L71.340 584.820 L71.340 585.300 L70.860 585.300 L70.860 584.820 "/>
  <path style="fill:rgb(0,0,0);stroke:none;stroke-width:1.0;" d="M70.860 584.820 L71.340 584.820 L71.340 585.300 L70.860 585.300 L70.860 584.820 "/>
  <path style="fill:rgb(0,0,0);stroke:none;stroke-width:1.0;" d="M71.340 584.820 L127.560 584.820 L127.560 585.300 L71.340 585.300 L71.340 584.820 "/>
  <path style="fill:rgb(0,0,0);stroke:none;stroke-width:1.0;" d="M127.560 585.300 L128.040 585.300 L128.040 609.780 L127.560 609.780 L127.560 585.300 "/>
  <path style="fill:rgb(0,0,0);stroke:none;stroke-width:1.0;" d="M127.560 584.820 L128.040 584.820 L128.040 585.300 L127.560 585.300 L127.560 584.820 "/>
  <path style="fill:rgb(0,0,0);stroke:none;stroke-width:1.0;" d="M128.040 584.820 L184.260 584.820 L184.260 585.300 L128.040 585.300 L128.040 584.820 "/>
  <path style="fill:rgb(0,0,0);stroke:none;stroke-width:1.0;" d="M184.260 585.300 L184.740 585.300 L184.740 609.780 L184.260 609.780 L184.260 585.300 "/>
  <path style="fill:rgb(0,0,0);stroke:none;stroke-width:1.0;" d="M184.260 584.820 L184.740 584.820 L184.740 585.300 L184.260 585.300 L184.260 584.820 "/>
  <path style="fill:rgb(0,0,0);stroke:none;stroke-width:1.0;" d="M184.740 584.820 L246.240 584.820 L246.240 585.300 L184.740 585.300 L184.740 584.820 "/>
  <path style="fill:rgb(0,0,0);stroke:none;stroke-width:1.0;" d="M246.240 585.300 L246.720 585.300 L246.720 609.780 L246.240 609.780 L246.240 585.300 "/>
  <path style="fill:rgb(0,0,0);stroke:none;stroke-width:1.0;" d="M246.240 584.820 L246.720 584.820 L246.720 585.300 L246.240 585.300 L246.240 584.820 "/>
  <path style="fill:rgb(0,0,0);stroke:none;stroke-width:1.0;" d="M523.980 585.300 L524.460 585.300 L524.460 609.780 L523.980 609.780 L523.980 585.300 "/>
  <path style="fill:rgb(0,0,0);stroke:none;stroke-width:1.0;" d="M523.980 584.820 L524.460 584.820 L524.460 585.300 L523.980 585.300 L523.980 584.820 "/>
  <path style="fill:rgb(0,0,0);stroke:none;stroke-width:1.0;" d="M523.980 584.820 L524.460 584.820 L524.460 585.300 L523.980 585.300 L523.980 584.820 "/>
  <g begin="text">
   <text y="267.6" x="70.86" svgx:width="0.23" style="fill:rgb(0,0,0);font-family:Calibri;font-size:10.98px;stroke:none;"> </text>
  </g>
 </g>
</svg>
