<?xml version="1.0" encoding="UTF-8" standalone="no"?>
<!DOCTYPE svg PUBLIC "-//W3C//DTD SVG 1.1//EN"
 "http://www.w3.org/Graphics/SVG/1.1/DTD/svg11.dtd">
<!-- Generated by graphviz version 9.0.0 (20230911.1827)
 -->
<!-- Title: amiplugins Pages: 1 -->
<svg width="1153pt" height="279pt"
 viewBox="0.00 0.00 1152.99 278.50" xmlns="http://www.w3.org/2000/svg" xmlns:xlink="http://www.w3.org/1999/xlink">
<g id="graph0" class="graph" transform="scale(1 1) rotate(0) translate(4 274.5)">
<title>amiplugins</title>
<polygon fill="white" stroke="none" points="-4,4 -4,-274.5 1148.99,-274.5 1148.99,4 -4,4"/>
<!-- s.html -->
<g id="node1" class="node">
<title>s.html</title>
<ellipse fill="yellow" stroke="yellow" cx="397.52" cy="-164" rx="64.15" ry="18"/>
<text text-anchor="middle" x="397.52" y="-158.95" font-family="Times,serif" font-size="14.00">semantic.html</text>
</g>
<!-- bow -->
<g id="node9" class="node">
<title>bow</title>
<ellipse fill="cyan" stroke="cyan" cx="58.52" cy="-91" rx="58.52" ry="18"/>
<text text-anchor="middle" x="58.52" y="-85.95" font-family="Times,serif" font-size="14.00">bagOfWords</text>
</g>
<!-- s.html&#45;&gt;bow -->
<g id="edge3" class="edge">
<title>s.html&#45;&gt;bow</title>
<path fill="none" stroke="black" stroke-width="2" d="M344.69,-153.36C289.76,-143.14 201.36,-126.14 125.52,-109 121.47,-108.09 117.3,-107.11 113.11,-106.1"/>
<polygon fill="black" stroke="black" stroke-width="2" points="115.53,-103.09 104.99,-104.12 113.87,-109.89 115.53,-103.09"/>
</g>
<!-- ids -->
<g id="node10" class="node">
<title>ids</title>
<ellipse fill="cyan" stroke="cyan" cx="557.52" cy="-91" rx="48.28" ry="18"/>
<text text-anchor="middle" x="557.52" y="-85.95" font-family="Times,serif" font-size="14.00">identifiers</text>
</g>
<!-- s.html&#45;&gt;ids -->
<g id="edge6" class="edge">
<title>s.html&#45;&gt;ids</title>
<path fill="none" stroke="black" stroke-width="2" d="M430.67,-148.29C455.8,-137.14 490.45,-121.76 517.19,-109.89"/>
<polygon fill="black" stroke="black" stroke-width="2" points="516.89,-113.86 524.61,-106.6 514.05,-107.46 516.89,-113.86"/>
</g>
<!-- gene -->
<g id="node11" class="node">
<title>gene</title>
<ellipse fill="cyan" stroke="cyan" cx="337.52" cy="-91" rx="28.32" ry="18"/>
<text text-anchor="middle" x="337.52" y="-85.95" font-family="Times,serif" font-size="14.00">gene</text>
</g>
<!-- s.html&#45;&gt;gene -->
<g id="edge9" class="edge">
<title>s.html&#45;&gt;gene</title>
<path fill="none" stroke="black" stroke-width="2" d="M383.3,-146.17C375.66,-137.13 366.11,-125.83 357.71,-115.89"/>
<polygon fill="black" stroke="black" stroke-width="2" points="361.49,-114.94 352.36,-109.57 356.14,-119.46 361.49,-114.94"/>
</g>
<!-- regex -->
<g id="node12" class="node">
<title>regex</title>
<ellipse fill="cyan" stroke="cyan" cx="259.52" cy="-91" rx="31.39" ry="18"/>
<text text-anchor="middle" x="259.52" y="-85.95" font-family="Times,serif" font-size="14.00">regex</text>
</g>
<!-- s.html&#45;&gt;regex -->
<g id="edge12" class="edge">
<title>s.html&#45;&gt;regex</title>
<path fill="none" stroke="black" stroke-width="2" d="M367.91,-147.77C345.66,-136.32 315.19,-120.64 292.22,-108.82"/>
<polygon fill="black" stroke="black" stroke-width="2" points="295.43,-106.54 284.94,-105.08 292.23,-112.77 295.43,-106.54"/>
</g>
<!-- species -->
<g id="node14" class="node">
<title>species</title>
<ellipse fill="cyan" stroke="cyan" cx="172.52" cy="-91" rx="37.53" ry="18"/>
<text text-anchor="middle" x="172.52" y="-85.95" font-family="Times,serif" font-size="14.00">species</text>
</g>
<!-- s.html&#45;&gt;species -->
<g id="edge17" class="edge">
<title>s.html&#45;&gt;species</title>
<path fill="none" stroke="black" stroke-width="2" d="M353.79,-150.43C317.63,-139.87 265.03,-124.12 219.52,-109 217.14,-108.21 214.71,-107.38 212.25,-106.54"/>
<polygon fill="black" stroke="black" stroke-width="2" points="214.97,-103.78 204.37,-103.76 212.64,-110.39 214.97,-103.78"/>
</g>
<!-- sequence -->
<g id="node15" class="node">
<title>sequence</title>
<ellipse fill="cyan" stroke="cyan" cx="668.52" cy="-91" rx="44.7" ry="18"/>
<text text-anchor="middle" x="668.52" y="-85.95" font-family="Times,serif" font-size="14.00">sequence</text>
</g>
<!-- s.html&#45;&gt;sequence -->
<g id="edge20" class="edge">
<title>s.html&#45;&gt;sequence</title>
<path fill="none" stroke="black" stroke-width="2" d="M446,-151.83C490.13,-141.45 556.97,-125.2 614.52,-109 617.58,-108.14 620.73,-107.22 623.89,-106.28"/>
<polygon fill="black" stroke="black" stroke-width="2" points="623.18,-110.16 631.72,-103.9 621.14,-103.46 623.18,-110.16"/>
</g>
<!-- compounds -->
<g id="node16" class="node">
<title>compounds</title>
<ellipse fill="cyan" stroke="cyan" cx="437.52" cy="-91" rx="53.91" ry="18"/>
<text text-anchor="middle" x="437.52" y="-85.95" font-family="Times,serif" font-size="14.00">compounds</text>
</g>
<!-- s.html&#45;&gt;compounds -->
<g id="edge22" class="edge">
<title>s.html&#45;&gt;compounds</title>
<path fill="none" stroke="black" d="M407.2,-145.81C411.77,-137.7 417.33,-127.84 422.43,-118.78"/>
<polygon fill="black" stroke="black" points="425.32,-120.78 427.18,-110.35 419.22,-117.34 425.32,-120.78"/>
</g>
<!-- reactions -->
<g id="node17" class="node">
<title>reactions</title>
<ellipse fill="cyan" stroke="cyan" cx="775.52" cy="-91" rx="44.19" ry="18"/>
<text text-anchor="middle" x="775.52" y="-85.95" font-family="Times,serif" font-size="14.00">reactions</text>
</g>
<!-- s.html&#45;&gt;reactions -->
<g id="edge26" class="edge">
<title>s.html&#45;&gt;reactions</title>
<path fill="none" stroke="black" d="M455.56,-155.95C520.98,-147.41 630.24,-131.34 722.52,-109 725.5,-108.28 728.55,-107.48 731.62,-106.62"/>
<polygon fill="black" stroke="black" points="732.6,-109.98 741.2,-103.79 730.62,-103.27 732.6,-109.98"/>
</g>
<!-- txt -->
<g id="node2" class="node">
<title>txt</title>
<ellipse fill="yellow" stroke="yellow" cx="259.52" cy="-164" rx="27" ry="18"/>
<text text-anchor="middle" x="259.52" y="-158.95" font-family="Times,serif" font-size="14.00">text</text>
</g>
<!-- txt&#45;&gt;bow -->
<g id="edge2" class="edge">
<title>txt&#45;&gt;bow</title>
<path fill="none" stroke="black" stroke-width="2" d="M236.07,-154.72C204.48,-143.56 147.51,-123.43 106.61,-108.99"/>
<polygon fill="black" stroke="black" stroke-width="2" points="109.25,-106.21 98.66,-106.18 106.92,-112.81 109.25,-106.21"/>
</g>
<!-- txt&#45;&gt;ids -->
<g id="edge5" class="edge">
<title>txt&#45;&gt;ids</title>
<path fill="none" stroke="black" stroke-width="2" d="M284.14,-156.26C296.26,-153.02 311.12,-149.16 324.52,-146 402.32,-127.66 423.04,-128.66 500.52,-109 503.81,-108.16 507.21,-107.26 510.61,-106.32"/>
<polygon fill="black" stroke="black" stroke-width="2" points="509.88,-110.17 518.55,-104.07 507.97,-103.43 509.88,-110.17"/>
</g>
<!-- txt&#45;&gt;regex -->
<g id="edge11" class="edge">
<title>txt&#45;&gt;regex</title>
<path fill="none" stroke="black" d="M259.52,-145.81C259.52,-138.23 259.52,-129.1 259.52,-120.54"/>
<polygon fill="black" stroke="black" points="263.02,-120.54 259.52,-110.54 256.02,-120.54 263.02,-120.54"/>
</g>
<!-- txt&#45;&gt;species -->
<g id="edge18" class="edge">
<title>txt&#45;&gt;species</title>
<path fill="none" stroke="black" d="M243.15,-149.65C230.96,-139.69 214.03,-125.88 199.8,-114.26"/>
<polygon fill="black" stroke="black" points="202.05,-111.58 192.09,-107.97 197.62,-117.01 202.05,-111.58"/>
</g>
<!-- txt&#45;&gt;compounds -->
<g id="edge23" class="edge">
<title>txt&#45;&gt;compounds</title>
<path fill="none" stroke="black" d="M282.42,-153.86C310.33,-142.73 358.11,-123.67 393.28,-109.64"/>
<polygon fill="black" stroke="black" points="394.36,-112.98 402.35,-106.03 391.76,-106.48 394.36,-112.98"/>
</g>
<!-- png -->
<g id="node3" class="node">
<title>png</title>
<ellipse fill="yellow" stroke="yellow" cx="839.52" cy="-252.5" rx="33.95" ry="18"/>
<text text-anchor="middle" x="839.52" y="-247.45" font-family="Times,serif" font-size="14.00">image</text>
</g>
<!-- svg -->
<g id="node4" class="node">
<title>svg</title>
<ellipse fill="yellow" stroke="yellow" cx="839.52" cy="-164" rx="27" ry="18"/>
<text text-anchor="middle" x="839.52" y="-158.95" font-family="Times,serif" font-size="14.00">svg</text>
</g>
<!-- png&#45;&gt;svg -->
<g id="edge1" class="edge">
<title>png&#45;&gt;svg</title>
<path fill="none" stroke="black" d="M839.52,-234.41C839.52,-222.76 839.52,-207.05 839.52,-193.52"/>
<polygon fill="black" stroke="black" points="843.02,-193.86 839.52,-183.86 836.02,-193.86 843.02,-193.86"/>
<text text-anchor="middle" x="886.77" y="-203.2" font-family="Times,serif" font-size="14.00">diagramAnalyzer</text>
</g>
<!-- svg&#45;&gt;ids -->
<g id="edge7" class="edge">
<title>svg&#45;&gt;ids</title>
<path fill="none" stroke="black" d="M814.1,-157.37C772.29,-148.01 686.48,-128.35 614.52,-109 611.38,-108.16 608.16,-107.27 604.92,-106.35"/>
<polygon fill="black" stroke="black" points="605.95,-103.01 595.38,-103.6 604.01,-109.73 605.95,-103.01"/>
</g>
<!-- chemstruct -->
<g id="node13" class="node">
<title>chemstruct</title>
<ellipse fill="cyan" stroke="cyan" cx="903.52" cy="-91" rx="66.19" ry="18"/>
<text text-anchor="middle" x="903.52" y="-85.95" font-family="Times,serif" font-size="14.00">chem structure</text>
</g>
<!-- svg&#45;&gt;chemstruct -->
<g id="edge15" class="edge">
<title>svg&#45;&gt;chemstruct</title>
<path fill="none" stroke="black" d="M853.09,-147.94C861.17,-138.97 871.64,-127.37 880.94,-117.05"/>
<polygon fill="black" stroke="black" points="883.29,-119.67 887.38,-109.9 878.09,-114.98 883.29,-119.67"/>
</g>
<!-- svg&#45;&gt;reactions -->
<g id="edge27" class="edge">
<title>svg&#45;&gt;reactions</title>
<path fill="none" stroke="black" d="M825.94,-147.94C817.75,-138.85 807.1,-127.04 797.7,-116.61"/>
<polygon fill="black" stroke="black" points="800.49,-114.48 791.2,-109.4 795.29,-119.17 800.49,-114.48"/>
</g>
<!-- phylo -->
<g id="node18" class="node">
<title>phylo</title>
<ellipse fill="cyan" stroke="cyan" cx="1066.52" cy="-91" rx="78.48" ry="18"/>
<text text-anchor="middle" x="1066.52" y="-85.95" font-family="Times,serif" font-size="14.00">phylogenetic trees</text>
</g>
<!-- svg&#45;&gt;phylo -->
<g id="edge29" class="edge">
<title>svg&#45;&gt;phylo</title>
<path fill="none" stroke="black" stroke-width="2" d="M863.81,-155.4C898.54,-144.54 963.38,-124.26 1010.39,-109.55"/>
<polygon fill="black" stroke="black" stroke-width="2" points="1009.94,-113.36 1018.44,-107.04 1007.85,-106.68 1009.94,-113.36"/>
</g>
<!-- summary -->
<g id="node5" class="node">
<title>summary</title>
<ellipse fill="lightgreen" stroke="lightgreen" cx="58.52" cy="-18" rx="46.23" ry="18"/>
<text text-anchor="middle" x="58.52" y="-12.95" font-family="Times,serif" font-size="14.00">summary</text>
</g>
<!-- entityRefs -->
<g id="node6" class="node">
<title>entityRefs</title>
<ellipse fill="lightgreen" stroke="lightgreen" cx="363.52" cy="-18" rx="48.79" ry="18"/>
<text text-anchor="middle" x="363.52" y="-12.95" font-family="Times,serif" font-size="14.00">entityRefs</text>
</g>
<!-- data -->
<g id="node7" class="node">
<title>data</title>
<ellipse fill="lightgreen" stroke="lightgreen" cx="242.52" cy="-18" rx="54.42" ry="18"/>
<text text-anchor="middle" x="242.52" y="-12.95" font-family="Times,serif" font-size="14.00">dataObjects</text>
</g>
<!-- object -->
<g id="node8" class="node">
<title>object</title>
<ellipse fill="lightgreen" stroke="lightgreen" cx="775.52" cy="-18" rx="63.63" ry="18"/>
<text text-anchor="middle" x="775.52" y="-12.95" font-family="Times,serif" font-size="14.00">domainObject</text>
</g>
<!-- bow&#45;&gt;summary -->
<g id="edge4" class="edge">
<title>bow&#45;&gt;summary</title>
<path fill="none" stroke="black" d="M58.52,-72.81C58.52,-65.23 58.52,-56.1 58.52,-47.54"/>
<polygon fill="black" stroke="black" points="62.02,-47.54 58.52,-37.54 55.02,-47.54 62.02,-47.54"/>
</g>
<!-- ids&#45;&gt;entityRefs -->
<g id="edge8" class="edge">
<title>ids&#45;&gt;entityRefs</title>
<path fill="none" stroke="black" d="M524.17,-77.79C492.06,-66.05 443.3,-48.2 407.92,-35.25"/>
<polygon fill="black" stroke="black" points="409.42,-32.07 398.83,-31.92 407.02,-38.65 409.42,-32.07"/>
</g>
<!-- gene&#45;&gt;entityRefs -->
<g id="edge10" class="edge">
<title>gene&#45;&gt;entityRefs</title>
<path fill="none" stroke="black" d="M343.68,-73.17C346.55,-65.33 350.04,-55.79 353.3,-46.91"/>
<polygon fill="black" stroke="black" points="356.55,-48.21 356.7,-37.62 349.97,-45.81 356.55,-48.21"/>
</g>
<!-- regex&#45;&gt;entityRefs -->
<g id="edge13" class="edge">
<title>regex&#45;&gt;entityRefs</title>
<path fill="none" stroke="black" d="M279.08,-76.65C293.97,-66.48 314.78,-52.27 332.01,-40.51"/>
<polygon fill="black" stroke="black" points="333.62,-43.65 339.9,-35.12 329.67,-37.87 333.62,-43.65"/>
</g>
<!-- regex&#45;&gt;data -->
<g id="edge14" class="edge">
<title>regex&#45;&gt;data</title>
<path fill="none" stroke="black" d="M255.4,-72.81C253.54,-65.05 251.3,-55.68 249.21,-46.95"/>
<polygon fill="black" stroke="black" points="252.68,-46.41 246.95,-37.5 245.87,-48.04 252.68,-46.41"/>
</g>
<!-- chemstruct&#45;&gt;object -->
<g id="edge16" class="edge">
<title>chemstruct&#45;&gt;object</title>
<path fill="none" stroke="black" d="M875.43,-74.42C857.25,-64.34 833.37,-51.09 813.51,-40.07"/>
<polygon fill="black" stroke="black" points="815.31,-37.07 804.86,-35.28 811.91,-43.19 815.31,-37.07"/>
</g>
<!-- species&#45;&gt;entityRefs -->
<g id="edge19" class="edge">
<title>species&#45;&gt;entityRefs</title>
<path fill="none" stroke="black" d="M201.53,-79.22C232.83,-67.58 283.06,-48.91 319.29,-35.44"/>
<polygon fill="black" stroke="black" points="320.47,-38.73 328.63,-31.97 318.04,-32.17 320.47,-38.73"/>
</g>
<!-- sequence&#45;&gt;object -->
<g id="edge21" class="edge">
<title>sequence&#45;&gt;object</title>
<path fill="none" stroke="black" d="M690.95,-75.12C705.7,-65.33 725.28,-52.34 741.88,-41.32"/>
<polygon fill="black" stroke="black" points="743.6,-44.38 749.99,-35.94 739.72,-38.55 743.6,-44.38"/>
</g>
<!-- compounds&#45;&gt;entityRefs -->
<g id="edge24" class="edge">
<title>compounds&#45;&gt;entityRefs</title>
<path fill="none" stroke="black" d="M420.35,-73.53C410.85,-64.42 398.88,-52.93 388.37,-42.84"/>
<polygon fill="black" stroke="black" points="391.06,-40.58 381.42,-36.18 386.22,-45.63 391.06,-40.58"/>
</g>
<!-- compounds&#45;&gt;object -->
<g id="edge25" class="edge">
<title>compounds&#45;&gt;object</title>
<path fill="none" stroke="black" d="M477.74,-78.7C485.29,-76.71 493.12,-74.72 500.52,-73 572.23,-56.31 655.25,-40.48 711.15,-30.33"/>
<polygon fill="black" stroke="black" points="711.6,-33.8 720.82,-28.58 710.35,-26.92 711.6,-33.8"/>
</g>
<!-- reactions&#45;&gt;object -->
<g id="edge28" class="edge">
<title>reactions&#45;&gt;object</title>
<path fill="none" stroke="black" d="M775.52,-72.81C775.52,-65.23 775.52,-56.1 775.52,-47.54"/>
<polygon fill="black" stroke="black" points="779.02,-47.54 775.52,-37.54 772.02,-47.54 779.02,-47.54"/>
</g>
<!-- phylo&#45;&gt;object -->
<g id="edge30" class="edge">
<title>phylo&#45;&gt;object</title>
<path fill="none" stroke="black" d="M1014.16,-77.22C963.28,-64.81 886.21,-46.01 833.5,-33.15"/>
<polygon fill="black" stroke="black" points="834.66,-29.83 824.12,-30.86 833,-36.63 834.66,-29.83"/>
</g>
</g>
</svg>
