<?xml version="1.0" encoding="UTF-8"?>
<svg height="812.44" width="578.05" xmlns="http://www.w3.org/2000/svg">
 <g id="page" xmlns:svgx="http://www.xml-cml.org/schema/svgx">
  <g begin="text">
   <text y="46.32" x="72.024,78.162,81.231,86.751,91.587,94.7" svgx:width="0.56,0.28,0.5,0.44,0.28,0.25" style="fill:rgb(0,0,0);font-family:TimesNewRomanPSMT;font-size:11.04px;stroke:none;">Final </text>
  </g>
  <g begin="text">
   <text y="46.32" x="97.464,105.38,110.9,116.42,121.222,124.932,130.452,138.974,143.876,149.396,152.52,155.28,163.086,166.199,170.394,173.508,177.107,180.22,185.74,191.138,194.141,197.255,202.775" svgx:width="0.72,0.5,0.5,0.44,0.33,0.5,0.78,0.44,0.5,0.28,0.25,0.72,0.28,0.39,0.28,0.33,0.28,0.5,0.5,0.28,0.28,0.5,0.5" style="fill:rgb(0,0,0);font-family:TimesNewRomanPSMT;font-size:11.04px;stroke:none;">Government Distribution</text>
  </g>
  <g begin="text">
   <text y="46.32" x="208.37" svgx:width="0.25" style="fill:rgb(0,0,0);font-family:TimesNewRomanPSMT;font-size:11.04px;stroke:none;"> </text>
  </g>
  <g begin="text">
   <text y="46.32" x="211.01" svgx:width="0.25" style="fill:rgb(0,0,0);font-family:TimesNewRomanPSMT;font-size:11.04px;stroke:none;"> </text>
  </g>
  <g begin="text">
   <text y="46.32" x="276.17,283.49,289.009,293.911,299.431,302.556,307.358,311.067,313.827" svgx:width="0.67,0.5,0.44,0.5,0.28,0.44,0.33,0.25,0.5" style="fill:rgb(0,0,0);font-family:TimesNewRomanPSMT;font-size:11.04px;stroke:none;">Chapter 7</text>
  </g>
  <g begin="text">
   <text y="46.32" x="319.27" svgx:width="0.25" style="fill:rgb(0,0,0);font-family:TimesNewRomanPSMT;font-size:11.04px;stroke:none;"> </text>
  </g>
  <g begin="text">
   <text y="46.32" x="443.38,446.979,453.117,460.415,467.734" svgx:width="0.33,0.56,0.67,0.67,0.25" style="fill:rgb(0,0,0);font-family:TimesNewRomanPSMT;font-size:11.04px;stroke:none;">IPCC </text>
  </g>
  <g begin="text">
   <text y="46.32" x="470.5,478.416,485.735,491.255,494.015,504.437,512.408,516.084,519.694" svgx:width="0.72,0.67,0.5,0.25,0.94,0.72,0.33,0.33,0.33" style="fill:rgb(0,0,0);font-family:TimesNewRomanPSMT;font-size:11.04px;stroke:none;">AR6 WGIII</text>
  </g>
  <g begin="text">
   <text y="46.32" x="523.44" svgx:width="0.25" style="fill:rgb(0,0,0);font-family:TimesNewRomanPSMT;font-size:11.04px;stroke:none;"> </text>
  </g>
  <g begin="text">
   <text y="60.24" x="72.024" svgx:width="0.25" style="fill:rgb(0,0,0);font-family:TimesNewRomanPSMT;font-size:11.04px;stroke:none;"> </text>
  </g>
  <g begin="text">
   <text y="760.68" x="72.024" svgx:width="0.25" style="fill:rgb(0,0,0);font-family:TimesNewRomanPSMT;font-size:11.04px;stroke:none;"> </text>
  </g>
  <g begin="text">
   <text y="774.6" x="72.024,79.94,85.46,88.22,96.135,101.655,105.365,108.125,116.04,119.154,122.753,127.655,130.415,133.075,141.708,147.847,153.367,157.043,161.868,164.628,170.148,175.049,177.809,185.78,188.75,192.945,196.655,201.556,204.681,210.819,216.803,220.512" svgx:width="0.72,0.5,0.25,0.72,0.5,0.33,0.25,0.72,0.28,0.33,0.44,0.25,0.25,0.78,0.56,0.5,0.33,0.44,0.25,0.5,0.44,0.25,0.72,0.28,0.39,0.33,0.44,0.28,0.56,0.56,0.33,0.44" style="fill:rgb(0,0,0);font-family:TimesNewRomanPS-BoldMT;font-size:11.04px;stroke:none;">Do Not Cite, Quote or Distribute</text>
  </g>
  <g begin="text">
   <text y="774.6" x="225.41" svgx:width="0.25" style="fill:rgb(0,0,0);font-family:TimesNewRomanPS-BoldMT;font-size:11.04px;stroke:none;"> </text>
  </g>
  <g begin="text">
   <text y="774.6" x="287.59" svgx:width="0.5" style="fill:rgb(0,0,0);font-family:TimesNewRomanPSMT;font-size:11.04px;stroke:none;">7</text>
  </g>
  <g begin="text">
   <text y="774.6" x="293.11" svgx:width="0.33" style="fill:rgb(0,0,0);font-family:TimesNewRomanPSMT;font-size:11.04px;stroke:none;">-</text>
  </g>
  <g begin="text">
   <text y="774.6" x="296.71,302.23" svgx:width="0.5,0.5" style="fill:rgb(0,0,0);font-family:TimesNewRomanPSMT;font-size:11.04px;stroke:none;">45</text>
  </g>
  <g begin="text">
   <text y="774.6" x="307.75" svgx:width="0.25" style="fill:rgb(0,0,0);font-family:TimesNewRomanPSMT;font-size:11.04px;stroke:none;"> </text>
  </g>
  <g begin="text">
   <text y="774.6" x="310.51" svgx:width="0.25" style="fill:rgb(0,0,0);font-family:TimesNewRomanPSMT;font-size:11.04px;stroke:none;"> </text>
  </g>
  <g begin="text">
   <text y="774.6" x="450.1,456.845,462.365,465.435,470.259,473.372,476.132,481.652,486.554,491.975,496.876,501.204,504.207" svgx:width="0.61,0.5,0.28,0.44,0.28,0.25,0.5,0.44,0.5,0.44,0.39,0.28,0.25" style="fill:rgb(0,0,0);font-family:TimesNewRomanPSMT;font-size:11.04px;stroke:none;">Total pages: </text>
  </g>
  <g begin="text">
   <text y="774.6" x="506.98,512.5,518.02" svgx:width="0.5,0.5,0.5" style="fill:rgb(0,0,0);font-family:TimesNewRomanPSMT;font-size:11.04px;stroke:none;">185</text>
  </g>
  <g begin="text">
   <text y="774.6" x="523.44" svgx:width="0.25" style="fill:rgb(0,0,0);font-family:TimesNewRomanPSMT;font-size:9.96px;stroke:none;"> </text>
  </g>
  <g begin="text">
   <text y="788.52" x="297.67" svgx:width="0.25" style="fill:rgb(0,0,0);font-family:TimesNewRomanPSMT;font-size:11.04px;stroke:none;"> </text>
  </g>
  <g begin="text">
   <text y="802.44" x="297.67" svgx:width="0.25" style="fill:rgb(0,0,0);font-family:TimesNewRomanPSMT;font-size:11.04px;stroke:none;"> </text>
  </g>
  <g begin="text">
   <text y="82.1" x="72.984,79.588,86.191,93.502,100.693" svgx:width="0.67,0.67,0.72,0.72,0.56" style="fill:rgb(0,0,0);font-family:TimesNewRomanPS-BoldMT;font-size:9.96px;stroke:none;">BECCS</text>
  </g>
  <g begin="text">
   <text y="82.1" x="106.34" svgx:width="0.25" style="fill:rgb(0,0,0);font-family:TimesNewRomanPS-BoldMT;font-size:9.96px;stroke:none;"> </text>
  </g>
  <g begin="text">
   <text y="94.82" x="72.984,76.331,81.36,86.39,89.159,94.179,96.689,99.458,104.478,108.8,111.31,117.914,125.105,131.718,134.228,138.65,143.7,151.489,156.519,161.548,166.578,171.0,176.05,178.819,181.309,183.839,186.608,189.098" svgx:width="0.33,0.5,0.5,0.28,0.5,0.25,0.28,0.5,0.44,0.25,0.67,0.72,0.67,0.25,0.44,0.5,0.78,0.5,0.5,0.5,0.44,0.5,0.28,0.25,0.25,0.28,0.25,0.44" style="fill:rgb(0,0,0);font-family:TimesNewRomanPSMT;font-size:9.96px;stroke:none;">(only the CDR component, i.e</text>
  </g>
  <g begin="text">
   <text y="94.82" x="193.61" svgx:width="0.25" style="fill:rgb(0,0,0);font-family:TimesNewRomanPSMT;font-size:9.96px;stroke:none;"> </text>
  </g>
  <g begin="text">
   <text y="94.82" x="196.13,198.899,203.919,208.341,210.871,215.901,220.323,225.373,228.141,233.052,238.082,240.85,245.273,249.695,252.464" svgx:width="0.28,0.5,0.44,0.25,0.5,0.44,0.5,0.28,0.5,0.5,0.28,0.44,0.44,0.28,0.25" style="fill:rgb(0,0,0);font-family:TimesNewRomanPSMT;font-size:9.96px;stroke:none;">the geological </text>
  </g>
  <g begin="text">
   <text y="107.42" x="72.984,76.829,79.597,84.617,87.964,92.386,97.436,101.858,104.388,106.898,112.436,117.445,122.475,126.32,129.089,131.858,134.626,139.626,142.395,145.164,150.174,155.204,157.714,162.136,165.502,168.849,173.271,177.723,180.492,184.327,186.837,191.259,194.516,198.938,201.468,205.89,210.342,214.765,219.814,224.844,229.874,232.643,237.065,241.995,244.505,247.274,252.294" svgx:width="0.39,0.28,0.5,0.33,0.44,0.5,0.44,0.25,0.25,0.56,0.5,0.5,0.39,0.28,0.28,0.28,0.5,0.28,0.28,0.5,0.5,0.25,0.44,0.33,0.33,0.44,0.44,0.28,0.39,0.25,0.44,0.33,0.44,0.25,0.44,0.44,0.44,0.5,0.5,0.5,0.28,0.44,0.5,0.25,0.28,0.5,0.25" style="fill:rgb(0,0,0);font-family:TimesNewRomanPSMT;font-size:9.96px;stroke:none;">storage. Substitution effects are accounted in </text>
  </g>
  <g begin="text">
   <text y="120.02" x="72.984,78.014,80.783,85.802,90.225,93.591,96.101,99.946,104.368,108.82,111.589,116.609,119.955,124.378,127.147,129.666,134.089,139.138,143.461,148.491,151.26,155.682,159.038,162.883,165.652,168.142,172.594,177.624,182.046,185.412,190.333,195.253,197.763,200.273,203.042,206.378,210.801,215.85,219.695,224.725,229.754,233.101,235.87" svgx:width="0.5,0.28,0.5,0.44,0.33,0.25,0.39,0.44,0.44,0.28,0.5,0.33,0.44,0.28,0.25,0.44,0.5,0.44,0.5,0.28,0.44,0.33,0.39,0.28,0.25,0.44,0.5,0.44,0.33,0.5,0.5,0.25,0.25,0.28,0.33,0.44,0.5,0.39,0.5,0.5,0.33,0.28,0.33" style="fill:rgb(0,0,0);font-family:TimesNewRomanPSMT;font-size:9.96px;stroke:none;">other sectoral chapters: energy, transport)</text>
  </g>
  <g begin="text">
   <text y="120.02" x="239.33" svgx:width="0.25" style="fill:rgb(0,0,0);font-family:TimesNewRomanPS-BoldMT;font-size:9.96px;stroke:none;"> </text>
  </g>
  <path style="fill:rgb(219,229,241);stroke:none;stroke-width:1.0;" d="M262.850 712.540 L302.710 712.540 L302.710 769.920 L262.850 769.920 L262.850 712.540 "/>
  <path style="fill:rgb(219,229,241);stroke:none;stroke-width:1.0;" d="M262.850 712.540 L302.710 712.540 L302.710 769.200 L262.850 769.200 L262.850 712.540 M263.570 731.500 L301.990 731.500 L301.990 750.220 L263.570 750.220 L263.570 731.500 "/>
  <g begin="text">
   <text y="101.06" x="263.57,266.917,274.108" svgx:width="0.33,0.72,0.89" style="fill:rgb(0,0,0);font-family:TimesNewRomanPSMT;font-size:9.96px;stroke:none;">IAM</text>
  </g>
  <g begin="text">
   <text y="101.06" x="283.03" svgx:width="0.25" style="fill:rgb(0,0,0);font-family:TimesNewRomanPSMT;font-size:9.96px;stroke:none;"> </text>
  </g>
  <path style="fill:rgb(219,229,241);stroke:none;stroke-width:1.0;" d="M262.850 712.540 L302.710 712.540 L302.710 769.200 L262.850 769.200 L262.850 712.540 M262.850 712.540 L302.710 712.540 L302.710 769.200 L262.850 769.200 L262.850 712.540 M302.950 712.540 L367.270 712.540 L367.270 769.920 L302.950 769.920 L302.950 712.540 "/>
  <path style="fill:rgb(219,229,241);stroke:none;stroke-width:1.0;" d="M302.950 712.540 L367.270 712.540 L367.270 769.200 L302.950 769.200 L302.950 712.540 M303.430 731.500 L366.790 731.500 L366.790 750.220 L303.430 750.220 L303.430 731.500 "/>
  <g begin="text">
   <text y="101.06" x="308.83,313.86,316.37,321.4,326.429,328.83,332.176,337.206" svgx:width="0.5,0.25,0.5,0.5,0.25,0.33,0.5,0.25" style="fill:rgb(0,0,0);font-family:TimesNewRomanPSMT;font-size:9.96px;stroke:none;">0.08 (0 </text>
  </g>
  <g begin="text">
   <text y="101.06" x="339.79" svgx:width="0.33" style="fill:rgb(0,0,0);font-family:TimesNewRomanPSMT;font-size:9.96px;stroke:none;">-</text>
  </g>
  <g begin="text">
   <text y="101.06" x="343.15" svgx:width="0.25" style="fill:rgb(0,0,0);font-family:TimesNewRomanPSMT;font-size:9.96px;stroke:none;"> </text>
  </g>
  <g begin="text">
   <text y="101.06" x="345.55,350.58,353.09,358.01" svgx:width="0.5,0.25,0.5,0.33" style="fill:rgb(0,0,0);font-family:TimesNewRomanPSMT;font-size:9.96px;stroke:none;">0.7)</text>
  </g>
  <g begin="text">
   <text y="101.06" x="361.27" svgx:width="0.25" style="fill:rgb(0,0,0);font-family:TimesNewRomanPSMT;font-size:9.96px;stroke:none;"> </text>
  </g>
  <path style="fill:rgb(219,229,241);stroke:none;stroke-width:1.0;" d="M302.950 712.540 L367.270 712.540 L367.270 769.200 L302.950 769.200 L302.950 712.540 M302.950 712.540 L367.270 712.540 L367.270 769.200 L302.950 769.200 L302.950 712.540 M302.950 712.540 L367.270 712.540 L367.270 769.200 L302.950 769.200 L302.950 712.540 M302.950 712.540 L367.270 712.540 L367.270 769.200 L302.950 769.200 L302.950 712.540 M302.950 712.540 L367.270 712.540 L367.270 769.200 L302.950 769.200 L302.950 712.540 M367.630 712.540 L432.330 712.540 L432.330 769.920 L367.630 769.920 L367.630 712.540 "/>
  <path style="fill:rgb(219,229,241);stroke:none;stroke-width:1.0;" d="M367.630 712.540 L432.330 712.540 L432.330 769.200 L367.630 769.200 L367.630 712.540 M368.350 731.500 L431.730 731.500 L431.730 750.220 L368.350 750.220 L368.350 731.500 "/>
  <g begin="text">
   <text y="101.06" x="379.99,385.02,387.53,392.56,395.069,398.306,403.336" svgx:width="0.5,0.25,0.5,0.25,0.33,0.5,0.25" style="fill:rgb(0,0,0);font-family:TimesNewRomanPSMT;font-size:9.96px;stroke:none;">0.5 (0 </text>
  </g>
  <g begin="text">
   <text y="101.06" x="405.94" svgx:width="0.33" style="fill:rgb(0,0,0);font-family:TimesNewRomanPSMT;font-size:9.96px;stroke:none;">-</text>
  </g>
  <g begin="text">
   <text y="101.06" x="409.3" svgx:width="0.25" style="fill:rgb(0,0,0);font-family:TimesNewRomanPSMT;font-size:9.96px;stroke:none;"> </text>
  </g>
  <g begin="text">
   <text y="101.06" x="411.82,416.74,420.087" svgx:width="0.5,0.33,0.25" style="fill:rgb(0,0,0);font-family:TimesNewRomanPSMT;font-size:9.96px;stroke:none;">6) </text>
  </g>
  <g begin="text">
   <text y="101.06" x="422.5" svgx:width="0.25" style="fill:rgb(0,0,0);font-family:TimesNewRomanPSMT;font-size:9.96px;stroke:none;"> </text>
  </g>
  <path style="fill:rgb(219,229,241);stroke:none;stroke-width:1.0;" d="M367.630 712.540 L432.330 712.540 L432.330 769.200 L367.630 769.200 L367.630 712.540 M367.630 712.540 L432.330 712.540 L432.330 769.200 L367.630 769.200 L367.630 712.540 M367.630 712.540 L432.330 712.540 L432.330 769.200 L367.630 769.200 L367.630 712.540 M367.630 712.540 L432.330 712.540 L432.330 769.200 L367.630 769.200 L367.630 712.540 M367.630 712.540 L432.330 712.540 L432.330 769.200 L367.630 769.200 L367.630 712.540 M432.580 712.540 L498.820 712.540 L498.820 769.920 L432.580 769.920 L432.580 712.540 "/>
  <path style="fill:rgb(219,229,241);stroke:none;stroke-width:1.0;" d="M432.580 712.540 L498.820 712.540 L498.820 769.200 L432.580 769.200 L432.580 712.540 M433.300 731.500 L498.340 731.500 L498.340 750.220 L433.300 750.220 L433.300 731.500 "/>
  <g begin="text">
   <text y="101.06" x="438.34,443.37,445.88,450.91,453.419,456.656,461.686,464.196,469.226" svgx:width="0.5,0.25,0.5,0.25,0.33,0.5,0.25,0.5,0.25" style="fill:rgb(0,0,0);font-family:TimesNewRomanPSMT;font-size:9.96px;stroke:none;">1.8 (0.2 </text>
  </g>
  <g begin="text">
   <text y="101.06" x="471.82" svgx:width="0.33" style="fill:rgb(0,0,0);font-family:TimesNewRomanPSMT;font-size:9.96px;stroke:none;">-</text>
  </g>
  <g begin="text">
   <text y="101.06" x="475.06" svgx:width="0.25" style="fill:rgb(0,0,0);font-family:TimesNewRomanPSMT;font-size:9.96px;stroke:none;"> </text>
  </g>
  <g begin="text">
   <text y="101.06" x="477.58,482.61,485.12,490.04" svgx:width="0.5,0.25,0.5,0.33" style="fill:rgb(0,0,0);font-family:TimesNewRomanPSMT;font-size:9.96px;stroke:none;">9.9)</text>
  </g>
  <g begin="text">
   <text y="101.06" x="493.3" svgx:width="0.25" style="fill:rgb(0,0,0);font-family:TimesNewRomanPSMT;font-size:9.96px;stroke:none;"> </text>
  </g>
  <path style="fill:rgb(219,229,241);stroke:none;stroke-width:1.0;" d="M432.580 712.540 L498.820 712.540 L498.820 769.200 L432.580 769.200 L432.580 712.540 M432.580 712.540 L498.820 712.540 L498.820 769.200 L432.580 769.200 L432.580 712.540 M432.580 712.540 L498.820 712.540 L498.820 769.200 L432.580 769.200 L432.580 712.540 M432.580 712.540 L498.820 712.540 L498.820 769.200 L432.580 769.200 L432.580 712.540 M432.580 712.540 L498.820 712.540 L498.820 769.200 L432.580 769.200 L432.580 712.540 M499.060 712.540 L565.320 712.540 L565.320 769.920 L499.060 769.920 L499.060 712.540 "/>
  <path style="fill:rgb(219,229,241);stroke:none;stroke-width:1.0;" d="M499.060 712.540 L565.320 712.540 L565.320 769.200 L499.060 769.200 L499.060 712.540 M499.780 731.500 L564.840 731.500 L564.840 750.220 L499.780 750.220 L499.780 731.500 "/>
  <g begin="text">
   <text y="101.06" x="525.12,532.32" svgx:width="0.72,0.72" style="fill:rgb(0,0,0);font-family:TimesNewRomanPSMT;font-size:9.96px;stroke:none;">ND</text>
  </g>
  <g begin="text">
   <text y="101.06" x="539.52" svgx:width="0.25" style="fill:rgb(0,0,0);font-family:TimesNewRomanPSMT;font-size:9.96px;stroke:none;"> </text>
  </g>
  <g begin="text">
   <text y="101.06" x="565.56" svgx:width="0.25" style="fill:rgb(0,0,0);font-family:TimesNewRomanPSMT;font-size:9.96px;stroke:none;"> </text>
  </g>
  <path style="fill:rgb(219,229,241);stroke:none;stroke-width:1.0;" d="M499.060 712.540 L565.320 712.540 L565.320 769.200 L499.060 769.200 L499.060 712.540 M499.060 712.540 L565.320 712.540 L565.320 769.200 L499.060 769.200 L499.060 712.540 M565.560 712.540 L567.120 712.540 L567.120 769.200 L565.560 769.200 L565.560 712.540 M565.560 712.540 L567.120 712.540 L567.120 769.200 L565.560 769.200 L565.560 712.540 "/>
  <path style="fill:rgb(0,0,0);stroke:none;stroke-width:1.0;" d="M262.610 769.200 L263.090 769.200 L263.090 769.920 L262.610 769.920 L262.610 769.200 "/>
  <path style="fill:rgb(219,229,241);stroke:none;stroke-width:1.0;" d="M262.610 769.200 L302.470 769.200 L302.470 769.920 L262.610 769.920 L262.610 769.200 "/>
  <path style="fill:rgb(0,0,0);stroke:none;stroke-width:1.0;" d="M302.470 769.200 L302.950 769.200 L302.950 769.920 L302.470 769.920 L302.470 769.200 "/>
  <path style="fill:rgb(219,229,241);stroke:none;stroke-width:1.0;" d="M302.470 769.200 L367.390 769.200 L367.390 769.920 L302.470 769.920 L302.470 769.200 "/>
  <path style="fill:rgb(0,0,0);stroke:none;stroke-width:1.0;" d="M367.390 769.200 L367.870 769.200 L367.870 769.920 L367.390 769.920 L367.390 769.200 "/>
  <path style="fill:rgb(219,229,241);stroke:none;stroke-width:1.0;" d="M367.390 769.200 L432.330 769.200 L432.330 769.920 L367.390 769.920 L367.390 769.200 "/>
  <path style="fill:rgb(0,0,0);stroke:none;stroke-width:1.0;" d="M432.340 769.200 L432.820 769.200 L432.820 769.920 L432.340 769.920 L432.340 769.200 "/>
  <path style="fill:rgb(219,229,241);stroke:none;stroke-width:1.0;" d="M432.340 769.200 L498.820 769.200 L498.820 769.920 L432.340 769.920 L432.340 769.200 "/>
  <path style="fill:rgb(0,0,0);stroke:none;stroke-width:1.0;" d="M498.820 769.200 L499.300 769.200 L499.300 769.920 L498.820 769.920 L498.820 769.200 "/>
  <path style="fill:rgb(219,229,241);stroke:none;stroke-width:1.0;" d="M498.820 769.200 L565.320 769.200 L565.320 769.920 L498.820 769.920 L498.820 769.200 "/>
  <path style="fill:rgb(0,0,0);stroke:none;stroke-width:1.0;" d="M565.320 769.200 L565.800 769.200 L565.800 769.920 L565.320 769.920 L565.320 769.200 "/>
  <path style="fill:rgb(0,0,0);stroke:none;stroke-width:1.0;" d="M72.020 712.540 L72.500 712.540 L72.500 769.200 L72.020 769.200 L72.020 712.540 "/>
  <path style="fill:rgb(0,0,0);stroke:none;stroke-width:1.0;" d="M262.610 712.540 L263.090 712.540 L263.090 769.200 L262.610 769.200 L262.610 712.540 "/>
  <path style="fill:rgb(0,0,0);stroke:none;stroke-width:1.0;" d="M302.470 712.540 L302.950 712.540 L302.950 769.200 L302.470 769.200 L302.470 712.540 "/>
  <path style="fill:rgb(0,0,0);stroke:none;stroke-width:1.0;" d="M367.390 712.540 L367.870 712.540 L367.870 769.200 L367.390 769.200 L367.390 712.540 "/>
  <path style="fill:rgb(0,0,0);stroke:none;stroke-width:1.0;" d="M432.340 712.540 L432.820 712.540 L432.820 769.200 L432.340 769.200 L432.340 712.540 "/>
  <path style="fill:rgb(0,0,0);stroke:none;stroke-width:1.0;" d="M498.820 712.540 L499.300 712.540 L499.300 769.200 L498.820 769.200 L498.820 712.540 "/>
  <path style="fill:rgb(0,0,0);stroke:none;stroke-width:1.0;" d="M565.320 712.540 L565.800 712.540 L565.800 769.200 L565.320 769.200 L565.320 712.540 "/>
  <g begin="text">
   <text y="140.18" x="72.984,79.588,82.356,87.376,91.798,97.336,101.758,106.211,111.24,116.27,118.78,122.127,126.549,131.599,139.985,142.495,146.917,151.369,155.214,157.983,163.52,169.018,173.441" svgx:width="0.67,0.28,0.5,0.44,0.56,0.44,0.44,0.5,0.5,0.25,0.33,0.44,0.5,0.83,0.25,0.44,0.44,0.39,0.28,0.56,0.56,0.44,0.39" style="fill:rgb(0,0,0);font-family:TimesNewRomanPS-BoldMT;font-size:9.96px;stroke:none;">Bioenergy from residues</text>
  </g>
  <g begin="text">
   <text y="140.18" x="177.41" svgx:width="0.25" style="fill:rgb(0,0,0);font-family:TimesNewRomanPS-BoldMT;font-size:9.96px;stroke:none;"> </text>
  </g>
  <g begin="text">
   <text y="140.18" x="263.57,269.108,273.53,277.952,280.721,285.761,289.107,293.53" svgx:width="0.56,0.44,0.44,0.28,0.5,0.33,0.44,0.28" style="fill:rgb(0,0,0);font-family:TimesNewRomanPSMT;font-size:9.96px;stroke:none;">Sectoral</text>
  </g>
  <g begin="text">
   <text y="140.18" x="296.35" svgx:width="0.25" style="fill:rgb(0,0,0);font-family:TimesNewRomanPSMT;font-size:9.96px;stroke:none;"> </text>
  </g>
  <g begin="text">
   <text y="140.18" x="327.91,335.11" svgx:width="0.72,0.72" style="fill:rgb(0,0,0);font-family:TimesNewRomanPSMT;font-size:9.96px;stroke:none;">ND</text>
  </g>
  <g begin="text">
   <text y="140.18" x="342.31" svgx:width="0.25" style="fill:rgb(0,0,0);font-family:TimesNewRomanPSMT;font-size:9.96px;stroke:none;"> </text>
  </g>
  <g begin="text">
   <text y="140.18" x="392.83,400.03" svgx:width="0.72,0.72" style="fill:rgb(0,0,0);font-family:TimesNewRomanPSMT;font-size:9.96px;stroke:none;">ND</text>
  </g>
  <g begin="text">
   <text y="140.18" x="407.26" svgx:width="0.25" style="fill:rgb(0,0,0);font-family:TimesNewRomanPSMT;font-size:9.96px;stroke:none;"> </text>
  </g>
  <g begin="text">
   <text y="140.18" x="458.62,465.82" svgx:width="0.72,0.72" style="fill:rgb(0,0,0);font-family:TimesNewRomanPSMT;font-size:9.96px;stroke:none;">ND</text>
  </g>
  <g begin="text">
   <text y="140.18" x="473.02" svgx:width="0.25" style="fill:rgb(0,0,0);font-family:TimesNewRomanPSMT;font-size:9.96px;stroke:none;"> </text>
  </g>
  <g begin="text">
   <text y="140.18" x="500.38,507.571,512.611,515.121,517.89,522.909,525.419,530.449,535.479,537.879,543.985,547.829,550.339,555.369" svgx:width="0.72,0.5,0.25,0.28,0.5,0.25,0.5,0.5,0.25,0.61,0.39,0.25,0.5,0.33" style="fill:rgb(0,0,0);font-family:TimesNewRomanPSMT;font-size:9.96px;stroke:none;">Up to 57 EJ yr</text>
  </g>
  <g begin="text">
   <text y="136.7" x="558.84" svgx:width="0.33" style="fill:rgb(0,0,0);font-family:TimesNewRomanPSMT;font-size:6.48px;stroke:none;">-</text>
  </g>
  <g begin="text">
   <text y="136.7" x="561.0" svgx:width="0.5" style="fill:rgb(0,0,0);font-family:TimesNewRomanPSMT;font-size:6.48px;stroke:none;">1</text>
  </g>
  <g begin="text">
   <text y="140.18" x="564.12" svgx:width="0.25" style="fill:rgb(0,0,0);font-family:TimesNewRomanPSMT;font-size:9.96px;stroke:none;"> </text>
  </g>
  <g begin="text">
   <text y="140.06" x="565.56" svgx:width="0.25" style="fill:rgb(0,0,0);font-family:TimesNewRomanPSMT;font-size:9.96px;stroke:none;"> </text>
  </g>
  <path style="fill:rgb(0,0,0);stroke:none;stroke-width:1.0;" d="M262.850 691.780 L302.710 691.780 L302.710 711.820 L262.850 711.820 L262.850 691.780 M262.850 691.780 L302.710 691.780 L302.710 711.820 L262.850 711.820 L262.850 691.780 M262.850 691.780 L302.710 691.780 L302.710 711.820 L262.850 711.820 L262.850 691.780 M302.950 691.780 L367.270 691.780 L367.270 711.820 L302.950 711.820 L302.950 691.780 M302.950 691.780 L367.270 691.780 L367.270 711.820 L302.950 711.820 L302.950 691.780 M302.950 691.780 L367.270 691.780 L367.270 711.820 L302.950 711.820 L302.950 691.780 M367.630 691.780 L432.330 691.780 L432.330 711.820 L367.630 711.820 L367.630 691.780 M367.630 691.780 L432.330 691.780 L432.330 711.820 L367.630 711.820 L367.630 691.780 M367.630 691.780 L432.330 691.780 L432.330 711.820 L367.630 711.820 L367.630 691.780 M432.580 691.780 L498.820 691.780 L498.820 711.820 L432.580 711.820 L432.580 691.780 M432.580 691.780 L498.820 691.780 L498.820 711.820 L432.580 711.820 L432.580 691.780 M432.580 691.780 L498.820 691.780 L498.820 711.820 L432.580 711.820 L432.580 691.780 M499.060 691.780 L565.320 691.780 L565.320 711.820 L499.060 711.820 L499.060 691.780 M499.060 691.780 L565.320 691.780 L565.320 711.820 L499.060 711.820 L499.060 691.780 M499.060 691.780 L565.320 691.780 L565.320 711.820 L499.060 711.820 L499.060 691.780 M499.060 691.780 L565.320 691.780 L565.320 711.820 L499.060 711.820 L499.060 691.780 M499.060 691.780 L565.320 691.780 L565.320 711.820 L499.060 711.820 L499.060 691.780 M565.560 691.780 L567.120 691.780 L567.120 711.820 L565.560 711.820 L565.560 691.780 M565.560 691.780 L567.120 691.780 L567.120 711.820 L565.560 711.820 L565.560 691.780 M72.020 711.820 L72.500 711.820 L72.500 712.540 L72.020 712.540 L72.020 711.820 "/>
  <path style="fill:rgb(0,0,0);stroke:none;stroke-width:1.0;" d="M262.610 711.820 L263.090 711.820 L263.090 712.540 L262.610 712.540 L262.610 711.820 "/>
  <path style="fill:rgb(0,0,0);stroke:none;stroke-width:1.0;" d="M263.090 712.060 L302.470 712.060 L302.470 712.540 L263.090 712.540 L263.090 712.060 "/>
  <path style="fill:rgb(0,0,0);stroke:none;stroke-width:1.0;" d="M302.470 711.820 L302.950 711.820 L302.950 712.540 L302.470 712.540 L302.470 711.820 "/>
  <path style="fill:rgb(0,0,0);stroke:none;stroke-width:1.0;" d="M302.950 712.060 L367.390 712.060 L367.390 712.540 L302.950 712.540 L302.950 712.060 "/>
  <path style="fill:rgb(0,0,0);stroke:none;stroke-width:1.0;" d="M367.390 711.820 L367.870 711.820 L367.870 712.540 L367.390 712.540 L367.390 711.820 "/>
  <path style="fill:rgb(0,0,0);stroke:none;stroke-width:1.0;" d="M367.870 712.060 L432.330 712.060 L432.330 712.540 L367.870 712.540 L367.870 712.060 "/>
  <path style="fill:rgb(0,0,0);stroke:none;stroke-width:1.0;" d="M432.340 711.820 L432.820 711.820 L432.820 712.540 L432.340 712.540 L432.340 711.820 "/>
  <path style="fill:rgb(0,0,0);stroke:none;stroke-width:1.0;" d="M432.820 712.060 L498.820 712.060 L498.820 712.540 L432.820 712.540 L432.820 712.060 "/>
  <path style="fill:rgb(0,0,0);stroke:none;stroke-width:1.0;" d="M498.820 711.820 L499.300 711.820 L499.300 712.540 L498.820 712.540 L498.820 711.820 "/>
  <path style="fill:rgb(0,0,0);stroke:none;stroke-width:1.0;" d="M499.300 712.060 L565.320 712.060 L565.320 712.540 L499.300 712.540 L499.300 712.060 "/>
  <path style="fill:rgb(0,0,0);stroke:none;stroke-width:1.0;" d="M565.320 711.820 L565.800 711.820 L565.800 712.540 L565.320 712.540 L565.320 711.820 "/>
  <path style="fill:rgb(0,0,0);stroke:none;stroke-width:1.0;" d="M72.020 691.780 L72.500 691.780 L72.500 711.820 L72.020 711.820 L72.020 691.780 "/>
  <path style="fill:rgb(0,0,0);stroke:none;stroke-width:1.0;" d="M262.610 691.780 L263.090 691.780 L263.090 711.820 L262.610 711.820 L262.610 691.780 "/>
  <path style="fill:rgb(0,0,0);stroke:none;stroke-width:1.0;" d="M302.470 691.780 L302.950 691.780 L302.950 711.820 L302.470 711.820 L302.470 691.780 "/>
  <path style="fill:rgb(0,0,0);stroke:none;stroke-width:1.0;" d="M367.390 691.780 L367.870 691.780 L367.870 711.820 L367.390 711.820 L367.390 691.780 "/>
  <path style="fill:rgb(0,0,0);stroke:none;stroke-width:1.0;" d="M432.340 691.780 L432.820 691.780 L432.820 711.820 L432.340 711.820 L432.340 691.780 "/>
  <path style="fill:rgb(0,0,0);stroke:none;stroke-width:1.0;" d="M498.820 691.780 L499.300 691.780 L499.300 711.820 L498.820 711.820 L498.820 691.780 "/>
  <path style="fill:rgb(0,0,0);stroke:none;stroke-width:1.0;" d="M565.320 691.780 L565.800 691.780 L565.800 711.820 L565.320 711.820 L565.320 691.780 "/>
  <g begin="text">
   <text y="160.22" x="72.984,79.588,87.376,93.98,101.29,107.894,110.404,117.595,123.71,131.499,138.102,145.294" svgx:width="0.67,0.78,0.67,0.72,0.67,0.25,0.72,0.61,0.78,0.67,0.72,0.25" style="fill:rgb(0,0,0);font-family:TimesNewRomanPS-BoldMT;font-size:9.96px;stroke:none;">TOTAL AFOLU </text>
  </g>
  <g begin="text">
   <text y="160.22" x="147.98" svgx:width="0.25" style="fill:rgb(0,0,0);font-family:TimesNewRomanPS-BoldMT;font-size:9.96px;stroke:none;"> </text>
  </g>
  <g begin="text">
   <text y="172.82" x="72.984,76.331,80.753,85.803,89.149,91.918,96.34,101.38,104.149,106.918,111.928,115.274,119.696,122.117,124.627,127.973,133.003,136.35,140.772,144.646,147.415,151.23,153.74,161.528,164.038,169.068,171.837,176.857,181.179,184.526,187.036,191.359,195.781,200.831,204.675,209.705,213.55,216.318,220.741,228.539,232.384,234.894" svgx:width="0.33,0.44,0.5,0.33,0.28,0.44,0.5,0.28,0.28,0.5,0.33,0.44,0.25,0.25,0.33,0.5,0.33,0.44,0.39,0.28,0.39,0.25,0.78,0.25,0.5,0.28,0.5,0.44,0.33,0.25,0.44,0.44,0.5,0.39,0.5,0.39,0.28,0.44,0.78,0.39,0.25,0.25" style="fill:rgb(0,0,0);font-family:TimesNewRomanPSMT;font-size:9.96px;stroke:none;">(agriculture, forests &amp; other ecosystems, </text>
  </g>
  <g begin="text">
   <text y="185.54" x="72.984,78.014,80.783,85.802,90.225,93.591,96.36,100.782,105.822,108.332,112.754,117.694,120.204,125.234,128.471,133.501,138.531,143.561,147.983,150.752,153.521,158.441,163.471,165.981,169.327,172.564,177.594,185.383,187.892,192.813,197.235,205.044,209.466,214.516" svgx:width="0.5,0.28,0.5,0.44,0.33,0.28,0.44,0.5,0.25,0.44,0.5,0.25,0.5,0.33,0.5,0.5,0.5,0.44,0.28,0.28,0.5,0.5,0.25,0.33,0.33,0.5,0.78,0.25,0.5,0.44,0.78,0.44,0.5,0.5" style="fill:rgb(0,0,0);font-family:TimesNewRomanPSMT;font-size:9.96px;stroke:none;">diverted ag production from demand</text>
  </g>
  <g begin="text">
   <text y="185.54" x="219.77" svgx:width="0.33" style="fill:rgb(0,0,0);font-family:TimesNewRomanPSMT;font-size:9.96px;stroke:none;">-</text>
  </g>
  <g begin="text">
   <text y="185.54" x="223.13,226.975,229.743,234.763,239.186" svgx:width="0.39,0.28,0.5,0.44,0.33" style="fill:rgb(0,0,0);font-family:TimesNewRomanPSMT;font-size:9.96px;stroke:none;">side)</text>
  </g>
  <g begin="text">
   <text y="185.54" x="242.45" svgx:width="0.25" style="fill:rgb(0,0,0);font-family:TimesNewRomanPS-BoldMT;font-size:9.96px;stroke:none;"> </text>
  </g>
  <path style="fill:rgb(219,219,219);stroke:none;stroke-width:1.0;" d="M262.850 647.140 L302.710 647.140 L302.710 691.780 L262.850 691.780 L262.850 647.140 "/>
  <path style="fill:rgb(219,219,219);stroke:none;stroke-width:1.0;" d="M262.850 647.140 L302.710 647.140 L302.710 691.060 L262.850 691.060 L262.850 647.140 M263.570 659.740 L301.990 659.740 L301.990 678.460 L263.570 678.460 L263.570 659.740 "/>
  <g begin="text">
   <text y="172.82" x="263.57,269.108,273.53,277.952,280.721,285.761,289.107,293.53" svgx:width="0.56,0.44,0.44,0.28,0.5,0.33,0.44,0.28" style="fill:rgb(0,0,0);font-family:TimesNewRomanPSMT;font-size:9.96px;stroke:none;">Sectoral</text>
  </g>
  <g begin="text">
   <text y="172.82" x="296.35" svgx:width="0.25" style="fill:rgb(0,0,0);font-family:TimesNewRomanPSMT;font-size:9.96px;stroke:none;"> </text>
  </g>
  <path style="fill:rgb(219,219,219);stroke:none;stroke-width:1.0;" d="M262.850 647.140 L302.710 647.140 L302.710 691.060 L262.850 691.060 L262.850 647.140 M262.850 647.140 L302.710 647.140 L302.710 691.060 L262.850 691.060 L262.850 647.140 M302.950 647.140 L367.270 647.140 L367.270 691.780 L302.950 691.780 L302.950 647.140 "/>
  <path style="fill:rgb(219,219,219);stroke:none;stroke-width:1.0;" d="M302.950 647.140 L367.270 647.140 L367.270 691.060 L302.950 691.060 L302.950 647.140 M303.430 659.740 L366.790 659.740 L366.790 678.460 L303.430 678.460 L303.430 659.740 "/>
  <g begin="text">
   <text y="172.82" x="307.63,312.66,315.17,320.2,322.709,325.947,330.976,333.486,338.516" svgx:width="0.5,0.25,0.5,0.25,0.33,0.5,0.25,0.5,0.25" style="fill:rgb(0,0,0);font-family:TimesNewRomanPSMT;font-size:9.96px;stroke:none;">3.8 (2.7 </text>
  </g>
  <g begin="text">
   <text y="172.82" x="341.11" svgx:width="0.33" style="fill:rgb(0,0,0);font-family:TimesNewRomanPSMT;font-size:9.96px;stroke:none;">-</text>
  </g>
  <g begin="text">
   <text y="172.82" x="344.35" svgx:width="0.25" style="fill:rgb(0,0,0);font-family:TimesNewRomanPSMT;font-size:9.96px;stroke:none;"> </text>
  </g>
  <g begin="text">
   <text y="172.82" x="346.87,351.9,354.41,359.33" svgx:width="0.5,0.25,0.5,0.33" style="fill:rgb(0,0,0);font-family:TimesNewRomanPSMT;font-size:9.96px;stroke:none;">4.9)</text>
  </g>
  <g begin="text">
   <text y="172.82" x="362.59" svgx:width="0.25" style="fill:rgb(0,0,0);font-family:TimesNewRomanPSMT;font-size:9.96px;stroke:none;"> </text>
  </g>
  <path style="fill:rgb(219,219,219);stroke:none;stroke-width:1.0;" d="M302.950 647.140 L367.270 647.140 L367.270 691.060 L302.950 691.060 L302.950 647.140 M302.950 647.140 L367.270 647.140 L367.270 691.060 L302.950 691.060 L302.950 647.140 M302.950 647.140 L367.270 647.140 L367.270 691.060 L302.950 691.060 L302.950 647.140 M302.950 647.140 L367.270 647.140 L367.270 691.060 L302.950 691.060 L302.950 647.140 M302.950 647.140 L367.270 647.140 L367.270 691.060 L302.950 691.060 L302.950 647.140 M367.630 647.140 L432.330 647.140 L432.330 691.780 L367.630 691.780 L367.630 647.140 "/>
  <path style="fill:rgb(219,219,219);stroke:none;stroke-width:1.0;" d="M367.630 647.140 L432.330 647.140 L432.330 691.060 L367.630 691.060 L367.630 647.140 M368.350 659.740 L431.730 659.740 L431.730 678.460 L368.350 678.460 L368.350 659.740 "/>
  <g begin="text">
   <text y="172.82" x="372.55,377.58,380.09,385.12,387.629,390.866,395.896,398.406,403.436" svgx:width="0.5,0.25,0.5,0.25,0.33,0.5,0.25,0.5,0.25" style="fill:rgb(0,0,0);font-family:TimesNewRomanPSMT;font-size:9.96px;stroke:none;">4.3 (2.3 </text>
  </g>
  <g begin="text">
   <text y="172.82" x="406.06" svgx:width="0.33" style="fill:rgb(0,0,0);font-family:TimesNewRomanPSMT;font-size:9.96px;stroke:none;">-</text>
  </g>
  <g begin="text">
   <text y="172.82" x="409.3" svgx:width="0.25" style="fill:rgb(0,0,0);font-family:TimesNewRomanPSMT;font-size:9.96px;stroke:none;"> </text>
  </g>
  <g begin="text">
   <text y="172.82" x="411.82,416.85,419.36,424.28" svgx:width="0.5,0.25,0.5,0.33" style="fill:rgb(0,0,0);font-family:TimesNewRomanPSMT;font-size:9.96px;stroke:none;">6.7)</text>
  </g>
  <g begin="text">
   <text y="172.82" x="427.54" svgx:width="0.25" style="fill:rgb(0,0,0);font-family:TimesNewRomanPSMT;font-size:9.96px;stroke:none;"> </text>
  </g>
  <path style="fill:rgb(219,219,219);stroke:none;stroke-width:1.0;" d="M367.630 647.140 L432.330 647.140 L432.330 691.060 L367.630 691.060 L367.630 647.140 M367.630 647.140 L432.330 647.140 L432.330 691.060 L367.630 691.060 L367.630 647.140 M367.630 647.140 L432.330 647.140 L432.330 691.060 L367.630 691.060 L367.630 647.140 M367.630 647.140 L432.330 647.140 L432.330 691.060 L367.630 691.060 L367.630 647.140 M367.630 647.140 L432.330 647.140 L432.330 691.060 L367.630 691.060 L367.630 647.140 M432.580 647.140 L498.820 647.140 L498.820 691.780 L432.580 691.780 L432.580 647.140 "/>
  <path style="fill:rgb(219,219,219);stroke:none;stroke-width:1.0;" d="M432.580 647.140 L498.820 647.140 L498.820 691.060 L432.580 691.060 L432.580 647.140 M433.300 659.740 L498.340 659.740 L498.340 678.460 L433.300 678.460 L433.300 659.740 "/>
  <g begin="text">
   <text y="172.82" x="433.3,438.33,443.36,445.87,450.899,453.3,456.646,461.676,464.186,469.106" svgx:width="0.5,0.5,0.25,0.5,0.25,0.33,0.5,0.25,0.5,0.25" style="fill:rgb(0,0,0);font-family:TimesNewRomanPSMT;font-size:9.96px;stroke:none;">13.6 (6.7 </text>
  </g>
  <g begin="text">
   <text y="172.82" x="471.7" svgx:width="0.33" style="fill:rgb(0,0,0);font-family:TimesNewRomanPSMT;font-size:9.96px;stroke:none;">-</text>
  </g>
  <g begin="text">
   <text y="172.82" x="475.06" svgx:width="0.25" style="fill:rgb(0,0,0);font-family:TimesNewRomanPSMT;font-size:9.96px;stroke:none;"> </text>
  </g>
  <g begin="text">
   <text y="172.82" x="477.58,482.5,487.53,490.04,495.07" svgx:width="0.5,0.5,0.25,0.5,0.33" style="fill:rgb(0,0,0);font-family:TimesNewRomanPSMT;font-size:9.96px;stroke:none;">23.4)</text>
  </g>
  <g begin="text">
   <text y="172.82" x="498.34" svgx:width="0.25" style="fill:rgb(0,0,0);font-family:TimesNewRomanPSMT;font-size:9.96px;stroke:none;"> </text>
  </g>
  <path style="fill:rgb(219,219,219);stroke:none;stroke-width:1.0;" d="M432.580 647.140 L498.820 647.140 L498.820 691.060 L432.580 691.060 L432.580 647.140 M432.580 647.140 L498.820 647.140 L498.820 691.060 L432.580 691.060 L432.580 647.140 M432.580 647.140 L498.820 647.140 L498.820 691.060 L432.580 691.060 L432.580 647.140 M432.580 647.140 L498.820 647.140 L498.820 691.060 L432.580 691.060 L432.580 647.140 M432.580 647.140 L498.820 647.140 L498.820 691.060 L432.580 691.060 L432.580 647.140 M499.060 647.140 L565.320 647.140 L565.320 691.780 L499.060 691.780 L499.060 647.140 "/>
  <path style="fill:rgb(219,219,219);stroke:none;stroke-width:1.0;" d="M499.060 647.140 L565.320 647.140 L565.320 691.060 L499.060 691.060 L499.060 647.140 M499.780 659.740 L564.840 659.740 L564.840 678.460 L499.780 678.460 L499.780 659.740 "/>
  <g begin="text">
   <text y="172.82" x="499.78,504.81,509.84,512.35,517.379,519.78,523.126,528.156,530.666,535.586" svgx:width="0.5,0.5,0.25,0.5,0.25,0.33,0.5,0.25,0.5,0.25" style="fill:rgb(0,0,0);font-family:TimesNewRomanPSMT;font-size:9.96px;stroke:none;">28.4 (8.8 </text>
  </g>
  <g begin="text">
   <text y="172.82" x="538.2" svgx:width="0.33" style="fill:rgb(0,0,0);font-family:TimesNewRomanPSMT;font-size:9.96px;stroke:none;">-</text>
  </g>
  <g begin="text">
   <text y="172.82" x="541.56" svgx:width="0.25" style="fill:rgb(0,0,0);font-family:TimesNewRomanPSMT;font-size:9.96px;stroke:none;"> </text>
  </g>
  <g begin="text">
   <text y="172.82" x="544.08,549.0,554.03,556.54,561.57" svgx:width="0.5,0.5,0.25,0.5,0.33" style="fill:rgb(0,0,0);font-family:TimesNewRomanPSMT;font-size:9.96px;stroke:none;">65.1)</text>
  </g>
  <g begin="text">
   <text y="172.82" x="564.84" svgx:width="0.25" style="fill:rgb(0,0,0);font-family:TimesNewRomanPSMT;font-size:9.96px;stroke:none;"> </text>
  </g>
  <g begin="text">
   <text y="172.82" x="565.56" svgx:width="0.25" style="fill:rgb(0,0,0);font-family:TimesNewRomanPSMT;font-size:9.96px;stroke:none;"> </text>
  </g>
  <path style="fill:rgb(0,0,0);stroke:none;stroke-width:1.0;" d="M499.060 647.140 L565.320 647.140 L565.320 691.060 L499.060 691.060 L499.060 647.140 M499.060 647.140 L565.320 647.140 L565.320 691.060 L499.060 691.060 L499.060 647.140 M499.060 647.140 L565.320 647.140 L565.320 691.060 L499.060 691.060 L499.060 647.140 M499.060 647.140 L565.320 647.140 L565.320 691.060 L499.060 691.060 L499.060 647.140 M499.060 647.140 L565.320 647.140 L565.320 691.060 L499.060 691.060 L499.060 647.140 M565.560 647.140 L567.120 647.140 L567.120 691.060 L565.560 691.060 L565.560 647.140 M565.560 647.140 L567.120 647.140 L567.120 691.060 L565.560 691.060 L565.560 647.140 M72.020 691.060 L72.500 691.060 L72.500 691.780 L72.020 691.780 L72.020 691.060 "/>
  <path style="fill:rgb(0,0,0);stroke:none;stroke-width:1.0;" d="M262.610 691.060 L263.090 691.060 L263.090 691.780 L262.610 691.780 L262.610 691.060 "/>
  <path style="fill:rgb(0,0,0);stroke:none;stroke-width:1.0;" d="M263.090 691.300 L302.470 691.300 L302.470 691.780 L263.090 691.780 L263.090 691.300 "/>
  <path style="fill:rgb(219,219,219);stroke:none;stroke-width:1.0;" d="M263.090 691.060 L302.470 691.060 L302.470 691.300 L263.090 691.300 L263.090 691.060 "/>
  <path style="fill:rgb(0,0,0);stroke:none;stroke-width:1.0;" d="M302.470 691.060 L302.950 691.060 L302.950 691.780 L302.470 691.780 L302.470 691.060 "/>
  <path style="fill:rgb(0,0,0);stroke:none;stroke-width:1.0;" d="M302.950 691.300 L367.390 691.300 L367.390 691.780 L302.950 691.780 L302.950 691.300 "/>
  <path style="fill:rgb(219,219,219);stroke:none;stroke-width:1.0;" d="M302.950 691.060 L367.390 691.060 L367.390 691.300 L302.950 691.300 L302.950 691.060 "/>
  <path style="fill:rgb(0,0,0);stroke:none;stroke-width:1.0;" d="M367.390 691.060 L367.870 691.060 L367.870 691.780 L367.390 691.780 L367.390 691.060 "/>
  <path style="fill:rgb(0,0,0);stroke:none;stroke-width:1.0;" d="M367.870 691.300 L432.330 691.300 L432.330 691.780 L367.870 691.780 L367.870 691.300 "/>
  <path style="fill:rgb(219,219,219);stroke:none;stroke-width:1.0;" d="M367.870 691.060 L432.330 691.060 L432.330 691.300 L367.870 691.300 L367.870 691.060 "/>
  <path style="fill:rgb(0,0,0);stroke:none;stroke-width:1.0;" d="M432.340 691.060 L432.820 691.060 L432.820 691.780 L432.340 691.780 L432.340 691.060 "/>
  <path style="fill:rgb(0,0,0);stroke:none;stroke-width:1.0;" d="M432.820 691.300 L498.820 691.300 L498.820 691.780 L432.820 691.780 L432.820 691.300 "/>
  <path style="fill:rgb(219,219,219);stroke:none;stroke-width:1.0;" d="M432.820 691.060 L498.820 691.060 L498.820 691.300 L432.820 691.300 L432.820 691.060 "/>
  <path style="fill:rgb(0,0,0);stroke:none;stroke-width:1.0;" d="M498.820 691.060 L499.300 691.060 L499.300 691.780 L498.820 691.780 L498.820 691.060 "/>
  <path style="fill:rgb(0,0,0);stroke:none;stroke-width:1.0;" d="M499.300 691.300 L565.320 691.300 L565.320 691.780 L499.300 691.780 L499.300 691.300 "/>
  <path style="fill:rgb(219,219,219);stroke:none;stroke-width:1.0;" d="M499.300 691.060 L565.320 691.060 L565.320 691.300 L499.300 691.300 L499.300 691.060 "/>
  <path style="fill:rgb(0,0,0);stroke:none;stroke-width:1.0;" d="M565.320 691.060 L565.800 691.060 L565.800 691.780 L565.320 691.780 L565.320 691.060 "/>
  <path style="fill:rgb(0,0,0);stroke:none;stroke-width:1.0;" d="M72.020 647.140 L72.500 647.140 L72.500 691.060 L72.020 691.060 L72.020 647.140 "/>
  <path style="fill:rgb(0,0,0);stroke:none;stroke-width:1.0;" d="M262.610 647.140 L263.090 647.140 L263.090 691.060 L262.610 691.060 L262.610 647.140 "/>
  <path style="fill:rgb(0,0,0);stroke:none;stroke-width:1.0;" d="M302.470 647.140 L302.950 647.140 L302.950 691.060 L302.470 691.060 L302.470 647.140 "/>
  <path style="fill:rgb(0,0,0);stroke:none;stroke-width:1.0;" d="M367.390 647.140 L367.870 647.140 L367.870 691.060 L367.390 691.060 L367.390 647.140 "/>
  <path style="fill:rgb(0,0,0);stroke:none;stroke-width:1.0;" d="M432.340 647.140 L432.820 647.140 L432.820 691.060 L432.340 691.060 L432.340 647.140 "/>
  <path style="fill:rgb(0,0,0);stroke:none;stroke-width:1.0;" d="M498.820 647.140 L499.300 647.140 L499.300 691.060 L498.820 691.060 L498.820 647.140 "/>
  <path style="fill:rgb(0,0,0);stroke:none;stroke-width:1.0;" d="M565.320 647.140 L565.800 647.140 L565.800 691.060 L565.320 691.060 L565.320 647.140 "/>
  <g begin="text">
   <text y="204.98" x="72.984,79.588,87.376,93.98,101.29,107.894,110.404,117.595,123.71,131.499,138.102,145.294" svgx:width="0.67,0.78,0.67,0.72,0.67,0.25,0.72,0.61,0.78,0.67,0.72,0.25" style="fill:rgb(0,0,0);font-family:TimesNewRomanPS-BoldMT;font-size:9.96px;stroke:none;">TOTAL AFOLU </text>
  </g>
  <g begin="text">
   <text y="204.98" x="147.98" svgx:width="0.25" style="fill:rgb(0,0,0);font-family:TimesNewRomanPS-BoldMT;font-size:9.96px;stroke:none;"> </text>
  </g>
  <g begin="text">
   <text y="217.58" x="72.984,76.331,80.753,85.803,89.149,91.918,96.34,101.38,104.149,106.918,111.928,115.274,119.696,122.117,124.627,127.973,133.003,136.35,140.772,144.646,147.415,151.23,153.74,161.528,164.038,169.068,171.837,176.857,181.179,184.526" svgx:width="0.33,0.44,0.5,0.33,0.28,0.44,0.5,0.28,0.28,0.5,0.33,0.44,0.25,0.25,0.33,0.5,0.33,0.44,0.39,0.28,0.39,0.25,0.78,0.25,0.5,0.28,0.5,0.44,0.33,0.25" style="fill:rgb(0,0,0);font-family:TimesNewRomanPSMT;font-size:9.96px;stroke:none;">(agriculture, forests &amp; other </text>
  </g>
  <g begin="text">
   <text y="217.58" x="187.25,191.573,195.995,201.045,204.889,209.919,213.764,216.532,220.955,228.753,232.598,235.108" svgx:width="0.44,0.44,0.5,0.39,0.5,0.39,0.28,0.44,0.78,0.39,0.25,0.25" style="fill:rgb(0,0,0);font-family:TimesNewRomanPSMT;font-size:9.96px;stroke:none;">ecosystems, </text>
  </g>
  <g begin="text">
   <text y="230.18" x="72.984,79.588,85.693,92.406,99.01,104.547" svgx:width="0.67,0.61,0.67,0.67,0.56,0.33" style="fill:rgb(0,0,0);font-family:TimesNewRomanPSMT;font-size:9.96px;stroke:none;">BECCS)</text>
  </g>
  <g begin="text">
   <text y="230.18" x="108.02" svgx:width="0.25" style="fill:rgb(0,0,0);font-family:TimesNewRomanPS-BoldMT;font-size:9.96px;stroke:none;"> </text>
  </g>
  <path style="fill:rgb(219,219,219);stroke:none;stroke-width:1.0;" d="M262.850 602.350 L302.710 602.350 L302.710 647.010 L262.850 647.010 L262.850 602.350 "/>
  <path style="fill:rgb(219,219,219);stroke:none;stroke-width:1.0;" d="M262.850 602.350 L302.710 602.350 L302.710 646.290 L262.850 646.290 L262.850 602.350 M263.570 615.100 L301.990 615.100 L301.990 633.700 L263.570 633.700 L263.570 615.100 "/>
  <g begin="text">
   <text y="217.58" x="263.57,266.917,274.108" svgx:width="0.33,0.72,0.89" style="fill:rgb(0,0,0);font-family:TimesNewRomanPSMT;font-size:9.96px;stroke:none;">IAM</text>
  </g>
  <g begin="text">
   <text y="217.58" x="283.03" svgx:width="0.25" style="fill:rgb(0,0,0);font-family:TimesNewRomanPSMT;font-size:9.96px;stroke:none;"> </text>
  </g>
  <path style="fill:rgb(219,219,219);stroke:none;stroke-width:1.0;" d="M262.850 602.350 L302.710 602.350 L302.710 646.290 L262.850 646.290 L262.850 602.350 M262.850 602.350 L302.710 602.350 L302.710 646.290 L262.850 646.290 L262.850 602.350 M302.950 602.350 L367.270 602.350 L367.270 647.010 L302.950 647.010 L302.950 602.350 "/>
  <path style="fill:rgb(219,219,219);stroke:none;stroke-width:1.0;" d="M302.950 602.350 L367.270 602.350 L367.270 646.290 L302.950 646.290 L302.950 602.350 M303.430 615.100 L366.790 615.100 L366.790 633.700 L303.430 633.700 L303.430 615.100 "/>
  <g begin="text">
   <text y="217.58" x="308.83,313.86,316.37,321.4,323.909,327.146,332.176" svgx:width="0.5,0.25,0.5,0.25,0.33,0.5,0.25" style="fill:rgb(0,0,0);font-family:TimesNewRomanPSMT;font-size:9.96px;stroke:none;">3.4 (0 </text>
  </g>
  <g begin="text">
   <text y="217.58" x="334.75" svgx:width="0.33" style="fill:rgb(0,0,0);font-family:TimesNewRomanPSMT;font-size:9.96px;stroke:none;">-</text>
  </g>
  <g begin="text">
   <text y="217.58" x="338.11" svgx:width="0.25" style="fill:rgb(0,0,0);font-family:TimesNewRomanPSMT;font-size:9.96px;stroke:none;"> </text>
  </g>
  <g begin="text">
   <text y="217.58" x="340.63,345.55,350.58,353.09,358.01" svgx:width="0.5,0.5,0.25,0.5,0.33" style="fill:rgb(0,0,0);font-family:TimesNewRomanPSMT;font-size:9.96px;stroke:none;">14.6)</text>
  </g>
  <g begin="text">
   <text y="217.58" x="361.27" svgx:width="0.25" style="fill:rgb(0,0,0);font-family:TimesNewRomanPSMT;font-size:9.96px;stroke:none;"> </text>
  </g>
  <path style="fill:rgb(219,219,219);stroke:none;stroke-width:1.0;" d="M302.950 602.350 L367.270 602.350 L367.270 646.290 L302.950 646.290 L302.950 602.350 M302.950 602.350 L367.270 602.350 L367.270 646.290 L302.950 646.290 L302.950 602.350 M302.950 602.350 L367.270 602.350 L367.270 646.290 L302.950 646.290 L302.950 602.350 M302.950 602.350 L367.270 602.350 L367.270 646.290 L302.950 646.290 L302.950 602.350 M302.950 602.350 L367.270 602.350 L367.270 646.290 L302.950 646.290 L302.950 602.350 M367.630 602.350 L432.330 602.350 L432.330 647.010 L367.630 647.010 L367.630 602.350 "/>
  <path style="fill:rgb(219,219,219);stroke:none;stroke-width:1.0;" d="M367.630 602.350 L432.330 602.350 L432.330 646.290 L367.630 646.290 L367.630 602.350 M368.350 615.100 L431.730 615.100 L431.730 633.700 L368.350 633.700 L368.350 615.100 "/>
  <g begin="text">
   <text y="217.58" x="370.03,375.06,377.57,382.6,385.109,388.346,393.376,395.886,400.916" svgx:width="0.5,0.25,0.5,0.25,0.33,0.5,0.25,0.5,0.25" style="fill:rgb(0,0,0);font-family:TimesNewRomanPSMT;font-size:9.96px;stroke:none;">5.3 (0.6 </text>
  </g>
  <g begin="text">
   <text y="217.58" x="403.54" svgx:width="0.33" style="fill:rgb(0,0,0);font-family:TimesNewRomanPSMT;font-size:9.96px;stroke:none;">-</text>
  </g>
  <g begin="text">
   <text y="217.58" x="406.78" svgx:width="0.25" style="fill:rgb(0,0,0);font-family:TimesNewRomanPSMT;font-size:9.96px;stroke:none;"> </text>
  </g>
  <g begin="text">
   <text y="217.58" x="409.3,414.33,419.36,421.76,426.79" svgx:width="0.5,0.5,0.25,0.5,0.33" style="fill:rgb(0,0,0);font-family:TimesNewRomanPSMT;font-size:9.96px;stroke:none;">19.4)</text>
  </g>
  <g begin="text">
   <text y="217.58" x="430.06" svgx:width="0.25" style="fill:rgb(0,0,0);font-family:TimesNewRomanPSMT;font-size:9.96px;stroke:none;"> </text>
  </g>
  <path style="fill:rgb(219,219,219);stroke:none;stroke-width:1.0;" d="M367.630 602.350 L432.330 602.350 L432.330 646.290 L367.630 646.290 L367.630 602.350 M367.630 602.350 L432.330 602.350 L432.330 646.290 L367.630 646.290 L367.630 602.350 M367.630 602.350 L432.330 602.350 L432.330 646.290 L367.630 646.290 L367.630 602.350 M367.630 602.350 L432.330 602.350 L432.330 646.290 L367.630 646.290 L367.630 602.350 M367.630 602.350 L432.330 602.350 L432.330 646.290 L367.630 646.290 L367.630 602.350 M432.580 602.350 L498.820 602.350 L498.820 647.010 L432.580 647.010 L432.580 602.350 "/>
  <path style="fill:rgb(219,219,219);stroke:none;stroke-width:1.0;" d="M432.580 602.350 L498.820 602.350 L498.820 646.290 L432.580 646.290 L432.580 602.350 M433.300 615.100 L498.340 615.100 L498.340 633.700 L433.300 633.700 L433.300 615.100 "/>
  <g begin="text">
   <text y="217.58" x="435.82,440.85,443.36,448.39,450.899,454.137,459.166,461.676,466.706" svgx:width="0.5,0.25,0.5,0.25,0.33,0.5,0.25,0.5,0.25" style="fill:rgb(0,0,0);font-family:TimesNewRomanPSMT;font-size:9.96px;stroke:none;">7.9 (4.1 </text>
  </g>
  <g begin="text">
   <text y="217.58" x="469.3" svgx:width="0.33" style="fill:rgb(0,0,0);font-family:TimesNewRomanPSMT;font-size:9.96px;stroke:none;">-</text>
  </g>
  <g begin="text">
   <text y="217.58" x="472.54" svgx:width="0.25" style="fill:rgb(0,0,0);font-family:TimesNewRomanPSMT;font-size:9.96px;stroke:none;"> </text>
  </g>
  <g begin="text">
   <text y="217.58" x="475.06,480.09,485.12,487.52,492.55" svgx:width="0.5,0.5,0.25,0.5,0.33" style="fill:rgb(0,0,0);font-family:TimesNewRomanPSMT;font-size:9.96px;stroke:none;">17.3)</text>
  </g>
  <g begin="text">
   <text y="217.58" x="495.82" svgx:width="0.25" style="fill:rgb(0,0,0);font-family:TimesNewRomanPSMT;font-size:9.96px;stroke:none;"> </text>
  </g>
  <path style="fill:rgb(219,219,219);stroke:none;stroke-width:1.0;" d="M432.580 602.350 L498.820 602.350 L498.820 646.290 L432.580 646.290 L432.580 602.350 M432.580 602.350 L498.820 602.350 L498.820 646.290 L432.580 646.290 L432.580 602.350 M432.580 602.350 L498.820 602.350 L498.820 646.290 L432.580 646.290 L432.580 602.350 M432.580 602.350 L498.820 602.350 L498.820 646.290 L432.580 646.290 L432.580 602.350 M432.580 602.350 L498.820 602.350 L498.820 646.290 L432.580 646.290 L432.580 602.350 M499.060 602.350 L565.320 602.350 L565.320 647.010 L499.060 647.010 L499.060 602.350 "/>
  <path style="fill:rgb(219,219,219);stroke:none;stroke-width:1.0;" d="M499.060 602.350 L565.320 602.350 L565.320 646.290 L499.060 646.290 L499.060 602.350 M499.780 615.100 L564.840 615.100 L564.840 633.700 L499.780 633.700 L499.780 615.100 "/>
  <g begin="text">
   <text y="217.58" x="525.12,532.32" svgx:width="0.72,0.72" style="fill:rgb(0,0,0);font-family:TimesNewRomanPSMT;font-size:9.96px;stroke:none;">ND</text>
  </g>
  <g begin="text">
   <text y="217.58" x="539.52" svgx:width="0.25" style="fill:rgb(0,0,0);font-family:TimesNewRomanPSMT;font-size:9.96px;stroke:none;"> </text>
  </g>
  <g begin="text">
   <text y="217.58" x="565.56" svgx:width="0.25" style="fill:rgb(0,0,0);font-family:TimesNewRomanPSMT;font-size:9.96px;stroke:none;"> </text>
  </g>
  <path style="fill:rgb(0,0,0);stroke:none;stroke-width:1.0;" d="M499.060 602.350 L565.320 602.350 L565.320 646.290 L499.060 646.290 L499.060 602.350 M499.060 602.350 L565.320 602.350 L565.320 646.290 L499.060 646.290 L499.060 602.350 M565.560 602.350 L567.120 602.350 L567.120 646.290 L565.560 646.290 L565.560 602.350 M565.560 602.350 L567.120 602.350 L567.120 646.290 L565.560 646.290 L565.560 602.350 M72.020 646.420 L72.500 646.420 L72.500 647.140 L72.020 647.140 L72.020 646.420 "/>
  <path style="fill:rgb(0,0,0);stroke:none;stroke-width:1.0;" d="M262.610 646.420 L263.090 646.420 L263.090 647.140 L262.610 647.140 L262.610 646.420 "/>
  <path style="fill:rgb(0,0,0);stroke:none;stroke-width:1.0;" d="M263.090 646.660 L302.470 646.660 L302.470 647.140 L263.090 647.140 L263.090 646.660 "/>
  <path style="fill:rgb(219,219,219);stroke:none;stroke-width:1.0;" d="M263.090 646.420 L302.470 646.420 L302.470 646.660 L263.090 646.660 L263.090 646.420 "/>
  <path style="fill:rgb(0,0,0);stroke:none;stroke-width:1.0;" d="M302.470 646.420 L302.950 646.420 L302.950 647.140 L302.470 647.140 L302.470 646.420 "/>
  <path style="fill:rgb(0,0,0);stroke:none;stroke-width:1.0;" d="M302.950 646.660 L367.390 646.660 L367.390 647.140 L302.950 647.140 L302.950 646.660 "/>
  <path style="fill:rgb(219,219,219);stroke:none;stroke-width:1.0;" d="M302.950 646.420 L367.390 646.420 L367.390 646.660 L302.950 646.660 L302.950 646.420 "/>
  <path style="fill:rgb(0,0,0);stroke:none;stroke-width:1.0;" d="M367.390 646.420 L367.870 646.420 L367.870 647.140 L367.390 647.140 L367.390 646.420 "/>
  <path style="fill:rgb(0,0,0);stroke:none;stroke-width:1.0;" d="M367.870 646.660 L432.330 646.660 L432.330 647.140 L367.870 647.140 L367.870 646.660 "/>
  <path style="fill:rgb(219,219,219);stroke:none;stroke-width:1.0;" d="M367.870 646.420 L432.330 646.420 L432.330 646.660 L367.870 646.660 L367.870 646.420 "/>
  <path style="fill:rgb(0,0,0);stroke:none;stroke-width:1.0;" d="M432.340 646.420 L432.820 646.420 L432.820 647.140 L432.340 647.140 L432.340 646.420 "/>
  <path style="fill:rgb(0,0,0);stroke:none;stroke-width:1.0;" d="M432.820 646.660 L498.820 646.660 L498.820 647.140 L432.820 647.140 L432.820 646.660 "/>
  <path style="fill:rgb(219,219,219);stroke:none;stroke-width:1.0;" d="M432.820 646.420 L498.820 646.420 L498.820 646.660 L432.820 646.660 L432.820 646.420 "/>
  <path style="fill:rgb(0,0,0);stroke:none;stroke-width:1.0;" d="M498.820 646.420 L499.300 646.420 L499.300 647.140 L498.820 647.140 L498.820 646.420 "/>
  <path style="fill:rgb(0,0,0);stroke:none;stroke-width:1.0;" d="M499.300 646.660 L565.320 646.660 L565.320 647.140 L499.300 647.140 L499.300 646.660 "/>
  <path style="fill:rgb(219,219,219);stroke:none;stroke-width:1.0;" d="M499.300 646.420 L565.320 646.420 L565.320 646.660 L499.300 646.660 L499.300 646.420 "/>
  <path style="fill:rgb(0,0,0);stroke:none;stroke-width:1.0;" d="M565.320 646.420 L565.800 646.420 L565.800 647.140 L565.320 647.140 L565.320 646.420 "/>
  <path style="fill:rgb(0,0,0);stroke:none;stroke-width:1.0;" d="M72.020 602.350 L72.500 602.350 L72.500 646.410 L72.020 646.410 L72.020 602.350 "/>
  <path style="fill:rgb(0,0,0);stroke:none;stroke-width:1.0;" d="M72.020 601.870 L72.500 601.870 L72.500 602.350 L72.020 602.350 L72.020 601.870 "/>
  <path style="fill:rgb(0,0,0);stroke:none;stroke-width:1.0;" d="M72.020 601.870 L72.500 601.870 L72.500 602.350 L72.020 602.350 L72.020 601.870 "/>
  <path style="fill:rgb(0,0,0);stroke:none;stroke-width:1.0;" d="M262.610 602.350 L263.090 602.350 L263.090 646.410 L262.610 646.410 L262.610 602.350 "/>
  <path style="fill:rgb(0,0,0);stroke:none;stroke-width:1.0;" d="M262.610 601.870 L263.090 601.870 L263.090 602.350 L262.610 602.350 L262.610 601.870 "/>
  <path style="fill:rgb(0,0,0);stroke:none;stroke-width:1.0;" d="M263.090 601.870 L302.470 601.870 L302.470 602.350 L263.090 602.350 L263.090 601.870 "/>
  <path style="fill:rgb(0,0,0);stroke:none;stroke-width:1.0;" d="M302.470 602.350 L302.950 602.350 L302.950 646.410 L302.470 646.410 L302.470 602.350 "/>
  <path style="fill:rgb(0,0,0);stroke:none;stroke-width:1.0;" d="M302.470 601.870 L302.950 601.870 L302.950 602.350 L302.470 602.350 L302.470 601.870 "/>
  <path style="fill:rgb(0,0,0);stroke:none;stroke-width:1.0;" d="M302.950 601.870 L367.390 601.870 L367.390 602.350 L302.950 602.350 L302.950 601.870 "/>
  <path style="fill:rgb(0,0,0);stroke:none;stroke-width:1.0;" d="M367.390 602.350 L367.870 602.350 L367.870 646.410 L367.390 646.410 L367.390 602.350 "/>
  <path style="fill:rgb(0,0,0);stroke:none;stroke-width:1.0;" d="M367.390 601.870 L367.870 601.870 L367.870 602.350 L367.390 602.350 L367.390 601.870 "/>
  <path style="fill:rgb(0,0,0);stroke:none;stroke-width:1.0;" d="M367.870 601.870 L432.330 601.870 L432.330 602.350 L367.870 602.350 L367.870 601.870 "/>
  <path style="fill:rgb(0,0,0);stroke:none;stroke-width:1.0;" d="M432.340 602.350 L432.820 602.350 L432.820 646.410 L432.340 646.410 L432.340 602.350 "/>
  <path style="fill:rgb(0,0,0);stroke:none;stroke-width:1.0;" d="M432.340 601.870 L432.820 601.870 L432.820 602.350 L432.340 602.350 L432.340 601.870 "/>
  <path style="fill:rgb(0,0,0);stroke:none;stroke-width:1.0;" d="M432.820 601.870 L498.820 601.870 L498.820 602.350 L432.820 602.350 L432.820 601.870 "/>
  <path style="fill:rgb(0,0,0);stroke:none;stroke-width:1.0;" d="M498.820 602.350 L499.300 602.350 L499.300 646.410 L498.820 646.410 L498.820 602.350 "/>
  <path style="fill:rgb(0,0,0);stroke:none;stroke-width:1.0;" d="M498.820 601.870 L499.300 601.870 L499.300 602.350 L498.820 602.350 L498.820 601.870 "/>
  <path style="fill:rgb(0,0,0);stroke:none;stroke-width:1.0;" d="M499.300 601.870 L565.320 601.870 L565.320 602.350 L499.300 602.350 L499.300 601.870 "/>
  <path style="fill:rgb(0,0,0);stroke:none;stroke-width:1.0;" d="M565.320 602.350 L565.800 602.350 L565.800 646.410 L565.320 646.410 L565.320 602.350 "/>
  <path style="fill:rgb(0,0,0);stroke:none;stroke-width:1.0;" d="M565.320 601.870 L565.800 601.870 L565.800 602.350 L565.320 602.350 L565.320 601.870 "/>
  <path style="fill:rgb(0,0,0);stroke:none;stroke-width:1.0;" d="M565.320 601.870 L565.800 601.870 L565.800 602.350 L565.320 602.350 L565.320 601.870 "/>
  <g begin="text">
   <text y="602.109" transform="matrix(0.70711,-0.70711,0.70711,0.70711,-395.12956,250.29085)" rotateDegrees="-45" matrix="[29.803345,29.803345,-29.803345,29.803345,104.563255,239.8115]" x="104.563" svgx:width="0.67" style="fill:rgb(0,0,0);font-family:Arial;font-size:42.15px;stroke:none;">A</text>
   <text y="582.23" transform="matrix(0.70711,-0.70711,0.70711,0.70711,-375.25056,258.525)" rotateDegrees="-45" matrix="[29.803345,29.803345,-29.803345,29.803345,124.442085,259.6903]" x="124.442" svgx:width="0.72" style="fill:rgb(0,0,0);font-family:Arial;font-size:42.15px;stroke:none;">C</text>
   <text y="560.712" transform="matrix(0.70711,-0.70711,0.70711,0.70711,-353.73256,267.43805)" rotateDegrees="-45" matrix="[29.803345,29.803345,-29.803345,29.803345,145.9601,281.20834]" x="145.96" svgx:width="0.72" style="fill:rgb(0,0,0);font-family:Arial;font-size:42.15px;stroke:none;">C</text>
   <text y="539.194" transform="matrix(0.70711,-0.70711,0.70711,0.70711,-332.21456,276.3511)" rotateDegrees="-45" matrix="[29.803345,29.803345,-29.803345,29.803345,167.47812,302.72635]" x="167.478" svgx:width="0.67" style="fill:rgb(0,0,0);font-family:Arial;font-size:42.15px;stroke:none;">E</text>
   <text y="519.315" transform="matrix(0.70711,-0.70711,0.70711,0.70711,-312.33556,284.58525)" rotateDegrees="-45" matrix="[29.803345,29.803345,-29.803345,29.803345,187.35693,322.60516]" x="187.357" svgx:width="0.67" style="fill:rgb(0,0,0);font-family:Arial;font-size:42.15px;stroke:none;">P</text>
   <text y="499.436" transform="matrix(0.70711,-0.70711,0.70711,0.70711,-292.45656,292.8194)" rotateDegrees="-45" matrix="[29.803345,29.803345,-29.803345,29.803345,207.23578,342.484]" x="207.236" svgx:width="0.61" style="fill:rgb(0,0,0);font-family:Arial;font-size:42.15px;stroke:none;">T</text>
   <text y="481.226" transform="matrix(0.70711,-0.70711,0.70711,0.70711,-274.24656,300.36223)" rotateDegrees="-45" matrix="[29.803345,29.803345,-29.803345,29.803345,225.44562,360.69385]" x="225.446" svgx:width="0.67" style="fill:rgb(0,0,0);font-family:Arial;font-size:42.15px;stroke:none;">E</text>
   <text y="461.347" transform="matrix(0.70711,-0.70711,0.70711,0.70711,-254.36786,308.59567)" rotateDegrees="-45" matrix="[29.803345,29.803345,-29.803345,29.803345,245.32443,380.57266]" x="245.324" svgx:width="0.72" style="fill:rgb(0,0,0);font-family:Arial;font-size:42.15px;stroke:none;">D</text>
   <text y="439.829" transform="matrix(0.70711,-0.70711,0.70711,0.70711,-232.84986,317.50872)" rotateDegrees="-45" matrix="[29.803345,29.803345,-29.803345,29.803345,266.84247,402.0907]" x="266.842" svgx:width="0.28" style="fill:rgb(0,0,0);font-family:Arial;font-size:42.15px;stroke:none;"> </text>
   <text y="431.54" transform="matrix(0.70711,-0.70711,0.70711,0.70711,-224.56056,320.94284)" rotateDegrees="-45" matrix="[29.803345,29.803345,-29.803345,29.803345,275.13153,410.37976]" x="275.132" svgx:width="0.67" style="fill:rgb(0,0,0);font-family:Arial;font-size:42.15px;stroke:none;">V</text>
   <text y="411.661" transform="matrix(0.70711,-0.70711,0.70711,0.70711,-204.68186,329.17629)" rotateDegrees="-45" matrix="[29.803345,29.803345,-29.803345,29.803345,295.0103,430.25858]" x="295.01" svgx:width="0.67" style="fill:rgb(0,0,0);font-family:Arial;font-size:42.15px;stroke:none;">E</text>
   <text y="391.783" transform="matrix(0.70711,-0.70711,0.70711,0.70711,-184.80356,337.41073)" rotateDegrees="-45" matrix="[29.803345,29.803345,-29.803345,29.803345,314.88916,450.1374]" x="314.889" svgx:width="0.72" style="fill:rgb(0,0,0);font-family:Arial;font-size:42.15px;stroke:none;">R</text>
   <text y="370.265" transform="matrix(0.70711,-0.70711,0.70711,0.70711,-163.28556,346.32378)" rotateDegrees="-45" matrix="[29.803345,29.803345,-29.803345,29.803345,336.40717,471.65543]" x="336.407" svgx:width="0.67" style="fill:rgb(0,0,0);font-family:Arial;font-size:42.15px;stroke:none;">S</text>
   <text y="350.386" transform="matrix(0.70711,-0.70711,0.70711,0.70711,-143.40656,354.55793)" rotateDegrees="-45" matrix="[29.803345,29.803345,-29.803345,29.803345,356.286,491.53424]" x="356.286" svgx:width="0.28" style="fill:rgb(0,0,0);font-family:Arial;font-size:42.15px;stroke:none;">I</text>
   <text y="342.1" transform="matrix(0.70711,-0.70711,0.70711,0.70711,-135.12086,357.9894)" rotateDegrees="-45" matrix="[29.803345,29.803345,-29.803345,29.803345,364.57135,499.81958]" x="364.571" svgx:width="0.78" style="fill:rgb(0,0,0);font-family:Arial;font-size:42.15px;stroke:none;">O</text>
   <text y="318.913" transform="matrix(0.70711,-0.70711,0.70711,0.70711,-111.93386,367.59377)" rotateDegrees="-45" matrix="[29.803345,29.803345,-29.803345,29.803345,387.7583,523.0066]" x="387.758" svgx:width="0.72" style="fill:rgb(0,0,0);font-family:Arial;font-size:42.15px;stroke:none;">N</text>
   <text y="297.395" transform="matrix(0.70711,-0.70711,0.70711,0.70711,-90.41586,376.50681)" rotateDegrees="-45" matrix="[29.803345,29.803345,-29.803345,29.803345,409.27637,544.5246]" x="409.276" svgx:width="0.28" style="fill:rgb(0,0,0);font-family:Arial;font-size:42.15px;stroke:none;"> </text>
   <text y="637.872" transform="matrix(0.70711,-0.70711,0.70711,0.70711,-409.94279,286.05456)" rotateDegrees="-45" matrix="[29.803345,29.803345,-29.803345,29.803345,140.32727,204.04747]" x="140.327" svgx:width="0.67" style="fill:rgb(0,0,0);font-family:Arial;font-size:42.15px;stroke:none;">S</text>
   <text y="617.994" transform="matrix(0.70711,-0.70711,0.70711,0.70711,-390.0645,294.289)" rotateDegrees="-45" matrix="[29.803345,29.803345,-29.803345,29.803345,160.2061,223.9263]" x="160.206" svgx:width="0.72" style="fill:rgb(0,0,0);font-family:Arial;font-size:42.15px;stroke:none;">U</text>
   <text y="596.476" transform="matrix(0.70711,-0.70711,0.70711,0.70711,-368.5465,303.20205)" rotateDegrees="-45" matrix="[29.803345,29.803345,-29.803345,29.803345,181.72412,245.4443]" x="181.724" svgx:width="0.67" style="fill:rgb(0,0,0);font-family:Arial;font-size:42.15px;stroke:none;">B</text>
   <text y="576.597" transform="matrix(0.70711,-0.70711,0.70711,0.70711,-348.6675,311.4362)" rotateDegrees="-45" matrix="[29.803345,29.803345,-29.803345,29.803345,201.60294,265.32315]" x="201.603" svgx:width="0.5" style="fill:rgb(0,0,0);font-family:Arial;font-size:42.15px;stroke:none;">J</text>
   <text y="561.695" transform="matrix(0.70711,-0.70711,0.70711,0.70711,-333.7655,317.60881)" rotateDegrees="-45" matrix="[29.803345,29.803345,-29.803345,29.803345,216.50462,280.22482]" x="216.505" svgx:width="0.67" style="fill:rgb(0,0,0);font-family:Arial;font-size:42.15px;stroke:none;">E</text>
   <text y="541.816" transform="matrix(0.70711,-0.70711,0.70711,0.70711,-313.88679,325.84225)" rotateDegrees="-45" matrix="[29.803345,29.803345,-29.803345,29.803345,236.38344,300.10364]" x="236.383" svgx:width="0.72" style="fill:rgb(0,0,0);font-family:Arial;font-size:42.15px;stroke:none;">C</text>
   <text y="520.298" transform="matrix(0.70711,-0.70711,0.70711,0.70711,-292.36879,334.7553)" rotateDegrees="-45" matrix="[29.803345,29.803345,-29.803345,29.803345,257.90146,321.62164]" x="257.901" svgx:width="0.61" style="fill:rgb(0,0,0);font-family:Arial;font-size:42.15px;stroke:none;">T</text>
   <text y="502.089" transform="matrix(0.70711,-0.70711,0.70711,0.70711,-274.1595,342.29842)" rotateDegrees="-45" matrix="[29.803345,29.803345,-29.803345,29.803345,276.1113,339.83148]" x="276.111" svgx:width="0.28" style="fill:rgb(0,0,0);font-family:Arial;font-size:42.15px;stroke:none;"> </text>
   <text y="493.803" transform="matrix(0.70711,-0.70711,0.70711,0.70711,-265.8735,345.7306)" rotateDegrees="-45" matrix="[29.803345,29.803345,-29.803345,29.803345,284.39664,348.11682]" x="284.397" svgx:width="0.61" style="fill:rgb(0,0,0);font-family:Arial;font-size:42.15px;stroke:none;">T</text>
   <text y="475.593" transform="matrix(0.70711,-0.70711,0.70711,0.70711,-247.66379,353.27272)" rotateDegrees="-45" matrix="[29.803345,29.803345,-29.803345,29.803345,302.60648,366.32666]" x="302.606" svgx:width="0.78" style="fill:rgb(0,0,0);font-family:Arial;font-size:42.15px;stroke:none;">O</text>
   <text y="452.406" transform="matrix(0.70711,-0.70711,0.70711,0.70711,-224.47679,362.87709)" rotateDegrees="-45" matrix="[29.803345,29.803345,-29.803345,29.803345,325.79346,389.51367]" x="325.793" svgx:width="0.28" style="fill:rgb(0,0,0);font-family:Arial;font-size:42.15px;stroke:none;"> </text>
   <text y="444.136" transform="matrix(0.70711,-0.70711,0.70711,0.70711,-216.2065,366.30334)" rotateDegrees="-45" matrix="[29.803345,29.803345,-29.803345,29.803345,334.0639,397.78412]" x="334.064" svgx:width="0.61" style="fill:rgb(0,0,0);font-family:Arial;font-size:42.15px;stroke:none;">F</text>
   <text y="425.926" transform="matrix(0.70711,-0.70711,0.70711,0.70711,-197.9965,373.84617)" rotateDegrees="-45" matrix="[29.803345,29.803345,-29.803345,29.803345,352.27374,415.99396]" x="352.274" svgx:width="0.28" style="fill:rgb(0,0,0);font-family:Arial;font-size:42.15px;stroke:none;">I</text>
   <text y="417.641" transform="matrix(0.70711,-0.70711,0.70711,0.70711,-189.7115,377.27793)" rotateDegrees="-45" matrix="[29.803345,29.803345,-29.803345,29.803345,360.55908,424.2793]" x="360.559" svgx:width="0.72" style="fill:rgb(0,0,0);font-family:Arial;font-size:42.15px;stroke:none;">N</text>
   <text y="396.123" transform="matrix(0.70711,-0.70711,0.70711,0.70711,-168.1935,386.19098)" rotateDegrees="-45" matrix="[29.803345,29.803345,-29.803345,29.803345,382.0771,445.7973]" x="382.077" svgx:width="0.67" style="fill:rgb(0,0,0);font-family:Arial;font-size:42.15px;stroke:none;">A</text>
   <text y="376.244" transform="matrix(0.70711,-0.70711,0.70711,0.70711,-148.3145,394.42513)" rotateDegrees="-45" matrix="[29.803345,29.803345,-29.803345,29.803345,401.95593,465.67615]" x="401.956" svgx:width="0.56" style="fill:rgb(0,0,0);font-family:Arial;font-size:42.15px;stroke:none;">L</text>
   <text y="359.673" transform="matrix(0.70711,-0.70711,0.70711,0.70711,-131.7435,401.28906)" rotateDegrees="-45" matrix="[29.803345,29.803345,-29.803345,29.803345,418.5266,482.24677]" x="418.527" svgx:width="0.28" style="fill:rgb(0,0,0);font-family:Arial;font-size:42.15px;stroke:none;"> </text>
   <text y="351.394" transform="matrix(0.70711,-0.70711,0.70711,0.70711,-123.4645,404.71834)" rotateDegrees="-45" matrix="[29.803345,29.803345,-29.803345,29.803345,426.80573,490.52588]" x="426.806" svgx:width="0.67" style="fill:rgb(0,0,0);font-family:Arial;font-size:42.15px;stroke:none;">E</text>
   <text y="331.515" transform="matrix(0.70711,-0.70711,0.70711,0.70711,-103.5855,412.95249)" rotateDegrees="-45" matrix="[29.803345,29.803345,-29.803345,29.803345,446.68457,510.40472]" x="446.685" svgx:width="0.72" style="fill:rgb(0,0,0);font-family:Arial;font-size:42.15px;stroke:none;">D</text>
   <text y="309.997" transform="matrix(0.70711,-0.70711,0.70711,0.70711,-82.0675,421.86554)" rotateDegrees="-45" matrix="[29.803345,29.803345,-29.803345,29.803345,468.2025,531.9227]" x="468.203" svgx:width="0.28" style="fill:rgb(0,0,0);font-family:Arial;font-size:42.15px;stroke:none;">I</text>
   <text y="301.712" transform="matrix(0.70711,-0.70711,0.70711,0.70711,-73.7825,425.29729)" rotateDegrees="-45" matrix="[29.803345,29.803345,-29.803345,29.803345,476.48785,540.20807]" x="476.488" svgx:width="0.61" style="fill:rgb(0,0,0);font-family:Arial;font-size:42.15px;stroke:none;">T</text>
   <text y="283.502" transform="matrix(0.70711,-0.70711,0.70711,0.70711,-55.5725,432.84012)" rotateDegrees="-45" matrix="[29.803345,29.803345,-29.803345,29.803345,494.6977,558.4179]" x="494.698" svgx:width="0.67" style="fill:rgb(0,0,0);font-family:Arial;font-size:42.15px;stroke:none;">S</text>
  </g>
 </g>
</svg>
