<?xml version="1.0" encoding="UTF-8"?>
<svg height="812.44" width="2588.65" xmlns="http://www.w3.org/2000/svg">
 <g id="page" xmlns:svgx="http://www.xml-cml.org/schema/svgx">
  <g begin="text">
   <text y="46.32" x="72.024,78.162,81.231,86.751,91.587,94.7" svgx:width="0.56,0.28,0.5,0.44,0.28,0.25" style="fill:rgb(0,0,0);font-family:TimesNewRomanPSMT;font-size:11.04px;stroke:none;">Final </text>
  </g>
  <g begin="text">
   <text y="46.32" x="97.464,105.38,110.9,116.42,121.222,124.932,130.452,138.974,143.876,149.396,152.52,155.28,163.086,166.199,170.394,173.508,177.107,180.22,185.74,191.138,194.141,197.255,202.775" svgx:width="0.72,0.5,0.5,0.44,0.33,0.5,0.78,0.44,0.5,0.28,0.25,0.72,0.28,0.39,0.28,0.33,0.28,0.5,0.5,0.28,0.28,0.5,0.5" style="fill:rgb(0,0,0);font-family:TimesNewRomanPSMT;font-size:11.04px;stroke:none;">Government Distribution</text>
  </g>
  <g begin="text">
   <text y="46.32" x="208.37" svgx:width="0.25" style="fill:rgb(0,0,0);font-family:TimesNewRomanPSMT;font-size:11.04px;stroke:none;"> </text>
  </g>
  <g begin="text">
   <text y="46.32" x="211.01" svgx:width="0.25" style="fill:rgb(0,0,0);font-family:TimesNewRomanPSMT;font-size:11.04px;stroke:none;"> </text>
  </g>
  <g begin="text">
   <text y="46.32" x="276.17,283.49,289.009,293.911,299.431,302.556,307.358,311.067,313.827" svgx:width="0.67,0.5,0.44,0.5,0.28,0.44,0.33,0.25,0.5" style="fill:rgb(0,0,0);font-family:TimesNewRomanPSMT;font-size:11.04px;stroke:none;">Chapter 7</text>
  </g>
  <g begin="text">
   <text y="46.32" x="319.27" svgx:width="0.25" style="fill:rgb(0,0,0);font-family:TimesNewRomanPSMT;font-size:11.04px;stroke:none;"> </text>
  </g>
  <g begin="text">
   <text y="46.32" x="443.38,446.979,453.117,460.415,467.734" svgx:width="0.33,0.56,0.67,0.67,0.25" style="fill:rgb(0,0,0);font-family:TimesNewRomanPSMT;font-size:11.04px;stroke:none;">IPCC </text>
  </g>
  <g begin="text">
   <text y="46.32" x="470.5,478.416,485.735,491.255,494.015,504.437,512.408,516.084,519.694" svgx:width="0.72,0.67,0.5,0.25,0.94,0.72,0.33,0.33,0.33" style="fill:rgb(0,0,0);font-family:TimesNewRomanPSMT;font-size:11.04px;stroke:none;">AR6 WGIII</text>
  </g>
  <g begin="text">
   <text y="46.32" x="523.44" svgx:width="0.25" style="fill:rgb(0,0,0);font-family:TimesNewRomanPSMT;font-size:11.04px;stroke:none;"> </text>
  </g>
  <g begin="text">
   <text y="60.24" x="72.024" svgx:width="0.25" style="fill:rgb(0,0,0);font-family:TimesNewRomanPSMT;font-size:11.04px;stroke:none;"> </text>
  </g>
  <g begin="text">
   <text y="760.68" x="72.024" svgx:width="0.25" style="fill:rgb(0,0,0);font-family:TimesNewRomanPSMT;font-size:11.04px;stroke:none;"> </text>
  </g>
  <g begin="text">
   <text y="774.6" x="72.024,79.94,85.46,88.22,96.135,101.655,105.365,108.125,116.04,119.154,122.753,127.655,130.415,133.075,141.708,147.847,153.367,157.043,161.868,164.628,170.148,175.049,177.809,185.78,188.75,192.945,196.655,201.556,204.681,210.819,216.803,220.512" svgx:width="0.72,0.5,0.25,0.72,0.5,0.33,0.25,0.72,0.28,0.33,0.44,0.25,0.25,0.78,0.56,0.5,0.33,0.44,0.25,0.5,0.44,0.25,0.72,0.28,0.39,0.33,0.44,0.28,0.56,0.56,0.33,0.44" style="fill:rgb(0,0,0);font-family:TimesNewRomanPS-BoldMT;font-size:11.04px;stroke:none;">Do Not Cite, Quote or Distribute</text>
  </g>
  <g begin="text">
   <text y="774.6" x="225.41" svgx:width="0.25" style="fill:rgb(0,0,0);font-family:TimesNewRomanPS-BoldMT;font-size:11.04px;stroke:none;"> </text>
  </g>
  <g begin="text">
   <text y="774.6" x="287.59" svgx:width="0.5" style="fill:rgb(0,0,0);font-family:TimesNewRomanPSMT;font-size:11.04px;stroke:none;">7</text>
  </g>
  <g begin="text">
   <text y="774.6" x="293.11" svgx:width="0.33" style="fill:rgb(0,0,0);font-family:TimesNewRomanPSMT;font-size:11.04px;stroke:none;">-</text>
  </g>
  <g begin="text">
   <text y="774.6" x="296.71,302.23" svgx:width="0.5,0.5" style="fill:rgb(0,0,0);font-family:TimesNewRomanPSMT;font-size:11.04px;stroke:none;">10</text>
  </g>
  <g begin="text">
   <text y="774.6" x="307.75" svgx:width="0.25" style="fill:rgb(0,0,0);font-family:TimesNewRomanPSMT;font-size:11.04px;stroke:none;"> </text>
  </g>
  <g begin="text">
   <text y="774.6" x="310.51" svgx:width="0.25" style="fill:rgb(0,0,0);font-family:TimesNewRomanPSMT;font-size:11.04px;stroke:none;"> </text>
  </g>
  <g begin="text">
   <text y="774.6" x="450.1,456.845,462.365,465.435,470.259,473.372,476.132,481.652,486.554,491.975,496.876,501.204,504.207" svgx:width="0.61,0.5,0.28,0.44,0.28,0.25,0.5,0.44,0.5,0.44,0.39,0.28,0.25" style="fill:rgb(0,0,0);font-family:TimesNewRomanPSMT;font-size:11.04px;stroke:none;">Total pages: </text>
  </g>
  <g begin="text">
   <text y="774.6" x="506.98,512.5,518.02" svgx:width="0.5,0.5,0.5" style="fill:rgb(0,0,0);font-family:TimesNewRomanPSMT;font-size:11.04px;stroke:none;">185</text>
  </g>
  <g begin="text">
   <text y="774.6" x="523.44" svgx:width="0.25" style="fill:rgb(0,0,0);font-family:TimesNewRomanPSMT;font-size:9.96px;stroke:none;"> </text>
  </g>
  <g begin="text">
   <text y="788.52" x="297.67" svgx:width="0.25" style="fill:rgb(0,0,0);font-family:TimesNewRomanPSMT;font-size:11.04px;stroke:none;"> </text>
  </g>
  <g begin="text">
   <text y="802.44" x="297.67" svgx:width="0.25" style="fill:rgb(0,0,0);font-family:TimesNewRomanPSMT;font-size:11.04px;stroke:none;"> </text>
  </g>
  <g begin="text">
   <text y="318.05" x="516.72" svgx:width="0.25" style="fill:rgb(0,0,0);font-family:TimesNewRomanPS-BoldMT;font-size:11.04px;stroke:none;"> </text>
  </g>
  <g begin="text">
   <text y="318.05" x="48.48" svgx:width="0.5" style="fill:rgb(0,0,0);font-family:TimesNewRomanPSMT;font-size:11.04px;stroke:none;">1</text>
  </g>
  <g begin="text">
   <text y="318.05" x="54.024" svgx:width="0.25" style="fill:rgb(0,0,0);font-family:TimesNewRomanPSMT;font-size:11.04px;stroke:none;"> </text>
  </g>
  <g begin="text">
   <text y="340.73" x="93.504,99.609,102.378,107.398,112.936,117.358,121.78,124.31,129.34,131.85,136.88" svgx:width="0.61,0.28,0.5,0.56,0.44,0.44,0.25,0.5,0.25,0.5,0.25" style="fill:rgb(0,0,0);font-family:TimesNewRomanPS-BoldMT;font-size:9.96px;stroke:none;">Figure 7.1 </text>
  </g>
  <g begin="text">
   <text y="340.73" x="139.46,146.064,148.832,154.37,159.978,165.007,170.037,174.459,176.989,182.527,186.949" svgx:width="0.67,0.28,0.56,0.56,0.5,0.5,0.44,0.25,0.56,0.44,0.33" style="fill:rgb(0,0,0);font-family:TimesNewRomanPS-BoldMT;font-size:9.96px;stroke:none;">Linkage bet</text>
  </g>
  <g begin="text">
   <text y="340.73" x="190.37,197.561,201.983,206.436,211.973,214.354,221.545,227.083,232.102,237.64,240.957,245.409,249.831,252.361,257.391,259.901,264.931,270.468,275.966,278.476,283.506,286.853,292.39,296.813,301.235,303.765,308.187,313.725,318.754,324.292,327.609,332.061,336.483,340.358,342.848,350.039,352.808,356.174,361.712,364.481,369.979,372.489,375.835,381.373,384.221,388.066,390.576,394.998,399.45,404.988,409.998,414.42,417.787,420.297,425.326,429.171,431.681,438.872,443.294,446.063,448.832,451.352,456.382,460.226" svgx:width="0.72,0.44,0.44,0.56,0.25,0.72,0.56,0.5,0.56,0.33,0.44,0.44,0.25,0.5,0.25,0.5,0.56,0.56,0.25,0.5,0.33,0.56,0.44,0.44,0.25,0.44,0.56,0.5,0.56,0.33,0.44,0.44,0.39,0.25,0.72,0.28,0.33,0.56,0.28,0.56,0.25,0.33,0.56,0.28,0.39,0.25,0.44,0.44,0.56,0.5,0.44,0.33,0.25,0.5,0.39,0.25,0.72,0.44,0.28,0.28,0.25,0.5,0.39,0.25" style="fill:rgb(0,0,0);font-family:TimesNewRomanPS-BoldMT;font-size:9.96px;stroke:none;">ween Chapter 7 and other chapters within this report as well as </text>
  </g>
  <g begin="text">
   <text y="340.73" x="463.06,466.407,471.436" svgx:width="0.33,0.5,0.25" style="fill:rgb(0,0,0);font-family:TimesNewRomanPS-BoldMT;font-size:9.96px;stroke:none;">to </text>
  </g>
  <g begin="text">
   <text y="340.73" x="473.98,483.94,491.729,495.573" svgx:width="1.0,0.78,0.39,0.39" style="fill:rgb(0,0,0);font-family:TimesNewRomanPS-BoldMT;font-size:9.96px;stroke:none;">WGII</text>
  </g>
  <g begin="text">
   <text y="340.73" x="499.42,501.94" svgx:width="0.25,0.25" style="fill:rgb(0,0,0);font-family:TimesNewRomanPSMT;font-size:9.96px;stroke:none;">. </text>
  </g>
  <g begin="text">
   <text y="340.73" x="48.48" svgx:width="0.5" style="fill:rgb(0,0,0);font-family:TimesNewRomanPSMT;font-size:11.04px;stroke:none;">2</text>
  </g>
  <g begin="text">
   <text y="340.73" x="54.024" svgx:width="0.25" style="fill:rgb(0,0,0);font-family:TimesNewRomanPSMT;font-size:11.04px;stroke:none;"> </text>
  </g>
  <g begin="text">
   <text y="353.33" x="78.624,87.986,90.755,94.092,96.861,101.881,106.91,110.257,113.026,118.046,123.583,126.073,131.611,136.631,139.978,144.4,149.938,153.284,156.053,161.073,163.842,166.332,170.784,174.628,177.975,180.744,189.12,194.15,197.387,201.809,205.684,208.174,210.943,216.48,218.97,222.337,227.875,230.644,234.458,236.968,241.39,246.928,251.958,257.496,260.812,265.264,269.687,272.217,276.639,281.689,287.226,291.16,293.929,299.467,303.889,308.312,310.831,316.459,321.489,324.835,329.257,334.795,338.142,340.911,345.931,348.699,351.189,355.642,364.028,366.797,370.631,374.476,377.245,382.265,387.802,390.292,394.735,399.157,404.695,410.232,414.655,418.001,420.77,425.79,431.328,435.152,437.782,442.812,448.349,453.847,456.357,460.779,465.231,473.618,478.648,483.677,488.707,491.476,495.311,497.821,502.85,508.388,511.157,516.157" svgx:width="0.94,0.28,0.33,0.28,0.5,0.5,0.33,0.28,0.5,0.56,0.25,0.56,0.5,0.33,0.44,0.56,0.33,0.28,0.5,0.28,0.25,0.44,0.39,0.33,0.28,0.83,0.5,0.33,0.44,0.39,0.25,0.28,0.56,0.25,0.33,0.56,0.28,0.39,0.25,0.44,0.56,0.5,0.56,0.33,0.44,0.44,0.25,0.44,0.5,0.56,0.39,0.28,0.56,0.44,0.44,0.25,0.56,0.5,0.33,0.44,0.56,0.33,0.28,0.5,0.28,0.25,0.44,0.83,0.28,0.39,0.39,0.28,0.5,0.56,0.25,0.44,0.44,0.56,0.56,0.44,0.33,0.28,0.5,0.56,0.39,0.25,0.5,0.56,0.56,0.25,0.44,0.44,0.83,0.5,0.5,0.5,0.28,0.39,0.25,0.5,0.56,0.28,0.5,0.25" style="fill:rgb(0,0,0);font-family:TimesNewRomanPS-BoldMT;font-size:9.96px;stroke:none;">Mitigation potential estimates in this chapter consider potential emission reductions and removals only </text>
  </g>
  <g begin="text">
   <text y="353.33" x="48.48" svgx:width="0.5" style="fill:rgb(0,0,0);font-family:TimesNewRomanPSMT;font-size:11.04px;stroke:none;">3</text>
  </g>
  <g begin="text">
   <text y="353.33" x="54.024" svgx:width="0.25" style="fill:rgb(0,0,0);font-family:TimesNewRomanPSMT;font-size:11.04px;stroke:none;"> </text>
  </g>
  <g begin="text">
   <text y="366.05" x="78.504,85.695,88.464,91.811,97.348,100.117,105.615,108.125,111.472,117.009,121.432,123.942,131.133,137.248,145.037,151.64,158.831,161.471,165.315,169.738,174.19,177.536,182.566,186.988,189.518,192.287,195.624,199.468,203.89,206.659,210.016,212.526,215.036,220.065,225.603,231.101,233.611,239.149,244.159,247.505,250.015,253.362,258.9,263.322,265.832,269.676,275.214,280.712,284.556,287.903,290.672,294.009,299.546,302.863,305.632,310.682,316.219,318.829,323.251,326.618,329.964,334.386,338.839,342.185,346.03,348.54,351.886,356.308,361.249,369.635,372.145,377.683,380.451,385.451,393.748,398.758,402.603,406.447,408.957" svgx:width="0.72,0.28,0.33,0.56,0.28,0.56,0.25,0.33,0.56,0.44,0.25,0.72,0.61,0.78,0.67,0.72,0.25,0.39,0.44,0.44,0.33,0.5,0.44,0.25,0.28,0.33,0.39,0.44,0.28,0.33,0.25,0.25,0.5,0.56,0.56,0.25,0.56,0.5,0.33,0.25,0.33,0.56,0.44,0.25,0.39,0.56,0.56,0.39,0.33,0.28,0.33,0.56,0.33,0.28,0.5,0.56,0.25,0.44,0.33,0.33,0.44,0.44,0.33,0.39,0.25,0.33,0.44,0.5,0.83,0.25,0.56,0.28,0.5,0.83,0.5,0.39,0.39,0.25,0.5" style="fill:rgb(0,0,0);font-family:TimesNewRomanPS-BoldMT;font-size:9.96px;stroke:none;">within the AFOLU sector itself, and not the substitution effects from biomass a</text>
  </g>
  <g begin="text">
   <text y="366.05" x="414.46,419.998,425.496,428.006,433.543,436.312,441.432,446.969,451.979,455.824,460.246,465.784,468.294,473.831,478.254,483.284,488.821,494.319,498.741,502.227,506.072,508.582,511.351,516.889" svgx:width="0.56,0.56,0.25,0.56,0.28,0.5,0.56,0.5,0.39,0.44,0.56,0.25,0.56,0.44,0.5,0.56,0.56,0.44,0.33,0.39,0.25,0.28,0.56,0.25" style="fill:rgb(0,0,0);font-family:TimesNewRomanPS-BoldMT;font-size:9.96px;stroke:none;">nd biobased products in </text>
  </g>
  <g begin="text">
   <text y="366.05" x="48.48" svgx:width="0.5" style="fill:rgb(0,0,0);font-family:TimesNewRomanPSMT;font-size:11.04px;stroke:none;">4</text>
  </g>
  <g begin="text">
   <text y="366.05" x="54.024" svgx:width="0.25" style="fill:rgb(0,0,0);font-family:TimesNewRomanPSMT;font-size:11.04px;stroke:none;"> </text>
  </g>
  <g begin="text">
   <text y="378.65" x="81.624,85.469,89.891,94.343,97.69,102.719,107.142,111.016,113.506,117.38,122.878,127.301,132.838,135.348,140.378,144.223,146.852,153.456,158.993,163.416,167.838,172.888,177.917,180.427,182.937,189.541,193.963,199.013,204.55,208.375,213.913,218.923,223.345,226.711,229.221,231.731,235.576,241.114,246.721,252.259,256.083,259.43,263.852,268.902,271.412,273.922,280.525,286.063,288.832,291.671,297.208,299.977,305.475,310.505,314.349,316.859,319.489,325.027,330.036,334.459,336.989,342.526,345.295,350.295,355.833,361.331,366.361,370.205,372.974,377.396,382.436,385.205,387.695,392.147,395.494,398.84,403.262,407.715,411.061,414.906,417.416,422.445,425.792,428.302,432.724,435.254,440.174,442.684,445.194,449.616,454.666,459.696,462.465,465.234,470.731,475.761,478.271,483.301,486.538,489.048,493.47,496.239,499.596,502.364,506.787,510.661" svgx:width="0.39,0.44,0.44,0.33,0.5,0.44,0.39,0.25,0.39,0.56,0.44,0.56,0.25,0.5,0.39,0.25,0.67,0.56,0.44,0.44,0.5,0.5,0.25,0.25,0.67,0.44,0.5,0.56,0.39,0.56,0.5,0.44,0.33,0.25,0.25,0.39,0.56,0.56,0.56,0.39,0.33,0.44,0.5,0.25,0.25,0.67,0.56,0.28,0.28,0.56,0.28,0.56,0.5,0.39,0.25,0.25,0.56,0.5,0.44,0.25,0.56,0.28,0.5,0.56,0.56,0.5,0.39,0.28,0.44,0.5,0.28,0.25,0.44,0.33,0.33,0.44,0.44,0.33,0.39,0.25,0.5,0.33,0.25,0.44,0.25,0.5,0.25,0.25,0.44,0.5,0.5,0.28,0.28,0.56,0.5,0.25,0.5,0.33,0.25,0.44,0.28,0.33,0.28,0.44,0.39,0.25" style="fill:rgb(0,0,0);font-family:TimesNewRomanPS-BoldMT;font-size:9.96px;stroke:none;">sectors such as Energy, Transport, Industry, Buildings, nor biophysical effects of e.g. cooling of cities.</text>
  </g>
  <g begin="text">
   <text y="378.65" x="513.72" svgx:width="0.25" style="fill:rgb(0,0,0);font-family:TimesNewRomanPS-BoldMT;font-size:9.96px;stroke:none;"> </text>
  </g>
  <g begin="text">
   <text y="378.65" x="48.48" svgx:width="0.5" style="fill:rgb(0,0,0);font-family:TimesNewRomanPSMT;font-size:11.04px;stroke:none;">5</text>
  </g>
  <g begin="text">
   <text y="378.65" x="54.024" svgx:width="0.25" style="fill:rgb(0,0,0);font-family:TimesNewRomanPSMT;font-size:11.04px;stroke:none;"> </text>
  </g>
  <g begin="text">
   <text y="391.39" x="198.65,205.254,210.791,215.214,219.058,223.48,226.01,231.04,235.462,239.914,242.424,246.846,251.896,256.926,261.348,265.8,270.223,275.76,278.27,281.039,286.577,289.067,292.423,297.961,302.383,305.152,309.575,312.094,316.517,321.088,324.933,330.471,334.893,339.315,342.682,345.45,350.47,354.893,357.422,361.845,367.382,372.412,377.95,381.267,385.719,390.141,394.015" svgx:width="0.67,0.56,0.44,0.39,0.44,0.25,0.5,0.44,0.44,0.25,0.44,0.5,0.5,0.44,0.44,0.44,0.56,0.25,0.28,0.56,0.25,0.33,0.56,0.44,0.28,0.44,0.25,0.44,0.44,0.39,0.56,0.44,0.44,0.33,0.28,0.5,0.44,0.25,0.44,0.56,0.5,0.56,0.33,0.44,0.44,0.39,0.25" style="fill:rgb(0,0,0);font-family:TimesNewRomanPS-BoldMT;font-size:9.96px;stroke:none;">These are covered in their respective chapters.</text>
  </g>
  <g begin="text">
   <text y="391.39" x="396.82" svgx:width="0.25" style="fill:rgb(0,0,0);font-family:TimesNewRomanPS-BoldMT;font-size:9.96px;stroke:none;"> </text>
  </g>
  <g begin="text">
   <text y="391.39" x="48.48" svgx:width="0.5" style="fill:rgb(0,0,0);font-family:TimesNewRomanPSMT;font-size:11.04px;stroke:none;">6</text>
  </g>
  <g begin="text">
   <text y="391.39" x="54.024" svgx:width="0.25" style="fill:rgb(0,0,0);font-family:TimesNewRomanPSMT;font-size:11.04px;stroke:none;"> </text>
  </g>
  <g begin="text">
   <text y="414.91" x="72.024" svgx:width="0.25" style="fill:rgb(0,0,0);font-family:TimesNewRomanPSMT;font-size:11.04px;stroke:none;"> </text>
  </g>
  <g begin="text">
   <text y="414.91" x="48.48" svgx:width="0.5" style="fill:rgb(0,0,0);font-family:TimesNewRomanPSMT;font-size:11.04px;stroke:none;">7</text>
  </g>
  <g begin="text">
   <text y="414.91" x="54.024" svgx:width="0.25" style="fill:rgb(0,0,0);font-family:TimesNewRomanPSMT;font-size:11.04px;stroke:none;"> </text>
  </g>
  <g begin="text">
   <text y="678.1" x="522.72" svgx:width="0.25" style="fill:rgb(0,0,0);font-family:TimesNewRomanPS-BoldMT;font-size:11.04px;stroke:none;"> </text>
  </g>
  <g begin="text">
   <text y="678.1" x="48.48" svgx:width="0.5" style="fill:rgb(0,0,0);font-family:TimesNewRomanPSMT;font-size:11.04px;stroke:none;">8</text>
  </g>
  <g begin="text">
   <text y="678.1" x="54.024" svgx:width="0.25" style="fill:rgb(0,0,0);font-family:TimesNewRomanPSMT;font-size:11.04px;stroke:none;"> </text>
  </g>
  <g begin="text">
   <text y="700.66" x="73.344,79.449,82.218,87.238,92.776,97.198,101.62,104.15,109.18,111.69,116.72" svgx:width="0.61,0.28,0.5,0.56,0.44,0.44,0.25,0.5,0.25,0.5,0.25" style="fill:rgb(0,0,0);font-family:TimesNewRomanPS-BoldMT;font-size:9.96px;stroke:none;">Figure 7.2 </text>
  </g>
  <g begin="text">
   <text y="700.66" x="119.3,124.838,130.336,138.632,147.009,152.038,156.461,159.23,163.104,167.526,173.064,175.554,179.976,184.428,189.966,194.388,198.811,202.685,207.107,212.645,215.962,221.021,224.368,227.137,232.157,237.695,240.185,245.224,248.571,251.081,253.85,259.387,262.704,267.146,271.569,276.618,281.04,284.407,287.176,292.196,297.733,301.558,304.068,309.606,314.028,317.375,324.566,328.988,333.44,338.978,341.468,344.237,349.266,354.804,360.302,362.812,371.198,376.228,381.766,386.776,391.806,396.228,404.634,409.056,414.594,417.941,420.341,422.851,425.62,428.956,432.801,435.311,440.849,445.271,450.301,455.838,461.336,465.759,469.125,472.97,475.48,478.248,483.786,486.276,489.633,494.055,498.507,506.893,510.738,513.248,518.278,521.624" svgx:width="0.56,0.56,0.83,0.83,0.5,0.44,0.28,0.39,0.44,0.56,0.25,0.44,0.44,0.56,0.44,0.44,0.39,0.44,0.56,0.33,0.5,0.33,0.28,0.5,0.56,0.25,0.5,0.33,0.25,0.28,0.56,0.33,0.44,0.44,0.5,0.44,0.33,0.28,0.5,0.56,0.39,0.25,0.56,0.44,0.33,0.72,0.44,0.44,0.56,0.25,0.28,0.5,0.56,0.56,0.25,0.83,0.5,0.56,0.5,0.5,0.44,0.83,0.44,0.56,0.33,0.25,0.25,0.28,0.33,0.39,0.25,0.56,0.44,0.5,0.56,0.56,0.44,0.33,0.39,0.25,0.28,0.56,0.25,0.33,0.44,0.44,0.83,0.39,0.25,0.5,0.33,0.25" style="fill:rgb(0,0,0);font-family:TimesNewRomanPS-BoldMT;font-size:9.96px;stroke:none;">Summarised representation of interactions between land management, its products in terms of </text>
  </g>
  <g begin="text">
   <text y="700.66" x="48.48" svgx:width="0.5" style="fill:rgb(0,0,0);font-family:TimesNewRomanPSMT;font-size:11.04px;stroke:none;">9</text>
  </g>
  <g begin="text">
   <text y="700.66" x="54.024" svgx:width="0.25" style="fill:rgb(0,0,0);font-family:TimesNewRomanPSMT;font-size:11.04px;stroke:none;"> </text>
  </g>
  <g begin="text">
   <text y="713.4" x="74.664,78.011,83.04,88.07,93.608,96.098,101.138,106.675,112.173,114.683,118.03,120.799,126.336,130.759,135.181,137.701,140.211,145.241,150.778,156.276,158.786,161.555,166.575,172.113,177.611" svgx:width="0.33,0.5,0.5,0.56,0.25,0.5,0.56,0.56,0.25,0.33,0.28,0.56,0.44,0.44,0.25,0.25,0.5,0.56,0.56,0.25,0.28,0.5,0.56,0.56,0.25" style="fill:rgb(0,0,0);font-family:TimesNewRomanPS-BoldMT;font-size:9.96px;stroke:none;">food and fibre, and land </text>
  </g>
  <g begin="text">
   <text y="713.4" x="180.29" svgx:width="0.33" style="fill:rgb(0,0,0);font-family:TimesNewRomanPS-BoldMT;font-size:9.96px;stroke:none;">-</text>
  </g>
  <g begin="text">
   <text y="713.4" x="183.65" svgx:width="0.25" style="fill:rgb(0,0,0);font-family:TimesNewRomanPS-BoldMT;font-size:9.96px;stroke:none;"> </text>
  </g>
  <g begin="text">
   <text y="713.4" x="186.17,191.2,194.437,202.823,207.853,211.697,217.235,222.733,227.155,231.608,234.376,238.799" svgx:width="0.5,0.33,0.83,0.5,0.39,0.56,0.56,0.44,0.44,0.28,0.44,0.25" style="fill:rgb(0,0,0);font-family:TimesNewRomanPS-BoldMT;font-size:9.96px;stroke:none;">atmospheric </text>
  </g>
  <g begin="text">
   <text y="713.4" x="241.37,249.17,256.97" svgx:width="0.78,0.78,0.78" style="fill:rgb(0,0,0);font-family:TimesNewRomanPS-BoldMT;font-size:9.96px;stroke:none;">GHG</text>
  </g>
  <g begin="text">
   <text y="713.4" x="264.77" svgx:width="0.25" style="fill:rgb(0,0,0);font-family:TimesNewRomanPS-BoldMT;font-size:9.96px;stroke:none;"> </text>
  </g>
  <g begin="text">
   <text y="713.4" x="267.29,270.637,273.405,278.943,283.943,288.365" svgx:width="0.33,0.28,0.56,0.5,0.44,0.39" style="fill:rgb(0,0,0);font-family:TimesNewRomanPS-BoldMT;font-size:9.96px;stroke:none;">fluxes</text>
  </g>
  <g begin="text">
   <text y="713.4" x="292.27,294.78,297.29,303.395,308.425,312.847,315.268,318.036,322.459,327.499,330.267,335.805,338.534,341.303,344.072,347.389,352.448,354.958,359.381,363.833,368.862,372.707,377.737,383.275,387.099,389.609,394.639,400.177,402.946,407.946,410.455,415.485,417.995,421.342,425.764,432.955,435.385,440.415,443.762,446.272,449.618,455.156,459.578,462.088,467.626,472.048,477.078,481.5,485.952,489.797,493.641,498.064,501.938,504.428,509.468,515.005,520.503" svgx:width="0.25,0.25,0.61,0.5,0.44,0.25,0.28,0.44,0.5,0.28,0.56,0.28,0.28,0.28,0.33,0.5,0.25,0.44,0.44,0.5,0.39,0.5,0.56,0.39,0.25,0.5,0.56,0.28,0.5,0.25,0.5,0.25,0.33,0.44,0.72,0.25,0.5,0.33,0.25,0.33,0.56,0.44,0.25,0.56,0.44,0.5,0.44,0.44,0.39,0.39,0.44,0.39,0.25,0.5,0.56,0.56,0.25" style="fill:rgb(0,0,0);font-family:TimesNewRomanPS-BoldMT;font-size:9.96px;stroke:none;">. For legibility reasons only a few of the processes and </text>
  </g>
  <g begin="text">
   <text y="713.4" x="42.96,48.48" svgx:width="0.5,0.5" style="fill:rgb(0,0,0);font-family:TimesNewRomanPSMT;font-size:11.04px;stroke:none;">10</text>
  </g>
  <g begin="text">
   <text y="713.4" x="54.024" svgx:width="0.25" style="fill:rgb(0,0,0);font-family:TimesNewRomanPSMT;font-size:11.04px;stroke:none;"> </text>
  </g>
  <g begin="text">
   <text y="726.0" x="220.25,228.636,233.666,239.204,244.214,249.244,253.566,261.953,266.375,271.913,275.259,277.769,286.155,290.478,295.508" svgx:width="0.83,0.5,0.56,0.5,0.5,0.44,0.83,0.44,0.56,0.33,0.25,0.83,0.44,0.5,0.39" style="fill:rgb(0,0,0);font-family:TimesNewRomanPS-BoldMT;font-size:9.96px;stroke:none;">management meas</text>
  </g>
  <g begin="text">
   <text y="726.0" x="299.47,305.008,309.43,313.852,317.727,320.217,325.257,329.679,334.131,336.641,342.178,346.601,352.138,354.907,359.33,362.666,367.088,372.626,375.136" svgx:width="0.56,0.44,0.44,0.39,0.25,0.5,0.44,0.44,0.25,0.56,0.44,0.56,0.28,0.44,0.33,0.44,0.56,0.25,0.25" style="fill:rgb(0,0,0);font-family:TimesNewRomanPS-BoldMT;font-size:9.96px;stroke:none;">ures are depicted. </text>
  </g>
  <g begin="text">
   <text y="726.0" x="377.71" svgx:width="0.25" style="fill:rgb(0,0,0);font-family:TimesNewRomanPS-BoldMT;font-size:12.0px;stroke:none;"> </text>
  </g>
  <g begin="text">
   <text y="726.0" x="42.96,48.48" svgx:width="0.5,0.5" style="fill:rgb(0,0,0);font-family:TimesNewRomanPSMT;font-size:11.04px;stroke:none;">11</text>
  </g>
  <g begin="text">
   <text y="726.0" x="54.024" svgx:width="0.25" style="fill:rgb(0,0,0);font-family:TimesNewRomanPSMT;font-size:11.04px;stroke:none;"> </text>
  </g>
  <rect style="fill:pink;opacity:0.2;stroke:blue;stroke-width:0.3;" x="78.65" y="30.08" height="246.05" width="437.48" title="11"/>
  <text y="30.08" class="image" id="image.11.1" width="437" height="246" x="78.65" style="font-size:5.0px;">image.11.1.79_516.30_276</text>
  <rect style="fill:pink;opacity:0.2;stroke:blue;stroke-width:0.3;" x="72.65" y="382.55" height="252.85" width="449.51" title="11"/>
  <text y="382.55" class="image" id="image.11.2" width="449" height="252" x="72.65" style="font-size:5.0px;">image.11.2.73_522.383_635</text>
  <g begin="text">
   <text y="602.109" transform="matrix(0.70711,-0.70711,0.70711,0.70711,-395.12956,250.29085)" rotateDegrees="-45" matrix="[29.803345,29.803345,-29.803345,29.803345,104.563255,239.8115]" x="104.563" svgx:width="0.67" style="fill:rgb(0,0,0);font-family:Arial;font-size:42.15px;stroke:none;">A</text>
   <text y="582.23" transform="matrix(0.70711,-0.70711,0.70711,0.70711,-375.25056,258.525)" rotateDegrees="-45" matrix="[29.803345,29.803345,-29.803345,29.803345,124.442085,259.6903]" x="124.442" svgx:width="0.72" style="fill:rgb(0,0,0);font-family:Arial;font-size:42.15px;stroke:none;">C</text>
   <text y="560.712" transform="matrix(0.70711,-0.70711,0.70711,0.70711,-353.73256,267.43805)" rotateDegrees="-45" matrix="[29.803345,29.803345,-29.803345,29.803345,145.9601,281.20834]" x="145.96" svgx:width="0.72" style="fill:rgb(0,0,0);font-family:Arial;font-size:42.15px;stroke:none;">C</text>
   <text y="539.194" transform="matrix(0.70711,-0.70711,0.70711,0.70711,-332.21456,276.3511)" rotateDegrees="-45" matrix="[29.803345,29.803345,-29.803345,29.803345,167.47812,302.72635]" x="167.478" svgx:width="0.67" style="fill:rgb(0,0,0);font-family:Arial;font-size:42.15px;stroke:none;">E</text>
   <text y="519.315" transform="matrix(0.70711,-0.70711,0.70711,0.70711,-312.33556,284.58525)" rotateDegrees="-45" matrix="[29.803345,29.803345,-29.803345,29.803345,187.35693,322.60516]" x="187.357" svgx:width="0.67" style="fill:rgb(0,0,0);font-family:Arial;font-size:42.15px;stroke:none;">P</text>
   <text y="499.436" transform="matrix(0.70711,-0.70711,0.70711,0.70711,-292.45656,292.8194)" rotateDegrees="-45" matrix="[29.803345,29.803345,-29.803345,29.803345,207.23578,342.484]" x="207.236" svgx:width="0.61" style="fill:rgb(0,0,0);font-family:Arial;font-size:42.15px;stroke:none;">T</text>
   <text y="481.226" transform="matrix(0.70711,-0.70711,0.70711,0.70711,-274.24656,300.36223)" rotateDegrees="-45" matrix="[29.803345,29.803345,-29.803345,29.803345,225.44562,360.69385]" x="225.446" svgx:width="0.67" style="fill:rgb(0,0,0);font-family:Arial;font-size:42.15px;stroke:none;">E</text>
   <text y="461.347" transform="matrix(0.70711,-0.70711,0.70711,0.70711,-254.36786,308.59567)" rotateDegrees="-45" matrix="[29.803345,29.803345,-29.803345,29.803345,245.32443,380.57266]" x="245.324" svgx:width="0.72" style="fill:rgb(0,0,0);font-family:Arial;font-size:42.15px;stroke:none;">D</text>
   <text y="439.829" transform="matrix(0.70711,-0.70711,0.70711,0.70711,-232.84986,317.50872)" rotateDegrees="-45" matrix="[29.803345,29.803345,-29.803345,29.803345,266.84247,402.0907]" x="266.842" svgx:width="0.28" style="fill:rgb(0,0,0);font-family:Arial;font-size:42.15px;stroke:none;"> </text>
   <text y="431.54" transform="matrix(0.70711,-0.70711,0.70711,0.70711,-224.56056,320.94284)" rotateDegrees="-45" matrix="[29.803345,29.803345,-29.803345,29.803345,275.13153,410.37976]" x="275.132" svgx:width="0.67" style="fill:rgb(0,0,0);font-family:Arial;font-size:42.15px;stroke:none;">V</text>
   <text y="411.661" transform="matrix(0.70711,-0.70711,0.70711,0.70711,-204.68186,329.17629)" rotateDegrees="-45" matrix="[29.803345,29.803345,-29.803345,29.803345,295.0103,430.25858]" x="295.01" svgx:width="0.67" style="fill:rgb(0,0,0);font-family:Arial;font-size:42.15px;stroke:none;">E</text>
   <text y="391.783" transform="matrix(0.70711,-0.70711,0.70711,0.70711,-184.80356,337.41073)" rotateDegrees="-45" matrix="[29.803345,29.803345,-29.803345,29.803345,314.88916,450.1374]" x="314.889" svgx:width="0.72" style="fill:rgb(0,0,0);font-family:Arial;font-size:42.15px;stroke:none;">R</text>
   <text y="370.265" transform="matrix(0.70711,-0.70711,0.70711,0.70711,-163.28556,346.32378)" rotateDegrees="-45" matrix="[29.803345,29.803345,-29.803345,29.803345,336.40717,471.65543]" x="336.407" svgx:width="0.67" style="fill:rgb(0,0,0);font-family:Arial;font-size:42.15px;stroke:none;">S</text>
   <text y="350.386" transform="matrix(0.70711,-0.70711,0.70711,0.70711,-143.40656,354.55793)" rotateDegrees="-45" matrix="[29.803345,29.803345,-29.803345,29.803345,356.286,491.53424]" x="356.286" svgx:width="0.28" style="fill:rgb(0,0,0);font-family:Arial;font-size:42.15px;stroke:none;">I</text>
   <text y="342.1" transform="matrix(0.70711,-0.70711,0.70711,0.70711,-135.12086,357.9894)" rotateDegrees="-45" matrix="[29.803345,29.803345,-29.803345,29.803345,364.57135,499.81958]" x="364.571" svgx:width="0.78" style="fill:rgb(0,0,0);font-family:Arial;font-size:42.15px;stroke:none;">O</text>
   <text y="318.913" transform="matrix(0.70711,-0.70711,0.70711,0.70711,-111.93386,367.59377)" rotateDegrees="-45" matrix="[29.803345,29.803345,-29.803345,29.803345,387.7583,523.0066]" x="387.758" svgx:width="0.72" style="fill:rgb(0,0,0);font-family:Arial;font-size:42.15px;stroke:none;">N</text>
   <text y="297.395" transform="matrix(0.70711,-0.70711,0.70711,0.70711,-90.41586,376.50681)" rotateDegrees="-45" matrix="[29.803345,29.803345,-29.803345,29.803345,409.27637,544.5246]" x="409.276" svgx:width="0.28" style="fill:rgb(0,0,0);font-family:Arial;font-size:42.15px;stroke:none;"> </text>
   <text y="637.872" transform="matrix(0.70711,-0.70711,0.70711,0.70711,-409.94279,286.05456)" rotateDegrees="-45" matrix="[29.803345,29.803345,-29.803345,29.803345,140.32727,204.04747]" x="140.327" svgx:width="0.67" style="fill:rgb(0,0,0);font-family:Arial;font-size:42.15px;stroke:none;">S</text>
   <text y="617.994" transform="matrix(0.70711,-0.70711,0.70711,0.70711,-390.0645,294.289)" rotateDegrees="-45" matrix="[29.803345,29.803345,-29.803345,29.803345,160.2061,223.9263]" x="160.206" svgx:width="0.72" style="fill:rgb(0,0,0);font-family:Arial;font-size:42.15px;stroke:none;">U</text>
   <text y="596.476" transform="matrix(0.70711,-0.70711,0.70711,0.70711,-368.5465,303.20205)" rotateDegrees="-45" matrix="[29.803345,29.803345,-29.803345,29.803345,181.72412,245.4443]" x="181.724" svgx:width="0.67" style="fill:rgb(0,0,0);font-family:Arial;font-size:42.15px;stroke:none;">B</text>
   <text y="576.597" transform="matrix(0.70711,-0.70711,0.70711,0.70711,-348.6675,311.4362)" rotateDegrees="-45" matrix="[29.803345,29.803345,-29.803345,29.803345,201.60294,265.32315]" x="201.603" svgx:width="0.5" style="fill:rgb(0,0,0);font-family:Arial;font-size:42.15px;stroke:none;">J</text>
   <text y="561.695" transform="matrix(0.70711,-0.70711,0.70711,0.70711,-333.7655,317.60881)" rotateDegrees="-45" matrix="[29.803345,29.803345,-29.803345,29.803345,216.50462,280.22482]" x="216.505" svgx:width="0.67" style="fill:rgb(0,0,0);font-family:Arial;font-size:42.15px;stroke:none;">E</text>
   <text y="541.816" transform="matrix(0.70711,-0.70711,0.70711,0.70711,-313.88679,325.84225)" rotateDegrees="-45" matrix="[29.803345,29.803345,-29.803345,29.803345,236.38344,300.10364]" x="236.383" svgx:width="0.72" style="fill:rgb(0,0,0);font-family:Arial;font-size:42.15px;stroke:none;">C</text>
   <text y="520.298" transform="matrix(0.70711,-0.70711,0.70711,0.70711,-292.36879,334.7553)" rotateDegrees="-45" matrix="[29.803345,29.803345,-29.803345,29.803345,257.90146,321.62164]" x="257.901" svgx:width="0.61" style="fill:rgb(0,0,0);font-family:Arial;font-size:42.15px;stroke:none;">T</text>
   <text y="502.089" transform="matrix(0.70711,-0.70711,0.70711,0.70711,-274.1595,342.29842)" rotateDegrees="-45" matrix="[29.803345,29.803345,-29.803345,29.803345,276.1113,339.83148]" x="276.111" svgx:width="0.28" style="fill:rgb(0,0,0);font-family:Arial;font-size:42.15px;stroke:none;"> </text>
   <text y="493.803" transform="matrix(0.70711,-0.70711,0.70711,0.70711,-265.8735,345.7306)" rotateDegrees="-45" matrix="[29.803345,29.803345,-29.803345,29.803345,284.39664,348.11682]" x="284.397" svgx:width="0.61" style="fill:rgb(0,0,0);font-family:Arial;font-size:42.15px;stroke:none;">T</text>
   <text y="475.593" transform="matrix(0.70711,-0.70711,0.70711,0.70711,-247.66379,353.27272)" rotateDegrees="-45" matrix="[29.803345,29.803345,-29.803345,29.803345,302.60648,366.32666]" x="302.606" svgx:width="0.78" style="fill:rgb(0,0,0);font-family:Arial;font-size:42.15px;stroke:none;">O</text>
   <text y="452.406" transform="matrix(0.70711,-0.70711,0.70711,0.70711,-224.47679,362.87709)" rotateDegrees="-45" matrix="[29.803345,29.803345,-29.803345,29.803345,325.79346,389.51367]" x="325.793" svgx:width="0.28" style="fill:rgb(0,0,0);font-family:Arial;font-size:42.15px;stroke:none;"> </text>
   <text y="444.136" transform="matrix(0.70711,-0.70711,0.70711,0.70711,-216.2065,366.30334)" rotateDegrees="-45" matrix="[29.803345,29.803345,-29.803345,29.803345,334.0639,397.78412]" x="334.064" svgx:width="0.61" style="fill:rgb(0,0,0);font-family:Arial;font-size:42.15px;stroke:none;">F</text>
   <text y="425.926" transform="matrix(0.70711,-0.70711,0.70711,0.70711,-197.9965,373.84617)" rotateDegrees="-45" matrix="[29.803345,29.803345,-29.803345,29.803345,352.27374,415.99396]" x="352.274" svgx:width="0.28" style="fill:rgb(0,0,0);font-family:Arial;font-size:42.15px;stroke:none;">I</text>
   <text y="417.641" transform="matrix(0.70711,-0.70711,0.70711,0.70711,-189.7115,377.27793)" rotateDegrees="-45" matrix="[29.803345,29.803345,-29.803345,29.803345,360.55908,424.2793]" x="360.559" svgx:width="0.72" style="fill:rgb(0,0,0);font-family:Arial;font-size:42.15px;stroke:none;">N</text>
   <text y="396.123" transform="matrix(0.70711,-0.70711,0.70711,0.70711,-168.1935,386.19098)" rotateDegrees="-45" matrix="[29.803345,29.803345,-29.803345,29.803345,382.0771,445.7973]" x="382.077" svgx:width="0.67" style="fill:rgb(0,0,0);font-family:Arial;font-size:42.15px;stroke:none;">A</text>
   <text y="376.244" transform="matrix(0.70711,-0.70711,0.70711,0.70711,-148.3145,394.42513)" rotateDegrees="-45" matrix="[29.803345,29.803345,-29.803345,29.803345,401.95593,465.67615]" x="401.956" svgx:width="0.56" style="fill:rgb(0,0,0);font-family:Arial;font-size:42.15px;stroke:none;">L</text>
   <text y="359.673" transform="matrix(0.70711,-0.70711,0.70711,0.70711,-131.7435,401.28906)" rotateDegrees="-45" matrix="[29.803345,29.803345,-29.803345,29.803345,418.5266,482.24677]" x="418.527" svgx:width="0.28" style="fill:rgb(0,0,0);font-family:Arial;font-size:42.15px;stroke:none;"> </text>
   <text y="351.394" transform="matrix(0.70711,-0.70711,0.70711,0.70711,-123.4645,404.71834)" rotateDegrees="-45" matrix="[29.803345,29.803345,-29.803345,29.803345,426.80573,490.52588]" x="426.806" svgx:width="0.67" style="fill:rgb(0,0,0);font-family:Arial;font-size:42.15px;stroke:none;">E</text>
   <text y="331.515" transform="matrix(0.70711,-0.70711,0.70711,0.70711,-103.5855,412.95249)" rotateDegrees="-45" matrix="[29.803345,29.803345,-29.803345,29.803345,446.68457,510.40472]" x="446.685" svgx:width="0.72" style="fill:rgb(0,0,0);font-family:Arial;font-size:42.15px;stroke:none;">D</text>
   <text y="309.997" transform="matrix(0.70711,-0.70711,0.70711,0.70711,-82.0675,421.86554)" rotateDegrees="-45" matrix="[29.803345,29.803345,-29.803345,29.803345,468.2025,531.9227]" x="468.203" svgx:width="0.28" style="fill:rgb(0,0,0);font-family:Arial;font-size:42.15px;stroke:none;">I</text>
   <text y="301.712" transform="matrix(0.70711,-0.70711,0.70711,0.70711,-73.7825,425.29729)" rotateDegrees="-45" matrix="[29.803345,29.803345,-29.803345,29.803345,476.48785,540.20807]" x="476.488" svgx:width="0.61" style="fill:rgb(0,0,0);font-family:Arial;font-size:42.15px;stroke:none;">T</text>
   <text y="283.502" transform="matrix(0.70711,-0.70711,0.70711,0.70711,-55.5725,432.84012)" rotateDegrees="-45" matrix="[29.803345,29.803345,-29.803345,29.803345,494.6977,558.4179]" x="494.698" svgx:width="0.67" style="fill:rgb(0,0,0);font-family:Arial;font-size:42.15px;stroke:none;">S</text>
  </g>
 </g>
</svg>
