<?xml version="1.0" encoding="UTF-8"?>
<svg height="683.74" width="534.46" xmlns="http://www.w3.org/2000/svg">
 <g id="page" xmlns:svgx="http://www.xml-cml.org/schema/svgx">
  <g begin="text">
   <text y="84.18" x="149.34,162.0,170.941,174.114,177.833,181.551,185.27,188.443,194.323,201.824,209.384,214.245,219.225,222.65,230.143,237.636,242.497,245.922,253.423,260.916,264.089,269.01,276.51,279.684,284.543,292.037,299.055,302.228,308.827,312.252,318.671,323.591,331.084,334.258,342.716,348.295,353.874,360.892,366.473,372.053,383.512,390.53,398.023,402.883,406.056,413.913,420.931,428.491,435.992,441.031,445.982" svgx:width="0.91,0.64,0.23,0.27,0.27,0.27,0.23,0.42,0.54,0.54,0.35,0.35,0.25,0.54,0.54,0.35,0.25,0.54,0.54,0.23,0.35,0.54,0.23,0.35,0.54,0.5,0.23,0.47,0.25,0.46,0.35,0.54,0.23,0.61,0.4,0.4,0.5,0.4,0.4,0.81,0.5,0.54,0.35,0.23,0.56,0.5,0.54,0.54,0.35,0.35,0.23" style="fill:rgb(0,0,0);font-family:Calibri-Bold;font-size:13.98px;stroke:none;">WG III contribution to the Sixth Assessment Report </text>
   <text y="99.36" x="205.44,210.54,213.48,218.28,222.42,225.12,231.6,235.38,238.08,243.12,249.6,253.86,258.12,261.06,266.7,272.76,279.18,285.6,291.54,294.24,298.38,304.86,307.56,313.981,320.041,322.741,325.741,335.521,341.941,344.881,350.941,360.721,366.781,373.201,377.341,383.401,389.82" svgx:width="0.42,0.25,0.4,0.35,0.23,0.54,0.32,0.23,0.42,0.54,0.35,0.35,0.25,0.47,0.5,0.54,0.54,0.49,0.23,0.35,0.54,0.23,0.54,0.5,0.23,0.25,0.81,0.54,0.25,0.5,0.81,0.5,0.54,0.35,0.5,0.54,0.23" style="fill:rgb(0,0,0);font-family:Calibri-Bold;font-size:12.0px;stroke:none;">List of corrigenda to be implemented </text>
   <text y="112.92" x="94.92,101.64,107.756,113.871,116.935,122.456,128.572,132.232,135.892,138.351,144.467,150.527,156.643,162.759,168.875,171.938,174.398,176.858,182.378,185.441,191.557,197.673,200.736,206.796,212.912,215.372,221.488,229.407,232.471,240.391,242.85,245.31,247.77,250.834,256.95,263.066,266.065,268.525,277.645,283.761,286.22,292.336,301.456,307.572,313.688,316.751,322.932,329.048,332.111,334.571,340.686,343.75,346.813,352.929,359.045,362.108,370.028,376.144,382.26,388.376,391.439,397.555,401.215,404.278,410.394,416.51,420.169,422.63,428.746,434.862,437.925,443.385,449.501,455.617,461.224,464.88,470.996,477.112,479.571,482.635,485.094,491.21,497.326,500.345" svgx:width="0.61,0.56,0.56,0.28,0.5,0.56,0.33,0.33,0.22,0.56,0.56,0.56,0.56,0.56,0.28,0.22,0.22,0.5,0.28,0.56,0.56,0.28,0.56,0.56,0.22,0.56,0.72,0.28,0.72,0.22,0.22,0.22,0.28,0.56,0.56,0.28,0.22,0.83,0.56,0.22,0.56,0.83,0.56,0.56,0.28,0.56,0.56,0.28,0.22,0.56,0.28,0.28,0.56,0.56,0.28,0.72,0.56,0.56,0.56,0.28,0.56,0.33,0.28,0.56,0.56,0.33,0.22,0.56,0.56,0.28,0.5,0.56,0.56,0.5,0.33,0.56,0.56,0.22,0.28,0.22,0.56,0.56,0.28,0.28" style="fill:rgb(255,0,0);font-family:ArialMT;font-size:10.98px;stroke:none;">The corrigenda listed below will be implemented in the Chapter during copy-editing. </text>
   <text y="125.525" x="297.666" svgx:width="0.28" style="fill:rgb(255,0,0);font-family:ArialMT;font-size:10.98px;stroke:none;"> </text>
   <text y="135.48" x="70.86" svgx:width="0.23" style="fill:rgb(255,0,0);font-family:Calibri;font-size:7.98px;stroke:none;"> </text>
   <text y="150.96" x="70.86,78.241,87.061,95.519,103.02,109.919,116.759,124.616,127.859,134.933" svgx:width="0.53,0.63,0.61,0.53,0.5,0.49,0.56,0.23,0.51,0.23" style="fill:rgb(192,0,0);font-family:Calibri-Bold;font-size:13.98px;stroke:none;">CHAPTER 7 </text>
   <text y="165.24" x="70.86" svgx:width="0.23" style="fill:rgb(0,0,0);font-family:Calibri;font-size:10.98px;stroke:none;"> </text>
  </g>
  <path style="fill:rgb(217,225,242);stroke:none;stroke-width:1.0;" d="M71.340 610.260 L127.560 610.260 L127.560 673.260 L71.340 673.260 L71.340 610.260 "/>
  <path style="fill:rgb(217,225,242);stroke:none;stroke-width:1.0;" d="M76.500 661.020 L122.400 661.020 L122.400 673.260 L76.500 673.260 L76.500 661.020 "/>
  <g begin="text">
   <text y="178.14" x="77.82,84.12,89.52,93.719,99.058,107.215,112.255,117.655,121.074" svgx:width="0.63,0.54,0.42,0.54,0.81,0.5,0.54,0.35,0.23" style="fill:rgb(0,0,0);font-family:Calibri-Bold;font-size:10.02px;stroke:none;">Document </text>
  </g>
  <path style="fill:rgb(217,225,242);stroke:none;stroke-width:1.0;" d="M71.340 610.260 L127.560 610.260 L127.560 673.260 L71.340 673.260 L71.340 610.260 M76.500 648.840 L122.400 648.840 L122.400 661.020 L76.500 661.020 L76.500 648.840 "/>
  <g begin="text">
   <text y="190.38" x="80.04,83.16,88.44,93.841,98.76,104.16,107.637,112.677,116.217,118.797" svgx:width="0.31,0.53,0.54,0.49,0.54,0.35,0.5,0.35,0.26,0.23" style="fill:rgb(0,0,0);font-family:Calibri-Bold;font-size:10.02px;stroke:none;">(Chapter, </text>
  </g>
  <path style="fill:rgb(217,225,242);stroke:none;stroke-width:1.0;" d="M76.500 636.600 L122.400 636.600 L122.400 648.840 L76.500 648.840 L76.500 636.600 "/>
  <g begin="text">
   <text y="202.56" x="84.9,90.96,96.361,101.762,106.742,111.361,113.941" svgx:width="0.61,0.54,0.54,0.5,0.46,0.26,0.23" style="fill:rgb(0,0,0);font-family:Calibri-Bold;font-size:10.02px;stroke:none;">Annex, </text>
  </g>
  <path style="fill:rgb(217,225,242);stroke:none;stroke-width:1.0;" d="M76.500 624.420 L122.400 624.420 L122.400 636.600 L76.500 636.600 L76.500 624.420 "/>
  <g begin="text">
   <text y="214.8" x="87.66,92.4,97.8,103.141,108.541,111.176" svgx:width="0.47,0.54,0.54,0.54,0.27,0.23" style="fill:rgb(0,0,0);font-family:Calibri-Bold;font-size:10.02px;stroke:none;">Supp. </text>
  </g>
  <path style="fill:rgb(217,225,242);stroke:none;stroke-width:1.0;" d="M76.500 612.240 L122.400 612.240 L122.400 624.420 L76.500 624.420 L76.500 612.240 "/>
  <g begin="text">
   <text y="226.98" x="80.1,88.857,93.778,97.255,102.295,105.835,108.295,113.215,115.675,118.797" svgx:width="0.87,0.49,0.35,0.5,0.35,0.25,0.49,0.25,0.31,0.23" style="fill:rgb(0,0,0);font-family:Calibri-Bold;font-size:10.02px;stroke:none;">Material) </text>
  </g>
  <path style="fill:rgb(217,225,242);stroke:none;stroke-width:1.0;" d="M127.800 610.260 L184.260 610.260 L184.260 673.260 L127.800 673.260 L127.800 610.260 "/>
  <path style="fill:rgb(217,225,242);stroke:none;stroke-width:1.0;" d="M133.200 661.020 L179.100 661.020 L179.100 673.260 L133.200 673.260 L133.200 661.020 "/>
  <g begin="text">
   <text y="178.14" x="146.1,151.44,156.359,161.099" svgx:width="0.53,0.49,0.47,0.5" style="fill:rgb(0,0,0);font-family:Calibri-Bold;font-size:10.02px;stroke:none;">Page</text>
  </g>
  <g begin="text">
   <text y="178.14" x="166.14" svgx:width="0.23" style="fill:rgb(0,0,0);font-family:Calibri-Bold;font-size:10.02px;stroke:none;"> </text>
  </g>
  <path style="fill:rgb(217,225,242);stroke:none;stroke-width:1.0;" d="M127.800 610.260 L184.260 610.260 L184.260 673.260 L127.800 673.260 L127.800 610.260 M127.800 610.260 L184.260 610.260 L184.260 673.260 L127.800 673.260 L127.800 610.260 M133.200 648.840 L179.100 648.840 L179.100 661.020 L133.200 661.020 L133.200 648.840 "/>
  <g begin="text">
   <text y="190.38" x="135.6,138.72,144.362,149.281,153.299,158.279,163.68,165.96,171.3,176.701" svgx:width="0.31,0.56,0.49,0.4,0.5,0.54,0.23,0.54,0.54,0.23" style="fill:rgb(0,0,0);font-family:Calibri-Bold;font-size:10.02px;stroke:none;">(Based on </text>
  </g>
  <path style="fill:rgb(217,225,242);stroke:none;stroke-width:1.0;" d="M133.200 636.600 L179.100 636.600 L179.100 648.840 L133.200 648.840 L133.200 636.600 "/>
  <g begin="text">
   <text y="202.56" x="138.84,142.317,147.717,152.757,155.042,158.163,160.622,166.022,170.942,173.402" svgx:width="0.35,0.54,0.5,0.23,0.32,0.25,0.54,0.49,0.25,0.23" style="fill:rgb(0,0,0);font-family:Calibri-Bold;font-size:10.02px;stroke:none;">the final </text>
  </g>
  <path style="fill:rgb(217,225,242);stroke:none;stroke-width:1.0;" d="M133.200 624.420 L179.100 624.420 L179.100 636.600 L133.200 636.600 L133.200 624.420 "/>
  <g begin="text">
   <text y="214.8" x="139.38,144.781,150.182,153.302,155.586,160.206,166.565,172.865" svgx:width="0.54,0.54,0.32,0.23,0.46,0.64,0.63,0.23" style="fill:rgb(0,0,0);font-family:Calibri-Bold;font-size:10.02px;stroke:none;">pdf FGD </text>
  </g>
  <path style="fill:rgb(217,225,242);stroke:none;stroke-width:1.0;" d="M133.200 612.240 L179.100 612.240 L179.100 624.420 L133.200 624.420 L133.200 612.240 "/>
  <g begin="text">
   <text y="226.98" x="139.32,144.059,149.1,152.639,156.659,159.124,164.463,169.863,172.917" svgx:width="0.47,0.5,0.35,0.4,0.25,0.54,0.54,0.31,0.23" style="fill:rgb(0,0,0);font-family:Calibri-Bold;font-size:10.02px;stroke:none;">version) </text>
  </g>
  <path style="fill:rgb(217,225,242);stroke:none;stroke-width:1.0;" d="M184.500 610.260 L240.960 610.260 L240.960 673.260 L184.500 673.260 L184.500 610.260 "/>
  <path style="fill:rgb(217,225,242);stroke:none;stroke-width:1.0;" d="M189.900 661.020 L235.800 661.020 L235.800 673.260 L189.900 673.260 L189.900 661.020 "/>
  <g begin="text">
   <text y="178.14" x="204.3,208.559,211.019,216.42" svgx:width="0.42,0.25,0.54,0.5" style="fill:rgb(0,0,0);font-family:Calibri-Bold;font-size:10.02px;stroke:none;">Line</text>
  </g>
  <g begin="text">
   <text y="178.14" x="221.4" svgx:width="0.23" style="fill:rgb(0,0,0);font-family:Calibri-Bold;font-size:10.02px;stroke:none;"> </text>
  </g>
  <path style="fill:rgb(217,225,242);stroke:none;stroke-width:1.0;" d="M184.500 610.260 L240.960 610.260 L240.960 673.260 L184.500 673.260 L184.500 610.260 M184.500 610.260 L240.960 610.260 L240.960 673.260 L184.500 673.260 L184.500 610.260 "/>
  <g begin="text">
   <text y="178.14" x="292.14,298.44,303.48,306.96,311.879,314.339,316.799,321.839,327.239,329.524,331.923,337.323,340.5,345.9,349.38,357.537,362.456,365.936,368.396,373.797,379.137,381.416,386.756,392.157,394.436,398.575,403.976,407.516,411.055,416.095,420.294,423.774,426.234,431.634,436.974,439.254,442.735,448.074,450.354,458.51,463.43,468.169" svgx:width="0.63,0.5,0.35,0.49,0.25,0.25,0.5,0.54,0.23,0.25,0.54,0.32,0.54,0.35,0.81,0.49,0.35,0.25,0.54,0.54,0.23,0.54,0.54,0.23,0.42,0.54,0.35,0.35,0.5,0.42,0.35,0.25,0.54,0.54,0.23,0.35,0.54,0.23,0.81,0.49,0.48,0.5" style="fill:rgb(0,0,0);font-family:Calibri-Bold;font-size:10.02px;stroke:none;">Detailed information on correction to make</text>
  </g>
  <g begin="text">
   <text y="178.14" x="473.22" svgx:width="0.23" style="fill:rgb(0,0,0);font-family:Calibri-Bold;font-size:10.02px;stroke:none;"> </text>
  </g>
  <path style="fill:rgb(0,0,0);stroke:none;stroke-width:1.0;" d="M70.860 673.260 L71.340 673.260 L71.340 673.740 L70.860 673.740 L70.860 673.260 "/>
  <path style="fill:rgb(0,0,0);stroke:none;stroke-width:1.0;" d="M70.860 673.260 L71.340 673.260 L71.340 673.740 L70.860 673.740 L70.860 673.260 "/>
  <path style="fill:rgb(0,0,0);stroke:none;stroke-width:1.0;" d="M71.340 673.260 L127.560 673.260 L127.560 673.740 L71.340 673.740 L71.340 673.260 "/>
  <path style="fill:rgb(0,0,0);stroke:none;stroke-width:1.0;" d="M127.560 673.260 L128.040 673.260 L128.040 673.740 L127.560 673.740 L127.560 673.260 "/>
  <path style="fill:rgb(0,0,0);stroke:none;stroke-width:1.0;" d="M128.040 673.260 L184.260 673.260 L184.260 673.740 L128.040 673.740 L128.040 673.260 "/>
  <path style="fill:rgb(0,0,0);stroke:none;stroke-width:1.0;" d="M184.260 673.260 L184.740 673.260 L184.740 673.740 L184.260 673.740 L184.260 673.260 "/>
  <path style="fill:rgb(0,0,0);stroke:none;stroke-width:1.0;" d="M184.740 673.260 L240.960 673.260 L240.960 673.740 L184.740 673.740 L184.740 673.260 "/>
  <path style="fill:rgb(0,0,0);stroke:none;stroke-width:1.0;" d="M240.960 673.260 L241.440 673.260 L241.440 673.740 L240.960 673.740 L240.960 673.260 "/>
  <path style="fill:rgb(0,0,0);stroke:none;stroke-width:1.0;" d="M523.980 673.260 L524.460 673.260 L524.460 673.740 L523.980 673.740 L523.980 673.260 "/>
  <path style="fill:rgb(0,0,0);stroke:none;stroke-width:1.0;" d="M523.980 673.260 L524.460 673.260 L524.460 673.740 L523.980 673.740 L523.980 673.260 "/>
  <path style="fill:rgb(0,0,0);stroke:none;stroke-width:1.0;" d="M70.860 610.260 L71.340 610.260 L71.340 673.260 L70.860 673.260 L70.860 610.260 "/>
  <path style="fill:rgb(0,0,0);stroke:none;stroke-width:1.0;" d="M127.560 610.260 L128.040 610.260 L128.040 673.260 L127.560 673.260 L127.560 610.260 "/>
  <path style="fill:rgb(0,0,0);stroke:none;stroke-width:1.0;" d="M184.260 610.260 L184.740 610.260 L184.740 673.260 L184.260 673.260 L184.260 610.260 "/>
  <path style="fill:rgb(0,0,0);stroke:none;stroke-width:1.0;" d="M240.960 610.260 L241.440 610.260 L241.440 673.260 L240.960 673.260 L240.960 610.260 "/>
  <path style="fill:rgb(0,0,0);stroke:none;stroke-width:1.0;" d="M523.980 610.260 L524.460 610.260 L524.460 673.260 L523.980 673.260 L523.980 610.260 "/>
  <g begin="text">
   <text y="241.62" x="76.5,81.841,87.121,91.921,97.201,100.558,105.538,108.958,111.242" svgx:width="0.53,0.52,0.48,0.52,0.34,0.5,0.35,0.23,0.51" style="fill:rgb(0,0,0);font-family:Calibri;font-size:10.02px;stroke:none;">Chapter 7</text>
  </g>
  <g begin="text">
   <text y="241.62" x="116.28" svgx:width="0.23" style="fill:rgb(0,0,0);font-family:Calibri;font-size:10.02px;stroke:none;"> </text>
  </g>
  <g begin="text">
   <text y="241.62" x="133.2,138.3" svgx:width="0.51,0.51" style="fill:rgb(0,0,0);font-family:Calibri;font-size:10.02px;stroke:none;">75</text>
  </g>
  <g begin="text">
   <text y="241.62" x="143.34" svgx:width="0.23" style="fill:rgb(0,0,0);font-family:Calibri;font-size:10.02px;stroke:none;"> </text>
  </g>
  <g begin="text">
   <text y="241.62" x="189.9,195.0" svgx:width="0.51,0.51" style="fill:rgb(0,0,0);font-family:Calibri;font-size:10.02px;stroke:none;">39</text>
  </g>
  <g begin="text">
   <text y="241.62" x="200.04" svgx:width="0.23" style="fill:rgb(0,0,0);font-family:Calibri;font-size:10.02px;stroke:none;"> </text>
  </g>
  <g begin="text">
   <text y="241.62" x="246.6,252.422,257.702,262.922,265.206,268.566,273.846,278.766,281.046,284.526,289.506,292.566,297.546,301.027,305.947,311.227,315.486,320.466,322.685,325.205,329.824,337.804,340.085,343.444,348.665,350.944,355.924,359.284,361.505,366.245,368.525,370.804,375.904,380.944,386.044,391.145,395.884,398.404,400.689,404.048,409.269,411.548,414.909,420.19,425.109,427.33,429.609,431.89,435.79,439.149,441.434,446.714,449.774,452.053,456.312,458.591,461.952,466.752,470.111,472.392,477.671,482.952,486.792,489.312,493.512,498.492,500.771,503.832,508.812,511.092,516.373" svgx:width="0.58,0.52,0.52,0.23,0.34,0.52,0.5,0.23,0.35,0.5,0.31,0.5,0.35,0.5,0.52,0.42,0.5,0.23,0.25,0.46,0.8,0.23,0.34,0.52,0.23,0.5,0.34,0.23,0.48,0.23,0.23,0.51,0.51,0.51,0.51,0.48,0.25,0.23,0.34,0.53,0.23,0.34,0.52,0.5,0.23,0.23,0.23,0.39,0.34,0.23,0.53,0.31,0.23,0.42,0.23,0.34,0.48,0.34,0.23,0.53,0.52,0.39,0.25,0.42,0.5,0.23,0.31,0.5,0.23,0.52,0.23" style="fill:rgb(0,0,0);font-family:Calibri;font-size:10.02px;stroke:none;">Add the reference ‘Smith et al 2019a’ to the list of citations‘Leifeld </text>
  </g>
  <g begin="text">
   <text y="253.86" x="246.6,251.7,256.74,261.84,266.88,269.58,271.864,280.445,285.364,290.344,298.324,302.884,307.804,313.085,315.369,320.169,325.389,330.67,332.954,339.675,344.474,346.754,354.734,356.954,362.054,367.095,372.195,377.295,379.755,381.96" svgx:width="0.51,0.51,0.51,0.51,0.27,0.23,0.86,0.5,0.5,0.8,0.46,0.5,0.52,0.23,0.48,0.52,0.52,0.23,0.67,0.48,0.23,0.8,0.23,0.51,0.51,0.51,0.51,0.25,0.23,0.23" style="fill:rgb(0,0,0);font-family:Calibri;font-size:10.02px;stroke:none;">2016; Meemken and Qaim 2018’ </text>
  </g>
  <path style="fill:rgb(0,0,0);stroke:none;stroke-width:1.0;" d="M71.340 515.280 L127.560 515.280 L127.560 609.780 L71.340 609.780 L71.340 515.280 M71.340 515.280 L127.560 515.280 L127.560 609.780 L71.340 609.780 L71.340 515.280 M127.800 515.280 L184.260 515.280 L184.260 609.780 L127.800 609.780 L127.800 515.280 M127.800 515.280 L184.260 515.280 L184.260 609.780 L127.800 609.780 L127.800 515.280 M184.500 515.280 L240.960 515.280 L240.960 609.780 L184.500 609.780 L184.500 515.280 M184.500 515.280 L240.960 515.280 L240.960 609.780 L184.500 609.780 L184.500 515.280 M70.860 609.780 L71.340 609.780 L71.340 610.260 L70.860 610.260 L70.860 609.780 "/>
  <path style="fill:rgb(0,0,0);stroke:none;stroke-width:1.0;" d="M71.340 609.780 L127.560 609.780 L127.560 610.260 L71.340 610.260 L71.340 609.780 "/>
  <path style="fill:rgb(0,0,0);stroke:none;stroke-width:1.0;" d="M127.560 609.780 L128.040 609.780 L128.040 610.260 L127.560 610.260 L127.560 609.780 "/>
  <path style="fill:rgb(0,0,0);stroke:none;stroke-width:1.0;" d="M128.040 609.780 L184.260 609.780 L184.260 610.260 L128.040 610.260 L128.040 609.780 "/>
  <path style="fill:rgb(0,0,0);stroke:none;stroke-width:1.0;" d="M184.260 609.780 L184.740 609.780 L184.740 610.260 L184.260 610.260 L184.260 609.780 "/>
  <path style="fill:rgb(0,0,0);stroke:none;stroke-width:1.0;" d="M184.740 609.780 L240.960 609.780 L240.960 610.260 L184.740 610.260 L184.740 609.780 "/>
  <path style="fill:rgb(0,0,0);stroke:none;stroke-width:1.0;" d="M240.960 609.780 L241.440 609.780 L241.440 610.260 L240.960 610.260 L240.960 609.780 "/>
  <path style="fill:rgb(0,0,0);stroke:none;stroke-width:1.0;" d="M523.980 609.780 L524.460 609.780 L524.460 610.260 L523.980 610.260 L523.980 609.780 "/>
  <path style="fill:rgb(0,0,0);stroke:none;stroke-width:1.0;" d="M70.860 515.280 L71.340 515.280 L71.340 609.780 L70.860 609.780 L70.860 515.280 "/>
  <path style="fill:rgb(0,0,0);stroke:none;stroke-width:1.0;" d="M127.560 515.280 L128.040 515.280 L128.040 609.780 L127.560 609.780 L127.560 515.280 "/>
  <path style="fill:rgb(0,0,0);stroke:none;stroke-width:1.0;" d="M184.260 515.280 L184.740 515.280 L184.740 609.780 L184.260 609.780 L184.260 515.280 "/>
  <path style="fill:rgb(0,0,0);stroke:none;stroke-width:1.0;" d="M240.960 515.280 L241.440 515.280 L241.440 609.780 L240.960 609.780 L240.960 515.280 "/>
  <path style="fill:rgb(0,0,0);stroke:none;stroke-width:1.0;" d="M523.980 515.280 L524.460 515.280 L524.460 609.780 L523.980 609.780 L523.980 515.280 "/>
  <g begin="text">
   <text y="336.66" x="76.5,81.841,87.121,91.921,97.201,100.558,105.538,108.958,111.242" svgx:width="0.53,0.52,0.48,0.52,0.34,0.5,0.35,0.23,0.51" style="fill:rgb(0,0,0);font-family:Calibri;font-size:10.02px;stroke:none;">Chapter 7</text>
  </g>
  <g begin="text">
   <text y="336.66" x="116.28" svgx:width="0.23" style="fill:rgb(0,0,0);font-family:Calibri;font-size:10.02px;stroke:none;"> </text>
  </g>
  <g begin="text">
   <text y="336.66" x="133.2,138.3,143.34" svgx:width="0.51,0.51,0.51" style="fill:rgb(0,0,0);font-family:Calibri;font-size:10.02px;stroke:none;">136</text>
  </g>
  <g begin="text">
   <text y="336.66" x="148.38" svgx:width="0.23" style="fill:rgb(0,0,0);font-family:Calibri;font-size:10.02px;stroke:none;"> </text>
  </g>
  <g begin="text">
   <text y="336.66" x="189.9" svgx:width="0.23" style="fill:rgb(0,0,0);font-family:Calibri;font-size:10.02px;stroke:none;"> </text>
  </g>
  <g begin="text">
   <text y="336.66" x="192.18" svgx:width="0.23" style="fill:rgb(0,0,0);font-family:Calibri;font-size:10.02px;stroke:none;"> </text>
  </g>
  <g begin="text">
   <text y="336.66" x="246.6,252.78,257.58,259.86,265.141,269.882,272.161,277.442" svgx:width="0.62,0.48,0.23,0.53,0.47,0.23,0.53,0.52" style="fill:rgb(0,0,0);font-family:Calibri;font-size:10.02px;stroke:none;">Daioglou</text>
  </g>
  <g begin="text">
   <text y="336.66" x="282.66" svgx:width="0.23" style="fill:rgb(0,0,0);font-family:Calibri;font-size:10.02px;stroke:none;"> </text>
  </g>
  <g begin="text">
   <text y="336.66" x="284.94,289.92,293.28,295.564,300.364,302.644,305.104,307.564,309.844,314.944,319.984,325.084,330.124,335.405,338.045,340.33,345.789,348.069,353.35,358.329,363.61,368.53,372.01,376.749,381.308,383.528,386.889,391.868,396.068,401.348,406.629,411.91,414.189,419.409,424.149,426.429,431.409,435.309,437.594,439.873,445.154,447.433,449.714,454.993,460.214" svgx:width="0.5,0.34,0.23,0.48,0.23,0.25,0.25,0.23,0.51,0.51,0.51,0.51,0.52,0.27,0.23,0.54,0.23,0.53,0.5,0.52,0.5,0.35,0.47,0.45,0.23,0.34,0.5,0.42,0.52,0.52,0.53,0.23,0.53,0.47,0.23,0.5,0.39,0.23,0.23,0.52,0.23,0.23,0.53,0.52,0.47" style="fill:rgb(0,0,0);font-family:Calibri;font-size:10.02px;stroke:none;">et al., 2020b: Bioenergy technologies in long</text>
  </g>
  <g begin="text">
   <text y="336.66" x="464.94" svgx:width="0.31" style="fill:rgb(0,0,0);font-family:Calibri;font-size:10.02px;stroke:none;">-</text>
  </g>
  <g begin="text">
   <text y="336.66" x="468.0,471.477,476.757,481.977,484.201,488.461,490.741,493.016,500.996,505.795,509.156,514.136" svgx:width="0.35,0.52,0.52,0.23,0.42,0.23,0.23,0.8,0.48,0.34,0.5,0.23" style="fill:rgb(0,0,0);font-family:Calibri;font-size:10.02px;stroke:none;">run climate </text>
  </g>
  <g begin="text">
   <text y="348.84" x="246.6,250.859,256.139,260.878,266.159,270.898,275.818,278.098,286.078,288.358,291.718,293.999,298.738,303.538,306.838,309.118,314.398,319.679,322.379,324.659,328.139,333.119,337.02,342.3,344.581,347.94,351.84,354.125,357.185,360.665,365.884,373.864,376.149,379.508,384.789,389.769,391.988,396.908,405.428,410.047,413.102,418.142,423.243,425.462,429.362,432.723,438.003,443.284,447.843,450.303,452.582,457.923,460.202,462.483,470.463,472.983,475.262,480.602,485.822,490.622,495.903,500.642,505.563,508.083" svgx:width="0.42,0.52,0.48,0.52,0.47,0.5,0.23,0.8,0.23,0.34,0.23,0.47,0.48,0.34,0.23,0.53,0.52,0.27,0.23,0.35,0.5,0.39,0.52,0.23,0.34,0.39,0.23,0.31,0.35,0.53,0.8,0.23,0.34,0.52,0.5,0.23,0.49,0.86,0.46,0.31,0.51,0.51,0.23,0.39,0.34,0.52,0.52,0.45,0.25,0.23,0.53,0.23,0.23,0.8,0.25,0.23,0.53,0.52,0.48,0.52,0.47,0.5,0.25,0.23" style="fill:rgb(0,0,0);font-family:Calibri;font-size:10.02px;stroke:none;">change mitigation: results from the EMF-33 study. Clim. Change, </text>
   <text y="361.084" x="246.6,251.7,256.74,261.84,264.36,266.58,271.68,276.72,281.82,286.921,289.916,295.017,300.057,305.097,310.197,312.717,314.936,320.217,325.497,327.776,330.416,335.517,340.617,343.137,348.177,353.217,358.317,363.357,367.257,371.157,376.197,381.297,386.337,391.437,396.537,399.535,404.635,409.676,414.776,417.832,422.872,427.972,433.012,438.111,443.212,446.208,450.769,453.284,455.568,461.028,465.948,469.008,473.988,477.468,482.388,487.668,491.928,496.908" svgx:width="0.51,0.51,0.51,0.25,0.23,0.51,0.51,0.51,0.51,0.31,0.51,0.51,0.51,0.51,0.25,0.23,0.52,0.53,0.23,0.27,0.51,0.51,0.25,0.51,0.51,0.51,0.51,0.39,0.39,0.51,0.51,0.51,0.51,0.51,0.31,0.51,0.51,0.51,0.31,0.51,0.51,0.51,0.51,0.51,0.31,0.45,0.25,0.23,0.54,0.5,0.31,0.5,0.35,0.5,0.52,0.42,0.5,0.23" style="fill:rgb(0,0,0);font-family:Calibri;font-size:10.02px;stroke:none;">163, 1603-1620, doi:10.1007/s10584-020-02799-y. Reference </text>
   <text y="373.269" x="246.59,250.849,253.13,256.49,261.47,266.75,269.03,271.31,276.53,278.814,282.174,287.154,291.472,294.833,297.053,302.333,307.552,310.912,313.197,321.177,323.451,327.349,331.247,333.521,338.802,343.541,345.826,348.886,352.363,357.642,365.622,367.843,373.122,375.403,380.682,382.963,385.237,390.517,395.257,398.734,403.534,408.754,414.034,418.534,420.818,425.808,428.032,433.313,436.793,442.072,446.572,448.853,454.133,459.113,464.394,466.613,471.894,476.394,478.673,483.474,488.693,492.053,497.333,502.613,506.093,509.993" svgx:width="0.42,0.23,0.34,0.5,0.52,0.23,0.23,0.52,0.23,0.34,0.5,0.43,0.34,0.23,0.52,0.52,0.34,0.23,0.8,0.23,0.39,0.39,0.23,0.52,0.47,0.23,0.31,0.35,0.53,0.8,0.23,0.52,0.23,0.52,0.23,0.23,0.53,0.47,0.35,0.48,0.52,0.52,0.45,0.23,0.5,0.23,0.52,0.35,0.53,0.45,0.23,0.52,0.5,0.52,0.23,0.52,0.45,0.23,0.48,0.52,0.34,0.52,0.53,0.35,0.39,0.23" style="fill:rgb(0,0,0);font-family:Calibri;font-size:10.02px;stroke:none;">cited in text but missing from bibliography – provided by authors </text>
   <text y="385.513" x="246.59,251.87,257.151,260.631,262.911,268.131,272.87,275.15,279.769,286.009,292.189,294.469,298.669,303.888,311.868,317.149,319.423,321.704,326.503,329.863,332.144,337.423,342.712" svgx:width="0.52,0.52,0.35,0.23,0.52,0.47,0.23,0.46,0.63,0.62,0.23,0.42,0.53,0.8,0.52,0.23,0.23,0.48,0.34,0.23,0.53,0.52,0.23" style="fill:rgb(0,0,0);font-family:Calibri;font-size:10.02px;stroke:none;">during FGD compilation </text>
  </g>
  <path style="fill:rgb(0,0,0);stroke:none;stroke-width:1.0;" d="M71.340 420.240 L127.560 420.240 L127.560 514.740 L71.340 514.740 L71.340 420.240 M71.340 420.240 L127.560 420.240 L127.560 514.740 L71.340 514.740 L71.340 420.240 M127.800 420.240 L184.260 420.240 L184.260 514.740 L127.800 514.740 L127.800 420.240 M127.800 420.240 L184.260 420.240 L184.260 514.740 L127.800 514.740 L127.800 420.240 M184.500 420.240 L240.960 420.240 L240.960 514.740 L184.500 514.740 L184.500 420.240 M184.500 420.240 L240.960 420.240 L240.960 514.740 L184.500 514.740 L184.500 420.240 M70.860 514.800 L71.340 514.800 L71.340 515.280 L70.860 515.280 L70.860 514.800 "/>
  <path style="fill:rgb(0,0,0);stroke:none;stroke-width:1.0;" d="M71.340 514.800 L127.560 514.800 L127.560 515.280 L71.340 515.280 L71.340 514.800 "/>
  <path style="fill:rgb(0,0,0);stroke:none;stroke-width:1.0;" d="M127.560 514.800 L128.040 514.800 L128.040 515.280 L127.560 515.280 L127.560 514.800 "/>
  <path style="fill:rgb(0,0,0);stroke:none;stroke-width:1.0;" d="M128.040 514.800 L184.260 514.800 L184.260 515.280 L128.040 515.280 L128.040 514.800 "/>
  <path style="fill:rgb(0,0,0);stroke:none;stroke-width:1.0;" d="M184.260 514.800 L184.740 514.800 L184.740 515.280 L184.260 515.280 L184.260 514.800 "/>
  <path style="fill:rgb(0,0,0);stroke:none;stroke-width:1.0;" d="M184.740 514.800 L240.960 514.800 L240.960 515.280 L184.740 515.280 L184.740 514.800 "/>
  <path style="fill:rgb(0,0,0);stroke:none;stroke-width:1.0;" d="M240.960 514.800 L241.440 514.800 L241.440 515.280 L240.960 515.280 L240.960 514.800 "/>
  <path style="fill:rgb(0,0,0);stroke:none;stroke-width:1.0;" d="M523.980 514.800 L524.460 514.800 L524.460 515.280 L523.980 515.280 L523.980 514.800 "/>
  <path style="fill:rgb(0,0,0);stroke:none;stroke-width:1.0;" d="M70.860 420.240 L71.340 420.240 L71.340 514.800 L70.860 514.800 L70.860 420.240 "/>
  <path style="fill:rgb(0,0,0);stroke:none;stroke-width:1.0;" d="M127.560 420.240 L128.040 420.240 L128.040 514.800 L127.560 514.800 L127.560 420.240 "/>
  <path style="fill:rgb(0,0,0);stroke:none;stroke-width:1.0;" d="M184.260 420.240 L184.740 420.240 L184.740 514.800 L184.260 514.800 L184.260 420.240 "/>
  <path style="fill:rgb(0,0,0);stroke:none;stroke-width:1.0;" d="M240.960 420.240 L241.440 420.240 L241.440 514.800 L240.960 514.800 L240.960 420.240 "/>
  <path style="fill:rgb(0,0,0);stroke:none;stroke-width:1.0;" d="M523.980 420.240 L524.460 420.240 L524.460 514.800 L523.980 514.800 L523.980 420.240 "/>
  <g begin="text">
   <text y="431.64" x="76.5,81.841,87.121,91.921,97.201,100.558,105.538,108.958,111.242" svgx:width="0.53,0.52,0.48,0.52,0.34,0.5,0.35,0.23,0.51" style="fill:rgb(0,0,0);font-family:Calibri;font-size:10.02px;stroke:none;">Chapter 7</text>
  </g>
  <g begin="text">
   <text y="431.64" x="116.28" svgx:width="0.23" style="fill:rgb(0,0,0);font-family:Calibri;font-size:10.02px;stroke:none;"> </text>
  </g>
  <g begin="text">
   <text y="431.64" x="133.2,138.3,143.34" svgx:width="0.51,0.51,0.51" style="fill:rgb(0,0,0);font-family:Calibri;font-size:10.02px;stroke:none;">101</text>
  </g>
  <g begin="text">
   <text y="431.64" x="148.38" svgx:width="0.23" style="fill:rgb(0,0,0);font-family:Calibri;font-size:10.02px;stroke:none;"> </text>
  </g>
  <g begin="text">
   <text y="431.64" x="189.9,195.0" svgx:width="0.51,0.51" style="fill:rgb(0,0,0);font-family:Calibri;font-size:10.02px;stroke:none;">25</text>
  </g>
  <g begin="text">
   <text y="431.64" x="200.1" svgx:width="0.31" style="fill:rgb(0,0,0);font-family:Calibri;font-size:10.02px;stroke:none;">-</text>
  </g>
  <g begin="text">
   <text y="431.64" x="203.1,208.2" svgx:width="0.51,0.51" style="fill:rgb(0,0,0);font-family:Calibri;font-size:10.02px;stroke:none;">26</text>
  </g>
  <g begin="text">
   <text y="431.64" x="213.24" svgx:width="0.23" style="fill:rgb(0,0,0);font-family:Calibri;font-size:10.02px;stroke:none;"> </text>
  </g>
  <g begin="text">
   <text y="431.64" x="246.6,252.782,257.762,261.662,266.943,269.223,272.583,277.563,279.847,282.127,287.347,291.606,295.086,300.066,304.806,308.706,313.686,318.966,321.246,324.306,329.587,333.067,338.047,341.946,345.306,347.591,352.39,355.87,360.79,365.53,367.81,370.09,375.371,377.656,382.995,388.276,390.495,395.776,400.575,403.035,405.32,410.6,415.881,422.961,427.941,432.441,437.421,440.901,443.421,445.7,447.981,452.78,458.061,463.28,465.565,470.846,474.745,479.725,481.946,486.204,491.485,496.224,501.505,506.244,511.164" svgx:width="0.62,0.5,0.39,0.52,0.23,0.34,0.5,0.23,0.23,0.52,0.42,0.35,0.5,0.48,0.39,0.5,0.52,0.23,0.31,0.53,0.35,0.5,0.39,0.34,0.23,0.48,0.35,0.5,0.48,0.23,0.23,0.52,0.23,0.53,0.52,0.23,0.52,0.48,0.25,0.23,0.52,0.53,0.71,0.5,0.45,0.5,0.35,0.25,0.23,0.23,0.48,0.52,0.52,0.23,0.52,0.39,0.5,0.23,0.42,0.52,0.48,0.52,0.47,0.5,0.23" style="fill:rgb(0,0,0);font-family:Calibri;font-size:10.02px;stroke:none;">Despite increased forest area in China, however, land use change </text>
  </g>
  <g begin="text">
   <text y="443.88" x="246.6,251.4,256.68,261.961,264.245,272.225,276.965,282.245,286.985,291.724,296.704,304.624,309.604,314.884,318.244,320.529,325.748,331.029,334.388,339.368,344.649,348.008,350.288,355.089,357.368,359.649,364.149,366.428,373.568,378.548,382.028,387.008,389.293,394.573,399.553,402.854,405.133,409.392,414.612,419.893,423.193,426.672,428.953,434.234,439.514,442.875,448.154,451.634,455.534,457.819,461.178,466.459,468.678,472.937,477.736,481.156,486.437,491.716,496.997" svgx:width="0.48,0.52,0.52,0.23,0.8,0.48,0.52,0.48,0.47,0.5,0.8,0.5,0.52,0.34,0.23,0.52,0.53,0.34,0.5,0.52,0.34,0.23,0.48,0.23,0.23,0.45,0.23,0.71,0.5,0.35,0.5,0.23,0.52,0.5,0.34,0.23,0.42,0.53,0.52,0.34,0.35,0.23,0.52,0.52,0.34,0.53,0.35,0.39,0.23,0.34,0.53,0.23,0.42,0.48,0.35,0.52,0.53,0.52,0.23" style="fill:rgb(0,0,0);font-family:Calibri;font-size:10.02px;stroke:none;">and management potentially were net contributors to carbon </text>
   <text y="456.064" x="246.6,251.58,259.56,261.84,265.738,269.636,271.91,277.191,282.471,286.368,288.648,291.708,295.185,300.464,308.444,310.729,315.829,320.869,325.968,331.079,334.075,339.175,344.215,349.315,354.355,356.64,359.636,363.836,368.636,370.915,373.2,378.18,381.539,383.824,388.623,390.903,393.423,395.708,400.748,405.788,410.887,415.927,418.923,421.443,423.727,425.938" svgx:width="0.5,0.8,0.23,0.39,0.39,0.23,0.53,0.52,0.39,0.23,0.31,0.35,0.53,0.8,0.23,0.51,0.51,0.51,0.51,0.31,0.51,0.51,0.51,0.51,0.23,0.3,0.42,0.48,0.23,0.23,0.5,0.34,0.23,0.48,0.23,0.25,0.23,0.51,0.51,0.51,0.51,0.3,0.25,0.23,0.23,0.23" style="fill:rgb(0,0,0);font-family:Calibri;font-size:10.02px;stroke:none;">emissions from 1990-2010 (Lai et al. 2016). </text>
   <text y="468.309" x="246.6" svgx:width="0.23" style="fill:rgb(0,0,0);font-family:Calibri;font-size:10.02px;stroke:none;"> </text>
   <text y="480.493" x="246.6,252.78,257.76,260.04,265.02,268.38,273.36,275.64,279.541,284.521,289.8,293.101,298.081,303.361,307.561,312.541" svgx:width="0.62,0.5,0.23,0.5,0.34,0.5,0.23,0.39,0.5,0.52,0.34,0.5,0.52,0.42,0.5,0.23" style="fill:rgb(0,0,0);font-family:Calibri;font-size:10.02px;stroke:none;">Delete sentence </text>
  </g>
  <path style="fill:rgb(0,0,0);stroke:none;stroke-width:1.0;" d="M71.340 325.260 L127.560 325.260 L127.560 419.760 L71.340 419.760 L71.340 325.260 M71.340 325.260 L127.560 325.260 L127.560 419.760 L71.340 419.760 L71.340 325.260 M127.800 325.260 L184.260 325.260 L184.260 419.760 L127.800 419.760 L127.800 325.260 M127.800 325.260 L184.260 325.260 L184.260 419.760 L127.800 419.760 L127.800 325.260 M184.500 325.260 L240.960 325.260 L240.960 419.760 L184.500 419.760 L184.500 325.260 M184.500 325.260 L240.960 325.260 L240.960 419.760 L184.500 419.760 L184.500 325.260 M184.500 325.260 L240.960 325.260 L240.960 419.760 L184.500 419.760 L184.500 325.260 M184.500 325.260 L240.960 325.260 L240.960 419.760 L184.500 419.760 L184.500 325.260 M70.860 419.760 L71.340 419.760 L71.340 420.240 L70.860 420.240 L70.860 419.760 "/>
  <path style="fill:rgb(0,0,0);stroke:none;stroke-width:1.0;" d="M71.340 419.760 L127.560 419.760 L127.560 420.240 L71.340 420.240 L71.340 419.760 "/>
  <path style="fill:rgb(0,0,0);stroke:none;stroke-width:1.0;" d="M127.560 419.760 L128.040 419.760 L128.040 420.240 L127.560 420.240 L127.560 419.760 "/>
  <path style="fill:rgb(0,0,0);stroke:none;stroke-width:1.0;" d="M128.040 419.760 L184.260 419.760 L184.260 420.240 L128.040 420.240 L128.040 419.760 "/>
  <path style="fill:rgb(0,0,0);stroke:none;stroke-width:1.0;" d="M184.260 419.760 L184.740 419.760 L184.740 420.240 L184.260 420.240 L184.260 419.760 "/>
  <path style="fill:rgb(0,0,0);stroke:none;stroke-width:1.0;" d="M184.740 419.760 L240.960 419.760 L240.960 420.240 L184.740 420.240 L184.740 419.760 "/>
  <path style="fill:rgb(0,0,0);stroke:none;stroke-width:1.0;" d="M240.960 419.760 L241.440 419.760 L241.440 420.240 L240.960 420.240 L240.960 419.760 "/>
  <path style="fill:rgb(0,0,0);stroke:none;stroke-width:1.0;" d="M523.980 419.760 L524.460 419.760 L524.460 420.240 L523.980 420.240 L523.980 419.760 "/>
  <path style="fill:rgb(0,0,0);stroke:none;stroke-width:1.0;" d="M70.860 325.260 L71.340 325.260 L71.340 419.760 L70.860 419.760 L70.860 325.260 "/>
  <path style="fill:rgb(0,0,0);stroke:none;stroke-width:1.0;" d="M70.860 324.780 L71.340 324.780 L71.340 325.260 L70.860 325.260 L70.860 324.780 "/>
  <path style="fill:rgb(0,0,0);stroke:none;stroke-width:1.0;" d="M70.860 324.780 L71.340 324.780 L71.340 325.260 L70.860 325.260 L70.860 324.780 "/>
  <path style="fill:rgb(0,0,0);stroke:none;stroke-width:1.0;" d="M71.340 324.780 L127.560 324.780 L127.560 325.260 L71.340 325.260 L71.340 324.780 "/>
  <path style="fill:rgb(0,0,0);stroke:none;stroke-width:1.0;" d="M127.560 325.260 L128.040 325.260 L128.040 419.760 L127.560 419.760 L127.560 325.260 "/>
  <path style="fill:rgb(0,0,0);stroke:none;stroke-width:1.0;" d="M127.560 324.780 L128.040 324.780 L128.040 325.260 L127.560 325.260 L127.560 324.780 "/>
  <path style="fill:rgb(0,0,0);stroke:none;stroke-width:1.0;" d="M128.040 324.780 L184.260 324.780 L184.260 325.260 L128.040 325.260 L128.040 324.780 "/>
  <path style="fill:rgb(0,0,0);stroke:none;stroke-width:1.0;" d="M184.260 325.260 L184.740 325.260 L184.740 419.760 L184.260 419.760 L184.260 325.260 "/>
  <path style="fill:rgb(0,0,0);stroke:none;stroke-width:1.0;" d="M184.260 324.780 L184.740 324.780 L184.740 325.260 L184.260 325.260 L184.260 324.780 "/>
  <path style="fill:rgb(0,0,0);stroke:none;stroke-width:1.0;" d="M184.740 324.780 L240.960 324.780 L240.960 325.260 L184.740 325.260 L184.740 324.780 "/>
  <path style="fill:rgb(0,0,0);stroke:none;stroke-width:1.0;" d="M240.960 325.260 L241.440 325.260 L241.440 419.760 L240.960 419.760 L240.960 325.260 "/>
  <path style="fill:rgb(0,0,0);stroke:none;stroke-width:1.0;" d="M240.960 324.780 L241.440 324.780 L241.440 325.260 L240.960 325.260 L240.960 324.780 "/>
  <path style="fill:rgb(0,0,0);stroke:none;stroke-width:1.0;" d="M523.980 325.260 L524.460 325.260 L524.460 419.760 L523.980 419.760 L523.980 325.260 "/>
  <path style="fill:rgb(0,0,0);stroke:none;stroke-width:1.0;" d="M523.980 324.780 L524.460 324.780 L524.460 325.260 L523.980 325.260 L523.980 324.780 "/>
  <path style="fill:rgb(0,0,0);stroke:none;stroke-width:1.0;" d="M523.980 324.780 L524.460 324.780 L524.460 325.260 L523.980 325.260 L523.980 324.780 "/>
  <g begin="text">
   <text y="527.64" x="70.86" svgx:width="0.23" style="fill:rgb(0,0,0);font-family:Calibri;font-size:10.98px;stroke:none;"> </text>
  </g>
 </g>
</svg>
