<?xml version="1.0" encoding="UTF-8"?>
<svg height="812.44" width="536.2" xmlns="http://www.w3.org/2000/svg">
 <g id="page" xmlns:svgx="http://www.xml-cml.org/schema/svgx">
  <g begin="text">
   <text y="46.32" x="72.024,78.162,81.231,86.751,91.587,94.7" svgx:width="0.56,0.28,0.5,0.44,0.28,0.25" style="fill:rgb(0,0,0);font-family:TimesNewRomanPSMT;font-size:11.04px;stroke:none;">Final </text>
  </g>
  <g begin="text">
   <text y="46.32" x="97.464,105.38,110.9,116.42,121.222,124.932,130.452,138.974,143.876,149.396,152.52,155.28,163.086,166.199,170.394,173.508,177.107,180.22,185.74,191.138,194.141,197.255,202.775" svgx:width="0.72,0.5,0.5,0.44,0.33,0.5,0.78,0.44,0.5,0.28,0.25,0.72,0.28,0.39,0.28,0.33,0.28,0.5,0.5,0.28,0.28,0.5,0.5" style="fill:rgb(0,0,0);font-family:TimesNewRomanPSMT;font-size:11.04px;stroke:none;">Government Distribution</text>
  </g>
  <g begin="text">
   <text y="46.32" x="208.37" svgx:width="0.25" style="fill:rgb(0,0,0);font-family:TimesNewRomanPSMT;font-size:11.04px;stroke:none;"> </text>
  </g>
  <g begin="text">
   <text y="46.32" x="211.01" svgx:width="0.25" style="fill:rgb(0,0,0);font-family:TimesNewRomanPSMT;font-size:11.04px;stroke:none;"> </text>
  </g>
  <g begin="text">
   <text y="46.32" x="276.17,283.49,289.009,293.911,299.431,302.556,307.358,311.067,313.827" svgx:width="0.67,0.5,0.44,0.5,0.28,0.44,0.33,0.25,0.5" style="fill:rgb(0,0,0);font-family:TimesNewRomanPSMT;font-size:11.04px;stroke:none;">Chapter 7</text>
  </g>
  <g begin="text">
   <text y="46.32" x="319.27" svgx:width="0.25" style="fill:rgb(0,0,0);font-family:TimesNewRomanPSMT;font-size:11.04px;stroke:none;"> </text>
  </g>
  <g begin="text">
   <text y="46.32" x="443.38,446.979,453.117,460.415,467.734" svgx:width="0.33,0.56,0.67,0.67,0.25" style="fill:rgb(0,0,0);font-family:TimesNewRomanPSMT;font-size:11.04px;stroke:none;">IPCC </text>
  </g>
  <g begin="text">
   <text y="46.32" x="470.5,478.416,485.735,491.255,494.015,504.437,512.408,516.084,519.694" svgx:width="0.72,0.67,0.5,0.25,0.94,0.72,0.33,0.33,0.33" style="fill:rgb(0,0,0);font-family:TimesNewRomanPSMT;font-size:11.04px;stroke:none;">AR6 WGIII</text>
  </g>
  <g begin="text">
   <text y="46.32" x="523.44" svgx:width="0.25" style="fill:rgb(0,0,0);font-family:TimesNewRomanPSMT;font-size:11.04px;stroke:none;"> </text>
  </g>
  <g begin="text">
   <text y="60.24" x="72.024" svgx:width="0.25" style="fill:rgb(0,0,0);font-family:TimesNewRomanPSMT;font-size:11.04px;stroke:none;"> </text>
  </g>
  <g begin="text">
   <text y="760.68" x="72.024" svgx:width="0.25" style="fill:rgb(0,0,0);font-family:TimesNewRomanPSMT;font-size:11.04px;stroke:none;"> </text>
  </g>
  <g begin="text">
   <text y="774.6" x="72.024,79.94,85.46,88.22,96.135,101.655,105.365,108.125,116.04,119.154,122.753,127.655,130.415,133.075,141.708,147.847,153.367,157.043,161.868,164.628,170.148,175.049,177.809,185.78,188.75,192.945,196.655,201.556,204.681,210.819,216.803,220.512" svgx:width="0.72,0.5,0.25,0.72,0.5,0.33,0.25,0.72,0.28,0.33,0.44,0.25,0.25,0.78,0.56,0.5,0.33,0.44,0.25,0.5,0.44,0.25,0.72,0.28,0.39,0.33,0.44,0.28,0.56,0.56,0.33,0.44" style="fill:rgb(0,0,0);font-family:TimesNewRomanPS-BoldMT;font-size:11.04px;stroke:none;">Do Not Cite, Quote or Distribute</text>
  </g>
  <g begin="text">
   <text y="774.6" x="225.41" svgx:width="0.25" style="fill:rgb(0,0,0);font-family:TimesNewRomanPS-BoldMT;font-size:11.04px;stroke:none;"> </text>
  </g>
  <g begin="text">
   <text y="774.6" x="284.83" svgx:width="0.5" style="fill:rgb(0,0,0);font-family:TimesNewRomanPSMT;font-size:11.04px;stroke:none;">7</text>
  </g>
  <g begin="text">
   <text y="774.6" x="290.35" svgx:width="0.33" style="fill:rgb(0,0,0);font-family:TimesNewRomanPSMT;font-size:11.04px;stroke:none;">-</text>
  </g>
  <g begin="text">
   <text y="774.6" x="293.95,299.47,304.99" svgx:width="0.5,0.5,0.5" style="fill:rgb(0,0,0);font-family:TimesNewRomanPSMT;font-size:11.04px;stroke:none;">124</text>
  </g>
  <g begin="text">
   <text y="774.6" x="310.51" svgx:width="0.25" style="fill:rgb(0,0,0);font-family:TimesNewRomanPSMT;font-size:11.04px;stroke:none;"> </text>
  </g>
  <g begin="text">
   <text y="774.6" x="313.27" svgx:width="0.25" style="fill:rgb(0,0,0);font-family:TimesNewRomanPSMT;font-size:11.04px;stroke:none;"> </text>
  </g>
  <g begin="text">
   <text y="774.6" x="450.1,456.845,462.365,465.435,470.259,473.372,476.132,481.652,486.554,491.975,496.876,501.204,504.207" svgx:width="0.61,0.5,0.28,0.44,0.28,0.25,0.5,0.44,0.5,0.44,0.39,0.28,0.25" style="fill:rgb(0,0,0);font-family:TimesNewRomanPSMT;font-size:11.04px;stroke:none;">Total pages: </text>
  </g>
  <g begin="text">
   <text y="774.6" x="506.98,512.5,518.02" svgx:width="0.5,0.5,0.5" style="fill:rgb(0,0,0);font-family:TimesNewRomanPSMT;font-size:11.04px;stroke:none;">185</text>
  </g>
  <g begin="text">
   <text y="774.6" x="523.44" svgx:width="0.25" style="fill:rgb(0,0,0);font-family:TimesNewRomanPSMT;font-size:9.96px;stroke:none;"> </text>
  </g>
  <g begin="text">
   <text y="788.52" x="297.67" svgx:width="0.25" style="fill:rgb(0,0,0);font-family:TimesNewRomanPSMT;font-size:11.04px;stroke:none;"> </text>
  </g>
  <g begin="text">
   <text y="802.44" x="297.67" svgx:width="0.25" style="fill:rgb(0,0,0);font-family:TimesNewRomanPSMT;font-size:11.04px;stroke:none;"> </text>
  </g>
  <g begin="text">
   <text y="82.34" x="72.024,76.926,82.446,91.09,96.489,101.39,104.404,107.518,110.521,113.634,119.154,124.674,127.43400000000001,128.979,132.689,138.209,141.918,144.678,146.224,151.126,156.646,160.267,163.38,168.282,173.702,176.816,179.929,185.328,189.037,193.839,196.953,199.713,201.38,204.493,209.295,214.815,220.335" svgx:width="0.44,0.5,0.78,0.5,0.44,0.28,0.28,0.28,0.28,0.5,0.5,0.25,0.55,0.33,0.5,0.33,0.25,0.55,0.44,0.5,0.33,0.28,0.44,0.5,0.28,0.28,0.5,0.33,0.44,0.28,0.25,0.55,0.28,0.44,0.5,0.5,0.25" style="fill:rgb(0,0,0);font-family:TimesNewRomanPSMT;font-size:11.04px;stroke:none;">competition for agricultural land </text>
  </g>
  <g begin="text">
   <text y="82.34" x="224.93,229.225,234.049,237.758,240.872,246.27,251.79,255.986,259.099,264.619" svgx:width="0.39,0.44,0.33,0.28,0.5,0.5,0.39,0.28,0.5,0.25" style="fill:rgb(0,0,0);font-family:TimesNewRomanPSMT;font-size:11.04px;stroke:none;">seriously </text>
  </g>
  <g begin="text">
   <text y="82.34" x="269.09,272.203,277.602,281.311,286.213,291.026,294.14,299.042" svgx:width="0.28,0.5,0.33,0.44,0.44,0.28,0.44,0.5" style="fill:rgb(0,0,0);font-family:TimesNewRomanPSMT;font-size:11.04px;stroke:none;">threaten</text>
  </g>
  <g begin="text">
   <text y="82.34" x="304.51" svgx:width="0.39" style="fill:rgb(0,0,0);font-family:TimesNewRomanPSMT;font-size:11.04px;stroke:none;">s</text>
  </g>
  <g begin="text">
   <text y="82.34" x="308.83" svgx:width="0.25" style="fill:rgb(0,0,0);font-family:TimesNewRomanPSMT;font-size:11.04px;stroke:none;"> </text>
  </g>
  <g begin="text">
   <text y="82.34" x="313.15,316.859,322.379,327.899,333.419,336.179,337.847,343.245,346.954,352.474,357.994,363.514,368.317,371.43,374.433,379.953,385.473,388.233,389.9,394.802,400.322,405.842,408.602,410.169,413.879,419.399,424.919,430.439,433.199,434.744,439.039,443.974,448.876,454.296,458.006,461.009,464.122" svgx:width="0.33,0.5,0.5,0.5,0.25,0.55,0.5,0.33,0.5,0.5,0.5,0.44,0.28,0.28,0.5,0.5,0.25,0.55,0.44,0.5,0.5,0.25,0.55,0.33,0.5,0.5,0.5,0.25,0.55,0.39,0.44,0.44,0.5,0.33,0.28,0.28,0.5" style="fill:rgb(0,0,0);font-family:TimesNewRomanPSMT;font-size:11.04px;stroke:none;">food production and food security</text>
  </g>
  <g begin="text">
   <text y="82.34" x="469.78,472.54,475.3,476.967,484.883,490.403,493.406,496.519,501.421,504.181,505.748,510.65,513.774,517.97,523.368" svgx:width="0.25,0.25,0.55,0.72,0.5,0.28,0.28,0.44,0.25,0.55,0.44,0.28,0.39,0.5,0.25" style="fill:rgb(0,0,0);font-family:TimesNewRomanPSMT;font-size:11.04px;stroke:none;">, while also </text>
  </g>
  <g begin="text">
   <text y="82.34" x="48.48" svgx:width="0.5" style="fill:rgb(0,0,0);font-family:TimesNewRomanPSMT;font-size:11.04px;stroke:none;">1</text>
  </g>
  <g begin="text">
   <text y="82.34" x="54.024" svgx:width="0.25" style="fill:rgb(0,0,0);font-family:TimesNewRomanPSMT;font-size:11.04px;stroke:none;"> </text>
  </g>
  <g begin="text">
   <text y="96.26" x="72.024,75.137,83.771,89.169,94.071,98.884,101.998,105.111,110.631,116.029,119.253,124.773,127.776,133.296,138.816,141.929,147.328,152.23,155.851,160.145,163.17,166.284,171.804,174.564,177.787,185.703,190.505,193.508,198.41,202.141,205.365,210.168,215.688,221.208,224.431,228.626,234.146,237.149,240.263,243.486,249.006,254.405,259.307,262.321,265.434,268.547,273.946,276.706,279.929,284.831,290.252,295.772,298.995,301.998,306.9,312.321,317.841,322.135,327.07,331.972,337.392,342.294,345.54,350.342,355.244,359.572,362.575,368.095,372.997,376.01,379.124,383.926,387.15,392.67,397.472,400.586,406.106" svgx:width="0.28,0.78,0.5,0.44,0.44,0.28,0.28,0.5,0.5,0.25,0.5,0.28,0.5,0.5,0.28,0.5,0.44,0.33,0.39,0.28,0.28,0.5,0.25,0.25,0.72,0.44,0.28,0.44,0.33,0.25,0.44,0.5,0.5,0.25,0.39,0.5,0.28,0.28,0.25,0.5,0.5,0.44,0.28,0.28,0.28,0.5,0.25,0.25,0.44,0.5,0.5,0.25,0.28,0.44,0.5,0.5,0.39,0.44,0.44,0.5,0.44,0.25,0.44,0.44,0.39,0.28,0.5,0.44,0.28,0.28,0.44,0.25,0.5,0.44,0.28,0.5,0.44" style="fill:rgb(0,0,0);font-family:TimesNewRomanPSMT;font-size:11.04px;stroke:none;">impacting biodiversity, water and soil quality, and landscape aesthetic value</text>
  </g>
  <g begin="text">
   <text y="96.26" x="411.34,413.979,417.202,427.017,432.437,436.147,441.049,444.173,447.882,452.784,457.598,462.499,468.019,471.033,474.147,479.667,482.89,488.289,493.809,501.725,506.626,512.146,516.96,520.669,523.308" svgx:width="0.25,0.25,0.89,0.5,0.33,0.44,0.25,0.33,0.44,0.44,0.44,0.5,0.28,0.28,0.5,0.25,0.5,0.5,0.72,0.44,0.5,0.44,0.33,0.25,0.25" style="fill:rgb(0,0,0);font-family:TimesNewRomanPSMT;font-size:11.04px;stroke:none;">. More recently however, </text>
  </g>
  <g begin="text">
   <text y="96.26" x="48.48" svgx:width="0.5" style="fill:rgb(0,0,0);font-family:TimesNewRomanPSMT;font-size:11.04px;stroke:none;">2</text>
  </g>
  <g begin="text">
   <text y="96.26" x="54.024" svgx:width="0.25" style="fill:rgb(0,0,0);font-family:TimesNewRomanPSMT;font-size:11.04px;stroke:none;"> </text>
  </g>
  <g begin="text">
   <text y="110.18" x="72.024,75.137,80.657,85.559,87.855,92.15,96.974,101.876,107.396,112.21,115.919,119.032,124.431,128.725,131.033,134.742,140.262,143.972,146.257,153.576,160.322,167.619,174.939,181.077,183.34,188.86,193.663,199.183,204.085,206.381,211.901,216.803,221.726,227.125,235.758,240.66,242.956,251.479,256.999,261.901,267.421,269.717,278.24,283.76,287.47,292.371,294.668,298.267,303.169,307.982,311.095,314.098,318.393,321.528,324.531" svgx:width="0.28,0.5,0.44,0.25,0.39,0.44,0.44,0.5,0.44,0.33,0.28,0.5,0.39,0.25,0.33,0.5,0.33,0.25,0.67,0.61,0.67,0.67,0.56,0.25,0.5,0.44,0.5,0.44,0.25,0.5,0.44,0.44,0.5,0.78,0.44,0.25,0.78,0.5,0.44,0.5,0.25,0.78,0.5,0.33,0.44,0.25,0.33,0.44,0.44,0.28,0.28,0.39,0.28,0.28,0.44" style="fill:rgb(0,0,0);font-family:TimesNewRomanPSMT;font-size:11.04px;stroke:none;">the scenarios for BECCS have become much more realistic</text>
  </g>
  <g begin="text">
   <text y="110.18" x="329.59,332.35,334.635,337.749,343.269,348.789,354.187,359.707,365.227,367.512,372.414,377.934,383.454,388.268,393.169,396.901,402.299,406.594,408.901,412.611,417.513,422.933,427.835,431.566,436.965,440.078,445.598,451.118,453.404,456.406,465.04,470.56,475.362,480.264,483.388,487.683,489.99,495.51,501.03,503.315,506.915,512.435,517.955,523.353" svgx:width="0.25,0.25,0.28,0.5,0.5,0.5,0.5,0.5,0.25,0.44,0.5,0.5,0.44,0.44,0.33,0.5,0.39,0.25,0.33,0.44,0.5,0.44,0.33,0.5,0.28,0.5,0.5,0.25,0.28,0.78,0.5,0.44,0.44,0.28,0.39,0.25,0.5,0.5,0.25,0.33,0.5,0.5,0.5,0.25" style="fill:rgb(0,0,0);font-family:TimesNewRomanPSMT;font-size:11.04px;stroke:none;">, though concerns regarding impacts on food </text>
  </g>
  <g begin="text">
   <text y="110.18" x="48.48" svgx:width="0.5" style="fill:rgb(0,0,0);font-family:TimesNewRomanPSMT;font-size:11.04px;stroke:none;">3</text>
  </g>
  <g begin="text">
   <text y="110.18" x="54.024" svgx:width="0.25" style="fill:rgb(0,0,0);font-family:TimesNewRomanPSMT;font-size:11.04px;stroke:none;"> </text>
  </g>
  <g begin="text">
   <text y="124.1" x="72.024,76.319,81.253,86.155,91.576,95.285,98.288,101.401" svgx:width="0.39,0.44,0.44,0.5,0.33,0.28,0.28,0.5" style="fill:rgb(0,0,0);font-family:TimesNewRomanPSMT;font-size:11.04px;stroke:none;">security</text>
  </g>
  <g begin="text">
   <text y="124.1" x="106.94" svgx:width="0.25" style="fill:rgb(0,0,0);font-family:TimesNewRomanPSMT;font-size:11.04px;stroke:none;"> </text>
  </g>
  <g begin="text">
   <text y="124.1" x="109.46,114.362,119.882,125.402,127.82,130.933,136.453,141.355,143.894,148.796,154.216,159.736,162.739,166.448,171.968,177.367,186.0,190.803,196.323,199.436,201.953,205.663,210.465,219.098,223.901,227.014,232.534,235.294,237.811,245.727,251.247,254.25,257.363,262.265,264.682,267.796,273.316,278.217,280.757,284.356,289.258,292.271,295.385,300.286,305.707,308.82,311.823,314.937,318.05,323.57,326.087,331.485,335.195,337.712,346.345,351.744,357.264,362.166,365.18,369.474,372.024,375.138,379.432,381.982,387.381,392.901,397.803,402.616,406.326,409.439,414.241,417.355,422.875,425.392,430.79,436.31,441.212,443.751,446.865,452.385,454.78,463.413,468.315,471.329,476.849,482.369,487.889,493.288,496.401,501.921,507.441,510.444,515.346,520.159,523.162" svgx:width="0.44,0.5,0.5,0.25,0.28,0.5,0.44,0.25,0.44,0.5,0.5,0.28,0.33,0.5,0.5,0.78,0.44,0.5,0.28,0.25,0.33,0.44,0.78,0.44,0.28,0.5,0.25,0.25,0.72,0.5,0.28,0.28,0.44,0.25,0.28,0.5,0.44,0.25,0.33,0.44,0.28,0.28,0.44,0.5,0.28,0.28,0.28,0.28,0.5,0.25,0.5,0.33,0.25,0.78,0.5,0.5,0.44,0.28,0.39,0.25,0.28,0.39,0.25,0.5,0.5,0.44,0.44,0.33,0.28,0.44,0.28,0.5,0.25,0.5,0.5,0.44,0.25,0.28,0.5,0.25,0.78,0.44,0.28,0.5,0.5,0.5,0.5,0.28,0.5,0.5,0.28,0.44,0.44,0.28,0.25" style="fill:rgb(0,0,0);font-family:TimesNewRomanPSMT;font-size:11.04px;stroke:none;">and the environment remain, while the reliability of models is uncertain due to methodological </text>
  </g>
  <g begin="text">
   <text y="124.1" x="48.48" svgx:width="0.5" style="fill:rgb(0,0,0);font-family:TimesNewRomanPSMT;font-size:11.04px;stroke:none;">4</text>
  </g>
  <g begin="text">
   <text y="124.1" x="54.024" svgx:width="0.25" style="fill:rgb(0,0,0);font-family:TimesNewRomanPSMT;font-size:11.04px;stroke:none;"> </text>
  </g>
  <g begin="text">
   <text y="138.02" x="72.024,75.733,78.847,83.749,91.719" svgx:width="0.33,0.28,0.44,0.72,0.39" style="fill:rgb(0,0,0);font-family:TimesNewRomanPSMT;font-size:11.04px;stroke:none;">flaws</text>
  </g>
  <g begin="text">
   <text y="138.02" x="95.904,98.664" svgx:width="0.25,0.25" style="fill:rgb(0,0,0);font-family:TimesNewRomanPSMT;font-size:11.04px;stroke:none;">. </text>
  </g>
  <g begin="text">
   <text y="138.02" x="101.54" svgx:width="0.25" style="fill:rgb(0,0,0);font-family:TimesNewRomanPSMT;font-size:11.04px;stroke:none;"> </text>
  </g>
  <g begin="text">
   <text y="138.02" x="104.42,108.019,116.652,122.172,125.882,131.402,136.8,141.702,150.236,155.138,160.658,163.672,167.966,170.859,173.972,179.492,182.252,190.775,196.295,201.815,206.717,209.841,214.136,216.896,221.83,225.54,230.442,233.202,236.933,241.835,247.355,252.776,255.778,259.488,264.39,269.91,272.802,275.805,281.325,284.195,289.715,294.617,297.631,300.744,305.547,309.256,312.016,316.918,321.842,327.362,330.475,335.874,339.583,344.485,347.377,355.293,358.296,363.816,368.718,372.449,375.209,380.111,385.631,391.052,394.165,397.874,403.394,408.793,417.426,422.328,427.749,430.752,435.653,438.778,441.648,446.55,452.07,457.59,460.35,464.677,470.197,475.0,478.113,483.015,486.139,488.899,491.902,500.535,506.055,510.957,515.771,518.884,523.079" svgx:width="0.33,0.78,0.5,0.33,0.5,0.5,0.44,0.78,0.44,0.5,0.28,0.39,0.25,0.28,0.5,0.25,0.78,0.5,0.5,0.44,0.28,0.39,0.25,0.44,0.33,0.44,0.25,0.33,0.44,0.5,0.5,0.28,0.33,0.44,0.5,0.25,0.28,0.5,0.25,0.5,0.44,0.28,0.28,0.44,0.33,0.25,0.44,0.44,0.5,0.28,0.5,0.33,0.44,0.25,0.72,0.28,0.5,0.44,0.33,0.25,0.44,0.5,0.5,0.28,0.33,0.5,0.5,0.78,0.44,0.5,0.28,0.44,0.28,0.25,0.44,0.5,0.5,0.25,0.39,0.5,0.44,0.28,0.44,0.28,0.25,0.28,0.78,0.5,0.44,0.44,0.28,0.39,0.25" style="fill:rgb(0,0,0);font-family:TimesNewRomanPSMT;font-size:11.04px;stroke:none;">Improvements to models are required to better capture wider environmental and social impacts </text>
  </g>
  <g begin="text">
   <text y="138.02" x="48.48" svgx:width="0.5" style="fill:rgb(0,0,0);font-family:TimesNewRomanPSMT;font-size:11.04px;stroke:none;">5</text>
  </g>
  <g begin="text">
   <text y="138.02" x="54.024" svgx:width="0.25" style="fill:rgb(0,0,0);font-family:TimesNewRomanPSMT;font-size:11.04px;stroke:none;"> </text>
  </g>
  <g begin="text">
   <text y="151.94" x="72.024,77.544,81.253,84.841,92.161,98.906,106.204,113.523,119.662,123.228,126.341,131.861,134.62099999999998,135.449,140.847,144.557,150.077,154.979,158.71,162.177,165.29,170.81,174.398,179.2,183.495,188.43,193.232,196.942,200.055,204.857,207.971,213.491,216.957,220.07,223.184,227.478,230.978,235.272,240.792,245.021,248.134,252.936,256.05,261.57,266.471,271.892,275.005,279.907,282.667,283.517,288.32,293.84,299.36,302.363,306.072,309.185,314.584,320.104,323.217,326.33,331.729" svgx:width="0.5,0.33,0.25,0.67,0.61,0.67,0.67,0.56,0.25,0.28,0.5,0.25,0.55,0.5,0.33,0.5,0.44,0.33,0.25,0.28,0.5,0.25,0.44,0.39,0.44,0.44,0.33,0.28,0.44,0.28,0.5,0.25,0.28,0.28,0.39,0.25,0.39,0.5,0.39,0.28,0.44,0.28,0.5,0.44,0.5,0.28,0.44,0.25,0.55,0.44,0.5,0.5,0.28,0.33,0.28,0.5,0.5,0.28,0.28,0.5,0.5" style="fill:rgb(0,0,0);font-family:TimesNewRomanPSMT;font-size:11.04px;stroke:none;">of BECCS in order to ascertain its sustainable contribution</text>
  </g>
  <g begin="text">
   <text y="151.94" x="337.51" svgx:width="0.25" style="fill:rgb(0,0,0);font-family:TimesNewRomanPSMT;font-size:11.04px;stroke:none;"> </text>
  </g>
  <g begin="text">
   <text y="151.94" x="341.11,344.223,349.743,353.21,358.112,366.645,369.759,374.053,378.282,381.395,386.915,392.314,396.608,399.368,400.218,405.738,410.541,413.654,419.174,427.089,431.991,437.412,441.706,444.466,447.226,448.077,455.992,461.512,467.032,470.035,473.148,476.262,481.782,487.18,492.082,495.096,498.209,503.729,506.489,509.956,513.069,518.467,523.27" svgx:width="0.28,0.5,0.25,0.44,0.78,0.28,0.39,0.39,0.28,0.5,0.5,0.39,0.25,0.55,0.5,0.44,0.28,0.5,0.72,0.44,0.5,0.39,0.25,0.25,0.55,0.72,0.5,0.5,0.28,0.28,0.28,0.5,0.5,0.44,0.28,0.28,0.5,0.25,0.25,0.28,0.5,0.44,0.25" style="fill:rgb(0,0,0);font-family:TimesNewRomanPSMT;font-size:11.04px;stroke:none;">in emissions pathways. Additionally, the </text>
  </g>
  <g begin="text">
   <text y="151.94" x="48.48" svgx:width="0.5" style="fill:rgb(0,0,0);font-family:TimesNewRomanPSMT;font-size:11.04px;stroke:none;">6</text>
  </g>
  <g begin="text">
   <text y="151.94" x="54.024" svgx:width="0.25" style="fill:rgb(0,0,0);font-family:TimesNewRomanPSMT;font-size:11.04px;stroke:none;"> </text>
  </g>
  <g begin="text">
   <text y="165.86" x="72.024,77.544,83.064,88.584,94.104,97.703,100.816,106.336,111.735,114.848,117.961,123.36,126.584,130.293,135.692,139.401,142.625,148.023,151.137,156.657,161.459,165.169,168.392,173.912,179.311,182.424,185.427,190.826,196.346,200.64,203.897,206.9,212.42,217.321,220.335,223.559,228.461,233.981,239.402,242.515,248.035,251.148,256.668,261.57,267.09,271.903,275.016,279.819,283.043,288.563,293.365,297.074,302.594,305.708,308.711,313.612,317.344,322.864" svgx:width="0.5,0.5,0.5,0.5,0.33,0.28,0.5,0.5,0.28,0.28,0.5,0.25,0.33,0.5,0.33,0.25,0.5,0.28,0.5,0.44,0.33,0.25,0.5,0.5,0.28,0.28,0.5,0.5,0.39,0.25,0.28,0.5,0.44,0.28,0.25,0.44,0.5,0.5,0.28,0.5,0.25,0.5,0.44,0.5,0.44,0.28,0.44,0.25,0.5,0.44,0.33,0.5,0.25,0.28,0.44,0.33,0.5,0.44" style="fill:rgb(0,0,0);font-family:TimesNewRomanPSMT;font-size:11.04px;stroke:none;">opportunity for other options that could negate very large</text>
  </g>
  <g begin="text">
   <text y="165.86" x="328.03" svgx:width="0.33" style="fill:rgb(0,0,0);font-family:TimesNewRomanPSMT;font-size:11.04px;stroke:none;">-</text>
  </g>
  <g begin="text">
   <text y="165.86" x="331.63,335.925,340.749,345.651,348.665,353.566,356.812,362.332,367.135,372.655,375.768,381.288,386.686,395.32,400.122,405.642,408.755,411.869,417.389,421.098,424.322,431.52,438.265,445.563,452.882,459.021,461.781,464.993,469.288,474.808,479.743,485.141,488.365,493.267,497.484,500.708,506.228,509.341,514.74,519.641,523.262" svgx:width="0.39,0.44,0.44,0.28,0.44,0.25,0.5,0.44,0.5,0.28,0.5,0.5,0.78,0.44,0.5,0.28,0.25,0.5,0.33,0.25,0.67,0.61,0.67,0.67,0.56,0.25,0.25,0.39,0.5,0.44,0.5,0.25,0.44,0.39,0.25,0.5,0.28,0.5,0.44,0.33,0.25" style="fill:rgb(0,0,0);font-family:TimesNewRomanPSMT;font-size:11.04px;stroke:none;">scale deployment of BECCS, such as other </text>
  </g>
  <g begin="text">
   <text y="165.86" x="48.48" svgx:width="0.5" style="fill:rgb(0,0,0);font-family:TimesNewRomanPSMT;font-size:11.04px;stroke:none;">7</text>
  </g>
  <g begin="text">
   <text y="165.86" x="54.024" svgx:width="0.25" style="fill:rgb(0,0,0);font-family:TimesNewRomanPSMT;font-size:11.04px;stroke:none;"> </text>
  </g>
  <g begin="text">
   <text y="179.78" x="72.024,76.926,81.85,85.559,91.079,96.478,101.998,104.75800000000001,106.425,111.823,114.936,120.456,125.855,128.968,134.488,139.291,142.051,143.718,147.427,152.23,160.863,166.383,171.781,176.683,179.697,182.457,184.124,192.647,197.549,202.473,206.767,212.188,215.897,220.799,225.016,227.77599999999998,229.443,234.963,238.562,241.322,242.868,251.501,257.021,260.731,265.533,268.293,269.96,274.155,277.269,280.868,283.981,289.501,295.021,299.823,305.343,308.346,311.106,312.652,317.554,326.088,329.201,333.495,337.724,340.837,346.357,351.755,354.515,356.182,359.892,364.794,370.214,375.734,380.636,383.65,386.763,392.283,397.682,401.976,404.736,406.315,409.428,414.948,417.70799999999997,419.254,424.774,427.887,433.286,438.188,441.919,444.679,446.225,450.519,455.454,460.257,463.37,468.89,472.489,476.783,479.543,482.303,483.882,488.784,494.304,499.824,502.838,508.358,511.118,512.785,518.183,522.986" svgx:width="0.44,0.44,0.33,0.5,0.5,0.5,0.25,0.55,0.5,0.28,0.5,0.5,0.28,0.5,0.44,0.25,0.55,0.33,0.44,0.78,0.5,0.5,0.44,0.28,0.25,0.55,0.78,0.44,0.44,0.39,0.5,0.33,0.44,0.39,0.25,0.55,0.5,0.33,0.25,0.55,0.78,0.5,0.33,0.44,0.25,0.55,0.39,0.28,0.33,0.28,0.5,0.5,0.44,0.5,0.28,0.25,0.55,0.44,0.78,0.28,0.39,0.39,0.28,0.5,0.5,0.25,0.55,0.33,0.44,0.5,0.5,0.44,0.28,0.28,0.5,0.5,0.39,0.25,0.55,0.28,0.5,0.25,0.55,0.5,0.28,0.5,0.44,0.33,0.25,0.55,0.39,0.44,0.44,0.28,0.5,0.33,0.39,0.25,0.25,0.55,0.44,0.5,0.5,0.28,0.5,0.25,0.55,0.5,0.44,0.25" style="fill:rgb(0,0,0);font-family:TimesNewRomanPSMT;font-size:11.04px;stroke:none;">carbon dioxide removal measures or more stringent emission reductions in other sectors, could be </text>
  </g>
  <g begin="text">
   <text y="179.78" x="48.48" svgx:width="0.5" style="fill:rgb(0,0,0);font-family:TimesNewRomanPSMT;font-size:11.04px;stroke:none;">8</text>
  </g>
  <g begin="text">
   <text y="179.78" x="54.024" svgx:width="0.25" style="fill:rgb(0,0,0);font-family:TimesNewRomanPSMT;font-size:11.04px;stroke:none;"> </text>
  </g>
  <g begin="text">
   <text y="193.7" x="72.024,76.926,82.446,87.966,91.09,96.489,100.198,105.1,110.62,113.38,121.196,124.309,127.423,132.821,135.935,141.455,144.093" svgx:width="0.44,0.5,0.5,0.28,0.5,0.33,0.44,0.5,0.25,0.72,0.28,0.28,0.5,0.28,0.5,0.25,0.78" style="fill:rgb(0,0,0);font-family:TimesNewRomanPSMT;font-size:11.04px;stroke:none;">explored within m</text>
  </g>
  <g begin="text">
   <text y="193.7" x="152.78,158.3,163.82,168.622,171.736,176.03,178.79" svgx:width="0.5,0.5,0.44,0.28,0.39,0.25,0.25" style="fill:rgb(0,0,0);font-family:TimesNewRomanPSMT;font-size:11.04px;stroke:none;">odels. </text>
  </g>
  <g begin="text">
   <text y="193.7" x="181.49" svgx:width="0.25" style="fill:rgb(0,0,0);font-family:TimesNewRomanPSMT;font-size:11.04px;stroke:none;"> </text>
  </g>
  <g begin="text">
   <text y="193.7" x="48.48" svgx:width="0.5" style="fill:rgb(0,0,0);font-family:TimesNewRomanPSMT;font-size:11.04px;stroke:none;">9</text>
  </g>
  <g begin="text">
   <text y="193.7" x="54.024" svgx:width="0.25" style="fill:rgb(0,0,0);font-family:TimesNewRomanPSMT;font-size:11.04px;stroke:none;"> </text>
  </g>
  <g begin="text">
   <text y="602.109" transform="matrix(0.70711,-0.70711,0.70711,0.70711,-395.12956,250.29085)" rotateDegrees="-45" matrix="[29.803345,29.803345,-29.803345,29.803345,104.563255,239.8115]" x="104.563" svgx:width="0.67" style="fill:rgb(0,0,0);font-family:Arial;font-size:42.15px;stroke:none;">A</text>
   <text y="582.23" transform="matrix(0.70711,-0.70711,0.70711,0.70711,-375.25056,258.525)" rotateDegrees="-45" matrix="[29.803345,29.803345,-29.803345,29.803345,124.442085,259.6903]" x="124.442" svgx:width="0.72" style="fill:rgb(0,0,0);font-family:Arial;font-size:42.15px;stroke:none;">C</text>
   <text y="560.712" transform="matrix(0.70711,-0.70711,0.70711,0.70711,-353.73256,267.43805)" rotateDegrees="-45" matrix="[29.803345,29.803345,-29.803345,29.803345,145.9601,281.20834]" x="145.96" svgx:width="0.72" style="fill:rgb(0,0,0);font-family:Arial;font-size:42.15px;stroke:none;">C</text>
   <text y="539.194" transform="matrix(0.70711,-0.70711,0.70711,0.70711,-332.21456,276.3511)" rotateDegrees="-45" matrix="[29.803345,29.803345,-29.803345,29.803345,167.47812,302.72635]" x="167.478" svgx:width="0.67" style="fill:rgb(0,0,0);font-family:Arial;font-size:42.15px;stroke:none;">E</text>
   <text y="519.315" transform="matrix(0.70711,-0.70711,0.70711,0.70711,-312.33556,284.58525)" rotateDegrees="-45" matrix="[29.803345,29.803345,-29.803345,29.803345,187.35693,322.60516]" x="187.357" svgx:width="0.67" style="fill:rgb(0,0,0);font-family:Arial;font-size:42.15px;stroke:none;">P</text>
   <text y="499.436" transform="matrix(0.70711,-0.70711,0.70711,0.70711,-292.45656,292.8194)" rotateDegrees="-45" matrix="[29.803345,29.803345,-29.803345,29.803345,207.23578,342.484]" x="207.236" svgx:width="0.61" style="fill:rgb(0,0,0);font-family:Arial;font-size:42.15px;stroke:none;">T</text>
   <text y="481.226" transform="matrix(0.70711,-0.70711,0.70711,0.70711,-274.24656,300.36223)" rotateDegrees="-45" matrix="[29.803345,29.803345,-29.803345,29.803345,225.44562,360.69385]" x="225.446" svgx:width="0.67" style="fill:rgb(0,0,0);font-family:Arial;font-size:42.15px;stroke:none;">E</text>
   <text y="461.347" transform="matrix(0.70711,-0.70711,0.70711,0.70711,-254.36786,308.59567)" rotateDegrees="-45" matrix="[29.803345,29.803345,-29.803345,29.803345,245.32443,380.57266]" x="245.324" svgx:width="0.72" style="fill:rgb(0,0,0);font-family:Arial;font-size:42.15px;stroke:none;">D</text>
   <text y="439.829" transform="matrix(0.70711,-0.70711,0.70711,0.70711,-232.84986,317.50872)" rotateDegrees="-45" matrix="[29.803345,29.803345,-29.803345,29.803345,266.84247,402.0907]" x="266.842" svgx:width="0.28" style="fill:rgb(0,0,0);font-family:Arial;font-size:42.15px;stroke:none;"> </text>
   <text y="431.54" transform="matrix(0.70711,-0.70711,0.70711,0.70711,-224.56056,320.94284)" rotateDegrees="-45" matrix="[29.803345,29.803345,-29.803345,29.803345,275.13153,410.37976]" x="275.132" svgx:width="0.67" style="fill:rgb(0,0,0);font-family:Arial;font-size:42.15px;stroke:none;">V</text>
   <text y="411.661" transform="matrix(0.70711,-0.70711,0.70711,0.70711,-204.68186,329.17629)" rotateDegrees="-45" matrix="[29.803345,29.803345,-29.803345,29.803345,295.0103,430.25858]" x="295.01" svgx:width="0.67" style="fill:rgb(0,0,0);font-family:Arial;font-size:42.15px;stroke:none;">E</text>
   <text y="391.783" transform="matrix(0.70711,-0.70711,0.70711,0.70711,-184.80356,337.41073)" rotateDegrees="-45" matrix="[29.803345,29.803345,-29.803345,29.803345,314.88916,450.1374]" x="314.889" svgx:width="0.72" style="fill:rgb(0,0,0);font-family:Arial;font-size:42.15px;stroke:none;">R</text>
   <text y="370.265" transform="matrix(0.70711,-0.70711,0.70711,0.70711,-163.28556,346.32378)" rotateDegrees="-45" matrix="[29.803345,29.803345,-29.803345,29.803345,336.40717,471.65543]" x="336.407" svgx:width="0.67" style="fill:rgb(0,0,0);font-family:Arial;font-size:42.15px;stroke:none;">S</text>
   <text y="350.386" transform="matrix(0.70711,-0.70711,0.70711,0.70711,-143.40656,354.55793)" rotateDegrees="-45" matrix="[29.803345,29.803345,-29.803345,29.803345,356.286,491.53424]" x="356.286" svgx:width="0.28" style="fill:rgb(0,0,0);font-family:Arial;font-size:42.15px;stroke:none;">I</text>
   <text y="342.1" transform="matrix(0.70711,-0.70711,0.70711,0.70711,-135.12086,357.9894)" rotateDegrees="-45" matrix="[29.803345,29.803345,-29.803345,29.803345,364.57135,499.81958]" x="364.571" svgx:width="0.78" style="fill:rgb(0,0,0);font-family:Arial;font-size:42.15px;stroke:none;">O</text>
   <text y="318.913" transform="matrix(0.70711,-0.70711,0.70711,0.70711,-111.93386,367.59377)" rotateDegrees="-45" matrix="[29.803345,29.803345,-29.803345,29.803345,387.7583,523.0066]" x="387.758" svgx:width="0.72" style="fill:rgb(0,0,0);font-family:Arial;font-size:42.15px;stroke:none;">N</text>
   <text y="297.395" transform="matrix(0.70711,-0.70711,0.70711,0.70711,-90.41586,376.50681)" rotateDegrees="-45" matrix="[29.803345,29.803345,-29.803345,29.803345,409.27637,544.5246]" x="409.276" svgx:width="0.28" style="fill:rgb(0,0,0);font-family:Arial;font-size:42.15px;stroke:none;"> </text>
   <text y="637.872" transform="matrix(0.70711,-0.70711,0.70711,0.70711,-409.94279,286.05456)" rotateDegrees="-45" matrix="[29.803345,29.803345,-29.803345,29.803345,140.32727,204.04747]" x="140.327" svgx:width="0.67" style="fill:rgb(0,0,0);font-family:Arial;font-size:42.15px;stroke:none;">S</text>
   <text y="617.994" transform="matrix(0.70711,-0.70711,0.70711,0.70711,-390.0645,294.289)" rotateDegrees="-45" matrix="[29.803345,29.803345,-29.803345,29.803345,160.2061,223.9263]" x="160.206" svgx:width="0.72" style="fill:rgb(0,0,0);font-family:Arial;font-size:42.15px;stroke:none;">U</text>
   <text y="596.476" transform="matrix(0.70711,-0.70711,0.70711,0.70711,-368.5465,303.20205)" rotateDegrees="-45" matrix="[29.803345,29.803345,-29.803345,29.803345,181.72412,245.4443]" x="181.724" svgx:width="0.67" style="fill:rgb(0,0,0);font-family:Arial;font-size:42.15px;stroke:none;">B</text>
   <text y="576.597" transform="matrix(0.70711,-0.70711,0.70711,0.70711,-348.6675,311.4362)" rotateDegrees="-45" matrix="[29.803345,29.803345,-29.803345,29.803345,201.60294,265.32315]" x="201.603" svgx:width="0.5" style="fill:rgb(0,0,0);font-family:Arial;font-size:42.15px;stroke:none;">J</text>
   <text y="561.695" transform="matrix(0.70711,-0.70711,0.70711,0.70711,-333.7655,317.60881)" rotateDegrees="-45" matrix="[29.803345,29.803345,-29.803345,29.803345,216.50462,280.22482]" x="216.505" svgx:width="0.67" style="fill:rgb(0,0,0);font-family:Arial;font-size:42.15px;stroke:none;">E</text>
   <text y="541.816" transform="matrix(0.70711,-0.70711,0.70711,0.70711,-313.88679,325.84225)" rotateDegrees="-45" matrix="[29.803345,29.803345,-29.803345,29.803345,236.38344,300.10364]" x="236.383" svgx:width="0.72" style="fill:rgb(0,0,0);font-family:Arial;font-size:42.15px;stroke:none;">C</text>
   <text y="520.298" transform="matrix(0.70711,-0.70711,0.70711,0.70711,-292.36879,334.7553)" rotateDegrees="-45" matrix="[29.803345,29.803345,-29.803345,29.803345,257.90146,321.62164]" x="257.901" svgx:width="0.61" style="fill:rgb(0,0,0);font-family:Arial;font-size:42.15px;stroke:none;">T</text>
   <text y="502.089" transform="matrix(0.70711,-0.70711,0.70711,0.70711,-274.1595,342.29842)" rotateDegrees="-45" matrix="[29.803345,29.803345,-29.803345,29.803345,276.1113,339.83148]" x="276.111" svgx:width="0.28" style="fill:rgb(0,0,0);font-family:Arial;font-size:42.15px;stroke:none;"> </text>
   <text y="493.803" transform="matrix(0.70711,-0.70711,0.70711,0.70711,-265.8735,345.7306)" rotateDegrees="-45" matrix="[29.803345,29.803345,-29.803345,29.803345,284.39664,348.11682]" x="284.397" svgx:width="0.61" style="fill:rgb(0,0,0);font-family:Arial;font-size:42.15px;stroke:none;">T</text>
   <text y="475.593" transform="matrix(0.70711,-0.70711,0.70711,0.70711,-247.66379,353.27272)" rotateDegrees="-45" matrix="[29.803345,29.803345,-29.803345,29.803345,302.60648,366.32666]" x="302.606" svgx:width="0.78" style="fill:rgb(0,0,0);font-family:Arial;font-size:42.15px;stroke:none;">O</text>
   <text y="452.406" transform="matrix(0.70711,-0.70711,0.70711,0.70711,-224.47679,362.87709)" rotateDegrees="-45" matrix="[29.803345,29.803345,-29.803345,29.803345,325.79346,389.51367]" x="325.793" svgx:width="0.28" style="fill:rgb(0,0,0);font-family:Arial;font-size:42.15px;stroke:none;"> </text>
   <text y="444.136" transform="matrix(0.70711,-0.70711,0.70711,0.70711,-216.2065,366.30334)" rotateDegrees="-45" matrix="[29.803345,29.803345,-29.803345,29.803345,334.0639,397.78412]" x="334.064" svgx:width="0.61" style="fill:rgb(0,0,0);font-family:Arial;font-size:42.15px;stroke:none;">F</text>
   <text y="425.926" transform="matrix(0.70711,-0.70711,0.70711,0.70711,-197.9965,373.84617)" rotateDegrees="-45" matrix="[29.803345,29.803345,-29.803345,29.803345,352.27374,415.99396]" x="352.274" svgx:width="0.28" style="fill:rgb(0,0,0);font-family:Arial;font-size:42.15px;stroke:none;">I</text>
   <text y="417.641" transform="matrix(0.70711,-0.70711,0.70711,0.70711,-189.7115,377.27793)" rotateDegrees="-45" matrix="[29.803345,29.803345,-29.803345,29.803345,360.55908,424.2793]" x="360.559" svgx:width="0.72" style="fill:rgb(0,0,0);font-family:Arial;font-size:42.15px;stroke:none;">N</text>
   <text y="396.123" transform="matrix(0.70711,-0.70711,0.70711,0.70711,-168.1935,386.19098)" rotateDegrees="-45" matrix="[29.803345,29.803345,-29.803345,29.803345,382.0771,445.7973]" x="382.077" svgx:width="0.67" style="fill:rgb(0,0,0);font-family:Arial;font-size:42.15px;stroke:none;">A</text>
   <text y="376.244" transform="matrix(0.70711,-0.70711,0.70711,0.70711,-148.3145,394.42513)" rotateDegrees="-45" matrix="[29.803345,29.803345,-29.803345,29.803345,401.95593,465.67615]" x="401.956" svgx:width="0.56" style="fill:rgb(0,0,0);font-family:Arial;font-size:42.15px;stroke:none;">L</text>
   <text y="359.673" transform="matrix(0.70711,-0.70711,0.70711,0.70711,-131.7435,401.28906)" rotateDegrees="-45" matrix="[29.803345,29.803345,-29.803345,29.803345,418.5266,482.24677]" x="418.527" svgx:width="0.28" style="fill:rgb(0,0,0);font-family:Arial;font-size:42.15px;stroke:none;"> </text>
   <text y="351.394" transform="matrix(0.70711,-0.70711,0.70711,0.70711,-123.4645,404.71834)" rotateDegrees="-45" matrix="[29.803345,29.803345,-29.803345,29.803345,426.80573,490.52588]" x="426.806" svgx:width="0.67" style="fill:rgb(0,0,0);font-family:Arial;font-size:42.15px;stroke:none;">E</text>
   <text y="331.515" transform="matrix(0.70711,-0.70711,0.70711,0.70711,-103.5855,412.95249)" rotateDegrees="-45" matrix="[29.803345,29.803345,-29.803345,29.803345,446.68457,510.40472]" x="446.685" svgx:width="0.72" style="fill:rgb(0,0,0);font-family:Arial;font-size:42.15px;stroke:none;">D</text>
   <text y="309.997" transform="matrix(0.70711,-0.70711,0.70711,0.70711,-82.0675,421.86554)" rotateDegrees="-45" matrix="[29.803345,29.803345,-29.803345,29.803345,468.2025,531.9227]" x="468.203" svgx:width="0.28" style="fill:rgb(0,0,0);font-family:Arial;font-size:42.15px;stroke:none;">I</text>
   <text y="301.712" transform="matrix(0.70711,-0.70711,0.70711,0.70711,-73.7825,425.29729)" rotateDegrees="-45" matrix="[29.803345,29.803345,-29.803345,29.803345,476.48785,540.20807]" x="476.488" svgx:width="0.61" style="fill:rgb(0,0,0);font-family:Arial;font-size:42.15px;stroke:none;">T</text>
   <text y="283.502" transform="matrix(0.70711,-0.70711,0.70711,0.70711,-55.5725,432.84012)" rotateDegrees="-45" matrix="[29.803345,29.803345,-29.803345,29.803345,494.6977,558.4179]" x="494.698" svgx:width="0.67" style="fill:rgb(0,0,0);font-family:Arial;font-size:42.15px;stroke:none;">S</text>
  </g>
 </g>
</svg>
