<?xml version="1.0" encoding="UTF-8" standalone="no"?>
<!DOCTYPE svg PUBLIC "-//W3C//DTD SVG 1.1//EN"
 "http://www.w3.org/Graphics/SVG/1.1/DTD/svg11.dtd">
<!-- Generated by graphviz version 9.0.0 (20230911.1827)
 -->
<!-- Title: norma Pages: 1 -->
<svg width="748pt" height="474pt"
 viewBox="0.00 0.00 747.67 474.00" xmlns="http://www.w3.org/2000/svg" xmlns:xlink="http://www.w3.org/1999/xlink">
<g id="graph0" class="graph" transform="scale(1 1) rotate(0) translate(4 470)">
<title>norma</title>
<polygon fill="white" stroke="none" points="-4,4 -4,-470 743.67,-470 743.67,4 -4,4"/>
<g id="clust4" class="cluster">
<title>cluster_norma</title>
<polygon fill="none" stroke="cyan" stroke-width="3" points="149.67,-164 149.67,-240.5 419.67,-240.5 419.67,-164 149.67,-164"/>
<text text-anchor="middle" x="284.67" y="-223.2" font-family="Times,serif" font-size="14.00">norma</text>
</g>
<!-- apiquery -->
<g id="node1" class="node">
<title>apiquery</title>
<ellipse fill="yellow" stroke="yellow" cx="171.67" cy="-448" rx="43.16" ry="18"/>
<text text-anchor="middle" x="171.67" y="-442.95" font-family="Times,serif" font-size="14.00">apiquery</text>
</g>
<!-- getp -->
<g id="node3" class="node">
<title>getp</title>
<polygon fill="cyan" stroke="cyan" points="205.55,-380 137.8,-380 137.8,-344 205.55,-344 205.55,-380"/>
<text text-anchor="middle" x="171.67" y="-356.95" font-family="Times,serif" font-size="14.00">getpapers</text>
</g>
<!-- apiquery&#45;&gt;getp -->
<g id="edge1" class="edge">
<title>apiquery&#45;&gt;getp</title>
<path fill="none" stroke="black" d="M171.67,-429.6C171.67,-418.67 171.67,-404.32 171.67,-391.73"/>
<polygon fill="black" stroke="black" points="175.17,-391.9 171.67,-381.9 168.17,-391.9 175.17,-391.9"/>
</g>
<!-- urllist -->
<g id="node2" class="node">
<title>urllist</title>
<ellipse fill="yellow" stroke="yellow" cx="460.67" cy="-448" rx="32.41" ry="18"/>
<text text-anchor="middle" x="460.67" y="-442.95" font-family="Times,serif" font-size="14.00">urllist</text>
</g>
<!-- qs -->
<g id="node4" class="node">
<title>qs</title>
<polygon fill="cyan" stroke="cyan" points="500.92,-380 420.42,-380 420.42,-344 500.92,-344 500.92,-380"/>
<text text-anchor="middle" x="460.67" y="-356.95" font-family="Times,serif" font-size="14.00">quickscrape</text>
</g>
<!-- urllist&#45;&gt;qs -->
<g id="edge2" class="edge">
<title>urllist&#45;&gt;qs</title>
<path fill="none" stroke="black" d="M460.67,-429.6C460.67,-418.67 460.67,-404.32 460.67,-391.73"/>
<polygon fill="black" stroke="black" points="464.17,-391.9 460.67,-381.9 457.17,-391.9 464.17,-391.9"/>
</g>
<!-- f.xml -->
<g id="node5" class="node">
<title>f.xml</title>
<ellipse fill="none" stroke="black" stroke-width="2" cx="171.67" cy="-276" rx="54.93" ry="18"/>
<text text-anchor="middle" x="171.67" y="-270.95" font-family="Times,serif" font-size="14.00">fulltext.xml</text>
</g>
<!-- getp&#45;&gt;f.xml -->
<g id="edge3" class="edge">
<title>getp&#45;&gt;f.xml</title>
<path fill="none" stroke="black" stroke-width="2" d="M171.67,-343.6C171.67,-332.82 171.67,-318.7 171.67,-306.24"/>
<polygon fill="black" stroke="black" stroke-width="2" points="175.17,-307.99 171.67,-297.99 168.17,-307.99 175.17,-307.99"/>
</g>
<!-- f.pdf -->
<g id="node7" class="node">
<title>f.pdf</title>
<ellipse fill="pink" stroke="pink" cx="460.67" cy="-276" rx="52.38" ry="18"/>
<text text-anchor="middle" x="460.67" y="-270.95" font-family="Times,serif" font-size="14.00">fulltext.pdf</text>
</g>
<!-- getp&#45;&gt;f.pdf -->
<g id="edge4" class="edge">
<title>getp&#45;&gt;f.pdf</title>
<path fill="none" stroke="black" stroke-width="2" d="M205.96,-351.03C256.81,-336.25 352.49,-308.45 411,-291.44"/>
<polygon fill="black" stroke="black" stroke-width="2" points="410.3,-295.29 418.93,-289.13 408.35,-288.56 410.3,-295.29"/>
</g>
<!-- sdata -->
<g id="node10" class="node">
<title>sdata</title>
<ellipse fill="pink" stroke="pink" stroke-width="2" cx="43.67" cy="-276" rx="43.67" ry="18"/>
<text text-anchor="middle" x="43.67" y="-270.95" font-family="Times,serif" font-size="14.00">suppdata</text>
</g>
<!-- getp&#45;&gt;sdata -->
<g id="edge5" class="edge">
<title>getp&#45;&gt;sdata</title>
<path fill="none" stroke="black" stroke-width="2" d="M145.15,-343.6C125.18,-330.49 97.68,-312.44 76.35,-298.44"/>
<polygon fill="black" stroke="black" stroke-width="2" points="79.54,-296.35 69.26,-293.79 75.7,-302.2 79.54,-296.35"/>
</g>
<!-- qs&#45;&gt;f.xml -->
<g id="edge6" class="edge">
<title>qs&#45;&gt;f.xml</title>
<path fill="none" stroke="black" stroke-width="2" d="M420.19,-349.23C368.63,-334.25 279.5,-308.34 223.16,-291.97"/>
<polygon fill="black" stroke="black" stroke-width="2" points="225.84,-289.1 215.26,-289.67 223.89,-295.82 225.84,-289.1"/>
</g>
<!-- f.html -->
<g id="node6" class="node">
<title>f.html</title>
<ellipse fill="none" stroke="black" stroke-width="2" cx="599.67" cy="-276" rx="57.49" ry="18"/>
<text text-anchor="middle" x="599.67" y="-270.95" font-family="Times,serif" font-size="14.00">fulltext.html</text>
</g>
<!-- qs&#45;&gt;f.html -->
<g id="edge7" class="edge">
<title>qs&#45;&gt;f.html</title>
<path fill="none" stroke="black" stroke-width="2" d="M489.48,-343.6C511.09,-330.53 540.81,-312.58 563.94,-298.6"/>
<polygon fill="black" stroke="black" stroke-width="2" points="564.38,-302.42 571.13,-294.25 560.76,-296.43 564.38,-302.42"/>
</g>
<!-- qs&#45;&gt;f.pdf -->
<g id="edge8" class="edge">
<title>qs&#45;&gt;f.pdf</title>
<path fill="none" stroke="black" stroke-width="2" d="M460.67,-343.6C460.67,-332.67 460.67,-318.32 460.67,-305.73"/>
<polygon fill="black" stroke="black" stroke-width="2" points="464.17,-307.41 460.67,-297.41 457.17,-307.41 464.17,-307.41"/>
</g>
<!-- png -->
<g id="node9" class="node">
<title>png</title>
<ellipse fill="pink" stroke="pink" stroke-width="2" cx="712.67" cy="-276" rx="27" ry="18"/>
<text text-anchor="middle" x="712.67" y="-270.95" font-family="Times,serif" font-size="14.00">png</text>
</g>
<!-- qs&#45;&gt;png -->
<g id="edge9" class="edge">
<title>qs&#45;&gt;png</title>
<path fill="none" stroke="black" stroke-width="2" d="M501.08,-349.29C543.8,-336.65 613.01,-315.43 671.67,-294 674.18,-293.09 676.75,-292.11 679.34,-291.1"/>
<polygon fill="black" stroke="black" stroke-width="2" points="679.05,-294.99 687.02,-288.01 676.43,-288.5 679.05,-294.99"/>
</g>
<!-- qs&#45;&gt;sdata -->
<g id="edge10" class="edge">
<title>qs&#45;&gt;sdata</title>
<path fill="none" stroke="black" stroke-width="2" d="M420.14,-354.71C353.51,-344.08 216.81,-321.06 102.67,-294 98.42,-292.99 94.01,-291.87 89.62,-290.7"/>
<polygon fill="black" stroke="black" stroke-width="2" points="92.27,-287.8 81.7,-288.52 90.41,-294.55 92.27,-287.8"/>
</g>
<!-- n.stylesheets -->
<g id="node12" class="node">
<title>n.stylesheets</title>
<polygon fill="cyan" stroke="cyan" points="231.92,-208 157.42,-208 157.42,-172 231.92,-172 231.92,-208"/>
<text text-anchor="middle" x="194.67" y="-184.95" font-family="Times,serif" font-size="14.00">stylesheets</text>
</g>
<!-- f.xml&#45;&gt;n.stylesheets -->
<g id="edge11" class="edge">
<title>f.xml&#45;&gt;n.stylesheets</title>
<path fill="none" stroke="black" stroke-width="2" d="M176.55,-257.19C179.58,-246.12 183.54,-231.67 186.98,-219.09"/>
<polygon fill="black" stroke="black" stroke-width="2" points="189.9,-221.7 189.16,-211.13 183.14,-219.85 189.9,-221.7"/>
</g>
<!-- n.tidy -->
<g id="node13" class="node">
<title>n.tidy</title>
<polygon fill="cyan" stroke="cyan" points="411.67,-208 357.67,-208 357.67,-172 411.67,-172 411.67,-208"/>
<text text-anchor="middle" x="384.67" y="-184.95" font-family="Times,serif" font-size="14.00">tidy</text>
</g>
<!-- f.html&#45;&gt;n.tidy -->
<g id="edge12" class="edge">
<title>f.html&#45;&gt;n.tidy</title>
<path fill="none" stroke="black" stroke-width="2" d="M564.17,-261.13C525.14,-245.88 462.68,-221.48 422.68,-205.85"/>
<polygon fill="black" stroke="black" stroke-width="2" points="425.44,-203.17 414.85,-202.79 422.89,-209.69 425.44,-203.17"/>
</g>
<!-- f.xhtml -->
<g id="node8" class="node">
<title>f.xhtml</title>
<ellipse fill="none" stroke="black" cx="317.67" cy="-276" rx="62.1" ry="18"/>
<text text-anchor="middle" x="317.67" y="-270.95" font-family="Times,serif" font-size="14.00">fulltext.xhtml</text>
</g>
<!-- n.htmlstyle -->
<g id="node14" class="node">
<title>n.htmlstyle</title>
<polygon fill="cyan" stroke="cyan" points="328.17,-208 261.17,-208 261.17,-172 328.17,-172 328.17,-208"/>
<text text-anchor="middle" x="294.67" y="-184.95" font-family="Times,serif" font-size="14.00">htmlstyle</text>
</g>
<!-- f.xhtml&#45;&gt;n.htmlstyle -->
<g id="edge14" class="edge">
<title>f.xhtml&#45;&gt;n.htmlstyle</title>
<path fill="none" stroke="black" stroke-width="2" d="M312.91,-257.6C309.89,-246.56 305.91,-232.02 302.44,-219.35"/>
<polygon fill="black" stroke="black" stroke-width="2" points="306.25,-220.02 300.23,-211.3 299.5,-221.87 306.25,-220.02"/>
</g>
<!-- s.html -->
<g id="node11" class="node">
<title>s.html</title>
<ellipse fill="red" stroke="red" stroke-width="2" cx="244.67" cy="-18" rx="64.15" ry="18"/>
<text text-anchor="middle" x="244.67" y="-12.95" font-family="Times,serif" font-size="14.00">semantic.html</text>
</g>
<!-- tagger -->
<g id="node15" class="node">
<title>tagger</title>
<polygon fill="cyan" stroke="cyan" points="271.67,-122 217.67,-122 217.67,-86 271.67,-86 271.67,-122"/>
<text text-anchor="middle" x="244.67" y="-98.95" font-family="Times,serif" font-size="14.00">tagger</text>
</g>
<!-- n.stylesheets&#45;&gt;tagger -->
<g id="edge15" class="edge">
<title>n.stylesheets&#45;&gt;tagger</title>
<path fill="none" stroke="black" stroke-width="2" d="M205.03,-171.6C211.81,-160.22 220.79,-145.13 228.49,-132.19"/>
<polygon fill="black" stroke="black" stroke-width="2" points="230.67,-135.37 232.78,-124.98 224.66,-131.79 230.67,-135.37"/>
</g>
<!-- n.tidy&#45;&gt;f.xhtml -->
<g id="edge13" class="edge">
<title>n.tidy&#45;&gt;f.xhtml</title>
<path fill="none" stroke="black" stroke-width="2" d="M370.91,-208.26C361.48,-220.09 348.8,-235.97 338.19,-249.28"/>
<polygon fill="black" stroke="black" stroke-width="2" points="336.62,-245.63 333.12,-255.63 342.09,-250 336.62,-245.63"/>
</g>
<!-- n.htmlstyle&#45;&gt;tagger -->
<g id="edge16" class="edge">
<title>n.htmlstyle&#45;&gt;tagger</title>
<path fill="none" stroke="black" stroke-width="2" d="M284.31,-171.6C277.54,-160.22 268.56,-145.13 260.86,-132.19"/>
<polygon fill="black" stroke="black" stroke-width="2" points="264.69,-131.79 256.57,-124.98 258.68,-135.37 264.69,-131.79"/>
</g>
<!-- tagger&#45;&gt;s.html -->
<g id="edge17" class="edge">
<title>tagger&#45;&gt;s.html</title>
<path fill="none" stroke="black" stroke-width="2" d="M244.67,-85.6C244.67,-74.82 244.67,-60.7 244.67,-48.24"/>
<polygon fill="black" stroke="black" stroke-width="2" points="248.17,-49.99 244.67,-39.99 241.17,-49.99 248.17,-49.99"/>
</g>
</g>
</svg>
