<?xml version="1.0" encoding="UTF-8" standalone="no"?>
<!DOCTYPE svg PUBLIC "-//W3C//DTD SVG 1.1//EN"
 "http://www.w3.org/Graphics/SVG/1.1/DTD/svg11.dtd">
<!-- Generated by graphviz version 9.0.0 (20230911.1827)
 -->
<!-- Title: norma Pages: 1 -->
<svg width="1040pt" height="560pt"
 viewBox="0.00 0.00 1040.15 560.00" xmlns="http://www.w3.org/2000/svg" xmlns:xlink="http://www.w3.org/1999/xlink">
<g id="graph0" class="graph" transform="scale(1 1) rotate(0) translate(4 556)">
<title>norma</title>
<polygon fill="white" stroke="none" points="-4,4 -4,-556 1036.15,-556 1036.15,4 -4,4"/>
<g id="clust7" class="cluster">
<title>cluster_norma</title>
<polygon fill="none" stroke="pink" stroke-width="3" points="87,-250 87,-326.5 883,-326.5 883,-250 87,-250"/>
<text text-anchor="middle" x="485" y="-309.2" font-family="Times,serif" font-size="14.00">norma</text>
</g>
<!-- apiquery -->
<g id="node1" class="node">
<title>apiquery</title>
<ellipse fill="yellow" stroke="yellow" cx="595" cy="-534" rx="43.16" ry="18"/>
<text text-anchor="middle" x="595" y="-528.95" font-family="Times,serif" font-size="14.00">apiquery</text>
</g>
<!-- getp -->
<g id="node3" class="node">
<title>getp</title>
<polygon fill="cyan" stroke="cyan" points="629.88,-466 562.12,-466 562.12,-430 629.88,-430 629.88,-466"/>
<text text-anchor="middle" x="596" y="-442.95" font-family="Times,serif" font-size="14.00">getpapers</text>
</g>
<!-- apiquery&#45;&gt;getp -->
<g id="edge1" class="edge">
<title>apiquery&#45;&gt;getp</title>
<path fill="none" stroke="black" d="M595.21,-515.6C595.34,-504.67 595.51,-490.32 595.66,-477.73"/>
<polygon fill="black" stroke="black" points="599.16,-477.94 595.78,-467.9 592.16,-477.85 599.16,-477.94"/>
</g>
<!-- urllist -->
<g id="node2" class="node">
<title>urllist</title>
<ellipse fill="yellow" stroke="yellow" cx="700" cy="-534" rx="32.41" ry="18"/>
<text text-anchor="middle" x="700" y="-528.95" font-family="Times,serif" font-size="14.00">urllist</text>
</g>
<!-- qs -->
<g id="node4" class="node">
<title>qs</title>
<polygon fill="cyan" stroke="cyan" points="739.25,-466 658.75,-466 658.75,-430 739.25,-430 739.25,-466"/>
<text text-anchor="middle" x="699" y="-442.95" font-family="Times,serif" font-size="14.00">quickscrape</text>
</g>
<!-- urllist&#45;&gt;qs -->
<g id="edge2" class="edge">
<title>urllist&#45;&gt;qs</title>
<path fill="none" stroke="black" d="M699.79,-515.6C699.66,-504.67 699.49,-490.32 699.34,-477.73"/>
<polygon fill="black" stroke="black" points="702.84,-477.85 699.22,-467.9 695.84,-477.94 702.84,-477.85"/>
</g>
<!-- f.xml -->
<g id="node5" class="node">
<title>f.xml</title>
<ellipse fill="none" stroke="black" stroke-width="2" cx="784" cy="-362" rx="54.93" ry="18"/>
<text text-anchor="middle" x="784" y="-356.95" font-family="Times,serif" font-size="14.00">fulltext.xml</text>
</g>
<!-- getp&#45;&gt;f.xml -->
<g id="edge3" class="edge">
<title>getp&#45;&gt;f.xml</title>
<path fill="none" stroke="black" stroke-width="2" d="M630.05,-431.79C661.27,-417.84 707.63,-397.12 741.32,-382.07"/>
<polygon fill="black" stroke="black" stroke-width="2" points="741.31,-385.91 749.01,-378.63 738.46,-379.52 741.31,-385.91"/>
</g>
<!-- f.pdf -->
<g id="node7" class="node">
<title>f.pdf</title>
<ellipse fill="pink" stroke="pink" cx="648" cy="-362" rx="52.38" ry="18"/>
<text text-anchor="middle" x="648" y="-356.95" font-family="Times,serif" font-size="14.00">fulltext.pdf</text>
</g>
<!-- getp&#45;&gt;f.pdf -->
<g id="edge4" class="edge">
<title>getp&#45;&gt;f.pdf</title>
<path fill="none" stroke="black" stroke-width="2" d="M606.77,-429.6C613.93,-418.03 623.47,-402.62 631.57,-389.54"/>
<polygon fill="black" stroke="black" stroke-width="2" points="633.54,-393.01 635.82,-382.67 627.58,-389.33 633.54,-393.01"/>
</g>
<!-- sdata -->
<g id="node15" class="node">
<title>sdata</title>
<ellipse fill="pink" stroke="pink" stroke-width="2" cx="77" cy="-362" rx="43.67" ry="18"/>
<text text-anchor="middle" x="77" y="-356.95" font-family="Times,serif" font-size="14.00">suppdata</text>
</g>
<!-- getp&#45;&gt;sdata -->
<g id="edge5" class="edge">
<title>getp&#45;&gt;sdata</title>
<path fill="none" stroke="black" stroke-width="2" d="M561.87,-443.7C485.03,-435.92 292.84,-414.42 135,-380 130.92,-379.11 126.7,-378.08 122.49,-376.99"/>
<polygon fill="black" stroke="black" stroke-width="2" points="124.94,-374.03 114.37,-374.76 123.09,-380.78 124.94,-374.03"/>
</g>
<!-- qs&#45;&gt;f.xml -->
<g id="edge6" class="edge">
<title>qs&#45;&gt;f.xml</title>
<path fill="none" stroke="black" stroke-width="2" d="M716.61,-429.6C728.85,-417.5 745.35,-401.2 758.96,-387.75"/>
<polygon fill="black" stroke="black" stroke-width="2" points="760.18,-391.46 764.84,-381.94 755.26,-386.48 760.18,-391.46"/>
</g>
<!-- f.html -->
<g id="node6" class="node">
<title>f.html</title>
<ellipse fill="none" stroke="black" stroke-width="2" cx="361" cy="-362" rx="57.49" ry="18"/>
<text text-anchor="middle" x="361" y="-356.95" font-family="Times,serif" font-size="14.00">fulltext.html</text>
</g>
<!-- qs&#45;&gt;f.html -->
<g id="edge7" class="edge">
<title>qs&#45;&gt;f.html</title>
<path fill="none" stroke="black" stroke-width="2" d="M658.54,-434.16C653.66,-432.71 648.72,-431.29 644,-430 641.23,-429.25 499.45,-395.72 417.65,-376.39"/>
<polygon fill="black" stroke="black" stroke-width="2" points="420.01,-373.35 409.48,-374.45 418.4,-380.16 420.01,-373.35"/>
</g>
<!-- qs&#45;&gt;f.pdf -->
<g id="edge8" class="edge">
<title>qs&#45;&gt;f.pdf</title>
<path fill="none" stroke="black" stroke-width="2" d="M688.43,-429.6C681.48,-418.14 672.24,-402.93 664.35,-389.93"/>
<polygon fill="black" stroke="black" stroke-width="2" points="668.13,-389.41 659.95,-382.68 662.15,-393.05 668.13,-389.41"/>
</g>
<!-- png -->
<g id="node11" class="node">
<title>png</title>
<ellipse fill="pink" stroke="pink" stroke-width="2" cx="895" cy="-362" rx="27" ry="18"/>
<text text-anchor="middle" x="895" y="-356.95" font-family="Times,serif" font-size="14.00">png</text>
</g>
<!-- qs&#45;&gt;png -->
<g id="edge9" class="edge">
<title>qs&#45;&gt;png</title>
<path fill="none" stroke="black" stroke-width="2" d="M739.61,-429.6C775.83,-414.07 828.2,-391.63 861.93,-377.17"/>
<polygon fill="black" stroke="black" stroke-width="2" points="861.58,-381.13 869.4,-373.97 858.83,-374.7 861.58,-381.13"/>
</g>
<!-- qs&#45;&gt;sdata -->
<g id="edge10" class="edge">
<title>qs&#45;&gt;sdata</title>
<path fill="none" stroke="black" stroke-width="2" d="M658.39,-433.45C653.58,-432.14 648.7,-430.95 644,-430 421.17,-385.1 358.16,-423.27 135,-380 130.72,-379.17 126.3,-378.16 121.9,-377.05"/>
<polygon fill="black" stroke="black" stroke-width="2" points="124.58,-374.15 114.01,-374.93 122.76,-380.91 124.58,-374.15"/>
</g>
<!-- n.stylesheets -->
<g id="node17" class="node">
<title>n.stylesheets</title>
<polygon fill="cyan" stroke="cyan" points="786.25,-294 711.75,-294 711.75,-258 786.25,-258 786.25,-294"/>
<text text-anchor="middle" x="749" y="-270.95" font-family="Times,serif" font-size="14.00">stylesheets</text>
</g>
<!-- f.xml&#45;&gt;n.stylesheets -->
<g id="edge11" class="edge">
<title>f.xml&#45;&gt;n.stylesheets</title>
<path fill="none" stroke="black" stroke-width="2" d="M776.58,-343.19C771.92,-332.01 765.82,-317.37 760.54,-304.7"/>
<polygon fill="black" stroke="black" stroke-width="2" points="764.41,-304.89 757.34,-297.01 757.95,-307.59 764.41,-304.89"/>
</g>
<!-- n.tidy -->
<g id="node18" class="node">
<title>n.tidy</title>
<polygon fill="cyan" stroke="cyan" points="329,-294 275,-294 275,-258 329,-258 329,-294"/>
<text text-anchor="middle" x="302" y="-270.95" font-family="Times,serif" font-size="14.00">tidy</text>
</g>
<!-- f.html&#45;&gt;n.tidy -->
<g id="edge12" class="edge">
<title>f.html&#45;&gt;n.tidy</title>
<path fill="none" stroke="black" stroke-width="2" d="M348.78,-343.6C340.71,-332.11 329.97,-316.83 320.83,-303.8"/>
<polygon fill="black" stroke="black" stroke-width="2" points="324.56,-303.03 315.95,-296.86 318.83,-307.05 324.56,-303.03"/>
</g>
<!-- n.pdf2txt -->
<g id="node20" class="node">
<title>n.pdf2txt</title>
<polygon fill="cyan" stroke="cyan" points="496.5,-294 441.5,-294 441.5,-258 496.5,-258 496.5,-294"/>
<text text-anchor="middle" x="469" y="-270.95" font-family="Times,serif" font-size="14.00">pdf2txt</text>
</g>
<!-- f.pdf&#45;&gt;n.pdf2txt -->
<g id="edge15" class="edge">
<title>f.pdf&#45;&gt;n.pdf2txt</title>
<path fill="none" stroke="black" d="M606.9,-350.55C598.34,-348.38 589.38,-346.11 581,-344 549.9,-336.17 538.24,-343.43 511,-326.5 501.44,-320.56 492.95,-311.72 486.14,-303.15"/>
<polygon fill="black" stroke="black" points="489.11,-301.28 480.35,-295.32 483.48,-305.44 489.11,-301.28"/>
</g>
<!-- n.pdf2svg -->
<g id="node21" class="node">
<title>n.pdf2svg</title>
<polygon fill="cyan" stroke="cyan" points="874.75,-294 815.25,-294 815.25,-258 874.75,-258 874.75,-294"/>
<text text-anchor="middle" x="845" y="-270.95" font-family="Times,serif" font-size="14.00">pdf2svg</text>
</g>
<!-- f.pdf&#45;&gt;n.pdf2svg -->
<g id="edge17" class="edge">
<title>f.pdf&#45;&gt;n.pdf2svg</title>
<path fill="none" stroke="black" d="M688.67,-350.35C697.34,-348.17 706.46,-345.95 715,-344 753.03,-335.31 767.2,-345.96 801,-326.5 810.95,-320.77 819.84,-311.98 826.97,-303.38"/>
<polygon fill="black" stroke="black" points="829.72,-305.54 833.07,-295.49 824.18,-301.26 829.72,-305.54"/>
</g>
<!-- n.pdf2html -->
<g id="node22" class="node">
<title>n.pdf2html</title>
<polygon fill="cyan" stroke="cyan" points="683.12,-294 616.88,-294 616.88,-258 683.12,-258 683.12,-294"/>
<text text-anchor="middle" x="650" y="-270.95" font-family="Times,serif" font-size="14.00">pdf2html</text>
</g>
<!-- f.pdf&#45;&gt;n.pdf2html -->
<g id="edge20" class="edge">
<title>f.pdf&#45;&gt;n.pdf2html</title>
<path fill="none" stroke="black" d="M648.41,-343.6C648.67,-332.67 649.02,-318.32 649.32,-305.73"/>
<polygon fill="black" stroke="black" points="652.81,-305.98 649.55,-295.9 645.81,-305.81 652.81,-305.98"/>
</g>
<!-- f.pdf.html -->
<g id="node8" class="node">
<title>f.pdf.html</title>
<ellipse fill="none" stroke="black" cx="670" cy="-190" rx="72.34" ry="18"/>
<text text-anchor="middle" x="670" y="-184.95" font-family="Times,serif" font-size="14.00">fulltext.pdf.html</text>
</g>
<!-- tagger -->
<g id="node25" class="node">
<title>tagger</title>
<polygon fill="cyan" stroke="cyan" points="697,-122 643,-122 643,-86 697,-86 697,-122"/>
<text text-anchor="middle" x="670" y="-98.95" font-family="Times,serif" font-size="14.00">tagger</text>
</g>
<!-- f.pdf.html&#45;&gt;tagger -->
<g id="edge28" class="edge">
<title>f.pdf.html&#45;&gt;tagger</title>
<path fill="none" stroke="black" d="M670,-171.6C670,-160.67 670,-146.32 670,-133.73"/>
<polygon fill="black" stroke="black" points="673.5,-133.9 670,-123.9 666.5,-133.9 673.5,-133.9"/>
</g>
<!-- f.pdf.txt -->
<g id="node9" class="node">
<title>f.pdf.txt</title>
<ellipse fill="pink" stroke="pink" cx="504" cy="-190" rx="64.66" ry="18"/>
<text text-anchor="middle" x="504" y="-184.95" font-family="Times,serif" font-size="14.00">fulltext.pdf.txt</text>
</g>
<!-- f.xhtml -->
<g id="node10" class="node">
<title>f.xhtml</title>
<ellipse fill="none" stroke="black" cx="212" cy="-362" rx="62.1" ry="18"/>
<text text-anchor="middle" x="212" y="-356.95" font-family="Times,serif" font-size="14.00">fulltext.xhtml</text>
</g>
<!-- n.htmlstyle -->
<g id="node19" class="node">
<title>n.htmlstyle</title>
<polygon fill="cyan" stroke="cyan" points="245.5,-294 178.5,-294 178.5,-258 245.5,-258 245.5,-294"/>
<text text-anchor="middle" x="212" y="-270.95" font-family="Times,serif" font-size="14.00">htmlstyle</text>
</g>
<!-- f.xhtml&#45;&gt;n.htmlstyle -->
<g id="edge14" class="edge">
<title>f.xhtml&#45;&gt;n.htmlstyle</title>
<path fill="none" stroke="black" stroke-width="2" d="M212,-343.6C212,-332.67 212,-318.32 212,-305.73"/>
<polygon fill="black" stroke="black" stroke-width="2" points="215.5,-307.41 212,-297.41 208.5,-307.41 215.5,-307.41"/>
</g>
<!-- n.ocr -->
<g id="node23" class="node">
<title>n.ocr</title>
<polygon fill="cyan" stroke="cyan" points="588.25,-294 525.75,-294 525.75,-258 588.25,-258 588.25,-294"/>
<text text-anchor="middle" x="557" y="-270.95" font-family="Times,serif" font-size="14.00">tesseract</text>
</g>
<!-- png&#45;&gt;n.ocr -->
<g id="edge22" class="edge">
<title>png&#45;&gt;n.ocr</title>
<path fill="none" stroke="black" d="M872.75,-350.48C866.49,-347.94 859.59,-345.52 853,-344 798.52,-331.41 652.32,-350.89 602,-326.5 591.3,-321.31 581.95,-312.35 574.6,-303.47"/>
<polygon fill="black" stroke="black" points="577.44,-301.43 568.59,-295.6 571.88,-305.68 577.44,-301.43"/>
</g>
<!-- cluster_norma -->
<g id="node29" class="node">
<title>cluster_norma</title>
<ellipse fill="none" stroke="black" cx="968" cy="-276" rx="64.15" ry="18"/>
<text text-anchor="middle" x="968" y="-270.95" font-family="Times,serif" font-size="14.00">cluster_norma</text>
</g>
<!-- png&#45;&gt;cluster_norma -->
<g id="edge33" class="edge">
<title>png&#45;&gt;cluster_norma</title>
<path fill="none" stroke="black" d="M908.39,-345.59C918.96,-333.43 933.91,-316.22 946.2,-302.08"/>
<polygon fill="black" stroke="black" points="948.53,-304.74 952.45,-294.89 943.25,-300.14 948.53,-304.74"/>
</g>
<!-- png.hocr.html -->
<g id="node12" class="node">
<title>png.hocr.html</title>
<ellipse fill="none" stroke="black" cx="507" cy="-362" rx="59.54" ry="18"/>
<text text-anchor="middle" x="507" y="-356.95" font-family="Times,serif" font-size="14.00">HTML&#45;OCR</text>
</g>
<!-- n.ocr2 -->
<g id="node24" class="node">
<title>n.ocr2</title>
<polygon fill="cyan" stroke="cyan" points="412,-294 358,-294 358,-258 412,-258 412,-294"/>
<text text-anchor="middle" x="385" y="-270.95" font-family="Times,serif" font-size="14.00">ocr</text>
</g>
<!-- png.hocr.html&#45;&gt;n.ocr2 -->
<g id="edge24" class="edge">
<title>png.hocr.html&#45;&gt;n.ocr2</title>
<path fill="none" stroke="black" d="M467.63,-348.2C454.02,-342.73 439.16,-335.5 427,-326.5 418.31,-320.07 410.24,-311.51 403.54,-303.32"/>
<polygon fill="black" stroke="black" points="406.42,-301.32 397.53,-295.56 400.88,-305.61 406.42,-301.32"/>
</g>
<!-- png.hocr.svg -->
<g id="node13" class="node">
<title>png.hocr.svg</title>
<ellipse fill="pink" stroke="pink" cx="318" cy="-190" rx="92.81" ry="18"/>
<text text-anchor="middle" x="318" y="-184.95" font-family="Times,serif" font-size="14.00">OCR&#39;ed image (SVG)</text>
</g>
<!-- svg -->
<g id="node14" class="node">
<title>svg</title>
<ellipse fill="pink" stroke="pink" stroke-width="2" cx="857" cy="-190" rx="27" ry="18"/>
<text text-anchor="middle" x="857" y="-184.95" font-family="Times,serif" font-size="14.00">svg</text>
</g>
<!-- n.ctree -->
<g id="node26" class="node">
<title>n.ctree</title>
<polygon fill="cyan" stroke="cyan" points="149,-294 95,-294 95,-258 149,-258 149,-294"/>
<text text-anchor="middle" x="122" y="-270.95" font-family="Times,serif" font-size="14.00">ctree</text>
</g>
<!-- sdata&#45;&gt;n.ctree -->
<g id="edge30" class="edge">
<title>sdata&#45;&gt;n.ctree</title>
<path fill="none" stroke="black" d="M86.32,-343.6C92.42,-332.22 100.5,-317.13 107.44,-304.19"/>
<polygon fill="black" stroke="black" points="110.34,-306.18 111.97,-295.72 104.17,-302.88 110.34,-306.18"/>
</g>
<!-- s.html -->
<g id="node16" class="node">
<title>s.html</title>
<ellipse fill="red" stroke="red" stroke-width="2" cx="670" cy="-18" rx="64.15" ry="18"/>
<text text-anchor="middle" x="670" y="-12.95" font-family="Times,serif" font-size="14.00">semantic.html</text>
</g>
<!-- n.stylesheets&#45;&gt;tagger -->
<g id="edge26" class="edge">
<title>n.stylesheets&#45;&gt;tagger</title>
<path fill="none" stroke="black" stroke-width="2" d="M755.54,-257.58C762.42,-236.23 770.54,-199.52 757,-172 746.51,-150.69 725.62,-134.25 706.94,-122.99"/>
<polygon fill="black" stroke="black" stroke-width="2" points="710.21,-120.82 699.79,-118.92 706.75,-126.9 710.21,-120.82"/>
</g>
<!-- n.tidy&#45;&gt;f.xhtml -->
<g id="edge13" class="edge">
<title>n.tidy&#45;&gt;f.xhtml</title>
<path fill="none" stroke="black" stroke-width="2" d="M288.95,-294.41C281.1,-304.34 270.6,-316.72 260,-326.5 255.47,-330.68 250.43,-334.79 245.37,-338.64"/>
<polygon fill="black" stroke="black" stroke-width="2" points="244.78,-334.73 238.77,-343.46 248.91,-340.39 244.78,-334.73"/>
</g>
<!-- n.htmlstyle&#45;&gt;tagger -->
<g id="edge27" class="edge">
<title>n.htmlstyle&#45;&gt;tagger</title>
<path fill="none" stroke="black" stroke-width="2" d="M205.62,-257.7C198.51,-235.11 190.53,-195.67 211,-172 265.41,-109.07 530.95,-104.08 631.4,-104.49"/>
<polygon fill="black" stroke="black" stroke-width="2" points="629.76,-107.98 639.78,-104.55 629.8,-100.98 629.76,-107.98"/>
</g>
<!-- n.pdf2txt&#45;&gt;f.pdf.txt -->
<g id="edge16" class="edge">
<title>n.pdf2txt&#45;&gt;f.pdf.txt</title>
<path fill="none" stroke="black" d="M476.25,-257.6C480.9,-246.44 487.03,-231.72 492.35,-218.96"/>
<polygon fill="black" stroke="black" points="495.56,-220.36 496.18,-209.78 489.1,-217.66 495.56,-220.36"/>
</g>
<!-- n.pdf2svg&#45;&gt;png -->
<g id="edge18" class="edge">
<title>n.pdf2svg&#45;&gt;png</title>
<path fill="none" stroke="black" d="M855.37,-294.43C862.27,-306.01 871.45,-321.44 879.24,-334.53"/>
<polygon fill="black" stroke="black" points="876.23,-336.3 884.35,-343.1 882.24,-332.72 876.23,-336.3"/>
</g>
<!-- n.pdf2svg&#45;&gt;svg -->
<g id="edge19" class="edge">
<title>n.pdf2svg&#45;&gt;svg</title>
<path fill="none" stroke="black" d="M847.49,-257.6C849.04,-246.74 851.07,-232.51 852.86,-219.99"/>
<polygon fill="black" stroke="black" points="856.31,-220.56 854.26,-210.17 849.38,-219.57 856.31,-220.56"/>
</g>
<!-- n.pdf2html&#45;&gt;f.pdf.html -->
<g id="edge21" class="edge">
<title>n.pdf2html&#45;&gt;f.pdf.html</title>
<path fill="none" stroke="black" d="M654.14,-257.6C656.77,-246.56 660.23,-232.02 663.25,-219.35"/>
<polygon fill="black" stroke="black" points="666.6,-220.39 665.51,-209.85 659.79,-218.77 666.6,-220.39"/>
</g>
<!-- n.ocr&#45;&gt;png.hocr.html -->
<g id="edge23" class="edge">
<title>n.ocr&#45;&gt;png.hocr.html</title>
<path fill="none" stroke="black" d="M546.73,-294.26C539.89,-305.74 530.77,-321.06 523,-334.12"/>
<polygon fill="black" stroke="black" points="520,-332.32 517.89,-342.7 526.01,-335.9 520,-332.32"/>
</g>
<!-- n.ocr2&#45;&gt;png.hocr.svg -->
<g id="edge25" class="edge">
<title>n.ocr2&#45;&gt;png.hocr.svg</title>
<path fill="none" stroke="black" d="M371.12,-257.6C361.71,-245.8 349.12,-230.02 338.56,-216.78"/>
<polygon fill="black" stroke="black" points="341.55,-214.91 332.58,-209.28 336.08,-219.28 341.55,-214.91"/>
</g>
<!-- tagger&#45;&gt;s.html -->
<g id="edge29" class="edge">
<title>tagger&#45;&gt;s.html</title>
<path fill="none" stroke="black" stroke-width="2" d="M670,-85.6C670,-74.82 670,-60.7 670,-48.24"/>
<polygon fill="black" stroke="black" stroke-width="2" points="673.5,-49.99 670,-39.99 666.5,-49.99 673.5,-49.99"/>
</g>
<!-- doc -->
<g id="node27" class="node">
<title>doc</title>
<ellipse fill="none" stroke="black" cx="27" cy="-190" rx="27" ry="18"/>
<text text-anchor="middle" x="27" y="-184.95" font-family="Times,serif" font-size="14.00">doc</text>
</g>
<!-- n.ctree&#45;&gt;doc -->
<g id="edge31" class="edge">
<title>n.ctree&#45;&gt;doc</title>
<path fill="none" stroke="black" d="M102.32,-257.6C87.46,-244.46 67,-226.36 51.15,-212.35"/>
<polygon fill="black" stroke="black" points="53.83,-210.05 44.02,-206.05 49.19,-215.29 53.83,-210.05"/>
</g>
<!-- csv -->
<g id="node28" class="node">
<title>csv</title>
<ellipse fill="none" stroke="black" cx="110" cy="-190" rx="27" ry="18"/>
<text text-anchor="middle" x="110" y="-184.95" font-family="Times,serif" font-size="14.00">csv</text>
</g>
<!-- n.ctree&#45;&gt;csv -->
<g id="edge32" class="edge">
<title>n.ctree&#45;&gt;csv</title>
<path fill="none" stroke="black" d="M119.51,-257.6C117.95,-246.67 115.9,-232.32 114.1,-219.73"/>
<polygon fill="black" stroke="black" points="117.58,-219.29 112.7,-209.88 110.65,-220.28 117.58,-219.29"/>
</g>
</g>
</svg>
