<?xml version="1.0" encoding="UTF-8" standalone="no"?>
<!DOCTYPE svg PUBLIC "-//W3C//DTD SVG 1.1//EN"
 "http://www.w3.org/Graphics/SVG/1.1/DTD/svg11.dtd">
<!-- Generated by graphviz version 9.0.0 (20230911.1827)
 -->
<!-- Title: dependencies Pages: 1 -->
<svg width="1360pt" height="1057pt"
 viewBox="0.00 0.00 1957.95 1522.07" xmlns="http://www.w3.org/2000/svg" xmlns:xlink="http://www.w3.org/1999/xlink">
<g id="graph0" class="graph" transform="scale(0.694444 0.694444) rotate(0) translate(4 1518.07)">
<title>dependencies</title>
<polygon fill="white" stroke="none" points="-4,4 -4,-1518.07 1953.95,-1518.07 1953.95,4 -4,4"/>
<!-- pygetpapers.pgexceptions -->
<g id="node1" class="node">
<title>pygetpapers.pgexceptions</title>
<ellipse fill="none" stroke="black" cx="176.25" cy="-1110.51" rx="176.25" ry="20.51"/>
<text text-anchor="middle" x="176.25" y="-1102.01" font-family="Consolas" font-size="20.00">pygetpapers.pgexceptions</text>
</g>
<!-- pygetpapers.download_tools -->
<g id="node2" class="node">
<title>pygetpapers.download_tools</title>
<ellipse fill="none" stroke="black" cx="580.12" cy="-754.51" rx="191.63" ry="20.51"/>
<text text-anchor="middle" x="580.12" y="-746.01" font-family="Consolas" font-size="20.00">pygetpapers.download_tools</text>
</g>
<!-- pygetpapers.pgexceptions&#45;&gt;pygetpapers.download_tools -->
<g id="edge1" class="edge">
<title>pygetpapers.pgexceptions&#45;&gt;pygetpapers.download_tools</title>
<path fill="none" stroke="black" d="M241.41,-1091.02C279.51,-1076.12 325.51,-1051.71 352.49,-1014.51 403.47,-944.22 332.11,-888.53 388.49,-822.51 407.41,-800.35 434.07,-785.42 461.47,-775.34"/>
<polygon fill="black" stroke="black" points="462.25,-778.78 470.56,-772.21 459.97,-772.16 462.25,-778.78"/>
</g>
<!-- pygetpapers -->
<g id="node15" class="node">
<title>pygetpapers</title>
<ellipse fill="none" stroke="black" cx="1860.68" cy="-678.51" rx="89.27" ry="20.51"/>
<text text-anchor="middle" x="1860.68" y="-670.01" font-family="Consolas" font-size="20.00">pygetpapers</text>
</g>
<!-- pygetpapers.pgexceptions&#45;&gt;pygetpapers -->
<g id="edge14" class="edge">
<title>pygetpapers.pgexceptions&#45;&gt;pygetpapers</title>
<path fill="none" stroke="black" d="M213.63,-1130.98C254.94,-1153.53 324.88,-1189.62 388.49,-1212.51 670.46,-1313.95 1510.19,-1475.18 1735.41,-1277.51 1822.05,-1201.46 1851.11,-823.64 1857.94,-710.54"/>
<polygon fill="black" stroke="black" points="1861.42,-710.96 1858.51,-700.77 1854.44,-710.55 1861.42,-710.96"/>
</g>
<!-- pygetpapers.repository.arxiv -->
<g id="node16" class="node">
<title>pygetpapers.repository.arxiv</title>
<ellipse fill="none" stroke="black" cx="1498.7" cy="-1181.51" rx="187.38" ry="20.51"/>
<text text-anchor="middle" x="1498.7" y="-1173.01" font-family="Consolas" font-size="20.00">pygetpapers.repository.arxiv</text>
</g>
<!-- pygetpapers.pgexceptions&#45;&gt;pygetpapers.repository.arxiv -->
<g id="edge39" class="edge">
<title>pygetpapers.pgexceptions&#45;&gt;pygetpapers.repository.arxiv</title>
<path fill="none" stroke="black" d="M223.39,-1130.73C370.24,-1192.51 839.82,-1369.98 1226,-1293.51 1309.05,-1277.06 1398.59,-1234.88 1451.32,-1207.23"/>
<polygon fill="black" stroke="black" points="1452.82,-1210.39 1460.02,-1202.62 1449.55,-1204.21 1452.82,-1210.39"/>
</g>
<!-- pygetpapers.repository.rxiv -->
<g id="node20" class="node">
<title>pygetpapers.repository.rxiv</title>
<ellipse fill="none" stroke="black" cx="1498.7" cy="-531.51" rx="179.43" ry="20.51"/>
<text text-anchor="middle" x="1498.7" y="-523.01" font-family="Consolas" font-size="20.00">pygetpapers.repository.rxiv</text>
</g>
<!-- pygetpapers.pgexceptions&#45;&gt;pygetpapers.repository.rxiv -->
<g id="edge57" class="edge">
<title>pygetpapers.pgexceptions&#45;&gt;pygetpapers.repository.rxiv</title>
<path fill="none" stroke="black" d="M244.68,-1091.22C286.1,-1079.48 340.29,-1064.33 388.49,-1051.51 574.23,-1002.1 619.69,-985.18 807.74,-945.51 899.99,-926.05 1161.16,-942.94 1226,-874.51 1322.61,-772.53 1163.08,-660.24 1262,-560.51 1277.33,-545.05 1296.36,-534.74 1316.91,-528.1"/>
<polygon fill="black" stroke="black" points="1317.7,-531.52 1326.33,-525.38 1315.76,-524.79 1317.7,-531.52"/>
</g>
<!-- pygetpapers.repository.europe_pmc -->
<g id="node21" class="node">
<title>pygetpapers.repository.europe_pmc</title>
<ellipse fill="none" stroke="black" cx="1498.7" cy="-806.51" rx="236.7" ry="20.51"/>
<text text-anchor="middle" x="1498.7" y="-798.01" font-family="Consolas" font-size="20.00">pygetpapers.repository.europe_pmc</text>
</g>
<!-- pygetpapers.pgexceptions&#45;&gt;pygetpapers.repository.europe_pmc -->
<g id="edge45" class="edge">
<title>pygetpapers.pgexceptions&#45;&gt;pygetpapers.repository.europe_pmc</title>
<path fill="none" stroke="black" d="M335.55,-1101.42C455.85,-1092.91 625.07,-1077.52 771.74,-1051.51 977.02,-1015.1 1068.05,-1070.58 1226,-934.51 1257.08,-907.73 1229.98,-875.15 1262,-849.51 1275.31,-838.84 1290.41,-830.49 1306.38,-823.98"/>
<polygon fill="black" stroke="black" points="1307.46,-827.32 1315.58,-820.5 1304.99,-820.77 1307.46,-827.32"/>
</g>
<!-- pygetpapers.repository.crossref -->
<g id="node22" class="node">
<title>pygetpapers.repository.crossref</title>
<ellipse fill="none" stroke="black" cx="1498.7" cy="-879.51" rx="207.54" ry="20.51"/>
<text text-anchor="middle" x="1498.7" y="-871.01" font-family="Consolas" font-size="20.00">pygetpapers.repository.crossref</text>
</g>
<!-- pygetpapers.pgexceptions&#45;&gt;pygetpapers.repository.crossref -->
<g id="edge52" class="edge">
<title>pygetpapers.pgexceptions&#45;&gt;pygetpapers.repository.crossref</title>
<path fill="none" stroke="black" d="M309.09,-1124.31C552.5,-1147.83 1062.51,-1187.33 1226,-1124.51 1339.82,-1080.77 1435.72,-964.85 1476.58,-909.61"/>
<polygon fill="black" stroke="black" points="1479.38,-911.71 1482.44,-901.56 1473.72,-907.58 1479.38,-911.71"/>
</g>
<!-- pygetpapers.download_tools&#45;&gt;pygetpapers -->
<g id="edge17" class="edge">
<title>pygetpapers.download_tools&#45;&gt;pygetpapers</title>
<path fill="none" stroke="black" d="M761.09,-761.47C1038.16,-770.6 1555.96,-780.87 1735.41,-738.51 1764.86,-731.55 1795.5,-716.86 1818.99,-703.75"/>
<polygon fill="black" stroke="black" points="1820.66,-706.82 1827.6,-698.81 1817.19,-700.75 1820.66,-706.82"/>
</g>
<!-- pygetpapers.download_tools&#45;&gt;pygetpapers.repository.arxiv -->
<g id="edge40" class="edge">
<title>pygetpapers.download_tools&#45;&gt;pygetpapers.repository.arxiv</title>
<path fill="none" stroke="black" d="M680.38,-772.24C712.92,-782.31 747.03,-798.02 771.74,-822.51 804.71,-855.16 774.6,-888.03 807.74,-920.51 948.18,-1058.09 1042.64,-993.58 1226,-1064.51 1302.11,-1093.95 1388.42,-1131.92 1442.94,-1156.49"/>
<polygon fill="black" stroke="black" points="1441.48,-1159.67 1452.03,-1160.59 1444.36,-1153.29 1441.48,-1159.67"/>
</g>
<!-- pygetpapers.download_tools&#45;&gt;pygetpapers.repository.rxiv -->
<g id="edge59" class="edge">
<title>pygetpapers.download_tools&#45;&gt;pygetpapers.repository.rxiv</title>
<path fill="none" stroke="black" d="M639.11,-734.67C755.69,-695.54 1027.4,-608.06 1262,-560.51 1289.73,-554.88 1319.54,-550.19 1348.31,-546.34"/>
<polygon fill="black" stroke="black" points="1348.75,-549.81 1358.21,-545.04 1347.84,-542.87 1348.75,-549.81"/>
</g>
<!-- pygetpapers.download_tools&#45;&gt;pygetpapers.repository.europe_pmc -->
<g id="edge46" class="edge">
<title>pygetpapers.download_tools&#45;&gt;pygetpapers.repository.europe_pmc</title>
<path fill="none" stroke="black" d="M736.52,-766.66C760.37,-768.38 784.71,-770.06 807.74,-771.51 963.9,-781.32 1140.08,-790.22 1275.32,-796.59"/>
<polygon fill="black" stroke="black" points="1274.97,-800.08 1285.12,-797.05 1275.29,-793.09 1274.97,-800.08"/>
</g>
<!-- pygetpapers.download_tools&#45;&gt;pygetpapers.repository.crossref -->
<g id="edge53" class="edge">
<title>pygetpapers.download_tools&#45;&gt;pygetpapers.repository.crossref</title>
<path fill="none" stroke="black" d="M667.91,-773.12C702.63,-783.57 741.49,-799.31 771.74,-822.51 794.05,-839.61 782.89,-861.37 807.74,-874.51 1004.87,-978.71 1280.11,-934.02 1415.65,-901.87"/>
<polygon fill="black" stroke="black" points="1416.37,-905.3 1425.27,-899.55 1414.73,-898.49 1416.37,-905.3"/>
</g>
<!-- pygetpapers.repository.rxivist -->
<g id="node23" class="node">
<title>pygetpapers.repository.rxivist</title>
<ellipse fill="none" stroke="black" cx="1498.7" cy="-425.51" rx="193.22" ry="20.51"/>
<text text-anchor="middle" x="1498.7" y="-417.01" font-family="Consolas" font-size="20.00">pygetpapers.repository.rxivist</text>
</g>
<!-- pygetpapers.download_tools&#45;&gt;pygetpapers.repository.rxivist -->
<g id="edge35" class="edge">
<title>pygetpapers.download_tools&#45;&gt;pygetpapers.repository.rxivist</title>
<path fill="none" stroke="black" d="M599.04,-733.76C634.55,-694.08 718.21,-607.56 807.74,-564.51 970.61,-486.18 1175.57,-451.97 1319.64,-437.03"/>
<polygon fill="black" stroke="black" points="1319.67,-440.55 1329.27,-436.06 1318.96,-433.58 1319.67,-440.55"/>
</g>
<!-- pygetpapers.repositoryinterface -->
<g id="node27" class="node">
<title>pygetpapers.repositoryinterface</title>
<ellipse fill="none" stroke="black" cx="1016.87" cy="-844.51" rx="209.13" ry="20.51"/>
<text text-anchor="middle" x="1016.87" y="-836.01" font-family="Consolas" font-size="20.00">pygetpapers.repositoryinterface</text>
</g>
<!-- pygetpapers.download_tools&#45;&gt;pygetpapers.repositoryinterface -->
<g id="edge32" class="edge">
<title>pygetpapers.download_tools&#45;&gt;pygetpapers.repositoryinterface</title>
<path fill="none" stroke="black" d="M654.82,-773.8C698.99,-785.02 756.38,-798.97 807.74,-809.51 834.64,-815.02 863.62,-820.31 891.16,-825.03"/>
<polygon fill="black" stroke="black" points="890.51,-828.47 900.96,-826.69 891.69,-821.57 890.51,-828.47"/>
</g>
<!-- requests -->
<g id="node3" class="node">
<title>requests</title>
<ellipse fill="none" stroke="black" cx="176.25" cy="-415.51" rx="65.41" ry="20.51"/>
<text text-anchor="middle" x="176.25" y="-407.01" font-family="Consolas" font-size="20.00">requests</text>
</g>
<!-- requests&#45;&gt;pygetpapers.download_tools -->
<g id="edge2" class="edge">
<title>requests&#45;&gt;pygetpapers.download_tools</title>
<path fill="none" stroke="black" d="M206.78,-434.05C242.45,-456.89 303.72,-497.59 352.49,-537.51 428.76,-599.93 510.43,-682.52 551.76,-725.58"/>
<polygon fill="black" stroke="black" points="548.99,-727.75 558.43,-732.55 554.05,-722.91 548.99,-727.75"/>
</g>
<!-- requests&#45;&gt;pygetpapers.repository.rxiv -->
<g id="edge58" class="edge">
<title>requests&#45;&gt;pygetpapers.repository.rxiv</title>
<path fill="none" stroke="black" d="M239.6,-420.98C437.1,-438.33 1052.88,-492.43 1343.24,-517.94"/>
<polygon fill="black" stroke="black" points="1342.93,-521.42 1353.19,-518.81 1343.54,-514.45 1342.93,-521.42"/>
</g>
<!-- requests&#45;&gt;pygetpapers.repository.rxivist -->
<g id="edge34" class="edge">
<title>requests&#45;&gt;pygetpapers.repository.rxivist</title>
<path fill="none" stroke="black" d="M235.15,-406.1C394.01,-381.7 849.88,-321.14 1226,-363.51 1292.34,-370.98 1366.11,-388.41 1420.02,-402.89"/>
<polygon fill="black" stroke="black" points="1418.84,-406.2 1429.41,-405.44 1420.68,-399.44 1418.84,-406.2"/>
</g>
<!-- glob -->
<g id="node4" class="node">
<title>glob</title>
<ellipse fill="none" stroke="black" cx="176.25" cy="-807.51" rx="38.36" ry="20.51"/>
<text text-anchor="middle" x="176.25" y="-799.01" font-family="Consolas" font-size="20.00">glob</text>
</g>
<!-- glob&#45;&gt;pygetpapers.download_tools -->
<g id="edge3" class="edge">
<title>glob&#45;&gt;pygetpapers.download_tools</title>
<path fill="none" stroke="black" d="M213.98,-802.66C266.16,-795.78 364.49,-782.81 445.97,-772.07"/>
<polygon fill="black" stroke="black" points="446.39,-775.54 455.84,-770.76 445.47,-768.6 446.39,-775.54"/>
</g>
<!-- pandas -->
<g id="node5" class="node">
<title>pandas</title>
<ellipse fill="none" stroke="black" cx="176.25" cy="-630.51" rx="57.98" ry="20.51"/>
<text text-anchor="middle" x="176.25" y="-622.01" font-family="Consolas" font-size="20.00">pandas</text>
</g>
<!-- pandas&#45;&gt;pygetpapers.download_tools -->
<g id="edge4" class="edge">
<title>pandas&#45;&gt;pygetpapers.download_tools</title>
<path fill="none" stroke="black" d="M232.44,-636.29C267.32,-640.77 313.08,-648.15 352.49,-659.51 414.87,-677.47 483.15,-707.64 528.29,-729.16"/>
<polygon fill="black" stroke="black" points="526.5,-732.19 537.03,-733.36 529.54,-725.88 526.5,-732.19"/>
</g>
<!-- pandas&#45;&gt;pygetpapers.repository.europe_pmc -->
<g id="edge47" class="edge">
<title>pandas&#45;&gt;pygetpapers.repository.europe_pmc</title>
<path fill="none" stroke="black" d="M231.31,-637.32C386.28,-656.92 845.33,-715.32 1226,-767.51 1270.95,-773.67 1320.05,-780.64 1363.99,-786.97"/>
<polygon fill="black" stroke="black" points="1363.45,-790.43 1373.85,-788.39 1364.45,-783.5 1363.45,-790.43"/>
</g>
<!-- xml.etree.ElementTree -->
<g id="node6" class="node">
<title>xml.etree.ElementTree</title>
<ellipse fill="none" stroke="black" cx="176.25" cy="-1441.51" rx="153.44" ry="20.51"/>
<text text-anchor="middle" x="176.25" y="-1433.01" font-family="Consolas" font-size="20.00">xml.etree.ElementTree</text>
</g>
<!-- xml.etree.ElementTree&#45;&gt;pygetpapers.download_tools -->
<g id="edge5" class="edge">
<title>xml.etree.ElementTree&#45;&gt;pygetpapers.download_tools</title>
<path fill="none" stroke="black" d="M240.83,-1422.44C279.98,-1407.17 327.34,-1381.55 352.49,-1341.51 413.98,-1243.6 318.65,-914.63 388.49,-822.51 405.28,-800.36 429.9,-785.4 455.9,-775.31"/>
<polygon fill="black" stroke="black" points="457.07,-778.61 465.28,-771.93 454.69,-772.03 457.07,-778.61"/>
</g>
<!-- xml.etree.ElementTree&#45;&gt;pygetpapers -->
<g id="edge21" class="edge">
<title>xml.etree.ElementTree&#45;&gt;pygetpapers</title>
<path fill="none" stroke="black" d="M287.63,-1456C607.15,-1495.33 1523.66,-1588.87 1735.41,-1398.51 1839.47,-1304.95 1856.47,-837.85 1859.18,-710.58"/>
<polygon fill="black" stroke="black" points="1862.67,-710.93 1859.37,-700.86 1855.67,-710.79 1862.67,-710.93"/>
</g>
<!-- io -->
<g id="node7" class="node">
<title>io</title>
<ellipse fill="none" stroke="black" cx="176.25" cy="-748.51" rx="27" ry="20.51"/>
<text text-anchor="middle" x="176.25" y="-740.01" font-family="Consolas" font-size="20.00">io</text>
</g>
<!-- io&#45;&gt;pygetpapers.download_tools -->
<g id="edge6" class="edge">
<title>io&#45;&gt;pygetpapers.download_tools</title>
<path fill="none" stroke="black" d="M203.61,-748.9C240.16,-749.45 309.58,-750.48 378.89,-751.52"/>
<polygon fill="black" stroke="black" points="378.44,-755.01 388.49,-751.66 378.55,-748.01 378.44,-755.01"/>
</g>
<!-- time -->
<g id="node8" class="node">
<title>time</title>
<ellipse fill="none" stroke="black" cx="176.25" cy="-263.51" rx="37.83" ry="20.51"/>
<text text-anchor="middle" x="176.25" y="-255.01" font-family="Consolas" font-size="20.00">time</text>
</g>
<!-- time&#45;&gt;pygetpapers.download_tools -->
<g id="edge7" class="edge">
<title>time&#45;&gt;pygetpapers.download_tools</title>
<path fill="none" stroke="black" d="M204.14,-277.56C240.91,-297.74 307.45,-337.8 352.49,-385.51 454.92,-493.99 534.73,-656.03 565.44,-723.39"/>
<polygon fill="black" stroke="black" points="562.18,-724.68 569.48,-732.36 568.56,-721.81 562.18,-724.68"/>
</g>
<!-- time&#45;&gt;pygetpapers -->
<g id="edge23" class="edge">
<title>time&#45;&gt;pygetpapers</title>
<path fill="none" stroke="black" d="M213.03,-258C254.97,-251.76 326.6,-241.78 388.49,-236.51 537.62,-223.8 1616.64,-128.43 1735.41,-219.51 1804.67,-272.62 1844.3,-551.15 1855.99,-646.48"/>
<polygon fill="black" stroke="black" points="1852.49,-646.66 1857.16,-656.17 1859.44,-645.82 1852.49,-646.66"/>
</g>
<!-- time&#45;&gt;pygetpapers.repository.rxiv -->
<g id="edge60" class="edge">
<title>time&#45;&gt;pygetpapers.repository.rxiv</title>
<path fill="none" stroke="black" d="M213.23,-268.81C306.05,-282.65 561.03,-321.7 771.74,-363.51 974.9,-403.81 1024.25,-420.65 1226,-467.51 1286.6,-481.58 1354.74,-497.63 1407.62,-510.14"/>
<polygon fill="black" stroke="black" points="1406.66,-513.51 1417.2,-512.4 1408.27,-506.7 1406.66,-513.51"/>
</g>
<!-- time&#45;&gt;pygetpapers.repository.europe_pmc -->
<g id="edge48" class="edge">
<title>time&#45;&gt;pygetpapers.repository.europe_pmc</title>
<path fill="none" stroke="black" d="M207.02,-275.92C247.63,-292.64 322.87,-322.77 388.49,-344.51 480.24,-374.9 1159.42,-509.45 1226,-579.51 1275.91,-632.03 1212.28,-685.8 1262,-738.51 1283.28,-761.06 1311.52,-776.29 1341.04,-786.53"/>
<polygon fill="black" stroke="black" points="1339.93,-789.85 1350.52,-789.61 1342.1,-783.19 1339.93,-789.85"/>
</g>
<!-- time&#45;&gt;pygetpapers.repository.rxivist -->
<g id="edge36" class="edge">
<title>time&#45;&gt;pygetpapers.repository.rxivist</title>
<path fill="none" stroke="black" d="M213.85,-260.34C255.94,-256.88 327.15,-251.54 388.49,-249.51 558.73,-243.87 602.33,-231.8 771.74,-249.51 976.98,-270.96 1025.93,-294.99 1226,-345.51 1293.8,-362.62 1370.11,-385.41 1424.56,-402.28"/>
<polygon fill="black" stroke="black" points="1423.46,-405.61 1434.05,-405.23 1425.54,-398.92 1423.46,-405.61"/>
</g>
<!-- tqdm -->
<g id="node9" class="node">
<title>tqdm</title>
<ellipse fill="none" stroke="black" cx="176.25" cy="-984.51" rx="42.6" ry="20.51"/>
<text text-anchor="middle" x="176.25" y="-976.01" font-family="Consolas" font-size="20.00">tqdm</text>
</g>
<!-- tqdm&#45;&gt;pygetpapers.download_tools -->
<g id="edge8" class="edge">
<title>tqdm&#45;&gt;pygetpapers.download_tools</title>
<path fill="none" stroke="black" d="M217.99,-989.7C257.6,-992.33 316.86,-989.41 352.49,-955.51 407.18,-903.46 334.26,-842.03 388.49,-789.51 395.78,-782.45 404,-776.57 412.82,-771.68"/>
<polygon fill="black" stroke="black" points="414.29,-774.86 421.67,-767.26 411.16,-768.6 414.29,-774.86"/>
</g>
<!-- tqdm&#45;&gt;pygetpapers -->
<g id="edge24" class="edge">
<title>tqdm&#45;&gt;pygetpapers</title>
<path fill="none" stroke="black" d="M208.77,-998.12C245.29,-1014.7 306.34,-1044.92 352.49,-1080.51 370.92,-1094.71 369.25,-1105.43 388.49,-1118.51 554.53,-1231.32 610.64,-1248.48 807.74,-1286.51 1010.82,-1325.68 1583.23,-1351.57 1735.41,-1211.51 1810.39,-1142.49 1846.97,-814.91 1856.85,-710.53"/>
<polygon fill="black" stroke="black" points="1860.32,-711 1857.76,-700.72 1853.35,-710.36 1860.32,-711"/>
</g>
<!-- tqdm&#45;&gt;pygetpapers.repository.arxiv -->
<g id="edge41" class="edge">
<title>tqdm&#45;&gt;pygetpapers.repository.arxiv</title>
<path fill="none" stroke="black" d="M218.44,-988.44C322.97,-1000.41 602.2,-1045.05 771.74,-1191.51 797.92,-1214.12 778.17,-1242.58 807.74,-1260.51 887.23,-1308.69 1133.98,-1273.61 1226,-1260.51 1299.29,-1250.07 1380.45,-1224.54 1434.81,-1205.31"/>
<polygon fill="black" stroke="black" points="1435.66,-1208.72 1443.89,-1202.06 1433.3,-1202.13 1435.66,-1208.72"/>
</g>
<!-- tqdm&#45;&gt;pygetpapers.repository.rxiv -->
<g id="edge61" class="edge">
<title>tqdm&#45;&gt;pygetpapers.repository.rxiv</title>
<path fill="none" stroke="black" d="M218,-989.34C257.33,-991.62 316.13,-988.4 352.49,-955.51 397.91,-914.43 341.76,-862.08 388.49,-822.51 453.81,-767.2 687.99,-802.09 771.74,-784.51 979.55,-740.89 1066.6,-776.79 1226,-636.51 1254.06,-611.81 1231.7,-582.39 1262,-560.51 1276.25,-550.21 1292.3,-542.54 1309.15,-536.91"/>
<polygon fill="black" stroke="black" points="1309.75,-540.39 1318.28,-534.1 1307.7,-533.69 1309.75,-540.39"/>
</g>
<!-- tqdm&#45;&gt;pygetpapers.repository.europe_pmc -->
<g id="edge50" class="edge">
<title>tqdm&#45;&gt;pygetpapers.repository.europe_pmc</title>
<path fill="none" stroke="black" d="M218.91,-987.38C363.54,-995.86 855.32,-1012.23 1226,-874.51 1244.26,-867.72 1244.01,-856.98 1262,-849.51 1286.9,-839.16 1314.3,-831.3 1341.34,-825.33"/>
<polygon fill="black" stroke="black" points="1341.95,-828.77 1351.01,-823.28 1340.5,-821.93 1341.95,-828.77"/>
</g>
<!-- copy -->
<g id="node10" class="node">
<title>copy</title>
<ellipse fill="none" stroke="black" cx="176.25" cy="-689.51" rx="41.01" ry="20.51"/>
<text text-anchor="middle" x="176.25" y="-681.01" font-family="Consolas" font-size="20.00">copy</text>
</g>
<!-- copy&#45;&gt;pygetpapers.download_tools -->
<g id="edge9" class="edge">
<title>copy&#45;&gt;pygetpapers.download_tools</title>
<path fill="none" stroke="black" d="M215.78,-695.74C271.66,-704.78 377.58,-721.91 460.7,-735.35"/>
<polygon fill="black" stroke="black" points="460.09,-738.8 470.52,-736.94 461.2,-731.89 460.09,-738.8"/>
</g>
<!-- os -->
<g id="node11" class="node">
<title>os</title>
<ellipse fill="none" stroke="black" cx="176.25" cy="-567.51" rx="27" ry="20.51"/>
<text text-anchor="middle" x="176.25" y="-559.01" font-family="Consolas" font-size="20.00">os</text>
</g>
<!-- os&#45;&gt;pygetpapers.download_tools -->
<g id="edge10" class="edge">
<title>os&#45;&gt;pygetpapers.download_tools</title>
<path fill="none" stroke="black" d="M203.44,-569.09C238.55,-571.96 302.27,-579.77 352.49,-600.51 392.42,-616.99 489.74,-687.58 542.93,-727.22"/>
<polygon fill="black" stroke="black" points="540.7,-729.92 550.8,-733.1 544.89,-724.31 540.7,-729.92"/>
</g>
<!-- os&#45;&gt;pygetpapers -->
<g id="edge25" class="edge">
<title>os&#45;&gt;pygetpapers</title>
<path fill="none" stroke="black" d="M195.68,-552.98C230.81,-526.26 310.78,-469.89 388.49,-446.51 962.15,-273.92 1233.83,-67.95 1735.41,-395.51 1822.39,-452.31 1848.88,-585.04 1856.63,-646.38"/>
<polygon fill="black" stroke="black" points="1853.13,-646.62 1857.77,-656.15 1860.09,-645.81 1853.13,-646.62"/>
</g>
<!-- os&#45;&gt;pygetpapers.repository.arxiv -->
<g id="edge42" class="edge">
<title>os&#45;&gt;pygetpapers.repository.arxiv</title>
<path fill="none" stroke="black" d="M203.02,-563.91C241.57,-560.12 313.85,-559.5 352.49,-600.51 439.15,-692.45 308.75,-784.5 388.49,-882.51 502.2,-1022.24 645.34,-886.14 771.74,-1014.51 807.84,-1051.16 767.38,-1092.62 807.74,-1124.51 883.06,-1183.99 1132.91,-1191.44 1310.23,-1188.63"/>
<polygon fill="black" stroke="black" points="1310.09,-1192.13 1320.02,-1188.46 1309.96,-1185.13 1310.09,-1192.13"/>
</g>
<!-- os&#45;&gt;pygetpapers.repository.rxiv -->
<g id="edge62" class="edge">
<title>os&#45;&gt;pygetpapers.repository.rxiv</title>
<path fill="none" stroke="black" d="M203.57,-565.37C243.52,-562.21 321.84,-556.37 388.49,-553.51 711.22,-539.62 1087.14,-534.49 1308.06,-532.6"/>
<polygon fill="black" stroke="black" points="1307.96,-536.1 1317.93,-532.51 1307.9,-529.1 1307.96,-536.1"/>
</g>
<!-- os&#45;&gt;pygetpapers.repository.europe_pmc -->
<g id="edge49" class="edge">
<title>os&#45;&gt;pygetpapers.repository.europe_pmc</title>
<path fill="none" stroke="black" d="M203.47,-564.92C326.76,-553.94 858.11,-520.05 1226,-708.51 1244.53,-718 1243.6,-728.74 1262,-738.51 1300.77,-759.08 1346.52,-774.1 1387.35,-784.72"/>
<polygon fill="black" stroke="black" points="1386.42,-788.1 1396.98,-787.16 1388.14,-781.31 1386.42,-788.1"/>
</g>
<!-- os&#45;&gt;pygetpapers.repository.crossref -->
<g id="edge54" class="edge">
<title>os&#45;&gt;pygetpapers.repository.crossref</title>
<path fill="none" stroke="black" d="M203.36,-570.48C324.05,-584.84 838.3,-653.14 1226,-814.51 1243.31,-821.71 1244.48,-829.82 1262,-836.51 1290.21,-847.27 1321.37,-855.39 1351.54,-861.49"/>
<polygon fill="black" stroke="black" points="1350.63,-864.88 1361.12,-863.36 1351.98,-858.01 1350.63,-864.88"/>
</g>
<!-- os&#45;&gt;pygetpapers.repository.rxivist -->
<g id="edge37" class="edge">
<title>os&#45;&gt;pygetpapers.repository.rxivist</title>
<path fill="none" stroke="black" d="M202.25,-561.15C286.71,-539.99 569.49,-471.83 807.74,-445.51 971.1,-427.46 1157.44,-423 1295.26,-422.76"/>
<polygon fill="black" stroke="black" points="1295.26,-426.26 1305.26,-422.75 1295.25,-419.26 1295.26,-426.26"/>
</g>
<!-- configparser -->
<g id="node12" class="node">
<title>configparser</title>
<ellipse fill="none" stroke="black" cx="176.25" cy="-1311.51" rx="89.27" ry="20.51"/>
<text text-anchor="middle" x="176.25" y="-1303.01" font-family="Consolas" font-size="20.00">configparser</text>
</g>
<!-- configparser&#45;&gt;pygetpapers.download_tools -->
<g id="edge11" class="edge">
<title>configparser&#45;&gt;pygetpapers.download_tools</title>
<path fill="none" stroke="black" d="M207.56,-1292.01C248.3,-1263.96 319.41,-1208.09 352.49,-1140.51 415.02,-1012.75 300.12,-933.96 388.49,-822.51 406.13,-800.27 431.61,-785.29 458.24,-775.21"/>
<polygon fill="black" stroke="black" points="459.2,-778.58 467.46,-771.95 456.87,-771.98 459.2,-778.58"/>
</g>
<!-- configparser&#45;&gt;pygetpapers -->
<g id="edge28" class="edge">
<title>configparser&#45;&gt;pygetpapers</title>
<path fill="none" stroke="black" d="M247.17,-1324.34C520.11,-1372.74 1509.75,-1531.8 1735.41,-1337.51 1832.01,-1254.33 1854.27,-831.27 1858.69,-710.65"/>
<polygon fill="black" stroke="black" points="1862.19,-710.94 1859.04,-700.83 1855.19,-710.7 1862.19,-710.94"/>
</g>
<!-- xmltodict -->
<g id="node13" class="node">
<title>xmltodict</title>
<ellipse fill="none" stroke="black" cx="176.25" cy="-925.51" rx="66.47" ry="20.51"/>
<text text-anchor="middle" x="176.25" y="-917.01" font-family="Consolas" font-size="20.00">xmltodict</text>
</g>
<!-- xmltodict&#45;&gt;pygetpapers.download_tools -->
<g id="edge12" class="edge">
<title>xmltodict&#45;&gt;pygetpapers.download_tools</title>
<path fill="none" stroke="black" d="M241.48,-930.21C277.94,-929.45 322.2,-922.29 352.49,-896.51 390.7,-863.99 350.57,-822.36 388.49,-789.51 396.7,-782.39 405.87,-776.52 415.63,-771.68"/>
<polygon fill="black" stroke="black" points="416.94,-774.93 424.62,-767.63 414.07,-768.55 416.94,-774.93"/>
</g>
<!-- pathlib -->
<g id="node14" class="node">
<title>pathlib</title>
<ellipse fill="none" stroke="black" cx="176.25" cy="-866.51" rx="53.21" ry="20.51"/>
<text text-anchor="middle" x="176.25" y="-858.01" font-family="Consolas" font-size="20.00">pathlib</text>
</g>
<!-- pathlib&#45;&gt;pygetpapers.download_tools -->
<g id="edge13" class="edge">
<title>pathlib&#45;&gt;pygetpapers.download_tools</title>
<path fill="none" stroke="black" d="M229.46,-867.85C266.29,-866.53 315.46,-859.99 352.49,-837.51 375.29,-823.67 365.82,-803.55 388.49,-789.51 400.12,-782.31 412.86,-776.51 426.06,-771.86"/>
<polygon fill="black" stroke="black" points="426.88,-775.27 435.3,-768.83 424.71,-768.62 426.88,-775.27"/>
</g>
<!-- pygetpapers.repository.arxiv&#45;&gt;pygetpapers -->
<g id="edge15" class="edge">
<title>pygetpapers.repository.arxiv&#45;&gt;pygetpapers</title>
<path fill="none" stroke="black" d="M1520.35,-1160.97C1563.61,-1117.29 1665.52,-1010.84 1735.41,-909.51 1781.98,-841.97 1824.55,-755.1 1845.68,-709.54"/>
<polygon fill="black" stroke="black" points="1848.83,-711.07 1849.83,-700.53 1842.47,-708.15 1848.83,-711.07"/>
</g>
<!-- pygetpapers.pygetpapers -->
<g id="node17" class="node">
<title>pygetpapers.pygetpapers</title>
<ellipse fill="none" stroke="black" cx="1498.7" cy="-708.51" rx="170.94" ry="20.51"/>
<text text-anchor="middle" x="1498.7" y="-700.01" font-family="Consolas" font-size="20.00">pygetpapers.pygetpapers</text>
</g>
<!-- pygetpapers.pygetpapers&#45;&gt;pygetpapers -->
<g id="edge16" class="edge">
<title>pygetpapers.pygetpapers&#45;&gt;pygetpapers</title>
<path fill="none" stroke="black" d="M1640.68,-696.76C1682.39,-693.28 1727.03,-689.56 1765.05,-686.39"/>
<polygon fill="black" stroke="black" points="1764.93,-689.91 1774.6,-685.6 1764.35,-682.94 1764.93,-689.91"/>
</g>
<!-- ast -->
<g id="node18" class="node">
<title>ast</title>
<ellipse fill="none" stroke="black" cx="1498.7" cy="-649.51" rx="29.88" ry="20.51"/>
<text text-anchor="middle" x="1498.7" y="-641.01" font-family="Consolas" font-size="20.00">ast</text>
</g>
<!-- ast&#45;&gt;pygetpapers -->
<g id="edge18" class="edge">
<title>ast&#45;&gt;pygetpapers</title>
<path fill="none" stroke="black" d="M1528.86,-651.85C1579.51,-655.94 1685.85,-664.5 1764.36,-670.83"/>
<polygon fill="black" stroke="black" points="1763.98,-674.31 1774.23,-671.62 1764.54,-667.33 1763.98,-674.31"/>
</g>
<!-- importlib -->
<g id="node19" class="node">
<title>importlib</title>
<ellipse fill="none" stroke="black" cx="1498.7" cy="-590.51" rx="64.88" ry="20.51"/>
<text text-anchor="middle" x="1498.7" y="-582.01" font-family="Consolas" font-size="20.00">importlib</text>
</g>
<!-- importlib&#45;&gt;pygetpapers -->
<g id="edge19" class="edge">
<title>importlib&#45;&gt;pygetpapers</title>
<path fill="none" stroke="black" d="M1563.59,-592.84C1611.65,-595.91 1678.69,-603.02 1735.41,-619.51 1763.57,-627.69 1793.32,-641.61 1816.65,-653.86"/>
<polygon fill="black" stroke="black" points="1814.75,-656.82 1825.22,-658.46 1818.06,-650.65 1814.75,-656.82"/>
</g>
<!-- pygetpapers.repository.rxiv&#45;&gt;pygetpapers -->
<g id="edge20" class="edge">
<title>pygetpapers.repository.rxiv&#45;&gt;pygetpapers</title>
<path fill="none" stroke="black" d="M1667.34,-538.71C1690.89,-543.54 1714.25,-550.52 1735.41,-560.51 1778.19,-580.7 1815.78,-621.34 1838.11,-649.23"/>
<polygon fill="black" stroke="black" points="1835.24,-651.24 1844.15,-656.96 1840.75,-646.92 1835.24,-651.24"/>
</g>
<!-- pygetpapers.repository.europe_pmc&#45;&gt;pygetpapers -->
<g id="edge22" class="edge">
<title>pygetpapers.repository.europe_pmc&#45;&gt;pygetpapers</title>
<path fill="none" stroke="black" d="M1668.6,-791.85C1691.55,-786.87 1714.4,-780.26 1735.41,-771.51 1772.18,-756.18 1807.93,-727.54 1831.57,-706.07"/>
<polygon fill="black" stroke="black" points="1833.64,-708.92 1838.6,-699.55 1828.89,-703.79 1833.64,-708.92"/>
</g>
<!-- pygetpapers.repository.crossref&#45;&gt;pygetpapers -->
<g id="edge26" class="edge">
<title>pygetpapers.repository.crossref&#45;&gt;pygetpapers</title>
<path fill="none" stroke="black" d="M1660.41,-866.34C1686.68,-859.73 1712.69,-850.19 1735.41,-836.51 1786.41,-805.76 1824.64,-745.8 1844.46,-709.23"/>
<polygon fill="black" stroke="black" points="1847.51,-710.95 1849.08,-700.47 1841.32,-707.68 1847.51,-710.95"/>
</g>
<!-- pygetpapers.repository.rxivist&#45;&gt;pygetpapers -->
<g id="edge27" class="edge">
<title>pygetpapers.repository.rxivist&#45;&gt;pygetpapers</title>
<path fill="none" stroke="black" d="M1601.86,-443.24C1646.02,-454.57 1696.39,-472.74 1735.41,-501.51 1787.89,-540.2 1826.36,-607.86 1845.67,-647.37"/>
<polygon fill="black" stroke="black" points="1842.49,-648.83 1849.96,-656.35 1848.81,-645.82 1842.49,-648.83"/>
</g>
<!-- coloredlogs -->
<g id="node24" class="node">
<title>coloredlogs</title>
<ellipse fill="none" stroke="black" cx="1498.7" cy="-138.51" rx="83.97" ry="20.51"/>
<text text-anchor="middle" x="1498.7" y="-130.01" font-family="Consolas" font-size="20.00">coloredlogs</text>
</g>
<!-- coloredlogs&#45;&gt;pygetpapers -->
<g id="edge29" class="edge">
<title>coloredlogs&#45;&gt;pygetpapers</title>
<path fill="none" stroke="black" d="M1574.92,-129.53C1626.34,-127.73 1692.65,-134.59 1735.41,-173.51 1806.63,-238.33 1845.44,-545.8 1856.41,-646.49"/>
<polygon fill="black" stroke="black" points="1852.9,-646.64 1857.45,-656.21 1859.86,-645.9 1852.9,-646.64"/>
</g>
<!-- configargparse -->
<g id="node25" class="node">
<title>configargparse</title>
<ellipse fill="none" stroke="black" cx="1498.7" cy="-79.51" rx="105.18" ry="20.51"/>
<text text-anchor="middle" x="1498.7" y="-71.01" font-family="Consolas" font-size="20.00">configargparse</text>
</g>
<!-- configargparse&#45;&gt;pygetpapers -->
<g id="edge30" class="edge">
<title>configargparse&#45;&gt;pygetpapers</title>
<path fill="none" stroke="black" d="M1585.15,-67.46C1634.94,-65.4 1695.57,-72.19 1735.41,-108.51 1816.2,-182.17 1849.11,-537.02 1857.43,-646.36"/>
<polygon fill="black" stroke="black" points="1853.93,-646.37 1858.16,-656.09 1860.91,-645.86 1853.93,-646.37"/>
</g>
<!-- sys -->
<g id="node26" class="node">
<title>sys</title>
<ellipse fill="none" stroke="black" cx="1498.7" cy="-20.51" rx="32" ry="20.51"/>
<text text-anchor="middle" x="1498.7" y="-12.01" font-family="Consolas" font-size="20.00">sys</text>
</g>
<!-- sys&#45;&gt;pygetpapers -->
<g id="edge31" class="edge">
<title>sys&#45;&gt;pygetpapers</title>
<path fill="none" stroke="black" d="M1529.54,-14.25C1579.2,-5.73 1678.95,3 1735.41,-49.51 1824.27,-132.14 1851.91,-530.28 1858.15,-646.56"/>
<polygon fill="black" stroke="black" points="1854.65,-646.5 1858.66,-656.31 1861.64,-646.14 1854.65,-646.5"/>
</g>
<!-- pygetpapers.repositoryinterface&#45;&gt;pygetpapers.repository.arxiv -->
<g id="edge43" class="edge">
<title>pygetpapers.repositoryinterface&#45;&gt;pygetpapers.repository.arxiv</title>
<path fill="none" stroke="black" d="M1047.16,-865.08C1130,-923.26 1365.93,-1088.96 1459.14,-1154.42"/>
<polygon fill="black" stroke="black" points="1457.05,-1157.24 1467.25,-1160.12 1461.08,-1151.51 1457.05,-1157.24"/>
</g>
<!-- pygetpapers.repositoryinterface&#45;&gt;pygetpapers.repository.rxiv -->
<g id="edge63" class="edge">
<title>pygetpapers.repositoryinterface&#45;&gt;pygetpapers.repository.rxiv</title>
<path fill="none" stroke="black" d="M1086.67,-824.87C1133.02,-808.08 1191.75,-779.22 1226,-733.51 1273.09,-670.65 1204.22,-613.7 1262,-560.51 1275.88,-547.73 1292.33,-538.59 1309.99,-532.2"/>
<polygon fill="black" stroke="black" points="1310.67,-535.66 1319.08,-529.22 1308.49,-529.01 1310.67,-535.66"/>
</g>
<!-- pygetpapers.repositoryinterface&#45;&gt;pygetpapers.repository.europe_pmc -->
<g id="edge51" class="edge">
<title>pygetpapers.repositoryinterface&#45;&gt;pygetpapers.repository.europe_pmc</title>
<path fill="none" stroke="black" d="M1181.66,-831.53C1223.03,-828.26 1267.77,-824.72 1310.21,-821.35"/>
<polygon fill="black" stroke="black" points="1310.33,-824.86 1320.02,-820.58 1309.77,-817.88 1310.33,-824.86"/>
</g>
<!-- pygetpapers.repositoryinterface&#45;&gt;pygetpapers.repository.crossref -->
<g id="edge55" class="edge">
<title>pygetpapers.repositoryinterface&#45;&gt;pygetpapers.repository.crossref</title>
<path fill="none" stroke="black" d="M1186.37,-856.8C1229.22,-859.92 1275.41,-863.29 1318.76,-866.45"/>
<polygon fill="black" stroke="black" points="1318.28,-869.93 1328.51,-867.16 1318.79,-862.95 1318.28,-869.93"/>
</g>
<!-- pygetpapers.repositoryinterface&#45;&gt;pygetpapers.repository.rxivist -->
<g id="edge38" class="edge">
<title>pygetpapers.repositoryinterface&#45;&gt;pygetpapers.repository.rxivist</title>
<path fill="none" stroke="black" d="M1026.88,-823.62C1053.62,-764.08 1138.46,-591.98 1262,-501.51 1297.98,-475.16 1343.5,-457.68 1384.93,-446.22"/>
<polygon fill="black" stroke="black" points="1385.7,-449.63 1394.46,-443.68 1383.9,-442.87 1385.7,-449.63"/>
</g>
<!-- abc -->
<g id="node28" class="node">
<title>abc</title>
<ellipse fill="none" stroke="black" cx="580.12" cy="-852.51" rx="34.12" ry="20.51"/>
<text text-anchor="middle" x="580.12" y="-844.01" font-family="Consolas" font-size="20.00">abc</text>
</g>
<!-- abc&#45;&gt;pygetpapers.repositoryinterface -->
<g id="edge33" class="edge">
<title>abc&#45;&gt;pygetpapers.repositoryinterface</title>
<path fill="none" stroke="black" d="M614.51,-851.89C655.22,-851.14 727.55,-849.81 799.71,-848.48"/>
<polygon fill="black" stroke="black" points="799.36,-851.99 809.3,-848.31 799.24,-844.99 799.36,-851.99"/>
</g>
<!-- arxiv -->
<g id="node29" class="node">
<title>arxiv</title>
<ellipse fill="none" stroke="black" cx="1016.87" cy="-1230.51" rx="41.01" ry="20.51"/>
<text text-anchor="middle" x="1016.87" y="-1222.01" font-family="Consolas" font-size="20.00">arxiv</text>
</g>
<!-- arxiv&#45;&gt;pygetpapers.repository.arxiv -->
<g id="edge44" class="edge">
<title>arxiv&#45;&gt;pygetpapers.repository.arxiv</title>
<path fill="none" stroke="black" d="M1057.55,-1226.45C1120.63,-1220.01 1247.03,-1207.1 1348.25,-1196.77"/>
<polygon fill="black" stroke="black" points="1348.43,-1200.27 1358.02,-1195.77 1347.72,-1193.3 1348.43,-1200.27"/>
</g>
<!-- habanero -->
<g id="node30" class="node">
<title>habanero</title>
<ellipse fill="none" stroke="black" cx="1016.87" cy="-1094.51" rx="71.77" ry="20.51"/>
<text text-anchor="middle" x="1016.87" y="-1086.01" font-family="Consolas" font-size="20.00">habanero</text>
</g>
<!-- habanero&#45;&gt;pygetpapers.repository.crossref -->
<g id="edge56" class="edge">
<title>habanero&#45;&gt;pygetpapers.repository.crossref</title>
<path fill="none" stroke="black" d="M1087.3,-1090.12C1128.71,-1085.74 1181.69,-1076.99 1226,-1059.51 1320.94,-1022.04 1416.98,-948.01 1465.43,-907.54"/>
<polygon fill="black" stroke="black" points="1467.65,-910.25 1473.04,-901.13 1463.14,-904.9 1467.65,-910.25"/>
</g>
</g>
</svg>
