<?xml version="1.0" encoding="UTF-8"?>
<svg height="781.06" width="534.46" xmlns="http://www.w3.org/2000/svg">
 <g id="page" xmlns:svgx="http://www.xml-cml.org/schema/svgx">
  <g begin="text">
   <text y="80.82" x="76.5,81.841,87.121,91.921,97.201,100.558,105.538,108.958,111.242,116.282" svgx:width="0.53,0.52,0.48,0.52,0.34,0.5,0.35,0.23,0.51,0.51" style="fill:rgb(0,0,0);font-family:Calibri;font-size:10.02px;stroke:none;">Chapter 16</text>
  </g>
  <g begin="text">
   <text y="80.82" x="121.32" svgx:width="0.23" style="fill:rgb(0,0,0);font-family:Calibri;font-size:10.02px;stroke:none;"> </text>
  </g>
  <g begin="text">
   <text y="80.82" x="133.2,138.3" svgx:width="0.51,0.51" style="fill:rgb(0,0,0);font-family:Calibri;font-size:10.02px;stroke:none;">74</text>
  </g>
  <g begin="text">
   <text y="80.82" x="143.34" svgx:width="0.23" style="fill:rgb(0,0,0);font-family:Calibri;font-size:10.02px;stroke:none;"> </text>
  </g>
  <g begin="text">
   <text y="80.82" x="189.9,194.519,196.799,201.538,206.819,210.299,215.279,217.503,222.543,227.643,230.163" svgx:width="0.46,0.23,0.47,0.52,0.35,0.5,0.23,0.51,0.51,0.25,0.51" style="fill:rgb(0,0,0);font-family:Calibri;font-size:10.02px;stroke:none;">Figure 16.3</text>
  </g>
  <g begin="text">
   <text y="80.82" x="235.2" svgx:width="0.23" style="fill:rgb(0,0,0);font-family:Calibri;font-size:10.02px;stroke:none;"> </text>
  </g>
  <g begin="text">
   <text y="80.82" x="246.6,250.08,255.06,260.34,262.62,267.421,271.68,276.66,278.945,282.245,287.525,292.505,294.784,297.844,300.065,304.745,310.025,313.506,318.486,320.765,325.805,330.905,333.42,338.46,340.745,343.025,346.924,351.904" svgx:width="0.35,0.5,0.52,0.23,0.48,0.42,0.5,0.23,0.34,0.52,0.5,0.23,0.31,0.23,0.47,0.52,0.35,0.5,0.23,0.51,0.51,0.25,0.51,0.23,0.23,0.39,0.5,0.5" style="fill:rgb(0,0,0);font-family:Calibri;font-size:10.02px;stroke:none;">replace the figure 16.3 see</text>
  </g>
  <g begin="text">
   <text y="80.82" x="356.88" svgx:width="0.23" style="fill:rgb(0,0,0);font-family:Calibri;font-size:10.02px;stroke:none;"> </text>
  </g>
  <g begin="text">
   <text y="80.82" x="359.16,364.08,369.36,374.641,376.925,382.205,385.205,387.49,392.77,397.99,402.249,404.534,407.594,412.873,416.293,418.578,421.997,426.977,431.477,433.757,437.658,442.638,447.918,450.203,454.703,459.683,463.163,467.062,469.342,474.622,479.903" svgx:width="0.5,0.52,0.52,0.23,0.53,0.31,0.23,0.52,0.53,0.42,0.23,0.31,0.53,0.35,0.23,0.35,0.5,0.45,0.23,0.39,0.5,0.52,0.23,0.45,0.5,0.35,0.39,0.23,0.53,0.52,0.23" style="fill:rgb(0,0,0);font-family:Calibri;font-size:10.02px;stroke:none;">end of doc for revised version </text>
  </g>
  <g begin="text">
   <text y="80.82" x="482.16" svgx:width="0.23" style="fill:rgb(0,0,0);font-family:Calibri;font-size:10.02px;stroke:none;"> </text>
  </g>
  <path style="fill:rgb(0,0,0);stroke:none;stroke-width:1.0;" d="M71.340 676.080 L127.560 676.080 L127.560 770.580 L71.340 770.580 L71.340 676.080 M71.340 676.080 L127.560 676.080 L127.560 770.580 L71.340 770.580 L71.340 676.080 M128.040 676.080 L184.260 676.080 L184.260 770.580 L128.040 770.580 L128.040 676.080 M128.040 676.080 L184.260 676.080 L184.260 770.580 L128.040 770.580 L128.040 676.080 M184.740 676.080 L240.960 676.080 L240.960 770.580 L184.740 770.580 L184.740 676.080 M184.740 676.080 L240.960 676.080 L240.960 770.580 L184.740 770.580 L184.740 676.080 M70.860 770.580 L71.340 770.580 L71.340 771.060 L70.860 771.060 L70.860 770.580 "/>
  <path style="fill:rgb(0,0,0);stroke:none;stroke-width:1.0;" d="M70.860 770.580 L71.340 770.580 L71.340 771.060 L70.860 771.060 L70.860 770.580 "/>
  <path style="fill:rgb(0,0,0);stroke:none;stroke-width:1.0;" d="M71.340 770.580 L127.560 770.580 L127.560 771.060 L71.340 771.060 L71.340 770.580 "/>
  <path style="fill:rgb(0,0,0);stroke:none;stroke-width:1.0;" d="M127.560 770.580 L128.040 770.580 L128.040 771.060 L127.560 771.060 L127.560 770.580 "/>
  <path style="fill:rgb(0,0,0);stroke:none;stroke-width:1.0;" d="M128.040 770.580 L184.260 770.580 L184.260 771.060 L128.040 771.060 L128.040 770.580 "/>
  <path style="fill:rgb(0,0,0);stroke:none;stroke-width:1.0;" d="M184.260 770.580 L184.740 770.580 L184.740 771.060 L184.260 771.060 L184.260 770.580 "/>
  <path style="fill:rgb(0,0,0);stroke:none;stroke-width:1.0;" d="M184.740 770.580 L240.960 770.580 L240.960 771.060 L184.740 771.060 L184.740 770.580 "/>
  <path style="fill:rgb(0,0,0);stroke:none;stroke-width:1.0;" d="M240.960 770.580 L241.440 770.580 L241.440 771.060 L240.960 771.060 L240.960 770.580 "/>
  <path style="fill:rgb(0,0,0);stroke:none;stroke-width:1.0;" d="M523.980 770.580 L524.460 770.580 L524.460 771.060 L523.980 771.060 L523.980 770.580 "/>
  <path style="fill:rgb(0,0,0);stroke:none;stroke-width:1.0;" d="M523.980 770.580 L524.460 770.580 L524.460 771.060 L523.980 771.060 L523.980 770.580 "/>
  <path style="fill:rgb(0,0,0);stroke:none;stroke-width:1.0;" d="M70.860 676.080 L71.340 676.080 L71.340 770.580 L70.860 770.580 L70.860 676.080 "/>
  <path style="fill:rgb(0,0,0);stroke:none;stroke-width:1.0;" d="M127.560 676.080 L128.040 676.080 L128.040 770.580 L127.560 770.580 L127.560 676.080 "/>
  <path style="fill:rgb(0,0,0);stroke:none;stroke-width:1.0;" d="M184.260 676.080 L184.740 676.080 L184.740 770.580 L184.260 770.580 L184.260 676.080 "/>
  <path style="fill:rgb(0,0,0);stroke:none;stroke-width:1.0;" d="M240.960 676.080 L241.440 676.080 L241.440 770.580 L240.960 770.580 L240.960 676.080 "/>
  <path style="fill:rgb(0,0,0);stroke:none;stroke-width:1.0;" d="M523.980 676.080 L524.460 676.080 L524.460 770.580 L523.980 770.580 L523.980 676.080 "/>
  <g begin="text">
   <text y="175.86" x="76.5,81.841,87.121,91.921,97.201,100.558,105.538,108.958,111.242,116.282" svgx:width="0.53,0.52,0.48,0.52,0.34,0.5,0.35,0.23,0.51,0.51" style="fill:rgb(0,0,0);font-family:Calibri;font-size:10.02px;stroke:none;">Chapter 16</text>
  </g>
  <g begin="text">
   <text y="175.86" x="121.32" svgx:width="0.23" style="fill:rgb(0,0,0);font-family:Calibri;font-size:10.02px;stroke:none;"> </text>
  </g>
  <g begin="text">
   <text y="175.86" x="133.2,138.3" svgx:width="0.51,0.51" style="fill:rgb(0,0,0);font-family:Calibri;font-size:10.02px;stroke:none;">77</text>
  </g>
  <g begin="text">
   <text y="175.86" x="143.34" svgx:width="0.23" style="fill:rgb(0,0,0);font-family:Calibri;font-size:10.02px;stroke:none;"> </text>
  </g>
  <g begin="text">
   <text y="175.86" x="189.9,195.0" svgx:width="0.51,0.51" style="fill:rgb(0,0,0);font-family:Calibri;font-size:10.02px;stroke:none;">18</text>
  </g>
  <g begin="text">
   <text y="175.86" x="200.04" svgx:width="0.23" style="fill:rgb(0,0,0);font-family:Calibri;font-size:10.02px;stroke:none;"> </text>
  </g>
  <g begin="text">
   <text y="175.86" x="246.6,251.94,257.28,262.74,267.78,272.88,275.1,280.922,286.202,289.503,294.783,300.063,303.543,307.443,309.723,312.004,314.283,318.183,321.544,324.243" svgx:width="0.53,0.53,0.54,0.51,0.51,0.23,0.58,0.52,0.34,0.52,0.53,0.35,0.39,0.23,0.23,0.23,0.39,0.34,0.27,0.23" style="fill:rgb(0,0,0);font-family:Calibri;font-size:10.02px;stroke:none;">CCB12 Authors list: </text>
  </g>
  <g begin="text">
   <text y="175.86" x="326.52,335.1,339.9,343.38,345.664,350.465,352.684,357.304,359.589,364.268,369.549,374.529,378.009,383.289" svgx:width="0.86,0.48,0.35,0.23,0.48,0.23,0.46,0.23,0.47,0.52,0.5,0.35,0.53,0.48" style="fill:rgb(0,0,0);font-family:Calibri;font-size:10.02px;stroke:none;">Maria Figueroa</text>
  </g>
  <g begin="text">
   <text y="175.86" x="388.08" svgx:width="0.23" style="fill:rgb(0,0,0);font-family:Calibri;font-size:10.02px;stroke:none;"> </text>
  </g>
  <g begin="text">
   <text y="175.86" x="390.36,394.26,399.54,404.76,410.04,412.32,417.6,419.88,423.3,428.28,433.08" svgx:width="0.39,0.52,0.53,0.52,0.23,0.52,0.23,0.35,0.5,0.48,0.52" style="fill:rgb(0,0,0);font-family:Calibri;font-size:10.02px;stroke:none;">should read</text>
  </g>
  <g begin="text">
   <text y="175.86" x="438.36" svgx:width="0.23" style="fill:rgb(0,0,0);font-family:Calibri;font-size:10.02px;stroke:none;"> </text>
  </g>
  <g begin="text">
   <text y="175.86" x="440.58,449.16,453.96,457.44,459.72,464.52,466.804,469.984,475.264,479.164,484.084,487.14,489.419,494.7,499.5" svgx:width="0.86,0.48,0.35,0.23,0.48,0.23,0.32,0.53,0.39,0.5,0.31,0.23,0.52,0.48,0.23" style="fill:rgb(0,0,0);font-family:Calibri;font-size:10.02px;stroke:none;">María Josefina </text>
  </g>
  <g begin="text">
   <text y="188.04" x="246.6,251.22,253.5,258.24,263.521,268.501,271.981,277.26,282.001,284.28,292.86,297.84,301.741,306.48" svgx:width="0.46,0.23,0.47,0.52,0.5,0.35,0.53,0.48,0.23,0.86,0.5,0.4,0.48,0.23" style="fill:rgb(0,0,0);font-family:Calibri;font-size:10.02px;stroke:none;">Figueroa Meza </text>
  </g>
  <path style="fill:rgb(0,0,0);stroke:none;stroke-width:1.0;" d="M71.340 581.040 L127.560 581.040 L127.560 675.540 L71.340 675.540 L71.340 581.040 M71.340 581.040 L127.560 581.040 L127.560 675.540 L71.340 675.540 L71.340 581.040 M128.040 581.040 L184.260 581.040 L184.260 675.540 L128.040 675.540 L128.040 581.040 M128.040 581.040 L184.260 581.040 L184.260 675.540 L128.040 675.540 L128.040 581.040 M184.740 581.040 L240.960 581.040 L240.960 675.540 L184.740 675.540 L184.740 581.040 M184.740 581.040 L240.960 581.040 L240.960 675.540 L184.740 675.540 L184.740 581.040 M70.860 675.600 L71.340 675.600 L71.340 676.080 L70.860 676.080 L70.860 675.600 "/>
  <path style="fill:rgb(0,0,0);stroke:none;stroke-width:1.0;" d="M71.340 675.600 L127.560 675.600 L127.560 676.080 L71.340 676.080 L71.340 675.600 "/>
  <path style="fill:rgb(0,0,0);stroke:none;stroke-width:1.0;" d="M127.560 675.600 L128.040 675.600 L128.040 676.080 L127.560 676.080 L127.560 675.600 "/>
  <path style="fill:rgb(0,0,0);stroke:none;stroke-width:1.0;" d="M128.040 675.600 L184.260 675.600 L184.260 676.080 L128.040 676.080 L128.040 675.600 "/>
  <path style="fill:rgb(0,0,0);stroke:none;stroke-width:1.0;" d="M184.260 675.600 L184.740 675.600 L184.740 676.080 L184.260 676.080 L184.260 675.600 "/>
  <path style="fill:rgb(0,0,0);stroke:none;stroke-width:1.0;" d="M184.740 675.600 L240.960 675.600 L240.960 676.080 L184.740 676.080 L184.740 675.600 "/>
  <path style="fill:rgb(0,0,0);stroke:none;stroke-width:1.0;" d="M240.960 675.600 L241.440 675.600 L241.440 676.080 L240.960 676.080 L240.960 675.600 "/>
  <path style="fill:rgb(0,0,0);stroke:none;stroke-width:1.0;" d="M523.980 675.600 L524.460 675.600 L524.460 676.080 L523.980 676.080 L523.980 675.600 "/>
  <path style="fill:rgb(0,0,0);stroke:none;stroke-width:1.0;" d="M70.860 581.040 L71.340 581.040 L71.340 675.600 L70.860 675.600 L70.860 581.040 "/>
  <path style="fill:rgb(0,0,0);stroke:none;stroke-width:1.0;" d="M127.560 581.040 L128.040 581.040 L128.040 675.600 L127.560 675.600 L127.560 581.040 "/>
  <path style="fill:rgb(0,0,0);stroke:none;stroke-width:1.0;" d="M184.260 581.040 L184.740 581.040 L184.740 675.600 L184.260 675.600 L184.260 581.040 "/>
  <path style="fill:rgb(0,0,0);stroke:none;stroke-width:1.0;" d="M240.960 581.040 L241.440 581.040 L241.440 675.600 L240.960 675.600 L240.960 581.040 "/>
  <path style="fill:rgb(0,0,0);stroke:none;stroke-width:1.0;" d="M523.980 581.040 L524.460 581.040 L524.460 675.600 L523.980 675.600 L523.980 581.040 "/>
  <g begin="text">
   <text y="270.84" x="76.5,81.841,87.121,91.921,97.201,100.558,105.538,108.958,111.242,116.282" svgx:width="0.53,0.52,0.48,0.52,0.34,0.5,0.35,0.23,0.51,0.51" style="fill:rgb(0,0,0);font-family:Calibri;font-size:10.02px;stroke:none;">Chapter 16</text>
  </g>
  <g begin="text">
   <text y="270.84" x="121.32" svgx:width="0.23" style="fill:rgb(0,0,0);font-family:Calibri;font-size:10.02px;stroke:none;"> </text>
  </g>
  <g begin="text">
   <text y="270.84" x="133.2" svgx:width="0.51" style="fill:rgb(0,0,0);font-family:Calibri;font-size:10.02px;stroke:none;">1</text>
  </g>
  <g begin="text">
   <text y="270.84" x="138.24" svgx:width="0.23" style="fill:rgb(0,0,0);font-family:Calibri;font-size:10.02px;stroke:none;"> </text>
  </g>
  <g begin="text">
   <text y="270.84" x="189.9,195.0" svgx:width="0.51,0.51" style="fill:rgb(0,0,0);font-family:Calibri;font-size:10.02px;stroke:none;">13</text>
  </g>
  <g begin="text">
   <text y="270.84" x="200.04" svgx:width="0.23" style="fill:rgb(0,0,0);font-family:Calibri;font-size:10.02px;stroke:none;"> </text>
  </g>
  <g begin="text">
   <text y="270.84" x="246.6,249.78,255.06,260.34,262.62,264.905,268.084,273.364,277.264,282.545,287.525,291.425,294.785,299.525,301.809,304.865,307.325,312.606,317.886,323.166,328.386,333.366,337.266,339.546,344.346,347.402,349.687,353.586,358.867,364.087,369.368,371.648,376.929,379.214,382.694,387.673,392.413,397.693" svgx:width="0.32,0.53,0.52,0.23,0.23,0.32,0.52,0.39,0.52,0.5,0.39,0.34,0.48,0.23,0.3,0.25,0.52,0.52,0.53,0.52,0.5,0.39,0.23,0.48,0.3,0.23,0.39,0.52,0.53,0.52,0.23,0.52,0.23,0.35,0.5,0.48,0.52,0.23" style="fill:rgb(0,0,0);font-family:Calibri;font-size:10.02px;stroke:none;">Joni Juspesta (Indonesia) should read </text>
  </g>
  <g begin="text">
   <text y="270.84" x="399.96,403.14,408.421,413.701,415.981,418.261,421.381,426.661,431.941,436.921,440.821,444.177,448.977" svgx:width="0.32,0.53,0.52,0.23,0.23,0.32,0.52,0.52,0.5,0.39,0.34,0.48,0.23" style="fill:rgb(0,0,0);font-family:Calibri;font-size:10.02px;stroke:none;">Joni Jupesta </text>
  </g>
  <g begin="text">
   <text y="283.02" x="246.6,249.656,252.176,257.457,262.737,267.958,273.238,278.218,282.118,284.398,289.198,293.098,296.278,301.018,306.238,311.039,316.319,319.315" svgx:width="0.3,0.25,0.52,0.52,0.53,0.52,0.5,0.39,0.23,0.48,0.39,0.32,0.48,0.52,0.48,0.52,0.3,0.23" style="fill:rgb(0,0,0);font-family:Calibri;font-size:10.02px;stroke:none;">(Indonesia/Japan) </text>
  </g>
  <path style="fill:rgb(0,0,0);stroke:none;stroke-width:1.0;" d="M71.340 486.060 L127.560 486.060 L127.560 580.560 L71.340 580.560 L71.340 486.060 M71.340 486.060 L127.560 486.060 L127.560 580.560 L71.340 580.560 L71.340 486.060 M128.040 486.060 L184.260 486.060 L184.260 580.560 L128.040 580.560 L128.040 486.060 M128.040 486.060 L184.260 486.060 L184.260 580.560 L128.040 580.560 L128.040 486.060 M184.740 486.060 L240.960 486.060 L240.960 580.560 L184.740 580.560 L184.740 486.060 M184.740 486.060 L240.960 486.060 L240.960 580.560 L184.740 580.560 L184.740 486.060 M70.860 580.560 L71.340 580.560 L71.340 581.040 L70.860 581.040 L70.860 580.560 "/>
  <path style="fill:rgb(0,0,0);stroke:none;stroke-width:1.0;" d="M71.340 580.560 L127.560 580.560 L127.560 581.040 L71.340 581.040 L71.340 580.560 "/>
  <path style="fill:rgb(0,0,0);stroke:none;stroke-width:1.0;" d="M127.560 580.560 L128.040 580.560 L128.040 581.040 L127.560 581.040 L127.560 580.560 "/>
  <path style="fill:rgb(0,0,0);stroke:none;stroke-width:1.0;" d="M128.040 580.560 L184.260 580.560 L184.260 581.040 L128.040 581.040 L128.040 580.560 "/>
  <path style="fill:rgb(0,0,0);stroke:none;stroke-width:1.0;" d="M184.260 580.560 L184.740 580.560 L184.740 581.040 L184.260 581.040 L184.260 580.560 "/>
  <path style="fill:rgb(0,0,0);stroke:none;stroke-width:1.0;" d="M184.740 580.560 L240.960 580.560 L240.960 581.040 L184.740 581.040 L184.740 580.560 "/>
  <path style="fill:rgb(0,0,0);stroke:none;stroke-width:1.0;" d="M240.960 580.560 L241.440 580.560 L241.440 581.040 L240.960 581.040 L240.960 580.560 "/>
  <path style="fill:rgb(0,0,0);stroke:none;stroke-width:1.0;" d="M523.980 580.560 L524.460 580.560 L524.460 581.040 L523.980 581.040 L523.980 580.560 "/>
  <path style="fill:rgb(0,0,0);stroke:none;stroke-width:1.0;" d="M70.860 486.060 L71.340 486.060 L71.340 580.560 L70.860 580.560 L70.860 486.060 "/>
  <path style="fill:rgb(0,0,0);stroke:none;stroke-width:1.0;" d="M127.560 486.060 L128.040 486.060 L128.040 580.560 L127.560 580.560 L127.560 486.060 "/>
  <path style="fill:rgb(0,0,0);stroke:none;stroke-width:1.0;" d="M184.260 486.060 L184.740 486.060 L184.740 580.560 L184.260 580.560 L184.260 486.060 "/>
  <path style="fill:rgb(0,0,0);stroke:none;stroke-width:1.0;" d="M240.960 486.060 L241.440 486.060 L241.440 580.560 L240.960 580.560 L240.960 486.060 "/>
  <path style="fill:rgb(0,0,0);stroke:none;stroke-width:1.0;" d="M523.980 486.060 L524.460 486.060 L524.460 580.560 L523.980 580.560 L523.980 486.060 "/>
  <g begin="text">
   <text y="365.82" x="76.5,81.841,87.121,91.921,97.201,100.558,105.538,108.958,111.242,116.282" svgx:width="0.53,0.52,0.48,0.52,0.34,0.5,0.35,0.23,0.51,0.51" style="fill:rgb(0,0,0);font-family:Calibri;font-size:10.02px;stroke:none;">Chapter 16</text>
  </g>
  <g begin="text">
   <text y="365.82" x="121.32" svgx:width="0.23" style="fill:rgb(0,0,0);font-family:Calibri;font-size:10.02px;stroke:none;"> </text>
  </g>
  <g begin="text">
   <text y="365.82" x="133.2,138.3" svgx:width="0.51,0.51" style="fill:rgb(0,0,0);font-family:Calibri;font-size:10.02px;stroke:none;">18</text>
  </g>
  <g begin="text">
   <text y="365.82" x="143.34" svgx:width="0.23" style="fill:rgb(0,0,0);font-family:Calibri;font-size:10.02px;stroke:none;"> </text>
  </g>
  <g begin="text">
   <text y="365.82" x="189.9,195.0" svgx:width="0.51,0.51" style="fill:rgb(0,0,0);font-family:Calibri;font-size:10.02px;stroke:none;">25</text>
  </g>
  <g begin="text">
   <text y="365.82" x="200.04" svgx:width="0.23" style="fill:rgb(0,0,0);font-family:Calibri;font-size:10.02px;stroke:none;"> </text>
  </g>
  <g begin="text">
   <text y="365.82" x="246.6,249.776,255.056,260.336,262.611,264.891,268.067,273.346,277.244,282.524,287.504,291.401,294.762" svgx:width="0.32,0.53,0.52,0.23,0.23,0.32,0.52,0.39,0.52,0.5,0.39,0.34,0.48" style="fill:rgb(0,0,0);font-family:Calibri;font-size:10.02px;stroke:none;">Joni Juspesta</text>
  </g>
  <g begin="text">
   <text y="365.82" x="299.52" svgx:width="0.23" style="fill:rgb(0,0,0);font-family:Calibri;font-size:10.02px;stroke:none;"> </text>
  </g>
  <g begin="text">
   <text y="365.82" x="301.8,304.856,307.316,312.597,317.877,323.158,328.377,333.357,337.257,339.537,344.337,347.393,349.677,353.577,358.858,364.078,369.359,371.639,376.92,379.204,382.684,387.664,392.404,397.684" svgx:width="0.3,0.25,0.52,0.52,0.53,0.52,0.5,0.39,0.23,0.48,0.3,0.23,0.39,0.52,0.53,0.52,0.23,0.52,0.23,0.35,0.5,0.48,0.52,0.23" style="fill:rgb(0,0,0);font-family:Calibri;font-size:10.02px;stroke:none;">(Indonesia) should read </text>
  </g>
  <g begin="text">
   <text y="365.82" x="399.96,403.14,408.421,413.701,415.981,418.261,421.381,426.661,431.941,436.921,440.821,444.177,448.977" svgx:width="0.32,0.53,0.52,0.23,0.23,0.32,0.52,0.52,0.5,0.39,0.34,0.48,0.23" style="fill:rgb(0,0,0);font-family:Calibri;font-size:10.02px;stroke:none;">Joni Jupesta </text>
  </g>
  <g begin="text">
   <text y="378.06" x="246.6,249.656,252.176,257.457,262.737,267.958,273.238,278.218,282.118,284.398,289.198,293.098,296.278,301.018,306.238,311.039,316.319,319.315" svgx:width="0.3,0.25,0.52,0.52,0.53,0.52,0.5,0.39,0.23,0.48,0.39,0.32,0.48,0.52,0.48,0.52,0.3,0.23" style="fill:rgb(0,0,0);font-family:Calibri;font-size:10.02px;stroke:none;">(Indonesia/Japan) </text>
  </g>
  <path style="fill:rgb(0,0,0);stroke:none;stroke-width:1.0;" d="M71.340 391.080 L127.560 391.080 L127.560 485.580 L71.340 485.580 L71.340 391.080 M71.340 391.080 L127.560 391.080 L127.560 485.580 L71.340 485.580 L71.340 391.080 M128.040 391.080 L184.260 391.080 L184.260 485.580 L128.040 485.580 L128.040 391.080 M128.040 391.080 L184.260 391.080 L184.260 485.580 L128.040 485.580 L128.040 391.080 M184.740 391.080 L240.960 391.080 L240.960 485.580 L184.740 485.580 L184.740 391.080 M184.740 391.080 L240.960 391.080 L240.960 485.580 L184.740 485.580 L184.740 391.080 M70.860 485.580 L71.340 485.580 L71.340 486.060 L70.860 486.060 L70.860 485.580 "/>
  <path style="fill:rgb(0,0,0);stroke:none;stroke-width:1.0;" d="M71.340 485.580 L127.560 485.580 L127.560 486.060 L71.340 486.060 L71.340 485.580 "/>
  <path style="fill:rgb(0,0,0);stroke:none;stroke-width:1.0;" d="M127.560 485.580 L128.040 485.580 L128.040 486.060 L127.560 486.060 L127.560 485.580 "/>
  <path style="fill:rgb(0,0,0);stroke:none;stroke-width:1.0;" d="M128.040 485.580 L184.260 485.580 L184.260 486.060 L128.040 486.060 L128.040 485.580 "/>
  <path style="fill:rgb(0,0,0);stroke:none;stroke-width:1.0;" d="M184.260 485.580 L184.740 485.580 L184.740 486.060 L184.260 486.060 L184.260 485.580 "/>
  <path style="fill:rgb(0,0,0);stroke:none;stroke-width:1.0;" d="M184.740 485.580 L240.960 485.580 L240.960 486.060 L184.740 486.060 L184.740 485.580 "/>
  <path style="fill:rgb(0,0,0);stroke:none;stroke-width:1.0;" d="M240.960 485.580 L241.440 485.580 L241.440 486.060 L240.960 486.060 L240.960 485.580 "/>
  <path style="fill:rgb(0,0,0);stroke:none;stroke-width:1.0;" d="M523.980 485.580 L524.460 485.580 L524.460 486.060 L523.980 486.060 L523.980 485.580 "/>
  <path style="fill:rgb(0,0,0);stroke:none;stroke-width:1.0;" d="M70.860 391.080 L71.340 391.080 L71.340 485.580 L70.860 485.580 L70.860 391.080 "/>
  <path style="fill:rgb(0,0,0);stroke:none;stroke-width:1.0;" d="M127.560 391.080 L128.040 391.080 L128.040 485.580 L127.560 485.580 L127.560 391.080 "/>
  <path style="fill:rgb(0,0,0);stroke:none;stroke-width:1.0;" d="M184.260 391.080 L184.740 391.080 L184.740 485.580 L184.260 485.580 L184.260 391.080 "/>
  <path style="fill:rgb(0,0,0);stroke:none;stroke-width:1.0;" d="M240.960 391.080 L241.440 391.080 L241.440 485.580 L240.960 485.580 L240.960 391.080 "/>
  <path style="fill:rgb(0,0,0);stroke:none;stroke-width:1.0;" d="M523.980 391.080 L524.460 391.080 L524.460 485.580 L523.980 485.580 L523.980 391.080 "/>
  <g begin="text">
   <text y="460.86" x="76.5,81.841,87.121,91.921,97.201,100.558,105.538,108.958,111.242,116.282" svgx:width="0.53,0.52,0.48,0.52,0.34,0.5,0.35,0.23,0.51,0.51" style="fill:rgb(0,0,0);font-family:Calibri;font-size:10.02px;stroke:none;">Chapter 16</text>
  </g>
  <g begin="text">
   <text y="460.86" x="121.32" svgx:width="0.23" style="fill:rgb(0,0,0);font-family:Calibri;font-size:10.02px;stroke:none;"> </text>
  </g>
  <g begin="text">
   <text y="460.86" x="133.2,137.819,141.299,146.579,151.859" svgx:width="0.46,0.35,0.53,0.52,0.34" style="fill:rgb(0,0,0);font-family:Calibri;font-size:10.02px;stroke:none;">Front</text>
  </g>
  <g begin="text">
   <text y="460.86" x="155.16" svgx:width="0.23" style="fill:rgb(0,0,0);font-family:Calibri;font-size:10.02px;stroke:none;"> </text>
  </g>
  <g begin="text">
   <text y="460.86" x="189.9" svgx:width="0.51" style="fill:rgb(0,0,0);font-family:Calibri;font-size:10.02px;stroke:none;">6</text>
  </g>
  <g begin="text">
   <text y="460.86" x="194.94" svgx:width="0.23" style="fill:rgb(0,0,0);font-family:Calibri;font-size:10.02px;stroke:none;"> </text>
  </g>
  <g begin="text">
   <text y="460.86" x="246.6,252.422,260.403,265.683,270.964,273.304,275.584,281.766,284.286,286.506,291.125,295.865,300.605,305.345" svgx:width="0.58,0.8,0.52,0.52,0.24,0.23,0.62,0.25,0.23,0.46,0.48,0.47,0.48,0.35" style="fill:rgb(0,0,0);font-family:Calibri;font-size:10.02px;stroke:none;">Ambuj D. Sagar</text>
  </g>
  <g begin="text">
   <text y="460.86" x="308.82" svgx:width="0.23" style="fill:rgb(0,0,0);font-family:Calibri;font-size:10.02px;stroke:none;"> </text>
  </g>
  <path style="fill:rgb(0,0,0);stroke:none;stroke-width:1.0;" d="M71.340 296.040 L127.560 296.040 L127.560 390.540 L71.340 390.540 L71.340 296.040 M71.340 296.040 L127.560 296.040 L127.560 390.540 L71.340 390.540 L71.340 296.040 M128.040 296.040 L184.260 296.040 L184.260 390.540 L128.040 390.540 L128.040 296.040 M128.040 296.040 L184.260 296.040 L184.260 390.540 L128.040 390.540 L128.040 296.040 M184.740 296.040 L240.960 296.040 L240.960 390.540 L184.740 390.540 L184.740 296.040 M184.740 296.040 L240.960 296.040 L240.960 390.540 L184.740 390.540 L184.740 296.040 M70.860 390.600 L71.340 390.600 L71.340 391.080 L70.860 391.080 L70.860 390.600 "/>
  <path style="fill:rgb(0,0,0);stroke:none;stroke-width:1.0;" d="M71.340 390.600 L127.560 390.600 L127.560 391.080 L71.340 391.080 L71.340 390.600 "/>
  <path style="fill:rgb(0,0,0);stroke:none;stroke-width:1.0;" d="M127.560 390.600 L128.040 390.600 L128.040 391.080 L127.560 391.080 L127.560 390.600 "/>
  <path style="fill:rgb(0,0,0);stroke:none;stroke-width:1.0;" d="M128.040 390.600 L184.260 390.600 L184.260 391.080 L128.040 391.080 L128.040 390.600 "/>
  <path style="fill:rgb(0,0,0);stroke:none;stroke-width:1.0;" d="M184.260 390.600 L184.740 390.600 L184.740 391.080 L184.260 391.080 L184.260 390.600 "/>
  <path style="fill:rgb(0,0,0);stroke:none;stroke-width:1.0;" d="M184.740 390.600 L240.960 390.600 L240.960 391.080 L184.740 391.080 L184.740 390.600 "/>
  <path style="fill:rgb(0,0,0);stroke:none;stroke-width:1.0;" d="M240.960 390.600 L241.440 390.600 L241.440 391.080 L240.960 391.080 L240.960 390.600 "/>
  <path style="fill:rgb(0,0,0);stroke:none;stroke-width:1.0;" d="M523.980 390.600 L524.460 390.600 L524.460 391.080 L523.980 391.080 L523.980 390.600 "/>
  <path style="fill:rgb(0,0,0);stroke:none;stroke-width:1.0;" d="M70.860 296.040 L71.340 296.040 L71.340 390.600 L70.860 390.600 L70.860 296.040 "/>
  <path style="fill:rgb(0,0,0);stroke:none;stroke-width:1.0;" d="M70.860 295.560 L71.340 295.560 L71.340 296.040 L70.860 296.040 L70.860 295.560 "/>
  <path style="fill:rgb(0,0,0);stroke:none;stroke-width:1.0;" d="M70.860 295.560 L71.340 295.560 L71.340 296.040 L70.860 296.040 L70.860 295.560 "/>
  <path style="fill:rgb(0,0,0);stroke:none;stroke-width:1.0;" d="M71.340 295.560 L127.560 295.560 L127.560 296.040 L71.340 296.040 L71.340 295.560 "/>
  <path style="fill:rgb(0,0,0);stroke:none;stroke-width:1.0;" d="M127.560 296.040 L128.040 296.040 L128.040 390.600 L127.560 390.600 L127.560 296.040 "/>
  <path style="fill:rgb(0,0,0);stroke:none;stroke-width:1.0;" d="M127.560 295.560 L128.040 295.560 L128.040 296.040 L127.560 296.040 L127.560 295.560 "/>
  <path style="fill:rgb(0,0,0);stroke:none;stroke-width:1.0;" d="M128.040 295.560 L184.260 295.560 L184.260 296.040 L128.040 296.040 L128.040 295.560 "/>
  <path style="fill:rgb(0,0,0);stroke:none;stroke-width:1.0;" d="M184.260 296.040 L184.740 296.040 L184.740 390.600 L184.260 390.600 L184.260 296.040 "/>
  <path style="fill:rgb(0,0,0);stroke:none;stroke-width:1.0;" d="M184.260 295.560 L184.740 295.560 L184.740 296.040 L184.260 296.040 L184.260 295.560 "/>
  <path style="fill:rgb(0,0,0);stroke:none;stroke-width:1.0;" d="M184.740 295.560 L240.960 295.560 L240.960 296.040 L184.740 296.040 L184.740 295.560 "/>
  <path style="fill:rgb(0,0,0);stroke:none;stroke-width:1.0;" d="M240.960 296.040 L241.440 296.040 L241.440 390.600 L240.960 390.600 L240.960 296.040 "/>
  <path style="fill:rgb(0,0,0);stroke:none;stroke-width:1.0;" d="M240.960 295.560 L241.440 295.560 L241.440 296.040 L240.960 296.040 L240.960 295.560 "/>
  <path style="fill:rgb(0,0,0);stroke:none;stroke-width:1.0;" d="M523.980 296.040 L524.460 296.040 L524.460 390.600 L523.980 390.600 L523.980 296.040 "/>
  <path style="fill:rgb(0,0,0);stroke:none;stroke-width:1.0;" d="M523.980 295.560 L524.460 295.560 L524.460 296.040 L523.980 296.040 L523.980 295.560 "/>
  <path style="fill:rgb(0,0,0);stroke:none;stroke-width:1.0;" d="M523.980 295.560 L524.460 295.560 L524.460 296.040 L523.980 296.040 L523.980 295.560 "/>
 </g>
</svg>
