<?xml version="1.0" encoding="UTF-8"?>
<svg height="560.44" width="760.6" xmlns="http://www.w3.org/2000/svg">
 <g id="page" xmlns:svgx="http://www.xml-cml.org/schema/svgx">
  <g begin="text">
   <text y="45.72" x="72.0,78.138,81.207,86.727,91.563,94.676,97.436,105.352,110.872,116.392,121.194,124.904,130.424,138.947,143.848,149.368,152.493,155.253,163.058,166.767,171.57,175.279" svgx:width="0.56,0.28,0.5,0.44,0.28,0.25,0.72,0.5,0.5,0.44,0.33,0.5,0.78,0.44,0.5,0.28,0.25,0.72,0.33,0.44,0.33,0.28" style="fill:rgb(0,0,0);font-family:TimesNewRomanPSMT;font-size:11.04px;stroke:none;">Final Government Draft</text>
  </g>
  <g begin="text">
   <text y="45.72" x="178.34" svgx:width="0.25" style="fill:rgb(0,0,0);font-family:TimesNewRomanPSMT;font-size:11.04px;stroke:none;"> </text>
  </g>
  <g begin="text">
   <text y="45.72" x="273.41,280.729,286.249,291.151,296.671,299.796,304.598,308.307,311.067,316.587" svgx:width="0.67,0.5,0.44,0.5,0.28,0.44,0.33,0.25,0.5,0.5" style="fill:rgb(0,0,0);font-family:TimesNewRomanPSMT;font-size:11.04px;stroke:none;">Chapter 16</text>
  </g>
  <g begin="text">
   <text y="45.72" x="322.01" svgx:width="0.25" style="fill:rgb(0,0,0);font-family:TimesNewRomanPSMT;font-size:11.04px;stroke:none;"> </text>
  </g>
  <g begin="text">
   <text y="45.72" x="443.35" svgx:width="0.33" style="fill:rgb(0,0,0);font-family:TimesNewRomanPSMT;font-size:11.04px;stroke:none;">I</text>
  </g>
  <g begin="text">
   <text y="45.72" x="446.95,453.088,460.386,467.705" svgx:width="0.56,0.67,0.67,0.25" style="fill:rgb(0,0,0);font-family:TimesNewRomanPSMT;font-size:11.04px;stroke:none;">PCC </text>
  </g>
  <g begin="text">
   <text y="45.72" x="470.47,478.386,485.705,491.225,493.985,504.407,512.378,516.054,519.664" svgx:width="0.72,0.67,0.5,0.25,0.94,0.72,0.33,0.33,0.33" style="fill:rgb(0,0,0);font-family:TimesNewRomanPSMT;font-size:11.04px;stroke:none;">AR6 WGIII</text>
  </g>
  <g begin="text">
   <text y="45.72" x="523.39" svgx:width="0.25" style="fill:rgb(0,0,0);font-family:TimesNewRomanPSMT;font-size:11.04px;stroke:none;"> </text>
  </g>
  <g begin="text">
   <text y="59.66" x="72.0" svgx:width="0.25" style="fill:rgb(0,0,0);font-family:TimesNewRomanPSMT;font-size:11.04px;stroke:none;"> </text>
  </g>
  <g begin="text">
   <text y="516.6" x="72.0,79.916,85.436,88.196,96.111,101.631,105.341,108.101,116.016,119.13,122.729,127.631,130.391,133.051,141.684,147.823,153.343,157.019,161.844,164.604,170.124,175.025,177.785,185.756,188.726,192.921,196.631,201.532,204.657,210.795,216.779,220.488" svgx:width="0.72,0.5,0.25,0.72,0.5,0.33,0.25,0.72,0.28,0.33,0.44,0.25,0.25,0.78,0.56,0.5,0.33,0.44,0.25,0.5,0.44,0.25,0.72,0.28,0.39,0.33,0.44,0.28,0.56,0.56,0.33,0.44" style="fill:rgb(0,0,0);font-family:TimesNewRomanPS-BoldMT;font-size:11.04px;stroke:none;">Do Not Cite, Quote or Distribute</text>
  </g>
  <g begin="text">
   <text y="516.6" x="225.38" svgx:width="0.25" style="fill:rgb(0,0,0);font-family:TimesNewRomanPS-BoldMT;font-size:11.04px;stroke:none;"> </text>
  </g>
  <g begin="text">
   <text y="516.6" x="284.81,290.33" svgx:width="0.5,0.5" style="fill:rgb(0,0,0);font-family:TimesNewRomanPSMT;font-size:11.04px;stroke:none;">16</text>
  </g>
  <g begin="text">
   <text y="516.6" x="295.85" svgx:width="0.33" style="fill:rgb(0,0,0);font-family:TimesNewRomanPSMT;font-size:11.04px;stroke:none;">-</text>
  </g>
  <g begin="text">
   <text y="516.6" x="299.45,304.97" svgx:width="0.5,0.5" style="fill:rgb(0,0,0);font-family:TimesNewRomanPSMT;font-size:11.04px;stroke:none;">41</text>
  </g>
  <g begin="text">
   <text y="516.6" x="310.49" svgx:width="0.25" style="fill:rgb(0,0,0);font-family:TimesNewRomanPSMT;font-size:11.04px;stroke:none;"> </text>
  </g>
  <g begin="text">
   <text y="516.6" x="313.25" svgx:width="0.25" style="fill:rgb(0,0,0);font-family:TimesNewRomanPSMT;font-size:11.04px;stroke:none;"> </text>
  </g>
  <g begin="text">
   <text y="516.6" x="450.07,456.815,462.335,465.405,470.229,473.342,476.102,481.622,486.524,491.945,496.846,501.174,504.177" svgx:width="0.61,0.5,0.28,0.44,0.28,0.25,0.5,0.44,0.5,0.44,0.39,0.28,0.25" style="fill:rgb(0,0,0);font-family:TimesNewRomanPSMT;font-size:11.04px;stroke:none;">Total pages: </text>
  </g>
  <g begin="text">
   <text y="516.6" x="506.95,512.47,517.99" svgx:width="0.5,0.5,0.5" style="fill:rgb(0,0,0);font-family:TimesNewRomanPSMT;font-size:11.04px;stroke:none;">141</text>
  </g>
  <g begin="text">
   <text y="516.6" x="523.39" svgx:width="0.25" style="fill:rgb(0,0,0);font-family:TimesNewRomanPS-BoldMT;font-size:11.04px;stroke:none;"> </text>
  </g>
  <g begin="text">
   <text y="530.52" x="72.0" svgx:width="0.25" style="fill:rgb(0,0,0);font-family:TimesNewRomanPSMT;font-size:11.04px;stroke:none;"> </text>
  </g>
  <g begin="text">
   <text y="550.44" x="72.0" svgx:width="0.25" style="fill:rgb(0,0,0);font-family:TimesNewRomanPSMT;font-size:11.04px;stroke:none;"> </text>
  </g>
  <path style="fill:rgb(217,217,217);stroke:none;stroke-width:1.0;" d="M72.480 422.830 L162.020 422.830 L162.020 522.810 L72.480 522.810 L72.480 422.830 "/>
  <path style="fill:rgb(217,217,217);stroke:none;stroke-width:1.0;" d="M72.480 422.830 L162.020 422.830 L162.020 522.810 L72.480 522.810 L72.480 422.830 M77.660 472.900 L156.860 472.900 L156.860 484.300 L77.660 484.300 L77.660 472.900 "/>
  <g begin="text">
   <text y="120.26" x="77.664,84.855,89.277,93.729,98.759,102.106,104.875,109.895,115.432,117.922,122.962,126.309" svgx:width="0.72,0.44,0.44,0.5,0.33,0.28,0.5,0.56,0.25,0.5,0.33,0.25" style="fill:rgb(0,0,0);font-family:TimesNewRomanPS-BoldMT;font-size:9.96px;stroke:none;">Creation of </text>
  </g>
  <path style="fill:rgb(217,217,217);stroke:none;stroke-width:1.0;" d="M72.480 422.830 L162.020 422.830 L162.020 522.810 L72.480 522.810 L72.480 422.830 M77.660 461.380 L156.860 461.380 L156.860 472.900 L77.660 472.900 L77.660 461.380 "/>
  <g begin="text">
   <text y="131.78" x="77.664,80.433,84.855,89.895,92.664,96.0,98.769,107.146,112.175,116.598" svgx:width="0.28,0.44,0.5,0.28,0.33,0.28,0.83,0.5,0.44,0.5" style="fill:rgb(0,0,0);font-family:TimesNewRomanPS-BoldMT;font-size:9.96px;stroke:none;">legitimacy</text>
  </g>
  <g begin="text">
   <text y="131.78" x="121.58" svgx:width="0.25" style="fill:rgb(0,0,0);font-family:TimesNewRomanPS-BoldMT;font-size:9.96px;stroke:none;"> </text>
  </g>
  <g begin="text">
   <text y="81.86" x="167.66,174.851,179.891,184.921,187.69,192.709,195.199,206.374,210.797,215.847,220.876,223.366,234.422,239.452,244.482,249.511,252.28,255.049,259.352" svgx:width="0.72,0.5,0.5,0.28,0.5,0.25,0.55,0.44,0.5,0.5,0.25,0.55,0.5,0.5,0.5,0.28,0.28,0.44,0.25" style="fill:rgb(0,0,0);font-family:TimesNewRomanPSMT;font-size:9.96px;stroke:none;">Youth and public </text>
  </g>
  <g begin="text">
   <text y="94.58" x="167.66,172.69,177.112,184.921,189.951,194.98,198.825,201.594,204.93,209.353,212.121,214.89,219.92" svgx:width="0.5,0.44,0.78,0.5,0.5,0.39,0.28,0.33,0.44,0.28,0.28,0.5,0.5" style="fill:rgb(0,0,0);font-family:TimesNewRomanPSMT;font-size:9.96px;stroke:none;">demonstration</text>
  </g>
  <g begin="text">
   <text y="94.58" x="224.9" svgx:width="0.25" style="fill:rgb(0,0,0);font-family:TimesNewRomanPSMT;font-size:9.96px;stroke:none;"> </text>
  </g>
  <g begin="text">
   <text y="113.18" x="167.66,173.765,178.795,183.825,188.855,193.885,196.524,201.554,206.584,209.094,213.516,217.968,220.737,223.506,228.516,231.284,234.053,236.822,241.244" svgx:width="0.61,0.5,0.5,0.5,0.5,0.28,0.5,0.5,0.25,0.44,0.44,0.28,0.28,0.5,0.28,0.28,0.28,0.44,0.39" style="fill:rgb(0,0,0);font-family:TimesNewRomanPSMT;font-size:9.96px;stroke:none;">Lobbying activities</text>
  </g>
  <g begin="text">
   <text y="113.18" x="245.21" svgx:width="0.25" style="fill:rgb(0,0,0);font-family:TimesNewRomanPSMT;font-size:9.96px;stroke:none;"> </text>
  </g>
  <g begin="text">
   <text y="131.78" x="167.66,174.264,178.686,183.735,188.765,191.534,195.956,198.725,203.755,207.102,212.131,214.621,215.597,220.02,224.472,228.894,233.346,238.376,241.145,245.567,250.607,255.029,259.372" svgx:width="0.67,0.44,0.5,0.5,0.28,0.44,0.28,0.5,0.33,0.5,0.25,0.55,0.44,0.44,0.44,0.44,0.5,0.28,0.44,0.5,0.44,0.44,0.25" style="fill:rgb(0,0,0);font-family:TimesNewRomanPSMT;font-size:9.96px;stroke:none;">Regulatory acceptance </text>
  </g>
  <g begin="text">
   <text y="144.5" x="167.66,172.082,177.132,182.162,184.672,187.441,192.46,195.229,199.652,204.691,208.038,212.46,215.229,217.998,222.918" svgx:width="0.44,0.5,0.5,0.25,0.28,0.5,0.28,0.44,0.5,0.33,0.44,0.28,0.28,0.5,0.5" style="fill:rgb(0,0,0);font-family:TimesNewRomanPSMT;font-size:9.96px;stroke:none;">and integration</text>
  </g>
  <g begin="text">
   <text y="144.5" x="227.9" svgx:width="0.25" style="fill:rgb(0,0,0);font-family:TimesNewRomanPSMT;font-size:9.96px;stroke:none;"> </text>
  </g>
  <g begin="text">
   <text y="163.1" x="167.66,173.765,178.188,182.64,187.67,192.699,197.729,200.498,205.408,210.438,215.468,217.978,221.822,226.852,231.773,236.802,241.832,245.179" svgx:width="0.61,0.44,0.44,0.5,0.5,0.5,0.28,0.5,0.5,0.5,0.25,0.39,0.5,0.5,0.5,0.5,0.33,0.28" style="fill:rgb(0,0,0);font-family:TimesNewRomanPSMT;font-size:9.96px;stroke:none;">Technology support</text>
  </g>
  <g begin="text">
   <text y="163.1" x="247.97" svgx:width="0.25" style="fill:rgb(0,0,0);font-family:TimesNewRomanPSMT;font-size:9.96px;stroke:none;"> </text>
  </g>
  <g begin="text">
   <text y="87.86" x="270.29,276.395,280.818,285.867,290.29,293.059,295.349,300.379,303.616,305.897,310.927,313.696,317.53,321.953,327.002,330.847,334.691,337.46,342.48,347.51,350.279,355.299,359.721,364.771,369.193,371.962,376.294" svgx:width="0.61,0.44,0.5,0.44,0.28,0.25,0.5,0.33,0.25,0.5,0.28,0.39,0.44,0.5,0.39,0.39,0.28,0.5,0.5,0.28,0.5,0.44,0.5,0.44,0.28,0.44,0.25" style="fill:rgb(0,0,0);font-family:TimesNewRomanPSMT;font-size:9.96px;stroke:none;">Level of discussion/debate </text>
  </g>
  <g begin="text">
   <text y="100.58" x="270.29,274.712,282.521,287.551,292.581,297.61,300.1,304.801,309.831,314.154,319.184,321.67400000000004,326.375,330.219,332.988,337.411,342.45,346.873,351.922,356.952,359.721,364.741,369.064,372.41,376.255" svgx:width="0.44,0.78,0.5,0.5,0.5,0.25,0.55,0.5,0.44,0.5,0.25,0.55,0.39,0.28,0.44,0.5,0.44,0.5,0.5,0.28,0.5,0.44,0.33,0.39,0.25" style="fill:rgb(0,0,0);font-family:TimesNewRomanPSMT;font-size:9.96px;stroke:none;">among key stakeholders </text>
  </g>
  <g begin="text">
   <text y="113.18" x="270.29,273.637,278.666,283.696,288.726,291.495,294.264,298.686,301.196,303.68600000000004,312.829,316.176,318.945,322.172,329.96,333.805,336.315,338.805,347.948,352.978,358.008,360.777,363.546,367.968" svgx:width="0.33,0.5,0.5,0.5,0.28,0.28,0.44,0.25,0.25,0.55,0.33,0.28,0.33,0.78,0.39,0.25,0.25,0.55,0.5,0.5,0.28,0.28,0.44,0.5" style="fill:rgb(0,0,0);font-family:TimesNewRomanPSMT;font-size:9.96px;stroke:none;">(public, firms, policy</text>
  </g>
  <g begin="text">
   <text y="113.18" x="373.13" svgx:width="0.33" style="fill:rgb(0,0,0);font-family:TimesNewRomanPSMT;font-size:9.96px;stroke:none;">-</text>
  </g>
  <g begin="text">
   <text y="125.78" x="270.29,278.079,282.501,287.551,291.973,295.339,299.184,301.694,304.204,308.626,311.395,315.817,318.357" svgx:width="0.78,0.44,0.5,0.44,0.33,0.39,0.25,0.25,0.44,0.28,0.44,0.25,0.33" style="fill:rgb(0,0,0);font-family:TimesNewRomanPSMT;font-size:9.96px;stroke:none;">makers, etc.)</text>
  </g>
  <g begin="text">
   <text y="125.78" x="321.65" svgx:width="0.25" style="fill:rgb(0,0,0);font-family:TimesNewRomanPSMT;font-size:9.96px;stroke:none;"> </text>
  </g>
  <g begin="text">
   <text y="144.5" x="270.29,277.481,280.838,285.26,289.712,292.481,296.903,300.26,302.75,311.405,314.751,319.174,323.626,328.546,333.576,338.606,341.375,344.143,346.912,351.912,356.833,359.32300000000004,367.978,373.008,376.245" svgx:width="0.72,0.33,0.44,0.44,0.28,0.44,0.33,0.25,0.55,0.33,0.44,0.44,0.5,0.5,0.5,0.28,0.28,0.28,0.5,0.5,0.25,0.55,0.5,0.33,0.25" style="fill:rgb(0,0,0);font-family:TimesNewRomanPSMT;font-size:9.96px;stroke:none;">Greater recognition of </text>
  </g>
  <g begin="text">
   <text y="157.1" x="270.29,275.32,279.742,284.792,289.214,292.581,295.349,298.118" svgx:width="0.5,0.44,0.5,0.44,0.33,0.28,0.28,0.39" style="fill:rgb(0,0,0);font-family:TimesNewRomanPSMT;font-size:9.96px;stroke:none;">benefits</text>
  </g>
  <g begin="text">
   <text y="157.1" x="301.97" svgx:width="0.25" style="fill:rgb(0,0,0);font-family:TimesNewRomanPSMT;font-size:9.96px;stroke:none;"> </text>
  </g>
  <g begin="text">
   <text y="81.86" x="387.17,392.708,397.718,402.747,405.516,408.285,412.708,415.217,420.247,425.277,428.046,433.066,435.835,440.745" svgx:width="0.56,0.5,0.5,0.28,0.28,0.44,0.25,0.5,0.5,0.28,0.5,0.28,0.5,0.5" style="fill:rgb(0,0,0);font-family:TimesNewRomanPSMT;font-size:9.96px;stroke:none;">Public opinion</text>
  </g>
  <g begin="text">
   <text y="81.86" x="445.75" svgx:width="0.25" style="fill:rgb(0,0,0);font-family:TimesNewRomanPSMT;font-size:9.96px;stroke:none;"> </text>
  </g>
  <g begin="text">
   <text y="100.58" x="387.17,392.708,397.718,400.487,403.255,407.678" svgx:width="0.56,0.5,0.28,0.28,0.44,0.5" style="fill:rgb(0,0,0);font-family:TimesNewRomanPSMT;font-size:9.96px;stroke:none;">Policy</text>
  </g>
  <g begin="text">
   <text y="100.58" x="412.75" svgx:width="0.33" style="fill:rgb(0,0,0);font-family:TimesNewRomanPSMT;font-size:9.96px;stroke:none;">-</text>
  </g>
  <g begin="text">
   <text y="100.58" x="416.11,423.899,428.321,433.371,437.793,441.159,443.56,448.59,453.619,456.388,461.408,464.177,469.087" svgx:width="0.78,0.44,0.5,0.44,0.33,0.25,0.5,0.5,0.28,0.5,0.28,0.5,0.5" style="fill:rgb(0,0,0);font-family:TimesNewRomanPSMT;font-size:9.96px;stroke:none;">maker opinion</text>
  </g>
  <g begin="text">
   <text y="100.58" x="474.07" svgx:width="0.25" style="fill:rgb(0,0,0);font-family:TimesNewRomanPSMT;font-size:9.96px;stroke:none;"> </text>
  </g>
  <g begin="text">
   <text y="119.18" x="387.17,393.275,398.305,402.728,407.18,412.21,414.978,417.747,422.757,427.179,429.669,437.388,442.418,447.448,450.087,455.117,457.886,462.906,467.936,470.426,478.125,483.045,487.965" svgx:width="0.61,0.5,0.44,0.44,0.5,0.28,0.28,0.5,0.44,0.25,0.55,0.5,0.5,0.28,0.5,0.28,0.5,0.5,0.25,0.55,0.5,0.5,0.25" style="fill:rgb(0,0,0);font-family:TimesNewRomanPSMT;font-size:9.96px;stroke:none;">Executive opinion on </text>
  </g>
  <g begin="text">
   <text y="131.78" x="387.17,390.517,394.939,399.989,405.018,407.787,412.21,414.978,417.747,422.767" svgx:width="0.33,0.44,0.5,0.5,0.28,0.44,0.28,0.28,0.5,0.5" style="fill:rgb(0,0,0);font-family:TimesNewRomanPSMT;font-size:9.96px;stroke:none;">regulation</text>
  </g>
  <g begin="text">
   <text y="131.78" x="427.75" svgx:width="0.25" style="fill:rgb(0,0,0);font-family:TimesNewRomanPSMT;font-size:9.96px;stroke:none;"> </text>
  </g>
  <g begin="text">
   <text y="150.5" x="387.17,393.275,398.305,403.335,406.104,409.441,414.361,419.391,427.179,431.602,436.651,439.42,443.842,446.611,449.101,450.317,454.161,456.93,461.352,466.392,471.422,475.844,479.21,484.24,487.955" svgx:width="0.61,0.5,0.5,0.28,0.33,0.5,0.5,0.78,0.44,0.5,0.28,0.44,0.28,0.25,0.55,0.39,0.28,0.44,0.5,0.5,0.44,0.33,0.5,0.39,0.25" style="fill:rgb(0,0,0);font-family:TimesNewRomanPSMT;font-size:9.96px;stroke:none;">Environmental standards </text>
  </g>
  <g begin="text">
   <text y="163.1" x="387.17,391.592,396.642,401.672,404.182,408.604,413.056,416.403,419.172,421.94,425.257,428.026,432.468,436.89,439.659,442.428,447.458" svgx:width="0.44,0.5,0.5,0.25,0.44,0.44,0.33,0.28,0.28,0.33,0.28,0.44,0.44,0.28,0.28,0.5,0.5" style="fill:rgb(0,0,0);font-family:TimesNewRomanPSMT;font-size:9.96px;stroke:none;">and certification</text>
  </g>
  <g begin="text">
   <text y="163.1" x="452.47" svgx:width="0.25" style="fill:rgb(0,0,0);font-family:TimesNewRomanPSMT;font-size:9.96px;stroke:none;"> </text>
  </g>
  <g begin="text">
   <text y="94.58" x="498.91,506.101,511.141,516.171,520.593,523.959,528.989,536.778,541.101,546.13,548.899" svgx:width="0.72,0.5,0.5,0.44,0.33,0.5,0.78,0.44,0.5,0.28,0.39" style="fill:rgb(0,0,0);font-family:TimesNewRomanPSMT;font-size:9.96px;stroke:none;">Governments</text>
  </g>
  <g begin="text">
   <text y="94.58" x="552.82" svgx:width="0.25" style="fill:rgb(0,0,0);font-family:TimesNewRomanPSMT;font-size:9.96px;stroke:none;"> </text>
  </g>
  <g begin="text">
   <text y="113.18" x="498.91,504.448,507.217,511.639,516.659,521.081,526.131,531.161,533.929,538.949,543.371,546.738" svgx:width="0.56,0.28,0.44,0.5,0.44,0.5,0.5,0.28,0.5,0.44,0.33,0.39" style="fill:rgb(0,0,0);font-family:TimesNewRomanPSMT;font-size:9.96px;stroke:none;">Stakeholders</text>
  </g>
  <g begin="text">
   <text y="113.18" x="550.54" svgx:width="0.25" style="fill:rgb(0,0,0);font-family:TimesNewRomanPSMT;font-size:9.96px;stroke:none;"> </text>
  </g>
  <g begin="text">
   <text y="131.78" x="498.91,505.51" svgx:width="0.67,0.28" style="fill:rgb(0,0,0);font-family:TimesNewRomanPSMT;font-size:9.96px;stroke:none;">Ci</text>
  </g>
  <g begin="text">
   <text y="131.78" x="508.27,511.039,513.808,518.23,522.652,527.702" svgx:width="0.28,0.28,0.44,0.44,0.5,0.39" style="fill:rgb(0,0,0);font-family:TimesNewRomanPSMT;font-size:9.96px;stroke:none;">tizens</text>
  </g>
  <g begin="text">
   <text y="131.78" x="531.67" svgx:width="0.25" style="fill:rgb(0,0,0);font-family:TimesNewRomanPSMT;font-size:9.96px;stroke:none;"> </text>
  </g>
  <g begin="text">
   <text y="150.5" x="498.91,504.448,509.458,512.227,514.995,519.418,524.447,527.216,532.236,535.583,540.612,545.642,548.411,552.833" svgx:width="0.56,0.5,0.28,0.28,0.44,0.5,0.28,0.5,0.33,0.5,0.5,0.28,0.44,0.39" style="fill:rgb(0,0,0);font-family:TimesNewRomanPSMT;font-size:9.96px;stroke:none;">Philanthropies</text>
  </g>
  <g begin="text">
   <text y="150.5" x="556.66" svgx:width="0.25" style="fill:rgb(0,0,0);font-family:TimesNewRomanPSMT;font-size:9.96px;stroke:none;"> </text>
  </g>
  <g begin="text">
   <text y="88.22" x="581.38,587.984,592.406,597.455,602.485,605.254,609.676,612.445,617.475,620.822,625.851,628.361,633.281,638.311,642.733,645.502,648.271,651.04" svgx:width="0.67,0.44,0.5,0.5,0.28,0.44,0.28,0.5,0.33,0.5,0.25,0.5,0.5,0.44,0.28,0.28,0.28,0.5" style="fill:rgb(0,0,0);font-family:TimesNewRomanPSMT;font-size:9.96px;stroke:none;">Regulatory quality</text>
  </g>
  <g begin="text">
   <text y="88.22" x="656.14" svgx:width="0.25" style="fill:rgb(0,0,0);font-family:TimesNewRomanPSMT;font-size:9.96px;stroke:none;"> </text>
  </g>
  <g begin="text">
   <text y="106.82" x="581.38,587.984,592.406,597.455,602.485,605.254,609.676,612.445,617.475,620.822,625.851" svgx:width="0.67,0.44,0.5,0.5,0.28,0.44,0.28,0.5,0.33,0.5,0.25" style="fill:rgb(0,0,0);font-family:TimesNewRomanPSMT;font-size:9.96px;stroke:none;">Regulatory </text>
  </g>
  <g begin="text">
   <text y="119.54" x="581.38,584.149,589.169,593.013,595.782,599.119,604.148,611.937,616.359,621.409,624.178" svgx:width="0.28,0.5,0.39,0.28,0.33,0.5,0.78,0.44,0.5,0.28,0.39" style="fill:rgb(0,0,0);font-family:TimesNewRomanPSMT;font-size:9.96px;stroke:none;">instruments</text>
  </g>
  <g begin="text">
   <text y="119.54" x="628.06" svgx:width="0.25" style="fill:rgb(0,0,0);font-family:TimesNewRomanPSMT;font-size:9.96px;stroke:none;"> </text>
  </g>
  <g begin="text">
   <text y="138.14" x="581.38,586.918,591.928,594.697,597.465,600.234,602.963,607.385,611.838,614.606,616.638,621.061,626.11,631.14,634.985,637.753,641.588,644.357,648.779,653.819,658.241" svgx:width="0.56,0.5,0.28,0.28,0.28,0.28,0.44,0.44,0.28,0.25,0.44,0.5,0.5,0.39,0.28,0.39,0.28,0.44,0.5,0.44,0.5" style="fill:rgb(0,0,0);font-family:TimesNewRomanPSMT;font-size:9.96px;stroke:none;">Political consistency</text>
  </g>
  <g begin="text">
   <text y="138.14" x="663.34" svgx:width="0.25" style="fill:rgb(0,0,0);font-family:TimesNewRomanPSMT;font-size:9.96px;stroke:none;"> </text>
  </g>
  <g begin="text">
   <text y="156.86" x="581.38" svgx:width="0.25" style="fill:rgb(0,0,0);font-family:TimesNewRomanPSMT;font-size:9.96px;stroke:none;"> </text>
  </g>
  <g begin="text">
   <text y="156.86" x="583.9" svgx:width="0.25" style="fill:rgb(0,0,0);font-family:TimesNewRomanPSMT;font-size:9.96px;stroke:none;"> </text>
  </g>
  <g begin="text">
   <text y="106.82" x="674.14,679.678,684.1,687.447,690.215,692.984,697.407,700.175,705.195,709.617,712.386,717.426,720.773,725.802" svgx:width="0.56,0.44,0.33,0.28,0.28,0.44,0.28,0.5,0.44,0.28,0.5,0.33,0.5,0.25" style="fill:rgb(0,0,0);font-family:TimesNewRomanPSMT;font-size:9.96px;stroke:none;">Participatory </text>
  </g>
  <g begin="text">
   <text y="119.54" x="674.14,679.17,682.516,687.546,691.968,696.421,700.265,704.11,708.532" svgx:width="0.5,0.33,0.5,0.44,0.44,0.39,0.39,0.44,0.39" style="fill:rgb(0,0,0);font-family:TimesNewRomanPSMT;font-size:9.96px;stroke:none;">processes</text>
  </g>
  <g begin="text">
   <text y="119.54" x="712.44" svgx:width="0.25" style="fill:rgb(0,0,0);font-family:TimesNewRomanPSMT;font-size:9.96px;stroke:none;"> </text>
  </g>
  <g begin="text">
   <text y="138.14" x="674.14" svgx:width="0.25" style="fill:rgb(0,0,0);font-family:TimesNewRomanPSMT;font-size:9.96px;stroke:none;"> </text>
  </g>
  <g begin="text">
   <text y="138.14" x="676.66" svgx:width="0.25" style="fill:rgb(0,0,0);font-family:TimesNewRomanPSMT;font-size:9.96px;stroke:none;"> </text>
  </g>
  <path style="fill:rgb(0,0,0);stroke:none;stroke-width:1.0;" d="M72.480 422.830 L162.020 422.830 L162.020 522.810 L72.480 522.810 L72.480 422.830 M72.480 422.830 L162.020 422.830 L162.020 522.810 L72.480 522.810 L72.480 422.830 M493.750 422.830 L575.730 422.830 L575.730 522.810 L493.750 522.810 L493.750 422.830 M493.750 422.830 L575.730 422.830 L575.730 522.810 L493.750 522.810 L493.750 422.830 M493.750 422.830 L575.730 422.830 L575.730 522.810 L493.750 522.810 L493.750 422.830 M493.750 422.830 L575.730 422.830 L575.730 522.810 L493.750 522.810 L493.750 422.830 M493.750 422.830 L575.730 422.830 L575.730 522.810 L493.750 522.810 L493.750 422.830 M493.750 422.830 L575.730 422.830 L575.730 522.810 L493.750 522.810 L493.750 422.830 M493.750 422.830 L575.730 422.830 L575.730 522.810 L493.750 522.810 L493.750 422.830 M493.750 422.830 L575.730 422.830 L575.730 522.810 L493.750 522.810 L493.750 422.830 M493.750 422.830 L575.730 422.830 L575.730 522.810 L493.750 522.810 L493.750 422.830 M493.750 422.830 L575.730 422.830 L575.730 522.810 L493.750 522.810 L493.750 422.830 M576.220 422.830 L668.500 422.830 L668.500 522.810 L576.220 522.810 L576.220 422.830 M576.220 422.830 L668.500 422.830 L668.500 522.810 L576.220 522.810 L576.220 422.830 M576.220 422.830 L668.500 422.830 L668.500 522.810 L576.220 522.810 L576.220 422.830 M576.220 422.830 L668.500 422.830 L668.500 522.810 L576.220 522.810 L576.220 422.830 M576.220 422.830 L668.500 422.830 L668.500 522.810 L576.220 522.810 L576.220 422.830 M576.220 422.830 L668.500 422.830 L668.500 522.810 L576.220 522.810 L576.220 422.830 M576.220 422.830 L668.500 422.830 L668.500 522.810 L576.220 522.810 L576.220 422.830 M576.220 422.830 L668.500 422.830 L668.500 522.810 L576.220 522.810 L576.220 422.830 M576.220 422.830 L668.500 422.830 L668.500 522.810 L576.220 522.810 L576.220 422.830 M576.220 422.830 L668.500 422.830 L668.500 522.810 L576.220 522.810 L576.220 422.830 M668.980 422.830 L750.120 422.830 L750.120 522.810 L668.980 522.810 L668.980 422.830 M668.980 422.830 L750.120 422.830 L750.120 522.810 L668.980 522.810 L668.980 422.830 M668.980 422.830 L750.120 422.830 L750.120 522.810 L668.980 522.810 L668.980 422.830 M668.980 422.830 L750.120 422.830 L750.120 522.810 L668.980 522.810 L668.980 422.830 M668.980 422.830 L750.120 422.830 L750.120 522.810 L668.980 522.810 L668.980 422.830 M668.980 422.830 L750.120 422.830 L750.120 522.810 L668.980 522.810 L668.980 422.830 M72.000 522.820 L72.480 522.820 L72.480 523.300 L72.000 523.300 L72.000 522.820 "/>
  <path style="fill:rgb(0,0,0);stroke:none;stroke-width:1.0;" d="M72.000 522.820 L72.480 522.820 L72.480 523.300 L72.000 523.300 L72.000 522.820 "/>
  <path style="fill:rgb(0,0,0);stroke:none;stroke-width:1.0;" d="M72.480 522.820 L162.020 522.820 L162.020 523.300 L72.480 523.300 L72.480 522.820 "/>
  <path style="fill:rgb(0,0,0);stroke:none;stroke-width:1.0;" d="M162.020 522.820 L162.500 522.820 L162.500 523.300 L162.020 523.300 L162.020 522.820 "/>
  <path style="fill:rgb(0,0,0);stroke:none;stroke-width:1.0;" d="M264.650 522.820 L265.130 522.820 L265.130 523.300 L264.650 523.300 L264.650 522.820 "/>
  <path style="fill:rgb(0,0,0);stroke:none;stroke-width:1.0;" d="M381.530 522.820 L382.010 522.820 L382.010 523.300 L381.530 523.300 L381.530 522.820 "/>
  <path style="fill:rgb(0,0,0);stroke:none;stroke-width:1.0;" d="M493.270 522.820 L493.750 522.820 L493.750 523.300 L493.270 523.300 L493.270 522.820 "/>
  <path style="fill:rgb(0,0,0);stroke:none;stroke-width:1.0;" d="M493.750 522.820 L575.730 522.820 L575.730 523.300 L493.750 523.300 L493.750 522.820 "/>
  <path style="fill:rgb(0,0,0);stroke:none;stroke-width:1.0;" d="M575.740 522.820 L576.220 522.820 L576.220 523.300 L575.740 523.300 L575.740 522.820 "/>
  <path style="fill:rgb(0,0,0);stroke:none;stroke-width:1.0;" d="M576.220 522.820 L668.500 522.820 L668.500 523.300 L576.220 523.300 L576.220 522.820 "/>
  <path style="fill:rgb(0,0,0);stroke:none;stroke-width:1.0;" d="M668.500 522.820 L668.980 522.820 L668.980 523.300 L668.500 523.300 L668.500 522.820 "/>
  <path style="fill:rgb(0,0,0);stroke:none;stroke-width:1.0;" d="M668.980 522.820 L750.120 522.820 L750.120 523.300 L668.980 523.300 L668.980 522.820 "/>
  <path style="fill:rgb(0,0,0);stroke:none;stroke-width:1.0;" d="M750.120 522.820 L750.600 522.820 L750.600 523.300 L750.120 523.300 L750.120 522.820 "/>
  <path style="fill:rgb(0,0,0);stroke:none;stroke-width:1.0;" d="M750.120 522.820 L750.600 522.820 L750.600 523.300 L750.120 523.300 L750.120 522.820 "/>
  <path style="fill:rgb(0,0,0);stroke:none;stroke-width:1.0;" d="M72.000 422.830 L72.480 422.830 L72.480 522.810 L72.000 522.810 L72.000 422.830 "/>
  <path style="fill:rgb(0,0,0);stroke:none;stroke-width:1.0;" d="M72.000 422.350 L72.480 422.350 L72.480 422.830 L72.000 422.830 L72.000 422.350 "/>
  <path style="fill:rgb(0,0,0);stroke:none;stroke-width:1.0;" d="M72.000 422.350 L72.480 422.350 L72.480 422.830 L72.000 422.830 L72.000 422.350 "/>
  <path style="fill:rgb(0,0,0);stroke:none;stroke-width:1.0;" d="M72.480 422.350 L162.020 422.350 L162.020 422.830 L72.480 422.830 L72.480 422.350 "/>
  <path style="fill:rgb(0,0,0);stroke:none;stroke-width:1.0;" d="M162.020 422.830 L162.500 422.830 L162.500 522.810 L162.020 522.810 L162.020 422.830 "/>
  <path style="fill:rgb(0,0,0);stroke:none;stroke-width:1.0;" d="M162.020 422.350 L162.500 422.350 L162.500 422.830 L162.020 422.830 L162.020 422.350 "/>
  <path style="fill:rgb(0,0,0);stroke:none;stroke-width:1.0;" d="M264.650 422.830 L265.130 422.830 L265.130 522.810 L264.650 522.810 L264.650 422.830 "/>
  <path style="fill:rgb(0,0,0);stroke:none;stroke-width:1.0;" d="M264.650 422.350 L265.130 422.350 L265.130 422.830 L264.650 422.830 L264.650 422.350 "/>
  <path style="fill:rgb(0,0,0);stroke:none;stroke-width:1.0;" d="M381.530 422.830 L382.010 422.830 L382.010 522.810 L381.530 522.810 L381.530 422.830 "/>
  <path style="fill:rgb(0,0,0);stroke:none;stroke-width:1.0;" d="M381.530 422.350 L382.010 422.350 L382.010 422.830 L381.530 422.830 L381.530 422.350 "/>
  <path style="fill:rgb(0,0,0);stroke:none;stroke-width:1.0;" d="M493.270 422.830 L493.750 422.830 L493.750 522.810 L493.270 522.810 L493.270 422.830 "/>
  <path style="fill:rgb(0,0,0);stroke:none;stroke-width:1.0;" d="M493.270 422.350 L493.750 422.350 L493.750 422.830 L493.270 422.830 L493.270 422.350 "/>
  <path style="fill:rgb(0,0,0);stroke:none;stroke-width:1.0;" d="M493.750 422.350 L575.730 422.350 L575.730 422.830 L493.750 422.830 L493.750 422.350 "/>
  <path style="fill:rgb(0,0,0);stroke:none;stroke-width:1.0;" d="M575.740 422.830 L576.220 422.830 L576.220 522.810 L575.740 522.810 L575.740 422.830 "/>
  <path style="fill:rgb(0,0,0);stroke:none;stroke-width:1.0;" d="M575.740 422.350 L576.220 422.350 L576.220 422.830 L575.740 422.830 L575.740 422.350 "/>
  <path style="fill:rgb(0,0,0);stroke:none;stroke-width:1.0;" d="M576.220 422.350 L668.500 422.350 L668.500 422.830 L576.220 422.830 L576.220 422.350 "/>
  <path style="fill:rgb(0,0,0);stroke:none;stroke-width:1.0;" d="M668.500 422.830 L668.980 422.830 L668.980 522.810 L668.500 522.810 L668.500 422.830 "/>
  <path style="fill:rgb(0,0,0);stroke:none;stroke-width:1.0;" d="M668.500 422.350 L668.980 422.350 L668.980 422.830 L668.500 422.830 L668.500 422.350 "/>
  <path style="fill:rgb(0,0,0);stroke:none;stroke-width:1.0;" d="M668.980 422.350 L750.120 422.350 L750.120 422.830 L668.980 422.830 L668.980 422.350 "/>
  <path style="fill:rgb(0,0,0);stroke:none;stroke-width:1.0;" d="M750.120 422.830 L750.600 422.830 L750.600 522.810 L750.120 522.810 L750.120 422.830 "/>
  <path style="fill:rgb(0,0,0);stroke:none;stroke-width:1.0;" d="M750.120 422.350 L750.600 422.350 L750.600 422.830 L750.120 422.830 L750.120 422.350 "/>
  <path style="fill:rgb(0,0,0);stroke:none;stroke-width:1.0;" d="M750.120 422.350 L750.600 422.350 L750.600 422.830 L750.120 422.830 L750.120 422.350 "/>
  <g begin="text">
   <text y="183.29" x="72.0" svgx:width="0.25" style="fill:rgb(0,0,0);font-family:TimesNewRomanPSMT;font-size:11.04px;stroke:none;"> </text>
  </g>
  <g begin="text">
   <text y="183.29" x="48.48" svgx:width="0.5" style="fill:rgb(0,0,0);font-family:TimesNewRomanPSMT;font-size:11.04px;stroke:none;">1</text>
  </g>
  <g begin="text">
   <text y="183.29" x="54.0" svgx:width="0.25" style="fill:rgb(0,0,0);font-family:TimesNewRomanPSMT;font-size:11.04px;stroke:none;"> </text>
  </g>
  <g begin="text">
   <text y="478.906" transform="matrix(0.70711,-0.70711,0.70711,0.70711,-271.92861,301.31825)" rotateDegrees="-45" matrix="[29.819458,29.819458,-29.819458,29.819458,227.75916,116.41376]" x="227.759" svgx:width="0.67" style="fill:rgb(0,0,0);font-family:Arial;font-size:42.17px;stroke:none;">A</text>
   <text y="459.017" transform="matrix(0.70711,-0.70711,0.70711,0.70711,-252.03932,309.55725)" rotateDegrees="-45" matrix="[29.819458,29.819458,-29.819458,29.819458,247.64874,136.30333]" x="247.649" svgx:width="0.72" style="fill:rgb(0,0,0);font-family:Arial;font-size:42.17px;stroke:none;">C</text>
   <text y="437.487" transform="matrix(0.70711,-0.70711,0.70711,0.70711,-230.50961,318.47456)" rotateDegrees="-45" matrix="[29.819458,29.819458,-29.819458,29.819458,269.17838,157.83298]" x="269.178" svgx:width="0.72" style="fill:rgb(0,0,0);font-family:Arial;font-size:42.17px;stroke:none;">C</text>
   <text y="415.957" transform="matrix(0.70711,-0.70711,0.70711,0.70711,-208.97961,327.39258)" rotateDegrees="-45" matrix="[29.819458,29.819458,-29.819458,29.819458,290.70804,179.36263]" x="290.708" svgx:width="0.67" style="fill:rgb(0,0,0);font-family:Arial;font-size:42.17px;stroke:none;">E</text>
   <text y="396.068" transform="matrix(0.70711,-0.70711,0.70711,0.70711,-189.09032,335.63158)" rotateDegrees="-45" matrix="[29.819458,29.819458,-29.819458,29.819458,310.5976,199.2522]" x="310.598" svgx:width="0.67" style="fill:rgb(0,0,0);font-family:Arial;font-size:42.17px;stroke:none;">P</text>
   <text y="376.178" transform="matrix(0.70711,-0.70711,0.70711,0.70711,-169.20061,343.86958)" rotateDegrees="-45" matrix="[29.819458,29.819458,-29.819458,29.819458,330.48718,219.14178]" x="330.487" svgx:width="0.61" style="fill:rgb(0,0,0);font-family:Arial;font-size:42.17px;stroke:none;">T</text>
   <text y="357.959" transform="matrix(0.70711,-0.70711,0.70711,0.70711,-150.98132,351.41685)" rotateDegrees="-45" matrix="[29.819458,29.819458,-29.819458,29.819458,348.70688,237.36148]" x="348.707" svgx:width="0.67" style="fill:rgb(0,0,0);font-family:Arial;font-size:42.17px;stroke:none;">E</text>
   <text y="338.069" transform="matrix(0.70711,-0.70711,0.70711,0.70711,-131.09161,359.65485)" rotateDegrees="-45" matrix="[29.819458,29.819458,-29.819458,29.819458,368.59644,257.25104]" x="368.596" svgx:width="0.72" style="fill:rgb(0,0,0);font-family:Arial;font-size:42.17px;stroke:none;">D</text>
   <text y="316.539" transform="matrix(0.70711,-0.70711,0.70711,0.70711,-109.56161,368.57287)" rotateDegrees="-45" matrix="[29.819458,29.819458,-29.819458,29.819458,390.1261,278.7807]" x="390.126" svgx:width="0.28" style="fill:rgb(0,0,0);font-family:Arial;font-size:42.17px;stroke:none;"> </text>
   <text y="308.246" transform="matrix(0.70711,-0.70711,0.70711,0.70711,-101.26832,372.00865)" rotateDegrees="-45" matrix="[29.819458,29.819458,-29.819458,29.819458,398.41962,287.07422]" x="398.42" svgx:width="0.67" style="fill:rgb(0,0,0);font-family:Arial;font-size:42.17px;stroke:none;">V</text>
   <text y="288.356" transform="matrix(0.70711,-0.70711,0.70711,0.70711,-81.37861,380.24665)" rotateDegrees="-45" matrix="[29.819458,29.819458,-29.819458,29.819458,418.3092,306.9638]" x="418.309" svgx:width="0.67" style="fill:rgb(0,0,0);font-family:Arial;font-size:42.17px;stroke:none;">E</text>
   <text y="268.467" transform="matrix(0.70711,-0.70711,0.70711,0.70711,-61.48932,388.48565)" rotateDegrees="-45" matrix="[29.819458,29.819458,-29.819458,29.819458,438.1988,326.8534]" x="438.199" svgx:width="0.72" style="fill:rgb(0,0,0);font-family:Arial;font-size:42.17px;stroke:none;">R</text>
   <text y="246.937" transform="matrix(0.70711,-0.70711,0.70711,0.70711,-39.95961,397.40296)" rotateDegrees="-45" matrix="[29.819458,29.819458,-29.819458,29.819458,459.72845,348.38306]" x="459.728" svgx:width="0.67" style="fill:rgb(0,0,0);font-family:Arial;font-size:42.17px;stroke:none;">S</text>
   <text y="227.047" transform="matrix(0.70711,-0.70711,0.70711,0.70711,-20.06961,405.64167)" rotateDegrees="-45" matrix="[29.819458,29.819458,-29.819458,29.819458,479.618,368.2726]" x="479.618" svgx:width="0.28" style="fill:rgb(0,0,0);font-family:Arial;font-size:42.17px;stroke:none;">I</text>
   <text y="218.758" transform="matrix(0.70711,-0.70711,0.70711,0.70711,-11.78032,409.07579)" rotateDegrees="-45" matrix="[29.819458,29.819458,-29.819458,29.819458,487.9078,376.5624]" x="487.908" svgx:width="0.78" style="fill:rgb(0,0,0);font-family:Arial;font-size:42.17px;stroke:none;">O</text>
   <text y="195.558" transform="matrix(0.70711,-0.70711,0.70711,0.70711,11.41939,418.68484)" rotateDegrees="-45" matrix="[29.819458,29.819458,-29.819458,29.819458,511.10736,399.76196]" x="511.107" svgx:width="0.72" style="fill:rgb(0,0,0);font-family:Arial;font-size:42.17px;stroke:none;">N</text>
   <text y="174.028" transform="matrix(0.70711,-0.70711,0.70711,0.70711,32.94939,427.60286)" rotateDegrees="-45" matrix="[29.819458,29.819458,-29.819458,29.819458,532.63696,421.2916]" x="532.637" svgx:width="0.28" style="fill:rgb(0,0,0);font-family:Arial;font-size:42.17px;stroke:none;"> </text>
   <text y="514.69" transform="matrix(0.70711,-0.70711,0.70711,0.70711,-286.75083,337.10225)" rotateDegrees="-45" matrix="[29.819458,29.819458,-29.819458,29.819458,263.5425,80.6304]" x="263.543" svgx:width="0.67" style="fill:rgb(0,0,0);font-family:Arial;font-size:42.17px;stroke:none;">S</text>
   <text y="494.8" transform="matrix(0.70711,-0.70711,0.70711,0.70711,-266.86112,345.34025)" rotateDegrees="-45" matrix="[29.819458,29.819458,-29.819458,29.819458,283.43207,100.51998]" x="283.432" svgx:width="0.72" style="fill:rgb(0,0,0);font-family:Arial;font-size:42.17px;stroke:none;">U</text>
   <text y="473.27" transform="matrix(0.70711,-0.70711,0.70711,0.70711,-245.33112,354.25827)" rotateDegrees="-45" matrix="[29.819458,29.819458,-29.819458,29.819458,304.96173,122.04963]" x="304.962" svgx:width="0.67" style="fill:rgb(0,0,0);font-family:Arial;font-size:42.17px;stroke:none;">B</text>
   <text y="453.381" transform="matrix(0.70711,-0.70711,0.70711,0.70711,-225.44212,362.49657)" rotateDegrees="-45" matrix="[29.819458,29.819458,-29.819458,29.819458,324.85132,141.93921]" x="324.851" svgx:width="0.5" style="fill:rgb(0,0,0);font-family:Arial;font-size:42.17px;stroke:none;">J</text>
   <text y="438.471" transform="matrix(0.70711,-0.70711,0.70711,0.70711,-210.53212,368.67249)" rotateDegrees="-45" matrix="[29.819458,29.819458,-29.819458,29.819458,339.76105,156.84894]" x="339.761" svgx:width="0.67" style="fill:rgb(0,0,0);font-family:Arial;font-size:42.17px;stroke:none;">E</text>
   <text y="418.581" transform="matrix(0.70711,-0.70711,0.70711,0.70711,-190.64212,376.9112)" rotateDegrees="-45" matrix="[29.819458,29.819458,-29.819458,29.819458,359.65063,176.73851]" x="359.651" svgx:width="0.72" style="fill:rgb(0,0,0);font-family:Arial;font-size:42.17px;stroke:none;">C</text>
   <text y="397.052" transform="matrix(0.70711,-0.70711,0.70711,0.70711,-169.11312,385.8288)" rotateDegrees="-45" matrix="[29.819458,29.819458,-29.819458,29.819458,381.18027,198.26816]" x="381.18" svgx:width="0.61" style="fill:rgb(0,0,0);font-family:Arial;font-size:42.17px;stroke:none;">T</text>
   <text y="378.832" transform="matrix(0.70711,-0.70711,0.70711,0.70711,-150.89312,393.37577)" rotateDegrees="-45" matrix="[29.819458,29.819458,-29.819458,29.819458,399.39996,216.48784]" x="399.4" svgx:width="0.28" style="fill:rgb(0,0,0);font-family:Arial;font-size:42.17px;stroke:none;"> </text>
   <text y="370.542" transform="matrix(0.70711,-0.70711,0.70711,0.70711,-142.60312,396.8096)" rotateDegrees="-45" matrix="[29.819458,29.819458,-29.819458,29.819458,407.68976,224.77766]" x="407.69" svgx:width="0.61" style="fill:rgb(0,0,0);font-family:Arial;font-size:42.17px;stroke:none;">T</text>
   <text y="352.323" transform="matrix(0.70711,-0.70711,0.70711,0.70711,-124.38412,404.35616)" rotateDegrees="-45" matrix="[29.819458,29.819458,-29.819458,29.819458,425.90945,242.99734]" x="425.909" svgx:width="0.78" style="fill:rgb(0,0,0);font-family:Arial;font-size:42.17px;stroke:none;">O</text>
   <text y="329.123" transform="matrix(0.70711,-0.70711,0.70711,0.70711,-101.18412,413.96591)" rotateDegrees="-45" matrix="[29.819458,29.819458,-29.819458,29.819458,449.10898,266.19687]" x="449.109" svgx:width="0.28" style="fill:rgb(0,0,0);font-family:Arial;font-size:42.17px;stroke:none;"> </text>
   <text y="320.848" transform="matrix(0.70711,-0.70711,0.70711,0.70711,-92.90912,417.39353)" rotateDegrees="-45" matrix="[29.819458,29.819458,-29.819458,29.819458,457.3839,274.4718]" x="457.384" svgx:width="0.61" style="fill:rgb(0,0,0);font-family:Arial;font-size:42.17px;stroke:none;">F</text>
   <text y="302.629" transform="matrix(0.70711,-0.70711,0.70711,0.70711,-74.68983,424.9408)" rotateDegrees="-45" matrix="[29.819458,29.819458,-29.819458,29.819458,475.60358,292.69147]" x="475.604" svgx:width="0.28" style="fill:rgb(0,0,0);font-family:Arial;font-size:42.17px;stroke:none;">I</text>
   <text y="294.339" transform="matrix(0.70711,-0.70711,0.70711,0.70711,-66.40012,428.37392)" rotateDegrees="-45" matrix="[29.819458,29.819458,-29.819458,29.819458,483.89337,300.98126]" x="483.893" svgx:width="0.72" style="fill:rgb(0,0,0);font-family:Arial;font-size:42.17px;stroke:none;">N</text>
   <text y="272.809" transform="matrix(0.70711,-0.70711,0.70711,0.70711,-44.87012,437.29194)" rotateDegrees="-45" matrix="[29.819458,29.819458,-29.819458,29.819458,505.42303,322.51093]" x="505.423" svgx:width="0.67" style="fill:rgb(0,0,0);font-family:Arial;font-size:42.17px;stroke:none;">A</text>
   <text y="252.919" transform="matrix(0.70711,-0.70711,0.70711,0.70711,-24.98012,445.53064)" rotateDegrees="-45" matrix="[29.819458,29.819458,-29.819458,29.819458,525.3126,342.4005]" x="525.313" svgx:width="0.56" style="fill:rgb(0,0,0);font-family:Arial;font-size:42.17px;stroke:none;">L</text>
   <text y="236.34" transform="matrix(0.70711,-0.70711,0.70711,0.70711,-8.40112,452.39789)" rotateDegrees="-45" matrix="[29.819458,29.819458,-29.819458,29.819458,541.8922,358.9801]" x="541.892" svgx:width="0.28" style="fill:rgb(0,0,0);font-family:Arial;font-size:42.17px;stroke:none;"> </text>
   <text y="228.056" transform="matrix(0.70711,-0.70711,0.70711,0.70711,-0.11712,455.82924)" rotateDegrees="-45" matrix="[29.819458,29.819458,-29.819458,29.819458,550.17584,367.26373]" x="550.176" svgx:width="0.67" style="fill:rgb(0,0,0);font-family:Arial;font-size:42.17px;stroke:none;">E</text>
   <text y="208.167" transform="matrix(0.70711,-0.70711,0.70711,0.70711,19.77188,464.06753)" rotateDegrees="-45" matrix="[29.819458,29.819458,-29.819458,29.819458,570.0654,387.1533]" x="570.065" svgx:width="0.72" style="fill:rgb(0,0,0);font-family:Arial;font-size:42.17px;stroke:none;">D</text>
   <text y="186.637" transform="matrix(0.70711,-0.70711,0.70711,0.70711,41.30188,472.98555)" rotateDegrees="-45" matrix="[29.819458,29.819458,-29.819458,29.819458,591.59503,408.68292]" x="591.595" svgx:width="0.28" style="fill:rgb(0,0,0);font-family:Arial;font-size:42.17px;stroke:none;">I</text>
   <text y="178.347" transform="matrix(0.70711,-0.70711,0.70711,0.70711,49.59188,476.41938)" rotateDegrees="-45" matrix="[29.819458,29.819458,-29.819458,29.819458,599.8848,416.97272]" x="599.885" svgx:width="0.61" style="fill:rgb(0,0,0);font-family:Arial;font-size:42.17px;stroke:none;">T</text>
   <text y="160.128" transform="matrix(0.70711,-0.70711,0.70711,0.70711,67.81088,483.96594)" rotateDegrees="-45" matrix="[29.819458,29.819458,-29.819458,29.819458,618.1045,435.1924]" x="618.104" svgx:width="0.67" style="fill:rgb(0,0,0);font-family:Arial;font-size:42.17px;stroke:none;">S</text>
  </g>
 </g>
</svg>
