<?xml version="1.0" encoding="UTF-8"?>
<svg height="813.04" width="536.2" xmlns="http://www.w3.org/2000/svg">
 <g id="page" xmlns:svgx="http://www.xml-cml.org/schema/svgx">
  <g begin="text">
   <text y="45.72" x="72.024,78.162,81.231,86.751,91.587,94.7,97.46,105.376,110.896,116.416,121.218,124.928,130.448,138.971,143.872,149.392,152.517,155.277,163.082,166.791,171.594,175.303" svgx:width="0.56,0.28,0.5,0.44,0.28,0.25,0.72,0.5,0.5,0.44,0.33,0.5,0.78,0.44,0.5,0.28,0.25,0.72,0.33,0.44,0.33,0.28" style="fill:rgb(0,0,0);font-family:TimesNewRomanPSMT;font-size:11.04px;stroke:none;">Final Government Draft</text>
  </g>
  <g begin="text">
   <text y="45.72" x="178.37" svgx:width="0.25" style="fill:rgb(0,0,0);font-family:TimesNewRomanPSMT;font-size:11.04px;stroke:none;"> </text>
  </g>
  <g begin="text">
   <text y="45.72" x="273.41,280.729,286.249,291.151,296.671,299.796,304.598,308.307,311.067,316.587" svgx:width="0.67,0.5,0.44,0.5,0.28,0.44,0.33,0.25,0.5,0.5" style="fill:rgb(0,0,0);font-family:TimesNewRomanPSMT;font-size:11.04px;stroke:none;">Chapter 16</text>
  </g>
  <g begin="text">
   <text y="45.72" x="322.03" svgx:width="0.25" style="fill:rgb(0,0,0);font-family:TimesNewRomanPSMT;font-size:11.04px;stroke:none;"> </text>
  </g>
  <g begin="text">
   <text y="45.72" x="443.38" svgx:width="0.33" style="fill:rgb(0,0,0);font-family:TimesNewRomanPSMT;font-size:11.04px;stroke:none;">I</text>
  </g>
  <g begin="text">
   <text y="45.72" x="446.98,453.118,460.416,467.735" svgx:width="0.56,0.67,0.67,0.25" style="fill:rgb(0,0,0);font-family:TimesNewRomanPSMT;font-size:11.04px;stroke:none;">PCC </text>
  </g>
  <g begin="text">
   <text y="45.72" x="470.5,478.416,485.735,491.255" svgx:width="0.72,0.67,0.5,0.25" style="fill:rgb(0,0,0);font-family:TimesNewRomanPSMT;font-size:11.04px;stroke:none;">AR6 </text>
  </g>
  <g begin="text">
   <text y="45.72" x="494.02,504.442,512.413,516.089,519.699" svgx:width="0.94,0.72,0.33,0.33,0.33" style="fill:rgb(0,0,0);font-family:TimesNewRomanPSMT;font-size:11.04px;stroke:none;">WGIII</text>
  </g>
  <g begin="text">
   <text y="45.72" x="523.44" svgx:width="0.25" style="fill:rgb(0,0,0);font-family:TimesNewRomanPSMT;font-size:11.04px;stroke:none;"> </text>
  </g>
  <g begin="text">
   <text y="803.04" x="72.024,79.94,85.46,88.22,96.135,101.655,105.365,108.125,116.04,119.154,122.753,127.655,130.415,133.075,141.708,147.847,153.367,157.043,161.868,164.628,170.148,175.049,177.809,185.78,188.75,192.945,196.655,201.556,204.681,210.819,216.803,220.512" svgx:width="0.72,0.5,0.25,0.72,0.5,0.33,0.25,0.72,0.28,0.33,0.44,0.25,0.25,0.78,0.56,0.5,0.33,0.44,0.25,0.5,0.44,0.25,0.72,0.28,0.39,0.33,0.44,0.28,0.56,0.56,0.33,0.44" style="fill:rgb(0,0,0);font-family:TimesNewRomanPS-BoldMT;font-size:11.04px;stroke:none;">Do Not Cite, Quote or Distribute</text>
  </g>
  <g begin="text">
   <text y="803.04" x="225.41" svgx:width="0.25" style="fill:rgb(0,0,0);font-family:TimesNewRomanPS-BoldMT;font-size:11.04px;stroke:none;"> </text>
  </g>
  <g begin="text">
   <text y="803.04" x="284.83,290.35" svgx:width="0.5,0.5" style="fill:rgb(0,0,0);font-family:TimesNewRomanPSMT;font-size:11.04px;stroke:none;">16</text>
  </g>
  <g begin="text">
   <text y="803.04" x="295.87" svgx:width="0.33" style="fill:rgb(0,0,0);font-family:TimesNewRomanPSMT;font-size:11.04px;stroke:none;">-</text>
  </g>
  <g begin="text">
   <text y="803.04" x="299.47,304.99" svgx:width="0.5,0.5" style="fill:rgb(0,0,0);font-family:TimesNewRomanPSMT;font-size:11.04px;stroke:none;">90</text>
  </g>
  <g begin="text">
   <text y="803.04" x="310.51" svgx:width="0.25" style="fill:rgb(0,0,0);font-family:TimesNewRomanPSMT;font-size:11.04px;stroke:none;"> </text>
  </g>
  <g begin="text">
   <text y="803.04" x="313.27" svgx:width="0.25" style="fill:rgb(0,0,0);font-family:TimesNewRomanPSMT;font-size:11.04px;stroke:none;"> </text>
  </g>
  <g begin="text">
   <text y="803.04" x="450.1,456.845,462.365,465.435,470.259,473.372,476.132,481.652,486.554,491.975,496.876,501.204,504.207" svgx:width="0.61,0.5,0.28,0.44,0.28,0.25,0.5,0.44,0.5,0.44,0.39,0.28,0.25" style="fill:rgb(0,0,0);font-family:TimesNewRomanPSMT;font-size:11.04px;stroke:none;">Total pages: </text>
  </g>
  <g begin="text">
   <text y="803.04" x="506.98,512.5,518.02" svgx:width="0.5,0.5,0.5" style="fill:rgb(0,0,0);font-family:TimesNewRomanPSMT;font-size:11.04px;stroke:none;">141</text>
  </g>
  <g begin="text">
   <text y="803.04" x="523.44" svgx:width="0.25" style="fill:rgb(0,0,0);font-family:TimesNewRomanPS-BoldMT;font-size:11.04px;stroke:none;"> </text>
  </g>
  <g begin="text">
   <text y="82.34" x="72.024,79.94,83.053,88.573,94.093" svgx:width="0.72,0.28,0.5,0.5,0.44" style="fill:rgb(0,0,0);font-family:TimesNewRomanPSMT;font-size:11.04px;stroke:none;">Globa</text>
  </g>
  <g begin="text">
   <text y="82.34" x="99.024,102.027,105.14,109.943,114.844,117.858,120.972,126.492,131.89,134.64999999999998,138.36,143.88,147.479,150.239,153.948,159.468,163.177,168.576,174.096,179.616,184.418,187.532,190.535,196.055,201.575,204.33499999999998,208.044,212.946,218.466,223.886,226.646,230.356,234.65,240.071,245.591,251.111,254.224,259.623,262.383,266.092,271.491,275.2,277.96,281.67,287.19,292.71,298.108,303.628,307.824,310.584,314.293,319.195,324.715,330.135,332.895,336.605,340.899,345.724,349.433,354.953,357.956,362.858,367.782,372.076,374.737,377.497,381.206,384.209,389.729,394.631,397.645,403.165,408.685,411.798,417.197,422.717,425.477,429.065,432.178,437.698,443.218,448.738,454.258,459.061,462.063,465.177,470.697,476.217,478.977,482.565,487.466,492.986,498.506,501.26599999999996,504.877,510.397,515.298,523.115" svgx:width="0.28,0.28,0.44,0.44,0.28,0.28,0.5,0.5,0.25,0.55,0.5,0.33,0.25,0.55,0.5,0.33,0.5,0.5,0.5,0.44,0.28,0.28,0.5,0.5,0.25,0.55,0.44,0.5,0.5,0.25,0.55,0.39,0.5,0.5,0.5,0.28,0.5,0.25,0.55,0.5,0.33,0.25,0.55,0.5,0.5,0.5,0.5,0.39,0.25,0.55,0.44,0.5,0.5,0.25,0.55,0.39,0.44,0.33,0.5,0.28,0.44,0.44,0.39,0.25,0.25,0.55,0.28,0.5,0.44,0.28,0.5,0.5,0.28,0.5,0.5,0.25,0.55,0.28,0.5,0.5,0.5,0.5,0.44,0.28,0.28,0.5,0.5,0.25,0.55,0.44,0.5,0.5,0.25,0.55,0.5,0.44,0.72,0.25" style="fill:rgb(0,0,0);font-family:TimesNewRomanPSMT;font-size:11.04px;stroke:none;">lization of production and supply of goods and services, including innovation and new </text>
  </g>
  <g begin="text">
   <text y="82.34" x="48.48" svgx:width="0.5" style="fill:rgb(0,0,0);font-family:TimesNewRomanPSMT;font-size:11.04px;stroke:none;">1</text>
  </g>
  <g begin="text">
   <text y="82.34" x="54.024" svgx:width="0.25" style="fill:rgb(0,0,0);font-family:TimesNewRomanPSMT;font-size:11.04px;stroke:none;"> </text>
  </g>
  <g begin="text">
   <text y="96.26" x="72.024,75.137,80.039,84.963,90.483,95.881,101.401,104.515,110.035,115.433,118.547,123.349,127.644,130.404,133.164,134.499,143.133,147.935,153.455,156.215,157.529,163.049,168.569,173.471,178.991,181.751,183.075,188.595,193.994,196.754,198.068,203.588,209.108,214.628,220.148,223.857,226.97,232.369,237.889,240.892,244.005,247.008,251.91,256.238,258.998,260.311,264.021,269.419,273.129,275.889,277.203,282.723,287.624,293.144,297.958,301.071,306.591,311.99,314.993,320.513,326.033,328.793,330.106,335.008,340.528,346.048,351.568,354.582,358.291,361.294,366.196,370.524,373.284,374.597,377.711,383.231,385.991,387.305,392.206,397.627,403.147,408.049,413.569,418.382,423.284,426.044,427.369,430.482,435.284,440.186,445.706,451.226,456.746,459.87,465.269,470.789,476.309,479.069,480.383,485.903,488.906,492.615,496.324,501.723,506.018,509.153,514.673,520.072,523.074" svgx:width="0.28,0.44,0.44,0.5,0.5,0.5,0.28,0.5,0.5,0.28,0.44,0.39,0.25,0.25,0.55,0.78,0.44,0.5,0.25,0.55,0.5,0.5,0.44,0.5,0.25,0.55,0.5,0.5,0.25,0.55,0.5,0.5,0.5,0.5,0.33,0.28,0.5,0.5,0.28,0.28,0.28,0.44,0.39,0.25,0.55,0.33,0.5,0.33,0.25,0.55,0.5,0.44,0.5,0.44,0.28,0.5,0.5,0.28,0.5,0.5,0.25,0.55,0.44,0.5,0.5,0.5,0.28,0.33,0.28,0.44,0.39,0.25,0.55,0.28,0.5,0.25,0.55,0.44,0.5,0.5,0.44,0.5,0.44,0.44,0.25,0.55,0.28,0.44,0.44,0.5,0.5,0.5,0.28,0.5,0.5,0.5,0.25,0.55,0.5,0.28,0.33,0.33,0.5,0.39,0.28,0.5,0.5,0.28,0.25" style="fill:rgb(0,0,0);font-family:TimesNewRomanPSMT;font-size:11.04px;stroke:none;">technologies, may open up opportunities for developing countries to advance technology diffusion; </text>
  </g>
  <g begin="text">
   <text y="96.26" x="48.48" svgx:width="0.5" style="fill:rgb(0,0,0);font-family:TimesNewRomanPSMT;font-size:11.04px;stroke:none;">2</text>
  </g>
  <g begin="text">
   <text y="96.26" x="54.024" svgx:width="0.25" style="fill:rgb(0,0,0);font-family:TimesNewRomanPSMT;font-size:11.04px;stroke:none;"> </text>
  </g>
  <g begin="text">
   <text y="110.18" x="72.024,77.544,83.064,90.98,95.881,101.401,106.325,110.035,112.673,116.14,120.434,125.855,129.322,132.921,137.822,141.554,144.899,150.419,155.939,158.942,162.408,167.211,170.324,173.437,176.783,181.684,187.204,192.625,198.145,201.258,204.857,207.971,212.872,217.09,220.556,226.076,230.978,236.399,241.3,244.789,250.188,255.089,260.609,265.423,269.132,272.135,275.248,280.15,285.67,289.037,292.747,296.346,301.866,310.389,313.734,316.847,322.367,327.269,330.636,336.156,339.269,344.789,350.188,355.09,358.104,361.217,365.511,370.336,373.449,376.452,381.972,387.492" svgx:width="0.5,0.5,0.72,0.44,0.5,0.44,0.33,0.25,0.25,0.39,0.5,0.25,0.33,0.44,0.33,0.25,0.5,0.5,0.28,0.25,0.44,0.28,0.28,0.25,0.44,0.5,0.5,0.5,0.28,0.33,0.28,0.44,0.39,0.25,0.5,0.44,0.5,0.44,0.25,0.5,0.44,0.5,0.44,0.33,0.28,0.28,0.44,0.5,0.25,0.33,0.33,0.5,0.78,0.25,0.28,0.5,0.44,0.25,0.5,0.28,0.5,0.5,0.44,0.28,0.28,0.39,0.44,0.28,0.28,0.5,0.5,0.25" style="fill:rgb(0,0,0);font-family:TimesNewRomanPSMT;font-size:11.04px;stroke:none;">however, so far not all countries have benefited from the globalisation </text>
  </g>
  <g begin="text">
   <text y="110.18" x="391.27,396.669,400.378,403.723,406.836,412.356,417.876,423.396,428.795,433.697,436.711,439.824,445.344,450.864,454.33,459.729,465.249,470.151,473.518,476.631,482.151,485.496,491.016,494.019,497.729,501.438,506.241,509.95,514.852,520.272,523.275" svgx:width="0.5,0.33,0.25,0.28,0.5,0.5,0.5,0.5,0.44,0.28,0.28,0.5,0.5,0.25,0.5,0.5,0.44,0.25,0.28,0.5,0.25,0.5,0.28,0.33,0.33,0.44,0.33,0.44,0.5,0.28,0.25" style="fill:rgb(0,0,0);font-family:TimesNewRomanPSMT;font-size:11.04px;stroke:none;">of innovation due to different </text>
  </g>
  <g begin="text">
   <text y="110.18" x="48.48" svgx:width="0.5" style="fill:rgb(0,0,0);font-family:TimesNewRomanPSMT;font-size:11.04px;stroke:none;">3</text>
  </g>
  <g begin="text">
   <text y="110.18" x="54.024" svgx:width="0.25" style="fill:rgb(0,0,0);font-family:TimesNewRomanPSMT;font-size:11.04px;stroke:none;"> </text>
  </g>
  <g begin="text">
   <text y="124.1" x="72.024,77.544,82.446,86.177,89.776,92.89,97.692,101.401,105.696,109.074,113.269,118.789,123.691,129.211,132.578,137.381,141.675,145.054,149.955,154.769,159.671,164.594,168.79,173.084,176.462,179.465,184.985,188.33,191.929,195.043,200.563,205.464,210.984,215.798,220.7,224.067,228.969,234.489,239.909,243.254,246.368,251.17,256.072,261.592,267.012,270.126,275.027,279.841,282.954,286.299,291.201,296.015,301.535,306.436,311.857,314.97,317.973,321.086,324.089,327.202,332.104,336.432,339.192,342.537,349.139,354.659,359.561,363.778,368.68,372.047,376.949,381.277,386.675,395.198,403.831,408.634,411.747,415.346,418.459,423.361,427.689,430.912,436.432,441.334,444.458,452.374,457.276,462.089,467.609,470.954,475.856,481.376,486.896,492.317,495.43,499.029,502.142,506.945,511.239,514.618,517.62,523.019" svgx:width="0.5,0.44,0.33,0.33,0.28,0.44,0.33,0.39,0.25,0.39,0.5,0.44,0.5,0.25,0.44,0.39,0.25,0.44,0.44,0.44,0.44,0.39,0.39,0.25,0.28,0.5,0.25,0.33,0.28,0.5,0.44,0.5,0.44,0.44,0.25,0.44,0.5,0.5,0.25,0.28,0.44,0.44,0.5,0.5,0.28,0.44,0.44,0.28,0.25,0.44,0.44,0.5,0.44,0.5,0.28,0.28,0.28,0.28,0.28,0.44,0.39,0.25,0.25,0.61,0.5,0.44,0.39,0.44,0.25,0.44,0.39,0.5,0.78,0.78,0.44,0.28,0.33,0.28,0.44,0.39,0.25,0.5,0.44,0.28,0.72,0.44,0.44,0.5,0.25,0.44,0.5,0.5,0.5,0.28,0.33,0.28,0.44,0.39,0.25,0.28,0.5,0.25" style="fill:rgb(0,0,0);font-family:TimesNewRomanPSMT;font-size:11.04px;stroke:none;">barriers such as access to finance and technical capabilities. These asymmetries between countries in </text>
  </g>
  <g begin="text">
   <text y="124.1" x="48.48" svgx:width="0.5" style="fill:rgb(0,0,0);font-family:TimesNewRomanPSMT;font-size:11.04px;stroke:none;">4</text>
  </g>
  <g begin="text">
   <text y="124.1" x="54.024" svgx:width="0.25" style="fill:rgb(0,0,0);font-family:TimesNewRomanPSMT;font-size:11.04px;stroke:none;"> </text>
  </g>
  <g begin="text">
   <text y="138.02" x="72.024,75.137,80.657,85.559,88.319,93.74,96.853,102.373,107.893,112.695,115.809,118.812,123.713,128.527,131.64,134.753,140.273,145.672,148.432,153.952,157.661,163.06,167.962,172.885,177.081,181.375,184.135,189.07,193.872,199.392,202.152,207.054,210.179,214.374,219.894,222.654,225.767,230.569,235.471,240.991,243.652,246.765,252.285,255.045,260.565,265.467,270.888,275.789,281.309,286.829,291.643,297.163,302.064,305.078,309.98,314.197,316.957,322.477,327.997,330.757,334.467,339.865,343.575,348.477,351.491,357.011,362.531,365.291,370.811,376.331,381.851,389.656,392.769,397.671,403.191,408.611,413.513,416.273,421.197,426.717,432.237,434.876,440.396,444.105,449.625,455.145,458.148,463.668,468.57,472.191,476.485,479.245" svgx:width="0.28,0.5,0.44,0.25,0.5,0.28,0.5,0.5,0.44,0.28,0.28,0.44,0.44,0.28,0.28,0.5,0.5,0.25,0.5,0.33,0.5,0.44,0.44,0.39,0.39,0.25,0.44,0.44,0.5,0.25,0.44,0.28,0.39,0.5,0.25,0.28,0.44,0.44,0.5,0.25,0.28,0.5,0.25,0.5,0.44,0.5,0.44,0.5,0.5,0.44,0.5,0.44,0.28,0.44,0.39,0.25,0.5,0.5,0.25,0.33,0.5,0.33,0.44,0.28,0.5,0.5,0.25,0.5,0.5,0.5,0.72,0.28,0.44,0.5,0.5,0.44,0.25,0.44,0.5,0.5,0.25,0.5,0.33,0.5,0.5,0.28,0.5,0.44,0.33,0.39,0.25,0.25" style="fill:rgb(0,0,0);font-family:TimesNewRomanPSMT;font-size:11.04px;stroke:none;">the globalization process can also lead to dependencies on foreign knowledge and providers. </text>
  </g>
  <g begin="text">
   <text y="138.02" x="482.14" svgx:width="0.25" style="fill:rgb(0,0,0);font-family:TimesNewRomanPSMT;font-size:11.04px;stroke:none;"> </text>
  </g>
  <g begin="text">
   <text y="138.02" x="48.48" svgx:width="0.5" style="fill:rgb(0,0,0);font-family:TimesNewRomanPSMT;font-size:11.04px;stroke:none;">5</text>
  </g>
  <g begin="text">
   <text y="138.02" x="54.024" svgx:width="0.25" style="fill:rgb(0,0,0);font-family:TimesNewRomanPSMT;font-size:11.04px;stroke:none;"> </text>
  </g>
  <g begin="text">
   <text y="157.94" x="72.024,79.94,85.46,88.573,91.333,92.525,97.427,100.441,103.554,106.31400000000001,107.507,110.62,115.422,120.324,125.844,131.364,136.785,139.898,145.418,150.938,156.458,159.218,160.41,165.312,170.733,176.253,181.773,186.575,190.174,195.076,198.2,201.203,206.723" svgx:width="0.72,0.5,0.28,0.25,0.55,0.44,0.28,0.28,0.25,0.55,0.28,0.44,0.44,0.5,0.5,0.5,0.28,0.5,0.5,0.5,0.25,0.55,0.44,0.5,0.5,0.5,0.44,0.33,0.44,0.28,0.28,0.5,0.5" style="fill:rgb(0,0,0);font-family:TimesNewRomanPSMT;font-size:11.04px;stroke:none;">Not all technology cooperation</text>
  </g>
  <g begin="text">
   <text y="157.94" x="212.33" svgx:width="0.25" style="fill:rgb(0,0,0);font-family:TimesNewRomanPSMT;font-size:11.04px;stroke:none;"> </text>
  </g>
  <g begin="text">
   <text y="157.94" x="216.29,221.81,224.813,228.522,233.424,238.238,241.351,244.354,249.874,252.634,253.826,257.535,262.437,266.654,272.174,275.177,278.291,282.585,285.34499999999997,286.56,289.673,295.193,297.953,299.024,307.547,310.549,313.663,316.776,322.175,327.076,330.09,333.204,338.724,344.244,347.004,348.196,353.716,359.114,362.228,367.129,372.55,381.183,386.085,390.413,393.173,395.933,397.125,405.041,410.439,415.341,419.073,423.875,426.988,430.102,432.74,435.5,436.692,439.806,444.708,449.631,455.151,460.671,466.07,469.183,474.703,480.223,485.743,488.503,489.574,492.687,496.286,501.188,506.708,510.925,514.635,519.537,523.158" svgx:width="0.5,0.28,0.33,0.44,0.44,0.28,0.28,0.5,0.25,0.55,0.33,0.44,0.39,0.5,0.28,0.28,0.39,0.25,0.55,0.28,0.5,0.25,0.55,0.78,0.28,0.28,0.28,0.5,0.44,0.28,0.28,0.5,0.5,0.25,0.55,0.5,0.5,0.28,0.44,0.5,0.78,0.44,0.39,0.25,0.25,0.55,0.72,0.5,0.44,0.33,0.44,0.28,0.28,0.25,0.25,0.55,0.28,0.44,0.44,0.5,0.5,0.5,0.28,0.5,0.5,0.5,0.25,0.55,0.28,0.33,0.44,0.5,0.39,0.33,0.44,0.33,0.25" style="fill:rgb(0,0,0);font-family:TimesNewRomanPSMT;font-size:11.04px;stroke:none;">directly results in mitigation outcomes. Overall, technology transfer </text>
  </g>
  <g begin="text">
   <text y="157.94" x="48.48" svgx:width="0.5" style="fill:rgb(0,0,0);font-family:TimesNewRomanPSMT;font-size:11.04px;stroke:none;">6</text>
  </g>
  <g begin="text">
   <text y="157.94" x="54.024" svgx:width="0.25" style="fill:rgb(0,0,0);font-family:TimesNewRomanPSMT;font-size:11.04px;stroke:none;"> </text>
  </g>
  <g begin="text">
   <text y="171.86" x="72.024,77.544,81.253,86.773,91.675,97.096,100.209,105.729,108.489,111.117,116.637,121.439,125.734,128.494,131.143,134.853,140.373,145.274,150.695,154.99,159.924,165.445,168.20499999999998,170.832,176.352,181.872,184.632,187.26,192.062,197.582,203.102,208.004,213.524,218.337,221.45,226.97,232.49,235.25,237.878,242.68,245.794,248.797,257.43,262.232,265.345,270.247,273.007,275.657,278.66,283.561,288.485,294.005,299.525,304.924,308.037,313.436,318.956,324.476,327.236,329.863,334.765,340.285,344.613,350.011,353.721,359.241,362.243,365.357,370.877,376.397,379.157,381.784,386.686,392.107,397.627,400.387,403.014,408.534,413.436,418.956,421.97,427.49,432.888,441.522,446.423,451.844,454.957,457.717,460.345,463.458,468.978,471.738,474.366,479.886,484.688,490.208,495.11,498.124,503.644,509.164,512.277,517.675,523.074" svgx:width="0.5,0.33,0.5,0.44,0.5,0.28,0.5,0.25,0.55,0.5,0.44,0.39,0.25,0.55,0.33,0.5,0.44,0.5,0.39,0.44,0.5,0.25,0.55,0.5,0.5,0.25,0.55,0.44,0.5,0.5,0.44,0.5,0.44,0.28,0.5,0.5,0.25,0.55,0.44,0.28,0.28,0.78,0.44,0.28,0.44,0.25,0.55,0.28,0.44,0.44,0.5,0.5,0.5,0.28,0.5,0.5,0.5,0.25,0.55,0.44,0.5,0.39,0.5,0.33,0.5,0.28,0.28,0.5,0.5,0.25,0.55,0.44,0.5,0.5,0.25,0.55,0.5,0.44,0.5,0.28,0.5,0.5,0.78,0.44,0.5,0.28,0.25,0.55,0.28,0.5,0.25,0.55,0.5,0.44,0.5,0.44,0.28,0.5,0.5,0.28,0.5,0.5,0.25" style="fill:rgb(0,0,0);font-family:TimesNewRomanPSMT;font-size:11.04px;stroke:none;">broadly has focused on enhancing climate technology absorption and deployment in developing </text>
  </g>
  <g begin="text">
   <text y="171.86" x="48.48" svgx:width="0.5" style="fill:rgb(0,0,0);font-family:TimesNewRomanPSMT;font-size:11.04px;stroke:none;">7</text>
  </g>
  <g begin="text">
   <text y="171.86" x="54.024" svgx:width="0.25" style="fill:rgb(0,0,0);font-family:TimesNewRomanPSMT;font-size:11.04px;stroke:none;"> </text>
  </g>
  <g begin="text">
   <text y="185.78" x="72.024,76.926,82.446,87.966,93.486,96.5,100.209,103.212,108.114,112.441,115.201,120.004,124.298,127.058,135.029,139.931,142.923,146.036,148.796,153.599,157.893,160.653,168.017,175.921,184.555,192.36,195.12,200.022,205.542,211.062,213.822,219.342,224.862,230.382,238.198,241.311,246.213,251.733,257.154,262.056,264.816,269.143,274.542,277.655,280.658" svgx:width="0.44,0.5,0.5,0.5,0.28,0.33,0.28,0.44,0.39,0.25,0.44,0.39,0.25,0.72,0.44,0.28,0.28,0.25,0.44,0.39,0.25,0.67,0.72,0.78,0.72,0.25,0.44,0.5,0.5,0.25,0.5,0.5,0.5,0.72,0.28,0.44,0.5,0.5,0.44,0.25,0.39,0.5,0.28,0.28,0.28" style="fill:rgb(0,0,0);font-family:TimesNewRomanPSMT;font-size:11.04px;stroke:none;">countries as well as RD&amp;D and knowledge spill</text>
  </g>
  <g begin="text">
   <text y="185.78" x="283.87" svgx:width="0.33" style="fill:rgb(0,0,0);font-family:TimesNewRomanPSMT;font-size:11.04px;stroke:none;">-</text>
  </g>
  <g begin="text">
   <text y="185.78" x="287.47,292.99,298.51,303.412,307.033,311.327" svgx:width="0.5,0.5,0.44,0.33,0.39,0.25" style="fill:rgb(0,0,0);font-family:TimesNewRomanPSMT;font-size:11.04px;stroke:none;">overs.</text>
  </g>
  <g begin="text">
   <text y="185.78" x="313.99" svgx:width="0.25" style="fill:rgb(0,0,0);font-family:TimesNewRomanPSMT;font-size:11.04px;stroke:none;"> </text>
  </g>
  <g begin="text">
   <text y="185.78" x="48.48" svgx:width="0.5" style="fill:rgb(0,0,0);font-family:TimesNewRomanPSMT;font-size:11.04px;stroke:none;">8</text>
  </g>
  <g begin="text">
   <text y="185.78" x="54.024" svgx:width="0.25" style="fill:rgb(0,0,0);font-family:TimesNewRomanPSMT;font-size:11.04px;stroke:none;"> </text>
  </g>
  <g begin="text">
   <text y="205.7" x="72.024,78.162,83.064,86.773,89.776,94.071,97.085,105.0,110.52,114.12,119.021,123.835,132.468,137.37,142.79,145.904,148.896,153.698,156.811,161.106,166.526,169.518,173.117,178.019,181.64,184.753,189.655,194.469,197.582,201.876,204.769,207.882,213.402,216.405,220.7,223.714,229.112,232.225,237.127,245.098" svgx:width="0.56,0.44,0.33,0.28,0.39,0.25,0.72,0.5,0.33,0.44,0.44,0.78,0.44,0.5,0.28,0.25,0.44,0.28,0.39,0.5,0.25,0.33,0.44,0.33,0.28,0.44,0.44,0.28,0.39,0.25,0.28,0.5,0.28,0.39,0.25,0.5,0.28,0.44,0.72,0.25" style="fill:rgb(0,0,0);font-family:TimesNewRomanPSMT;font-size:11.04px;stroke:none;">Paris Agreement also reflects this view </text>
  </g>
  <g begin="text">
   <text y="205.7" x="248.21,253.609,259.129,262.12,267.64,273.039,276.152,279.155,284.675,290.195,293.066,296.179,301.699,306.501,309.614,312.485,317.387,322.907,328.427,333.947,336.96,340.67,343.673,348.575,352.902,355.773,360.067,365.587,370.412,373.525,376.528,379.52,383.814,386.839,390.549,395.451,400.871,406.391,409.504,414.903,419.805,425.325,428.328,433.13,438.65,444.17,449.69,454.592,458.213,463.115,466.129,469.242,474.762,479.664,482.556,487.458,492.271,495.385,498.498,504.018,509.416,512.408,517.807,523.205" svgx:width="0.5,0.5,0.25,0.5,0.5,0.28,0.28,0.5,0.5,0.25,0.28,0.5,0.44,0.28,0.25,0.44,0.5,0.5,0.5,0.28,0.33,0.28,0.44,0.39,0.25,0.39,0.5,0.44,0.28,0.28,0.25,0.39,0.28,0.33,0.44,0.5,0.5,0.28,0.5,0.44,0.5,0.25,0.44,0.5,0.5,0.5,0.44,0.33,0.44,0.28,0.28,0.5,0.44,0.25,0.44,0.44,0.28,0.28,0.5,0.5,0.25,0.5,0.5,0.25" style="fill:rgb(0,0,0);font-family:TimesNewRomanPSMT;font-size:11.04px;stroke:none;">by noting that countries shall strengthen cooperative action on </text>
  </g>
  <g begin="text">
   <text y="205.7" x="48.48" svgx:width="0.5" style="fill:rgb(0,0,0);font-family:TimesNewRomanPSMT;font-size:11.04px;stroke:none;">9</text>
  </g>
  <g begin="text">
   <text y="205.7" x="54.024" svgx:width="0.25" style="fill:rgb(0,0,0);font-family:TimesNewRomanPSMT;font-size:11.04px;stroke:none;"> </text>
  </g>
  <g begin="text">
   <text y="219.62" x="72.024,75.137,80.039,84.963,90.483,95.881,101.401,104.515,110.035,115.433,120.953,123.71300000000001,127.787,133.307,138.209,143.629,148.531,151.656,157.054,162.574,171.097,175.999,181.519,184.643,187.403,191.355,196.257,201.777,207.297,210.057,214.142,217.145,220.854,225.756,231.177,235.471,239.203,244.005,247.715,250.475,254.548,258.147,263.049,268.569,273.383,277.092,282.612,285.725,291.124,296.644,299.404,303.478,306.481,314.396,319.916,322.676,326.75,335.383,340.186,343.299,348.819,351.579,355.653,360.455,364.75,370.27,375.204,380.007,383.12,387.315,390.429,393.18899999999996,397.262,402.782,406.381,409.14099999999996,413.215,418.735,422.445,427.843,436.477,441.996,444.999,448.113,453.633,459.153,461.913,465.865,470.767,476.287,479.301,482.414,487.316,492.736,498.256,501.966,506.768,509.881,512.884,518.283,523.085" svgx:width="0.28,0.44,0.44,0.5,0.5,0.5,0.28,0.5,0.5,0.5,0.25,0.55,0.5,0.44,0.5,0.44,0.28,0.5,0.5,0.78,0.44,0.5,0.28,0.25,0.55,0.44,0.5,0.5,0.25,0.55,0.28,0.33,0.44,0.5,0.39,0.33,0.44,0.33,0.25,0.55,0.33,0.44,0.5,0.44,0.33,0.5,0.28,0.5,0.5,0.25,0.55,0.28,0.72,0.5,0.25,0.55,0.78,0.44,0.28,0.5,0.25,0.55,0.44,0.39,0.5,0.44,0.44,0.28,0.39,0.28,0.25,0.55,0.5,0.33,0.25,0.55,0.5,0.33,0.5,0.78,0.5,0.28,0.28,0.5,0.5,0.25,0.55,0.44,0.5,0.28,0.28,0.44,0.5,0.5,0.33,0.44,0.28,0.28,0.5,0.44,0.25" style="fill:rgb(0,0,0);font-family:TimesNewRomanPSMT;font-size:11.04px;stroke:none;">technology development and transfer regarding two main aspects: 1) promoting collaborative </text>
  </g>
  <g begin="text">
   <text y="219.62" x="42.96,48.48" svgx:width="0.5,0.5" style="fill:rgb(0,0,0);font-family:TimesNewRomanPSMT;font-size:11.04px;stroke:none;">10</text>
  </g>
  <g begin="text">
   <text y="219.62" x="54.024" svgx:width="0.25" style="fill:rgb(0,0,0);font-family:TimesNewRomanPSMT;font-size:11.04px;stroke:none;"> </text>
  </g>
  <g begin="text">
   <text y="233.45" x="72.024,76.926,82.446,87.966,91.697,97.096,101.998,106.921,112.441,117.244,121.538,124.199,127.312,132.832,135.471,139.07,143.972,148.299,153.102,158.003,161.735,166.537,172.057,174.696,179.598,185.118,190.638,193.177,198.697,203.599,209.119,214.043,217.046,222.566,228.086,236.608,241.51,246.931,250.044,252.683,257.584,263.104,268.624,271.285,276.805,280.514,283.032,286.741,291.643,296.456,299.57,302.572,305.686,308.689,313.491,316.604,319.718,325.238,330.758,333.396,338.199,343.1,348.024,352.827,357.121,361.46,364.098,367.212,372.732,375.249,378.362,383.264,388.077,393.597,399.117,404.637,407.64,413.16,418.68,424.2,426.839,429.952,435.351,437.989,443.509,448.411,453.931,458.855,461.968,467.366,472.886,476.0,481.52,487.04,489.678,494.481,500.001,505.521,510.919,514.032,517.742" svgx:width="0.44,0.5,0.5,0.33,0.5,0.44,0.44,0.5,0.44,0.39,0.25,0.28,0.5,0.25,0.33,0.44,0.39,0.44,0.44,0.33,0.44,0.5,0.25,0.44,0.5,0.5,0.25,0.5,0.44,0.5,0.44,0.28,0.5,0.5,0.78,0.44,0.5,0.28,0.25,0.44,0.5,0.5,0.25,0.5,0.33,0.25,0.33,0.44,0.44,0.28,0.28,0.28,0.28,0.44,0.28,0.28,0.5,0.5,0.25,0.44,0.44,0.44,0.44,0.39,0.39,0.25,0.28,0.5,0.25,0.28,0.44,0.44,0.5,0.5,0.5,0.28,0.5,0.5,0.5,0.25,0.28,0.5,0.25,0.5,0.44,0.5,0.44,0.28,0.5,0.5,0.28,0.5,0.5,0.25,0.44,0.5,0.5,0.5,0.28,0.33,0.5" style="fill:rgb(0,0,0);font-family:TimesNewRomanPSMT;font-size:11.04px;stroke:none;">approaches to research and development and 2) facilitating access to technology to developing country</text>
  </g>
  <g begin="text">
   <text y="233.45" x="523.44" svgx:width="0.25" style="fill:rgb(0,0,0);font-family:TimesNewRomanPSMT;font-size:11.04px;stroke:none;"> </text>
  </g>
  <g begin="text">
   <text y="233.45" x="42.96,48.48" svgx:width="0.5,0.5" style="fill:rgb(0,0,0);font-family:TimesNewRomanPSMT;font-size:11.04px;stroke:none;">11</text>
  </g>
  <g begin="text">
   <text y="233.45" x="54.024" svgx:width="0.25" style="fill:rgb(0,0,0);font-family:TimesNewRomanPSMT;font-size:11.04px;stroke:none;"> </text>
  </g>
  <g begin="text">
   <text y="247.37" x="72.024,78.162,83.064,86.773,89.776,92.89,97.791,102.009" svgx:width="0.56,0.44,0.33,0.28,0.28,0.44,0.39,0.25" style="fill:rgb(0,0,0);font-family:TimesNewRomanPSMT;font-size:11.04px;stroke:none;">Parties.</text>
  </g>
  <g begin="text">
   <text y="247.37" x="104.66" svgx:width="0.25" style="fill:rgb(0,0,0);font-family:TimesNewRomanPSMT;font-size:11.04px;stroke:none;"> </text>
  </g>
  <g begin="text">
   <text y="247.37" x="42.96,48.48" svgx:width="0.5,0.5" style="fill:rgb(0,0,0);font-family:TimesNewRomanPSMT;font-size:11.04px;stroke:none;">12</text>
  </g>
  <g begin="text">
   <text y="247.37" x="54.024" svgx:width="0.25" style="fill:rgb(0,0,0);font-family:TimesNewRomanPSMT;font-size:11.04px;stroke:none;"> </text>
  </g>
  <g begin="text">
   <text y="270.17" x="72.024" svgx:width="0.25" style="fill:rgb(0,0,0);font-family:TimesNewRomanPSMT;font-size:14.04px;stroke:none;"> </text>
  </g>
  <g begin="text">
   <text y="270.17" x="216.05" svgx:width="0.25" style="fill:rgb(0,0,0);font-family:TimesNewRomanPSMT;font-size:14.04px;stroke:none;"> </text>
  </g>
  <g begin="text">
   <text y="270.17" x="42.96,48.48" svgx:width="0.5,0.5" style="fill:rgb(0,0,0);font-family:TimesNewRomanPSMT;font-size:11.04px;stroke:none;">13</text>
  </g>
  <g begin="text">
   <text y="270.17" x="54.024" svgx:width="0.25" style="fill:rgb(0,0,0);font-family:TimesNewRomanPSMT;font-size:11.04px;stroke:none;"> </text>
  </g>
  <g begin="text">
   <text y="602.109" transform="matrix(0.70711,-0.70711,0.70711,0.70711,-395.12956,250.29085)" rotateDegrees="-45" matrix="[29.803345,29.803345,-29.803345,29.803345,104.563255,239.8115]" x="104.563" svgx:width="0.67" style="fill:rgb(0,0,0);font-family:Arial;font-size:42.15px;stroke:none;">A</text>
   <text y="582.23" transform="matrix(0.70711,-0.70711,0.70711,0.70711,-375.25056,258.525)" rotateDegrees="-45" matrix="[29.803345,29.803345,-29.803345,29.803345,124.442085,259.6903]" x="124.442" svgx:width="0.72" style="fill:rgb(0,0,0);font-family:Arial;font-size:42.15px;stroke:none;">C</text>
   <text y="560.712" transform="matrix(0.70711,-0.70711,0.70711,0.70711,-353.73256,267.43805)" rotateDegrees="-45" matrix="[29.803345,29.803345,-29.803345,29.803345,145.9601,281.20834]" x="145.96" svgx:width="0.72" style="fill:rgb(0,0,0);font-family:Arial;font-size:42.15px;stroke:none;">C</text>
   <text y="539.194" transform="matrix(0.70711,-0.70711,0.70711,0.70711,-332.21456,276.3511)" rotateDegrees="-45" matrix="[29.803345,29.803345,-29.803345,29.803345,167.47812,302.72635]" x="167.478" svgx:width="0.67" style="fill:rgb(0,0,0);font-family:Arial;font-size:42.15px;stroke:none;">E</text>
   <text y="519.315" transform="matrix(0.70711,-0.70711,0.70711,0.70711,-312.33556,284.58525)" rotateDegrees="-45" matrix="[29.803345,29.803345,-29.803345,29.803345,187.35693,322.60516]" x="187.357" svgx:width="0.67" style="fill:rgb(0,0,0);font-family:Arial;font-size:42.15px;stroke:none;">P</text>
   <text y="499.436" transform="matrix(0.70711,-0.70711,0.70711,0.70711,-292.45656,292.8194)" rotateDegrees="-45" matrix="[29.803345,29.803345,-29.803345,29.803345,207.23578,342.484]" x="207.236" svgx:width="0.61" style="fill:rgb(0,0,0);font-family:Arial;font-size:42.15px;stroke:none;">T</text>
   <text y="481.226" transform="matrix(0.70711,-0.70711,0.70711,0.70711,-274.24656,300.36223)" rotateDegrees="-45" matrix="[29.803345,29.803345,-29.803345,29.803345,225.44562,360.69385]" x="225.446" svgx:width="0.67" style="fill:rgb(0,0,0);font-family:Arial;font-size:42.15px;stroke:none;">E</text>
   <text y="461.347" transform="matrix(0.70711,-0.70711,0.70711,0.70711,-254.36786,308.59567)" rotateDegrees="-45" matrix="[29.803345,29.803345,-29.803345,29.803345,245.32443,380.57266]" x="245.324" svgx:width="0.72" style="fill:rgb(0,0,0);font-family:Arial;font-size:42.15px;stroke:none;">D</text>
   <text y="439.829" transform="matrix(0.70711,-0.70711,0.70711,0.70711,-232.84986,317.50872)" rotateDegrees="-45" matrix="[29.803345,29.803345,-29.803345,29.803345,266.84247,402.0907]" x="266.842" svgx:width="0.28" style="fill:rgb(0,0,0);font-family:Arial;font-size:42.15px;stroke:none;"> </text>
   <text y="431.54" transform="matrix(0.70711,-0.70711,0.70711,0.70711,-224.56056,320.94284)" rotateDegrees="-45" matrix="[29.803345,29.803345,-29.803345,29.803345,275.13153,410.37976]" x="275.132" svgx:width="0.67" style="fill:rgb(0,0,0);font-family:Arial;font-size:42.15px;stroke:none;">V</text>
   <text y="411.661" transform="matrix(0.70711,-0.70711,0.70711,0.70711,-204.68186,329.17629)" rotateDegrees="-45" matrix="[29.803345,29.803345,-29.803345,29.803345,295.0103,430.25858]" x="295.01" svgx:width="0.67" style="fill:rgb(0,0,0);font-family:Arial;font-size:42.15px;stroke:none;">E</text>
   <text y="391.783" transform="matrix(0.70711,-0.70711,0.70711,0.70711,-184.80356,337.41073)" rotateDegrees="-45" matrix="[29.803345,29.803345,-29.803345,29.803345,314.88916,450.1374]" x="314.889" svgx:width="0.72" style="fill:rgb(0,0,0);font-family:Arial;font-size:42.15px;stroke:none;">R</text>
   <text y="370.265" transform="matrix(0.70711,-0.70711,0.70711,0.70711,-163.28556,346.32378)" rotateDegrees="-45" matrix="[29.803345,29.803345,-29.803345,29.803345,336.40717,471.65543]" x="336.407" svgx:width="0.67" style="fill:rgb(0,0,0);font-family:Arial;font-size:42.15px;stroke:none;">S</text>
   <text y="350.386" transform="matrix(0.70711,-0.70711,0.70711,0.70711,-143.40656,354.55793)" rotateDegrees="-45" matrix="[29.803345,29.803345,-29.803345,29.803345,356.286,491.53424]" x="356.286" svgx:width="0.28" style="fill:rgb(0,0,0);font-family:Arial;font-size:42.15px;stroke:none;">I</text>
   <text y="342.1" transform="matrix(0.70711,-0.70711,0.70711,0.70711,-135.12086,357.9894)" rotateDegrees="-45" matrix="[29.803345,29.803345,-29.803345,29.803345,364.57135,499.81958]" x="364.571" svgx:width="0.78" style="fill:rgb(0,0,0);font-family:Arial;font-size:42.15px;stroke:none;">O</text>
   <text y="318.913" transform="matrix(0.70711,-0.70711,0.70711,0.70711,-111.93386,367.59377)" rotateDegrees="-45" matrix="[29.803345,29.803345,-29.803345,29.803345,387.7583,523.0066]" x="387.758" svgx:width="0.72" style="fill:rgb(0,0,0);font-family:Arial;font-size:42.15px;stroke:none;">N</text>
   <text y="297.395" transform="matrix(0.70711,-0.70711,0.70711,0.70711,-90.41586,376.50681)" rotateDegrees="-45" matrix="[29.803345,29.803345,-29.803345,29.803345,409.27637,544.5246]" x="409.276" svgx:width="0.28" style="fill:rgb(0,0,0);font-family:Arial;font-size:42.15px;stroke:none;"> </text>
   <text y="637.872" transform="matrix(0.70711,-0.70711,0.70711,0.70711,-409.94279,286.05456)" rotateDegrees="-45" matrix="[29.803345,29.803345,-29.803345,29.803345,140.32727,204.04747]" x="140.327" svgx:width="0.67" style="fill:rgb(0,0,0);font-family:Arial;font-size:42.15px;stroke:none;">S</text>
   <text y="617.994" transform="matrix(0.70711,-0.70711,0.70711,0.70711,-390.0645,294.289)" rotateDegrees="-45" matrix="[29.803345,29.803345,-29.803345,29.803345,160.2061,223.9263]" x="160.206" svgx:width="0.72" style="fill:rgb(0,0,0);font-family:Arial;font-size:42.15px;stroke:none;">U</text>
   <text y="596.476" transform="matrix(0.70711,-0.70711,0.70711,0.70711,-368.5465,303.20205)" rotateDegrees="-45" matrix="[29.803345,29.803345,-29.803345,29.803345,181.72412,245.4443]" x="181.724" svgx:width="0.67" style="fill:rgb(0,0,0);font-family:Arial;font-size:42.15px;stroke:none;">B</text>
   <text y="576.597" transform="matrix(0.70711,-0.70711,0.70711,0.70711,-348.6675,311.4362)" rotateDegrees="-45" matrix="[29.803345,29.803345,-29.803345,29.803345,201.60294,265.32315]" x="201.603" svgx:width="0.5" style="fill:rgb(0,0,0);font-family:Arial;font-size:42.15px;stroke:none;">J</text>
   <text y="561.695" transform="matrix(0.70711,-0.70711,0.70711,0.70711,-333.7655,317.60881)" rotateDegrees="-45" matrix="[29.803345,29.803345,-29.803345,29.803345,216.50462,280.22482]" x="216.505" svgx:width="0.67" style="fill:rgb(0,0,0);font-family:Arial;font-size:42.15px;stroke:none;">E</text>
   <text y="541.816" transform="matrix(0.70711,-0.70711,0.70711,0.70711,-313.88679,325.84225)" rotateDegrees="-45" matrix="[29.803345,29.803345,-29.803345,29.803345,236.38344,300.10364]" x="236.383" svgx:width="0.72" style="fill:rgb(0,0,0);font-family:Arial;font-size:42.15px;stroke:none;">C</text>
   <text y="520.298" transform="matrix(0.70711,-0.70711,0.70711,0.70711,-292.36879,334.7553)" rotateDegrees="-45" matrix="[29.803345,29.803345,-29.803345,29.803345,257.90146,321.62164]" x="257.901" svgx:width="0.61" style="fill:rgb(0,0,0);font-family:Arial;font-size:42.15px;stroke:none;">T</text>
   <text y="502.089" transform="matrix(0.70711,-0.70711,0.70711,0.70711,-274.1595,342.29842)" rotateDegrees="-45" matrix="[29.803345,29.803345,-29.803345,29.803345,276.1113,339.83148]" x="276.111" svgx:width="0.28" style="fill:rgb(0,0,0);font-family:Arial;font-size:42.15px;stroke:none;"> </text>
   <text y="493.803" transform="matrix(0.70711,-0.70711,0.70711,0.70711,-265.8735,345.7306)" rotateDegrees="-45" matrix="[29.803345,29.803345,-29.803345,29.803345,284.39664,348.11682]" x="284.397" svgx:width="0.61" style="fill:rgb(0,0,0);font-family:Arial;font-size:42.15px;stroke:none;">T</text>
   <text y="475.593" transform="matrix(0.70711,-0.70711,0.70711,0.70711,-247.66379,353.27272)" rotateDegrees="-45" matrix="[29.803345,29.803345,-29.803345,29.803345,302.60648,366.32666]" x="302.606" svgx:width="0.78" style="fill:rgb(0,0,0);font-family:Arial;font-size:42.15px;stroke:none;">O</text>
   <text y="452.406" transform="matrix(0.70711,-0.70711,0.70711,0.70711,-224.47679,362.87709)" rotateDegrees="-45" matrix="[29.803345,29.803345,-29.803345,29.803345,325.79346,389.51367]" x="325.793" svgx:width="0.28" style="fill:rgb(0,0,0);font-family:Arial;font-size:42.15px;stroke:none;"> </text>
   <text y="444.136" transform="matrix(0.70711,-0.70711,0.70711,0.70711,-216.2065,366.30334)" rotateDegrees="-45" matrix="[29.803345,29.803345,-29.803345,29.803345,334.0639,397.78412]" x="334.064" svgx:width="0.61" style="fill:rgb(0,0,0);font-family:Arial;font-size:42.15px;stroke:none;">F</text>
   <text y="425.926" transform="matrix(0.70711,-0.70711,0.70711,0.70711,-197.9965,373.84617)" rotateDegrees="-45" matrix="[29.803345,29.803345,-29.803345,29.803345,352.27374,415.99396]" x="352.274" svgx:width="0.28" style="fill:rgb(0,0,0);font-family:Arial;font-size:42.15px;stroke:none;">I</text>
   <text y="417.641" transform="matrix(0.70711,-0.70711,0.70711,0.70711,-189.7115,377.27793)" rotateDegrees="-45" matrix="[29.803345,29.803345,-29.803345,29.803345,360.55908,424.2793]" x="360.559" svgx:width="0.72" style="fill:rgb(0,0,0);font-family:Arial;font-size:42.15px;stroke:none;">N</text>
   <text y="396.123" transform="matrix(0.70711,-0.70711,0.70711,0.70711,-168.1935,386.19098)" rotateDegrees="-45" matrix="[29.803345,29.803345,-29.803345,29.803345,382.0771,445.7973]" x="382.077" svgx:width="0.67" style="fill:rgb(0,0,0);font-family:Arial;font-size:42.15px;stroke:none;">A</text>
   <text y="376.244" transform="matrix(0.70711,-0.70711,0.70711,0.70711,-148.3145,394.42513)" rotateDegrees="-45" matrix="[29.803345,29.803345,-29.803345,29.803345,401.95593,465.67615]" x="401.956" svgx:width="0.56" style="fill:rgb(0,0,0);font-family:Arial;font-size:42.15px;stroke:none;">L</text>
   <text y="359.673" transform="matrix(0.70711,-0.70711,0.70711,0.70711,-131.7435,401.28906)" rotateDegrees="-45" matrix="[29.803345,29.803345,-29.803345,29.803345,418.5266,482.24677]" x="418.527" svgx:width="0.28" style="fill:rgb(0,0,0);font-family:Arial;font-size:42.15px;stroke:none;"> </text>
   <text y="351.394" transform="matrix(0.70711,-0.70711,0.70711,0.70711,-123.4645,404.71834)" rotateDegrees="-45" matrix="[29.803345,29.803345,-29.803345,29.803345,426.80573,490.52588]" x="426.806" svgx:width="0.67" style="fill:rgb(0,0,0);font-family:Arial;font-size:42.15px;stroke:none;">E</text>
   <text y="331.515" transform="matrix(0.70711,-0.70711,0.70711,0.70711,-103.5855,412.95249)" rotateDegrees="-45" matrix="[29.803345,29.803345,-29.803345,29.803345,446.68457,510.40472]" x="446.685" svgx:width="0.72" style="fill:rgb(0,0,0);font-family:Arial;font-size:42.15px;stroke:none;">D</text>
   <text y="309.997" transform="matrix(0.70711,-0.70711,0.70711,0.70711,-82.0675,421.86554)" rotateDegrees="-45" matrix="[29.803345,29.803345,-29.803345,29.803345,468.2025,531.9227]" x="468.203" svgx:width="0.28" style="fill:rgb(0,0,0);font-family:Arial;font-size:42.15px;stroke:none;">I</text>
   <text y="301.712" transform="matrix(0.70711,-0.70711,0.70711,0.70711,-73.7825,425.29729)" rotateDegrees="-45" matrix="[29.803345,29.803345,-29.803345,29.803345,476.48785,540.20807]" x="476.488" svgx:width="0.61" style="fill:rgb(0,0,0);font-family:Arial;font-size:42.15px;stroke:none;">T</text>
   <text y="283.502" transform="matrix(0.70711,-0.70711,0.70711,0.70711,-55.5725,432.84012)" rotateDegrees="-45" matrix="[29.803345,29.803345,-29.803345,29.803345,494.6977,558.4179]" x="494.698" svgx:width="0.67" style="fill:rgb(0,0,0);font-family:Arial;font-size:42.15px;stroke:none;">S</text>
  </g>
 </g>
</svg>
