<?xml version="1.0" encoding="UTF-8"?>
<svg height="813.04" width="536.476" xmlns="http://www.w3.org/2000/svg">
 <g id="page" xmlns:svgx="http://www.xml-cml.org/schema/svgx">
  <g begin="text">
   <text y="45.72" x="72.024,78.162,81.231,86.751,91.587,94.7,97.46,105.376,110.896,116.416,121.218,124.928,130.448,138.971,143.872,149.392,152.517" svgx:width="0.56,0.28,0.5,0.44,0.28,0.25,0.72,0.5,0.5,0.44,0.33,0.5,0.78,0.44,0.5,0.28,0.25" style="fill:rgb(0,0,0);font-family:TimesNewRomanPSMT;font-size:11.04px;stroke:none;">Final Government </text>
  </g>
  <g begin="text">
   <text y="45.72" x="155.3,163.105,166.219,170.414,173.527,177.126,180.239,185.759,191.158,194.161,197.274,202.794" svgx:width="0.72,0.28,0.39,0.28,0.33,0.28,0.5,0.5,0.28,0.28,0.5,0.5" style="fill:rgb(0,0,0);font-family:TimesNewRomanPSMT;font-size:11.04px;stroke:none;">Distribution</text>
  </g>
  <g begin="text">
   <text y="45.72" x="208.25" svgx:width="0.25" style="fill:rgb(0,0,0);font-family:TimesNewRomanPSMT;font-size:11.04px;stroke:none;"> </text>
  </g>
  <g begin="text">
   <text y="45.72" x="273.41,280.729,286.249,291.151,296.671,299.796,304.598,308.307,311.067,316.587" svgx:width="0.67,0.5,0.44,0.5,0.28,0.44,0.33,0.25,0.5,0.5" style="fill:rgb(0,0,0);font-family:TimesNewRomanPSMT;font-size:11.04px;stroke:none;">Chapter 16</text>
  </g>
  <g begin="text">
   <text y="45.72" x="322.03" svgx:width="0.25" style="fill:rgb(0,0,0);font-family:TimesNewRomanPSMT;font-size:11.04px;stroke:none;"> </text>
  </g>
  <g begin="text">
   <text y="45.72" x="443.38" svgx:width="0.33" style="fill:rgb(0,0,0);font-family:TimesNewRomanPSMT;font-size:11.04px;stroke:none;">I</text>
  </g>
  <g begin="text">
   <text y="45.72" x="446.98,453.118,460.416,467.735" svgx:width="0.56,0.67,0.67,0.25" style="fill:rgb(0,0,0);font-family:TimesNewRomanPSMT;font-size:11.04px;stroke:none;">PCC </text>
  </g>
  <g begin="text">
   <text y="45.72" x="470.5,478.416,485.735,491.255,494.015,504.437,512.408,516.084,519.694" svgx:width="0.72,0.67,0.5,0.25,0.94,0.72,0.33,0.33,0.33" style="fill:rgb(0,0,0);font-family:TimesNewRomanPSMT;font-size:11.04px;stroke:none;">AR6 WGIII</text>
  </g>
  <g begin="text">
   <text y="45.72" x="523.44" svgx:width="0.25" style="fill:rgb(0,0,0);font-family:TimesNewRomanPSMT;font-size:11.04px;stroke:none;"> </text>
  </g>
  <g begin="text">
   <text y="59.64" x="72.024" svgx:width="0.25" style="fill:rgb(0,0,0);font-family:TimesNewRomanPSMT;font-size:11.04px;stroke:none;"> </text>
  </g>
  <g begin="text">
   <text y="789.12" x="72.024" svgx:width="0.25" style="fill:rgb(0,0,0);font-family:TimesNewRomanPS-BoldMT;font-size:11.04px;stroke:none;"> </text>
  </g>
  <g begin="text">
   <text y="803.04" x="72.024,79.94,85.46,88.22,96.135,101.655,105.365,108.125,116.04,119.154,122.753,127.655,130.415,133.075,141.708,147.847,153.367,157.043,161.868,164.628,170.148,175.049,177.809,185.78,188.75,192.945,196.655,201.556,204.681,210.819,216.803,220.512" svgx:width="0.72,0.5,0.25,0.72,0.5,0.33,0.25,0.72,0.28,0.33,0.44,0.25,0.25,0.78,0.56,0.5,0.33,0.44,0.25,0.5,0.44,0.25,0.72,0.28,0.39,0.33,0.44,0.28,0.56,0.56,0.33,0.44" style="fill:rgb(0,0,0);font-family:TimesNewRomanPS-BoldMT;font-size:11.04px;stroke:none;">Do Not Cite, Quote or Distribute</text>
  </g>
  <g begin="text">
   <text y="803.04" x="225.41" svgx:width="0.25" style="fill:rgb(0,0,0);font-family:TimesNewRomanPS-BoldMT;font-size:11.04px;stroke:none;"> </text>
  </g>
  <g begin="text">
   <text y="803.04" x="287.59,293.11" svgx:width="0.5,0.5" style="fill:rgb(0,0,0);font-family:TimesNewRomanPSMT;font-size:11.04px;stroke:none;">16</text>
  </g>
  <g begin="text">
   <text y="803.04" x="298.63" svgx:width="0.33" style="fill:rgb(0,0,0);font-family:TimesNewRomanPSMT;font-size:11.04px;stroke:none;">-</text>
  </g>
  <g begin="text">
   <text y="803.04" x="302.23" svgx:width="0.5" style="fill:rgb(0,0,0);font-family:TimesNewRomanPSMT;font-size:11.04px;stroke:none;">7</text>
  </g>
  <g begin="text">
   <text y="803.04" x="307.75" svgx:width="0.25" style="fill:rgb(0,0,0);font-family:TimesNewRomanPSMT;font-size:11.04px;stroke:none;"> </text>
  </g>
  <g begin="text">
   <text y="803.04" x="310.51" svgx:width="0.25" style="fill:rgb(0,0,0);font-family:TimesNewRomanPSMT;font-size:11.04px;stroke:none;"> </text>
  </g>
  <g begin="text">
   <text y="803.04" x="450.1,456.845,462.365,465.435,470.259,473.372,476.132,481.652,486.554,491.975,496.876,501.204,504.207" svgx:width="0.61,0.5,0.28,0.44,0.28,0.25,0.5,0.44,0.5,0.44,0.39,0.28,0.25" style="fill:rgb(0,0,0);font-family:TimesNewRomanPSMT;font-size:11.04px;stroke:none;">Total pages: </text>
  </g>
  <g begin="text">
   <text y="803.04" x="506.98,512.5,518.02" svgx:width="0.5,0.5,0.5" style="fill:rgb(0,0,0);font-family:TimesNewRomanPSMT;font-size:11.04px;stroke:none;">141</text>
  </g>
  <g begin="text">
   <text y="803.04" x="523.44" svgx:width="0.25" style="fill:rgb(0,0,0);font-family:TimesNewRomanPS-BoldMT;font-size:11.04px;stroke:none;"> </text>
  </g>
  <g begin="text">
   <text y="83.18" x="72.024,75.36,81.36,84.732,90.012,94.008,99.252,104.532,107.868,111.24,117.24,123.24,125.88,129.216,135.216,137.88,143.16,145.8,155.136,161.136,164.508,170.508,175.788,179.124,182.496,188.496,191.016,195.012,200.256,203.592,209.592,213.588,219.588,223.536,228.816,232.152,238.152,244.152,246.816,255.564,260.844,266.844,269.484,274.764,280.044,284.04,290.04,294.708,299.376,302.004,307.284,309.924,313.392,316.728,326.1,329.436,332.808,338.088,344.088,346.728,352.728,356.724,362.724,368.724,374.688,377.328,383.328,387.324,389.928,395.208,401.208,407.208,413.208,416.544,420.54,423.876,429.168,433.836,436.488" svgx:width="0.28,0.5,0.28,0.44,0.33,0.44,0.44,0.28,0.28,0.5,0.5,0.25,0.28,0.5,0.25,0.44,0.25,0.78,0.5,0.28,0.5,0.44,0.28,0.28,0.5,0.25,0.33,0.44,0.28,0.5,0.33,0.5,0.33,0.44,0.28,0.5,0.5,0.25,0.72,0.44,0.5,0.25,0.44,0.44,0.33,0.5,0.39,0.39,0.25,0.44,0.25,0.28,0.28,0.78,0.28,0.28,0.44,0.5,0.25,0.5,0.33,0.5,0.5,0.5,0.25,0.5,0.33,0.25,0.44,0.5,0.5,0.5,0.28,0.33,0.28,0.44,0.39,0.25,0.33" style="fill:rgb(0,0,0);font-family:TimesNewRomanPSMT;font-size:12.0px;stroke:none;">interacting in a mutually reinforcing way across a limited group of countries (</text>
  </g>
  <g begin="text">
   <text y="83.18" x="440.62,446.62,449.956,455.956,461.956,464.62,469.9,475.9,481.9,485.236,488.608,494.608,499.888,505.888,511.168" svgx:width="0.5,0.28,0.5,0.5,0.25,0.44,0.5,0.5,0.28,0.28,0.5,0.44,0.5,0.44,0.44" style="fill:rgb(0,0,0);font-family:TimesNewRomanPS-ItalicMT;font-size:12.0px;stroke:none;">high confidence</text>
  </g>
  <g begin="text">
   <text y="83.18" x="516.48,520.476,523.476" svgx:width="0.33,0.25,0.25" style="fill:rgb(0,0,0);font-family:TimesNewRomanPSMT;font-size:12.0px;stroke:none;">). </text>
  </g>
  <g begin="text">
   <text y="83.18" x="48.48" svgx:width="0.5" style="fill:rgb(0,0,0);font-family:TimesNewRomanPSMT;font-size:11.04px;stroke:none;">1</text>
  </g>
  <g begin="text">
   <text y="83.18" x="54.024" svgx:width="0.25" style="fill:rgb(0,0,0);font-family:TimesNewRomanPSMT;font-size:11.04px;stroke:none;"> </text>
  </g>
  <g begin="text">
   <text y="98.06" x="72.024,77.784,85.812,91.812,97.812,100.812,106.812,112.812,115.812,121.812,124.812,127.812,135.84,139.836,145.836,150.504" svgx:width="0.48,0.67,0.5,0.5,0.25,0.5,0.5,0.25,0.5,0.25,0.25,0.67,0.33,0.5,0.39,0.39" style="fill:rgb(0,0,0);font-family:TimesNewRomanPSMT;font-size:12.0px;stroke:none;">{Box 16.2, Cross</text>
  </g>
  <g begin="text">
   <text y="98.06" x="155.18" svgx:width="0.33" style="fill:rgb(0,0,0);font-family:TimesNewRomanPSMT;font-size:12.0px;stroke:none;">-</text>
  </g>
  <g begin="text">
   <text y="98.06" x="159.14,167.168,173.168,178.448,184.448,187.784,193.112,197.048,200.048,208.076,214.076,220.076,223.076" svgx:width="0.67,0.5,0.44,0.5,0.28,0.44,0.33,0.25,0.67,0.5,0.5,0.25,0.5" style="fill:rgb(0,0,0);font-family:TimesNewRomanPSMT;font-size:12.0px;stroke:none;">Chapter Box 1</text>
  </g>
  <g begin="text">
   <text y="98.06" x="229.13,235.13,238.13,241.466,247.466,250.466,255.794,261.794,267.05,273.05,276.386,281.714,285.65,288.65,294.65" svgx:width="0.5,0.25,0.28,0.5,0.25,0.44,0.5,0.44,0.5,0.28,0.44,0.33,0.25,0.5,0.5" style="fill:rgb(0,0,0);font-family:TimesNewRomanPSMT;font-size:12.0px;stroke:none;">0 in chapter 14</text>
  </g>
  <g begin="text">
   <text y="98.06" x="300.67,306.43" svgx:width="0.48,0.25" style="fill:rgb(0,0,0);font-family:TimesNewRomanPSMT;font-size:12.0px;stroke:none;">} </text>
  </g>
  <g begin="text">
   <text y="98.06" x="309.55" svgx:width="0.25" style="fill:rgb(0,0,0);font-family:TimesNewRomanPSMT;font-size:12.0px;stroke:none;"> </text>
  </g>
  <g begin="text">
   <text y="98.06" x="48.48" svgx:width="0.5" style="fill:rgb(0,0,0);font-family:TimesNewRomanPSMT;font-size:11.04px;stroke:none;">2</text>
  </g>
  <g begin="text">
   <text y="98.06" x="54.024" svgx:width="0.25" style="fill:rgb(0,0,0);font-family:TimesNewRomanPSMT;font-size:11.04px;stroke:none;"> </text>
  </g>
  <g begin="text">
   <text y="120.98" x="72.024" svgx:width="0.67" style="fill:rgb(0,0,0);font-family:TimesNewRomanPS-BoldMT;font-size:12.0px;stroke:none;">B</text>
  </g>
  <g begin="text">
   <text y="120.98" x="80.064,85.344,89.34,93.264,98.544,103.932,106.332,112.332,119.04,125.748,128.148,138.216,144.216,149.496,154.776,157.176,162.456,168.456,178.524,185.232,190.512,195.792,202.5,207.78,214.488,219.156,222.492,228.492,233.82,236.208,242.916,248.916,252.912,258.912,261.276,267.276,273.984,276.384,279.72,286.452,293.16,299.16,305.16,311.04,315.036,318.372,324.372,331.068,333.468,336.804,343.536,350.244,353.58,358.908,364.908,368.844,374.844,380.124,384.792,387.204,392.484,398.484,405.192,407.592,414.3,419.58,425.58,431.58,434.916,441.648,446.928,449.328,453.324,456.66,466.716,471.996,475.332,481.332,483.756,487.092,493.824,498.492,501.828,507.744,514.452,518.448,523.116" svgx:width="0.44,0.33,0.33,0.44,0.44,0.25,0.5,0.56,0.56,0.25,0.83,0.5,0.44,0.44,0.25,0.44,0.5,0.83,0.56,0.44,0.44,0.56,0.44,0.56,0.39,0.28,0.5,0.44,0.25,0.56,0.5,0.33,0.5,0.25,0.5,0.56,0.25,0.28,0.56,0.56,0.5,0.5,0.5,0.33,0.28,0.5,0.56,0.25,0.28,0.56,0.56,0.28,0.44,0.5,0.33,0.5,0.44,0.39,0.25,0.44,0.5,0.56,0.25,0.56,0.44,0.5,0.5,0.28,0.56,0.44,0.25,0.33,0.28,0.83,0.44,0.28,0.5,0.25,0.28,0.56,0.39,0.28,0.5,0.56,0.33,0.39,0.25" style="fill:rgb(0,0,0);font-family:TimesNewRomanPS-BoldMT;font-size:12.0px;stroke:none;">etter and more comprehensive data on innovation indicators can provide timely insights </text>
  </g>
  <g begin="text">
   <text y="120.98" x="48.48" svgx:width="0.5" style="fill:rgb(0,0,0);font-family:TimesNewRomanPSMT;font-size:11.04px;stroke:none;">3</text>
  </g>
  <g begin="text">
   <text y="120.98" x="54.024" svgx:width="0.25" style="fill:rgb(0,0,0);font-family:TimesNewRomanPSMT;font-size:11.04px;stroke:none;"> </text>
  </g>
  <g begin="text">
   <text y="136.1" x="72.024,76.02,82.02,87.264,90.612,97.32,103.32,106.656,110.028,115.308" svgx:width="0.33,0.5,0.44,0.25,0.56,0.5,0.28,0.28,0.44,0.5" style="fill:rgb(0,0,0);font-family:TimesNewRomanPS-BoldMT;font-size:12.0px;stroke:none;">for policy</text>
  </g>
  <g begin="text">
   <text y="136.1" x="121.34,131.408,137.408,144.116,149.396,154.676,159.344,162.704,168.704,175.412,182.12,185.468,192.176,198.176,201.512,204.884,210.164,216.164,219.512,226.22,231.5,236.168,239.504,245.504,252.248,255.596,258.932,264.932,270.26,276.26,279.596,282.932,288.932,291.932,295.304,302.012,308.012,312.008,315.344,321.344,328.04,334.04,337.376,340.748,346.748,350.096,356.096,362.804,369.512,372.86,376.1,382.808,386.804,392.048,397.328,404.036,410.036,414.032,417.368,423.368,430.064,436.064,439.4,442.772,448.772,451.772,455.12,460.4,465.068,471.788,477.068,482.348,485.684,491.684,495.056,498.392,504.392,507.764,511.76,517.76,523.004" svgx:width="0.83,0.5,0.56,0.44,0.44,0.39,0.25,0.5,0.56,0.56,0.25,0.56,0.5,0.28,0.28,0.44,0.5,0.25,0.56,0.44,0.39,0.28,0.5,0.56,0.25,0.28,0.5,0.44,0.5,0.28,0.28,0.5,0.25,0.25,0.56,0.5,0.33,0.28,0.5,0.56,0.5,0.28,0.28,0.5,0.25,0.5,0.56,0.56,0.25,0.28,0.56,0.33,0.44,0.44,0.56,0.5,0.33,0.28,0.5,0.56,0.5,0.28,0.28,0.5,0.25,0.25,0.44,0.39,0.56,0.44,0.44,0.28,0.5,0.28,0.28,0.5,0.25,0.33,0.5,0.44,0.25" style="fill:rgb(0,0,0);font-family:TimesNewRomanPS-BoldMT;font-size:12.0px;stroke:none;">makers and policy design locally, nationally and internationally, especially for </text>
  </g>
  <g begin="text">
   <text y="136.1" x="48.48" svgx:width="0.5" style="fill:rgb(0,0,0);font-family:TimesNewRomanPSMT;font-size:11.04px;stroke:none;">4</text>
  </g>
  <g begin="text">
   <text y="136.1" x="54.024" svgx:width="0.25" style="fill:rgb(0,0,0);font-family:TimesNewRomanPSMT;font-size:11.04px;stroke:none;"> </text>
  </g>
  <g begin="text">
   <text y="151.34" x="72.024,78.732,84.012,90.012,95.292,98.628,104.628,111.36,114.696,121.428,127.428,130.428,135.708,141.708,148.416,155.124,159.12,164.364,167.7,173.028,177.696,180.696,183.696,192.432,199.14,204.42,209.7,214.98,217.98,222.648,229.368,234.648,241.356,244.356,247.692,254.424,259.092,262.428,268.428,275.172,279.168,283.836,286.836,292.836,298.2,303.48,306.588,316.656,319.992,324.66,329.364,332.604,339.312,345.312,348.312,358.38,364.38,369.66,374.94,377.94,383.94,387.936,391.86,397.14,403.848" svgx:width="0.56,0.44,0.5,0.44,0.28,0.5,0.56,0.28,0.56,0.5,0.25,0.44,0.5,0.56,0.56,0.33,0.44,0.28,0.44,0.39,0.25,0.25,0.72,0.56,0.44,0.44,0.44,0.25,0.39,0.56,0.44,0.56,0.25,0.28,0.56,0.39,0.28,0.5,0.56,0.33,0.39,0.25,0.5,0.44,0.44,0.25,0.83,0.28,0.39,0.39,0.28,0.56,0.5,0.25,0.83,0.5,0.44,0.44,0.25,0.5,0.33,0.33,0.44,0.56,0.25" style="fill:rgb(0,0,0);font-family:TimesNewRomanPS-BoldMT;font-size:12.0px;stroke:none;">developing countries, where such insights are missing more often.</text>
  </g>
  <g begin="text">
   <text y="151.34" x="407.26" svgx:width="0.25" style="fill:rgb(0,0,0);font-family:TimesNewRomanPSMT;font-size:12.0px;stroke:none;"> </text>
  </g>
  <g begin="text">
   <text y="151.34" x="410.26,418.924,424.18,427.648,432.928,435.928,441.928,447.316,452.596,458.596,463.876" svgx:width="0.72,0.44,0.28,0.44,0.25,0.5,0.44,0.44,0.5,0.44,0.5" style="fill:rgb(0,0,0);font-family:TimesNewRomanPSMT;font-size:12.0px;stroke:none;">Data needed</text>
  </g>
  <g begin="text">
   <text y="151.34" x="470.02" svgx:width="0.25" style="fill:rgb(0,0,0);font-family:TimesNewRomanPSMT;font-size:12.0px;stroke:none;"> </text>
  </g>
  <g begin="text">
   <text y="151.34" x="473.02,476.356,482.356,487.684,491.02,497.02,503.02,508.3,511.3,517.3,523.408" svgx:width="0.28,0.5,0.44,0.28,0.5,0.5,0.44,0.25,0.5,0.5,0.25" style="fill:rgb(0,0,0);font-family:TimesNewRomanPSMT;font-size:12.0px;stroke:none;">include on </text>
  </g>
  <g begin="text">
   <text y="151.34" x="48.48" svgx:width="0.5" style="fill:rgb(0,0,0);font-family:TimesNewRomanPSMT;font-size:11.04px;stroke:none;">5</text>
  </g>
  <g begin="text">
   <text y="151.34" x="54.024" svgx:width="0.25" style="fill:rgb(0,0,0);font-family:TimesNewRomanPSMT;font-size:11.04px;stroke:none;"> </text>
  </g>
  <g begin="text">
   <text y="166.46" x="72.024,75.36,81.36,87.36,92.028,97.356,100.572,103.908,109.908,115.236,118.572,121.8,127.08,132.36,138.36,141.588,146.256,152.256,158.256,166.92,170.136,173.472,179.472,184.8,188.004,192.792,196.128,200.124,205.392,211.392,217.392,220.728,226.728,229.98,235.98,239.976,243.168,246.504,251.832,257.088,263.088,269.088,275.088,278.424,284.424,290.424,293.796,299.076,304.356,307.692,310.692,314.064,318.732,324.024,329.304,332.64,338.64,342.636,347.904,351.24,354.492,359.772,365.772,371.772,375.0,381.108,386.388,389.724,393.096,399.096,405.096,410.376,413.712,416.964,420.3,426.3,432.3,438.3,444.3,449.628,452.964,456.3,462.3,468.3,471.552,476.22,482.22,486.888,490.26,495.54,504.876,509.544,512.544" svgx:width="0.28,0.5,0.5,0.39,0.44,0.25,0.28,0.5,0.44,0.28,0.25,0.44,0.44,0.5,0.25,0.39,0.5,0.5,0.72,0.25,0.28,0.5,0.44,0.25,0.39,0.28,0.33,0.44,0.5,0.5,0.28,0.5,0.25,0.5,0.33,0.25,0.28,0.44,0.44,0.5,0.5,0.5,0.28,0.5,0.5,0.28,0.44,0.44,0.28,0.25,0.25,0.39,0.44,0.44,0.28,0.5,0.33,0.44,0.28,0.25,0.44,0.5,0.5,0.25,0.5,0.44,0.28,0.28,0.5,0.5,0.44,0.28,0.25,0.28,0.5,0.5,0.5,0.5,0.44,0.28,0.28,0.5,0.5,0.25,0.39,0.5,0.39,0.28,0.44,0.78,0.39,0.25,0.25" style="fill:rgb(0,0,0);font-family:TimesNewRomanPSMT;font-size:12.0px;stroke:none;">those that can show the strength of technological, sectoral and national innovation systems. </text>
  </g>
  <g begin="text">
   <text y="166.46" x="516.12,519.96,523.428" svgx:width="0.33,0.28,0.25" style="fill:rgb(0,0,0);font-family:TimesNewRomanPSMT;font-size:12.0px;stroke:none;">It </text>
  </g>
  <g begin="text">
   <text y="166.46" x="48.48" svgx:width="0.5" style="fill:rgb(0,0,0);font-family:TimesNewRomanPSMT;font-size:11.04px;stroke:none;">6</text>
  </g>
  <g begin="text">
   <text y="166.46" x="54.024" svgx:width="0.25" style="fill:rgb(0,0,0);font-family:TimesNewRomanPSMT;font-size:11.04px;stroke:none;"> </text>
  </g>
  <g begin="text">
   <text y="181.7" x="72.024,75.36,80.028,83.172,88.452,91.788,96.456,102.456,105.6,111.6,116.988,122.268,127.548,132.216,136.884,142.212,146.148,152.256,155.364,158.7,164.7,167.832,173.94,179.22,182.556,185.928,191.928,197.208,200.544,205.872,208.956,214.236,220.344,224.34,228.264,233.544,239.544,243.012,246.12,250.116,255.36,260.028,266.028,269.364,272.748,277.416,280.656,285.936,291.936,297.936,301.044,307.152,312.54,318.54,323.82,327.816,333.06,336.396,341.808,344.916,348.252,354.252,358.92,362.304,368.304,374.304,377.64,382.308,385.452,389.448,393.372,399.372,408.708,411.84,415.176,421.176,426.504,432.588,436.584,441.828,445.164,448.536,453.816,459.096,462.432,465.684,469.68,473.604,478.884,488.22,493.632,502.296,508.296,512.232,518.232,523.02" svgx:width="0.28,0.39,0.25,0.44,0.28,0.39,0.5,0.25,0.5,0.44,0.44,0.44,0.39,0.39,0.44,0.33,0.5,0.25,0.28,0.5,0.25,0.5,0.44,0.28,0.28,0.5,0.44,0.28,0.44,0.25,0.44,0.5,0.33,0.33,0.44,0.5,0.28,0.25,0.33,0.44,0.39,0.5,0.28,0.28,0.39,0.25,0.44,0.5,0.5,0.25,0.5,0.44,0.5,0.44,0.33,0.44,0.28,0.44,0.25,0.28,0.5,0.39,0.28,0.5,0.5,0.28,0.39,0.25,0.33,0.33,0.5,0.78,0.25,0.28,0.5,0.44,0.5,0.33,0.44,0.28,0.28,0.44,0.44,0.28,0.25,0.33,0.33,0.44,0.78,0.44,0.72,0.5,0.33,0.5,0.39,0.25" style="fill:rgb(0,0,0);font-family:TimesNewRomanPSMT;font-size:12.0px;stroke:none;">is also necessary to validate current results and generate insights from theoretical frameworks </text>
  </g>
  <g begin="text">
   <text y="181.7" x="48.48" svgx:width="0.5" style="fill:rgb(0,0,0);font-family:TimesNewRomanPSMT;font-size:11.04px;stroke:none;">7</text>
  </g>
  <g begin="text">
   <text y="181.7" x="54.024" svgx:width="0.25" style="fill:rgb(0,0,0);font-family:TimesNewRomanPSMT;font-size:11.04px;stroke:none;"> </text>
  </g>
  <g begin="text">
   <text y="196.82" x="72.024,77.304,83.304,89.304,92.652,97.932,107.268,113.268,116.64,120.636,123.972,129.24,134.52,137.856,141.228,145.896,149.232,155.232,161.232,164.616,169.896,174.564,177.924,181.92,187.92,191.844,195.192,201.192,206.472,212.472,217.752,221.088,227.088,233.088,236.46,242.46,248.46,251.808,257.088,263.088,269.088,275.088,278.424,282.42,285.756,291.048,295.716,299.076,304.356,310.356,316.356,319.692" svgx:width="0.44,0.5,0.5,0.25,0.44,0.78,0.5,0.28,0.33,0.28,0.44,0.44,0.28,0.25,0.39,0.28,0.5,0.5,0.28,0.44,0.39,0.25,0.33,0.5,0.33,0.25,0.5,0.44,0.5,0.44,0.28,0.5,0.5,0.28,0.5,0.5,0.25,0.44,0.5,0.5,0.5,0.28,0.33,0.28,0.44,0.39,0.25,0.44,0.5,0.5,0.28,0.44" style="fill:rgb(0,0,0);font-family:TimesNewRomanPSMT;font-size:12.0px;stroke:none;">and empirical studies for developing countries conte</text>
  </g>
  <g begin="text">
   <text y="196.82" x="325.15,331.15,334.486,339.154,342.154,345.538,349.378,355.378,361.378,367.378,373.378,378.658,381.994,385.366,391.366,397.366,400.714,405.382,408.718,414.718,420.718,424.102,429.382,434.05,437.41,443.41,449.41,452.758,458.038,464.038,469.318,475.318,478.654,483.982,487.318,490.654,496.654,502.654,506.026,511.306,517.306,523.306" svgx:width="0.5,0.28,0.39,0.25,0.25,0.33,0.5,0.5,0.5,0.5,0.44,0.28,0.28,0.5,0.5,0.25,0.39,0.28,0.5,0.5,0.28,0.44,0.39,0.25,0.5,0.5,0.25,0.44,0.5,0.44,0.5,0.28,0.44,0.28,0.28,0.5,0.5,0.25,0.44,0.5,0.5,0.25" style="fill:rgb(0,0,0);font-family:TimesNewRomanPSMT;font-size:12.0px;stroke:none;">xts. Innovation studies on adaptation and </text>
  </g>
  <g begin="text">
   <text y="196.82" x="48.48" svgx:width="0.5" style="fill:rgb(0,0,0);font-family:TimesNewRomanPSMT;font-size:11.04px;stroke:none;">8</text>
  </g>
  <g begin="text">
   <text y="196.82" x="54.024" svgx:width="0.25" style="fill:rgb(0,0,0);font-family:TimesNewRomanPSMT;font-size:11.04px;stroke:none;"> </text>
  </g>
  <g begin="text">
   <text y="212.06" x="72.024,81.36,84.732,88.068,91.44,97.44,102.72,106.056,109.428,115.428,121.428,124.428,128.736,134.736,138.072,144.072,149.4,153.336,156.336,160.644,163.98,169.98,175.308,181.308,184.308,188.592,193.98,199.98,205.26,209.256,215.256,221.256,224.256,228.528,233.808,239.808,245.808,248.808,253.236,258.516" svgx:width="0.78,0.28,0.28,0.28,0.5,0.44,0.28,0.28,0.5,0.5,0.25,0.55,0.5,0.28,0.5,0.44,0.33,0.25,0.55,0.28,0.5,0.44,0.5,0.25,0.55,0.44,0.5,0.44,0.33,0.5,0.5,0.25,0.55,0.44,0.5,0.5,0.25,0.55,0.44,0.5" style="fill:rgb(0,0,0);font-family:TimesNewRomanPSMT;font-size:12.0px;stroke:none;">mitigation other than energy and ex</text>
  </g>
  <g begin="text">
   <text y="212.06" x="264.65" svgx:width="0.33" style="fill:rgb(0,0,0);font-family:TimesNewRomanPSMT;font-size:12.0px;stroke:none;">-</text>
  </g>
  <g begin="text">
   <text y="212.06" x="268.61,274.61,280.61,285.278,288.638,291.638,295.946,301.226,305.894,310.694,316.082,320.75,325.418,334.79,340.07,346.07,349.406,354.074,357.074,361.418,367.418,371.414,374.414,378.686,382.022,388.022,393.35,396.35,400.634,405.914,409.982,413.978,419.33,424.61,427.946,431.318,437.318,442.598,448.598,453.878,458.546,463.214,466.214,470.546,476.546,480.542,483.542,487.814,493.922,499.202,503.198,506.534,512.534,518.534,523.202" svgx:width="0.5,0.5,0.39,0.28,0.25,0.55,0.44,0.39,0.39,0.44,0.39,0.39,0.78,0.44,0.5,0.28,0.39,0.25,0.55,0.5,0.33,0.25,0.55,0.28,0.5,0.44,0.25,0.55,0.44,0.33,0.33,0.44,0.44,0.28,0.28,0.5,0.44,0.5,0.44,0.39,0.39,0.25,0.55,0.5,0.33,0.25,0.55,0.5,0.44,0.33,0.28,0.5,0.5,0.39,0.25" style="fill:rgb(0,0,0);font-family:TimesNewRomanPSMT;font-size:12.0px;stroke:none;">post assessments of the effectiveness of various </text>
  </g>
  <g begin="text">
   <text y="212.06" x="48.48" svgx:width="0.5" style="fill:rgb(0,0,0);font-family:TimesNewRomanPSMT;font-size:11.04px;stroke:none;">9</text>
  </g>
  <g begin="text">
   <text y="212.06" x="54.024" svgx:width="0.25" style="fill:rgb(0,0,0);font-family:TimesNewRomanPSMT;font-size:11.04px;stroke:none;"> </text>
  </g>
  <g begin="text">
   <text y="227.18" x="72.024,75.36,81.36,87.36,93.36,99.36,104.688,108.024,111.36,117.36" svgx:width="0.28,0.5,0.5,0.5,0.5,0.44,0.28,0.28,0.5,0.5" style="fill:rgb(0,0,0);font-family:TimesNewRomanPSMT;font-size:12.0px;stroke:none;">innovation</text>
  </g>
  <g begin="text">
   <text y="227.18" x="123.38" svgx:width="0.33" style="fill:rgb(0,0,0);font-family:TimesNewRomanPSMT;font-size:12.0px;stroke:none;">-</text>
  </g>
  <g begin="text">
   <text y="227.18" x="127.34,131.336,136.58,139.916,145.244,148.58,153.86,159.86,162.86,164.528,170.528,176.528,179.864,183.236,188.516,191.984,197.264,201.932,204.932,206.612,211.892,217.892,223.892,226.892,228.56,231.896,237.896,241.268,246.548,250.544,256.544,261.788,267.788,271.124,274.496,280.496,286.496,291.164,294.164,297.164,298.844,302.18,308.18,313.508,316.844,322.844,328.844,332.18,338.18,344.18,347.18,348.872,356.9,366.236,374.9,377.9,380.9,382.568,391.232,397.232,403.232,406.568,412.448,415.448,417.116,422.396,425.732,430.316,436.316,439.316,440.984,446.984,450.98,456.98,462.98,466.316,472.316,477.584,480.584,482.252,488.252,493.532,499.532,504.812,508.808,512.144,515.48,520.148,523.148" svgx:width="0.33,0.44,0.28,0.44,0.28,0.44,0.5,0.25,0.55,0.5,0.5,0.28,0.28,0.44,0.28,0.44,0.39,0.25,0.55,0.44,0.5,0.5,0.25,0.55,0.28,0.5,0.28,0.44,0.33,0.5,0.44,0.5,0.28,0.28,0.5,0.5,0.39,0.25,0.25,0.55,0.28,0.5,0.44,0.28,0.5,0.5,0.28,0.5,0.5,0.25,0.55,0.67,0.78,0.72,0.25,0.25,0.55,0.72,0.5,0.5,0.28,0.5,0.25,0.55,0.44,0.28,0.39,0.5,0.25,0.55,0.5,0.33,0.5,0.5,0.28,0.5,0.44,0.25,0.55,0.5,0.44,0.5,0.44,0.33,0.28,0.28,0.39,0.25,0.25" style="fill:rgb(0,0,0);font-family:TimesNewRomanPSMT;font-size:12.0px;stroke:none;">related policies and interventions, including R&amp;D, would also provide benefits. </text>
  </g>
  <g begin="text">
   <text y="227.18" x="42.96,48.48" svgx:width="0.5,0.5" style="fill:rgb(0,0,0);font-family:TimesNewRomanPSMT;font-size:11.04px;stroke:none;">10</text>
  </g>
  <g begin="text">
   <text y="227.18" x="54.024" svgx:width="0.25" style="fill:rgb(0,0,0);font-family:TimesNewRomanPSMT;font-size:11.04px;stroke:none;"> </text>
  </g>
  <g begin="text">
   <text y="242.45" x="72.024,78.624,84.624,88.62,91.956,97.956,103.224,107.22,116.556,122.652,126.648,131.892,134.892,137.892,140.04,149.376,154.704,158.04,164.04,170.04,176.04,182.04,185.376,191.376,197.376,200.748,206.028,211.308,214.644,217.644,219.816,225.816,231.096,237.096,242.376,245.712,251.712,257.712,267.084,272.364" svgx:width="0.56,0.5,0.33,0.28,0.5,0.44,0.33,0.78,0.5,0.33,0.44,0.25,0.25,0.55,0.78,0.44,0.28,0.5,0.5,0.5,0.5,0.28,0.5,0.5,0.28,0.44,0.44,0.28,0.25,0.55,0.5,0.44,0.5,0.44,0.28,0.5,0.5,0.78,0.44,0.5" style="fill:rgb(0,0,0);font-family:TimesNewRomanPSMT;font-size:12.0px;stroke:none;">Furthermore, methodological developmen</text>
  </g>
  <g begin="text">
   <text y="242.45" x="278.45,281.786,286.454,289.454,291.638,294.974,300.974,303.974,306.146,309.482,318.854,324.854,328.85,334.85,340.85,346.094,349.094,351.242,354.578,360.578,365.906,368.906,371.03,376.31,382.31,385.646,389.018,392.354,395.726,401.726,404.726,406.874,412.874,416.87" svgx:width="0.28,0.39,0.25,0.55,0.28,0.5,0.25,0.55,0.28,0.78,0.5,0.33,0.5,0.5,0.44,0.25,0.55,0.28,0.5,0.44,0.25,0.55,0.44,0.5,0.28,0.28,0.28,0.28,0.5,0.25,0.55,0.5,0.33,0.25" style="fill:rgb(0,0,0);font-family:TimesNewRomanPSMT;font-size:12.0px;stroke:none;">ts to improve the ability of </text>
  </g>
  <g begin="text">
   <text y="242.45" x="422.14,425.739,431.259,434.372,439.274,444.794,448.415,453.317,456.331,461.233,466.753,469.513,471.555,479.471,483.666,487.96,492.895,497.091,501.385,509.93,514.832,520.352,523.366" svgx:width="0.33,0.5,0.28,0.44,0.5,0.33,0.44,0.28,0.44,0.5,0.25,0.55,0.72,0.39,0.39,0.44,0.39,0.39,0.78,0.44,0.5,0.28,0.25" style="fill:rgb(0,0,0);font-family:TimesNewRomanPSMT;font-size:11.04px;stroke:none;">Integrated Assessment </text>
  </g>
  <g begin="text">
   <text y="242.45" x="42.96,48.48" svgx:width="0.5,0.5" style="fill:rgb(0,0,0);font-family:TimesNewRomanPSMT;font-size:11.04px;stroke:none;">11</text>
  </g>
  <g begin="text">
   <text y="242.45" x="54.024" svgx:width="0.25" style="fill:rgb(0,0,0);font-family:TimesNewRomanPSMT;font-size:11.04px;stroke:none;"> </text>
  </g>
  <g begin="text">
   <text y="257.57" x="72.024,81.839,87.359,92.879,97.703,100.816,105.111" svgx:width="0.89,0.5,0.5,0.44,0.28,0.39,0.25" style="fill:rgb(0,0,0);font-family:TimesNewRomanPSMT;font-size:11.04px;stroke:none;">Models </text>
  </g>
  <g begin="text">
   <text y="257.57" x="107.42" svgx:width="0.33" style="fill:rgb(0,0,0);font-family:TimesNewRomanPSMT;font-size:11.04px;stroke:none;">(</text>
  </g>
  <g begin="text">
   <text y="257.57" x="111.14,114.98,123.644,134.312" svgx:width="0.33,0.72,0.89,0.39" style="fill:rgb(0,0,0);font-family:TimesNewRomanPSMT;font-size:12.0px;stroke:none;">IAMs</text>
  </g>
  <g begin="text">
   <text y="257.57" x="138.98" svgx:width="0.33" style="fill:rgb(0,0,0);font-family:TimesNewRomanPSMT;font-size:12.0px;stroke:none;">)</text>
  </g>
  <g begin="text">
   <text y="257.57" x="142.94" svgx:width="0.25" style="fill:rgb(0,0,0);font-family:TimesNewRomanPSMT;font-size:12.0px;stroke:none;"> </text>
  </g>
  <g begin="text">
   <text y="257.57" x="145.46,148.796,154.796,157.34,162.728,168.008,174.008,177.344,183.344,187.34,192.716,195.236,200.516,206.516,211.796,215.792,221.792,227.864,230.384,233.72,239.72,245.72,251.72,257.72,263.048,266.384,269.72,275.72,281.72,284.264,288.932,294.932,299.6,302.972,308.36,317.696,320.24,326.24,332.24,338.24,343.52,352.856,356.228,361.508,366.176,369.176,371.708,376.988,382.988,388.988,391.508,394.844,400.844,406.256,408.776,412.772,418.016,421.484,426.872,432.872,438.152,444.152,447.488,450.032,453.368,459.368,464.036,467.42,470.756,474.128,480.128,483.464,486.836,492.836,498.836,503.504,506.036,511.316,517.316,523.196" svgx:width="0.28,0.5,0.25,0.44,0.44,0.5,0.28,0.5,0.33,0.44,0.25,0.44,0.5,0.44,0.33,0.5,0.5,0.25,0.28,0.5,0.5,0.5,0.5,0.44,0.28,0.28,0.5,0.5,0.25,0.39,0.5,0.39,0.28,0.44,0.78,0.25,0.5,0.5,0.5,0.44,0.78,0.28,0.44,0.39,0.25,0.25,0.44,0.5,0.5,0.25,0.28,0.5,0.44,0.25,0.33,0.44,0.28,0.44,0.5,0.44,0.5,0.28,0.25,0.28,0.5,0.39,0.28,0.28,0.28,0.5,0.28,0.28,0.5,0.5,0.39,0.25,0.44,0.5,0.5,0.25" style="fill:rgb(0,0,0);font-family:TimesNewRomanPSMT;font-size:12.0px;stroke:none;">to capture energy innovation system dynamics, and the relevant institutions and </text>
  </g>
  <g begin="text">
   <text y="257.57" x="42.96,48.48" svgx:width="0.5,0.5" style="fill:rgb(0,0,0);font-family:TimesNewRomanPSMT;font-size:11.04px;stroke:none;">12</text>
  </g>
  <g begin="text">
   <text y="257.57" x="54.024" svgx:width="0.25" style="fill:rgb(0,0,0);font-family:TimesNewRomanPSMT;font-size:11.04px;stroke:none;"> </text>
  </g>
  <g begin="text">
   <text y="272.81" x="72.024,78.024,84.024,87.36,90.732,96.012,99.348,104.676,109.344,112.344,113.76,117.756,121.092,127.092,132.36,135.696,141.696,147.696,151.068,157.068,163.068,166.068,167.496,173.496,178.776,183.444,186.78,192.78,198.78,201.78,203.244,208.524,214.524,220.524,223.524,224.952,228.288,237.66,243.66,246.996,252.324,261.66,266.94,272.94,276.276,281.604,284.94,288.276,294.276,300.276,304.272,307.272,310.272,311.688,320.352,326.352,332.352,335.688,341.688,344.688,346.116,351.396,354.732,358.104,364.104,372.768,375.768,377.172,381.168,387.168,391.092,394.092,395.52,404.856,410.856,414.852,420.12,423.12,424.548,428.544,433.896,439.176,442.512,445.884,450.552,453.888,457.272,462.552,465.552,466.98,472.26,476.928,481.596,486.924,491.592,496.26,505.596,510.924,516.924,520.26,523.14" svgx:width="0.5,0.5,0.28,0.28,0.44,0.28,0.44,0.39,0.25,0.55,0.33,0.28,0.5,0.44,0.28,0.5,0.5,0.28,0.5,0.5,0.25,0.55,0.5,0.44,0.39,0.28,0.5,0.5,0.25,0.55,0.44,0.5,0.5,0.25,0.55,0.28,0.78,0.5,0.28,0.44,0.78,0.44,0.5,0.28,0.44,0.28,0.28,0.5,0.5,0.33,0.25,0.25,0.55,0.72,0.5,0.5,0.28,0.5,0.25,0.55,0.44,0.28,0.28,0.5,0.72,0.25,0.55,0.33,0.5,0.33,0.25,0.55,0.78,0.5,0.33,0.44,0.25,0.55,0.33,0.44,0.44,0.28,0.28,0.39,0.28,0.28,0.44,0.25,0.55,0.44,0.39,0.39,0.44,0.39,0.39,0.78,0.44,0.5,0.28,0.25,0.25" style="fill:rgb(0,0,0);font-family:TimesNewRomanPSMT;font-size:12.0px;stroke:none;">policies (including design and implementation), would allow for more realistic assessment. </text>
  </g>
  <g begin="text">
   <text y="272.81" x="42.96,48.48" svgx:width="0.5,0.5" style="fill:rgb(0,0,0);font-family:TimesNewRomanPSMT;font-size:11.04px;stroke:none;">13</text>
  </g>
  <g begin="text">
   <text y="272.81" x="54.024" svgx:width="0.25" style="fill:rgb(0,0,0);font-family:TimesNewRomanPSMT;font-size:11.04px;stroke:none;"> </text>
  </g>
  <g begin="text">
   <text y="287.93" x="72.024,77.784,83.784,89.784,92.784,98.784,101.784,104.784,110.784,116.784,119.784,125.784,128.784,131.784,137.784,143.784,146.784,152.784,158.544,161.544" svgx:width="0.48,0.5,0.5,0.25,0.5,0.25,0.25,0.5,0.5,0.25,0.5,0.25,0.25,0.5,0.5,0.25,0.5,0.48,0.25,0.25" style="fill:rgb(0,0,0);font-family:TimesNewRomanPSMT;font-size:12.0px;stroke:none;">{16.2, 16.3, 16.7} </text>
  </g>
  <g begin="text">
   <text y="287.93" x="164.54" svgx:width="0.25" style="fill:rgb(0,0,0);font-family:TimesNewRomanPSMT;font-size:12.0px;stroke:none;"> </text>
  </g>
  <g begin="text">
   <text y="287.93" x="42.96,48.48" svgx:width="0.5,0.5" style="fill:rgb(0,0,0);font-family:TimesNewRomanPSMT;font-size:11.04px;stroke:none;">14</text>
  </g>
  <g begin="text">
   <text y="287.93" x="54.024" svgx:width="0.25" style="fill:rgb(0,0,0);font-family:TimesNewRomanPSMT;font-size:11.04px;stroke:none;"> </text>
  </g>
  <g begin="text">
   <text y="308.33" x="72.024" svgx:width="0.25" style="fill:rgb(0,0,0);font-family:TimesNewRomanPS-ItalicMT;font-size:11.04px;stroke:none;"> </text>
  </g>
  <g begin="text">
   <text y="308.33" x="216.05" svgx:width="0.25" style="fill:rgb(0,0,0);font-family:TimesNewRomanPS-ItalicMT;font-size:11.04px;stroke:none;"> </text>
  </g>
  <g begin="text">
   <text y="308.33" x="42.96,48.48" svgx:width="0.5,0.5" style="fill:rgb(0,0,0);font-family:TimesNewRomanPSMT;font-size:11.04px;stroke:none;">15</text>
  </g>
  <g begin="text">
   <text y="308.33" x="54.024" svgx:width="0.25" style="fill:rgb(0,0,0);font-family:TimesNewRomanPSMT;font-size:11.04px;stroke:none;"> </text>
  </g>
  <g begin="text">
   <text y="602.109" transform="matrix(0.70711,-0.70711,0.70711,0.70711,-395.12956,250.29085)" rotateDegrees="-45" matrix="[29.803345,29.803345,-29.803345,29.803345,104.563255,239.8115]" x="104.563" svgx:width="0.67" style="fill:rgb(0,0,0);font-family:Arial;font-size:42.15px;stroke:none;">A</text>
   <text y="582.23" transform="matrix(0.70711,-0.70711,0.70711,0.70711,-375.25056,258.525)" rotateDegrees="-45" matrix="[29.803345,29.803345,-29.803345,29.803345,124.442085,259.6903]" x="124.442" svgx:width="0.72" style="fill:rgb(0,0,0);font-family:Arial;font-size:42.15px;stroke:none;">C</text>
   <text y="560.712" transform="matrix(0.70711,-0.70711,0.70711,0.70711,-353.73256,267.43805)" rotateDegrees="-45" matrix="[29.803345,29.803345,-29.803345,29.803345,145.9601,281.20834]" x="145.96" svgx:width="0.72" style="fill:rgb(0,0,0);font-family:Arial;font-size:42.15px;stroke:none;">C</text>
   <text y="539.194" transform="matrix(0.70711,-0.70711,0.70711,0.70711,-332.21456,276.3511)" rotateDegrees="-45" matrix="[29.803345,29.803345,-29.803345,29.803345,167.47812,302.72635]" x="167.478" svgx:width="0.67" style="fill:rgb(0,0,0);font-family:Arial;font-size:42.15px;stroke:none;">E</text>
   <text y="519.315" transform="matrix(0.70711,-0.70711,0.70711,0.70711,-312.33556,284.58525)" rotateDegrees="-45" matrix="[29.803345,29.803345,-29.803345,29.803345,187.35693,322.60516]" x="187.357" svgx:width="0.67" style="fill:rgb(0,0,0);font-family:Arial;font-size:42.15px;stroke:none;">P</text>
   <text y="499.436" transform="matrix(0.70711,-0.70711,0.70711,0.70711,-292.45656,292.8194)" rotateDegrees="-45" matrix="[29.803345,29.803345,-29.803345,29.803345,207.23578,342.484]" x="207.236" svgx:width="0.61" style="fill:rgb(0,0,0);font-family:Arial;font-size:42.15px;stroke:none;">T</text>
   <text y="481.226" transform="matrix(0.70711,-0.70711,0.70711,0.70711,-274.24656,300.36223)" rotateDegrees="-45" matrix="[29.803345,29.803345,-29.803345,29.803345,225.44562,360.69385]" x="225.446" svgx:width="0.67" style="fill:rgb(0,0,0);font-family:Arial;font-size:42.15px;stroke:none;">E</text>
   <text y="461.347" transform="matrix(0.70711,-0.70711,0.70711,0.70711,-254.36786,308.59567)" rotateDegrees="-45" matrix="[29.803345,29.803345,-29.803345,29.803345,245.32443,380.57266]" x="245.324" svgx:width="0.72" style="fill:rgb(0,0,0);font-family:Arial;font-size:42.15px;stroke:none;">D</text>
   <text y="439.829" transform="matrix(0.70711,-0.70711,0.70711,0.70711,-232.84986,317.50872)" rotateDegrees="-45" matrix="[29.803345,29.803345,-29.803345,29.803345,266.84247,402.0907]" x="266.842" svgx:width="0.28" style="fill:rgb(0,0,0);font-family:Arial;font-size:42.15px;stroke:none;"> </text>
   <text y="431.544" transform="matrix(0.70711,-0.70711,0.70711,0.70711,-224.56456,320.94119)" rotateDegrees="-45" matrix="[29.803345,29.803345,-29.803345,29.803345,275.12778,410.37604]" x="275.128" svgx:width="0.67" style="fill:rgb(0,0,0);font-family:Arial;font-size:42.15px;stroke:none;">V</text>
   <text y="411.665" transform="matrix(0.70711,-0.70711,0.70711,0.70711,-204.68556,329.17534)" rotateDegrees="-45" matrix="[29.803345,29.803345,-29.803345,29.803345,295.0066,430.25485]" x="295.007" svgx:width="0.67" style="fill:rgb(0,0,0);font-family:Arial;font-size:42.15px;stroke:none;">E</text>
   <text y="391.786" transform="matrix(0.70711,-0.70711,0.70711,0.70711,-184.80686,337.40878)" rotateDegrees="-45" matrix="[29.803345,29.803345,-29.803345,29.803345,314.88544,450.13367]" x="314.885" svgx:width="0.72" style="fill:rgb(0,0,0);font-family:Arial;font-size:42.15px;stroke:none;">R</text>
   <text y="370.268" transform="matrix(0.70711,-0.70711,0.70711,0.70711,-163.28886,346.32183)" rotateDegrees="-45" matrix="[29.803345,29.803345,-29.803345,29.803345,336.40344,471.65167]" x="336.403" svgx:width="0.67" style="fill:rgb(0,0,0);font-family:Arial;font-size:42.15px;stroke:none;">S</text>
   <text y="350.389" transform="matrix(0.70711,-0.70711,0.70711,0.70711,-143.40986,354.55598)" rotateDegrees="-45" matrix="[29.803345,29.803345,-29.803345,29.803345,356.2823,491.53052]" x="356.282" svgx:width="0.28" style="fill:rgb(0,0,0);font-family:Arial;font-size:42.15px;stroke:none;">I</text>
   <text y="342.104" transform="matrix(0.70711,-0.70711,0.70711,0.70711,-135.12456,357.98845)" rotateDegrees="-45" matrix="[29.803345,29.803345,-29.803345,29.803345,364.56763,499.81586]" x="364.568" svgx:width="0.78" style="fill:rgb(0,0,0);font-family:Arial;font-size:42.15px;stroke:none;">O</text>
   <text y="318.917" transform="matrix(0.70711,-0.70711,0.70711,0.70711,-111.93756,367.59282)" rotateDegrees="-45" matrix="[29.803345,29.803345,-29.803345,29.803345,387.75458,523.0028]" x="387.755" svgx:width="0.72" style="fill:rgb(0,0,0);font-family:Arial;font-size:42.15px;stroke:none;">N</text>
   <text y="297.399" transform="matrix(0.70711,-0.70711,0.70711,0.70711,-90.41956,376.50586)" rotateDegrees="-45" matrix="[29.803345,29.803345,-29.803345,29.803345,409.27264,544.5209]" x="409.273" svgx:width="0.28" style="fill:rgb(0,0,0);font-family:Arial;font-size:42.15px;stroke:none;"> </text>
   <text y="637.872" transform="matrix(0.70711,-0.70711,0.70711,0.70711,-409.94279,286.05456)" rotateDegrees="-45" matrix="[29.803345,29.803345,-29.803345,29.803345,140.32727,204.04747]" x="140.327" svgx:width="0.67" style="fill:rgb(0,0,0);font-family:Arial;font-size:42.15px;stroke:none;">S</text>
   <text y="617.994" transform="matrix(0.70711,-0.70711,0.70711,0.70711,-390.0645,294.289)" rotateDegrees="-45" matrix="[29.803345,29.803345,-29.803345,29.803345,160.2061,223.9263]" x="160.206" svgx:width="0.72" style="fill:rgb(0,0,0);font-family:Arial;font-size:42.15px;stroke:none;">U</text>
   <text y="596.476" transform="matrix(0.70711,-0.70711,0.70711,0.70711,-368.5465,303.20205)" rotateDegrees="-45" matrix="[29.803345,29.803345,-29.803345,29.803345,181.72412,245.4443]" x="181.724" svgx:width="0.67" style="fill:rgb(0,0,0);font-family:Arial;font-size:42.15px;stroke:none;">B</text>
   <text y="576.597" transform="matrix(0.70711,-0.70711,0.70711,0.70711,-348.6675,311.4362)" rotateDegrees="-45" matrix="[29.803345,29.803345,-29.803345,29.803345,201.60294,265.32315]" x="201.603" svgx:width="0.5" style="fill:rgb(0,0,0);font-family:Arial;font-size:42.15px;stroke:none;">J</text>
   <text y="561.695" transform="matrix(0.70711,-0.70711,0.70711,0.70711,-333.7655,317.60881)" rotateDegrees="-45" matrix="[29.803345,29.803345,-29.803345,29.803345,216.50462,280.22482]" x="216.505" svgx:width="0.67" style="fill:rgb(0,0,0);font-family:Arial;font-size:42.15px;stroke:none;">E</text>
   <text y="541.816" transform="matrix(0.70711,-0.70711,0.70711,0.70711,-313.88679,325.84225)" rotateDegrees="-45" matrix="[29.803345,29.803345,-29.803345,29.803345,236.38344,300.10364]" x="236.383" svgx:width="0.72" style="fill:rgb(0,0,0);font-family:Arial;font-size:42.15px;stroke:none;">C</text>
   <text y="520.298" transform="matrix(0.70711,-0.70711,0.70711,0.70711,-292.36879,334.7553)" rotateDegrees="-45" matrix="[29.803345,29.803345,-29.803345,29.803345,257.90146,321.62164]" x="257.901" svgx:width="0.61" style="fill:rgb(0,0,0);font-family:Arial;font-size:42.15px;stroke:none;">T</text>
   <text y="502.089" transform="matrix(0.70711,-0.70711,0.70711,0.70711,-274.1595,342.29842)" rotateDegrees="-45" matrix="[29.803345,29.803345,-29.803345,29.803345,276.1113,339.83148]" x="276.111" svgx:width="0.28" style="fill:rgb(0,0,0);font-family:Arial;font-size:42.15px;stroke:none;"> </text>
   <text y="493.803" transform="matrix(0.70711,-0.70711,0.70711,0.70711,-265.8735,345.7306)" rotateDegrees="-45" matrix="[29.803345,29.803345,-29.803345,29.803345,284.3966,348.11682]" x="284.397" svgx:width="0.61" style="fill:rgb(0,0,0);font-family:Arial;font-size:42.15px;stroke:none;">T</text>
   <text y="475.593" transform="matrix(0.70711,-0.70711,0.70711,0.70711,-247.66379,353.27272)" rotateDegrees="-45" matrix="[29.803345,29.803345,-29.803345,29.803345,302.60648,366.32666]" x="302.606" svgx:width="0.78" style="fill:rgb(0,0,0);font-family:Arial;font-size:42.15px;stroke:none;">O</text>
   <text y="452.406" transform="matrix(0.70711,-0.70711,0.70711,0.70711,-224.47679,362.87709)" rotateDegrees="-45" matrix="[29.803345,29.803345,-29.803345,29.803345,325.79346,389.51367]" x="325.793" svgx:width="0.28" style="fill:rgb(0,0,0);font-family:Arial;font-size:42.15px;stroke:none;"> </text>
   <text y="444.136" transform="matrix(0.70711,-0.70711,0.70711,0.70711,-216.2065,366.30334)" rotateDegrees="-45" matrix="[29.803345,29.803345,-29.803345,29.803345,334.0639,397.78412]" x="334.064" svgx:width="0.61" style="fill:rgb(0,0,0);font-family:Arial;font-size:42.15px;stroke:none;">F</text>
   <text y="425.926" transform="matrix(0.70711,-0.70711,0.70711,0.70711,-197.9965,373.84617)" rotateDegrees="-45" matrix="[29.803345,29.803345,-29.803345,29.803345,352.27374,415.99396]" x="352.274" svgx:width="0.28" style="fill:rgb(0,0,0);font-family:Arial;font-size:42.15px;stroke:none;">I</text>
   <text y="417.641" transform="matrix(0.70711,-0.70711,0.70711,0.70711,-189.7115,377.27793)" rotateDegrees="-45" matrix="[29.803345,29.803345,-29.803345,29.803345,360.55908,424.2793]" x="360.559" svgx:width="0.72" style="fill:rgb(0,0,0);font-family:Arial;font-size:42.15px;stroke:none;">N</text>
   <text y="396.123" transform="matrix(0.70711,-0.70711,0.70711,0.70711,-168.1935,386.19098)" rotateDegrees="-45" matrix="[29.803345,29.803345,-29.803345,29.803345,382.0771,445.7973]" x="382.077" svgx:width="0.67" style="fill:rgb(0,0,0);font-family:Arial;font-size:42.15px;stroke:none;">A</text>
   <text y="376.244" transform="matrix(0.70711,-0.70711,0.70711,0.70711,-148.3145,394.42513)" rotateDegrees="-45" matrix="[29.803345,29.803345,-29.803345,29.803345,401.95593,465.67615]" x="401.956" svgx:width="0.56" style="fill:rgb(0,0,0);font-family:Arial;font-size:42.15px;stroke:none;">L</text>
   <text y="359.673" transform="matrix(0.70711,-0.70711,0.70711,0.70711,-131.7435,401.28906)" rotateDegrees="-45" matrix="[29.803345,29.803345,-29.803345,29.803345,418.5266,482.24677]" x="418.527" svgx:width="0.28" style="fill:rgb(0,0,0);font-family:Arial;font-size:42.15px;stroke:none;"> </text>
   <text y="351.388" transform="matrix(0.70711,-0.70711,0.70711,0.70711,-123.4585,404.72082)" rotateDegrees="-45" matrix="[29.803345,29.803345,-29.803345,29.803345,426.8119,490.5321]" x="426.812" svgx:width="0.67" style="fill:rgb(0,0,0);font-family:Arial;font-size:42.15px;stroke:none;">E</text>
   <text y="331.509" transform="matrix(0.70711,-0.70711,0.70711,0.70711,-103.5795,412.95497)" rotateDegrees="-45" matrix="[29.803345,29.803345,-29.803345,29.803345,446.69073,510.41095]" x="446.691" svgx:width="0.72" style="fill:rgb(0,0,0);font-family:Arial;font-size:42.15px;stroke:none;">D</text>
   <text y="309.991" transform="matrix(0.70711,-0.70711,0.70711,0.70711,-82.0615,421.86802)" rotateDegrees="-45" matrix="[29.803345,29.803345,-29.803345,29.803345,468.20874,531.92896]" x="468.209" svgx:width="0.28" style="fill:rgb(0,0,0);font-family:Arial;font-size:42.15px;stroke:none;">I</text>
   <text y="301.706" transform="matrix(0.70711,-0.70711,0.70711,0.70711,-73.7765,425.29978)" rotateDegrees="-45" matrix="[29.803345,29.803345,-29.803345,29.803345,476.49408,540.2143]" x="476.494" svgx:width="0.61" style="fill:rgb(0,0,0);font-family:Arial;font-size:42.15px;stroke:none;">T</text>
   <text y="283.496" transform="matrix(0.70711,-0.70711,0.70711,0.70711,-55.5665,432.84261)" rotateDegrees="-45" matrix="[29.803345,29.803345,-29.803345,29.803345,494.70392,558.42413]" x="494.704" svgx:width="0.67" style="fill:rgb(0,0,0);font-family:Arial;font-size:42.15px;stroke:none;">S</text>
  </g>
 </g>
</svg>
