<?xml version="1.0" encoding="UTF-8"?>
<svg height="813.04" width="2582.0" xmlns="http://www.w3.org/2000/svg">
 <g id="page" xmlns:svgx="http://www.xml-cml.org/schema/svgx">
  <g begin="text">
   <text y="45.72" x="72.024,78.162,81.231,86.751,91.587,94.7,97.46,105.376,110.896,116.416,121.218,124.928,130.448,138.971,143.872,149.392,152.517,155.277,163.082,166.791,171.594,175.303" svgx:width="0.56,0.28,0.5,0.44,0.28,0.25,0.72,0.5,0.5,0.44,0.33,0.5,0.78,0.44,0.5,0.28,0.25,0.72,0.33,0.44,0.33,0.28" style="fill:rgb(0,0,0);font-family:TimesNewRomanPSMT;font-size:11.04px;stroke:none;">Final Government Draft</text>
  </g>
  <g begin="text">
   <text y="45.72" x="178.37" svgx:width="0.25" style="fill:rgb(0,0,0);font-family:TimesNewRomanPSMT;font-size:11.04px;stroke:none;"> </text>
  </g>
  <g begin="text">
   <text y="45.72" x="273.41,280.729,286.249,291.151,296.671,299.796,304.598,308.307,311.067,316.587" svgx:width="0.67,0.5,0.44,0.5,0.28,0.44,0.33,0.25,0.5,0.5" style="fill:rgb(0,0,0);font-family:TimesNewRomanPSMT;font-size:11.04px;stroke:none;">Chapter 16</text>
  </g>
  <g begin="text">
   <text y="45.72" x="322.03" svgx:width="0.25" style="fill:rgb(0,0,0);font-family:TimesNewRomanPSMT;font-size:11.04px;stroke:none;"> </text>
  </g>
  <g begin="text">
   <text y="45.72" x="443.38" svgx:width="0.33" style="fill:rgb(0,0,0);font-family:TimesNewRomanPSMT;font-size:11.04px;stroke:none;">I</text>
  </g>
  <g begin="text">
   <text y="45.72" x="446.98,453.118,460.416,467.735" svgx:width="0.56,0.67,0.67,0.25" style="fill:rgb(0,0,0);font-family:TimesNewRomanPSMT;font-size:11.04px;stroke:none;">PCC </text>
  </g>
  <g begin="text">
   <text y="45.72" x="470.5,478.416,485.735,491.255" svgx:width="0.72,0.67,0.5,0.25" style="fill:rgb(0,0,0);font-family:TimesNewRomanPSMT;font-size:11.04px;stroke:none;">AR6 </text>
  </g>
  <g begin="text">
   <text y="45.72" x="494.02,504.442,512.413,516.089,519.699" svgx:width="0.94,0.72,0.33,0.33,0.33" style="fill:rgb(0,0,0);font-family:TimesNewRomanPSMT;font-size:11.04px;stroke:none;">WGIII</text>
  </g>
  <g begin="text">
   <text y="45.72" x="523.44" svgx:width="0.25" style="fill:rgb(0,0,0);font-family:TimesNewRomanPSMT;font-size:11.04px;stroke:none;"> </text>
  </g>
  <g begin="text">
   <text y="803.04" x="72.024,79.94,85.46,88.22,96.135,101.655,105.365,108.125,116.04,119.154,122.753,127.655,130.415,133.075,141.708,147.847,153.367,157.043,161.868,164.628,170.148,175.049,177.809,185.78,188.75,192.945,196.655,201.556,204.681,210.819,216.803,220.512" svgx:width="0.72,0.5,0.25,0.72,0.5,0.33,0.25,0.72,0.28,0.33,0.44,0.25,0.25,0.78,0.56,0.5,0.33,0.44,0.25,0.5,0.44,0.25,0.72,0.28,0.39,0.33,0.44,0.28,0.56,0.56,0.33,0.44" style="fill:rgb(0,0,0);font-family:TimesNewRomanPS-BoldMT;font-size:11.04px;stroke:none;">Do Not Cite, Quote or Distribute</text>
  </g>
  <g begin="text">
   <text y="803.04" x="225.41" svgx:width="0.25" style="fill:rgb(0,0,0);font-family:TimesNewRomanPS-BoldMT;font-size:11.04px;stroke:none;"> </text>
  </g>
  <g begin="text">
   <text y="803.04" x="284.83,290.35" svgx:width="0.5,0.5" style="fill:rgb(0,0,0);font-family:TimesNewRomanPSMT;font-size:11.04px;stroke:none;">16</text>
  </g>
  <g begin="text">
   <text y="803.04" x="295.87" svgx:width="0.33" style="fill:rgb(0,0,0);font-family:TimesNewRomanPSMT;font-size:11.04px;stroke:none;">-</text>
  </g>
  <g begin="text">
   <text y="803.04" x="299.47,304.99" svgx:width="0.5,0.5" style="fill:rgb(0,0,0);font-family:TimesNewRomanPSMT;font-size:11.04px;stroke:none;">74</text>
  </g>
  <g begin="text">
   <text y="803.04" x="310.51" svgx:width="0.25" style="fill:rgb(0,0,0);font-family:TimesNewRomanPSMT;font-size:11.04px;stroke:none;"> </text>
  </g>
  <g begin="text">
   <text y="803.04" x="313.27" svgx:width="0.25" style="fill:rgb(0,0,0);font-family:TimesNewRomanPSMT;font-size:11.04px;stroke:none;"> </text>
  </g>
  <g begin="text">
   <text y="803.04" x="450.1,456.845,462.365,465.435,470.259,473.372,476.132,481.652,486.554,491.975,496.876,501.204,504.207" svgx:width="0.61,0.5,0.28,0.44,0.28,0.25,0.5,0.44,0.5,0.44,0.39,0.28,0.25" style="fill:rgb(0,0,0);font-family:TimesNewRomanPSMT;font-size:11.04px;stroke:none;">Total pages: </text>
  </g>
  <g begin="text">
   <text y="803.04" x="506.98,512.5,518.02" svgx:width="0.5,0.5,0.5" style="fill:rgb(0,0,0);font-family:TimesNewRomanPSMT;font-size:11.04px;stroke:none;">141</text>
  </g>
  <g begin="text">
   <text y="803.04" x="523.44" svgx:width="0.25" style="fill:rgb(0,0,0);font-family:TimesNewRomanPS-BoldMT;font-size:11.04px;stroke:none;"> </text>
  </g>
  <g begin="text">
   <text y="82.34" x="72.024,79.343,84.863,87.977,91.09,96.489,99.602,105.122,110.642,113.038,118.436,123.956,126.352,131.254,136.774,139.07,143.972,148.785,152.495,155.497,158.611,163.512,167.134,169.529,175.049,178.052,182.347,187.282,192.68,196.975,201.313,204.427,209.825,215.345,217.741,223.261,226.86,229.256,232.369,237.171,242.073,247.593,253.113,258.534,261.647,267.167,272.687" svgx:width="0.67,0.5,0.28,0.28,0.5,0.28,0.5,0.5,0.25,0.5,0.5,0.25,0.44,0.5,0.25,0.44,0.44,0.33,0.28,0.28,0.44,0.33,0.25,0.5,0.28,0.39,0.44,0.5,0.39,0.39,0.28,0.5,0.5,0.25,0.5,0.33,0.25,0.28,0.44,0.44,0.5,0.5,0.5,0.28,0.5,0.5,0.5" style="fill:rgb(0,0,0);font-family:TimesNewRomanPSMT;font-size:11.04px;stroke:none;">Building on an earlier discussion of technology</text>
  </g>
  <g begin="text">
   <text y="82.34" x="278.33" svgx:width="0.33" style="fill:rgb(0,0,0);font-family:TimesNewRomanPSMT;font-size:11.04px;stroke:none;">-</text>
  </g>
  <g begin="text">
   <text y="82.34" x="281.93,287.45,291.049,294.162,299.064,304.485,307.598,312.4,317.92,320.316,325.218,330.738,336.258,338.676,342.871,347.773,352.586,355.699,361.219,364.818,369.72,372.844,375.13,380.031,385.551,389.173,394.074,398.888,407.521,412.423,417.843,420.957,425.251" svgx:width="0.5,0.33,0.28,0.44,0.5,0.28,0.44,0.5,0.25,0.44,0.5,0.5,0.25,0.39,0.44,0.44,0.28,0.5,0.33,0.44,0.28,0.25,0.44,0.5,0.33,0.44,0.44,0.78,0.44,0.5,0.28,0.39,0.25" style="fill:rgb(0,0,0);font-family:TimesNewRomanPSMT;font-size:11.04px;stroke:none;">oriented and sectoral agreements </text>
  </g>
  <g begin="text">
   <text y="82.34" x="427.66,431.259,441.074,446.008,450.91,456.331,459.444,462.557,467.956,473.476,475.872,480.773,486.293,491.714,494.11,501.429,506.949,512.469,517.989,523.388" svgx:width="0.33,0.89,0.44,0.44,0.5,0.28,0.28,0.5,0.5,0.25,0.44,0.5,0.5,0.25,0.67,0.5,0.5,0.5,0.5,0.25" style="fill:rgb(0,0,0);font-family:TimesNewRomanPSMT;font-size:11.04px;stroke:none;">(Meckling and Chung </text>
  </g>
  <g begin="text">
   <text y="82.34" x="48.48" svgx:width="0.5" style="fill:rgb(0,0,0);font-family:TimesNewRomanPSMT;font-size:11.04px;stroke:none;">1</text>
  </g>
  <g begin="text">
   <text y="82.34" x="54.024" svgx:width="0.25" style="fill:rgb(0,0,0);font-family:TimesNewRomanPSMT;font-size:11.04px;stroke:none;"> </text>
  </g>
  <g begin="text">
   <text y="96.26" x="72.024,77.544,83.064,88.584,94.104" svgx:width="0.5,0.5,0.5,0.5,0.33" style="fill:rgb(0,0,0);font-family:TimesNewRomanPSMT;font-size:11.04px;stroke:none;">2009)</text>
  </g>
  <g begin="text">
   <text y="96.26" x="97.824" svgx:width="0.25" style="fill:rgb(0,0,0);font-family:TimesNewRomanPSMT;font-size:11.04px;stroke:none;"> </text>
  </g>
  <g begin="text">
   <text y="96.26" x="100.58,105.482,111.002,116.522,119.182,122.296,127.816,132.717,135.477,140.997,146.517,149.531,154.433,159.953,162.967,166.08,170.883,173.996,176.756,180.465,185.864,189.573,192.333,195.447,200.967,203.97,208.871,212.603,218.123,222.925,225.928,229.041,234.561" svgx:width="0.44,0.5,0.5,0.25,0.28,0.5,0.44,0.25,0.5,0.5,0.28,0.44,0.5,0.28,0.28,0.44,0.28,0.25,0.33,0.5,0.33,0.25,0.28,0.5,0.28,0.44,0.33,0.5,0.44,0.28,0.28,0.5,0.5" style="fill:rgb(0,0,0);font-family:TimesNewRomanPSMT;font-size:11.04px;stroke:none;">and the potential for internation</text>
  </g>
  <g begin="text">
   <text y="96.26" x="240.17,244.972,248.086,250.846,255.747,261.267,266.787,272.307,277.121,280.83,285.633,288.746,291.859,297.258,302.778,305.538,308.651,314.05,316.81,321.711,327.231,332.155,335.865,341.385" svgx:width="0.44,0.28,0.25,0.44,0.5,0.5,0.5,0.44,0.33,0.44,0.28,0.28,0.5,0.5,0.25,0.28,0.5,0.25,0.44,0.5,0.44,0.33,0.5,0.5" style="fill:rgb(0,0,0);font-family:TimesNewRomanPSMT;font-size:11.04px;stroke:none;">al cooperation in energy</text>
  </g>
  <g begin="text">
   <text y="96.26" x="346.99" svgx:width="0.33" style="fill:rgb(0,0,0);font-family:TimesNewRomanPSMT;font-size:11.04px;stroke:none;">-</text>
  </g>
  <g begin="text">
   <text y="96.26" x="350.59,353.703,359.102,362.215,367.117,372.537,376.832,379.967,385.366,390.268,393.028,396.152,401.672,407.192,412.591,416.885,419.91,423.62,429.14" svgx:width="0.28,0.5,0.28,0.44,0.5,0.39,0.28,0.5,0.44,0.25,0.28,0.5,0.5,0.5,0.39,0.28,0.33,0.5,0.25" style="fill:rgb(0,0,0);font-family:TimesNewRomanPSMT;font-size:11.04px;stroke:none;">intensive industry </text>
  </g>
  <g begin="text">
   <text y="96.26" x="431.98,435.579,443.495,449.015,457.648,462.55,468.07,470.83,475.643,478.756,481.516,486.418,489.543,492.303,495.063,500.583,506.103,511.623,517.021" svgx:width="0.33,0.72,0.5,0.78,0.44,0.5,0.25,0.44,0.28,0.25,0.44,0.28,0.25,0.25,0.5,0.5,0.5,0.5,0.33" style="fill:rgb(0,0,0);font-family:TimesNewRomanPSMT;font-size:11.04px;stroke:none;">(Åhman et al. 2017)</text>
  </g>
  <g begin="text">
   <text y="96.26" x="520.8,523.44" svgx:width="0.25,0.25" style="fill:rgb(0,0,0);font-family:TimesNewRomanPSMT;font-size:11.04px;stroke:none;">, </text>
  </g>
  <g begin="text">
   <text y="96.26" x="48.48" svgx:width="0.5" style="fill:rgb(0,0,0);font-family:TimesNewRomanPSMT;font-size:11.04px;stroke:none;">2</text>
  </g>
  <g begin="text">
   <text y="96.26" x="54.024" svgx:width="0.25" style="fill:rgb(0,0,0);font-family:TimesNewRomanPSMT;font-size:11.04px;stroke:none;"> </text>
  </g>
  <g begin="text">
   <text y="110.18" x="72.024,79.94,85.46,90.361,94.093,98.995,101.75500000000001,104.758,110.278,115.08,119.982,125.502,128.262,131.265,136.166,144.7,147.814,152.009,156.303,159.439,164.837,170.357,173.117,176.109,179.819,184.72,190.141,195.661,200.563,203.577,206.69,212.21,217.73,220.48999999999998,223.482,232.005,236.906,241.83,246.125,251.545,255.255,260.057,264.352,267.11199999999997,270.126,273.835,278.737,284.257,289.678,292.791,296.39,301.292,304.05199999999996,307.055,310.057,313.767,318.669,324.189,328.406,332.115,337.635,341.234,349.868,354.67,357.783,360.786,366.306,371.208,373.968,376.971,381.873,387.393,392.206,397.726,403.246,408.148,412.476,415.236,418.106,421.815,426.11,430.935,435.836,438.596,441.599,446.501,449.625,453.92,459.44,462.2,465.214,472.533,478.053,482.856,488.376,491.489,496.291,500.001,502.76099999999997,505.753,511.273,516.793,520.392,523.03" svgx:width="0.72,0.5,0.44,0.33,0.44,0.25,0.55,0.5,0.44,0.44,0.5,0.25,0.55,0.44,0.78,0.28,0.39,0.39,0.28,0.5,0.5,0.25,0.55,0.33,0.44,0.5,0.5,0.44,0.28,0.28,0.5,0.5,0.25,0.55,0.78,0.44,0.44,0.39,0.5,0.33,0.44,0.39,0.25,0.55,0.33,0.44,0.5,0.5,0.28,0.33,0.44,0.25,0.55,0.28,0.33,0.44,0.5,0.39,0.33,0.5,0.33,0.78,0.44,0.28,0.28,0.5,0.44,0.25,0.55,0.44,0.5,0.44,0.5,0.5,0.44,0.39,0.25,0.55,0.33,0.39,0.44,0.44,0.25,0.55,0.44,0.28,0.39,0.5,0.25,0.55,0.67,0.5,0.44,0.5,0.28,0.44,0.33,0.25,0.55,0.5,0.5,0.33,0.25,0.25" style="fill:rgb(0,0,0);font-family:TimesNewRomanPSMT;font-size:11.04px;stroke:none;">where deep emission reduction measures require transformative changes (see also Chapter 11), </text>
  </g>
  <g begin="text">
   <text y="110.18" x="48.48" svgx:width="0.5" style="fill:rgb(0,0,0);font-family:TimesNewRomanPSMT;font-size:11.04px;stroke:none;">3</text>
  </g>
  <g begin="text">
   <text y="110.18" x="54.024" svgx:width="0.25" style="fill:rgb(0,0,0);font-family:TimesNewRomanPSMT;font-size:11.04px;stroke:none;"> </text>
  </g>
  <g begin="text">
   <text y="124.1" x="72.024,79.94,85.46,90.361,94.093,97.206,102.605,108.125,111.834,115.422,120.324,123.448,126.208,127.036,131.938,135.062" svgx:width="0.72,0.5,0.44,0.33,0.28,0.5,0.5,0.33,0.25,0.44,0.28,0.25,0.55,0.44,0.28,0.25" style="fill:rgb(0,0,0);font-family:TimesNewRomanPSMT;font-size:11.04px;stroke:none;">Oberthür et al </text>
  </g>
  <g begin="text">
   <text y="124.1" x="138.74,142.449,147.969,153.489,159.009,164.408" svgx:width="0.33,0.5,0.5,0.5,0.5,0.33" style="fill:rgb(0,0,0);font-family:TimesNewRomanPSMT;font-size:11.04px;stroke:none;">(2021)</text>
  </g>
  <g begin="text">
   <text y="124.1" x="168.17" svgx:width="0.25" style="fill:rgb(0,0,0);font-family:TimesNewRomanPSMT;font-size:11.04px;stroke:none;"> </text>
  </g>
  <g begin="text">
   <text y="124.1" x="171.89,177.289,180.998,186.518,191.917,197.437,201.731,206.666,209.426,210.375,213.378,218.898,223.701,226.814,229.57399999999998,230.523,233.637,239.035,243.937,246.697,247.669,253.067,256.18,261.7,267.22,272.023,275.136,277.896,278.846,284.366,289.886,295.284,300.186,303.917,309.316,314.118,319.638,324.54,329.464,332.224,333.173,336.772,342.292,346.002,349.59,354.492,360.012,364.935,368.535,374.055" svgx:width="0.5,0.33,0.5,0.5,0.5,0.39,0.44,0.25,0.55,0.28,0.5,0.44,0.28,0.25,0.55,0.28,0.5,0.44,0.25,0.55,0.5,0.28,0.5,0.5,0.44,0.28,0.25,0.55,0.5,0.5,0.5,0.44,0.33,0.5,0.44,0.5,0.44,0.44,0.25,0.55,0.33,0.5,0.33,0.25,0.44,0.5,0.44,0.33,0.5,0.5" style="fill:rgb(0,0,0);font-family:TimesNewRomanPSMT;font-size:11.04px;stroke:none;">propose that the global governance for energy</text>
  </g>
  <g begin="text">
   <text y="124.1" x="379.75" svgx:width="0.33" style="fill:rgb(0,0,0);font-family:TimesNewRomanPSMT;font-size:11.04px;stroke:none;">-</text>
  </g>
  <g begin="text">
   <text y="124.1" x="383.35,386.463,391.862,394.975,399.877,405.397,409.614,412.727,418.247,423.149,425.909,426.759,429.873,435.271,440.791,446.311,450.606,453.631,457.34,462.86,466.448,469.561,475.081,478.791,484.311,489.709,495.229,500.749,503.509,504.459,508.753,514.174" svgx:width="0.28,0.5,0.28,0.44,0.5,0.39,0.28,0.5,0.44,0.25,0.55,0.28,0.5,0.5,0.5,0.39,0.28,0.33,0.5,0.25,0.28,0.5,0.33,0.5,0.5,0.5,0.5,0.25,0.55,0.39,0.5,0.5" style="fill:rgb(0,0,0);font-family:TimesNewRomanPSMT;font-size:11.04px;stroke:none;">intensive industry through sub</text>
  </g>
  <g begin="text">
   <text y="124.1" x="519.84" svgx:width="0.33" style="fill:rgb(0,0,0);font-family:TimesNewRomanPSMT;font-size:11.04px;stroke:none;">-</text>
  </g>
  <g begin="text">
   <text y="124.1" x="48.48" svgx:width="0.5" style="fill:rgb(0,0,0);font-family:TimesNewRomanPSMT;font-size:11.04px;stroke:none;">4</text>
  </g>
  <g begin="text">
   <text y="124.1" x="54.024" svgx:width="0.25" style="fill:rgb(0,0,0);font-family:TimesNewRomanPSMT;font-size:11.04px;stroke:none;"> </text>
  </g>
  <g begin="text">
   <text y="138.02" x="72.024,76.319,81.253,86.155,89.169,94.689,98.399,101.159,102.108,105.817,110.62,113.733,119.253,124.773,128.968,132.678,135.438,136.509,139.512,145.032,149.933,152.947,155.707,156.778,159.891,165.29,170.192,173.316,178.836,184.235,189.136,191.896,192.868,198.388,203.908,209.428,214.33,218.061,223.46,232.093,236.895,242.415,245.529,250.331,253.444,256.204,258.964,260.035,265.434,269.143,272.146,277.666,282.568,285.582,290.484,293.24399999999997,294.326,299.227,304.747,310.168,312.928,313.877,318.172,323.692,328.627,331.63,336.531,339.656,344.458,347.571,350.331,351.402,356.205,361.107,364.231,369.629,373.339,377.633,380.393,381.365,386.267,391.787,397.207,400.321,405.841,408.601,409.671,415.191,419.994,422.754,423.825,428.727,432.348,435.947,440.848,445.772,448.775,451.888,457.408,462.31,465.07,466.152,474.068,478.87,484.39,487.15,488.221,491.931,497.329,501.039,508.954,513.856,517.477,522.997" svgx:width="0.39,0.44,0.44,0.28,0.5,0.33,0.25,0.55,0.33,0.44,0.28,0.5,0.5,0.39,0.33,0.25,0.55,0.28,0.5,0.44,0.28,0.25,0.55,0.28,0.5,0.44,0.28,0.5,0.5,0.44,0.25,0.55,0.5,0.5,0.5,0.44,0.33,0.5,0.78,0.44,0.5,0.28,0.44,0.28,0.25,0.25,0.55,0.5,0.33,0.28,0.5,0.44,0.28,0.44,0.25,0.55,0.44,0.5,0.5,0.25,0.55,0.39,0.5,0.44,0.28,0.44,0.28,0.44,0.28,0.25,0.55,0.44,0.44,0.28,0.5,0.33,0.39,0.25,0.55,0.44,0.5,0.5,0.28,0.5,0.25,0.55,0.5,0.44,0.25,0.55,0.44,0.33,0.33,0.44,0.44,0.28,0.28,0.5,0.44,0.25,0.55,0.72,0.44,0.5,0.25,0.55,0.33,0.5,0.33,0.72,0.44,0.33,0.5,0.25" style="fill:rgb(0,0,0);font-family:TimesNewRomanPSMT;font-size:11.04px;stroke:none;">sector ‘clubs’ that include governmental, private and societal actors could be effective way forward </text>
  </g>
  <g begin="text">
   <text y="138.02" x="48.48" svgx:width="0.5" style="fill:rgb(0,0,0);font-family:TimesNewRomanPSMT;font-size:11.04px;stroke:none;">5</text>
  </g>
  <g begin="text">
   <text y="138.02" x="54.024" svgx:width="0.25" style="fill:rgb(0,0,0);font-family:TimesNewRomanPSMT;font-size:11.04px;stroke:none;"> </text>
  </g>
  <g begin="text">
   <text y="151.94" x="72.024,75.733,83.649,89.169,94.071,97.692,100.805,106.325,111.724,115.433,118.193,123.095,126.109,128.869,133.771,136.895,139.534,142.294,147.814,153.334,158.854,164.252" svgx:width="0.33,0.72,0.5,0.44,0.33,0.28,0.5,0.5,0.33,0.25,0.44,0.28,0.25,0.44,0.28,0.25,0.25,0.5,0.5,0.5,0.5,0.33" style="fill:rgb(0,0,0);font-family:TimesNewRomanPSMT;font-size:11.04px;stroke:none;">(Oberthür et al. 2021)</text>
  </g>
  <g begin="text">
   <text y="151.94" x="168.05,170.81" svgx:width="0.25,0.25" style="fill:rgb(0,0,0);font-family:TimesNewRomanPSMT;font-size:11.04px;stroke:none;">. </text>
  </g>
  <g begin="text">
   <text y="151.94" x="173.45" svgx:width="0.25" style="fill:rgb(0,0,0);font-family:TimesNewRomanPSMT;font-size:11.04px;stroke:none;"> </text>
  </g>
  <g begin="text">
   <text y="151.94" x="48.48" svgx:width="0.5" style="fill:rgb(0,0,0);font-family:TimesNewRomanPSMT;font-size:11.04px;stroke:none;">6</text>
  </g>
  <g begin="text">
   <text y="151.94" x="54.024" svgx:width="0.25" style="fill:rgb(0,0,0);font-family:TimesNewRomanPSMT;font-size:11.04px;stroke:none;"> </text>
  </g>
  <g begin="text">
   <text y="171.86" x="72.024,78.769,84.289,89.191" svgx:width="0.61,0.5,0.44,0.78" style="fill:rgb(0,0,0);font-family:TimesNewRomanPSMT;font-size:11.04px;stroke:none;">Exam</text>
  </g>
  <g begin="text">
   <text y="171.86" x="97.824,103.223,106.336,111.238,115.455,118.215,120.246,125.766,129.365,132.125,134.157,138.959,147.592,152.395,156.104,161.624,164.737,170.136,175.656,178.416,180.326,183.439,188.959,193.762,198.663,202.991,205.751,207.782,211.381,216.901,220.611,223.37099999999998,225.281,228.394,233.793,236.906,241.808,245.429,250.949,255.851,258.864,261.978,267.498,272.896,277.798,280.922,283.682,285.592,290.494,296.014,301.534,306.955,311.856,315.478,320.379,323.504,326.507,332.027,337.547,340.307,342.338,347.858,353.257,356.017,358.048,362.85,365.964,368.966,377.6,382.402,385.515,390.417,393.17699999999996,395.109,398.222,403.124,407.938,413.458,418.978,424.498,427.5,432.899,438.419,443.939,446.699,449.459,451.49,456.392,460.609,463.36899999999997,465.401,473.316,478.218,481.232,484.345,487.105,489.015,493.917,498.245,501.005,502.915,506.028,511.548,516.35,519.464,523.063" svgx:width="0.5,0.28,0.44,0.39,0.25,0.55,0.5,0.33,0.25,0.55,0.44,0.78,0.44,0.33,0.5,0.28,0.5,0.5,0.25,0.55,0.28,0.5,0.44,0.44,0.39,0.25,0.55,0.33,0.5,0.33,0.25,0.55,0.28,0.5,0.28,0.44,0.33,0.5,0.44,0.28,0.28,0.5,0.5,0.44,0.28,0.25,0.55,0.44,0.5,0.5,0.5,0.44,0.33,0.44,0.28,0.28,0.5,0.5,0.25,0.55,0.5,0.5,0.25,0.55,0.44,0.28,0.28,0.78,0.44,0.28,0.44,0.25,0.55,0.28,0.44,0.44,0.5,0.5,0.5,0.28,0.5,0.5,0.5,0.25,0.25,0.55,0.44,0.39,0.25,0.55,0.72,0.44,0.28,0.28,0.25,0.55,0.44,0.39,0.25,0.55,0.28,0.5,0.44,0.28,0.33,0.25" style="fill:rgb(0,0,0);font-family:TimesNewRomanPSMT;font-size:11.04px;stroke:none;">ples of emerging ideas for international cooperation on climate technology, as well as their </text>
  </g>
  <g begin="text">
   <text y="171.86" x="48.48" svgx:width="0.5" style="fill:rgb(0,0,0);font-family:TimesNewRomanPSMT;font-size:11.04px;stroke:none;">7</text>
  </g>
  <g begin="text">
   <text y="171.86" x="54.024" svgx:width="0.25" style="fill:rgb(0,0,0);font-family:TimesNewRomanPSMT;font-size:11.04px;stroke:none;"> </text>
  </g>
  <g begin="text">
   <text y="185.78" x="72.024,75.733,80.635,83.649,88.551,91.565,94.678,100.198,105.718,108.47800000000001,110.631,113.634,119.154,121.914,124.067,127.18,132.7,137.602,140.362,142.525,147.924,153.444,156.447,161.349,166.272,169.275,172.389,177.909,182.711,187.006,189.766,191.819,196.721,202.241,207.761,210.521,212.685,217.586,223.007,226.12,230.415,233.44,236.553,242.073,247.593,250.35299999999998,252.506,257.308,261.018,264.617,270.137,273.736,276.849,281.144,283.904,286.664,288.839,293.74,299.26,304.78,307.53999999999996,309.583,312.586,318.106,320.866,323.019,326.728,331.63,334.644,339.545,342.559,345.673,351.193,356.713,359.473,361.625,364.628,370.148,372.908,375.061,378.174,383.694,388.596,391.356,393.399,396.512,401.414,406.834,411.736,414.86,417.62,419.773,425.172,428.881,431.64099999999996,433.672,439.192,444.094,449.614,454.538,457.541,463.061,468.581,477.104,482.006,487.426,490.539,493.299,495.452,500.972,504.682,507.442,509.595,512.597,518.117,523.019" svgx:width="0.33,0.44,0.28,0.44,0.28,0.28,0.5,0.5,0.25,0.55,0.28,0.5,0.25,0.55,0.28,0.5,0.44,0.25,0.55,0.5,0.5,0.28,0.44,0.44,0.28,0.28,0.5,0.44,0.39,0.25,0.55,0.44,0.5,0.5,0.25,0.55,0.44,0.5,0.28,0.39,0.28,0.28,0.5,0.5,0.25,0.55,0.44,0.33,0.33,0.5,0.33,0.28,0.39,0.25,0.25,0.55,0.44,0.5,0.5,0.25,0.55,0.28,0.5,0.25,0.55,0.33,0.44,0.28,0.44,0.28,0.28,0.5,0.5,0.25,0.55,0.28,0.5,0.25,0.55,0.28,0.5,0.44,0.25,0.55,0.28,0.44,0.5,0.44,0.28,0.25,0.55,0.5,0.33,0.25,0.55,0.5,0.44,0.5,0.44,0.28,0.5,0.5,0.78,0.44,0.5,0.28,0.25,0.55,0.5,0.33,0.25,0.55,0.28,0.5,0.44,0.25" style="fill:rgb(0,0,0);font-family:TimesNewRomanPSMT;font-size:11.04px;stroke:none;">relation to the objectives and existing efforts, and in relation to the level of development of the </text>
  </g>
  <g begin="text">
   <text y="185.78" x="48.48" svgx:width="0.5" style="fill:rgb(0,0,0);font-family:TimesNewRomanPSMT;font-size:11.04px;stroke:none;">8</text>
  </g>
  <g begin="text">
   <text y="185.78" x="54.024" svgx:width="0.25" style="fill:rgb(0,0,0);font-family:TimesNewRomanPSMT;font-size:11.04px;stroke:none;"> </text>
  </g>
  <g begin="text">
   <text y="199.7" x="72.024,75.137,80.657,86.177,91.697,97.217,102.02,105.023,108.136,113.656,119.176,121.461,125.756,131.276,135.504,138.617,143.42,152.053,154.449,159.251,162.961,168.481,174.001,179.521,184.919,187.315,192.217,194.513,197.626,202.528,207.452,212.972,218.37,223.89,227.004,232.524,237.922,243.442" svgx:width="0.28,0.5,0.5,0.5,0.5,0.44,0.28,0.28,0.5,0.5,0.25,0.39,0.5,0.39,0.28,0.44,0.78,0.25,0.44,0.33,0.5,0.5,0.5,0.5,0.25,0.44,0.25,0.28,0.44,0.44,0.5,0.5,0.5,0.28,0.5,0.5,0.5,0.25" style="fill:rgb(0,0,0);font-family:TimesNewRomanPSMT;font-size:11.04px;stroke:none;">innovation system around a technology </text>
  </g>
  <g begin="text">
   <text y="199.7" x="245.81,249.519,256.839,261.741,265.472,270.871,275.773,281.293,283.71,288.513,291.626,293.911,298.813,301.937,304.576,306.972,312.37,317.89,323.41,328.93,332.043,334.439,342.355,347.157,352.677,358.197,363.0,366.709,369.712,372.108,377.009,380.023,382.419,387.221,390.335,393.095,395.49,401.01,406.53,411.929,417.449" svgx:width="0.33,0.67,0.44,0.33,0.5,0.44,0.5,0.25,0.44,0.28,0.25,0.44,0.28,0.25,0.25,0.5,0.5,0.5,0.5,0.28,0.25,0.72,0.44,0.5,0.5,0.44,0.33,0.28,0.25,0.44,0.28,0.25,0.44,0.28,0.25,0.25,0.5,0.5,0.5,0.5,0.33" style="fill:rgb(0,0,0);font-family:TimesNewRomanPSMT;font-size:11.04px;stroke:none;">(Bergek et al. 2008; Hekkert et al. 2007)</text>
  </g>
  <g begin="text">
   <text y="199.7" x="421.3" svgx:width="0.25" style="fill:rgb(0,0,0);font-family:TimesNewRomanPSMT;font-size:11.04px;stroke:none;"> </text>
  </g>
  <g begin="text">
   <text y="199.7" x="423.58,429.1,432.699,434.984,438.098,443.618,446.013,451.412,456.314,459.327,462.441,467.961,473.481,477.676" svgx:width="0.5,0.33,0.25,0.28,0.5,0.25,0.5,0.44,0.28,0.28,0.5,0.5,0.39,0.25" style="fill:rgb(0,0,0);font-family:TimesNewRomanPSMT;font-size:11.04px;stroke:none;">or in nations </text>
  </g>
  <g begin="text">
   <text y="199.7" x="480.1,483.809,490.555,496.075,501.451,506.971,512.491,517.294,520.407,523.41" svgx:width="0.33,0.61,0.5,0.5,0.5,0.5,0.44,0.28,0.28,0.25" style="fill:rgb(0,0,0);font-family:TimesNewRomanPSMT;font-size:11.04px;stroke:none;">(Lundvall </text>
  </g>
  <g begin="text">
   <text y="199.7" x="48.48" svgx:width="0.5" style="fill:rgb(0,0,0);font-family:TimesNewRomanPSMT;font-size:11.04px;stroke:none;">9</text>
  </g>
  <g begin="text">
   <text y="199.7" x="54.024" svgx:width="0.25" style="fill:rgb(0,0,0);font-family:TimesNewRomanPSMT;font-size:11.04px;stroke:none;"> </text>
  </g>
  <g begin="text">
   <text y="213.62" x="72.024,76.926,80.05,82.81,87.612,90.726,93.486,96.246,101.766,107.286,112.684,118.204" svgx:width="0.44,0.28,0.25,0.44,0.28,0.25,0.25,0.5,0.5,0.5,0.5,0.33" style="fill:rgb(0,0,0);font-family:TimesNewRomanPSMT;font-size:11.04px;stroke:none;">et al. 2009)</text>
  </g>
  <g begin="text">
   <text y="213.62" x="121.94" svgx:width="0.25" style="fill:rgb(0,0,0);font-family:TimesNewRomanPSMT;font-size:11.04px;stroke:none;"> </text>
  </g>
  <g begin="text">
   <text y="213.62" x="124.7,129.502,133.212,138.114,140.774,145.069,150.589,159.134,167.767,172.569,176.279,179.282,184.183,189.107,194.506,197.266,200.379,205.899,208.659,214.797,217.778,223.298,228.818,232.417,237.319,240.079,245.599,251.119,253.879,259.399,262.159,264.919" svgx:width="0.44,0.33,0.44,0.25,0.39,0.5,0.78,0.78,0.44,0.33,0.28,0.44,0.44,0.5,0.25,0.28,0.5,0.25,0.56,0.28,0.5,0.5,0.33,0.44,0.25,0.5,0.5,0.25,0.5,0.25,0.25,0.25" style="fill:rgb(0,0,0);font-family:TimesNewRomanPSMT;font-size:11.04px;stroke:none;">are summarized in Figure 16.3. </text>
  </g>
  <g begin="text">
   <text y="213.62" x="267.65" svgx:width="0.25" style="fill:rgb(0,0,0);font-family:TimesNewRomanPSMT;font-size:11.04px;stroke:none;"> </text>
  </g>
  <g begin="text">
   <text y="213.62" x="42.96,48.48" svgx:width="0.5,0.5" style="fill:rgb(0,0,0);font-family:TimesNewRomanPSMT;font-size:11.04px;stroke:none;">10</text>
  </g>
  <g begin="text">
   <text y="213.62" x="54.024" svgx:width="0.25" style="fill:rgb(0,0,0);font-family:TimesNewRomanPSMT;font-size:11.04px;stroke:none;"> </text>
  </g>
  <g begin="text">
   <text y="477.19" x="523.56" svgx:width="0.25" style="fill:rgb(0,0,0);font-family:TimesNewRomanPSMT;font-size:11.04px;stroke:none;"> </text>
  </g>
  <g begin="text">
   <text y="477.19" x="42.96,48.48" svgx:width="0.5,0.5" style="fill:rgb(0,0,0);font-family:TimesNewRomanPSMT;font-size:11.04px;stroke:none;">11</text>
  </g>
  <g begin="text">
   <text y="477.19" x="54.024" svgx:width="0.25" style="fill:rgb(0,0,0);font-family:TimesNewRomanPSMT;font-size:11.04px;stroke:none;"> </text>
  </g>
  <g begin="text">
   <text y="493.87" x="84.024,90.129,92.898,97.918,103.456,107.878,112.3" svgx:width="0.61,0.28,0.5,0.56,0.44,0.44,0.25" style="fill:rgb(0,0,0);font-family:TimesNewRomanPS-BoldMT;font-size:9.96px;stroke:none;">Figure </text>
  </g>
  <g begin="text">
   <text y="493.87" x="114.86,119.9" svgx:width="0.5,0.5" style="fill:rgb(0,0,0);font-family:TimesNewRomanPS-BoldMT;font-size:9.96px;stroke:none;">16</text>
  </g>
  <g begin="text">
   <text y="493.87" x="124.94,127.45,132.48,134.99,141.593,146.623,151.543,159.93,165.467,168.236,172.658,176.493,179.003,184.033,187.379,189.889,194.311,198.764,203.086,207.508,213.046,216.393,218.903,227.289,231.711,236.163,241.701,246.711,252.249,255.018,258.832,267.219,271.063,273.573,278.603,284.141,289.639,292.149,296.571,304.977,309.399,313.851,318.881,321.521,327.058,332.068,334.578,337.347,342.885,347.307,352.327,356.172,358.681,362.028,366.45,369.219,374.259,379.797,383.113,385.653,390.075,395.125,397.894,403.432,411.798,417.336,420.653,423.192,425.961,431.499,433.989,438.411,442.863,445.632,450.652,453.999,456.768,461.787,467.325,469.815,473.182,478.211,480.721,483.49,487.912,492.952,497.375,500.143,502.554,507.583,510.93" svgx:width="0.25,0.5,0.25,0.67,0.5,0.5,0.83,0.56,0.28,0.44,0.39,0.25,0.5,0.33,0.25,0.44,0.44,0.44,0.44,0.56,0.33,0.25,0.83,0.44,0.44,0.56,0.5,0.56,0.28,0.39,0.83,0.39,0.25,0.5,0.56,0.56,0.25,0.44,0.83,0.44,0.44,0.5,0.28,0.56,0.5,0.25,0.28,0.56,0.44,0.5,0.39,0.25,0.33,0.44,0.28,0.5,0.56,0.33,0.25,0.44,0.5,0.28,0.56,0.83,0.56,0.33,0.25,0.28,0.56,0.25,0.44,0.44,0.28,0.5,0.33,0.28,0.5,0.56,0.25,0.33,0.5,0.25,0.28,0.44,0.5,0.44,0.28,0.25,0.5,0.33,0.25" style="fill:rgb(0,0,0);font-family:TimesNewRomanPS-BoldMT;font-size:9.96px;stroke:none;">.3 Examples of recent mechanisms and emerging ideas (right column) in relation to level of </text>
  </g>
  <g begin="text">
   <text y="493.87" x="42.96,48.48" svgx:width="0.5,0.5" style="fill:rgb(0,0,0);font-family:TimesNewRomanPSMT;font-size:11.04px;stroke:none;">12</text>
  </g>
  <g begin="text">
   <text y="493.87" x="54.024" svgx:width="0.25" style="fill:rgb(0,0,0);font-family:TimesNewRomanPSMT;font-size:11.04px;stroke:none;"> </text>
  </g>
  <g begin="text">
   <text y="506.47" x="72.384,80.77,85.8,89.147,94.684,99.107,101.876,105.212,110.242,112.642,117.672,121.019,123.529,126.875,132.413,136.835,139.345,144.883,149.893,153.239,155.879,160.909,166.446,171.456,174.225,176.715,181.765,186.187,188.717,191.954,196.376,200.828,206.366,211.864,216.894,219.663,224.682,229.712,232.481" svgx:width="0.83,0.5,0.33,0.56,0.44,0.28,0.33,0.5,0.25,0.5,0.33,0.25,0.33,0.56,0.44,0.25,0.56,0.5,0.33,0.28,0.5,0.56,0.5,0.28,0.25,0.5,0.44,0.25,0.33,0.44,0.44,0.56,0.56,0.5,0.28,0.5,0.5,0.28,0.44" style="fill:rgb(0,0,0);font-family:TimesNewRomanPS-BoldMT;font-size:9.96px;stroke:none;">maturity of the national or technologic</text>
  </g>
  <g begin="text">
   <text y="506.47" x="237.17,242.2,244.969,247.459,250.228,255.765,261.303,266.313,271.343,276.373,279.719,282.488,287.508,293.046,295.536,299.41,304.42,308.265,311.611,316.033,324.44,326.95,329.459,334.489,340.027,343.344,347.796,352.218,355.585,358.224,363.254,367.676,371.55,374.04,379.08,382.427,384.937,387.706,393.243,396.56,401.002,405.424,410.962,415.992,419.338,422.107,427.127,432.526,437.555,440.324,442.814,447.266,450.035,452.804,461.181,466.21,469.557,473.979,476.399,479.746,484.168,488.62,494.158,499.656,504.686,507.455,512.475,517.504,522.534" svgx:width="0.5,0.28,0.25,0.28,0.56,0.56,0.5,0.5,0.5,0.33,0.28,0.5,0.56,0.25,0.39,0.5,0.39,0.33,0.44,0.83,0.25,0.25,0.5,0.56,0.33,0.44,0.44,0.33,0.28,0.5,0.44,0.39,0.25,0.5,0.33,0.25,0.28,0.56,0.33,0.44,0.44,0.56,0.5,0.33,0.28,0.5,0.56,0.5,0.28,0.25,0.44,0.28,0.28,0.83,0.5,0.33,0.44,0.25,0.33,0.44,0.44,0.56,0.56,0.5,0.28,0.5,0.5,0.5,0.25" style="fill:rgb(0,0,0);font-family:TimesNewRomanPS-BoldMT;font-size:9.96px;stroke:none;">al innovation system, objectives of international climate technology </text>
  </g>
  <g begin="text">
   <text y="506.47" x="42.96,48.48" svgx:width="0.5,0.5" style="fill:rgb(0,0,0);font-family:TimesNewRomanPSMT;font-size:11.04px;stroke:none;">13</text>
  </g>
  <g begin="text">
   <text y="506.47" x="54.024" svgx:width="0.25" style="fill:rgb(0,0,0);font-family:TimesNewRomanPSMT;font-size:11.04px;stroke:none;"> </text>
  </g>
  <g begin="text">
   <text y="519.19" x="85.944,89.291,93.713,98.763,104.3,108.125,111.472,115.894,120.346,122.856,127.278,130.645,133.991,139.021,143.443,146.81,150.654,153.164,158.194,163.732,169.23,171.74,176.162,181.7,186.122,190.574,194.996,200.534,203.88,206.281,214.667,219.089,223.541,229.079,234.089,239.627,242.396,246.21,254.597,258.441,260.951,265.981,271.519,277.017,279.527,287.913,292.335,297.385,302.923,306.747,309.257,311.767,317.305,322.315,327.853,332.275,336.697,341.149,344.994,348.34" svgx:width="0.33,0.44,0.5,0.56,0.39,0.33,0.44,0.44,0.25,0.44,0.33,0.33,0.5,0.44,0.33,0.39,0.25,0.5,0.56,0.56,0.25,0.44,0.56,0.44,0.44,0.44,0.56,0.33,0.25,0.83,0.44,0.44,0.56,0.5,0.56,0.28,0.39,0.83,0.39,0.25,0.5,0.56,0.56,0.25,0.83,0.44,0.5,0.56,0.39,0.25,0.25,0.56,0.5,0.56,0.44,0.44,0.44,0.39,0.33,0.25" style="fill:rgb(0,0,0);font-family:TimesNewRomanPS-BoldMT;font-size:9.96px;stroke:none;">transfer efforts and current mechanisms and means. Sources: </text>
  </g>
  <g begin="text">
   <text y="519.19" x="351.19,354.537,361.728,366.767,371.19,374.556,377.325,382.345,387.375,390.612,393.122,397.544,400.313,402.833,407.255,410.024,412.544" svgx:width="0.33,0.72,0.5,0.44,0.33,0.28,0.5,0.5,0.33,0.25,0.44,0.28,0.25,0.44,0.28,0.25,0.25" style="fill:rgb(0,0,0);font-family:TimesNewRomanPSMT;font-size:9.96px;stroke:none;">(Oberthür et al. </text>
  </g>
  <g begin="text">
   <text y="519.19" x="415.18,420.21,425.13,430.16,435.19,437.959,440.449,447.55,452.58,457.002,462.052,464.562,468.984,471.753,474.273,478.695,481.464,483.984,486.494,491.414,496.444,501.474,506.503,509.272" svgx:width="0.5,0.5,0.5,0.5,0.28,0.25,0.72,0.5,0.44,0.5,0.25,0.44,0.28,0.25,0.44,0.28,0.25,0.25,0.5,0.5,0.5,0.5,0.28,0.25" style="fill:rgb(0,0,0);font-family:TimesNewRomanPSMT;font-size:9.96px;stroke:none;">2021; Khan et al. 2020; </text>
  </g>
  <g begin="text">
   <text y="519.19" x="42.96,48.48" svgx:width="0.5,0.5" style="fill:rgb(0,0,0);font-family:TimesNewRomanPSMT;font-size:11.04px;stroke:none;">14</text>
  </g>
  <g begin="text">
   <text y="519.19" x="54.024" svgx:width="0.25" style="fill:rgb(0,0,0);font-family:TimesNewRomanPSMT;font-size:11.04px;stroke:none;"> </text>
  </g>
  <g begin="text">
   <text y="531.79" x="220.61,227.801,232.223,237.283,244.474,248.896,251.665,254.434,256.954,261.376,266.426,271.456,273.966,280.569,285.599,288.946,293.975,298.398,300.927,305.848,310.877,315.907,320.937,323.706,326.196,331.734,336.156,341.096,345.518,348.885,351.395,356.425,361.454,366.375,371.404" svgx:width="0.72,0.44,0.5,0.72,0.44,0.28,0.28,0.25,0.44,0.5,0.5,0.25,0.67,0.5,0.33,0.5,0.44,0.25,0.5,0.5,0.5,0.5,0.28,0.25,0.56,0.44,0.5,0.44,0.33,0.25,0.5,0.5,0.5,0.5,0.33" style="fill:rgb(0,0,0);font-family:TimesNewRomanPSMT;font-size:9.96px;stroke:none;">Ockwell and Byrne 2016; Sagar 2009)</text>
  </g>
  <g begin="text">
   <text y="531.79" x="374.83" svgx:width="0.25" style="fill:rgb(0,0,0);font-family:TimesNewRomanPS-BoldItalicMT;font-size:9.96px;stroke:none;"> </text>
  </g>
  <g begin="text">
   <text y="531.79" x="42.96,48.48" svgx:width="0.5,0.5" style="fill:rgb(0,0,0);font-family:TimesNewRomanPSMT;font-size:11.04px;stroke:none;">15</text>
  </g>
  <g begin="text">
   <text y="531.79" x="54.024" svgx:width="0.25" style="fill:rgb(0,0,0);font-family:TimesNewRomanPSMT;font-size:11.04px;stroke:none;"> </text>
  </g>
  <g begin="text">
   <text y="555.46" x="72.024" svgx:width="0.25" style="fill:rgb(0,0,0);font-family:TimesNewRomanPSMT;font-size:11.04px;stroke:none;"> </text>
  </g>
  <g begin="text">
   <text y="555.46" x="42.96,48.48" svgx:width="0.5,0.5" style="fill:rgb(0,0,0);font-family:TimesNewRomanPSMT;font-size:11.04px;stroke:none;">16</text>
  </g>
  <g begin="text">
   <text y="555.46" x="54.024" svgx:width="0.25" style="fill:rgb(0,0,0);font-family:TimesNewRomanPSMT;font-size:11.04px;stroke:none;"> </text>
  </g>
  <g begin="text">
   <text y="578.14" x="72.024" svgx:width="0.25" style="fill:rgb(0,0,0);font-family:TimesNewRomanPSMT;font-size:11.04px;stroke:none;"> </text>
  </g>
  <g begin="text">
   <text y="578.14" x="216.05" svgx:width="0.25" style="fill:rgb(0,0,0);font-family:TimesNewRomanPS-BoldMT;font-size:14.04px;stroke:none;"> </text>
  </g>
  <g begin="text">
   <text y="578.14" x="42.96,48.48" svgx:width="0.5,0.5" style="fill:rgb(0,0,0);font-family:TimesNewRomanPSMT;font-size:11.04px;stroke:none;">17</text>
  </g>
  <g begin="text">
   <text y="578.14" x="54.024" svgx:width="0.25" style="fill:rgb(0,0,0);font-family:TimesNewRomanPSMT;font-size:11.04px;stroke:none;"> </text>
  </g>
  <rect style="fill:pink;opacity:0.2;stroke:blue;stroke-width:0.3;" x="72.0" y="181.22" height="254.0" width="451.5" title="77"/>
  <text y="181.22" class="image" id="image.77.1" width="451" height="254" x="72.0" style="font-size:5.0px;">image.77.1.72_524.181_435</text>
  <g begin="text">
   <text y="602.109" transform="matrix(0.70711,-0.70711,0.70711,0.70711,-395.12956,250.29085)" rotateDegrees="-45" matrix="[29.803345,29.803345,-29.803345,29.803345,104.563255,239.8115]" x="104.563" svgx:width="0.67" style="fill:rgb(0,0,0);font-family:Arial;font-size:42.15px;stroke:none;">A</text>
   <text y="582.23" transform="matrix(0.70711,-0.70711,0.70711,0.70711,-375.25056,258.525)" rotateDegrees="-45" matrix="[29.803345,29.803345,-29.803345,29.803345,124.442085,259.6903]" x="124.442" svgx:width="0.72" style="fill:rgb(0,0,0);font-family:Arial;font-size:42.15px;stroke:none;">C</text>
   <text y="560.712" transform="matrix(0.70711,-0.70711,0.70711,0.70711,-353.73256,267.43805)" rotateDegrees="-45" matrix="[29.803345,29.803345,-29.803345,29.803345,145.9601,281.20834]" x="145.96" svgx:width="0.72" style="fill:rgb(0,0,0);font-family:Arial;font-size:42.15px;stroke:none;">C</text>
   <text y="539.194" transform="matrix(0.70711,-0.70711,0.70711,0.70711,-332.21456,276.3511)" rotateDegrees="-45" matrix="[29.803345,29.803345,-29.803345,29.803345,167.47812,302.72635]" x="167.478" svgx:width="0.67" style="fill:rgb(0,0,0);font-family:Arial;font-size:42.15px;stroke:none;">E</text>
   <text y="519.315" transform="matrix(0.70711,-0.70711,0.70711,0.70711,-312.33556,284.58525)" rotateDegrees="-45" matrix="[29.803345,29.803345,-29.803345,29.803345,187.35693,322.60516]" x="187.357" svgx:width="0.67" style="fill:rgb(0,0,0);font-family:Arial;font-size:42.15px;stroke:none;">P</text>
   <text y="499.436" transform="matrix(0.70711,-0.70711,0.70711,0.70711,-292.45656,292.8194)" rotateDegrees="-45" matrix="[29.803345,29.803345,-29.803345,29.803345,207.23578,342.484]" x="207.236" svgx:width="0.61" style="fill:rgb(0,0,0);font-family:Arial;font-size:42.15px;stroke:none;">T</text>
   <text y="481.226" transform="matrix(0.70711,-0.70711,0.70711,0.70711,-274.24656,300.36223)" rotateDegrees="-45" matrix="[29.803345,29.803345,-29.803345,29.803345,225.44562,360.69385]" x="225.446" svgx:width="0.67" style="fill:rgb(0,0,0);font-family:Arial;font-size:42.15px;stroke:none;">E</text>
   <text y="461.347" transform="matrix(0.70711,-0.70711,0.70711,0.70711,-254.36786,308.59567)" rotateDegrees="-45" matrix="[29.803345,29.803345,-29.803345,29.803345,245.32443,380.57266]" x="245.324" svgx:width="0.72" style="fill:rgb(0,0,0);font-family:Arial;font-size:42.15px;stroke:none;">D</text>
   <text y="439.829" transform="matrix(0.70711,-0.70711,0.70711,0.70711,-232.84986,317.50872)" rotateDegrees="-45" matrix="[29.803345,29.803345,-29.803345,29.803345,266.84247,402.0907]" x="266.842" svgx:width="0.28" style="fill:rgb(0,0,0);font-family:Arial;font-size:42.15px;stroke:none;"> </text>
   <text y="431.54" transform="matrix(0.70711,-0.70711,0.70711,0.70711,-224.56056,320.94284)" rotateDegrees="-45" matrix="[29.803345,29.803345,-29.803345,29.803345,275.13153,410.37976]" x="275.132" svgx:width="0.67" style="fill:rgb(0,0,0);font-family:Arial;font-size:42.15px;stroke:none;">V</text>
   <text y="411.661" transform="matrix(0.70711,-0.70711,0.70711,0.70711,-204.68186,329.17629)" rotateDegrees="-45" matrix="[29.803345,29.803345,-29.803345,29.803345,295.0103,430.25858]" x="295.01" svgx:width="0.67" style="fill:rgb(0,0,0);font-family:Arial;font-size:42.15px;stroke:none;">E</text>
   <text y="391.783" transform="matrix(0.70711,-0.70711,0.70711,0.70711,-184.80356,337.41073)" rotateDegrees="-45" matrix="[29.803345,29.803345,-29.803345,29.803345,314.88916,450.1374]" x="314.889" svgx:width="0.72" style="fill:rgb(0,0,0);font-family:Arial;font-size:42.15px;stroke:none;">R</text>
   <text y="370.265" transform="matrix(0.70711,-0.70711,0.70711,0.70711,-163.28556,346.32378)" rotateDegrees="-45" matrix="[29.803345,29.803345,-29.803345,29.803345,336.40717,471.65543]" x="336.407" svgx:width="0.67" style="fill:rgb(0,0,0);font-family:Arial;font-size:42.15px;stroke:none;">S</text>
   <text y="350.386" transform="matrix(0.70711,-0.70711,0.70711,0.70711,-143.40656,354.55793)" rotateDegrees="-45" matrix="[29.803345,29.803345,-29.803345,29.803345,356.286,491.53424]" x="356.286" svgx:width="0.28" style="fill:rgb(0,0,0);font-family:Arial;font-size:42.15px;stroke:none;">I</text>
   <text y="342.1" transform="matrix(0.70711,-0.70711,0.70711,0.70711,-135.12086,357.9894)" rotateDegrees="-45" matrix="[29.803345,29.803345,-29.803345,29.803345,364.57135,499.81958]" x="364.571" svgx:width="0.78" style="fill:rgb(0,0,0);font-family:Arial;font-size:42.15px;stroke:none;">O</text>
   <text y="318.913" transform="matrix(0.70711,-0.70711,0.70711,0.70711,-111.93386,367.59377)" rotateDegrees="-45" matrix="[29.803345,29.803345,-29.803345,29.803345,387.7583,523.0066]" x="387.758" svgx:width="0.72" style="fill:rgb(0,0,0);font-family:Arial;font-size:42.15px;stroke:none;">N</text>
   <text y="297.395" transform="matrix(0.70711,-0.70711,0.70711,0.70711,-90.41586,376.50681)" rotateDegrees="-45" matrix="[29.803345,29.803345,-29.803345,29.803345,409.27637,544.5246]" x="409.276" svgx:width="0.28" style="fill:rgb(0,0,0);font-family:Arial;font-size:42.15px;stroke:none;"> </text>
   <text y="637.872" transform="matrix(0.70711,-0.70711,0.70711,0.70711,-409.94279,286.05456)" rotateDegrees="-45" matrix="[29.803345,29.803345,-29.803345,29.803345,140.32727,204.04747]" x="140.327" svgx:width="0.67" style="fill:rgb(0,0,0);font-family:Arial;font-size:42.15px;stroke:none;">S</text>
   <text y="617.994" transform="matrix(0.70711,-0.70711,0.70711,0.70711,-390.0645,294.289)" rotateDegrees="-45" matrix="[29.803345,29.803345,-29.803345,29.803345,160.2061,223.9263]" x="160.206" svgx:width="0.72" style="fill:rgb(0,0,0);font-family:Arial;font-size:42.15px;stroke:none;">U</text>
   <text y="596.476" transform="matrix(0.70711,-0.70711,0.70711,0.70711,-368.5465,303.20205)" rotateDegrees="-45" matrix="[29.803345,29.803345,-29.803345,29.803345,181.72412,245.4443]" x="181.724" svgx:width="0.67" style="fill:rgb(0,0,0);font-family:Arial;font-size:42.15px;stroke:none;">B</text>
   <text y="576.597" transform="matrix(0.70711,-0.70711,0.70711,0.70711,-348.6675,311.4362)" rotateDegrees="-45" matrix="[29.803345,29.803345,-29.803345,29.803345,201.60294,265.32315]" x="201.603" svgx:width="0.5" style="fill:rgb(0,0,0);font-family:Arial;font-size:42.15px;stroke:none;">J</text>
   <text y="561.695" transform="matrix(0.70711,-0.70711,0.70711,0.70711,-333.7655,317.60881)" rotateDegrees="-45" matrix="[29.803345,29.803345,-29.803345,29.803345,216.50462,280.22482]" x="216.505" svgx:width="0.67" style="fill:rgb(0,0,0);font-family:Arial;font-size:42.15px;stroke:none;">E</text>
   <text y="541.816" transform="matrix(0.70711,-0.70711,0.70711,0.70711,-313.88679,325.84225)" rotateDegrees="-45" matrix="[29.803345,29.803345,-29.803345,29.803345,236.38344,300.10364]" x="236.383" svgx:width="0.72" style="fill:rgb(0,0,0);font-family:Arial;font-size:42.15px;stroke:none;">C</text>
   <text y="520.298" transform="matrix(0.70711,-0.70711,0.70711,0.70711,-292.36879,334.7553)" rotateDegrees="-45" matrix="[29.803345,29.803345,-29.803345,29.803345,257.90146,321.62164]" x="257.901" svgx:width="0.61" style="fill:rgb(0,0,0);font-family:Arial;font-size:42.15px;stroke:none;">T</text>
   <text y="502.089" transform="matrix(0.70711,-0.70711,0.70711,0.70711,-274.1595,342.29842)" rotateDegrees="-45" matrix="[29.803345,29.803345,-29.803345,29.803345,276.1113,339.83148]" x="276.111" svgx:width="0.28" style="fill:rgb(0,0,0);font-family:Arial;font-size:42.15px;stroke:none;"> </text>
   <text y="493.803" transform="matrix(0.70711,-0.70711,0.70711,0.70711,-265.8735,345.7306)" rotateDegrees="-45" matrix="[29.803345,29.803345,-29.803345,29.803345,284.39664,348.11682]" x="284.397" svgx:width="0.61" style="fill:rgb(0,0,0);font-family:Arial;font-size:42.15px;stroke:none;">T</text>
   <text y="475.593" transform="matrix(0.70711,-0.70711,0.70711,0.70711,-247.66379,353.27272)" rotateDegrees="-45" matrix="[29.803345,29.803345,-29.803345,29.803345,302.60648,366.32666]" x="302.606" svgx:width="0.78" style="fill:rgb(0,0,0);font-family:Arial;font-size:42.15px;stroke:none;">O</text>
   <text y="452.406" transform="matrix(0.70711,-0.70711,0.70711,0.70711,-224.47679,362.87709)" rotateDegrees="-45" matrix="[29.803345,29.803345,-29.803345,29.803345,325.79346,389.51367]" x="325.793" svgx:width="0.28" style="fill:rgb(0,0,0);font-family:Arial;font-size:42.15px;stroke:none;"> </text>
   <text y="444.136" transform="matrix(0.70711,-0.70711,0.70711,0.70711,-216.2065,366.30334)" rotateDegrees="-45" matrix="[29.803345,29.803345,-29.803345,29.803345,334.0639,397.78412]" x="334.064" svgx:width="0.61" style="fill:rgb(0,0,0);font-family:Arial;font-size:42.15px;stroke:none;">F</text>
   <text y="425.926" transform="matrix(0.70711,-0.70711,0.70711,0.70711,-197.9965,373.84617)" rotateDegrees="-45" matrix="[29.803345,29.803345,-29.803345,29.803345,352.27374,415.99396]" x="352.274" svgx:width="0.28" style="fill:rgb(0,0,0);font-family:Arial;font-size:42.15px;stroke:none;">I</text>
   <text y="417.641" transform="matrix(0.70711,-0.70711,0.70711,0.70711,-189.7115,377.27793)" rotateDegrees="-45" matrix="[29.803345,29.803345,-29.803345,29.803345,360.55908,424.2793]" x="360.559" svgx:width="0.72" style="fill:rgb(0,0,0);font-family:Arial;font-size:42.15px;stroke:none;">N</text>
   <text y="396.123" transform="matrix(0.70711,-0.70711,0.70711,0.70711,-168.1935,386.19098)" rotateDegrees="-45" matrix="[29.803345,29.803345,-29.803345,29.803345,382.0771,445.7973]" x="382.077" svgx:width="0.67" style="fill:rgb(0,0,0);font-family:Arial;font-size:42.15px;stroke:none;">A</text>
   <text y="376.244" transform="matrix(0.70711,-0.70711,0.70711,0.70711,-148.3145,394.42513)" rotateDegrees="-45" matrix="[29.803345,29.803345,-29.803345,29.803345,401.95593,465.67615]" x="401.956" svgx:width="0.56" style="fill:rgb(0,0,0);font-family:Arial;font-size:42.15px;stroke:none;">L</text>
   <text y="359.673" transform="matrix(0.70711,-0.70711,0.70711,0.70711,-131.7435,401.28906)" rotateDegrees="-45" matrix="[29.803345,29.803345,-29.803345,29.803345,418.5266,482.24677]" x="418.527" svgx:width="0.28" style="fill:rgb(0,0,0);font-family:Arial;font-size:42.15px;stroke:none;"> </text>
   <text y="351.394" transform="matrix(0.70711,-0.70711,0.70711,0.70711,-123.4645,404.71834)" rotateDegrees="-45" matrix="[29.803345,29.803345,-29.803345,29.803345,426.80573,490.52588]" x="426.806" svgx:width="0.67" style="fill:rgb(0,0,0);font-family:Arial;font-size:42.15px;stroke:none;">E</text>
   <text y="331.515" transform="matrix(0.70711,-0.70711,0.70711,0.70711,-103.5855,412.95249)" rotateDegrees="-45" matrix="[29.803345,29.803345,-29.803345,29.803345,446.68457,510.40472]" x="446.685" svgx:width="0.72" style="fill:rgb(0,0,0);font-family:Arial;font-size:42.15px;stroke:none;">D</text>
   <text y="309.997" transform="matrix(0.70711,-0.70711,0.70711,0.70711,-82.0675,421.86554)" rotateDegrees="-45" matrix="[29.803345,29.803345,-29.803345,29.803345,468.2025,531.9227]" x="468.203" svgx:width="0.28" style="fill:rgb(0,0,0);font-family:Arial;font-size:42.15px;stroke:none;">I</text>
   <text y="301.712" transform="matrix(0.70711,-0.70711,0.70711,0.70711,-73.7825,425.29729)" rotateDegrees="-45" matrix="[29.803345,29.803345,-29.803345,29.803345,476.48785,540.20807]" x="476.488" svgx:width="0.61" style="fill:rgb(0,0,0);font-family:Arial;font-size:42.15px;stroke:none;">T</text>
   <text y="283.502" transform="matrix(0.70711,-0.70711,0.70711,0.70711,-55.5725,432.84012)" rotateDegrees="-45" matrix="[29.803345,29.803345,-29.803345,29.803345,494.6977,558.4179]" x="494.698" svgx:width="0.67" style="fill:rgb(0,0,0);font-family:Arial;font-size:42.15px;stroke:none;">S</text>
  </g>
 </g>
</svg>
