<?xml version="1.0" encoding="UTF-8"?>
<svg height="683.74" width="534.46" xmlns="http://www.w3.org/2000/svg">
 <g id="page" xmlns:svgx="http://www.xml-cml.org/schema/svgx">
  <g begin="text">
   <text y="84.18" x="149.34,162.0,170.941,174.114,177.833,181.551,185.27,188.443,194.323,201.824,209.384,214.245,219.225,222.65,230.143,237.636,242.497,245.922,253.423,260.916,264.089,269.01,276.51,279.684,284.543,292.037,299.055,302.228,308.827,312.252,318.671,323.591,331.084,334.258,342.716,348.295,353.874,360.892,366.473,372.053,383.512,390.53,398.023,402.883,406.056,413.913,420.931,428.491,435.992,441.031,445.982" svgx:width="0.91,0.64,0.23,0.27,0.27,0.27,0.23,0.42,0.54,0.54,0.35,0.35,0.25,0.54,0.54,0.35,0.25,0.54,0.54,0.23,0.35,0.54,0.23,0.35,0.54,0.5,0.23,0.47,0.25,0.46,0.35,0.54,0.23,0.61,0.4,0.4,0.5,0.4,0.4,0.81,0.5,0.54,0.35,0.23,0.56,0.5,0.54,0.54,0.35,0.35,0.23" style="fill:rgb(0,0,0);font-family:Calibri-Bold;font-size:13.98px;stroke:none;">WG III contribution to the Sixth Assessment Report </text>
   <text y="99.36" x="205.44,210.54,213.48,218.28,222.42,225.12,231.6,235.38,238.08,243.12,249.6,253.86,258.12,261.06,266.7,272.76,279.18,285.6,291.54,294.24,298.38,304.86,307.56,313.981,320.041,322.741,325.741,335.521,341.941,344.881,350.941,360.721,366.781,373.201,377.341,383.401,389.82" svgx:width="0.42,0.25,0.4,0.35,0.23,0.54,0.32,0.23,0.42,0.54,0.35,0.35,0.25,0.47,0.5,0.54,0.54,0.49,0.23,0.35,0.54,0.23,0.54,0.5,0.23,0.25,0.81,0.54,0.25,0.5,0.81,0.5,0.54,0.35,0.5,0.54,0.23" style="fill:rgb(0,0,0);font-family:Calibri-Bold;font-size:12.0px;stroke:none;">List of corrigenda to be implemented </text>
   <text y="112.92" x="94.92,101.64,107.756,113.871,116.935,122.456,128.572,132.232,135.892,138.351,144.467,150.527,156.643,162.759,168.875,171.938,174.398,176.858,182.378,185.441,191.557,197.673,200.736,206.796,212.912,215.372,221.488,229.407,232.471,240.391,242.85,245.31,247.77,250.834,256.95,263.066,266.065,268.525,277.645,283.761,286.22,292.336,301.456,307.572,313.688,316.751,322.932,329.048,332.111,334.571,340.686,343.75,346.813,352.929,359.045,362.108,370.028,376.144,382.26,388.376,391.439,397.555,401.215,404.278,410.394,416.51,420.169,422.63,428.746,434.862,437.925,443.385,449.501,455.617,461.224,464.88,470.996,477.112,479.571,482.635,485.094,491.21,497.326,500.345" svgx:width="0.61,0.56,0.56,0.28,0.5,0.56,0.33,0.33,0.22,0.56,0.56,0.56,0.56,0.56,0.28,0.22,0.22,0.5,0.28,0.56,0.56,0.28,0.56,0.56,0.22,0.56,0.72,0.28,0.72,0.22,0.22,0.22,0.28,0.56,0.56,0.28,0.22,0.83,0.56,0.22,0.56,0.83,0.56,0.56,0.28,0.56,0.56,0.28,0.22,0.56,0.28,0.28,0.56,0.56,0.28,0.72,0.56,0.56,0.56,0.28,0.56,0.33,0.28,0.56,0.56,0.33,0.22,0.56,0.56,0.28,0.5,0.56,0.56,0.5,0.33,0.56,0.56,0.22,0.28,0.22,0.56,0.56,0.28,0.28" style="fill:rgb(255,0,0);font-family:ArialMT;font-size:10.98px;stroke:none;">The corrigenda listed below will be implemented in the Chapter during copy-editing. </text>
   <text y="125.525" x="297.666" svgx:width="0.28" style="fill:rgb(255,0,0);font-family:ArialMT;font-size:10.98px;stroke:none;"> </text>
   <text y="135.48" x="70.86" svgx:width="0.23" style="fill:rgb(255,0,0);font-family:Calibri;font-size:7.98px;stroke:none;"> </text>
   <text y="150.96" x="70.86,78.241,87.061,95.519,103.02,109.919,116.759,124.616,127.859,134.933,142.074" svgx:width="0.53,0.63,0.61,0.53,0.5,0.49,0.56,0.23,0.51,0.51,0.23" style="fill:rgb(192,0,0);font-family:Calibri-Bold;font-size:13.98px;stroke:none;">CHAPTER 16 </text>
   <text y="165.24" x="70.86" svgx:width="0.23" style="fill:rgb(0,0,0);font-family:Calibri;font-size:10.98px;stroke:none;"> </text>
  </g>
  <path style="fill:rgb(217,225,242);stroke:none;stroke-width:1.0;" d="M71.340 610.260 L127.560 610.260 L127.560 673.260 L71.340 673.260 L71.340 610.260 "/>
  <path style="fill:rgb(217,225,242);stroke:none;stroke-width:1.0;" d="M76.500 661.020 L122.400 661.020 L122.400 673.260 L76.500 673.260 L76.500 661.020 "/>
  <g begin="text">
   <text y="178.14" x="77.82,84.12,89.52,93.719,99.058,107.215,112.255,117.655,121.074" svgx:width="0.63,0.54,0.42,0.54,0.81,0.5,0.54,0.35,0.23" style="fill:rgb(0,0,0);font-family:Calibri-Bold;font-size:10.02px;stroke:none;">Document </text>
  </g>
  <path style="fill:rgb(217,225,242);stroke:none;stroke-width:1.0;" d="M71.340 610.260 L127.560 610.260 L127.560 673.260 L71.340 673.260 L71.340 610.260 M76.500 648.840 L122.400 648.840 L122.400 661.020 L76.500 661.020 L76.500 648.840 "/>
  <g begin="text">
   <text y="190.38" x="80.04,83.16,88.44,93.841,98.76,104.16,107.637,112.677,116.217,118.797" svgx:width="0.31,0.53,0.54,0.49,0.54,0.35,0.5,0.35,0.26,0.23" style="fill:rgb(0,0,0);font-family:Calibri-Bold;font-size:10.02px;stroke:none;">(Chapter, </text>
  </g>
  <path style="fill:rgb(217,225,242);stroke:none;stroke-width:1.0;" d="M76.500 636.600 L122.400 636.600 L122.400 648.840 L76.500 648.840 L76.500 636.600 "/>
  <g begin="text">
   <text y="202.56" x="84.9,90.96,96.361,101.762,106.742,111.361,113.941" svgx:width="0.61,0.54,0.54,0.5,0.46,0.26,0.23" style="fill:rgb(0,0,0);font-family:Calibri-Bold;font-size:10.02px;stroke:none;">Annex, </text>
  </g>
  <path style="fill:rgb(217,225,242);stroke:none;stroke-width:1.0;" d="M76.500 624.420 L122.400 624.420 L122.400 636.600 L76.500 636.600 L76.500 624.420 "/>
  <g begin="text">
   <text y="214.8" x="87.66,92.4,97.8,103.141,108.541,111.176" svgx:width="0.47,0.54,0.54,0.54,0.27,0.23" style="fill:rgb(0,0,0);font-family:Calibri-Bold;font-size:10.02px;stroke:none;">Supp. </text>
  </g>
  <path style="fill:rgb(217,225,242);stroke:none;stroke-width:1.0;" d="M76.500 612.240 L122.400 612.240 L122.400 624.420 L76.500 624.420 L76.500 612.240 "/>
  <g begin="text">
   <text y="226.98" x="80.1,88.857,93.778,97.255,102.295,105.835,108.295,113.215,115.675,118.801" svgx:width="0.87,0.49,0.35,0.5,0.35,0.25,0.49,0.25,0.31,0.23" style="fill:rgb(0,0,0);font-family:Calibri-Bold;font-size:10.02px;stroke:none;">Material) </text>
  </g>
  <path style="fill:rgb(217,225,242);stroke:none;stroke-width:1.0;" d="M128.040 610.260 L184.260 610.260 L184.260 673.260 L128.040 673.260 L128.040 610.260 "/>
  <path style="fill:rgb(217,225,242);stroke:none;stroke-width:1.0;" d="M133.200 661.020 L179.100 661.020 L179.100 673.260 L133.200 673.260 L133.200 661.020 "/>
  <g begin="text">
   <text y="178.14" x="146.1,151.44,156.359,161.099" svgx:width="0.53,0.49,0.47,0.5" style="fill:rgb(0,0,0);font-family:Calibri-Bold;font-size:10.02px;stroke:none;">Page</text>
  </g>
  <g begin="text">
   <text y="178.14" x="166.14" svgx:width="0.23" style="fill:rgb(0,0,0);font-family:Calibri-Bold;font-size:10.02px;stroke:none;"> </text>
  </g>
  <path style="fill:rgb(217,225,242);stroke:none;stroke-width:1.0;" d="M128.040 610.260 L184.260 610.260 L184.260 673.260 L128.040 673.260 L128.040 610.260 M128.040 610.260 L184.260 610.260 L184.260 673.260 L128.040 673.260 L128.040 610.260 M133.200 648.840 L179.100 648.840 L179.100 661.020 L133.200 661.020 L133.200 648.840 "/>
  <g begin="text">
   <text y="190.38" x="135.6,138.72,144.362,149.281,153.299,158.279,163.68,165.96,171.3,176.701" svgx:width="0.31,0.56,0.49,0.4,0.5,0.54,0.23,0.54,0.54,0.23" style="fill:rgb(0,0,0);font-family:Calibri-Bold;font-size:10.02px;stroke:none;">(Based on </text>
  </g>
  <path style="fill:rgb(217,225,242);stroke:none;stroke-width:1.0;" d="M133.200 636.600 L179.100 636.600 L179.100 648.840 L133.200 648.840 L133.200 636.600 "/>
  <g begin="text">
   <text y="202.56" x="138.84,142.317,147.717,152.757,155.042,158.163,160.622,166.022,170.942,173.402" svgx:width="0.35,0.54,0.5,0.23,0.32,0.25,0.54,0.49,0.25,0.23" style="fill:rgb(0,0,0);font-family:Calibri-Bold;font-size:10.02px;stroke:none;">the final </text>
  </g>
  <path style="fill:rgb(217,225,242);stroke:none;stroke-width:1.0;" d="M133.200 624.420 L179.100 624.420 L179.100 636.600 L133.200 636.600 L133.200 624.420 "/>
  <g begin="text">
   <text y="214.8" x="139.38,144.781,150.182,153.302,155.586,160.206,166.565,172.865" svgx:width="0.54,0.54,0.32,0.23,0.46,0.64,0.63,0.23" style="fill:rgb(0,0,0);font-family:Calibri-Bold;font-size:10.02px;stroke:none;">pdf FGD </text>
  </g>
  <path style="fill:rgb(217,225,242);stroke:none;stroke-width:1.0;" d="M133.200 612.240 L179.100 612.240 L179.100 624.420 L133.200 624.420 L133.200 612.240 "/>
  <g begin="text">
   <text y="226.98" x="139.32,144.059,149.1,152.639,156.659,159.124,164.463,169.863,172.917" svgx:width="0.47,0.5,0.35,0.4,0.25,0.54,0.54,0.31,0.23" style="fill:rgb(0,0,0);font-family:Calibri-Bold;font-size:10.02px;stroke:none;">version) </text>
  </g>
  <path style="fill:rgb(217,225,242);stroke:none;stroke-width:1.0;" d="M184.740 610.260 L240.960 610.260 L240.960 673.260 L184.740 673.260 L184.740 610.260 "/>
  <path style="fill:rgb(217,225,242);stroke:none;stroke-width:1.0;" d="M189.900 661.020 L235.800 661.020 L235.800 673.260 L189.900 673.260 L189.900 661.020 "/>
  <g begin="text">
   <text y="178.14" x="204.3,208.559,211.019,216.42" svgx:width="0.42,0.25,0.54,0.5" style="fill:rgb(0,0,0);font-family:Calibri-Bold;font-size:10.02px;stroke:none;">Line</text>
  </g>
  <g begin="text">
   <text y="178.14" x="221.4" svgx:width="0.23" style="fill:rgb(0,0,0);font-family:Calibri-Bold;font-size:10.02px;stroke:none;"> </text>
  </g>
  <path style="fill:rgb(217,225,242);stroke:none;stroke-width:1.0;" d="M184.740 610.260 L240.960 610.260 L240.960 673.260 L184.740 673.260 L184.740 610.260 M184.740 610.260 L240.960 610.260 L240.960 673.260 L184.740 673.260 L184.740 610.260 "/>
  <g begin="text">
   <text y="178.14" x="292.14,298.44,303.48,306.96,311.879,314.339,316.799,321.839,327.239,329.524,331.923,337.323,340.5,345.9,349.38,357.537,362.456,365.936,368.396,373.797,379.137,381.416,386.756,392.157,394.436,398.575,403.976,407.516,411.055,416.095,420.294,423.774,426.234,431.634,436.974,439.254,442.735,448.074,450.354,458.51,463.43,468.169" svgx:width="0.63,0.5,0.35,0.49,0.25,0.25,0.5,0.54,0.23,0.25,0.54,0.32,0.54,0.35,0.81,0.49,0.35,0.25,0.54,0.54,0.23,0.54,0.54,0.23,0.42,0.54,0.35,0.35,0.5,0.42,0.35,0.25,0.54,0.54,0.23,0.35,0.54,0.23,0.81,0.49,0.48,0.5" style="fill:rgb(0,0,0);font-family:Calibri-Bold;font-size:10.02px;stroke:none;">Detailed information on correction to make</text>
  </g>
  <g begin="text">
   <text y="178.14" x="473.22" svgx:width="0.23" style="fill:rgb(0,0,0);font-family:Calibri-Bold;font-size:10.02px;stroke:none;"> </text>
  </g>
  <path style="fill:rgb(0,0,0);stroke:none;stroke-width:1.0;" d="M70.860 673.260 L71.340 673.260 L71.340 673.740 L70.860 673.740 L70.860 673.260 "/>
  <path style="fill:rgb(0,0,0);stroke:none;stroke-width:1.0;" d="M70.860 673.260 L71.340 673.260 L71.340 673.740 L70.860 673.740 L70.860 673.260 "/>
  <path style="fill:rgb(0,0,0);stroke:none;stroke-width:1.0;" d="M71.340 673.260 L127.560 673.260 L127.560 673.740 L71.340 673.740 L71.340 673.260 "/>
  <path style="fill:rgb(0,0,0);stroke:none;stroke-width:1.0;" d="M127.560 673.260 L128.040 673.260 L128.040 673.740 L127.560 673.740 L127.560 673.260 "/>
  <path style="fill:rgb(0,0,0);stroke:none;stroke-width:1.0;" d="M128.040 673.260 L184.260 673.260 L184.260 673.740 L128.040 673.740 L128.040 673.260 "/>
  <path style="fill:rgb(0,0,0);stroke:none;stroke-width:1.0;" d="M184.260 673.260 L184.740 673.260 L184.740 673.740 L184.260 673.740 L184.260 673.260 "/>
  <path style="fill:rgb(0,0,0);stroke:none;stroke-width:1.0;" d="M184.740 673.260 L240.960 673.260 L240.960 673.740 L184.740 673.740 L184.740 673.260 "/>
  <path style="fill:rgb(0,0,0);stroke:none;stroke-width:1.0;" d="M240.960 673.260 L241.440 673.260 L241.440 673.740 L240.960 673.740 L240.960 673.260 "/>
  <path style="fill:rgb(0,0,0);stroke:none;stroke-width:1.0;" d="M523.980 673.260 L524.460 673.260 L524.460 673.740 L523.980 673.740 L523.980 673.260 "/>
  <path style="fill:rgb(0,0,0);stroke:none;stroke-width:1.0;" d="M523.980 673.260 L524.460 673.260 L524.460 673.740 L523.980 673.740 L523.980 673.260 "/>
  <path style="fill:rgb(0,0,0);stroke:none;stroke-width:1.0;" d="M70.860 610.260 L71.340 610.260 L71.340 673.260 L70.860 673.260 L70.860 610.260 "/>
  <path style="fill:rgb(0,0,0);stroke:none;stroke-width:1.0;" d="M127.560 610.260 L128.040 610.260 L128.040 673.260 L127.560 673.260 L127.560 610.260 "/>
  <path style="fill:rgb(0,0,0);stroke:none;stroke-width:1.0;" d="M184.260 610.260 L184.740 610.260 L184.740 673.260 L184.260 673.260 L184.260 610.260 "/>
  <path style="fill:rgb(0,0,0);stroke:none;stroke-width:1.0;" d="M240.960 610.260 L241.440 610.260 L241.440 673.260 L240.960 673.260 L240.960 610.260 "/>
  <path style="fill:rgb(0,0,0);stroke:none;stroke-width:1.0;" d="M523.980 610.260 L524.460 610.260 L524.460 673.260 L523.980 673.260 L523.980 610.260 "/>
  <g begin="text">
   <text y="241.62" x="76.5,81.841,87.121,91.921,97.201,100.558,105.538,108.958,111.242,116.282" svgx:width="0.53,0.52,0.48,0.52,0.34,0.5,0.35,0.23,0.51,0.51" style="fill:rgb(0,0,0);font-family:Calibri;font-size:10.02px;stroke:none;">Chapter 16</text>
  </g>
  <g begin="text">
   <text y="241.62" x="121.32" svgx:width="0.23" style="fill:rgb(0,0,0);font-family:Calibri;font-size:10.02px;stroke:none;"> </text>
  </g>
  <g begin="text">
   <text y="241.62" x="133.2" svgx:width="0.51" style="fill:rgb(0,0,0);font-family:Calibri;font-size:10.02px;stroke:none;">4</text>
  </g>
  <g begin="text">
   <text y="241.62" x="138.24" svgx:width="0.23" style="fill:rgb(0,0,0);font-family:Calibri;font-size:10.02px;stroke:none;"> </text>
  </g>
  <g begin="text">
   <text y="241.62" x="189.9,195.0" svgx:width="0.51,0.51" style="fill:rgb(0,0,0);font-family:Calibri;font-size:10.02px;stroke:none;">35</text>
  </g>
  <g begin="text">
   <text y="241.62" x="200.04" svgx:width="0.23" style="fill:rgb(0,0,0);font-family:Calibri;font-size:10.02px;stroke:none;"> </text>
  </g>
  <g begin="text">
   <text y="241.62" x="246.6,248.875" svgx:width="0.23,0.52" style="fill:rgb(0,0,0);font-family:Calibri;font-size:10.02px;stroke:none;">in</text>
  </g>
  <g begin="text">
   <text y="241.62" x="254.16" svgx:width="0.31" style="fill:rgb(0,0,0);font-family:Calibri;font-size:10.02px;stroke:none;">-</text>
  </g>
  <g begin="text">
   <text y="241.62" x="257.22,260.58,265.56,269.88,273.24,275.525,279.783,282.064,285.423,290.163,293.523,295.803,301.083,306.303,308.587,310.807,316.267,321.547,325.867,328.087,333.188,338.288,340.749,345.849,348.069,350.349,354.25,359.469,364.689,369.97,372.251,377.531,379.816,385.096,390.016,392.301,397.76,403.04,407.361,409.58,414.68,419.78,422.24,427.34,432.441,434.66,437.716,441.077,446.296,451.276,453.561,458.841,464.122,468.381,470.666,475.945,481.226" svgx:width="0.34,0.5,0.43,0.34,0.23,0.42,0.23,0.34,0.48,0.34,0.23,0.53,0.52,0.23,0.22,0.54,0.53,0.43,0.23,0.51,0.51,0.25,0.51,0.22,0.23,0.39,0.52,0.53,0.52,0.23,0.52,0.23,0.52,0.5,0.23,0.54,0.53,0.43,0.23,0.51,0.51,0.25,0.51,0.51,0.23,0.3,0.34,0.52,0.5,0.23,0.52,0.53,0.43,0.23,0.53,0.52,0.23" style="fill:rgb(0,0,0);font-family:Calibri;font-size:10.02px;stroke:none;">text citation 'Box 16.5' should be Box 16.10 (the box on </text>
  </g>
  <g begin="text">
   <text y="253.86" x="246.6,251.4,256.139,259.619,261.9,266.158,271.439,273.718,277.018,282.298,285.778,290.758,293.764" svgx:width="0.48,0.47,0.35,0.23,0.42,0.52,0.23,0.34,0.52,0.35,0.5,0.3,0.23" style="fill:rgb(0,0,0);font-family:Calibri;font-size:10.02px;stroke:none;">agriculture) </text>
  </g>
  <path style="fill:rgb(0,0,0);stroke:none;stroke-width:1.0;" d="M71.340 515.280 L127.560 515.280 L127.560 609.780 L71.340 609.780 L71.340 515.280 M71.340 515.280 L127.560 515.280 L127.560 609.780 L71.340 609.780 L71.340 515.280 M128.040 515.280 L184.260 515.280 L184.260 609.780 L128.040 609.780 L128.040 515.280 M128.040 515.280 L184.260 515.280 L184.260 609.780 L128.040 609.780 L128.040 515.280 M184.740 515.280 L240.960 515.280 L240.960 609.780 L184.740 609.780 L184.740 515.280 M184.740 515.280 L240.960 515.280 L240.960 609.780 L184.740 609.780 L184.740 515.280 M70.860 609.780 L71.340 609.780 L71.340 610.260 L70.860 610.260 L70.860 609.780 "/>
  <path style="fill:rgb(0,0,0);stroke:none;stroke-width:1.0;" d="M71.340 609.780 L127.560 609.780 L127.560 610.260 L71.340 610.260 L71.340 609.780 "/>
  <path style="fill:rgb(0,0,0);stroke:none;stroke-width:1.0;" d="M127.560 609.780 L128.040 609.780 L128.040 610.260 L127.560 610.260 L127.560 609.780 "/>
  <path style="fill:rgb(0,0,0);stroke:none;stroke-width:1.0;" d="M128.040 609.780 L184.260 609.780 L184.260 610.260 L128.040 610.260 L128.040 609.780 "/>
  <path style="fill:rgb(0,0,0);stroke:none;stroke-width:1.0;" d="M184.260 609.780 L184.740 609.780 L184.740 610.260 L184.260 610.260 L184.260 609.780 "/>
  <path style="fill:rgb(0,0,0);stroke:none;stroke-width:1.0;" d="M184.740 609.780 L240.960 609.780 L240.960 610.260 L184.740 610.260 L184.740 609.780 "/>
  <path style="fill:rgb(0,0,0);stroke:none;stroke-width:1.0;" d="M240.960 609.780 L241.440 609.780 L241.440 610.260 L240.960 610.260 L240.960 609.780 "/>
  <path style="fill:rgb(0,0,0);stroke:none;stroke-width:1.0;" d="M523.980 609.780 L524.460 609.780 L524.460 610.260 L523.980 610.260 L523.980 609.780 "/>
  <path style="fill:rgb(0,0,0);stroke:none;stroke-width:1.0;" d="M70.860 515.280 L71.340 515.280 L71.340 609.780 L70.860 609.780 L70.860 515.280 "/>
  <path style="fill:rgb(0,0,0);stroke:none;stroke-width:1.0;" d="M127.560 515.280 L128.040 515.280 L128.040 609.780 L127.560 609.780 L127.560 515.280 "/>
  <path style="fill:rgb(0,0,0);stroke:none;stroke-width:1.0;" d="M184.260 515.280 L184.740 515.280 L184.740 609.780 L184.260 609.780 L184.260 515.280 "/>
  <path style="fill:rgb(0,0,0);stroke:none;stroke-width:1.0;" d="M240.960 515.280 L241.440 515.280 L241.440 609.780 L240.960 609.780 L240.960 515.280 "/>
  <path style="fill:rgb(0,0,0);stroke:none;stroke-width:1.0;" d="M523.980 515.280 L524.460 515.280 L524.460 609.780 L523.980 609.780 L523.980 515.280 "/>
  <g begin="text">
   <text y="336.66" x="76.5,81.841,87.121,91.921,97.201,100.558,105.538,108.958,111.242,116.282" svgx:width="0.53,0.52,0.48,0.52,0.34,0.5,0.35,0.23,0.51,0.51" style="fill:rgb(0,0,0);font-family:Calibri;font-size:10.02px;stroke:none;">Chapter 16</text>
  </g>
  <g begin="text">
   <text y="336.66" x="121.32" svgx:width="0.23" style="fill:rgb(0,0,0);font-family:Calibri;font-size:10.02px;stroke:none;"> </text>
  </g>
  <g begin="text">
   <text y="336.66" x="133.2" svgx:width="0.51" style="fill:rgb(0,0,0);font-family:Calibri;font-size:10.02px;stroke:none;">5</text>
  </g>
  <g begin="text">
   <text y="336.66" x="138.24" svgx:width="0.23" style="fill:rgb(0,0,0);font-family:Calibri;font-size:10.02px;stroke:none;"> </text>
  </g>
  <g begin="text">
   <text y="336.66" x="189.9,195.0" svgx:width="0.51,0.51" style="fill:rgb(0,0,0);font-family:Calibri;font-size:10.02px;stroke:none;">29</text>
  </g>
  <g begin="text">
   <text y="336.66" x="200.04" svgx:width="0.23" style="fill:rgb(0,0,0);font-family:Calibri;font-size:10.02px;stroke:none;"> </text>
  </g>
  <g begin="text">
   <text y="336.66" x="246.6,251.4,256.68,261.961,264.245,266.525,268.805,274.086,279.006,281.29,286.57,289.63,291.914,295.814,298.094,302.774,307.995,311.354,314.055,316.334,319.454,324.495,329.595,332.115,337.155,340.334" svgx:width="0.48,0.52,0.52,0.23,0.23,0.23,0.52,0.5,0.23,0.53,0.31,0.23,0.39,0.23,0.47,0.52,0.34,0.27,0.23,0.31,0.51,0.51,0.25,0.51,0.31,0.25" style="fill:rgb(0,0,0);font-family:Calibri;font-size:10.02px;stroke:none;">add line of sight: {16.6}.</text>
  </g>
  <g begin="text">
   <text y="336.66" x="342.78" svgx:width="0.23" style="fill:rgb(0,0,0);font-family:Calibri;font-size:10.02px;stroke:none;"> </text>
  </g>
  <path style="fill:rgb(0,0,0);stroke:none;stroke-width:1.0;" d="M71.340 420.240 L127.560 420.240 L127.560 514.740 L71.340 514.740 L71.340 420.240 M71.340 420.240 L127.560 420.240 L127.560 514.740 L71.340 514.740 L71.340 420.240 M128.040 420.240 L184.260 420.240 L184.260 514.740 L128.040 514.740 L128.040 420.240 M128.040 420.240 L184.260 420.240 L184.260 514.740 L128.040 514.740 L128.040 420.240 M184.740 420.240 L240.960 420.240 L240.960 514.740 L184.740 514.740 L184.740 420.240 M184.740 420.240 L240.960 420.240 L240.960 514.740 L184.740 514.740 L184.740 420.240 M70.860 514.800 L71.340 514.800 L71.340 515.280 L70.860 515.280 L70.860 514.800 "/>
  <path style="fill:rgb(0,0,0);stroke:none;stroke-width:1.0;" d="M71.340 514.800 L127.560 514.800 L127.560 515.280 L71.340 515.280 L71.340 514.800 "/>
  <path style="fill:rgb(0,0,0);stroke:none;stroke-width:1.0;" d="M127.560 514.800 L128.040 514.800 L128.040 515.280 L127.560 515.280 L127.560 514.800 "/>
  <path style="fill:rgb(0,0,0);stroke:none;stroke-width:1.0;" d="M128.040 514.800 L184.260 514.800 L184.260 515.280 L128.040 515.280 L128.040 514.800 "/>
  <path style="fill:rgb(0,0,0);stroke:none;stroke-width:1.0;" d="M184.260 514.800 L184.740 514.800 L184.740 515.280 L184.260 515.280 L184.260 514.800 "/>
  <path style="fill:rgb(0,0,0);stroke:none;stroke-width:1.0;" d="M184.740 514.800 L240.960 514.800 L240.960 515.280 L184.740 515.280 L184.740 514.800 "/>
  <path style="fill:rgb(0,0,0);stroke:none;stroke-width:1.0;" d="M240.960 514.800 L241.440 514.800 L241.440 515.280 L240.960 515.280 L240.960 514.800 "/>
  <path style="fill:rgb(0,0,0);stroke:none;stroke-width:1.0;" d="M523.980 514.800 L524.460 514.800 L524.460 515.280 L523.980 515.280 L523.980 514.800 "/>
  <path style="fill:rgb(0,0,0);stroke:none;stroke-width:1.0;" d="M70.860 420.240 L71.340 420.240 L71.340 514.800 L70.860 514.800 L70.860 420.240 "/>
  <path style="fill:rgb(0,0,0);stroke:none;stroke-width:1.0;" d="M127.560 420.240 L128.040 420.240 L128.040 514.800 L127.560 514.800 L127.560 420.240 "/>
  <path style="fill:rgb(0,0,0);stroke:none;stroke-width:1.0;" d="M184.260 420.240 L184.740 420.240 L184.740 514.800 L184.260 514.800 L184.260 420.240 "/>
  <path style="fill:rgb(0,0,0);stroke:none;stroke-width:1.0;" d="M240.960 420.240 L241.440 420.240 L241.440 514.800 L240.960 514.800 L240.960 420.240 "/>
  <path style="fill:rgb(0,0,0);stroke:none;stroke-width:1.0;" d="M523.980 420.240 L524.460 420.240 L524.460 514.800 L523.980 514.800 L523.980 420.240 "/>
  <g begin="text">
   <text y="431.64" x="76.5,81.841,87.121,91.921,97.201,100.558,105.538,108.958,111.242,116.282" svgx:width="0.53,0.52,0.48,0.52,0.34,0.5,0.35,0.23,0.51,0.51" style="fill:rgb(0,0,0);font-family:Calibri;font-size:10.02px;stroke:none;">Chapter 16</text>
  </g>
  <g begin="text">
   <text y="431.64" x="121.32" svgx:width="0.23" style="fill:rgb(0,0,0);font-family:Calibri;font-size:10.02px;stroke:none;"> </text>
  </g>
  <g begin="text">
   <text y="431.64" x="133.2" svgx:width="0.51" style="fill:rgb(0,0,0);font-family:Calibri;font-size:10.02px;stroke:none;">5</text>
  </g>
  <g begin="text">
   <text y="431.64" x="138.24" svgx:width="0.23" style="fill:rgb(0,0,0);font-family:Calibri;font-size:10.02px;stroke:none;"> </text>
  </g>
  <g begin="text">
   <text y="431.64" x="189.9,195.0" svgx:width="0.51,0.51" style="fill:rgb(0,0,0);font-family:Calibri;font-size:10.02px;stroke:none;">38</text>
  </g>
  <g begin="text">
   <text y="431.64" x="200.04" svgx:width="0.23" style="fill:rgb(0,0,0);font-family:Calibri;font-size:10.02px;stroke:none;"> </text>
  </g>
  <g begin="text">
   <text y="431.64" x="246.6,248.875" svgx:width="0.23,0.52" style="fill:rgb(0,0,0);font-family:Calibri;font-size:10.02px;stroke:none;">in</text>
  </g>
  <g begin="text">
   <text y="431.64" x="254.16" svgx:width="0.31" style="fill:rgb(0,0,0);font-family:Calibri;font-size:10.02px;stroke:none;">-</text>
  </g>
  <g begin="text">
   <text y="431.64" x="257.22,260.577,265.557,269.877,273.234,275.513,279.774,282.054,285.41,290.15,293.506,295.786,301.066,306.287,308.571,310.786,316.246,321.526,325.846,328.066,333.166,338.266,340.726,345.826,350.926,353.086" svgx:width="0.34,0.5,0.43,0.34,0.23,0.42,0.23,0.34,0.48,0.34,0.23,0.53,0.52,0.23,0.22,0.54,0.53,0.43,0.23,0.51,0.51,0.25,0.51,0.51,0.22,0.23" style="fill:rgb(0,0,0);font-family:Calibri;font-size:10.02px;stroke:none;">text citation 'Box 16.10' </text>
  </g>
  <g begin="text">
   <text y="431.64" x="355.38,359.28,364.5,369.78,375.06,377.34,382.62,384.84,390.12,395.1,397.38,402.84,408.12,412.38,414.664,419.704,424.744,427.264,432.365,434.644,437.7,441.0,446.28,451.26,453.48,458.76,464.04,468.36,470.64,475.86,481.141,483.425,485.885,491.046,496.507" svgx:width="0.39,0.52,0.53,0.52,0.23,0.52,0.23,0.52,0.5,0.23,0.54,0.53,0.43,0.23,0.51,0.51,0.25,0.51,0.23,0.3,0.34,0.52,0.5,0.23,0.52,0.53,0.43,0.23,0.53,0.52,0.23,0.25,0.52,0.54,0.3" style="fill:rgb(0,0,0);font-family:Calibri;font-size:10.02px;stroke:none;">should be Box 16.9 (the box on IPR)</text>
  </g>
  <g begin="text">
   <text y="431.64" x="499.5" svgx:width="0.23" style="fill:rgb(0,0,0);font-family:Calibri;font-size:10.02px;stroke:none;"> </text>
  </g>
  <path style="fill:rgb(0,0,0);stroke:none;stroke-width:1.0;" d="M71.340 325.260 L127.560 325.260 L127.560 419.760 L71.340 419.760 L71.340 325.260 M71.340 325.260 L127.560 325.260 L127.560 419.760 L71.340 419.760 L71.340 325.260 M128.040 325.260 L184.260 325.260 L184.260 419.760 L128.040 419.760 L128.040 325.260 M128.040 325.260 L184.260 325.260 L184.260 419.760 L128.040 419.760 L128.040 325.260 M184.740 325.260 L240.960 325.260 L240.960 419.760 L184.740 419.760 L184.740 325.260 M184.740 325.260 L240.960 325.260 L240.960 419.760 L184.740 419.760 L184.740 325.260 M70.860 419.760 L71.340 419.760 L71.340 420.240 L70.860 420.240 L70.860 419.760 "/>
  <path style="fill:rgb(0,0,0);stroke:none;stroke-width:1.0;" d="M71.340 419.760 L127.560 419.760 L127.560 420.240 L71.340 420.240 L71.340 419.760 "/>
  <path style="fill:rgb(0,0,0);stroke:none;stroke-width:1.0;" d="M127.560 419.760 L128.040 419.760 L128.040 420.240 L127.560 420.240 L127.560 419.760 "/>
  <path style="fill:rgb(0,0,0);stroke:none;stroke-width:1.0;" d="M128.040 419.760 L184.260 419.760 L184.260 420.240 L128.040 420.240 L128.040 419.760 "/>
  <path style="fill:rgb(0,0,0);stroke:none;stroke-width:1.0;" d="M184.260 419.760 L184.740 419.760 L184.740 420.240 L184.260 420.240 L184.260 419.760 "/>
  <path style="fill:rgb(0,0,0);stroke:none;stroke-width:1.0;" d="M184.740 419.760 L240.960 419.760 L240.960 420.240 L184.740 420.240 L184.740 419.760 "/>
  <path style="fill:rgb(0,0,0);stroke:none;stroke-width:1.0;" d="M240.960 419.760 L241.440 419.760 L241.440 420.240 L240.960 420.240 L240.960 419.760 "/>
  <path style="fill:rgb(0,0,0);stroke:none;stroke-width:1.0;" d="M523.980 419.760 L524.460 419.760 L524.460 420.240 L523.980 420.240 L523.980 419.760 "/>
  <path style="fill:rgb(0,0,0);stroke:none;stroke-width:1.0;" d="M70.860 325.260 L71.340 325.260 L71.340 419.760 L70.860 419.760 L70.860 325.260 "/>
  <path style="fill:rgb(0,0,0);stroke:none;stroke-width:1.0;" d="M127.560 325.260 L128.040 325.260 L128.040 419.760 L127.560 419.760 L127.560 325.260 "/>
  <path style="fill:rgb(0,0,0);stroke:none;stroke-width:1.0;" d="M184.260 325.260 L184.740 325.260 L184.740 419.760 L184.260 419.760 L184.260 325.260 "/>
  <path style="fill:rgb(0,0,0);stroke:none;stroke-width:1.0;" d="M240.960 325.260 L241.440 325.260 L241.440 419.760 L240.960 419.760 L240.960 325.260 "/>
  <path style="fill:rgb(0,0,0);stroke:none;stroke-width:1.0;" d="M523.980 325.260 L524.460 325.260 L524.460 419.760 L523.980 419.760 L523.980 325.260 "/>
  <g begin="text">
   <text y="526.62" x="76.5,81.841,87.121,91.921,97.201,100.558,105.538,108.958,111.242,116.282" svgx:width="0.53,0.52,0.48,0.52,0.34,0.5,0.35,0.23,0.51,0.51" style="fill:rgb(0,0,0);font-family:Calibri;font-size:10.02px;stroke:none;">Chapter 16</text>
  </g>
  <g begin="text">
   <text y="526.62" x="121.32" svgx:width="0.23" style="fill:rgb(0,0,0);font-family:Calibri;font-size:10.02px;stroke:none;"> </text>
  </g>
  <g begin="text">
   <text y="526.62" x="133.2,138.3" svgx:width="0.51,0.51" style="fill:rgb(0,0,0);font-family:Calibri;font-size:10.02px;stroke:none;">17</text>
  </g>
  <g begin="text">
   <text y="526.62" x="143.34" svgx:width="0.23" style="fill:rgb(0,0,0);font-family:Calibri;font-size:10.02px;stroke:none;"> </text>
  </g>
  <g begin="text">
   <text y="526.62" x="189.9,195.0,200.1,202.32,209.16,211.38,216.48" svgx:width="0.51,0.51,0.23,0.68,0.23,0.51,0.51" style="fill:rgb(0,0,0);font-family:Calibri;font-size:10.02px;stroke:none;">10 &amp; 17</text>
  </g>
  <g begin="text">
   <text y="526.62" x="221.52" svgx:width="0.23" style="fill:rgb(0,0,0);font-family:Calibri;font-size:10.02px;stroke:none;"> </text>
  </g>
  <g begin="text">
   <text y="526.62" x="246.6,250.08,255.06,260.34,262.62,267.421,271.679,276.659,278.879,284.701,289.381,294.662,296.943,302.222,307.442,309.722,314.702,318.063,320.342,325.142,327.422,329.642,334.742,339.782,344.882,349.922,352.202,359.342,361.623,364.982,370.263,372.542,378.303,383.042,388.323,390.602,395.823,401.103,403.388,408.367,411.667,413.952,418.752,421.031,423.252,428.352,433.392,438.492" svgx:width="0.35,0.5,0.52,0.23,0.48,0.42,0.5,0.23,0.58,0.47,0.52,0.23,0.53,0.52,0.23,0.5,0.34,0.23,0.48,0.23,0.23,0.51,0.51,0.51,0.51,0.23,0.71,0.23,0.34,0.52,0.23,0.58,0.47,0.52,0.23,0.53,0.52,0.23,0.5,0.34,0.23,0.48,0.23,0.23,0.51,0.51,0.51,0.51" style="fill:rgb(0,0,0);font-family:Calibri;font-size:10.02px;stroke:none;">replace Aghion et al 2013 with Aghion et al 2016</text>
  </g>
  <g begin="text">
   <text y="526.62" x="443.52" svgx:width="0.23" style="fill:rgb(0,0,0);font-family:Calibri;font-size:10.02px;stroke:none;"> </text>
  </g>
  <path style="fill:rgb(0,0,0);stroke:none;stroke-width:1.0;" d="M71.340 230.280 L127.560 230.280 L127.560 324.780 L71.340 324.780 L71.340 230.280 M71.340 230.280 L127.560 230.280 L127.560 324.780 L71.340 324.780 L71.340 230.280 M128.040 230.280 L184.260 230.280 L184.260 324.780 L128.040 324.780 L128.040 230.280 M128.040 230.280 L184.260 230.280 L184.260 324.780 L128.040 324.780 L128.040 230.280 M184.740 230.280 L240.960 230.280 L240.960 324.780 L184.740 324.780 L184.740 230.280 M184.740 230.280 L240.960 230.280 L240.960 324.780 L184.740 324.780 L184.740 230.280 M70.860 324.780 L71.340 324.780 L71.340 325.260 L70.860 325.260 L70.860 324.780 "/>
  <path style="fill:rgb(0,0,0);stroke:none;stroke-width:1.0;" d="M71.340 324.780 L127.560 324.780 L127.560 325.260 L71.340 325.260 L71.340 324.780 "/>
  <path style="fill:rgb(0,0,0);stroke:none;stroke-width:1.0;" d="M127.560 324.780 L128.040 324.780 L128.040 325.260 L127.560 325.260 L127.560 324.780 "/>
  <path style="fill:rgb(0,0,0);stroke:none;stroke-width:1.0;" d="M128.040 324.780 L184.260 324.780 L184.260 325.260 L128.040 325.260 L128.040 324.780 "/>
  <path style="fill:rgb(0,0,0);stroke:none;stroke-width:1.0;" d="M184.260 324.780 L184.740 324.780 L184.740 325.260 L184.260 325.260 L184.260 324.780 "/>
  <path style="fill:rgb(0,0,0);stroke:none;stroke-width:1.0;" d="M184.740 324.780 L240.960 324.780 L240.960 325.260 L184.740 325.260 L184.740 324.780 "/>
  <path style="fill:rgb(0,0,0);stroke:none;stroke-width:1.0;" d="M240.960 324.780 L241.440 324.780 L241.440 325.260 L240.960 325.260 L240.960 324.780 "/>
  <path style="fill:rgb(0,0,0);stroke:none;stroke-width:1.0;" d="M523.980 324.780 L524.460 324.780 L524.460 325.260 L523.980 325.260 L523.980 324.780 "/>
  <path style="fill:rgb(0,0,0);stroke:none;stroke-width:1.0;" d="M70.860 230.280 L71.340 230.280 L71.340 324.780 L70.860 324.780 L70.860 230.280 "/>
  <path style="fill:rgb(0,0,0);stroke:none;stroke-width:1.0;" d="M127.560 230.280 L128.040 230.280 L128.040 324.780 L127.560 324.780 L127.560 230.280 "/>
  <path style="fill:rgb(0,0,0);stroke:none;stroke-width:1.0;" d="M184.260 230.280 L184.740 230.280 L184.740 324.780 L184.260 324.780 L184.260 230.280 "/>
  <path style="fill:rgb(0,0,0);stroke:none;stroke-width:1.0;" d="M240.960 230.280 L241.440 230.280 L241.440 324.780 L240.960 324.780 L240.960 230.280 "/>
  <path style="fill:rgb(0,0,0);stroke:none;stroke-width:1.0;" d="M523.980 230.280 L524.460 230.280 L524.460 324.780 L523.980 324.780 L523.980 230.280 "/>
  <g begin="text">
   <text y="621.66" x="76.5,81.841,87.121,91.921,97.201,100.558,105.538,108.958,111.242,116.282" svgx:width="0.53,0.52,0.48,0.52,0.34,0.5,0.35,0.23,0.51,0.51" style="fill:rgb(0,0,0);font-family:Calibri;font-size:10.02px;stroke:none;">Chapter 16</text>
  </g>
  <g begin="text">
   <text y="621.66" x="121.32" svgx:width="0.23" style="fill:rgb(0,0,0);font-family:Calibri;font-size:10.02px;stroke:none;"> </text>
  </g>
  <g begin="text">
   <text y="621.66" x="133.2,138.3" svgx:width="0.51,0.51" style="fill:rgb(0,0,0);font-family:Calibri;font-size:10.02px;stroke:none;">22</text>
  </g>
  <g begin="text">
   <text y="621.66" x="143.34" svgx:width="0.23" style="fill:rgb(0,0,0);font-family:Calibri;font-size:10.02px;stroke:none;"> </text>
  </g>
  <g begin="text">
   <text y="621.66" x="189.9,195.0" svgx:width="0.51,0.51" style="fill:rgb(0,0,0);font-family:Calibri;font-size:10.02px;stroke:none;">30</text>
  </g>
  <g begin="text">
   <text y="621.66" x="200.04" svgx:width="0.23" style="fill:rgb(0,0,0);font-family:Calibri;font-size:10.02px;stroke:none;"> </text>
  </g>
  <g begin="text">
   <text y="621.66" x="246.6,250.08,255.06,260.34,262.62,267.421,271.679,276.659,278.879,284.701,289.381,294.662,296.943,302.222,307.442,309.722,314.702,318.063,320.342,325.142,327.422,329.642,334.742,339.782,344.882,349.922,352.202,359.342,361.623,364.982,370.263,372.542,378.303,383.042,388.323,390.602,395.823,401.103,403.388,408.367,411.667,413.952,418.752,421.031,423.252,428.352,433.392,438.492" svgx:width="0.35,0.5,0.52,0.23,0.48,0.42,0.5,0.23,0.58,0.47,0.52,0.23,0.53,0.52,0.23,0.5,0.34,0.23,0.48,0.23,0.23,0.51,0.51,0.51,0.51,0.23,0.71,0.23,0.34,0.52,0.23,0.58,0.47,0.52,0.23,0.53,0.52,0.23,0.5,0.34,0.23,0.48,0.23,0.23,0.51,0.51,0.51,0.51" style="fill:rgb(0,0,0);font-family:Calibri;font-size:10.02px;stroke:none;">replace Aghion et al 2013 with Aghion et al 2016</text>
  </g>
  <g begin="text">
   <text y="621.66" x="443.52" svgx:width="0.23" style="fill:rgb(0,0,0);font-family:Calibri;font-size:10.02px;stroke:none;"> </text>
  </g>
  <path style="fill:rgb(0,0,0);stroke:none;stroke-width:1.0;" d="M71.340 135.240 L127.560 135.240 L127.560 229.740 L71.340 229.740 L71.340 135.240 M71.340 135.240 L127.560 135.240 L127.560 229.740 L71.340 229.740 L71.340 135.240 M128.040 135.240 L184.260 135.240 L184.260 229.740 L128.040 229.740 L128.040 135.240 M128.040 135.240 L184.260 135.240 L184.260 229.740 L128.040 229.740 L128.040 135.240 M184.740 135.240 L240.960 135.240 L240.960 229.740 L184.740 229.740 L184.740 135.240 M184.740 135.240 L240.960 135.240 L240.960 229.740 L184.740 229.740 L184.740 135.240 M70.860 229.800 L71.340 229.800 L71.340 230.280 L70.860 230.280 L70.860 229.800 "/>
  <path style="fill:rgb(0,0,0);stroke:none;stroke-width:1.0;" d="M71.340 229.800 L127.560 229.800 L127.560 230.280 L71.340 230.280 L71.340 229.800 "/>
  <path style="fill:rgb(0,0,0);stroke:none;stroke-width:1.0;" d="M127.560 229.800 L128.040 229.800 L128.040 230.280 L127.560 230.280 L127.560 229.800 "/>
  <path style="fill:rgb(0,0,0);stroke:none;stroke-width:1.0;" d="M128.040 229.800 L184.260 229.800 L184.260 230.280 L128.040 230.280 L128.040 229.800 "/>
  <path style="fill:rgb(0,0,0);stroke:none;stroke-width:1.0;" d="M184.260 229.800 L184.740 229.800 L184.740 230.280 L184.260 230.280 L184.260 229.800 "/>
  <path style="fill:rgb(0,0,0);stroke:none;stroke-width:1.0;" d="M184.740 229.800 L240.960 229.800 L240.960 230.280 L184.740 230.280 L184.740 229.800 "/>
  <path style="fill:rgb(0,0,0);stroke:none;stroke-width:1.0;" d="M240.960 229.800 L241.440 229.800 L241.440 230.280 L240.960 230.280 L240.960 229.800 "/>
  <path style="fill:rgb(0,0,0);stroke:none;stroke-width:1.0;" d="M523.980 229.800 L524.460 229.800 L524.460 230.280 L523.980 230.280 L523.980 229.800 "/>
  <path style="fill:rgb(0,0,0);stroke:none;stroke-width:1.0;" d="M70.860 135.240 L71.340 135.240 L71.340 229.800 L70.860 229.800 L70.860 135.240 "/>
  <path style="fill:rgb(0,0,0);stroke:none;stroke-width:1.0;" d="M70.860 134.760 L71.340 134.760 L71.340 135.240 L70.860 135.240 L70.860 134.760 "/>
  <path style="fill:rgb(0,0,0);stroke:none;stroke-width:1.0;" d="M70.860 134.760 L71.340 134.760 L71.340 135.240 L70.860 135.240 L70.860 134.760 "/>
  <path style="fill:rgb(0,0,0);stroke:none;stroke-width:1.0;" d="M71.340 134.760 L127.560 134.760 L127.560 135.240 L71.340 135.240 L71.340 134.760 "/>
  <path style="fill:rgb(0,0,0);stroke:none;stroke-width:1.0;" d="M127.560 135.240 L128.040 135.240 L128.040 229.800 L127.560 229.800 L127.560 135.240 "/>
  <path style="fill:rgb(0,0,0);stroke:none;stroke-width:1.0;" d="M127.560 134.760 L128.040 134.760 L128.040 135.240 L127.560 135.240 L127.560 134.760 "/>
  <path style="fill:rgb(0,0,0);stroke:none;stroke-width:1.0;" d="M128.040 134.760 L184.260 134.760 L184.260 135.240 L128.040 135.240 L128.040 134.760 "/>
  <path style="fill:rgb(0,0,0);stroke:none;stroke-width:1.0;" d="M184.260 135.240 L184.740 135.240 L184.740 229.800 L184.260 229.800 L184.260 135.240 "/>
  <path style="fill:rgb(0,0,0);stroke:none;stroke-width:1.0;" d="M184.260 134.760 L184.740 134.760 L184.740 135.240 L184.260 135.240 L184.260 134.760 "/>
  <path style="fill:rgb(0,0,0);stroke:none;stroke-width:1.0;" d="M184.740 134.760 L240.960 134.760 L240.960 135.240 L184.740 135.240 L184.740 134.760 "/>
  <path style="fill:rgb(0,0,0);stroke:none;stroke-width:1.0;" d="M240.960 135.240 L241.440 135.240 L241.440 229.800 L240.960 229.800 L240.960 135.240 "/>
  <path style="fill:rgb(0,0,0);stroke:none;stroke-width:1.0;" d="M240.960 134.760 L241.440 134.760 L241.440 135.240 L240.960 135.240 L240.960 134.760 "/>
  <path style="fill:rgb(0,0,0);stroke:none;stroke-width:1.0;" d="M523.980 135.240 L524.460 135.240 L524.460 229.800 L523.980 229.800 L523.980 135.240 "/>
  <path style="fill:rgb(0,0,0);stroke:none;stroke-width:1.0;" d="M523.980 134.760 L524.460 134.760 L524.460 135.240 L523.980 135.240 L523.980 134.760 "/>
  <path style="fill:rgb(0,0,0);stroke:none;stroke-width:1.0;" d="M523.980 134.760 L524.460 134.760 L524.460 135.240 L523.980 135.240 L523.980 134.760 "/>
 </g>
</svg>
