<?xml version="1.0" encoding="UTF-8"?>
<svg height="813.04" width="536.2" xmlns="http://www.w3.org/2000/svg">
 <g id="page" xmlns:svgx="http://www.xml-cml.org/schema/svgx">
  <g begin="text">
   <text y="45.72" x="72.024,78.162,81.231,86.751,91.587,94.7,97.46,105.376,110.896,116.416,121.218,124.928,130.448,138.971,143.872,149.392,152.517" svgx:width="0.56,0.28,0.5,0.44,0.28,0.25,0.72,0.5,0.5,0.44,0.33,0.5,0.78,0.44,0.5,0.28,0.25" style="fill:rgb(0,0,0);font-family:TimesNewRomanPSMT;font-size:11.04px;stroke:none;">Final Government </text>
  </g>
  <g begin="text">
   <text y="45.72" x="155.3,163.105,166.219,170.414,173.527,177.126,180.239,185.759,191.158,194.161,197.274,202.794" svgx:width="0.72,0.28,0.39,0.28,0.33,0.28,0.5,0.5,0.28,0.28,0.5,0.5" style="fill:rgb(0,0,0);font-family:TimesNewRomanPSMT;font-size:11.04px;stroke:none;">Distribution</text>
  </g>
  <g begin="text">
   <text y="45.72" x="208.25" svgx:width="0.25" style="fill:rgb(0,0,0);font-family:TimesNewRomanPSMT;font-size:11.04px;stroke:none;"> </text>
  </g>
  <g begin="text">
   <text y="45.72" x="273.41,280.729,286.249,291.151,296.671,299.796,304.598,308.307,311.067,316.587" svgx:width="0.67,0.5,0.44,0.5,0.28,0.44,0.33,0.25,0.5,0.5" style="fill:rgb(0,0,0);font-family:TimesNewRomanPSMT;font-size:11.04px;stroke:none;">Chapter 16</text>
  </g>
  <g begin="text">
   <text y="45.72" x="322.03" svgx:width="0.25" style="fill:rgb(0,0,0);font-family:TimesNewRomanPSMT;font-size:11.04px;stroke:none;"> </text>
  </g>
  <g begin="text">
   <text y="45.72" x="443.38" svgx:width="0.33" style="fill:rgb(0,0,0);font-family:TimesNewRomanPSMT;font-size:11.04px;stroke:none;">I</text>
  </g>
  <g begin="text">
   <text y="45.72" x="446.98,453.118,460.416,467.735" svgx:width="0.56,0.67,0.67,0.25" style="fill:rgb(0,0,0);font-family:TimesNewRomanPSMT;font-size:11.04px;stroke:none;">PCC </text>
  </g>
  <g begin="text">
   <text y="45.72" x="470.5,478.416,485.735,491.255,494.015,504.437,512.408,516.084,519.694" svgx:width="0.72,0.67,0.5,0.25,0.94,0.72,0.33,0.33,0.33" style="fill:rgb(0,0,0);font-family:TimesNewRomanPSMT;font-size:11.04px;stroke:none;">AR6 WGIII</text>
  </g>
  <g begin="text">
   <text y="45.72" x="523.44" svgx:width="0.25" style="fill:rgb(0,0,0);font-family:TimesNewRomanPSMT;font-size:11.04px;stroke:none;"> </text>
  </g>
  <g begin="text">
   <text y="59.64" x="72.024" svgx:width="0.25" style="fill:rgb(0,0,0);font-family:TimesNewRomanPSMT;font-size:11.04px;stroke:none;"> </text>
  </g>
  <g begin="text">
   <text y="789.12" x="72.024" svgx:width="0.25" style="fill:rgb(0,0,0);font-family:TimesNewRomanPS-BoldMT;font-size:11.04px;stroke:none;"> </text>
  </g>
  <g begin="text">
   <text y="803.04" x="72.024,79.94,85.46,88.22,96.135,101.655,105.365,108.125,116.04,119.154,122.753,127.655,130.415,133.075,141.708,147.847,153.367,157.043,161.868,164.628,170.148,175.049,177.809,185.78,188.75,192.945,196.655,201.556,204.681,210.819,216.803,220.512" svgx:width="0.72,0.5,0.25,0.72,0.5,0.33,0.25,0.72,0.28,0.33,0.44,0.25,0.25,0.78,0.56,0.5,0.33,0.44,0.25,0.5,0.44,0.25,0.72,0.28,0.39,0.33,0.44,0.28,0.56,0.56,0.33,0.44" style="fill:rgb(0,0,0);font-family:TimesNewRomanPS-BoldMT;font-size:11.04px;stroke:none;">Do Not Cite, Quote or Distribute</text>
  </g>
  <g begin="text">
   <text y="803.04" x="225.41" svgx:width="0.25" style="fill:rgb(0,0,0);font-family:TimesNewRomanPS-BoldMT;font-size:11.04px;stroke:none;"> </text>
  </g>
  <g begin="text">
   <text y="803.04" x="287.59,293.11" svgx:width="0.5,0.5" style="fill:rgb(0,0,0);font-family:TimesNewRomanPSMT;font-size:11.04px;stroke:none;">16</text>
  </g>
  <g begin="text">
   <text y="803.04" x="298.63" svgx:width="0.33" style="fill:rgb(0,0,0);font-family:TimesNewRomanPSMT;font-size:11.04px;stroke:none;">-</text>
  </g>
  <g begin="text">
   <text y="803.04" x="302.23" svgx:width="0.5" style="fill:rgb(0,0,0);font-family:TimesNewRomanPSMT;font-size:11.04px;stroke:none;">3</text>
  </g>
  <g begin="text">
   <text y="803.04" x="307.75" svgx:width="0.25" style="fill:rgb(0,0,0);font-family:TimesNewRomanPSMT;font-size:11.04px;stroke:none;"> </text>
  </g>
  <g begin="text">
   <text y="803.04" x="310.51" svgx:width="0.25" style="fill:rgb(0,0,0);font-family:TimesNewRomanPSMT;font-size:11.04px;stroke:none;"> </text>
  </g>
  <g begin="text">
   <text y="803.04" x="450.1,456.845,462.365,465.435,470.259,473.372,476.132,481.652,486.554,491.975,496.876,501.204,504.207" svgx:width="0.61,0.5,0.28,0.44,0.28,0.25,0.5,0.44,0.5,0.44,0.39,0.28,0.25" style="fill:rgb(0,0,0);font-family:TimesNewRomanPSMT;font-size:11.04px;stroke:none;">Total pages: </text>
  </g>
  <g begin="text">
   <text y="803.04" x="506.98,512.5,518.02" svgx:width="0.5,0.5,0.5" style="fill:rgb(0,0,0);font-family:TimesNewRomanPSMT;font-size:11.04px;stroke:none;">141</text>
  </g>
  <g begin="text">
   <text y="803.04" x="523.44" svgx:width="0.25" style="fill:rgb(0,0,0);font-family:TimesNewRomanPS-BoldMT;font-size:11.04px;stroke:none;"> </text>
  </g>
  <g begin="text">
   <text y="82.34" x="93.984,99.504,105.024,107.784,113.304,116.064" svgx:width="0.5,0.5,0.25,0.5,0.25,0.5" style="fill:rgb(0,0,0);font-family:TimesNewRomanPSMT;font-size:11.04px;stroke:none;">16.6.3</text>
  </g>
  <g begin="text">
   <text y="82.34" x="121.46" svgx:width="0.23" style="fill:rgb(0,0,0);font-family:Calibri;font-size:11.04px;stroke:none;"> </text>
  </g>
  <g begin="text">
   <text y="82.34" x="138.02,145.936,150.837,153.962,157.075,162.595,167.994,172.288,175.048,177.941,181.054,186.574,191.376,194.49,197.25,200.12,208.643,213.545,219.065,222.079,230.602,233.715,238.009,242.944,245.70399999999998,248.575,252.869,258.29,263.81,268.712,272.443,277.842,280.955,285.857,290.184,292.944,295.815,300.717,306.137,311.657,314.417,317.288,325.921,328.924,334.444,337.447,346.08,349.083,353.377,358.312,361.072,363.943,366.946,370.655,375.557,380.977" svgx:width="0.72,0.44,0.28,0.28,0.5,0.5,0.39,0.25,0.55,0.28,0.5,0.44,0.28,0.25,0.55,0.78,0.44,0.5,0.28,0.78,0.28,0.39,0.44,0.25,0.55,0.39,0.5,0.5,0.44,0.33,0.5,0.28,0.44,0.39,0.25,0.55,0.44,0.5,0.5,0.25,0.55,0.78,0.28,0.5,0.28,0.78,0.28,0.39,0.44,0.25,0.55,0.28,0.33,0.44,0.5,0.44" style="fill:rgb(0,0,0);font-family:TimesNewRomanPSMT;font-size:11.04px;stroke:none;">Actions that maximise synergies and minimise trade</text>
  </g>
  <g begin="text">
   <text y="82.34" x="386.11" svgx:width="0.33" style="fill:rgb(0,0,0);font-family:TimesNewRomanPSMT;font-size:11.04px;stroke:none;">-</text>
  </g>
  <g begin="text">
   <text y="82.34" x="389.71,395.23,398.939,402.649,406.943,409.703,412.596,418.116,422.918,426.032,433.947,438.849,443.773,449.293,452.053,454.802,457.915,463.435,468.955,474.475,479.874,484.775,487.789,490.903,496.423,501.821,504.581,507.452,512.353,517.873,523.294" svgx:width="0.5,0.33,0.33,0.39,0.25,0.55,0.5,0.44,0.28,0.72,0.44,0.44,0.5,0.25,0.55,0.28,0.5,0.5,0.5,0.5,0.44,0.28,0.28,0.5,0.5,0.25,0.55,0.44,0.5,0.5,0.25" style="fill:rgb(0,0,0);font-family:TimesNewRomanPSMT;font-size:11.04px;stroke:none;">offs between innovation and </text>
  </g>
  <g begin="text">
   <text y="82.34" x="48.48" svgx:width="0.5" style="fill:rgb(0,0,0);font-family:TimesNewRomanPSMT;font-size:11.04px;stroke:none;">1</text>
  </g>
  <g begin="text">
   <text y="82.34" x="54.024" svgx:width="0.25" style="fill:rgb(0,0,0);font-family:TimesNewRomanPSMT;font-size:11.04px;stroke:none;"> </text>
  </g>
  <g begin="text">
   <text y="96.26" x="93.984,98.279,103.799,108.137,111.14,116.042,119.166,124.565,129.467,134.987,138.001,142.902,145.662,151.182,156.106,161.505,166.406,169.531,174.929,180.449,188.972,193.874,199.394" svgx:width="0.39,0.5,0.39,0.28,0.44,0.28,0.5,0.44,0.5,0.28,0.44,0.25,0.5,0.44,0.5,0.44,0.28,0.5,0.5,0.78,0.44,0.5,0.28" style="fill:rgb(0,0,0);font-family:TimesNewRomanPSMT;font-size:11.04px;stroke:none;">sustainable development</text>
  </g>
  <g begin="text">
   <text y="96.26" x="202.49" svgx:width="0.25" style="fill:rgb(0,0,0);font-family:TimesNewRomanPSMT;font-size:11.04px;stroke:none;"> </text>
  </g>
  <g begin="text">
   <text y="96.26" x="204.29,207.05,209.81,212.57,215.33,218.09,220.85,223.61,226.37,229.13,231.89,234.65,237.41,240.17,242.93,245.69,248.45,251.21,253.97,256.73,259.49,262.25,265.01,267.77,270.53,273.29,276.05,278.81,281.57,284.33,287.09,289.85" svgx:width="0.25,0.25,0.25,0.25,0.25,0.25,0.25,0.25,0.25,0.25,0.25,0.25,0.25,0.25,0.25,0.25,0.25,0.25,0.25,0.25,0.25,0.25,0.25,0.25,0.25,0.25,0.25,0.25,0.25,0.25,0.25,0.25" style="fill:rgb(0,0,0);font-family:TimesNewRomanPSMT;font-size:11.04px;stroke:none;">................................</text>
  </g>
  <g begin="text">
   <text y="96.26" x="292.63,295.39,298.15,300.91,303.67,306.43,309.19,311.95,314.71,317.47,320.23,322.99,325.75,328.51,331.27,334.03,336.79,339.55,342.31,345.07,347.83,350.59,353.35,356.11,358.87,361.63,364.39,367.15,369.91,372.67,375.43,378.19" svgx:width="0.25,0.25,0.25,0.25,0.25,0.25,0.25,0.25,0.25,0.25,0.25,0.25,0.25,0.25,0.25,0.25,0.25,0.25,0.25,0.25,0.25,0.25,0.25,0.25,0.25,0.25,0.25,0.25,0.25,0.25,0.25,0.25" style="fill:rgb(0,0,0);font-family:TimesNewRomanPSMT;font-size:11.04px;stroke:none;">................................</text>
  </g>
  <g begin="text">
   <text y="96.26" x="380.95,383.71,386.47,389.23,391.99,394.75,397.51,400.27,403.03,405.79,408.55,411.31,414.07,416.83,419.59,422.35,425.11,427.87,430.63,433.39,436.15,438.91,441.67,444.43,447.19,449.95,452.71,455.47,458.23,460.99,463.75,466.51" svgx:width="0.25,0.25,0.25,0.25,0.25,0.25,0.25,0.25,0.25,0.25,0.25,0.25,0.25,0.25,0.25,0.25,0.25,0.25,0.25,0.25,0.25,0.25,0.25,0.25,0.25,0.25,0.25,0.25,0.25,0.25,0.25,0.25" style="fill:rgb(0,0,0);font-family:TimesNewRomanPSMT;font-size:11.04px;stroke:none;">................................</text>
  </g>
  <g begin="text">
   <text y="96.26" x="469.3,472.06,474.82,477.58,480.34,483.1,485.86,488.62,491.38,494.14" svgx:width="0.25,0.25,0.25,0.25,0.25,0.25,0.25,0.25,0.25,0.25" style="fill:rgb(0,0,0);font-family:TimesNewRomanPSMT;font-size:11.04px;stroke:none;">..........</text>
  </g>
  <g begin="text">
   <text y="96.26" x="496.9" svgx:width="0.25" style="fill:rgb(0,0,0);font-family:TimesNewRomanPSMT;font-size:11.04px;stroke:none;"> </text>
  </g>
  <g begin="text">
   <text y="96.26" x="497.26,502.78" svgx:width="0.5,0.5" style="fill:rgb(0,0,0);font-family:TimesNewRomanPSMT;font-size:11.04px;stroke:none;">16</text>
  </g>
  <g begin="text">
   <text y="96.26" x="508.3" svgx:width="0.33" style="fill:rgb(0,0,0);font-family:TimesNewRomanPSMT;font-size:11.04px;stroke:none;">-</text>
  </g>
  <g begin="text">
   <text y="96.26" x="511.92,517.44" svgx:width="0.5,0.5" style="fill:rgb(0,0,0);font-family:TimesNewRomanPSMT;font-size:11.04px;stroke:none;">84</text>
  </g>
  <g begin="text">
   <text y="96.26" x="522.96" svgx:width="0.23" style="fill:rgb(0,0,0);font-family:Calibri;font-size:11.04px;stroke:none;"> </text>
  </g>
  <g begin="text">
   <text y="96.26" x="48.48" svgx:width="0.5" style="fill:rgb(0,0,0);font-family:TimesNewRomanPSMT;font-size:11.04px;stroke:none;">2</text>
  </g>
  <g begin="text">
   <text y="96.26" x="54.024" svgx:width="0.25" style="fill:rgb(0,0,0);font-family:TimesNewRomanPSMT;font-size:11.04px;stroke:none;"> </text>
  </g>
  <g begin="text">
   <text y="115.22" x="93.984,99.504,105.024,107.784,113.304,116.064" svgx:width="0.5,0.5,0.25,0.5,0.25,0.5" style="fill:rgb(0,0,0);font-family:TimesNewRomanPSMT;font-size:11.04px;stroke:none;">16.6.4</text>
  </g>
  <g begin="text">
   <text y="115.22" x="121.46" svgx:width="0.23" style="fill:rgb(0,0,0);font-family:Calibri;font-size:11.04px;stroke:none;"> </text>
  </g>
  <g begin="text">
   <text y="115.22" x="138.02,145.339,148.453,151.456,160.089,164.991,168.005,172.906,175.666,180.59,185.989,190.891,196.411,201.931,206.854,209.614,212.253,216.548,222.068,226.296,229.409,234.212,237.325,242.845,247.747,253.167,256.28,259.283,262.397,265.51,271.03,273.79,279.189,284.09,289.61,294.424,297.537,303.057,308.456,317.089,321.991,327.411,330.524,333.284,338.186,343.607,349.127,351.887,355.0,360.52,365.919,371.439,376.959,381.761,384.874,387.988,393.508" svgx:width="0.67,0.28,0.28,0.78,0.44,0.28,0.44,0.25,0.44,0.5,0.44,0.5,0.5,0.44,0.25,0.25,0.39,0.5,0.39,0.28,0.44,0.28,0.5,0.44,0.5,0.28,0.28,0.28,0.28,0.5,0.25,0.5,0.44,0.5,0.44,0.28,0.5,0.5,0.78,0.44,0.5,0.28,0.25,0.44,0.5,0.5,0.25,0.28,0.5,0.5,0.5,0.5,0.44,0.28,0.28,0.5,0.5" style="fill:rgb(0,0,0);font-family:TimesNewRomanPSMT;font-size:11.04px;stroke:none;">Climate change, sustainability development and innovation</text>
  </g>
  <g begin="text">
   <text y="115.22" x="399.1" svgx:width="0.25" style="fill:rgb(0,0,0);font-family:TimesNewRomanPSMT;font-size:11.04px;stroke:none;"> </text>
  </g>
  <g begin="text">
   <text y="115.22" x="400.3,403.06,405.82,408.58,411.34,414.1,416.86,419.62,422.38,425.14,427.9,430.66,433.42,436.18,438.94,441.7,444.46,447.22,449.98,452.74,455.5,458.26,461.02,463.78,466.54,469.3,472.06,474.82,477.58,480.34,483.1,485.86" svgx:width="0.25,0.25,0.25,0.25,0.25,0.25,0.25,0.25,0.25,0.25,0.25,0.25,0.25,0.25,0.25,0.25,0.25,0.25,0.25,0.25,0.25,0.25,0.25,0.25,0.25,0.25,0.25,0.25,0.25,0.25,0.25,0.25" style="fill:rgb(0,0,0);font-family:TimesNewRomanPSMT;font-size:11.04px;stroke:none;">................................</text>
  </g>
  <g begin="text">
   <text y="115.22" x="488.62,491.38,494.14" svgx:width="0.25,0.25,0.25" style="fill:rgb(0,0,0);font-family:TimesNewRomanPSMT;font-size:11.04px;stroke:none;">...</text>
  </g>
  <g begin="text">
   <text y="115.22" x="496.9" svgx:width="0.25" style="fill:rgb(0,0,0);font-family:TimesNewRomanPSMT;font-size:11.04px;stroke:none;"> </text>
  </g>
  <g begin="text">
   <text y="115.22" x="497.26,502.78" svgx:width="0.5,0.5" style="fill:rgb(0,0,0);font-family:TimesNewRomanPSMT;font-size:11.04px;stroke:none;">16</text>
  </g>
  <g begin="text">
   <text y="115.22" x="508.3" svgx:width="0.33" style="fill:rgb(0,0,0);font-family:TimesNewRomanPSMT;font-size:11.04px;stroke:none;">-</text>
  </g>
  <g begin="text">
   <text y="115.22" x="511.92,517.44" svgx:width="0.5,0.5" style="fill:rgb(0,0,0);font-family:TimesNewRomanPSMT;font-size:11.04px;stroke:none;">86</text>
  </g>
  <g begin="text">
   <text y="115.22" x="522.96" svgx:width="0.23" style="fill:rgb(0,0,0);font-family:Calibri;font-size:11.04px;stroke:none;"> </text>
  </g>
  <g begin="text">
   <text y="115.22" x="48.48" svgx:width="0.5" style="fill:rgb(0,0,0);font-family:TimesNewRomanPSMT;font-size:11.04px;stroke:none;">3</text>
  </g>
  <g begin="text">
   <text y="115.22" x="54.024" svgx:width="0.25" style="fill:rgb(0,0,0);font-family:TimesNewRomanPSMT;font-size:11.04px;stroke:none;"> </text>
  </g>
  <g begin="text">
   <text y="134.06" x="83.064,88.584,94.104,96.864" svgx:width="0.5,0.5,0.25,0.5" style="fill:rgb(0,0,0);font-family:TimesNewRomanPSMT;font-size:11.04px;stroke:none;">16.7</text>
  </g>
  <g begin="text">
   <text y="134.06" x="102.26" svgx:width="0.23" style="fill:rgb(0,0,0);font-family:Calibri;font-size:11.04px;stroke:none;"> </text>
  </g>
  <g begin="text">
   <text y="134.06" x="116.06,123.976,129.496,135.016,142.931,146.045,150.946,156.466,161.986,166.91,169.549,175.069,179.971,185.491" svgx:width="0.72,0.5,0.5,0.72,0.28,0.44,0.5,0.5,0.44,0.25,0.5,0.44,0.5,0.39" style="fill:rgb(0,0,0);font-family:TimesNewRomanPSMT;font-size:11.04px;stroke:none;">Knowledge gaps</text>
  </g>
  <g begin="text">
   <text y="134.06" x="189.77" svgx:width="0.25" style="fill:rgb(0,0,0);font-family:TimesNewRomanPSMT;font-size:11.04px;stroke:none;"> </text>
  </g>
  <g begin="text">
   <text y="134.06" x="190.49,193.25,196.01,198.77,201.53,204.29,207.05,209.81,212.57,215.33,218.09,220.85,223.61,226.37,229.13,231.89,234.65,237.41,240.17,242.93,245.69,248.45,251.21,253.97,256.73,259.49,262.25,265.01,267.77,270.53,273.29,276.05" svgx:width="0.25,0.25,0.25,0.25,0.25,0.25,0.25,0.25,0.25,0.25,0.25,0.25,0.25,0.25,0.25,0.25,0.25,0.25,0.25,0.25,0.25,0.25,0.25,0.25,0.25,0.25,0.25,0.25,0.25,0.25,0.25,0.25" style="fill:rgb(0,0,0);font-family:TimesNewRomanPSMT;font-size:11.04px;stroke:none;">................................</text>
  </g>
  <g begin="text">
   <text y="134.06" x="278.81,281.57,284.33,287.09,289.85,292.61,295.37,298.13,300.89,303.65,306.41,309.17,311.93,314.69,317.45,320.21,322.97,325.73,328.49,331.25,334.01,336.77,339.53,342.29,345.05,347.81,350.57,353.33,356.09,358.85,361.61,364.37" svgx:width="0.25,0.25,0.25,0.25,0.25,0.25,0.25,0.25,0.25,0.25,0.25,0.25,0.25,0.25,0.25,0.25,0.25,0.25,0.25,0.25,0.25,0.25,0.25,0.25,0.25,0.25,0.25,0.25,0.25,0.25,0.25,0.25" style="fill:rgb(0,0,0);font-family:TimesNewRomanPSMT;font-size:11.04px;stroke:none;">................................</text>
  </g>
  <g begin="text">
   <text y="134.06" x="367.15,369.91,372.67,375.43,378.19,380.95,383.71,386.47,389.23,391.99,394.75,397.51,400.27,403.03,405.79,408.55,411.31,414.07,416.83,419.59,422.35,425.11,427.87,430.63,433.39,436.15,438.91,441.67,444.43,447.19,449.95,452.71" svgx:width="0.25,0.25,0.25,0.25,0.25,0.25,0.25,0.25,0.25,0.25,0.25,0.25,0.25,0.25,0.25,0.25,0.25,0.25,0.25,0.25,0.25,0.25,0.25,0.25,0.25,0.25,0.25,0.25,0.25,0.25,0.25,0.25" style="fill:rgb(0,0,0);font-family:TimesNewRomanPSMT;font-size:11.04px;stroke:none;">................................</text>
  </g>
  <g begin="text">
   <text y="134.06" x="455.5,458.26,461.02,463.78,466.54,469.3,472.06,474.82,477.58,480.34,483.1,485.86,488.62,491.38,494.14" svgx:width="0.25,0.25,0.25,0.25,0.25,0.25,0.25,0.25,0.25,0.25,0.25,0.25,0.25,0.25,0.25" style="fill:rgb(0,0,0);font-family:TimesNewRomanPSMT;font-size:11.04px;stroke:none;">...............</text>
  </g>
  <g begin="text">
   <text y="134.06" x="496.9" svgx:width="0.25" style="fill:rgb(0,0,0);font-family:TimesNewRomanPSMT;font-size:11.04px;stroke:none;"> </text>
  </g>
  <g begin="text">
   <text y="134.06" x="497.26,502.78" svgx:width="0.5,0.5" style="fill:rgb(0,0,0);font-family:TimesNewRomanPSMT;font-size:11.04px;stroke:none;">16</text>
  </g>
  <g begin="text">
   <text y="134.06" x="508.3" svgx:width="0.33" style="fill:rgb(0,0,0);font-family:TimesNewRomanPSMT;font-size:11.04px;stroke:none;">-</text>
  </g>
  <g begin="text">
   <text y="134.06" x="511.92,517.44" svgx:width="0.5,0.5" style="fill:rgb(0,0,0);font-family:TimesNewRomanPSMT;font-size:11.04px;stroke:none;">87</text>
  </g>
  <g begin="text">
   <text y="134.06" x="522.96" svgx:width="0.23" style="fill:rgb(0,0,0);font-family:Calibri;font-size:11.04px;stroke:none;"> </text>
  </g>
  <g begin="text">
   <text y="134.06" x="48.48" svgx:width="0.5" style="fill:rgb(0,0,0);font-family:TimesNewRomanPSMT;font-size:11.04px;stroke:none;">4</text>
  </g>
  <g begin="text">
   <text y="134.06" x="54.024" svgx:width="0.25" style="fill:rgb(0,0,0);font-family:TimesNewRomanPSMT;font-size:11.04px;stroke:none;"> </text>
  </g>
  <g begin="text">
   <text y="153.02" x="83.064,89.202,92.879,97.813,103.333,108.853,113.656,119.176,122.179,125.292,130.812,133.572,141.488,145.782,151.302,156.127,161.647,164.407,172.322,177.842,182.744,186.961,190.075,193.078,198.598,203.996,208.291,211.051,214.782,220.921,228.825,236.741,241.035" svgx:width="0.56,0.33,0.44,0.5,0.5,0.44,0.5,0.28,0.28,0.5,0.25,0.72,0.39,0.5,0.44,0.5,0.25,0.72,0.5,0.44,0.39,0.28,0.28,0.5,0.5,0.39,0.25,0.33,0.56,0.72,0.72,0.39,0.33" style="fill:rgb(0,0,0);font-family:TimesNewRomanPSMT;font-size:11.04px;stroke:none;">Frequently Asked Questions (FAQs)</text>
  </g>
  <g begin="text">
   <text y="153.02" x="244.73" svgx:width="0.25" style="fill:rgb(0,0,0);font-family:TimesNewRomanPSMT;font-size:11.04px;stroke:none;"> </text>
  </g>
  <g begin="text">
   <text y="153.02" x="245.69,248.45,251.21,253.97,256.73,259.49,262.25,265.01,267.77,270.53,273.29,276.05,278.81,281.57,284.33,287.09,289.85,292.61,295.37,298.13,300.89,303.65,306.41,309.17,311.93,314.69,317.45,320.21,322.97,325.73,328.49,331.25" svgx:width="0.25,0.25,0.25,0.25,0.25,0.25,0.25,0.25,0.25,0.25,0.25,0.25,0.25,0.25,0.25,0.25,0.25,0.25,0.25,0.25,0.25,0.25,0.25,0.25,0.25,0.25,0.25,0.25,0.25,0.25,0.25,0.25" style="fill:rgb(0,0,0);font-family:TimesNewRomanPSMT;font-size:11.04px;stroke:none;">................................</text>
  </g>
  <g begin="text">
   <text y="153.02" x="334.03,336.79,339.55,342.31,345.07,347.83,350.59,353.35,356.11,358.87,361.63,364.39,367.15,369.91,372.67,375.43,378.19,380.95,383.71,386.47,389.23,391.99,394.75,397.51,400.27,403.03,405.79,408.55,411.31,414.07,416.83,419.59" svgx:width="0.25,0.25,0.25,0.25,0.25,0.25,0.25,0.25,0.25,0.25,0.25,0.25,0.25,0.25,0.25,0.25,0.25,0.25,0.25,0.25,0.25,0.25,0.25,0.25,0.25,0.25,0.25,0.25,0.25,0.25,0.25,0.25" style="fill:rgb(0,0,0);font-family:TimesNewRomanPSMT;font-size:11.04px;stroke:none;">................................</text>
  </g>
  <g begin="text">
   <text y="153.02" x="422.38,425.14,427.9,430.66,433.42,436.18,438.94,441.7,444.46,447.22,449.98,452.74,455.5,458.26,461.02,463.78,466.54,469.3,472.06,474.82,477.58,480.34,483.1,485.86,488.62,491.38,494.14" svgx:width="0.25,0.25,0.25,0.25,0.25,0.25,0.25,0.25,0.25,0.25,0.25,0.25,0.25,0.25,0.25,0.25,0.25,0.25,0.25,0.25,0.25,0.25,0.25,0.25,0.25,0.25,0.25" style="fill:rgb(0,0,0);font-family:TimesNewRomanPSMT;font-size:11.04px;stroke:none;">...........................</text>
  </g>
  <g begin="text">
   <text y="153.02" x="496.9" svgx:width="0.25" style="fill:rgb(0,0,0);font-family:TimesNewRomanPSMT;font-size:11.04px;stroke:none;"> </text>
  </g>
  <g begin="text">
   <text y="153.02" x="497.26,502.78" svgx:width="0.5,0.5" style="fill:rgb(0,0,0);font-family:TimesNewRomanPSMT;font-size:11.04px;stroke:none;">16</text>
  </g>
  <g begin="text">
   <text y="153.02" x="508.3" svgx:width="0.33" style="fill:rgb(0,0,0);font-family:TimesNewRomanPSMT;font-size:11.04px;stroke:none;">-</text>
  </g>
  <g begin="text">
   <text y="153.02" x="511.92,517.44" svgx:width="0.5,0.5" style="fill:rgb(0,0,0);font-family:TimesNewRomanPSMT;font-size:11.04px;stroke:none;">89</text>
  </g>
  <g begin="text">
   <text y="153.02" x="522.96" svgx:width="0.23" style="fill:rgb(0,0,0);font-family:Calibri;font-size:11.04px;stroke:none;"> </text>
  </g>
  <g begin="text">
   <text y="153.02" x="48.48" svgx:width="0.5" style="fill:rgb(0,0,0);font-family:TimesNewRomanPSMT;font-size:11.04px;stroke:none;">5</text>
  </g>
  <g begin="text">
   <text y="153.02" x="54.024" svgx:width="0.25" style="fill:rgb(0,0,0);font-family:TimesNewRomanPSMT;font-size:11.04px;stroke:none;"> </text>
  </g>
  <g begin="text">
   <text y="171.86" x="83.064,90.383,95.285,99.017,103.919,107.54,112.441,117.961,122.775,127.677" svgx:width="0.67,0.44,0.33,0.44,0.33,0.44,0.5,0.44,0.44,0.39" style="fill:rgb(0,0,0);font-family:TimesNewRomanPSMT;font-size:11.04px;stroke:none;">References</text>
  </g>
  <g begin="text">
   <text y="171.86" x="131.9" svgx:width="0.25" style="fill:rgb(0,0,0);font-family:TimesNewRomanPSMT;font-size:11.04px;stroke:none;"> </text>
  </g>
  <g begin="text">
   <text y="171.86" x="132.5,135.26,138.02,140.78,143.54,146.3,149.06,151.82,154.58,157.34,160.1,162.86,165.62,168.38,171.14,173.9,176.66,179.42,182.18,184.94,187.7,190.46,193.22,195.98,198.74,201.5,204.26,207.02,209.78,212.54,215.3,218.06" svgx:width="0.25,0.25,0.25,0.25,0.25,0.25,0.25,0.25,0.25,0.25,0.25,0.25,0.25,0.25,0.25,0.25,0.25,0.25,0.25,0.25,0.25,0.25,0.25,0.25,0.25,0.25,0.25,0.25,0.25,0.25,0.25,0.25" style="fill:rgb(0,0,0);font-family:TimesNewRomanPSMT;font-size:11.04px;stroke:none;">................................</text>
  </g>
  <g begin="text">
   <text y="171.86" x="220.85,223.61,226.37,229.13,231.89,234.65,237.41,240.17,242.93,245.69,248.45,251.21,253.97,256.73,259.49,262.25,265.01,267.77,270.53,273.29,276.05,278.81,281.57,284.33,287.09,289.85,292.61,295.37,298.13,300.89,303.65,306.41" svgx:width="0.25,0.25,0.25,0.25,0.25,0.25,0.25,0.25,0.25,0.25,0.25,0.25,0.25,0.25,0.25,0.25,0.25,0.25,0.25,0.25,0.25,0.25,0.25,0.25,0.25,0.25,0.25,0.25,0.25,0.25,0.25,0.25" style="fill:rgb(0,0,0);font-family:TimesNewRomanPSMT;font-size:11.04px;stroke:none;">................................</text>
  </g>
  <g begin="text">
   <text y="171.86" x="309.19,311.95,314.71,317.47,320.23,322.99,325.75,328.51,331.27,334.03,336.79,339.55,342.31,345.07,347.83,350.59,353.35,356.11,358.87,361.63,364.39,367.15,369.91,372.67,375.43,378.19,380.95,383.71,386.47,389.23,391.99,394.75" svgx:width="0.25,0.25,0.25,0.25,0.25,0.25,0.25,0.25,0.25,0.25,0.25,0.25,0.25,0.25,0.25,0.25,0.25,0.25,0.25,0.25,0.25,0.25,0.25,0.25,0.25,0.25,0.25,0.25,0.25,0.25,0.25,0.25" style="fill:rgb(0,0,0);font-family:TimesNewRomanPSMT;font-size:11.04px;stroke:none;">................................</text>
  </g>
  <g begin="text">
   <text y="171.86" x="397.54,400.3,403.06,405.82,408.58,411.34,414.1,416.86,419.62,422.38,425.14,427.9,430.66,433.42,436.18,438.94,441.7,444.46,447.22,449.98,452.74,455.5,458.26,461.02,463.78,466.54,469.3,472.06,474.82,477.58,480.34,483.1" svgx:width="0.25,0.25,0.25,0.25,0.25,0.25,0.25,0.25,0.25,0.25,0.25,0.25,0.25,0.25,0.25,0.25,0.25,0.25,0.25,0.25,0.25,0.25,0.25,0.25,0.25,0.25,0.25,0.25,0.25,0.25,0.25,0.25" style="fill:rgb(0,0,0);font-family:TimesNewRomanPSMT;font-size:11.04px;stroke:none;">................................</text>
  </g>
  <g begin="text">
   <text y="171.86" x="485.86,488.62,491.38,494.14" svgx:width="0.25,0.25,0.25,0.25" style="fill:rgb(0,0,0);font-family:TimesNewRomanPSMT;font-size:11.04px;stroke:none;">....</text>
  </g>
  <g begin="text">
   <text y="171.86" x="496.9" svgx:width="0.25" style="fill:rgb(0,0,0);font-family:TimesNewRomanPSMT;font-size:11.04px;stroke:none;"> </text>
  </g>
  <g begin="text">
   <text y="171.86" x="497.26,502.78" svgx:width="0.5,0.5" style="fill:rgb(0,0,0);font-family:TimesNewRomanPSMT;font-size:11.04px;stroke:none;">16</text>
  </g>
  <g begin="text">
   <text y="171.86" x="508.3" svgx:width="0.33" style="fill:rgb(0,0,0);font-family:TimesNewRomanPSMT;font-size:11.04px;stroke:none;">-</text>
  </g>
  <g begin="text">
   <text y="171.86" x="511.92,517.44" svgx:width="0.5,0.5" style="fill:rgb(0,0,0);font-family:TimesNewRomanPSMT;font-size:11.04px;stroke:none;">91</text>
  </g>
  <g begin="text">
   <text y="171.86" x="522.96" svgx:width="0.23" style="fill:rgb(0,0,0);font-family:Calibri;font-size:11.04px;stroke:none;"> </text>
  </g>
  <g begin="text">
   <text y="171.86" x="48.48" svgx:width="0.5" style="fill:rgb(0,0,0);font-family:TimesNewRomanPSMT;font-size:11.04px;stroke:none;">6</text>
  </g>
  <g begin="text">
   <text y="171.86" x="54.024" svgx:width="0.25" style="fill:rgb(0,0,0);font-family:TimesNewRomanPSMT;font-size:11.04px;stroke:none;"> </text>
  </g>
  <g begin="text">
   <text y="190.82" x="83.064" svgx:width="0.25" style="fill:rgb(0,0,0);font-family:TimesNewRomanPSMT;font-size:11.04px;stroke:none;"> </text>
  </g>
  <g begin="text">
   <text y="190.82" x="48.48" svgx:width="0.5" style="fill:rgb(0,0,0);font-family:TimesNewRomanPSMT;font-size:11.04px;stroke:none;">7</text>
  </g>
  <g begin="text">
   <text y="190.82" x="54.024" svgx:width="0.25" style="fill:rgb(0,0,0);font-family:TimesNewRomanPSMT;font-size:11.04px;stroke:none;"> </text>
  </g>
  <g begin="text">
   <text y="212.54" x="72.024" svgx:width="0.25" style="fill:rgb(0,0,0);font-family:TimesNewRomanPSMT;font-size:11.04px;stroke:none;"> </text>
  </g>
  <g begin="text">
   <text y="212.54" x="216.05" svgx:width="0.25" style="fill:rgb(0,0,0);font-family:TimesNewRomanPS-BoldMT;font-size:14.04px;stroke:none;"> </text>
  </g>
  <g begin="text">
   <text y="212.54" x="48.48" svgx:width="0.5" style="fill:rgb(0,0,0);font-family:TimesNewRomanPSMT;font-size:11.04px;stroke:none;">8</text>
  </g>
  <g begin="text">
   <text y="212.54" x="54.024" svgx:width="0.25" style="fill:rgb(0,0,0);font-family:TimesNewRomanPSMT;font-size:11.04px;stroke:none;"> </text>
  </g>
  <g begin="text">
   <text y="602.109" transform="matrix(0.70711,-0.70711,0.70711,0.70711,-395.12956,250.29085)" rotateDegrees="-45" matrix="[29.803345,29.803345,-29.803345,29.803345,104.563255,239.8115]" x="104.563" svgx:width="0.67" style="fill:rgb(0,0,0);font-family:Arial;font-size:42.15px;stroke:none;">A</text>
   <text y="582.23" transform="matrix(0.70711,-0.70711,0.70711,0.70711,-375.25056,258.525)" rotateDegrees="-45" matrix="[29.803345,29.803345,-29.803345,29.803345,124.442085,259.6903]" x="124.442" svgx:width="0.72" style="fill:rgb(0,0,0);font-family:Arial;font-size:42.15px;stroke:none;">C</text>
   <text y="560.712" transform="matrix(0.70711,-0.70711,0.70711,0.70711,-353.73256,267.43805)" rotateDegrees="-45" matrix="[29.803345,29.803345,-29.803345,29.803345,145.9601,281.20834]" x="145.96" svgx:width="0.72" style="fill:rgb(0,0,0);font-family:Arial;font-size:42.15px;stroke:none;">C</text>
   <text y="539.194" transform="matrix(0.70711,-0.70711,0.70711,0.70711,-332.21456,276.3511)" rotateDegrees="-45" matrix="[29.803345,29.803345,-29.803345,29.803345,167.47812,302.72635]" x="167.478" svgx:width="0.67" style="fill:rgb(0,0,0);font-family:Arial;font-size:42.15px;stroke:none;">E</text>
   <text y="519.315" transform="matrix(0.70711,-0.70711,0.70711,0.70711,-312.33556,284.58525)" rotateDegrees="-45" matrix="[29.803345,29.803345,-29.803345,29.803345,187.35693,322.60516]" x="187.357" svgx:width="0.67" style="fill:rgb(0,0,0);font-family:Arial;font-size:42.15px;stroke:none;">P</text>
   <text y="499.436" transform="matrix(0.70711,-0.70711,0.70711,0.70711,-292.45656,292.8194)" rotateDegrees="-45" matrix="[29.803345,29.803345,-29.803345,29.803345,207.23578,342.484]" x="207.236" svgx:width="0.61" style="fill:rgb(0,0,0);font-family:Arial;font-size:42.15px;stroke:none;">T</text>
   <text y="481.226" transform="matrix(0.70711,-0.70711,0.70711,0.70711,-274.24656,300.36223)" rotateDegrees="-45" matrix="[29.803345,29.803345,-29.803345,29.803345,225.44562,360.69385]" x="225.446" svgx:width="0.67" style="fill:rgb(0,0,0);font-family:Arial;font-size:42.15px;stroke:none;">E</text>
   <text y="461.347" transform="matrix(0.70711,-0.70711,0.70711,0.70711,-254.36786,308.59567)" rotateDegrees="-45" matrix="[29.803345,29.803345,-29.803345,29.803345,245.32443,380.57266]" x="245.324" svgx:width="0.72" style="fill:rgb(0,0,0);font-family:Arial;font-size:42.15px;stroke:none;">D</text>
   <text y="439.829" transform="matrix(0.70711,-0.70711,0.70711,0.70711,-232.84986,317.50872)" rotateDegrees="-45" matrix="[29.803345,29.803345,-29.803345,29.803345,266.84247,402.0907]" x="266.842" svgx:width="0.28" style="fill:rgb(0,0,0);font-family:Arial;font-size:42.15px;stroke:none;"> </text>
   <text y="431.544" transform="matrix(0.70711,-0.70711,0.70711,0.70711,-224.56456,320.94119)" rotateDegrees="-45" matrix="[29.803345,29.803345,-29.803345,29.803345,275.12778,410.37604]" x="275.128" svgx:width="0.67" style="fill:rgb(0,0,0);font-family:Arial;font-size:42.15px;stroke:none;">V</text>
   <text y="411.665" transform="matrix(0.70711,-0.70711,0.70711,0.70711,-204.68556,329.17534)" rotateDegrees="-45" matrix="[29.803345,29.803345,-29.803345,29.803345,295.0066,430.25485]" x="295.007" svgx:width="0.67" style="fill:rgb(0,0,0);font-family:Arial;font-size:42.15px;stroke:none;">E</text>
   <text y="391.786" transform="matrix(0.70711,-0.70711,0.70711,0.70711,-184.80686,337.40878)" rotateDegrees="-45" matrix="[29.803345,29.803345,-29.803345,29.803345,314.88544,450.13367]" x="314.885" svgx:width="0.72" style="fill:rgb(0,0,0);font-family:Arial;font-size:42.15px;stroke:none;">R</text>
   <text y="370.268" transform="matrix(0.70711,-0.70711,0.70711,0.70711,-163.28886,346.32183)" rotateDegrees="-45" matrix="[29.803345,29.803345,-29.803345,29.803345,336.40344,471.65167]" x="336.403" svgx:width="0.67" style="fill:rgb(0,0,0);font-family:Arial;font-size:42.15px;stroke:none;">S</text>
   <text y="350.389" transform="matrix(0.70711,-0.70711,0.70711,0.70711,-143.40986,354.55598)" rotateDegrees="-45" matrix="[29.803345,29.803345,-29.803345,29.803345,356.2823,491.53052]" x="356.282" svgx:width="0.28" style="fill:rgb(0,0,0);font-family:Arial;font-size:42.15px;stroke:none;">I</text>
   <text y="342.104" transform="matrix(0.70711,-0.70711,0.70711,0.70711,-135.12456,357.98845)" rotateDegrees="-45" matrix="[29.803345,29.803345,-29.803345,29.803345,364.56763,499.81586]" x="364.568" svgx:width="0.78" style="fill:rgb(0,0,0);font-family:Arial;font-size:42.15px;stroke:none;">O</text>
   <text y="318.917" transform="matrix(0.70711,-0.70711,0.70711,0.70711,-111.93756,367.59282)" rotateDegrees="-45" matrix="[29.803345,29.803345,-29.803345,29.803345,387.75458,523.0028]" x="387.755" svgx:width="0.72" style="fill:rgb(0,0,0);font-family:Arial;font-size:42.15px;stroke:none;">N</text>
   <text y="297.399" transform="matrix(0.70711,-0.70711,0.70711,0.70711,-90.41956,376.50586)" rotateDegrees="-45" matrix="[29.803345,29.803345,-29.803345,29.803345,409.27264,544.5209]" x="409.273" svgx:width="0.28" style="fill:rgb(0,0,0);font-family:Arial;font-size:42.15px;stroke:none;"> </text>
   <text y="637.872" transform="matrix(0.70711,-0.70711,0.70711,0.70711,-409.94279,286.05456)" rotateDegrees="-45" matrix="[29.803345,29.803345,-29.803345,29.803345,140.32727,204.04747]" x="140.327" svgx:width="0.67" style="fill:rgb(0,0,0);font-family:Arial;font-size:42.15px;stroke:none;">S</text>
   <text y="617.994" transform="matrix(0.70711,-0.70711,0.70711,0.70711,-390.0645,294.289)" rotateDegrees="-45" matrix="[29.803345,29.803345,-29.803345,29.803345,160.2061,223.9263]" x="160.206" svgx:width="0.72" style="fill:rgb(0,0,0);font-family:Arial;font-size:42.15px;stroke:none;">U</text>
   <text y="596.476" transform="matrix(0.70711,-0.70711,0.70711,0.70711,-368.5465,303.20205)" rotateDegrees="-45" matrix="[29.803345,29.803345,-29.803345,29.803345,181.72412,245.4443]" x="181.724" svgx:width="0.67" style="fill:rgb(0,0,0);font-family:Arial;font-size:42.15px;stroke:none;">B</text>
   <text y="576.597" transform="matrix(0.70711,-0.70711,0.70711,0.70711,-348.6675,311.4362)" rotateDegrees="-45" matrix="[29.803345,29.803345,-29.803345,29.803345,201.60294,265.32315]" x="201.603" svgx:width="0.5" style="fill:rgb(0,0,0);font-family:Arial;font-size:42.15px;stroke:none;">J</text>
   <text y="561.695" transform="matrix(0.70711,-0.70711,0.70711,0.70711,-333.7655,317.60881)" rotateDegrees="-45" matrix="[29.803345,29.803345,-29.803345,29.803345,216.50462,280.22482]" x="216.505" svgx:width="0.67" style="fill:rgb(0,0,0);font-family:Arial;font-size:42.15px;stroke:none;">E</text>
   <text y="541.816" transform="matrix(0.70711,-0.70711,0.70711,0.70711,-313.88679,325.84225)" rotateDegrees="-45" matrix="[29.803345,29.803345,-29.803345,29.803345,236.38344,300.10364]" x="236.383" svgx:width="0.72" style="fill:rgb(0,0,0);font-family:Arial;font-size:42.15px;stroke:none;">C</text>
   <text y="520.298" transform="matrix(0.70711,-0.70711,0.70711,0.70711,-292.36879,334.7553)" rotateDegrees="-45" matrix="[29.803345,29.803345,-29.803345,29.803345,257.90146,321.62164]" x="257.901" svgx:width="0.61" style="fill:rgb(0,0,0);font-family:Arial;font-size:42.15px;stroke:none;">T</text>
   <text y="502.089" transform="matrix(0.70711,-0.70711,0.70711,0.70711,-274.1595,342.29842)" rotateDegrees="-45" matrix="[29.803345,29.803345,-29.803345,29.803345,276.1113,339.83148]" x="276.111" svgx:width="0.28" style="fill:rgb(0,0,0);font-family:Arial;font-size:42.15px;stroke:none;"> </text>
   <text y="493.803" transform="matrix(0.70711,-0.70711,0.70711,0.70711,-265.8735,345.7306)" rotateDegrees="-45" matrix="[29.803345,29.803345,-29.803345,29.803345,284.3966,348.11682]" x="284.397" svgx:width="0.61" style="fill:rgb(0,0,0);font-family:Arial;font-size:42.15px;stroke:none;">T</text>
   <text y="475.593" transform="matrix(0.70711,-0.70711,0.70711,0.70711,-247.66379,353.27272)" rotateDegrees="-45" matrix="[29.803345,29.803345,-29.803345,29.803345,302.60648,366.32666]" x="302.606" svgx:width="0.78" style="fill:rgb(0,0,0);font-family:Arial;font-size:42.15px;stroke:none;">O</text>
   <text y="452.406" transform="matrix(0.70711,-0.70711,0.70711,0.70711,-224.47679,362.87709)" rotateDegrees="-45" matrix="[29.803345,29.803345,-29.803345,29.803345,325.79346,389.51367]" x="325.793" svgx:width="0.28" style="fill:rgb(0,0,0);font-family:Arial;font-size:42.15px;stroke:none;"> </text>
   <text y="444.136" transform="matrix(0.70711,-0.70711,0.70711,0.70711,-216.2065,366.30334)" rotateDegrees="-45" matrix="[29.803345,29.803345,-29.803345,29.803345,334.0639,397.78412]" x="334.064" svgx:width="0.61" style="fill:rgb(0,0,0);font-family:Arial;font-size:42.15px;stroke:none;">F</text>
   <text y="425.926" transform="matrix(0.70711,-0.70711,0.70711,0.70711,-197.9965,373.84617)" rotateDegrees="-45" matrix="[29.803345,29.803345,-29.803345,29.803345,352.27374,415.99396]" x="352.274" svgx:width="0.28" style="fill:rgb(0,0,0);font-family:Arial;font-size:42.15px;stroke:none;">I</text>
   <text y="417.641" transform="matrix(0.70711,-0.70711,0.70711,0.70711,-189.7115,377.27793)" rotateDegrees="-45" matrix="[29.803345,29.803345,-29.803345,29.803345,360.55908,424.2793]" x="360.559" svgx:width="0.72" style="fill:rgb(0,0,0);font-family:Arial;font-size:42.15px;stroke:none;">N</text>
   <text y="396.123" transform="matrix(0.70711,-0.70711,0.70711,0.70711,-168.1935,386.19098)" rotateDegrees="-45" matrix="[29.803345,29.803345,-29.803345,29.803345,382.0771,445.7973]" x="382.077" svgx:width="0.67" style="fill:rgb(0,0,0);font-family:Arial;font-size:42.15px;stroke:none;">A</text>
   <text y="376.244" transform="matrix(0.70711,-0.70711,0.70711,0.70711,-148.3145,394.42513)" rotateDegrees="-45" matrix="[29.803345,29.803345,-29.803345,29.803345,401.95593,465.67615]" x="401.956" svgx:width="0.56" style="fill:rgb(0,0,0);font-family:Arial;font-size:42.15px;stroke:none;">L</text>
   <text y="359.673" transform="matrix(0.70711,-0.70711,0.70711,0.70711,-131.7435,401.28906)" rotateDegrees="-45" matrix="[29.803345,29.803345,-29.803345,29.803345,418.5266,482.24677]" x="418.527" svgx:width="0.28" style="fill:rgb(0,0,0);font-family:Arial;font-size:42.15px;stroke:none;"> </text>
   <text y="351.388" transform="matrix(0.70711,-0.70711,0.70711,0.70711,-123.4585,404.72082)" rotateDegrees="-45" matrix="[29.803345,29.803345,-29.803345,29.803345,426.8119,490.5321]" x="426.812" svgx:width="0.67" style="fill:rgb(0,0,0);font-family:Arial;font-size:42.15px;stroke:none;">E</text>
   <text y="331.509" transform="matrix(0.70711,-0.70711,0.70711,0.70711,-103.5795,412.95497)" rotateDegrees="-45" matrix="[29.803345,29.803345,-29.803345,29.803345,446.69073,510.41095]" x="446.691" svgx:width="0.72" style="fill:rgb(0,0,0);font-family:Arial;font-size:42.15px;stroke:none;">D</text>
   <text y="309.991" transform="matrix(0.70711,-0.70711,0.70711,0.70711,-82.0615,421.86802)" rotateDegrees="-45" matrix="[29.803345,29.803345,-29.803345,29.803345,468.20874,531.92896]" x="468.209" svgx:width="0.28" style="fill:rgb(0,0,0);font-family:Arial;font-size:42.15px;stroke:none;">I</text>
   <text y="301.706" transform="matrix(0.70711,-0.70711,0.70711,0.70711,-73.7765,425.29978)" rotateDegrees="-45" matrix="[29.803345,29.803345,-29.803345,29.803345,476.49408,540.2143]" x="476.494" svgx:width="0.61" style="fill:rgb(0,0,0);font-family:Arial;font-size:42.15px;stroke:none;">T</text>
   <text y="283.496" transform="matrix(0.70711,-0.70711,0.70711,0.70711,-55.5665,432.84261)" rotateDegrees="-45" matrix="[29.803345,29.803345,-29.803345,29.803345,494.70392,558.42413]" x="494.704" svgx:width="0.67" style="fill:rgb(0,0,0);font-family:Arial;font-size:42.15px;stroke:none;">S</text>
  </g>
 </g>
</svg>
